<?xml version="1.0" encoding="UTF-8" standalone="no"?>
<!-- Created with Inkscape (http://www.inkscape.org/) -->

<svg
   xmlns:dc="http://purl.org/dc/elements/1.1/"
   xmlns:cc="http://creativecommons.org/ns#"
   xmlns:rdf="http://www.w3.org/1999/02/22-rdf-syntax-ns#"
   xmlns:svg="http://www.w3.org/2000/svg"
   xmlns="http://www.w3.org/2000/svg"
   xmlns:sodipodi="http://sodipodi.sourceforge.net/DTD/sodipodi-0.dtd"
   xmlns:inkscape="http://www.inkscape.org/namespaces/inkscape"
   width="298.12552"
   height="289.41141"
   id="svg2"
   version="1.1"
   inkscape:version="0.48.3.1 r9886"
   sodipodi:docname="drawing.svg">
  <defs
     id="defs4" />
  <sodipodi:namedview
     id="base"
     pagecolor="#ffffff"
     bordercolor="#666666"
     borderopacity="1.0"
     inkscape:pageopacity="0.0"
     inkscape:pageshadow="2"
     inkscape:zoom="1.0040895"
     inkscape:cx="152.61124"
     inkscape:cy="151.52225"
     inkscape:document-units="px"
     inkscape:current-layer="layer1"
     showgrid="true"
     inkscape:snap-global="false"
     fit-margin-top="0"
     fit-margin-left="0"
     fit-margin-right="0"
     fit-margin-bottom="0"
     inkscape:window-width="1896"
     inkscape:window-height="1028"
     inkscape:window-x="24"
     inkscape:window-y="0"
     inkscape:window-maximized="1" />
  <metadata
     id="metadata7">
    <rdf:RDF>
      <cc:Work
         rdf:about="">
        <dc:format>image/svg+xml</dc:format>
        <dc:type
           rdf:resource="http://purl.org/dc/dcmitype/StillImage" />
        <dc:title></dc:title>
      </cc:Work>
    </rdf:RDF>
  </metadata>
  <g
     inkscape:label="Layer 1"
     inkscape:groupmode="layer"
     id="layer1"
     transform="translate(-65.738202,-261.16571)">
    <path
       style="color:#000000;fill:#ffffff;fill-opacity:1;stroke:#000000;stroke-width:7.5;stroke-linecap:butt;stroke-linejoin:miter;stroke-miterlimit:4;stroke-opacity:1;stroke-dasharray:none;stroke-dashoffset:0;marker:none;visibility:visible;display:inline;overflow:visible;enable-background:accumulate"
       d="m 214.76831,378.84683 46.02889,-26.5748 1e-5,-53.14961 -46.02892,-26.5748 -46.02889,26.5748 -1e-5,53.14961 46.02892,26.5748"
       id="path2989-5"
       inkscape:connector-curvature="0" />
    <path
       style="color:#000000;fill:#ffffff;fill-opacity:1;stroke:#000000;stroke-width:7.5;stroke-linecap:butt;stroke-linejoin:miter;stroke-miterlimit:4;stroke-opacity:1;stroke-dasharray:none;stroke-dashoffset:0;marker:none;visibility:visible;display:inline;overflow:visible;enable-background:accumulate"
       d="m 168.7394,458.57123 46.02889,-26.5748 1e-5,-53.14961 -46.02892,-26.5748 -46.02889,26.5748 -10e-6,53.14961 46.02892,26.5748"
       id="path2989-9"
       inkscape:connector-curvature="0" />
    <path
       style="color:#000000;fill:#ffffff;fill-opacity:1;stroke:#000000;stroke-width:7.5;stroke-linecap:butt;stroke-linejoin:miter;stroke-miterlimit:4;stroke-opacity:1;stroke-dasharray:none;stroke-dashoffset:0;marker:none;visibility:visible;display:inline;overflow:visible;enable-background:accumulate"
       d="m 214.7683,378.84683 0,53.14959 46.02891,26.57481 46.02891,-26.57481 0,-53.14959 -46.02891,-26.57481 -46.02891,26.57481"
       id="path2989-4"
       inkscape:connector-curvature="0" />
    <path
       style="color:#000000;fill:#ffffff;fill-opacity:1;stroke:#000000;stroke-width:7.5;stroke-linecap:butt;stroke-linejoin:miter;stroke-miterlimit:4;stroke-opacity:1;stroke-dasharray:none;stroke-dashoffset:0;marker:none;visibility:visible;display:inline;overflow:visible;enable-background:accumulate"
       d="m 168.73938,458.57121 -46.02889,-26.57478 -46.02892,26.57479 8e-6,53.14962 46.028902,26.57479 46.02891,-26.5748 -10e-6,-53.14962"
       id="path2989"
       inkscape:connector-curvature="0" />
    <path
       style="color:#000000;fill:#ffffff;fill-opacity:1;stroke:#000000;stroke-width:7.5;stroke-linecap:butt;stroke-linejoin:miter;stroke-miterlimit:4;stroke-opacity:1;stroke-dasharray:none;stroke-dashoffset:0;marker:none;visibility:visible;display:inline;overflow:visible;enable-background:accumulate"
       d="m 168.73939,458.57123 0,53.14959 46.02891,26.57481 46.02891,-26.57481 0,-53.14959 -46.02891,-26.57481 -46.02891,26.57481"
       id="path2989-57"
       inkscape:connector-curvature="0" />
    <path
       style="color:#000000;fill:#ffffff;fill-opacity:1;stroke:#000000;stroke-width:7.5;stroke-linecap:butt;stroke-linejoin:miter;stroke-miterlimit:4;stroke-opacity:1;stroke-dasharray:none;stroke-dashoffset:0;marker:none;visibility:visible;display:inline;overflow:visible;enable-background:accumulate"
       d="m 260.79721,458.57123 0,53.14959 46.02891,26.57481 46.02891,-26.57481 0,-53.14959 -46.02891,-26.57481 -46.02891,26.57481"
       id="path2989-6"
       inkscape:connector-curvature="0" />
    <g
       id="g4101"
       transform="matrix(1.5552,0,0,1.5552,-423.58574,-114.92689)">
      <path
         inkscape:connector-curvature="0"
         id="path6417"
         d="m 366.09109,342.82097 -3.1439,0 0,-11.84832 c -1.14859,1.07405 -2.50238,1.86844 -4.06126,2.38308 l 0,-2.85299 c 0.82025,-0.26857 1.71177,-0.77576 2.67396,-1.5216 0.96216,-0.75336 1.6223,-1.62976 1.98031,-2.62923 l 2.55089,0 0,16.46906"
         style="font-size:2.77390003px;font-style:normal;font-variant:normal;font-weight:bold;font-stretch:normal;text-align:start;line-height:100%;text-anchor:start;fill:#000000;fill-opacity:1;stroke:none;font-family:Arial" />
      <path
         inkscape:connector-curvature="0"
         id="path6419"
         d="m 378.12748,339.90084 0,2.92013 -11.02029,0 c 0.11896,-1.10391 0.47743,-2.14814 1.07409,-3.1327 0.59638,-0.99204 1.77513,-2.30478 3.53542,-3.93825 1.41715,-1.32023 2.28612,-2.21528 2.60679,-2.68519 0.43285,-0.64892 0.64925,-1.29035 0.64925,-1.92438 0,-0.70114 -0.18996,-1.23815 -0.57076,-1.6111 -0.37256,-0.38038 -0.89131,-0.57061 -1.55511,-0.57061 -0.65668,0 -1.1785,0.19766 -1.5663,0.59292 -0.38827,0.39535 -0.61127,1.05169 -0.67159,1.96914 l -3.13264,-0.31334 c 0.18667,-1.73042 0.77235,-2.97232 1.75648,-3.72568 0.98455,-0.75333 2.21525,-1.12999 3.69211,-1.12999 1.61853,0 2.89021,0.43631 3.81512,1.309 0.92491,0.87271 1.38733,1.95797 1.38733,3.2558 0,0.73838 -0.13463,1.44326 -0.40311,2.11455 -0.26102,0.66388 -0.67898,1.36125 -1.253,2.09221 -0.38081,0.48482 -1.06666,1.18224 -2.05865,2.09221 -0.99207,0.90997 -1.62233,1.51414 -1.89077,1.81247 -0.26105,0.29837 -0.47332,0.58924 -0.63772,0.87269 l 6.24292,0"
         style="font-size:2.77390003px;font-style:normal;font-variant:normal;font-weight:bold;font-stretch:normal;text-align:start;line-height:100%;text-anchor:start;fill:#000000;fill-opacity:0.06666673;stroke:none;font-family:Arial" />
      <path
         inkscape:connector-curvature="0"
         id="path6421"
         d="m 379.14348,338.32889 3.04311,-0.36924 c 0.0966,0.77573 0.35767,1.36871 0.78309,1.77894 0.42539,0.4102 0.93976,0.61532 1.54394,0.61532 0.64925,0 1.19335,-0.24617 1.63347,-0.73842 0.44772,-0.49222 0.67156,-1.1561 0.67156,-1.99151 0,-0.79061 -0.2123,-1.41715 -0.63769,-1.87961 -0.42542,-0.46242 -0.9435,-0.69362 -1.55517,-0.69371 -0.40311,0 -0.88385,0.0785 -1.44326,0.23494 l 0.34693,-2.56212 c 0.85026,0.0224 1.49917,-0.16032 1.94671,-0.54824 0.44773,-0.39526 0.67159,-0.91743 0.67159,-1.56634 0,-0.55199 -0.1644,-0.99201 -0.49234,-1.32023 -0.32794,-0.32818 -0.76407,-0.49224 -1.309,-0.49231 -0.53692,0 -0.99569,0.18653 -1.3761,0.55939 -0.3808,0.37295 -0.61126,0.91745 -0.69386,1.63347 l -2.89773,-0.49231 c 0.20155,-0.99201 0.50308,-1.78265 0.90625,-2.37192 0.41054,-0.59663 0.9771,-1.06286 1.70054,-1.3985 0.73106,-0.34307 1.54774,-0.51465 2.45028,-0.51465 1.54394,3e-5 2.78206,0.49234 3.71443,1.47687 0.76821,0.80555 1.15239,1.71555 1.15239,2.72992 0,1.43956 -0.78721,2.58821 -2.36072,3.44598 0.93979,0.20137 1.6894,0.65266 2.24888,1.35376 0.56665,0.70114 0.85022,1.54771 0.85022,2.53973 0,1.43955 -0.52618,2.66653 -1.57747,3.68094 -1.05169,1.01438 -2.36072,1.5216 -3.92705,1.5216 -1.48429,0 -2.71499,-0.42517 -3.69212,-1.27546 -0.9771,-0.85777 -1.54394,-1.9766 -1.70054,-3.35647"
         style="font-size:2.77390003px;font-style:normal;font-variant:normal;font-weight:bold;font-stretch:normal;text-align:start;line-height:100%;text-anchor:start;fill:#000000;fill-opacity:1;stroke:none;font-family:Arial" />
      <path
         inkscape:connector-curvature="0"
         id="path6423"
         d="m 397.76971,342.82097 0,-3.30054 -6.71292,0 0,-2.75229 7.11569,-10.41626 2.64043,0 0,10.40506 2.03615,0 0,2.76349 -2.03615,0 0,3.30054 -3.0432,0 m 0,-6.06403 0,-5.60529 -3.77042,5.60529 3.77042,0"
         style="font-size:2.77390003px;font-style:normal;font-variant:normal;font-weight:bold;font-stretch:normal;text-align:start;line-height:100%;text-anchor:start;fill:#000000;fill-opacity:0.06666673;stroke:none;font-family:Arial" />
    </g>
    <g
       id="g4113"
       transform="matrix(1.5552,0,0,1.5552,-477.72015,-194.65129)">
      <path
         inkscape:connector-curvature="0"
         id="path6453"
         d="m 430.49652,342.82097 -3.1439,0 0,-11.84832 c -1.14859,1.07405 -2.50239,1.86844 -4.06127,2.38308 l 0,-2.85299 c 0.82025,-0.26854 1.71178,-0.77573 2.67397,-1.5216 0.96215,-0.75336 1.6223,-1.62973 1.98031,-2.62923 l 2.55089,0 0,16.46906"
         style="font-size:2.77390003px;font-style:normal;font-variant:normal;font-weight:bold;font-stretch:normal;text-align:start;line-height:100%;text-anchor:start;fill:#000000;fill-opacity:1;stroke:none;font-family:Arial" />
      <path
         inkscape:connector-curvature="0"
         id="path6455"
         d="m 442.5329,339.90084 0,2.92013 -11.02029,0 c 0.11896,-1.10391 0.47743,-2.14814 1.07409,-3.1327 0.59639,-0.99201 1.77514,-2.30478 3.53542,-3.93825 1.41715,-1.3202 2.28613,-2.21528 2.6068,-2.68519 0.43284,-0.64892 0.64925,-1.29035 0.64925,-1.92438 0,-0.70114 -0.18996,-1.23815 -0.57077,-1.6111 -0.37255,-0.38038 -0.89131,-0.57061 -1.5551,-0.57061 -0.65668,0 -1.17851,0.19766 -1.56631,0.59292 -0.38826,0.39535 -0.61126,1.05172 -0.67159,1.96914 l -3.13264,-0.31334 c 0.18668,-1.73042 0.77235,-2.97232 1.75648,-3.72568 0.98456,-0.75333 2.21525,-1.12996 3.69211,-1.12999 1.61853,3e-5 2.89022,0.43631 3.81513,1.30903 0.9249,0.87268 1.38733,1.95794 1.38733,3.25577 0,0.73838 -0.13464,1.4433 -0.40312,2.11458 -0.26102,0.66389 -0.67898,1.36125 -1.253,2.09218 -0.3808,0.48482 -1.06666,1.18224 -2.05864,2.09221 -0.99207,0.90997 -1.62233,1.51414 -1.89078,1.81247 -0.26105,0.2984 -0.47331,0.58924 -0.63771,0.87269 l 6.24291,0"
         style="font-size:2.77390003px;font-style:normal;font-variant:normal;font-weight:bold;font-stretch:normal;text-align:start;line-height:100%;text-anchor:start;fill:#000000;fill-opacity:0.06666673;stroke:none;font-family:Arial" />
      <path
         inkscape:connector-curvature="0"
         id="path6457"
         d="m 443.54891,338.32889 3.0431,-0.36924 c 0.0967,0.77573 0.35767,1.36871 0.78309,1.77894 0.42539,0.4102 0.93976,0.61532 1.54394,0.61532 0.64925,0 1.19335,-0.24617 1.63347,-0.73842 0.44773,-0.49222 0.67156,-1.1561 0.67156,-1.99148 0,-0.79061 -0.2123,-1.41718 -0.63769,-1.87964 -0.42541,-0.46242 -0.9435,-0.69362 -1.55516,-0.69371 -0.40312,0 -0.88386,0.0785 -1.44327,0.23494 l 0.34693,-2.56212 c 0.85026,0.0224 1.49917,-0.16032 1.94672,-0.54824 0.44772,-0.39526 0.67159,-0.91743 0.67159,-1.56634 0,-0.55196 -0.1644,-0.99201 -0.49234,-1.32023 -0.32794,-0.32818 -0.76407,-0.49221 -1.309,-0.49231 -0.53692,3e-5 -0.99569,0.18653 -1.3761,0.55939 -0.38081,0.37298 -0.61127,0.91745 -0.69387,1.6335 l -2.89773,-0.49234 c 0.20156,-0.99201 0.50308,-1.78262 0.90625,-2.37189 0.41054,-0.59666 0.9771,-1.06289 1.70055,-1.39853 0.73105,-0.34307 1.54774,-0.51465 2.45028,-0.51465 1.54394,3e-5 2.78206,0.49234 3.71442,1.47687 0.76821,0.80555 1.15239,1.71555 1.15239,2.72992 0,1.43956 -0.7872,2.58821 -2.36072,3.44598 0.93979,0.20137 1.68941,0.65266 2.24888,1.35376 0.56665,0.70114 0.85023,1.54771 0.85023,2.53973 0,1.43955 -0.52619,2.66653 -1.57748,3.68094 -1.05169,1.01438 -2.36071,1.5216 -3.92705,1.5216 -1.48429,0 -2.71498,-0.42517 -3.69211,-1.27546 -0.9771,-0.85777 -1.54394,-1.9766 -1.70055,-3.35647"
         style="font-size:2.77390003px;font-style:normal;font-variant:normal;font-weight:bold;font-stretch:normal;text-align:start;line-height:100%;text-anchor:start;fill:#000000;fill-opacity:0.06666673;stroke:none;font-family:Arial" />
      <path
         inkscape:connector-curvature="0"
         id="path6459"
         d="m 462.17513,342.82097 0,-3.3005 -6.71291,0 0,-2.75233 7.11569,-10.41623 2.64042,0 0,10.40506 2.03616,0 0,2.7635 -2.03616,0 0,3.3005 -3.0432,0 m 0,-6.064 0,-5.60532 -3.77041,5.60532 3.77041,0"
         style="font-size:2.77390003px;font-style:normal;font-variant:normal;font-weight:bold;font-stretch:normal;text-align:start;line-height:100%;text-anchor:start;fill:#000000;fill-opacity:1;stroke:none;font-family:Arial" />
    </g>
    <g
       id="g4083"
       transform="matrix(1.5552,0,0,1.5552,-369.70033,-35.20249)">
      <path
         inkscape:connector-curvature="0"
         id="path6405"
         d="m 301.84577,342.82097 -3.1439,0 0,-11.84832 c -1.14859,1.07405 -2.50238,1.86844 -4.06126,2.38308 l 0,-2.85299 c 0.82025,-0.26857 1.71177,-0.77576 2.67396,-1.5216 0.96216,-0.75336 1.6223,-1.62976 1.98031,-2.62923 l 2.55089,0 0,16.46906"
         style="font-size:2.77390003px;font-style:normal;font-variant:normal;font-weight:bold;font-stretch:normal;text-align:start;line-height:100%;text-anchor:start;fill:#000000;fill-opacity:1;stroke:none;font-family:Arial" />
      <path
         inkscape:connector-curvature="0"
         id="path6407"
         d="m 313.88215,339.90084 0,2.92013 -11.02028,0 c 0.11896,-1.10391 0.47743,-2.14814 1.07409,-3.1327 0.59638,-0.99204 1.77513,-2.30478 3.53541,-3.93825 1.41716,-1.32023 2.28613,-2.21528 2.6068,-2.68519 0.43284,-0.64892 0.64925,-1.29035 0.64925,-1.92438 0,-0.70114 -0.18996,-1.23815 -0.57076,-1.6111 -0.37256,-0.38038 -0.89131,-0.57061 -1.55511,-0.57061 -0.65668,0 -1.1785,0.19766 -1.5663,0.59292 -0.38827,0.39535 -0.61127,1.05169 -0.67159,1.96914 l -3.13264,-0.31334 c 0.18667,-1.73042 0.77235,-2.97232 1.75647,-3.72568 0.98456,-0.75333 2.21525,-1.12999 3.69212,-1.12999 1.61853,0 2.89021,0.43631 3.81512,1.309 0.92491,0.87271 1.38733,1.95797 1.38733,3.2558 0,0.73838 -0.13463,1.44326 -0.40311,2.11455 -0.26102,0.66388 -0.67898,1.36125 -1.253,2.09221 -0.38081,0.48482 -1.06666,1.18224 -2.05865,2.09221 -0.99207,0.90997 -1.62233,1.51414 -1.89077,1.81247 -0.26105,0.29837 -0.47332,0.58924 -0.63772,0.87269 l 6.24291,0"
         style="font-size:2.77390003px;font-style:normal;font-variant:normal;font-weight:bold;font-stretch:normal;text-align:start;line-height:100%;text-anchor:start;fill:#000000;fill-opacity:1;stroke:none;font-family:Arial" />
      <path
         inkscape:connector-curvature="0"
         id="path6409"
         d="m 314.89816,338.32889 3.04311,-0.36924 c 0.0967,0.77573 0.35767,1.36871 0.78309,1.77894 0.42539,0.4102 0.93976,0.61532 1.54394,0.61532 0.64925,0 1.19335,-0.24617 1.63347,-0.73842 0.44772,-0.49222 0.67155,-1.1561 0.67155,-1.99151 0,-0.79061 -0.21229,-1.41715 -0.63768,-1.87961 -0.42542,-0.46242 -0.9435,-0.69362 -1.55517,-0.69371 -0.40311,0 -0.88385,0.0785 -1.44326,0.23494 l 0.34693,-2.56212 c 0.85026,0.0224 1.49917,-0.16032 1.94671,-0.54824 0.44773,-0.39526 0.67159,-0.91743 0.67159,-1.56634 0,-0.55199 -0.1644,-0.99201 -0.49234,-1.32023 -0.32794,-0.32818 -0.76407,-0.49224 -1.309,-0.49231 -0.53692,0 -0.99569,0.18653 -1.3761,0.55939 -0.3808,0.37295 -0.61126,0.91745 -0.69386,1.63347 l -2.89773,-0.49231 c 0.20155,-0.99201 0.50307,-1.78265 0.90625,-2.37192 0.41054,-0.59663 0.9771,-1.06286 1.70054,-1.3985 0.73105,-0.34307 1.54774,-0.51465 2.45028,-0.51465 1.54394,3e-5 2.78206,0.49234 3.71442,1.47687 0.76821,0.80555 1.1524,1.71555 1.1524,2.72992 0,1.43956 -0.78721,2.58821 -2.36072,3.44598 0.93979,0.20137 1.6894,0.65266 2.24888,1.35376 0.56665,0.70114 0.85022,1.54771 0.85022,2.53973 0,1.43955 -0.52618,2.66653 -1.57747,3.68094 -1.05169,1.01438 -2.36072,1.5216 -3.92706,1.5216 -1.48428,0 -2.71498,-0.42517 -3.69211,-1.27546 -0.9771,-0.85777 -1.54394,-1.9766 -1.70054,-3.35647"
         style="font-size:2.77390003px;font-style:normal;font-variant:normal;font-weight:bold;font-stretch:normal;text-align:start;line-height:100%;text-anchor:start;fill:#000000;fill-opacity:0.06666673;stroke:none;font-family:Arial" />
      <path
         inkscape:connector-curvature="0"
         id="path6411"
         d="m 333.52439,342.82097 0,-3.30054 -6.71292,0 0,-2.75229 7.11569,-10.41626 2.64043,0 0,10.40506 2.03615,0 0,2.76349 -2.03615,0 0,3.30054 -3.0432,0 m 0,-6.06403 0,-5.60529 -3.77042,5.60529 3.77042,0"
         style="font-size:2.77390003px;font-style:normal;font-variant:normal;font-weight:bold;font-stretch:normal;text-align:start;line-height:100%;text-anchor:start;fill:#000000;fill-opacity:0.06666673;stroke:none;font-family:Arial" />
    </g>
    <g
       id="g4095"
       transform="matrix(1.5552,0,0,1.5552,-185.58469,-152.67196)">
      <path
         inkscape:connector-curvature="0"
         id="path6441"
         d="m 301.84577,418.35432 -3.1439,0 0,-11.84833 c -1.14859,1.07406 -2.50238,1.86844 -4.06126,2.38309 l 0,-2.853 c 0.82025,-0.26857 1.71177,-0.77576 2.67396,-1.5216 0.96216,-0.75336 1.6223,-1.62976 1.98031,-2.62922 l 2.55089,0 0,16.46906"
         style="font-size:2.77390003px;font-style:normal;font-variant:normal;font-weight:bold;font-stretch:normal;text-align:start;line-height:100%;text-anchor:start;fill:#000000;fill-opacity:0.06666673;stroke:none;font-family:Arial" />
      <path
         inkscape:connector-curvature="0"
         id="path6443"
         d="m 313.88215,415.43419 0,2.92013 -11.02028,0 c 0.11896,-1.10391 0.47743,-2.14815 1.07409,-3.1327 0.59638,-0.99205 1.77513,-2.30479 3.53541,-3.93826 1.41716,-1.32022 2.28613,-2.21528 2.6068,-2.68519 0.43284,-0.64891 0.64925,-1.29034 0.64925,-1.92437 0,-0.70114 -0.18996,-1.23815 -0.57076,-1.61111 -0.37256,-0.38037 -0.89131,-0.57061 -1.55511,-0.57061 -0.65668,0 -1.1785,0.19766 -1.5663,0.59292 -0.38827,0.39535 -0.61127,1.05169 -0.67159,1.96914 l -3.13264,-0.31333 c 0.18667,-1.73043 0.77235,-2.97232 1.75647,-3.72568 0.98456,-0.75333 2.21525,-1.13 3.69212,-1.13 1.61853,0 2.89021,0.43632 3.81512,1.309 0.92491,0.87272 1.38733,1.95797 1.38733,3.2558 0,0.73839 -0.13463,1.44327 -0.40311,2.11455 -0.26102,0.66389 -0.67898,1.36125 -1.253,2.09221 -0.38081,0.48483 -1.06666,1.18225 -2.05865,2.09221 -0.99207,0.90997 -1.62233,1.51415 -1.89077,1.81248 -0.26105,0.29836 -0.47332,0.58924 -0.63772,0.87268 l 6.24291,0"
         style="font-size:2.77390003px;font-style:normal;font-variant:normal;font-weight:bold;font-stretch:normal;text-align:start;line-height:100%;text-anchor:start;fill:#000000;fill-opacity:0.06666673;stroke:none;font-family:Arial" />
      <path
         inkscape:connector-curvature="0"
         id="path6445"
         d="m 314.89816,413.86224 3.04311,-0.36924 c 0.0967,0.77572 0.35767,1.3687 0.78309,1.77894 0.42539,0.4102 0.93976,0.61531 1.54394,0.61531 0.64925,0 1.19335,-0.24617 1.63347,-0.73841 0.44772,-0.49222 0.67155,-1.15611 0.67155,-1.99151 0,-0.79061 -0.21229,-1.41716 -0.63768,-1.87961 -0.42542,-0.46243 -0.9435,-0.69362 -1.55517,-0.69371 -0.40311,0 -0.88385,0.0785 -1.44326,0.23493 l 0.34693,-2.56212 c 0.85026,0.0224 1.49917,-0.16031 1.94671,-0.54824 0.44773,-0.39526 0.67159,-0.91742 0.67159,-1.56634 0,-0.55198 -0.1644,-0.99201 -0.49234,-1.32022 -0.32794,-0.32819 -0.76407,-0.49225 -1.309,-0.49231 -0.53692,0 -0.99569,0.18652 -1.3761,0.55938 -0.3808,0.37295 -0.61126,0.91745 -0.69386,1.63347 l -2.89773,-0.49231 c 0.20155,-0.99201 0.50307,-1.78265 0.90625,-2.37192 0.41054,-0.59663 0.9771,-1.06285 1.70054,-1.3985 0.73105,-0.34306 1.54774,-0.51464 2.45028,-0.51464 1.54394,3e-5 2.78206,0.49234 3.71442,1.47686 0.76821,0.80555 1.1524,1.71555 1.1524,2.72993 0,1.43955 -0.78721,2.5882 -2.36072,3.44597 0.93979,0.20138 1.6894,0.65266 2.24888,1.35377 0.56665,0.70114 0.85022,1.54771 0.85022,2.53972 0,1.43955 -0.52618,2.66654 -1.57747,3.68095 -1.05169,1.01438 -2.36072,1.5216 -3.92706,1.5216 -1.48428,0 -2.71498,-0.42518 -3.69211,-1.27546 -0.9771,-0.85778 -1.54394,-1.9766 -1.70054,-3.35648"
         style="font-size:2.77390003px;font-style:normal;font-variant:normal;font-weight:bold;font-stretch:normal;text-align:start;line-height:100%;text-anchor:start;fill:#000000;fill-opacity:1;stroke:none;font-family:Arial" />
      <path
         inkscape:connector-curvature="0"
         id="path6447"
         d="m 333.52439,418.35432 0,-3.30054 -6.71292,0 0,-2.75229 7.11569,-10.41626 2.64043,0 0,10.40506 2.03615,0 0,2.76349 -2.03615,0 0,3.30054 -3.0432,0 m 0,-6.06403 0,-5.60529 -3.77042,5.60529 3.77042,0"
         style="font-size:2.77390003px;font-style:normal;font-variant:normal;font-weight:bold;font-stretch:normal;text-align:start;line-height:100%;text-anchor:start;fill:#000000;fill-opacity:1;stroke:none;font-family:Arial" />
    </g>
    <g
       id="g4107"
       transform="matrix(1.5552,0,0,1.5552,-331.52792,-173.25253)">
      <path
         inkscape:connector-curvature="0"
         id="path6429"
         d="m 366.09109,380.3246 -3.1439,0 0,-11.84833 c -1.14859,1.07406 -2.50238,1.86844 -4.06126,2.38309 l 0,-2.853 c 0.82025,-0.26856 1.71177,-0.77575 2.67396,-1.5216 0.96216,-0.75336 1.6223,-1.62975 1.98031,-2.62922 l 2.55089,0 0,16.46906"
         style="font-size:2.77390003px;font-style:normal;font-variant:normal;font-weight:bold;font-stretch:normal;text-align:start;line-height:100%;text-anchor:start;fill:#000000;fill-opacity:0.06666673;stroke:none;font-family:Arial" />
      <path
         inkscape:connector-curvature="0"
         id="path6431"
         d="m 378.12748,377.40447 0,2.92013 -11.02029,0 c 0.11896,-1.10391 0.47743,-2.14815 1.07409,-3.1327 0.59638,-0.99204 1.77513,-2.30479 3.53542,-3.93826 1.41715,-1.32022 2.28612,-2.21528 2.60679,-2.68519 0.43285,-0.64891 0.64925,-1.29034 0.64925,-1.92437 0,-0.70114 -0.18996,-1.23815 -0.57076,-1.6111 -0.37256,-0.38038 -0.89131,-0.57061 -1.55511,-0.57061 -0.65668,0 -1.1785,0.19766 -1.5663,0.59291 -0.38827,0.39535 -0.61127,1.05169 -0.67159,1.96915 l -3.13264,-0.31334 c 0.18667,-1.73043 0.77235,-2.97232 1.75648,-3.72568 0.98455,-0.75333 2.21525,-1.12999 3.69211,-1.12999 1.61853,0 2.89021,0.43631 3.81512,1.30899 0.92491,0.87272 1.38733,1.95798 1.38733,3.25581 0,0.73838 -0.13463,1.44326 -0.40311,2.11454 -0.26102,0.66389 -0.67898,1.36125 -1.253,2.09222 -0.38081,0.48482 -1.06666,1.18224 -2.05865,2.09221 -0.99207,0.90996 -1.62233,1.51414 -1.89077,1.81247 -0.26105,0.29836 -0.47332,0.58924 -0.63772,0.87269 l 6.24292,0"
         style="font-size:2.77390003px;font-style:normal;font-variant:normal;font-weight:bold;font-stretch:normal;text-align:start;line-height:100%;text-anchor:start;fill:#000000;fill-opacity:1;stroke:none;font-family:Arial" />
      <path
         inkscape:connector-curvature="0"
         id="path6433"
         d="m 379.14348,375.83252 3.04311,-0.36924 c 0.0966,0.77573 0.35767,1.36871 0.78309,1.77894 0.42539,0.4102 0.93976,0.61531 1.54394,0.61531 0.64925,0 1.19335,-0.24616 1.63347,-0.73841 0.44772,-0.49222 0.67156,-1.15611 0.67156,-1.99151 0,-0.79061 -0.2123,-1.41716 -0.63769,-1.87961 -0.42542,-0.46242 -0.9435,-0.69362 -1.55517,-0.69371 -0.40311,0 -0.88385,0.0785 -1.44326,0.23494 l 0.34693,-2.56212 c 0.85026,0.0224 1.49917,-0.16032 1.94671,-0.54825 0.44773,-0.39526 0.67159,-0.91742 0.67159,-1.56633 0,-0.55199 -0.1644,-0.99201 -0.49234,-1.32023 -0.32794,-0.32819 -0.76407,-0.49225 -1.309,-0.49231 -0.53692,0 -0.99569,0.18652 -1.3761,0.55938 -0.3808,0.37295 -0.61126,0.91745 -0.69386,1.63347 l -2.89773,-0.49231 c 0.20155,-0.99201 0.50308,-1.78265 0.90625,-2.37191 0.41054,-0.59663 0.9771,-1.06286 1.70054,-1.3985 0.73106,-0.34307 1.54774,-0.51465 2.45028,-0.51465 1.54394,3e-5 2.78206,0.49234 3.71443,1.47687 0.76821,0.80555 1.15239,1.71554 1.15239,2.72992 0,1.43956 -0.78721,2.5882 -2.36072,3.44598 0.93979,0.20137 1.6894,0.65265 2.24888,1.35376 0.56665,0.70114 0.85022,1.54771 0.85022,2.53972 0,1.43956 -0.52618,2.66654 -1.57747,3.68095 -1.05169,1.01438 -2.36072,1.5216 -3.92705,1.5216 -1.48429,0 -2.71499,-0.42518 -3.69212,-1.27546 -0.9771,-0.85778 -1.54394,-1.9766 -1.70054,-3.35648"
         style="font-size:2.77390003px;font-style:normal;font-variant:normal;font-weight:bold;font-stretch:normal;text-align:start;line-height:100%;text-anchor:start;fill:#000000;fill-opacity:0.06666673;stroke:none;font-family:Arial" />
      <path
         inkscape:connector-curvature="0"
         id="path6435"
         d="m 397.76971,380.3246 0,-3.30054 -6.71292,0 0,-2.75229 7.11569,-10.41626 2.64043,0 0,10.40506 2.03615,0 0,2.76349 -2.03615,0 0,3.30054 -3.0432,0 m 0,-6.06403 0,-5.60529 -3.77042,5.60529 3.77042,0"
         style="font-size:2.77390003px;font-style:normal;font-variant:normal;font-weight:bold;font-stretch:normal;text-align:start;line-height:100%;text-anchor:start;fill:#000000;fill-opacity:1;stroke:none;font-family:Arial" />
    </g>
    <g
       id="g4089"
       transform="matrix(1.5552,0,0,1.5552,-277.64251,-93.52813)">
      <path
         inkscape:connector-curvature="0"
         id="path6465"
         d="m 301.84577,380.32457 -3.1439,0 0,-11.84833 c -1.14859,1.07409 -2.50238,1.86844 -4.06126,2.38309 l 0,-2.853 c 0.82025,-0.26853 1.71177,-0.77572 2.67396,-1.5216 0.96216,-0.75333 1.6223,-1.62972 1.98031,-2.62922 l 2.55089,0 0,16.46906"
         style="font-size:2.77390003px;font-style:normal;font-variant:normal;font-weight:bold;font-stretch:normal;text-align:start;line-height:100%;text-anchor:start;fill:#000000;fill-opacity:0.06666673;stroke:none;font-family:Arial" />
      <path
         inkscape:connector-curvature="0"
         id="path6467"
         d="m 313.88215,377.40444 0,2.92013 -11.02028,0 c 0.11896,-1.10391 0.47743,-2.14812 1.07409,-3.1327 0.59638,-0.99201 1.77513,-2.30476 3.53541,-3.93826 1.41716,-1.32019 2.28613,-2.21525 2.6068,-2.68516 0.43284,-0.64894 0.64925,-1.29037 0.64925,-1.92437 0,-0.70114 -0.18996,-1.23815 -0.57076,-1.6111 -0.37256,-0.38038 -0.89131,-0.57065 -1.55511,-0.57065 -0.65668,0 -1.1785,0.1977 -1.5663,0.59292 -0.38827,0.39538 -0.61127,1.05175 -0.67159,1.96914 l -3.13264,-0.3133 c 0.18667,-1.73043 0.77235,-2.97229 1.75647,-3.72565 0.98456,-0.75339 2.21525,-1.12999 3.69212,-1.13002 1.61853,3e-5 2.89021,0.43631 3.81512,1.30902 0.92491,0.87272 1.38733,1.95792 1.38733,3.25575 0,0.73841 -0.13463,1.44329 -0.40311,2.11461 -0.26102,0.66388 -0.67898,1.36121 -1.253,2.09221 -0.38081,0.48476 -1.06666,1.18221 -2.05865,2.09215 -0.99207,0.90999 -1.62233,1.51414 -1.89077,1.8125 -0.26105,0.29839 -0.47332,0.58924 -0.63772,0.87269 l 6.24291,0"
         style="font-size:2.77390003px;font-style:normal;font-variant:normal;font-weight:bold;font-stretch:normal;text-align:start;line-height:100%;text-anchor:start;fill:#000000;fill-opacity:1;stroke:none;font-family:Arial" />
      <path
         inkscape:connector-curvature="0"
         id="path6469"
         d="m 314.89816,375.83249 3.04311,-0.36924 c 0.0967,0.77576 0.35767,1.36871 0.78309,1.77894 0.42539,0.4102 0.93976,0.61531 1.54394,0.61531 0.64925,0 1.19335,-0.24617 1.63347,-0.73838 0.44772,-0.49225 0.67155,-1.15614 0.67155,-1.99151 0,-0.79061 -0.21229,-1.41719 -0.63768,-1.87964 -0.42542,-0.46239 -0.9435,-0.69362 -1.55517,-0.69368 -0.40311,0 -0.88385,0.0785 -1.44326,0.23491 l 0.34693,-2.56209 c 0.85026,0.0224 1.49917,-0.16035 1.94671,-0.54825 0.44773,-0.39526 0.67159,-0.91742 0.67159,-1.56636 0,-0.55196 -0.1644,-0.99202 -0.49234,-1.3202 -0.32794,-0.32819 -0.76407,-0.49225 -1.309,-0.49234 -0.53692,3e-5 -0.99569,0.18652 -1.3761,0.55941 -0.3808,0.37295 -0.61126,0.91745 -0.69386,1.63347 l -2.89773,-0.49231 c 0.20155,-0.99201 0.50307,-1.78265 0.90625,-2.37191 0.41054,-0.59666 0.9771,-1.06286 1.70054,-1.39853 0.73105,-0.34307 1.54774,-0.51462 2.45028,-0.51462 1.54394,0 2.78206,0.49231 3.71442,1.47683 0.76821,0.80556 1.1524,1.71555 1.1524,2.72993 0,1.43959 -0.78721,2.58823 -2.36072,3.44598 0.93979,0.2014 1.6894,0.65265 2.24888,1.35376 0.56665,0.70117 0.85022,1.54771 0.85022,2.53975 0,1.43956 -0.52618,2.66651 -1.57747,3.68092 -1.05169,1.01441 -2.36072,1.5216 -3.92706,1.5216 -1.48428,0 -2.71498,-0.42518 -3.69211,-1.27546 -0.9771,-0.85778 -1.54394,-1.97657 -1.70054,-3.35648"
         style="font-size:2.77390003px;font-style:normal;font-variant:normal;font-weight:bold;font-stretch:normal;text-align:start;line-height:100%;text-anchor:start;fill:#000000;fill-opacity:1;stroke:none;font-family:Arial" />
      <path
         inkscape:connector-curvature="0"
         id="path6471"
         d="m 333.52439,380.32457 0,-3.30051 -6.71292,0 0,-2.75232 7.11569,-10.41623 2.64043,0 0,10.40506 2.03615,0 0,2.76349 -2.03615,0 0,3.30051 -3.0432,0 m 0,-6.064 0,-5.60532 -3.77042,5.60532 3.77042,0"
         style="font-size:2.77390003px;font-style:normal;font-variant:normal;font-weight:bold;font-stretch:normal;text-align:start;line-height:100%;text-anchor:start;fill:#000000;fill-opacity:0.06666673;stroke:none;font-family:Arial" />
    </g>
  </g>
</svg>
