<?xml version="1.0" encoding="UTF-8" standalone="no"?>
<!-- Created with Inkscape (http://www.inkscape.org/) -->

<svg
   xmlns:dc="http://purl.org/dc/elements/1.1/"
   xmlns:cc="http://creativecommons.org/ns#"
   xmlns:rdf="http://www.w3.org/1999/02/22-rdf-syntax-ns#"
   xmlns:svg="http://www.w3.org/2000/svg"
   xmlns="http://www.w3.org/2000/svg"
   xmlns:sodipodi="http://sodipodi.sourceforge.net/DTD/sodipodi-0.dtd"
   xmlns:inkscape="http://www.inkscape.org/namespaces/inkscape"
   width="219.19429"
   height="130.46466"
   id="svg2"
   sodipodi:version="0.32"
   inkscape:version="0.91 r13725"
   version="1.0"
   sodipodi:docname="4-el_perm_invset_01.svg"
   inkscape:output_extension="org.inkscape.output.svg.inkscape">
  <defs
     id="defs14" />
  <g
     inkscape:groupmode="layer"
     id="layer3"
     inkscape:label="layer"
     transform="translate(84.060044,-40.217778)"
     style="display:inline">
    <path
       style="color:#000000;display:inline;overflow:visible;visibility:visible;fill:#ffffff;fill-opacity:1;stroke:#000000;stroke-width:5;stroke-linecap:butt;stroke-linejoin:miter;stroke-miterlimit:4;stroke-dasharray:none;stroke-dashoffset:0;stroke-opacity:1;marker:none;enable-background:accumulate"
       d="m 25.537142,114.39247 53.548549,-17.884734 0,-35.769475 -53.548635,-17.884731 -53.54855,17.884731 0,35.769475 53.548636,17.884734"
       id="path2989-9-2"
       inkscape:connector-curvature="0" />
    <path
       style="color:#000000;display:inline;overflow:visible;visibility:visible;fill:#ffffff;fill-opacity:1;stroke:#000000;stroke-width:5;stroke-linecap:butt;stroke-linejoin:miter;stroke-miterlimit:4;stroke-dasharray:none;stroke-dashoffset:0;stroke-opacity:1;marker:none;enable-background:accumulate"
       d="m 25.537057,114.39247 -53.548551,-17.884734 -53.54855,17.884734 0,35.76948 53.54855,17.88473 53.548551,-17.88473 0,-35.76948"
       id="path2989-0"
       inkscape:connector-curvature="0" />
    <path
       style="color:#000000;display:inline;overflow:visible;visibility:visible;fill:#ffffff;fill-opacity:1;stroke:#000000;stroke-width:5;stroke-linecap:butt;stroke-linejoin:miter;stroke-miterlimit:4;stroke-dasharray:none;stroke-dashoffset:0;stroke-opacity:1;marker:none;enable-background:accumulate"
       d="m 25.537057,114.39247 0,35.76948 53.548635,17.88473 53.548558,-17.88473 0,-35.76948 L 79.085692,96.507729 25.537057,114.39247"
       id="path2989-57-7"
       inkscape:connector-curvature="0" />
    <path
       style="opacity:1;fill:#000000;fill-opacity:1;stroke:none;stroke-width:7.08661413;stroke-linecap:square;stroke-linejoin:round;stroke-miterlimit:4;stroke-dasharray:none;stroke-dashoffset:0;stroke-opacity:1"
       d="M 84.90625 26.929688 A 11.4057 11.343031 0 0 0 73.5 38.273438 A 11.4057 11.343031 0 0 0 84.90625 49.615234 A 11.4057 11.343031 0 0 0 96.310547 38.273438 A 11.4057 11.343031 0 0 0 84.90625 26.929688 z M 134.28906 26.929688 A 11.4057 11.343031 0 0 0 122.88281 38.273438 A 11.4057 11.343031 0 0 0 134.28906 49.615234 A 11.4057 11.343031 0 0 0 145.69336 38.273438 A 11.4057 11.343031 0 0 0 134.28906 26.929688 z M 109.59766 32.601562 A 5.7028499 5.6715155 0 0 0 103.89453 38.273438 A 5.7028499 5.6715155 0 0 0 109.59766 43.945312 A 5.7028499 5.6715155 0 0 0 115.30078 38.273438 A 5.7028499 5.6715155 0 0 0 109.59766 32.601562 z M 31.357422 80.716797 A 11.4057 11.343031 0 0 0 19.951172 92.058594 A 11.4057 11.343031 0 0 0 31.357422 103.40234 A 11.4057 11.343031 0 0 0 42.763672 92.058594 A 11.4057 11.343031 0 0 0 31.357422 80.716797 z M 56.048828 80.716797 A 11.4057 11.343031 0 0 0 44.642578 92.058594 A 11.4057 11.343031 0 0 0 56.048828 103.40234 A 11.4057 11.343031 0 0 0 67.455078 92.058594 A 11.4057 11.343031 0 0 0 56.048828 80.716797 z M 163.14648 80.716797 A 11.4057 11.343031 0 0 0 151.74023 92.058594 A 11.4057 11.343031 0 0 0 163.14648 103.40234 A 11.4057 11.343031 0 0 0 174.55078 92.058594 A 11.4057 11.343031 0 0 0 163.14648 80.716797 z M 187.83789 80.716797 A 11.4057 11.343031 0 0 0 176.43164 92.058594 A 11.4057 11.343031 0 0 0 187.83789 103.40234 A 11.4057 11.343031 0 0 0 199.24219 92.058594 A 11.4057 11.343031 0 0 0 187.83789 80.716797 z M 80.740234 86.388672 A 5.7028499 5.6715155 0 0 0 75.037109 92.058594 A 5.7028499 5.6715155 0 0 0 80.740234 97.730469 A 5.7028499 5.6715155 0 0 0 86.443359 92.058594 A 5.7028499 5.6715155 0 0 0 80.740234 86.388672 z M 138.45508 86.388672 A 5.7028499 5.6715155 0 0 0 132.75195 92.058594 A 5.7028499 5.6715155 0 0 0 138.45508 97.730469 A 5.7028499 5.6715155 0 0 0 144.15625 92.058594 A 5.7028499 5.6715155 0 0 0 138.45508 86.388672 z "
       transform="translate(-84.060044,40.217778)"
       id="path4142" />
  </g>
</svg>