<?xml version="1.0" standalone="yes"?>

<svg version="1.1" viewBox="0.0 0.0 181.83727034120736 190.10236220472441" fill="none" stroke="none" stroke-linecap="square" stroke-miterlimit="10" xmlns="http://www.w3.org/2000/svg" xmlns:xlink="http://www.w3.org/1999/xlink"><clipPath id="p.0"><path d="m0 0l181.83727 0l0 190.10236l-181.83727 0l0 -190.10236z" clip-rule="nonzero"></path></clipPath><g clip-path="url(#p.0)"><path fill="#000000" fill-opacity="0.0" d="m0 0l181.83727 0l0 190.10236l-181.83727 0z" fill-rule="nonzero"></path><path fill="#cfe2f3" d="m8.727035 59.194225l0 0c0 -9.636715 7.8121023 -17.448818 17.448818 -17.448818l0 0c4.627714 0 9.065887 1.8383522 12.338177 5.1106415c3.2722893 3.2722855 5.1106415 7.7104645 5.1106415 12.338177l0 0c0 9.636715 -7.8121033 17.448818 -17.448818 17.448818l0 0c-9.636717 0 -17.448818 -7.8121033 -17.448818 -17.448818z" fill-rule="nonzero"></path><path stroke="#000000" stroke-width="1.0" stroke-linejoin="round" stroke-linecap="butt" d="m8.727035 59.194225l0 0c0 -9.636715 7.8121023 -17.448818 17.448818 -17.448818l0 0c4.627714 0 9.065887 1.8383522 12.338177 5.1106415c3.2722893 3.2722855 5.1106415 7.7104645 5.1106415 12.338177l0 0c0 9.636715 -7.8121033 17.448818 -17.448818 17.448818l0 0c-9.636717 0 -17.448818 -7.8121033 -17.448818 -17.448818z" fill-rule="nonzero"></path><path fill="#cfe2f3" d="m138.2126 150.82414l0 0c0 -9.636719 7.8121033 -17.448807 17.448822 -17.448807l0 0c4.627716 0 9.065887 1.8383484 12.338165 5.110626c3.272293 3.272293 5.1106415 7.7104645 5.1106415 12.338181l0 0c0 9.636719 -7.812088 17.448822 -17.448807 17.448822l0 0c-9.636719 0 -17.448822 -7.8121033 -17.448822 -17.448822z" fill-rule="nonzero"></path><path stroke="#000000" stroke-width="1.0" stroke-linejoin="round" stroke-linecap="butt" d="m138.2126 150.82414l0 0c0 -9.636719 7.8121033 -17.448807 17.448822 -17.448807l0 0c4.627716 0 9.065887 1.8383484 12.338165 5.110626c3.272293 3.272293 5.1106415 7.7104645 5.1106415 12.338181l0 0c0 9.636719 -7.812088 17.448822 -17.448807 17.448822l0 0c-9.636719 0 -17.448822 -7.8121033 -17.448822 -17.448822z" fill-rule="nonzero"></path><path fill="#cfe2f3" d="m17.908136 157.95013l0 0c0 -9.636719 7.8121033 -17.448822 17.44882 -17.448822l0 0c4.6277122 0 9.065887 1.8383484 12.338177 5.1106415c3.2722893 3.272293 5.1106415 7.7104645 5.1106415 12.338181l0 0c0 9.636719 -7.8121033 17.448822 -17.448818 17.448822l0 0c-9.636717 0 -17.44882 -7.8121033 -17.44882 -17.448822z" fill-rule="nonzero"></path><path stroke="#000000" stroke-width="1.0" stroke-linejoin="round" stroke-linecap="butt" d="m17.908136 157.95013l0 0c0 -9.636719 7.8121033 -17.448822 17.44882 -17.448822l0 0c4.6277122 0 9.065887 1.8383484 12.338177 5.1106415c3.2722893 3.272293 5.1106415 7.7104645 5.1106415 12.338181l0 0c0 9.636719 -7.8121033 17.448822 -17.448818 17.448822l0 0c-9.636717 0 -17.44882 -7.8121033 -17.44882 -17.448822z" fill-rule="nonzero"></path><path fill="#cfe2f3" d="m103.314964 26.721785l0 0c0 -9.636717 7.8120956 -17.448818 17.448814 -17.448818l0 0c4.627716 0 9.065887 1.8383532 12.338181 5.1106415c3.272293 3.2722883 5.1106415 7.7104635 5.1106415 12.338178l0 0c0 9.636717 -7.8121033 17.44882 -17.448822 17.44882l0 0c-9.636719 0 -17.448814 -7.8121033 -17.448814 -17.44882z" fill-rule="nonzero"></path><path stroke="#000000" stroke-width="1.0" stroke-linejoin="round" stroke-linecap="butt" d="m103.314964 26.721785l0 0c0 -9.636717 7.8120956 -17.448818 17.448814 -17.448818l0 0c4.627716 0 9.065887 1.8383532 12.338181 5.1106415c3.272293 3.2722883 5.1106415 7.7104635 5.1106415 12.338178l0 0c0 9.636717 -7.8121033 17.44882 -17.448822 17.44882l0 0c-9.636719 0 -17.448814 -7.8121033 -17.448814 -17.44882z" fill-rule="nonzero"></path><path fill="#000000" d="m117.56622 33.641785l3.59375 -5.125002l-3.328125 -4.734375l2.09375 0l1.515625 2.3125q0.421875 0.65625 0.671875 1.109375q0.421875 -0.609375 0.765625 -1.09375l1.65625 -2.328125l1.984375 0l-3.390625 4.640625l3.65625 5.218752l-2.046875 0l-2.03125 -3.062502l-0.53125 -0.828125l-2.59375 3.890627l-2.015625 0z" fill-rule="nonzero"></path><path fill="#000000" fill-opacity="0.0" d="m43.624672 59.194225l59.685036 -32.472443" fill-rule="nonzero"></path><path stroke="#000000" stroke-width="1.0" stroke-linejoin="round" stroke-linecap="butt" d="m43.624672 59.194225l59.685036 -32.472443" fill-rule="nonzero"></path><path fill="#000000" fill-opacity="0.0" d="m26.175854 76.64304l9.19685 63.874016" fill-rule="nonzero"></path><path stroke="#000000" stroke-width="1.0" stroke-linejoin="round" stroke-linecap="butt" d="m26.175854 76.64304l9.19685 63.874016" fill-rule="nonzero"></path><path fill="#000000" fill-opacity="0.0" d="m133.10196 39.059963l22.551178 94.3307" fill-rule="nonzero"></path><path stroke="#000000" stroke-width="1.0" stroke-linejoin="round" stroke-linecap="butt" d="m133.10196 39.059963l22.551178 94.3307" fill-rule="nonzero"></path><path fill="#000000" fill-opacity="0.0" d="m120.76378 44.170605l-73.07086 101.44881" fill-rule="nonzero"></path><path stroke="#000000" stroke-width="1.0" stroke-linejoin="round" stroke-linecap="butt" d="m120.76378 44.170605l-73.07086 101.44881" fill-rule="nonzero"></path></g></svg>

