<?xml version="1.0" encoding="UTF-8" standalone="no"?>
<!-- Created with Inkscape (http://www.inkscape.org/) -->

<svg
   xmlns:dc="http://purl.org/dc/elements/1.1/"
   xmlns:cc="http://creativecommons.org/ns#"
   xmlns:rdf="http://www.w3.org/1999/02/22-rdf-syntax-ns#"
   xmlns:svg="http://www.w3.org/2000/svg"
   xmlns="http://www.w3.org/2000/svg"
   xmlns:sodipodi="http://sodipodi.sourceforge.net/DTD/sodipodi-0.dtd"
   xmlns:inkscape="http://www.inkscape.org/namespaces/inkscape"
   width="326.29147"
   height="184.11885"
   id="svg2"
   sodipodi:version="0.32"
   inkscape:version="0.91 r13725"
   version="1.0"
   sodipodi:docname="4-el_perm_invset_00.svg"
   inkscape:output_extension="org.inkscape.output.svg.inkscape">
  <metadata
     id="metadata7">
    <rdf:RDF>
      <cc:Work
         rdf:about="">
        <dc:format>image/svg+xml</dc:format>
        <dc:type
           rdf:resource="http://purl.org/dc/dcmitype/StillImage" />
        <dc:title />
      </cc:Work>
    </rdf:RDF>
  </metadata>
  <g
     inkscape:groupmode="layer"
     id="layer3"
     inkscape:label="layer"
     transform="translate(84.060044,13.43642)"
     style="display:inline">
    <path
       style="color:#000000;display:inline;overflow:visible;visibility:visible;fill:#ff4c4c;fill-opacity:1;stroke:#000000;stroke-width:5;stroke-linecap:butt;stroke-linejoin:miter;stroke-miterlimit:4;stroke-dasharray:none;stroke-dashoffset:0;stroke-opacity:1;marker:none;enable-background:accumulate"
       d="m 79.085692,60.738268 53.548558,-17.88473 0,-35.7694755 -53.548558,-17.8847305 -53.54855,17.8847305 -8.5e-5,35.7694755 53.548635,17.88473"
       id="path2989-5-3"
       inkscape:connector-curvature="0" />
    <path
       style="color:#000000;display:inline;overflow:visible;visibility:visible;fill:#ffffff;fill-opacity:1;stroke:#000000;stroke-width:5;stroke-linecap:butt;stroke-linejoin:miter;stroke-miterlimit:4;stroke-dasharray:none;stroke-dashoffset:0;stroke-opacity:1;marker:none;enable-background:accumulate"
       d="m 25.537142,114.39247 53.548549,-17.884734 0,-35.769475 -53.548635,-17.884731 -53.54855,17.884731 0,35.769475 53.548636,17.884734"
       id="path2989-9-2"
       inkscape:connector-curvature="0" />
    <path
       style="color:#000000;display:inline;overflow:visible;visibility:visible;fill:#ff4c4c;fill-opacity:1;stroke:#000000;stroke-width:5;stroke-linecap:butt;stroke-linejoin:miter;stroke-miterlimit:4;stroke-dasharray:none;stroke-dashoffset:0;stroke-opacity:1;marker:none;enable-background:accumulate"
       d="m 79.085692,60.738268 0,35.769461 53.548558,17.884741 53.54863,-17.884741 0,-35.769461 L 132.63425,42.85353 79.085692,60.738268"
       id="path2989-4-4"
       inkscape:connector-curvature="0" />
    <path
       style="color:#000000;display:inline;overflow:visible;visibility:visible;fill:#ffffff;fill-opacity:1;stroke:#000000;stroke-width:5;stroke-linecap:butt;stroke-linejoin:miter;stroke-miterlimit:4;stroke-dasharray:none;stroke-dashoffset:0;stroke-opacity:1;marker:none;enable-background:accumulate"
       d="m 25.537057,114.39247 -53.548551,-17.884734 -53.54855,17.884734 0,35.76948 53.54855,17.88473 53.548551,-17.88473 0,-35.76948"
       id="path2989-0"
       inkscape:connector-curvature="0" />
    <path
       style="color:#000000;display:inline;overflow:visible;visibility:visible;fill:#ff4c4c;fill-opacity:0.94117647;stroke:#000000;stroke-width:5;stroke-linecap:butt;stroke-linejoin:miter;stroke-miterlimit:4;stroke-dasharray:none;stroke-dashoffset:0;stroke-opacity:1;marker:none;enable-background:accumulate"
       d="m 25.537057,114.39247 0,35.76948 53.548635,17.88473 53.548558,-17.88473 0,-35.76948 L 79.085692,96.507729 25.537057,114.39247"
       id="path2989-57-7"
       inkscape:connector-curvature="0" />
    <path
       style="color:#000000;display:inline;overflow:visible;visibility:visible;fill:#ff4c4c;fill-opacity:1;stroke:#000000;stroke-width:5;stroke-linecap:butt;stroke-linejoin:miter;stroke-miterlimit:4;stroke-dasharray:none;stroke-dashoffset:0;stroke-opacity:1;marker:none;enable-background:accumulate"
       d="m 132.63425,114.39247 0,35.76948 53.54863,17.88473 53.54855,-17.88473 0,-35.76948 -53.54855,-17.884741 -53.54863,17.884741"
       id="path2989-6-7"
       inkscape:connector-curvature="0" />
    <path
       style="display:inline;opacity:1;fill:#000000;fill-opacity:1;stroke:none;stroke-width:10.40400028;stroke-linecap:square;stroke-linejoin:round;stroke-miterlimit:4;stroke-dasharray:none;stroke-dashoffset:0;stroke-opacity:1"
       d="M 132.51758 28.814453 A 9.4152918 9.4152937 0 0 0 123.10156 38.230469 A 9.4152918 9.4152937 0 0 0 132.51758 47.644531 A 9.4152918 9.4152937 0 0 0 141.93359 38.230469 A 9.4152918 9.4152937 0 0 0 132.51758 28.814453 z M 193.77344 28.814453 A 9.4152918 9.4152937 0 0 0 184.35938 38.230469 A 9.4152918 9.4152937 0 0 0 193.77344 47.644531 A 9.4152918 9.4152937 0 0 0 203.18945 38.230469 A 9.4152918 9.4152937 0 0 0 193.77344 28.814453 z M 152.93555 33.521484 A 4.7076459 4.7076468 0 0 0 148.22852 38.230469 A 4.7076459 4.7076468 0 0 0 152.93555 42.9375 A 4.7076459 4.7076468 0 0 0 157.64453 38.230469 A 4.7076459 4.7076468 0 0 0 152.93555 33.521484 z M 173.35547 33.521484 A 4.7076459 4.7076468 0 0 0 168.64844 38.230469 A 4.7076459 4.7076468 0 0 0 173.35547 42.9375 A 4.7076459 4.7076468 0 0 0 178.0625 38.230469 A 4.7076459 4.7076468 0 0 0 173.35547 33.521484 z M 78.96875 82.46875 A 9.4152918 9.4152937 0 0 0 69.552734 91.884766 A 9.4152918 9.4152937 0 0 0 78.96875 101.29883 A 9.4152918 9.4152937 0 0 0 88.384766 91.884766 A 9.4152918 9.4152937 0 0 0 78.96875 82.46875 z M 119.80664 82.46875 A 9.4152918 9.4152937 0 0 0 110.39062 91.884766 A 9.4152918 9.4152937 0 0 0 119.80664 101.29883 A 9.4152918 9.4152937 0 0 0 129.22266 91.884766 A 9.4152918 9.4152937 0 0 0 119.80664 82.46875 z M 206.48438 82.644531 A 9.4152918 9.4152937 0 0 0 197.07031 92.058594 A 9.4152918 9.4152937 0 0 0 206.48438 101.47461 A 9.4152918 9.4152937 0 0 0 215.90039 92.058594 A 9.4152918 9.4152937 0 0 0 206.48438 82.644531 z M 247.32227 82.644531 A 9.4152918 9.4152937 0 0 0 237.9082 92.058594 A 9.4152918 9.4152937 0 0 0 247.32227 101.47461 A 9.4152918 9.4152937 0 0 0 256.73828 92.058594 A 9.4152918 9.4152937 0 0 0 247.32227 82.644531 z M 99.388672 87.175781 A 4.7076459 4.7076468 0 0 0 94.679688 91.884766 A 4.7076459 4.7076468 0 0 0 99.388672 96.591797 A 4.7076459 4.7076468 0 0 0 104.0957 91.884766 A 4.7076459 4.7076468 0 0 0 99.388672 87.175781 z M 140.22461 87.175781 A 4.7076459 4.7076468 0 0 0 135.51758 91.884766 A 4.7076459 4.7076468 0 0 0 140.22461 96.591797 A 4.7076459 4.7076468 0 0 0 144.93359 91.884766 A 4.7076459 4.7076468 0 0 0 140.22461 87.175781 z M 186.06641 87.351562 A 4.7076459 4.7076468 0 0 0 181.35742 92.058594 A 4.7076459 4.7076468 0 0 0 186.06641 96.767578 A 4.7076459 4.7076468 0 0 0 190.77344 92.058594 A 4.7076459 4.7076468 0 0 0 186.06641 87.351562 z M 226.9043 87.351562 A 4.7076459 4.7076468 0 0 0 222.19531 92.058594 A 4.7076459 4.7076468 0 0 0 226.9043 96.767578 A 4.7076459 4.7076468 0 0 0 231.61133 92.058594 A 4.7076459 4.7076468 0 0 0 226.9043 87.351562 z M 25.419922 136.29883 A 9.4152918 9.4152937 0 0 0 16.005859 145.71289 A 9.4152918 9.4152937 0 0 0 25.419922 155.12891 A 9.4152918 9.4152937 0 0 0 34.835938 145.71289 A 9.4152918 9.4152937 0 0 0 25.419922 136.29883 z M 45.839844 136.29883 A 9.4152918 9.4152937 0 0 0 36.423828 145.71289 A 9.4152918 9.4152937 0 0 0 45.839844 155.12891 A 9.4152918 9.4152937 0 0 0 55.253906 145.71289 A 9.4152918 9.4152937 0 0 0 45.839844 136.29883 z M 152.93555 136.29883 A 9.4152918 9.4152937 0 0 0 143.52148 145.71289 A 9.4152918 9.4152937 0 0 0 152.93555 155.12891 A 9.4152918 9.4152937 0 0 0 162.35156 145.71289 A 9.4152918 9.4152937 0 0 0 152.93555 136.29883 z M 173.35547 136.29883 A 9.4152918 9.4152937 0 0 0 163.93945 145.71289 A 9.4152918 9.4152937 0 0 0 173.35547 155.12891 A 9.4152918 9.4152937 0 0 0 182.76953 145.71289 A 9.4152918 9.4152937 0 0 0 173.35547 136.29883 z M 280.45312 136.29883 A 9.4152918 9.4152937 0 0 0 271.03711 145.71289 A 9.4152918 9.4152937 0 0 0 280.45312 155.12891 A 9.4152918 9.4152937 0 0 0 289.86719 145.71289 A 9.4152918 9.4152937 0 0 0 280.45312 136.29883 z M 300.87109 136.29883 A 9.4152918 9.4152937 0 0 0 291.45508 145.71289 A 9.4152918 9.4152937 0 0 0 300.87109 155.12891 A 9.4152918 9.4152937 0 0 0 310.28711 145.71289 A 9.4152918 9.4152937 0 0 0 300.87109 136.29883 z M 66.257812 141.00586 A 4.7076459 4.7076468 0 0 0 61.550781 145.71289 A 4.7076459 4.7076468 0 0 0 66.257812 150.42188 A 4.7076459 4.7076468 0 0 0 70.964844 145.71289 A 4.7076459 4.7076468 0 0 0 66.257812 141.00586 z M 86.677734 141.00586 A 4.7076459 4.7076468 0 0 0 81.96875 145.71289 A 4.7076459 4.7076468 0 0 0 86.677734 150.42188 A 4.7076459 4.7076468 0 0 0 91.384766 145.71289 A 4.7076459 4.7076468 0 0 0 86.677734 141.00586 z M 132.51758 141.00586 A 4.7076459 4.7076468 0 0 0 127.81055 145.71289 A 4.7076459 4.7076468 0 0 0 132.51758 150.42188 A 4.7076459 4.7076468 0 0 0 137.22461 145.71289 A 4.7076459 4.7076468 0 0 0 132.51758 141.00586 z M 193.77344 141.00586 A 4.7076459 4.7076468 0 0 0 189.06641 145.71289 A 4.7076459 4.7076468 0 0 0 193.77344 150.42188 A 4.7076459 4.7076468 0 0 0 198.48242 145.71289 A 4.7076459 4.7076468 0 0 0 193.77344 141.00586 z M 239.61523 141.00586 A 4.7076459 4.7076468 0 0 0 234.90625 145.71289 A 4.7076459 4.7076468 0 0 0 239.61523 150.42188 A 4.7076459 4.7076468 0 0 0 244.32227 145.71289 A 4.7076459 4.7076468 0 0 0 239.61523 141.00586 z M 260.0332 141.00586 A 4.7076459 4.7076468 0 0 0 255.32617 145.71289 A 4.7076459 4.7076468 0 0 0 260.0332 150.42188 A 4.7076459 4.7076468 0 0 0 264.74023 145.71289 A 4.7076459 4.7076468 0 0 0 260.0332 141.00586 z "
       transform="translate(-84.060044,-13.43642)"
       id="path4253" />
  </g>
</svg>