<?xml version="1.0" standalone="yes"?>

<svg version="1.1" viewBox="0.0 0.0 196.40682414698162 189.13123359580052" fill="none" stroke="none" stroke-linecap="square" stroke-miterlimit="10" xmlns="http://www.w3.org/2000/svg" xmlns:xlink="http://www.w3.org/1999/xlink"><clipPath id="p.0"><path d="m0 0l196.40683 0l0 189.13124l-196.40683 0l0 -189.13124z" clip-rule="nonzero"></path></clipPath><g clip-path="url(#p.0)"><path fill="#000000" fill-opacity="0.0" d="m0 0l196.40683 0l0 189.13124l-196.40683 0z" fill-rule="nonzero"></path><path fill="#cfe2f3" d="m8.727035 59.194225l0 0c0 -9.636715 7.8121023 -17.448818 17.448818 -17.448818l0 0c4.627714 0 9.065887 1.8383522 12.338177 5.1106415c3.2722893 3.2722855 5.1106415 7.7104645 5.1106415 12.338177l0 0c0 9.636715 -7.8121033 17.448818 -17.448818 17.448818l0 0c-9.636717 0 -17.448818 -7.8121033 -17.448818 -17.448818z" fill-rule="nonzero"></path><path stroke="#000000" stroke-width="1.0" stroke-linejoin="round" stroke-linecap="butt" d="m8.727035 59.194225l0 0c0 -9.636715 7.8121023 -17.448818 17.448818 -17.448818l0 0c4.627714 0 9.065887 1.8383522 12.338177 5.1106415c3.2722893 3.2722855 5.1106415 7.7104645 5.1106415 12.338177l0 0c0 9.636715 -7.8121033 17.448818 -17.448818 17.448818l0 0c-9.636717 0 -17.448818 -7.8121033 -17.448818 -17.448818z" fill-rule="nonzero"></path><path fill="#cfe2f3" d="m155.64568 81.35958l0 0c0 -9.636719 7.8121033 -17.448818 17.448807 -17.448818l0 0c4.627716 0 9.065903 1.8383522 12.338181 5.1106377c3.272293 3.272293 5.1106415 7.7104645 5.1106415 12.338181l0 0c0 9.636719 -7.8121033 17.448814 -17.448822 17.448814l0 0c-9.6367035 0 -17.448807 -7.8120956 -17.448807 -17.448814z" fill-rule="nonzero"></path><path stroke="#000000" stroke-width="1.0" stroke-linejoin="round" stroke-linecap="butt" d="m155.64568 81.35958l0 0c0 -9.636719 7.8121033 -17.448818 17.448807 -17.448818l0 0c4.627716 0 9.065903 1.8383522 12.338181 5.1106377c3.272293 3.272293 5.1106415 7.7104645 5.1106415 12.338181l0 0c0 9.636719 -7.8121033 17.448814 -17.448822 17.448814l0 0c-9.6367035 0 -17.448807 -7.8120956 -17.448807 -17.448814z" fill-rule="nonzero"></path><path fill="#cfe2f3" d="m17.908136 157.95013l0 0c0 -9.636719 7.8121033 -17.448822 17.44882 -17.448822l0 0c4.6277122 0 9.065887 1.8383484 12.338177 5.1106415c3.2722893 3.272293 5.1106415 7.7104645 5.1106415 12.338181l0 0c0 9.636719 -7.8121033 17.448822 -17.448818 17.448822l0 0c-9.636717 0 -17.44882 -7.8121033 -17.44882 -17.448822z" fill-rule="nonzero"></path><path stroke="#000000" stroke-width="1.0" stroke-linejoin="round" stroke-linecap="butt" d="m17.908136 157.95013l0 0c0 -9.636719 7.8121033 -17.448822 17.44882 -17.448822l0 0c4.6277122 0 9.065887 1.8383484 12.338177 5.1106415c3.2722893 3.272293 5.1106415 7.7104645 5.1106415 12.338181l0 0c0 9.636719 -7.8121033 17.448822 -17.448818 17.448822l0 0c-9.636717 0 -17.44882 -7.8121033 -17.44882 -17.448822z" fill-rule="nonzero"></path><path fill="#cfe2f3" d="m103.314964 26.721785l0 0c0 -9.636717 7.8120956 -17.448818 17.448814 -17.448818l0 0c4.627716 0 9.065887 1.8383532 12.338181 5.1106415c3.272293 3.2722883 5.1106415 7.7104635 5.1106415 12.338178l0 0c0 9.636717 -7.8121033 17.44882 -17.448822 17.44882l0 0c-9.636719 0 -17.448814 -7.8121033 -17.448814 -17.44882z" fill-rule="nonzero"></path><path stroke="#000000" stroke-width="1.0" stroke-linejoin="round" stroke-linecap="butt" d="m103.314964 26.721785l0 0c0 -9.636717 7.8120956 -17.448818 17.448814 -17.448818l0 0c4.627716 0 9.065887 1.8383532 12.338181 5.1106415c3.272293 3.2722883 5.1106415 7.7104635 5.1106415 12.338178l0 0c0 9.636717 -7.8121033 17.44882 -17.448822 17.44882l0 0c-9.636719 0 -17.448814 -7.8121033 -17.448814 -17.44882z" fill-rule="nonzero"></path><path fill="#000000" fill-opacity="0.0" d="m43.624672 59.194225l59.685036 -32.472443" fill-rule="nonzero"></path><path stroke="#000000" stroke-width="1.0" stroke-linejoin="round" stroke-linecap="butt" d="m43.624672 59.194225l59.685036 -32.472443" fill-rule="nonzero"></path><path fill="#000000" fill-opacity="0.0" d="m26.175854 76.64304l9.19685 63.874016" fill-rule="nonzero"></path><path stroke="#000000" stroke-width="1.0" stroke-linejoin="round" stroke-linecap="butt" d="m26.175854 76.64304l9.19685 63.874016" fill-rule="nonzero"></path><path fill="#000000" fill-opacity="0.0" d="m133.10196 39.059963l40.0 24.850395" fill-rule="nonzero"></path><path stroke="#000000" stroke-width="1.0" stroke-linejoin="round" stroke-linecap="butt" d="m133.10196 39.059963l40.0 24.850395" fill-rule="nonzero"></path><path fill="#000000" fill-opacity="0.0" d="m120.76378 44.170605l-73.07086 101.44881" fill-rule="nonzero"></path><path stroke="#000000" stroke-width="1.0" stroke-linejoin="round" stroke-linecap="butt" d="m120.76378 44.170605l-73.07086 101.44881" fill-rule="nonzero"></path><path fill="#cfe2f3" d="m128.52231 166.91864l0 0c0 -9.636719 7.8121033 -17.448822 17.448822 -17.448822l0 0c4.627716 0 9.065887 1.8383484 12.338181 5.1106415c3.2722778 3.272293 5.1106415 7.7104645 5.1106415 12.338181l0 0c0 9.636719 -7.8121033 17.448807 -17.448822 17.448807l0 0c-9.636719 0 -17.448822 -7.812088 -17.448822 -17.448807z" fill-rule="nonzero"></path><path stroke="#000000" stroke-width="1.0" stroke-linejoin="round" stroke-linecap="butt" d="m128.52231 166.91864l0 0c0 -9.636719 7.8121033 -17.448822 17.448822 -17.448822l0 0c4.627716 0 9.065887 1.8383484 12.338181 5.1106415c3.2722778 3.272293 5.1106415 7.7104645 5.1106415 12.338181l0 0c0 9.636719 -7.8121033 17.448807 -17.448822 17.448807l0 0c-9.636719 0 -17.448822 -7.812088 -17.448822 -17.448807z" fill-rule="nonzero"></path><path fill="#000000" fill-opacity="0.0" d="m52.805775 157.95013l75.71654 8.976379" fill-rule="nonzero"></path><path stroke="#000000" stroke-width="1.0" stroke-linejoin="round" stroke-linecap="butt" d="m52.805775 157.95013l75.71654 8.976379" fill-rule="nonzero"></path><path fill="#000000" fill-opacity="0.0" d="m173.09448 98.808395l-14.771652 55.779526" fill-rule="nonzero"></path><path stroke="#000000" stroke-width="1.0" stroke-linejoin="round" stroke-linecap="butt" d="m173.09448 98.808395l-14.771652 55.779526" fill-rule="nonzero"></path></g></svg>

