<?xml version="1.0" encoding="UTF-8" standalone="no"?>
<!-- Created with Inkscape (http://www.inkscape.org/) -->
<svg
   xmlns:ns0="http://www.iki.fi/pav/software/textext/"
   xmlns:dc="http://purl.org/dc/elements/1.1/"
   xmlns:cc="http://creativecommons.org/ns#"
   xmlns:rdf="http://www.w3.org/1999/02/22-rdf-syntax-ns#"
   xmlns:svg="http://www.w3.org/2000/svg"
   xmlns="http://www.w3.org/2000/svg"
   xmlns:xlink="http://www.w3.org/1999/xlink"
   xmlns:sodipodi="http://sodipodi.sourceforge.net/DTD/sodipodi-0.dtd"
   xmlns:inkscape="http://www.inkscape.org/namespaces/inkscape"
   width="146.25444"
   height="133.12245">
  <defs
     id="defs3">
    <linearGradient
       id="linearGradient5642">
      <stop
         id="stop5644"
         offset="0"
         style="stop-color:#b29a15;stop-opacity:1;" />
      <stop
         style="stop-color:#eedc76;stop-opacity:1;"
         offset="0.19085097"
         id="stop5662" />
      <stop
         id="stop5664"
         offset="0.80394602"
         style="stop-color:#efdb77;stop-opacity:1;" />
      <stop
         style="stop-color:#b19a15;stop-opacity:1;"
         offset="1"
         id="stop5650" />
    </linearGradient>
  </defs>
  <g
     transform="translate(-270.32465,-291.32107)">
    <rect
       ry="20.5263"
       y="293.73761"
       x="272.74118"
       height="128.28938"
       width="141.42137"
       id="rect3414"
       style="opacity:1;fill:url(#linearGradient5658);fill-opacity:1;fill-rule:evenodd;stroke:#646464;stroke-width:4.83300018;stroke-linecap:butt;stroke-linejoin:miter;stroke-miterlimit:4;stroke-dasharray:none;stroke-dashoffset:0;stroke-opacity:1" />
    <g
       id="g12355"
       style="font-style:normal;font-variant:normal;font-weight:normal;font-stretch:normal;letter-spacing:normal;word-spacing:normal;text-anchor:start;fill:none;fill-opacity:1;fill-rule:evenodd;stroke:#000000;stroke-width:0.35700231;stroke-linecap:butt;stroke-linejoin:miter;stroke-miterlimit:10.43299961;stroke-dasharray:none;stroke-dashoffset:0;stroke-opacity:1"
       xml:space="preserve"
       transform="matrix(8.9006335,0,0,-7.9337686,-1694.557,5986.6846)">
<polygon
   id="polygon12357"
   style="stroke-width:0.35700231;fill:black;stroke-miterlimit:10.43299961;stroke-dasharray:none"
   points="225.97,704.63 225.97,705.03 225.01,705.03 225.01,714.2 225.97,714.2 225.97,714.59 224.61,714.59 224.61,704.63 " />
<path
   id="path12359"
   style="stroke-width:0.35700231;fill:black;stroke-miterlimit:10.43299961;stroke-dasharray:none"
   d="M229.92,710.89 L229.9,710.92 L229.88,710.96 L229.86,710.99 L229.84,711.02 L229.82,711.05 L229.8,711.08 L229.78,711.11 L229.76,711.14 L229.74,711.17 L229.71,711.2 L229.69,711.23 L229.67,711.25 L229.64,711.28 L229.61,711.3 L229.59,711.32 L229.56,711.35 L229.53,711.37 L229.5,711.39 L229.47,711.4 L229.44,711.42 L229.41,711.44 L229.37,711.45 L229.34,711.47 L229.31,711.48 L229.27,711.49 L229.24,711.5 L229.2,711.51 L229.16,711.51 L229.12,711.52 L229.08,711.52 L229.04,711.53 L229,711.53 L229.01,711.31 C229.66,711.31,229.8,710.49,229.8,710.43 C229.8,710.37,229.78,710.31,229.77,710.26 L229.27,708.31 C229.22,708.13,229.22,708.11,229.07,707.94 C228.63,707.39,228.22,707.23,227.94,707.23 C227.45,707.23,227.31,707.78,227.31,708.17 C227.31,708.67,227.63,709.89,227.85,710.35 C228.16,710.94,228.61,711.31,229.01,711.31 L229,711.53 C227.83,711.53,226.6,710.06,226.6,708.61 C226.6,707.67,227.15,707.01,227.92,707.01 C228.12,707.01,228.62,707.05,229.22,707.76 C229.3,707.34,229.65,707.01,230.13,707.01 C230.47,707.01,230.7,707.24,230.86,707.56 C231.03,707.92,231.16,708.53,231.16,708.55 C231.16,708.65,231.07,708.65,231.04,708.65 C230.94,708.65,230.93,708.61,230.9,708.47 C230.73,707.82,230.55,707.23,230.15,707.23 C229.88,707.23,229.85,707.49,229.85,707.69 C229.85,707.91,229.87,707.99,229.98,708.43 C230.09,708.85,230.1,708.95,230.2,709.32 C230.36,709.96,230.4,710.15,230.55,710.72 C230.62,711,230.62,711.02,230.62,711.06 C230.62,711.23,230.5,711.33,230.34,711.33 C230.1,711.33,229.95,711.11,229.92,710.89 Z " />
<polygon
   id="polygon12361"
   style="stroke-width:0.35700231;fill:black;stroke-miterlimit:10.43299961;stroke-dasharray:none"
   points="233.05,714.59 231.68,714.59 231.68,714.2 232.65,714.2 232.65,705.03 231.68,705.03 231.68,704.63 233.05,704.63 " />
</g>  </g>
</svg>
