<?xml version="1.0" encoding="UTF-8" standalone="no"?>
<svg xmlns="http://www.w3.org/2000/svg" xmlns:xlink="http://www.w3.org/1999/xlink" width="48" height="48" version="1.0">
  <defs>
    <path id="j" fill="#edd400" fill-rule="evenodd" stroke="#8c7200" stroke-width="1.04999924" d="M32.823063 18.894651a6.330162 2.1770399 0 1 1-12.660324 0 6.330162 2.1770399 0 1 1 12.660324 0z"/>
    <path id="n" fill="#ecd300" fill-rule="evenodd" stroke="#8c7200" stroke-width="1.04999924" d="M32.823063 18.894651a6.330162 2.1770399 0 1 1-12.660324 0 6.330162 2.1770399 0 1 1 12.660324 0z"/>
    <path id="p" fill="#fce94f" fill-rule="evenodd" stroke="#8c7200" stroke-width="1.04999924" d="M32.823063 18.894651a6.330162 2.1770399 0 1 1-12.660324 0 6.330162 2.1770399 0 1 1 12.660324 0z"/>
    <path id="q" fill="none" stroke="#fff" stroke-width="1.51642048" d="M32.823063 18.894651a6.330162 2.1770399 0 1 1-12.660324 0 6.330162 2.1770399 0 1 1 12.660324 0z" opacity=".5"/>
  </defs>
  <defs>
    <linearGradient id="a">
      <stop offset="0" stop-color="#3f3f3f"/>
      <stop offset="1" stop-color="#fff"/>
    </linearGradient>
    <linearGradient xlink:href="#a" id="g" x1="40.605217" x2="17.594276" y1="12.89941" y2="36.913795" gradientTransform="matrix(.96376 0 0 .7931 -1.7786882 -2.5602451)" gradientUnits="userSpaceOnUse"/>
    <linearGradient id="d">
      <stop offset="0" stop-color="#555753"/>
      <stop offset="1" stop-color="#555753" stop-opacity="0"/>
    </linearGradient>
    <linearGradient id="e">
      <stop offset="0" stop-color="#d3d7cf"/>
      <stop offset="1" stop-color="#d3d7cf" stop-opacity="0"/>
    </linearGradient>
    <linearGradient id="f">
      <stop offset="0" stop-color="#babdb6"/>
      <stop offset="1" stop-color="#babdb6" stop-opacity="0"/>
    </linearGradient>
    <linearGradient xlink:href="#b" id="m" x1="24.612919" x2="29.182333" y1="20.159996" y2="12.24554" gradientTransform="translate(9.5e-7 1)" gradientUnits="userSpaceOnUse"/>
    <linearGradient id="b">
      <stop offset="0" stop-color="#204a87"/>
      <stop offset="1" stop-color="#204a87" stop-opacity="0"/>
    </linearGradient>
    <linearGradient xlink:href="#c" id="o" x1="18" x2="18" y1="39" y2="45.780262" gradientTransform="matrix(1 0 0 .83333 0 7.5)" gradientUnits="userSpaceOnUse"/>
    <linearGradient id="c">
      <stop offset="0" stop-color="#eeeeec"/>
      <stop offset="1" stop-color="#eeeeec" stop-opacity="0"/>
    </linearGradient>
    <radialGradient xlink:href="#d" id="i" cx="17.984474" cy="40.604275" r="21.030567" fx="17.984474" fy="40.604275" gradientTransform="matrix(1.11382 0 0 .53935 -2.124098 18.94132)" gradientUnits="userSpaceOnUse"/>
    <radialGradient xlink:href="#e" id="k" cx="24.013132" cy="31.643599" r="14.986866" fx="24.013132" fy="31.643599" gradientTransform="matrix(3.32355 0 0 2.77205 -55.79564 -48.86618)" gradientUnits="userSpaceOnUse"/>
    <radialGradient xlink:href="#f" id="l" cx="24.5" cy="18.592903" r="14.5" fx="24.5" fy="18.592903" gradientTransform="matrix(2.94027 0 0 2.43333 -47.53659 -23.36654)" gradientUnits="userSpaceOnUse"/>
  </defs>
  <g transform="translate(-.074106 11.579644) scale(1.26806)">
    <path id="h" fill="url(#g)" fill-opacity="1" fill-rule="evenodd" stroke="#323232" stroke-dasharray="none" stroke-linecap="butt" stroke-linejoin="miter" stroke-miterlimit="4" stroke-opacity="1" stroke-width=".41774637" d="M24.424881 26.020489c2.009508-.708782 2.625288-2.926039 3.531618-4.751657 1.062023-1.113794 1.980231 1.454865 4.051545 1.217263 1.426334-.162405 3.694776-2.570638 2.811061-4.138277-1.942138-1.699218-3.325246.49569-4.531188-.918009-.184112-1.52294 4.010533-2.621164 3.027396-3.732523-1.793631-1.332624-5.134544-.985102-8.344029-2.221525-1.432182-1.6181823 3.236193-.944258 2.208715-2.5244612-.420789-.634509-3.213765-2.1796995-6.380729-1.5146766-2.033822.6749494.355857 2.7382808-2.822245 2.5244609-2.173237-.2703938-5.866553-1.6872865-7.975909-1.009785C8.3668072 10.069742 7.5582415 11.631424 7.4242843 12.18261c-.332092 1.706123 3.6074277.561742 4.1809617 1.006103 1.697299 1.399125-1.9271108 3.13369-2.9516624 2.54471-.4099508-.82499-1.402807-1.254576-2.7666661-.96445-1.3844367.08577-3.7092857 4.209632-3.0161875 5.293639 1.1617336 1.353652 7.451904 3.066425 9.008341 2.87229 2.036634.05236.918158-.840179 1.064435-1.984026.313539-1.455668 7.576276.610365 6.029579 1.59711-2.070609.382212-2.643022 1.091778-1.883419 1.819454 1.376821 1.167016 6.171138 2.205385 7.335215 1.653049z"/>
    <use xlink:href="#h" width="42.279999" height="42.279999" transform="translate(.07178268 -.3589134)"/>
  </g>
  <g transform="translate(6.2811348 1.0051978) scale(.73806)">
    <path fill="url(#i)" fill-rule="evenodd" d="M39.692827 41.416107a21.030567 10.183721 0 1 1-42.0611341 0 21.030567 10.183721 0 1 1 42.0611341 0z" opacity=".5" transform="matrix(1.1412 0 0 .83467 2.702704 4.931393)"/>
    <path fill="#edd400" fill-rule="evenodd" stroke="#786100" stroke-width="1.04999924" d="M32.823063 18.894651a6.330162 2.1770399 0 1 1-12.660324 0 6.330162 2.1770399 0 1 1 12.660324 0z" transform="matrix(.7904 0 0 1.14756 20.5856 17.32042)"/>
    <path fill="none" d="M45.5270784 39.0032172a4.0038971 1.4967846 0 1 1-8.0077942 0 4.0038971 1.4967846 0 1 1 8.0077942 0z" opacity=".6"/>
    <use xlink:href="#j" fill-rule="evenodd" stroke-width="1.04999924" transform="matrix(.7904 0 0 1.14756 20.59524 15.32685)"/>
    <path fill="none" d="M45.5367184 37.0096472a4.0038971 1.4967846 0 1 1-8.0077942 0 4.0038971 1.4967846 0 1 1 8.0077942 0z" opacity=".6"/>
    <rect width="35.041153" height="34.99564" x="6.472692" y="2.5016282" fill="#eeeeec" fill-rule="evenodd" stroke="#555753" stroke-width="1.00000036" rx="2.0000002" ry="2.0000021"/>
    <use xlink:href="#j" fill-rule="evenodd" stroke-width="1.04999924" transform="matrix(.7904 0 0 1.14756 20.59524 13.32686)"/>
    <rect width="29.973732" height="25" x="9.026268" y="6" fill="url(#k)" fill-rule="evenodd" rx="1.6250001" ry="1.6250001"/>
    <path fill="none" d="M45.5367184 35.0096472a4.0038971 1.4967846 0 1 1-8.0077942 0 4.0038971 1.4967846 0 1 1 8.0077942 0z" opacity=".6"/>
    <path fill="url(#l)" fill-rule="evenodd" d="M14.031251 6v4h-4.03125v1h4.03125v4h-4.03125v1h4.03125v4h-4.03125v1h4.03125v4h-4.03125v1h4.03125v4h1v-4h4v4h1v-4h4v4h1v-4h4v4h1v-4h4v4h1v-4h3.96875v-1h-3.96875v-4h3.96875v-1h-3.96875v-4h3.96875v-1h-3.96875v-4h3.96875v-1h-3.96875V6h-1v4h-4V6h-1v4h-4V6h-1v4h-4V6h-1v4h-4V6h-1zm1 5h4v4h-4v-4zm5 0h4v4h-4v-4zm5 0h4v4h-4v-4zm5 0h4v4h-4v-4zm-15 5h4v4h-4v-4zm5 0h4v4h-4v-4zm5 0h4v4h-4v-4zm5 0h4v4h-4v-4zm-15 5h4v4h-4v-4zm5 0h4v4h-4v-4zm5 0h4v4h-4v-4zm5 0h4v4h-4v-4z"/>
    <use xlink:href="#j" fill-rule="evenodd" stroke-width="1.04999924" transform="matrix(.7904 0 0 1.14756 20.58267 11.32193)"/>
    <path fill="url(#m)" fill-rule="evenodd" d="m28.531251 13-4.883016 8.817147-8.609782-4.797282L9.031251 26.5l.875.5 5.412175-8.726766 8.70144 4.78125L29.406251 13.5l-.875-.5z"/>
    <path fill="#888a85" fill-rule="evenodd" d="M39 30v1H9v-1z"/>
    <path fill="none" d="M45.5367184 33.0032072a4.0038971 1.4967846 0 1 1-8.0077942 0 4.0038971 1.4967846 0 1 1 8.0077942 0z" opacity=".6"/>
    <path fill="#888a85" fill-rule="evenodd" d="M9.026268 6h1v25h-1z"/>
    <path fill="#4e9a06" fill-rule="evenodd" stroke="#2e5c02" stroke-width=".99999976" d="M1.4998397 34.48908H25.500165v6.025232H1.4998397V34.48908z"/>
    <path fill="#59af05" fill-rule="evenodd" stroke="#2e5c02" stroke-width="1.00828743" d="M4.3290498 28.504839H24.59374l.90212 6.11159H1.5041417l2.8249081-6.11159z"/>
    <path fill="#2e5c02" fill-rule="evenodd" d="M2.000138 38.036678h23v1h-23zm0-2h23v1h-23z"/>
    <path fill="none" stroke="#fff" d="m4.937598 29.552149-1.96875 3.9375h21.34375l-.59375-3.9375H4.937598z" opacity=".25"/>
    <path fill="#eeeeec" fill-rule="evenodd" stroke="#555753" stroke-width="1.00000012" d="M11.531348 34.474049h4.9373136v6.1093535H11.531348z"/>
    <path fill="#2e5c02" fill-rule="evenodd" d="M19.00000017 31.50000548a5.00000154 1.49999942 0 1 1-10.00000287 0 5.00000154 1.49999942 0 1 1 10.00000287 0z"/>
    <path fill="#d3d7cf" fill-rule="evenodd" stroke="#555753" stroke-width="1.00000012" d="m12.5 28.495708-1 5.637161v6.37143h5v-6.425371l-1.09375-5.58322H12.5z"/>
    <path fill="#4e9a06" fill-rule="evenodd" stroke="#2e5c02" stroke-width=".99999958" d="M5.4914627 39.471068H29.499977v6.039078H5.4914627v-6.039078z"/>
    <path fill="#57ae06" fill-rule="evenodd" stroke="#2e5c02" stroke-width=".99999964" d="M7.4508179 33.505021H27.659493l1.839885 5.993972H5.4999839l1.950834-5.993972z"/>
    <path fill="#ecd300" fill-rule="evenodd" stroke="#786100" stroke-width="1.04999924" d="M32.823063 18.894651a6.330162 2.1770399 0 1 1-12.660324 0 6.330162 2.1770399 0 1 1 12.660324 0z" transform="matrix(.7904 0 0 1.14756 15.57596 20.31399)"/>
    <use xlink:href="#j" fill-rule="evenodd" stroke-width="1.04999924" transform="matrix(.7904 0 0 1.14756 20.59524 9.320436)"/>
    <path fill="#2e5c02" fill-rule="evenodd" d="M6 43h23v1H6z"/>
    <path fill="none" d="M40.5174384 41.9967872a4.0038971 1.4967846 0 1 1-8.0077942 0 4.0038971 1.4967846 0 1 1 8.0077942 0z" opacity=".6"/>
    <path fill="#2e5c02" fill-rule="evenodd" d="M6 41h23.000002v1H6z"/>
    <use xlink:href="#n" fill-rule="evenodd" stroke-width="1.04999924" transform="matrix(.7904 0 0 1.14756 15.5856 18.32042)"/>
    <path fill="none" d="M45.5367184 31.0032172a4.0038971 1.4967846 0 1 1-8.0077942 0 4.0038971 1.4967846 0 1 1 8.0077942 0zm-5.00964 9a4.0038971 1.4967846 0 1 1-8.0077942 0 4.0038971 1.4967846 0 1 1 8.0077942 0z" opacity=".6"/>
    <use xlink:href="#n" fill-rule="evenodd" stroke-width="1.04999924" transform="matrix(.7904 0 0 1.14756 15.5856 16.32043)"/>
    <use xlink:href="#j" fill-rule="evenodd" stroke-width="1.04999924" transform="matrix(.7904 0 0 1.14756 20.59524 7.325352)"/>
    <path fill="none" stroke="#fff" d="m8.21875 34.53125-1.28125 3.9375h21.15625l-1.21875-3.9375H8.21875z" opacity=".25"/>
    <path fill="none" d="M40.5270784 38.0032172a4.0038971 1.4967846 0 1 1-8.0077942 0 4.0038971 1.4967846 0 1 1 8.0077942 0z" opacity=".6"/>
    <use xlink:href="#n" fill-rule="evenodd" stroke-width="1.04999924" transform="matrix(.7904 0 0 1.14756 15.57303 14.3155)"/>
    <path fill="none" d="M40.5270784 35.9967772a4.0038971 1.4967846 0 1 1-8.0077942 0 4.0038971 1.4967846 0 1 1 8.0077942 0z" opacity=".6"/>
    <use xlink:href="#j" fill-rule="evenodd" stroke-width="1.04999924" transform="matrix(.7904 0 0 1.14756 20.58267 5.320422)"/>
    <use xlink:href="#n" fill-rule="evenodd" stroke-width="1.04999924" transform="matrix(.7904 0 0 1.14756 15.5856 12.31401)"/>
    <path fill="none" d="M40.5270784 33.9967872a4.0038971 1.4967846 0 1 1-8.0077942 0 4.0038971 1.4967846 0 1 1 8.0077942 0z" opacity=".6"/>
    <path fill="#2e5c02" fill-rule="evenodd" d="M10.96878098 33.48453183a.99999748.4999998 0 1 1-1.99999491 0 .99999748.4999998 0 1 1 1.99999491 0zm15.000002 0a.99999748.4999998 0 1 1-1.99999491 0 .99999748.4999998 0 1 1 1.99999491 0zm-2.96879243 3.01547365a4.99999447 1.49999942 0 1 1-9.99998873 0 4.99999447 1.49999942 0 1 1 9.99998873 0zm-11.99999404.98452635a1.5156056.4999998 0 1 1-3.03121114 0 1.5156056.4999998 0 1 1 3.03121114 0zm16.00000278.01547a1.49999975.4999998 0 1 1-2.99999945 0 1.49999975.4999998 0 1 1 2.99999945 0z"/>
    <path fill="#d3d7cf" fill-rule="evenodd" stroke="#555753" stroke-width="1.00000012" d="m16.5 33.521308-1 5.625214v6.357927h5v-6.411754l-1.09375-5.571387H16.5z"/>
    <path fill="#888a85" fill-rule="evenodd" d="M16 40h4v5h-4z"/>
    <path fill="url(#o)" fill-rule="evenodd" d="M16 40h4v5h-4z"/>
    <path fill="#2e5c02" fill-rule="evenodd" d="M25.99999929 35.50000183a1.49999975.4999998 0 1 1-2.99999945 0 1.49999975.4999998 0 1 1 2.99999945 0zm-14 0a1.49999975.4999998 0 1 1-2.99999945 0 1.49999975.4999998 0 1 1 2.99999945 0z"/>
    <path fill="#fff" fill-rule="evenodd" d="M9.000001 6h30c-12.160656 3.9101256-11.337571 18-30 18V6z" opacity=".2"/>
    <path fill="#2e5c02" fill-rule="evenodd" d="M6.99999551 32.50000183a1.5156056.4999998 0 1 1-3.03121114 0 1.5156056.4999998 0 1 1 3.03121114 0zm17.00000378 0a1.49999975.4999998 0 1 1-2.99999945 0 1.49999975.4999998 0 1 1 2.99999945 0zm-1-2a1.49999975.4999998 0 1 1-2.99999945 0 1.49999975.4999998 0 1 1 2.99999945 0zm-14.999999 0a1.49999975.4999998 0 1 1-2.99999945 0 1.49999975.4999998 0 1 1 2.99999945 0z"/>
    <use xlink:href="#j" fill-rule="evenodd" stroke-width="1.04999924" transform="matrix(.7904 0 0 1.14756 20.59524 3.318928)"/>
    <use xlink:href="#j" fill-rule="evenodd" stroke-width="1.04999924" transform="matrix(.7904 0 0 1.14756 20.59524 1.318928)"/>
    <use xlink:href="#p" fill-rule="evenodd" stroke-width="1.04999924" transform="matrix(.7904 0 0 1.14756 20.57596 -.684495)"/>
    <use xlink:href="#p" fill-rule="evenodd" stroke-width="1.04999924" transform="matrix(.7904 0 0 1.14756 15.56632 10.31401)"/>
    <use xlink:href="#q" stroke-width="1.51642048" opacity=".5" transform="matrix(.63251 0 0 .68753 19.74685 19.00611)"/>
    <use xlink:href="#q" stroke-width="1.51642048" opacity=".5" transform="matrix(.63251 0 0 .68753 24.74869 8.006107)"/>
  </g>
</svg>