<?xml version="1.0" encoding="utf-8"?>
<!-- Generator: Adobe Illustrator 16.0.3, SVG Export Plug-In . SVG Version: 6.00 Build 0)  -->
<!DOCTYPE svg PUBLIC "-//W3C//DTD SVG 1.1//EN" "http://www.w3.org/Graphics/SVG/1.1/DTD/svg11.dtd">
<svg version="1.1" id="Layer_1" xmlns="http://www.w3.org/2000/svg" xmlns:xlink="http://www.w3.org/1999/xlink" x="0px" y="0px"
	 width="445.68px" height="416.223px" viewBox="244.607 50.879 445.68 416.223"
	 enable-background="new 244.607 50.879 445.68 416.223" xml:space="preserve">
<g>
	<g>
		<rect x="244.607" y="50.879" width="445.68" height="220.9"/>
		<rect x="286.607" y="92.879" fill="#FFFFFF" width="361.68" height="136.9"/>
	</g>
	<g>
		<g>
			<circle stroke="#000000" stroke-width="1.859" stroke-miterlimit="10" cx="468.976" cy="162" r="56.922"/>
			<path stroke="#000000" stroke-width="1.859" stroke-miterlimit="10" d="M468.976,162"/>
		</g>
		<g>
			<g>
				<path fill="#FFFFFF" d="M438.035,172.087H452.9c0.939,4.289,2.179,9.476,8.948,11.401l-0.018-16.849
					c-9.273-1.333-22.65-5.399-22.65-20.312c0-16.764,18.549-21.991,22.668-21.991v-10.137h13.98v10.137
					c9.427,0.546,23.109,8.426,23.109,23.406h-14.721c-0.374-4.447-3.819-8.816-8.243-9.128v15.448
					c11.238,1.153,24.436,5.442,24.436,20.542c0,13.185-13.247,22.801-24.436,23.393v10.162H461.85v-10.31
					C453.755,196.665,438.954,188.86,438.035,172.087z"/>
			</g>
			<g>
				<g>
					<path d="M461.923,138.767v12.799C451.96,151.41,451.766,140.543,461.923,138.767z"/>
				</g>
				<g>
					<path d="M476.141,169.042c12.328,0.312,13.7,12.561-0.014,14.52"/>
					<line fill="none" x1="476.127" y1="183.562" x2="476.141" y2="169.042"/>
				</g>
			</g>
		</g>
	</g>
	<g>
		<g>
			<circle stroke="#000000" stroke-width="1.859" stroke-miterlimit="10" cx="562.25" cy="261.25" r="56.922"/>
			<path stroke="#000000" stroke-width="1.859" stroke-miterlimit="10" d="M562.25,261.25"/>
		</g>
		<g>
			<path fill="#FFFFFF" d="M588.545,283.998v12.271h-52.718v-12.271c5.99-4.012,9.104-14.159,7.188-19.588h-11.021v-12.506h8.865
				c-2.396-5.663-2.396-7.551-2.396-12.508c0-4.955,4.075-21.112,25.4-21C583.5,218.5,589.2,234.68,589.2,246.241l-14.95,0.009
				c-1-7-3.75-12.75-10.25-12.75c-9.944,0-9.961,6.251-9.961,8.376c0,2.123,0.358,7.313,2.396,10.147h12.94v12.27h-10.544
				c1.317,11.21-5.152,15.93-5.512,19.705H588.545z"/>
		</g>
	</g>
	<g>
		<g>
			<circle stroke="#000000" stroke-width="1.859" stroke-miterlimit="10" cx="524.25" cy="409.25" r="56.922"/>
			<path stroke="#000000" stroke-width="1.859" stroke-miterlimit="10" d="M524.25,409.25"/>
		</g>
		<g>
			<polygon fill="#FFFFFF" points="492.258,374.341 508.793,374.341 524.129,401.408 540.769,374.341 555.998,374.341 
				531.318,417.989 549.768,417.989 549.768,431.887 532.036,431.887 532.036,451.395 516.94,451.395 516.94,431.887 
				498.009,431.887 498.009,418.232 517.179,418.232 			"/>
		</g>
	</g>
	<g>
		<g>
			<circle stroke="#000000" stroke-width="1.859" stroke-miterlimit="10" cx="344.75" cy="344.75" r="56.922"/>
			<path stroke="#000000" stroke-width="1.859" stroke-miterlimit="10" d="M344.75,344.75"/>
		</g>
		<g>
			<path fill="#FFFFFF" d="M306.85,360.426l2.115-10.115h12.431c-0.135-1.678-0.203-3.439-0.203-5.283
				c0-1.609,0.052-3.188,0.152-4.732H306.85l2.115-10.113h13.789c1.41-6.006,3.806-11.037,7.197-15.098
				c5.064-6.107,11.522-9.158,19.373-9.158c10.467,0,18.135,4.094,22.998,12.277c2.684,4.598,4.127,9.211,4.328,13.84h-13.035
				c-0.838-3.555-1.928-6.238-3.271-8.053c-2.348-3.219-5.854-4.83-10.516-4.83c-4.732,0-8.472,2.281-11.223,6.844
				c-0.738,1.242-1.378,2.635-1.912,4.178h19.977l-2.113,10.113h-19.876c-0.101,1.578-0.152,3.238-0.152,4.984
				c0,1.775,0.052,3.453,0.152,5.031h18.62l-2.115,10.115h-14.241c0.535,1.309,1.174,2.5,1.913,3.572
				c2.884,4.129,6.559,6.191,11.02,6.191c4.563,0,8.035-1.777,10.418-5.334c1.34-1.914,2.449-4.781,3.32-8.605H376.5
				c-1.143,8.084-4.025,14.662-8.656,19.727c-4.633,5.066-10.568,7.598-17.814,7.598c-8.959,0-16.004-3.42-21.137-10.266
				c-2.684-3.588-4.663-7.885-5.939-12.883H306.85z"/>
		</g>
	</g>
</g>
</svg>
