<?xml version="1.0" encoding="UTF-8" standalone="no"?>
<svg xmlns="http://www.w3.org/2000/svg" xml:space="preserve" width="350" height="290" version="1.0" viewBox="0 0 620 620">
  <defs>
    <radialGradient id="f" cx="464.12" cy="426.9" r="155.88" gradientUnits="userSpaceOnUse">
      <stop offset=".7571"/>
      <stop offset="1" stop-opacity="0"/>
    </radialGradient>
    <radialGradient id="a" cx="31.386" cy="32.356" r="26.5" gradientTransform="matrix(.89212 -.00516 .00475 .82985 3.1699 4.906)" gradientUnits="userSpaceOnUse">
      <stop offset="0" stop-opacity=".31183"/>
      <stop offset=".88" stop-opacity=".60573"/>
      <stop offset="1" stop-opacity="0"/>
    </radialGradient>
    <radialGradient id="b" cx="16.353" cy="26.318" r="26.8" gradientTransform="matrix(.37437 1.1613 -.97039 .30353 39.413 -3.7995)" gradientUnits="userSpaceOnUse">
      <stop offset="0" stop-color="#d8ebff"/>
      <stop offset="1" stop-color="#4fa9ff"/>
    </radialGradient>
    <radialGradient id="d" cx="24.113" cy="21.771" r="25.797" gradientTransform="matrix(.41652 -1.4633 1.197 .34921 -156.5 79.122)" gradientUnits="userSpaceOnUse">
      <stop offset="0" stop-color="#4ec20e"/>
      <stop offset="1" stop-color="#2ab907"/>
    </radialGradient>
    <radialGradient id="h" cx="303.59" cy="416.97" r="162.88" gradientTransform="matrix(1.9772 .01382 -.00868 1.2431 -295.58 -108.64)" gradientUnits="userSpaceOnUse">
      <stop offset="0" stop-color="#d78733"/>
      <stop offset="1" stop-color="#bf602c"/>
    </radialGradient>
    <linearGradient id="g" x1="-291.04" x2="-310.89" y1="1781.6" y2="1740.1" gradientTransform="matrix(6.0419 0 0 -6.0419 2269.1 11052)" gradientUnits="userSpaceOnUse">
      <stop offset="0" stop-color="#FFC9A1"/>
      <stop offset=".5" stop-color="#FDA557"/>
      <stop offset="1" stop-color="#FB8F23"/>
    </linearGradient>
    <linearGradient id="c" x1="29.358" x2="30.029" y1="54.29" y2="54.304" gradientUnits="userSpaceOnUse">
      <stop offset="0" stop-color="#2b79e0"/>
      <stop offset="1" stop-color="#008df7"/>
    </linearGradient>
    <linearGradient id="e" x1="55.454" x2="9.5471" y1="42.753" y2="16.249" gradientUnits="userSpaceOnUse">
      <stop offset="0" stop-color="#3e79ca"/>
      <stop offset="1" stop-color="#36a8ff"/>
    </linearGradient>
  </defs>
  <g transform="translate(1347.9 -284.48) scale(9.7827)">
    <circle cx="32.5" cy="29.5" r="26.5" fill="url(#a)" transform="matrix(1.2353 0 0 1.2476 -151.47 23.712)"/>
    <circle cx="31" cy="31" r="25.8" fill="url(#b)" stroke="url(#c)" stroke-width="2.5672" transform="matrix(1.0886 0 0 1.1051 -147.56 25.306)"/>
    <path fill="#fff" d="M-87.1155628 59.5424208a26.893142 27.3376864 0 1 1-53.786284 0 26.893142 27.3376864 0 1 1 53.786284 0z" opacity=".29808"/>
    <path fill="url(#d)" stroke="#1a7a0b" stroke-width=".6418" d="M-132.49 38.258c-3.53 3.181-6.15 7.192-7.73 11.593.86-1.136 1.91-2.111 2.89-2.722 3.38 1.372 7.62-2.696 8.6-5.663 2.03-1.563-1.58-2.531-3.76-3.208zm23.33-.846c-2.79 1.216-5.96 4.028-4.82 5.331 2.03-1.393 4.34-.886 2.71 1.862-2.24 3.574-4.17-1.334-6.46.112 1.11.985-3.01 2.451-4.23 2.519-2.49-.41 2.12 1.843.37 2.62-5.11.851 2.51 3.684 2.63-.509 4.74-2.652 4.9 5.756 9.82 4.589-1.35-2.012.29-4.386 2.83-4.69 4.62 1.296-3.05 3.575.33 4.181-.36 1.904-4.72 2.444-6.32 4.143-5.15-.142-7.11-7.746-12.6-4.243-3.75.817-5.86 6.107-4.84 9.661 1.7 4.967 5.45 5.371 9.83 5.563 4.03 2.122 3.01 9.692 4.56 14.024 2.29 2.162 8.94 7.321 8.85.803-.73-4.475 4.91-13.106 7.028-17.004 3.326-5.583-3.348.587-4.868-2.051-.98-5.85 4.806-.664 7.38-2.425 2.447 1.527 6.337-1.22 6.818 3.08.937 5.293 3.03-1.795 4.238-2.41.495-4.7-.127-9.582-2.093-14.233-2.501-5.917-6.77-10.532-11.887-13.498-1.116-.152-2.236-.051-2.706.876.63 3.126-2.48 2.998-4.07 1.136-.68-.063-1.57.158-2.5.563zm-32.56 18.956c-.5 4.468.02 9.109 1.74 13.562-.32-3.538.42-7.5 2.95-9.741.7-.722-.34-3.173-4.65-3.726-.02-.03-.02-.064-.04-.095z"/>
    <circle cx="31" cy="31" r="25.8" fill="none" stroke="url(#e)" stroke-width="2.5672" transform="matrix(1.0886 0 0 1.1051 -147.56 25.306)"/>
  </g>
  <circle cx="464.12" cy="426.9" r="155.88" fill="url(#f)" transform="translate(-74.681 -95.046) scale(1.2094)"/>
  <circle cx="450.2" cy="413.9" r="155.88" fill="url(#g)" stroke="url(#h)" stroke-width="14" transform="translate(-74.681 -95.046) scale(1.2094)"/>
  <path fill="#fff" d="M498.9 501.4c0 16.09-13.04 29.13-29.13 29.13s-29.13-13.04-29.13-29.13 13.04-29.13 29.13-29.13 29.13 13.05 29.13 29.13zm3.32-212.37h-64.9l10.82 151.42h43.26l10.82-151.42z"/>
</svg>