<?xml version="1.0" encoding="UTF-8" standalone="no"?>
<!-- Created with Serif DrawPlus 11, 0, 3, 23 (Feb 25, 14:12:55) (http://www.serif.com) -->
<svg version="1.1" xmlns="http://www.w3.org/2000/svg" xmlns:xlink="http://www.w3.org/1999/xlink" width="325.205" height="146.651">
	<g id="dp_group001" transform="matrix(1,0,0,1,-155.48,-510.172)">
		<path id="dp_path002" fill="none" fill-rule="evenodd" stroke="#ee0505" stroke-width="2.26533" d="M 155.709,614.253 L 480.455,547.141"/>
		<path id="dp_path003" fill="none" fill-rule="evenodd" stroke="black" stroke-width="1.33333" d="M 457.439,656.155 L 446.8,656.155 L 456.299,645.604"/>
		<text id="dp_text001" transform="matrix(1,0,0,1,428.178,648.72)" xml:space="preserve" fill="black" font-family="Arial" font-size="31" font-weight="700" x="0" y="0">e </text>
		<text id="dp_text002" transform="matrix(1.68283,0,0,1,429.704,632.901)" xml:space="preserve" fill="black" font-family="Arial" font-size="17" font-weight="700" x="0" y="0">^ </text>
		<g id="dp_group006">
			<g id="dp_group007">
				<path id="dp_path008" fill="black" fill-rule="evenodd" d="M 384.224,565.504 L 384.685,567.721 L 385.608,572.156 L 395.541,564.307 L 383.301,561.069 Z "/>
				<path id="dp_path009" fill="black" d="M 241.364,597.539 L 384.685,567.723 L 384.224,565.504 L 240.903,595.32 Z "/>
			</g>
		</g>
		<g id="dp_group010">
			<g id="dp_group011">
				<path id="dp_path012" fill="black" fill-rule="evenodd" d="M 407.495,623.823 L 407.113,626.056 L 406.348,630.52 L 418.467,626.851 L 408.26,619.359 Z "/>
				<path id="dp_path013" fill="black" d="M 240.943,597.597 L 407.113,626.056 L 407.495,623.824 L 241.324,595.365 Z "/>
			</g>
		</g>
		<g id="dp_group014">
			<g id="dp_group015">
				<path id="dp_path016" fill="black" fill-rule="evenodd" d="M 306.22,600.729 L 304.885,600.475 L 302.213,599.965 L 304.28,607.279 L 308.891,601.237 Z "/>
				<path id="dp_path017" fill="black" d="M 302.677,583.503 L 302.92,584.195 L 303.148,584.883 L 303.364,585.576 L 303.469,585.92 L 303.569,586.265 L 303.667,586.612 L 303.763,586.96 L 303.855,587.308 L 303.944,587.655 L 304.029,588.005 L 304.113,588.355 L 304.192,588.704 L 304.269,589.056 L 304.343,589.407 L 304.412,589.759 L 304.479,590.113 L 304.543,590.467 L 304.603,590.82 L 304.66,591.175 L 304.713,591.532 L 304.763,591.888 L 304.811,592.245 L 304.853,592.604 L 304.892,592.964 L 304.929,593.324 L 304.961,593.685 L 304.991,594.048 L 305.017,594.411 L 305.037,594.773 L 305.056,595.139 L 305.071,595.505 L 305.081,595.873 L 305.089,596.241 L 305.092,596.611 L 305.092,596.983 L 305.087,597.355 L 305.079,597.727 L 305.065,598.101 L 305.049,598.477 L 305.029,598.853 L 305.005,599.231 L 304.976,599.609 L 304.944,599.991 L 304.909,600.345 L 304.884,600.473 L 306.22,600.729 L 306.256,600.537 L 306.296,600.113 L 306.331,599.719 L 306.36,599.324 L 306.384,598.933 L 306.407,598.541 L 306.423,598.152 L 306.436,597.764 L 306.444,597.376 L 306.449,596.991 L 306.449,596.608 L 306.447,596.223 L 306.439,595.841 L 306.428,595.46 L 306.413,595.08 L 306.395,594.701 L 306.372,594.323 L 306.345,593.947 L 306.316,593.571 L 306.281,593.196 L 306.244,592.823 L 306.203,592.449 L 306.157,592.077 L 306.109,591.707 L 306.057,591.337 L 306.001,590.969 L 305.944,590.601 L 305.881,590.232 L 305.815,589.865 L 305.745,589.503 L 305.673,589.137 L 305.597,588.773 L 305.517,588.411 L 305.436,588.048 L 305.349,587.688 L 305.261,587.327 L 305.169,586.967 L 305.075,586.608 L 304.976,586.249 L 304.876,585.892 L 304.771,585.533 L 304.663,585.176 L 304.441,584.467 L 304.205,583.757 L 303.963,583.055 Z "/>
			</g>
		</g>
		<g id="dp_group018">
			<g id="dp_group019">
				<path id="dp_path020" fill="none" fill-rule="evenodd" stroke="black" stroke-width="1.33333" d="M 404.651,535.349 L 404.651,550.799"/>
				<path id="dp_path021" fill="none" fill-rule="evenodd" stroke="black" stroke-width="1.33333" d="M 408.159,535.349 L 408.159,550.8"/>
			</g>
			<text id="dp_text003" transform="matrix(1,0,0,1,383.971,543.365)" xml:space="preserve" fill="black" font-family="Arial" font-size="31" font-weight="700" x="0" y="0">e </text>
			<text id="dp_text004" transform="matrix(1.68283,0,0,1,385.497,527.547)" xml:space="preserve" fill="black" font-family="Arial" font-size="17" font-weight="700" x="0" y="0">^ </text>
		</g>
		<path id="dp_path024" fill="black" fill-rule="evenodd" d="M 306.589,627.72 C 306.835,626.74 306.856,625.827 306.651,624.979 C 306.447,624.131 306.069,623.391 305.517,622.757 C 304.967,622.124 304.292,621.639 303.496,621.303 C 302.699,620.965 301.831,620.776 300.891,620.735 L 302.76,613.321 C 302.801,613.137 302.719,613.045 302.515,613.045 L 302.361,613.045 C 302.157,613.045 302.035,613.137 301.995,613.321 L 300.125,620.735 C 299.165,620.776 298.205,620.965 297.245,621.303 C 296.285,621.639 295.367,622.124 294.488,622.757 C 293.631,623.391 292.889,624.131 292.267,624.979 C 291.644,625.827 291.209,626.74 290.965,627.72 C 290.74,628.68 290.72,629.584 290.904,630.432 C 291.088,631.28 291.455,632.02 292.007,632.653 C 292.579,633.287 293.263,633.772 294.059,634.108 C 294.856,634.445 295.713,634.635 296.633,634.675 L 295.255,640.312 C 295.172,640.517 295.244,640.619 295.468,640.619 L 295.621,640.619 C 295.805,640.619 295.939,640.517 296.02,640.312 L 297.399,634.675 C 298.379,634.635 299.349,634.445 300.309,634.108 C 301.269,633.772 302.188,633.287 303.067,632.653 C 303.924,632.02 304.665,631.28 305.288,630.432 C 305.911,629.584 306.345,628.68 306.589,627.72 Z M 304.507,627.72 C 304.281,628.559 303.96,629.365 303.541,630.141 C 303.123,630.917 302.567,631.601 301.872,632.193 C 301.239,632.725 300.555,633.148 299.819,633.465 C 299.084,633.781 298.339,633.96 297.583,634.001 L 300.739,621.44 C 301.453,621.481 302.101,621.655 302.684,621.961 C 303.265,622.267 303.74,622.696 304.108,623.248 C 304.496,623.84 304.716,624.524 304.767,625.3 C 304.817,626.076 304.731,626.883 304.507,627.72 Z M 299.972,621.44 L 296.816,634.001 C 296.101,633.96 295.448,633.781 294.856,633.465 C 294.264,633.148 293.793,632.725 293.447,632.193 C 293.037,631.601 292.813,630.917 292.772,630.141 C 292.732,629.365 292.824,628.559 293.048,627.72 C 293.252,626.883 293.569,626.076 293.997,625.3 C 294.427,624.524 294.988,623.84 295.683,623.248 C 297.011,622.144 298.44,621.543 299.972,621.44 Z "/>
	</g>
</svg>