<svg xmlns="http://www.w3.org/2000/svg" width="139" height="106"><path fill="#ef2929" stroke="#a40000" stroke-width="6" stroke-linecap="round" stroke-linejoin="round" d="M3 3h133v100H3z"/><path d="M46.436 37.373L32.49 59.166h13.946V37.373m-1.45-4.812h6.946v26.605h5.824v4.594h-5.824v9.625h-5.496V63.76h-18.43v-5.332l16.98-25.867M67.49 60.623h5.77v6.945h-5.77v-6.945m0-21.32h5.77v6.946h-5.77v-6.945m35.082 12.069c2.643.565 4.703 1.741 6.18 3.527 1.495 1.787 2.242 3.993 2.242 6.618 0 4.028-1.385 7.145-4.156 9.351-2.771 2.206-6.708 3.309-11.813 3.309a28.4 28.4 0 0 1-5.304-.52 37.272 37.272 0 0 1-5.606-1.504v-5.332a19.136 19.136 0 0 0 5.031 2.024c1.823.455 3.728.683 5.715.683 3.464 0 6.098-.683 7.903-2.05 1.823-1.368 2.734-3.355 2.734-5.961 0-2.407-.848-4.284-2.543-5.633-1.677-1.367-4.02-2.051-7.027-2.051H91.17v-4.54h4.976c2.717 0 4.795-.537 6.235-1.612 1.44-1.094 2.16-2.662 2.16-4.703 0-2.097-.747-3.701-2.242-4.813-1.477-1.13-3.6-1.695-6.371-1.695-1.513 0-3.136.164-4.867.492-1.732.328-3.637.838-5.715 1.531v-4.922c2.096-.583 4.056-1.02 5.879-1.312 1.84-.292 3.573-.438 5.195-.438 4.193 0 7.51.957 9.953 2.871 2.443 1.896 3.664 4.467 3.664 7.711 0 2.26-.647 4.175-1.941 5.742-1.295 1.55-3.136 2.626-5.524 3.227"/></svg>