<?xml version="1.0" encoding="UTF-8" standalone="no"?>
<svg xmlns="http://www.w3.org/2000/svg" xmlns:xlink="http://www.w3.org/1999/xlink" width="48" height="48" version="1.0">
  <defs>
    <linearGradient id="a">
      <stop offset="0" stop-color="#3f3f3f"/>
      <stop offset="1" stop-color="#fff"/>
    </linearGradient>
    <linearGradient xlink:href="#a" id="p" x1="40.605217" x2="17.594276" y1="12.89941" y2="36.913795" gradientTransform="matrix(.9637557 0 0 .7931017 -1.7786882 -2.5602451)" gradientUnits="userSpaceOnUse"/>
    <linearGradient id="n">
      <stop offset="0"/>
      <stop offset="1" stop-opacity="0"/>
    </linearGradient>
    <linearGradient xlink:href="#b" id="s" x1="15.394904" x2="15.394904" y1="39.362816" y2="20.46048" gradientUnits="userSpaceOnUse"/>
    <linearGradient id="b">
      <stop offset="0" stop-color="#c17d11"/>
      <stop offset=".32413805" stop-color="#a96d0e"/>
      <stop offset="1" stop-color="#915e0c"/>
    </linearGradient>
    <linearGradient xlink:href="#c" id="t" x1="16.141401" x2="16.141401" y1="25.678898" y2="29.005333" gradientUnits="userSpaceOnUse"/>
    <linearGradient id="c">
      <stop offset="0" stop-opacity=".61946905"/>
      <stop offset="1" stop-opacity="0"/>
    </linearGradient>
    <linearGradient xlink:href="#d" id="u" x1="20.19943" x2="20.19943" y1="49.420177" y2="14.140871" gradientUnits="userSpaceOnUse"/>
    <linearGradient id="d">
      <stop offset="0" stop-color="#fff"/>
      <stop offset="1" stop-color="#fff" stop-opacity="0"/>
    </linearGradient>
    <linearGradient xlink:href="#e" id="v" x1="16.093136" x2="16.093136" y1="16.744064" y2="23.723112" gradientUnits="userSpaceOnUse"/>
    <linearGradient id="e">
      <stop offset="0" stop-color="#c17d11"/>
      <stop offset="1" stop-color="#915e0c"/>
    </linearGradient>
    <linearGradient xlink:href="#f" id="w" x1="20.486849" x2="25.134455" y1="13.140125" y2="36.35294" gradientUnits="userSpaceOnUse"/>
    <linearGradient id="f">
      <stop offset="0" stop-color="#fff"/>
      <stop offset="1" stop-color="#fff" stop-opacity="0"/>
    </linearGradient>
    <linearGradient xlink:href="#g" id="x" x1="11.576241" x2="11.576241" y1="11.997862" y2="15.502134" gradientUnits="userSpaceOnUse"/>
    <linearGradient id="g">
      <stop offset="0" stop-color="#fff"/>
      <stop offset="1" stop-color="#fff" stop-opacity="0"/>
    </linearGradient>
    <linearGradient xlink:href="#h" id="y" x1="20.319328" x2="29.432539" y1="14.887155" y2="14.887155" gradientTransform="matrix(1 0 0 1.3999999 -1 -2.7999992)" gradientUnits="userSpaceOnUse"/>
    <linearGradient id="h">
      <stop offset="0" stop-color="#fff"/>
      <stop offset="1" stop-color="#fff" stop-opacity="0"/>
    </linearGradient>
    <linearGradient xlink:href="#i" id="z" x1="27" x2="27" y1="21" y2="27" gradientUnits="userSpaceOnUse"/>
    <linearGradient id="i">
      <stop offset="0" stop-color="#fded6d"/>
      <stop offset="1" stop-color="#fbe321"/>
    </linearGradient>
    <linearGradient xlink:href="#j" id="A" x1="23" x2="23" y1="27" y2="21" gradientUnits="userSpaceOnUse"/>
    <linearGradient id="j">
      <stop offset="0" stop-color="#d9c200"/>
      <stop offset="1" stop-color="#ffe719"/>
    </linearGradient>
    <linearGradient id="o">
      <stop offset="0"/>
      <stop offset="1" stop-opacity="0"/>
    </linearGradient>
    <linearGradient xlink:href="#k" id="C" x1="53.182167" x2="58.226753" y1="21.997452" y2="25.024204" gradientUnits="userSpaceOnUse"/>
    <linearGradient id="k">
      <stop offset="0" stop-color="#ffea78"/>
      <stop offset="1" stop-color="gold"/>
    </linearGradient>
    <linearGradient xlink:href="#l" id="D" x1="42.195171" x2="43.000549" y1="33.403347" y2="33.403347" gradientTransform="matrix(-1 0 0 .7541828 109 .3079745)" gradientUnits="userSpaceOnUse"/>
    <linearGradient id="l">
      <stop offset="0" stop-color="#5a4900"/>
      <stop offset="1" stop-color="#c4a000" stop-opacity=".0619469"/>
    </linearGradient>
    <linearGradient xlink:href="#k" id="E" x1="53.182167" x2="58.226753" y1="21.997452" y2="25.024204" gradientUnits="userSpaceOnUse"/>
    <linearGradient xlink:href="#m" id="F" x1="42.043842" x2="42.043842" y1="35.430058" y2="44.955807" gradientTransform="matrix(1 0 0 .7541828 21 -6.4047629)" gradientUnits="userSpaceOnUse"/>
    <linearGradient id="m">
      <stop offset="0" stop-color="#fff"/>
      <stop offset="1" stop-color="#fff" stop-opacity="0"/>
    </linearGradient>
    <linearGradient xlink:href="#l" id="G" x1="42.195171" x2="43.000549" y1="33.403347" y2="33.403347" gradientTransform="matrix(-1 0 0 .7541828 109 -6.6920255)" gradientUnits="userSpaceOnUse"/>
    <linearGradient xlink:href="#k" id="H" x1="53.182167" x2="58.226753" y1="21.997452" y2="25.024204" gradientUnits="userSpaceOnUse"/>
    <linearGradient xlink:href="#m" id="I" x1="42.043842" x2="42.043842" y1="33.403347" y2="36.820168" gradientTransform="matrix(1 0 0 .7541828 12 3.0952371)" gradientUnits="userSpaceOnUse"/>
    <linearGradient xlink:href="#l" id="J" x1="42.195171" x2="43.000549" y1="33.403347" y2="33.403347" gradientTransform="matrix(-1 0 0 .7541828 100 2.8079745)" gradientUnits="userSpaceOnUse"/>
    <linearGradient xlink:href="#k" id="K" x1="53.182167" x2="58.226753" y1="21.997452" y2="25.024204" gradientUnits="userSpaceOnUse"/>
    <linearGradient xlink:href="#m" id="L" x1="42.043842" x2="42.043842" y1="33.403347" y2="36.820168" gradientTransform="matrix(1 0 0 .7541828 18 1.0952371)" gradientUnits="userSpaceOnUse"/>
    <linearGradient xlink:href="#l" id="M" x1="42.195171" x2="43.000549" y1="33.403347" y2="33.403347" gradientTransform="matrix(-1 0 0 .7541828 106 .8079745)" gradientUnits="userSpaceOnUse"/>
    <linearGradient xlink:href="#k" id="N" x1="53.182167" x2="58.226753" y1="21.997452" y2="25.024204" gradientUnits="userSpaceOnUse"/>
    <linearGradient xlink:href="#m" id="O" x1="42.043842" x2="42.043842" y1="30.88969" y2="34.34861" gradientTransform="matrix(1 0 0 .7541828 12 3.0952371)" gradientUnits="userSpaceOnUse"/>
    <linearGradient xlink:href="#l" id="P" x1="42.195171" x2="43.000549" y1="33.403347" y2="33.403347" gradientTransform="matrix(-1 0 0 .7541828 100 2.8079745)" gradientUnits="userSpaceOnUse"/>
    <radialGradient xlink:href="#n" id="r" cx="23.5" cy="33.25" r="19" fx="23.5" fy="33.25" gradientTransform="matrix(1 0 0 .802632 0 6.5625)" gradientUnits="userSpaceOnUse"/>
    <radialGradient xlink:href="#o" id="B" cx="23.5" cy="33.25" r="19" fx="23.5" fy="33.25" gradientTransform="matrix(1 0 0 .802632 0 6.5625)" gradientUnits="userSpaceOnUse"/>
  </defs>
  <g transform="translate(-.074106 11.579644) scale(1.2680625)">
    <path id="q" fill="url(#p)" fill-opacity="1" fill-rule="evenodd" stroke="#323232" stroke-dasharray="none" stroke-linecap="butt" stroke-linejoin="miter" stroke-miterlimit="4" stroke-opacity="1" stroke-width=".41774637" d="M24.424881 26.020489c2.009508-.708782 2.625288-2.926039 3.531618-4.751657 1.062023-1.113794 1.980231 1.454865 4.051545 1.217263 1.426334-.162405 3.694776-2.570638 2.811061-4.138277-1.942138-1.699218-3.325246.49569-4.531188-.918009-.184112-1.52294 4.010533-2.621164 3.027396-3.732523-1.793631-1.332624-5.134544-.985102-8.344029-2.221525-1.432182-1.6181823 3.236193-.944258 2.208715-2.5244612-.420789-.634509-3.213765-2.1796995-6.380729-1.5146766-2.033822.6749494.355857 2.7382808-2.822245 2.5244609-2.173237-.2703938-5.866553-1.6872865-7.975909-1.009785C8.3668072 10.069742 7.5582415 11.631424 7.4242843 12.18261c-.332092 1.706123 3.6074277.561742 4.1809617 1.006103 1.697299 1.399125-1.9271108 3.13369-2.9516624 2.54471-.4099508-.82499-1.402807-1.254576-2.7666661-.96445-1.3844367.08577-3.7092857 4.209632-3.0161875 5.293639 1.1617336 1.353652 7.451904 3.066425 9.008341 2.87229 2.036634.05236.918158-.840179 1.064435-1.984026.313539-1.455668 7.576276.610365 6.029579 1.59711-2.070609.382212-2.643022 1.091778-1.883419 1.819454 1.376821 1.167016 6.171138 2.205385 7.335215 1.653049z"/>
    <use xlink:href="#q" width="42.279999" height="42.279999" transform="translate(.07178268 -.3589134)"/>
  </g>
  <g transform="translate(4.7817025 1.0971374) scale(.82177972)">
    <path fill="url(#r)" fill-rule="evenodd" d="M42.5 33.25a19 15.25 0 1 1-38 0 19 15.25 0 1 1 38 0z" opacity=".65" overflow="visible" style="marker:none" transform="matrix(.8947368 0 0 .5245902 1.9736841 17.557375)"/>
    <path fill="url(#s)" stroke="#7c4d01" d="M40.5 15.5v21c0 1.963959-.802955 3-3 3h-29c-2.3266736 0-3-.766696-3-3v-21h35z"/>
    <path fill="url(#t)" d="M8.292853 31.510509h31.076385c.592934-.03992 1.044268-.06163 1.266896-.213049.236659-.160959.299675-.511231.333293-1.364813v-5.922138H6.9694268v6.457056c.097283 1.029618.038587.961874 1.3234262 1.042944z" opacity=".35"/>
    <path fill="none" stroke="url(#u)" d="M6.5 16.5h33v20c0 1.360255-.283472 2-2.072537 2h-29C6.7205827 38.5 6.5 38.126561 6.5 36.5v-20z" opacity=".45"/>
    <path fill="url(#v)" stroke="#7c4d01" d="M7.5 10.5h31c2.196658 0 3 .975917 3 3v8c0 3.166341-1.006412 4-4 4h-29c-3.0097211 0-4-1.567206-4-4v-8c0-2.347402.6684166-3 3-3z"/>
    <path fill="none" stroke="url(#w)" stroke-width=".99999994" d="M8.337838 11.5h29.324325c2.638022 0 2.837837.189302 2.837837 2.600001v6.933332C40.5 24.039405 40.263003 24.5 37.035545 24.5H9.006473c-3.0740225 0-3.5064729-.933855-3.5064729-3.466667v-6.933332c0-2.615242-.0066845-2.600001 2.8378379-2.600001z" opacity=".45"/>
    <rect width="4" height="2" x="13" y="8" fill="#c17d11" rx=".34799996" ry=".34828496"/>
    <rect width="4" height="2" x="29" y="8" fill="#c17d11" rx=".34800005" ry=".34799999"/>
    <path fill="none" stroke="#8f5902" stroke-linecap="square" stroke-linejoin="round" d="M16.5 8.5v-2h13v2"/>
    <path fill="#edd400" stroke="#fce94f" stroke-linecap="square" stroke-width="1.00000001" d="M16.50000028 9.00000014a.50000008.50000008 0 1 1-1.0000001 0 .50000008.50000008 0 1 1 1.0000001 0zm14 0a.50000008.50000008 0 1 1-1.0000001 0 .50000008.50000008 0 1 1 1.0000001 0z"/>
    <path fill="url(#x)" d="M7.3234262 12H38.399811c.592934.03992 1.044268.06163 1.266896.213049.236659.160959.299675.511231.333293 1.364813V15.5H6v-2.457056C6.0972835 12.013326 6.038587 12.08107 7.3234262 12z" opacity=".25"/>
    <rect width="5" height="23" x="20.5" y="9.499999" fill="#b4740f" stroke="#7c4d01" stroke-linecap="square" stroke-width=".99999994" rx=".34799996" ry=".34799996"/>
    <path fill="none" stroke="url(#y)" stroke-linecap="square" stroke-width=".99999994" d="M21.5 10.5h3v21h-3z" opacity=".35"/>
    <rect width="7" height="5" x="19.5" y="21.5" fill="url(#z)" stroke="url(#A)" stroke-linecap="square" rx=".34799993" ry=".34799996"/>
    <rect width="3" height="1" x="21.5" y="23.5" fill="none" stroke="#d78914" stroke-linecap="square" rx="0" ry="0"/>
    <path fill="none" stroke="#fff" stroke-linecap="round" d="M25.5 22.499592 20.5 22.5v3" opacity=".75"/>
    <path fill="url(#B)" fill-rule="evenodd" d="M42.5 33.25a19 15.25 0 1 1-38 0 19 15.25 0 1 1 38 0z" opacity=".45" overflow="visible" style="marker:none" transform="matrix(.3947368 0 0 .1967213 30.223684 35.959017)"/>
    <path fill="#fcea4f" fill-rule="evenodd" stroke="#c4a200" stroke-linecap="square" stroke-linejoin="round" stroke-opacity=".66857144" stroke-width=".99999988" d="M41.50000037 39a2.00000007 1.00000004 0 1 1-4.00000015 0 2.00000007 1.00000004 0 1 1 4.00000015 0z"/>
    <path fill="#fce94f" fill-rule="evenodd" stroke="gold" stroke-linecap="square" stroke-linejoin="round" stroke-width=".99999988" d="M41.50000037 38.5a2.00000007 1.00000004 0 1 1-4.00000015 0 2.00000007 1.00000004 0 1 1 4.00000015 0z"/>
    <path fill="#fcea4f" fill-rule="evenodd" stroke="#c4a200" stroke-linecap="square" stroke-linejoin="round" stroke-opacity=".66857144" stroke-width=".99999988" d="M41.50000037 38a2.00000007 1.00000004 0 1 1-4.00000015 0 2.00000007 1.00000004 0 1 1 4.00000015 0z"/>
    <path fill="#fce94f" fill-rule="evenodd" stroke="gold" stroke-linecap="square" stroke-linejoin="round" stroke-width=".99999988" d="M41.50000037 37.5a2.00000007 1.00000004 0 1 1-4.00000015 0 2.00000007 1.00000004 0 1 1 4.00000015 0z"/>
    <path fill="#fcea4f" fill-rule="evenodd" stroke="#c4a200" stroke-linecap="square" stroke-linejoin="round" stroke-opacity=".66857144" stroke-width=".99999988" d="M41.50000037 37a2.00000007 1.00000004 0 1 1-4.00000015 0 2.00000007 1.00000004 0 1 1 4.00000015 0z"/>
    <path fill="#fce94f" fill-rule="evenodd" stroke="gold" stroke-linecap="square" stroke-linejoin="round" stroke-width=".99999988" d="M41.50000037 36.5a2.00000007 1.00000004 0 1 1-4.00000015 0 2.00000007 1.00000004 0 1 1 4.00000015 0z"/>
    <path fill="#fcea4f" fill-rule="evenodd" stroke="#c4a200" stroke-linecap="square" stroke-linejoin="round" stroke-opacity=".66857144" stroke-width=".99999988" d="M41.50000037 36a2.00000007 1.00000004 0 1 1-4.00000015 0 2.00000007 1.00000004 0 1 1 4.00000015 0z"/>
    <path fill="#fce94f" fill-rule="evenodd" stroke="gold" stroke-linecap="square" stroke-linejoin="round" stroke-width=".99999988" d="M41.50000037 35.5a2.00000007 1.00000004 0 1 1-4.00000015 0 2.00000007 1.00000004 0 1 1 4.00000015 0z"/>
    <path fill="#fcea4f" fill-rule="evenodd" stroke="#c4a200" stroke-linecap="square" stroke-linejoin="round" stroke-opacity=".66857144" stroke-width=".99999988" d="M41.50000037 35a2.00000007 1.00000004 0 1 1-4.00000015 0 2.00000007 1.00000004 0 1 1 4.00000015 0z"/>
    <path fill="#fce94f" fill-rule="evenodd" stroke="gold" stroke-linecap="square" stroke-linejoin="round" stroke-width=".99999988" d="M41.50000037 34.5a2.00000007 1.00000004 0 1 1-4.00000015 0 2.00000007 1.00000004 0 1 1 4.00000015 0z"/>
    <path fill="#fcea4f" fill-rule="evenodd" stroke="#c4a200" stroke-linecap="square" stroke-linejoin="round" stroke-opacity=".66857144" stroke-width=".99999988" d="M41.50000037 34a2.00000007 1.00000004 0 1 1-4.00000015 0 2.00000007 1.00000004 0 1 1 4.00000015 0z"/>
    <path fill="#fce94f" fill-rule="evenodd" stroke="gold" stroke-linecap="square" stroke-linejoin="round" stroke-width=".99999988" d="M41.50000037 33.5a2.00000007 1.00000004 0 1 1-4.00000015 0 2.00000007 1.00000004 0 1 1 4.00000015 0z"/>
    <path fill="#fcea4f" fill-rule="evenodd" stroke="#c4a200" stroke-linecap="square" stroke-linejoin="round" stroke-opacity=".66857144" stroke-width=".99999988" d="M41.50000037 33a2.00000007 1.00000004 0 1 1-4.00000015 0 2.00000007 1.00000004 0 1 1 4.00000015 0z"/>
    <path fill="#fce94f" fill-rule="evenodd" stroke="gold" stroke-linecap="square" stroke-linejoin="round" stroke-width=".99999988" d="M41.50000037 32.5a2.00000007 1.00000004 0 1 1-4.00000015 0 2.00000007 1.00000004 0 1 1 4.00000015 0z"/>
    <path fill="#fcea4f" fill-rule="evenodd" stroke="#c4a200" stroke-linecap="square" stroke-linejoin="round" stroke-opacity=".66857144" stroke-width=".99999988" d="M41.50000037 32a2.00000007 1.00000004 0 1 1-4.00000015 0 2.00000007 1.00000004 0 1 1 4.00000015 0z"/>
    <path fill="#fef5a9" fill-rule="evenodd" stroke="url(#C)" stroke-linecap="square" stroke-linejoin="round" stroke-width="1.00891709" d="M57.722295 23.510828a2.0178344 1.0089172 0 1 1-4.035669 0 2.0178344 1.0089172 0 1 1 4.035669 0z" transform="translate(-15.7121219 8.1969701) scale(.9911616)"/>
    <path fill="url(#D)" d="M67 28.655919c-.101486.444577-.516789.918046-1 1.064856V22.20726c.280352-.09375 1-.500189 1-1.212367v7.661026z" font-family="Bitstream Vera Sans" font-weight="400" opacity=".75" overflow="visible" style="text-indent:0;text-align:start;line-height:normal;text-transform:none;block-progression:tb;marker:none;-inkscape-font-specification:Bitstream Vera Sans" transform="translate(-25 10.5)"/>
    <path fill="#fcea4f" fill-rule="evenodd" stroke="#c4a200" stroke-linecap="square" stroke-linejoin="round" stroke-opacity=".66857144" stroke-width=".99999988" d="M41.50000037 32a2.00000007 1.00000004 0 1 1-4.00000015 0 2.00000007 1.00000004 0 1 1 4.00000015 0z"/>
    <path fill="#fce94f" fill-rule="evenodd" stroke="gold" stroke-linecap="square" stroke-linejoin="round" stroke-width=".99999988" d="M41.50000037 31.5a2.00000007 1.00000004 0 1 1-4.00000015 0 2.00000007 1.00000004 0 1 1 4.00000015 0z"/>
    <path fill="#fcea4f" fill-rule="evenodd" stroke="#c4a200" stroke-linecap="square" stroke-linejoin="round" stroke-opacity=".66857144" stroke-width=".99999988" d="M41.50000037 31a2.00000007 1.00000004 0 1 1-4.00000015 0 2.00000007 1.00000004 0 1 1 4.00000015 0z"/>
    <path fill="#fce94f" fill-rule="evenodd" stroke="gold" stroke-linecap="square" stroke-linejoin="round" stroke-width=".99999988" d="M41.50000037 30.5a2.00000007 1.00000004 0 1 1-4.00000015 0 2.00000007 1.00000004 0 1 1 4.00000015 0z"/>
    <path fill="#fcea4f" fill-rule="evenodd" stroke="#c4a200" stroke-linecap="square" stroke-linejoin="round" stroke-opacity=".66857144" stroke-width=".99999988" d="M41.50000037 30a2.00000007 1.00000004 0 1 1-4.00000015 0 2.00000007 1.00000004 0 1 1 4.00000015 0z"/>
    <path fill="#fce94f" fill-rule="evenodd" stroke="gold" stroke-linecap="square" stroke-linejoin="round" stroke-width=".99999988" d="M41.50000037 29.5a2.00000007 1.00000004 0 1 1-4.00000015 0 2.00000007 1.00000004 0 1 1 4.00000015 0z"/>
    <path fill="#fcea4f" fill-rule="evenodd" stroke="#c4a200" stroke-linecap="square" stroke-linejoin="round" stroke-opacity=".66857144" stroke-width=".99999988" d="M41.50000037 29a2.00000007 1.00000004 0 1 1-4.00000015 0 2.00000007 1.00000004 0 1 1 4.00000015 0z"/>
    <path fill="#fce94f" fill-rule="evenodd" stroke="gold" stroke-linecap="square" stroke-linejoin="round" stroke-width=".99999988" d="M41.50000037 28.5a2.00000007 1.00000004 0 1 1-4.00000015 0 2.00000007 1.00000004 0 1 1 4.00000015 0z"/>
    <path fill="#fcea4f" fill-rule="evenodd" stroke="#c4a200" stroke-linecap="square" stroke-linejoin="round" stroke-opacity=".66857144" stroke-width=".99999988" d="M41.50000037 28a2.00000007 1.00000004 0 1 1-4.00000015 0 2.00000007 1.00000004 0 1 1 4.00000015 0z"/>
    <path fill="#fce94f" fill-rule="evenodd" stroke="gold" stroke-linecap="square" stroke-linejoin="round" stroke-width=".99999988" d="M41.50000037 27.5a2.00000007 1.00000004 0 1 1-4.00000015 0 2.00000007 1.00000004 0 1 1 4.00000015 0z"/>
    <path fill="#fcea4f" fill-rule="evenodd" stroke="#c4a200" stroke-linecap="square" stroke-linejoin="round" stroke-opacity=".66857144" stroke-width=".99999988" d="M41.50000037 27a2.00000007 1.00000004 0 1 1-4.00000015 0 2.00000007 1.00000004 0 1 1 4.00000015 0z"/>
    <path fill="#fce94f" fill-rule="evenodd" stroke="gold" stroke-linecap="square" stroke-linejoin="round" stroke-width=".99999988" d="M41.50000037 26.5a2.00000007 1.00000004 0 1 1-4.00000015 0 2.00000007 1.00000004 0 1 1 4.00000015 0z"/>
    <path fill="#fcea4f" fill-rule="evenodd" stroke="#c4a200" stroke-linecap="square" stroke-linejoin="round" stroke-opacity=".66857144" stroke-width=".99999988" d="M41.50000037 26a2.00000007 1.00000004 0 1 1-4.00000015 0 2.00000007 1.00000004 0 1 1 4.00000015 0z"/>
    <path fill="#fce94f" fill-rule="evenodd" stroke="gold" stroke-linecap="square" stroke-linejoin="round" stroke-width=".99999988" d="M41.50000037 25.5a2.00000007 1.00000004 0 1 1-4.00000015 0 2.00000007 1.00000004 0 1 1 4.00000015 0z"/>
    <path fill="#fcea4f" fill-rule="evenodd" stroke="#c4a200" stroke-linecap="square" stroke-linejoin="round" stroke-opacity=".66857144" stroke-width=".99999988" d="M41.50000037 25a2.00000007 1.00000004 0 1 1-4.00000015 0 2.00000007 1.00000004 0 1 1 4.00000015 0z"/>
    <path fill="#fff" fill-rule="evenodd" stroke="url(#E)" stroke-linecap="square" stroke-linejoin="round" stroke-width="1.00891709" d="M57.722295 23.510828a2.0178344 1.0089172 0 1 1-4.035669 0 2.0178344 1.0089172 0 1 1 4.035669 0z" transform="translate(-15.7121219 1.1969701) scale(.9911616)"/>
    <path fill="url(#F)" d="M63 27.5h1V14.478896c-.39698-.05584-1-.198383-1-.306157V27.5z" font-family="Bitstream Vera Sans" font-weight="400" opacity=".75" overflow="visible" style="text-indent:0;text-align:start;line-height:normal;text-transform:none;block-progression:tb;marker:none;-inkscape-font-specification:Bitstream Vera Sans" transform="translate(-25 10.5)"/>
    <path fill="url(#G)" d="M67 21.655919c-.101486.444577-.516789.918046-1 1.064856V15.20726c.280352-.09375 1-.500189 1-1.212367v7.661026z" font-family="Bitstream Vera Sans" font-weight="400" opacity=".75" overflow="visible" style="text-indent:0;text-align:start;line-height:normal;text-transform:none;block-progression:tb;marker:none;-inkscape-font-specification:Bitstream Vera Sans" transform="translate(-25 10.5)"/>
    <path fill="#fcea4f" fill-rule="evenodd" stroke="#c4a200" stroke-linecap="square" stroke-linejoin="round" stroke-opacity=".66857144" stroke-width=".99999988" d="M38.50000037 42a2.00000007 1.00000004 0 1 1-4.00000015 0 2.00000007 1.00000004 0 1 1 4.00000015 0z"/>
    <path fill="#fce94f" fill-rule="evenodd" stroke="gold" stroke-linecap="square" stroke-linejoin="round" stroke-width=".99999988" d="M38.50000037 41.5a2.00000007 1.00000004 0 1 1-4.00000015 0 2.00000007 1.00000004 0 1 1 4.00000015 0z"/>
    <path fill="#fcea4f" fill-rule="evenodd" stroke="#c4a200" stroke-linecap="square" stroke-linejoin="round" stroke-opacity=".66857144" stroke-width=".99999988" d="M38.50000037 41a2.00000007 1.00000004 0 1 1-4.00000015 0 2.00000007 1.00000004 0 1 1 4.00000015 0z"/>
    <path fill="#fce94f" fill-rule="evenodd" stroke="gold" stroke-linecap="square" stroke-linejoin="round" stroke-width=".99999988" d="M38.50000037 40.5a2.00000007 1.00000004 0 1 1-4.00000015 0 2.00000007 1.00000004 0 1 1 4.00000015 0z"/>
    <path fill="#fcea4f" fill-rule="evenodd" stroke="#c4a200" stroke-linecap="square" stroke-linejoin="round" stroke-opacity=".66857144" stroke-width=".99999988" d="M38.50000037 40a2.00000007 1.00000004 0 1 1-4.00000015 0 2.00000007 1.00000004 0 1 1 4.00000015 0z"/>
    <path fill="#fce94f" fill-rule="evenodd" stroke="gold" stroke-linecap="square" stroke-linejoin="round" stroke-width=".99999988" d="M38.50000037 39.5a2.00000007 1.00000004 0 1 1-4.00000015 0 2.00000007 1.00000004 0 1 1 4.00000015 0z"/>
    <path fill="#fcea4f" fill-rule="evenodd" stroke="#c4a200" stroke-linecap="square" stroke-linejoin="round" stroke-opacity=".66857144" stroke-width=".99999988" d="M38.50000037 39a2.00000007 1.00000004 0 1 1-4.00000015 0 2.00000007 1.00000004 0 1 1 4.00000015 0z"/>
    <path fill="#fce94f" fill-rule="evenodd" stroke="gold" stroke-linecap="square" stroke-linejoin="round" stroke-width=".99999988" d="M38.50000037 38.5a2.00000007 1.00000004 0 1 1-4.00000015 0 2.00000007 1.00000004 0 1 1 4.00000015 0z"/>
    <path fill="#fcea4f" fill-rule="evenodd" stroke="#c4a200" stroke-linecap="square" stroke-linejoin="round" stroke-opacity=".66857144" stroke-width=".99999988" d="M38.50000037 38a2.00000007 1.00000004 0 1 1-4.00000015 0 2.00000007 1.00000004 0 1 1 4.00000015 0z"/>
    <path fill="#fce94f" fill-rule="evenodd" stroke="gold" stroke-linecap="square" stroke-linejoin="round" stroke-width=".99999988" d="M38.50000037 37.5a2.00000007 1.00000004 0 1 1-4.00000015 0 2.00000007 1.00000004 0 1 1 4.00000015 0z"/>
    <path fill="#fcea4f" fill-rule="evenodd" stroke="#c4a200" stroke-linecap="square" stroke-linejoin="round" stroke-opacity=".66857144" stroke-width=".99999988" d="M38.50000037 37a2.00000007 1.00000004 0 1 1-4.00000015 0 2.00000007 1.00000004 0 1 1 4.00000015 0z"/>
    <path fill="#fce94f" fill-rule="evenodd" stroke="gold" stroke-linecap="square" stroke-linejoin="round" stroke-width=".99999988" d="M38.50000037 36.5a2.00000007 1.00000004 0 1 1-4.00000015 0 2.00000007 1.00000004 0 1 1 4.00000015 0z"/>
    <path fill="#fcea4f" fill-rule="evenodd" stroke="#c4a200" stroke-linecap="square" stroke-linejoin="round" stroke-opacity=".66857144" stroke-width=".99999988" d="M38.50000037 36a2.00000007 1.00000004 0 1 1-4.00000015 0 2.00000007 1.00000004 0 1 1 4.00000015 0z"/>
    <path fill="#fce94f" fill-rule="evenodd" stroke="gold" stroke-linecap="square" stroke-linejoin="round" stroke-width=".99999988" d="M38.50000037 35.5a2.00000007 1.00000004 0 1 1-4.00000015 0 2.00000007 1.00000004 0 1 1 4.00000015 0z"/>
    <path fill="#fcea4f" fill-rule="evenodd" stroke="#c4a200" stroke-linecap="square" stroke-linejoin="round" stroke-opacity=".66857144" stroke-width=".99999988" d="M38.50000037 35a2.00000007 1.00000004 0 1 1-4.00000015 0 2.00000007 1.00000004 0 1 1 4.00000015 0z"/>
    <path fill="#fff" fill-rule="evenodd" stroke="url(#H)" stroke-linecap="square" stroke-linejoin="round" stroke-width="1.00891709" d="M57.722295 23.510828a2.0178344 1.0089172 0 1 1-4.035669 0 2.0178344 1.0089172 0 1 1 4.035669 0z" transform="translate(-18.7121219 11.1969701) scale(.9911616)"/>
    <path fill="url(#I)" d="M54 31h1v-7.021104c-.39698-.05584-1-.198383-1-.306157V31z" font-family="Bitstream Vera Sans" font-weight="400" opacity=".75" overflow="visible" style="text-indent:0;text-align:start;line-height:normal;text-transform:none;block-progression:tb;marker:none;-inkscape-font-specification:Bitstream Vera Sans" transform="translate(-19 11)"/>
    <path fill="url(#J)" d="M58 31.155919c-.101486.444577-.516789.918046-1 1.064856V24.70726c.280352-.09375 1-.500189 1-1.212367v7.661026z" font-family="Bitstream Vera Sans" font-weight="400" opacity=".75" overflow="visible" style="text-indent:0;text-align:start;line-height:normal;text-transform:none;block-progression:tb;marker:none;-inkscape-font-specification:Bitstream Vera Sans" transform="translate(-19 11)"/>
    <path fill="#fcea4f" fill-rule="evenodd" stroke="#c4a200" stroke-linecap="square" stroke-linejoin="round" stroke-opacity=".66857144" stroke-width=".99999988" d="M44.50000037 41a2.00000007 1.00000004 0 1 1-4.00000015 0 2.00000007 1.00000004 0 1 1 4.00000015 0z"/>
    <path fill="#fce94f" fill-rule="evenodd" stroke="gold" stroke-linecap="square" stroke-linejoin="round" stroke-width=".99999988" d="M44.50000037 40.5a2.00000007 1.00000004 0 1 1-4.00000015 0 2.00000007 1.00000004 0 1 1 4.00000015 0z"/>
    <path fill="#fcea4f" fill-rule="evenodd" stroke="#c4a200" stroke-linecap="square" stroke-linejoin="round" stroke-opacity=".66857144" stroke-width=".99999988" d="M44.50000037 40a2.00000007 1.00000004 0 1 1-4.00000015 0 2.00000007 1.00000004 0 1 1 4.00000015 0z"/>
    <path fill="#fce94f" fill-rule="evenodd" stroke="gold" stroke-linecap="square" stroke-linejoin="round" stroke-width=".99999988" d="M44.50000037 39.5a2.00000007 1.00000004 0 1 1-4.00000015 0 2.00000007 1.00000004 0 1 1 4.00000015 0z"/>
    <path fill="#fcea4f" fill-rule="evenodd" stroke="#c4a200" stroke-linecap="square" stroke-linejoin="round" stroke-opacity=".66857144" stroke-width=".99999988" d="M44.50000037 39a2.00000007 1.00000004 0 1 1-4.00000015 0 2.00000007 1.00000004 0 1 1 4.00000015 0z"/>
    <path fill="#fce94f" fill-rule="evenodd" stroke="gold" stroke-linecap="square" stroke-linejoin="round" stroke-width=".99999988" d="M44.50000037 38.5a2.00000007 1.00000004 0 1 1-4.00000015 0 2.00000007 1.00000004 0 1 1 4.00000015 0z"/>
    <path fill="#fcea4f" fill-rule="evenodd" stroke="#c4a200" stroke-linecap="square" stroke-linejoin="round" stroke-opacity=".66857144" stroke-width=".99999988" d="M44.50000037 38a2.00000007 1.00000004 0 1 1-4.00000015 0 2.00000007 1.00000004 0 1 1 4.00000015 0z"/>
    <path fill="#fce94f" fill-rule="evenodd" stroke="gold" stroke-linecap="square" stroke-linejoin="round" stroke-width=".99999988" d="M44.50000037 37.5a2.00000007 1.00000004 0 1 1-4.00000015 0 2.00000007 1.00000004 0 1 1 4.00000015 0z"/>
    <path fill="#fcea4f" fill-rule="evenodd" stroke="#c4a200" stroke-linecap="square" stroke-linejoin="round" stroke-opacity=".66857144" stroke-width=".99999988" d="M44.50000037 37a2.00000007 1.00000004 0 1 1-4.00000015 0 2.00000007 1.00000004 0 1 1 4.00000015 0z"/>
    <path fill="#fce94f" fill-rule="evenodd" stroke="gold" stroke-linecap="square" stroke-linejoin="round" stroke-width=".99999988" d="M44.50000037 36.5a2.00000007 1.00000004 0 1 1-4.00000015 0 2.00000007 1.00000004 0 1 1 4.00000015 0z"/>
    <path fill="#fcea4f" fill-rule="evenodd" stroke="#c4a200" stroke-linecap="square" stroke-linejoin="round" stroke-opacity=".66857144" stroke-width=".99999988" d="M44.50000037 36a2.00000007 1.00000004 0 1 1-4.00000015 0 2.00000007 1.00000004 0 1 1 4.00000015 0z"/>
    <path fill="#fce94f" fill-rule="evenodd" stroke="gold" stroke-linecap="square" stroke-linejoin="round" stroke-width=".99999988" d="M44.50000037 35.5a2.00000007 1.00000004 0 1 1-4.00000015 0 2.00000007 1.00000004 0 1 1 4.00000015 0z"/>
    <path fill="#fcea4f" fill-rule="evenodd" stroke="#c4a200" stroke-linecap="square" stroke-linejoin="round" stroke-opacity=".66857144" stroke-width=".99999988" d="M44.50000037 35a2.00000007 1.00000004 0 1 1-4.00000015 0 2.00000007 1.00000004 0 1 1 4.00000015 0z"/>
    <path fill="#fce94f" fill-rule="evenodd" stroke="gold" stroke-linecap="square" stroke-linejoin="round" stroke-width=".99999988" d="M44.50000037 34.5a2.00000007 1.00000004 0 1 1-4.00000015 0 2.00000007 1.00000004 0 1 1 4.00000015 0z"/>
    <path fill="#fcea4f" fill-rule="evenodd" stroke="#c4a200" stroke-linecap="square" stroke-linejoin="round" stroke-opacity=".66857144" stroke-width=".99999988" d="M44.50000037 34a2.00000007 1.00000004 0 1 1-4.00000015 0 2.00000007 1.00000004 0 1 1 4.00000015 0z"/>
    <path fill="#fce94f" fill-rule="evenodd" stroke="gold" stroke-linecap="square" stroke-linejoin="round" stroke-width=".99999988" d="M44.50000037 33.5a2.00000007 1.00000004 0 1 1-4.00000015 0 2.00000007 1.00000004 0 1 1 4.00000015 0z"/>
    <path fill="#fcea4f" fill-rule="evenodd" stroke="#c4a200" stroke-linecap="square" stroke-linejoin="round" stroke-opacity=".66857144" stroke-width=".99999988" d="M44.50000037 33a2.00000007 1.00000004 0 1 1-4.00000015 0 2.00000007 1.00000004 0 1 1 4.00000015 0z"/>
    <path fill="#fce94f" fill-rule="evenodd" stroke="gold" stroke-linecap="square" stroke-linejoin="round" stroke-width=".99999988" d="M44.50000037 32.5a2.00000007 1.00000004 0 1 1-4.00000015 0 2.00000007 1.00000004 0 1 1 4.00000015 0z"/>
    <path fill="#fcea4f" fill-rule="evenodd" stroke="#c4a200" stroke-linecap="square" stroke-linejoin="round" stroke-opacity=".66857144" stroke-width=".99999988" d="M44.50000037 32a2.00000007 1.00000004 0 1 1-4.00000015 0 2.00000007 1.00000004 0 1 1 4.00000015 0z"/>
    <path fill="#fff" fill-rule="evenodd" stroke="url(#K)" stroke-linecap="square" stroke-linejoin="round" stroke-width="1.00891709" d="M57.722295 23.510828a2.0178344 1.0089172 0 1 1-4.035669 0 2.0178344 1.0089172 0 1 1 4.035669 0z" transform="translate(-12.7121219 8.1969701) scale(.9911616)"/>
    <path fill="url(#L)" d="M60 29h1v-7.021104c-.39698-.05584-1-.198383-1-.306157V29z" font-family="Bitstream Vera Sans" font-weight="400" opacity=".75" overflow="visible" style="text-indent:0;text-align:start;line-height:normal;text-transform:none;block-progression:tb;marker:none;-inkscape-font-specification:Bitstream Vera Sans" transform="translate(-19 10)"/>
    <path fill="url(#M)" d="M64 31.155919c-.101486.444577-.516789.918046-1 1.064856V22.70726c.280352-.09375 1-.500189 1-1.212367v9.661026z" font-family="Bitstream Vera Sans" font-weight="400" opacity=".75" overflow="visible" style="text-indent:0;text-align:start;line-height:normal;text-transform:none;block-progression:tb;marker:none;-inkscape-font-specification:Bitstream Vera Sans" transform="translate(-19 10)"/>
    <path fill="#fcea4f" fill-rule="evenodd" stroke="#c4a200" stroke-linecap="square" stroke-linejoin="round" stroke-opacity=".66857144" stroke-width=".99999988" d="M42.50000037 43a2.00000007 1.00000004 0 1 1-4.00000015 0 2.00000007 1.00000004 0 1 1 4.00000015 0z"/>
    <path fill="#fce94f" fill-rule="evenodd" stroke="gold" stroke-linecap="square" stroke-linejoin="round" stroke-width=".99999988" d="M42.50000037 42.5a2.00000007 1.00000004 0 1 1-4.00000015 0 2.00000007 1.00000004 0 1 1 4.00000015 0z"/>
    <path fill="#fcea4f" fill-rule="evenodd" stroke="#c4a200" stroke-linecap="square" stroke-linejoin="round" stroke-opacity=".66857144" stroke-width=".99999988" d="M42.50000037 42a2.00000007 1.00000004 0 1 1-4.00000015 0 2.00000007 1.00000004 0 1 1 4.00000015 0z"/>
    <path fill="#fce94f" fill-rule="evenodd" stroke="gold" stroke-linecap="square" stroke-linejoin="round" stroke-width=".99999988" d="M42.50000037 41.5a2.00000007 1.00000004 0 1 1-4.00000015 0 2.00000007 1.00000004 0 1 1 4.00000015 0z"/>
    <path fill="#fcea4f" fill-rule="evenodd" stroke="#c4a200" stroke-linecap="square" stroke-linejoin="round" stroke-opacity=".66857144" stroke-width=".99999988" d="M42.50000037 41a2.00000007 1.00000004 0 1 1-4.00000015 0 2.00000007 1.00000004 0 1 1 4.00000015 0z"/>
    <path fill="#fce94f" fill-rule="evenodd" stroke="gold" stroke-linecap="square" stroke-linejoin="round" stroke-width=".99999988" d="M42.50000037 40.5a2.00000007 1.00000004 0 1 1-4.00000015 0 2.00000007 1.00000004 0 1 1 4.00000015 0z"/>
    <path fill="#fcea4f" fill-rule="evenodd" stroke="#c4a200" stroke-linecap="square" stroke-linejoin="round" stroke-opacity=".66857144" stroke-width=".99999988" d="M42.50000037 40a2.00000007 1.00000004 0 1 1-4.00000015 0 2.00000007 1.00000004 0 1 1 4.00000015 0z"/>
    <path fill="#fce94f" fill-rule="evenodd" stroke="gold" stroke-linecap="square" stroke-linejoin="round" stroke-width=".99999988" d="M42.50000037 39.5a2.00000007 1.00000004 0 1 1-4.00000015 0 2.00000007 1.00000004 0 1 1 4.00000015 0z"/>
    <path fill="#fcea4f" fill-rule="evenodd" stroke="#c4a200" stroke-linecap="square" stroke-linejoin="round" stroke-opacity=".66857144" stroke-width=".99999988" d="M42.50000037 39a2.00000007 1.00000004 0 1 1-4.00000015 0 2.00000007 1.00000004 0 1 1 4.00000015 0z"/>
    <path fill="#fce94f" fill-rule="evenodd" stroke="gold" stroke-linecap="square" stroke-linejoin="round" stroke-width=".99999988" d="M42.50000037 38.5a2.00000007 1.00000004 0 1 1-4.00000015 0 2.00000007 1.00000004 0 1 1 4.00000015 0z"/>
    <path fill="#fcea4f" fill-rule="evenodd" stroke="#c4a200" stroke-linecap="square" stroke-linejoin="round" stroke-opacity=".66857144" stroke-width=".99999988" d="M42.50000037 38a2.00000007 1.00000004 0 1 1-4.00000015 0 2.00000007 1.00000004 0 1 1 4.00000015 0z"/>
    <path fill="#fff" fill-rule="evenodd" stroke="url(#N)" stroke-linecap="square" stroke-linejoin="round" stroke-width="1.00891709" d="M57.722295 23.510828a2.0178344 1.0089172 0 1 1-4.035669 0 2.0178344 1.0089172 0 1 1 4.035669 0z" transform="translate(-14.7121219 14.1969701) scale(.9911616)"/>
    <path fill="url(#O)" d="M54 29h1v-5.021104c-.39698-.05584-1-.198383-1-.306157V29z" font-family="Bitstream Vera Sans" font-weight="400" opacity=".75" overflow="visible" style="text-indent:0;text-align:start;line-height:normal;text-transform:none;block-progression:tb;marker:none;-inkscape-font-specification:Bitstream Vera Sans" transform="translate(-15 14)"/>
    <path fill="url(#P)" d="M58 29.155919c-.101486.444577-.516789.918046-1 1.064856V24.70726c.280352-.09375 1-.500189 1-1.212367v5.661026z" font-family="Bitstream Vera Sans" font-weight="400" opacity=".75" overflow="visible" style="text-indent:0;text-align:start;line-height:normal;text-transform:none;block-progression:tb;marker:none;-inkscape-font-specification:Bitstream Vera Sans" transform="translate(-15 14)"/>
  </g>
</svg>