<?xml version="1.0" encoding="utf-8"?>
<!DOCTYPE svg PUBLIC "-//W3C//DTD SVG 1.1//EN" "http://www.w3.org/Graphics/SVG/1.1/DTD/svg11.dtd">
<svg version="1.1" id="Layer_1" xmlns="http://www.w3.org/2000/svg" xmlns:xlink="http://www.w3.org/1999/xlink" x="0px" y="0px"
	 width="288px" height="243px" viewBox="0 0 288 243" enable-background="new 0 0 288 243" xml:space="preserve">
<g>
	<g>
		<line fill="none" stroke="#000000" x1="162" y1="162" x2="27" y2="216"/>
		<path d="M21.396,218.241c2.246-2.033,4.849-5.011,6.169-7.589l0.169,5.054l3.363,3.775
			C28.364,218.525,24.424,218.165,21.396,218.241z"/>
	</g>
</g>
<g>
	<g>
		<line fill="none" stroke="#000000" x1="162" y1="162" x2="162" y2="216"/>
		<path d="M162,222.035c-1.054-2.84-2.852-6.363-4.755-8.547l4.755,1.72l4.755-1.72C164.852,215.671,163.053,219.195,162,222.035z"
			/>
	</g>
</g>
<g>
	<g>
		<line fill="none" stroke="#ED1C24" x1="18" y1="162" x2="153" y2="216"/>
		<path fill="#ED1C24" d="M158.604,218.241c-3.028-0.076-6.967,0.284-9.702,1.241l3.363-3.776l0.169-5.054
			C153.754,213.23,156.358,216.208,158.604,218.241z"/>
	</g>
</g>
<g>
	<g>
		<line fill="none" stroke="#ED1C24" x1="18" y1="162" x2="18" y2="216"/>
		<path fill="#ED1C24" d="M18,222.035c-1.054-2.84-2.852-6.363-4.755-8.547l4.755,1.72l4.755-1.72
			C20.852,215.671,19.053,219.195,18,222.035z"/>
	</g>
</g>
<g>
	<g>
		<line fill="none" stroke="#000000" x1="198" y1="162" x2="63" y2="216"/>
		<path d="M57.396,218.242c2.246-2.033,4.849-5.011,6.169-7.589l0.169,5.054l3.363,3.775
			C64.363,218.526,60.424,218.166,57.396,218.242z"/>
	</g>
</g>
<g>
	<g>
		<line fill="none" stroke="#000000" x1="198" y1="162" x2="198" y2="216"/>
		<path d="M198,222.036c-1.054-2.84-2.852-6.363-4.755-8.547l4.755,1.72l4.755-1.72C200.851,215.672,199.052,219.196,198,222.036z"
			/>
	</g>
</g>
<g>
	<g>
		<line fill="none" stroke="#ED1C24" x1="54" y1="162" x2="189" y2="216"/>
		<path fill="#ED1C24" d="M194.603,218.242c-3.028-0.076-6.967,0.284-9.702,1.241l3.363-3.776l0.169-5.054
			C189.754,213.231,192.357,216.209,194.603,218.242z"/>
	</g>
</g>
<g>
	<g>
		<line fill="none" stroke="#ED1C24" x1="54" y1="162" x2="54" y2="216"/>
		<path fill="#ED1C24" d="M54,222.036c-1.054-2.84-2.852-6.363-4.755-8.547l4.755,1.72l4.755-1.72
			C56.851,215.672,55.053,219.196,54,222.036z"/>
	</g>
</g>
<g>
	<g>
		<line fill="none" stroke="#000000" x1="234" y1="162" x2="99" y2="216"/>
		<path d="M93.396,218.241c2.246-2.033,4.849-5.011,6.169-7.589l0.169,5.054l3.363,3.775
			C100.363,218.525,96.424,218.165,93.396,218.241z"/>
	</g>
</g>
<g>
	<g>
		<line fill="none" stroke="#000000" x1="234" y1="162" x2="234" y2="216"/>
		<path d="M234,222.035c-1.054-2.84-2.852-6.363-4.755-8.547l4.755,1.72l4.755-1.72C236.851,215.671,235.052,219.195,234,222.035z"
			/>
	</g>
</g>
<g>
	<g>
		<line fill="none" stroke="#ED1C24" x1="90" y1="162" x2="225" y2="216"/>
		<path fill="#ED1C24" d="M230.603,218.241c-3.028-0.076-6.967,0.284-9.701,1.241l3.362-3.776l0.169-5.054
			C225.753,213.23,228.358,216.208,230.603,218.241z"/>
	</g>
</g>
<g>
	<g>
		<line fill="none" stroke="#ED1C24" x1="90" y1="162" x2="90" y2="216"/>
		<path fill="#ED1C24" d="M90,222.035c-1.054-2.84-2.852-6.363-4.755-8.547l4.755,1.72l4.755-1.72
			C92.851,215.671,91.053,219.195,90,222.035z"/>
	</g>
</g>
<g>
	<g>
		<line fill="none" stroke="#000000" x1="270" y1="162" x2="134.999" y2="216"/>
		<path d="M129.396,218.242c2.246-2.033,4.849-5.011,6.169-7.589l0.169,5.054l3.363,3.775
			C136.363,218.526,132.423,218.166,129.396,218.242z"/>
	</g>
</g>
<g>
	<g>
		<line fill="none" stroke="#000000" x1="270" y1="162" x2="270" y2="216"/>
		<path d="M270,222.036c-1.055-2.84-2.852-6.363-4.756-8.547l4.756,1.72l4.754-1.72C272.851,215.672,271.052,219.196,270,222.036z"
			/>
	</g>
</g>
<g>
	<g>
		<line fill="none" stroke="#ED1C24" x1="125.999" y1="162" x2="261" y2="216"/>
		<path fill="#ED1C24" d="M266.603,218.242c-3.028-0.076-6.967,0.284-9.701,1.241l3.362-3.776l0.169-5.054
			C261.753,213.231,264.358,216.209,266.603,218.242z"/>
	</g>
</g>
<g>
	<g>
		<line fill="none" stroke="#ED1C24" x1="125.999" y1="162" x2="125.999" y2="216"/>
		<path fill="#ED1C24" d="M125.999,222.036c-1.054-2.84-2.852-6.363-4.755-8.547l4.755,1.72l4.755-1.72
			C128.851,215.672,127.052,219.196,125.999,222.036z"/>
	</g>
</g>
<g>
	<g>
		<line fill="none" stroke="#ED1C24" x1="90" y1="90" x2="27" y2="144"/>
		<path fill="#ED1C24" d="M22.418,147.927c1.47-2.647,2.976-6.306,3.395-9.172l1.789,4.729l4.4,2.49
			C29.105,145.952,25.259,146.879,22.418,147.927z"/>
	</g>
</g>
<g>
	<g>
		<line fill="none" stroke="#ED1C24" x1="90" y1="90" x2="90" y2="144"/>
		<path fill="#ED1C24" d="M90,150.036c-1.054-2.84-2.852-6.364-4.755-8.547l4.755,1.72l4.755-1.72
			C92.852,143.672,91.053,147.196,90,150.036z"/>
	</g>
</g>
<g>
	<g>
		<line fill="none" stroke="#000000" x1="18" y1="90" x2="81" y2="144"/>
		<path d="M85.582,147.927c-2.842-1.048-6.687-1.976-9.583-1.952l4.4-2.491l1.789-4.729
			C82.606,141.622,84.111,145.28,85.582,147.927z"/>
	</g>
</g>
<g>
	<g>
		<line fill="none" stroke="#000000" x1="18" y1="90" x2="18" y2="144"/>
		<path d="M18,150.036c-1.054-2.84-2.852-6.364-4.755-8.547l4.755,1.72l4.755-1.72C20.852,143.672,19.053,147.196,18,150.036z"/>
	</g>
</g>
<g>
	<g>
		<line fill="none" stroke="#ED1C24" x1="126" y1="90" x2="63" y2="144"/>
		<path fill="#ED1C24" d="M58.417,147.927c1.47-2.647,2.976-6.306,3.395-9.172l1.789,4.729l4.4,2.49
			C65.104,145.952,61.259,146.879,58.417,147.927z"/>
	</g>
</g>
<g>
	<g>
		<line fill="none" stroke="#ED1C24" x1="126" y1="90" x2="126" y2="144"/>
		<path fill="#ED1C24" d="M126,150.036c-1.054-2.84-2.852-6.364-4.755-8.547l4.755,1.72l4.755-1.72
			C128.851,143.672,127.053,147.196,126,150.036z"/>
	</g>
</g>
<g>
	<g>
		<line fill="none" stroke="#000000" x1="54" y1="90" x2="117" y2="144"/>
		<path d="M121.582,147.927c-2.842-1.048-6.687-1.976-9.583-1.952l4.4-2.491l1.789-4.729
			C118.606,141.622,120.111,145.28,121.582,147.927z"/>
	</g>
</g>
<g>
	<g>
		<line fill="none" stroke="#000000" x1="54" y1="90" x2="54" y2="144"/>
		<path d="M54,150.036c-1.054-2.84-2.852-6.364-4.755-8.547l4.755,1.72l4.755-1.72C56.851,143.672,55.053,147.196,54,150.036z"/>
	</g>
</g>
<g>
	<g>
		<line fill="none" stroke="#000000" x1="234" y1="90" x2="171" y2="144"/>
		<path d="M166.418,147.927c1.47-2.647,2.976-6.306,3.395-9.172l1.789,4.729l4.4,2.49
			C173.105,145.952,169.259,146.879,166.418,147.927z"/>
	</g>
</g>
<g>
	<g>
		<line fill="none" stroke="#000000" x1="234" y1="90" x2="234" y2="144"/>
		<path d="M234,150.036c-1.053-2.84-2.852-6.364-4.754-8.547l4.754,1.72l4.756-1.72C236.851,143.672,235.053,147.196,234,150.036z"
			/>
	</g>
</g>
<g>
	<g>
		<line fill="none" stroke="#000000" x1="162" y1="90" x2="225" y2="144"/>
		<path d="M229.582,147.927c-2.842-1.048-6.687-1.976-9.583-1.952l4.4-2.491l1.788-4.729
			C226.607,141.622,228.111,145.28,229.582,147.927z"/>
	</g>
</g>
<g>
	<g>
		<line fill="none" stroke="#000000" x1="162" y1="90" x2="162" y2="144"/>
		<path d="M162,150.036c-1.054-2.84-2.852-6.364-4.755-8.547l4.755,1.72l4.755-1.72C164.852,143.672,163.053,147.196,162,150.036z"
			/>
	</g>
</g>
<g>
	<g>
		<line fill="none" stroke="#000000" x1="270" y1="90" x2="207" y2="144"/>
		<path d="M202.417,147.927c1.471-2.647,2.976-6.306,3.395-9.172l1.789,4.729l4.4,2.49
			C209.105,145.952,205.259,146.879,202.417,147.927z"/>
	</g>
</g>
<g>
	<g>
		<line fill="none" stroke="#000000" x1="270" y1="90" x2="270" y2="144"/>
		<path d="M270,150.036c-1.054-2.84-2.852-6.364-4.755-8.547l4.755,1.72l4.755-1.72C272.851,143.672,271.052,147.196,270,150.036z"
			/>
	</g>
</g>
<g>
	<g>
		<line fill="none" stroke="#000000" x1="198" y1="90" x2="261" y2="144"/>
		<path d="M265.582,147.927c-2.842-1.048-6.688-1.976-9.584-1.952l4.4-2.491l1.789-4.729
			C262.606,141.622,264.111,145.28,265.582,147.927z"/>
	</g>
</g>
<g>
	<g>
		<line fill="none" stroke="#000000" x1="198" y1="90" x2="198" y2="144"/>
		<path d="M198,150.036c-1.054-2.84-2.852-6.364-4.755-8.547l4.755,1.72l4.755-1.72C200.851,143.672,199.052,147.196,198,150.036z"
			/>
	</g>
</g>
<g>
	<g>
		<line fill="none" stroke="#000000" x1="198" y1="18" x2="198" y2="72"/>
		<path d="M198,78.035c-1.054-2.84-2.852-6.363-4.755-8.547l4.755,1.72l4.755-1.72C200.851,71.672,199.052,75.195,198,78.035z"/>
	</g>
</g>
<g>
	<g>
		<line fill="none" stroke="#000000" x1="198" y1="18" x2="171" y2="72"/>
		<path d="M168.3,77.398c0.328-3.011,0.295-6.967-0.43-9.771l3.483,3.665l5.022,0.588C173.697,72.982,170.513,75.329,168.3,77.398z"
			/>
	</g>
</g>
<g>
	<g>
		<line fill="none" stroke="#000000" x1="162" y1="18" x2="189" y2="72"/>
		<path d="M191.698,77.398c-2.212-2.069-5.396-4.416-8.075-5.518l5.022-0.588l3.483-3.665
			C191.403,70.431,191.371,74.387,191.698,77.398z"/>
	</g>
</g>
<g>
	<g>
		<line fill="none" stroke="#000000" x1="162" y1="18" x2="162" y2="72"/>
		<path d="M162,78.035c-1.054-2.84-2.852-6.363-4.755-8.547l4.755,1.72l4.755-1.72C164.851,71.672,163.053,75.195,162,78.035z"/>
	</g>
</g>
<g>
	<g>
		<line fill="none" stroke="#000000" x1="270" y1="18" x2="270" y2="72"/>
		<path d="M270,78.035c-1.055-2.84-2.852-6.363-4.756-8.547l4.756,1.72l4.754-1.72C272.851,71.672,271.052,75.195,270,78.035z"/>
	</g>
</g>
<g>
	<g>
		<line fill="none" stroke="#000000" x1="270" y1="18" x2="243" y2="72"/>
		<path d="M240.3,77.398c0.327-3.011,0.295-6.967-0.431-9.771l3.483,3.665l5.021,0.588C245.697,72.982,242.512,75.329,240.3,77.398z
			"/>
	</g>
</g>
<g>
	<g>
		<line fill="none" stroke="#000000" x1="234" y1="18" x2="261" y2="72"/>
		<path d="M263.698,77.398c-2.212-2.069-5.396-4.416-8.075-5.518l5.022-0.588l3.483-3.665
			C263.403,70.431,263.371,74.387,263.698,77.398z"/>
	</g>
</g>
<g>
	<g>
		<line fill="none" stroke="#000000" x1="234" y1="18" x2="234" y2="72"/>
		<path d="M234,78.035c-1.055-2.84-2.852-6.363-4.756-8.547l4.756,1.72l4.754-1.72C236.851,71.672,235.052,75.195,234,78.035z"/>
	</g>
</g>
<g>
	<g>
		<line fill="none" stroke="#000000" x1="54" y1="18" x2="54" y2="72"/>
		<path d="M54,78.035c-1.054-2.84-2.852-6.363-4.755-8.547L54,71.208l4.755-1.72C56.852,71.672,55.053,75.195,54,78.035z"/>
	</g>
</g>
<g>
	<g>
		<line fill="none" stroke="#000000" x1="54" y1="18" x2="27" y2="72"/>
		<path d="M24.301,77.398c0.328-3.011,0.295-6.967-0.43-9.771l3.483,3.665l5.022,0.588C29.697,72.982,26.513,75.329,24.301,77.398z"
			/>
	</g>
</g>
<g>
	<g>
		<line fill="none" stroke="#000000" x1="18" y1="18" x2="45" y2="72"/>
		<path d="M47.699,77.398c-2.212-2.069-5.396-4.416-8.075-5.518l5.022-0.588l3.483-3.665C47.404,70.431,47.371,74.387,47.699,77.398
			z"/>
	</g>
</g>
<g>
	<g>
		<line fill="none" stroke="#000000" x1="18" y1="18" x2="18" y2="72"/>
		<path d="M18,78.035c-1.054-2.84-2.852-6.363-4.755-8.547L18,71.208l4.755-1.72C20.852,71.672,19.053,75.195,18,78.035z"/>
	</g>
</g>
<g>
	<g>
		<line fill="none" stroke="#000000" x1="126" y1="18" x2="126" y2="72"/>
		<path d="M126,78.035c-1.054-2.84-2.852-6.363-4.755-8.547l4.755,1.72l4.755-1.72C128.851,71.672,127.053,75.195,126,78.035z"/>
	</g>
</g>
<g>
	<g>
		<line fill="none" stroke="#000000" x1="126" y1="18" x2="99" y2="72"/>
		<path d="M96.3,77.398c0.328-3.011,0.295-6.967-0.43-9.771l3.483,3.665l5.022,0.588C101.697,72.982,98.513,75.329,96.3,77.398z"/>
	</g>
</g>
<g>
	<g>
		<line fill="none" stroke="#ED1C24" x1="90" y1="18" x2="117" y2="72"/>
		<path fill="#ED1C24" d="M119.699,77.398c-2.213-2.069-5.396-4.416-8.075-5.518l5.021-0.588l3.484-3.665
			C119.403,70.431,119.371,74.387,119.699,77.398z"/>
	</g>
</g>
<g>
	<g>
		<line fill="none" stroke="#ED1C24" x1="90" y1="18" x2="90" y2="72"/>
		<path fill="#ED1C24" d="M90,78.035c-1.054-2.84-2.852-6.363-4.755-8.547L90,71.208l4.755-1.72
			C92.851,71.672,91.053,75.195,90,78.035z"/>
	</g>
</g>
<circle fill="#00FFFF" stroke="#000000" cx="18" cy="14" r="6"/>
<circle fill="#00FFFF" stroke="#000000" cx="54" cy="14" r="6"/>
<circle fill="#ED1C24" stroke="#000000" cx="90" cy="14" r="6"/>
<circle fill="#00FFFF" stroke="#000000" cx="125.999" cy="14.001" r="6"/>
<circle fill="#00FFFF" stroke="#000000" cx="162" cy="14" r="6"/>
<circle fill="#00FFFF" stroke="#000000" cx="197.999" cy="14.001" r="6"/>
<circle fill="#00FFFF" stroke="#000000" cx="234" cy="14.001" r="6"/>
<circle fill="#00FFFF" stroke="#000000" cx="269.999" cy="14.001" r="6"/>
<circle fill="#00FFFF" stroke="#000000" cx="18" cy="86" r="6"/>
<circle fill="#00FFFF" stroke="#000000" cx="54" cy="86" r="6"/>
<circle fill="#ED1C24" stroke="#000000" cx="90" cy="86" r="6"/>
<circle fill="#ED1C24" stroke="#000000" cx="125.999" cy="86" r="6"/>
<circle fill="#00FFFF" stroke="#000000" cx="162" cy="86" r="6"/>
<circle fill="#00FFFF" stroke="#000000" cx="197.999" cy="86" r="6"/>
<circle fill="#00FFFF" stroke="#000000" cx="234" cy="86" r="6"/>
<circle fill="#00FFFF" stroke="#000000" cx="269.999" cy="86.001" r="6"/>
<circle fill="#ED1C24" stroke="#000000" cx="18" cy="158" r="6"/>
<circle fill="#ED1C24" stroke="#000000" cx="54" cy="158" r="6"/>
<circle fill="#ED1C24" stroke="#000000" cx="90" cy="158" r="6"/>
<circle fill="#ED1C24" stroke="#000000" cx="125.999" cy="158" r="6"/>
<circle fill="#00FFFF" stroke="#000000" cx="162" cy="158" r="6"/>
<circle fill="#00FFFF" stroke="#000000" cx="197.999" cy="158" r="6"/>
<circle fill="#00FFFF" stroke="#000000" cx="234" cy="158" r="6"/>
<circle fill="#00FFFF" stroke="#000000" cx="269.999" cy="158.001" r="6"/>
<circle fill="#ED1C24" stroke="#000000" cx="18" cy="230" r="6"/>
<circle fill="#ED1C24" stroke="#000000" cx="54" cy="230" r="6"/>
<circle fill="#ED1C24" stroke="#000000" cx="90" cy="230" r="6"/>
<circle fill="#ED1C24" stroke="#000000" cx="125.999" cy="230" r="6"/>
<circle fill="#ED1C24" stroke="#000000" cx="162" cy="230" r="6"/>
<circle fill="#ED1C24" stroke="#000000" cx="197.999" cy="230" r="6"/>
<circle fill="#ED1C24" stroke="#000000" cx="234" cy="230" r="6"/>
<circle fill="#ED1C24" stroke="#000000" cx="269.999" cy="230.001" r="6"/>
</svg>
