<?xml version="1.0" encoding="UTF-8" standalone="no"?>
<svg
   xmlns:dc="http://purl.org/dc/elements/1.1/"
   xmlns:cc="http://web.resource.org/cc/"
   xmlns:rdf="http://www.w3.org/1999/02/22-rdf-syntax-ns#"
   xmlns:svg="http://www.w3.org/2000/svg"
   xmlns="http://www.w3.org/2000/svg"
   xmlns:xlink="http://www.w3.org/1999/xlink"
   xmlns:sodipodi="http://sodipodi.sourceforge.net/DTD/sodipodi-0.dtd"
   xmlns:inkscape="http://www.inkscape.org/namespaces/inkscape"
   width="959.45258"
   height="912.49359"
   id="svg3675"
   sodipodi:version="0.32"
   inkscape:version="0.45.1"
   sodipodi:docname="Capitalismlogo.svg"
   inkscape:output_extension="org.inkscape.output.svg.inkscape"
   sodipodi:docbase="E:\My Pictures\Svg Files"
   version="1.0">
  <metadata
     id="metadata3682">
    <rdf:RDF>
      <cc:Work
         rdf:about="">
        <dc:format>image/svg+xml</dc:format>
        <dc:type
           rdf:resource="http://purl.org/dc/dcmitype/StillImage" />
      </cc:Work>
    </rdf:RDF>
  </metadata>
  <defs
     id="defs3680">
    <linearGradient
       inkscape:collect="always"
       id="linearGradient12421">
      <stop
         style="stop-color:#ffad00;stop-opacity:1;"
         offset="0"
         id="stop12423" />
      <stop
         style="stop-color:#ffad00;stop-opacity:0;"
         offset="1"
         id="stop12425" />
    </linearGradient>
    <linearGradient
       inkscape:collect="always"
       xlink:href="#linearGradient12421"
       id="linearGradient12427"
       x1="-81.83683"
       y1="68.190742"
       x2="323.29596"
       y2="232.67467"
       gradientUnits="userSpaceOnUse"
       gradientTransform="matrix(0.9819171,0,0,0.9819171,-235.25569,-36.506014)" />
    <linearGradient
       inkscape:collect="always"
       xlink:href="#linearGradient12421"
       id="linearGradient4133"
       x1="492.14063"
       y1="114.16078"
       x2="559.85156"
       y2="114.16078"
       gradientUnits="userSpaceOnUse"
       gradientTransform="matrix(3.1351422,0,0,3.1351422,-885.17393,-112.25807)" />
  </defs>
  <sodipodi:namedview
     inkscape:window-height="719"
     inkscape:window-width="1024"
     inkscape:pageshadow="2"
     inkscape:pageopacity="0.0"
     guidetolerance="10.0"
     gridtolerance="10.0"
     objecttolerance="10.0"
     borderopacity="1.0"
     bordercolor="#666666"
     pagecolor="#ffffff"
     id="base"
     inkscape:zoom="0.56767522"
     inkscape:cx="479.72629"
     inkscape:cy="456.2468"
     inkscape:window-x="-4"
     inkscape:window-y="-4"
     inkscape:current-layer="svg3675"
     width="230.07px"
     height="426.02px" />
  <g
     id="g4034">
    <path
       style="fill:#ffdd55;fill-opacity:1;fill-rule:evenodd;stroke:none"
       d="M 479.72624,-2.638854e-006 L 598.32112,341.18221 L 959.45256,348.54156 L 671.61671,566.76303 L 776.21333,912.49356 L 479.72624,706.17964 L 183.2391,912.49356 L 287.83574,566.76303 L 1.261809e-006,348.54152 L 361.13139,341.18221 L 479.72624,-2.638854e-006 z "
       id="path3996" />
    <path
       id="path3994"
       d="M 479.72624,25.766619 L 591.62345,347.6805 L 932.35993,354.62423 L 660.77965,560.52159 L 759.46918,886.72694 L 479.72624,692.06459 L 199.98327,886.72694 L 298.67279,560.52159 L 27.092633,354.6242 L 367.82906,347.6805 L 479.72624,25.766619 z "
       style="fill:#000080;fill-opacity:1;fill-rule:evenodd;stroke:none" />
    <path
       style="fill:#0066ff;fill-opacity:1;fill-rule:evenodd;stroke:none"
       d="M 479.72623,53.259396 L 584.47708,354.61413 L 903.45234,361.11439 L 649.2166,553.86205 L 741.60327,859.23416 L 479.72623,677.00402 L 217.84915,859.23416 L 310.23582,553.86205 L 56.000223,361.11436 L 374.97541,354.61413 L 479.72623,53.259396 z "
       id="path6" />
    <g
       transform="matrix(1.0843454,0,0,1.0843454,-43.578024,2.4415872)"
       id="g4030">
      <path
         style="font-size:144px;fill:#000000;fill-opacity:1"
         d="M 492.19293,597.60832 L 478.17614,597.60832 L 478.03597,555.41777 C 468.22416,555.23088 458.4124,554.10954 448.60069,552.05374 C 438.78891,549.90451 428.93043,546.72736 419.02525,542.52232 L 419.02525,517.29208 C 428.55665,523.27262 438.1815,527.8047 447.89986,530.88837 C 457.71155,533.87864 467.80364,535.42049 478.17614,535.51391 L 478.17614,471.59731 C 457.52465,468.23338 442.47999,462.53322 433.04206,454.49682 C 423.69749,446.46063 419.02523,435.4341 419.02525,421.41718 C 419.02523,406.18574 424.118,394.17803 434.30357,385.39401 C 444.48906,376.61033 459.11324,371.56429 478.17614,370.25587 L 478.17614,337.31639 L 492.19293,337.31639 L 492.19293,369.83537 C 500.88324,370.20933 509.29332,371.14378 517.42318,372.63873 C 525.55279,374.04059 533.49563,376.00294 541.25172,378.52578 L 541.25172,403.05518 C 533.49563,399.13063 525.50606,396.09365 517.28301,393.94426 C 509.15316,391.79518 500.78981,390.53367 492.19293,390.15972 L 492.19293,450.01145 C 513.40491,453.28215 529.01025,459.12246 539.00903,467.53245 C 549.00754,475.9426 554.00685,487.43636 554.00701,502.01377 C 554.00685,517.80606 548.68048,530.28101 538.02787,539.43861 C 527.46842,548.50281 512.19012,553.73575 492.19293,555.13742 L 492.19293,597.60832 M 478.17614,447.48842 L 478.17614,390.01955 C 467.3364,391.23451 459.06651,394.3182 453.36642,399.27063 C 447.6662,404.22339 444.81611,410.81128 444.81615,419.03432 C 444.81611,427.07075 447.43258,433.33158 452.66556,437.81684 C 457.9919,442.30233 466.49541,445.52617 478.17614,447.48842 M 492.19293,474.40066 L 492.19293,535.09342 C 504.06038,533.50486 512.98441,530.14083 518.96503,525.00132 C 525.03884,519.86186 528.0758,513.08709 528.07594,504.67695 C 528.0758,496.45383 525.17901,489.91267 519.38554,485.05343 C 513.68524,480.19436 504.62105,476.64343 492.19293,474.40066"
         id="path4135" />
      <path
         style="font-size:144px;fill:#ffe400;fill-opacity:1"
         d="M 485.40307,586.39274 L 471.38628,586.39274 L 471.24611,544.20219 C 461.43429,544.0153 451.62254,542.89395 441.81083,540.83815 C 431.99904,538.68893 422.14057,535.51178 412.23538,531.30674 L 412.23538,506.0765 C 421.76678,512.05703 431.39164,516.58912 441.10999,519.67278 C 450.92168,522.66306 461.01378,524.20491 471.38628,524.29833 L 471.38628,460.38173 C 450.73479,457.01779 435.69013,451.31764 426.2522,443.28124 C 416.90763,435.24505 412.23536,424.21851 412.23538,410.20159 C 412.23536,394.97016 417.32814,382.96245 427.5137,374.17843 C 437.69919,365.39475 452.32337,360.34871 471.38628,359.04029 L 471.38628,326.10081 L 485.40307,326.10081 L 485.40307,358.61978 C 494.09338,358.99375 502.50346,359.9282 510.63331,361.42314 C 518.76293,362.825 526.70576,364.78735 534.46186,367.3102 L 534.46186,391.8396 C 526.70576,387.91505 518.7162,384.87807 510.49315,382.72868 C 502.3633,380.5796 493.99995,379.31808 485.40307,378.94414 L 485.40307,438.79586 C 506.61505,442.06657 522.22039,447.90688 532.21917,456.31686 C 542.21767,464.72702 547.21699,476.22078 547.21715,490.79819 C 547.21699,506.59048 541.89061,519.06543 531.23801,528.22303 C 520.67856,537.28723 505.40025,542.52017 485.40307,543.92184 L 485.40307,586.39274 M 471.38628,436.27283 L 471.38628,378.80397 C 460.54654,380.01893 452.27665,383.10262 446.57655,388.05505 C 440.87633,393.00781 438.02625,399.5957 438.02629,407.81874 C 438.02625,415.85516 440.64272,422.116 445.8757,426.60126 C 451.20203,431.08675 459.70554,434.31059 471.38628,436.27283 M 485.40307,463.18508 L 485.40307,523.87783 C 497.27051,522.28928 506.19454,518.92524 512.17516,513.78574 C 518.24897,508.64628 521.28594,501.87151 521.28607,493.46137 C 521.28594,485.23824 518.38914,478.69709 512.59567,473.83785 C 506.89538,468.97878 497.83119,465.42785 485.40307,463.18508"
         id="flowRoot2169" />
    </g>
  </g>
</svg>
