<?xml version="1.0" encoding="UTF-8" standalone="no"?>
<!-- Created with Inkscape (http://www.inkscape.org/) -->
<svg
   xmlns:svg="http://www.w3.org/2000/svg"
   xmlns="http://www.w3.org/2000/svg"
   version="1.0"
   width="30"
   height="22"
   id="svg3307">
  <defs
     id="defs3309" />
  <g
     transform="translate(-233.57143,-369.93362)"
     id="layer1">
    <rect
       width="29"
       height="21"
       x="234.07143"
       y="370.43362"
       style="opacity:1;fill:#ffffff;fill-opacity:0.50196078;stroke:#00ff00;stroke-width:1;stroke-linecap:round;stroke-linejoin:miter;stroke-miterlimit:4;stroke-dasharray:none;stroke-dashoffset:0;stroke-opacity:1"
       id="rect3337" />
    <path
       d="M 246.60589,387.23461 L 245.51199,389.95966 L 237.75388,389.95966 L 237.75388,389.72108 L 241.29481,385.96162 C 242.96581,384.10486 243.82782,382.38084 243.88085,380.78955 C 243.88084,379.67542 243.45631,378.86643 242.60725,378.36256 C 242.15641,378.11085 241.64588,377.98499 241.07566,377.98498 C 240.2007,377.98499 239.51109,378.32312 239.00684,378.99936 C 238.74176,379.37048 238.47,379.89436 238.19157,380.57101 L 237.77392,380.47146 C 238.039,379.34397 238.39048,378.51515 238.82836,377.98498 C 238.89433,377.90526 238.96717,377.82554 239.0469,377.7458 C 239.80288,376.92387 240.75777,376.51289 241.91157,376.51288 C 243.13133,376.51289 244.09938,376.95705 244.8157,377.84536 L 245.17386,378.3826 C 245.45229,378.88646 245.59151,379.43685 245.59151,380.03377 C 245.59151,381.49232 244.79566,383.07045 243.20398,384.76816 C 243.15096,384.82118 243.09795,384.88067 243.04494,384.94663 L 239.70312,388.4481 L 244.45754,388.4481 C 244.9881,388.4481 245.38592,388.31536 245.651,388.04987 C 245.8234,387.89083 246.05549,387.58589 246.34729,387.13505 L 246.60589,387.23461 z "
       style="font-size:19.89183044px;font-style:normal;font-weight:normal;text-align:center;text-anchor:middle;fill:#000000;fill-opacity:1;stroke:none;stroke-width:1px;stroke-linecap:butt;stroke-linejoin:miter;stroke-opacity:1;font-family:FreeSerif"
       id="text3325" />
    <path
       d="M 257.33487,376.67319 C 257.98258,376.6732 258.49759,377.00628 258.8799,377.67243 C 259.21928,378.25841 259.38897,378.99243 259.38898,379.87449 C 259.38897,380.78103 259.20384,381.53961 258.83359,382.15024 C 258.72874,382.32304 258.61778,382.46497 258.5007,382.57602 C 258.17373,382.89678 257.77279,383.05715 257.29788,383.05715 C 256.74899,383.05715 256.29873,382.84746 255.94711,382.42807 C 255.60792,382.02713 255.37968,381.41641 255.26241,380.59589 C 255.22533,380.33068 255.20679,380.07167 255.20679,379.81886 C 255.20679,378.94923 255.38881,378.20598 255.75286,377.58914 C 255.8577,377.41634 255.97177,377.2714 256.09507,377.15432 C 256.43426,376.83357 256.84753,376.6732 257.33487,376.67319 L 257.33487,376.67319 z M 257.3072,376.91375 C 256.54843,376.91376 256.14438,377.80194 256.09507,379.5783 C 256.09506,379.68315 256.09506,379.7911 256.09507,379.90216 C 256.09506,381.84511 256.496,382.81659 257.29788,382.81659 C 258.09976,382.81659 258.50069,381.84201 258.5007,379.89284 C 258.50069,378.13493 258.18305,377.15423 257.54776,376.95074 L 257.31652,376.91375 L 257.3072,376.91375 z "
       style="font-size:9.25208569px;font-style:normal;font-weight:normal;text-align:center;text-anchor:middle;fill:#000000;fill-opacity:1;stroke:none;stroke-width:1px;stroke-linecap:butt;stroke-linejoin:miter;stroke-opacity:1;font-family:FreeSerif"
       id="text3329" />
    <path
       d="M 249.38582,373.21495 L 251.98759,376.51133 C 252.23284,375.8576 252.46438,375.34908 252.6822,374.98577 C 252.77309,374.84971 252.88658,374.68177 253.02265,374.48196 C 252.59587,374.48196 252.34619,374.47282 252.27359,374.45452 C 251.95572,374.39107 251.74233,374.20041 251.63343,373.88254 C 251.58798,373.7462 251.56525,373.57826 251.56526,373.37873 C 251.56525,373.12434 251.60156,372.85636 251.67417,372.57479 C 251.74677,372.31153 251.86025,372.13902 252.01461,372.05726 L 252.32804,371.90762 L 252.30102,372.26178 C 252.33732,372.51591 252.53255,372.64754 252.88672,372.65668 L 253.63579,372.6837 C 254.04426,372.69285 254.30753,372.90181 254.42559,373.31055 L 254.46674,373.48764 L 254.42559,374.64532 C 254.19862,374.57272 254.06698,374.53642 254.03069,374.53641 C 253.94893,374.53642 253.87175,374.55457 253.79915,374.59087 C 253.69938,374.64547 253.59948,374.7408 253.49944,374.87686 C 253.24531,375.22188 253.02735,375.6305 252.84557,376.10271 C 252.76381,376.31167 252.72293,376.5342 252.72294,376.7703 C 252.72293,376.92467 252.74109,377.06544 252.7774,377.19264 L 252.91374,377.46491 C 252.93202,377.49208 252.95018,377.5148 252.9682,377.53309 L 253.6495,378.36404 C 253.96708,378.75451 254.16675,379.02692 254.24851,379.18128 C 254.27593,379.2356 254.29866,379.29005 254.31668,379.34464 C 254.38041,379.48986 254.41228,379.64422 254.41229,379.80772 C 254.41228,379.90776 254.39856,380.00766 254.37113,380.10743 C 254.27136,380.49789 254.08527,380.80661 253.81287,381.03357 C 253.75827,381.07902 253.7264,381.10632 253.71726,381.11546 C 253.5992,380.65239 253.1497,379.97136 252.36878,379.07237 L 249.73998,376.00752 L 249.30435,376.51133 C 249.18629,376.65683 249.12269,376.87478 249.11355,377.16521 C 249.11354,377.37416 249.15899,377.56039 249.24989,377.72389 C 249.2679,377.76019 249.28605,377.79192 249.30435,377.81908 L 250.02598,378.94974 C 250.30753,379.38566 250.44831,379.73068 250.44831,379.9848 C 250.44831,380.04826 250.44373,380.10272 250.43459,380.14816 L 250.28495,380.87021 L 247.90099,380.87021 L 247.90099,380.3664 L 248.25516,380.32525 C 248.50041,380.28894 248.62761,380.18003 248.63675,379.99852 L 248.59602,379.80772 L 247.96916,378.55443 C 247.88741,378.33661 247.84653,378.14138 247.84654,377.96872 C 247.84653,377.93242 247.84653,377.90069 247.84654,377.87353 C 247.87397,377.53766 247.9966,377.18807 248.21442,376.82476 C 248.22356,376.80647 248.23271,376.78832 248.24185,376.7703 C 248.35991,376.5705 248.65047,376.23906 249.11355,375.77598 C 249.20444,375.69424 249.28162,375.62149 249.34508,375.55775 L 248.11923,374.08706 C 247.97373,373.92356 247.90099,373.68745 247.90099,373.37873 C 247.90099,373.17893 247.93286,373.00185 247.9966,372.84748 C 248.09636,372.57508 248.31432,372.31624 248.65047,372.07098 C 248.68677,372.04383 248.71393,372.02111 248.73195,372.00281 C 248.87743,372.45675 249.09539,372.86079 249.38582,373.21495 L 249.38582,373.21495 z "
       style="font-size:13.62117767px;font-style:normal;font-weight:normal;text-align:center;text-anchor:middle;fill:#000000;fill-opacity:1;stroke:none;stroke-width:1px;stroke-linecap:butt;stroke-linejoin:miter;stroke-opacity:1;font-family:FreeSerif"
       id="text3333" />
  </g>
</svg>
