<svg xmlns="http://www.w3.org/2000/svg" xmlns:xlink="http://www.w3.org/1999/xlink" width="110" height="65.954" viewBox="5 0 110 65.954"><defs><path id="a" d="M5.672-4.86 4.547-7.468c.156-.281.516-.343.672-.343.062 0 .203-.016.203-.22 0-.124-.11-.124-.188-.124-.203 0-.437.015-.64.015H3.89c-.72 0-1.25-.015-1.266-.015-.094 0-.203 0-.203.219 0 .125.094.125.25.125.703 0 .75.109.86.406l1.421 3.312L2.36-1.312c-.421.468-.937.921-1.828.968-.14.016-.234.016-.234.219 0 .047.016.125.14.125.172 0 .344-.031.516-.031h.563c.39 0 .796.031 1.171.031.079 0 .235 0 .235-.219 0-.11-.094-.125-.156-.125-.25-.031-.407-.156-.407-.344 0-.203.157-.359.5-.718l1.063-1.157c.265-.265.89-.968 1.156-1.234l1.25 2.953c.016.016.063.14.063.156 0 .11-.266.313-.641.344-.078 0-.203.016-.203.219 0 .125.125.125.172.125.203 0 .453-.031.656-.031h1.313c.218 0 .437.031.64.031.094 0 .219 0 .219-.234 0-.11-.125-.11-.235-.11-.703-.015-.734-.078-.937-.515L5.797-4.563l1.516-1.625c.125-.125.39-.421.5-.546.515-.532 1-1.016 1.968-1.079.11-.015.235-.015.235-.218 0-.125-.11-.125-.157-.125-.171 0-.343.015-.515.015h-.547c-.375 0-.797-.015-1.172-.015-.078 0-.219 0-.219.203 0 .125.078.14.14.14.204.016.407.11.407.344l-.016.016c-.015.094-.03.203-.171.36Zm0 0"/><path id="b" d="m7.031-6.844.266-.265c.531-.547.969-.672 1.39-.704.141-.015.235-.03.235-.234 0-.11-.11-.11-.14-.11-.141 0-.298.016-.438.016h-.485c-.359 0-.718-.015-1.062-.015-.078 0-.203 0-.203.219 0 .109.11.125.14.125.36.015.36.203.36.265 0 .14-.094.313-.328.594L3.922-3.687l-1.36-3.641C2.5-7.5 2.5-7.516 2.5-7.547c0-.25.484-.266.625-.266.156 0 .281 0 .281-.218 0-.125-.11-.125-.172-.125-.203 0-.453.015-.656.015H1.25c-.203 0-.438-.015-.64-.015-.079 0-.22 0-.22.219 0 .125.11.125.297.125.579 0 .688.109.797.375L2.97-3.454c0 .031.047.172.047.203 0 .031-.594 2.39-.625 2.516-.094.312-.22.375-.985.39-.203 0-.297 0-.297.219C1.11 0 1.25 0 1.281 0c.219 0 .469-.031.688-.031h1.406c.219 0 .469.031.688.031.078 0 .234 0 .234-.219 0-.125-.094-.125-.297-.125-.734 0-.734-.094-.734-.219 0-.078.093-.468.156-.703l.422-1.718c.078-.25.078-.282.187-.391Zm0 0"/><path id="c" d="M5.094-.078c2.047-.813 3.578-3 3.578-5.156 0-1.97-1.281-3.188-2.953-3.188-2.563 0-5.14 2.75-5.14 5.516C.578-1.031 1.812.25 3.546.25c.406 0 .797-.063 1.187-.172-.078.703-.078.766-.078 1 0 .344 0 1.234.969 1.234 1.422 0 1.938-2.234 1.938-2.296 0-.079-.047-.125-.11-.125-.062 0-.094.062-.125.187-.266.766-.89 1.188-1.406 1.188-.61 0-.766-.422-.828-1.344ZM2.937-.125C2-.453 1.548-1.453 1.548-2.547c0-.828.312-2.422 1.094-3.64.89-1.36 2.062-1.97 3-1.97 1.25 0 2.078 1.016 2.078 2.563 0 .89-.422 3.844-2.657 5.157C5-1.047 4.829-1.75 4.048-1.75c-.656 0-1.203.64-1.203 1.219 0 .14.047.312.094.406ZM4.75-.281a2.542 2.542 0 0 1-1.125.265c-.125 0-.547 0-.547-.515 0-.438.422-.985.969-.985.594 0 .719.407.719 1 0 .079 0 .172-.016.235Zm0 0"/><path id="d" d="M2.11-3.781c.046-.094.078-.156.078-.235 0-.265-.25-.437-.47-.437-.312 0-.405.281-.437.39L.266-.624C.234-.531.234-.515.234-.5c0 .063.047.078.125.11.157.062.172.062.188.062.015 0 .062 0 .125-.14Zm0 0"/><path id="e" d="M3.953-2.938c.031-.124.031-.171.031-.171 0-.188-.156-.25-.25-.25a.37.37 0 0 0-.359.312.893.893 0 0 0-.781-.469c-.953 0-1.985 1.063-1.985 2.22C.61-.438 1.172 0 1.766 0c.359 0 .687-.203.953-.438l-.172.72c-.094.343-.14.577-.453.827-.344.297-.64.297-.844.297-.203 0-.39-.015-.578-.047a.473.473 0 0 0 .25-.406C.922.766.782.656.609.656a.468.468 0 0 0-.437.485c0 .453.61.484 1.094.484 1.14 0 1.703-.61 1.812-1.094ZM2.875-1.046c-.047.219-.234.375-.39.531-.079.047-.376.297-.704.297-.328 0-.547-.265-.547-.75 0-.328.188-1.203.407-1.61.25-.452.625-.718.953-.718.531 0 .672.594.672.672l-.016.11Zm0 0"/><path id="f" d="M3.047-3.172h.75c.156 0 .25 0 .25-.156 0-.11-.11-.11-.234-.11h-.72c.141-.718.22-1.171.298-1.53.03-.126.046-.22.171-.313.11-.094.172-.11.25-.11.126 0 .25.032.36.094-.047.016-.094.031-.125.063a.436.436 0 0 0-.234.375c0 .187.14.296.312.296a.471.471 0 0 0 .453-.484c0-.375-.39-.562-.766-.562-.28 0-.78.125-1.03.859-.079.188-.079.203-.282 1.313h-.61c-.156 0-.25 0-.25.156 0 .11.11.11.235.11h.578L1.875-.079c-.156.797-.266 1.484-.703 1.484-.016 0-.188 0-.328-.093.36-.094.36-.422.36-.438 0-.188-.141-.297-.313-.297a.47.47 0 0 0-.454.485c0 .343.344.562.735.562.5 0 .828-.516.937-.703.282-.531.47-1.531.485-1.61Zm0 0"/><path id="g" d="M3.797-3.281c0-.031.015-.078.015-.125s-.03-.11-.109-.11c-.094 0-.422.313-.547.532-.094-.172-.328-.532-.828-.532-.937 0-1.984 1.11-1.984 2.282 0 .843.531 1.312 1.14 1.312.407 0 .735-.234.97-.437 0 .03-.25 1.03-.282 1.171-.125.454-.125.47-.625.47-.094 0-.203 0-.203.155 0 .047.047.11.125.11.093 0 .281-.016.39-.031h.422c.64 0 .781.03.844.03.031 0 .156 0 .156-.155 0-.11-.125-.11-.219-.11-.374 0-.374-.047-.374-.125 0 0 0-.047.03-.156ZM2.609-.984c-.03.109-.03.14-.156.296-.422.485-.765.547-.937.547-.375 0-.547-.343-.547-.75 0-.375.203-1.234.39-1.578.22-.484.61-.828.985-.828.531 0 .672.625.672.688 0 .03-.016.078-.032.125Zm0 0"/><path id="i" d="M2.984-.875c-.03.156-.406.734-.937.734-.39 0-.531-.296-.531-.64 0-.485.28-1.188.453-1.64.078-.204.11-.267.11-.423 0-.437-.36-.672-.72-.672-.796 0-1.125 1.125-1.125 1.22 0 .077.063.108.125.108.11 0 .11-.046.141-.124.203-.72.547-.985.828-.985.125 0 .188.078.188.266 0 .187-.063.375-.172.656-.328.844-.407 1.188-.407 1.469 0 .781.594.984 1.063.984.594 0 .969-.469 1-.515.125.374.484.515.766.515.375 0 .562-.312.609-.437.172-.282.281-.75.281-.782 0-.046-.031-.109-.125-.109-.093 0-.11.047-.172.25-.093.406-.234.86-.562.86-.188 0-.266-.157-.266-.376 0-.14.078-.406.125-.609.047-.203.172-.672.203-.813l.157-.609c.046-.219.14-.594.14-.64 0-.204-.156-.25-.25-.25a.383.383 0 0 0-.344.265Zm0 0"/><path id="h" d="M1.875-2.813A.49.49 0 0 0 1.938-3c0-.188-.172-.344-.375-.344-.235 0-.313.203-.329.297L.391-.484c0 .03-.032.078-.032.093 0 .11.25.157.25.157.063 0 .079-.047.11-.094Zm0 0"/></defs><use xlink:href="#a" x="5.147" y="18.342"/><use xlink:href="#b" x="54.191" y="18.342"/><use xlink:href="#c" x="103.371" y="18.342"/><use xlink:href="#c" x="101.974" y="59.254"/><use xlink:href="#d" x="111.245" y="54.916"/><path fill="none" stroke="#000" stroke-miterlimit="10" stroke-width=".478" d="M21.148 18.234h27.22"/><path fill="none" stroke="#000" stroke-linecap="round" stroke-linejoin="round" stroke-miterlimit="10" stroke-width=".478" d="M46.121 15.367c.453 1.723 1.465 2.535 2.484 2.867-1.02.336-2.03 1.149-2.484 2.871"/><use xlink:href="#e" x="32.839" y="24.48"/><path fill="none" stroke="#000" stroke-miterlimit="10" stroke-width=".478" d="M21.148 12.469h27.22"/><path fill="none" stroke="#000" stroke-linecap="round" stroke-linejoin="round" stroke-miterlimit="10" stroke-width=".478" d="M46.121 9.602c.453 1.722 1.465 2.535 2.484 2.867-1.02.336-2.03 1.148-2.484 2.87"/><use xlink:href="#f" x="32.524" y="8.108"/><path fill="none" stroke="#000" stroke-miterlimit="10" stroke-width=".478" d="M68.934 15.352h28.613"/><path fill="none" stroke="#000" stroke-linecap="round" stroke-linejoin="round" stroke-miterlimit="10" stroke-width=".478" d="M95.3 12.484c.454 1.723 1.466 2.536 2.485 2.868-1.02.335-2.031 1.148-2.484 2.87"/><use xlink:href="#g" x="81.445" y="10.991"/><path fill="none" stroke="#000" stroke-miterlimit="10" stroke-width=".478" d="m67.965 22.918 28.297 23.566"/><path fill="none" stroke="#000" stroke-linecap="round" stroke-linejoin="round" stroke-miterlimit="10" stroke-width=".47797609999999996" d="M96.371 42.84c-.754 1.613-.496 2.887.074 3.797-1-.395-2.297-.418-3.746.613"/><use xlink:href="#g" x="72.731" y="43.799"/><use xlink:href="#h" x="76.798" y="40.986"/><path fill="none" stroke="#000" stroke-dasharray="3.34735 1.91277" stroke-miterlimit="10" stroke-width=".478" d="M108.008 25.242v20.195"/><path fill="none" stroke="#000" stroke-linecap="round" stroke-linejoin="round" stroke-miterlimit="10" stroke-width=".478" d="M110.875 43.188c-1.719.453-2.531 1.468-2.867 2.488-.336-1.02-1.149-2.035-2.871-2.489"/><use xlink:href="#i" x="110.82" y="37.293"/></svg>