<?xml version="1.0" encoding="UTF-8" standalone="no"?>
<!DOCTYPE svg PUBLIC "-//W3C//DTD SVG 1.1//EN" "http://www.w3.org/Graphics/SVG/1.1/DTD/svg11.dtd">
<svg xmlns="http://www.w3.org/2000/svg" xmlns:xlink="http://www.w3.org/1999/xlink" version="1.1" width="272.68888pt" height="131.94722pt" viewBox="0 0 272.68888 131.94722">
<g enable-background="new">
<symbol id="font_0_1">
<path d="M .14400001 .115 C .10400002 .048 .065 .034 .021000002 .031000002 C .009000003 .030000002 0 .030000002 0 .011000001 C 0 .0050000005 .0050000029 0 .013 0 C .040000004 0 .07100001 .003 .09900001 .003 C .13200002 .003 .16700001 0 .19900002 0 C .20500002 0 .21800003 0 .21800003 .019000002 C .21800003 .030000002 .20900002 .031000002 .20200002 .031000002 C .17900002 .033 .15500002 .041 .15500002 .066 C .15500002 .078 .16100002 .089 .16900002 .10300001 L .245 .231 L .49600003 .231 C .49800007 .21000001 .512 .074 .512 .064 C .512 .034 .46000005 .031000002 .44000004 .031000002 C .42600004 .031000002 .41600005 .031000002 .41600005 .011000001 C .41600005 0 .42800004 0 .43000005 0 C .47100006 0 .514 .003 .555 .003 C .58 .003 .643 0 .668 0 C .674 0 .686 0 .686 .020000002 C .686 .031000002 .676 .031000002 .663 .031000002 C .601 .031000002 .601 .038000004 .598 .067 L .537 .69200006 C .535 .712 .535 .716 .518 .716 C .502 .716 .49800007 .70900008 .492 .69900009 L .14400001 .115 M .26400004 .26200003 L .46100004 .592 L .493 .26200003 L .26400004 .26200003 Z "/>
</symbol>
<use xlink:href="#font_0_1" transform="matrix(27.673888,0,0,-27.673888,14.346363,32.83889)"/>
<symbol id="font_0_2">
<path d="M .11800001 .078 C .108 .039 .106 .031000002 .027000003 .031000002 C .009999998 .031000002 0 .031000002 0 .011000001 C 0 0 .009 0 .027000003 0 L .38400004 0 C .54200008 0 .66 .11800001 .66 .216 C .66 .28800003 .60200008 .34600003 .50500008 .35700003 C .609 .37600003 .71400007 .45000003 .71400007 .545 C .71400007 .619 .64800009 .683 .52800008 .683 L .192 .683 C .17300001 .683 .16300002 .683 .16300002 .66300007 C .16300002 .652 .17200002 .652 .19100002 .652 C .19300002 .652 .21200001 .652 .22900003 .65000006 C .24700001 .648 .256 .647 .256 .634 C .256 .63000008 .25500003 .62700006 .252 .615 L .11800001 .078 M .26900003 .36600004 L .33100004 .614 C .34000004 .64900007 .342 .652 .38500003 .652 L .51400008 .652 C .60200008 .652 .623 .59300008 .623 .549 C .623 .46100004 .53700008 .36600004 .41500003 .36600004 L .26900003 .36600004 M .224 .031000002 C .21000001 .031000002 .208 .031000002 .20200002 .032 C .192 .033 .18900001 .034 .18900001 .042000005 C .18900001 .045 .18900001 .047000003 .194 .065000008 L .263 .344 L .45200003 .344 C .54800006 .344 .56700006 .27 .56700006 .22700002 C .56700006 .128 .47800005 .031000002 .36 .031000002 L .224 .031000002 Z "/>
</symbol>
<use xlink:href="#font_0_2" transform="matrix(27.673888,0,0,-27.673888,127.006748,32.83889)"/>
<symbol id="font_0_3">
<path d="M .71000006 .71700009 C .71000006 .72 .708 .72700008 .699 .72700008 C .69600006 .72700008 .69500008 .7260001 .684 .71500006 L .614 .6380001 C .605 .65200009 .559 .72700008 .448 .72700008 C .22500001 .72700008 0 .50600007 0 .27400003 C 0 .109000008 .118000019 0 .271 0 C .358 0 .43400003 .040000004 .487 .086 C .58000007 .16800002 .597 .25900004 .597 .26200003 C .597 .272 .587 .272 .58500006 .272 C .579 .272 .574 .27 .572 .26200003 C .563 .23300001 .54 .162 .47100003 .104 C .402 .048 .33900003 .031000004 .287 .031000004 C .19700001 .031000004 .091000009 .083000008 .091000009 .23900001 C .091000009 .29600004 .112 .45800004 .21200003 .57500007 C .273 .646 .367 .69600006 .45600004 .69600006 C .558 .69600006 .61700007 .619 .61700007 .503 C .61700007 .46300004 .614 .46200005 .614 .45200003 C .614 .44200004 .625 .44200004 .629 .44200004 C .642 .44200004 .642 .44400005 .647 .46200005 L .71000006 .71700009 Z "/>
</symbol>
<use xlink:href="#font_0_3" transform="matrix(27.673888,0,0,-27.673888,239.85314,33.447717)"/>
<symbol id="font_0_4">
<path d="M .119 .078 C .109 .039 .10699999 .031000002 .028 .031000002 C .011 .031000002 0 .031000002 0 .012 C 0 0 .009 0 .028 0 L .35900004 0 C .56700006 0 .764 .21100001 .764 .43 C .764 .57100006 .679 .683 .529 .683 L .193 .683 C .17400001 .683 .163 .683 .163 .66400006 C .163 .652 .172 .652 .192 .652 C .205 .652 .223 .651 .235 .65000006 C .25100003 .648 .25700004 .64500007 .25700004 .634 C .25700004 .63000008 .256 .62700006 .25300003 .615 L .119 .078 M .33500005 .614 C .344 .64900007 .34600003 .652 .38900004 .652 L .49600003 .652 C .594 .652 .677 .59900006 .677 .467 C .677 .418 .657 .254 .572 .14400001 C .543 .10700001 .46400003 .031000002 .34100003 .031000002 L .228 .031000002 C .214 .031000002 .212 .031000002 .206 .032 C .19600001 .033 .193 .034 .193 .042000005 C .193 .045 .193 .047000003 .198 .065000008 L .33500005 .614 Z "/>
</symbol>
<use xlink:href="#font_0_4" transform="matrix(27.673888,0,0,-27.673888,13.02085,121.81944)"/>
<symbol id="font_0_5">
<path d="M .67 .23300001 C .67200008 .238 .6750001 .245 .6750001 .24700001 C .6750001 .24800001 .6750001 .25800003 .66300007 .25800003 C .65400007 .25800003 .65200009 .252 .65000006 .246 C .58500006 .098000008 .54800006 .031000002 .37700004 .031000002 L .23100002 .031000002 C .21700002 .031000002 .21500002 .031000002 .209 .032 C .19900002 .033 .19600001 .034 .19600001 .042000005 C .19600001 .045 .19600001 .047000003 .201 .065000008 L .269 .33800004 L .36800004 .33800004 C .453 .33800004 .453 .317 .453 .29200004 C .453 .28500004 .453 .273 .44600005 .24300002 C .444 .238 .44300003 .23500002 .44300003 .23200001 C .44300003 .22700002 .44700004 .22100002 .45600004 .22100002 C .46400006 .22100002 .467 .22600001 .47100003 .24100001 L .52800008 .47500003 C .52800008 .48100005 .52300009 .48600004 .51600006 .48600004 C .507 .48600004 .50500008 .48000003 .50200006 .46800003 C .48100008 .39200003 .46300007 .36900003 .371 .36900003 L .277 .36900003 L .337 .61 C .34600003 .64500007 .347 .64900007 .39100004 .64900007 L .53200009 .64900007 C .65400007 .64900007 .6840001 .62 .6840001 .53800007 C .6840001 .514 .6840001 .512 .68000009 .485 C .68000009 .47900004 .679 .47200004 .679 .467 C .679 .462 .68200007 .455 .69100007 .455 C .702 .455 .70300009 .46100004 .70500007 .48000003 L .725 .65300008 C .72800007 .68 .72300007 .68 .6980001 .68 L .193 .68 C .17300001 .68 .163 .68 .163 .66 C .163 .64900007 .172 .64900007 .19100002 .64900007 C .228 .64900007 .25599999 .64900007 .25599999 .63100007 C .25599999 .62700006 .25599999 .625 .251 .60700008 L .119 .078 C .109 .039 .10700001 .031000002 .027999998 .031000002 C .011 .031000002 0 .031000002 0 .012 C 0 0 .009 0 .027999998 0 L .54700008 0 C .57000008 0 .57100006 .001 .57800009 .017 L .67 .23300001 Z "/>
</symbol>
<use xlink:href="#font_0_5" transform="matrix(27.673888,0,0,-27.673888,127.07382,121.81944)"/>
<symbol id="font_0_6">
<path d="M .265 .32500003 L .362 .32500003 C .43700005 .32500003 .445 .30900003 .445 .28 C .445 .273 .445 .261 .43800003 .231 C .43600006 .22600001 .435 .22200002 .435 .22000002 C .435 .21200001 .44100005 .208 .44700004 .208 C .45700003 .208 .45700003 .21100001 .462 .22900002 L .517 .446 C .52000007 .45700003 .52000007 .45900003 .52000007 .462 C .52000007 .46400003 .51800009 .47300003 .508 .47300003 C .49800004 .47300003 .49700005 .46800003 .49300004 .45200003 C .47200007 .374 .449 .356 .36400003 .356 L .273 .356 L .337 .61 C .34600003 .64500007 .347 .64900007 .39100004 .64900007 L .52300009 .64900007 C .646 .64900007 .669 .61600008 .669 .53900006 C .669 .51600006 .669 .512 .66600009 .485 C .66400006 .47200004 .66400006 .47000004 .66400006 .467 C .66400006 .462 .66700008 .455 .67600008 .455 C .68700006 .455 .688 .46100004 .69000008 .48000003 L .71000006 .65300008 C .71300008 .68 .70800009 .68 .683 .68 L .193 .68 C .17300001 .68 .163 .68 .163 .66 C .163 .64900007 .172 .64900007 .19100002 .64900007 C .228 .64900007 .25599999 .64900007 .25599999 .63100007 C .25599999 .62700006 .25599999 .625 .251 .60700008 L .119 .078 C .109 .039 .10700001 .031000002 .027999998 .031000002 C .011 .031000002 0 .031000002 0 .012 C 0 0 .011999998 0 .015000001 0 C .044 0 .118 .003 .147 .003 C .18 .003 .263 0 .296 0 C .305 0 .31700004 0 .31700004 .019000002 C .31700004 .027 .311 .029000001 .311 .030000002 C .30800004 .031000002 .306 .031000002 .283 .031000002 C .26100005 .031000002 .25599999 .031000002 .23100002 .033 C .202 .036000004 .19900002 .040000004 .19900002 .053000004 C .19900002 .055000005 .19900002 .061000006 .20300001 .076000008 L .265 .32500003 Z "/>
</symbol>
<use xlink:href="#font_0_6" transform="matrix(27.673888,0,0,-27.673888,239.58216,121.81944)"/>
<path transform="matrix(2.7777777,0,0,-2.7777777,136.07222,67.87499)" stroke-width=".39848" stroke-linecap="butt" stroke-miterlimit="10" stroke-linejoin="miter" fill="none" stroke="#000000" d="M -32.20978 15.10332 L -10.1636 15.10332 "/>
<path transform="matrix(2.7777777,0,0,-2.7777777,107.84,25.921332)" d="M 1.99245 0 L -1.19547 1.59395 L 0 0 L -1.19547 -1.59395 "/>
<symbol id="font_1_3">
<path d="M .489 .573 C .493 .588 .493 .59300008 .493 .59400007 C .493 .61600008 .475 .62600007 .45900003 .62600007 C .43600003 .62600007 .417 .60700008 .41300003 .588 C .396 .615 .36200003 .64500007 .31 .64500007 C .18500002 .64500007 .054 .51100006 .054 .36800004 C .054 .26500003 .12400001 .20400001 .20600002 .20400001 C .252 .20400001 .296 .22700002 .331 .25800003 L .30900003 .16800002 C .298 .12600002 .291 .09900001 .253 .065 C .209 .027999998 .16600001 .027999998 .14100002 .027999998 C .09500001 .027999998 .082 .031000004 .06400001 .034999998 C .089 .047000007 .096000019 .07100001 .096000019 .08500001 C .096000019 .109000008 .07700001 .12200001 .057 .12200001 C .029000003 .12200001 0 .09900001 0 .061000006 C 0 .001000002 .08600001 0 .142 0 C .299 0 .366 .080000009 .38 .13700001 L .489 .573 M .351 .337 C .347 .32200004 .347 .32000003 .33 .3 C .29500003 .25800003 .24700003 .23200001 .209 .23200001 C .158 .23200001 .134 .275 .134 .32700003 C .134 .37100003 .16100002 .48300005 .187 .527 C .22900002 .597 .276 .61700007 .31 .61700007 C .38 .61700007 .39900003 .54200008 .39900003 .532 C .39900003 .53000006 .39900003 .528 .396 .517 L .351 .337 Z "/>
</symbol>
<use xlink:href="#font_1_3" transform="matrix(19.371666,0,0,-19.371666,75.074649,19.596268)"/>
<path transform="matrix(2.7777777,0,0,-2.7777777,136.07222,67.87499)" stroke-width=".39848" stroke-linecap="butt" stroke-miterlimit="10" stroke-linejoin="miter" fill="none" stroke="#000000" d="M -40.43459 8.76726 L -40.43459 -6.7748 "/>
<path transform="matrix(0,2.7777777,2.7777777,0,23.753918,86.693889)" d="M 1.99245 0 L -1.19547 1.59395 L 0 0 L -1.19547 -1.59395 "/>
<symbol id="font_1_5">
<path d="M .22 .674 C .22100002 .676 .224 .689 .224 .69 C .224 .69500008 .22 .704 .208 .704 C .188 .704 .105000007 .69600006 .08 .694 C .073 .693 .059000005 .69200006 .059000005 .671 C .059000005 .657 .073 .657 .08400001 .657 C .132 .657 .132 .65000006 .132 .642 C .132 .635 .13 .629 .128 .62 L .003999997 .126 C .0009999983 .116000007 0 .105000007 0 .095 C 0 .031000004 .057 0 .105000007 0 C .12900001 0 .15900001 .008 .185 .053000004 C .206 .09 .22 .14900002 .22 .15300001 C .22 .16600001 .20700002 .16600001 .204 .16600001 C .19 .16600001 .188 .16000001 .184 .142 C .171 .092 .15200001 .028 .109 .028 C .082 .028 .075 .053000004 .075 .077 C .075 .088 .077999997 .107 .081 .118 L .22 .674 Z "/>
</symbol>
<use xlink:href="#font_1_5" transform="matrix(19.371666,0,0,-19.371666,11.334373,74.79372)"/>
<path transform="matrix(2.7777777,0,0,-2.7777777,136.07222,67.87499)" stroke-width=".39848" stroke-linecap="butt" stroke-miterlimit="10" stroke-linejoin="miter" fill="none" stroke="#000000" d="M 8.86304 15.10332 L 30.38269 15.10332 "/>
<path transform="matrix(2.7777777,0,0,-2.7777777,220.46858,25.921332)" d="M 1.99245 0 L -1.19547 1.59395 L 0 0 L -1.19547 -1.59395 "/>
<symbol id="font_1_4">
<path d="M .23800002 .674 C .23900001 .676 .242 .689 .242 .69 C .242 .69500008 .23800002 .704 .22600003 .704 C .20600002 .704 .12300001 .69600006 .098000008 .694 C .09 .693 .076000008 .69200006 .076000008 .671 C .076000008 .657 .09 .657 .102 .657 C .15 .657 .15 .65000006 .15 .642 C .15 .635 .148 .629 .14600002 .62 L .0050000029 .054000006 C 0 .036000004 0 .034 0 .032 C 0 .017 .012000002 0 .034 0 C .045 0 .06400001 .0050000005 .075 .026 C .07800001 .032 .087 .068 .09200001 .089 L .11500001 .17800002 C .118 .19300002 .128 .23100002 .13100001 .24600002 C .141 .284 .141 .285 .16100002 .317 C .193 .366 .24300002 .423 .32100005 .423 C .37700004 .423 .38 .377 .38 .35300002 C .38 .293 .337 .18200001 .32100005 .14000002 C .31 .112 .306 .103 .306 .086 C .306 .033000005 .35000003 0 .40100003 0 C .50100007 0 .545 .13800001 .545 .15300001 C .545 .16600001 .53200009 .16600001 .52900007 .16600001 C .51500007 .16600001 .51400008 .16000001 .51000007 .14900002 C .48700006 .069000009 .44300003 .028 .40400005 .028 C .38300003 .028 .379 .042000005 .379 .063 C .379 .086 .384 .099 .402 .14400001 C .41400004 .17500001 .45500005 .28100003 .45500005 .337 C .45500005 .35300002 .45500005 .395 .41800005 .42400003 C .40100003 .437 .37200005 .451 .325 .451 C .25200004 .451 .19900002 .411 .16200002 .368 L .23800002 .674 Z "/>
</symbol>
<use xlink:href="#font_1_4" transform="matrix(19.371666,0,0,-19.371666,188.32233,19.604826)"/>
<path transform="matrix(2.7777777,0,0,-2.7777777,136.07222,67.87499)" stroke-width=".39848" stroke-linecap="butt" stroke-miterlimit="10" stroke-linejoin="miter" fill="none" stroke="#000000" d="M .34593 8.76726 L .34593 -6.7748 "/>
<path transform="matrix(0,2.7777777,2.7777777,0,137.03313,86.693889)" d="M 1.99245 0 L -1.19547 1.59395 L 0 0 L -1.19547 -1.59395 "/>
<symbol id="font_1_6">
<path d="M .38700003 .091 C .38200004 .071 .37300004 .037 .37300004 .032 C .37300004 .010000001 .39100004 0 .40700004 0 C .42500005 0 .44100005 .013 .44600005 .022 C .45100004 .031000004 .45900006 .063 .46400006 .084 C .46900005 .103 .48000003 .14900002 .48600007 .17400001 C .49200005 .19600001 .49800004 .21800001 .503 .24100001 C .51400008 .284 .51400008 .286 .53400006 .317 C .56600007 .366 .61600008 .423 .69400009 .423 C .75000008 .423 .753 .377 .753 .35300002 C .753 .293 .71000006 .18200001 .69400009 .14000002 C .683 .112 .679 .103 .679 .086 C .679 .033000005 .72300007 0 .77400007 0 C .8740001 0 .91800007 .13800001 .91800007 .15300001 C .91800007 .16600001 .90500006 .16600001 .90200009 .16600001 C .8880001 .16600001 .887 .16000001 .8830001 .14900002 C .8600001 .069000009 .81700006 .028 .77700009 .028 C .75600007 .028 .75200006 .042000005 .75200006 .063 C .75200006 .086 .757 .099 .77500006 .14400001 C .78700008 .17500001 .82800009 .28100003 .82800009 .337 C .82800009 .35300002 .82800009 .395 .79100009 .42400003 C .77400007 .437 .74500009 .451 .6980001 .451 C .60800006 .451 .55300006 .39200003 .521 .35 C .513 .435 .44200004 .451 .39100004 .451 C .30800004 .451 .25200004 .4 .22200002 .36 C .21500002 .42900003 .156 .451 .114999998 .451 C .072 .451 .049 .42000003 .036000004 .397 C .014000002 .36 0 .303 0 .298 C 0 .285 .014000002 .285 .017 .285 C .031 .285 .032 .28800003 .039 .315 C .054 .374 .073 .423 .112 .423 C .138 .423 .145 .40100003 .145 .374 C .145 .35500003 .136 .31800003 .12900001 .291 C .12200001 .264 .112 .22300002 .10700001 .20100002 L .075 .073 C .07100001 .060000004 .065 .035 .065 .032 C .065 .010000001 .083000008 0 .09900001 0 C .117 0 .133 .013 .138 .022 C .143 .031000004 .15100001 .063 .156 .084 C .161 .103 .172 .14900002 .178 .17400001 C .184 .19600001 .19000001 .21800001 .19500001 .24100001 C .20600002 .282 .20800002 .29 .237 .331 C .26500003 .37100003 .31200005 .423 .38700003 .423 C .44500003 .423 .44600005 .372 .44600005 .35300002 C .44600005 .328 .44300003 .315 .42900003 .259 L .38700003 .091 Z "/>
</symbol>
<use xlink:href="#font_1_6" transform="matrix(19.371666,0,0,-19.371666,111.79379,72.23816)"/>
<path transform="matrix(2.7777777,0,0,-2.7777777,136.07222,67.87499)" stroke-width=".39848" stroke-linecap="butt" stroke-miterlimit="10" stroke-linejoin="miter" fill="none" stroke="#000000" d="M 40.78052 8.76726 L 40.78052 -6.7748 "/>
<path transform="matrix(0,2.7777777,2.7777777,0,249.35146,86.693889)" d="M 1.99245 0 L -1.19547 1.59395 L 0 0 L -1.19547 -1.59395 "/>
<symbol id="font_1_7">
<path d="M .18800001 .21200001 C .18900001 .21800001 .212 .308 .214 .313 C .216 .321 .24500002 .37100003 .277 .395 C .28800003 .403 .31500004 .423 .35800005 .423 C .36800004 .423 .39300005 .42200003 .41300003 .409 C .38100005 .4 .36900003 .372 .36900003 .354 C .36900003 .33200003 .38600005 .317 .40900005 .317 C .43200005 .317 .46500004 .336 .46500004 .37800003 C .46500004 .43 .41000004 .451 .35900004 .451 C .307 .451 .26200003 .43 .21800001 .38 C .2 .441 .139 .451 .114999998 .451 C .077999997 .451 .053 .428 .037000006 .4 C .014000002 .361 0 .303 0 .298 C 0 .285 .014000002 .285 .017 .285 C .031 .285 .032 .28800003 .039 .315 C .054 .37600003 .073 .423 .112 .423 C .138 .423 .145 .40100003 .145 .374 C .145 .35500003 .136 .31800003 .12900001 .291 C .12200001 .264 .112 .22300002 .10700001 .20100002 L .075 .073 C .07100001 .060000004 .065 .035 .065 .032 C .065 .010000001 .083000008 0 .09900001 0 C .11400001 0 .134 .009000001 .142 .029000003 C .14400001 .035 .155 .079 .161 .104 L .18800001 .21200001 Z "/>
</symbol>
<use xlink:href="#font_1_7" transform="matrix(19.371666,0,0,-19.371666,256.77159,72.23816)"/>
<path transform="matrix(2.7777777,0,0,-2.7777777,136.07222,67.87499)" stroke-width=".39848" stroke-linecap="butt" stroke-miterlimit="10" stroke-linejoin="miter" fill="none" stroke="#000000" d="M -31.68327 -16.92978 L -10.09961 -16.92978 "/>
<path transform="matrix(2.7777777,0,0,-2.7777777,108.017749,114.90215)" d="M 1.99245 0 L -1.19547 1.59395 L 0 0 L -1.19547 -1.59395 "/>
<symbol id="font_1_1">
<path d="M .77300009 .71000006 C .77300009 .71500006 .77000007 .723 .76000007 .723 C .753 .723 .75100007 .721 .74200007 .711 L .669 .634 C .66 .646 .60400006 .723 .481 .723 C .23800004 .723 0 .508 0 .28200004 C 0 .127 .11800001 0 .31000004 0 C .39800004 0 .49100007 .023000002 .54300007 .079 C .55300006 .057000005 .58000007 .021000002 .59200009 .021000002 C .601 .021000002 .60300007 .025000003 .60800006 .046000005 L .62700006 .12300001 C .632 .141 .646 .201 .64900007 .213 C .661 .25800003 .66200008 .259 .721 .26000003 C .72800007 .26000003 .74300006 .26000003 .74300006 .28100003 C .74300006 .29100005 .73600009 .29600004 .72800007 .29600004 C .69500008 .29600004 .65300008 .29200004 .61800006 .29200004 C .59300008 .29200004 .56000009 .29200004 .535 .293 C .51000007 .29400004 .481 .29600004 .45600004 .29600004 C .44900007 .29600004 .43400003 .29600004 .43400003 .27400003 C .43400003 .26000003 .44500006 .26000003 .47000004 .26000003 C .48900003 .26000003 .50900009 .26000003 .52800008 .25800003 C .56000009 .25500003 .56100007 .25100003 .56100007 .23900001 C .56100007 .235 .56100007 .23300001 .554 .207 C .54700008 .179 .536 .134 .53200009 .124000009 C .503 .063 .41000004 .036000004 .33200003 .036000004 C .23200003 .036000004 .101 .08400001 .101 .25300003 C .101 .36 .15100003 .49400006 .22500003 .569 C .32800005 .671 .435 .68700006 .49100007 .68700006 C .60700008 .68700006 .6750001 .603 .6750001 .49100004 C .6750001 .46300004 .67200008 .45600004 .67200008 .45000003 C .67200008 .43700005 .68500009 .43700005 .69000008 .43700005 C .70600005 .43700005 .70600005 .44000004 .711 .45900003 L .77300009 .71000006 Z "/>
</symbol>
<use xlink:href="#font_1_1" transform="matrix(19.371666,0,0,-19.371666,73.55046,108.77632)"/>
<path transform="matrix(2.7777777,0,0,-2.7777777,136.07222,67.87499)" stroke-width=".39848" stroke-linecap="butt" stroke-miterlimit="10" stroke-linejoin="miter" fill="none" stroke="#000000" d="M 8.79904 -16.92978 L 30.40413 -16.92978 "/>
<path transform="matrix(2.7777777,0,0,-2.7777777,220.52812,114.90215)" d="M 1.99245 0 L -1.19547 1.59395 L 0 0 L -1.19547 -1.59395 "/>
<symbol id="font_1_2">
<path d="M .772 .60200008 C .781 .63900008 .78300008 .647 .85700008 .647 C .87900009 .647 .89100006 .647 .89100006 .669 C .89100006 .67300006 .888 .683 .87500008 .683 C .846 .683 .77300009 .679 .744 .679 C .72700008 .679 .69200006 .679 .675 .68 C .65500006 .68100008 .63100007 .683 .61200007 .683 C .606 .683 .591 .683 .591 .661 C .591 .647 .60300007 .647 .623 .647 C .624 .647 .643 .647 .661 .64500007 C .68200007 .643 .684 .64100006 .684 .63100007 C .684 .63000008 .684 .624 .68 .609 L .62100008 .37300004 L .286 .37300004 L .344 .605 C .35300002 .63900008 .35500003 .647 .43200005 .647 C .449 .647 .462 .647 .462 .669 C .462 .67300006 .459 .683 .44600005 .683 C .41700004 .683 .344 .679 .315 .679 C .298 .679 .263 .679 .24600002 .68 C .22600001 .68100008 .20200002 .683 .183 .683 C .177 .683 .162 .683 .162 .661 C .162 .647 .17400001 .647 .194 .647 C .195 .647 .21400002 .647 .23200003 .64500007 C .25300003 .643 .255 .64100006 .255 .63100007 C .255 .629 .255 .624 .25100003 .609 L .118 .078 C .11 .044000005 .107999999 .036000004 .030000002 .036000004 C .012999997 .036000004 0 .036000004 0 .015000001 C 0 .0050000005 .0069999995 0 .015999996 0 C .045 0 .117 .004 .146 .004 C .163 .004 .19800002 .004 .215 .003 C .23500002 .002 .26000003 0 .279 0 C .284 0 .3 0 .3 .021000002 C .3 .036000004 .29000003 .036000004 .26700003 .036000004 C .25100003 .036000004 .24700001 .036000004 .229 .038000004 C .20700002 .041 .20700002 .043 .20700002 .053000004 C .20700002 .054 .20700002 .060000004 .211 .075 L .277 .337 L .61200007 .337 L .54700008 .078 C .53900006 .044000005 .537 .036000004 .459 .036000004 C .44200004 .036000004 .42900003 .036000004 .42900003 .015000001 C .42900003 .0050000005 .436 0 .445 0 C .47400005 0 .546 .004 .57500007 .004 C .592 .004 .62700006 .004 .64400008 .003 C .66400006 .002 .689 0 .708 0 C .71300008 0 .72900006 0 .72900006 .021000002 C .72900006 .036000004 .71900007 .036000004 .69600006 .036000004 C .68 .036000004 .67600008 .036000004 .65800008 .038000004 C .63600006 .041 .63600006 .043 .63600006 .053000004 C .63600006 .059000005 .639 .069000009 .64000007 .075 L .772 .60200008 Z "/>
</symbol>
<use xlink:href="#font_1_2" transform="matrix(19.371666,0,0,-19.371666,184.81996,108.388889)"/>
</g>
</svg>
