<svg width="185mm" height="130mm" version="1.1" viewBox="0 0 185 130" xmlns="http://www.w3.org/2000/svg" xmlns:xlink="http://www.w3.org/1999/xlink">
 <defs><pattern id="d" xlink:href="#e" patternTransform="matrix(.5758 .6372-5.6 5.1 64 35.3)"/><pattern id="e" xlink:href="#f" patternTransform="matrix(.5758 .6372-5.6 5.1 64 35.3)"/><pattern id="f" xlink:href="#g" patternTransform="matrix(.5758 .6372-5.6 5.1 74 44.4)"/><pattern id="g" xlink:href="#h" patternTransform="matrix(.5758 .6372-5.6 5.1 61.5 33.9)"/><pattern id="h" xlink:href="#i" patternTransform="matrix(2.176 2.408-21.4 19.3 232.6 128.2)"/><pattern id="i" xlink:href="#j" patternTransform="matrix(.5758 .6372-5.6 5.1 92.1 112)"/><pattern id="j" width="2" height="1" patternTransform="translate(0) scale(10)" patternUnits="userSpaceOnUse"><rect width="1" height="2"/></pattern></defs>
 <rect width="185" height="130" fill="#fff"/>
 <g fill="none" stroke="#000">
 <rect transform="rotate(-30)" x="77.4" y="148.7" width="30" height="17"/>
 <rect id="c" transform="rotate(15)" x="48.77" y="63.46" width="30" height="6" fill="url(#d)" stroke="#000"/>
 <rect transform="rotate(45)" x="31.82" y="16.28" width="25" height="12"/>
 <path id="b" d="m87.83 2.85 15.53 57.96-14.5 3.88-15.53-57.96c5.1 3.7 8.33-6.2 14.5-3.88z" fill="#ccc" stroke="#000"/>
 </g>
 <path d="m25.05 55.7 21.61 22.4 91-24.38 16.72 29" fill="none" stroke="#00f" stroke-width=".5"/>
 <use transform="rotate(180 96.65 64.74)" xlink:href="#b"/>
 <path id="a" d="m150.5 71.95 1.77 7.06-5.23-5.06 2.73 .73 .73-2.73" fill="#00f"/>
 <use transform="rotate(-75 123.6 87.65)" xlink:href="#a"/>
 <use transform="rotate(-15 58 507.3)" xlink:href="#a"/>
 <use transform="matrix(-.866-.5-.5 .866 216.7 2.63)" xlink:href="#c"/>
 <text style="font-family:'Times New Roman';-inkscape-font-specification:'Times New Roman'" font-size="8px" text-anchor="middle"><tspan x="44" y="39">X-ray tube</tspan><tspan x="77" y="66">Slit</tspan><tspan x="104" y="13">Shield</tspan><tspan x="140" y="35">Single</tspan><tspan x="140" y="41">crystal</tspan><tspan x="43" y="94">Graphite</tspan><tspan x="43" y="100">target</tspan><tspan x="158" y="112">Ionization</tspan><tspan x="158" y="118">chamber</tspan></text>
</svg>
