<?xml version="1.0" encoding="UTF-8" standalone="no"?>
<!-- Created with Serif DrawPlus 11, 0, 3, 23 (Feb 25, 14:12:55) (http://www.serif.com) -->
<svg version="1.1" xmlns="http://www.w3.org/2000/svg" xmlns:xlink="http://www.w3.org/1999/xlink" xmlns:inkscape="http://www.inkscape.org/namespaces/inkscape" width="214.108" height="200.296">
	<g id="dp_group001" transform="matrix(1,0,0,1,-341.359,-63.236)">
		<text id="dp_text001" transform="matrix(1,1.13311e-015,-1.13309e-015,1,465.789,188.589)" xml:space="preserve" fill="black" font-family="Arial" font-size="11" font-weight="400" font-style="italic" x="0" y="0">b</text>
		<text id="dp_text002" transform="matrix(1,1.13311e-015,-1.13309e-015,1,465.789,188.589)" xml:space="preserve" fill="black" font-family="Universal Math 1" font-size="11" font-weight="400" x="5.87467" y="0"> </text>
		<g id="dp_group004">
			<text id="dp_text003" transform="matrix(0.866026,-0.499999,0.500001,0.866025,514.257,133.544)" xml:space="preserve" fill="black" font-family="Arial" font-size="11" font-weight="400" x="0" y="0.00133333">Re</text>
			<text id="dp_text004" transform="matrix(0.866026,-0.499999,0.500001,0.866025,514.257,133.544)" xml:space="preserve" fill="black" font-family="Arial" font-size="11" font-weight="400" x="13.492" y="0.00133333">(</text>
			<text id="dp_text005" transform="matrix(0.866026,-0.499999,0.500001,0.866025,514.257,133.544)" xml:space="preserve" fill="black" font-family="Universal Math 1" font-size="11" font-weight="400" font-style="italic" x="17.0053" y="0.00133333">   </text>
			<text id="dp_text006" transform="matrix(0.866026,-0.499999,0.500001,0.866025,514.257,133.544)" xml:space="preserve" fill="black" font-family="Arial" font-size="11" font-weight="400" x="24.9333" y="0.00133333">)</text>
			<text id="dp_text007" transform="matrix(0.866026,-0.499999,0.500001,0.866025,514.257,133.544)" xml:space="preserve" fill="black" font-family="Universal Math 1" font-size="11" font-weight="400" x="28.4467" y="0.00133333"> </text>
			<path id="dp_path010" fill="black" fill-rule="evenodd" d="M 531.561,123.624 C 531.244,123.8 530.945,123.896 530.668,123.915 C 530.391,123.933 530.141,123.888 529.92,123.776 C 529.697,123.665 529.509,123.492 529.353,123.257 C 529.199,123.024 529.088,122.737 529.021,122.404 C 528.967,122.128 528.947,121.84 528.963,121.543 C 528.979,121.247 529.021,120.924 529.095,120.573 L 529.056,120.524 C 528.968,120.672 528.877,120.772 528.78,120.828 C 528.683,120.884 528.6,120.892 528.529,120.851 C 528.46,120.811 528.416,120.74 528.396,120.639 C 528.364,120.479 528.38,120.328 528.444,120.185 C 528.508,120.044 528.612,119.932 528.757,119.848 C 529.02,119.697 529.233,119.749 529.399,120.007 C 529.565,120.263 529.712,120.715 529.841,121.363 L 530.024,122.291 C 530.132,122.828 530.303,123.184 530.537,123.356 C 530.773,123.528 531.092,123.521 531.499,123.337 L 530.047,117.104 C 530.043,117.089 530.037,117.064 530.027,117.029 C 530.017,116.995 530.009,116.955 530,116.912 C 529.919,116.503 530.009,116.224 530.271,116.073 C 530.531,115.923 530.703,116.051 530.784,116.46 L 530.823,116.656 L 531.891,123.111 C 532.276,122.839 532.532,122.513 532.655,122.133 C 532.779,121.755 532.787,121.296 532.679,120.759 L 532.496,119.829 C 532.367,119.183 532.323,118.671 532.364,118.295 C 532.404,117.919 532.555,117.656 532.816,117.505 C 532.961,117.421 533.085,117.401 533.185,117.448 C 533.287,117.495 533.351,117.592 533.381,117.736 C 533.403,117.852 533.396,117.961 533.353,118.065 C 533.315,118.171 533.245,118.251 533.148,118.307 C 533.044,118.367 532.936,118.381 532.821,118.351 L 532.807,118.431 C 532.989,118.633 533.139,118.844 533.257,119.064 C 533.375,119.284 533.461,119.532 533.516,119.808 C 533.583,120.143 533.597,120.484 533.557,120.831 C 533.519,121.177 533.429,121.511 533.292,121.828 C 533.157,122.147 532.973,122.441 532.748,122.715 C 532.52,122.987 532.249,123.219 531.935,123.408 L 532.291,125.557 L 532.036,125.704 Z "/>
		</g>
		<g id="dp_group011">
			<text id="dp_text008" transform="matrix(1,0,0,1,489.606,93.3178)" xml:space="preserve" fill="#d90000" font-family="Arial" font-size="11" font-weight="400" x="0" y="0">(</text>
			<text id="dp_text009" transform="matrix(1,0,0,1,489.606,93.3178)" xml:space="preserve" fill="#d90000" font-family="Arial" font-size="11" font-weight="400" font-style="italic" x="3.51333" y="0">b</text>
			<text id="dp_text010" transform="matrix(1,0,0,1,489.606,93.3178)" xml:space="preserve" fill="#d90000" font-family="Arial" font-size="11" font-weight="400" x="9.388" y="0">) =</text>
			<text id="dp_text011" transform="matrix(1,0,0,1,489.606,93.3178)" xml:space="preserve" fill="#d90000" font-family="Universal Math 1" font-size="11" font-weight="400" x="21.98" y="0"> </text>
			<path id="dp_path016" fill="#d90000" fill-rule="evenodd" stroke="#d90000" stroke-width="0.666667" d="M 497.357,98.8573 L 497.345,114.123"/>
			<path id="dp_path017" fill="none" fill-rule="evenodd" stroke="#d90000" stroke-width="0.666667" d="M 506.989,98.8573 L 512.097,106.113 L 506.977,114.123"/>
			<path id="dp_path018" fill="none" fill-rule="evenodd" stroke="#d90000" stroke-width="0.666667" d="M 487.713,98.8573 L 482.607,106.113 L 487.725,114.123"/>
			<text id="dp_text012" transform="matrix(1,0,0,1,488.1,110.482)" xml:space="preserve" fill="#d90000" font-family="Arial" font-size="11" font-weight="400" font-style="italic" x="0" y="0">b</text>
			<text id="dp_text013" transform="matrix(1,0,0,1,488.1,110.482)" xml:space="preserve" fill="#d90000" font-family="Universal Math 1" font-size="11" font-weight="400" font-style="italic" x="5.87467" y="0"> </text>
			<path id="dp_path021" fill="#d90000" fill-rule="evenodd" d="M 485.504,93.48 C 485.141,93.4733 484.835,93.408 484.585,93.2853 C 484.336,93.1627 484.143,92.9987 484.007,92.7907 C 483.869,92.584 483.793,92.34 483.776,92.0587 C 483.759,91.7787 483.805,91.476 483.915,91.1533 C 484.005,90.8867 484.132,90.628 484.295,90.3787 C 484.456,90.1293 484.655,89.872 484.893,89.6053 L 484.884,89.5427 C 484.735,89.6267 484.605,89.668 484.493,89.668 C 484.381,89.668 484.305,89.6333 484.265,89.5627 C 484.225,89.4933 484.223,89.4093 484.256,89.312 C 484.308,89.1573 484.397,89.0347 484.524,88.944 C 484.649,88.8533 484.796,88.808 484.964,88.808 C 485.267,88.808 485.425,88.96 485.44,89.2667 C 485.456,89.5707 485.357,90.036 485.145,90.6613 L 484.84,91.5573 C 484.664,92.076 484.635,92.4693 484.752,92.736 C 484.869,93.0027 485.149,93.1573 485.593,93.2 L 487.453,87.076 C 487.457,87.0613 487.464,87.0373 487.473,87.0013 C 487.483,86.9667 487.495,86.928 487.508,86.8867 C 487.643,86.492 487.86,86.296 488.161,86.296 C 488.463,86.296 488.547,86.492 488.413,86.8867 L 488.348,87.076 L 486.047,93.2 C 486.516,93.1573 486.9,93.0027 487.196,92.736 C 487.493,92.4693 487.729,92.076 487.905,91.5573 L 488.211,90.6613 C 488.423,90.036 488.64,89.5707 488.864,89.2667 C 489.087,88.96 489.349,88.808 489.651,88.808 C 489.819,88.808 489.935,88.8533 489.999,88.944 C 490.063,89.0347 490.071,89.1507 490.024,89.2907 C 489.985,89.4027 489.924,89.4933 489.836,89.5627 C 489.749,89.6333 489.649,89.668 489.537,89.668 C 489.417,89.668 489.316,89.6267 489.232,89.5427 L 489.18,89.6053 C 489.236,89.872 489.26,90.1293 489.253,90.3787 C 489.245,90.628 489.196,90.8867 489.105,91.1533 C 488.996,91.476 488.837,91.7787 488.629,92.0587 C 488.423,92.34 488.179,92.584 487.901,92.7907 C 487.625,92.9987 487.319,93.1627 486.987,93.2853 C 486.653,93.408 486.303,93.4733 485.936,93.48 L 485.169,95.5187 L 484.875,95.5187 Z "/>
			<path id="dp_path022" fill="#d90000" fill-rule="evenodd" d="M 501.904,109.88 C 501.541,109.873 501.235,109.808 500.985,109.685 C 500.736,109.563 500.543,109.399 500.407,109.191 C 500.269,108.984 500.193,108.74 500.176,108.459 C 500.159,108.179 500.205,107.876 500.315,107.553 C 500.405,107.287 500.532,107.028 500.695,106.779 C 500.856,106.529 501.055,106.272 501.293,106.005 L 501.284,105.943 C 501.135,106.027 501.005,106.068 500.893,106.068 C 500.781,106.068 500.705,106.033 500.665,105.963 C 500.625,105.893 500.623,105.809 500.656,105.712 C 500.708,105.557 500.797,105.435 500.924,105.344 C 501.049,105.253 501.196,105.208 501.364,105.208 C 501.667,105.208 501.825,105.36 501.84,105.667 C 501.856,105.971 501.757,106.436 501.545,107.061 L 501.24,107.957 C 501.064,108.476 501.035,108.869 501.152,109.136 C 501.269,109.403 501.549,109.557 501.993,109.6 L 503.853,103.476 C 503.857,103.461 503.864,103.437 503.873,103.401 C 503.883,103.367 503.895,103.328 503.908,103.287 C 504.043,102.892 504.26,102.696 504.561,102.696 C 504.863,102.696 504.947,102.892 504.813,103.287 L 504.748,103.476 L 502.447,109.6 C 502.916,109.557 503.3,109.403 503.596,109.136 C 503.893,108.869 504.129,108.476 504.305,107.957 L 504.611,107.061 C 504.823,106.436 505.04,105.971 505.264,105.667 C 505.487,105.36 505.749,105.208 506.051,105.208 C 506.219,105.208 506.335,105.253 506.399,105.344 C 506.463,105.435 506.471,105.551 506.424,105.691 C 506.385,105.803 506.324,105.893 506.236,105.963 C 506.149,106.033 506.049,106.068 505.937,106.068 C 505.817,106.068 505.716,106.027 505.632,105.943 L 505.58,106.005 C 505.636,106.272 505.66,106.529 505.653,106.779 C 505.645,107.028 505.596,107.287 505.505,107.553 C 505.396,107.876 505.237,108.179 505.029,108.459 C 504.823,108.74 504.579,108.984 504.301,109.191 C 504.025,109.399 503.719,109.563 503.387,109.685 C 503.053,109.808 502.703,109.873 502.336,109.88 L 501.569,111.919 L 501.275,111.919 Z "/>
		</g>
		<g id="dp_group023">
			<text id="dp_text014" transform="matrix(2.22045e-016,-1,1,2.77555e-016,441.869,89.8856)" xml:space="preserve" fill="black" font-family="Arial" font-size="11" font-weight="400" x="0" y="0.00133333">Im</text>
			<text id="dp_text015" transform="matrix(2.22045e-016,-1,1,2.77555e-016,441.869,89.8856)" xml:space="preserve" fill="black" font-family="Arial" font-size="11" font-weight="400" x="11.6947" y="0.00133333">(</text>
			<text id="dp_text016" transform="matrix(2.22045e-016,-1,1,2.77555e-016,441.869,89.8856)" xml:space="preserve" fill="black" font-family="Universal Math 1" font-size="11" font-weight="400" font-style="italic" x="15.208" y="0.00133333">   </text>
			<text id="dp_text017" transform="matrix(2.22045e-016,-1,1,2.77555e-016,441.869,89.8856)" xml:space="preserve" fill="black" font-family="Arial" font-size="11" font-weight="400" x="23.136" y="0.00133333">)</text>
			<text id="dp_text018" transform="matrix(2.22045e-016,-1,1,2.77555e-016,441.869,89.8856)" xml:space="preserve" fill="black" font-family="Universal Math 1" font-size="11" font-weight="400" x="26.6493" y="0.00133333"> </text>
			<path id="dp_path029" fill="black" fill-rule="evenodd" d="M 441.856,72.0947 C 441.849,72.4573 441.784,72.764 441.661,73.0133 C 441.539,73.2627 441.375,73.456 441.167,73.592 C 440.96,73.7293 440.716,73.8053 440.435,73.8227 C 440.155,73.84 439.852,73.7933 439.529,73.684 C 439.263,73.5933 439.004,73.4667 438.755,73.304 C 438.505,73.1427 438.248,72.944 437.981,72.7053 L 437.919,72.7147 C 438.003,72.864 438.044,72.9933 438.044,73.1053 C 438.044,73.2173 438.009,73.2933 437.939,73.3333 C 437.869,73.3733 437.785,73.376 437.688,73.3427 C 437.533,73.2907 437.411,73.2013 437.32,73.0747 C 437.229,72.9493 437.184,72.8027 437.184,72.6347 C 437.184,72.332 437.336,72.1733 437.643,72.1587 C 437.947,72.1427 438.412,72.2413 439.037,72.4533 L 439.933,72.7587 C 440.452,72.9347 440.845,72.964 441.112,72.8467 C 441.379,72.7293 441.533,72.4493 441.576,72.0053 L 435.452,70.1453 C 435.437,70.1413 435.413,70.1347 435.377,70.1253 C 435.343,70.116 435.304,70.104 435.263,70.0907 C 434.868,69.956 434.672,69.7387 434.672,69.4373 C 434.672,69.136 434.868,69.052 435.263,69.1853 L 435.452,69.2507 L 441.576,71.552 C 441.533,71.0827 441.379,70.6987 441.112,70.4027 C 440.845,70.1053 440.452,69.8693 439.933,69.6933 L 439.037,69.388 C 438.412,69.176 437.947,68.9587 437.643,68.7347 C 437.336,68.512 437.184,68.2493 437.184,67.948 C 437.184,67.78 437.229,67.664 437.32,67.6 C 437.411,67.536 437.527,67.528 437.667,67.5747 C 437.779,67.6133 437.869,67.6747 437.939,67.7627 C 438.009,67.8493 438.044,67.9493 438.044,68.0613 C 438.044,68.1813 438.003,68.2827 437.919,68.3667 L 437.981,68.4187 C 438.248,68.3627 438.505,68.3387 438.755,68.3453 C 439.004,68.3533 439.263,68.4027 439.529,68.4933 C 439.852,68.6027 440.155,68.7613 440.435,68.9693 C 440.716,69.176 440.96,69.42 441.167,69.6973 C 441.375,69.9733 441.539,70.28 441.661,70.612 C 441.784,70.9453 441.849,71.296 441.856,71.6627 L 443.895,72.4293 L 443.895,72.724 Z "/>
		</g>
		<g id="dp_group030">
			<g id="dp_group031">
				<path id="dp_path032" fill="#d90000" fill-rule="evenodd" stroke="#d90000" stroke-width="0.666667" d="M 356.511,148.632 L 356.499,163.897"/>
				<path id="dp_path033" fill="none" fill-rule="evenodd" stroke="#d90000" stroke-width="0.666667" d="M 366.143,148.632 L 371.249,155.888 L 366.131,163.899"/>
				<path id="dp_path034" fill="none" fill-rule="evenodd" stroke="#d90000" stroke-width="0.666667" d="M 346.867,148.632 L 341.759,155.888 L 346.879,163.899"/>
				<text id="dp_text019" transform="matrix(1,0,0,1,347.253,160.257)" xml:space="preserve" fill="#d90000" font-family="Arial" font-size="11" font-weight="400" font-style="italic" x="0" y="0">a</text>
				<text id="dp_text020" transform="matrix(1,0,0,1,347.253,160.257)" xml:space="preserve" fill="#d90000" font-family="Universal Math 1" font-size="11" font-weight="400" font-style="italic" x="5.87467" y="0"> </text>
				<path id="dp_path037" fill="#d90000" fill-rule="evenodd" d="M 361.892,160.232 C 361.529,160.225 361.223,160.16 360.973,160.037 C 360.724,159.915 360.531,159.751 360.395,159.543 C 360.257,159.336 360.18,159.091 360.164,158.811 C 360.147,158.529 360.193,158.228 360.303,157.904 C 360.393,157.639 360.52,157.38 360.683,157.131 C 360.844,156.881 361.043,156.624 361.281,156.356 L 361.272,156.293 C 361.123,156.377 360.993,156.42 360.881,156.42 C 360.769,156.42 360.693,156.385 360.653,156.315 C 360.613,156.245 360.611,156.161 360.644,156.063 C 360.696,155.908 360.785,155.787 360.912,155.695 C 361.037,155.604 361.184,155.559 361.352,155.559 C 361.655,155.559 361.813,155.712 361.828,156.017 C 361.844,156.323 361.745,156.788 361.533,157.412 L 361.228,158.308 C 361.052,158.828 361.023,159.221 361.14,159.488 C 361.257,159.755 361.537,159.909 361.981,159.951 L 363.841,153.827 C 363.845,153.812 363.852,153.788 363.861,153.753 C 363.871,153.717 363.883,153.679 363.896,153.637 C 364.031,153.244 364.248,153.047 364.549,153.047 C 364.851,153.047 364.936,153.244 364.801,153.637 L 364.737,153.827 L 362.435,159.951 C 362.904,159.909 363.288,159.755 363.584,159.488 C 363.881,159.221 364.117,158.828 364.295,158.308 L 364.599,157.412 C 364.811,156.788 365.029,156.323 365.252,156.017 C 365.475,155.712 365.737,155.559 366.039,155.559 C 366.208,155.559 366.324,155.604 366.388,155.695 C 366.452,155.787 366.46,155.901 366.412,156.043 C 366.375,156.153 366.312,156.245 366.225,156.315 C 366.137,156.385 366.039,156.42 365.925,156.42 C 365.807,156.42 365.705,156.377 365.621,156.293 L 365.568,156.356 C 365.624,156.624 365.649,156.881 365.641,157.131 C 365.633,157.38 365.585,157.639 365.495,157.904 C 365.384,158.228 365.227,158.529 365.019,158.811 C 364.811,159.091 364.568,159.336 364.289,159.543 C 364.013,159.751 363.708,159.915 363.375,160.037 C 363.041,160.16 362.691,160.225 362.324,160.232 L 361.557,162.271 L 361.263,162.271 Z "/>
			</g>
			<path id="dp_path038" fill="#d90000" fill-rule="evenodd" d="M 344.68,143.207 C 344.317,143.2 344.011,143.135 343.761,143.012 C 343.512,142.889 343.319,142.725 343.183,142.517 C 343.045,142.311 342.969,142.067 342.952,141.785 C 342.935,141.505 342.981,141.203 343.091,140.88 C 343.181,140.613 343.308,140.355 343.471,140.105 C 343.632,139.856 343.831,139.599 344.069,139.332 L 344.06,139.269 C 343.911,139.353 343.781,139.395 343.669,139.395 C 343.557,139.395 343.481,139.36 343.441,139.289 C 343.401,139.22 343.399,139.136 343.432,139.039 C 343.484,138.884 343.573,138.761 343.7,138.671 C 343.825,138.58 343.972,138.535 344.14,138.535 C 344.443,138.535 344.601,138.687 344.616,138.993 C 344.632,139.297 344.533,139.763 344.321,140.388 L 344.016,141.284 C 343.84,141.803 343.811,142.196 343.928,142.463 C 344.045,142.729 344.325,142.884 344.769,142.927 L 346.629,136.803 C 346.633,136.788 346.64,136.764 346.649,136.728 C 346.659,136.693 346.671,136.655 346.684,136.613 C 346.819,136.219 347.036,136.023 347.337,136.023 C 347.639,136.023 347.723,136.219 347.589,136.613 L 347.524,136.803 L 345.223,142.927 C 345.692,142.884 346.076,142.729 346.372,142.463 C 346.669,142.196 346.905,141.803 347.081,141.284 L 347.387,140.388 C 347.599,139.763 347.816,139.297 348.04,138.993 C 348.263,138.687 348.525,138.535 348.827,138.535 C 348.995,138.535 349.111,138.58 349.175,138.671 C 349.239,138.761 349.247,138.877 349.2,139.017 C 349.161,139.129 349.1,139.22 349.012,139.289 C 348.925,139.36 348.825,139.395 348.713,139.395 C 348.593,139.395 348.492,139.353 348.408,139.269 L 348.356,139.332 C 348.412,139.599 348.436,139.856 348.429,140.105 C 348.421,140.355 348.372,140.613 348.281,140.88 C 348.172,141.203 348.013,141.505 347.805,141.785 C 347.599,142.067 347.355,142.311 347.077,142.517 C 346.801,142.725 346.495,142.889 346.163,143.012 C 345.829,143.135 345.479,143.2 345.112,143.207 L 344.345,145.245 L 344.051,145.245 Z "/>
			<text id="dp_text021" transform="matrix(1,0,0,1,349.759,143.093)" xml:space="preserve" fill="#d90000" font-family="Arial" font-size="11" font-weight="400" x="0" y="0">(</text>
			<text id="dp_text022" transform="matrix(1,0,0,1,349.759,143.093)" xml:space="preserve" fill="#d90000" font-family="Arial" font-size="11" font-weight="400" font-style="italic" x="3.51333" y="0">a</text>
			<text id="dp_text023" transform="matrix(1,0,0,1,349.759,143.093)" xml:space="preserve" fill="#d90000" font-family="Arial" font-size="11" font-weight="400" x="9.388" y="0">) =</text>
			<text id="dp_text024" transform="matrix(1,0,0,1,349.759,143.093)" xml:space="preserve" fill="#d90000" font-family="Universal Math 1" font-size="11" font-weight="400" x="21.98" y="0"> </text>
		</g>
		<path id="dp_path043" fill="#fac400" fill-rule="evenodd" stroke="none" stroke-width="1.33333" d="M 517.661,178.227 L 538.415,166.151 C 530.417,166.153 513.231,171.409 504.687,178.048 Z "/>
		<path id="dp_path044" fill="#fac400" fill-rule="evenodd" stroke="none" stroke-width="1.33333" d="M 445.487,178.339 C 455.424,172.767 486.4,157.969 491.061,158.431 S 485.927,171.988 479.261,178.227 Z "/>
		<g id="dp_group045">
			<g id="dp_group046">
				<path id="dp_path047" fill="#d90000" fill-rule="evenodd" d="M 487.075,125.465 L 488.332,125.911 L 490.4,128.057 L 489.261,121.289 L 484.116,125.832 Z "/>
				<path id="dp_path048" fill="#d90000" d="M 487.076,125.465 L 468.475,178.003 L 469.731,178.448 L 488.332,125.911 Z "/>
			</g>
		</g>
		<g id="dp_group049">
			<g id="dp_group050">
				<path id="dp_path051" fill="#d90000" fill-rule="evenodd" d="M 483.233,168.767 L 483.9,169.921 L 485.233,172.231 L 489.34,166.011 L 481.9,166.457 Z "/>
				<path id="dp_path052" fill="#d90000" d="M 483.233,168.767 L 467.853,177.645 L 468.52,178.8 L 483.9,169.921 Z "/>
			</g>
		</g>
		<path id="dp_path053" fill="#fac400" fill-rule="evenodd" stroke="none" stroke-width="1.33333" d="M 401.132,178.079 C 408.741,173.536 424.325,166.496 428.661,166.452 S 429.24,172.755 420.696,178.096 Z "/>
		<path id="dp_path054" fill="#fac400" fill-rule="evenodd" stroke="none" stroke-width="1.33333" d="M 365.739,178.032 L 403.912,156.105 C 398.915,164.108 392.016,171.393 383.472,178.032 Z "/>
		<g id="dp_group055">
			<g id="dp_group056">
				<path id="dp_path057" fill="black" fill-rule="evenodd" d="M 507.377,138.324 L 508.044,139.479 L 509.377,141.788 L 513.484,135.568 L 506.044,136.015 Z "/>
				<path id="dp_path058" fill="black" d="M 507.377,138.324 L 365.392,220.299 L 366.059,221.453 L 508.044,139.479 Z "/>
			</g>
		</g>
		<path id="dp_path059" fill="#0010fa" fill-rule="evenodd" fill-opacity="0.803922" stroke="none" stroke-width="1.33333" d="M 521.701,178.032 L 521.061,129.893 C 513.66,129.96 506.571,206.156 498.752,206.14 S 481.575,122.644 474.064,123.327 S 454.58,227.879 446.537,227.921 S 434.997,169.847 424.228,165.637 S 406.005,202.395 401.224,203.017 S 388.768,134.069 382.675,134.635 S 369.757,213.071 355.741,216.452 L 355.763,178.032 Z "/>
		<g id="dp_group060">
			<g id="dp_group061">
				<path id="dp_path062" fill="black" fill-rule="evenodd" d="M 541.271,177.559 L 541.271,178.892 L 541.271,181.559 L 547.937,178.225 L 541.271,174.892 Z "/>
				<path id="dp_path063" fill="black" d="M 541.271,177.559 L 354.296,177.559 L 354.296,178.892 L 541.271,178.892 Z "/>
			</g>
		</g>
		<g id="dp_group064">
			<g id="dp_group065">
				<path id="dp_path066" fill="black" fill-rule="evenodd" d="M 438.936,99.5813 L 440.269,99.5813 L 442.936,99.5813 L 439.603,92.9147 L 436.269,99.5813 Z "/>
				<path id="dp_path067" fill="black" d="M 438.936,99.5813 L 438.936,263.531 L 440.269,263.531 L 440.269,99.5813 Z "/>
			</g>
		</g>
		<path id="dp_path068" fill="#fac400" fill-rule="evenodd" stroke="none" stroke-width="1.33333" d="M 400.353,178.261 C 392.744,182.804 375.383,190.768 371.301,190.709 S 375.128,183.587 383.672,178.245 Z "/>
		<path id="dp_path069" fill="#fac400" fill-rule="evenodd" stroke="none" stroke-width="1.33333" d="M 445.485,178.356 C 435.548,183.928 406.997,198.188 401.787,198.128 S 413.881,183.167 420.696,178.34 Z "/>
		<g id="dp_group070">
			<g id="dp_group071">
				<path id="dp_path072" fill="#d90000" fill-rule="evenodd" d="M 468.28,141.337 L 469.613,141.337 L 472.28,141.337 L 468.947,134.671 L 465.613,141.337 Z "/>
				<path id="dp_path073" fill="#d90000" d="M 468.28,141.337 L 468.28,178.048 L 469.613,178.048 L 469.613,141.337 Z "/>
			</g>
		</g>
		<path id="dp_path074" fill="#fac400" fill-rule="evenodd" stroke="none" stroke-width="1.33333" d="M 504.685,178.048 C 494.748,183.62 475.872,190.691 470.661,190.631 S 473.081,182.859 479.896,178.032 Z "/>
		<g id="dp_group075">
			<g id="dp_group076">
				<path id="dp_path077" fill="#d90000" fill-rule="evenodd" d="M 378.236,184.923 L 377.569,183.768 L 376.236,181.459 L 372.129,187.679 L 379.569,187.232 Z "/>
				<path id="dp_path078" fill="#d90000" d="M 378.236,184.923 L 388.933,178.747 L 388.267,177.592 L 377.569,183.768 Z "/>
			</g>
		</g>
		<g id="dp_group079">
			<g id="dp_group080">
				<path id="dp_path081" fill="#d90000" fill-rule="evenodd" d="M 387.932,156.316 L 389.265,156.316 L 391.932,156.316 L 388.599,149.649 L 385.265,156.316 Z "/>
				<path id="dp_path082" fill="#d90000" d="M 387.932,156.316 L 387.932,178.168 L 389.265,178.168 L 389.265,156.316 Z "/>
			</g>
		</g>
		<g id="dp_group083">
			<g id="dp_group084">
				<path id="dp_path085" fill="#d90000" fill-rule="evenodd" d="M 376.027,164.865 L 377.028,163.985 L 379.032,162.225 L 372.128,159.417 L 374.024,166.625 Z "/>
				<path id="dp_path086" fill="#d90000" d="M 376.027,164.865 L 388.1,178.609 L 389.103,177.729 L 377.029,163.985 Z "/>
			</g>
		</g>
		<text id="dp_text025" transform="matrix(1,1.6395e-006,1.63951e-006,1,549.816,182.867)" xml:space="preserve" fill="black" font-family="Arial" font-size="11" font-weight="400" font-style="italic" x="0" y="0.00133333">x</text>
		<text id="dp_text026" transform="matrix(1,1.6395e-006,1.63951e-006,1,549.816,182.867)" xml:space="preserve" fill="black" font-family="Universal Math 1" font-size="11" font-weight="400" font-style="italic" x="5.28533" y="0.00133333"> </text>
		<text id="dp_text027" transform="matrix(1,0,0,1,385.333,185.625)" xml:space="preserve" fill="black" font-family="Arial" font-size="11" font-weight="400" font-style="italic" x="0" y="0">a </text>
	</g>
</svg>