<?xml version="1.0" encoding="UTF-8" standalone="no"?>
<!-- Created with Inkscape (http://www.inkscape.org/) -->
<svg xmlns:rdf="http://www.w3.org/1999/02/22-rdf-syntax-ns#" xmlns="http://www.w3.org/2000/svg" xmlns:cc="http://creativecommons.org/ns#" xmlns:xlink="http://www.w3.org/1999/xlink" xmlns:dc="http://purl.org/dc/elements/1.1/" height="400" width="560" version="1.0" y="0" x="0">

 <metadata>

  <rdf:RDF>

   <cc:Work rdf:about="">

    <dc:format>image/svg+xml</dc:format>

    <dc:type rdf:resource="http://purl.org/dc/dcmitype/StillImage"/>

    <dc:title/>

   </cc:Work>

  </rdf:RDF>

 </metadata>

 <defs/>

 <path style="stroke-linejoin:miter;marker-end:none;marker-start:none;stroke:#000000;stroke-linecap:butt;stroke-width:0.85672951px;fill:none;" d="M 519.68743,356.52666 43.685213,355.80192 41.659672,43.443172"/>

 <path style="stroke-linejoin:miter;stroke:#4040ff;stroke-linecap:butt;stroke-miterlimit:4;stroke-dasharray:none;stroke-width:2.5;fill:none;" d="M 71.874465,210.42304 C 194.73726,481.27913 432.1898,80.179063 432.1898,80.179063"/>

 <switch style="font-size:24.91446495px;font-family:Bitstream Vera Sans;fill:#000000;"><text style="font-size:24.91446495px;font-family:Bitstream Vera Sans;fill:#000000;" transform="scale(.98783 1.0123)" y="85.331078" x="451.50427" id="trsvg5"><tspan y="85.331078" x="451.50427" id="trsvg1">MC</tspan></text></switch>

 <switch style="font-size:25.40434265px;font-family:Bitstream Vera Sans;fill:#000000;"><text style="font-size:25.40434265px;font-family:Bitstream Vera Sans;fill:#000000;" transform="scale(.98783 1.0123)" y="28.006947" x="10.854063" id="trsvg6-zh" systemLanguage="zh"><tspan y="28.006947" x="10.854063" id="trsvg2-zh">價格</tspan></text><text style="font-size:25.40434265px;font-family:Bitstream Vera Sans;fill:#000000;" transform="scale(.98783 1.0123)" y="28.006947" x="10.854063" id="trsvg6"><tspan y="28.006947" x="10.854063" id="trsvg2">Price</tspan></text></switch>

 <switch style="font-size:23.49279404px;font-family:Bitstream Vera Sans;fill:#000000;"><text style="font-size:23.49279404px;font-family:Bitstream Vera Sans;fill:#000000;" transform="scale(.98783 1.0123)" y="379.82175" x="463.51132" id="trsvg7-zh" systemLanguage="zh"><tspan y="379.82175" x="463.51132" id="trsvg3-zh">數量</tspan></text><text style="font-size:23.49279404px;font-family:Bitstream Vera Sans;fill:#000000;" transform="scale(.98783 1.0123)" y="379.82175" x="463.51132" id="trsvg7"><tspan y="379.82175" x="463.51132" id="trsvg3">Quantity</tspan></text></switch>

 <path style="fill-rule:nonzero;fill:#000000;" d="m 41.502708,37.688607 6.925724,17.257364 c 0,0 -5.9813,-8.428014 -13.221829,0 l 6.296105,-17.257364 z"/>

 <path style="fill-rule:nonzero;fill:#000000;" d="m 533.78484,355.46606 -17.25736,6.92573 c 0,0 8.42801,-5.98131 0,-13.22183 l 17.25736,6.2961 z"/>

 <path style="stroke-linejoin:miter;stroke:#0000ff;stroke-linecap:butt;stroke-miterlimit:4;stroke-dasharray:none;stroke-width:2.58985543;fill:none;" d="m 69.684544,172.72727 362.371166,0 0,0"/>

 <switch style="font-size:24.91446495px;font-family:Bitstream Vera Sans;fill:#000000;"><text style="font-size:24.91446495px;font-family:Bitstream Vera Sans;fill:#000000;" transform="scale(.98783 1.0123)" y="179.54214" x="449.45258" id="trsvg8"><tspan y="179.54214" x="449.45258" id="trsvg4">MR</tspan></text></switch>

</svg>
