<?xml version="1.0" encoding="UTF-8" standalone="no"?>
<svg
   xmlns:dc="http://purl.org/dc/elements/1.1/"
   xmlns:cc="http://creativecommons.org/ns#"
   xmlns:rdf="http://www.w3.org/1999/02/22-rdf-syntax-ns#"
   xmlns:svg="http://www.w3.org/2000/svg"
   xmlns="http://www.w3.org/2000/svg"
   xmlns:sodipodi="http://sodipodi.sourceforge.net/DTD/sodipodi-0.dtd"
   xmlns:inkscape="http://www.inkscape.org/namespaces/inkscape"
   sodipodi:docname="Coulombslaw.svg"
   inkscape:version="1.0 (4035a4fb49, 2020-05-01)"
   version="1.1"
   id="svg2"
   height="66.716484"
   width="392.3212">
  <sodipodi:namedview
     inkscape:document-rotation="0"
     fit-margin-bottom="10"
     fit-margin-right="10"
     fit-margin-left="10"
     fit-margin-top="10"
     inkscape:guide-bbox="true"
     showguides="true"
     inkscape:window-maximized="1"
     inkscape:window-y="-9"
     inkscape:window-x="-9"
     inkscape:window-height="1001"
     inkscape:window-width="1920"
     showgrid="false"
     inkscape:current-layer="layer1"
     inkscape:document-units="px"
     inkscape:cy="3.9001097"
     inkscape:cx="222.68278"
     inkscape:zoom="2.8"
     inkscape:pageshadow="2"
     inkscape:pageopacity="0.0"
     borderopacity="1.0"
     bordercolor="#666666"
     pagecolor="#ffffff"
     id="base">
    <sodipodi:guide
       orientation="0,1"
       position="-1.8478349,22.842274"
       id="guide4206" />
    <sodipodi:guide
       orientation="1,0"
       position="93.152161,82.127984"
       id="guide4472" />
    <sodipodi:guide
       orientation="1,0"
       position="289.93787,69.270844"
       id="guide4474" />
    <sodipodi:guide
       orientation="0,1"
       position="-2.5621249,43.199414"
       id="guide4476" />
    <sodipodi:guide
       orientation="0,1"
       position="-26.847835,35.342274"
       id="guide3041" />
    <sodipodi:guide
       orientation="1,0"
       position="16.009301,22.842274"
       id="guide3045" />
    <sodipodi:guide
       orientation="1,0"
       position="368.15216,22.842274"
       id="guide3047" />
  </sodipodi:namedview>
  <defs
     id="defs4">
    <marker
       inkscape:stockid="Arrow2Mend"
       orient="auto"
       refY="0"
       refX="0"
       id="Arrow2Mend"
       style="overflow:visible">
      <path
         id="path3788"
         style="fill-rule:evenodd;stroke-width:0.625;stroke-linejoin:round"
         d="M 8.7185878,4.0337352 -2.2072895,0.01601326 8.7185884,-4.0017078 c -1.7454984,2.3720609 -1.7354408,5.6174519 -6e-7,8.035443 z"
         transform="scale(-0.6,-0.6)"
         inkscape:connector-curvature="0" />
    </marker>
    <marker
       inkscape:stockid="Arrow2Mend"
       orient="auto"
       refY="0"
       refX="0"
       id="Arrow2Mend-5"
       style="overflow:visible">
      <path
         id="path3788-9"
         style="fill-rule:evenodd;stroke-width:0.625;stroke-linejoin:round"
         d="M 8.7185878,4.0337352 -2.2072895,0.01601326 8.7185884,-4.0017078 c -1.7454984,2.3720609 -1.7354408,5.6174519 -6e-7,8.035443 z"
         transform="scale(-0.6,-0.6)"
         inkscape:connector-curvature="0" />
    </marker>
    <marker
       inkscape:stockid="Arrow2Mend"
       orient="auto"
       refY="0"
       refX="0"
       id="Arrow2Mend-7"
       style="overflow:visible">
      <path
         id="path3788-2"
         style="fill-rule:evenodd;stroke-width:0.625;stroke-linejoin:round"
         d="M 8.7185878,4.0337352 -2.2072895,0.01601326 8.7185884,-4.0017078 c -1.7454984,2.3720609 -1.7354408,5.6174519 -6e-7,8.035443 z"
         transform="scale(-0.6,-0.6)"
         inkscape:connector-curvature="0" />
    </marker>
    <marker
       inkscape:stockid="Arrow2Mend-7v"
       orient="auto"
       refY="0"
       refX="0"
       id="Arrow2Mend-7v"
       style="overflow:visible">
      <path
         id="path4065"
         style="fill:#ff0000;fill-rule:evenodd;stroke:#ff0000;stroke-width:0.625;stroke-linejoin:round"
         d="M 8.7185878,4.0337352 -2.2072895,0.01601326 8.7185884,-4.0017078 c -1.7454984,2.3720609 -1.7354408,5.6174519 -6e-7,8.035443 z"
         transform="scale(-0.6,-0.6)"
         inkscape:connector-curvature="0" />
    </marker>
    <marker
       inkscape:stockid="Arrow2Mend-7v0"
       orient="auto"
       refY="0"
       refX="0"
       id="Arrow2Mend-7v0"
       style="overflow:visible">
      <path
         id="path4126"
         style="fill:#000000;fill-rule:evenodd;stroke:#000000;stroke-width:0.625;stroke-linejoin:round"
         d="M 8.7185878,4.0337352 -2.2072895,0.01601326 8.7185884,-4.0017078 c -1.7454984,2.3720609 -1.7354408,5.6174519 -6e-7,8.035443 z"
         transform="scale(-0.6,-0.6)"
         inkscape:connector-curvature="0" />
    </marker>
    <marker
       inkscape:stockid="Arrow2Mend-7v0"
       orient="auto"
       refY="0"
       refX="0"
       id="Arrow2Mend-7v0-0"
       style="overflow:visible">
      <path
         id="path4126-4"
         style="fill:#000000;fill-rule:evenodd;stroke:#000000;stroke-width:0.625;stroke-linejoin:round"
         d="M 8.7185878,4.0337352 -2.2072895,0.01601326 8.7185884,-4.0017078 c -1.7454984,2.3720609 -1.7354408,5.6174519 -6e-7,8.035443 z"
         transform="scale(-0.6,-0.6)"
         inkscape:connector-curvature="0" />
    </marker>
  </defs>
  <metadata
     id="metadata7">
    <rdf:RDF>
      <cc:Work
         rdf:about="">
        <dc:format>image/svg+xml</dc:format>
        <dc:type
           rdf:resource="http://purl.org/dc/dcmitype/StillImage" />
        <dc:title />
      </cc:Work>
    </rdf:RDF>
  </metadata>
  <g
     transform="translate(-168.99069,-394.91654)"
     inkscape:label="Layer 1"
     inkscape:groupmode="layer"
     id="layer1">
    <path
       sodipodi:type="arc"
       style="fill:#000000;stroke:#000000;stroke-width:1.05140007;stroke-linecap:butt;stroke-linejoin:miter;stroke-miterlimit:4;stroke-opacity:1;stroke-dasharray:none"
       id="path3810"
       sodipodi:cx="278.80209"
       sodipodi:cy="431.11838"
       sodipodi:rx="12.121831"
       sodipodi:ry="13.131983"
       d="m 290.92392,431.11838 c 0,7.25259 -5.42712,13.13198 -12.12183,13.13198 -6.6947,0 -12.12183,-5.87939 -12.12183,-13.13198 0,-7.2526 5.42713,-13.13199 12.12183,-13.13199 6.69471,0 12.12183,5.87939 12.12183,13.13199 z"
       transform="matrix(0.98994946,0,0,0.91379955,-13.857122,45.192117)" />
    <path
       sodipodi:type="arc"
       style="fill:#000000;stroke:#000000;stroke-width:1.05140007;stroke-linecap:butt;stroke-linejoin:miter;stroke-miterlimit:4;stroke-opacity:1;stroke-dasharray:none"
       id="path3810-9"
       sodipodi:cx="278.80209"
       sodipodi:cy="431.11838"
       sodipodi:rx="12.121831"
       sodipodi:ry="13.131983"
       d="m 290.92392,431.11838 c 0,7.25259 -5.42712,13.13198 -12.12183,13.13198 -6.6947,0 -12.12183,-5.87939 -12.12183,-13.13198 0,-7.2526 5.42713,-13.13199 12.12183,-13.13199 6.69471,0 12.12183,5.87939 12.12183,13.13199 z"
       transform="matrix(0.98994946,0,0,0.91379955,182.92859,44.834974)" />
    <path
       style="fill:none;stroke:#000000;stroke-width:1;stroke-linecap:butt;stroke-linejoin:miter;stroke-miterlimit:4;stroke-opacity:1;stroke-dasharray:none;marker-end:url(#Arrow2Mend)"
       d="m 451.62414,438.79075 -177.29976,0"
       id="path3755"
       inkscape:connector-curvature="0" />
    <g
       transform="matrix(0.40088385,0,0,0.40088385,134.83462,271.00321)"
       id="g4403">
      <g
         style="font-style:normal;font-variant:normal;font-weight:normal;font-stretch:normal;letter-spacing:normal;word-spacing:normal;text-anchor:start;fill:none;stroke:#000000;stroke-width:2.49448824;stroke-linecap:butt;stroke-linejoin:miter;stroke-miterlimit:10.43299961;stroke-opacity:1;stroke-dasharray:none;stroke-dashoffset:0"
         id="content"
         transform="matrix(1.0629921,0,0,-1.0629921,-186.02362,789.27165)"
         xml:space="preserve"
         stroke-miterlimit="10.433"
         font-style="normal"
         font-variant="normal"
         font-weight="normal"
         font-stretch="normal"
         font-size-adjust="none"
         letter-spacing="normal"
         word-spacing="normal"><path
           style="fill:#000000;stroke-width:0"
           inkscape:connector-curvature="0"
           d="m 478.04,427.67 -0.01,0.02 0,0.02 0,0.02 0,0.02 -0.01,0.02 0,0.02 -0.01,0.02 0,0.02 -0.01,0.02 -0.01,0.02 -0.01,0.02 -0.01,0.03 -0.01,0.02 -0.01,0.02 -0.02,0.02 -0.01,0.01 -0.02,0.02 -0.01,0.02 -0.02,0.02 -0.02,0.01 -0.02,0.02 -0.02,0.01 -0.02,0.02 -0.03,0.01 -0.02,0.01 -0.03,0.01 -0.02,0.01 -0.03,0 -0.03,0.01 -0.03,0 -0.03,0.01 -0.02,0 -0.01,0 c -0.55,0 -2.54,-1.99 -3.38,-3.44 -1.11,2.69 -3.05,3.48 -4.64,3.48 v -1.09 c 3.23,0 3.94,-4.03 3.94,-4.37 0,-0.32 -2.74,-11.22 -2.89,-11.43 -0.75,-1.39 -3.53,-4.57 -6.33,-4.57 h 0 c -2.99,0 -3.19,3.84 -3.19,4.68 0,2.39 1.44,7.82 2.3,9.91 1.53,3.69 4.12,5.78 6.17,5.78 v 1.09 c -5.88,0 -12,-7.37 -12,-14.59 0,-4.87 2.94,-7.97 6.56,-7.97 2.16,0 4.1,1.19 5.89,2.99 -0.45,-1.74 -2.09,-8.47 -2.25,-8.93 -0.39,-1.39 -0.79,-1.59 -3.58,-1.64 -0.65,0 -1.15,0 -1.15,-1 0,-0.04 0,-0.54 0.65,-0.54 1.6,0 3.33,0.15 4.99,0.15 1.69,0 3.48,-0.15 5.12,-0.15 0.25,0 0.89,0 0.89,1 0,0.54 -0.48,0.54 -1.28,0.54 -2.4,0 -2.4,0.36 -2.4,0.8 0,0.36 0.11,0.66 0.2,1.09 z"
           id="path4406" /><path
           style="fill:#000000;stroke-width:0"
           inkscape:connector-curvature="0"
           d="m 489.39,420.92 0,0.04 0,0.04 0,0.05 0,0.04 0,0.03 0,0.04 0,0.04 0,0.03 -0.01,0.04 0,0.03 0,0.03 0,0.03 0,0.03 -0.01,0.03 0,0.03 0,0.02 -0.01,0.03 0,0.02 -0.01,0.03 0,0.02 -0.02,0.04 -0.01,0.04 -0.02,0.03 -0.02,0.03 -0.02,0.03 -0.02,0.03 -0.03,0.02 -0.03,0.02 -0.04,0.02 -0.03,0.01 -0.04,0.01 -0.05,0.02 -0.02,0 -0.03,0 -0.02,0.01 -0.03,0 -0.02,0.01 -0.03,0 -0.03,0 -0.03,0 -0.04,0 -0.03,0.01 -0.03,0 -0.04,0 -0.04,0 -0.03,0 -0.04,0 -0.04,0 -0.04,0 -0.05,0 -0.04,0 -0.05,0 c -2.23,-2.2 -5.39,-2.23 -6.82,-2.23 v -1.25 c 0.84,0 3.14,0 5.04,0.97 v -17.77 c 0,-1.16 0,-1.61 -3.48,-1.61 h -1.31 v -1.25 c 0.62,0.03 4.9,0.14 6.2,0.14 1.08,0 5.47,-0.11 6.23,-0.14 v 1.25 h -1.32 c -3.49,0 -3.49,0.45 -3.49,1.61 z"
           id="path4408" /></g>
    </g>
    <g
       id="g4444"
       transform="matrix(0.40088385,0,0,0.40088385,331.24107,271.42934)">
      <g
         word-spacing="normal"
         letter-spacing="normal"
         font-size-adjust="none"
         font-stretch="normal"
         font-weight="normal"
         font-variant="normal"
         font-style="normal"
         stroke-miterlimit="10.433"
         xml:space="preserve"
         transform="matrix(1.0629921,0,0,-1.0629921,-186.02362,789.27165)"
         id="g4446"
         style="font-style:normal;font-variant:normal;font-weight:normal;font-stretch:normal;letter-spacing:normal;word-spacing:normal;text-anchor:start;fill:none;stroke:#000000;stroke-width:2.49448824;stroke-linecap:butt;stroke-linejoin:miter;stroke-miterlimit:10.43299961;stroke-opacity:1;stroke-dasharray:none;stroke-dashoffset:0"><path
           id="path4448"
           d="m 478.04,427.67 -0.01,0.02 0,0.02 0,0.02 0,0.02 -0.01,0.02 0,0.02 -0.01,0.02 0,0.02 -0.01,0.02 -0.01,0.02 -0.01,0.02 -0.01,0.03 -0.01,0.02 -0.01,0.02 -0.02,0.02 -0.01,0.01 -0.02,0.02 -0.01,0.02 -0.02,0.02 -0.02,0.01 -0.02,0.02 -0.02,0.01 -0.02,0.02 -0.03,0.01 -0.02,0.01 -0.03,0.01 -0.02,0.01 -0.03,0 -0.03,0.01 -0.03,0 -0.03,0.01 -0.02,0 -0.01,0 c -0.55,0 -2.54,-1.99 -3.38,-3.44 -1.11,2.69 -3.05,3.48 -4.64,3.48 v -1.09 c 3.23,0 3.94,-4.03 3.94,-4.37 0,-0.32 -2.74,-11.22 -2.89,-11.43 -0.75,-1.39 -3.53,-4.57 -6.33,-4.57 h 0 c -2.99,0 -3.19,3.84 -3.19,4.68 0,2.39 1.44,7.82 2.3,9.91 1.53,3.69 4.12,5.78 6.17,5.78 v 1.09 c -5.88,0 -12,-7.37 -12,-14.59 0,-4.87 2.94,-7.97 6.56,-7.97 2.16,0 4.1,1.19 5.89,2.99 -0.45,-1.74 -2.09,-8.47 -2.25,-8.93 -0.39,-1.39 -0.79,-1.59 -3.58,-1.64 -0.65,0 -1.15,0 -1.15,-1 0,-0.04 0,-0.54 0.65,-0.54 1.6,0 3.33,0.15 4.99,0.15 1.69,0 3.48,-0.15 5.12,-0.15 0.25,0 0.89,0 0.89,1 0,0.54 -0.48,0.54 -1.28,0.54 -2.4,0 -2.4,0.36 -2.4,0.8 0,0.36 0.11,0.66 0.2,1.09 z"
           inkscape:connector-curvature="0"
           style="fill:#000000;stroke-width:0" /><path
           id="path4450"
           d="m 495.31,405.11 h -1.19 c -0.09,-0.77 -0.45,-2.83 -0.9,-3.18 -0.27,-0.2 -2.95,-0.2 -3.44,-0.2 h -6.42 c 3.66,3.23 4.87,4.2 6.97,5.84 2.58,2.07 4.98,4.22 4.98,7.54 0,4.21 -3.69,6.79 -8.15,6.79 -4.32,0 -7.25,-3.03 -7.25,-6.23 0,-1.78 1.5,-1.96 1.86,-1.96 0.82,0 1.84,0.6 1.84,1.85 0,0.62 -0.25,1.84 -2.06,1.84 1.07,2.47 3.45,3.24 5.09,3.24 3.48,0 5.3,-2.71 5.3,-5.53 0,-3.04 -2.16,-5.44 -3.28,-6.69 l -8.39,-8.3 c -0.36,-0.31 -0.36,-0.39 -0.36,-1.36 h 14.36 z"
           inkscape:connector-curvature="0"
           style="fill:#000000;stroke-width:0" /></g>
    </g>
    <path
       style="fill:#000000;stroke:#000000;stroke-width:1;stroke-linecap:butt;stroke-linejoin:miter;stroke-miterlimit:4;stroke-opacity:1;stroke-dasharray:none;marker-end:url(#Arrow2Mend-7v0)"
       d="m 470.93797,438.79075 70.72502,0"
       id="path3755-0"
       inkscape:connector-curvature="0" />
    <g
       transform="matrix(0.31881798,0,0,0.31881798,83.455347,317.67298)"
       id="g4719">
      <g
         style="font-style:normal;font-variant:normal;font-weight:normal;font-stretch:normal;letter-spacing:normal;word-spacing:normal;text-anchor:start;fill:none;stroke:#000000;stroke-width:3.13658595;stroke-linecap:butt;stroke-linejoin:miter;stroke-miterlimit:10.43299961;stroke-opacity:1;stroke-dasharray:none;stroke-dashoffset:0"
         id="g4721"
         transform="matrix(1.0629921,0,0,-1.0629921,-186.02362,789.27165)"
         xml:space="preserve"
         stroke-miterlimit="10.433"
         font-style="normal"
         font-variant="normal"
         font-weight="normal"
         font-stretch="normal"
         font-size-adjust="none"
         letter-spacing="normal"
         word-spacing="normal"><path
           style="fill:#000000;stroke-width:0"
           inkscape:connector-curvature="0"
           d="m 487.6,440.07 h -30.14 v -2.34 h 5.39 v -29.19 h -5.39 v -2.34 c 1.9,0.16 6.93,0.16 9.12,0.16 2.44,0 7.88,0 10.06,-0.16 v 2.34 h -6.73 V 422 h 2.5 c 4.78,0 5.23,-2.14 5.23,-5.83 h 2.35 v 14 h -2.35 c 0,-3.69 -0.4,-5.83 -5.23,-5.83 h -2.5 v 13.39 h 6.98 c 8.02,0 9.18,-3.83 9.91,-9.66 h 2.34 z"
           id="path4723" /><path
           style="fill:#000000;stroke-width:0"
           inkscape:connector-curvature="0"
           d="m 505.43,420.4 0,0.06 0,0.05 -0.01,0.06 0,0.05 0,0.05 0,0.04 0,0.05 -0.01,0.04 0,0.05 -0.01,0.04 0,0.04 -0.01,0.04 0,0.03 -0.01,0.04 -0.02,0.07 -0.01,0.06 -0.03,0.05 -0.02,0.06 -0.03,0.04 -0.03,0.05 -0.04,0.03 -0.04,0.04 -0.04,0.03 -0.05,0.03 -0.05,0.02 -0.06,0.02 -0.06,0.02 -0.07,0.01 -0.07,0.01 -0.08,0.01 -0.08,0.01 -0.09,0.01 -0.09,0 -0.1,0.01 -0.05,0 -0.06,0 -0.05,0 -0.06,0 -0.06,0 -0.06,0 -0.06,0 -0.06,0 -0.07,0 -0.07,0 c -2.17,-1.75 -5.03,-2.23 -7.81,-2.23 h -0.84 v -1.96 h 0.84 c 1.39,0 3.52,0.25 4.98,0.74 v -17.46 h -5.5 v -1.95 c 1.71,0.14 5.88,0.14 7.77,0.14 1.25,0 2.5,-0.03 3.77,-0.03 1.04,0 2.86,-0.05 3.86,-0.11 v 1.95 h -5.36 z"
           id="path4725" /></g>
    </g>
    <g
       id="g4811"
       transform="matrix(0.31881797,0,0,0.31881797,437.19757,318.46601)">
      <g
         word-spacing="normal"
         letter-spacing="normal"
         font-size-adjust="none"
         font-stretch="normal"
         font-weight="normal"
         font-variant="normal"
         font-style="normal"
         stroke-miterlimit="10.433"
         xml:space="preserve"
         transform="matrix(1.0629921,0,0,-1.0629921,-186.02362,789.27165)"
         id="g4813"
         style="font-style:normal;font-variant:normal;font-weight:normal;font-stretch:normal;letter-spacing:normal;word-spacing:normal;text-anchor:start;fill:none;stroke:#000000;stroke-width:3.13658595;stroke-linecap:butt;stroke-linejoin:miter;stroke-miterlimit:10.43299961;stroke-opacity:1;stroke-dasharray:none;stroke-dashoffset:0"><path
           id="path4815"
           d="m 487.6,440.07 h -30.14 v -2.34 h 5.39 v -29.19 h -5.39 v -2.34 c 1.9,0.16 6.93,0.16 9.12,0.16 2.44,0 7.88,0 10.06,-0.16 v 2.34 h -6.73 V 422 h 2.5 c 4.78,0 5.23,-2.14 5.23,-5.83 h 2.35 v 14 h -2.35 c 0,-3.69 -0.4,-5.83 -5.23,-5.83 h -2.5 v 13.39 h 6.98 c 8.02,0 9.18,-3.83 9.91,-9.66 h 2.34 z"
           inkscape:connector-curvature="0"
           style="fill:#000000;stroke-width:0" /><path
           id="path4817"
           d="m 511.66,406.7 h -2.2 c -0.07,-0.41 -0.38,-2.89 -1,-3.03 -0.74,-0.13 -2.83,-0.13 -3.63,-0.13 h -4.78 c 1.92,1.42 3.88,2.85 5.89,4.14 2.83,1.82 5.72,3.66 5.72,7.14 0,4.19 -3.94,6.8 -9.48,6.8 -4.74,0 -8.29,-1.84 -8.29,-5.16 0,-2.01 1.63,-2.75 2.68,-2.75 1.26,0 2.72,0.86 2.72,2.72 0,1.68 -1.29,2.36 -1.4,2.41 1.25,0.8 2.86,0.83 3.29,0.83 2.95,0 5.29,-1.88 5.29,-4.88 0,-2.68 -1.81,-4.92 -3.84,-6.68 l -8.28,-7.36 c -0.42,-0.43 -0.46,-0.46 -0.46,-1.14 v -0.85 h 16.58 z"
           inkscape:connector-curvature="0"
           style="fill:#000000;stroke-width:0" /></g>
    </g>
    <path
       style="fill:#000000;stroke:#000000;stroke-width:1;stroke-linecap:butt;stroke-linejoin:miter;stroke-miterlimit:4;stroke-opacity:1;stroke-dasharray:none;marker-end:url(#Arrow2Mend-7v0)"
       d="m 251.22558,438.79075 -70.72502,0"
       id="path3755-0-1"
       inkscape:connector-curvature="0" />
    <text
       id="text112"
       y="427.41653"
       x="348.2764"
       style="font-weight:bold;font-size:21.3333px;line-height:1.25;font-family:'Times New Roman';-inkscape-font-specification:'Times New Roman, Bold'"
       xml:space="preserve"><tspan
         y="427.41653"
         x="348.2764"
         id="tspan110"
         sodipodi:role="line">r<tspan
   id="tspan116"
   style="font-size:65%;baseline-shift:sub">12</tspan></tspan></text>
  </g>
</svg>
