<?xml version="1.0" encoding="UTF-8" standalone="no"?>
<!-- Created with Inkscape (http://www.inkscape.org/) -->

<svg
   xmlns:dc="http://purl.org/dc/elements/1.1/"
   xmlns:cc="http://creativecommons.org/ns#"
   xmlns:rdf="http://www.w3.org/1999/02/22-rdf-syntax-ns#"
   xmlns:svg="http://www.w3.org/2000/svg"
   xmlns="http://www.w3.org/2000/svg"
   xmlns:sodipodi="http://sodipodi.sourceforge.net/DTD/sodipodi-0.dtd"
   xmlns:inkscape="http://www.inkscape.org/namespaces/inkscape"
   width="400"
   height="300"
   id="svg2"
   version="1.1"
   inkscape:version="0.48.2 r9819"
   sodipodi:docname="New document 1">
  <defs
     id="defs4" />
  <sodipodi:namedview
     id="base"
     pagecolor="#ffffff"
     bordercolor="#666666"
     borderopacity="1.0"
     inkscape:pageopacity="0.0"
     inkscape:pageshadow="2"
     inkscape:zoom="1.5733333"
     inkscape:cx="200"
     inkscape:cy="150"
     inkscape:document-units="px"
     inkscape:current-layer="layer1"
     showgrid="false"
     inkscape:window-width="1366"
     inkscape:window-height="693"
     inkscape:window-x="-9"
     inkscape:window-y="-9"
     inkscape:window-maximized="1" />
  <metadata
     id="metadata7">
    <rdf:RDF>
      <cc:Work
         rdf:about="">
        <dc:format>image/svg+xml</dc:format>
        <dc:type
           rdf:resource="http://purl.org/dc/dcmitype/StillImage" />
        <dc:title></dc:title>
      </cc:Work>
    </rdf:RDF>
  </metadata>
  <g
     inkscape:label="Layer 1"
     inkscape:groupmode="layer"
     id="layer1"
     transform="translate(0,-752.36218)">
    <text
       xml:space="preserve"
       style="font-size:28px;font-style:normal;font-variant:normal;font-weight:normal;font-stretch:normal;line-height:125%;letter-spacing:0px;word-spacing:0px;fill:#000000;fill-opacity:1;stroke:none;font-family:Times New Roman;-inkscape-font-specification:Times New Roman"
       x="155.08475"
       y="249.15254"
       id="text3023"
       sodipodi:linespacing="125%"
       transform="translate(0,752.36218)"><tspan
         sodipodi:role="line"
         id="tspan3025"
         x="155.08475"
         y="249.15254">  </tspan></text>
    <path
       sodipodi:type="arc"
       id="path6705"
       style="fill:#ff00ff;stroke:none"
       sodipodi:cx="31.779661"
       sodipodi:cy="1000.2435"
       sodipodi:rx="3"
       sodipodi:ry="3"
       d="m 34.779661,1000.2435 a 3,3 0 1 1 -6,0 3,3 0 1 1 6,0 z" />
    <path
       sodipodi:type="arc"
       id="path6707"
       style="fill:#ff00ff;stroke:none"
       sodipodi:cx="55.932201"
       sodipodi:cy="1000.2435"
       sodipodi:rx="3"
       sodipodi:ry="3"
       d="m 58.932201,1000.2435 a 3,3 0 1 1 -6,0 3,3 0 1 1 6,0 z" />
    <path
       sodipodi:type="arc"
       id="path6709"
       style="fill:#ff00ff;stroke:none"
       sodipodi:cx="55.932201"
       sodipodi:cy="1000.2435"
       sodipodi:rx="3"
       sodipodi:ry="3"
       d="m 58.932201,1000.2435 a 3,3 0 1 1 -6,0 3,3 0 1 1 6,0 z" />
    <path
       sodipodi:type="arc"
       id="path6711"
       style="fill:#ff00ff;stroke:none"
       sodipodi:cx="55.932201"
       sodipodi:cy="1000.2435"
       sodipodi:rx="3"
       sodipodi:ry="3"
       d="m 58.932201,1000.2435 a 3,3 0 1 1 -6,0 3,3 0 1 1 6,0 z" />
    <path
       sodipodi:type="arc"
       id="path6713"
       style="fill:#ff00ff;stroke:none"
       sodipodi:cx="80.720337"
       sodipodi:cy="943.04016"
       sodipodi:rx="3"
       sodipodi:ry="3"
       d="m 83.720337,943.04016 a 3,3 0 1 1 -6,0 3,3 0 1 1 6,0 z" />
    <path
       sodipodi:type="arc"
       id="path6715"
       style="fill:#ff00ff;stroke:none"
       sodipodi:cx="120.76271"
       sodipodi:cy="1000.8791"
       sodipodi:rx="3"
       sodipodi:ry="3"
       d="m 123.76271,1000.8791 a 3,3 0 1 1 -6,0 3,3 0 1 1 6,0 z" />
    <path
       sodipodi:type="arc"
       id="path6717"
       style="fill:#ff00ff;stroke:none"
       sodipodi:cx="139.83051"
       sodipodi:cy="943.04016"
       sodipodi:rx="3"
       sodipodi:ry="3"
       d="m 142.83051,943.04016 a 3,3 0 1 1 -6,0 3,3 0 1 1 6,0 z" />
    <path
       sodipodi:type="arc"
       id="path6719"
       style="fill:#ff00ff;stroke:none"
       sodipodi:cx="163.34746"
       sodipodi:cy="873.12488"
       sodipodi:rx="3"
       sodipodi:ry="3"
       d="m 166.34746,873.12488 a 3,3 0 1 1 -6,0 3,3 0 1 1 6,0 z" />
    <path
       sodipodi:type="arc"
       id="path6721"
       style="fill:#ff00ff;stroke:none"
       sodipodi:cx="204.66103"
       sodipodi:cy="998.97235"
       sodipodi:rx="3"
       sodipodi:ry="3"
       d="m 207.66103,998.97235 a 3,3 0 1 1 -6,0 3,3 0 1 1 6,0 z" />
    <path
       sodipodi:type="arc"
       id="path6723"
       style="fill:#ff00ff;stroke:none"
       sodipodi:cx="204.66103"
       sodipodi:cy="998.97235"
       sodipodi:rx="3"
       sodipodi:ry="3"
       d="m 207.66103,998.97235 a 3,3 0 1 1 -6,0 3,3 0 1 1 6,0 z" />
    <path
       sodipodi:type="arc"
       id="path6725"
       style="fill:#ff00ff;stroke:none"
       sodipodi:cx="224.36441"
       sodipodi:cy="940.49774"
       sodipodi:rx="3"
       sodipodi:ry="3"
       d="m 227.36441,940.49774 a 3,3 0 1 1 -6,0 3,3 0 1 1 6,0 z" />
    <path
       sodipodi:type="arc"
       id="path6727"
       style="fill:#ff00ff;stroke:none"
       sodipodi:cx="224.36441"
       sodipodi:cy="940.49774"
       sodipodi:rx="3"
       sodipodi:ry="3"
       d="m 227.36441,940.49774 a 3,3 0 1 1 -6,0 3,3 0 1 1 6,0 z" />
    <path
       sodipodi:type="arc"
       id="path6729"
       style="fill:#ff00ff;stroke:none"
       sodipodi:cx="250.42374"
       sodipodi:cy="873.7605"
       sodipodi:rx="3"
       sodipodi:ry="3"
       d="m 253.42374,873.7605 a 3,3 0 1 1 -6,0 3,3 0 1 1 6,0 z" />
    <path
       sodipodi:type="arc"
       id="path6731"
       style="fill:#ff00ff;stroke:none"
       sodipodi:cx="280.93219"
       sodipodi:cy="820.37067"
       sodipodi:rx="3"
       sodipodi:ry="3"
       d="m 283.93219,820.37067 a 3,3 0 1 1 -6,0 3,3 0 1 1 6,0 z" />
    <path
       sodipodi:type="arc"
       id="path6733"
       style="fill:#ff00ff;stroke:none"
       sodipodi:cx="323.51694"
       sodipodi:cy="1001.5147"
       sodipodi:rx="3"
       sodipodi:ry="3"
       d="m 326.51694,1001.5147 a 3,3 0 1 1 -6,0 3,3 0 1 1 6,0 z" />
    <path
       sodipodi:type="arc"
       id="path6735"
       style="fill:#ff00ff;stroke:none"
       sodipodi:cx="345.12711"
       sodipodi:cy="941.13336"
       sodipodi:rx="3"
       sodipodi:ry="3"
       d="m 348.12711,941.13336 a 3,3 0 1 1 -6,0 3,3 0 1 1 6,0 z" />
    <path
       sodipodi:type="arc"
       id="path6737"
       style="fill:#ff00ff;stroke:none"
       sodipodi:cx="360.38135"
       sodipodi:cy="873.7605"
       sodipodi:rx="3"
       sodipodi:ry="3"
       d="m 363.38135,873.7605 a 3,3 0 1 1 -6,0 3,3 0 1 1 6,0 z" />
    <path
       sodipodi:type="arc"
       id="path6739"
       style="fill:#ff00ff;stroke:none"
       sodipodi:cx="379.44916"
       sodipodi:cy="819.09949"
       sodipodi:rx="3"
       sodipodi:ry="3"
       d="m 382.44916,819.09949 a 3,3 0 1 1 -6,0 3,3 0 1 1 6,0 z" />
    <path
       sodipodi:type="arc"
       id="path6741"
       style="fill:#ff00ff;stroke:none"
       sodipodi:cx="394.06781"
       sodipodi:cy="781.59949"
       sodipodi:rx="3"
       sodipodi:ry="3"
       d="m 397.06781,781.59949 a 3,3 0 1 1 -6,0 3,3 0 1 1 6,0 z" />
    <path
       sodipodi:type="arc"
       id="path6743"
       style="fill:#ff00ff;stroke:none"
       sodipodi:cx="394.06781"
       sodipodi:cy="781.59949"
       sodipodi:rx="3"
       sodipodi:ry="3"
       d="m 397.06781,781.59949 a 3,3 0 1 1 -6,0 3,3 0 1 1 6,0 z" />
    <path
       style="fill:#0000ff;fill-opacity:1;stroke:#ff6600;stroke-width:2;stroke-linecap:butt;stroke-miterlimit:4;stroke-opacity:1;stroke-dasharray:none;stroke-dashoffset:0"
       d="m 32.415254,248.51695 c 22.881356,0.63559 22.881356,0.63559 22.881356,0.63559"
       id="path6747"
       inkscape:connector-curvature="0"
       transform="translate(0,752.36218)" />
    <path
       style="fill:#ffffff;fill-opacity:1;stroke:#ff6600;stroke-width:2;stroke-linecap:butt;stroke-miterlimit:4;stroke-opacity:1;stroke-dasharray:none;stroke-dashoffset:0"
       d="m 54.661017,248.51695 c 26.059322,-57.20339 26.059322,-57.20339 26.059322,-57.20339 l 40.677971,58.47458 19.70338,-58.47458 23.51695,-70.55085 39.40678,125.84746 20.33899,-58.47458 26.05932,-66.73729 29.87288,-54.661012 42.58475,183.050852 22.24576,-61.65255 17.16102,-68.00847 17.16101,-53.389832 14.61865,-38.771186 1.27118,1.271186 -1.27118,-0.635593 0,0"
       id="path6749"
       inkscape:connector-curvature="0"
       transform="translate(0,752.36218)" />
    <text
       xml:space="preserve"
       style="font-size:28px;font-style:normal;font-variant:normal;font-weight:normal;font-stretch:normal;line-height:125%;letter-spacing:0px;word-spacing:0px;fill:#000000;fill-opacity:1;stroke:none;font-family:Times New Roman;-inkscape-font-specification:Times New Roman"
       x="6.9915252"
       y="252.96609"
       id="text3011"
       sodipodi:linespacing="125%"
       transform="translate(0,752.36218)"><tspan
         sodipodi:role="line"
         id="tspan3013"
         x="6.9915252"
         y="252.96609"><tspan
           style="stroke:#ff0000"
           id="tspan3029">a</tspan><tspan
           style="font-size:65.00091553%;baseline-shift:sub;stroke:#ff0000"
           id="tspan3015">0</tspan><tspan
           style="stroke:#ff0000"
           id="tspan3031">   a</tspan><tspan
           style="font-size:65.00091553%;baseline-shift:sub;stroke:#ff0000"
           id="tspan3017">1</tspan><tspan
           style="stroke:#ff0000"
           id="tspan3033">      a</tspan><tspan
           style="font-size:65.00091553%;baseline-shift:sub;stroke:#ff0000"
           id="tspan3019">2</tspan><tspan
           style="stroke:#ff0000"
           id="tspan3035">         a</tspan><tspan
           style="font-size:65.00091553%;baseline-shift:sub;stroke:#ff0000"
           id="tspan3021">3</tspan><tspan
           style="stroke:#ff0000"
           id="tspan3039">              a</tspan><tspan
           style="font-size:65.00091553%;baseline-shift:sub;stroke:#ff0000"
           id="tspan3027">4   . . .</tspan></tspan></text>
    <text
       xml:space="preserve"
       style="font-size:28px;font-style:normal;font-variant:normal;font-weight:normal;font-stretch:normal;line-height:125%;letter-spacing:0px;word-spacing:0px;fill:#000000;fill-opacity:1;stroke:none;font-family:Times New Roman;-inkscape-font-specification:Times New Roman"
       x="73.093224"
       y="947.84521"
       id="text3041"
       sodipodi:linespacing="125%"><tspan
         sodipodi:role="line"
         id="tspan3043"
         x="73.093224"
         y="947.84521"
         style="stroke:#0000ff">b<tspan
   style="font-size:65.00091553%;baseline-shift:sub;stroke:#0000ff"
   id="tspan3045">0</tspan>     b<tspan
   style="font-size:65.00091553%;baseline-shift:sub;stroke:#0000ff"
   id="tspan3047">1</tspan>         b<tspan
   style="font-size:65.00091553%;baseline-shift:sub;stroke:#0000ff"
   id="tspan3049">2</tspan>              b<tspan
   style="font-size:65.00091553%;baseline-shift:sub;stroke:#0000ff"
   id="tspan3051">3   . . .</tspan></tspan></text>
    <text
       xml:space="preserve"
       style="font-size:28px;font-style:normal;font-variant:normal;font-weight:normal;font-stretch:normal;line-height:125%;letter-spacing:0px;word-spacing:0px;fill:#000000;fill-opacity:1;stroke:none;font-family:Times New Roman;-inkscape-font-specification:Times New Roman"
       x="156.99153"
       y="879.65033"
       id="text3053"
       sodipodi:linespacing="125%"><tspan
         sodipodi:role="line"
         id="tspan3055"
         x="156.99153"
         y="879.65033"
         style="stroke:#00ff00">c<tspan
   style="font-size:65.00091553%;baseline-shift:sub;stroke:#00ff00"
   id="tspan3057">0</tspan>         c<tspan
   style="font-size:65.00091553%;baseline-shift:sub;stroke:#00ff00"
   id="tspan3059">1</tspan>             c<tspan
   style="font-size:65.00091553%;baseline-shift:sub;stroke:#00ff00"
   id="tspan3061">2</tspan></tspan></text>
    <text
       xml:space="preserve"
       style="font-size:28px;font-style:normal;font-variant:normal;font-weight:normal;font-stretch:normal;line-height:125%;letter-spacing:0px;word-spacing:0px;fill:#000000;fill-opacity:1;stroke:none;font-family:Times New Roman;-inkscape-font-specification:Times New Roman"
       x="273.75424"
       y="824.81982"
       id="text3063"
       sodipodi:linespacing="125%"><tspan
         sodipodi:role="line"
         id="tspan3065"
         x="273.75424"
         y="824.81982"
         style="stroke:#ff00ff">d<tspan
   style="font-size:65.00091553%;baseline-shift:sub;stroke:#ff00ff"
   id="tspan3067">0</tspan>           d<tspan
   style="font-size:65.00091553%;baseline-shift:sub;stroke:#ff00ff"
   id="tspan3069">1</tspan></tspan></text>
  </g>
</svg>
