<?xml version="1.0" encoding="UTF-8" standalone="no"?>
<!-- Created with Serif DrawPlus 11, 0, 3, 23 (Feb 25, 14:12:55) (http://www.serif.com) -->
<svg version="1.1" xmlns="http://www.w3.org/2000/svg" xmlns:xlink="http://www.w3.org/1999/xlink" width="505.053" height="335.269">
	<g id="selection" transform="matrix(1,0,0,1,-201.948,-703.387)">
		<g id="dp_group001">
			<path id="dp_path002" fill="#e97107" fill-rule="evenodd" fill-opacity="0.501961" stroke="none" stroke-width="2" d="M 569.737,828.217 C 578.367,828.292 586.473,833.296 591.657,841.749 L 569.543,862.113 Z "/>
			<g id="dp_group003">
				<g id="dp_group004">
					<path id="dp_path005" fill="black" fill-rule="evenodd" d="M 554.592,822.845 L 554.283,820.871 L 555.637,816.608 L 547.523,822.944 L 557.188,826.488 Z "/>
					<path id="dp_path006" fill="black" d="M 554.557,822.851 L 555.329,822.756 L 556.101,822.668 L 556.872,822.584 L 557.644,822.507 L 558.419,822.433 L 559.193,822.367 L 559.969,822.304 L 560.747,822.248 L 561.524,822.195 L 562.301,822.148 L 563.08,822.107 L 563.859,822.071 L 564.639,822.039 L 565.419,822.013 L 566.199,821.992 L 566.979,821.976 L 567.759,821.965 L 568.54,821.96 L 569.323,821.96 L 570.101,821.964 L 570.881,821.975 L 571.66,821.989 L 572.44,822.011 L 573.22,822.036 L 573.997,822.067 L 574.776,822.103 L 575.551,822.143 L 576.328,822.189 L 577.104,822.24 L 577.877,822.296 L 578.651,822.359 L 579.424,822.425 L 580.195,822.496 L 580.965,822.573 L 581.732,822.655 L 582.5,822.741 L 583.267,822.835 L 584.029,822.931 L 584.792,823.033 L 585.553,823.141 L 586.312,823.253 L 587.069,823.371 L 587.823,823.493 L 588.576,823.621 L 589.328,823.756 L 590.076,823.893 L 590.821,824.037 L 591.568,824.185 L 592.308,824.337 L 593.048,824.496 L 593.785,824.66 L 594.517,824.828 L 595.248,825.003 L 595.977,825.18 L 596.701,825.364 L 597.508,825.575 L 598.305,825.791 L 599.097,826.012 L 599.881,826.237 L 600.656,826.468 L 601.425,826.705 L 602.188,826.945 L 602.943,827.193 L 603.691,827.443 L 604.429,827.699 L 605.163,827.96 L 605.888,828.225 L 606.605,828.495 L 607.316,828.771 L 608.017,829.048 L 608.712,829.332 L 609.4,829.621 L 610.08,829.913 L 610.751,830.209 L 611.416,830.511 L 612.072,830.816 L 612.721,831.125 L 613.363,831.439 L 613.995,831.756 L 614.62,832.077 L 615.236,832.403 L 615.847,832.733 L 616.448,833.065 L 617.041,833.403 L 617.624,833.743 L 618.203,834.087 L 618.772,834.435 L 619.331,834.785 L 619.884,835.141 L 620.429,835.5 L 620.964,835.861 L 621.492,836.227 L 622.011,836.593 L 622.521,836.967 L 623.025,837.34 L 623.517,837.717 L 624.004,838.099 L 624.481,838.483 L 624.951,838.869 L 625.409,839.259 L 625.86,839.651 L 626.303,840.047 L 626.737,840.444 L 627.163,840.844 L 627.58,841.247 L 627.988,841.653 L 628.387,842.06 L 628.777,842.471 L 629.159,842.884 L 629.532,843.299 L 629.895,843.715 L 630.249,844.135 L 630.596,844.556 L 630.933,844.98 L 631.261,845.405 L 631.579,845.832 L 631.889,846.263 L 632.191,846.693 L 632.481,847.125 L 632.764,847.561 L 633.039,847.999 L 633.303,848.435 L 633.556,848.875 L 633.803,849.316 L 634.04,849.759 L 634.267,850.203 L 634.485,850.649 L 634.693,851.095 L 634.892,851.541 L 635.083,851.991 L 635.264,852.443 L 635.436,852.893 L 635.597,853.345 L 635.749,853.799 L 635.893,854.253 L 636.027,854.708 L 636.151,855.165 L 636.265,855.623 L 636.371,856.08 L 636.467,856.539 L 636.552,856.999 L 636.628,857.459 L 636.695,857.919 L 636.752,858.381 L 636.8,858.844 L 636.837,859.307 L 636.865,859.769 L 636.884,860.232 L 636.892,860.697 L 636.892,861.163 L 636.88,861.627 L 636.859,862.093 L 636.828,862.56 L 636.787,863.025 L 636.736,863.492 L 636.675,863.957 L 636.603,864.425 L 636.523,864.892 L 636.431,865.36 L 636.329,865.828 L 636.217,866.296 L 636.096,866.763 L 635.963,867.231 L 635.82,867.699 L 635.667,868.167 L 635.503,868.633 L 635.328,869.101 L 635.144,869.569 L 634.948,870.036 L 634.743,870.503 L 634.525,870.969 L 634.297,871.436 L 634.06,871.901 L 633.811,872.367 L 633.549,872.832 L 633.279,873.297 L 632.996,873.761 L 632.704,874.223 L 632.399,874.687 L 632.083,875.151 L 631.756,875.611 L 631.419,876.069 L 631.063,876.536 L 632.655,877.747 L 633.019,877.267 L 633.377,876.779 L 633.723,876.289 L 634.057,875.799 L 634.381,875.308 L 634.695,874.815 L 634.996,874.319 L 635.285,873.824 L 635.563,873.327 L 635.831,872.829 L 636.087,872.329 L 636.331,871.828 L 636.564,871.327 L 636.785,870.823 L 636.995,870.321 L 637.195,869.816 L 637.383,869.313 L 637.56,868.807 L 637.727,868.299 L 637.88,867.793 L 638.024,867.288 L 638.156,866.779 L 638.279,866.271 L 638.388,865.763 L 638.488,865.255 L 638.576,864.745 L 638.653,864.237 L 638.72,863.729 L 638.776,863.22 L 638.82,862.712 L 638.853,862.203 L 638.877,861.696 L 638.889,861.189 L 638.892,860.681 L 638.881,860.176 L 638.863,859.671 L 638.832,859.165 L 638.789,858.66 L 638.739,858.157 L 638.676,857.655 L 638.604,857.152 L 638.52,856.652 L 638.427,856.152 L 638.323,855.653 L 638.209,855.156 L 638.084,854.659 L 637.949,854.167 L 637.805,853.672 L 637.651,853.18 L 637.485,852.692 L 637.311,852.203 L 637.125,851.715 L 636.931,851.231 L 636.727,850.747 L 636.512,850.265 L 636.288,849.785 L 636.053,849.309 L 635.811,848.833 L 635.557,848.359 L 635.295,847.888 L 635.023,847.419 L 634.74,846.951 L 634.449,846.487 L 634.148,846.024 L 633.839,845.563 L 633.519,845.105 L 633.192,844.651 L 632.853,844.197 L 632.507,843.748 L 632.151,843.3 L 631.785,842.855 L 631.412,842.413 L 631.028,841.973 L 630.636,841.537 L 630.233,841.103 L 629.824,840.673 L 629.407,840.245 L 628.977,839.82 L 628.541,839.399 L 628.097,838.98 L 627.644,838.564 L 627.183,838.152 L 626.711,837.741 L 626.231,837.336 L 625.743,836.933 L 625.247,836.533 L 624.741,836.139 L 624.228,835.745 L 623.705,835.356 L 623.176,834.972 L 622.639,834.589 L 622.092,834.211 L 621.536,833.836 L 620.972,833.467 L 620.403,833.1 L 619.823,832.736 L 619.235,832.377 L 618.64,832.02 L 618.036,831.669 L 617.424,831.321 L 616.804,830.979 L 616.177,830.64 L 615.543,830.304 L 614.899,829.975 L 614.248,829.647 L 613.588,829.325 L 612.923,829.008 L 612.248,828.695 L 611.567,828.385 L 610.877,828.081 L 610.181,827.781 L 609.477,827.487 L 608.764,827.195 L 608.044,826.909 L 607.317,826.628 L 606.581,826.351 L 605.84,826.08 L 605.091,825.813 L 604.333,825.552 L 603.569,825.295 L 602.799,825.044 L 602.02,824.796 L 601.235,824.556 L 600.441,824.32 L 599.641,824.089 L 598.833,823.863 L 598.02,823.644 L 597.2,823.428 L 596.46,823.241 L 595.717,823.059 L 594.971,822.881 L 594.223,822.711 L 593.472,822.544 L 592.719,822.383 L 591.963,822.225 L 591.205,822.075 L 590.444,821.928 L 589.683,821.788 L 588.917,821.653 L 588.151,821.523 L 587.381,821.397 L 586.611,821.277 L 585.839,821.163 L 585.064,821.055 L 584.288,820.949 L 583.509,820.851 L 582.732,820.757 L 581.951,820.668 L 581.168,820.584 L 580.384,820.507 L 579.6,820.433 L 578.816,820.367 L 578.029,820.304 L 577.24,820.245 L 576.451,820.195 L 575.663,820.148 L 574.872,820.105 L 574.08,820.069 L 573.289,820.039 L 572.499,820.013 L 571.705,819.992 L 570.913,819.977 L 570.12,819.967 L 569.325,819.96 L 568.532,819.963 L 567.74,819.968 L 566.947,819.979 L 566.153,819.995 L 565.36,820.016 L 564.567,820.041 L 563.773,820.073 L 562.981,820.109 L 562.189,820.153 L 561.399,820.2 L 560.608,820.253 L 559.817,820.312 L 559.028,820.375 L 558.24,820.444 L 557.452,820.517 L 556.667,820.597 L 555.88,820.681 L 555.097,820.772 L 554.317,820.864 Z "/>
				</g>
			</g>
			<path id="dp_path007" fill="none" fill-rule="evenodd" stroke="black" stroke-width="1.33333" stroke-dasharray="3.2,3.2" d="M 640.839,767.137 L 521.815,780.783"/>
			<path id="dp_path008" fill="none" fill-rule="evenodd" stroke="black" stroke-width="1.33333" stroke-dasharray="3.2,3.2" d="M 688.564,847.439 L 640.839,767.137"/>
			<g id="dp_group009">
				<g id="dp_group010">
					<path id="dp_path011" fill="black" fill-rule="evenodd" d="M 526.064,789.891 L 527.783,788.868 L 531.221,786.824 L 521.813,780.783 L 522.625,791.933 Z "/>
					<path id="dp_path012" fill="black" d="M 570.4,860.573 L 527.784,788.868 L 526.064,789.889 L 568.68,861.595 Z "/>
				</g>
			</g>
			<path id="dp_path013" fill="none" fill-rule="evenodd" stroke="black" stroke-width="1.33333" d="M 647.717,778.711 L 635.071,780.409 L 628.037,768.389 L 640.684,766.691 Z "/>
			<path id="dp_path014" fill="#cb0707" fill-rule="evenodd" fill-opacity="0.501961" stroke="none" stroke-width="2" d="M 647.349,852.675 C 650.321,861.821 648.232,871.265 641.368,879.713 L 568.973,860.843 Z "/>
			<path id="dp_path015" fill="#0f06c3" fill-rule="evenodd" fill-opacity="0.501961" stroke="none" stroke-width="2" d="M 620.619,843.311 C 630.66,852.983 631.781,864.852 623.623,875.087 L 568.975,860.841 Z "/>
			<g id="dp_group016">
				<g id="dp_group017">
					<path id="dp_path018" fill="#0f06c3" fill-rule="evenodd" d="M 624.36,849.311 L 625.889,848.023 L 630.239,846.979 L 620.617,843.311 L 622.587,853.417 Z "/>
					<path id="dp_path019" fill="#0f06c3" d="M 624.357,849.307 L 624.361,849.309 L 624.484,849.499 L 624.633,849.733 L 624.78,849.968 L 624.921,850.201 L 625.061,850.437 L 625.197,850.673 L 625.332,850.911 L 625.461,851.148 L 625.588,851.383 L 625.711,851.62 L 625.832,851.859 L 625.949,852.095 L 626.061,852.332 L 626.172,852.571 L 626.28,852.811 L 626.384,853.048 L 626.485,853.289 L 626.584,853.528 L 626.677,853.765 L 626.769,854.007 L 626.857,854.247 L 626.943,854.487 L 627.024,854.728 L 627.103,854.968 L 627.177,855.208 L 627.251,855.449 L 627.319,855.691 L 627.385,855.932 L 627.447,856.173 L 627.507,856.415 L 627.563,856.656 L 627.616,856.899 L 627.665,857.141 L 627.712,857.385 L 627.756,857.625 L 627.796,857.868 L 627.835,858.112 L 627.868,858.352 L 627.899,858.595 L 627.927,858.837 L 627.951,859.081 L 627.972,859.327 L 627.991,859.565 L 628.005,859.808 L 628.017,860.055 L 628.027,860.296 L 628.032,860.539 L 628.033,860.781 L 628.033,861.027 L 628.029,861.269 L 628.021,861.512 L 628.011,861.757 L 627.999,862 L 627.981,862.243 L 627.961,862.488 L 627.939,862.729 L 627.912,862.972 L 627.884,863.216 L 627.851,863.459 L 627.815,863.701 L 627.776,863.944 L 627.733,864.188 L 627.688,864.429 L 627.64,864.673 L 627.588,864.913 L 627.532,865.16 L 627.475,865.401 L 627.413,865.641 L 627.348,865.885 L 627.28,866.129 L 627.209,866.369 L 627.135,866.611 L 627.056,866.855 L 626.976,867.096 L 626.893,867.336 L 626.805,867.577 L 626.713,867.821 L 626.621,868.061 L 626.525,868.3 L 626.424,868.541 L 626.32,868.783 L 626.213,869.023 L 626.104,869.263 L 625.989,869.503 L 625.873,869.741 L 625.755,869.979 L 625.631,870.219 L 625.503,870.459 L 625.372,870.699 L 625.241,870.935 L 625.104,871.171 L 624.963,871.411 L 624.82,871.649 L 624.675,871.885 L 624.524,872.121 L 624.372,872.357 L 624.216,872.591 L 624.053,872.828 L 623.891,873.064 L 623.725,873.296 L 623.555,873.532 L 623.381,873.765 L 623.205,873.999 L 623.024,874.232 L 622.837,874.467 L 624.408,875.707 L 624.6,875.461 L 624.792,875.212 L 624.981,874.963 L 625.165,874.713 L 625.347,874.464 L 625.528,874.211 L 625.701,873.959 L 625.872,873.708 L 626.041,873.453 L 626.207,873.199 L 626.368,872.944 L 626.527,872.687 L 626.68,872.432 L 626.829,872.179 L 626.977,871.921 L 627.124,871.661 L 627.263,871.403 L 627.399,871.147 L 627.533,870.888 L 627.665,870.627 L 627.792,870.367 L 627.915,870.105 L 628.035,869.844 L 628.152,869.583 L 628.264,869.32 L 628.373,869.06 L 628.48,868.795 L 628.583,868.531 L 628.68,868.268 L 628.776,868.005 L 628.869,867.739 L 628.957,867.473 L 629.041,867.211 L 629.124,866.945 L 629.203,866.676 L 629.276,866.411 L 629.347,866.148 L 629.416,865.879 L 629.479,865.611 L 629.54,865.345 L 629.597,865.076 L 629.651,864.808 L 629.701,864.54 L 629.747,864.272 L 629.791,864.005 L 629.829,863.736 L 629.865,863.467 L 629.899,863.199 L 629.928,862.929 L 629.953,862.659 L 629.973,862.392 L 629.993,862.123 L 630.008,861.851 L 630.019,861.584 L 630.027,861.315 L 630.031,861.045 L 630.033,860.779 L 630.029,860.509 L 630.024,860.24 L 630.015,859.967 L 630,859.701 L 629.985,859.432 L 629.964,859.161 L 629.94,858.895 L 629.913,858.627 L 629.883,858.357 L 629.849,858.091 L 629.811,857.819 L 629.769,857.553 L 629.727,857.287 L 629.677,857.017 L 629.625,856.752 L 629.571,856.485 L 629.512,856.219 L 629.451,855.951 L 629.385,855.685 L 629.316,855.42 L 629.244,855.155 L 629.168,854.889 L 629.089,854.624 L 629.007,854.36 L 628.92,854.096 L 628.831,853.833 L 628.737,853.569 L 628.641,853.308 L 628.541,853.045 L 628.437,852.781 L 628.331,852.521 L 628.221,852.261 L 628.107,852 L 627.991,851.741 L 627.872,851.484 L 627.747,851.223 L 627.619,850.963 L 627.489,850.708 L 627.356,850.452 L 627.219,850.193 L 627.076,849.937 L 626.933,849.684 L 626.787,849.429 L 626.636,849.175 L 626.481,848.92 L 626.324,848.669 L 626.164,848.416 L 625.969,848.12 L 625.893,848.027 Z "/>
				</g>
			</g>
			<g id="dp_group020">
				<g id="dp_group021">
					<path id="dp_path022" fill="#0f06c3" fill-rule="evenodd" d="M 686.917,890.159 L 686.42,892.096 L 685.425,895.971 L 696.355,893.612 L 687.911,886.284 Z "/>
					<path id="dp_path023" fill="#0f06c3" d="M 569.293,862.052 L 686.42,892.096 L 686.916,890.16 L 569.789,860.116 Z "/>
				</g>
			</g>
			<g id="dp_group024">
				<g id="dp_group025">
					<path id="dp_path026" fill="#0f06c3" fill-rule="evenodd" d="M 654.056,830.165 L 654.723,832.052 L 656.055,835.824 L 663.819,827.779 L 652.724,826.395 Z "/>
					<path id="dp_path027" fill="#0f06c3" d="M 569.875,862.027 L 654.723,832.052 L 654.056,830.167 L 569.208,860.141 Z "/>
				</g>
			</g>
			<g id="dp_group028">
				<g id="dp_group029">
					<path id="dp_path030" fill="#cb0707" fill-rule="evenodd" d="M 680.339,764.212 L 681.644,765.727 L 684.257,768.756 L 688.565,758.439 L 677.727,761.183 Z "/>
					<path id="dp_path031" fill="#cb0707" d="M 570.195,861.84 L 681.645,765.727 L 680.339,764.212 L 568.888,860.325 Z "/>
				</g>
			</g>
			<text id="dp_text001" transform="matrix(0.99645,8.71204e-016,-8.81232e-016,1,556.481,748.236)" xml:space="preserve" fill="#e97107" font-family="Arial" font-size="16" font-weight="700" x="0" y="0">a</text>
			<text id="dp_text002" transform="matrix(1,8.74308e-016,-8.81232e-016,1,556.481,748.236)" xml:space="preserve" fill="#e97107" font-family="Arial" font-size="15" font-weight="400" x="8.64667" y="0">×</text>
			<text id="dp_text003" transform="matrix(0.996767,8.71481e-016,-8.81232e-016,1,556.538,748.236)" xml:space="preserve" fill="#e97107" font-family="Arial" font-size="16" font-weight="700" x="17.4" y="0">b</text>
			<text id="dp_text004" transform="matrix(0.996295,8.71069e-016,-8.81232e-016,1,556.581,748.236)" xml:space="preserve" fill="#e97107" font-family="Arial" font-size="16" font-weight="700" x="26.8747" y="0"> </text>
			<text id="dp_text005" transform="matrix(0.996501,8.71249e-016,-8.81232e-016,1,698.228,898.488)" xml:space="preserve" fill="#0f06c3" font-family="Arial" font-size="16" font-weight="700" x="0" y="0">a </text>
			<text id="dp_text006" transform="matrix(0.996767,0,0,1,664.707,831.065)" xml:space="preserve" fill="#0f06c3" font-family="Arial" font-size="16" font-weight="700" x="0" y="0">b</text>
			<text id="dp_text007" transform="matrix(1,0,0,1,664.707,831.065)" xml:space="preserve" fill="black" font-family="Times New Roman" font-size="16" font-weight="400" x="9.47467" y="0"> </text>
			<text id="dp_text008" transform="matrix(0.99645,0,0,1,672.456,754.673)" xml:space="preserve" fill="#cb0707" font-family="Arial" font-size="16" font-weight="700" x="0" y="0">c</text>
			<text id="dp_text009" transform="matrix(1,0,0,1,672.456,754.673)" xml:space="preserve" fill="#cb0707" font-family="Times New Roman" font-size="16" font-weight="400" x="8.648" y="0"> </text>
			<text id="dp_text010" transform="matrix(1.0031,8.77016e-016,-8.81232e-016,1,484.893,772.942)" xml:space="preserve" fill="black" font-family="Arial" font-size="16" font-weight="400" x="0" y="0">(</text>
			<text id="dp_text011" transform="matrix(0.99645,8.71204e-016,-8.81232e-016,1,484.912,772.942)" xml:space="preserve" fill="black" font-family="Arial" font-size="16" font-weight="700" x="5.172" y="0">a</text>
			<text id="dp_text012" transform="matrix(1,8.74308e-016,-8.81232e-016,1,484.893,772.942)" xml:space="preserve" fill="black" font-family="Arial" font-size="15" font-weight="400" x="13.8187" y="0">×</text>
			<text id="dp_text013" transform="matrix(0.996767,8.71481e-016,-8.81232e-016,1,484.966,772.942)" xml:space="preserve" fill="black" font-family="Arial" font-size="16" font-weight="700" x="22.572" y="0">b</text>
			<text id="dp_text014" transform="matrix(1.0031,8.77016e-016,-8.81232e-016,1,484.794,772.942)" xml:space="preserve" fill="black" font-family="Arial" font-size="16" font-weight="400" x="32.0467" y="0">)</text>
			<text id="dp_text015" transform="matrix(1,8.74308e-016,-8.81232e-016,1,484.893,772.942)" xml:space="preserve" fill="black" font-family="Arial" font-size="15" font-weight="400" x="37.2187" y="0">×</text>
			<text id="dp_text016" transform="matrix(0.99645,8.71204e-016,-8.81232e-016,1,485.057,772.942)" xml:space="preserve" fill="black" font-family="Arial" font-size="16" font-weight="700" x="45.972" y="0">c</text>
			<text id="dp_text017" transform="matrix(0.996295,8.71069e-016,-8.81232e-016,1,485.096,772.942)" xml:space="preserve" fill="black" font-family="Arial" font-size="16" font-weight="700" x="54.62" y="0"> </text>
			<g id="dp_group049">
				<g id="dp_group050">
					<path id="dp_path051" fill="#e97107" fill-rule="evenodd" d="M 588.159,835.605 L 586.579,836.831 L 582.192,837.703 L 591.659,841.749 L 590.093,831.573 Z "/>
					<path id="dp_path052" fill="#e97107" d="M 569.721,829.217 L 570.116,829.223 L 570.501,829.237 L 570.884,829.257 L 571.269,829.285 L 571.653,829.319 L 572.032,829.359 L 572.415,829.408 L 572.795,829.461 L 573.173,829.523 L 573.551,829.591 L 573.928,829.664 L 574.303,829.745 L 574.676,829.831 L 575.048,829.925 L 575.42,830.025 L 575.789,830.132 L 576.159,830.245 L 576.524,830.365 L 576.888,830.489 L 577.252,830.623 L 577.615,830.761 L 577.973,830.905 L 578.332,831.056 L 578.688,831.213 L 579.043,831.377 L 579.395,831.547 L 579.745,831.721 L 580.093,831.903 L 580.439,832.092 L 580.783,832.285 L 581.125,832.485 L 581.464,832.692 L 581.803,832.903 L 582.137,833.121 L 582.469,833.345 L 582.799,833.573 L 583.127,833.811 L 583.452,834.051 L 583.773,834.299 L 584.093,834.551 L 584.411,834.811 L 584.724,835.073 L 585.035,835.344 L 585.344,835.62 L 585.648,835.9 L 585.949,836.188 L 586.249,836.48 L 586.508,836.74 L 586.58,836.835 L 588.156,835.603 L 588.009,835.417 L 587.657,835.061 L 587.336,834.748 L 587.013,834.441 L 586.685,834.14 L 586.355,833.845 L 586.023,833.556 L 585.685,833.272 L 585.344,832.993 L 585.003,832.723 L 584.655,832.456 L 584.305,832.197 L 583.953,831.944 L 583.597,831.695 L 583.239,831.455 L 582.877,831.22 L 582.515,830.991 L 582.147,830.768 L 581.777,830.552 L 581.407,830.343 L 581.032,830.14 L 580.655,829.943 L 580.275,829.752 L 579.893,829.569 L 579.509,829.392 L 579.121,829.221 L 578.733,829.057 L 578.343,828.9 L 577.951,828.751 L 577.555,828.607 L 577.159,828.469 L 576.759,828.339 L 576.357,828.217 L 575.956,828.1 L 575.552,827.992 L 575.145,827.889 L 574.737,827.793 L 574.328,827.707 L 573.919,827.625 L 573.507,827.552 L 573.093,827.485 L 572.679,827.427 L 572.264,827.375 L 571.845,827.329 L 571.427,827.293 L 571.009,827.263 L 570.589,827.24 L 570.167,827.225 L 569.753,827.217 Z "/>
				</g>
			</g>
			<g id="dp_group053">
				<g id="dp_group054">
					<path id="dp_path055" fill="#e97107" fill-rule="evenodd" d="M 568.54,766.548 L 570.54,766.548 L 574.54,766.548 L 569.54,756.548 L 564.54,766.548 Z "/>
					<path id="dp_path056" fill="#e97107" d="M 570.54,861.084 L 570.54,766.548 L 568.54,766.548 L 568.54,861.084 Z "/>
				</g>
			</g>
			<g id="dp_group057">
				<g id="dp_group058">
					<path id="dp_path059" fill="#cb0707" fill-rule="evenodd" d="M 681.867,847.535 L 682.019,848.859 L 682.323,851.508 L 688.565,847.437 L 681.563,844.885 Z "/>
					<path id="dp_path060" fill="#cb0707" d="M 569.617,861.747 L 682.019,848.86 L 681.867,847.535 L 569.465,860.421 Z "/>
				</g>
			</g>
			<path id="dp_path061" fill="none" fill-rule="evenodd" stroke="#cb0707" stroke-width="1.33333" d="M 688.567,847.439 L 688.567,758.439"/>
			<path id="dp_path062" fill="black" fill-rule="evenodd" d="M 656.555,868.704 C 657.024,868.695 657.496,868.535 657.969,868.227 C 658.429,867.932 658.868,867.536 659.284,867.037 C 660.133,865.995 660.792,864.799 661.261,863.448 C 661.488,862.781 661.649,862.136 661.745,861.509 C 661.827,860.884 661.824,860.32 661.736,859.819 C 661.66,859.317 661.492,858.916 661.236,858.617 C 660.967,858.321 660.6,858.173 660.133,858.173 C 659.677,858.173 659.219,858.321 658.759,858.617 C 658.297,858.916 657.852,859.317 657.425,859.819 C 656.552,860.876 655.883,862.085 655.42,863.448 C 654.961,864.799 654.812,865.995 654.973,867.037 C 655.06,867.536 655.235,867.932 655.493,868.227 C 655.748,868.535 656.101,868.695 656.555,868.704 Z M 659.772,863.463 L 659.459,864.384 C 659.055,865.575 658.623,866.523 658.165,867.225 C 657.684,867.956 657.189,868.325 656.68,868.335 C 656.197,868.325 655.965,867.956 655.985,867.225 C 655.981,866.523 656.181,865.575 656.585,864.384 L 656.899,863.463 Z M 657.099,862.876 L 657.477,861.763 C 657.767,860.911 658.132,860.169 658.573,859.543 C 658.8,859.237 659.035,858.991 659.276,858.807 C 659.516,858.631 659.759,858.543 660.008,858.543 C 660.276,858.543 660.469,858.631 660.589,858.807 C 660.707,858.991 660.773,859.237 660.791,859.543 C 660.787,860.169 660.64,860.911 660.351,861.763 L 659.971,862.876 Z "/>
			<g id="dp_group063">
				<g id="dp_group064">
					<path id="dp_path065" fill="#cb0707" fill-rule="evenodd" d="M 647.648,859.736 L 649.615,859.371 L 653.913,860.604 L 647.349,852.672 L 644.083,862.435 Z "/>
					<path id="dp_path066" fill="#cb0707" d="M 647.648,859.732 L 647.651,859.747 L 648.635,859.568 L 647.636,859.611 L 647.655,860.033 L 647.665,860.447 L 647.667,860.863 L 647.664,861.28 L 647.653,861.693 L 647.636,862.107 L 647.609,862.523 L 647.579,862.936 L 647.539,863.349 L 647.495,863.764 L 647.44,864.176 L 647.381,864.591 L 647.315,865.001 L 647.24,865.416 L 647.161,865.828 L 647.072,866.239 L 646.979,866.651 L 646.877,867.06 L 646.768,867.471 L 646.652,867.883 L 646.529,868.293 L 646.401,868.701 L 646.265,869.109 L 646.121,869.519 L 645.971,869.928 L 645.815,870.332 L 645.649,870.739 L 645.48,871.145 L 645.3,871.549 L 645.116,871.953 L 644.924,872.357 L 644.724,872.761 L 644.519,873.163 L 644.305,873.564 L 644.085,873.965 L 643.86,874.365 L 643.625,874.763 L 643.385,875.161 L 643.137,875.557 L 642.883,875.953 L 642.62,876.348 L 642.351,876.743 L 642.076,877.136 L 641.793,877.525 L 641.504,877.917 L 641.207,878.308 L 640.905,878.695 L 640.589,879.087 L 642.149,880.337 L 642.471,879.935 L 642.791,879.527 L 643.101,879.117 L 643.407,878.707 L 643.705,878.293 L 643.996,877.879 L 644.279,877.463 L 644.555,877.047 L 644.825,876.627 L 645.087,876.207 L 645.343,875.787 L 645.591,875.363 L 645.832,874.939 L 646.065,874.513 L 646.292,874.085 L 646.511,873.657 L 646.721,873.229 L 646.927,872.799 L 647.124,872.368 L 647.315,871.935 L 647.497,871.501 L 647.673,871.068 L 647.843,870.629 L 648.001,870.193 L 648.156,869.757 L 648.303,869.317 L 648.441,868.877 L 648.572,868.437 L 648.696,867.999 L 648.813,867.556 L 648.923,867.112 L 649.024,866.671 L 649.119,866.225 L 649.205,865.781 L 649.285,865.337 L 649.357,864.889 L 649.421,864.445 L 649.479,863.999 L 649.528,863.552 L 649.571,863.104 L 649.604,862.656 L 649.631,862.211 L 649.651,861.76 L 649.661,861.312 L 649.667,860.865 L 649.663,860.417 L 649.652,859.967 L 649.631,859.457 L 649.616,859.375 Z "/>
				</g>
			</g>
			<g id="dp_group067">
				<g id="dp_group068">
					<path id="dp_path069" fill="#cb0707" fill-rule="evenodd" d="M 687.9,809.604 L 689.233,809.604 L 691.9,809.604 L 688.567,802.937 L 685.233,809.604 Z "/>
					<path id="dp_path070" fill="#cb0707" d="M 689.233,847.44 L 689.233,809.604 L 687.9,809.604 L 687.9,847.44 Z "/>
				</g>
			</g>
			<g id="dp_group071">
				<text id="dp_text018" transform="matrix(0.996459,8.71211e-016,-8.81233e-016,1,674.457,862.432)" xml:space="preserve" fill="#cb0707" font-family="Arial" font-size="15" font-weight="700" x="0" y="0">c </text>
				<path id="dp_path073" fill="#cb0707" fill-rule="evenodd" stroke="#cb0707" stroke-width="0.666667" d="M 685.059,860.341 L 685.059,866.313"/>
				<path id="dp_path074" fill="#cb0707" fill-rule="evenodd" stroke="#cb0707" stroke-width="0.666667" d="M 681.549,866.043 L 688.568,866.043"/>
			</g>
			<g id="dp_group075">
				<text id="dp_text019" transform="matrix(0.996501,8.71249e-016,-8.81232e-016,1,694.699,811.783)" xml:space="preserve" fill="#cb0707" font-family="Arial" font-size="16" font-weight="700" x="0" y="0">c </text>
				<path id="dp_path077" fill="#cb0707" fill-rule="evenodd" stroke="#cb0707" stroke-width="0.666667" d="M 706.667,809.325 L 706.667,815.551"/>
				<path id="dp_path078" fill="#cb0707" fill-rule="evenodd" stroke="#cb0707" stroke-width="0.666667" d="M 704.68,809.324 L 704.68,815.549"/>
			</g>
			<path id="dp_path079" fill="black" fill-rule="evenodd" d="M 514.091,824.344 L 507.42,824.344 C 506.733,824.355 506.111,824.621 505.555,825.147 C 504.981,825.688 504.525,826.388 504.185,827.249 L 504.605,827.249 C 504.915,826.653 505.259,826.233 505.633,825.989 C 505.983,825.753 506.367,825.635 506.787,825.635 L 507.988,825.635 C 507.885,825.935 507.729,826.279 507.521,826.664 C 507.292,827.064 507.039,827.484 506.763,827.925 C 506.504,828.355 506.264,828.765 506.044,829.156 C 505.805,829.557 505.637,829.899 505.54,830.185 C 505.445,830.465 505.431,830.703 505.493,830.899 C 505.547,831.077 505.707,831.173 505.973,831.183 C 506.279,831.173 506.537,831.051 506.745,830.815 C 506.941,830.58 507.077,830.351 507.155,830.124 C 507.288,829.704 507.421,829.196 507.556,828.601 C 507.679,828.011 507.975,827.021 508.447,825.635 L 510.972,825.635 C 510.632,826.612 510.259,827.472 509.855,828.219 C 509.423,828.988 509.132,829.579 508.981,829.989 C 508.877,830.264 508.839,830.525 508.861,830.771 C 508.873,831.036 509.033,831.173 509.343,831.183 C 509.673,831.173 509.932,831.056 510.12,830.831 C 510.289,830.616 510.429,830.345 510.541,830.02 C 510.743,829.395 510.875,828.712 510.939,827.969 C 510.999,827.235 511.163,826.456 511.431,825.635 L 513.652,825.635 Z "/>
			<path id="dp_path080" fill="black" fill-rule="evenodd" d="M 511.868,831.209 L 517.787,819.832 L 518.965,819.832 L 513.047,831.209 Z "/>
			<path id="dp_path081" fill="black" fill-rule="evenodd" d="M 524.652,829.736 L 524.652,831.031 L 517.361,831.031 C 517.352,830.705 517.405,830.391 517.52,830.091 C 517.708,829.596 518.007,829.108 518.419,828.627 C 518.831,828.148 519.421,827.595 520.189,826.968 C 521.384,825.988 522.193,825.209 522.619,824.637 C 523.043,824.064 523.256,823.521 523.256,823.009 C 523.256,822.473 523.063,822.021 522.677,821.653 C 522.292,821.285 521.789,821.101 521.171,821.101 C 520.515,821.101 519.991,821.296 519.599,821.685 C 519.205,822.076 519.007,822.616 519.001,823.305 L 517.619,823.164 C 517.713,822.129 518.072,821.341 518.695,820.8 C 519.316,820.257 520.151,819.987 521.2,819.987 C 522.259,819.987 523.096,820.279 523.715,820.864 C 524.331,821.449 524.639,822.175 524.639,823.041 C 524.639,823.48 524.548,823.913 524.368,824.339 C 524.187,824.764 523.887,825.212 523.468,825.683 C 523.048,826.153 522.353,826.799 521.383,827.619 C 520.569,828.3 520.047,828.761 519.815,829.005 C 519.583,829.247 519.391,829.492 519.239,829.736 Z "/>
			<path id="dp_path082" fill="black" fill-rule="evenodd" d="M 529.863,829.249 L 529.863,826.225 L 526.865,826.225 L 526.865,824.971 L 529.863,824.971 L 529.863,821.972 L 531.144,821.972 L 531.144,824.971 L 534.143,824.971 L 534.143,826.225 L 531.144,826.225 L 531.144,829.249 Z "/>
			<path id="dp_path083" fill="black" fill-rule="evenodd" d="M 538.097,831.299 C 538.567,831.288 539.039,831.129 539.512,830.82 C 539.972,830.525 540.409,830.129 540.827,829.632 C 541.676,828.589 542.335,827.393 542.803,826.043 C 543.031,825.376 543.192,824.731 543.288,824.104 C 543.368,823.479 543.365,822.915 543.279,822.415 C 543.201,821.913 543.033,821.512 542.777,821.212 C 542.508,820.916 542.143,820.769 541.676,820.769 C 541.22,820.769 540.761,820.916 540.301,821.212 C 539.84,821.512 539.395,821.913 538.968,822.415 C 538.095,823.471 537.427,824.681 536.964,826.043 C 536.505,827.393 536.355,828.589 536.516,829.632 C 536.604,830.129 536.777,830.525 537.036,830.82 C 537.292,831.129 537.644,831.288 538.097,831.299 Z M 541.315,826.059 L 541,826.979 C 540.597,828.169 540.165,829.116 539.708,829.82 C 539.227,830.549 538.732,830.919 538.223,830.929 C 537.74,830.919 537.508,830.549 537.528,829.82 C 537.525,829.116 537.724,828.169 538.128,826.979 L 538.443,826.059 Z M 538.641,825.471 L 539.02,824.357 C 539.309,823.505 539.675,822.765 540.116,822.139 C 540.343,821.832 540.576,821.587 540.819,821.403 C 541.059,821.227 541.301,821.139 541.551,821.139 C 541.819,821.139 542.012,821.227 542.132,821.403 C 542.248,821.587 542.315,821.832 542.333,822.139 C 542.329,822.765 542.181,823.505 541.892,824.357 L 541.513,825.471 Z "/>
			<path id="dp_path084" fill="none" fill-rule="evenodd" stroke="#cb0707" stroke-width="1.33333" d="M 676.067,836.585 L 688.545,835.14 L 688.545,847.44 L 676.067,848.885 Z "/>
			<g id="dp_group085">
				<text id="dp_text020" transform="matrix(0.99645,8.71204e-016,-8.81232e-016,1,575.24,921.784)" xml:space="preserve" fill="black" font-family="Arial" font-size="16" font-weight="700" x="0" y="0">c</text>
				<text id="dp_text021" transform="matrix(1,8.74308e-016,-8.81232e-016,1,575.24,921.784)" xml:space="preserve" fill="black" font-family="Times New Roman" font-size="16" font-weight="400" x="8.648" y="0">∙</text>
				<text id="dp_text022" transform="matrix(1.0031,8.77016e-016,-8.81232e-016,1,575.201,921.784)" xml:space="preserve" fill="black" font-family="Arial" font-size="16" font-weight="400" x="12.5387" y="0">(</text>
				<text id="dp_text023" transform="matrix(0.99645,8.71204e-016,-8.81232e-016,1,575.303,921.784)" xml:space="preserve" fill="black" font-family="Arial" font-size="16" font-weight="700" x="17.7107" y="0">a</text>
				<text id="dp_text024" transform="matrix(1,8.74308e-016,-8.81232e-016,1,575.24,921.784)" xml:space="preserve" fill="black" font-family="Arial" font-size="15" font-weight="400" x="26.3573" y="0">×</text>
				<text id="dp_text025" transform="matrix(0.996767,8.71481e-016,-8.81232e-016,1,575.354,921.784)" xml:space="preserve" fill="black" font-family="Arial" font-size="16" font-weight="700" x="35.1107" y="0">b</text>
				<text id="dp_text026" transform="matrix(1.0031,8.77016e-016,-8.81232e-016,1,575.102,921.784)" xml:space="preserve" fill="black" font-family="Arial" font-size="16" font-weight="400" x="44.5853" y="0">)</text>
				<text id="dp_text027" transform="matrix(0.996295,8.71069e-016,-8.81232e-016,1,575.424,921.784)" xml:space="preserve" fill="black" font-family="Arial" font-size="16" font-weight="700" x="49.7573" y="0"> </text>
				<g id="dp_group094">
					<text id="dp_text028" transform="matrix(0.996501,8.71249e-016,-8.81232e-016,1,548.317,932.715)" xml:space="preserve" fill="black" font-family="Arial" font-size="16" font-weight="700" x="0" y="0">c </text>
					<path id="dp_path096" fill="black" fill-rule="evenodd" stroke="black" stroke-width="0.666667" d="M 560.285,930.257 L 560.285,936.483"/>
					<path id="dp_path097" fill="black" fill-rule="evenodd" stroke="black" stroke-width="0.666667" d="M 558.299,930.256 L 558.299,936.481"/>
				</g>
				<text id="dp_text029" transform="matrix(1.00162,0,0,1,563.013,932.595)" xml:space="preserve" fill="black" font-family="Arial" font-size="16" font-weight="400" x="0" y="0">=</text>
				<text id="dp_text030" transform="matrix(1,0,0,1,563.013,932.595)" xml:space="preserve" fill="black" font-family="Times New Roman" font-size="16" font-weight="400" x="9.06267" y="0"> </text>
				<text id="dp_text031" transform="matrix(1.00364,8.77489e-016,-8.81232e-016,1,579.668,943.236)" xml:space="preserve" fill="black" font-family="Arial" font-size="16" font-weight="400" x="0" y="0">|</text>
				<text id="dp_text032" transform="matrix(0.99645,8.71204e-016,-8.81232e-016,1,579.682,943.236)" xml:space="preserve" fill="black" font-family="Arial" font-size="16" font-weight="700" x="4.01333" y="0">a</text>
				<text id="dp_text033" transform="matrix(1,8.74308e-016,-8.81232e-016,1,579.668,943.236)" xml:space="preserve" fill="black" font-family="Arial" font-size="15" font-weight="400" x="12.66" y="0">×</text>
				<text id="dp_text034" transform="matrix(0.996767,8.71481e-016,-8.81232e-016,1,579.737,943.236)" xml:space="preserve" fill="black" font-family="Arial" font-size="16" font-weight="700" x="21.4133" y="0">b</text>
				<text id="dp_text035" transform="matrix(1.00364,8.77489e-016,-8.81232e-016,1,579.556,943.236)" xml:space="preserve" fill="black" font-family="Arial" font-size="16" font-weight="400" x="30.888" y="0">|</text>
				<text id="dp_text036" transform="matrix(0.996295,8.71069e-016,-8.81232e-016,1,579.797,943.236)" xml:space="preserve" fill="black" font-family="Arial" font-size="16" font-weight="700" x="34.9013" y="0"> </text>
				<path id="dp_path106" fill="black" fill-rule="evenodd" stroke="black" stroke-width="1.33333" d="M 574.813,927.719 L 624.996,927.719"/>
				<text id="dp_text037" transform="matrix(1.00192,8.75987e-016,-8.81232e-016,1,615.46,937.7)" xml:space="preserve" fill="black" font-family="Arial" font-size="10" font-weight="400" x="0" y="0">2</text>
				<text id="dp_text038" transform="matrix(0.996639,8.7137e-016,-8.81232e-016,1,615.479,937.7)" xml:space="preserve" fill="black" font-family="Arial" font-size="10" font-weight="700" x="5.56267" y="0"> </text>
				<text id="dp_text039" transform="matrix(1.0031,8.77016e-016,-8.81232e-016,1,625.92,931.426)" xml:space="preserve" fill="black" font-family="Arial" font-size="16" font-weight="400" x="0" y="0">(</text>
				<text id="dp_text040" transform="matrix(0.99645,8.71204e-016,-8.81232e-016,1,625.938,931.426)" xml:space="preserve" fill="black" font-family="Arial" font-size="16" font-weight="700" x="5.172" y="0">a</text>
				<text id="dp_text041" transform="matrix(1,8.74308e-016,-8.81232e-016,1,625.92,931.426)" xml:space="preserve" fill="black" font-family="Arial" font-size="15" font-weight="400" x="13.8187" y="0">×</text>
				<text id="dp_text042" transform="matrix(0.996767,8.71481e-016,-8.81232e-016,1,625.993,931.426)" xml:space="preserve" fill="black" font-family="Arial" font-size="16" font-weight="700" x="22.572" y="0">b</text>
				<text id="dp_text043" transform="matrix(1.0031,8.77016e-016,-8.81232e-016,1,625.821,931.426)" xml:space="preserve" fill="black" font-family="Arial" font-size="16" font-weight="400" x="32.0467" y="0">)</text>
				<text id="dp_text044" transform="matrix(0.996295,8.71069e-016,-8.81232e-016,1,626.058,931.426)" xml:space="preserve" fill="black" font-family="Arial" font-size="16" font-weight="700" x="37.2187" y="0"> </text>
			</g>
			<g id="dp_group115">
				<text id="dp_text045" transform="matrix(1,0,0,1,586.705,966.663)" xml:space="preserve" fill="black" font-family="Arial" font-size="15" font-weight="400" font-style="italic" x="0" y="0">−</text>
				<text id="dp_text046" transform="matrix(1,0,0,1,586.705,966.663)" xml:space="preserve" fill="black" font-family="Times New Roman" font-size="16" font-weight="400" x="8.97867" y="0"> </text>
				<g id="dp_group118">
					<text id="dp_text047" transform="matrix(0.996459,8.71211e-016,-8.81233e-016,1,548.465,966.17)" xml:space="preserve" fill="black" font-family="Arial" font-size="15" font-weight="700" x="0" y="0">c </text>
					<path id="dp_path120" fill="black" fill-rule="evenodd" stroke="black" stroke-width="0.666667" d="M 559.067,964.079 L 559.067,970.051"/>
					<path id="dp_path121" fill="black" fill-rule="evenodd" stroke="black" stroke-width="0.666667" d="M 555.557,969.78 L 562.576,969.78"/>
				</g>
				<text id="dp_text048" transform="matrix(0.996501,8.71249e-016,-8.81232e-016,1,576.081,966.543)" xml:space="preserve" fill="black" font-family="Arial" font-size="16" font-weight="700" x="0" y="0">c </text>
				<g id="dp_group123">
					<text id="dp_text049" transform="matrix(0.996501,8.71249e-016,-8.81232e-016,1,598.081,966.543)" xml:space="preserve" fill="black" font-family="Arial" font-size="16" font-weight="700" x="0" y="0">c </text>
					<path id="dp_path125" fill="black" fill-rule="evenodd" stroke="black" stroke-width="0.666667" d="M 610.049,964.085 L 610.049,970.311"/>
					<path id="dp_path126" fill="black" fill-rule="evenodd" stroke="black" stroke-width="0.666667" d="M 608.063,964.084 L 608.063,970.309"/>
				</g>
				<text id="dp_text050" transform="matrix(1.00169,8.75783e-016,-8.81233e-016,1,564.954,966.85)" xml:space="preserve" fill="black" font-family="Arial" font-size="15" font-weight="400" x="0" y="0">=</text>
				<text id="dp_text051" transform="matrix(0.996458,8.71211e-016,-8.81233e-016,1,564.985,966.85)" xml:space="preserve" fill="black" font-family="Arial" font-size="15" font-weight="700" x="8.69067" y="0"> </text>
			</g>
			<g id="dp_group129">
				<text id="dp_text052" transform="matrix(1.00169,8.75783e-016,-8.81233e-016,1,579.488,994.85)" xml:space="preserve" fill="black" font-family="Arial" font-size="15" font-weight="400" x="0" y="0">=</text>
				<text id="dp_text053" transform="matrix(0.996458,8.71211e-016,-8.81233e-016,1,579.518,994.85)" xml:space="preserve" fill="black" font-family="Arial" font-size="15" font-weight="700" x="8.69067" y="0"> </text>
				<g id="dp_group132">
					<text id="dp_text054" transform="matrix(0.996459,8.71211e-016,-8.81233e-016,1,561.588,994.85)" xml:space="preserve" fill="black" font-family="Arial" font-size="15" font-weight="700" x="0" y="0">c </text>
					<path id="dp_path134" fill="black" fill-rule="evenodd" stroke="black" stroke-width="0.666667" d="M 572.189,992.759 L 572.189,998.731"/>
					<path id="dp_path135" fill="black" fill-rule="evenodd" stroke="black" stroke-width="0.666667" d="M 568.68,998.46 L 575.699,998.46"/>
				</g>
				<text id="dp_text055" transform="matrix(1.00164,8.75741e-016,-8.81232e-016,1,631.304,995.223)" xml:space="preserve" fill="black" font-family="Arial" font-size="16" font-weight="400" x="0" y="0">cos </text>
				<text id="dp_text056" transform="matrix(0.99645,8.71204e-016,-8.81232e-016,1,548.551,995.14)" xml:space="preserve" fill="black" font-family="Arial" font-size="16" font-weight="700" x="0" y="0">a</text>
				<text id="dp_text057" transform="matrix(1,8.74308e-016,-8.81232e-016,1,548.551,995.14)" xml:space="preserve" fill="black" font-family="Times New Roman" font-size="16" font-weight="400" x="8.64667" y="0">∙</text>
				<text id="dp_text058" transform="matrix(0.996295,8.71069e-016,-8.81232e-016,1,548.597,995.14)" xml:space="preserve" fill="black" font-family="Arial" font-size="16" font-weight="700" x="12.5373" y="0"> </text>
				<g id="dp_group140">
					<text id="dp_text059" transform="matrix(1.00379,8.77625e-016,-8.81233e-016,1,605.588,994.85)" xml:space="preserve" fill="black" font-family="Arial" font-size="15" font-weight="400" x="0" y="0">|</text>
					<text id="dp_text060" transform="matrix(0.996539,8.71282e-016,-8.81233e-016,1,605.601,994.85)" xml:space="preserve" fill="black" font-family="Arial" font-size="15" font-weight="700" x="3.848" y="0">c  </text>
					<text id="dp_text061" transform="matrix(1.00379,8.77625e-016,-8.81233e-016,1,605.51,994.85)" xml:space="preserve" fill="black" font-family="Arial" font-size="15" font-weight="400" x="20.3987" y="0">|</text>
					<text id="dp_text062" transform="matrix(0.996458,8.71211e-016,-8.81233e-016,1,605.673,994.85)" xml:space="preserve" fill="black" font-family="Arial" font-size="15" font-weight="700" x="24.2467" y="0"> </text>
					<path id="dp_path145" fill="black" fill-rule="evenodd" stroke="black" stroke-width="0.666667" d="M 620.189,992.759 L 620.189,998.731"/>
					<path id="dp_path146" fill="black" fill-rule="evenodd" stroke="black" stroke-width="0.666667" d="M 616.68,998.46 L 623.699,998.46"/>
				</g>
				<text id="dp_text063" transform="matrix(1.00364,8.77489e-016,-8.81232e-016,1,589.551,995.14)" xml:space="preserve" fill="black" font-family="Arial" font-size="16" font-weight="400" x="0" y="0">|</text>
				<text id="dp_text064" transform="matrix(0.99645,8.71204e-016,-8.81232e-016,1,589.565,995.14)" xml:space="preserve" fill="black" font-family="Arial" font-size="16" font-weight="700" x="4.01333" y="0">a</text>
				<text id="dp_text065" transform="matrix(1.00364,8.77489e-016,-8.81232e-016,1,589.505,995.14)" xml:space="preserve" fill="black" font-family="Arial" font-size="16" font-weight="400" x="12.66" y="0">|</text>
				<text id="dp_text066" transform="matrix(0.996295,8.71069e-016,-8.81232e-016,1,589.612,995.14)" xml:space="preserve" fill="black" font-family="Arial" font-size="16" font-weight="700" x="16.6733" y="0"> </text>
				<path id="dp_path151" fill="black" fill-rule="evenodd" d="M 658.055,994.948 C 658.524,994.939 658.996,994.779 659.469,994.471 C 659.929,994.176 660.368,993.78 660.784,993.281 C 661.633,992.239 662.292,991.043 662.761,989.692 C 662.988,989.025 663.149,988.38 663.245,987.753 C 663.327,987.128 663.324,986.564 663.236,986.063 C 663.16,985.561 662.992,985.16 662.736,984.861 C 662.467,984.565 662.1,984.417 661.633,984.417 C 661.177,984.417 660.719,984.565 660.259,984.861 C 659.797,985.16 659.352,985.561 658.925,986.063 C 658.052,987.12 657.383,988.329 656.92,989.692 C 656.461,991.043 656.312,992.239 656.473,993.281 C 656.56,993.78 656.735,994.176 656.993,994.471 C 657.248,994.779 657.601,994.939 658.055,994.948 Z M 661.272,989.707 L 660.959,990.628 C 660.555,991.819 660.123,992.767 659.665,993.469 C 659.184,994.2 658.689,994.569 658.18,994.579 C 657.697,994.569 657.465,994.2 657.485,993.469 C 657.481,992.767 657.681,991.819 658.085,990.628 L 658.399,989.707 Z M 658.599,989.12 L 658.977,988.007 C 659.267,987.155 659.632,986.413 660.073,985.787 C 660.3,985.481 660.535,985.235 660.776,985.051 C 661.016,984.875 661.259,984.787 661.508,984.787 C 661.776,984.787 661.969,984.875 662.089,985.051 C 662.207,985.235 662.273,985.481 662.291,985.787 C 662.287,986.413 662.14,987.155 661.851,988.007 L 661.471,989.12 Z "/>
			</g>
		</g>
		<g id="dp_group152">
			<g id="dp_group153">
				<text id="dp_text067" transform="matrix(0.99645,8.71204e-016,-8.81232e-016,1,308.573,961.451)" xml:space="preserve" fill="black" font-family="Arial" font-size="16" font-weight="700" x="0" y="0">a</text>
				<text id="dp_text068" transform="matrix(1,8.74308e-016,-8.81232e-016,1,308.573,961.451)" xml:space="preserve" fill="black" font-family="Times New Roman" font-size="16" font-weight="400" x="8.64667" y="0">∙</text>
				<text id="dp_text069" transform="matrix(1.0031,8.77016e-016,-8.81232e-016,1,308.534,961.451)" xml:space="preserve" fill="black" font-family="Arial" font-size="16" font-weight="400" x="12.5373" y="0">(</text>
				<text id="dp_text070" transform="matrix(0.996767,8.71481e-016,-8.81232e-016,1,308.631,961.451)" xml:space="preserve" fill="black" font-family="Arial" font-size="16" font-weight="700" x="17.7093" y="0">b</text>
				<text id="dp_text071" transform="matrix(1,8.74308e-016,-8.81232e-016,1,308.573,961.451)" xml:space="preserve" fill="black" font-family="Arial" font-size="15" font-weight="400" x="27.184" y="0">×</text>
				<text id="dp_text072" transform="matrix(0.99645,8.71204e-016,-8.81232e-016,1,308.701,961.451)" xml:space="preserve" fill="black" font-family="Arial" font-size="16" font-weight="700" x="35.9373" y="0">c</text>
				<text id="dp_text073" transform="matrix(1.0031,8.77016e-016,-8.81232e-016,1,308.435,961.451)" xml:space="preserve" fill="black" font-family="Arial" font-size="16" font-weight="400" x="44.5853" y="0">)</text>
				<text id="dp_text074" transform="matrix(0.996295,8.71069e-016,-8.81232e-016,1,308.758,961.451)" xml:space="preserve" fill="black" font-family="Arial" font-size="16" font-weight="700" x="49.7573" y="0"> </text>
				<g id="dp_group162">
					<text id="dp_text075" transform="matrix(0.996501,8.71249e-016,-8.81232e-016,1,281.651,972.382)" xml:space="preserve" fill="black" font-family="Arial" font-size="16" font-weight="700" x="0" y="0">a </text>
					<path id="dp_path164" fill="black" fill-rule="evenodd" stroke="black" stroke-width="0.666667" d="M 293.619,969.924 L 293.619,976.149"/>
					<path id="dp_path165" fill="black" fill-rule="evenodd" stroke="black" stroke-width="0.666667" d="M 291.632,969.923 L 291.632,976.148"/>
				</g>
				<text id="dp_text076" transform="matrix(1.00162,0,0,1,296.347,972.261)" xml:space="preserve" fill="black" font-family="Arial" font-size="16" font-weight="400" x="0" y="0">=</text>
				<text id="dp_text077" transform="matrix(1,0,0,1,296.347,972.261)" xml:space="preserve" fill="black" font-family="Times New Roman" font-size="16" font-weight="400" x="9.06267" y="0"> </text>
				<text id="dp_text078" transform="matrix(1.00364,8.77489e-016,-8.81232e-016,1,313.001,982.903)" xml:space="preserve" fill="black" font-family="Arial" font-size="16" font-weight="400" x="0" y="0">|</text>
				<text id="dp_text079" transform="matrix(0.996767,8.71481e-016,-8.81232e-016,1,313.014,982.903)" xml:space="preserve" fill="black" font-family="Arial" font-size="16" font-weight="700" x="4.01333" y="0">b</text>
				<text id="dp_text080" transform="matrix(1,8.74308e-016,-8.81232e-016,1,313.001,982.903)" xml:space="preserve" fill="black" font-family="Arial" font-size="15" font-weight="400" x="13.488" y="0">×</text>
				<text id="dp_text081" transform="matrix(0.99645,8.71204e-016,-8.81232e-016,1,313.08,982.903)" xml:space="preserve" fill="black" font-family="Arial" font-size="16" font-weight="700" x="22.2413" y="0">c</text>
				<text id="dp_text082" transform="matrix(1.00364,8.77489e-016,-8.81232e-016,1,312.889,982.903)" xml:space="preserve" fill="black" font-family="Arial" font-size="16" font-weight="400" x="30.8893" y="0">|</text>
				<text id="dp_text083" transform="matrix(0.996295,8.71069e-016,-8.81232e-016,1,313.131,982.903)" xml:space="preserve" fill="black" font-family="Arial" font-size="16" font-weight="700" x="34.9027" y="0"> </text>
				<path id="dp_path174" fill="black" fill-rule="evenodd" stroke="black" stroke-width="1.33333" d="M 308.147,967.385 L 358.329,967.385"/>
				<text id="dp_text084" transform="matrix(1.00192,8.75987e-016,-8.81232e-016,1,348.793,977.367)" xml:space="preserve" fill="black" font-family="Arial" font-size="10" font-weight="400" x="0" y="0">2</text>
				<text id="dp_text085" transform="matrix(0.996639,8.7137e-016,-8.81232e-016,1,348.812,977.367)" xml:space="preserve" fill="black" font-family="Arial" font-size="10" font-weight="700" x="5.56267" y="0"> </text>
				<text id="dp_text086" transform="matrix(1.0031,8.77016e-016,-8.81232e-016,1,359.253,971.092)" xml:space="preserve" fill="black" font-family="Arial" font-size="16" font-weight="400" x="0" y="0">(</text>
				<text id="dp_text087" transform="matrix(0.996767,8.71481e-016,-8.81232e-016,1,359.27,971.092)" xml:space="preserve" fill="black" font-family="Arial" font-size="16" font-weight="700" x="5.172" y="0">b</text>
				<text id="dp_text088" transform="matrix(1,8.74308e-016,-8.81232e-016,1,359.253,971.092)" xml:space="preserve" fill="black" font-family="Arial" font-size="15" font-weight="400" x="14.6467" y="0">×</text>
				<text id="dp_text089" transform="matrix(0.99645,8.71204e-016,-8.81232e-016,1,359.336,971.092)" xml:space="preserve" fill="black" font-family="Arial" font-size="16" font-weight="700" x="23.4" y="0">c</text>
				<text id="dp_text090" transform="matrix(1.0031,8.77016e-016,-8.81232e-016,1,359.154,971.092)" xml:space="preserve" fill="black" font-family="Arial" font-size="16" font-weight="400" x="32.048" y="0">)</text>
				<text id="dp_text091" transform="matrix(0.996295,8.71069e-016,-8.81232e-016,1,359.391,971.092)" xml:space="preserve" fill="black" font-family="Arial" font-size="16" font-weight="700" x="37.22" y="0"> </text>
			</g>
			<path id="dp_path183" fill="none" fill-rule="evenodd" stroke="black" stroke-width="1.33333" stroke-dasharray="3.2,3.2" d="M 329.936,910.72 L 448.96,897.075"/>
			<g id="dp_group184">
				<text id="dp_text092" transform="matrix(1,0,0,1,320.039,1006.33)" xml:space="preserve" fill="black" font-family="Arial" font-size="15" font-weight="400" font-style="italic" x="0" y="0">−</text>
				<text id="dp_text093" transform="matrix(1,0,0,1,320.039,1006.33)" xml:space="preserve" fill="black" font-family="Times New Roman" font-size="16" font-weight="400" x="8.97867" y="0"> </text>
				<g id="dp_group187">
					<text id="dp_text094" transform="matrix(0.996459,8.71211e-016,-8.81233e-016,1,281.798,1005.84)" xml:space="preserve" fill="black" font-family="Arial" font-size="15" font-weight="700" x="0" y="0">a </text>
					<path id="dp_path189" fill="black" fill-rule="evenodd" stroke="black" stroke-width="0.666667" d="M 292.4,1003.75 L 292.4,1009.72"/>
					<path id="dp_path190" fill="black" fill-rule="evenodd" stroke="black" stroke-width="0.666667" d="M 288.891,1009.45 L 295.909,1009.45"/>
				</g>
				<text id="dp_text095" transform="matrix(0.996501,8.71249e-016,-8.81232e-016,1,309.415,1006.21)" xml:space="preserve" fill="black" font-family="Arial" font-size="16" font-weight="700" x="0" y="0">a </text>
				<g id="dp_group192">
					<text id="dp_text096" transform="matrix(0.996501,8.71249e-016,-8.81232e-016,1,331.415,1006.21)" xml:space="preserve" fill="black" font-family="Arial" font-size="16" font-weight="700" x="0" y="0">a </text>
					<path id="dp_path194" fill="black" fill-rule="evenodd" stroke="black" stroke-width="0.666667" d="M 343.383,1003.75 L 343.383,1009.98"/>
					<path id="dp_path195" fill="black" fill-rule="evenodd" stroke="black" stroke-width="0.666667" d="M 341.396,1003.75 L 341.396,1009.98"/>
				</g>
				<text id="dp_text097" transform="matrix(1.00169,8.75783e-016,-8.81233e-016,1,298.288,1006.52)" xml:space="preserve" fill="black" font-family="Arial" font-size="15" font-weight="400" x="0" y="0">=</text>
				<text id="dp_text098" transform="matrix(0.996458,8.71211e-016,-8.81233e-016,1,298.318,1006.52)" xml:space="preserve" fill="black" font-family="Arial" font-size="15" font-weight="700" x="8.69067" y="0"> </text>
			</g>
			<path id="dp_path198" fill="none" fill-rule="evenodd" stroke="black" stroke-width="1.33333" stroke-dasharray="3.2,3.2" d="M 401.233,816.772 L 448.959,897.073"/>
			<g id="dp_group199">
				<g id="dp_group200">
					<path id="dp_path201" fill="black" fill-rule="evenodd" d="M 325.684,901.816 L 323.965,902.839 L 320.527,904.883 L 329.935,910.924 L 329.123,899.773 Z "/>
					<path id="dp_path202" fill="black" d="M 281.348,831.133 L 323.964,902.839 L 325.684,901.817 L 283.068,830.112 Z "/>
				</g>
			</g>
			<path id="dp_path203" fill="none" fill-rule="evenodd" stroke="black" stroke-width="1.33333" d="M 429.281,886.703 L 441.928,885.004 L 448.961,897.024 L 436.315,898.723 Z "/>
			<path id="dp_path204" fill="#0f06c3" fill-rule="evenodd" fill-opacity="0.501961" stroke="none" stroke-width="2" d="M 333.285,812.644 C 343.327,822.316 344.448,834.185 336.289,844.42 L 281.641,830.175 Z "/>
			<g id="dp_group205">
				<g id="dp_group206">
					<path id="dp_path207" fill="#0f06c3" fill-rule="evenodd" d="M 337.027,818.644 L 338.556,817.356 L 342.905,816.312 L 333.284,812.644 L 335.253,822.751 Z "/>
					<path id="dp_path208" fill="#0f06c3" d="M 337.024,818.64 L 337.028,818.643 L 337.151,818.832 L 337.3,819.067 L 337.447,819.301 L 337.588,819.535 L 337.728,819.771 L 337.864,820.007 L 337.999,820.244 L 338.128,820.481 L 338.255,820.716 L 338.377,820.953 L 338.499,821.192 L 338.616,821.428 L 338.728,821.665 L 338.839,821.904 L 338.947,822.144 L 339.051,822.381 L 339.152,822.623 L 339.251,822.861 L 339.344,823.099 L 339.436,823.34 L 339.524,823.58 L 339.609,823.82 L 339.691,824.061 L 339.769,824.301 L 339.844,824.541 L 339.917,824.783 L 339.985,825.024 L 340.052,825.265 L 340.113,825.507 L 340.173,825.748 L 340.229,825.989 L 340.283,826.232 L 340.332,826.475 L 340.379,826.719 L 340.423,826.959 L 340.463,827.201 L 340.501,827.445 L 340.535,827.685 L 340.565,827.928 L 340.593,828.171 L 340.617,828.415 L 340.639,828.66 L 340.657,828.899 L 340.672,829.141 L 340.684,829.388 L 340.693,829.629 L 340.699,829.872 L 340.7,830.115 L 340.7,830.36 L 340.696,830.603 L 340.688,830.845 L 340.677,831.091 L 340.665,831.333 L 340.648,831.576 L 340.628,831.821 L 340.605,832.063 L 340.579,832.305 L 340.551,832.549 L 340.517,832.792 L 340.481,833.035 L 340.443,833.277 L 340.4,833.521 L 340.355,833.763 L 340.307,834.007 L 340.255,834.247 L 340.199,834.493 L 340.141,834.735 L 340.08,834.975 L 340.015,835.219 L 339.947,835.463 L 339.876,835.703 L 339.801,835.944 L 339.723,836.188 L 339.643,836.429 L 339.56,836.669 L 339.472,836.911 L 339.38,837.155 L 339.288,837.395 L 339.192,837.633 L 339.091,837.875 L 338.987,838.116 L 338.88,838.356 L 338.771,838.596 L 338.656,838.836 L 338.54,839.075 L 338.421,839.312 L 338.297,839.552 L 338.169,839.792 L 338.039,840.032 L 337.908,840.268 L 337.771,840.504 L 337.629,840.744 L 337.487,840.983 L 337.341,841.219 L 337.191,841.455 L 337.039,841.691 L 336.883,841.924 L 336.72,842.161 L 336.557,842.397 L 336.392,842.629 L 336.221,842.865 L 336.048,843.099 L 335.872,843.332 L 335.691,843.565 L 335.504,843.8 L 337.075,845.04 L 337.267,844.795 L 337.459,844.545 L 337.648,844.296 L 337.832,844.047 L 338.013,843.797 L 338.195,843.544 L 338.368,843.292 L 338.539,843.041 L 338.708,842.787 L 338.873,842.532 L 339.035,842.277 L 339.193,842.02 L 339.347,841.765 L 339.496,841.512 L 339.644,841.255 L 339.791,840.995 L 339.929,840.736 L 340.065,840.48 L 340.2,840.221 L 340.332,839.96 L 340.459,839.7 L 340.581,839.439 L 340.701,839.177 L 340.819,838.916 L 340.931,838.653 L 341.04,838.393 L 341.147,838.128 L 341.249,837.864 L 341.347,837.601 L 341.443,837.339 L 341.536,837.072 L 341.624,836.807 L 341.708,836.544 L 341.791,836.279 L 341.869,836.009 L 341.943,835.744 L 342.013,835.481 L 342.083,835.212 L 342.145,834.944 L 342.207,834.679 L 342.264,834.409 L 342.317,834.141 L 342.368,833.873 L 342.413,833.605 L 342.457,833.339 L 342.496,833.069 L 342.532,832.8 L 342.565,832.532 L 342.595,832.263 L 342.62,831.992 L 342.64,831.725 L 342.66,831.456 L 342.675,831.184 L 342.685,830.917 L 342.693,830.648 L 342.697,830.379 L 342.7,830.112 L 342.696,829.843 L 342.691,829.573 L 342.681,829.3 L 342.667,829.035 L 342.652,828.765 L 342.631,828.495 L 342.607,828.228 L 342.58,827.96 L 342.549,827.691 L 342.516,827.424 L 342.477,827.152 L 342.436,826.887 L 342.393,826.62 L 342.344,826.351 L 342.292,826.085 L 342.237,825.819 L 342.179,825.552 L 342.117,825.284 L 342.052,825.019 L 341.983,824.753 L 341.911,824.488 L 341.835,824.223 L 341.756,823.957 L 341.673,823.693 L 341.587,823.429 L 341.497,823.167 L 341.404,822.903 L 341.308,822.641 L 341.208,822.379 L 341.104,822.115 L 340.997,821.855 L 340.888,821.595 L 340.773,821.333 L 340.657,821.075 L 340.539,820.817 L 340.413,820.556 L 340.285,820.296 L 340.156,820.041 L 340.023,819.785 L 339.885,819.527 L 339.743,819.271 L 339.6,819.017 L 339.453,818.763 L 339.303,818.508 L 339.148,818.253 L 338.991,818.003 L 338.831,817.749 L 338.636,817.453 L 338.56,817.36 Z "/>
				</g>
			</g>
			<g id="dp_group209">
				<g id="dp_group210">
					<path id="dp_path211" fill="#0f06c3" fill-rule="evenodd" d="M 399.584,859.492 L 399.087,861.429 L 398.092,865.304 L 409.021,862.945 L 400.577,855.617 Z "/>
					<path id="dp_path212" fill="#0f06c3" d="M 281.96,831.385 L 399.087,861.429 L 399.583,859.493 L 282.456,829.449 Z "/>
				</g>
			</g>
			<g id="dp_group213">
				<g id="dp_group214">
					<path id="dp_path215" fill="#0f06c3" fill-rule="evenodd" d="M 366.723,799.499 L 367.389,801.385 L 368.721,805.157 L 376.485,797.112 L 365.391,795.728 Z "/>
					<path id="dp_path216" fill="#0f06c3" d="M 282.541,831.36 L 367.389,801.385 L 366.723,799.5 L 281.875,829.475 Z "/>
				</g>
			</g>
			<g id="dp_group217">
				<g id="dp_group218">
					<path id="dp_path219" fill="#cb0707" fill-rule="evenodd" d="M 393.005,733.545 L 394.311,735.06 L 396.924,738.089 L 401.232,727.772 L 390.393,730.516 Z "/>
					<path id="dp_path220" fill="#cb0707" d="M 282.861,831.173 L 394.312,735.06 L 393.005,733.545 L 281.555,829.659 Z "/>
				</g>
			</g>
			<text id="dp_text099" transform="matrix(0.996767,8.71481e-016,-8.81232e-016,1,268.551,718.903)" xml:space="preserve" fill="#e97107" font-family="Arial" font-size="16" font-weight="700" x="0" y="0">b</text>
			<text id="dp_text100" transform="matrix(1,8.74308e-016,-8.81232e-016,1,268.551,718.903)" xml:space="preserve" fill="#e97107" font-family="Arial" font-size="15" font-weight="400" x="9.47467" y="0">×</text>
			<text id="dp_text101" transform="matrix(0.996501,8.71249e-016,-8.81232e-016,1,268.614,718.903)" xml:space="preserve" fill="#e97107" font-family="Arial" font-size="16" font-weight="700" x="18.228" y="0">c </text>
			<text id="dp_text102" transform="matrix(0.996716,8.71437e-016,-8.81232e-016,1,410.895,867.822)" xml:space="preserve" fill="#0f06c3" font-family="Arial" font-size="16" font-weight="700" x="0" y="0">b </text>
			<text id="dp_text103" transform="matrix(0.99645,0,0,1,377.373,800.399)" xml:space="preserve" fill="#0f06c3" font-family="Arial" font-size="16" font-weight="700" x="0" y="0">c</text>
			<text id="dp_text104" transform="matrix(1,0,0,1,377.373,800.399)" xml:space="preserve" fill="black" font-family="Times New Roman" font-size="16" font-weight="400" x="8.648" y="0"> </text>
			<text id="dp_text105" transform="matrix(0.99645,0,0,1,391.123,718.904)" xml:space="preserve" fill="#cb0707" font-family="Arial" font-size="16" font-weight="700" x="0" y="0">a</text>
			<text id="dp_text106" transform="matrix(1,0,0,1,391.123,718.904)" xml:space="preserve" fill="#cb0707" font-family="Times New Roman" font-size="16" font-weight="400" x="8.64667" y="0"> </text>
			<text id="dp_text107" transform="matrix(0.99645,8.71204e-016,-8.81232e-016,1,298.921,926.439)" xml:space="preserve" fill="black" font-family="Arial" font-size="16" font-weight="700" x="0" y="0">a</text>
			<text id="dp_text108" transform="matrix(1,8.74308e-016,-8.81232e-016,1,298.921,926.439)" xml:space="preserve" fill="black" font-family="Arial" font-size="15" font-weight="400" x="8.64667" y="0">×</text>
			<text id="dp_text109" transform="matrix(1.0031,8.77016e-016,-8.81232e-016,1,298.867,926.439)" xml:space="preserve" fill="black" font-family="Arial" font-size="16" font-weight="400" x="17.4" y="0">(</text>
			<text id="dp_text110" transform="matrix(0.996767,8.71481e-016,-8.81232e-016,1,298.994,926.439)" xml:space="preserve" fill="black" font-family="Arial" font-size="16" font-weight="700" x="22.572" y="0">b</text>
			<text id="dp_text111" transform="matrix(1,8.74308e-016,-8.81232e-016,1,298.921,926.439)" xml:space="preserve" fill="black" font-family="Arial" font-size="15" font-weight="400" x="32.0467" y="0">×</text>
			<text id="dp_text112" transform="matrix(0.99645,8.71204e-016,-8.81232e-016,1,299.066,926.439)" xml:space="preserve" fill="black" font-family="Arial" font-size="16" font-weight="700" x="40.8" y="0">c</text>
			<text id="dp_text113" transform="matrix(1.0031,8.77016e-016,-8.81232e-016,1,298.768,926.439)" xml:space="preserve" fill="black" font-family="Arial" font-size="16" font-weight="400" x="49.448" y="0">)</text>
			<text id="dp_text114" transform="matrix(0.996295,8.71069e-016,-8.81232e-016,1,299.124,926.439)" xml:space="preserve" fill="black" font-family="Arial" font-size="16" font-weight="700" x="54.62" y="0"> </text>
			<g id="dp_group237">
				<g id="dp_group238">
					<path id="dp_path239" fill="#e97107" fill-rule="evenodd" d="M 289.14,799.704 L 289.473,797.732 L 292.112,794.121 L 282.404,797.552 L 290.445,803.981 Z "/>
					<path id="dp_path240" fill="#e97107" d="M 289.143,799.704 L 289.263,799.723 L 289.555,799.823 L 289.919,799.956 L 290.281,800.095 L 290.64,800.239 L 290.999,800.389 L 291.355,800.547 L 291.709,800.711 L 292.061,800.88 L 292.412,801.055 L 292.76,801.236 L 293.105,801.425 L 293.449,801.619 L 293.792,801.819 L 294.131,802.025 L 294.469,802.236 L 294.804,802.455 L 295.136,802.679 L 295.465,802.907 L 295.793,803.144 L 296.119,803.384 L 296.44,803.632 L 296.76,803.884 L 297.077,804.144 L 297.391,804.407 L 297.701,804.677 L 298.011,804.953 L 298.315,805.233 L 298.616,805.521 L 298.916,805.813 L 299.211,806.111 L 299.504,806.416 L 299.795,806.724 L 300.08,807.037 L 300.363,807.357 L 300.641,807.683 L 300.919,808.013 L 301.191,808.349 L 301.459,808.689 L 301.724,809.036 L 301.984,809.387 L 302.243,809.745 L 302.497,810.107 L 302.747,810.473 L 302.992,810.845 L 303.235,811.223 L 303.476,811.612 L 305.172,810.553 L 304.923,810.156 L 304.667,809.755 L 304.405,809.361 L 304.14,808.971 L 303.869,808.585 L 303.597,808.208 L 303.319,807.833 L 303.037,807.465 L 302.751,807.101 L 302.46,806.744 L 302.167,806.392 L 301.869,806.045 L 301.568,805.704 L 301.261,805.367 L 300.952,805.037 L 300.64,804.713 L 300.324,804.395 L 300.003,804.081 L 299.68,803.775 L 299.352,803.473 L 299.021,803.179 L 298.689,802.889 L 298.352,802.605 L 298.011,802.327 L 297.669,802.056 L 297.321,801.789 L 296.972,801.531 L 296.62,801.277 L 296.264,801.028 L 295.905,800.788 L 295.544,800.553 L 295.181,800.324 L 294.813,800.101 L 294.444,799.885 L 294.073,799.676 L 293.699,799.473 L 293.321,799.276 L 292.941,799.085 L 292.56,798.903 L 292.176,798.725 L 291.788,798.555 L 291.4,798.391 L 291.009,798.233 L 290.617,798.084 L 290.221,797.94 L 289.753,797.779 L 289.471,797.731 Z "/>
				</g>
			</g>
			<g id="dp_group241">
				<g id="dp_group242">
					<path id="dp_path243" fill="#e97107" fill-rule="evenodd" d="M 281.207,735.881 L 283.207,735.881 L 287.207,735.881 L 282.207,725.881 L 277.207,735.881 Z "/>
					<path id="dp_path244" fill="#e97107" d="M 283.207,830.417 L 283.207,735.881 L 281.207,735.881 L 281.207,830.417 Z "/>
				</g>
			</g>
			<g id="dp_group245">
				<g id="dp_group246">
					<path id="dp_path247" fill="#cb0707" fill-rule="evenodd" d="M 394.533,816.868 L 394.685,818.192 L 394.989,820.841 L 401.232,816.771 L 394.229,814.219 Z "/>
					<path id="dp_path248" fill="#cb0707" d="M 282.284,831.08 L 394.685,818.193 L 394.533,816.868 L 282.132,829.755 Z "/>
				</g>
			</g>
			<path id="dp_path249" fill="none" fill-rule="evenodd" stroke="#cb0707" stroke-width="1.33333" d="M 401.233,816.772 L 401.233,727.772"/>
			<path id="dp_path250" fill="black" fill-rule="evenodd" d="M 369.221,838.037 C 369.691,838.028 370.163,837.868 370.636,837.56 C 371.096,837.265 371.535,836.869 371.951,836.371 C 372.8,835.328 373.459,834.132 373.928,832.781 C 374.155,832.115 374.316,831.469 374.412,830.843 C 374.493,830.217 374.491,829.653 374.403,829.152 C 374.327,828.651 374.159,828.249 373.903,827.951 C 373.633,827.655 373.267,827.507 372.8,827.507 C 372.344,827.507 371.885,827.655 371.425,827.951 C 370.964,828.249 370.519,828.651 370.092,829.152 C 369.219,830.209 368.549,831.419 368.087,832.781 C 367.628,834.132 367.479,835.328 367.64,836.371 C 367.727,836.869 367.901,837.265 368.16,837.56 C 368.415,837.868 368.768,838.028 369.221,838.037 Z M 372.439,832.796 L 372.125,833.717 C 371.721,834.908 371.289,835.856 370.832,836.559 C 370.351,837.289 369.856,837.659 369.347,837.668 C 368.864,837.659 368.632,837.289 368.652,836.559 C 368.648,835.856 368.848,834.908 369.252,833.717 L 369.565,832.796 Z M 369.765,832.209 L 370.144,831.096 C 370.433,830.244 370.799,829.503 371.24,828.876 C 371.467,828.571 371.701,828.324 371.943,828.14 C 372.183,827.964 372.425,827.876 372.675,827.876 C 372.943,827.876 373.136,827.964 373.256,828.14 C 373.373,828.324 373.44,828.571 373.457,828.876 C 373.453,829.503 373.307,830.244 373.017,831.096 L 372.637,832.209 Z "/>
			<g id="dp_group251">
				<g id="dp_group252">
					<path id="dp_path253" fill="#cb0707" fill-rule="evenodd" d="M 360.315,829.069 L 362.281,828.704 L 366.58,829.937 L 360.016,822.005 L 356.749,831.768 Z "/>
					<path id="dp_path254" fill="#cb0707" d="M 360.315,829.065 L 360.317,829.08 L 361.301,828.901 L 360.303,828.944 L 360.321,829.367 L 360.332,829.78 L 360.333,830.196 L 360.331,830.613 L 360.32,831.027 L 360.303,831.44 L 360.276,831.856 L 360.245,832.269 L 360.205,832.683 L 360.161,833.097 L 360.107,833.509 L 360.048,833.924 L 359.981,834.335 L 359.907,834.749 L 359.828,835.161 L 359.739,835.572 L 359.645,835.984 L 359.544,836.393 L 359.435,836.804 L 359.319,837.216 L 359.196,837.627 L 359.068,838.035 L 358.932,838.443 L 358.788,838.852 L 358.637,839.261 L 358.481,839.665 L 358.316,840.072 L 358.147,840.479 L 357.967,840.883 L 357.783,841.287 L 357.591,841.691 L 357.391,842.095 L 357.185,842.496 L 356.972,842.897 L 356.752,843.299 L 356.527,843.699 L 356.292,844.096 L 356.052,844.495 L 355.804,844.891 L 355.549,845.287 L 355.287,845.681 L 355.017,846.076 L 354.743,846.469 L 354.46,846.859 L 354.171,847.251 L 353.873,847.641 L 353.572,848.028 L 353.256,848.42 L 354.816,849.671 L 355.137,849.268 L 355.457,848.86 L 355.768,848.451 L 356.073,848.04 L 356.372,847.627 L 356.663,847.212 L 356.945,846.796 L 357.221,846.38 L 357.492,845.96 L 357.753,845.54 L 358.009,845.12 L 358.257,844.696 L 358.499,844.272 L 358.732,843.847 L 358.959,843.419 L 359.177,842.991 L 359.388,842.563 L 359.593,842.132 L 359.791,841.701 L 359.981,841.268 L 360.164,840.835 L 360.34,840.401 L 360.509,839.963 L 360.668,839.527 L 360.823,839.091 L 360.969,838.651 L 361.108,838.211 L 361.239,837.771 L 361.363,837.332 L 361.48,836.889 L 361.589,836.445 L 361.691,836.004 L 361.785,835.559 L 361.872,835.115 L 361.952,834.671 L 362.024,834.223 L 362.088,833.779 L 362.145,833.332 L 362.195,832.885 L 362.237,832.437 L 362.271,831.989 L 362.297,831.544 L 362.317,831.093 L 362.328,830.645 L 362.333,830.199 L 362.329,829.751 L 362.319,829.3 L 362.297,828.791 L 362.283,828.708 Z "/>
				</g>
			</g>
			<g id="dp_group255">
				<g id="dp_group256">
					<path id="dp_path257" fill="#cb0707" fill-rule="evenodd" d="M 400.567,778.937 L 401.9,778.937 L 404.567,778.937 L 401.233,772.271 L 397.9,778.937 Z "/>
					<path id="dp_path258" fill="#cb0707" d="M 401.9,816.773 L 401.9,778.937 L 400.567,778.937 L 400.567,816.773 Z "/>
				</g>
			</g>
			<g id="dp_group259">
				<text id="dp_text115" transform="matrix(0.996459,8.71211e-016,-8.81233e-016,1,387.124,831.766)" xml:space="preserve" fill="#cb0707" font-family="Arial" font-size="15" font-weight="700" x="0" y="0">a </text>
				<path id="dp_path261" fill="#cb0707" fill-rule="evenodd" stroke="#cb0707" stroke-width="0.666667" d="M 397.725,829.675 L 397.725,835.647"/>
				<path id="dp_path262" fill="#cb0707" fill-rule="evenodd" stroke="#cb0707" stroke-width="0.666667" d="M 394.216,835.376 L 401.235,835.376"/>
			</g>
			<g id="dp_group263">
				<text id="dp_text116" transform="matrix(0.996501,8.71249e-016,-8.81232e-016,1,407.365,781.116)" xml:space="preserve" fill="#cb0707" font-family="Arial" font-size="16" font-weight="700" x="0" y="0">a </text>
				<path id="dp_path265" fill="#cb0707" fill-rule="evenodd" stroke="#cb0707" stroke-width="0.666667" d="M 419.333,778.659 L 419.333,784.884"/>
				<path id="dp_path266" fill="#cb0707" fill-rule="evenodd" stroke="#cb0707" stroke-width="0.666667" d="M 417.347,778.657 L 417.347,784.883"/>
			</g>
			<path id="dp_path267" fill="#e97107" fill-rule="evenodd" fill-opacity="0.501961" stroke="none" stroke-width="2" d="M 282.404,797.551 C 291.033,797.625 299.14,802.629 304.324,811.083 L 282.209,831.447 Z "/>
			<g id="dp_group268">
				<path id="dp_path269" fill="black" fill-rule="evenodd" d="M 325.757,869.677 L 319.087,869.677 C 318.4,869.688 317.777,869.955 317.221,870.48 C 316.648,871.021 316.192,871.721 315.852,872.583 L 316.272,872.583 C 316.581,871.987 316.925,871.567 317.3,871.323 C 317.649,871.087 318.033,870.968 318.453,870.968 L 319.655,870.968 C 319.552,871.268 319.396,871.612 319.188,871.997 C 318.959,872.397 318.705,872.817 318.429,873.259 C 318.171,873.688 317.931,874.099 317.711,874.489 C 317.472,874.891 317.304,875.232 317.207,875.519 C 317.112,875.799 317.097,876.036 317.16,876.232 C 317.213,876.411 317.373,876.507 317.64,876.516 C 317.945,876.507 318.204,876.384 318.412,876.148 C 318.608,875.913 318.744,875.684 318.821,875.457 C 318.955,875.037 319.088,874.529 319.223,873.935 C 319.345,873.344 319.641,872.355 320.113,870.968 L 322.639,870.968 C 322.299,871.945 321.925,872.805 321.521,873.552 C 321.089,874.321 320.799,874.912 320.648,875.323 C 320.544,875.597 320.505,875.859 320.528,876.104 C 320.54,876.369 320.7,876.507 321.009,876.516 C 321.34,876.507 321.599,876.389 321.787,876.164 C 321.956,875.949 322.096,875.679 322.208,875.353 C 322.409,874.728 322.541,874.045 322.605,873.303 C 322.665,872.568 322.829,871.789 323.097,870.968 L 325.319,870.968 Z "/>
				<path id="dp_path270" fill="black" fill-rule="evenodd" d="M 323.535,876.543 L 329.453,865.165 L 330.632,865.165 L 324.713,876.543 Z "/>
				<path id="dp_path271" fill="black" fill-rule="evenodd" d="M 336.319,875.069 L 336.319,876.364 L 329.028,876.364 C 329.019,876.039 329.072,875.724 329.187,875.424 C 329.375,874.929 329.673,874.441 330.085,873.96 C 330.497,873.481 331.088,872.928 331.856,872.301 C 333.051,871.321 333.86,870.543 334.285,869.971 C 334.709,869.397 334.923,868.855 334.923,868.343 C 334.923,867.807 334.729,867.355 334.344,866.987 C 333.959,866.619 333.456,866.435 332.837,866.435 C 332.181,866.435 331.657,866.629 331.265,867.019 C 330.872,867.409 330.673,867.949 330.668,868.639 L 329.285,868.497 C 329.38,867.463 329.739,866.675 330.361,866.133 C 330.983,865.591 331.817,865.32 332.867,865.32 C 333.925,865.32 334.763,865.612 335.381,866.197 C 335.997,866.783 336.305,867.508 336.305,868.375 C 336.305,868.813 336.215,869.247 336.035,869.672 C 335.853,870.097 335.553,870.545 335.135,871.016 C 334.715,871.487 334.02,872.132 333.049,872.952 C 332.236,873.633 331.713,874.095 331.481,874.339 C 331.249,874.58 331.057,874.825 330.905,875.069 Z "/>
				<path id="dp_path272" fill="black" fill-rule="evenodd" d="M 338.532,871.559 L 338.532,870.304 L 345.809,870.304 L 345.809,871.559 Z "/>
				<path id="dp_path273" fill="black" fill-rule="evenodd" d="M 349.764,876.632 C 350.233,876.621 350.705,876.463 351.179,876.153 C 351.639,875.859 352.076,875.463 352.493,874.965 C 353.343,873.923 354.001,872.727 354.469,871.376 C 354.697,870.709 354.859,870.064 354.955,869.437 C 355.035,868.812 355.032,868.248 354.945,867.748 C 354.868,867.247 354.7,866.845 354.444,866.545 C 354.175,866.249 353.809,866.103 353.343,866.103 C 352.887,866.103 352.428,866.249 351.968,866.545 C 351.507,866.845 351.061,867.247 350.635,867.748 C 349.761,868.804 349.093,870.015 348.631,871.376 C 348.172,872.727 348.021,873.923 348.183,874.965 C 348.271,875.463 348.444,875.859 348.703,876.153 C 348.959,876.463 349.311,876.621 349.764,876.632 Z M 352.981,871.392 L 352.667,872.312 C 352.264,873.503 351.832,874.449 351.375,875.153 C 350.893,875.883 350.399,876.252 349.889,876.263 C 349.407,876.252 349.175,875.883 349.195,875.153 C 349.192,874.449 349.391,873.503 349.795,872.312 L 350.109,871.392 Z M 350.308,870.804 L 350.687,869.691 C 350.976,868.839 351.341,868.099 351.783,867.472 C 352.009,867.165 352.243,866.92 352.485,866.736 C 352.725,866.56 352.968,866.472 353.217,866.472 C 353.485,866.472 353.679,866.56 353.799,866.736 C 353.915,866.92 353.981,867.165 354,867.472 C 353.996,868.099 353.848,868.839 353.559,869.691 L 353.18,870.804 Z "/>
			</g>
			<path id="dp_path274" fill="none" fill-rule="evenodd" stroke="#cb0707" stroke-width="1.33333" d="M 388.733,805.919 L 401.212,804.473 L 401.212,816.773 L 388.733,818.219 Z "/>
			<g id="dp_group275">
				<text id="dp_text117" transform="matrix(1.00169,8.75783e-016,-8.81233e-016,1,312.821,1034.52)" xml:space="preserve" fill="black" font-family="Arial" font-size="15" font-weight="400" x="0" y="0">=</text>
				<text id="dp_text118" transform="matrix(0.996458,8.71211e-016,-8.81233e-016,1,312.852,1034.52)" xml:space="preserve" fill="black" font-family="Arial" font-size="15" font-weight="700" x="8.69067" y="0"> </text>
				<g id="dp_group278">
					<text id="dp_text119" transform="matrix(0.996459,8.71211e-016,-8.81233e-016,1,294.921,1034.52)" xml:space="preserve" fill="black" font-family="Arial" font-size="15" font-weight="700" x="0" y="0">a </text>
					<path id="dp_path280" fill="black" fill-rule="evenodd" stroke="black" stroke-width="0.666667" d="M 305.523,1032.43 L 305.523,1038.4"/>
					<path id="dp_path281" fill="black" fill-rule="evenodd" stroke="black" stroke-width="0.666667" d="M 302.013,1038.13 L 309.032,1038.13"/>
				</g>
				<text id="dp_text120" transform="matrix(1.00164,8.75741e-016,-8.81232e-016,1,365.637,1034.89)" xml:space="preserve" fill="black" font-family="Arial" font-size="16" font-weight="400" x="0" y="0">cos </text>
				<text id="dp_text121" transform="matrix(0.996767,8.71481e-016,-8.81232e-016,1,281.884,1034.81)" xml:space="preserve" fill="black" font-family="Arial" font-size="16" font-weight="700" x="0" y="0">b</text>
				<text id="dp_text122" transform="matrix(1,8.74308e-016,-8.81232e-016,1,281.884,1034.81)" xml:space="preserve" fill="black" font-family="Times New Roman" font-size="16" font-weight="400" x="9.47467" y="0">∙</text>
				<text id="dp_text123" transform="matrix(0.996295,8.71069e-016,-8.81232e-016,1,281.934,1034.81)" xml:space="preserve" fill="black" font-family="Arial" font-size="16" font-weight="700" x="13.3653" y="0"> </text>
				<g id="dp_group286">
					<text id="dp_text124" transform="matrix(1.00379,8.77625e-016,-8.81233e-016,1,339.921,1034.52)" xml:space="preserve" fill="black" font-family="Arial" font-size="15" font-weight="400" x="0" y="0">|</text>
					<text id="dp_text125" transform="matrix(0.996539,8.71282e-016,-8.81233e-016,1,339.934,1034.52)" xml:space="preserve" fill="black" font-family="Arial" font-size="15" font-weight="700" x="3.848" y="0">a  </text>
					<text id="dp_text126" transform="matrix(1.00379,8.77625e-016,-8.81233e-016,1,339.843,1034.52)" xml:space="preserve" fill="black" font-family="Arial" font-size="15" font-weight="400" x="20.3987" y="0">|</text>
					<text id="dp_text127" transform="matrix(0.996458,8.71211e-016,-8.81233e-016,1,340.007,1034.52)" xml:space="preserve" fill="black" font-family="Arial" font-size="15" font-weight="700" x="24.2467" y="0"> </text>
					<path id="dp_path291" fill="black" fill-rule="evenodd" stroke="black" stroke-width="0.666667" d="M 354.523,1032.43 L 354.523,1038.4"/>
					<path id="dp_path292" fill="black" fill-rule="evenodd" stroke="black" stroke-width="0.666667" d="M 351.013,1038.13 L 358.032,1038.13"/>
				</g>
				<text id="dp_text128" transform="matrix(1.00364,8.77489e-016,-8.81232e-016,1,322.884,1034.81)" xml:space="preserve" fill="black" font-family="Arial" font-size="16" font-weight="400" x="0" y="0">|</text>
				<text id="dp_text129" transform="matrix(0.996767,8.71481e-016,-8.81232e-016,1,322.897,1034.81)" xml:space="preserve" fill="black" font-family="Arial" font-size="16" font-weight="700" x="4.01333" y="0">b</text>
				<text id="dp_text130" transform="matrix(1.00364,8.77489e-016,-8.81232e-016,1,322.835,1034.81)" xml:space="preserve" fill="black" font-family="Arial" font-size="16" font-weight="400" x="13.488" y="0">|</text>
				<text id="dp_text131" transform="matrix(0.996295,8.71069e-016,-8.81232e-016,1,322.949,1034.81)" xml:space="preserve" fill="black" font-family="Arial" font-size="16" font-weight="700" x="17.5013" y="0"> </text>
				<path id="dp_path297" fill="black" fill-rule="evenodd" d="M 392.388,1034.61 C 392.857,1034.61 393.329,1034.45 393.803,1034.14 C 394.263,1033.84 394.701,1033.45 395.117,1032.95 C 395.967,1031.91 396.625,1030.71 397.095,1029.36 C 397.321,1028.69 397.483,1028.05 397.579,1027.42 C 397.66,1026.79 397.657,1026.23 397.569,1025.73 C 397.493,1025.23 397.325,1024.83 397.069,1024.53 C 396.8,1024.23 396.433,1024.08 395.967,1024.08 C 395.511,1024.08 395.052,1024.23 394.592,1024.53 C 394.131,1024.83 393.685,1025.23 393.259,1025.73 C 392.385,1026.79 391.716,1028 391.253,1029.36 C 390.795,1030.71 390.645,1031.91 390.807,1032.95 C 390.893,1033.45 391.068,1033.84 391.327,1034.14 C 391.581,1034.45 391.935,1034.61 392.388,1034.61 Z M 395.605,1029.37 L 395.292,1030.29 C 394.888,1031.49 394.456,1032.43 393.999,1033.14 C 393.517,1033.87 393.023,1034.24 392.513,1034.25 C 392.031,1034.24 391.799,1033.87 391.819,1033.14 C 391.815,1032.43 392.015,1031.49 392.419,1030.29 L 392.732,1029.37 Z M 392.932,1028.79 L 393.311,1027.67 C 393.6,1026.82 393.965,1026.08 394.407,1025.45 C 394.633,1025.15 394.868,1024.9 395.109,1024.72 C 395.349,1024.54 395.592,1024.45 395.841,1024.45 C 396.109,1024.45 396.303,1024.54 396.423,1024.72 C 396.54,1024.9 396.607,1025.15 396.624,1025.45 C 396.62,1026.08 396.473,1026.82 396.184,1027.67 L 395.804,1028.79 Z "/>
			</g>
			<g id="dp_group298">
				<g id="dp_group299">
					<path id="dp_path300" fill="black" fill-rule="evenodd" d="M 311.075,866.889 L 310.619,864.941 L 311.655,860.591 L 304.031,867.512 L 313.935,870.328 Z "/>
					<path id="dp_path301" fill="black" d="M 343.941,845.575 L 343.576,846.037 L 343.205,846.491 L 342.827,846.941 L 342.437,847.385 L 342.037,847.828 L 341.627,848.268 L 341.208,848.705 L 340.779,849.139 L 340.341,849.568 L 339.895,849.993 L 339.437,850.416 L 338.969,850.835 L 338.495,851.251 L 338.009,851.661 L 337.515,852.072 L 337.013,852.476 L 336.501,852.876 L 335.98,853.272 L 335.449,853.665 L 334.911,854.055 L 334.364,854.44 L 333.809,854.82 L 333.245,855.196 L 332.672,855.571 L 332.092,855.937 L 331.504,856.301 L 330.907,856.661 L 330.301,857.017 L 329.688,857.369 L 329.068,857.715 L 328.439,858.057 L 327.801,858.395 L 327.157,858.729 L 326.505,859.057 L 325.848,859.38 L 325.18,859.699 L 324.507,860.013 L 323.825,860.323 L 323.136,860.628 L 322.441,860.927 L 321.737,861.223 L 321.029,861.512 L 320.312,861.796 L 319.589,862.077 L 318.86,862.351 L 318.124,862.62 L 317.38,862.885 L 316.632,863.143 L 315.876,863.396 L 315.115,863.644 L 314.347,863.887 L 313.572,864.125 L 312.793,864.357 L 312.008,864.583 L 311.231,864.799 L 310.619,864.941 L 311.075,866.888 L 311.727,866.735 L 312.549,866.505 L 313.353,866.275 L 314.151,866.037 L 314.939,865.796 L 315.725,865.548 L 316.503,865.295 L 317.275,865.036 L 318.041,864.771 L 318.801,864.5 L 319.553,864.225 L 320.301,863.944 L 321.043,863.657 L 321.776,863.365 L 322.503,863.068 L 323.223,862.767 L 323.936,862.46 L 324.641,862.147 L 325.341,861.829 L 326.033,861.507 L 326.717,861.18 L 327.396,860.847 L 328.067,860.508 L 328.729,860.165 L 329.383,859.817 L 330.031,859.467 L 330.672,859.108 L 331.304,858.745 L 331.928,858.379 L 332.544,858.008 L 333.153,857.631 L 333.752,857.251 L 334.344,856.865 L 334.929,856.476 L 335.505,856.08 L 336.071,855.681 L 336.631,855.279 L 337.18,854.869 L 337.72,854.457 L 338.253,854.041 L 338.779,853.619 L 339.292,853.195 L 339.799,852.765 L 340.295,852.331 L 340.781,851.893 L 341.26,851.452 L 341.731,851.005 L 342.189,850.555 L 342.64,850.1 L 343.08,849.641 L 343.509,849.18 L 343.931,848.713 L 344.341,848.243 L 344.744,847.768 L 345.133,847.291 L 345.509,846.817 Z "/>
				</g>
			</g>
			<path id="dp_path302" fill="#cb0707" fill-rule="evenodd" fill-opacity="0.501961" stroke="none" stroke-width="2" d="M 360.016,822.008 C 362.988,831.155 360.899,840.599 354.035,849.047 L 281.64,830.176 Z "/>
		</g>
	</g>
</svg>