<svg width="210mm" height="157mm" version="1.1" viewBox="0 0 210 157" xmlns="http://www.w3.org/2000/svg"><rect width="210" height="157" fill="#fff"/><path d="m53 85 23-10l-10 23-1-11" fill="#e22"/><path d="m1 24 9-23 9 23-9-7" fill="#939"/><path d="m119 132 23 9-23 9 7-9" fill="#00f"/>
 <g stroke-width="4"><path d="m10 141h116" stroke="#00f"/><path d="m10 141 55-55" stroke="#e22"/><path d="m10 17v124" stroke="#939"/></g>
 <path d="m76 75h132l-66 66m-103-29c9 7 13 19 13 29" fill="none" stroke="#000" stroke-width="2"/>
 <g font-family="Times" font-size="23px" font-weight="bold"><text x="67" y="156" fill="#00f">a</text><text x="26" y="109" fill="#e22">b</text><text x="88" y="110">|<tspan fill="#00f">a</tspan>×<tspan fill="#e22f">b</tspan>|</text><text x="16" y="40"><tspan fill="#00f">a</tspan>×<tspan fill="#e22">b</tspan></text><text x="53" y="127" font-style="italic" font-weight="normal">θ</text></g></svg>