<svg id="svg2" xmlns="http://www.w3.org/2000/svg" viewBox="0 0 249.91 252.05"><defs><style>.cls-1,.cls-2{fill-rule:evenodd;}.cls-2,.cls-3{stroke:#000;}.cls-2{stroke-width:0.8px;}.cls-3{fill:none;}.cls-4{isolation:isolate;}</style></defs><title>Cross elasticity of demand substitutes xi xj</title><g id="g3412"><path id="path2160" class="cls-1" d="M27,5.4v217h1V5.4Z"/><path id="path3418" class="cls-2" d="M27.52.8l4,6.9h-8Z"/></g><g id="g3404"><path id="path2162" class="cls-1" d="M27.52,221.9v1h217v-1Z"/><path id="path3410" class="cls-2" d="M249.12,222.4l-6.9,4v-8Z"/></g><path id="path3332" class="cls-3" d="M61,176.9,203.62,60.6"/><g class="cls-4"><path d="M10.77,141.22v.45c-.2,0-.52,0-.94,0a7.12,7.12,0,0,1-3.23-.81,3,3,0,0,1-1.6-3,5.58,5.58,0,0,1-3-2.33A6.52,6.52,0,0,1,.9,132a6.27,6.27,0,0,1,1.63-4.27,5,5,0,0,1,3.86-1.86,5.08,5.08,0,0,1,3.76,1.8,6,6,0,0,1,1.7,4.28,6.35,6.35,0,0,1-1.27,3.79,5.22,5.22,0,0,1-3.11,2.18,3.9,3.9,0,0,0,.65,2.61A3.65,3.65,0,0,0,10.77,141.22ZM6.41,126.33a3.38,3.38,0,0,0-1.79.5,2.28,2.28,0,0,0-1,1.6,21.42,21.42,0,0,0-.23,3.9,22.52,22.52,0,0,0,.15,3,3.22,3.22,0,0,0,.8,1.78,2.75,2.75,0,0,0,2.07.7,3,3,0,0,0,1.82-.55,2.71,2.71,0,0,0,1-1.78,22.9,22.9,0,0,0,.23-3.8,13.76,13.76,0,0,0-.3-3.47A2.2,2.2,0,0,0,8,126.76,3.33,3.33,0,0,0,6.41,126.33Z"/></g><g class="cls-4"><path d="M14,140.15h-.37a5.9,5.9,0,0,1,1.13-1.86A1.82,1.82,0,0,1,16,137.6a1,1,0,0,1,.81.4,4.46,4.46,0,0,1,.52,1.73A15.41,15.41,0,0,1,18.81,138a1.27,1.27,0,0,1,.86-.39.63.63,0,0,1,.46.19.71.71,0,0,1,.18.5.62.62,0,0,1-.19.48.58.58,0,0,1-.4.18.76.76,0,0,1-.49-.18.66.66,0,0,0-.29-.18.41.41,0,0,0-.25.08c-.06.05-.23.24-.52.57s-.52.66-.74,1c.27,1.41.45,2.3.55,2.67s.25.57.48.57.38-.15.63-.43a5.41,5.41,0,0,0,.72-1.24h.37a4.53,4.53,0,0,1-1.13,1.8,1.86,1.86,0,0,1-1.19.55,1.15,1.15,0,0,1-1.07-.52,5.34,5.34,0,0,1-.54-1.91L15.19,143c-.56.73-1,1.09-1.47,1.09a.73.73,0,0,1-.53-.22.69.69,0,0,1-.22-.52.6.6,0,0,1,.18-.44.65.65,0,0,1,.46-.18.66.66,0,0,1,.51.21.44.44,0,0,0,.26.15.41.41,0,0,0,.27-.08c0-.05.25-.27.59-.67a11.21,11.21,0,0,0,.91-1.16l-.34-1.9c-.1-.59-.26-.89-.49-.89S14.54,139,14,140.15Z"/></g><g class="cls-4"><path d="M23.4,145.7l-.68,2.86c-.38,1.59-.95,2.39-1.71,2.39a.86.86,0,0,1-.46-.13.35.35,0,0,1-.18-.3.3.3,0,0,1,.11-.24.4.4,0,0,1,.27-.09.32.32,0,0,1,.25.1.33.33,0,0,1,.1.24v.16c0,.06,0,.09.11.09a.24.24,0,0,0,.22-.17,4.79,4.79,0,0,0,.25-.84l.9-3.8h-.79l0-.21h.7l.5,0ZM22.89,144a.44.44,0,0,1,.43-.44.46.46,0,0,1,.32.13.46.46,0,0,1,.13.31.41.41,0,0,1-.14.31.4.4,0,0,1-.31.13.38.38,0,0,1-.3-.13A.4.4,0,0,1,22.89,144Z"/></g><g class="cls-4"><path d="M113.64,235.63v5h1.91V241h-5.87v-.45h1.87V229.69h-1.87v-.45h6.07a4.57,4.57,0,0,1,3.1.91,2.89,2.89,0,0,1,1,2.25,2.94,2.94,0,0,1-1,2.3,5.23,5.23,0,0,1-3.49.93Zm0-5.94v5.48h1.14a6,6,0,0,0,1.47-.15,1.74,1.74,0,0,0,1-.79,3.69,3.69,0,0,0,.42-2,3.19,3.19,0,0,0-.37-1.75,1.5,1.5,0,0,0-.88-.68,5.06,5.06,0,0,0-1.27-.13Z"/></g><g class="cls-4"><path d="M119.8,239.88h-.36a5.72,5.72,0,0,1,1.13-1.86,1.82,1.82,0,0,1,1.23-.69,1,1,0,0,1,.81.4,4.28,4.28,0,0,1,.52,1.72,18.72,18.72,0,0,1,1.48-1.74,1.26,1.26,0,0,1,.86-.38.59.59,0,0,1,.46.19.7.7,0,0,1,.18.5.63.63,0,0,1-.2.48.57.57,0,0,1-.39.17.72.72,0,0,1-.49-.17c-.15-.12-.24-.18-.3-.18a.38.38,0,0,0-.24.08,5.24,5.24,0,0,0-.52.57,11.39,11.39,0,0,0-.74,1q.4,2.12.54,2.67c.1.38.26.56.48.56s.39-.14.63-.43a4.79,4.79,0,0,0,.73-1.23H126a4.69,4.69,0,0,1-1.14,1.8,1.83,1.83,0,0,1-1.18.55,1.17,1.17,0,0,1-1.08-.52,5.61,5.61,0,0,1-.53-1.92L121,242.77c-.56.73-1,1.09-1.46,1.09a.71.71,0,0,1-.53-.22.69.69,0,0,1-.22-.52.6.6,0,0,1,.18-.44.68.68,0,0,1,1,0,.47.47,0,0,0,.26.15.38.38,0,0,0,.27-.07c.06-.05.26-.27.6-.67s.64-.78.91-1.16l-.35-1.9c-.1-.6-.26-.89-.48-.89S120.33,238.73,119.8,239.88Z"/></g><g class="cls-4"><path d="M128.76,246.71l-.6,2.45a2.9,2.9,0,0,0-.06.4.12.12,0,0,0,.14.14.65.65,0,0,0,.43-.26,2.93,2.93,0,0,0,.47-.79h.18c-.35.91-.82,1.36-1.43,1.36-.35,0-.52-.18-.52-.55a1.45,1.45,0,0,1,0-.35c0-.13.06-.23.08-.31l.44-1.82h-.75l0-.2h.47A7.4,7.4,0,0,0,128.76,246.71Zm-.48-1.67a.46.46,0,0,1,.13-.31.42.42,0,0,1,.31-.13.44.44,0,0,1,.31.75.43.43,0,0,1-.62,0A.44.44,0,0,1,128.28,245Z"/></g></svg>