<?xml version="1.0" encoding="UTF-8" standalone="no"?>
<!-- Created with Serif DrawPlus 11, 0, 3, 23 (Feb 25, 14:12:55) (http://www.serif.com) -->
<svg version="1.1" xmlns="http://www.w3.org/2000/svg" xmlns:xlink="http://www.w3.org/1999/xlink" width="618.024" height="349.056">
	<g id="dp_group001" transform="matrix(1,0,0,1,-104.653,-481.727)">
		<g id="dp_group002">
			<path id="dp_path003" fill="none" fill-rule="evenodd" stroke="#cb0707" stroke-width="1.33333" stroke-dasharray="3.2,3.2" d="M 138.837,814.452 L 166.221,767.468"/>
			<path id="dp_path004" fill="none" fill-rule="evenodd" stroke="#0f06c3" stroke-width="1.33333" stroke-dasharray="3.2,3.2" d="M 166.221,767.293 L 285.844,742.203"/>
			<g id="dp_group005">
				<g id="dp_group006">
					<path id="dp_path007" fill="black" fill-rule="evenodd" d="M 145.275,540.223 L 147.476,538.716 L 151.876,535.704 L 138.843,528.468 L 140.875,543.236 Z "/>
					<path id="dp_path008" fill="black" d="M 145.276,540.223 L 284.743,743.887 L 286.943,742.38 L 147.476,538.716 Z "/>
				</g>
			</g>
			<path id="dp_path009" fill="none" fill-rule="evenodd" stroke="black" stroke-width="1.33333" d="M 138.843,814.201 L 229.623,769.739"/>
			<g id="dp_group010">
				<g id="dp_group011">
					<path id="dp_path012" fill="black" fill-rule="evenodd" d="M 216.623,776.848 L 216.036,775.651 L 214.864,773.256 L 210.343,779.181 L 217.796,779.244 Z "/>
					<path id="dp_path013" fill="black" d="M 216.623,776.848 L 286.136,742.801 L 285.549,741.604 L 216.036,775.651 Z "/>
				</g>
			</g>
			<text id="dp_text001" transform="matrix(1,0,0,1,202.911,582.585)" xml:space="preserve" fill="#0f06c3" font-family="Arial" font-size="21" font-weight="700" x="0" y="0">c </text>
			<path id="dp_path015" fill="none" fill-rule="evenodd" stroke="#cb0707" stroke-width="1.33333" d="M 258.843,789.656 L 278.708,754.741"/>
			<g id="dp_group016">
				<g id="dp_group017">
					<path id="dp_path018" fill="#cb0707" fill-rule="evenodd" d="M 275.531,761.676 L 274.372,761.017 L 272.053,759.699 L 271.655,767.141 L 277.848,762.996 Z "/>
					<path id="dp_path019" fill="#cb0707" d="M 275.531,761.676 L 286.423,742.532 L 285.263,741.873 L 274.371,761.017 Z "/>
				</g>
			</g>
			<path id="dp_path020" fill="none" fill-rule="evenodd" stroke="#0f06c3" stroke-width="1.33333" stroke-dasharray="3.2,3.2" d="M 138.84,814.203 L 258.841,789.655"/>
			<g id="dp_group021">
				<g id="dp_group022">
					<path id="dp_path023" fill="black" d="M 153.208,791.645 L 153.208,806.255 L 139.504,813.123 L 139.504,798.513 L 153.208,791.645 L 154.539,789.488 L 138.171,797.692 L 138.173,815.28 L 154.541,807.076 L 154.539,789.488 Z "/>
				</g>
			</g>
			<text id="dp_text002" transform="matrix(0.579566,0.814926,-0.814926,0.579566,108.774,493.803)" xml:space="preserve" fill="black" font-family="Arial" font-size="21" font-weight="700" x="0" y="0">b</text>
			<text id="dp_text003" transform="matrix(0.579566,0.814926,-0.814926,0.579566,108.774,493.803)" xml:space="preserve" fill="black" font-family="Arial" font-size="21" font-weight="400" x="12.7227" y="0">+</text>
			<text id="dp_text004" transform="matrix(0.579566,0.814926,-0.814926,0.579566,108.774,493.803)" xml:space="preserve" fill="black" font-family="Arial" font-size="21" font-weight="700" x="24.8907" y="0">c </text>
			<path id="dp_path027" fill="none" fill-rule="evenodd" stroke="#cb0707" stroke-width="1.33333" stroke-dasharray="3.2,3.2" d="M 138.843,678.683 L 138.843,814.201"/>
			<g id="dp_group028">
				<text id="dp_text005" transform="matrix(0.996777,8.7149e-016,-8.81233e-016,1,277.461,773.247)" xml:space="preserve" fill="#cb0707" font-family="Arial" font-size="15" font-weight="700" x="0" y="0">b </text>
				<path id="dp_path030" fill="#cb0707" fill-rule="evenodd" stroke="#cb0707" stroke-width="0.666667" d="M 288.063,771.156 L 288.063,777.128"/>
				<path id="dp_path031" fill="#cb0707" fill-rule="evenodd" stroke="#cb0707" stroke-width="0.666667" d="M 284.553,776.857 L 291.572,776.857"/>
			</g>
			<path id="dp_path032" fill="none" fill-rule="evenodd" stroke="#cb0707" stroke-width="2.66667" d="M 285.843,742.204 L 258.843,653.201"/>
			<text id="dp_text006" transform="matrix(1,0,0,1,280.037,556.693)" xml:space="preserve" fill="#e97107" font-family="Arial" font-size="21" font-weight="700" x="0" y="0">a </text>
			<g id="dp_group034">
				<g id="dp_group035">
					<path id="dp_path036" fill="#e97107" fill-rule="evenodd" d="M 284.509,575.083 L 287.176,575.083 L 292.509,575.083 L 285.843,561.749 L 279.176,575.083 Z "/>
					<path id="dp_path037" fill="#e97107" d="M 284.511,575.083 L 284.511,742.203 L 287.177,742.203 L 287.177,575.083 Z "/>
				</g>
			</g>
			<g id="dp_group038">
				<text id="dp_text007" transform="matrix(0.996716,8.71437e-016,-8.81232e-016,1,241.16,736.307)" xml:space="preserve" fill="#cb0707" font-family="Arial" font-size="16" font-weight="700" x="0" y="0">b </text>
				<path id="dp_path040" fill="#cb0707" fill-rule="evenodd" stroke="#cb0707" stroke-width="0.666667" d="M 253.128,733.849 L 253.128,740.075"/>
				<path id="dp_path041" fill="#cb0707" fill-rule="evenodd" stroke="#cb0707" stroke-width="0.666667" d="M 251.141,733.848 L 251.141,740.073"/>
			</g>
			<g id="dp_group042">
				<g id="dp_group043">
					<path id="dp_path044" fill="#cb0707" d="M 263.712,765.237 L 263.711,779.856 L 259.508,787.18 L 259.508,772.561 L 263.712,765.237 L 265.043,760.237 L 258.175,772.207 L 258.177,792.18 L 265.044,780.211 L 265.043,760.237 Z "/>
				</g>
			</g>
			<g id="dp_group045">
				<g id="dp_group046">
					<path id="dp_path047" fill="#cb0707" fill-rule="evenodd" d="M 258.176,733.851 L 259.509,733.851 L 262.176,733.851 L 258.843,727.184 L 255.509,733.851 Z "/>
					<path id="dp_path048" fill="#cb0707" d="M 258.176,733.851 L 258.176,789.655 L 259.509,789.655 L 259.509,733.851 Z "/>
				</g>
			</g>
			<path id="dp_path049" fill="none" fill-rule="evenodd" stroke="#cb0707" stroke-width="1.33333" d="M 258.843,653.2 L 258.843,740.075"/>
			<text id="dp_text008" transform="matrix(1,0,0,1,271.831,690.959)" xml:space="preserve" fill="#cb0707" font-family="Arial" font-size="21" font-weight="700" x="0" y="0">b </text>
			<g id="dp_group051">
				<g id="dp_group052">
					<path id="dp_path053" fill="#0f06c3" d="M 137.976,662.679 L 137.979,679.847 L 154.756,676.425 L 154.753,659.257 L 137.976,662.679 L 139.309,663.767 L 153.423,660.889 L 153.423,675.337 L 139.309,678.215 L 139.309,663.767 Z "/>
				</g>
			</g>
			<path id="dp_path054" fill="none" fill-rule="evenodd" stroke="#0f06c3" stroke-width="1.33333" d="M 138.641,678.681 L 218.22,662.403"/>
			<path id="dp_path055" fill="none" fill-rule="evenodd" stroke="#0f06c3" stroke-width="1.33333" d="M 138.641,526.632 L 138.641,615.677"/>
			<path id="dp_path056" fill="none" fill-rule="evenodd" stroke="#0f06c3" stroke-width="2.66667" d="M 258.644,654.135 L 138.641,526.739"/>
			<g id="dp_group057">
				<g id="dp_group058">
					<path id="dp_path059" fill="#0f06c3" fill-rule="evenodd" d="M 193.065,668.537 L 192.793,667.232 L 192.247,664.621 L 186.404,669.251 L 193.612,671.147 Z "/>
					<path id="dp_path060" fill="#0f06c3" d="M 193.065,668.536 L 258.779,654.785 L 258.507,653.481 L 192.793,667.232 Z "/>
				</g>
			</g>
			<g id="dp_group061">
				<g id="dp_group062">
					<path id="dp_path063" fill="#0f06c3" fill-rule="evenodd" d="M 137.975,603.595 L 139.308,603.595 L 141.975,603.595 L 138.641,596.928 L 135.308,603.595 Z "/>
					<path id="dp_path064" fill="#0f06c3" d="M 137.975,603.595 L 137.975,677.859 L 139.308,677.859 L 139.308,603.595 Z "/>
				</g>
			</g>
			<g id="dp_group065">
				<text id="dp_text009" transform="matrix(0.996459,8.71211e-016,-8.81233e-016,1,184.73,658.7)" xml:space="preserve" fill="#0f06c3" font-family="Arial" font-size="15" font-weight="700" x="0" y="0">c </text>
				<path id="dp_path067" fill="#0f06c3" fill-rule="evenodd" stroke="#0f06c3" stroke-width="0.666667" d="M 195.332,656.609 L 195.332,662.581"/>
				<path id="dp_path068" fill="#0f06c3" fill-rule="evenodd" stroke="#0f06c3" stroke-width="0.666667" d="M 191.823,662.311 L 198.841,662.311"/>
			</g>
			<g id="dp_group069">
				<text id="dp_text010" transform="matrix(0.996501,8.71249e-016,-8.81232e-016,1,142.924,606.506)" xml:space="preserve" fill="#0f06c3" font-family="Arial" font-size="16" font-weight="700" x="0" y="0">c </text>
				<path id="dp_path071" fill="#0f06c3" fill-rule="evenodd" stroke="#0f06c3" stroke-width="0.666667" d="M 154.892,604.048 L 154.892,610.273"/>
				<path id="dp_path072" fill="#0f06c3" fill-rule="evenodd" stroke="#0f06c3" stroke-width="0.666667" d="M 152.905,604.047 L 152.905,610.272"/>
			</g>
			<g id="dp_group073">
				<g id="dp_group074">
					<path id="dp_path075" fill="#0f06c3" fill-rule="evenodd" d="M 205.529,599.645 L 207.472,597.817 L 211.355,594.161 L 197.361,589.023 L 201.647,603.301 Z "/>
					<path id="dp_path076" fill="#0f06c3" d="M 259.615,653.221 L 207.472,597.817 L 205.531,599.644 L 257.673,655.048 Z "/>
				</g>
			</g>
			<g id="dp_group077">
				<g id="dp_group078">
					<path id="dp_path079" fill="#cb0707" fill-rule="evenodd" d="M 273.287,704.911 L 275.841,704.145 L 280.951,702.617 L 270.741,691.755 L 268.177,706.44 Z "/>
					<path id="dp_path080" fill="#cb0707" d="M 287.12,741.821 L 275.843,704.145 L 273.288,704.911 L 284.565,742.587 Z "/>
				</g>
			</g>
			<g id="dp_group081">
				<g id="dp_group082">
					<text id="dp_text011" transform="matrix(0.996777,8.7149e-016,-8.81233e-016,1,104.844,826.838)" xml:space="preserve" fill="black" font-family="Arial" font-size="15" font-weight="700" x="0" y="0">b </text>
					<path id="dp_path084" fill="black" fill-rule="evenodd" stroke="black" stroke-width="0.666667" d="M 115.445,824.747 L 115.445,830.719"/>
					<path id="dp_path085" fill="black" fill-rule="evenodd" stroke="black" stroke-width="0.666667" d="M 111.936,830.448 L 118.955,830.448"/>
				</g>
				<g id="dp_group086">
					<text id="dp_text012" transform="matrix(0.996459,8.71211e-016,-8.81233e-016,1,127.844,826.838)" xml:space="preserve" fill="black" font-family="Arial" font-size="15" font-weight="700" x="0" y="0">c </text>
					<path id="dp_path088" fill="black" fill-rule="evenodd" stroke="black" stroke-width="0.666667" d="M 138.445,824.747 L 138.445,830.719"/>
					<path id="dp_path089" fill="black" fill-rule="evenodd" stroke="black" stroke-width="0.666667" d="M 134.936,830.448 L 141.955,830.448"/>
				</g>
				<text id="dp_text013" transform="matrix(1.00114,8.75307e-016,-8.81233e-016,1,117.844,826.838)" xml:space="preserve" fill="black" font-family="Arial" font-size="15" font-weight="400" x="0" y="0">+ </text>
			</g>
		</g>
		<g id="dp_group091">
			<g id="dp_group092">
				<g id="dp_group093">
					<path id="dp_path094" fill="black" d="M 489.735,536.384 L 653.451,658.457 L 531.375,822.176 L 367.659,700.104 L 489.735,536.384 L 489.465,534.52 L 365.795,700.373 L 531.644,824.04 L 655.315,658.188 L 489.465,534.52 Z "/>
				</g>
			</g>
			<g id="dp_group095">
				<g id="dp_group096">
					<path id="dp_path097" fill="#0f06c3" d="M 489.4,536.373 L 540.655,616.365 L 460.66,667.623 L 409.405,587.631 L 489.4,536.373 L 489.803,534.533 L 407.565,587.228 L 460.257,669.463 L 542.495,616.768 L 489.803,534.533 Z "/>
				</g>
			</g>
			<g id="dp_group098">
				<g id="dp_group099">
					<path id="dp_path100" fill="#cb0707" d="M 490,536.308 L 599.239,575.937 L 559.608,685.18 L 450.368,645.551 L 490,536.308 L 489.203,534.601 L 448.661,646.348 L 560.405,686.887 L 600.945,575.14 L 489.203,534.601 Z "/>
				</g>
			</g>
			<g id="dp_group101">
				<g id="dp_group102">
					<path id="dp_path103" fill="#0f06c3" fill-rule="evenodd" d="M 414.421,585.287 L 413.335,583.608 L 412.841,579.163 L 408,588.249 L 418.273,587.559 Z "/>
					<path id="dp_path104" fill="#0f06c3" d="M 414.42,585.287 L 490.143,536.292 L 489.057,534.612 L 413.335,583.607 Z "/>
				</g>
			</g>
			<g id="dp_group105">
				<g id="dp_group106">
					<path id="dp_path107" fill="#cb0707" fill-rule="evenodd" d="M 452.151,640.421 L 450.272,639.733 L 447.205,636.479 L 448.801,646.649 L 456.595,639.921 Z "/>
					<path id="dp_path108" fill="#cb0707" d="M 452.149,640.421 L 490.539,535.796 L 488.661,535.108 L 450.272,639.733 Z "/>
				</g>
			</g>
			<path id="dp_path109" fill="none" fill-rule="evenodd" stroke="#cb0707" stroke-width="1.33333" stroke-dasharray="3.2,3.2" d="M 367.2,699.448 L 408,588.251"/>
			<path id="dp_path110" fill="none" fill-rule="evenodd" stroke="#0f06c3" stroke-width="1.33333" stroke-dasharray="3.2,3.2" d="M 367.201,699.449 L 448.801,646.652"/>
			<path id="dp_path111" fill="none" fill-rule="evenodd" stroke="black" stroke-width="1.33333" d="M 367.203,699.449 L 489.6,535.455"/>
			<g id="dp_group112">
				<g id="dp_group113">
					<path id="dp_path114" fill="#0f06c3" fill-rule="evenodd" d="M 539.436,610.631 L 537.757,611.717 L 533.312,612.211 L 542.399,617.052 L 541.708,606.779 Z "/>
					<path id="dp_path115" fill="#0f06c3" d="M 539.436,610.632 L 490.441,534.909 L 488.761,535.995 L 537.756,611.717 Z "/>
				</g>
			</g>
			<g id="dp_group116">
				<g id="dp_group117">
					<path id="dp_path118" fill="#cb0707" fill-rule="evenodd" d="M 594.571,572.901 L 593.883,574.78 L 590.628,577.847 L 600.799,576.251 L 594.071,568.457 Z "/>
					<path id="dp_path119" fill="#cb0707" d="M 594.571,572.903 L 489.945,534.513 L 489.257,536.391 L 593.883,574.78 Z "/>
				</g>
			</g>
			<path id="dp_path120" fill="none" fill-rule="evenodd" stroke="#0f06c3" stroke-width="1.33333" stroke-dasharray="3.2,3.2" d="M 653.597,657.367 L 600.8,575.767"/>
			<path id="dp_path121" fill="none" fill-rule="evenodd" stroke="#cb0707" stroke-width="1.33333" stroke-dasharray="3.2,3.2" d="M 652.772,657.853 L 541.575,617.053"/>
			<path id="dp_path122" fill="none" fill-rule="evenodd" stroke="black" stroke-width="1.33333" d="M 653.596,657.852 L 489.601,535.455"/>
			<g id="dp_group123">
				<text id="dp_text014" transform="matrix(0.996777,8.7149e-016,-8.81233e-016,1,475.488,603.154)" xml:space="preserve" fill="#cb0707" font-family="Arial" font-size="15" font-weight="700" x="0" y="0">b </text>
				<path id="dp_path125" fill="#cb0707" fill-rule="evenodd" stroke="#cb0707" stroke-width="0.666667" d="M 486.089,601.063 L 486.089,607.035"/>
				<path id="dp_path126" fill="#cb0707" fill-rule="evenodd" stroke="#cb0707" stroke-width="0.666667" d="M 482.58,606.764 L 489.599,606.764"/>
			</g>
			<g id="dp_group127">
				<text id="dp_text015" transform="matrix(0.996459,8.71211e-016,-8.81233e-016,1,430.661,555.54)" xml:space="preserve" fill="#0f06c3" font-family="Arial" font-size="15" font-weight="700" x="0" y="0">c </text>
				<path id="dp_path129" fill="#0f06c3" fill-rule="evenodd" stroke="#0f06c3" stroke-width="0.666667" d="M 441.263,553.449 L 441.263,559.421"/>
				<path id="dp_path130" fill="#0f06c3" fill-rule="evenodd" stroke="#0f06c3" stroke-width="0.666667" d="M 437.753,559.151 L 444.772,559.151"/>
			</g>
			<text id="dp_text016" transform="matrix(1,3.72492e-015,-3.80828e-015,1,571.6,561.952)" xml:space="preserve" fill="#cb0707" font-family="Arial" font-size="15" font-weight="700" x="0" y="0">a</text>
			<text id="dp_text017" transform="matrix(1,3.72492e-015,-3.80828e-015,1,571.6,561.952)" xml:space="preserve" fill="#cb0707" font-family="Arial" font-size="15" font-weight="400" x="8.35467" y="0">×</text>
			<text id="dp_text018" transform="matrix(1,3.72492e-015,-3.80828e-015,1,571.6,561.952)" xml:space="preserve" fill="#cb0707" font-family="Arial" font-size="15" font-weight="700" x="17.108" y="0">b</text>
			<text id="dp_text019" transform="matrix(1,3.72492e-015,-3.80828e-015,1,571.6,561.952)" xml:space="preserve" fill="#cb0707" font-family="Arial" font-size="15" font-weight="700" x="26.2613" y="0"> </text>
			<text id="dp_text020" transform="matrix(0.5,0.866025,-0.866025,0.5,509.706,590.466)" xml:space="preserve" fill="#0f06c3" font-family="Arial" font-size="15" font-weight="700" x="0" y="0">a</text>
			<text id="dp_text021" transform="matrix(0.5,0.866025,-0.866025,0.5,509.706,590.466)" xml:space="preserve" fill="#0f06c3" font-family="Arial" font-size="15" font-weight="400" x="8.35467" y="0">×</text>
			<text id="dp_text022" transform="matrix(0.5,0.866025,-0.866025,0.5,509.706,590.466)" xml:space="preserve" fill="#0f06c3" font-family="Arial" font-size="15" font-weight="700" x="17.108" y="0">c</text>
			<text id="dp_text023" transform="matrix(0.5,0.866025,-0.866025,0.5,509.706,590.466)" xml:space="preserve" fill="#0f06c3" font-family="Arial" font-size="15" font-weight="700" x="25.4627" y="0"> </text>
			<g id="dp_group139">
				<g id="dp_group140">
					<text id="dp_text024" transform="matrix(0.996777,8.7149e-016,-8.81233e-016,1,326.73,710.838)" xml:space="preserve" fill="black" font-family="Arial" font-size="15" font-weight="700" x="0" y="0">b </text>
					<path id="dp_path142" fill="black" fill-rule="evenodd" stroke="black" stroke-width="0.666667" d="M 337.332,708.747 L 337.332,714.719"/>
					<path id="dp_path143" fill="black" fill-rule="evenodd" stroke="black" stroke-width="0.666667" d="M 333.823,714.448 L 340.841,714.448"/>
				</g>
				<g id="dp_group144">
					<text id="dp_text025" transform="matrix(0.996459,8.71211e-016,-8.81233e-016,1,349.73,710.838)" xml:space="preserve" fill="black" font-family="Arial" font-size="15" font-weight="700" x="0" y="0">c </text>
					<path id="dp_path146" fill="black" fill-rule="evenodd" stroke="black" stroke-width="0.666667" d="M 360.332,708.747 L 360.332,714.719"/>
					<path id="dp_path147" fill="black" fill-rule="evenodd" stroke="black" stroke-width="0.666667" d="M 356.823,714.448 L 363.841,714.448"/>
				</g>
				<text id="dp_text026" transform="matrix(1.00114,8.75307e-016,-8.81233e-016,1,339.73,710.838)" xml:space="preserve" fill="black" font-family="Arial" font-size="15" font-weight="400" x="0" y="0">+ </text>
			</g>
			<text id="dp_text027" transform="matrix(1,3.72492e-015,-3.80828e-015,1,662.199,665.519)" xml:space="preserve" fill="black" font-family="Arial" font-size="15" font-weight="700" x="0" y="0">a</text>
			<text id="dp_text028" transform="matrix(1,3.72492e-015,-3.80828e-015,1,662.199,665.519)" xml:space="preserve" fill="black" font-family="Arial" font-size="15" font-weight="400" x="8.35467" y="0">×</text>
			<text id="dp_text029" transform="matrix(1,3.72492e-015,-3.80828e-015,1,662.199,665.519)" xml:space="preserve" fill="black" font-family="Arial" font-size="15" font-weight="700" x="17.108" y="0">b</text>
			<text id="dp_text030" transform="matrix(1,3.72492e-015,-3.80828e-015,1,662.199,665.519)" xml:space="preserve" fill="black" font-family="Arial" font-size="15" font-weight="400" x="26.2613" y="0">+</text>
			<text id="dp_text031" transform="matrix(1,3.72492e-015,-3.80828e-015,1,662.199,665.519)" xml:space="preserve" fill="black" font-family="Arial" font-size="15" font-weight="700" x="35.016" y="0">a</text>
			<text id="dp_text032" transform="matrix(1,3.72492e-015,-3.80828e-015,1,662.199,665.519)" xml:space="preserve" fill="black" font-family="Arial" font-size="15" font-weight="400" x="43.3707" y="0">×</text>
			<text id="dp_text033" transform="matrix(1,3.72492e-015,-3.80828e-015,1,662.199,665.519)" xml:space="preserve" fill="black" font-family="Arial" font-size="15" font-weight="700" x="52.124" y="0">c</text>
			<text id="dp_text034" transform="matrix(1,3.72492e-015,-3.80828e-015,1,662.199,665.519)" xml:space="preserve" fill="black" font-family="Arial" font-size="15" font-weight="700" x="60.4787" y="0"> </text>
			<g id="dp_group157">
				<g id="dp_group158">
					<path id="dp_path159" fill="black" fill-rule="evenodd" d="M 419.421,630.72 L 418.352,629.923 L 417.012,627.26 L 416.097,634.063 L 422.356,631.245 Z "/>
					<path id="dp_path160" fill="black" d="M 419.421,630.72 L 490.135,535.853 L 489.065,535.056 L 418.352,629.923 Z "/>
				</g>
			</g>
			<g id="dp_group161">
				<g id="dp_group162">
					<path id="dp_path163" fill="black" fill-rule="evenodd" d="M 568.255,593.213 L 567.459,594.283 L 564.796,595.624 L 571.599,596.535 L 568.779,590.277 Z "/>
					<path id="dp_path164" fill="black" d="M 568.255,593.213 L 490,534.92 L 489.203,535.989 L 567.457,594.283 Z "/>
				</g>
			</g>
		</g>
	</g>
</svg>