<?xml version="1.0" encoding="UTF-8" standalone="no"?>
<!-- Created with Serif DrawPlus 11, 0, 3, 23 (Feb 25, 14:12:55) (http://www.serif.com) -->
<svg version="1.1" xmlns="http://www.w3.org/2000/svg" xmlns:xlink="http://www.w3.org/1999/xlink" width="536.236" height="227.38">
	<g id="selection" transform="matrix(1,0,0,1,-133.601,-828.397)">
		<g id="dp_group001">
			<g id="dp_group002">
				<g id="dp_group003">
					<path id="dp_path004" fill="#0f06c3" d="M 504.631,830.261 L 620.457,916.473 L 534.092,1032.09 L 418.265,945.883 L 504.631,830.261 L 504.361,828.397 L 416.399,946.155 L 534.361,1033.96 L 622.324,916.201 L 504.361,828.397 Z "/>
				</g>
			</g>
			<g id="dp_group005">
				<g id="dp_group006">
					<path id="dp_path007" fill="#0f06c3" fill-rule="evenodd" d="M 421.365,942.231 L 419.764,941.032 L 417.759,937.035 L 416.372,947.236 L 425.767,943.025 Z "/>
					<path id="dp_path008" fill="#0f06c3" d="M 421.365,942.229 L 504.473,831.148 L 502.871,829.951 L 419.763,941.032 Z "/>
				</g>
			</g>
			<g id="dp_group009">
				<g id="dp_group010">
					<path id="dp_path011" fill="#0f06c3" fill-rule="evenodd" d="M 616.379,911.392 L 615.183,912.996 L 611.188,915.007 L 621.392,916.379 L 617.165,906.991 Z "/>
					<path id="dp_path012" fill="#0f06c3" d="M 616.377,911.393 L 505.095,828.432 L 503.9,830.035 L 615.183,912.996 Z "/>
				</g>
			</g>
			<g id="dp_group013">
				<g id="dp_group014">
					<path id="dp_path015" fill="#cb0707" d="M 504.631,830.261 L 571.648,880.144 L 521.679,947.04 L 454.661,897.159 L 504.631,830.261 L 504.361,828.397 L 452.795,897.431 L 521.948,948.904 L 573.515,879.872 L 504.361,828.397 Z "/>
				</g>
			</g>
			<g id="dp_group016">
				<text id="dp_text001" transform="matrix(1.00296,8.76895e-016,-8.81233e-016,1,388.258,943.624)" xml:space="preserve" fill="#0f06c3" font-family="Arial" font-size="15" font-weight="400" font-style="italic" x="0" y="0">r</text>
				<text id="dp_text002" transform="matrix(0.996776,8.71488e-016,-8.81233e-016,1,388.274,943.624)" xml:space="preserve" fill="#0f06c3" font-family="Arial" font-size="15" font-weight="700" x="4.96" y="0">b</text>
				<text id="dp_text003" transform="matrix(0.996458,8.71211e-016,-8.81233e-016,1,388.308,943.624)" xml:space="preserve" fill="#0f06c3" font-family="Arial" font-size="15" font-weight="700" x="14.048" y="0"> </text>
				<path id="dp_path020" fill="#0f06c3" fill-rule="evenodd" stroke="#0f06c3" stroke-width="0.666667" d="M 404.86,941.533 L 404.86,947.505"/>
				<path id="dp_path021" fill="#0f06c3" fill-rule="evenodd" stroke="#0f06c3" stroke-width="0.666667" d="M 401.351,947.235 L 408.369,947.235"/>
			</g>
			<g id="dp_group022">
				<g id="dp_group023">
					<path id="dp_path024" fill="#cb0707" fill-rule="evenodd" d="M 569.431,876.301 L 568.237,877.905 L 564.244,879.921 L 574.449,881.281 L 570.213,871.899 Z "/>
					<path id="dp_path025" fill="#cb0707" d="M 569.431,876.301 L 505.095,828.431 L 503.9,830.036 L 568.236,877.907 Z "/>
				</g>
			</g>
			<g id="dp_group026">
				<text id="dp_text004" transform="matrix(0.996777,8.7149e-016,-8.81233e-016,1,432.518,886.784)" xml:space="preserve" fill="#cb0707" font-family="Arial" font-size="15" font-weight="700" x="0" y="0">b </text>
				<path id="dp_path028" fill="#cb0707" fill-rule="evenodd" stroke="#cb0707" stroke-width="0.666667" d="M 443.12,884.693 L 443.12,890.665"/>
				<path id="dp_path029" fill="#cb0707" fill-rule="evenodd" stroke="#cb0707" stroke-width="0.666667" d="M 439.611,890.395 L 446.629,890.395"/>
			</g>
			<text id="dp_text005" transform="matrix(1,3.72492e-015,-3.80828e-015,1,574.452,870.248)" xml:space="preserve" fill="#cb0707" font-family="Arial" font-size="15" font-weight="700" x="0" y="0">a</text>
			<text id="dp_text006" transform="matrix(1,3.72492e-015,-3.80828e-015,1,574.452,870.248)" xml:space="preserve" fill="#cb0707" font-family="Arial" font-size="15" font-weight="400" x="8.35467" y="0">×</text>
			<text id="dp_text007" transform="matrix(1,3.72492e-015,-3.80828e-015,1,574.452,870.248)" xml:space="preserve" fill="#cb0707" font-family="Arial" font-size="15" font-weight="700" x="17.108" y="0">b</text>
			<text id="dp_text008" transform="matrix(1,3.72492e-015,-3.80828e-015,1,574.452,870.248)" xml:space="preserve" fill="#cb0707" font-family="Arial" font-size="15" font-weight="700" x="26.2613" y="0"> </text>
			<text id="dp_text009" transform="matrix(1,3.72492e-015,-3.80828e-015,1,628.584,920.316)" xml:space="preserve" fill="#0f06c3" font-family="Arial" font-size="15" font-weight="400" font-style="italic" x="0" y="0">r</text>
			<text id="dp_text010" transform="matrix(1,3.72492e-015,-3.80828e-015,1,628.584,920.316)" xml:space="preserve" fill="#0f06c3" font-family="Arial" font-size="15" font-weight="400" x="4.99733" y="0">(</text>
			<text id="dp_text011" transform="matrix(1,3.72492e-015,-3.80828e-015,1,628.584,920.316)" xml:space="preserve" fill="#0f06c3" font-family="Arial" font-size="15" font-weight="700" x="9.99467" y="0">a</text>
			<text id="dp_text012" transform="matrix(1,3.72492e-015,-3.80828e-015,1,628.584,920.316)" xml:space="preserve" fill="#0f06c3" font-family="Arial" font-size="15" font-weight="400" x="18.3493" y="0">×</text>
			<text id="dp_text013" transform="matrix(1,3.72492e-015,-3.80828e-015,1,628.584,920.316)" xml:space="preserve" fill="#0f06c3" font-family="Arial" font-size="15" font-weight="700" x="27.1027" y="0">b</text>
			<text id="dp_text014" transform="matrix(1,3.72492e-015,-3.80828e-015,1,628.584,920.316)" xml:space="preserve" fill="#0f06c3" font-family="Arial" font-size="15" font-weight="400" x="36.256" y="0">)</text>
			<text id="dp_text015" transform="matrix(1,3.72492e-015,-3.80828e-015,1,628.584,920.316)" xml:space="preserve" fill="#0f06c3" font-family="Arial" font-size="15" font-weight="700" x="41.2533" y="0"> </text>
			<g id="dp_group041">
				<g id="dp_group042">
					<path id="dp_path043" fill="#cb0707" fill-rule="evenodd" d="M 457.345,894.148 L 455.743,892.952 L 453.735,888.956 L 452.356,899.159 L 461.748,894.939 Z "/>
					<path id="dp_path044" fill="#cb0707" d="M 457.345,894.148 L 505.299,829.929 L 503.696,828.732 L 455.743,892.951 Z "/>
				</g>
			</g>
		</g>
		<g id="dp_group045">
			<g id="dp_group046">
				<g id="dp_group047">
					<path id="dp_path048" fill="#0f06c3" fill-rule="evenodd" d="M 165.681,1031.63 L 165.092,1030.43 L 163.913,1028.04 L 159.407,1033.98 L 166.86,1034.02 Z "/>
					<path id="dp_path049" fill="#0f06c3" d="M 165.681,1031.63 L 277.481,976.505 L 276.892,975.311 L 165.092,1030.43 Z "/>
				</g>
			</g>
			<g id="dp_group050">
				<g id="dp_group051">
					<path id="dp_path052" fill="#0f06c3" fill-rule="evenodd" d="M 168.412,879.561 L 170.199,877.581 L 173.772,873.623 L 159.407,869.637 L 164.837,883.52 Z "/>
					<path id="dp_path053" fill="#0f06c3" d="M 278.08,974.94 L 170.199,877.581 L 168.412,879.56 L 276.293,976.919 Z "/>
				</g>
			</g>
			<g id="dp_group054">
				<text id="dp_text016" transform="matrix(0.996777,8.7149e-016,-8.81233e-016,1,222.141,1022.97)" xml:space="preserve" fill="#cb0707" font-family="Arial" font-size="15" font-weight="700" x="0" y="0">b </text>
				<path id="dp_path056" fill="#cb0707" fill-rule="evenodd" stroke="#cb0707" stroke-width="0.666667" d="M 232.743,1020.88 L 232.743,1026.85"/>
				<path id="dp_path057" fill="#cb0707" fill-rule="evenodd" stroke="#cb0707" stroke-width="0.666667" d="M 229.233,1026.58 L 236.252,1026.58"/>
			</g>
			<text id="dp_text017" transform="matrix(1,0,0,1,271.385,852.961)" xml:space="preserve" fill="#e97107" font-family="Arial" font-size="21" font-weight="700" x="0" y="0">a </text>
			<g id="dp_group059">
				<g id="dp_group060">
					<path id="dp_path061" fill="#e97107" fill-rule="evenodd" d="M 275.856,871.351 L 278.523,871.351 L 283.856,871.351 L 277.189,858.017 L 270.523,871.351 Z "/>
					<path id="dp_path062" fill="#e97107" d="M 275.857,871.351 L 275.857,975.928 L 278.524,975.928 L 278.524,871.351 Z "/>
				</g>
			</g>
			<g id="dp_group063">
				<text id="dp_text018" transform="matrix(0.996716,8.71437e-016,-8.81232e-016,1,193.849,975.254)" xml:space="preserve" fill="#cb0707" font-family="Arial" font-size="16" font-weight="700" x="0" y="0">b </text>
				<path id="dp_path065" fill="#cb0707" fill-rule="evenodd" stroke="#cb0707" stroke-width="0.666667" d="M 205.817,972.796 L 205.817,979.021"/>
				<path id="dp_path066" fill="#cb0707" fill-rule="evenodd" stroke="#cb0707" stroke-width="0.666667" d="M 203.831,972.795 L 203.831,979.02"/>
			</g>
			<text id="dp_text019" transform="matrix(1,0,0,1,240.756,930.675)" xml:space="preserve" fill="#cb0707" font-family="Arial" font-size="21" font-weight="700" x="0" y="0">b </text>
			<g id="dp_group068">
				<g id="dp_group069">
					<path id="dp_path070" fill="#cb0707" fill-rule="evenodd" d="M 220.284,925.909 L 222.08,923.937 L 225.671,919.995 L 211.324,915.947 L 216.693,929.852 Z "/>
					<path id="dp_path071" fill="#cb0707" d="M 278.085,974.944 L 222.08,923.937 L 220.285,925.908 L 276.291,976.915 Z "/>
				</g>
			</g>
			<g id="dp_group072">
				<g id="dp_group073">
					<path id="dp_path074" fill="#cb0707" d="M 221.673,992.572 L 221.675,1002.38 L 213.063,1006.79 L 213.061,996.984 L 221.673,992.572 L 223.007,990.393 L 211.728,996.171 L 211.732,1008.97 L 223.005,1003.19 L 223.007,990.393 Z "/>
				</g>
			</g>
			<g id="dp_group075">
				<g id="dp_group076">
					<path id="dp_path077" fill="#cb0707" fill-rule="evenodd" d="M 211.728,972.781 L 213.061,972.781 L 215.728,972.781 L 212.395,966.115 L 209.061,972.781 Z "/>
					<path id="dp_path078" fill="#cb0707" d="M 211.728,972.781 L 211.728,1006.93 L 213.061,1006.93 L 213.061,972.781 Z "/>
				</g>
			</g>
			<path id="dp_path079" fill="none" fill-rule="evenodd" stroke="#cb0707" stroke-width="1.33333" d="M 212.395,917.772 L 212.395,974.537"/>
			<path id="dp_path080" fill="none" fill-rule="evenodd" stroke="#0f06c3" stroke-width="1.33333" d="M 159.407,869.637 L 159.407,966.545"/>
			<g id="dp_group081">
				<g id="dp_group082">
					<path id="dp_path083" fill="#cb0707" fill-rule="evenodd" d="M 218.675,1005.38 L 218.087,1004.19 L 216.911,1001.79 L 212.396,1007.72 L 219.849,1007.77 Z "/>
					<path id="dp_path084" fill="#cb0707" d="M 218.673,1005.38 L 277.48,976.507 L 276.893,975.309 L 218.087,1004.18 Z "/>
				</g>
			</g>
			<text id="dp_text020" transform="matrix(1,0,0,1,182.881,878.853)" xml:space="preserve" fill="#0f06c3" font-family="Arial" font-size="21" font-weight="400" font-style="italic" x="0" y="0">r</text>
			<text id="dp_text021" transform="matrix(1,0,0,1,182.881,878.853)" xml:space="preserve" fill="#0f06c3" font-family="Arial" font-size="21" font-weight="700" x="6.94533" y="0">b</text>
			<text id="dp_text022" transform="matrix(1,0,0,1,182.881,878.853)" xml:space="preserve" fill="#0f06c3" font-family="Arial" font-size="21" font-weight="700" x="19.668" y="0"> </text>
			<g id="dp_group088">
				<text id="dp_text023" transform="matrix(1.00296,8.76895e-016,-8.81233e-016,1,164.989,1051.83)" xml:space="preserve" fill="#0f06c3" font-family="Arial" font-size="15" font-weight="400" font-style="italic" x="0" y="0">r</text>
				<text id="dp_text024" transform="matrix(0.996776,8.71488e-016,-8.81233e-016,1,165.005,1051.83)" xml:space="preserve" fill="#0f06c3" font-family="Arial" font-size="15" font-weight="700" x="4.96" y="0">b</text>
				<text id="dp_text025" transform="matrix(0.996458,8.71211e-016,-8.81233e-016,1,165.039,1051.83)" xml:space="preserve" fill="#0f06c3" font-family="Arial" font-size="15" font-weight="700" x="14.048" y="0"> </text>
				<path id="dp_path092" fill="#cb0707" fill-rule="evenodd" stroke="#0f06c3" stroke-width="0.666667" d="M 181.591,1049.74 L 181.591,1055.71"/>
				<path id="dp_path093" fill="#cb0707" fill-rule="evenodd" stroke="#0f06c3" stroke-width="0.666667" d="M 178.081,1055.44 L 185.1,1055.44"/>
			</g>
			<g id="dp_group094">
				<text id="dp_text026" transform="matrix(1.0031,8.77016e-016,-8.81232e-016,1,133.603,965.612)" xml:space="preserve" fill="#0f06c3" font-family="Arial" font-size="16" font-weight="400" font-style="italic" x="0" y="0">r</text>
				<text id="dp_text027" transform="matrix(0.996767,8.71481e-016,-8.81232e-016,1,133.619,965.612)" xml:space="preserve" fill="#0f06c3" font-family="Arial" font-size="16" font-weight="700" x="5.172" y="0">b</text>
				<text id="dp_text028" transform="matrix(0.996295,8.71069e-016,-8.81232e-016,1,133.657,965.612)" xml:space="preserve" fill="#0f06c3" font-family="Arial" font-size="16" font-weight="700" x="14.6467" y="0"> </text>
				<path id="dp_path098" fill="#0f06c3" fill-rule="evenodd" stroke="#0f06c3" stroke-width="0.666667" d="M 151.571,963.155 L 151.571,969.38"/>
				<path id="dp_path099" fill="#0f06c3" fill-rule="evenodd" stroke="#0f06c3" stroke-width="0.666667" d="M 149.584,963.153 L 149.584,969.379"/>
			</g>
			<g id="dp_group100">
				<g id="dp_group101">
					<path id="dp_path102" fill="#0f06c3" fill-rule="evenodd" d="M 158.74,958.475 L 160.073,958.475 L 162.74,958.475 L 159.407,951.808 L 156.073,958.475 Z "/>
					<path id="dp_path103" fill="#0f06c3" d="M 158.74,958.475 L 158.74,1033.98 L 160.073,1033.98 L 160.073,958.475 Z "/>
				</g>
			</g>
			<g id="dp_group104">
				<g id="dp_group105">
					<path id="dp_path106" fill="#0f06c3" fill-rule="evenodd" d="M 389.284,1030.43 L 388.695,1031.63 L 387.516,1034.02 L 394.969,1033.97 L 390.463,1028.04 Z "/>
					<path id="dp_path107" fill="#0f06c3" d="M 389.284,1030.43 L 277.484,975.311 L 276.895,976.505 L 388.695,1031.63 Z "/>
				</g>
			</g>
			<g id="dp_group108">
				<g id="dp_group109">
					<path id="dp_path110" fill="#cb0707" fill-rule="evenodd" d="M 336.292,1004.18 L 335.704,1005.38 L 334.528,1007.77 L 341.981,1007.72 L 337.467,1001.79 Z "/>
					<path id="dp_path111" fill="#cb0707" d="M 336.291,1004.18 L 277.483,975.309 L 276.896,976.507 L 335.704,1005.38 Z "/>
				</g>
			</g>
			<g id="dp_group112">
				<g id="dp_group113">
					<path id="dp_path114" fill="#cb0707" d="M 295.797,984.348 L 277.192,975.187 L 259.076,984.057 L 277.681,993.219 L 295.797,984.348 L 292.773,984.345 L 277.681,991.733 L 262.1,984.06 L 277.192,976.672 L 292.773,984.345 Z "/>
				</g>
			</g>
			<text id="dp_text029" transform="matrix(0.99645,8.71204e-016,-8.81232e-016,1,400.464,1038.9)" xml:space="preserve" fill="#0f06c3" font-family="Arial" font-size="16" font-weight="700" x="0" y="0">a</text>
			<text id="dp_text030" transform="matrix(1,8.74308e-016,-8.81232e-016,1,400.464,1038.9)" xml:space="preserve" fill="#0f06c3" font-family="Arial" font-size="15" font-weight="400" x="8.64667" y="0">×(</text>
			<text id="dp_text031" transform="matrix(1.0031,8.77016e-016,-8.81232e-016,1,400.395,1038.9)" xml:space="preserve" fill="#0f06c3" font-family="Arial" font-size="16" font-weight="400" font-style="italic" x="22.3973" y="0">r</text>
			<text id="dp_text032" transform="matrix(0.996767,8.71481e-016,-8.81232e-016,1,400.553,1038.9)" xml:space="preserve" fill="#0f06c3" font-family="Arial" font-size="16" font-weight="700" x="27.5693" y="0">b</text>
			<text id="dp_text033" transform="matrix(1.0031,8.77016e-016,-8.81232e-016,1,400.349,1038.9)" xml:space="preserve" fill="#0f06c3" font-family="Arial" font-size="16" font-weight="400" x="37.044" y="0">)</text>
			<text id="dp_text034" transform="matrix(0.996295,8.71069e-016,-8.81232e-016,1,400.62,1038.9)" xml:space="preserve" fill="#0f06c3" font-family="Arial" font-size="16" font-weight="700" x="42.216" y="0"> </text>
			<text id="dp_text035" transform="matrix(0.99645,8.71204e-016,-8.81232e-016,1,338.983,995.352)" xml:space="preserve" fill="#cb0707" font-family="Arial" font-size="16" font-weight="700" x="0" y="0">a</text>
			<text id="dp_text036" transform="matrix(1,8.74308e-016,-8.81232e-016,1,338.983,995.352)" xml:space="preserve" fill="#cb0707" font-family="Arial" font-size="15" font-weight="400" x="8.64667" y="0">×</text>
			<text id="dp_text037" transform="matrix(0.996767,8.71481e-016,-8.81232e-016,1,339.039,995.352)" xml:space="preserve" fill="#cb0707" font-family="Arial" font-size="16" font-weight="700" x="17.4" y="0">b</text>
			<text id="dp_text038" transform="matrix(0.996295,8.71069e-016,-8.81232e-016,1,339.082,995.352)" xml:space="preserve" fill="#cb0707" font-family="Arial" font-size="16" font-weight="700" x="26.8747" y="0"> </text>
			<g id="dp_group125">
				<g id="dp_group126">
					<path id="dp_path127" fill="#0f06c3" d="M 168.745,1018.61 L 168.747,1028.42 L 160.135,1032.83 L 160.133,1023.03 L 168.745,1018.61 L 170.079,1016.43 L 158.8,1022.21 L 158.804,1035.01 L 170.077,1029.23 L 170.079,1016.43 Z "/>
				</g>
			</g>
		</g>
	</g>
</svg>