<?xml version="1.0" encoding="UTF-8" standalone="no"?>
<!DOCTYPE svg PUBLIC "-//W3C//DTD SVG 1.1//EN" "http://www.w3.org/Graphics/SVG/1.1/DTD/svg11.dtd">
<svg xmlns="http://www.w3.org/2000/svg" xmlns:xlink="http://www.w3.org/1999/xlink" xml:space="preserve" width="130" height="124">
  <defs>
    <linearGradient id="h">
      <stop offset="0" stop-color="#5f5f5f"/>
      <stop offset=".73483008" stop-color="#909090"/>
      <stop offset="1" stop-color="#fff"/>
    </linearGradient>
    <linearGradient id="r">
      <stop offset="0" stop-color="#454545"/>
      <stop offset=".84464306" stop-color="#616161"/>
      <stop offset="1" stop-color="#fff"/>
    </linearGradient>
    <linearGradient id="q">
      <stop offset="0" stop-color="#666"/>
      <stop offset=".5" stop-color="#a9a9a9"/>
      <stop offset="1" stop-color="#fff"/>
    </linearGradient>
    <linearGradient id="g" x1="332.15930176" x2="395.35791016" y1="224.0428009" y2="225.06950378" gradientTransform="matrix(.6593 .6452 .6933 -.6086 -304.5884 -12.7071)" gradientUnits="userSpaceOnUse">
      <stop offset="0" stop-color="#ff9945"/>
      <stop offset="1" stop-color="#ffdfa6"/>
    </linearGradient>
    <linearGradient id="f" x1="124.0714035" x2="176.40649414" y1="-17.26539993" y2="-67.11630249" gradientTransform="matrix(1 0 0 -1 -67.4102 50.3375)" gradientUnits="userSpaceOnUse">
      <stop offset="0" stop-color="#ff0101"/>
      <stop offset="1" stop-color="#ff8c76"/>
    </linearGradient>
    <linearGradient id="e" x1="139.42100525" x2="182.54499817" y1="-12.09300041" y2="-48.33250046" gradientTransform="matrix(1 0 0 -1 -67.4102 50.3375)" gradientUnits="userSpaceOnUse">
      <stop offset="0" stop-color="#ff650c"/>
      <stop offset="1" stop-color="#ff9645"/>
    </linearGradient>
    <linearGradient id="c" x1="321.1368103" x2="330.66110229" y1="353.4704895" y2="353.56048584" gradientTransform="matrix(.7273 .7599 .7389 -.7484 -386.8474 99.2662)" gradientUnits="userSpaceOnUse">
      <stop offset="0" stop-color="#fff"/>
      <stop offset=".44670001" stop-color="#e1e0df"/>
      <stop offset=".66769999" stop-color="#bab8b7"/>
      <stop offset="1" stop-color="#b6b3b2"/>
    </linearGradient>
    <linearGradient id="d" x1="-37.67810059" x2="-37.74079895" y1="387.27029419" y2="429.37979126" gradientUnits="userSpaceOnUse">
      <stop offset="0" stop-color="#636363"/>
      <stop offset="1" stop-color="#9f9f9f"/>
    </linearGradient>
    <linearGradient id="a" x1="321.13879395" x2="330.66351318" y1="353.41378784" y2="353.50390625" gradientTransform="matrix(.7273 .7599 .7389 -.7484 -403.5955 82.05329)" gradientUnits="userSpaceOnUse">
      <stop offset="0" stop-color="#fff"/>
      <stop offset=".44670001" stop-color="#e1e0df"/>
      <stop offset=".66769999" stop-color="#bab8b7"/>
      <stop offset="1" stop-color="#b6b3b2"/>
    </linearGradient>
    <linearGradient id="b" x1="-61.8260994" x2="-62.16999817" y1="387.17459106" y2="429.14111328" gradientUnits="userSpaceOnUse">
      <stop offset="0" stop-color="#636363"/>
      <stop offset="1" stop-color="#9f9f9f"/>
    </linearGradient>
    <linearGradient id="j" x1="65.1167984" x2="55.78329849" y1="81.44999695" y2="102.78299713" gradientUnits="userSpaceOnUse">
      <stop offset="0" stop-color="#fff"/>
      <stop offset="1" stop-color="#ff9a90"/>
    </linearGradient>
    <linearGradient id="i" x1="124.58699799" x2="171.85800171" y1="-16.83709908" y2="-64.83740234" gradientTransform="matrix(1 0 0 -1 -67.4102 50.3375)" gradientUnits="userSpaceOnUse">
      <stop offset="0" stop-color="#fff"/>
      <stop offset="1" stop-color="#ff9a90"/>
    </linearGradient>
    <linearGradient id="p" x1="105.67980194" x2="105.67980194" y1="-69.99089813" y2="46.99980164" gradientTransform="matrix(1 0 0 -1 -67.4102 50.3375)" gradientUnits="userSpaceOnUse">
      <stop offset="0" stop-color="#b11700"/>
      <stop offset="1" stop-color="#ff9400"/>
    </linearGradient>
    <linearGradient id="o" x1="-54.42670059" x2="-27.22800064" y1="245.67170715" y2="245.72779846" gradientTransform="matrix(2.5121 0 0 -2.9987 141.2672 783.18911)" gradientUnits="userSpaceOnUse">
      <stop offset="0" stop-color="#fff102"/>
      <stop offset=".2198" stop-color="#ffffc9"/>
      <stop offset=".4483" stop-color="#f7c943"/>
      <stop offset=".5564" stop-color="#f4b109"/>
      <stop offset=".68790001" stop-color="#f47000"/>
      <stop offset="1" stop-color="#f47000"/>
    </linearGradient>
    <linearGradient id="n" x1="-47.92229843" x2="-23.42810059" y1="246.07499695" y2="250.73039246" gradientTransform="matrix(2.3951 0 0 -2.8831 125.2881 741.0577)" gradientUnits="userSpaceOnUse">
      <stop offset="0" stop-color="#fff"/>
      <stop offset=".0534" stop-color="#f0f0ef"/>
      <stop offset=".86180002" stop-color="#928f8e"/>
      <stop offset="1" stop-color="#7a7775"/>
    </linearGradient>
    <linearGradient id="m" x1="-20.45599937" x2="-8.65550041" y1="223.6414032" y2="213.4118042" gradientTransform="matrix(1.9805 0 0 -2.3005 68.01439 527.474)" gradientUnits="userSpaceOnUse">
      <stop offset="0" stop-color="#fff"/>
      <stop offset=".3186" stop-color="#c9c7c6"/>
      <stop offset=".74449998" stop-color="#757271"/>
      <stop offset="1" stop-color="#5d5a59"/>
    </linearGradient>
    <linearGradient id="l" x1="114.49909973" x2="132.11239624" y1="-11.23019981" y2="-11.23019981" gradientTransform="matrix(.9452 0 0 -.8948 -73.4512 16.5114)" gradientUnits="userSpaceOnUse">
      <stop offset="0" stop-color="#484645"/>
      <stop offset="1" stop-color="#fff"/>
    </linearGradient>
    <linearGradient id="k" x1="71.97270203" x2="140.3164978" y1="-42.86539841" y2="-42.86539841" gradientTransform="matrix(1 0 0 -1 -67.4102 50.3375)" gradientUnits="userSpaceOnUse">
      <stop offset="0" stop-color="#a0a0a0"/>
      <stop offset=".1301" stop-color="#e4e3e2"/>
      <stop offset=".2041" stop-color="#f9f9f9"/>
      <stop offset=".50880003" stop-color="#949291"/>
      <stop offset=".69989997" stop-color="#5f5c5b"/>
      <stop offset="1" stop-color="#5d5a59"/>
    </linearGradient>
    <linearGradient xlink:href="#a" id="I" x1="321.13879395" x2="330.66351318" y1="353.41378784" y2="353.50390625" gradientTransform="matrix(.7353 .76826 .74703 -.75663 -410.6689 78.716623)" gradientUnits="userSpaceOnUse"/>
    <linearGradient xlink:href="#b" id="J" x1="-61.8260994" x2="-62.16999817" y1="387.17459106" y2="429.14111328" gradientTransform="translate(-2.6324406 -4.23955) scale(1.011)" gradientUnits="userSpaceOnUse"/>
    <linearGradient xlink:href="#c" id="K" x1="321.1368103" x2="330.66110229" y1="353.4704895" y2="353.56048584" gradientTransform="matrix(.73522 .76818 .74695 -.75655 -393.86637 95.9295161)" gradientUnits="userSpaceOnUse"/>
    <linearGradient xlink:href="#d" id="L" x1="-37.67810059" x2="-37.74079895" y1="387.27029419" y2="429.37979126" gradientTransform="translate(-2.8038808 -4.4182891) scale(1.0109)" gradientUnits="userSpaceOnUse"/>
    <linearGradient xlink:href="#e" id="H" x1="139.42100525" x2="182.54499817" y1="-12.09300041" y2="-48.33250046" gradientTransform="matrix(1 0 0 -1 -68.820449 46.999809)" gradientUnits="userSpaceOnUse"/>
    <linearGradient xlink:href="#f" id="G" x1="124.0714035" x2="176.40649414" y1="-17.26539993" y2="-67.11630249" gradientTransform="matrix(1 0 0 -1 -68.820449 46.999809)" gradientUnits="userSpaceOnUse"/>
    <linearGradient xlink:href="#g" id="F" x1="332.15930176" x2="395.35791016" y1="224.0428009" y2="225.06950378" gradientTransform="matrix(.6593 .6452 .6933 -.6086 -305.99865 -16.044791)" gradientUnits="userSpaceOnUse"/>
    <linearGradient xlink:href="#h" id="D" x1="118.31858826" x2="123.69999695" y1="69.86181641" y2="75.12837982" gradientTransform="translate(-.7658888 .4581845)" gradientUnits="userSpaceOnUse"/>
    <linearGradient xlink:href="#h" id="C" x1="99.82860565" x2="107.62978363" y1="49.9162674" y2="57.60261154" gradientTransform="translate(-.3321259 .09489312)" gradientUnits="userSpaceOnUse"/>
    <linearGradient xlink:href="#i" id="N" x1="124.58699799" x2="171.85800171" y1="-16.83709908" y2="-64.83740234" gradientTransform="matrix(1 0 0 -1 -68.8204494 46.9998095)" gradientUnits="userSpaceOnUse"/>
    <linearGradient xlink:href="#j" id="M" x1="65.1167984" x2="55.78329849" y1="81.44999695" y2="102.78299713" gradientTransform="translate(-1.4102494 -3.3376905)" gradientUnits="userSpaceOnUse"/>
    <linearGradient xlink:href="#k" id="x" x1="71.97270203" x2="140.3164978" y1="-42.86539841" y2="-42.86539841" gradientTransform="matrix(1 0 0 -1 -68.8204494 46.9998095)" gradientUnits="userSpaceOnUse"/>
    <linearGradient xlink:href="#l" id="A" x1="114.49909973" x2="132.11239624" y1="-11.23019981" y2="-11.23019981" gradientTransform="matrix(.9452 0 0 -.8948 -74.8614494 13.1737095)" gradientUnits="userSpaceOnUse"/>
    <linearGradient xlink:href="#m" id="z" x1="-20.45599937" x2="-8.65550041" y1="223.6414032" y2="213.4118042" gradientTransform="matrix(1.9805 0 0 -2.3005 66.6041506 524.1363095)" gradientUnits="userSpaceOnUse"/>
    <linearGradient xlink:href="#n" id="y" x1="-47.92229843" x2="-23.42810059" y1="246.07499695" y2="250.73039246" gradientTransform="matrix(2.3951 0 0 -2.8831 123.8778506 737.7200095)" gradientUnits="userSpaceOnUse"/>
    <linearGradient xlink:href="#o" id="w" x1="-54.42670059" x2="-27.22800064" y1="245.67170715" y2="245.72779846" gradientTransform="matrix(2.5121 0 0 -2.9987 139.8569506 779.8514095)" gradientUnits="userSpaceOnUse"/>
    <linearGradient xlink:href="#p" id="v" x1="105.67980194" x2="105.67980194" y1="-69.99089813" y2="46.99980164" gradientTransform="matrix(1 0 0 -1 -68.8204494 46.9998095)" gradientUnits="userSpaceOnUse"/>
    <linearGradient xlink:href="#q" id="u" x1="73.46351624" x2="75.91654205" y1="26.44977951" y2="26.44977951" gradientTransform="translate(.33107794 -.9432556)" gradientUnits="userSpaceOnUse"/>
    <radialGradient id="s" cx="-182.60240173" cy="625.6394043" r="13.63829994" gradientTransform="matrix(-1.5079 .5718 .6648 1.4634 -640.8976 -791.5232)" gradientUnits="userSpaceOnUse">
      <stop offset="0" stop-color="#6f6c6a"/>
      <stop offset="1" stop-color="#fff"/>
    </radialGradient>
    <radialGradient xlink:href="#r" id="t" cx="20.03808212" cy="115.028862" r="36.83230209" fx="20.03808212" fy="115.028862" gradientTransform="matrix(.0367 .31721 -.89232 .10322 146.86194 88.3980861)" gradientUnits="userSpaceOnUse"/>
    <radialGradient xlink:href="#s" id="B" cx="-182.60240173" cy="625.6394043" r="13.63829994" gradientTransform="matrix(-1.5079 .5718 .6648 1.4634 -642.3078494 -794.8608905)" gradientUnits="userSpaceOnUse"/>
    <filter id="E" color-interpolation-filters="sRGB">
      <feGaussianBlur stdDeviation="1.5558294"/>
    </filter>
  </defs>
  <path fill="url(#t)" d="M37.68692 58.941312c-12.684.611-28.5709995 4.347-33.8179995 16.834-1.825 11.272-.031-30.118146-.666-18.672146.357 15.299001-.5126017 37.716356.71239831 52.957354 4.642 11.587 19.2979992 14.915 30.7409992 16.033 14.141.736 31.291-1.123 40.29-13.049 1.044313-1.31648.512602-24.369353 1.540601-32.890353.080785-18.624106.244321 15.58993.1894661-3.116855C72.274135 62.43977 57.41892 60.339312 45.554921 59.156312c-2.615001-.237-5.244-.304-7.868001-.215z"/>
  <path fill="url(#u)" d="M37.6360805 7.3487447c-9.297014 3.7489853-13.585577 50.3738673-3.299 60.1738553 14.141.736 39.07455-3.672782 40.42423-4.057657 1.04428-1.316482 1.72036-1.354205 1.67477-9.875205.08078-18.624107.110121-17.288856.189461-22.44153-4.200952-28.151654-19.257461-22.4014633-31.121461-23.5844633-2.615-.236998-5.244-.303998-7.868-.215z"/>
  <path fill="url(#v)" d="M34.6637506.0393094c-12.683.62900013-28.57 4.4810001-33.817 17.3520001-1.826 11.62-.032 23.732-.667 35.53199.35699997 15.77101-.781 31.68701.44399997 47.39601 4.64200004 11.945 19.29700003 15.376 30.74000003 16.528 14.141.759 31.291-1.158 40.28999-13.451 3.986-8.205.781-17.928 1.809-26.71199-.10899-19.29601.52901-38.90301-.28499-57.99101-3.736-12.79799999-18.782-17.213-30.646-18.433-2.61399-.24399982-5.244-.31299972-7.868-.2214z"/>
  <path fill="url(#w)" d="M37.2947506 2.6893095c-18.825 0-34.094 8.577-34.094 19.125h-.031v43.938c.252 9.78399 15.4392 17.688 34.125 17.688 18.685 0 33.872-7.904 34.125-17.688.002-.082.031-.167.031-.25 0-.16-.023-.31-.031-.469v-43.219h-.031c0-10.548-15.26899-19.125-34.09399-19.125z"/>
  <path fill="url(#x)" d="M3.1527506 65.7243095v30.531c0 9.795 15.27 17.75 34.094 17.75s34.125-7.955 34.125-17.74999v-29.593c-1.139 9.358-15.961 16.781-34.063 16.781-18.686 0-33.87495-7.903-34.12592-17.688v-.031h-.031z"/>
  <path fill="#fff" fill-opacity=".92000002" d="m47.1117506 43.1853095-28.522 26.258 9.125 5.84399-4.625 21.75 24.125-23.875-11.75-7.25 11.647-22.727z"/>
  <path fill="url(#y)" d="M69.8517506 21.7983095c0 10.146-14.558 18.37199-32.516 18.37199-17.958.00001-32.51599999-8.22599-32.51599999-18.37199s14.557998-18.372 32.515998-18.372c17.95800199 0 32.51600199 8.226 32.51600199 18.372z"/>
  <path fill="url(#z)" d="M63.7387506 20.4883095c0 8.096-12.03799 14.659-26.886 14.659-14.849 0-26.8863-6.563-26.8863-14.659s12.0376-14.659998 26.8863-14.659998c14.848 0 26.886 6.563998 26.886 14.659998z"/>
  <path fill="url(#A)" d="M50.0007506 18.3463095c0 3.147-5.75699 5.704-12.84 5.704-6.873 0-12.481-2.407-12.81-5.424v3.768c0 3.147 5.758 5.704 12.841 5.704 7.083 0 12.809-2.557 12.809-5.704v-4.048z"/>
  <path fill="url(#B)" d="M50.0107506 18.3363095c0 3.149-5.745 5.702-12.832 5.702-7.087 0-12.832-2.553-12.832-5.702 0-3.148 5.745-5.701 12.832-5.701 7.087 0 12.832 2.552 12.832 5.701z"/>
  <path fill="#fff" d="M69.8398065 21.3493658c-2.556 8.909-14.858 15.87199-35.688 16.907-8.401.418-20.349-3.637-21.152-4.367 1.77 1.48099 6.596 3.557 11.609 4.758s10.213 1.52899 12.731 1.514c8.681-.05 16.806-2.083 22.761-5.37899 5.95399-3.29699 9.739-7.857 9.739-12.964 0-.153.006-.316 0-.469z"/>
  <path fill="url(#C)" d="M109.59999 48.360348c1.841 1.92299 2.332 4.496 1.097 5.747l-25.016992 25.341c-1.235 1.251-3.729.706-5.568-1.217-1.84-1.92299-2.33-4.49499-1.096-5.746l25.017992-25.341c1.234-1.251 3.726-.706999 5.566 1.216z"/>
  <path fill="url(#D)" d="M126.04303 65.822394c1.841 1.923 2.332 4.496 1.097 5.747l-25.01699 25.341c-1.235 1.251-3.729006.706-5.568006-1.217-1.84-1.923-2.33-4.49499-1.096-5.746l25.017996-25.341001c1.234-1.251 3.726-.706999 5.566 1.216z"/>
  <path fill="#444" d="M74.2947511 55.78631c-7.3590001.284999-13.2680001 6.853-15.4780001 13.135001-2.514 7.144999-5.341 19.036-4.469 29.093999 1.23699 14.265 8.314 22.827 27.224 23.38 19.853999.586 36.755999-8.382 38.681999-18.755 1.684-13.547-6.465-24.046-15.125-33.46899-10.0719989-9.52201-21.649999-13.60101-30.8339989-13.38501zm4.97099 3.93c7.477.044999 17.408 5.54499 25.3849991 13.351 11.601 11.35299 15.228 26.765 8.291 32.854-6.936 6.089-21.991998 1.821-33.593999-9.531-11.601-11.35299-15.54999-27.804-8.613-33.892001 2.167-1.903999 5.131-2.802999 8.53099-2.781999z" filter="url(#E)"/>
  <path fill="url(#F)" stroke="#636363" stroke-linecap="round" stroke-linejoin="bevel" stroke-width=".1086" d="M110.87075 102.88431c-6.939 6.093-21.974999 1.823-33.581-9.535-11.606999-11.35901-15.389999-25.506-8.450999-31.597 6.94-6.092001 21.976-1.823 33.581999 9.535 11.607 11.35899 15.391 25.506 8.45 31.59699z"/>
  <path fill="url(#G)" d="M72.213751 52.712309c-7.36.285001-13.268 6.853-15.479 13.135001-2.514 7.145-5.341 19.036-4.469 29.094 1.237 14.265 8.314 22.827 27.224 23.38 19.854.586 36.755999-8.382 38.682999-18.755 1.684-13.547-6.465-24.046-15.125-33.469-10.071999-9.522001-21.651-13.602001-30.833999-13.385001zm4.97 3.93c7.477.045 17.409 5.546 25.384998 13.351001 11.602 11.353 15.229 26.765 8.292 32.854-6.937 6.089-21.992999 1.821-33.593999-9.53099-11.601-11.352-15.55-27.804-8.614-33.892001 2.168001-1.90401 5.132001-2.803009 8.531001-2.78201z"/>
  <path fill="#a60000" d="M71.921751 51.885309c-8.119.874001-13.121 6.602001-15.937 13.656001-2.531 7.195-5.463 19.146-4.281 29.312999.889 7.710001 3.103 12.742001 7.261 16.758001 4.159 4.017 10.28899 6.981 20.42599 7.117 10.146.137 18.711-1.498 25.7809991-5.063 7.071-3.563 12.572-8.255 13.219-14.188 1.713-13.773-6.57-24.431-15.25-33.875l-.031-.031c-10.1409891-9.586001-21.790989-13.908-31.1879891-13.687001zm.031 1c8.961-.211 20.44099 3.968001 30.437998 13.406001.012.011.021.021.031.031 8.63 9.39399 16.623 19.72799 14.969 33.03099-.596 5.466-5.804 9.938-12.688 13.406-6.882999 3.471-15.203999 5.158-25.249998 4.969-10.02-.188-15.855-3.057-19.77-6.836-3.914-3.778-6.102-8.547-6.98-16.164-1.153-9.887 1.723-21.77999 4.21898-28.875 2.59502-6.802991 7.46102-11.881991 15.0310201-12.967991z"/>
  <path fill="url(#H)" d="M77.114751 56.629309c-3.399-.021-6.264.878-8.432 2.781-2.818 2.474-3.83999 6.674001-3.28099 11.531001-.142-3.768.87599-6.999 3.369-9.188001 6.93599-6.088999 21.991989-1.820999 33.593989 9.531001 7.975 7.80499 11.523 16.95299 11.168 23.875.561-7.33-2.838-17.24-10.941-25.172-7.976999-7.804-17.999999-13.313001-25.476999-13.358001z"/>
  <path fill="#ff0706" d="M101.79675 69.15831c5.738 5.616 9.631 13.271 11.094 19.19499 1.463 5.92501.654 11.092011-2.625 13.96901-3.289 2.889-8.61 3.385-14.593999 1.688-5.982-1.696-12.543-5.686-18.632-10.949 5.512 6.09 12.171 10.135 18.350999 11.887 6.18 1.754 11.885 1.326 15.531-1.875 3.658-3.211 4.486-8.795 2.969-14.938-1.516-6.142-6.231-13.239-12.094-18.977z"/>
  <path fill="#555353" fill-opacity=".33719997" d="m97.977751 61.730309-3.794 3.0570011-14.063 11.25 2.031 1.875L102.80775 71.63131l4.061-1.229c-2.459-3.399-5.607-6.119-8.8909991-8.672001z"/>
  <path fill="url(#I)" stroke="url(#J)" stroke-linecap="round" stroke-linejoin="bevel" stroke-width="1.21340632" d="m106.95225 45.640331.30735.319476c1.86024 1.94415 2.35564 4.545473 1.10806 5.809227L83.125933 77.337312c-1.247578 1.263755-3.7690211.71377-5.629267-1.23039l-.306335-.3194769c-1.860246-1.9441611-2.355638-4.5454721-1.108059-5.8092261L101.324 44.409939c1.24757-1.264766 3.76801-.713768 5.62825 1.230392z"/>
  <path fill="#555353" fill-opacity=".33719997" d="m113.33975 79.50631-2.844 2.313-.188.15599-14.062999 11.25 2.656 1.96901 14.968999-4.563 3.75-1.125c-.319-1.36199-.725-2.699-1.219-4-.547-1.44199-1.18-2.845-1.906-4.21899-.325-.617-.797-1.177001-1.155-1.781z"/>
  <path fill="url(#K)" stroke="url(#L)" stroke-linecap="round" stroke-linejoin="bevel" stroke-width="1.21327734" d="m123.52172 62.498981.56813.593397c1.86005 1.9439532 2.3564 4.5439771 1.10794 5.8086082L99.876867 94.55045c-1.248455 1.26362-3.768619.713693-5.627656-1.23026l-.569135-.593396c-1.860049-1.943952-2.355388-4.543978-1.107941-5.80962l25.321935-25.648453c1.24744-1.26463 3.76761-.713693 5.62765 1.23026z"/>
  <path fill="url(#M)" d="M60.8577506 77.9963095c-3.828 5.25099-5.318 13.655-3.86099 23.166.29999-6.319 2.709-12.98699 6.461-17.863-.748-1.416-1.945-3.583-2.6-5.303z"/>
  <path fill="url(#N)" d="M63.8367506 55.9263095c-12.661 11.211-1.129 31.115 5.851 38.151 11.787 11.881 29.434 19.212 36.438 13.123.162-.141.319-.287.469-.438-8.11999 4.514-24.91799-2.783-34.84399-14.375-11.58299-13.526-13.157-30.11799-7.914-36.461z"/>
</svg>