<?xml version="1.0" encoding="UTF-8" standalone="no"?>
<!-- Created with Inkscape (http://www.inkscape.org/) -->
<svg
   xmlns:svg="http://www.w3.org/2000/svg"
   xmlns="http://www.w3.org/2000/svg"
   version="1.0"
   width="546.28998"
   height="383.64999"
   id="svg2">
  <defs
     id="defs4">
    <marker
       refX="0"
       refY="0"
       orient="auto"
       id="Arrow2Lend"
       style="overflow:visible">
      <path
         d="M 8.7185878,4.0337352 L -2.2072895,0.016013256 L 8.7185884,-4.0017078 C 6.97309,-1.6296469 6.9831476,1.6157441 8.7185878,4.0337352 z"
         transform="matrix(-1.1,0,0,-1.1,-1.1,0)"
         id="path3696"
         style="font-size:12px;fill-rule:evenodd;stroke-width:0.625;stroke-linejoin:round" />
    </marker>
    <marker
       refX="0"
       refY="0"
       orient="auto"
       id="Arrow1Lstart"
       style="overflow:visible">
      <path
         d="M 0,0 L 5,-5 L -12.5,0 L 5,5 L 0,0 z"
         transform="matrix(0.8,0,0,0.8,10,0)"
         id="path3675"
         style="fill-rule:evenodd;stroke:#000000;stroke-width:1pt;marker-start:none" />
    </marker>
    <marker
       refX="0"
       refY="0"
       orient="auto"
       id="Arrow2Lstart"
       style="overflow:visible">
      <path
         d="M 8.7185878,4.0337352 L -2.2072895,0.016013256 L 8.7185884,-4.0017078 C 6.97309,-1.6296469 6.9831476,1.6157441 8.7185878,4.0337352 z"
         transform="matrix(1.1,0,0,1.1,1.1,0)"
         id="path3693"
         style="font-size:12px;fill-rule:evenodd;stroke-width:0.625;stroke-linejoin:round" />
    </marker>
  </defs>
  <g
     transform="translate(-113.28571,-102.2996)"
     id="layer1">
    <path
       d="M 648.57141,385.21933 A 267.14285,84.285713 0 1 1 114.28571,385.21933 A 267.14285,84.285713 0 1 1 648.57141,385.21933 z"
       transform="translate(4,4)"
       id="path2389"
       style="opacity:1;fill:#b3b3b3;fill-opacity:1;stroke:#000000;stroke-width:2;stroke-miterlimit:4;stroke-dasharray:none;stroke-dashoffset:0;stroke-opacity:1" />
    <path
       d="M 426.85714,120.6479 L 426.85714,366.36218 L 595.96429,337.79075 L 475.23616,286.12087"
       id="path6013"
       style="fill:none;fill-rule:evenodd;stroke:#000000;stroke-width:2;stroke-linecap:butt;stroke-linejoin:miter;stroke-opacity:1" />
    <path
       d="M 478.52812,295.9673 L 460.35048,277.92634 L 485.88544,279.89308 C 480.22182,283.04 477.27044,289.54134 478.52812,295.9673 z"
       id="path6556"
       style="font-size:12px;fill:#000000;fill-rule:evenodd;stroke-width:0.625;stroke-linejoin:round" />
    <path
       d="M 435.78173,130.33654 L 426.94272,106.2996 L 418.10375,130.33654 C 423.32228,126.49644 430.46215,126.51856 435.78173,130.33654 z"
       id="path6558"
       style="font-size:12px;fill-rule:evenodd;stroke-width:0.625;stroke-linejoin:round" />
    <path
       d="M 587.12663,330.65633 L 612.56136,333.6525 L 591.24489,347.84792 C 593.76364,341.87837 592.07882,334.94011 587.12663,330.65633 z"
       id="path6562"
       style="font-size:12px;fill:#000000;fill-rule:evenodd;stroke-width:0.625;stroke-linejoin:round" />
    <path
       d="M 422.8116,463.27621 L 446.84853,472.11521 L 422.8116,480.95419 C 426.6517,475.73565 426.62958,468.59579 422.8116,463.27621 z"
       id="path6564"
       style="font-size:12px;fill-rule:evenodd;stroke-width:0.625;stroke-linejoin:round" />
    <path
       d="M 627.48189,415.80093 L 649.46686,402.66462 L 641.2297,426.91437 C 639.58546,420.64731 634.01903,416.17597 627.48189,415.80093 z"
       id="path6566"
       style="font-size:12px;fill-rule:evenodd;stroke-width:0.625;stroke-linejoin:round" />
    <path
       d="M 207.92097,443.39658 L 229.20171,457.64552 L 203.75955,460.57777 C 208.72019,456.40985 210.37942,449.46542 207.92097,443.39658 z"
       id="path6568"
       style="font-size:12px;fill-rule:evenodd;stroke-width:0.625;stroke-linejoin:round" />
    <path
       d="M 286.61168,301.66259 L 264.0891,313.8542 L 289.14442,319.1582 C 284.59627,314.54367 283.59523,307.4743 286.61168,301.66259 z"
       id="path6570"
       style="font-size:12px;fill-rule:evenodd;stroke-width:0.625;stroke-linejoin:round" />
    <svg
       version="1.0"
       width="8in"
       height="8in"
       viewBox="0 0 1 1"
       id="svg6728" />
    <svg
       version="1.0"
       width="8in"
       height="8in"
       viewBox="0 0 1 1"
       id="svg6780" />
    <g
       transform="translate(-37.416254,13.596449)"
       id="g7629">
      <polygon
         points="1193.4,380.57 1186.8,373.8 1187.7,372.9 1193.4,377.98 1199.2,372.9 1200.1,373.8 1193.4,380.57 "
         transform="matrix(1.249992,0,0,-1.249992,-920.70193,823.60241)"
         id="polygon7588"
         style="font-style:normal;font-variant:normal;font-weight:normal;font-stretch:normal;letter-spacing:normal;word-spacing:normal;text-anchor:start;fill:#000000;fill-opacity:1;stroke:#000000;stroke-width:0;stroke-linecap:butt;stroke-linejoin:miter;stroke-miterlimit:10.43299961;stroke-dasharray:none;stroke-dashoffset:0;stroke-opacity:1" />
      <path
         d="M 565.78856,364.26785 L 565.78856,364.26785 L 565.78856,364.25535 L 565.78856,364.25535 L 565.78856,364.24285 L 565.78856,364.21785 L 565.78856,364.20535 L 565.78856,364.18035 L 565.78856,364.15535 L 565.66356,364.13035 L 565.66356,364.10535 L 565.66356,364.08035 L 565.66356,364.05535 L 565.66356,364.03035 L 565.66356,363.99285 L 565.66356,363.96785 L 565.66356,363.93035 L 565.66356,363.90535 L 565.66356,363.86785 L 565.53856,363.84285 L 565.53856,363.81785 L 565.53856,363.78035 L 565.53856,363.76785 L 565.53856,363.75535 L 565.53856,363.74285 L 565.41356,363.73035 L 565.41356,363.71785 L 565.41356,363.70535 L 565.41356,363.69285 L 565.41356,363.68035 L 565.41356,363.66785 L 565.41356,363.66785 L 565.28856,363.65535 L 565.28856,363.64285 L 565.28856,363.63035 L 565.28856,363.63035 L 565.16356,363.61785 L 565.16356,363.61785 L 565.16356,363.60535 L 565.16356,363.60535 L 565.16356,363.59285 L 565.03857,363.59285 L 565.03857,363.59285 L 565.03857,363.59285 L 564.91357,363.58035 L 564.91357,363.58035 C 563.53857,363.58035 558.9136,364.08035 557.28861,364.20535 C 556.78862,364.26785 556.16362,364.33035 556.16362,365.45534 C 556.16362,366.19283 556.66362,366.19283 557.66361,366.19283 C 560.66359,366.19283 560.78859,366.63033 560.78859,367.25533 C 560.78859,367.69282 560.0386,370.61781 559.5386,372.30529 L 555.78862,387.5552 C 555.53863,388.49269 555.03863,390.23018 555.03863,390.35518 C 555.03863,391.04267 555.66363,391.10517 556.03862,391.10517 L 556.91362,391.10517 C 561.28859,390.35518 568.16355,387.93019 574.5385,381.95523 C 582.78845,374.29278 584.41344,365.83034 584.41344,365.26784 C 584.41344,364.20535 583.66345,363.58035 582.66345,363.58035 C 582.16346,363.58035 580.66347,363.83035 580.16347,365.63034 C 576.16349,379.76775 566.78855,386.7427 559.6636,389.05519 L 565.78856,364.26785 z"
         id="path7590"
         style="font-style:normal;font-variant:normal;font-weight:normal;font-stretch:normal;letter-spacing:normal;word-spacing:normal;text-anchor:start;fill:#000000;fill-opacity:1;stroke:#000000;stroke-width:0;stroke-linecap:butt;stroke-linejoin:miter;stroke-miterlimit:10.43299961;stroke-dasharray:none;stroke-dashoffset:0;stroke-opacity:1" />
    </g>
  </g>
  <g
     transform="translate(-113.28571,-102.2996)"
     id="g7024" />
  <svg
     version="1.0"
     width="8in"
     height="8in"
     viewBox="0 0 1 1"
     transform="matrix(720,0,0,720,-113.28571,-102.2996)"
     id="svg7232" />
  <svg
     version="1.0"
     width="8in"
     height="8in"
     viewBox="0 0 1 1"
     transform="matrix(720,0,0,720,-113.28571,-102.2996)"
     id="body" />
  <svg
     version="1.0"
     width="8in"
     height="8in"
     viewBox="0 0 1 1"
     transform="matrix(720,0,0,720,-113.28571,-102.2996)"
     id="svg7511" />
  <g
     transform="matrix(1.249992,0,0,-1.249992,-535.706,1165.6211)"
     id="content"
     xml:space="preserve"
     style="font-style:normal;font-variant:normal;font-weight:normal;font-stretch:normal;letter-spacing:normal;word-spacing:normal;text-anchor:start;fill:none;fill-opacity:1;stroke:#000000;stroke-linecap:butt;stroke-linejoin:miter;stroke-miterlimit:10.43299961;stroke-dasharray:none;stroke-dashoffset:0;stroke-opacity:1">
<path
   d="M 588.78254,742.63246 L 588.7379,742.76636 L 588.69327,742.90026 L 588.64864,743.01184 L 588.60401,743.14574 L 588.55938,743.25732 L 588.51474,743.3689 L 588.44779,743.48048 L 588.40316,743.59206 L 588.35853,743.68132 L 588.3139,743.7929 L 588.26927,743.88217 L 588.20232,743.97143 L 588.15769,744.0607 L 588.09074,744.12764 L 588.0461,744.21691 L 587.97916,744.28386 L 587.91221,744.35081 L 587.84526,744.41775 L 587.75599,744.4847 L 587.68905,744.52934 L 587.59978,744.59628 L 587.51052,744.64092 L 587.42125,744.68555 L 587.30967,744.70786 L 587.19809,744.7525 L 587.08651,744.77481 L 586.97493,744.79713 L 586.84103,744.81944 L 586.70714,744.84176 L 586.55092,744.84176 L 586.39471,744.86408 L 586.32776,744.86408 L 586.2385,744.86408 C 584.45321,744.86408 584.11847,744.19459 583.56056,742.63246 L 560.55264,676.15273 C 558.5665,670.48444 554.1256,668.81073 548.10024,668.69915 L 548.10024,665.26246 C 550.6666,665.37404 555.44225,665.5972 559.45915,665.5972 C 562.89583,665.5972 568.67571,665.37404 572.22397,665.26246 L 572.22397,668.69915 C 566.66726,668.69915 563.90006,671.48866 563.90006,674.38976 C 563.90006,674.70218 564.01164,675.81799 564.12322,676.04115 L 569.23361,690.61358 L 570.461,694.05026 L 582.89108,730.18007 L 595.45506,694.05026 L 570.461,694.05026 L 569.23361,690.61358 L 596.68244,690.61358 L 602.5739,673.58638 C 602.68548,673.16237 602.90864,672.49289 602.90864,672.04656 C 602.90864,668.69915 596.68244,668.69915 593.69208,668.69915 L 593.69208,665.26246 C 597.68667,665.5972 605.475,665.5972 609.69274,665.5972 C 614.4684,665.5972 619.57879,665.48562 624.24286,665.26246 L 624.24286,668.69915 L 622.25672,668.69915 C 615.5842,668.69915 614.02207,669.48021 612.817,673.16237 L 588.78254,742.63246 z"
   id="path7586"
   style="fill:#000000;stroke-width:0" />







</g>  <g
     transform="translate(-92.618189,-48.297049)"
     id="g7637">
    <g
       transform="matrix(1.249992,0,0,-1.249992,-1238.8989,566.67991)"
       id="g7618"
       style="font-style:normal;font-variant:normal;font-weight:normal;font-stretch:normal;letter-spacing:normal;word-spacing:normal;text-anchor:start;fill:none;fill-opacity:1;stroke:#000000;stroke-linecap:butt;stroke-linejoin:miter;stroke-miterlimit:10.43299961;stroke-dasharray:none;stroke-dashoffset:0;stroke-opacity:1">
      <polygon
         points="1287.4,380.57 1280.8,373.8 1281.7,372.9 1287.4,377.98 1293.2,372.9 1294.1,373.8 1287.4,380.57 "
         id="polygon7596"
         style="fill:#000000;stroke-width:0" />
      <path
         d="M 1276.4,348.94 L 1276.4,348.87 L 1276.4,348.79 L 1276.3,348.72 L 1276.3,348.64 L 1276.3,348.48 L 1276.2,348.32 L 1276.2,348.16 L 1276.2,348 L 1276.1,347.84 L 1276.1,347.68 L 1276.1,347.6 L 1276.1,347.53 L 1276,347.46 L 1276,347.39 L 1276,347.32 L 1276,347.25 L 1276,347.19 L 1276,347.13 L 1276,347.08 L 1276,347.02 L 1276,346.97 L 1275.9,346.93 L 1275.9,346.89 L 1275.9,346.85 L 1275.9,346.82 L 1275.9,346.8 C 1275.9,345.9 1276.6,345.45 1277.4,345.45 C 1278,345.45 1278.9,345.85 1279.2,346.85 C 1279.3,346.95 1279.9,349.29 1280.2,350.53 C 1280.5,352.03 1280.9,353.52 1281.3,355.02 C 1281.6,356.11 1281.9,357.21 1282.1,358.36 C 1282.3,359.2 1282.7,360.64 1282.8,360.84 C 1283.5,362.39 1286.2,366.92 1290.9,366.92 C 1293.1,366.92 1293.6,365.08 1293.6,363.43 C 1293.6,360.35 1291.1,353.97 1290.3,351.83 C 1289.9,350.68 1289.8,350.09 1289.8,349.54 C 1289.8,347.2 1291.6,345.45 1293.9,345.45 C 1298.6,345.45 1300.4,352.73 1300.4,353.12 C 1300.4,353.62 1300,353.62 1299.8,353.62 C 1299.3,353.62 1299.3,353.47 1299.1,352.73 C 1298.1,349.34 1296.5,346.55 1294,346.55 C 1293.2,346.55 1292.8,347.05 1292.8,348.19 C 1292.8,349.44 1293.3,350.63 1293.7,351.73 C 1294.7,354.37 1296.8,359.85 1296.8,362.69 C 1296.8,366.02 1294.6,368.02 1291,368.02 C 1286.6,368.02 1284.1,364.83 1283.3,363.68 C 1283,366.47 1281,368.02 1278.7,368.02 C 1276.4,368.02 1275.4,366.07 1274.9,365.18 C 1274.1,363.48 1273.4,360.55 1273.4,360.35 C 1273.4,359.85 1273.9,359.85 1274,359.85 C 1274.5,359.85 1274.6,359.9 1274.9,360.99 C 1275.7,364.53 1276.7,366.92 1278.5,366.92 C 1279.5,366.92 1280.1,366.27 1280.1,364.63 C 1280.1,363.59 1279.9,363.04 1279.3,360.45 L 1276.4,348.94 z"
         id="path7598"
         style="fill:#000000;stroke-width:0" />
    </g>
  </g>
  <g
     transform="translate(-95.143571,-92.743761)"
     id="g7633">
    <polygon
       points="1239.4,380.57 1232.8,373.8 1233.7,372.9 1239.4,377.98 1245.2,372.9 1246.1,373.8 1239.4,380.57 "
       transform="matrix(1.249992,0,0,-1.249992,-1042.9138,708.10127)"
       id="polygon7592"
       style="font-style:normal;font-variant:normal;font-weight:normal;font-stretch:normal;letter-spacing:normal;word-spacing:normal;text-anchor:start;fill:#000000;fill-opacity:1;stroke:#000000;stroke-width:0;stroke-linecap:butt;stroke-linejoin:miter;stroke-miterlimit:10.43299961;stroke-dasharray:none;stroke-dashoffset:0;stroke-opacity:1" />
    <path
       d="M 502.32629,270.49157 L 502.32629,270.85407 L 502.32629,271.20406 L 502.45129,271.54156 L 502.57629,271.86656 L 502.70129,272.19156 L 502.70129,272.49156 L 502.82629,272.77905 L 502.95129,273.05405 L 503.07629,273.32905 L 503.20128,273.57905 L 503.32628,273.81655 L 503.57628,274.05405 L 503.70128,274.27904 L 503.82628,274.47904 L 504.07628,274.67904 L 504.20128,274.86654 L 504.45128,275.04154 L 504.57628,275.20404 L 504.82627,275.35404 L 505.07627,275.49154 L 505.20127,275.61654 L 505.45127,275.74154 L 505.70127,275.84153 L 505.95127,275.92903 L 506.20127,276.01653 L 506.45126,276.09153 L 506.70126,276.15403 L 506.95126,276.20403 L 507.20126,276.24153 L 507.57626,276.26653 L 507.82625,276.27903 L 508.07625,276.29153 C 511.82623,276.29153 515.20121,273.92905 517.57619,270.49157 C 522.32616,264.01661 523.45115,254.61667 523.45115,252.50418 C 523.45115,248.07921 521.20117,248.07921 520.82617,248.07921 C 519.32618,248.07921 517.70119,249.7042 517.70119,251.07919 C 517.70119,251.87919 518.07619,252.25419 518.57619,252.75418 C 520.57617,254.80417 520.82617,256.80416 520.82617,258.16665 C 520.82617,263.46661 515.57621,271.80406 508.95125,271.80406 C 508.45125,271.80406 506.70126,271.80406 505.57627,270.37907 C 504.82627,269.37908 504.32628,268.19158 504.32628,266.94159 C 504.32628,266.76659 504.32628,266.64159 504.70127,265.9541 C 505.82627,263.15412 506.70126,259.72914 506.70126,258.91664 C 506.70126,258.16665 506.32626,257.47915 505.45127,257.47915 C 504.70127,257.47915 504.20128,258.04165 503.70128,259.04164 C 503.57628,259.35414 502.82629,262.09162 502.32629,265.3291 C 502.32629,266.45409 502.32629,266.57909 501.82629,267.00409 C 499.07631,270.80407 496.20133,271.80406 494.07634,271.80406 C 489.95137,271.80406 488.57638,268.37908 488.57638,264.70411 C 488.57638,260.04164 490.95136,254.86667 493.82634,250.6917 C 494.45134,249.8292 494.45134,249.7042 494.45134,249.5167 C 494.45134,249.01671 494.07634,248.76671 493.70135,248.76671 C 492.70135,248.76671 489.82637,254.24167 488.95138,256.24166 C 486.70139,261.77912 486.70139,266.89159 486.70139,267.44159 C 486.70139,272.42906 488.45138,276.29153 493.20135,276.29153 C 497.32632,276.29153 500.3263,273.42905 502.32629,270.49157 z"
       id="path7594"
       style="font-style:normal;font-variant:normal;font-weight:normal;font-stretch:normal;letter-spacing:normal;word-spacing:normal;text-anchor:start;fill:#000000;fill-opacity:1;stroke:#000000;stroke-width:0;stroke-linecap:butt;stroke-linejoin:miter;stroke-miterlimit:10.43299961;stroke-dasharray:none;stroke-dashoffset:0;stroke-opacity:1" />
  </g>
</svg>
