<?xml version="1.0" encoding="UTF-8" standalone="no"?>
<!-- Created with Serif DrawPlus 11, 0, 3, 23 (Feb 25, 14:12:55) (http://www.serif.com) -->
<svg version="1.1" xmlns="http://www.w3.org/2000/svg" xmlns:xlink="http://www.w3.org/1999/xlink" width="237.907" height="179.483">
	<g id="dp_group001" transform="matrix(1,0,0,1,-846.695,-112.191)">
		<path id="dp_path002" fill="none" fill-rule="evenodd" stroke="#fdaa0f" stroke-width="1.33333" d="M 901.792,228.651 C 893.607,251.984 890.868,263.959 886.844,279.617"/>
		<g id="dp_group003">
			<path id="dp_path004" fill="#2217ff" fill-rule="evenodd" fill-opacity="0.666667" d="M 989.596,182.88 C 972.171,195.424 965.183,223.741 936.484,228.425 C 904.516,233.643 862.98,222.648 878.563,208.131 C 898.564,189.497 890.284,173.004 919.399,158.564 C 948.076,144.34 1006.91,169.983 990.239,181.981"/>
			<g id="dp_group005">
				<g id="dp_group006">
					<path id="dp_path007" fill="#2217ff" fill-rule="evenodd" d="M 981.541,188.891 L 982.892,190.367 L 985.592,193.319 L 989.596,182.88 L 978.843,185.94 Z "/>
					<path id="dp_path008" fill="#2217ff" d="M 981.541,188.893 L 981.359,189.061 L 980.975,189.488 L 980.623,189.885 L 980.272,190.287 L 979.924,190.691 L 979.579,191.096 L 979.233,191.507 L 978.551,192.331 L 977.871,193.165 L 977.197,194.009 L 976.529,194.861 L 975.863,195.721 L 975.2,196.587 L 974.539,197.456 L 973.221,199.207 L 971.901,200.968 L 970.573,202.735 L 969.907,203.613 L 969.235,204.492 L 968.557,205.368 L 967.875,206.24 L 967.188,207.108 L 966.493,207.969 L 965.789,208.824 L 965.079,209.673 L 964.72,210.093 L 964.36,210.512 L 963.996,210.928 L 963.629,211.343 L 963.261,211.755 L 962.891,212.163 L 962.516,212.569 L 962.139,212.973 L 961.759,213.373 L 961.377,213.771 L 960.991,214.165 L 960.601,214.556 L 960.209,214.943 L 959.813,215.328 L 959.413,215.708 L 959.011,216.084 L 958.603,216.457 L 958.192,216.828 L 957.779,217.192 L 957.361,217.553 L 956.939,217.909 L 956.512,218.263 L 956.081,218.611 L 955.647,218.955 L 955.207,219.293 L 954.764,219.628 L 954.316,219.957 L 953.864,220.281 L 953.407,220.599 L 952.943,220.915 L 952.476,221.223 L 952.003,221.527 L 951.524,221.825 L 951.043,222.119 L 950.555,222.404 L 950.061,222.685 L 949.56,222.963 L 949.057,223.231 L 948.545,223.495 L 948.029,223.752 L 947.508,224.003 L 946.979,224.248 L 946.447,224.485 L 945.905,224.716 L 945.357,224.941 L 944.805,225.16 L 944.244,225.371 L 943.677,225.575 L 943.105,225.771 L 942.525,225.961 L 941.937,226.144 L 941.344,226.319 L 940.743,226.485 L 940.133,226.647 L 939.517,226.799 L 938.895,226.944 L 938.264,227.079 L 937.625,227.207 L 936.977,227.327 L 936.321,227.439 L 935.581,227.556 L 934.835,227.669 L 934.085,227.776 L 933.333,227.877 L 932.577,227.971 L 931.82,228.06 L 931.059,228.144 L 930.297,228.223 L 929.533,228.295 L 928.765,228.361 L 927.996,228.423 L 927.228,228.479 L 926.456,228.529 L 925.684,228.575 L 924.912,228.613 L 924.137,228.648 L 923.363,228.677 L 922.588,228.701 L 921.813,228.72 L 921.039,228.733 L 920.265,228.741 L 919.491,228.743 L 918.717,228.743 L 917.944,228.735 L 917.173,228.723 L 916.404,228.705 L 915.633,228.683 L 914.867,228.656 L 914.101,228.624 L 913.339,228.587 L 912.579,228.547 L 911.82,228.5 L 911.064,228.448 L 910.311,228.393 L 909.56,228.332 L 908.813,228.268 L 908.071,228.197 L 907.329,228.123 L 906.593,228.045 L 905.861,227.963 L 905.133,227.873 L 904.409,227.783 L 903.689,227.685 L 902.976,227.585 L 902.267,227.48 L 901.563,227.371 L 900.863,227.257 L 900.169,227.139 L 899.481,227.017 L 898.8,226.892 L 898.125,226.763 L 897.456,226.629 L 896.793,226.491 L 896.137,226.349 L 895.489,226.203 L 894.847,226.055 L 894.212,225.9 L 893.584,225.744 L 892.965,225.583 L 892.355,225.419 L 891.751,225.251 L 891.156,225.079 L 890.568,224.904 L 889.992,224.725 L 889.423,224.544 L 888.863,224.357 L 888.313,224.168 L 887.771,223.976 L 887.24,223.781 L 886.719,223.583 L 886.211,223.383 L 885.709,223.176 L 885.217,222.969 L 884.74,222.759 L 884.271,222.544 L 883.813,222.329 L 883.369,222.109 L 882.935,221.888 L 882.513,221.664 L 882.103,221.437 L 881.707,221.209 L 881.321,220.977 L 880.948,220.743 L 880.588,220.507 L 880.243,220.271 L 879.911,220.031 L 879.589,219.789 L 879.284,219.547 L 878.989,219.301 L 878.713,219.057 L 878.451,218.812 L 878.199,218.561 L 878.081,218.439 L 877.963,218.312 L 877.852,218.191 L 877.745,218.067 L 877.641,217.943 L 877.539,217.816 L 877.441,217.693 L 877.349,217.569 L 877.257,217.441 L 877.172,217.319 L 877.089,217.193 L 877.009,217.068 L 876.937,216.947 L 876.864,216.82 L 876.796,216.696 L 876.731,216.569 L 876.669,216.444 L 876.613,216.324 L 876.561,216.2 L 876.509,216.072 L 876.463,215.948 L 876.421,215.827 L 876.383,215.704 L 876.345,215.575 L 876.312,215.451 L 876.285,215.331 L 876.259,215.204 L 876.237,215.084 L 876.22,214.959 L 876.205,214.832 L 876.195,214.709 L 876.187,214.583 L 876.181,214.455 L 876.181,214.325 L 876.183,214.2 L 876.189,214.073 L 876.2,213.944 L 876.212,213.817 L 876.229,213.689 L 876.252,213.555 L 876.276,213.424 L 876.304,213.295 L 876.337,213.157 L 876.373,213.024 L 876.413,212.891 L 876.459,212.753 L 876.507,212.616 L 876.559,212.48 L 876.617,212.339 L 876.679,212.199 L 876.744,212.059 L 876.815,211.915 L 876.889,211.773 L 876.971,211.627 L 877.056,211.479 L 877.141,211.336 L 877.236,211.189 L 877.337,211.036 L 877.437,210.889 L 877.547,210.74 L 877.661,210.585 L 877.78,210.433 L 877.903,210.28 L 878.031,210.125 L 878.164,209.971 L 878.301,209.816 L 878.447,209.657 L 878.595,209.5 L 878.748,209.344 L 878.911,209.181 L 879.075,209.021 L 879.247,208.859 L 879.715,208.419 L 880.176,207.975 L 880.625,207.535 L 881.067,207.093 L 881.499,206.652 L 881.921,206.212 L 882.333,205.773 L 882.736,205.333 L 883.131,204.897 L 883.516,204.46 L 883.895,204.024 L 884.261,203.588 L 884.623,203.153 L 884.975,202.719 L 885.32,202.285 L 885.656,201.853 L 885.987,201.423 L 886.308,200.991 L 886.623,200.561 L 886.932,200.132 L 887.233,199.703 L 887.528,199.276 L 887.816,198.849 L 888.1,198.423 L 888.375,197.997 L 888.647,197.573 L 888.911,197.151 L 889.169,196.729 L 889.425,196.307 L 889.672,195.885 L 889.917,195.468 L 890.156,195.048 L 890.392,194.631 L 890.621,194.215 L 890.848,193.799 L 891.071,193.383 L 891.504,192.559 L 891.924,191.737 L 892.333,190.919 L 892.729,190.107 L 893.119,189.296 L 893.5,188.492 L 894.245,186.896 L 894.98,185.317 L 895.345,184.536 L 895.713,183.759 L 896.085,182.985 L 896.459,182.216 L 896.84,181.453 L 897.228,180.693 L 897.625,179.936 L 897.829,179.56 L 898.033,179.185 L 898.241,178.812 L 898.453,178.437 L 898.668,178.067 L 898.885,177.696 L 899.108,177.324 L 899.333,176.955 L 899.561,176.588 L 899.797,176.221 L 900.036,175.855 L 900.279,175.489 L 900.527,175.125 L 900.78,174.761 L 901.037,174.399 L 901.301,174.037 L 901.571,173.676 L 901.845,173.316 L 902.127,172.957 L 902.413,172.599 L 902.707,172.241 L 903.007,171.884 L 903.313,171.528 L 903.627,171.173 L 903.949,170.819 L 904.277,170.463 L 904.612,170.111 L 904.956,169.757 L 905.305,169.407 L 905.667,169.055 L 906.035,168.704 L 906.411,168.355 L 906.796,168.004 L 907.191,167.657 L 907.595,167.308 L 908.007,166.96 L 908.428,166.613 L 908.86,166.267 L 909.303,165.92 L 909.755,165.575 L 910.215,165.232 L 910.689,164.887 L 911.172,164.543 L 911.667,164.2 L 912.171,163.857 L 912.689,163.516 L 913.217,163.175 L 913.756,162.835 L 914.309,162.493 L 914.872,162.155 L 915.449,161.816 L 916.037,161.477 L 916.639,161.139 L 917.253,160.803 L 917.88,160.465 L 918.521,160.129 L 919.175,159.793 L 919.843,159.46 L 920.169,159.299 L 920.499,159.143 L 920.829,158.991 L 921.164,158.843 L 921.504,158.696 L 921.845,158.553 L 922.188,158.413 L 922.532,158.277 L 922.881,158.145 L 923.232,158.015 L 923.583,157.889 L 923.939,157.768 L 924.299,157.648 L 924.657,157.532 L 925.021,157.42 L 925.385,157.309 L 925.752,157.204 L 926.124,157.099 L 926.493,157 L 926.867,156.904 L 927.243,156.809 L 927.62,156.72 L 928.001,156.632 L 928.383,156.548 L 928.765,156.467 L 929.153,156.388 L 929.54,156.312 L 929.929,156.241 L 930.32,156.172 L 930.713,156.107 L 931.109,156.044 L 931.507,155.983 L 931.903,155.925 L 932.303,155.872 L 932.704,155.821 L 933.107,155.772 L 933.511,155.727 L 933.916,155.685 L 934.324,155.644 L 934.729,155.608 L 935.553,155.544 L 936.379,155.488 L 937.209,155.447 L 938.045,155.413 L 938.884,155.392 L 939.727,155.383 L 940.573,155.381 L 941.424,155.391 L 942.276,155.412 L 943.131,155.443 L 943.988,155.481 L 944.847,155.532 L 945.707,155.591 L 946.569,155.661 L 947.432,155.739 L 948.295,155.825 L 949.159,155.923 L 950.023,156.028 L 950.885,156.143 L 951.748,156.265 L 952.609,156.395 L 953.471,156.535 L 954.329,156.681 L 955.188,156.837 L 956.043,157 L 956.896,157.171 L 957.747,157.349 L 958.592,157.533 L 959.435,157.727 L 960.276,157.925 L 961.111,158.133 L 961.943,158.347 L 962.769,158.565 L 963.591,158.793 L 964.408,159.025 L 965.219,159.264 L 966.024,159.508 L 966.823,159.759 L 967.616,160.015 L 968.401,160.276 L 969.179,160.543 L 969.951,160.816 L 970.715,161.093 L 971.469,161.373 L 972.216,161.66 L 972.955,161.952 L 973.684,162.247 L 974.404,162.547 L 975.115,162.851 L 975.816,163.159 L 976.505,163.469 L 977.185,163.784 L 977.855,164.103 L 978.512,164.424 L 979.157,164.748 L 979.792,165.076 L 980.416,165.405 L 981.024,165.737 L 981.621,166.073 L 982.205,166.411 L 982.776,166.749 L 983.333,167.092 L 983.876,167.433 L 984.403,167.777 L 984.917,168.124 L 985.415,168.469 L 985.899,168.817 L 986.367,169.165 L 986.819,169.513 L 987.253,169.863 L 987.672,170.209 L 988.073,170.559 L 988.46,170.908 L 988.644,171.08 L 988.825,171.252 L 989.001,171.425 L 989.173,171.599 L 989.341,171.771 L 989.503,171.941 L 989.663,172.115 L 989.816,172.285 L 989.965,172.456 L 990.109,172.625 L 990.249,172.796 L 990.384,172.964 L 990.513,173.131 L 990.639,173.3 L 990.76,173.468 L 990.875,173.632 L 990.984,173.797 L 991.091,173.961 L 991.191,174.124 L 991.285,174.285 L 991.376,174.447 L 991.461,174.605 L 991.54,174.763 L 991.616,174.923 L 991.688,175.081 L 991.755,175.237 L 991.813,175.385 L 991.868,175.537 L 991.92,175.693 L 991.967,175.841 L 992.005,175.988 L 992.041,176.135 L 992.073,176.28 L 992.099,176.421 L 992.12,176.565 L 992.137,176.708 L 992.149,176.845 L 992.157,176.985 L 992.16,177.12 L 992.159,177.256 L 992.152,177.393 L 992.141,177.529 L 992.127,177.659 L 992.105,177.791 L 992.081,177.924 L 992.052,178.052 L 992.017,178.184 L 991.977,178.317 L 991.933,178.448 L 991.885,178.575 L 991.832,178.701 L 991.771,178.832 L 991.704,178.967 L 991.635,179.093 L 991.56,179.221 L 991.477,179.352 L 991.389,179.483 L 991.296,179.611 L 991.195,179.741 L 991.087,179.875 L 990.975,180.004 L 990.856,180.133 L 990.729,180.265 L 990.599,180.392 L 990.457,180.524 L 990.312,180.653 L 990.157,180.783 L 989.996,180.913 L 989.829,181.041 L 989.645,181.176 L 990.832,182.787 L 991.032,182.639 L 991.236,182.481 L 991.429,182.324 L 991.619,182.165 L 991.801,182.001 L 991.977,181.84 L 992.148,181.671 L 992.309,181.504 L 992.468,181.332 L 992.617,181.157 L 992.76,180.984 L 992.896,180.808 L 993.027,180.627 L 993.149,180.445 L 993.264,180.264 L 993.376,180.077 L 993.477,179.887 L 993.571,179.701 L 993.659,179.512 L 993.741,179.316 L 993.816,179.117 L 993.881,178.923 L 993.94,178.728 L 993.993,178.529 L 994.039,178.327 L 994.076,178.129 L 994.108,177.925 L 994.131,177.719 L 994.147,177.519 L 994.156,177.317 L 994.16,177.115 L 994.155,176.908 L 994.144,176.707 L 994.127,176.5 L 994.101,176.299 L 994.072,176.096 L 994.033,175.891 L 993.991,175.687 L 993.941,175.487 L 993.884,175.281 L 993.821,175.08 L 993.756,174.884 L 993.683,174.681 L 993.603,174.477 L 993.517,174.279 L 993.429,174.083 L 993.335,173.885 L 993.235,173.685 L 993.128,173.487 L 993.019,173.291 L 992.903,173.095 L 992.781,172.897 L 992.656,172.701 L 992.525,172.507 L 992.389,172.311 L 992.249,172.119 L 992.105,171.925 L 991.955,171.729 L 991.801,171.537 L 991.643,171.345 L 991.48,171.152 L 991.312,170.96 L 991.14,170.768 L 990.964,170.579 L 990.784,170.387 L 990.597,170.196 L 990.409,170.007 L 990.215,169.817 L 990.017,169.627 L 989.812,169.436 L 989.399,169.063 L 988.965,168.687 L 988.517,168.313 L 988.053,167.943 L 987.572,167.571 L 987.077,167.204 L 986.569,166.837 L 986.045,166.473 L 985.507,166.111 L 984.953,165.751 L 984.387,165.393 L 983.808,165.04 L 983.216,164.685 L 982.608,164.337 L 981.992,163.991 L 981.36,163.645 L 980.717,163.305 L 980.064,162.967 L 979.397,162.632 L 978.721,162.303 L 978.033,161.976 L 977.335,161.651 L 976.627,161.332 L 975.909,161.016 L 975.18,160.704 L 974.441,160.399 L 973.696,160.096 L 972.941,159.799 L 972.176,159.504 L 971.403,159.216 L 970.623,158.933 L 969.835,158.655 L 969.039,158.383 L 968.237,158.116 L 967.428,157.855 L 966.613,157.599 L 965.789,157.349 L 964.963,157.105 L 964.129,156.868 L 963.289,156.637 L 962.447,156.413 L 961.599,156.195 L 960.745,155.984 L 959.888,155.78 L 959.027,155.584 L 958.163,155.395 L 957.296,155.213 L 956.424,155.037 L 955.551,154.872 L 954.676,154.713 L 953.799,154.564 L 952.919,154.421 L 952.039,154.287 L 951.157,154.161 L 950.273,154.044 L 949.388,153.939 L 948.505,153.839 L 947.621,153.749 L 946.737,153.669 L 945.856,153.599 L 944.972,153.537 L 944.092,153.487 L 943.211,153.445 L 942.335,153.415 L 941.459,153.393 L 940.584,153.384 L 939.716,153.383 L 938.847,153.395 L 937.981,153.416 L 937.121,153.449 L 936.264,153.493 L 935.409,153.549 L 934.564,153.616 L 934.137,153.655 L 933.716,153.696 L 933.297,153.74 L 932.877,153.788 L 932.459,153.837 L 932.044,153.891 L 931.628,153.947 L 931.213,154.007 L 930.803,154.068 L 930.393,154.133 L 929.984,154.201 L 929.575,154.273 L 929.169,154.349 L 928.764,154.428 L 928.363,154.509 L 927.961,154.593 L 927.561,154.683 L 927.167,154.773 L 926.771,154.868 L 926.376,154.965 L 925.984,155.067 L 925.593,155.173 L 925.208,155.281 L 924.82,155.392 L 924.437,155.508 L 924.057,155.625 L 923.675,155.749 L 923.299,155.875 L 922.924,156.004 L 922.549,156.137 L 922.18,156.273 L 921.812,156.413 L 921.444,156.557 L 921.083,156.705 L 920.723,156.856 L 920.364,157.011 L 920.008,157.169 L 919.653,157.332 L 919.303,157.499 L 918.955,157.668 L 918.271,158.012 L 917.601,158.356 L 916.944,158.7 L 916.301,159.045 L 915.671,159.392 L 915.051,159.739 L 914.444,160.088 L 913.851,160.437 L 913.269,160.787 L 912.7,161.139 L 912.143,161.489 L 911.596,161.844 L 911.061,162.196 L 910.536,162.552 L 910.023,162.908 L 909.521,163.265 L 909.031,163.621 L 908.549,163.98 L 908.079,164.341 L 907.62,164.701 L 907.169,165.061 L 906.727,165.424 L 906.296,165.788 L 905.876,166.151 L 905.463,166.516 L 905.059,166.883 L 904.664,167.251 L 904.28,167.617 L 903.903,167.985 L 903.532,168.355 L 903.172,168.727 L 902.819,169.097 L 902.475,169.469 L 902.139,169.84 L 901.807,170.216 L 901.484,170.591 L 901.171,170.964 L 900.861,171.34 L 900.559,171.717 L 900.264,172.095 L 899.976,172.473 L 899.693,172.851 L 899.416,173.231 L 899.145,173.612 L 898.881,173.992 L 898.62,174.375 L 898.367,174.756 L 898.117,175.139 L 897.873,175.521 L 897.632,175.907 L 897.399,176.292 L 897.168,176.675 L 896.94,177.061 L 896.717,177.448 L 896.5,177.833 L 896.284,178.22 L 896.072,178.608 L 895.863,178.997 L 895.455,179.773 L 895.056,180.552 L 894.667,181.333 L 894.285,182.116 L 893.911,182.9 L 893.537,183.685 L 893.169,184.475 L 892.435,186.053 L 891.692,187.641 L 891.316,188.437 L 890.932,189.235 L 890.541,190.033 L 890.14,190.836 L 889.731,191.639 L 889.305,192.447 L 889.091,192.849 L 888.869,193.252 L 888.645,193.657 L 888.417,194.064 L 888.187,194.468 L 887.949,194.875 L 887.708,195.283 L 887.463,195.689 L 887.212,196.097 L 886.956,196.507 L 886.695,196.917 L 886.428,197.327 L 886.157,197.737 L 885.877,198.148 L 885.593,198.561 L 885.303,198.975 L 885.007,199.388 L 884.703,199.801 L 884.392,200.217 L 884.075,200.632 L 883.749,201.051 L 883.417,201.468 L 883.079,201.887 L 882.731,202.305 L 882.375,202.725 L 882.012,203.145 L 881.64,203.567 L 881.259,203.989 L 880.869,204.413 L 880.471,204.836 L 880.064,205.263 L 879.648,205.688 L 879.22,206.113 L 878.784,206.543 L 878.339,206.971 L 877.879,207.403 L 877.691,207.579 L 877.505,207.76 L 877.329,207.936 L 877.152,208.116 L 876.983,208.297 L 876.819,208.475 L 876.657,208.656 L 876.503,208.837 L 876.353,209.016 L 876.209,209.196 L 876.069,209.377 L 875.936,209.556 L 875.805,209.737 L 875.679,209.921 L 875.561,210.099 L 875.445,210.28 L 875.333,210.465 L 875.229,210.645 L 875.129,210.827 L 875.033,211.011 L 874.944,211.192 L 874.857,211.375 L 874.777,211.56 L 874.703,211.741 L 874.632,211.925 L 874.565,212.111 L 874.507,212.293 L 874.451,212.477 L 874.401,212.664 L 874.357,212.844 L 874.316,213.029 L 874.281,213.216 L 874.253,213.396 L 874.228,213.58 L 874.208,213.765 L 874.195,213.948 L 874.185,214.133 L 874.181,214.317 L 874.184,214.497 L 874.189,214.676 L 874.2,214.856 L 874.216,215.04 L 874.239,215.217 L 874.264,215.396 L 874.296,215.577 L 874.331,215.752 L 874.373,215.933 L 874.42,216.108 L 874.468,216.277 L 874.523,216.451 L 874.583,216.625 L 874.648,216.797 L 874.713,216.963 L 874.787,217.132 L 874.864,217.303 L 874.947,217.468 L 875.031,217.632 L 875.12,217.796 L 875.212,217.957 L 875.311,218.121 L 875.412,218.279 L 875.516,218.439 L 875.628,218.599 L 875.739,218.751 L 875.855,218.907 L 875.976,219.061 L 876.097,219.212 L 876.225,219.365 L 876.359,219.516 L 876.493,219.667 L 876.631,219.812 L 876.772,219.961 L 877.064,220.249 L 877.369,220.537 L 877.691,220.819 L 878.023,221.096 L 878.368,221.371 L 878.724,221.639 L 879.093,221.905 L 879.476,222.168 L 879.871,222.425 L 880.276,222.679 L 880.691,222.929 L 881.121,223.179 L 881.561,223.421 L 882.012,223.661 L 882.473,223.896 L 882.947,224.129 L 883.431,224.357 L 883.924,224.583 L 884.428,224.804 L 884.941,225.021 L 885.464,225.236 L 885.999,225.447 L 886.541,225.653 L 887.093,225.856 L 887.655,226.056 L 888.225,226.251 L 888.804,226.443 L 889.392,226.632 L 889.989,226.816 L 890.593,226.996 L 891.207,227.173 L 891.827,227.347 L 892.456,227.516 L 893.093,227.68 L 893.735,227.841 L 894.385,227.999 L 895.044,228.152 L 895.708,228.301 L 896.38,228.445 L 897.059,228.587 L 897.741,228.723 L 898.432,228.857 L 899.129,228.985 L 899.831,229.109 L 900.537,229.228 L 901.251,229.344 L 901.968,229.456 L 902.691,229.564 L 903.42,229.667 L 904.153,229.764 L 904.888,229.857 L 905.629,229.947 L 906.377,230.032 L 907.127,230.112 L 907.879,230.187 L 908.635,230.257 L 909.395,230.324 L 910.159,230.385 L 910.923,230.443 L 911.692,230.495 L 912.464,230.541 L 913.237,230.584 L 914.013,230.621 L 914.792,230.653 L 915.572,230.68 L 916.353,230.703 L 917.136,230.72 L 917.92,230.732 L 918.707,230.74 L 919.491,230.743 L 920.279,230.739 L 921.065,230.731 L 921.853,230.717 L 922.641,230.699 L 923.429,230.675 L 924.217,230.645 L 925.005,230.611 L 925.793,230.569 L 926.579,230.524 L 927.364,230.473 L 928.148,230.415 L 928.931,230.353 L 929.712,230.284 L 930.492,230.212 L 931.269,230.131 L 932.044,230.047 L 932.817,229.955 L 933.589,229.859 L 934.357,229.755 L 935.123,229.648 L 935.885,229.532 L 936.647,229.412 L 937.327,229.295 L 938.001,229.169 L 938.669,229.036 L 939.329,228.893 L 939.981,228.743 L 940.627,228.583 L 941.263,228.416 L 941.893,228.241 L 942.516,228.056 L 943.131,227.865 L 943.74,227.667 L 944.341,227.46 L 944.935,227.245 L 945.523,227.024 L 946.104,226.795 L 946.676,226.559 L 947.244,226.317 L 947.805,226.067 L 948.359,225.811 L 948.909,225.547 L 949.449,225.276 L 949.985,225.001 L 950.515,224.717 L 951.037,224.429 L 951.555,224.135 L 952.067,223.833 L 952.572,223.527 L 953.072,223.215 L 953.567,222.897 L 954.055,222.573 L 954.537,222.247 L 955.016,221.913 L 955.489,221.573 L 955.956,221.231 L 956.42,220.883 L 956.876,220.528 L 957.329,220.171 L 957.776,219.809 L 958.219,219.443 L 958.657,219.073 L 959.093,218.699 L 959.523,218.319 L 959.947,217.937 L 960.368,217.551 L 960.784,217.161 L 961.197,216.768 L 961.607,216.372 L 962.012,215.972 L 962.412,215.568 L 962.809,215.163 L 963.204,214.755 L 963.595,214.341 L 963.98,213.929 L 964.365,213.512 L 964.747,213.091 L 965.123,212.671 L 965.497,212.248 L 965.869,211.821 L 966.237,211.395 L 966.604,210.964 L 967.328,210.101 L 968.043,209.231 L 968.748,208.356 L 969.445,207.477 L 970.136,206.595 L 970.819,205.711 L 971.496,204.824 L 972.168,203.937 L 973.499,202.168 L 974.819,200.407 L 976.133,198.661 L 976.789,197.797 L 977.447,196.94 L 978.105,196.091 L 978.765,195.249 L 979.428,194.419 L 980.095,193.597 L 980.767,192.787 L 981.104,192.387 L 981.441,191.989 L 981.781,191.596 L 982.124,191.205 L 982.465,190.819 L 982.78,190.469 L 982.893,190.365 Z "/>
				</g>
			</g>
		</g>
		<text id="dp_text001" transform="matrix(1,0,0,1,901.499,184.498)" xml:space="preserve" fill="#fdaa0f" font-family="Arial" font-size="11" font-weight="700" x="0" y="0.00133333">F</text>
		<text id="dp_text002" transform="matrix(1,0,0,1,901.499,184.498)" xml:space="preserve" fill="#da002f" font-family="Arial" font-size="11" font-weight="700" x="6.51333" y="0.00133333">(r)</text>
		<text id="dp_text003" transform="matrix(1,0,0,1,901.499,184.498)" xml:space="preserve" fill="#fdaa0f" font-family="Times New Roman" font-size="11" font-weight="700" x="17.7773" y="0.00133333"> </text>
		<g id="dp_group012">
			<g id="dp_group013">
				<path id="dp_path014" fill="#fdaa0f" fill-rule="evenodd" d="M 920.54,186.992 L 921.649,187.731 L 923.868,189.209 L 924.791,181.813 L 918.32,185.512 Z "/>
				<path id="dp_path015" fill="#fdaa0f" d="M 902.42,228.875 L 902.748,227.952 L 903.079,227.036 L 903.411,226.128 L 903.744,225.223 L 904.079,224.325 L 904.413,223.435 L 904.751,222.548 L 905.089,221.668 L 905.428,220.793 L 905.769,219.925 L 906.111,219.063 L 906.453,218.205 L 906.799,217.356 L 907.143,216.511 L 907.489,215.672 L 907.837,214.84 L 908.185,214.015 L 908.535,213.193 L 908.884,212.38 L 909.237,211.572 L 909.589,210.768 L 909.941,209.972 L 910.296,209.183 L 910.652,208.4 L 911.008,207.62 L 911.364,206.849 L 911.721,206.084 L 912.08,205.325 L 912.439,204.572 L 912.799,203.824 L 913.16,203.084 L 913.521,202.349 L 913.884,201.621 L 914.247,200.899 L 914.611,200.184 L 914.975,199.472 L 915.339,198.769 L 915.704,198.072 L 916.069,197.381 L 916.436,196.699 L 916.804,196.021 L 917.171,195.348 L 917.537,194.684 L 917.907,194.023 L 918.275,193.371 L 918.644,192.725 L 919.015,192.085 L 919.385,191.452 L 919.755,190.824 L 920.125,190.204 L 920.496,189.589 L 920.867,188.981 L 921.239,188.38 L 921.604,187.796 L 921.647,187.736 L 920.543,186.987 L 920.489,187.068 L 920.108,187.679 L 919.733,188.285 L 919.357,188.899 L 918.984,189.519 L 918.611,190.144 L 918.236,190.777 L 917.863,191.416 L 917.489,192.061 L 917.117,192.715 L 916.747,193.372 L 916.375,194.036 L 916.003,194.708 L 915.633,195.384 L 915.263,196.067 L 914.893,196.757 L 914.525,197.453 L 914.157,198.156 L 913.791,198.864 L 913.424,199.579 L 913.057,200.299 L 912.692,201.027 L 912.327,201.76 L 911.963,202.5 L 911.601,203.245 L 911.239,203.996 L 910.877,204.755 L 910.516,205.519 L 910.156,206.289 L 909.797,207.065 L 909.439,207.848 L 909.083,208.636 L 908.725,209.431 L 908.371,210.232 L 908.016,211.039 L 907.663,211.852 L 907.311,212.671 L 906.959,213.495 L 906.608,214.325 L 906.26,215.163 L 905.911,216.007 L 905.564,216.855 L 905.219,217.709 L 904.873,218.569 L 904.529,219.437 L 904.188,220.311 L 903.847,221.188 L 903.508,222.073 L 903.168,222.963 L 902.831,223.859 L 902.496,224.761 L 902.16,225.669 L 901.828,226.583 L 901.495,227.501 L 901.164,228.427 Z "/>
			</g>
		</g>
		<g id="dp_group016">
			<g id="dp_group017">
				<path id="dp_path018" fill="#ed9a00" fill-rule="evenodd" d="M 909.54,198.397 L 911.461,198.955 L 915.303,200.071 L 913.291,189.073 L 905.699,197.281 Z "/>
				<path id="dp_path019" fill="#ed9a00" d="M 902.752,228.931 L 911.461,198.955 L 909.541,198.397 L 900.832,228.373 Z "/>
			</g>
		</g>
		<g id="dp_group020">
			<g id="dp_group021">
				<path id="dp_path022" fill="#fc850e" fill-rule="evenodd" d="M 933.049,230.056 L 932.961,231.387 L 932.784,234.047 L 939.657,231.163 L 933.227,227.395 Z "/>
				<path id="dp_path023" fill="#fc850e" d="M 901.748,229.317 L 932.961,231.387 L 933.049,230.056 L 901.836,227.987 Z "/>
			</g>
		</g>
		<g id="dp_group024">
			<g id="dp_group025">
				<path id="dp_path026" fill="#fc850e" fill-rule="evenodd" d="M 878.24,192.337 L 879.369,191.629 L 881.629,190.213 L 875.267,186.333 L 875.98,193.752 Z "/>
				<path id="dp_path027" fill="#fc850e" d="M 902.197,228.071 L 879.371,191.629 L 878.24,192.336 L 901.067,228.777 Z "/>
			</g>
		</g>
		<g id="dp_group028">
			<g id="dp_group029">
				<path id="dp_path030" fill="black" fill-rule="evenodd" d="M 907.956,218.129 L 908.097,217.477 L 908.379,216.173 L 904.768,217.099 L 907.675,219.432 Z "/>
				<path id="dp_path031" fill="black" d="M 907.945,218.127 L 907.948,218.125 L 908.28,218.229 L 908.613,218.337 L 908.94,218.452 L 909.264,218.571 L 909.584,218.695 L 909.899,218.823 L 910.208,218.956 L 910.512,219.093 L 910.812,219.236 L 911.107,219.383 L 911.396,219.535 L 911.68,219.691 L 911.96,219.849 L 912.233,220.013 L 912.501,220.18 L 912.764,220.351 L 913.02,220.528 L 913.272,220.707 L 913.517,220.888 L 913.757,221.075 L 913.989,221.265 L 914.217,221.459 L 914.439,221.656 L 914.655,221.856 L 914.863,222.059 L 915.065,222.265 L 915.261,222.473 L 915.451,222.685 L 915.633,222.9 L 915.809,223.117 L 915.979,223.339 L 916.141,223.561 L 916.297,223.788 L 916.445,224.015 L 916.585,224.245 L 916.72,224.479 L 916.848,224.713 L 916.968,224.949 L 917.081,225.189 L 917.185,225.429 L 917.283,225.672 L 917.372,225.917 L 917.455,226.164 L 917.529,226.412 L 917.597,226.663 L 917.656,226.913 L 917.708,227.167 L 917.749,227.42 L 917.785,227.677 L 917.812,227.933 L 917.831,228.192 L 917.841,228.452 L 917.843,228.715 L 917.837,228.976 L 917.82,229.243 L 918.487,229.283 L 918.501,229.003 L 918.509,228.717 L 918.505,228.436 L 918.495,228.157 L 918.476,227.877 L 918.447,227.597 L 918.408,227.321 L 918.361,227.047 L 918.307,226.772 L 918.243,226.5 L 918.169,226.231 L 918.089,225.964 L 918.001,225.699 L 917.904,225.435 L 917.799,225.173 L 917.687,224.915 L 917.565,224.659 L 917.437,224.404 L 917.301,224.153 L 917.159,223.907 L 917.008,223.66 L 916.849,223.417 L 916.683,223.177 L 916.512,222.941 L 916.332,222.707 L 916.145,222.476 L 915.952,222.248 L 915.752,222.025 L 915.545,221.804 L 915.332,221.587 L 915.113,221.373 L 914.887,221.163 L 914.655,220.957 L 914.416,220.753 L 914.171,220.555 L 913.92,220.36 L 913.664,220.168 L 913.401,219.981 L 913.132,219.799 L 912.859,219.62 L 912.58,219.445 L 912.296,219.276 L 912.005,219.109 L 911.711,218.948 L 911.408,218.791 L 911.103,218.639 L 910.792,218.491 L 910.475,218.348 L 910.155,218.209 L 909.829,218.076 L 909.499,217.949 L 909.164,217.825 L 908.824,217.708 L 908.48,217.595 L 908.127,217.485 L 908.108,217.479 Z "/>
			</g>
		</g>
		<g id="dp_group032">
			<g id="dp_group033">
				<path id="dp_path034" fill="#ff1616" fill-rule="evenodd" d="M 913.069,228.349 L 912.947,230.345 L 912.699,234.337 L 922.989,229.967 L 913.317,224.357 Z "/>
				<path id="dp_path035" fill="#ff1616" d="M 901.731,229.651 L 912.947,230.347 L 913.069,228.349 L 901.853,227.653 Z "/>
			</g>
		</g>
		<path id="dp_path036" fill="black" fill-rule="evenodd" d="M 915.256,215.413 C 915.721,214.047 916.357,212.993 917.164,212.253 C 917.773,211.699 918.372,211.421 918.959,211.421 C 919.528,211.421 919.924,211.688 920.145,212.223 C 920.455,212.969 920.391,213.984 919.955,215.268 C 919.54,216.491 918.935,217.455 918.143,218.163 C 917.525,218.712 916.924,218.985 916.34,218.985 C 916.025,218.985 915.763,218.909 915.553,218.756 C 915.345,218.603 915.188,218.383 915.085,218.095 C 914.981,217.807 914.931,217.501 914.932,217.179 C 914.937,216.624 915.045,216.035 915.256,215.413 Z M 919.028,215.039 C 919.331,214.137 919.489,213.415 919.505,212.869 C 919.515,212.451 919.441,212.152 919.283,211.973 C 919.167,211.843 919.005,211.776 918.796,211.776 C 918.56,211.776 918.312,211.868 918.052,212.051 C 917.791,212.235 917.537,212.539 917.289,212.968 C 917.041,213.395 916.737,214.085 916.38,215.039 Z M 916.261,215.385 C 916.065,216.003 915.924,216.559 915.836,217.052 C 915.768,217.427 915.759,217.753 915.812,218.031 C 915.841,218.197 915.92,218.339 916.048,218.456 C 916.175,218.572 916.335,218.629 916.527,218.629 C 916.748,218.629 916.996,218.525 917.265,218.317 C 917.537,218.109 917.801,217.773 918.061,217.312 C 918.321,216.851 918.601,216.208 918.901,215.385 Z "/>
		<text id="dp_text004" transform="matrix(1,0,0,1,941.947,236.973)" xml:space="preserve" fill="#fc860f" font-family="Arial" font-size="11" font-weight="700" x="0" y="0.00266667">F</text>
		<text id="dp_text005" transform="matrix(1,0,0,1,941.947,236.973)" xml:space="preserve" fill="#da002f" font-family="Arial" font-size="11" font-weight="400" x="6.51333" y="0.00266667">(</text>
		<text id="dp_text006" transform="matrix(1,0,0,1,941.947,236.973)" xml:space="preserve" fill="#da002f" font-family="Arial" font-size="11" font-weight="700" x="10.0693" y="0.00266667">r</text>
		<text id="dp_text007" transform="matrix(1,0,0,1,941.947,236.973)" xml:space="preserve" fill="#da002f" font-family="Arial" font-size="11" font-weight="400" x="14.2227" y="0.00266667">)</text>
		<text id="dp_text008" transform="matrix(1,0,0,1,941.947,236.973)" xml:space="preserve" fill="#fc860f" font-family="Arial" font-size="11" font-weight="400" x="17.7787" y="0.00266667">cos</text>
		<text id="dp_text009" transform="matrix(1,0,0,1,941.947,236.973)" xml:space="preserve" fill="#fc860f" font-family="Times New Roman" font-size="11" font-weight="700" x="34.42" y="0.00266667"> </text>
		<text id="dp_text010" transform="matrix(1,0,0,1,846.695,182.292)" xml:space="preserve" fill="#fc860f" font-family="Arial" font-size="11" font-weight="700" x="0" y="0.00266667">F</text>
		<text id="dp_text011" transform="matrix(1,0,0,1,846.695,182.292)" xml:space="preserve" fill="#da002f" font-family="Arial" font-size="11" font-weight="400" x="6.51333" y="0.00266667">(</text>
		<text id="dp_text012" transform="matrix(1,0,0,1,846.695,182.292)" xml:space="preserve" fill="#da002f" font-family="Arial" font-size="11" font-weight="700" x="10.0693" y="0.00266667">r</text>
		<text id="dp_text013" transform="matrix(1,0,0,1,846.695,182.292)" xml:space="preserve" fill="#da002f" font-family="Arial" font-size="11" font-weight="400" x="14.2227" y="0.00266667">)</text>
		<text id="dp_text014" transform="matrix(1,0,0,1,846.695,182.292)" xml:space="preserve" fill="#fc860f" font-family="Arial" font-size="11" font-weight="400" x="17.7787" y="0.00266667">sin</text>
		<text id="dp_text015" transform="matrix(1,0,0,1,846.695,182.292)" xml:space="preserve" fill="black" font-family="Times New Roman" font-size="11" font-weight="700" x="31.4333" y="0.00266667"> </text>
		<path id="dp_path049" fill="#06cd00" fill-rule="evenodd" fill-opacity="0.701961" stroke="#06cd00" stroke-width="0.666667" d="M 938.976,188.633 L 943.501,185.429 L 944.597,191.964 L 940.071,195.168 Z "/>
		<path id="dp_path050" fill="none" fill-rule="evenodd" stroke="#fc850e" stroke-width="1.33333" stroke-dasharray="3.2,3.2" d="M 939.567,230.82 L 913.201,188.729"/>
		<path id="dp_path051" fill="none" fill-rule="evenodd" stroke="#fc850e" stroke-width="1.33333" stroke-dasharray="3.2,3.2" d="M 876.401,187.245 L 914.267,189.756"/>
		<text id="dp_text016" transform="matrix(1,0,0,1,925.408,133.332)" xml:space="preserve" fill="#2217ff" font-family="Arial" font-size="11" font-weight="700" x="0" y="0.00133333">A</text>
		<text id="dp_text017" transform="matrix(1,0,0,1,925.408,133.332)" xml:space="preserve" fill="#2217ff" font-family="Arial" font-size="11" font-weight="400" x="7.708" y="0.00133333">=</text>
		<text id="dp_text018" transform="matrix(1,0,0,1,925.408,133.332)" xml:space="preserve" fill="#2217ff" font-family="Arial" font-size="11" font-weight="400" font-style="italic" x="13.9373" y="0.00133333">A</text>
		<text id="dp_text019" transform="matrix(1,0,0,1,925.408,133.332)" xml:space="preserve" fill="#2217ff" font-family="Times New Roman" font-size="11" font-weight="400" x="21.048" y="0.00133333"> </text>
		<text id="dp_text020" transform="matrix(1,0,0,1,990.808,195.732)" xml:space="preserve" fill="#2217ff" font-family="Arial" font-size="11" font-weight="400" font-style="italic" x="0" y="0.00133333">C</text>
		<text id="dp_text021" transform="matrix(1,0,0,1,990.808,195.732)" xml:space="preserve" fill="#2217ff" font-family="Times New Roman" font-size="11" font-weight="400" font-style="italic" x="7.708" y="0.00133333"> </text>
		<g id="dp_group058">
			<g id="dp_group059">
				<path id="dp_path060" fill="#2217ff" fill-rule="evenodd" d="M 931.633,143.267 L 932.952,143.075 L 935.591,142.688 L 931.327,136.575 L 928.995,143.653 Z "/>
				<path id="dp_path061" fill="#2217ff" d="M 940.621,195.481 L 932.953,143.075 L 931.633,143.267 L 939.301,195.673 Z "/>
			</g>
		</g>
		<g id="dp_group062">
			<g id="dp_group063">
				<path id="dp_path064" fill="#00d920" fill-rule="evenodd" d="M 936.359,177.535 L 938.339,177.249 L 942.297,176.681 L 935.925,167.493 L 932.4,178.104 Z "/>
				<path id="dp_path065" fill="#00d920" d="M 940.953,195.436 L 938.339,177.249 L 936.36,177.535 L 938.975,195.721 Z "/>
			</g>
		</g>
		<g id="dp_group066">
			<text id="dp_text022" transform="matrix(1,0,0,1,946.571,133.358)" xml:space="preserve" fill="#00d920" font-family="Arial" font-size="11" font-weight="700" x="0" y="0">n</text>
			<text id="dp_text023" transform="matrix(1,0,0,1,946.571,133.358)" xml:space="preserve" fill="#00d920" font-family="Times New Roman" font-size="11" font-weight="700" x="6.51467" y="0"> </text>
			<path id="dp_path069" fill="#00d920" fill-rule="evenodd" d="M 947.112,126.599 L 949.241,124.301 L 950.504,124.301 L 952.577,126.599 L 950.972,126.599 L 949.849,125.193 L 948.732,126.599 Z "/>
		</g>
		<text id="dp_text024" transform="matrix(1,0,0,1,961.208,188.532)" xml:space="preserve" fill="#2217ff" font-family="Arial" font-size="11" font-weight="400" font-style="italic" x="0" y="0.00133333">A</text>
		<text id="dp_text025" transform="matrix(1,0,0,1,961.208,188.532)" xml:space="preserve" fill="#2217ff" font-family="Times New Roman" font-size="11" font-weight="400" x="7.11067" y="0.00133333"> </text>
		<text id="dp_text026" transform="matrix(1,0,0,1,907.232,242.229)" xml:space="preserve" fill="#ff1616" font-family="Arial" font-size="11" font-weight="400" x="0" y="0.00133333">d</text>
		<text id="dp_text027" transform="matrix(1,0,0,1,907.232,242.229)" xml:space="preserve" fill="#ff1616" font-family="Arial" font-size="11" font-weight="700" x="5.944" y="0.00133333">r</text>
		<text id="dp_text028" transform="matrix(1,0,0,1,907.232,242.229)" xml:space="preserve" fill="#ff1616" font-family="Times New Roman" font-size="11" font-weight="700" x="10.0973" y="0.00133333"> </text>
		<g id="dp_group075">
			<path id="dp_path076" fill="#da002f" fill-rule="evenodd" d="M 915.917,284.773 L 902.251,228"/>
			<g id="dp_group077">
				<g id="dp_group078">
					<path id="dp_path079" fill="#da002f" fill-rule="evenodd" d="M 903.163,234.637 L 904.459,234.325 L 907.051,233.701 L 902.251,228 L 900.569,235.261 Z "/>
					<path id="dp_path080" fill="#da002f" d="M 916.565,284.617 L 904.459,234.325 L 903.163,234.637 L 915.269,284.929 Z "/>
				</g>
			</g>
		</g>
		<g id="dp_group081">
			<path id="dp_path082" fill="#da002f" fill-rule="evenodd" d="M 915.92,284.773 L 922.489,229.407"/>
			<g id="dp_group083">
				<g id="dp_group084">
					<path id="dp_path085" fill="#da002f" fill-rule="evenodd" d="M 921.041,235.948 L 922.365,236.105 L 925.013,236.42 L 922.489,229.407 L 918.393,235.633 Z "/>
					<path id="dp_path086" fill="#da002f" d="M 916.583,284.852 L 922.367,236.105 L 921.041,235.948 L 915.257,284.695 Z "/>
				</g>
			</g>
		</g>
		<text id="dp_text029" transform="matrix(1,0,0,1,901.65,262.978)" xml:space="preserve" fill="#da002f" font-family="Arial" font-size="11" font-weight="700" x="0" y="0.00133333">r</text>
		<text id="dp_text030" transform="matrix(1,0,0,1,901.65,262.978)" xml:space="preserve" fill="#da002f" font-family="Times New Roman" font-size="11" font-weight="700" x="4.15333" y="0.00133333"> </text>
		<text id="dp_text031" transform="matrix(1,0,0,1,923.713,255.208)" xml:space="preserve" fill="#da002f" font-family="Arial" font-size="11" font-weight="700" x="0" y="0.00133333">r</text>
		<text id="dp_text032" transform="matrix(1,0,0,1,923.713,255.208)" xml:space="preserve" fill="#da002f" font-family="Arial" font-size="11" font-weight="400" x="4.15333" y="0.00133333">+</text>
		<text id="dp_text033" transform="matrix(1,0,0,1,923.713,255.208)" xml:space="preserve" fill="#da002f" font-family="Arial" font-size="11" font-weight="400" x="10.3827" y="0.00133333">d</text>
		<text id="dp_text034" transform="matrix(1,0,0,1,923.713,255.208)" xml:space="preserve" fill="#da002f" font-family="Arial" font-size="11" font-weight="700" x="16.3267" y="0.00133333">r</text>
		<text id="dp_text035" transform="matrix(1,0,0,1,923.713,255.208)" xml:space="preserve" fill="#da002f" font-family="Times New Roman" font-size="11" font-weight="700" x="20.48" y="0.00133333"> </text>
		<g id="dp_group094">
			<g id="dp_group095">
				<path id="dp_path096" fill="#2217ff" fill-rule="evenodd" fill-opacity="0.666667" d="M 1075.13,141.291 C 1067.09,147.079 1063.86,160.144 1050.61,162.305 C 1035.85,164.712 1016.67,159.639 1023.86,152.941 C 1033.1,144.344 1029.28,136.735 1042.72,130.072 C 1055.96,123.509 1083.12,135.34 1075.43,140.876"/>
				<g id="dp_group097">
					<g id="dp_group098">
						<path id="dp_path099" fill="#2217ff" fill-rule="evenodd" d="M 1067.62,147.969 L 1069.09,149.324 L 1072.04,152.033 L 1075.13,141.289 L 1064.68,145.259 Z "/>
						<path id="dp_path100" fill="#2217ff" d="M 1067.62,147.969 L 1067.17,148.461 L 1066.53,149.313 L 1065.92,150.127 L 1065.3,150.935 L 1064.99,151.336 L 1064.68,151.737 L 1064.37,152.133 L 1064.05,152.528 L 1063.73,152.917 L 1063.4,153.304 L 1063.07,153.688 L 1062.74,154.065 L 1062.4,154.439 L 1062.06,154.807 L 1061.72,155.168 L 1061.37,155.524 L 1061.01,155.875 L 1060.64,156.216 L 1060.27,156.552 L 1059.9,156.88 L 1059.52,157.2 L 1059.12,157.513 L 1058.93,157.664 L 1058.73,157.813 L 1058.53,157.961 L 1058.32,158.108 L 1058.12,158.251 L 1057.91,158.391 L 1057.7,158.531 L 1057.48,158.669 L 1057.27,158.803 L 1057.06,158.932 L 1056.83,159.063 L 1056.61,159.188 L 1056.39,159.311 L 1056.17,159.432 L 1055.94,159.549 L 1055.7,159.665 L 1055.47,159.779 L 1055.23,159.887 L 1054.99,159.993 L 1054.75,160.097 L 1054.5,160.199 L 1054.26,160.296 L 1054,160.391 L 1053.75,160.483 L 1053.49,160.571 L 1053.23,160.656 L 1052.97,160.739 L 1052.71,160.816 L 1052.43,160.891 L 1052.16,160.963 L 1051.89,161.031 L 1051.6,161.096 L 1051.32,161.157 L 1051.03,161.215 L 1050.74,161.269 L 1050.45,161.319 L 1049.77,161.424 L 1049.09,161.519 L 1048.39,161.601 L 1047.7,161.676 L 1047,161.739 L 1046.3,161.792 L 1045.59,161.837 L 1044.89,161.869 L 1044.18,161.895 L 1043.47,161.909 L 1042.76,161.913 L 1042.05,161.911 L 1041.35,161.896 L 1040.65,161.873 L 1039.95,161.841 L 1039.25,161.803 L 1038.56,161.753 L 1037.88,161.696 L 1037.2,161.629 L 1036.53,161.557 L 1035.87,161.475 L 1035.21,161.384 L 1034.57,161.287 L 1033.93,161.181 L 1033.31,161.068 L 1032.69,160.949 L 1032.09,160.821 L 1031.51,160.687 L 1030.93,160.547 L 1030.37,160.399 L 1029.83,160.244 L 1029.3,160.084 L 1028.79,159.919 L 1028.3,159.745 L 1028.06,159.657 L 1027.82,159.568 L 1027.59,159.477 L 1027.37,159.387 L 1027.15,159.293 L 1026.94,159.199 L 1026.73,159.103 L 1026.52,159.007 L 1026.32,158.909 L 1026.13,158.811 L 1025.95,158.713 L 1025.76,158.612 L 1025.59,158.509 L 1025.42,158.409 L 1025.26,158.307 L 1025.1,158.204 L 1024.95,158.101 L 1024.8,157.996 L 1024.67,157.895 L 1024.54,157.792 L 1024.41,157.685 L 1024.3,157.585 L 1024.19,157.483 L 1024.08,157.377 L 1023.98,157.272 L 1023.89,157.172 L 1023.81,157.077 L 1023.73,156.976 L 1023.67,156.879 L 1023.61,156.784 L 1023.55,156.685 L 1023.5,156.592 L 1023.45,156.504 L 1023.42,156.412 L 1023.39,156.321 L 1023.36,156.239 L 1023.34,156.149 L 1023.32,156.061 L 1023.31,155.979 L 1023.3,155.893 L 1023.3,155.801 L 1023.31,155.715 L 1023.31,155.629 L 1023.33,155.536 L 1023.34,155.445 L 1023.37,155.351 L 1023.4,155.248 L 1023.44,155.144 L 1023.49,155.039 L 1023.54,154.933 L 1023.6,154.819 L 1023.67,154.701 L 1023.74,154.585 L 1023.83,154.465 L 1023.93,154.337 L 1024.03,154.208 L 1024.14,154.08 L 1024.27,153.947 L 1024.4,153.811 L 1024.55,153.664 L 1024.98,153.256 L 1025.4,152.841 L 1025.8,152.427 L 1026.19,152.015 L 1026.56,151.601 L 1026.91,151.192 L 1027.24,150.783 L 1027.57,150.375 L 1027.87,149.968 L 1028.17,149.563 L 1028.45,149.16 L 1028.72,148.757 L 1028.97,148.357 L 1029.22,147.961 L 1029.46,147.565 L 1029.69,147.169 L 1029.9,146.78 L 1030.11,146.392 L 1030.32,146.003 L 1030.51,145.62 L 1030.7,145.239 L 1030.89,144.859 L 1031.25,144.111 L 1031.59,143.371 L 1031.93,142.645 L 1032.27,141.929 L 1032.61,141.221 L 1032.78,140.876 L 1032.96,140.529 L 1033.14,140.187 L 1033.33,139.847 L 1033.51,139.509 L 1033.71,139.175 L 1033.91,138.841 L 1034.12,138.511 L 1034.34,138.183 L 1034.56,137.856 L 1034.8,137.531 L 1035.04,137.208 L 1035.29,136.885 L 1035.56,136.567 L 1035.84,136.249 L 1036.13,135.931 L 1036.43,135.616 L 1036.75,135.297 L 1036.92,135.141 L 1037.09,134.985 L 1037.26,134.828 L 1037.43,134.675 L 1037.62,134.517 L 1037.8,134.359 L 1037.99,134.203 L 1038.19,134.047 L 1038.39,133.892 L 1038.59,133.737 L 1038.8,133.581 L 1039.01,133.425 L 1039.23,133.271 L 1039.45,133.117 L 1039.68,132.963 L 1039.91,132.807 L 1040.15,132.653 L 1040.4,132.499 L 1040.65,132.345 L 1040.9,132.191 L 1041.17,132.037 L 1041.43,131.884 L 1041.7,131.732 L 1041.98,131.579 L 1042.27,131.425 L 1042.56,131.272 L 1042.86,131.119 L 1043.16,130.969 L 1043.45,130.827 L 1043.75,130.692 L 1044.05,130.564 L 1044.36,130.441 L 1044.67,130.325 L 1044.99,130.215 L 1045.31,130.108 L 1045.63,130.009 L 1045.97,129.916 L 1046.3,129.827 L 1046.64,129.745 L 1046.98,129.668 L 1047.33,129.596 L 1047.68,129.531 L 1048.03,129.469 L 1048.39,129.415 L 1048.75,129.364 L 1049.11,129.317 L 1049.47,129.279 L 1049.84,129.245 L 1050.22,129.216 L 1050.59,129.191 L 1050.97,129.172 L 1051.35,129.156 L 1051.72,129.147 L 1052.11,129.143 L 1052.49,129.143 L 1052.88,129.145 L 1053.27,129.156 L 1053.66,129.169 L 1054.04,129.187 L 1054.43,129.211 L 1054.83,129.237 L 1055.22,129.269 L 1055.61,129.304 L 1056.01,129.344 L 1056.4,129.388 L 1056.79,129.436 L 1057.19,129.488 L 1057.58,129.543 L 1057.97,129.603 L 1058.36,129.667 L 1058.76,129.733 L 1059.15,129.804 L 1059.53,129.879 L 1059.92,129.956 L 1060.31,130.037 L 1060.7,130.121 L 1061.08,130.209 L 1061.47,130.3 L 1061.85,130.395 L 1062.23,130.492 L 1062.61,130.593 L 1062.98,130.696 L 1063.35,130.801 L 1063.72,130.911 L 1064.09,131.021 L 1064.45,131.136 L 1064.81,131.252 L 1065.17,131.372 L 1065.53,131.493 L 1065.88,131.617 L 1066.23,131.743 L 1066.57,131.872 L 1066.91,132.003 L 1067.25,132.135 L 1067.58,132.269 L 1067.91,132.404 L 1068.23,132.543 L 1068.55,132.684 L 1068.87,132.825 L 1069.17,132.967 L 1069.47,133.112 L 1069.78,133.259 L 1070.07,133.405 L 1070.36,133.553 L 1070.64,133.703 L 1070.91,133.853 L 1071.18,134.004 L 1071.45,134.157 L 1071.7,134.309 L 1071.95,134.463 L 1072.2,134.617 L 1072.44,134.772 L 1072.67,134.928 L 1072.89,135.081 L 1073.11,135.237 L 1073.32,135.392 L 1073.52,135.547 L 1073.71,135.701 L 1073.9,135.856 L 1074.07,136.008 L 1074.24,136.161 L 1074.4,136.313 L 1074.55,136.463 L 1074.7,136.612 L 1074.83,136.761 L 1074.96,136.907 L 1075.07,137.049 L 1075.18,137.187 L 1075.28,137.325 L 1075.37,137.463 L 1075.44,137.592 L 1075.51,137.72 L 1075.58,137.848 L 1075.63,137.967 L 1075.67,138.08 L 1075.71,138.195 L 1075.74,138.301 L 1075.76,138.4 L 1075.77,138.495 L 1075.78,138.591 L 1075.78,138.685 L 1075.77,138.768 L 1075.76,138.849 L 1075.74,138.936 L 1075.72,139.023 L 1075.69,139.103 L 1075.65,139.191 L 1075.61,139.277 L 1075.55,139.367 L 1075.48,139.463 L 1075.41,139.556 L 1075.32,139.653 L 1075.22,139.756 L 1075.11,139.857 L 1074.99,139.96 L 1074.83,140.075 L 1076.03,141.677 L 1076.22,141.531 L 1076.42,141.367 L 1076.6,141.199 L 1076.78,141.024 L 1076.94,140.844 L 1077.09,140.655 L 1077.22,140.463 L 1077.34,140.264 L 1077.45,140.057 L 1077.55,139.847 L 1077.62,139.628 L 1077.68,139.411 L 1077.73,139.191 L 1077.76,138.963 L 1077.78,138.736 L 1077.77,138.516 L 1077.76,138.295 L 1077.73,138.072 L 1077.68,137.851 L 1077.63,137.635 L 1077.56,137.424 L 1077.48,137.212 L 1077.39,137.003 L 1077.29,136.803 L 1077.18,136.6 L 1077.06,136.399 L 1076.93,136.203 L 1076.79,136.008 L 1076.64,135.812 L 1076.49,135.621 L 1076.33,135.433 L 1076.15,135.247 L 1075.98,135.063 L 1075.79,134.876 L 1075.6,134.695 L 1075.4,134.512 L 1075.19,134.331 L 1074.97,134.152 L 1074.75,133.976 L 1074.52,133.797 L 1074.29,133.624 L 1074.05,133.449 L 1073.79,133.275 L 1073.54,133.105 L 1073.28,132.935 L 1073.01,132.767 L 1072.74,132.597 L 1072.46,132.432 L 1072.17,132.268 L 1071.88,132.104 L 1071.58,131.943 L 1071.28,131.783 L 1070.97,131.624 L 1070.66,131.467 L 1070.34,131.312 L 1070.02,131.159 L 1069.69,131.007 L 1069.36,130.857 L 1069.03,130.711 L 1068.69,130.564 L 1068.34,130.419 L 1067.99,130.279 L 1067.63,130.139 L 1067.28,130.003 L 1066.92,129.868 L 1066.55,129.735 L 1066.18,129.605 L 1065.81,129.479 L 1065.44,129.353 L 1065.06,129.232 L 1064.68,129.112 L 1064.29,128.996 L 1063.91,128.881 L 1063.52,128.771 L 1063.13,128.663 L 1062.73,128.559 L 1062.33,128.456 L 1061.94,128.359 L 1061.53,128.263 L 1061.13,128.172 L 1060.73,128.083 L 1060.32,127.999 L 1059.92,127.916 L 1059.51,127.839 L 1059.1,127.765 L 1058.69,127.696 L 1058.28,127.629 L 1057.87,127.567 L 1057.45,127.507 L 1057.04,127.452 L 1056.63,127.401 L 1056.21,127.357 L 1055.8,127.315 L 1055.39,127.277 L 1054.97,127.245 L 1054.56,127.216 L 1054.15,127.192 L 1053.73,127.172 L 1053.32,127.159 L 1052.91,127.148 L 1052.5,127.143 L 1052.1,127.143 L 1051.69,127.149 L 1051.28,127.159 L 1050.88,127.175 L 1050.47,127.196 L 1050.07,127.221 L 1049.67,127.253 L 1049.28,127.289 L 1048.88,127.333 L 1048.49,127.383 L 1048.1,127.436 L 1047.71,127.496 L 1047.32,127.563 L 1046.94,127.636 L 1046.56,127.713 L 1046.18,127.799 L 1045.81,127.891 L 1045.44,127.988 L 1045.07,128.092 L 1044.71,128.204 L 1044.35,128.321 L 1043.99,128.445 L 1043.64,128.577 L 1043.29,128.716 L 1042.95,128.863 L 1042.61,129.016 L 1042.28,129.175 L 1041.95,129.337 L 1041.64,129.499 L 1041.33,129.66 L 1041.03,129.821 L 1040.74,129.983 L 1040.45,130.145 L 1040.16,130.309 L 1039.88,130.473 L 1039.61,130.639 L 1039.34,130.803 L 1039.08,130.968 L 1038.82,131.135 L 1038.57,131.301 L 1038.33,131.467 L 1038.08,131.636 L 1037.84,131.804 L 1037.61,131.973 L 1037.39,132.14 L 1037.16,132.311 L 1036.95,132.481 L 1036.73,132.653 L 1036.52,132.825 L 1036.32,132.995 L 1036.12,133.165 L 1035.93,133.34 L 1035.73,133.513 L 1035.55,133.688 L 1035.36,133.865 L 1035.01,134.211 L 1034.67,134.563 L 1034.35,134.916 L 1034.04,135.271 L 1033.74,135.629 L 1033.46,135.987 L 1033.19,136.344 L 1032.93,136.704 L 1032.68,137.065 L 1032.44,137.428 L 1032.21,137.791 L 1031.99,138.153 L 1031.78,138.517 L 1031.58,138.881 L 1031.38,139.245 L 1031.19,139.609 L 1031,139.975 L 1030.82,140.341 L 1030.47,141.068 L 1030.12,141.797 L 1029.78,142.528 L 1029.44,143.257 L 1029.09,143.989 L 1028.91,144.353 L 1028.73,144.719 L 1028.54,145.085 L 1028.35,145.451 L 1028.15,145.817 L 1027.95,146.185 L 1027.73,146.552 L 1027.51,146.921 L 1027.28,147.291 L 1027.05,147.661 L 1026.8,148.032 L 1026.54,148.405 L 1026.27,148.779 L 1025.98,149.153 L 1025.69,149.529 L 1025.38,149.907 L 1025.05,150.287 L 1024.71,150.668 L 1024.36,151.051 L 1023.98,151.436 L 1023.59,151.821 L 1023.17,152.219 L 1023,152.387 L 1022.83,152.563 L 1022.66,152.739 L 1022.5,152.92 L 1022.35,153.1 L 1022.22,153.279 L 1022.09,153.463 L 1021.97,153.651 L 1021.86,153.837 L 1021.75,154.024 L 1021.66,154.217 L 1021.58,154.411 L 1021.51,154.603 L 1021.45,154.796 L 1021.4,154.995 L 1021.36,155.195 L 1021.33,155.392 L 1021.31,155.595 L 1021.3,155.793 L 1021.31,155.987 L 1021.32,156.184 L 1021.35,156.381 L 1021.38,156.571 L 1021.43,156.759 L 1021.49,156.951 L 1021.55,157.132 L 1021.63,157.312 L 1021.71,157.493 L 1021.81,157.664 L 1021.9,157.832 L 1022.01,157.999 L 1022.13,158.16 L 1022.25,158.317 L 1022.38,158.479 L 1022.51,158.629 L 1022.65,158.775 L 1022.8,158.917 L 1022.95,159.063 L 1023.11,159.205 L 1023.27,159.339 L 1023.44,159.476 L 1023.62,159.609 L 1023.8,159.736 L 1023.99,159.865 L 1024.18,159.989 L 1024.37,160.113 L 1024.58,160.235 L 1024.78,160.351 L 1024.99,160.468 L 1025.21,160.584 L 1025.43,160.696 L 1025.65,160.807 L 1025.88,160.916 L 1026.12,161.023 L 1026.36,161.128 L 1026.6,161.232 L 1026.85,161.333 L 1027.1,161.432 L 1027.36,161.529 L 1027.62,161.625 L 1028.15,161.812 L 1028.7,161.991 L 1029.27,162.161 L 1029.85,162.327 L 1030.44,162.483 L 1031.05,162.631 L 1031.66,162.773 L 1032.3,162.907 L 1032.94,163.033 L 1033.59,163.152 L 1034.26,163.26 L 1034.93,163.363 L 1035.61,163.456 L 1036.3,163.541 L 1037,163.619 L 1037.7,163.685 L 1038.41,163.745 L 1039.13,163.797 L 1039.85,163.839 L 1040.57,163.871 L 1041.3,163.893 L 1042.03,163.908 L 1042.76,163.913 L 1043.5,163.907 L 1044.23,163.892 L 1044.97,163.867 L 1045.7,163.832 L 1046.43,163.787 L 1047.17,163.731 L 1047.89,163.665 L 1048.62,163.588 L 1049.34,163.5 L 1050.06,163.403 L 1050.77,163.292 L 1051.09,163.237 L 1051.41,163.177 L 1051.73,163.115 L 1052.04,163.045 L 1052.35,162.975 L 1052.65,162.901 L 1052.95,162.821 L 1053.25,162.739 L 1053.55,162.651 L 1053.84,162.56 L 1054.13,162.467 L 1054.42,162.368 L 1054.7,162.265 L 1054.97,162.16 L 1055.25,162.052 L 1055.52,161.94 L 1055.79,161.825 L 1056.06,161.708 L 1056.32,161.584 L 1056.58,161.46 L 1056.83,161.333 L 1057.09,161.203 L 1057.34,161.068 L 1057.59,160.932 L 1057.84,160.791 L 1058.08,160.649 L 1058.32,160.504 L 1058.56,160.355 L 1058.79,160.205 L 1059.02,160.055 L 1059.25,159.899 L 1059.48,159.74 L 1059.7,159.58 L 1059.92,159.419 L 1060.14,159.253 L 1060.36,159.084 L 1060.78,158.747 L 1061.19,158.4 L 1061.6,158.045 L 1062,157.683 L 1062.39,157.315 L 1062.77,156.94 L 1063.15,156.563 L 1063.52,156.177 L 1063.88,155.788 L 1064.23,155.393 L 1064.58,154.997 L 1064.92,154.597 L 1065.26,154.195 L 1065.6,153.789 L 1065.93,153.381 L 1066.25,152.972 L 1066.57,152.563 L 1066.89,152.153 L 1067.51,151.332 L 1068.13,150.513 L 1068.71,149.741 L 1069.09,149.324 Z "/>
					</g>
				</g>
			</g>
			<path id="dp_path101" fill="#06cd00" fill-rule="evenodd" fill-opacity="0.701961" stroke="#06cd00" stroke-width="0.666667" d="M 1046.09,143.389 L 1050.62,140.185 L 1051.72,146.72 L 1047.19,149.924 Z "/>
			<g id="dp_group102">
				<g id="dp_group103">
					<path id="dp_path104" fill="#00d920" fill-rule="evenodd" d="M 1043.48,132.291 L 1045.46,132.005 L 1049.42,131.437 L 1043.04,122.249 L 1039.52,132.86 Z "/>
					<path id="dp_path105" fill="#00d920" d="M 1048.07,150.192 L 1045.46,132.005 L 1043.48,132.291 L 1046.09,150.477 Z "/>
				</g>
			</g>
			<text id="dp_text036" transform="matrix(1,0,0,1,1076.81,150.732)" xml:space="preserve" fill="#2217ff" font-family="Arial" font-size="11" font-weight="400" font-style="italic" x="0" y="0.00133333">C</text>
			<text id="dp_text037" transform="matrix(1,0,0,1,1076.81,150.732)" xml:space="preserve" fill="#2217ff" font-family="Times New Roman" font-size="11" font-weight="400" font-style="italic" x="7.708" y="0.00133333"> </text>
			<text id="dp_text038" transform="matrix(1,0,0,1,1057.71,145.532)" xml:space="preserve" fill="#2217ff" font-family="Arial" font-size="11" font-weight="400" font-style="italic" x="0" y="0.00133333">A</text>
			<text id="dp_text039" transform="matrix(1,0,0,1,1057.71,145.532)" xml:space="preserve" fill="#2217ff" font-family="Times New Roman" font-size="11" font-weight="400" x="7.11067" y="0.00133333"> </text>
			<g id="dp_group110">
				<text id="dp_text040" transform="matrix(1,0,0,1,1048.27,122.858)" xml:space="preserve" fill="#00d920" font-family="Arial" font-size="11" font-weight="700" x="0" y="0">n</text>
				<text id="dp_text041" transform="matrix(1,0,0,1,1048.27,122.858)" xml:space="preserve" fill="#00d920" font-family="Times New Roman" font-size="11" font-weight="700" x="6.51467" y="0"> </text>
				<path id="dp_path113" fill="#00d920" fill-rule="evenodd" d="M 1048.81,116.099 L 1050.94,113.801 L 1052.2,113.801 L 1054.28,116.099 L 1052.67,116.099 L 1051.55,114.693 L 1050.43,116.099 Z "/>
			</g>
		</g>
		<g id="dp_group114">
			<path id="dp_path115" fill="#2217ff" fill-rule="evenodd" fill-opacity="0.666667" d="M 1065.68,205.147 C 1061.77,207.987 1060.2,214.399 1053.77,215.459 C 1046.6,216.64 1037.29,214.151 1040.78,210.864 C 1045.27,206.645 1043.41,202.911 1049.94,199.641 C 1056.37,196.42 1069.56,202.227 1065.82,204.943"/>
			<g id="dp_group116">
				<g id="dp_group117">
					<path id="dp_path118" fill="#2217ff" fill-rule="evenodd" d="M 1058.35,212.024 L 1059.85,213.339 L 1062.87,215.968 L 1065.68,205.147 L 1055.33,209.393 Z "/>
					<path id="dp_path119" fill="#2217ff" d="M 1058.35,212.023 L 1058.26,212.131 L 1058.12,212.259 L 1057.94,212.413 L 1057.76,212.563 L 1057.59,212.708 L 1057.4,212.848 L 1057.21,212.988 L 1057.02,213.119 L 1056.83,213.247 L 1056.63,213.369 L 1056.43,213.487 L 1056.22,213.599 L 1056.01,213.708 L 1055.8,213.811 L 1055.58,213.908 L 1055.35,213.999 L 1055.12,214.084 L 1054.88,214.165 L 1054.64,214.24 L 1054.39,214.307 L 1054.14,214.369 L 1053.88,214.424 L 1053.6,214.473 L 1053.29,214.524 L 1052.96,214.568 L 1052.63,214.608 L 1052.31,214.643 L 1051.97,214.673 L 1051.64,214.699 L 1051.3,214.721 L 1050.97,214.736 L 1050.63,214.748 L 1050.29,214.756 L 1049.96,214.757 L 1049.62,214.756 L 1049.28,214.749 L 1048.95,214.739 L 1048.62,214.724 L 1048.29,214.704 L 1047.96,214.681 L 1047.63,214.653 L 1047.31,214.621 L 1046.99,214.587 L 1046.68,214.547 L 1046.37,214.503 L 1046.06,214.457 L 1045.76,214.407 L 1045.46,214.353 L 1045.17,214.295 L 1044.89,214.233 L 1044.61,214.171 L 1044.34,214.103 L 1044.08,214.032 L 1043.82,213.96 L 1043.58,213.885 L 1043.34,213.807 L 1043.11,213.725 L 1042.89,213.643 L 1042.68,213.557 L 1042.48,213.471 L 1042.3,213.385 L 1042.12,213.295 L 1041.96,213.204 L 1041.81,213.116 L 1041.67,213.028 L 1041.55,212.937 L 1041.43,212.852 L 1041.34,212.769 L 1041.26,212.689 L 1041.19,212.616 L 1041.13,212.536 L 1041.11,212.511 L 1041.1,212.488 L 1041.08,212.46 L 1041.06,212.429 L 1041.05,212.405 L 1041.04,212.381 L 1041.04,212.367 L 1041.03,212.355 L 1041.03,212.331 L 1041.03,212.32 L 1041.02,212.309 L 1041.02,212.287 L 1041.02,212.265 L 1041.02,212.251 L 1041.02,212.245 L 1041.03,212.227 L 1041.03,212.2 L 1041.04,212.177 L 1041.04,212.159 L 1041.05,212.132 L 1041.07,212.099 L 1041.08,212.068 L 1041.1,212.037 L 1041.12,211.992 L 1041.15,211.948 L 1041.18,211.907 L 1041.22,211.859 L 1041.26,211.809 L 1041.3,211.76 L 1041.35,211.708 L 1041.4,211.651 L 1041.47,211.584 L 1041.69,211.38 L 1041.9,211.168 L 1042.1,210.959 L 1042.29,210.748 L 1042.48,210.537 L 1042.65,210.329 L 1042.83,210.119 L 1042.99,209.911 L 1043.14,209.705 L 1043.29,209.496 L 1043.43,209.291 L 1043.57,209.087 L 1043.7,208.884 L 1043.82,208.681 L 1043.94,208.481 L 1044.06,208.276 L 1044.27,207.885 L 1044.47,207.499 L 1044.66,207.116 L 1044.83,206.744 L 1045.17,206.024 L 1045.33,205.673 L 1045.49,205.336 L 1045.66,205.004 L 1045.83,204.677 L 1045.91,204.521 L 1046.01,204.363 L 1046.1,204.209 L 1046.19,204.053 L 1046.29,203.901 L 1046.4,203.751 L 1046.51,203.6 L 1046.62,203.449 L 1046.73,203.301 L 1046.85,203.155 L 1046.98,203.008 L 1047.11,202.861 L 1047.25,202.715 L 1047.4,202.569 L 1047.55,202.424 L 1047.71,202.277 L 1047.88,202.133 L 1048.06,201.989 L 1048.25,201.843 L 1048.44,201.697 L 1048.65,201.552 L 1048.86,201.408 L 1049.09,201.263 L 1049.32,201.117 L 1049.57,200.971 L 1049.83,200.825 L 1050.1,200.68 L 1050.38,200.536 L 1050.51,200.472 L 1050.65,200.409 L 1050.79,200.351 L 1050.92,200.296 L 1051.06,200.243 L 1051.21,200.193 L 1051.35,200.144 L 1051.5,200.097 L 1051.65,200.055 L 1051.81,200.012 L 1051.96,199.976 L 1052.11,199.941 L 1052.28,199.907 L 1052.44,199.875 L 1052.6,199.848 L 1052.76,199.823 L 1053.1,199.776 L 1053.44,199.743 L 1053.79,199.716 L 1054.14,199.7 L 1054.5,199.695 L 1054.86,199.695 L 1055.23,199.707 L 1055.59,199.727 L 1055.96,199.755 L 1056.33,199.789 L 1056.71,199.833 L 1057.08,199.884 L 1057.45,199.944 L 1057.82,200.011 L 1058.19,200.083 L 1058.55,200.161 L 1058.92,200.248 L 1059.28,200.34 L 1059.64,200.436 L 1059.99,200.539 L 1060.33,200.647 L 1060.67,200.761 L 1061.01,200.877 L 1061.34,200.999 L 1061.65,201.124 L 1061.97,201.253 L 1062.27,201.387 L 1062.56,201.521 L 1062.85,201.66 L 1063.12,201.799 L 1063.38,201.94 L 1063.62,202.083 L 1063.86,202.225 L 1064.08,202.371 L 1064.29,202.512 L 1064.48,202.653 L 1064.66,202.796 L 1064.82,202.932 L 1064.96,203.064 L 1065.09,203.201 L 1065.14,203.256 L 1065.19,203.317 L 1065.24,203.376 L 1065.28,203.429 L 1065.32,203.483 L 1065.35,203.535 L 1065.38,203.585 L 1065.41,203.624 L 1065.42,203.665 L 1065.44,203.707 L 1065.45,203.739 L 1065.46,203.763 L 1065.47,203.791 L 1065.47,203.813 L 1065.48,203.827 L 1065.48,203.836 L 1065.48,203.845 L 1065.48,203.86 L 1065.47,203.867 L 1065.47,203.873 L 1065.47,203.881 L 1065.47,203.884 L 1065.46,203.899 L 1065.46,203.912 L 1065.45,203.927 L 1065.43,203.945 L 1065.41,203.975 L 1065.39,203.999 L 1065.36,204.027 L 1065.33,204.061 L 1065.28,204.096 L 1065.21,204.147 L 1066.43,205.739 L 1066.53,205.661 L 1066.64,205.565 L 1066.75,205.467 L 1066.85,205.361 L 1066.95,205.247 L 1067.04,205.137 L 1067.13,205.015 L 1067.2,204.888 L 1067.27,204.757 L 1067.33,204.625 L 1067.38,204.481 L 1067.42,204.34 L 1067.45,204.197 L 1067.47,204.052 L 1067.47,203.915 L 1067.48,203.769 L 1067.47,203.624 L 1067.45,203.48 L 1067.42,203.345 L 1067.39,203.216 L 1067.34,203.08 L 1067.29,202.952 L 1067.24,202.833 L 1067.18,202.715 L 1067.12,202.591 L 1067.05,202.479 L 1066.98,202.368 L 1066.9,202.259 L 1066.82,202.147 L 1066.73,202.043 L 1066.65,201.939 L 1066.55,201.831 L 1066.36,201.637 L 1066.15,201.441 L 1065.93,201.252 L 1065.7,201.069 L 1065.45,200.885 L 1065.19,200.707 L 1064.92,200.535 L 1064.64,200.363 L 1064.35,200.196 L 1064.05,200.031 L 1063.74,199.871 L 1063.42,199.716 L 1063.09,199.563 L 1062.75,199.416 L 1062.4,199.271 L 1062.05,199.132 L 1061.69,198.997 L 1061.32,198.868 L 1060.94,198.745 L 1060.56,198.627 L 1060.18,198.513 L 1059.79,198.407 L 1059.39,198.307 L 1058.99,198.212 L 1058.59,198.125 L 1058.19,198.045 L 1057.78,197.973 L 1057.37,197.908 L 1056.96,197.852 L 1056.55,197.803 L 1056.13,197.763 L 1055.72,197.732 L 1055.31,197.709 L 1054.9,197.697 L 1054.49,197.695 L 1054.08,197.703 L 1053.67,197.721 L 1053.27,197.751 L 1052.87,197.792 L 1052.48,197.844 L 1052.28,197.875 L 1052.08,197.909 L 1051.88,197.947 L 1051.69,197.987 L 1051.5,198.029 L 1051.31,198.079 L 1051.12,198.129 L 1050.93,198.183 L 1050.74,198.24 L 1050.56,198.3 L 1050.38,198.365 L 1050.19,198.435 L 1050.01,198.508 L 1049.84,198.585 L 1049.67,198.664 L 1049.49,198.747 L 1049.17,198.909 L 1048.87,199.073 L 1048.58,199.237 L 1048.29,199.403 L 1048.02,199.569 L 1047.76,199.739 L 1047.51,199.909 L 1047.27,200.081 L 1047.03,200.253 L 1046.81,200.427 L 1046.6,200.603 L 1046.39,200.781 L 1046.19,200.96 L 1046.01,201.137 L 1045.82,201.32 L 1045.65,201.501 L 1045.49,201.683 L 1045.33,201.867 L 1045.18,202.051 L 1045.03,202.236 L 1044.89,202.421 L 1044.76,202.607 L 1044.63,202.792 L 1044.51,202.979 L 1044.39,203.164 L 1044.28,203.352 L 1044.18,203.537 L 1044.07,203.725 L 1043.88,204.092 L 1043.69,204.459 L 1043.52,204.823 L 1043.35,205.184 L 1043.02,205.899 L 1042.86,206.252 L 1042.68,206.603 L 1042.5,206.952 L 1042.31,207.305 L 1042.22,207.473 L 1042.11,207.649 L 1042.01,207.823 L 1041.89,207.996 L 1041.78,208.173 L 1041.66,208.347 L 1041.53,208.521 L 1041.4,208.697 L 1041.26,208.876 L 1041.12,209.052 L 1040.97,209.231 L 1040.81,209.409 L 1040.64,209.588 L 1040.47,209.771 L 1040.29,209.953 L 1040.09,210.144 L 1040,210.232 L 1039.9,210.327 L 1039.81,210.427 L 1039.72,210.529 L 1039.64,210.632 L 1039.56,210.733 L 1039.49,210.844 L 1039.42,210.949 L 1039.36,211.051 L 1039.29,211.169 L 1039.24,211.285 L 1039.19,211.399 L 1039.15,211.516 L 1039.11,211.644 L 1039.08,211.763 L 1039.06,211.88 L 1039.04,212.003 L 1039.03,212.139 L 1039.02,212.265 L 1039.03,212.383 L 1039.03,212.499 L 1039.05,212.627 L 1039.07,212.752 L 1039.1,212.864 L 1039.14,212.988 L 1039.18,213.107 L 1039.23,213.216 L 1039.27,213.323 L 1039.33,213.423 L 1039.39,213.525 L 1039.45,213.631 L 1039.53,213.733 L 1039.66,213.904 L 1039.82,214.079 L 1039.99,214.241 L 1040.17,214.396 L 1040.35,214.543 L 1040.55,214.681 L 1040.75,214.815 L 1040.97,214.943 L 1041.19,215.063 L 1041.42,215.18 L 1041.67,215.295 L 1041.91,215.4 L 1042.16,215.504 L 1042.43,215.603 L 1042.7,215.697 L 1042.97,215.789 L 1043.26,215.877 L 1043.55,215.96 L 1043.84,216.039 L 1044.15,216.115 L 1044.46,216.185 L 1044.77,216.252 L 1045.09,216.316 L 1045.42,216.375 L 1045.75,216.431 L 1046.08,216.481 L 1046.42,216.528 L 1046.76,216.571 L 1047.11,216.611 L 1047.45,216.643 L 1047.81,216.673 L 1048.16,216.699 L 1048.51,216.719 L 1048.87,216.736 L 1049.24,216.747 L 1049.59,216.753 L 1049.96,216.757 L 1050.32,216.753 L 1050.69,216.745 L 1051.05,216.733 L 1051.41,216.716 L 1051.78,216.693 L 1052.14,216.665 L 1052.5,216.632 L 1052.86,216.595 L 1053.22,216.549 L 1053.58,216.5 L 1053.93,216.444 L 1054.26,216.387 L 1054.58,216.319 L 1054.89,216.243 L 1055.2,216.16 L 1055.5,216.067 L 1055.79,215.969 L 1056.08,215.863 L 1056.36,215.748 L 1056.63,215.627 L 1056.9,215.5 L 1057.16,215.367 L 1057.41,215.228 L 1057.66,215.081 L 1057.91,214.929 L 1058.14,214.775 L 1058.37,214.612 L 1058.6,214.448 L 1058.82,214.279 L 1059.04,214.104 L 1059.25,213.925 L 1059.45,213.744 L 1059.69,213.531 L 1059.85,213.34 Z "/>
				</g>
			</g>
		</g>
		<path id="dp_path120" fill="#06cd00" fill-rule="evenodd" fill-opacity="0.701961" stroke="#06cd00" stroke-width="0.666667" d="M 1051.29,203.935 L 1055.82,200.731 L 1056.92,207.265 L 1052.39,210.469 Z "/>
		<g id="dp_group121">
			<g id="dp_group122">
				<path id="dp_path123" fill="#00d920" fill-rule="evenodd" d="M 1048.68,192.836 L 1050.66,192.551 L 1054.62,191.983 L 1048.24,182.795 L 1044.72,193.405 Z "/>
				<path id="dp_path124" fill="#00d920" d="M 1053.27,210.737 L 1050.66,192.551 L 1048.68,192.836 L 1051.29,211.023 Z "/>
			</g>
		</g>
		<path id="dp_path125" fill="none" fill-rule="evenodd" stroke="#2217ff" stroke-width="0.666667" d="M 1031.87,196.656 L 1046.41,208.391"/>
		<text id="dp_text042" transform="matrix(1,0,0,1,1065.81,215.232)" xml:space="preserve" fill="#2217ff" font-family="Arial" font-size="11" font-weight="400" font-style="italic" x="0" y="0.00133333">C</text>
		<text id="dp_text043" transform="matrix(1,0,0,1,1065.81,215.232)" xml:space="preserve" fill="#2217ff" font-family="Times New Roman" font-size="11" font-weight="400" font-style="italic" x="7.708" y="0.00133333"> </text>
		<text id="dp_text044" transform="matrix(1,0,0,1,1023.71,196.532)" xml:space="preserve" fill="#2217ff" font-family="Arial" font-size="11" font-weight="400" font-style="italic" x="0" y="0.00133333">A</text>
		<text id="dp_text045" transform="matrix(1,0,0,1,1023.71,196.532)" xml:space="preserve" fill="#2217ff" font-family="Times New Roman" font-size="11" font-weight="400" x="7.11067" y="0.00133333"> </text>
		<g id="dp_group130">
			<text id="dp_text046" transform="matrix(1,0,0,1,1053.27,184.858)" xml:space="preserve" fill="#00d920" font-family="Arial" font-size="11" font-weight="700" x="0" y="0">n</text>
			<text id="dp_text047" transform="matrix(1,0,0,1,1053.27,184.858)" xml:space="preserve" fill="#00d920" font-family="Times New Roman" font-size="11" font-weight="700" x="6.51467" y="0"> </text>
			<path id="dp_path133" fill="#00d920" fill-rule="evenodd" d="M 1053.81,178.099 L 1055.94,175.801 L 1057.2,175.801 L 1059.28,178.099 L 1057.67,178.099 L 1056.55,176.693 L 1055.43,178.099 Z "/>
		</g>
		<g id="dp_group134">
			<g id="dp_group135">
				<path id="dp_path136" fill="#2217ff" fill-rule="evenodd" fill-opacity="0.666667" d="M 1058.54,266.609 C 1056.54,268.087 1055.73,271.423 1052.44,271.975 C 1048.77,272.589 1044,271.295 1045.79,269.584 C 1048.08,267.389 1047.13,265.447 1050.48,263.745 C 1053.77,262.069 1060.53,265.091 1058.61,266.504"/>
				<g id="dp_group137">
					<g id="dp_group138">
						<path id="dp_path139" fill="#2217ff" fill-rule="evenodd" d="M 1049.58,271.168 L 1050.66,272.852 L 1052.82,276.219 L 1058.54,266.609 L 1047.42,267.803 Z "/>
						<path id="dp_path140" fill="#2217ff" d="M 1049.58,271.168 L 1049.41,271.277 L 1049.95,272.12 L 1050.01,271.121 L 1049.66,271.104 L 1049.34,271.079 L 1049.03,271.045 L 1048.72,271.003 L 1048.42,270.956 L 1048.14,270.9 L 1047.87,270.84 L 1047.61,270.772 L 1047.37,270.701 L 1047.15,270.623 L 1047.05,270.587 L 1046.96,270.547 L 1046.86,270.507 L 1046.78,270.467 L 1046.7,270.428 L 1046.64,270.392 L 1046.58,270.353 L 1046.52,270.313 L 1046.47,270.284 L 1046.44,270.253 L 1046.4,270.224 L 1046.39,270.208 L 1046.37,270.195 L 1046.37,270.183 L 1046.37,270.183 L 1046.37,270.192 L 1046.38,270.212 L 1046.39,270.237 L 1046.39,270.265 L 1046.4,270.304 L 1046.4,270.339 L 1046.39,270.369 L 1046.39,270.401 L 1046.38,270.412 L 1046.38,270.419 L 1046.38,270.415 L 1046.39,270.396 L 1046.41,270.38 L 1046.43,270.348 L 1046.49,270.292 L 1046.59,270.191 L 1046.71,270.069 L 1046.93,269.839 L 1047.13,269.605 L 1047.31,269.375 L 1047.47,269.143 L 1047.63,268.915 L 1047.76,268.689 L 1047.89,268.471 L 1048.01,268.252 L 1048.11,268.04 L 1048.21,267.837 L 1048.31,267.639 L 1048.47,267.264 L 1048.64,266.913 L 1048.72,266.748 L 1048.8,266.589 L 1048.89,266.44 L 1048.97,266.293 L 1049.07,266.153 L 1049.17,266.013 L 1049.27,265.876 L 1049.39,265.741 L 1049.53,265.603 L 1049.59,265.543 L 1049.66,265.473 L 1049.75,265.403 L 1049.83,265.333 L 1049.91,265.267 L 1050,265.199 L 1050.09,265.131 L 1050.2,265.06 L 1050.31,264.988 L 1050.41,264.921 L 1050.54,264.851 L 1050.66,264.779 L 1050.79,264.708 L 1050.92,264.64 L 1051.04,264.581 L 1051.16,264.529 L 1051.29,264.484 L 1051.42,264.441 L 1051.56,264.403 L 1051.7,264.368 L 1051.84,264.339 L 1052,264.313 L 1052.16,264.292 L 1052.32,264.276 L 1052.48,264.263 L 1052.65,264.255 L 1052.82,264.252 L 1052.99,264.252 L 1053.16,264.259 L 1053.34,264.268 L 1053.52,264.281 L 1053.7,264.299 L 1053.88,264.32 L 1054.06,264.345 L 1054.24,264.373 L 1054.42,264.408 L 1054.6,264.444 L 1054.78,264.483 L 1054.96,264.527 L 1055.13,264.571 L 1055.31,264.619 L 1055.48,264.671 L 1055.65,264.723 L 1055.81,264.78 L 1055.98,264.839 L 1056.14,264.899 L 1056.29,264.96 L 1056.44,265.023 L 1056.59,265.087 L 1056.73,265.152 L 1056.86,265.221 L 1056.99,265.288 L 1057.12,265.357 L 1057.24,265.427 L 1057.34,265.492 L 1057.44,265.557 L 1057.54,265.625 L 1057.62,265.688 L 1057.7,265.749 L 1057.77,265.811 L 1057.83,265.865 L 1057.87,265.915 L 1057.91,265.956 L 1057.94,265.993 L 1057.95,266.019 L 1057.96,266.029 L 1057.96,266.029 L 1057.96,266.02 L 1057.95,265.991 L 1057.95,265.951 L 1057.95,265.899 L 1057.96,265.837 L 1057.98,265.78 L 1058,265.735 L 1058.01,265.709 L 1058.03,265.692 L 1058.03,265.689 L 1057.98,265.727 L 1059.24,267.281 L 1059.36,267.183 L 1059.51,267.041 L 1059.64,266.88 L 1059.75,266.708 L 1059.84,266.513 L 1059.91,266.301 L 1059.94,266.083 L 1059.95,265.871 L 1059.93,265.668 L 1059.88,265.476 L 1059.82,265.301 L 1059.75,265.133 L 1059.66,264.973 L 1059.56,264.831 L 1059.46,264.697 L 1059.35,264.568 L 1059.23,264.447 L 1059.11,264.331 L 1058.99,264.221 L 1058.85,264.112 L 1058.71,264.007 L 1058.57,263.907 L 1058.42,263.807 L 1058.26,263.709 L 1058.1,263.619 L 1057.94,263.528 L 1057.77,263.44 L 1057.6,263.355 L 1057.42,263.271 L 1057.23,263.188 L 1057.05,263.109 L 1056.86,263.035 L 1056.66,262.961 L 1056.47,262.892 L 1056.27,262.824 L 1056.06,262.759 L 1055.86,262.699 L 1055.65,262.64 L 1055.44,262.585 L 1055.23,262.536 L 1055.01,262.487 L 1054.79,262.445 L 1054.58,262.405 L 1054.36,262.369 L 1054.14,262.339 L 1053.91,262.312 L 1053.69,262.289 L 1053.47,262.273 L 1053.25,262.261 L 1053.03,262.255 L 1052.8,262.252 L 1052.58,262.257 L 1052.36,262.268 L 1052.14,262.284 L 1051.92,262.308 L 1051.7,262.337 L 1051.49,262.373 L 1051.27,262.416 L 1051.05,262.469 L 1050.84,262.527 L 1050.63,262.596 L 1050.43,262.673 L 1050.22,262.76 L 1050.03,262.851 L 1049.85,262.943 L 1049.69,263.032 L 1049.53,263.123 L 1049.38,263.212 L 1049.23,263.308 L 1049.09,263.401 L 1048.95,263.493 L 1048.81,263.591 L 1048.69,263.688 L 1048.56,263.787 L 1048.44,263.885 L 1048.33,263.983 L 1048.23,264.081 L 1048.11,264.189 L 1047.92,264.392 L 1047.74,264.601 L 1047.57,264.811 L 1047.42,265.017 L 1047.28,265.229 L 1047.16,265.437 L 1047.04,265.645 L 1046.94,265.849 L 1046.84,266.047 L 1046.66,266.429 L 1046.49,266.804 L 1046.41,266.981 L 1046.32,267.16 L 1046.23,267.332 L 1046.14,267.5 L 1046.05,267.671 L 1045.94,267.837 L 1045.83,268.004 L 1045.71,268.172 L 1045.58,268.341 L 1045.43,268.513 L 1045.27,268.688 L 1045.19,268.772 L 1045.08,268.876 L 1044.98,268.98 L 1044.87,269.105 L 1044.76,269.247 L 1044.67,269.385 L 1044.59,269.533 L 1044.52,269.695 L 1044.46,269.855 L 1044.42,270.036 L 1044.4,270.216 L 1044.4,270.395 L 1044.42,270.577 L 1044.45,270.747 L 1044.51,270.913 L 1044.57,271.069 L 1044.65,271.215 L 1044.74,271.348 L 1044.83,271.467 L 1044.94,271.584 L 1045.05,271.693 L 1045.15,271.787 L 1045.27,271.879 L 1045.39,271.967 L 1045.51,272.041 L 1045.63,272.117 L 1045.77,272.191 L 1045.9,272.259 L 1046.03,272.323 L 1046.17,272.384 L 1046.31,272.443 L 1046.46,272.5 L 1046.76,272.603 L 1047.07,272.697 L 1047.39,272.781 L 1047.73,272.857 L 1048.07,272.924 L 1048.43,272.981 L 1048.79,273.029 L 1049.16,273.068 L 1049.53,273.099 L 1050.22,273.135 L 1050.66,272.853 Z "/>
					</g>
				</g>
			</g>
			<g id="dp_group141">
				<g id="dp_group142">
					<path id="dp_path143" fill="#00d920" fill-rule="evenodd" d="M 1048.5,248.447 L 1050.48,248.161 L 1054.44,247.593 L 1048.06,238.405 L 1044.54,249.016 Z "/>
					<path id="dp_path144" fill="#00d920" d="M 1053.09,266.348 L 1050.48,248.161 L 1048.5,248.447 L 1051.11,266.633 Z "/>
				</g>
			</g>
			<path id="dp_path145" fill="none" fill-rule="evenodd" stroke="#2217ff" stroke-width="0.666667" d="M 1035.84,254.823 L 1050.38,266.557"/>
			<text id="dp_text048" transform="matrix(1,0,0,1,1057.81,276.232)" xml:space="preserve" fill="#2217ff" font-family="Arial" font-size="11" font-weight="400" font-style="italic" x="0" y="0.00133333">C</text>
			<text id="dp_text049" transform="matrix(1,0,0,1,1057.81,276.232)" xml:space="preserve" fill="#2217ff" font-family="Times New Roman" font-size="11" font-weight="400" font-style="italic" x="7.708" y="0.00133333"> </text>
			<text id="dp_text050" transform="matrix(1,0,0,1,1026.21,257.032)" xml:space="preserve" fill="#2217ff" font-family="Arial" font-size="11" font-weight="400" font-style="italic" x="0" y="0.00133333">A</text>
			<text id="dp_text051" transform="matrix(1,0,0,1,1026.21,257.032)" xml:space="preserve" fill="#2217ff" font-family="Times New Roman" font-size="11" font-weight="400" x="7.11067" y="0.00133333"> </text>
			<g id="dp_group150">
				<text id="dp_text052" transform="matrix(1,0,0,1,1055.27,246.358)" xml:space="preserve" fill="#00d920" font-family="Arial" font-size="11" font-weight="700" x="0" y="0">n</text>
				<text id="dp_text053" transform="matrix(1,0,0,1,1055.27,246.358)" xml:space="preserve" fill="#00d920" font-family="Times New Roman" font-size="11" font-weight="700" x="6.51467" y="0"> </text>
				<path id="dp_path153" fill="#00d920" fill-rule="evenodd" d="M 1055.81,239.599 L 1057.94,237.301 L 1059.2,237.301 L 1061.28,239.599 L 1059.67,239.599 L 1058.55,238.193 L 1057.43,239.599 Z "/>
			</g>
		</g>
		<g id="dp_group154">
			<g id="dp_group155">
				<path id="dp_path156" fill="black" fill-rule="evenodd" d="M 1013.67,263.835 L 1013,263.835 L 1011.67,263.835 L 1013.33,267.168 L 1015,263.835 Z "/>
				<path id="dp_path157" fill="black" d="M 1013.67,263.835 L 1013.67,134.501 L 1013,134.501 L 1013,263.835 Z "/>
			</g>
		</g>
		<g id="dp_group158">
			<text id="dp_text054" transform="matrix(1,0,0,1,1006.9,279.113)" xml:space="preserve" fill="black" font-family="Arial" font-size="11" font-weight="400" x="0" y="0.00133333">lim</text>
			<text id="dp_text055" transform="matrix(1,0,0,1,1006.9,279.113)" xml:space="preserve" fill="black" font-family="Times New Roman" font-size="11" font-weight="400" x="13.596" y="0.00133333"> </text>
			<text id="dp_text056" transform="matrix(1,0,0,1,1004.86,289.73)" xml:space="preserve" fill="black" font-family="Arial" font-size="8" font-weight="400" font-style="italic" x="0" y="0.00133333">A</text>
			<text id="dp_text057" transform="matrix(1,0,0,1,1004.86,289.73)" xml:space="preserve" fill="black" font-family="Times New Roman" font-size="8" font-weight="400" x="5.33333" y="0.00133333">    </text>
			<text id="dp_text058" transform="matrix(1,0,0,1,1004.86,289.73)" xml:space="preserve" fill="black" font-family="Arial" font-size="8" font-weight="400" x="13.3547" y="0.00133333">0</text>
			<text id="dp_text059" transform="matrix(1,0,0,1,1004.86,289.73)" xml:space="preserve" fill="black" font-family="Times New Roman" font-size="8" font-weight="400" x="17.8133" y="0.00133333"> </text>
			<path id="dp_path165" fill="black" fill-rule="evenodd" d="M 1015.93,286.312 C 1016.27,286.689 1016.58,286.976 1016.83,287.172 C 1017.09,287.369 1017.33,287.516 1017.55,287.612 L 1017.55,287.787 C 1017.29,287.912 1017.04,288.072 1016.8,288.265 C 1016.56,288.459 1016.27,288.744 1015.93,289.119 L 1015.63,289.119 C 1015.88,288.595 1016.13,288.193 1016.4,287.912 L 1010.17,287.912 L 1010.17,287.519 L 1016.4,287.519 C 1016.2,287.265 1016.06,287.079 1015.99,286.956 C 1015.91,286.833 1015.79,286.619 1015.64,286.312 Z "/>
		</g>
		<g id="dp_group166">
			<text id="dp_text060" transform="matrix(1,0,0,1,940.771,173.358)" xml:space="preserve" fill="#00d920" font-family="Arial" font-size="11" font-weight="700" x="0" y="0">n</text>
			<text id="dp_text061" transform="matrix(1,0,0,1,940.771,173.358)" xml:space="preserve" fill="#00d920" font-family="Times New Roman" font-size="11" font-weight="700" x="6.51467" y="0"> </text>
			<path id="dp_path169" fill="#00d920" fill-rule="evenodd" d="M 941.312,166.599 L 943.441,164.301 L 944.704,164.301 L 946.777,166.599 L 945.172,166.599 L 944.049,165.193 L 942.932,166.599 Z "/>
		</g>
		<path id="dp_path170" fill="black" fill-rule="evenodd" d="M 879.656,178.813 C 880.121,177.447 880.757,176.393 881.564,175.653 C 882.173,175.099 882.772,174.821 883.359,174.821 C 883.928,174.821 884.324,175.088 884.545,175.623 C 884.855,176.369 884.791,177.384 884.355,178.668 C 883.94,179.891 883.335,180.855 882.543,181.563 C 881.925,182.112 881.324,182.385 880.74,182.385 C 880.425,182.385 880.163,182.309 879.953,182.156 C 879.745,182.003 879.588,181.783 879.485,181.495 C 879.381,181.207 879.331,180.901 879.332,180.579 C 879.337,180.024 879.445,179.435 879.656,178.813 Z M 883.428,178.439 C 883.731,177.537 883.889,176.815 883.905,176.269 C 883.915,175.851 883.841,175.552 883.683,175.373 C 883.567,175.243 883.405,175.176 883.196,175.176 C 882.96,175.176 882.712,175.268 882.452,175.451 C 882.191,175.635 881.937,175.939 881.689,176.368 C 881.441,176.795 881.137,177.485 880.78,178.439 Z M 880.661,178.785 C 880.465,179.403 880.324,179.959 880.236,180.452 C 880.168,180.827 880.159,181.153 880.212,181.431 C 880.241,181.597 880.32,181.739 880.448,181.856 C 880.575,181.972 880.735,182.029 880.927,182.029 C 881.148,182.029 881.396,181.925 881.665,181.717 C 881.937,181.509 882.201,181.173 882.461,180.712 C 882.721,180.251 883.001,179.608 883.301,178.785 Z "/>
		<path id="dp_path171" fill="black" fill-rule="evenodd" d="M 977.856,233.613 C 978.321,232.247 978.957,231.193 979.764,230.453 C 980.373,229.899 980.972,229.621 981.559,229.621 C 982.128,229.621 982.524,229.888 982.745,230.423 C 983.055,231.169 982.991,232.184 982.555,233.468 C 982.14,234.691 981.535,235.655 980.743,236.363 C 980.125,236.912 979.524,237.185 978.94,237.185 C 978.625,237.185 978.363,237.109 978.153,236.956 C 977.945,236.803 977.788,236.583 977.685,236.295 C 977.581,236.007 977.531,235.701 977.532,235.379 C 977.537,234.824 977.645,234.235 977.856,233.613 Z M 981.628,233.239 C 981.931,232.337 982.089,231.615 982.105,231.069 C 982.115,230.651 982.041,230.352 981.883,230.173 C 981.767,230.043 981.605,229.976 981.396,229.976 C 981.16,229.976 980.912,230.068 980.652,230.251 C 980.391,230.435 980.137,230.739 979.889,231.168 C 979.641,231.595 979.337,232.285 978.98,233.239 Z M 978.861,233.585 C 978.665,234.203 978.524,234.759 978.436,235.252 C 978.368,235.627 978.359,235.953 978.412,236.231 C 978.441,236.397 978.52,236.539 978.648,236.656 C 978.775,236.772 978.935,236.829 979.127,236.829 C 979.348,236.829 979.596,236.725 979.865,236.517 C 980.137,236.309 980.401,235.973 980.661,235.512 C 980.921,235.051 981.201,234.408 981.501,233.585 Z "/>
	</g>
</svg>