<?xml version="1.0" encoding="UTF-8" standalone="no"?>
<!-- Created with Inkscape (http://www.inkscape.org/) -->
<svg xmlns:ns0="http://www.iki.fi/pav/software/textext/" xmlns:dc="http://purl.org/dc/elements/1.1/" xmlns:cc="http://creativecommons.org/ns#" xmlns:rdf="http://www.w3.org/1999/02/22-rdf-syntax-ns#" xmlns:svg="http://www.w3.org/2000/svg" xmlns="http://www.w3.org/2000/svg" xmlns:sodipodi="http://sodipodi.sourceforge.net/DTD/sodipodi-0.dtd" xmlns:inkscape="http://www.inkscape.org/namespaces/inkscape" width="482" height="323.32001" id="svg2" version="1.1" inkscape:version="0.47 r22583" sodipodi:docname="Deldcgtest1.svg">
  <sodipodi:namedview id="base" pagecolor="#ffffff" bordercolor="#666666" borderopacity="1.0" inkscape:pageopacity="0.0" inkscape:pageshadow="2" inkscape:zoom="1.8526537" inkscape:cx="241" inkscape:cy="161.66" inkscape:document-units="px" inkscape:current-layer="layer1" showgrid="true" inkscape:window-width="1440" inkscape:window-height="844" inkscape:window-x="-4" inkscape:window-y="-4" inkscape:window-maximized="1" inkscape:snap-global="false">
    <inkscape:grid snapvisiblegridlinesonly="true" enabled="true" visible="true" empspacing="5" id="grid2816" type="xygrid"/>
  </sodipodi:namedview>
  <defs id="defs4">
    <marker style="overflow:visible" id="Arrow1Lstart" refX="0.0" refY="0.0" orient="auto" inkscape:stockid="Arrow1Lstart">
      <path transform="scale(0.8) translate(12.5)" style="fill-rule:evenodd;stroke:#000000;stroke-width:1.0pt;marker-start:none" d="M 0.0,0.0 L 5.0,-5.0 L -12.5,0.0 L 5.0,5.0 L 0.0,0.0 z " id="path4121"/>
    </marker>
    <marker style="overflow:visible" id="Arrow1Lend" refX="0" refY="0" orient="auto" inkscape:stockid="Arrow1Lend">
      <path transform="matrix(-0.8, 0, 0, -0.8, -10, 0)" style="fill-rule:evenodd;stroke:#000000;stroke-width:1pt;marker-start:none" d="M 0,0 5,-5 -12.5,0 5,5 0,0 z" id="path4124"/>
    </marker>
    <inkscape:perspective id="perspective10" inkscape:persp3d-origin="372.04724 : 350.78739 : 1" inkscape:vp_z="744.09448 : 526.18109 : 1" inkscape:vp_y="0 : 1000 : 0" inkscape:vp_x="0 : 526.18109 : 1" sodipodi:type="inkscape:persp3d"/>
    <inkscape:perspective id="perspective3708" inkscape:persp3d-origin="0.5 : 0.33333333 : 1" inkscape:vp_z="1 : 0.5 : 1" inkscape:vp_y="0 : 1000 : 0" inkscape:vp_x="0 : 0.5 : 1" sodipodi:type="inkscape:persp3d"/>
    <inkscape:perspective sodipodi:type="inkscape:persp3d" inkscape:vp_x="0 : 0.5 : 1" inkscape:vp_y="0 : 1000 : 0" inkscape:vp_z="1 : 0.5 : 1" inkscape:persp3d-origin="0.5 : 0.33333333 : 1" id="perspective3773"/>
    <inkscape:perspective id="perspective3847" inkscape:persp3d-origin="0.5 : 0.33333333 : 1" inkscape:vp_z="1 : 0.5 : 1" inkscape:vp_y="0 : 1000 : 0" inkscape:vp_x="0 : 0.5 : 1" sodipodi:type="inkscape:persp3d"/>
    <marker style="overflow:visible" id="Arrow1Lendx" refX="0" refY="0" orient="auto" inkscape:stockid="Arrow1Lendx">
      <path transform="matrix(-0.8, 0, 0, -0.8, -10, 0)" style="fill:#000000;fill-rule:evenodd;stroke:#000000;stroke-width:1pt;marker-start:none" d="M 0,0 5,-5 -12.5,0 5,5 0,0 z" id="path4577"/>
    </marker>
    <marker style="overflow:visible" id="Arrow1LendxH" refX="0" refY="0" orient="auto" inkscape:stockid="Arrow1LendxH">
      <path transform="matrix(-0.8, 0, 0, -0.8, -10, 0)" style="fill:#001eff;fill-rule:evenodd;stroke:#001eff;stroke-width:1pt;marker-start:none" d="M 0,0 5,-5 -12.5,0 5,5 0,0 z" id="path4652"/>
    </marker>
    <marker style="overflow:visible" id="Arrow1Lstartr" refX="0.0" refY="0.0" orient="auto" inkscape:stockid="Arrow1Lstartr">
      <path transform="scale(0.8) translate(12.5)" style="marker-start:none;stroke:#000000;stroke-width:1.0pt;fill:#000000;fill-rule:evenodd" d="M 0.0,0.0 L 5.0,-5.0 L -12.5,0.0 L 5.0,5.0 L 0.0,0.0 z " id="path5516"/>
    </marker>
    <marker style="overflow:visible" id="Arrow1Lstartr9" refX="0.0" refY="0.0" orient="auto" inkscape:stockid="Arrow1Lstartr9">
      <path transform="scale(0.8) translate(12.5)" style="fill-rule:evenodd;marker-start:none;stroke:#000000;stroke-width:1.0pt;fill:#000000" d="M 0.0,0.0 L 5.0,-5.0 L -12.5,0.0 L 5.0,5.0 L 0.0,0.0 z " id="path5603"/>
    </marker>
    <marker style="overflow:visible" id="Arrow1Lstartj" refX="0.0" refY="0.0" orient="auto" inkscape:stockid="Arrow1Lstartj">
      <path transform="scale(0.8) translate(12.5)" style="marker-start:none;stroke:#000000;stroke-width:1.0pt;fill:#000000;fill-rule:evenodd" d="M 0.0,0.0 L 5.0,-5.0 L -12.5,0.0 L 5.0,5.0 L 0.0,0.0 z " id="path6086"/>
    </marker>
    <marker style="overflow:visible" id="Arrow1LstartjM" refX="0.0" refY="0.0" orient="auto" inkscape:stockid="Arrow1LstartjM">
      <path transform="scale(0.8) translate(12.5)" style="fill-rule:evenodd;marker-start:none;stroke:#0749ff;stroke-width:1.0pt;fill:#0749ff" d="M 0.0,0.0 L 5.0,-5.0 L -12.5,0.0 L 5.0,5.0 L 0.0,0.0 z " id="path6181"/>
    </marker>
    <inkscape:perspective sodipodi:type="inkscape:persp3d" inkscape:vp_x="0 : 0.5 : 1" inkscape:vp_y="0 : 1000 : 0" inkscape:vp_z="1 : 0.5 : 1" inkscape:persp3d-origin="0.5 : 0.33333333 : 1" id="perspective6263"/>
  </defs>
  <metadata id="metadata7">
    <rdf:RDF>
      <cc:Work rdf:about="">
        <dc:format>image/svg+xml</dc:format>
        <dc:type rdf:resource="http://purl.org/dc/dcmitype/StillImage"/>
        <dc:title/>
      </cc:Work>
    </rdf:RDF>
  </metadata>
  <g transform="translate(-159, -289.322)" id="layer1" inkscape:groupmode="layer" inkscape:label="Layer 1">
    <path sodipodi:type="arc" style="fill:none;stroke:#001eff;stroke-width:2;stroke-miterlimit:4;stroke-opacity:1;stroke-dasharray:none;stroke-dashoffset:0" id="path3592" sodipodi:cx="200" sodipodi:cy="432.36218" sodipodi:rx="40" sodipodi:ry="40" d="m 240,432.36218 c 0,22.09139 -17.90861,40 -40,40 -22.09139,0 -40,-17.90861 -40,-40 0,-22.09139 17.90861,-40 40,-40 22.03887,0 39.92565,17.82673 39.99977,39.86547" sodipodi:start="0" sodipodi:end="6.2798221" sodipodi:open="true" transform="translate(200, 12.58)"/>
    <path transform="matrix(1, 0, 0, 1.25, 0, -120.511)" sodipodi:open="true" sodipodi:end="6.2798221" sodipodi:start="0" d="m 600,452.36218 c 0,44.18278 -89.54305,80 -200,80 -110.45695,0 -200,-35.81722 -200,-80 0,-44.18278 89.54305,-80 200,-80 110.19436,0 199.62826,35.65345 199.99887,79.73095" sodipodi:ry="80" sodipodi:rx="200" sodipodi:cy="452.36218" sodipodi:cx="400" id="path3596" style="fill:none;stroke:#001eff;stroke-width:0.89442718;stroke-miterlimit:4;stroke-opacity:1;stroke-dasharray:none;stroke-dashoffset:0" sodipodi:type="arc"/>
    <path transform="translate(400, 12.58)" sodipodi:open="true" sodipodi:end="6.2798221" sodipodi:start="0" d="m 240,432.36218 c 0,22.09139 -17.90861,40 -40,40 -22.09139,0 -40,-17.90861 -40,-40 0,-22.09139 17.90861,-40 40,-40 22.03887,0 39.92565,17.82673 39.99977,39.86547" sodipodi:ry="40" sodipodi:rx="40" sodipodi:cy="432.36218" sodipodi:cx="200" id="path3594" style="fill:#ffffff;fill-opacity:1;stroke:#ff0000;stroke-width:2;stroke-miterlimit:4;stroke-opacity:1;stroke-dasharray:16, 16;stroke-dashoffset:0;marker-start:none;marker-mid:none" sodipodi:type="arc"/>
    <path transform="translate(0, 12.58)" sodipodi:open="true" sodipodi:end="6.2798221" sodipodi:start="0" d="m 240,432.36218 c 0,22.09139 -17.90861,40 -40,40 -22.09139,0 -40,-17.90861 -40,-40 0,-22.09139 17.90861,-40 40,-40 22.03887,0 39.92565,17.82673 39.99977,39.86547" sodipodi:ry="40" sodipodi:rx="40" sodipodi:cy="432.36218" sodipodi:cx="200" id="path2818" style="fill:#ffffff;fill-opacity:1;stroke:#ff0000;stroke-width:2;stroke-miterlimit:4;stroke-opacity:1;stroke-dasharray:16, 16;stroke-dashoffset:0" sodipodi:type="arc"/>
    <g id="g3609" ns0:preamble="" ns0:text="$D$" style="font-style:normal;font-variant:normal;font-weight:normal;font-stretch:normal;letter-spacing:normal;word-spacing:normal;text-anchor:start;fill:none;stroke:#000000;stroke-linecap:butt;stroke-linejoin:miter;stroke-miterlimit:10.43299961;stroke-opacity:1;stroke-dasharray:none;stroke-dashoffset:0" xml:space="preserve" transform="matrix(4, 0, 0, -4, -711.64, 3287.04)">
<path id="path3611" style="fill:#000000;stroke-width:0" d="m 225.02,707.9 -0.01,-0.04 -0.01,-0.03 -0.01,-0.03 -0.01,-0.03 -0.01,-0.03 -0.01,-0.03 -0.01,-0.02 -0.01,-0.03 -0.01,-0.02 -0.01,-0.02 -0.01,-0.02 -0.02,-0.02 -0.01,-0.02 -0.02,-0.01 -0.02,-0.02 -0.02,-0.01 -0.02,-0.01 -0.03,-0.01 -0.02,-0.01 -0.03,-0.01 -0.04,-0.01 -0.01,-0.01 -0.02,0 -0.02,0 -0.02,0 -0.02,-0.01 -0.02,0 -0.02,0 -0.02,-0.01 -0.03,0 -0.02,0 -0.03,0 -0.02,0 -0.03,0 -0.03,0 -0.03,-0.01 -0.03,0 -0.03,0 -0.03,0 -0.03,0 -0.04,0 -0.03,0 -0.04,0 c -0.17,0 -0.28,0 -0.28,-0.19 0,-0.12 0.09,-0.12 0.28,-0.12 h 3.3 l -0.18,0.31 h -1.13 c -0.14,0 -0.16,0 -0.22,0.01 -0.1,0.01 -0.13,0.02 -0.13,0.1 0,0.03 0,0.05 0.05,0.23 l 1.37,5.47 c 0.09,0.35 0.11,0.38 0.54,0.38 h 1.06 c 0.98,0 1.81,-0.53 1.81,-1.84 0,-0.49 -0.2,-2.13 -1.05,-3.22 -0.29,-0.37 -1.08,-1.13 -2.3,-1.13 l 0.18,-0.31 c 2.07,0 4.03,2.1 4.03,4.29 0,1.4 -0.84,2.52 -2.34,2.52 h -3.35 c -0.19,0 -0.29,0 -0.29,-0.19 0,-0.12 0.08,-0.12 0.28,-0.12 0.13,0 0.31,-0.01 0.43,-0.02 0.16,-0.02 0.22,-0.05 0.22,-0.16 0,-0.04 -0.01,-0.07 -0.04,-0.19 z"/>
</g>    <g transform="matrix(4, 0, 0, -4, -508.84, 3287.04)" xml:space="preserve" style="font-style:normal;font-variant:normal;font-weight:normal;font-stretch:normal;letter-spacing:normal;word-spacing:normal;text-anchor:start;fill:none;stroke:#000000;stroke-linecap:butt;stroke-linejoin:miter;stroke-miterlimit:10.43299961;stroke-opacity:1;stroke-dasharray:none;stroke-dashoffset:0" ns0:text="$C$" ns0:preamble="" id="g3647">
<path d="m 231,714.05 0,0 0,0 0,0.01 0,0 0,0 0,0.01 0,0 0,0 0,0.01 0,0 -0.01,0.01 0,0 0,0.01 0,0 0,0 -0.01,0.01 0,0 0,0.01 -0.01,0 0,0 -0.01,0.01 0,0 -0.01,0 0,0 -0.01,0.01 0,0 0,0 -0.01,0 0,0 0,0 -0.01,0 0,0 0,0 -0.01,0 0,0.01 0,0 -0.01,0 0,0 -0.01,0 c -0.02,0 -0.04,-0.01 -0.15,-0.12 l -0.69,-0.77 c -0.09,0.14 -0.55,0.89 -1.66,0.89 -2.22,0 -4.46,-2.21 -4.46,-4.52 0,-1.64 1.18,-2.73 2.7,-2.73 0.87,0 1.62,0.4 2.15,0.86 0.93,0.82 1.1,1.72 1.1,1.75 0,0.1 -0.1,0.1 -0.12,0.1 -0.06,0 -0.11,-0.02 -0.13,-0.1 -0.09,-0.29 -0.32,-0.99 -1.01,-1.57 -0.68,-0.56 -1.31,-0.73 -1.83,-0.73 -0.9,0 -1.95,0.52 -1.95,2.07 0,0.57 0.21,2.19 1.2,3.35 0.61,0.71 1.55,1.21 2.43,1.21 1.02,0 1.61,-0.77 1.61,-1.93 0,-0.39 -0.03,-0.4 -0.03,-0.5 0,-0.1 0.11,-0.1 0.15,-0.1 0.13,0 0.13,0.02 0.18,0.2 z" style="fill:#000000;stroke-width:0" id="path3649"/>
</g>    <g id="g3681" ns0:preamble="" ns0:text="$G$" style="font-style:normal;font-variant:normal;font-weight:normal;font-stretch:normal;letter-spacing:normal;word-spacing:normal;text-anchor:start;fill:none;stroke:#000000;stroke-linecap:butt;stroke-linejoin:miter;stroke-miterlimit:10.43299961;stroke-opacity:1;stroke-dasharray:none;stroke-dashoffset:0" xml:space="preserve" transform="matrix(4, 0, 0, -4, -309.64, 3287.04)">
<path id="path3683" style="fill:#000000;stroke-width:0" d="m 231,714.05 0,0 0,0 0,0.01 0,0 0,0 0,0.01 0,0 0,0 0,0.01 0,0 -0.01,0.01 0,0 0,0.01 0,0 0,0 -0.01,0.01 0,0 0,0.01 -0.01,0 0,0 -0.01,0.01 0,0 -0.01,0 0,0 -0.01,0.01 0,0 0,0 -0.01,0 0,0 0,0 -0.01,0 0,0 0,0 -0.01,0 0,0.01 0,0 -0.01,0 0,0 -0.01,0 c -0.02,0 -0.04,-0.01 -0.15,-0.12 l -0.69,-0.77 c -0.09,0.14 -0.55,0.89 -1.66,0.89 -2.22,0 -4.46,-2.21 -4.46,-4.52 0,-1.58 1.11,-2.73 2.72,-2.73 0.44,0 0.89,0.09 1.25,0.24 0.49,0.2 0.68,0.41 0.86,0.61 0.09,-0.25 0.35,-0.62 0.45,-0.62 0.05,0 0.07,0.03 0.07,0.04 0.02,0.02 0.12,0.4 0.17,0.61 l 0.19,0.77 c 0.04,0.17 0.09,0.34 0.13,0.5 0.11,0.45 0.12,0.47 0.69,0.48 0.05,0 0.16,0.01 0.16,0.2 0,0.07 -0.05,0.11 -0.13,0.11 -0.23,0 -0.82,-0.03 -1.05,-0.03 -0.31,0 -1.09,0.03 -1.4,0.03 -0.08,0 -0.2,0 -0.2,-0.2 0,-0.11 0.08,-0.11 0.29,-0.11 0.02,0 0.3,0 0.53,-0.02 0.26,-0.03 0.31,-0.06 0.31,-0.19 0,-0.09 -0.11,-0.53 -0.21,-0.9 -0.28,-1.1 -1.57,-1.21 -1.92,-1.21 -0.96,0 -2,0.57 -2,2.09 0,0.31 0.1,1.96 1.14,3.25 0.54,0.68 1.51,1.29 2.49,1.29 1.02,0 1.61,-0.77 1.61,-1.93 0,-0.39 -0.03,-0.4 -0.03,-0.5 0,-0.1 0.11,-0.1 0.15,-0.1 0.13,0 0.13,0.02 0.18,0.2 z"/>
</g>    <path id="path3930" d="m 240,444.36218 120,0" style="fill:none;stroke:#001eff;stroke-width:1px;stroke-linecap:butt;stroke-linejoin:miter;stroke-opacity:1"/>
    <path style="fill:none;stroke:#001eff;stroke-width:1;stroke-linecap:butt;stroke-linejoin:miter;stroke-miterlimit:4;stroke-opacity:1;stroke-dasharray:none" d="m 440.18701,444.36218 117.82206,0" id="path3932"/>
    <path id="path3934" d="m 394.98545,344.79699 c 17.65839,0.37879 17.65839,0.37879 17.65839,0.37879" style="fill:none;stroke:#001eff;stroke-width:1.63328195;stroke-linecap:butt;stroke-linejoin:miter;stroke-miterlimit:4;stroke-opacity:1;stroke-dasharray:none;marker-start:none;marker-end:url(#Arrow1LendxH)"/>
    <path style="fill:none;stroke:#001eff;stroke-width:1.61457968;stroke-linecap:butt;stroke-linejoin:miter;stroke-miterlimit:4;stroke-opacity:1;stroke-dasharray:none;marker-start:none;marker-end:url(#Arrow1LendxH)" d="m 490.55907,444.1182 c 17.23623,0.25574 17.23623,0.25574 17.23623,0.25574" id="path4731"/>
    <path id="path4733" d="m 296.3399,444.13416 c 17.44891,0.21775 17.44891,0.21775 17.44891,0.21775" style="fill:none;stroke:#001eff;stroke-width:1.62396145;stroke-linecap:butt;stroke-linejoin:miter;stroke-miterlimit:4;stroke-opacity:1;stroke-dasharray:none;marker-start:none;marker-end:url(#Arrow1LendxH)"/>
    <path id="path5869" d="m 389.00301,544.63165 3.77837,0" style="fill:none;stroke:#0749ff;stroke-width:1.63300002;stroke-linecap:butt;stroke-linejoin:miter;stroke-miterlimit:4;stroke-opacity:1;stroke-dasharray:none;marker-start:url(#Arrow1LstartjM)"/>
    <g id="g6330" ns0:preamble="" ns0:text="$0$" style="font-style:normal;font-variant:normal;font-weight:normal;font-stretch:normal;letter-spacing:normal;word-spacing:normal;text-anchor:start;fill:none;stroke:#000000;stroke-linecap:butt;stroke-linejoin:miter;stroke-miterlimit:10.43299961;stroke-opacity:1;stroke-dasharray:none;stroke-dashoffset:0" xml:space="preserve" transform="matrix(4, 0, 0, -4, -603.282, 3258.27)">
<path id="path6332" style="fill:#000000;stroke-width:0" d="m 228.01,710.31 0,0.15 0,0.15 0,0.15 -0.01,0.15 -0.01,0.15 -0.01,0.14 -0.01,0.15 -0.02,0.15 -0.03,0.15 -0.02,0.14 -0.04,0.15 -0.03,0.14 -0.05,0.14 -0.05,0.14 -0.05,0.14 -0.03,0.07 -0.03,0.07 c -0.46,0.96 -1.28,1.12 -1.7,1.12 -0.6,0 -1.32,-0.26 -1.73,-1.19 -0.32,-0.68 -0.37,-1.46 -0.37,-2.26 0,-0.75 0.04,-1.64 0.45,-2.4 0.43,-0.81 1.16,-1.01 1.64,-1.01 v 0.22 c -0.39,0 -0.97,0.25 -1.15,1.21 -0.11,0.6 -0.11,1.51 -0.11,2.1 0,0.64 0,1.29 0.08,1.83 0.19,1.19 0.93,1.28 1.18,1.28 0.33,0 0.99,-0.18 1.18,-1.17 0.1,-0.55 0.1,-1.31 0.1,-1.94 0,-0.75 0,-1.42 -0.11,-2.06 -0.15,-0.95 -0.72,-1.25 -1.17,-1.25 h 0 v -0.22 c 0.54,0 1.3,0.21 1.74,1.16 0.31,0.69 0.36,1.46 0.36,2.25 z"/>
</g>    <g transform="matrix(4, 0, 0, -4, -407.282, 3258.27)" xml:space="preserve" style="font-style:normal;font-variant:normal;font-weight:normal;font-stretch:normal;letter-spacing:normal;word-spacing:normal;text-anchor:start;fill:none;stroke:#000000;stroke-linecap:butt;stroke-linejoin:miter;stroke-miterlimit:10.43299961;stroke-opacity:1;stroke-dasharray:none;stroke-dashoffset:0" ns0:text="$0$" ns0:preamble="" id="g6384">
<path d="m 228.01,710.31 0,0.15 0,0.15 0,0.15 -0.01,0.15 -0.01,0.15 -0.01,0.14 -0.01,0.15 -0.02,0.15 -0.03,0.15 -0.02,0.14 -0.04,0.15 -0.03,0.14 -0.05,0.14 -0.05,0.14 -0.05,0.14 -0.03,0.07 -0.03,0.07 c -0.46,0.96 -1.28,1.12 -1.7,1.12 -0.6,0 -1.32,-0.26 -1.73,-1.19 -0.32,-0.68 -0.37,-1.46 -0.37,-2.26 0,-0.75 0.04,-1.64 0.45,-2.4 0.43,-0.81 1.16,-1.01 1.64,-1.01 v 0.22 c -0.39,0 -0.97,0.25 -1.15,1.21 -0.11,0.6 -0.11,1.51 -0.11,2.1 0,0.64 0,1.29 0.08,1.83 0.19,1.19 0.93,1.28 1.18,1.28 0.33,0 0.99,-0.18 1.18,-1.17 0.1,-0.55 0.1,-1.31 0.1,-1.94 0,-0.75 0,-1.42 -0.11,-2.06 -0.15,-0.95 -0.72,-1.25 -1.17,-1.25 h 0 v -0.22 c 0.54,0 1.3,0.21 1.74,1.16 0.31,0.69 0.36,1.46 0.36,2.25 z" style="fill:#000000;stroke-width:0" id="path6386"/>
</g>    <g transform="matrix(4, 0, 0, -4, -550.3, 3145.04)" xml:space="preserve" style="font-style:normal;font-variant:normal;font-weight:normal;font-stretch:normal;letter-spacing:normal;word-spacing:normal;text-anchor:start;fill:none;stroke:#000000;stroke-linecap:butt;stroke-linejoin:miter;stroke-miterlimit:10.43299961;stroke-opacity:1;stroke-dasharray:none;stroke-dashoffset:0" ns0:text="$L_{scalar}$" ns0:preamble="" id="g2912">
<path d="m 227.16,713.15 0.01,0.03 0.01,0.03 0,0.03 0.01,0.03 0.01,0.03 0.01,0.03 0.01,0.02 0.01,0.02 0.01,0.03 0.01,0.02 0.02,0.02 0.02,0.02 0.01,0.01 0.02,0.02 0.02,0.01 0.03,0.02 0.03,0.01 0.03,0.01 0.03,0.01 0.03,0.01 0.02,0.01 0.02,0 0.02,0.01 0.02,0 0.03,0.01 0.02,0 0.02,0 0.03,0.01 0.02,0 0.03,0 0.03,0 0.03,0.01 0.03,0 0.03,0 0.03,0 0.03,0 0.04,0 0.03,0 0.04,0.01 0.04,0 0.04,0 0.04,0 0.04,0 0.04,0 c 0.3,0 0.38,0 0.38,0.19 0,0.12 -0.11,0.12 -0.16,0.12 -0.33,0 -1.14,-0.03 -1.47,-0.03 -0.3,0 -1.03,0.03 -1.33,0.03 -0.07,0 -0.18,0 -0.18,-0.2 0,-0.11 0.09,-0.11 0.27,-0.11 0.02,0 0.21,0 0.38,-0.02 0.18,-0.02 0.27,-0.03 0.27,-0.16 0,-0.04 -0.01,-0.07 -0.04,-0.19 L 225,707.9 c -0.1,-0.39 -0.12,-0.47 -0.91,-0.47 -0.17,0 -0.27,0 -0.27,-0.2 0,-0.11 0.09,-0.11 0.27,-0.11 h 4.61 c 0.24,0 0.25,0 0.31,0.17 l 0.79,2.15 c 0.04,0.11 0.04,0.13 0.04,0.14 0,0.04 -0.03,0.11 -0.12,0.11 -0.09,0 -0.1,-0.05 -0.17,-0.21 -0.34,-0.91 -0.78,-2.05 -2.5,-2.05 h -0.94 c -0.14,0 -0.16,0 -0.22,0.01 -0.1,0.01 -0.13,0.02 -0.13,0.1 0,0.03 0,0.05 0.05,0.23 z" style="fill:#000000;stroke-width:0" id="path2914"/>
<path d="m 233.22,708.25 -0.02,0 -0.02,-0.01 -0.01,0 -0.02,-0.01 -0.01,0 -0.02,-0.01 -0.01,-0.01 -0.01,-0.01 -0.02,-0.01 -0.01,0 -0.01,-0.01 -0.01,-0.01 -0.02,-0.01 -0.01,-0.01 -0.01,-0.01 -0.01,-0.02 -0.01,-0.01 0,-0.01 -0.01,-0.01 -0.01,-0.01 -0.01,-0.01 0,-0.02 -0.01,-0.01 0,-0.01 -0.01,-0.01 0,-0.02 -0.01,-0.01 0,-0.01 0,-0.02 0,-0.01 0,-0.01 0,-0.02 c 0,-0.16 0.14,-0.22 0.22,-0.22 0.08,0 0.34,0.04 0.34,0.4 0,0.45 -0.5,0.61 -0.93,0.61 -1.08,0 -1.28,-0.81 -1.28,-1.02 0,-0.26 0.15,-0.43 0.24,-0.51 0.19,-0.14 0.31,-0.17 0.79,-0.25 0.15,-0.03 0.59,-0.11 0.59,-0.46 0,-0.12 -0.07,-0.39 -0.36,-0.56 -0.28,-0.15 -0.62,-0.15 -0.7,-0.15 -0.28,0 -0.68,0.06 -0.84,0.29 0.23,0.03 0.38,0.2 0.38,0.4 0,0.17 -0.12,0.25 -0.27,0.25 -0.2,0 -0.4,-0.16 -0.4,-0.46 0,-0.42 0.44,-0.68 1.12,-0.68 1.28,0 1.52,0.88 1.52,1.15 0,0.64 -0.7,0.77 -0.96,0.82 -0.06,0.01 -0.24,0.04 -0.28,0.05 -0.26,0.05 -0.38,0.2 -0.38,0.35 0,0.16 0.12,0.35 0.28,0.45 0.18,0.12 0.43,0.13 0.55,0.13 0.14,0 0.51,-0.02 0.66,-0.26 z" style="fill:#000000;stroke-width:0" id="path2916"/>
<path d="m 237.02,708.3 -0.02,0 -0.02,-0.01 -0.02,0 -0.02,-0.01 -0.02,-0.01 -0.02,-0.01 -0.02,-0.01 -0.02,-0.01 -0.01,-0.01 -0.02,-0.01 -0.01,-0.01 -0.02,-0.01 -0.01,-0.01 -0.01,-0.02 -0.02,-0.01 -0.01,-0.01 -0.01,-0.02 -0.01,-0.01 -0.01,-0.02 0,-0.01 -0.01,-0.01 -0.01,-0.02 -0.01,-0.01 0,-0.02 -0.01,-0.02 0,-0.01 0,-0.02 -0.01,-0.01 0,-0.02 0,-0.01 0,-0.02 0,-0.01 c 0,-0.19 0.15,-0.26 0.27,-0.26 0.15,0 0.4,0.11 0.4,0.45 0,0.47 -0.55,0.61 -0.92,0.61 -1.05,0 -2.02,-0.97 -2.02,-1.94 0,-0.6 0.42,-1.21 1.29,-1.21 1.18,0 1.73,0.69 1.73,0.79 0,0.04 -0.06,0.12 -0.12,0.12 -0.04,0 -0.05,-0.02 -0.11,-0.07 -0.54,-0.64 -1.36,-0.64 -1.48,-0.64 -0.51,0 -0.73,0.34 -0.73,0.77 0,0.2 0.1,0.96 0.46,1.44 0.27,0.35 0.63,0.54 0.98,0.54 0.09,0 0.43,-0.01 0.6,-0.21 z" style="fill:#000000;stroke-width:0" id="path2918"/>
<path d="m 240.48,708.29 -0.02,0.03 -0.01,0.02 -0.02,0.02 -0.01,0.02 -0.02,0.02 -0.02,0.02 -0.01,0.02 -0.02,0.02 -0.02,0.01 -0.02,0.02 -0.02,0.02 -0.02,0.02 -0.02,0.01 -0.02,0.02 -0.02,0.01 -0.02,0.02 -0.03,0.01 -0.02,0.01 -0.02,0.01 -0.03,0.02 -0.02,0.01 -0.03,0.01 -0.02,0 -0.03,0.01 -0.03,0.01 -0.02,0.01 -0.03,0 -0.03,0.01 -0.03,0 -0.03,0 -0.03,0 -0.03,0.01 v -0.2 c 0.48,0 0.62,-0.53 0.62,-0.61 0,-0.02 -0.02,-0.07 -0.02,-0.09 l -0.33,-1.31 c -0.05,-0.19 -0.2,-0.33 -0.36,-0.47 -0.06,-0.05 -0.34,-0.27 -0.64,-0.27 -0.26,0 -0.51,0.18 -0.51,0.67 0,0.37 0.21,1.14 0.36,1.42 0.33,0.56 0.68,0.66 0.88,0.66 v 0.2 c -0.9,0 -1.8,-0.99 -1.8,-1.99 0,-0.68 0.45,-1.16 1.05,-1.16 0.38,0 0.71,0.22 0.99,0.49 0.13,-0.42 0.54,-0.49 0.72,-0.49 0.25,0 0.43,0.15 0.55,0.37 0.15,0.27 0.24,0.67 0.24,0.7 0,0.09 -0.09,0.09 -0.11,0.09 -0.1,0 -0.1,-0.03 -0.15,-0.22 -0.08,-0.33 -0.22,-0.74 -0.51,-0.74 -0.18,0 -0.23,0.15 -0.23,0.34 0,0.12 0.06,0.37 0.11,0.55 0.04,0.19 0.11,0.47 0.15,0.63 0.07,0.25 0.08,0.3 0.14,0.53 0.04,0.18 0.12,0.51 0.12,0.54 0,0.15 -0.12,0.22 -0.23,0.22 -0.12,0 -0.28,-0.08 -0.32,-0.28 z" style="fill:#000000;stroke-width:0" id="path2920"/>
<path d="m 243.82,710.26 0,0 0,0 0,0 0,0 0,0.01 0,0 0,0 0,0 0,0 0,0.01 0.01,0 0,0 0,0.01 0,0 0,0.01 0,0 0,0.01 0,0 0.01,0.01 0,0.01 0,0 0,0.01 0,0 0,0.01 0,0 0,0 0,0.01 0.01,0 0,0 0,0 0,0 0,0.01 0,0 0,0 0,0 0,0 0,0 0,0 0,0 0,0 c 0,0.04 -0.03,0.1 -0.11,0.1 -0.14,0 -0.72,-0.06 -0.9,-0.07 -0.05,-0.01 -0.14,-0.01 -0.14,-0.16 0,-0.1 0.09,-0.1 0.17,-0.1 0.34,0 0.34,-0.05 0.34,-0.1 0,-0.05 -0.02,-0.09 -0.03,-0.16 l -0.87,-3.44 c -0.02,-0.07 -0.02,-0.15 -0.02,-0.22 0,-0.44 0.39,-0.66 0.73,-0.66 0.16,0 0.37,0.06 0.55,0.37 0.15,0.26 0.25,0.67 0.25,0.7 0,0.09 -0.09,0.09 -0.11,0.09 -0.1,0 -0.11,-0.04 -0.14,-0.17 -0.09,-0.35 -0.22,-0.79 -0.53,-0.79 -0.18,0 -0.23,0.17 -0.23,0.34 0,0.07 0.02,0.21 0.04,0.28 z" style="fill:#000000;stroke-width:0" id="path2922"/>
<path d="m 247.36,708.29 -0.01,0.03 -0.02,0.02 -0.01,0.02 -0.02,0.02 -0.02,0.02 -0.01,0.02 -0.02,0.02 -0.02,0.02 -0.01,0.01 -0.02,0.02 -0.02,0.02 -0.02,0.02 -0.02,0.01 -0.02,0.02 -0.03,0.01 -0.02,0.02 -0.02,0.01 -0.02,0.01 -0.03,0.01 -0.02,0.02 -0.03,0.01 -0.02,0.01 -0.03,0 -0.03,0.01 -0.02,0.01 -0.03,0.01 -0.03,0 -0.03,0.01 -0.03,0 -0.03,0 -0.03,0 -0.03,0.01 v -0.2 c 0.49,0 0.62,-0.53 0.62,-0.61 0,-0.02 -0.01,-0.07 -0.02,-0.09 l -0.33,-1.31 c -0.04,-0.19 -0.2,-0.33 -0.35,-0.47 -0.06,-0.05 -0.34,-0.27 -0.64,-0.27 -0.26,0 -0.51,0.18 -0.51,0.67 0,0.37 0.2,1.14 0.36,1.42 0.32,0.56 0.68,0.66 0.87,0.66 v 0.2 c -0.89,0 -1.8,-0.99 -1.8,-1.99 0,-0.68 0.46,-1.16 1.06,-1.16 0.37,0 0.71,0.22 0.99,0.49 0.13,-0.42 0.53,-0.49 0.71,-0.49 0.26,0 0.43,0.15 0.55,0.37 0.16,0.27 0.25,0.67 0.25,0.7 0,0.09 -0.09,0.09 -0.11,0.09 -0.1,0 -0.11,-0.03 -0.16,-0.22 -0.08,-0.33 -0.21,-0.74 -0.5,-0.74 -0.19,0 -0.23,0.15 -0.23,0.34 0,0.12 0.05,0.37 0.1,0.55 0.05,0.19 0.12,0.47 0.15,0.63 0.07,0.25 0.08,0.3 0.14,0.53 0.05,0.18 0.13,0.51 0.13,0.54 0,0.15 -0.13,0.22 -0.24,0.22 -0.12,0 -0.28,-0.08 -0.32,-0.28 z" style="fill:#000000;stroke-width:0" id="path2924"/>
<path d="m 250.38,707.04 0,0 0,0 0,0.01 0,0 0,0.01 0,0.01 0,0 0.01,0.01 0,0.01 0,0.01 0,0.01 0,0.01 0.01,0.01 0,0.01 0.01,0.02 0,0.03 0.01,0.02 0.01,0.03 0,0.03 0.01,0.03 0.01,0.03 0.01,0.06 0.02,0.07 0.01,0.03 0.01,0.03 0,0.02 0.01,0.03 0.01,0.03 0,0.02 0.01,0.03 0,0.01 0.01,0.01 0,0.01 0,0.01 0,0.01 0.01,0 0,0.01 0,0.01 0,0 0,0.01 0.01,0 0,0.01 0,0 0,0 c 0.01,0.06 0.21,0.41 0.44,0.58 0.07,0.05 0.26,0.19 0.56,0.19 0.07,0 0.25,-0.01 0.39,-0.1 -0.23,-0.06 -0.31,-0.25 -0.31,-0.38 0,-0.15 0.12,-0.26 0.28,-0.26 0.16,0 0.39,0.13 0.39,0.43 0,0.36 -0.38,0.51 -0.74,0.51 -0.36,0 -0.68,-0.15 -0.98,-0.5 -0.13,0.43 -0.55,0.5 -0.72,0.5 -0.26,0 -0.44,-0.17 -0.55,-0.36 -0.16,-0.27 -0.25,-0.68 -0.25,-0.71 0,-0.09 0.09,-0.09 0.11,-0.09 0.1,0 0.11,0.02 0.16,0.21 0.1,0.42 0.23,0.75 0.51,0.75 0.18,0 0.23,-0.15 0.23,-0.34 0,-0.13 -0.07,-0.39 -0.12,-0.58 -0.04,-0.19 -0.11,-0.48 -0.15,-0.63 l -0.22,-0.89 c -0.03,-0.09 -0.07,-0.27 -0.07,-0.29 0,-0.15 0.12,-0.22 0.24,-0.22 0.1,0 0.24,0.06 0.3,0.2 0.01,0.04 0.09,0.35 0.13,0.53 z" style="fill:#000000;stroke-width:0" id="path2926"/>
</g>    <g id="g3041" ns0:preamble="" ns0:text="$CC+L_{vect}$" style="font-style:normal;font-variant:normal;font-weight:normal;font-stretch:normal;letter-spacing:normal;word-spacing:normal;text-anchor:start;fill:none;stroke:#000000;stroke-linecap:butt;stroke-linejoin:miter;stroke-miterlimit:10.43299961;stroke-opacity:1;stroke-dasharray:none;stroke-dashoffset:0" xml:space="preserve" transform="matrix(4, 0, 0, -4, -587.376, 3431.05)">
<path id="path3043" style="fill:#000000;stroke-width:0" d="m 231,714.05 0,0 0,0 0,0.01 0,0 0,0 0,0.01 0,0 0,0 0,0.01 0,0 -0.01,0.01 0,0 0,0.01 0,0 0,0 -0.01,0.01 0,0 0,0.01 -0.01,0 0,0 -0.01,0.01 0,0 -0.01,0 0,0 -0.01,0.01 0,0 0,0 -0.01,0 0,0 0,0 -0.01,0 0,0 0,0 -0.01,0 0,0.01 0,0 -0.01,0 0,0 -0.01,0 c -0.02,0 -0.04,-0.01 -0.15,-0.12 l -0.69,-0.77 c -0.09,0.14 -0.55,0.89 -1.66,0.89 -2.22,0 -4.46,-2.21 -4.46,-4.52 0,-1.64 1.18,-2.73 2.7,-2.73 0.87,0 1.62,0.4 2.15,0.86 0.93,0.82 1.1,1.72 1.1,1.75 0,0.1 -0.1,0.1 -0.12,0.1 -0.06,0 -0.11,-0.02 -0.13,-0.1 -0.09,-0.29 -0.32,-0.99 -1.01,-1.57 -0.68,-0.56 -1.31,-0.73 -1.83,-0.73 -0.9,0 -1.95,0.52 -1.95,2.07 0,0.57 0.21,2.19 1.2,3.35 0.61,0.71 1.55,1.21 2.43,1.21 1.02,0 1.61,-0.77 1.61,-1.93 0,-0.39 -0.03,-0.4 -0.03,-0.5 0,-0.1 0.11,-0.1 0.15,-0.1 0.13,0 0.13,0.02 0.18,0.2 z"/>
<path id="path3045" style="fill:#000000;stroke-width:0" d="m 238.84,714.05 0,0 0,0 0,0.01 0,0 0,0 0,0.01 0,0 0,0 0,0.01 -0.01,0 0,0.01 0,0 0,0.01 0,0 -0.01,0 0,0.01 0,0 -0.01,0.01 0,0 0,0 -0.01,0.01 0,0 -0.01,0 0,0 -0.01,0.01 0,0 0,0 -0.01,0 0,0 0,0 -0.01,0 0,0 0,0 -0.01,0 0,0.01 -0.01,0 0,0 0,0 -0.01,0 c -0.03,0 -0.04,-0.01 -0.15,-0.12 l -0.7,-0.77 c -0.08,0.14 -0.54,0.89 -1.65,0.89 -2.22,0 -4.46,-2.21 -4.46,-4.52 0,-1.64 1.17,-2.73 2.7,-2.73 0.87,0 1.62,0.4 2.15,0.86 0.93,0.82 1.1,1.72 1.1,1.75 0,0.1 -0.1,0.1 -0.12,0.1 -0.06,0 -0.11,-0.02 -0.13,-0.1 -0.09,-0.29 -0.32,-0.99 -1.01,-1.57 -0.69,-0.56 -1.31,-0.73 -1.83,-0.73 -0.9,0 -1.95,0.52 -1.95,2.07 0,0.57 0.2,2.19 1.2,3.35 0.61,0.71 1.54,1.21 2.43,1.21 1.02,0 1.6,-0.77 1.6,-1.93 0,-0.39 -0.03,-0.4 -0.03,-0.5 0,-0.1 0.11,-0.1 0.16,-0.1 0.12,0 0.12,0.02 0.17,0.2 z"/>
<path id="path3047" style="fill:#000000;stroke-width:0" d="m 245.39,709.41 h 2.78 c 0.14,0 0.33,0 0.33,0.2 0,0.2 -0.19,0.2 -0.33,0.2 h -2.78 v 2.79 c 0,0.14 0,0.33 -0.2,0.33 -0.2,0 -0.2,-0.19 -0.2,-0.33 v -2.79 h -2.79 c -0.14,0 -0.33,0 -0.33,-0.2 0,-0.2 0.19,-0.2 0.33,-0.2 h 2.79 v -2.79 c 0,-0.14 0,-0.32 0.2,-0.32 0.2,0 0.2,0.18 0.2,0.32 z"/>
<path id="path3049" style="fill:#000000;stroke-width:0" d="m 255,713.15 0.01,0.03 0.01,0.03 0,0.03 0.01,0.03 0.01,0.03 0.01,0.03 0.01,0.02 0.01,0.02 0.01,0.03 0.01,0.02 0.02,0.02 0.02,0.02 0.01,0.01 0.02,0.02 0.02,0.01 0.03,0.02 0.03,0.01 0.03,0.01 0.03,0.01 0.03,0.01 0.02,0.01 0.02,0 0.02,0.01 0.02,0 0.03,0.01 0.02,0 0.02,0 0.03,0.01 0.02,0 0.03,0 0.03,0 0.03,0.01 0.03,0 0.03,0 0.03,0 0.03,0 0.04,0 0.03,0 0.04,0.01 0.04,0 0.04,0 0.04,0 0.04,0 0.04,0 c 0.3,0 0.38,0 0.38,0.19 0,0.12 -0.11,0.12 -0.16,0.12 -0.32,0 -1.14,-0.03 -1.47,-0.03 -0.3,0 -1.03,0.03 -1.33,0.03 -0.07,0 -0.18,0 -0.18,-0.2 0,-0.11 0.09,-0.11 0.27,-0.11 0.02,0 0.21,0 0.38,-0.02 0.18,-0.02 0.27,-0.03 0.27,-0.16 0,-0.04 -0.01,-0.07 -0.04,-0.19 l -1.33,-5.35 c -0.1,-0.39 -0.12,-0.47 -0.91,-0.47 -0.17,0 -0.27,0 -0.27,-0.2 0,-0.11 0.09,-0.11 0.27,-0.11 h 4.61 c 0.24,0 0.25,0 0.31,0.17 l 0.79,2.15 c 0.04,0.11 0.04,0.13 0.04,0.14 0,0.04 -0.03,0.11 -0.12,0.11 -0.09,0 -0.1,-0.05 -0.17,-0.21 -0.34,-0.91 -0.78,-2.05 -2.5,-2.05 h -0.94 c -0.14,0 -0.16,0 -0.22,0.01 -0.1,0.01 -0.13,0.02 -0.13,0.1 0,0.03 0,0.05 0.05,0.23 z"/>
<path id="path3051" style="fill:#000000;stroke-width:0" d="m 261.78,708.16 0,0.03 0,0.02 -0.01,0.02 0,0.03 0,0.02 0,0.02 0,0.02 -0.01,0.02 0,0.02 0,0.02 -0.01,0.02 0,0.01 -0.01,0.02 0,0.02 -0.01,0.01 0,0.02 -0.01,0.01 -0.01,0.01 0,0.02 -0.01,0.01 -0.01,0.01 0,0.01 -0.01,0.01 -0.01,0.01 -0.01,0.01 0,0.01 -0.02,0.02 -0.01,0.02 -0.02,0.01 -0.02,0.01 -0.01,0.01 -0.02,0.01 -0.01,0.01 -0.02,0.01 -0.01,0 -0.02,0.01 -0.01,0 -0.01,0.01 -0.01,0 -0.01,0 -0.01,0 -0.01,0 0,0 -0.01,0 0,0 c -0.18,0 -0.38,-0.19 -0.38,-0.37 0,-0.12 0.07,-0.17 0.12,-0.21 0.12,-0.1 0.26,-0.28 0.26,-0.56 0,-0.31 -0.46,-1.81 -1.29,-1.81 -0.57,0 -0.57,0.5 -0.57,0.62 0,0.32 0.13,0.71 0.39,1.36 0.05,0.14 0.09,0.25 0.09,0.37 0,0.36 -0.3,0.6 -0.66,0.6 -0.7,0 -1.01,-0.96 -1.01,-1.07 0,-0.09 0.1,-0.09 0.12,-0.09 0.1,0 0.1,0.03 0.12,0.11 0.17,0.57 0.47,0.85 0.75,0.85 0.12,0 0.18,-0.08 0.18,-0.24 0,-0.16 -0.06,-0.31 -0.13,-0.47 -0.3,-0.77 -0.38,-1.08 -0.38,-1.33 0,-0.69 0.55,-0.91 1.08,-0.91 1.17,0 1.66,2.03 1.66,2.6 z"/>
<path id="path3053" style="fill:#000000;stroke-width:0" d="m 263.85,707.22 0.02,0 0.02,0 0.03,0 0.02,0 0.03,0 0.03,0 0.03,0 0.03,0 0.03,0.01 0.03,0 0.04,0 0.03,0 0.04,0 0.04,0.01 0.08,0 0.07,0.01 0.09,0.01 0.08,0.01 0.08,0.02 0.08,0.01 0.04,0.01 0.04,0.01 0.03,0.01 0.04,0.01 0.04,0.01 0.04,0.02 c 0.51,0.18 0.61,0.51 0.61,0.72 0,0.38 -0.39,0.62 -0.87,0.62 v -0.2 c 0.31,0 0.57,-0.15 0.57,-0.42 0,-0.68 -1.18,-0.68 -1.48,-0.68 h -0.34 c 0.29,1.02 1.06,1.1 1.25,1.1 v 0.2 c -0.83,0 -1.96,-0.65 -1.96,-1.84 0,-0.7 0.44,-1.31 1.25,-1.31 1.18,0 1.73,0.69 1.73,0.79 0,0.04 -0.06,0.12 -0.12,0.12 -0.04,0 -0.05,-0.02 -0.11,-0.07 -0.54,-0.64 -1.36,-0.64 -1.48,-0.64 -0.42,0 -0.7,0.27 -0.7,0.84 0,0.1 0,0.24 0.08,0.62 z"/>
<path id="path3055" style="fill:#000000;stroke-width:0" d="m 269.13,708.3 -0.03,0 -0.02,-0.01 -0.02,0 -0.02,-0.01 -0.02,-0.01 -0.02,-0.01 -0.02,-0.01 -0.02,-0.01 -0.01,-0.01 -0.02,-0.01 -0.01,-0.01 -0.02,-0.01 -0.01,-0.01 -0.01,-0.02 -0.02,-0.01 -0.01,-0.01 -0.01,-0.02 -0.01,-0.01 -0.01,-0.02 0,-0.01 -0.01,-0.01 -0.01,-0.02 -0.01,-0.01 0,-0.02 -0.01,-0.02 0,-0.01 0,-0.02 -0.01,-0.01 0,-0.02 0,-0.01 0,-0.02 0,-0.01 c 0,-0.19 0.15,-0.26 0.27,-0.26 0.15,0 0.4,0.11 0.4,0.45 0,0.47 -0.55,0.61 -0.92,0.61 -1.05,0 -2.02,-0.97 -2.02,-1.94 0,-0.6 0.42,-1.21 1.29,-1.21 1.18,0 1.73,0.69 1.73,0.79 0,0.04 -0.06,0.12 -0.12,0.12 -0.04,0 -0.05,-0.02 -0.11,-0.07 -0.54,-0.64 -1.36,-0.64 -1.48,-0.64 -0.51,0 -0.73,0.34 -0.73,0.77 0,0.2 0.1,0.96 0.46,1.44 0.27,0.35 0.63,0.54 0.98,0.54 0.09,0 0.43,-0.01 0.61,-0.21 z"/>
<path id="path3057" style="fill:#000000;stroke-width:0" d="m 271.35,708.39 h 0.71 c 0.13,0 0.22,0 0.22,0.15 0,0.1 -0.09,0.1 -0.21,0.1 h -0.66 l 0.26,1.03 c 0.01,0.03 0.02,0.07 0.02,0.1 0,0.12 -0.1,0.22 -0.24,0.22 -0.17,0 -0.28,-0.12 -0.32,-0.3 -0.05,-0.18 0.04,0.16 -0.27,-1.05 h -0.71 c -0.13,0 -0.23,0 -0.23,-0.16 0,-0.09 0.09,-0.09 0.22,-0.09 h 0.66 c -0.13,-0.56 -0.28,-1.1 -0.41,-1.65 -0.05,-0.17 -0.11,-0.43 -0.11,-0.52 0,-0.41 0.35,-0.66 0.75,-0.66 0.77,0 1.21,0.98 1.21,1.07 0,0.09 -0.09,0.09 -0.11,0.09 -0.08,0 -0.09,-0.02 -0.15,-0.13 -0.19,-0.44 -0.55,-0.83 -0.93,-0.83 -0.15,0 -0.25,0.09 -0.25,0.34 0,0.07 0.03,0.21 0.05,0.28 z"/>
</g>  </g>
</svg>