<?xml version="1.0" encoding="UTF-8" standalone="no"?>
<!-- Generator: Adobe Illustrator 12.0.0, SVG Export Plug-In . SVG Version: 6.00 Build 51448)  -->
<svg
   xmlns:dc="http://purl.org/dc/elements/1.1/"
   xmlns:cc="http://web.resource.org/cc/"
   xmlns:rdf="http://www.w3.org/1999/02/22-rdf-syntax-ns#"
   xmlns:svg="http://www.w3.org/2000/svg"
   xmlns="http://www.w3.org/2000/svg"
   xmlns:sodipodi="http://inkscape.sourceforge.net/DTD/sodipodi-0.dtd"
   xmlns:inkscape="http://www.inkscape.org/namespaces/inkscape"
   version="1.0"
   id="Layer_1"
   width="695.817"
   height="416.584"
   viewBox="0 0 695.817 416.584"
   overflow="visible"
   enable-background="new 0 0 695.817 416.584"
   xml:space="preserve"
   sodipodi:version="0.32"
   inkscape:version="0.43"
   sodipodi:docname="Delta-Star_Transformation.svg"
   sodipodi:docbase="/home/thib/Desktop"><metadata
   id="metadata1725"><rdf:RDF><cc:Work
       rdf:about=""><dc:format>image/svg+xml</dc:format><dc:type
         rdf:resource="http://purl.org/dc/dcmitype/StillImage" /></cc:Work></rdf:RDF></metadata><defs
   id="defs1723" /><sodipodi:namedview
   inkscape:window-height="727"
   inkscape:window-width="1280"
   inkscape:pageshadow="2"
   inkscape:pageopacity="0.0"
   borderopacity="1.0"
   bordercolor="#666666"
   pagecolor="#ffffff"
   id="base"
   inkscape:zoom="1.4142136"
   inkscape:cx="643.27966"
   inkscape:cy="237.84443"
   inkscape:window-x="0"
   inkscape:window-y="24"
   inkscape:current-layer="g1680" />
<g
   id="g1596">
	<polygon
   fill="none"
   stroke="#BF0000"
   stroke-width="2.8"
   points="29.333,297.638 160.333,70.739 291.333,297.638  "
   id="polygon1598" />
	<rect
   x="134.009"
   y="291.337"
   fill="#FFFFFF"
   stroke="#BF0000"
   stroke-width="2.1"
   width="52.323"
   height="14.143"
   id="rect1600" />
	
		<rect
   x="68.517"
   y="177.108"
   transform="matrix(0.5 -0.866 0.866 0.5 -112.1654 174.0833)"
   fill="#FFFFFF"
   stroke="#BF0000"
   stroke-width="2.1"
   width="52.322"
   height="14.143"
   id="rect1602" />
	
		<rect
   x="199.766"
   y="177.109"
   transform="matrix(-0.5 -0.866 0.866 -0.5 179.3917 471.9294)"
   fill="#FFFFFF"
   stroke="#BF0000"
   stroke-width="2.1"
   width="52.323"
   height="14.142"
   id="rect1604" />
	<g
   id="g1606">
		<path
   d="M17.509,308.029c0,1.94,0.093,3.835,0.324,5.359h-3.65l-0.37-2.818h-0.139c-1.201,1.756-3.649,3.326-6.837,3.326    c-4.528,0-6.837-3.188-6.837-6.421c0-5.406,4.805-8.362,13.444-8.316v-0.462c0-1.848-0.508-5.221-5.082-5.175    c-2.125,0-4.296,0.601-5.867,1.663l-0.924-2.726c1.848-1.155,4.574-1.94,7.392-1.94c6.884,0,8.547,4.666,8.547,9.147V308.029z     M13.536,301.977c-4.435-0.093-9.471,0.692-9.471,5.035c0,2.68,1.755,3.881,3.789,3.881c2.957,0,4.851-1.848,5.498-3.742    c0.139-0.415,0.185-0.878,0.185-1.293V301.977z"
   id="path1608" />
	</g>
	<g
   id="g1610">
		<path
   d="M304.156,280.586h4.065v13.998h0.092c1.433-2.494,4.02-4.065,7.623-4.065c5.544,0,9.425,4.62,9.425,11.365    c0,8.039-5.082,12.012-10.071,12.012c-3.234,0-5.775-1.247-7.484-4.204h-0.093l-0.23,3.696h-3.512    c0.139-1.524,0.186-3.788,0.186-5.775V280.586z M308.221,304.425c0,0.509,0.046,1.017,0.139,1.479    c0.785,2.818,3.188,4.759,6.098,4.759c4.297,0,6.792-3.465,6.792-8.594c0-4.527-2.311-8.361-6.653-8.361    c-2.771,0-5.359,1.939-6.145,4.989c-0.139,0.508-0.23,1.063-0.23,1.709V304.425z"
   id="path1612" />
	</g>
	<g
   id="g1614">
		<path
   d="M168.894,57.453c-1.063,0.508-3.419,1.294-6.422,1.294c-6.745,0-11.134-4.574-11.134-11.458s4.712-11.92,12.012-11.92    c2.402,0,4.527,0.601,5.637,1.202l-0.925,3.095c-0.97-0.508-2.494-1.063-4.712-1.063c-5.128,0-7.9,3.834-7.9,8.5    c0,5.174,3.326,8.362,7.762,8.362c2.31,0,3.835-0.554,4.989-1.063L168.894,57.453z"
   id="path1616" />
	</g>
	<g
   id="g1618">
		<path
   d="M27.094,140.961c2.033-0.416,4.99-0.693,7.715-0.693c4.296,0,7.115,0.832,9.055,2.587c1.524,1.34,2.449,3.465,2.449,5.914    c0,4.066-2.634,6.792-5.868,7.9v0.139c2.356,0.831,3.789,3.049,4.574,6.283c1.017,4.343,1.756,7.346,2.356,8.547h-4.158    c-0.508-0.878-1.201-3.558-2.033-7.438c-0.924-4.296-2.633-5.913-6.283-6.052h-3.788v13.49h-4.02V140.961z M31.114,155.099h4.112    c4.296,0,7.022-2.356,7.022-5.914c0-4.02-2.911-5.775-7.161-5.775c-1.94,0-3.28,0.185-3.973,0.37V155.099z"
   id="path1620" />
		<path
   d="M59.589,183.899c0,1.131,0.054,2.235,0.188,3.124H57.65l-0.215-1.643h-0.081c-0.701,1.023-2.128,1.938-3.986,1.938    c-2.64,0-3.986-1.858-3.986-3.743c0-3.151,2.801-4.876,7.838-4.849v-0.27c0-1.077-0.296-3.043-2.963-3.017    c-1.239,0-2.505,0.351-3.421,0.97l-0.539-1.589c1.078-0.674,2.667-1.132,4.31-1.132c4.013,0,4.983,2.721,4.983,5.333V183.899z     M57.273,180.37c-2.585-0.054-5.521,0.404-5.521,2.937c0,1.563,1.023,2.263,2.208,2.263c1.724,0,2.828-1.078,3.206-2.182    c0.081-0.243,0.107-0.512,0.107-0.755V180.37z"
   id="path1622" />
		<path
   d="M72.68,186.565c-0.62,0.297-1.993,0.754-3.744,0.754c-3.932,0-6.491-2.666-6.491-6.68c0-4.013,2.748-6.949,7.003-6.949    c1.401,0,2.64,0.351,3.286,0.7l-0.539,1.805c-0.566-0.296-1.455-0.619-2.748-0.619c-2.99,0-4.605,2.235-4.605,4.956    c0,3.017,1.939,4.875,4.525,4.875c1.347,0,2.235-0.323,2.909-0.619L72.68,186.565z"
   id="path1624" />
	</g>
	<g
   id="g1626">
		<path
   d="M140.494,311.062c2.033-0.416,4.99-0.693,7.716-0.693c4.297,0,7.114,0.832,9.055,2.588    c1.525,1.34,2.449,3.465,2.449,5.913c0,4.065-2.634,6.792-5.867,7.9v0.139c2.355,0.831,3.788,3.049,4.573,6.283    c1.017,4.343,1.756,7.346,2.356,8.547h-4.158c-0.508-0.878-1.201-3.558-2.032-7.438c-0.925-4.296-2.634-5.913-6.283-6.052h-3.789    v13.49h-4.02V311.062z M144.513,325.2h4.112c4.296,0,7.022-2.356,7.022-5.914c0-4.02-2.911-5.775-7.161-5.775    c-1.94,0-3.28,0.186-3.974,0.37V325.2z"
   id="path1628" />
		<path
   d="M172.99,354c0,1.131,0.054,2.235,0.188,3.124h-2.128l-0.216-1.643h-0.081c-0.7,1.023-2.128,1.938-3.986,1.938    c-2.64,0-3.986-1.858-3.986-3.743c0-3.151,2.802-4.876,7.838-4.849v-0.27c0-1.077-0.296-3.043-2.963-3.017    c-1.238,0-2.505,0.351-3.42,0.97l-0.539-1.589c1.077-0.674,2.667-1.132,4.31-1.132c4.014,0,4.983,2.721,4.983,5.333V354z     M170.673,350.47c-2.586-0.054-5.522,0.404-5.522,2.937c0,1.563,1.024,2.263,2.209,2.263c1.724,0,2.828-1.078,3.205-2.182    c0.081-0.243,0.108-0.512,0.108-0.755V350.47z"
   id="path1630" />
		<path
   d="M176.787,338h2.371v8.161h0.054c0.835-1.454,2.343-2.37,4.444-2.37c3.231,0,5.494,2.693,5.494,6.626    c0,4.687-2.963,7.003-5.872,7.003c-1.885,0-3.366-0.727-4.363-2.45h-0.054l-0.135,2.154h-2.047    c0.081-0.889,0.107-2.209,0.107-3.367V338z M179.158,351.898c0,0.297,0.026,0.593,0.08,0.862c0.458,1.643,1.858,2.774,3.556,2.774    c2.505,0,3.959-2.021,3.959-5.01c0-2.64-1.347-4.876-3.878-4.876c-1.616,0-3.125,1.132-3.583,2.909    c-0.08,0.297-0.134,0.62-0.134,0.997V351.898z"
   id="path1632" />
	</g>
	<g
   id="g1634">
		<path
   d="M241.293,140.961c2.033-0.416,4.99-0.693,7.716-0.693c4.297,0,7.115,0.832,9.055,2.587    c1.525,1.34,2.449,3.465,2.449,5.914c0,4.066-2.634,6.792-5.867,7.9v0.139c2.355,0.831,3.788,3.049,4.573,6.283    c1.017,4.343,1.756,7.346,2.356,8.547h-4.158c-0.508-0.878-1.201-3.558-2.032-7.438c-0.925-4.296-2.634-5.913-6.283-6.052h-3.789    v13.49h-4.02V140.961z M245.313,155.099h4.112c4.296,0,7.022-2.356,7.022-5.914c0-4.02-2.911-5.775-7.161-5.775    c-1.94,0-3.28,0.185-3.974,0.37V155.099z"
   id="path1636" />
		<path
   d="M264.604,167.899h2.371v8.162h0.054c0.835-1.455,2.343-2.371,4.444-2.371c3.231,0,5.494,2.693,5.494,6.626    c0,4.687-2.963,7.003-5.872,7.003c-1.885,0-3.366-0.727-4.363-2.45h-0.054l-0.135,2.154h-2.047    c0.081-0.889,0.107-2.209,0.107-3.367V167.899z M266.975,181.797c0,0.297,0.026,0.593,0.08,0.862    c0.458,1.643,1.858,2.774,3.556,2.774c2.505,0,3.959-2.021,3.959-5.01c0-2.64-1.347-4.876-3.878-4.876    c-1.616,0-3.125,1.132-3.583,2.909c-0.08,0.297-0.134,0.62-0.134,0.997V181.797z"
   id="path1638" />
		<path
   d="M289.249,186.565c-0.619,0.297-1.993,0.754-3.744,0.754c-3.933,0-6.491-2.666-6.491-6.68c0-4.013,2.747-6.949,7.003-6.949    c1.4,0,2.64,0.351,3.286,0.7l-0.539,1.805c-0.565-0.296-1.454-0.619-2.747-0.619c-2.989,0-4.605,2.235-4.605,4.956    c0,3.017,1.939,4.875,4.524,4.875c1.347,0,2.236-0.323,2.909-0.619L289.249,186.565z"
   id="path1640" />
	</g>
	<path
   fill="none"
   stroke="#0F298F"
   stroke-width="2.1"
   d="M160.333,297.638"
   id="path1642" />
	<path
   fill="none"
   stroke="#0F298F"
   stroke-width="2.1"
   d="M225.833,184.189"
   id="path1644" />
</g>
<g
   id="g1646">
	<path
   fill="none"
   stroke="#0F298F"
   stroke-width="2.1"
   d="M563.056,0"
   id="path1648" />
	<g
   id="g1650">
		<path
   d="M387.965,305.348c0,1.94,0.092,3.835,0.323,5.359h-3.649l-0.37-2.818h-0.139c-1.201,1.756-3.649,3.326-6.838,3.326    c-4.527,0-6.837-3.188-6.837-6.422c0-5.405,4.805-8.361,13.444-8.315v-0.462c0-1.848-0.509-5.221-5.082-5.175    c-2.126,0-4.297,0.601-5.868,1.663l-0.924-2.726c1.849-1.155,4.574-1.94,7.393-1.94c6.884,0,8.547,4.666,8.547,9.147V305.348z     M383.992,299.296c-4.435-0.093-9.471,0.692-9.471,5.035c0,2.68,1.756,3.881,3.788,3.881c2.957,0,4.852-1.848,5.498-3.742    c0.139-0.415,0.185-0.878,0.185-1.293V299.296z"
   id="path1652" />
	</g>
	<g
   id="g1654">
		<path
   d="M674.612,277.906h4.065v13.998h0.092c1.433-2.494,4.02-4.065,7.623-4.065c5.544,0,9.425,4.62,9.425,11.365    c0,8.039-5.082,12.012-10.071,12.012c-3.234,0-5.775-1.247-7.484-4.204h-0.093l-0.23,3.696h-3.512    c0.139-1.524,0.186-3.788,0.186-5.775V277.906z M678.677,301.745c0,0.509,0.046,1.017,0.139,1.479    c0.785,2.818,3.188,4.759,6.098,4.759c4.297,0,6.792-3.465,6.792-8.594c0-4.527-2.311-8.361-6.653-8.361    c-2.771,0-5.359,1.94-6.145,4.989c-0.139,0.508-0.23,1.063-0.23,1.709V301.745z"
   id="path1656" />
	</g>
	<g
   id="g1658">
		<path
   d="M539.35,54.772c-1.063,0.508-3.419,1.294-6.422,1.294c-6.745,0-11.134-4.574-11.134-11.458s4.712-11.92,12.012-11.92    c2.402,0,4.527,0.601,5.637,1.202l-0.925,3.095c-0.97-0.508-2.494-1.063-4.712-1.063c-5.128,0-7.9,3.834-7.9,8.5    c0,5.174,3.326,8.362,7.762,8.362c2.31,0,3.835-0.554,4.989-1.063L539.35,54.772z"
   id="path1660" />
	</g>
	
		<line
   fill="none"
   stroke="#0F298F"
   stroke-width="2.8"
   stroke-linecap="round"
   x1="530.789"
   y1="68.058"
   x2="530.789"
   y2="219.324"
   id="line1662" />
	
		<line
   fill="none"
   stroke="#0F298F"
   stroke-width="2.8"
   stroke-linecap="round"
   x1="399.789"
   y1="294.957"
   x2="530.789"
   y2="219.324"
   id="line1664" />
	
		<line
   fill="none"
   stroke="#0F298F"
   stroke-width="2.8"
   stroke-linecap="round"
   x1="661.788"
   y1="294.957"
   x2="530.787"
   y2="219.324"
   id="line1666" />
	<rect
   x="523.862"
   y="130.223"
   fill="#FFFFFF"
   stroke="#0F298F"
   stroke-width="2.1"
   width="14.143"
   height="52.322"
   id="rect1668" />
	
		<rect
   x="561.611"
   y="245.432"
   transform="matrix(-0.866 -0.5 0.5 -0.866 970.5467 765.0616)"
   fill="#FFFFFF"
   stroke="#0F298F"
   stroke-width="2.1"
   width="52.322"
   height="14.141"
   id="rect1670" />
	
		<rect
   x="447.242"
   y="245.431"
   transform="matrix(-0.866 0.5 -0.5 -0.866 1009.6349 234.4796)"
   fill="#FFFFFF"
   stroke="#0F298F"
   stroke-width="2.1"
   width="52.323"
   height="14.142"
   id="rect1672" />
	<g
   id="g1674">
		<path
   d="M483.133,263.808c2.033-0.416,4.99-0.693,7.716-0.693c4.297,0,7.115,0.832,9.055,2.588    c1.525,1.34,2.449,3.465,2.449,5.913c0,4.065-2.634,6.792-5.867,7.9v0.139c2.355,0.831,3.788,3.049,4.573,6.283    c1.017,4.343,1.756,7.346,2.356,8.547h-4.158c-0.508-0.878-1.201-3.558-2.032-7.438c-0.925-4.296-2.634-5.913-6.283-6.052h-3.789    v13.49h-4.02V263.808z M487.153,277.946h4.112c4.296,0,7.022-2.356,7.022-5.914c0-4.02-2.911-5.775-7.161-5.775    c-1.94,0-3.28,0.186-3.974,0.37V277.946z"
   id="path1676" />
		<path
   d="M515.629,306.746c0,1.131,0.054,2.235,0.188,3.124h-2.128l-0.216-1.643h-0.081c-0.7,1.023-2.128,1.938-3.986,1.938    c-2.64,0-3.986-1.858-3.986-3.743c0-3.151,2.802-4.876,7.838-4.849v-0.27c0-1.077-0.296-3.043-2.962-3.017    c-1.239,0-2.506,0.351-3.421,0.97l-0.539-1.589c1.077-0.674,2.667-1.132,4.31-1.132c4.014,0,4.983,2.721,4.983,5.333V306.746z     M513.313,303.216c-2.586-0.054-5.522,0.404-5.522,2.937c0,1.563,1.024,2.263,2.209,2.263c1.724,0,2.828-1.078,3.205-2.182    c0.081-0.243,0.108-0.512,0.108-0.755V303.216z"
   id="path1678" />
	</g>
	<g
   id="g1680">
		<path
   d="M548.93,138.863c2.033-0.416,4.99-0.693,7.716-0.693c4.297,0,7.115,0.832,9.055,2.587c1.525,1.34,2.449,3.465,2.449,5.914    c0,4.066-2.634,6.792-5.867,7.9v0.139c2.355,0.831,3.788,3.049,4.573,6.283c1.017,4.343,1.756,7.346,2.356,8.547h-4.158    c-0.508-0.878-1.201-3.558-2.032-7.438c-0.925-4.296-2.634-5.913-6.283-6.052h-3.789v13.49h-4.02V138.863z M552.95,153h4.112    c4.296,0,7.022-2.356,7.022-5.914c0-4.02-2.911-5.775-7.161-5.775c-1.94,0-3.28,0.185-3.974,0.37V153z"
   id="path1682" />
		
	<path
   d="M 582.48715,182.09314 C 581.86715,182.39014 580.49415,182.84714 578.74315,182.84714 C 574.81115,182.84714 572.25215,180.18114 572.25215,176.16714 C 572.25215,172.15414 575.00015,169.21814 579.25515,169.21814 C 580.65615,169.21814 581.89515,169.56914 582.54115,169.91814 L 582.00215,171.72314 C 581.43615,171.42714 580.54715,171.10414 579.25415,171.10414 C 576.26415,171.10414 574.64915,173.33914 574.64915,176.06014 C 574.64915,179.07714 576.58815,180.93514 579.17415,180.93514 C 580.52115,180.93514 581.40915,180.61214 582.08315,180.31614 L 582.48715,182.09314 z "
   id="path1366" /></g>
	<g
   id="g1686">
		<path
   d="M557.679,260.789c2.033-0.416,4.99-0.693,7.716-0.693c4.297,0,7.114,0.832,9.055,2.588    c1.525,1.34,2.449,3.465,2.449,5.913c0,4.065-2.634,6.792-5.867,7.9v0.139c2.355,0.831,3.788,3.049,4.573,6.283    c1.017,4.343,1.756,7.346,2.356,8.547h-4.158c-0.508-0.878-1.201-3.558-2.032-7.438c-0.925-4.296-2.634-5.913-6.283-6.052h-3.789    v13.49h-4.02V260.789z M561.699,274.926h4.112c4.296,0,7.022-2.356,7.022-5.914c0-4.02-2.911-5.775-7.161-5.775    c-1.94,0-3.28,0.186-3.974,0.37V274.926z"
   id="path1688" />
		<path
   d="M580.99,287.726h2.371v8.161h0.054c0.835-1.454,2.343-2.37,4.444-2.37c3.231,0,5.494,2.693,5.494,6.626    c0,4.687-2.963,7.003-5.872,7.003c-1.885,0-3.366-0.727-4.363-2.45h-0.054l-0.135,2.154h-2.047    c0.081-0.889,0.107-2.209,0.107-3.367V287.726z M583.361,301.625c0,0.297,0.026,0.593,0.08,0.862    c0.458,1.643,1.858,2.774,3.556,2.774c2.505,0,3.959-2.021,3.959-5.01c0-2.64-1.347-4.876-3.878-4.876    c-1.616,0-3.125,1.132-3.583,2.909c-0.08,0.297-0.134,0.62-0.134,0.997V301.625z"
   id="path1690" />
	</g>
</g>
<g
   id="g1692">
	<path
   d="M72.161,389.985c1.333-4.867,3.825-11.126,5.389-13.792l3.245-0.348c-1.217,3.419-2.781,9.388-3.419,13.561L72.161,389.985   z M80.738,389.985c1.333-4.867,3.824-11.126,5.39-13.792l3.245-0.348c-1.275,3.419-2.782,9.388-3.419,13.561L80.738,389.985z"
   id="path1694" />
	<path
   d="M94.994,377.41c3.129-0.463,6.779-0.811,10.778-0.811c7.244,0,12.401,1.622,15.82,4.81   c3.535,3.188,5.563,7.766,5.563,14.082c0,6.374-2.028,11.59-5.621,15.183c-3.709,3.65-9.736,5.621-17.327,5.621   c-3.651,0-6.606-0.116-9.214-0.464V377.41z M100.093,412.006c1.274,0.231,3.129,0.231,5.1,0.231   c10.778,0.059,16.631-6.026,16.631-16.573c0.059-9.33-5.157-15.067-15.82-15.067c-2.607,0-4.578,0.231-5.91,0.521V412.006z"
   id="path1696" />
	<path
   d="M136.716,402.792c0.116,6.896,4.462,9.735,9.562,9.735c3.651,0,5.911-0.638,7.766-1.391l0.927,3.593   c-1.796,0.812-4.926,1.796-9.388,1.796c-8.576,0-13.792-5.736-13.792-14.14c0-8.519,5.042-15.183,13.213-15.183   c9.156,0,11.531,8.055,11.531,13.213c0,1.043-0.058,1.854-0.174,2.434L136.716,402.792z M151.609,399.141   c0.059-3.188-1.332-8.287-7.012-8.287c-5.215,0-7.417,4.752-7.823,8.287H151.609z"
   id="path1698" />
	<path
   d="M162.851,374.802h5.1v41.145h-5.1V374.802z"
   id="path1700" />
	<path
   d="M182.553,381.176v6.723h7.302v3.883h-7.302v15.125c0,3.477,0.985,5.447,3.825,5.447c1.391,0,2.201-0.116,2.955-0.348   l0.231,3.883c-0.985,0.348-2.55,0.695-4.52,0.695c-2.376,0-4.289-0.812-5.506-2.145c-1.391-1.564-1.97-4.057-1.97-7.359v-15.299   h-4.347v-3.883h4.347v-5.157L182.553,381.176z"
   id="path1702" />
	<path
   d="M215.353,409.224c0,2.435,0.116,4.811,0.405,6.723h-4.577l-0.464-3.535h-0.174c-1.507,2.202-4.578,4.173-8.577,4.173   c-5.679,0-8.576-3.999-8.576-8.056c0-6.78,6.026-10.488,16.863-10.431v-0.579c0-2.318-0.638-6.549-6.374-6.491   c-2.666,0-5.39,0.754-7.36,2.087l-1.158-3.419c2.317-1.449,5.736-2.435,9.271-2.435c8.635,0,10.721,5.854,10.721,11.475V409.224z    M210.37,401.633c-5.563-0.116-11.88,0.869-11.88,6.316c0,3.361,2.202,4.868,4.752,4.868c3.709,0,6.085-2.318,6.896-4.694   c0.174-0.521,0.232-1.102,0.232-1.623V401.633z"
   id="path1704" />
	<path
   d="M227.986,375.845c-1.332,4.868-3.824,11.127-5.389,13.792l-3.245,0.348c1.274-3.419,2.781-9.388,3.419-13.56   L227.986,375.845z M236.563,375.845c-1.333,4.868-3.825,11.127-5.39,13.792l-3.245,0.348c1.217-3.419,2.781-9.388,3.419-13.56   L236.563,375.845z"
   id="path1706" />
</g>
<g
   id="g1708">
	<path
   d="M463.461,389.985c1.333-4.867,3.824-11.126,5.39-13.792l3.245-0.348c-1.217,3.419-2.782,9.388-3.419,13.561   L463.461,389.985z M472.038,389.985c1.333-4.867,3.825-11.126,5.39-13.792l3.245-0.348c-1.274,3.419-2.781,9.388-3.419,13.561   L472.038,389.985z"
   id="path1710" />
	<path
   d="M485.597,409.804c2.26,1.448,5.506,2.55,8.982,2.55c5.157,0,8.171-2.666,8.171-6.664c0-3.593-2.086-5.737-7.359-7.708   c-6.375-2.317-10.315-5.679-10.315-11.126c0-6.085,5.042-10.604,12.633-10.604c3.941,0,6.896,0.927,8.577,1.912l-1.391,4.114   c-1.218-0.753-3.825-1.854-7.36-1.854c-5.331,0-7.359,3.188-7.359,5.853c0,3.651,2.376,5.448,7.766,7.534   c6.606,2.607,9.909,5.737,9.909,11.474c0,6.027-4.404,11.301-13.618,11.301c-3.767,0-7.881-1.159-9.968-2.55L485.597,409.804z"
   id="path1712" />
	<path
   d="M520.542,381.176v6.723h7.302v3.883h-7.302v15.125c0,3.477,0.985,5.447,3.825,5.447c1.391,0,2.201-0.116,2.955-0.348   l0.231,3.883c-0.985,0.348-2.55,0.695-4.52,0.695c-2.376,0-4.289-0.812-5.506-2.145c-1.391-1.564-1.97-4.057-1.97-7.359v-15.299   h-4.347v-3.883h4.347v-5.157L520.542,381.176z"
   id="path1714" />
	<path
   d="M553.341,409.224c0,2.435,0.116,4.811,0.405,6.723h-4.577l-0.464-3.535h-0.174c-1.507,2.202-4.578,4.173-8.577,4.173   c-5.679,0-8.576-3.999-8.576-8.056c0-6.78,6.026-10.488,16.863-10.431v-0.579c0-2.318-0.638-6.549-6.374-6.491   c-2.666,0-5.39,0.754-7.36,2.087l-1.158-3.419c2.317-1.449,5.736-2.435,9.271-2.435c8.635,0,10.721,5.854,10.721,11.475V409.224z    M548.358,401.633c-5.563-0.116-11.88,0.869-11.88,6.316c0,3.361,2.202,4.868,4.752,4.868c3.709,0,6.085-2.318,6.896-4.694   c0.174-0.521,0.232-1.102,0.232-1.623V401.633z"
   id="path1716" />
	<path
   d="M561.57,396.649c0-3.303-0.058-6.143-0.231-8.75h4.462l0.231,5.505h0.174c1.275-3.767,4.404-6.143,7.823-6.143   c0.522,0,0.928,0.059,1.392,0.174v4.752c-0.58-0.058-1.102-0.115-1.797-0.115c-3.593,0-6.143,2.724-6.838,6.49   c-0.116,0.753-0.174,1.564-0.174,2.434v14.951h-5.1L561.57,396.649z"
   id="path1718" />
	<path
   d="M588.574,375.845c-1.332,4.868-3.824,11.127-5.389,13.792l-3.245,0.348c1.274-3.419,2.781-9.388,3.419-13.56   L588.574,375.845z M597.151,375.845c-1.333,4.868-3.825,11.127-5.39,13.792l-3.245,0.348c1.217-3.419,2.781-9.388,3.419-13.56   L597.151,375.845z"
   id="path1720" />
</g>
</svg>