<svg xmlns="http://www.w3.org/2000/svg" xmlns:xlink="http://www.w3.org/1999/xlink" width="600" height="370" xmlns:v="https://vecta.io/nano"><style><![CDATA[.B{writing-mode:lr-tb}.C{fill:#000}.D{font-family:Arial}.E{font-size:24px}.F{stroke-width:3.625}]]></style><g fill="none"><g stroke="#000"><g class="F"><path d="M38.362 322.205h535.645m-14.073 9.063l18.125-9.063-18.125-9.062"/><path d="M74.612 358.455V40.311m9.062 14.072l-9.062-18.125-9.062 18.125"/></g><g stroke-width="1.813" stroke-dasharray="7.25"><path d="M74.612 285.955h471.25m-471.25-36.25h471.25m-471.25-36.25h471.25m-471.25-36.25h471.25m-471.25-36.25h471.25m-471.25-36.25h471.25m-471.25-36.25h471.25"/><path d="M110.862 322.205V68.455m36.25 253.75V68.455m36.25 253.75V68.455m36.25 253.75V68.455m36.25 253.75V68.455m36.25 253.75V68.455m36.25 253.75V68.455m36.25 253.75V68.455m36.25 253.75V68.455m36.25 253.75V68.455m36.25 253.75V68.455m36.25 253.75V68.455m36.25 253.75V68.455"/></g></g><path d="M74.612 322.205c10.832 0 36.25-326.25 108.75-145s108.75-253.75 181.25-36.25 108.75-72.5 181.25 72.5" stroke="#c1c1c1" class="F"/></g><text y="547.049" x="650.995" xml:space="preserve" font-size="36" font-family="Sans" class="B C"><tspan y="360.455" x="572.331">t</tspan></text><text xml:space="preserve" x="87.993" y="222.004" font-size="36.83" class="B C D"><tspan x="9.329" y="35.41">x[t]</tspan></text><path d="M110.862 322.246V181.807m36.25 140.439V143.807m36.25 178.439V181.807m36.25 140.439V217.807m72.5 104.439V107.807m36.25 214.439V71.807m-72.5 250.439V181.807m108.75 140.439V143.807m36.25 178.439V217.807m36.25 104.439V217.807m36.25 104.439V181.807m36.25 140.439V181.807m36.25 140.439V217.807" fill="none" stroke="red" stroke-width="3.543"/><text y="481.174" x="132.184" xml:space="preserve" class="B C D E"><tspan y="294.58" x="53.52">1</tspan></text><text xml:space="preserve" x="129.044" y="444.924" class="B C D E"><tspan x="50.38" y="258.33">2</tspan></text><text xml:space="preserve" x="128.868" y="408.674" class="B C D E"><tspan x="50.204" y="222.08">3</tspan></text><text y="372.424" x="128.938" xml:space="preserve" class="B C D E"><tspan y="185.83" x="50.274">4</tspan></text><text xml:space="preserve" x="128.739" y="336.174" class="B C D E"><tspan x="50.075" y="149.58">5</tspan></text><text y="299.924" x="128.88" xml:space="preserve" class="B C D E"><tspan y="113.33" x="50.216">6</tspan></text><text xml:space="preserve" x="128.868" y="263.528" class="B C D E"><tspan x="50.204" y="76.934">7</tspan></text><text xml:space="preserve" x="128.926" y="537.174" class="B C D E"><tspan x="50.262" y="350.58">0</tspan></text><text y="537.467" x="183.749" xml:space="preserve" class="B C D E"><tspan y="350.873" x="105.085">1</tspan></text><text xml:space="preserve" x="219.383" y="537.467" class="B C D E"><tspan x="140.719" y="350.873">2</tspan></text><text y="537.163" x="255.393" xml:space="preserve" class="B C D E"><tspan y="350.569" x="176.729">3</tspan></text><text xml:space="preserve" x="292.03" y="537.467" class="B C D E"><tspan x="213.366" y="350.873">4</tspan></text><text y="537.174" x="327.835" xml:space="preserve" class="B C D E"><tspan y="350.58" x="249.171">5</tspan></text><text xml:space="preserve" x="364.202" y="537.174" class="B C D E"><tspan x="285.538" y="350.58">6</tspan></text><text y="537.467" x="400.329" xml:space="preserve" class="B C D E"><tspan y="350.873" x="321.665">7</tspan></text><text xml:space="preserve" x="436.643" y="537.174" class="B C D E"><tspan x="357.979" y="350.58">8</tspan></text><text y="537.174" x="472.881" xml:space="preserve" class="B C D E"><tspan y="350.58" x="394.217">9</tspan></text><text xml:space="preserve" x="501.69" y="537.174" class="B C D E"><tspan x="423.026" y="350.58">10</tspan></text><text y="537.467" x="539.569" xml:space="preserve" class="B C D E"><tspan y="350.873" x="460.905">11</tspan></text><text xml:space="preserve" x="574.249" y="537.467" class="B C D E"><tspan x="495.585" y="350.873">12</tspan></text><text y="537.163" x="610.411" xml:space="preserve" class="B C D E"><tspan y="350.569" x="531.747">13</tspan></text><g stroke="red" fill="red" fill-rule="evenodd"><use xlink:href="#B"/><use xlink:href="#B" x="36.25" y="-36.25"/><use xlink:href="#B" x="72.5"/><use xlink:href="#B" x="108.75" y="36.25"/><use xlink:href="#B" x="145"/><use xlink:href="#B" x="181.25" y="-72.5"/><use xlink:href="#B" x="217.5" y="-110.277"/><use xlink:href="#B" x="253.75" y="-36.25"/><use xlink:href="#B" x="290" y="36.25"/><use xlink:href="#B" x="326.25" y="36.25"/><use xlink:href="#B" x="362.5"/><use xlink:href="#B" x="398.75"/><use xlink:href="#B" x="435" y="36.25"/></g><defs ><path id="B" d="M117.37 177.206a6.51 6.51 0 0 1-9.764 5.64 6.51 6.51 0 0 1 0-11.281 6.51 6.51 0 0 1 9.764 5.64z"/></defs></svg>