<?xml version="1.0" encoding="UTF-8" standalone="no"?>
<!-- Created with Serif DrawPlus 11, 0, 3, 23 (Feb 25, 14:12:55) (http://www.serif.com) -->
<svg version="1.1" xmlns="http://www.w3.org/2000/svg" xmlns:xlink="http://www.w3.org/1999/xlink" xmlns:inkscape="http://www.inkscape.org/namespaces/inkscape" width="210.069" height="202.321">
	<g id="dp_group001" transform="matrix(1,0,0,1,-118.344,-65.2347)">
		<text id="dp_text001" transform="matrix(1,1.13311e-015,-1.13309e-015,1,275.396,187.417)" xml:space="preserve" fill="black" font-family="Arial" font-size="11" font-weight="400" x="0" y="0">5</text>
		<text id="dp_text002" transform="matrix(1,1.13311e-015,-1.13309e-015,1,275.396,187.417)" xml:space="preserve" fill="black" font-family="Universal Math 1" font-size="11" font-weight="400" x="5.87333" y="0"> </text>
		<text id="dp_text003" transform="matrix(1,1.13311e-015,-1.13309e-015,1,258.619,187.417)" xml:space="preserve" fill="black" font-family="Arial" font-size="11" font-weight="400" x="0" y="0">4</text>
		<text id="dp_text004" transform="matrix(1,1.13311e-015,-1.13309e-015,1,258.619,187.417)" xml:space="preserve" fill="black" font-family="Universal Math 1" font-size="11" font-weight="400" x="5.87333" y="0"> </text>
		<g id="dp_group006">
			<text id="dp_text005" transform="matrix(0.866026,-0.499999,0.500001,0.866025,266.169,141.023)" xml:space="preserve" fill="black" font-family="Arial" font-size="11" font-weight="400" x="0" y="0.00133333">Re</text>
			<text id="dp_text006" transform="matrix(0.866026,-0.499999,0.500001,0.866025,266.169,141.023)" xml:space="preserve" fill="black" font-family="Arial" font-size="11" font-weight="400" x="13.492" y="0.00133333">(</text>
			<text id="dp_text007" transform="matrix(0.866026,-0.499999,0.500001,0.866025,266.169,141.023)" xml:space="preserve" fill="black" font-family="Arial" font-size="11" font-weight="400" font-style="italic" x="17.0053" y="0.00133333">    </text>
			<text id="dp_text008" transform="matrix(0.866026,-0.499999,0.500001,0.866025,266.169,141.023)" xml:space="preserve" fill="black" font-family="Arial" font-size="11" font-weight="400" x="28.7013" y="0.00133333">)</text>
			<text id="dp_text009" transform="matrix(0.866026,-0.499999,0.500001,0.866025,266.169,141.023)" xml:space="preserve" fill="black" font-family="Universal Math 1" font-size="11" font-weight="400" x="32.2147" y="0.00133333"> </text>
			<text id="dp_text010" transform="matrix(0.866026,-0.499999,0.500001,0.866025,280.994,132.638)" xml:space="preserve" fill="black" font-family="Arial" font-size="11" font-weight="400" font-style="italic" x="0" y="0">A</text>
			<text id="dp_text011" transform="matrix(0.866026,-0.499999,0.500001,0.866025,280.994,132.638)" xml:space="preserve" fill="black" font-family="Universal Math 1" font-size="11" font-weight="400" x="7.02667" y="0"> </text>
			<text id="dp_text012" transform="matrix(0.866026,-0.499999,0.500001,0.866025,289.097,131.043)" xml:space="preserve" fill="black" font-family="Arial" font-size="7" font-weight="400" font-style="italic" x="0" y="0">k</text>
			<text id="dp_text013" transform="matrix(0.866026,-0.499999,0.500001,0.866025,289.097,131.043)" xml:space="preserve" fill="black" font-family="Universal Math 1" font-size="7" font-weight="400" font-style="italic" x="3.31067" y="0"> </text>
		</g>
		<g id="dp_group016">
			<text id="dp_text014" transform="matrix(1,0,0,1,237.337,85.5994)" xml:space="preserve" fill="#d90000" font-family="Arial" font-size="11" font-weight="400" font-style="italic" x="0" y="0">A</text>
			<text id="dp_text015" transform="matrix(1,0,0,1,237.337,85.5994)" xml:space="preserve" fill="#d90000" font-family="Universal Math 1" font-size="11" font-weight="400" x="7.02667" y="0"> </text>
			<text id="dp_text016" transform="matrix(1,0,0,1,245.152,88.2703)" xml:space="preserve" fill="#d90000" font-family="Arial" font-size="7" font-weight="400" x="0" y="0">2</text>
			<text id="dp_text017" transform="matrix(1,0,0,1,245.152,88.2703)" xml:space="preserve" fill="#d90000" font-family="Universal Math 1" font-size="7" font-weight="400" x="3.68" y="0"> </text>
		</g>
		<g id="dp_group021">
			<path id="dp_path022" fill="none" fill-rule="evenodd" stroke="#d90000" stroke-width="0.666667" d="M 254.395,88.788 L 254.381,104.053"/>
			<path id="dp_path023" fill="none" fill-rule="evenodd" stroke="#d90000" stroke-width="0.666667" d="M 265.308,88.788 L 270.415,96.044 L 265.296,104.055"/>
			<text id="dp_text018" transform="matrix(1,0,0,1,256.005,100.413)" xml:space="preserve" fill="#d90000" font-family="Arial" font-size="11" font-weight="400" font-style="italic" x="0" y="0">A</text>
			<text id="dp_text019" transform="matrix(1,0,0,1,256.005,100.413)" xml:space="preserve" fill="#d90000" font-family="Universal Math 1" font-size="11" font-weight="400" x="7.02667" y="0"> </text>
			<path id="dp_path026" fill="none" fill-rule="evenodd" stroke="#d90000" stroke-width="0.666667" d="M 242.444,88.788 L 237.337,96.044 L 242.456,104.055"/>
			<text id="dp_text020" transform="matrix(1,0,0,1,242.831,100.413)" xml:space="preserve" fill="#d90000" font-family="Arial" font-size="11" font-weight="400" font-style="italic" x="0" y="0">e</text>
			<text id="dp_text021" transform="matrix(1,0,0,1,242.831,100.413)" xml:space="preserve" fill="#d90000" font-family="Universal Math 1" font-size="11" font-weight="400" font-style="italic" x="5.87467" y="0"> </text>
			<text id="dp_text022" transform="matrix(1,0,0,1,248.67,103.084)" xml:space="preserve" fill="#d90000" font-family="Arial" font-size="7" font-weight="400" x="0" y="0">2</text>
			<text id="dp_text023" transform="matrix(1,0,0,1,248.67,103.084)" xml:space="preserve" fill="#d90000" font-family="Universal Math 1" font-size="7" font-weight="400" x="3.68" y="0"> </text>
		</g>
		<text id="dp_text024" transform="matrix(1,0,0,1,251.17,85.5994)" xml:space="preserve" fill="#d90000" font-family="Arial" font-size="11" font-weight="400" x="0" y="0">=</text>
		<text id="dp_text025" transform="matrix(1,0,0,1,251.17,85.5994)" xml:space="preserve" fill="#d90000" font-family="Universal Math 1" font-size="11" font-weight="400" x="6.156" y="0"> </text>
		<g id="dp_group033">
			<g id="dp_group034">
				<text id="dp_text026" transform="matrix(1,0,0,1,244.824,248.468)" xml:space="preserve" fill="#d90000" font-family="Arial" font-size="11" font-weight="400" font-style="italic" x="0" y="0">A</text>
				<text id="dp_text027" transform="matrix(1,0,0,1,244.824,248.468)" xml:space="preserve" fill="#d90000" font-family="Universal Math 1" font-size="11" font-weight="400" x="7.02667" y="0"> </text>
				<text id="dp_text028" transform="matrix(1,0,0,1,252.639,251.139)" xml:space="preserve" fill="#d90000" font-family="Arial" font-size="7" font-weight="400" x="0" y="0">6</text>
				<text id="dp_text029" transform="matrix(1,0,0,1,252.639,251.139)" xml:space="preserve" fill="#d90000" font-family="Universal Math 1" font-size="7" font-weight="400" x="3.68133" y="0"> </text>
			</g>
			<path id="dp_path039" fill="none" fill-rule="evenodd" stroke="#d90000" stroke-width="0.666667" d="M 261.881,251.657 L 261.869,266.923"/>
			<path id="dp_path040" fill="none" fill-rule="evenodd" stroke="#d90000" stroke-width="0.666667" d="M 272.795,251.657 L 277.901,258.913 L 272.783,266.923"/>
			<text id="dp_text030" transform="matrix(1,0,0,1,263.492,263.282)" xml:space="preserve" fill="#d90000" font-family="Arial" font-size="11" font-weight="400" font-style="italic" x="0" y="0">A</text>
			<text id="dp_text031" transform="matrix(1,0,0,1,263.492,263.282)" xml:space="preserve" fill="#d90000" font-family="Universal Math 1" font-size="11" font-weight="400" x="7.02667" y="0"> </text>
			<path id="dp_path043" fill="none" fill-rule="evenodd" stroke="#d90000" stroke-width="0.666667" d="M 249.931,251.657 L 244.824,258.913 L 249.944,266.923"/>
			<text id="dp_text032" transform="matrix(1,0,0,1,250.318,263.282)" xml:space="preserve" fill="#d90000" font-family="Arial" font-size="11" font-weight="400" font-style="italic" x="0" y="0">e</text>
			<text id="dp_text033" transform="matrix(1,0,0,1,250.318,263.282)" xml:space="preserve" fill="#d90000" font-family="Universal Math 1" font-size="11" font-weight="400" font-style="italic" x="5.87467" y="0"> </text>
			<text id="dp_text034" transform="matrix(1,0,0,1,256.157,265.953)" xml:space="preserve" fill="#d90000" font-family="Arial" font-size="7" font-weight="400" x="0" y="0">6</text>
			<text id="dp_text035" transform="matrix(1,0,0,1,256.157,265.953)" xml:space="preserve" fill="#d90000" font-family="Universal Math 1" font-size="7" font-weight="400" x="3.68133" y="0"> </text>
			<text id="dp_text036" transform="matrix(1,0,0,1,258.657,248.468)" xml:space="preserve" fill="#d90000" font-family="Arial" font-size="11" font-weight="400" x="0" y="0">=</text>
			<text id="dp_text037" transform="matrix(1,0,0,1,258.657,248.468)" xml:space="preserve" fill="#d90000" font-family="Universal Math 1" font-size="11" font-weight="400" x="6.156" y="0"> </text>
		</g>
		<g id="dp_group050">
			<text id="dp_text038" transform="matrix(3.1157e-006,-1,1,-3.11573e-006,194.519,95.6529)" xml:space="preserve" fill="black" font-family="Arial" font-size="11" font-weight="400" x="0" y="0.00133333">Im</text>
			<text id="dp_text039" transform="matrix(3.1157e-006,-1,1,-3.11573e-006,194.519,95.6529)" xml:space="preserve" fill="black" font-family="Arial" font-size="11" font-weight="400" x="11.6947" y="0.00133333">(</text>
			<text id="dp_text040" transform="matrix(3.1157e-006,-1,1,-3.11573e-006,194.519,95.6529)" xml:space="preserve" fill="black" font-family="Arial" font-size="11" font-weight="400" font-style="italic" x="15.208" y="0.00133333">    </text>
			<text id="dp_text041" transform="matrix(3.1157e-006,-1,1,-3.11573e-006,194.519,95.6529)" xml:space="preserve" fill="black" font-family="Arial" font-size="11" font-weight="400" x="26.904" y="0.00133333">)</text>
			<text id="dp_text042" transform="matrix(3.1157e-006,-1,1,-3.11573e-006,194.519,95.6529)" xml:space="preserve" fill="black" font-family="Universal Math 1" font-size="11" font-weight="400" x="30.4173" y="0.00133333"> </text>
			<text id="dp_text043" transform="matrix(3.1157e-006,-1,1,-3.11573e-006,194.669,80.9846)" xml:space="preserve" fill="black" font-family="Arial" font-size="11" font-weight="400" font-style="italic" x="0" y="0">A</text>
			<text id="dp_text044" transform="matrix(3.1157e-006,-1,1,-3.11573e-006,194.669,80.9846)" xml:space="preserve" fill="black" font-family="Universal Math 1" font-size="11" font-weight="400" x="7.02667" y="0"> </text>
			<text id="dp_text045" transform="matrix(3.1157e-006,-1,1,-3.11573e-006,197.34,73.1696)" xml:space="preserve" fill="black" font-family="Arial" font-size="7" font-weight="400" font-style="italic" x="0" y="0">k</text>
			<text id="dp_text046" transform="matrix(3.1157e-006,-1,1,-3.11573e-006,197.34,73.1696)" xml:space="preserve" fill="black" font-family="Universal Math 1" font-size="7" font-weight="400" font-style="italic" x="3.31067" y="0"> </text>
		</g>
		<text id="dp_text047" transform="matrix(1.00114,0,0,1,322.566,182.863)" xml:space="preserve" fill="black" font-family="Arial" font-size="11" font-weight="400" font-style="italic" x="0" y="0">k </text>
		<g id="dp_group061">
			<g id="dp_group062">
				<path id="dp_path063" fill="black" fill-rule="evenodd" d="M 255.76,142.315 L 256.4,143.484 L 257.679,145.824 L 261.929,139.701 L 254.48,139.975 Z "/>
				<path id="dp_path064" fill="black" d="M 255.76,142.315 L 118.344,217.451 L 118.984,218.621 L 256.4,143.485 Z "/>
			</g>
		</g>
		<g id="dp_group065">
			<g id="dp_group066">
				<g id="dp_group067">
					<path id="dp_path068" fill="#fba70d" fill-rule="evenodd" d="M 177.296,198.956 L 176.629,197.801 L 175.296,195.492 L 171.189,201.712 L 178.629,201.265 Z "/>
					<path id="dp_path069" fill="#fba70d" d="M 177.296,198.956 L 211.365,179.287 L 210.699,178.132 L 176.629,197.801 Z "/>
				</g>
			</g>
			<g id="dp_group070">
				<g id="dp_group071">
					<path id="dp_path072" fill="#0010fa" fill-rule="evenodd" d="M 210.364,147.825 L 211.697,147.825 L 214.364,147.825 L 211.031,141.159 L 207.697,147.825 Z "/>
					<path id="dp_path073" fill="#0010fa" d="M 210.364,147.825 L 210.364,178.841 L 211.697,178.841 L 211.697,147.825 Z "/>
				</g>
			</g>
		</g>
		<g id="dp_group074">
			<g id="dp_group075">
				<g id="dp_group076">
					<path id="dp_path077" fill="#fba70d" fill-rule="evenodd" d="M 296.164,166.839 L 296.797,168.012 L 298.065,170.357 L 302.347,164.257 L 294.897,164.492 Z "/>
					<path id="dp_path078" fill="#fba70d" d="M 296.164,166.839 L 274.931,178.308 L 275.565,179.481 L 296.799,168.012 Z "/>
				</g>
			</g>
			<g id="dp_group079">
				<g id="dp_group080">
					<path id="dp_path081" fill="#0010fa" fill-rule="evenodd" d="M 274.581,145.175 L 275.915,145.175 L 278.581,145.175 L 275.248,138.508 L 271.915,145.175 Z "/>
					<path id="dp_path082" fill="#0010fa" d="M 274.581,145.175 L 274.581,178.873 L 275.915,178.873 L 275.915,145.175 Z "/>
				</g>
			</g>
		</g>
		<g id="dp_group083">
			<g id="dp_group084">
				<path id="dp_path085" fill="#d90000" fill-rule="evenodd" d="M 250.857,110.841 L 252.115,111.287 L 254.183,113.433 L 253.044,106.665 L 247.899,111.208 Z "/>
				<path id="dp_path086" fill="#d90000" d="M 250.859,110.841 L 226.951,178.367 L 228.207,178.812 L 252.115,111.287 Z "/>
			</g>
		</g>
		<g id="dp_group087">
			<g id="dp_group088">
				<g id="dp_group089">
					<path id="dp_path090" fill="#fba70d" fill-rule="evenodd" d="M 247.565,166.196 L 248.232,167.351 L 249.565,169.66 L 253.672,163.44 L 246.232,163.887 Z "/>
					<path id="dp_path091" fill="#fba70d" d="M 247.565,166.196 L 226.619,178.291 L 227.285,179.445 L 248.232,167.351 Z "/>
				</g>
			</g>
			<g id="dp_group092">
				<g id="dp_group093">
					<path id="dp_path094" fill="#0010fa" fill-rule="evenodd" d="M 226.285,128.484 L 227.619,128.484 L 230.285,128.484 L 226.952,121.817 L 223.619,128.484 Z "/>
					<path id="dp_path095" fill="#0010fa" d="M 226.285,128.484 L 226.285,178.869 L 227.619,178.869 L 227.619,128.484 Z "/>
				</g>
			</g>
		</g>
		<g id="dp_group096">
			<g id="dp_group097">
				<path id="dp_path098" fill="black" fill-rule="evenodd" d="M 312.963,178.205 L 312.963,179.539 L 312.963,182.205 L 319.629,178.872 L 312.963,175.539 Z "/>
				<path id="dp_path099" fill="black" d="M 312.963,178.205 L 165.988,178.205 L 165.988,179.539 L 312.963,179.539 Z "/>
			</g>
		</g>
		<g id="dp_group100">
			<g id="dp_group101">
				<path id="dp_path102" fill="black" fill-rule="evenodd" d="M 189.628,107.201 L 190.961,107.201 L 193.628,107.201 L 190.295,100.535 L 186.961,107.201 Z "/>
				<path id="dp_path103" fill="black" d="M 189.628,107.201 L 189.628,257.204 L 190.961,257.204 L 190.961,107.201 Z "/>
			</g>
		</g>
		<g id="dp_group104">
			<g id="dp_group105">
				<g id="dp_group106">
					<path id="dp_path107" fill="#0010fa" fill-rule="evenodd" d="M 259.884,207.708 L 258.551,207.708 L 255.884,207.708 L 259.217,214.375 L 262.551,207.708 Z "/>
					<path id="dp_path108" fill="#0010fa" d="M 259.884,207.708 L 259.884,179.097 L 258.551,179.097 L 258.551,207.708 Z "/>
				</g>
			</g>
			<g id="dp_group109">
				<g id="dp_group110">
					<path id="dp_path111" fill="#fba70d" fill-rule="evenodd" d="M 266.357,174.001 L 267.021,175.157 L 268.349,177.471 L 272.471,171.26 L 265.029,171.689 Z "/>
					<path id="dp_path112" fill="#fba70d" d="M 266.357,174.001 L 258.885,178.291 L 259.549,179.448 L 267.021,175.159 Z "/>
				</g>
			</g>
		</g>
		<g id="dp_group113">
			<g id="dp_group114">
				<g id="dp_group115">
					<path id="dp_path116" fill="#0010fa" fill-rule="evenodd" d="M 292.155,219.136 L 290.821,219.136 L 288.155,219.136 L 291.488,225.803 L 294.821,219.136 Z "/>
					<path id="dp_path117" fill="#0010fa" d="M 292.155,219.136 L 292.155,179.449 L 290.821,179.449 L 290.821,219.136 Z "/>
				</g>
			</g>
			<g id="dp_group118">
				<g id="dp_group119">
					<path id="dp_path120" fill="#fba70d" fill-rule="evenodd" d="M 273.113,190.612 L 272.447,189.457 L 271.113,187.148 L 267.007,193.368 L 274.447,192.921 Z "/>
					<path id="dp_path121" fill="#fba70d" d="M 273.113,190.612 L 292.443,179.452 L 291.776,178.297 L 272.447,189.457 Z "/>
				</g>
			</g>
		</g>
		<g id="dp_group122">
			<g id="dp_group123">
				<path id="dp_path124" fill="#d90000" fill-rule="evenodd" d="M 269.997,235.236 L 268.761,234.735 L 266.791,232.499 L 267.627,239.311 L 272.969,235.001 Z "/>
				<path id="dp_path125" fill="#d90000" d="M 269.996,235.236 L 292.727,179.128 L 291.492,178.627 L 268.761,234.735 Z "/>
			</g>
		</g>
		<text id="dp_text048" transform="matrix(1,1.13311e-015,-1.13309e-015,1,225.063,187.417)" xml:space="preserve" fill="black" font-family="Arial" font-size="11" font-weight="400" x="0" y="0">2</text>
		<text id="dp_text049" transform="matrix(1,1.13311e-015,-1.13309e-015,1,225.063,187.417)" xml:space="preserve" fill="black" font-family="Universal Math 1" font-size="11" font-weight="400" x="5.87467" y="0"> </text>
		<text id="dp_text050" transform="matrix(1,1.13311e-015,-1.13309e-015,1,208.286,187.417)" xml:space="preserve" fill="black" font-family="Arial" font-size="11" font-weight="400" x="0" y="0">1</text>
		<text id="dp_text051" transform="matrix(1,1.13311e-015,-1.13309e-015,1,208.286,187.417)" xml:space="preserve" fill="black" font-family="Universal Math 1" font-size="11" font-weight="400" x="5.87333" y="0"> </text>
		<text id="dp_text052" transform="matrix(1,1.13311e-015,-1.13309e-015,1,241.841,187.417)" xml:space="preserve" fill="black" font-family="Arial" font-size="11" font-weight="400" x="0" y="0">3</text>
		<text id="dp_text053" transform="matrix(1,1.13311e-015,-1.13309e-015,1,241.841,187.417)" xml:space="preserve" fill="black" font-family="Universal Math 1" font-size="11" font-weight="400" x="5.87333" y="0"> </text>
		<text id="dp_text054" transform="matrix(1,1.13311e-015,-1.13309e-015,1,292.174,187.417)" xml:space="preserve" fill="black" font-family="Arial" font-size="11" font-weight="400" x="0" y="0">6</text>
		<text id="dp_text055" transform="matrix(1,1.13311e-015,-1.13309e-015,1,292.174,187.417)" xml:space="preserve" fill="black" font-family="Universal Math 1" font-size="11" font-weight="400" x="5.87333" y="0"> </text>
		<g id="dp_group134">
			<g id="dp_group135">
				<g id="dp_group136">
					<path id="dp_path137" fill="#0010fa" fill-rule="evenodd" d="M 242.803,150.684 L 244.136,150.684 L 246.803,150.684 L 243.469,144.017 L 240.136,150.684 Z "/>
					<path id="dp_path138" fill="#0010fa" d="M 242.803,150.684 L 242.803,179.444 L 244.136,179.444 L 244.136,150.684 Z "/>
				</g>
			</g>
			<g id="dp_group139">
				<g id="dp_group140">
					<path id="dp_path141" fill="#fba70d" fill-rule="evenodd" d="M 222.509,192.099 L 221.843,190.944 L 220.509,188.635 L 216.403,194.855 L 223.843,194.408 Z "/>
					<path id="dp_path142" fill="#fba70d" d="M 222.509,192.099 L 244.424,179.447 L 243.757,178.292 L 221.843,190.944 Z "/>
				</g>
			</g>
		</g>
	</g>
</svg>