<?xml version="1.0" encoding="UTF-8" standalone="no"?>
<svg xmlns="http://www.w3.org/2000/svg" width="800px" height="600px">
  <g style="fill-rule:evenodd">
    <path style="fill:none;stroke:#000000;stroke-width:2.28967166;stroke-linejoin:miter;stroke-miterlimit:4;" d="M 85.84,296.76 L 29.18,296.76"/>
    <path d="M 162.02,159.59 C 124.21,229.20 126.58,286.93 157.73,334.95 C 358.64,376.07 518.75,380.75 708.84,334.95 C 733.88,272.67 735.67,225.69 706.70,159.59 C 531.70,103.76 350.48,103.14 162.02,159.59 z " style="opacity:0.5;fill:#b3b3b3;stroke:none"/>
    <path style="opacity:0.5;fill:#b3b3b3;stroke:#000000;stroke-width:1.73px;stroke-linejoin:miter;" d="M 640.88,268.09 C 651.79,213.16 674.40,179.75 703.97,159.17 C 726.22,201.10 744.68,246.17 708.18,336.89 L 643.68,442.95 C 672.91,373.65 663.72,318.38 640.88,268.09 z "/>
    <path style="fill:none;stroke:#000000;stroke-width:2.6;stroke-linejoin:miter;stroke-miterlimit:4;stroke-dasharray:10.40, 10.40;stroke-dashoffset:0;" d="M 90.50,296.75 L 117.14,296.75"/>
    <path d="M 156.83,334.02 C 145.91,388.95 123.31,422.36 93.73,442.95 C 71.20,401.01 53.68,361.67 96.54,270.96 L 162.43,159.17 C 126.18,230.26 126.07,285.76 156.83,334.02 z " style="opacity:0.5;fill:#b3b3b3;stroke:none;"/>
    <path style="fill:none;stroke:#000000;stroke-width:1.73;stroke-linejoin:miter;stroke-miterlimit:4;stroke-dasharray:10.40, 10.40;stroke-dashoffset:0;" d="M 157.16,335.46 C 147.36,376.77 131.19,415.21 94.06,444.38"/>
    <path style="fill:none;stroke:#000000;stroke-width:1.73;stroke-linejoin:miter;stroke-miterlimit:4;stroke-dasharray:10.40, 10.40;stroke-dashoffset:0;" d="M 161.36,159.17 C 132.95,221.23 123.64,281.00 158.56,335.46 C 342.70,380.18 526.84,378.63 710.99,335.46"/>
    <path style="opacity:0.5;fill:#b3b3b3;stroke:#000000;stroke-width:2.6;stroke-linejoin:miter;stroke-miterlimit:4;" d="M 161.36,159.17 L 96.87,270.96 C 270.87,218.34 448.92,207.91 640.63,268.65 C 653.36,206.74 676.39,179.33 703.97,159.17 C 516.98,102.81 337.16,112.53 161.36,159.17 z "/>
    <path style="fill:none;stroke:#000000;stroke-width:2.6;stroke-linejoin:miter;stroke-miterlimit:4;" d="M 388.50,179.23 L 388.50,67.44"/>
    <path style="fill:#090202;stroke:none;" d="M 30.24,46.58 L 7.1553738,47.65 L -15.92,48.72 L -5.3125009,28.19 L 5.3046385,7.6706483 L 17.77,27.12 L 30.24,46.58 z " transform="matrix(0.224416,2.933387e-2,-1.102822e-2,0.596923,387.44,44.51)"/>
    <path d="M 388.50,477.66 L 388.50,549.32" style="fill:none;stroke:#000000;stroke-width:2.6;stroke-linejoin:miter;stroke-miterlimit:4;"/>
    <path transform="matrix(0.224416,-2.933387e-2,-1.102822e-2,-0.596923,387.44,572.25)" d="M 30.24,46.58 L 7.1553738,47.65 L -15.92,48.72 L -5.3125009,28.19 L 5.3046385,7.6706483 L 17.77,27.12 L 30.24,46.58 z " style="fill:#090202;stroke:none;"/>
    <path style="fill:none;stroke:#000000;stroke-width:2.6;stroke-linejoin:miter;stroke-miterlimit:4;stroke-dasharray:15.61, 5.20334303;stroke-dashoffset:0;" d="M 388.50,434.65 L 388.50,477.65"/>
    <path style="opacity:0.5;fill:#b3b3b3;stroke:#000000;stroke-width:2.81847763;stroke-linejoin:miter;stroke-miterlimit:4;" d="M 97.52,269.95 C 59.71,339.56 62.09,397.28 93.24,445.31 C 294.14,486.43 454.25,491.11 644.34,445.31 C 669.38,383.03 671.17,336.05 642.20,269.95 C 467.20,214.11 285.99,213.50 97.52,269.95 z "/>
    <path d="M 690.60,289.59 L 775.31,289.59" style="fill:none;stroke:#000000;stroke-width:2.28967166;stroke-linejoin:miter;stroke-miterlimit:4;"/>
    <path transform="matrix(-2.869686e-2,-0.229398,-0.58396,1.127303e-2,796.96,290.21)" d="M 30.24,46.58 L 7.1553738,47.65 L -15.92,48.72 L -5.3125009,28.19 L 5.3046385,7.6706483 L 17.77,27.12 L 30.24,46.58 z " style="fill:#090202;stroke:none;"/>
    <path style="fill:#090202;stroke:none;" d="M 30.24,46.58 L 7.1553738,47.65 L -15.92,48.72 L -5.3125009,28.19 L 5.3046385,7.6706483 L 17.77,27.12 L 30.24,46.58 z " transform="matrix(2.869686e-2,-0.229398,0.58396,1.127303e-2,7.628751,297.38)"/>
    <text style="font-size:60.00;font-style:oblique;font-variant:normal;font-weight:normal;font-stretch:normal;text-align:start;line-height:125%;writing-mode:lr;text-anchor:start;fill:#000000;stroke:none;font-family:Bitstream Vera Sans" x="368.62" y="313.06" transform="scale(0.989082,1.011038)"><tspan x="368.62" y="313.06">V</tspan></text>
    <text style="font-size:59.99;font-style:oblique;font-variant:normal;font-weight:normal;font-stretch:normal;text-align:start;line-height:125%;writing-mode:lr;text-anchor:start;fill:#000000;stroke:none;font-family:Bitstream Vera Sans" x="687.33" y="151.92" transform="scale(1.009831,0.990265)"><tspan x="687.33" y="151.92">S</tspan></text>
    <text style="font-size:46px;font-style:oblique;font-variant:normal;font-weight:normal;font-stretch:normal;text-align:start;line-height:125%;writing-mode:lr-tb;text-anchor:start;fill:#000000;stroke:none;font-family:Bitstream Vera Sans" x="406.97" y="85.13" transform="scale(0.989082,1.011038)"><tspan x="406.97" y="85.13">n</tspan></text>
    <text y="320.45" x="768.45" style="font-size:46px;font-style:oblique;font-variant:normal;font-weight:normal;font-stretch:normal;text-align:start;line-height:125%;writing-mode:lr-tb;text-anchor:start;fill:#000000;stroke:none;font-family:Bitstream Vera Sans" transform="scale(0.989082,1.011038)"><tspan y="320.45" x="768.45">n</tspan></text>
    <text transform="scale(0.989082,1.011038)" y="283.71" x="39.49" style="font-size:46px;font-style:oblique;font-variant:normal;font-weight:normal;font-stretch:normal;text-align:start;line-height:125%;writing-mode:lr-tb;text-anchor:start;fill:#000000;stroke:none;font-family:Bitstream Vera Sans"><tspan y="283.71" x="39.49">n</tspan></text>
    <text style="font-size:46px;font-style:oblique;font-variant:normal;font-weight:normal;font-stretch:normal;text-align:start;line-height:125%;writing-mode:lr-tb;text-anchor:start;fill:#000000;stroke:none;font-family:Bitstream Vera Sans" x="402.30" y="534.79"><tspan x="402.30" y="534.79">n</tspan></text>
    <path style="opacity:0.49180328;fill:#b3b3b3;stroke:none;" d="M 91.91,446.27 C 123.31,423.44 146.62,389.05 156.52,335.50 C 337.29,378.96 521.14,379.35 708.06,336.65 C 688.24,369.86 670.21,398.60 644.60,446.27 C 470.76,494.74 284.15,483.64 91.91,446.27 z "/>
    <path style="fill:none;stroke:#000000;stroke-width:1.39999998;stroke-linejoin:miter;stroke-miterlimit:4;" d="M 158.83,158.96 C 147.43,184.85 117.80,233.52 95.37,273.19 C 63.76,330.88 60.09,388.58 93.06,446.27 C 279.19,482.29 463.45,493.03 643.45,446.27 C 662.47,405.07 664.22,373.73 661.91,344.73"/>
    <path style="fill:none;stroke:#000000;stroke-width:1.5;stroke-linejoin:miter;stroke-miterlimit:4;" d="M 158.83,158.96 C 328.59,115.22 507.24,98.66 704.60,158.96 C 731.15,206.16 739.77,261.85 708.06,336.65 L 642.29,445.11"/>
  </g>
</svg>
