<?xml version="1.0" encoding="UTF-8" standalone="no"?>
<!-- Created with Serif DrawPlus 11, 0, 3, 23 (Feb 25, 14:12:55) (http://www.serif.com) -->
<svg version="1.1" xmlns="http://www.w3.org/2000/svg" xmlns:xlink="http://www.w3.org/1999/xlink" xmlns:inkscape="http://www.inkscape.org/namespaces/inkscape" width="105.515" height="135.435">
	<g id="dp_group001" transform="matrix(1,0,0,1,-407.401,-60.6253)">
		<path id="dp_path002" fill="none" fill-rule="evenodd" stroke="#5b05d4" stroke-width="1.33333" d="M 417.956,126.828 C 427.64,129.772 435.312,137.209 438.564,146.803"/>
		<text id="dp_text001" transform="matrix(1,0,0,1,464.111,155.185)" xml:space="preserve" fill="#c60e0e" font-family="Arial" font-size="20" font-weight="700" x="0" y="0">a </text>
		<text id="dp_text002" transform="matrix(1,0,0,1,408.632,108.137)" xml:space="preserve" fill="#0000ab" font-family="Arial" font-size="20" font-weight="700" x="0" y="0">b </text>
		<text id="dp_text003" transform="matrix(1,0,0,1,478.243,85.2065)" xml:space="preserve" fill="#eb7005" font-family="Arial" font-size="20" font-weight="700" x="0" y="0">c</text>
		<text id="dp_text004" transform="matrix(1,0,0,1,478.243,85.2065)" xml:space="preserve" fill="#eb7005" font-family="Arial" font-size="20" font-weight="400" x="10.8933" y="0"> </text>
		<g id="dp_group007">
			<g id="dp_group008">
				<path id="dp_path009" fill="#c60e0e" fill-rule="evenodd" d="M 499.837,126.001 L 500.677,128.533 L 502.356,133.595 L 512.912,123.069 L 498.159,120.94 Z "/>
				<path id="dp_path010" fill="#c60e0e" d="M 409.096,158.909 L 500.677,128.533 L 499.837,126.003 L 408.256,156.379 Z "/>
			</g>
		</g>
		<g id="dp_group011">
			<g id="dp_group012">
				<path id="dp_path013" fill="#e19e01" fill-rule="evenodd" d="M 503.421,113.608 L 501.737,115.676 L 498.368,119.809 L 512.915,123.065 L 506.791,109.475 Z "/>
				<path id="dp_path014" fill="#e19e01" d="M 436.729,62.692 L 501.736,115.676 L 503.421,113.609 L 438.415,60.6253 Z "/>
			</g>
		</g>
		<g id="dp_group015">
			<g id="dp_group016">
				<path id="dp_path017" fill="#0000ab" fill-rule="evenodd" d="M 432.455,74.0467 L 435.008,74.816 L 440.115,76.3547 L 437.576,61.6653 L 427.348,72.5093 Z "/>
				<path id="dp_path018" fill="#0000ab" d="M 409.956,158.031 L 435.009,74.816 L 432.455,74.048 L 407.401,157.263 Z "/>
			</g>
		</g>
		<path id="dp_path019" fill="#5b05d4" fill-rule="evenodd" d="M 437.701,121.029 C 438.824,121.029 439.773,121.687 440.545,123.003 C 441.319,124.317 441.704,126.029 441.704,128.14 C 441.704,130.417 441.287,132.211 440.455,133.523 C 439.623,134.833 438.663,135.491 437.572,135.491 C 436.499,135.491 435.555,134.853 434.74,133.579 C 433.925,132.303 433.517,130.573 433.517,128.389 C 433.517,126.199 433.921,124.424 434.731,123.067 C 435.537,121.707 436.529,121.029 437.701,121.029 Z M 439.844,127.919 C 439.844,123.711 439.111,121.608 437.64,121.608 C 436.132,121.608 435.376,123.711 435.376,127.919 Z M 435.376,128.532 C 435.376,130.712 435.579,132.32 435.981,133.355 C 436.385,134.392 436.928,134.911 437.611,134.911 C 439.087,134.911 439.831,132.784 439.844,128.532 Z "/>
		<text id="dp_text005" transform="matrix(1,0,0,1,416.416,191.317)" xml:space="preserve" fill="#eb7005" font-family="Arial" font-size="20" font-weight="700" x="0" y="0">c</text>
		<text id="dp_text006" transform="matrix(1,0,0,1,416.416,191.317)" xml:space="preserve" fill="black" font-family="Arial" font-size="20" font-weight="400" x="10.8933" y="0"> = </text>
		<text id="dp_text007" transform="matrix(1,0,0,1,416.416,191.317)" xml:space="preserve" fill="#c60e0e" font-family="Arial" font-size="20" font-weight="700" x="33.152" y="0">a</text>
		<text id="dp_text008" transform="matrix(1,0,0,1,416.416,191.317)" xml:space="preserve" fill="#c60e0e" font-family="Arial" font-size="20" font-weight="400" x="44.0453" y="0"> </text>
		<text id="dp_text009" transform="matrix(1,0,0,1,416.416,191.317)" xml:space="preserve" fill="black" font-family="Arial" font-size="20" font-weight="400" x="49.4667" y="0">−</text>
		<text id="dp_text010" transform="matrix(1,0,0,1,416.416,191.317)" xml:space="preserve" fill="#c60e0e" font-family="Arial" font-size="20" font-weight="400" x="60.8827" y="0"> </text>
		<text id="dp_text011" transform="matrix(1,0,0,1,416.416,191.317)" xml:space="preserve" fill="#0000ab" font-family="Arial" font-size="20" font-weight="700" x="66.304" y="0">b</text>
		<text id="dp_text012" transform="matrix(1,0,0,1,416.416,191.317)" xml:space="preserve" fill="#5b05d4" font-family="Arial" font-size="20" font-weight="400" x="78.24" y="0"> </text>
	</g>
</svg>