<?xml version="1.0" encoding="UTF-8" standalone="no"?>
<!DOCTYPE svg PUBLIC "-//W3C//DTD SVG 1.0//EN" "http://www.w3.org/TR/2001/REC-SVG-20010904/DTD/svg10.dtd">
<svg
   xmlns:svg="http://www.w3.org/2000/svg"
   xmlns="http://www.w3.org/2000/svg"
   xmlns:xlink="http://www.w3.org/1999/xlink"
   version="1.0"
   width="670"
   height="764"
   id="svg1901">
  <defs
     id="defs1903">
    <linearGradient
       id="linearGradient5607">
      <stop
         style="stop-color:#000000;stop-opacity:0.16"
         offset="0"
         id="stop5609" />
      <stop
         style="stop-color:#000000;stop-opacity:0.66"
         offset="1"
         id="stop5611" />
    </linearGradient>
    <linearGradient
       id="linearGradient5589">
      <stop
         style="stop-color:#b7d350;stop-opacity:0.36"
         offset="0"
         id="stop5591" />
      <stop
         style="stop-color:#b7d350;stop-opacity:0.02"
         offset="1"
         id="stop5593" />
    </linearGradient>
    <linearGradient
       id="linearGradient5577">
      <stop
         style="stop-color:#c5bfc3;stop-opacity:1"
         offset="0"
         id="stop5579" />
      <stop
         style="stop-color:#6f6c73;stop-opacity:1"
         offset="0.677419"
         id="stop5587" />
      <stop
         style="stop-color:#191923;stop-opacity:1"
         offset="1"
         id="stop5581" />
    </linearGradient>
    <linearGradient
       id="linearGradient5554">
      <stop
         style="stop-color:#303030;stop-opacity:1"
         offset="0"
         id="stop5556" />
      <stop
         style="stop-color:#ffffff;stop-opacity:1"
         offset="1"
         id="stop5558" />
    </linearGradient>
    <linearGradient
       id="linearGradient5545">
      <stop
         style="stop-color:#c6c6c6;stop-opacity:1"
         offset="0"
         id="stop5547" />
      <stop
         style="stop-color:#000000;stop-opacity:1"
         offset="1"
         id="stop5549" />
    </linearGradient>
    <linearGradient
       id="linearGradient5441">
      <stop
         style="stop-color:#ffffff;stop-opacity:0.57"
         offset="0"
         id="stop5443" />
      <stop
         style="stop-color:#ffffff;stop-opacity:1"
         offset="1"
         id="stop5445" />
    </linearGradient>
    <linearGradient
       x1="432.803"
       y1="147.972"
       x2="488.761"
       y2="255.048"
       id="linearGradient5447"
       xlink:href="#linearGradient5441"
       gradientUnits="userSpaceOnUse"
       gradientTransform="translate(-60 ,0)" />
    <linearGradient
       x1="592.5"
       y1="355.0"
       x2="624.5"
       y2="355.0"
       id="linearGradient5551"
       xlink:href="#linearGradient5545"
       gradientUnits="userSpaceOnUse"
       gradientTransform="translate(-20 ,0)" />
    <linearGradient
       x1="147.5"
       y1="652.4"
       x2="200.3"
       y2="652.4"
       id="linearGradient5566"
       xlink:href="#linearGradient5554"
       gradientUnits="userSpaceOnUse"
       gradientTransform="translate(-37.86 ,-29.87)" />
    <linearGradient
       x1="158.8"
       y1="416.3"
       x2="347.4"
       y2="416.3"
       id="linearGradient5583"
       xlink:href="#linearGradient5577"
       gradientUnits="userSpaceOnUse" />
    <linearGradient
       x1="93.72"
       y1="387.6"
       x2="380.7"
       y2="387.6"
       id="linearGradient5595"
       xlink:href="#linearGradient5589"
       gradientUnits="userSpaceOnUse" />
    <linearGradient
       x1="246.2"
       y1="311.2"
       x2="262.6"
       y2="345.4"
       id="linearGradient5613"
       xlink:href="#linearGradient5607"
       gradientUnits="userSpaceOnUse" />
  </defs>
  <g
     transform="translate(-37.9 ,-49.9)"
     style="fill-opacity:1; fill-rule:evenodd; stroke-linecap:round; stroke-miterlimit:4; stroke-dasharray:none; stroke-dashoffset:0; stroke-opacity:1"
     id="layer1">
    <rect
       width="808.6"
       height="885.7"
       x="-51.4"
       y="-64.8"
       transform="translate(37.9 ,49.9)"
       style="fill:#000000; stroke:none;"
       id="rect5597" />
    <g transform="matrix(1.0 ,0 ,0 ,1.3 ,664.2 ,-97.5)" style="fill:#ffffff; stroke:none;"
       id="g5898">
      <path d="M   10.3 ,659.8 C   10.3 ,659.2 10.8 ,658.8 11.4 ,658.8 C 11.9 ,658.8 12.4 ,659.2 12.4 ,659.8 C 12.4 ,660.4 11.9 ,660.8 11.4 ,660.8 C 10.8 ,660.8 10.3 ,660.4 10.3 ,659.8 z " />
      <path d="M  -64.7 ,634.1 C  -64.7 ,633.5 -64.2 ,633.1 -63.6 ,633.1 C -63.1 ,633.1 -62.6 ,633.5 -62.6 ,634.1 C -62.6 ,634.7 -63.1 ,635.1 -63.6 ,635.1 C -64.2 ,635.1 -64.7 ,634.7 -64.7 ,634.1 z " />
      <path d="M  -72.2 ,602.7 C  -72.2 ,602.1 -71.7 ,601.6 -71.1 ,601.6 C -70.6 ,601.6 -70.1 ,602.1 -70.1 ,602.7 C -70.1 ,603.2 -70.6 ,603.7 -71.1 ,603.7 C -71.7 ,603.7 -72.2 ,603.2 -72.2 ,602.7 z " />
      <path d="M  -88.2 ,662.7 C  -88.2 ,662.1 -87.7 ,661.6 -87.1 ,661.6 C -86.6 ,661.6 -86.1 ,662.1 -86.1 ,662.7 C -86.1 ,663.2 -86.6 ,663.7 -87.1 ,663.7 C -87.7 ,663.7 -88.2 ,663.2 -88.2 ,662.7 z " />
      <path d="M -158.2 ,676.7 C -158.2 ,676.1 -157.7 ,675.6 -157.1 ,675.6 C -156.6 ,675.6 -156.1 ,676.1 -156.1 ,676.7 C -156.1 ,677.2 -156.6 ,677.7 -157.1 ,677.7 C -157.7 ,677.7 -158.2 ,677.2 -158.2 ,676.7 z " />
      <path d="M -156.2 ,612.7 C -156.2 ,612.1 -155.7 ,611.6 -155.1 ,611.6 C -154.6 ,611.6 -154.1 ,612.1 -154.1 ,612.7 C -154.1 ,613.2 -154.6 ,613.7 -155.1 ,613.7 C -155.7 ,613.7 -156.2 ,613.2 -156.2 ,612.7 z " />
      <path d="M -154.2 ,586.7 C -154.2 ,586.1 -153.7 ,585.6 -153.1 ,585.6 C -152.6 ,585.6 -152.1 ,586.1 -152.1 ,586.7 C -152.1 ,587.2 -152.6 ,587.7 -153.1 ,587.7 C -153.7 ,587.7 -154.2 ,587.2 -154.2 ,586.7 z " />
      <path d="M -206.2 ,618.7 C -206.2 ,618.1 -205.7 ,617.6 -205.1 ,617.6 C -204.6 ,617.6 -204.1 ,618.1 -204.1 ,618.7 C -204.1 ,619.2 -204.6 ,619.7 -205.1 ,619.7 C -205.7 ,619.7 -206.2 ,619.2 -206.2 ,618.7 z " />
      <path d="M -252.2 ,620.7 C -252.2 ,620.1 -251.7 ,619.6 -251.1 ,619.6 C -250.6 ,619.6 -250.1 ,620.1 -250.1 ,620.7 C -250.1 ,621.2 -250.6 ,621.7 -251.1 ,621.7 C -251.7 ,621.7 -252.2 ,621.2 -252.2 ,620.7 z " />
      <path d="M -158.2 ,560.7 C -158.2 ,560.1 -157.7 ,559.6 -157.1 ,559.6 C -156.6 ,559.6 -156.1 ,560.1 -156.1 ,560.7 C -156.1 ,561.2 -156.6 ,561.7 -157.1 ,561.7 C -157.7 ,561.7 -158.2 ,561.2 -158.2 ,560.7 z " />
      <path d="M -132.2 ,550.7 C -132.2 ,550.1 -131.7 ,549.6 -131.1 ,549.6 C -130.6 ,549.6 -130.1 ,550.1 -130.1 ,550.7 C -130.1 ,551.2 -130.6 ,551.7 -131.1 ,551.7 C -131.7 ,551.7 -132.2 ,551.2 -132.2 ,550.7 z " />
      <path d="M   23.8 ,528.7 C   23.8 ,528.1 24.3 ,527.6 24.9 ,527.6 C 25.4 ,527.6 25.9 ,528.1 25.9 ,528.7 C 25.9 ,529.2 25.4 ,529.7 24.9 ,529.7 C 24.3 ,529.7 23.8 ,529.2 23.8 ,528.7 z " />
      <path d="M  -26.2 ,560.7 C  -26.2 ,560.1 -25.7 ,559.6 -25.1 ,559.6 C -24.6 ,559.6 -24.1 ,560.1 -24.1 ,560.7 C -24.1 ,561.2 -24.6 ,561.7 -25.1 ,561.7 C -25.7 ,561.7 -26.2 ,561.2 -26.2 ,560.7 z " />
      <path d="M  -32.2 ,528.7 C  -32.2 ,528.1 -31.7 ,527.6 -31.1 ,527.6 C -30.6 ,527.6 -30.1 ,528.1 -30.1 ,528.7 C -30.1 ,529.2 -30.6 ,529.7 -31.1 ,529.7 C -31.7 ,529.7 -32.2 ,529.2 -32.2 ,528.7 z " />
      <path d="M   39.8 ,438.7 C   39.8 ,438.1 40.3 ,437.6 40.9 ,437.6 C 41.4 ,437.6 41.9 ,438.1 41.9 ,438.7 C 41.9 ,439.2 41.4 ,439.7 40.9 ,439.7 C 40.3 ,439.7 39.8 ,439.2 39.8 ,438.7 z " />
      <path d="M   31.8 ,428.7 C   31.8 ,428.1 32.3 ,427.6 32.9 ,427.6 C 33.4 ,427.6 33.9 ,428.1 33.9 ,428.7 C 33.9 ,429.2 33.4 ,429.7 32.9 ,429.7 C 32.3 ,429.7 31.8 ,429.2 31.8 ,428.7 z " />
      <path d="M   29.8 ,378.7 C   29.8 ,378.1 30.3 ,377.6 30.9 ,377.6 C 31.4 ,377.6 31.9 ,378.1 31.9 ,378.7 C 31.9 ,379.2 31.4 ,379.7 30.9 ,379.7 C 30.3 ,379.7 29.8 ,379.2 29.8 ,378.7 z " />
      <path d="M    3.8 ,372.7 C    3.8 ,372.1 4.3 ,371.6 4.9 ,371.6 C 5.4 ,371.6 5.9 ,372.1 5.9 ,372.7 C 5.9 ,373.2 5.4 ,373.7 4.9 ,373.7 C 4.3 ,373.7 3.8 ,373.2 3.8 ,372.7 z " />
      <path d="M  -36.2 ,438.7 C  -36.2 ,438.1 -35.7 ,437.6 -35.1 ,437.6 C -34.6 ,437.6 -34.1 ,438.1 -34.1 ,438.7 C -34.1 ,439.2 -34.6 ,439.7 -35.1 ,439.7 C -35.7 ,439.7 -36.2 ,439.2 -36.2 ,438.7 z " />
      <path d="M  -56.2 ,498.7 C  -56.2 ,498.1 -55.7 ,497.6 -55.1 ,497.6 C -54.6 ,497.6 -54.1 ,498.1 -54.1 ,498.7 C -54.1 ,499.2 -54.6 ,499.7 -55.1 ,499.7 C -55.7 ,499.7 -56.2 ,499.2 -56.2 ,498.7 z " />
      <path d="M  -80.2 ,506.7 C  -80.2 ,506.1 -79.7 ,505.6 -79.1 ,505.6 C -78.6 ,505.6 -78.1 ,506.1 -78.1 ,506.7 C -78.1 ,507.2 -78.6 ,507.7 -79.1 ,507.7 C -79.7 ,507.7 -80.2 ,507.2 -80.2 ,506.7 z " />
      <path d="M  -94.2 ,520.7 C  -94.2 ,520.1 -93.7 ,519.6 -93.1 ,519.6 C -92.6 ,519.6 -92.1 ,520.1 -92.1 ,520.7 C -92.1 ,521.2 -92.6 ,521.7 -93.1 ,521.7 C -93.7 ,521.7 -94.2 ,521.2 -94.2 ,520.7 z " />
      <path d="M -150.2 ,458.7 C -150.2 ,458.1 -149.7 ,457.6 -149.1 ,457.6 C -148.6 ,457.6 -148.1 ,458.1 -148.1 ,458.7 C -148.1 ,459.2 -148.6 ,459.7 -149.1 ,459.7 C -149.7 ,459.7 -150.2 ,459.2 -150.2 ,458.7 z " />
      <path d="M -144.2 ,498.7 C -144.2 ,498.1 -143.7 ,497.6 -143.1 ,497.6 C -142.6 ,497.6 -142.1 ,498.1 -142.1 ,498.7 C -142.1 ,499.2 -142.6 ,499.7 -143.1 ,499.7 C -143.7 ,499.7 -144.2 ,499.2 -144.2 ,498.7 z " />
      <path d="M -124.2 ,500.7 C -124.2 ,500.1 -123.7 ,499.6 -123.1 ,499.6 C -122.6 ,499.6 -122.1 ,500.1 -122.1 ,500.7 C -122.1 ,501.2 -122.6 ,501.7 -123.1 ,501.7 C -123.7 ,501.7 -124.2 ,501.2 -124.2 ,500.7 z " />
      <path d="M -114.2 ,510.7 C -114.2 ,510.1 -113.7 ,509.6 -113.1 ,509.6 C -112.6 ,509.6 -112.1 ,510.1 -112.1 ,510.7 C -112.1 ,511.2 -112.6 ,511.7 -113.1 ,511.7 C -113.7 ,511.7 -114.2 ,511.2 -114.2 ,510.7 z " />
      <path d="M -100.2 ,484.7 C -100.2 ,484.1  -99.7 ,483.6 -99.1 ,483.6 C -98.6 ,483.6 -98.1 ,484.1 -98.1 ,484.7 C -98.1 ,485.2 -98.6 ,485.7 -99.1 ,485.7 C -99.7 ,485.7 -100.2 ,485.2 -100.2 ,484.7 z " />
      <path d="M -226.2 ,480.7 C -226.2 ,480.1 -225.7 ,479.6 -225.1 ,479.6 C -224.6 ,479.6 -224.1 ,480.1 -224.1 ,480.7 C -224.1 ,481.2 -224.6 ,481.7 -225.1 ,481.7 C -225.7 ,481.7 -226.2 ,481.2 -226.2 ,480.7 z " />
      <path d="M -266.2 ,430.7 C -266.2 ,430.1 -265.7 ,429.6 -265.1 ,429.6 C -264.6 ,429.6 -264.1 ,430.1 -264.1 ,430.7 C -264.1 ,431.2 -264.6 ,431.7 -265.1 ,431.7 C -265.7 ,431.7 -266.2 ,431.2 -266.2 ,430.7 z " />
      <path d="M -272.2 ,430.7 C -272.2 ,430.1 -271.7 ,429.6 -271.1 ,429.6 C -270.6 ,429.6 -270.1 ,430.1 -270.1 ,430.7 C -270.1 ,431.2 -270.6 ,431.7 -271.1 ,431.7 C -271.7 ,431.7 -272.2 ,431.2 -272.2 ,430.7 z " />
      <path d="M -276.2 ,534.7 C -276.2 ,534.1 -275.7 ,533.6 -275.1 ,533.6 C -274.6 ,533.6 -274.1 ,534.1 -274.1 ,534.7 C -274.1 ,535.2 -274.6 ,535.7 -275.1 ,535.7 C -275.7 ,535.7 -276.2 ,535.2 -276.2 ,534.7 z " />
      <path d="M -364.2 ,534.7 C -364.2 ,534.1 -363.7 ,533.6 -363.1 ,533.6 C -362.6 ,533.6 -362.1 ,534.1 -362.1 ,534.7 C -362.1 ,535.2 -362.6 ,535.7 -363.1 ,535.7 C -363.7 ,535.7 -364.2 ,535.2 -364.2 ,534.7 z " />
      <path d="M -374.2 ,534.7 C -374.2 ,534.1 -373.7 ,533.6 -373.1 ,533.6 C -372.6 ,533.6 -372.1 ,534.1 -372.1 ,534.7 C -372.1 ,535.2 -372.6 ,535.7 -373.1 ,535.7 C -373.7 ,535.7 -374.2 ,535.2 -374.2 ,534.7 z " />
      <path d="M -394.2 ,630.7 C -394.2 ,630.1 -393.7 ,629.6 -393.1 ,629.6 C -392.6 ,629.6 -392.1 ,630.1 -392.1 ,630.7 C -392.1 ,631.2 -392.6 ,631.7 -393.1 ,631.7 C -393.7 ,631.7 -394.2 ,631.2 -394.2 ,630.7 z " />
      <path d="M -422.2 ,642.7 C -422.2 ,642.1 -421.7 ,641.6 -421.1 ,641.6 C -420.6 ,641.6 -420.1 ,642.1 -420.1 ,642.7 C -420.1 ,643.2 -420.6 ,643.7 -421.1 ,643.7 C -421.7 ,643.7 -422.2 ,643.2 -422.2 ,642.7 z " />
      <path d="M -430.2 ,532.7 C -430.2 ,532.1 -429.7 ,531.6 -429.1 ,531.6 C -428.6 ,531.6 -428.1 ,532.1 -428.1 ,532.7 C -428.1 ,533.2 -428.6 ,533.7 -429.1 ,533.7 C -429.7 ,533.7 -430.2 ,533.2 -430.2 ,532.7 z " />
      <path d="M -426.2 ,522.7 C -426.2 ,522.1 -425.7 ,521.6 -425.1 ,521.6 C -424.6 ,521.6 -424.1 ,522.1 -424.1 ,522.7 C -424.1 ,523.2 -424.6 ,523.7 -425.1 ,523.7 C -425.7 ,523.7 -426.2 ,523.2 -426.2 ,522.7 z " />
      <path d="M -348.2 ,470.7 C -348.2 ,470.1 -347.7 ,469.6 -347.1 ,469.6 C -346.6 ,469.6 -346.1 ,470.1 -346.1 ,470.7 C -346.1 ,471.2 -346.6 ,471.7 -347.1 ,471.7 C -347.7 ,471.7 -348.2 ,471.2 -348.2 ,470.7 z " />
      <path d="M -366.2 ,436.7 C -366.2 ,436.1 -365.7 ,435.6 -365.1 ,435.6 C -364.6 ,435.6 -364.1 ,436.1 -364.1 ,436.7 C -364.1 ,437.2 -364.6 ,437.7 -365.1 ,437.7 C -365.7 ,437.7 -366.2 ,437.2 -366.2 ,436.7 z " />
      <path d="M -348.2 ,406.7 C -348.2 ,406.1 -347.7 ,405.6 -347.1 ,405.6 C -346.6 ,405.6 -346.1 ,406.1 -346.1 ,406.7 C -346.1 ,407.2 -346.6 ,407.7 -347.1 ,407.7 C -347.7 ,407.7 -348.2 ,407.2 -348.2 ,406.7 z " />
      <path d="M -426.2 ,444.7 C -426.2 ,444.1 -425.7 ,443.6 -425.1 ,443.6 C -424.6 ,443.6 -424.1 ,444.1 -424.1 ,444.7 C -424.1 ,445.2 -424.6 ,445.7 -425.1 ,445.7 C -425.7 ,445.7 -426.2 ,445.2 -426.2 ,444.7 z " />
      <path d="M -498.2 ,446.7 C -498.2 ,446.1 -497.7 ,445.6 -497.1 ,445.6 C -496.6 ,445.6 -496.1 ,446.1 -496.1 ,446.7 C -496.1 ,447.2 -496.6 ,447.7 -497.1 ,447.7 C -497.7 ,447.7 -498.2 ,447.2 -498.2 ,446.7 z " />
      <path d="M -484.2 ,432.7 C -484.2 ,432.1 -483.7 ,431.6 -483.1 ,431.6 C -482.6 ,431.6 -482.1 ,432.1 -482.1 ,432.7 C -482.1 ,433.2 -482.6 ,433.7 -483.1 ,433.7 C -483.7 ,433.7 -484.2 ,433.2 -484.2 ,432.7 z " />
      <path d="M -404.2 ,398.7 C -404.2 ,398.1 -403.7 ,397.6 -403.1 ,397.6 C -402.6 ,397.6 -402.1 ,398.1 -402.1 ,398.7 C -402.1 ,399.2 -402.6 ,399.7 -403.1 ,399.7 C -403.7 ,399.7 -404.2 ,399.2 -404.2 ,398.7 z " />
      <path d="M -342.2 ,378.7 C -342.2 ,378.1 -341.7 ,377.6 -341.1 ,377.6 C -340.6 ,377.6 -340.1 ,378.1 -340.1 ,378.7 C -340.1 ,379.2 -340.6 ,379.7 -341.1 ,379.7 C -341.7 ,379.7 -342.2 ,379.2 -342.2 ,378.7 z " />
      <path d="M -352.2 ,376.7 C -352.2 ,376.1 -351.7 ,375.6 -351.1 ,375.6 C -350.6 ,375.6 -350.1 ,376.1 -350.1 ,376.7 C -350.1 ,377.2 -350.6 ,377.7 -351.1 ,377.7 C -351.7 ,377.7 -352.2 ,377.2 -352.2 ,376.7 z " />
      <path d="M -432.2 ,356.7 C -432.2 ,356.1 -431.7 ,355.6 -431.1 ,355.6 C -430.6 ,355.6 -430.1 ,356.1 -430.1 ,356.7 C -430.1 ,357.2 -430.6 ,357.7 -431.1 ,357.7 C -431.7 ,357.7 -432.2 ,357.2 -432.2 ,356.7 z " />
      <path d="M -426.2 ,314.7 C -426.2 ,314.1 -425.7 ,313.6 -425.1 ,313.6 C -424.6 ,313.6 -424.1 ,314.1 -424.1 ,314.7 C -424.1 ,315.2 -424.6 ,315.7 -425.1 ,315.7 C -425.7 ,315.7 -426.2 ,315.2 -426.2 ,314.7 z " />
      <path d="M -446.2 ,310.7 C -446.2 ,310.1 -445.7 ,309.6 -445.1 ,309.6 C -444.6 ,309.6 -444.1 ,310.1 -444.1 ,310.7 C -444.1 ,311.2 -444.6 ,311.7 -445.1 ,311.7 C -445.7 ,311.7 -446.2 ,311.2 -446.2 ,310.7 z " />
      <path d="M -410.2 ,276.7 C -410.2 ,276.1 -409.7 ,275.6 -409.1 ,275.6 C -408.6 ,275.6 -408.1 ,276.1 -408.1 ,276.7 C -408.1 ,277.2 -408.6 ,277.7 -409.1 ,277.7 C -409.7 ,277.7 -410.2 ,277.2 -410.2 ,276.7 z " />
      <path d="M -388.2 ,230.7 C -388.2 ,230.1 -387.7 ,229.6 -387.1 ,229.6 C -386.6 ,229.6 -386.1 ,230.1 -386.1 ,230.7 C -386.1 ,231.2 -386.6 ,231.7 -387.1 ,231.7 C -387.7 ,231.7 -388.2 ,231.2 -388.2 ,230.7 z " />
      <path d="M -456.2 ,220.7 C -456.2 ,220.1 -455.7 ,219.6 -455.1 ,219.6 C -454.6 ,219.6 -454.1 ,220.1 -454.1 ,220.7 C -454.1 ,221.2 -454.6 ,221.7 -455.1 ,221.7 C -455.7 ,221.7 -456.2 ,221.2 -456.2 ,220.7 z " />
      <path d="M -556.2 ,410.7 C -556.2 ,410.1 -555.7 ,409.6 -555.1 ,409.6 C -554.6 ,409.6 -554.1 ,410.1 -554.1 ,410.7 C -554.1 ,411.2 -554.6 ,411.7 -555.1 ,411.7 C -555.7 ,411.7 -556.2 ,411.2 -556.2 ,410.7 z " />
      <path d="M -576.2 ,380.7 C -576.2 ,380.1 -575.7 ,379.6 -575.1 ,379.6 C -574.6 ,379.6 -574.1 ,380.1 -574.1 ,380.7 C -574.1 ,381.2 -574.6 ,381.7 -575.1 ,381.7 C -575.7 ,381.7 -576.2 ,381.2 -576.2 ,380.7 z " />
      <path d="M -564.2 ,324.7 C -564.2 ,324.1 -563.7 ,323.6 -563.1 ,323.6 C -562.6 ,323.6 -562.1 ,324.1 -562.1 ,324.7 C -562.1 ,325.2 -562.6 ,325.7 -563.1 ,325.7 C -563.7 ,325.7 -564.2 ,325.2 -564.2 ,324.7 z " />
      <path d="M -600.2 ,236.7 C -600.2 ,236.1 -599.7 ,235.6 -599.1 ,235.6 C -598.6 ,235.6 -598.1 ,236.1 -598.1 ,236.7 C -598.1 ,237.2 -598.6 ,237.7 -599.1 ,237.7 C -599.7 ,237.7 -600.2 ,237.2 -600.2 ,236.7 z " />
      <path d="M -606.2 ,526.7 C -606.2 ,526.1 -605.7 ,525.6 -605.1 ,525.6 C -604.6 ,525.6 -604.1 ,526.1 -604.1 ,526.7 C -604.1 ,527.2 -604.6 ,527.7 -605.1 ,527.7 C -605.7 ,527.7 -606.2 ,527.2 -606.2 ,526.7 z " />
      <path d="M -570.2 ,546.7 C -570.2 ,546.1 -569.7 ,545.6 -569.1 ,545.6 C -568.6 ,545.6 -568.1 ,546.1 -568.1 ,546.7 C -568.1 ,547.2 -568.6 ,547.7 -569.1 ,547.7 C -569.7 ,547.7 -570.2 ,547.2 -570.2 ,546.7 z " />
      <path d="M -538.2 ,562.7 C -538.2 ,562.1 -537.7 ,561.6 -537.1 ,561.6 C -536.6 ,561.6 -536.1 ,562.1 -536.1 ,562.7 C -536.1 ,563.2 -536.6 ,563.7 -537.1 ,563.7 C -537.7 ,563.7 -538.2 ,563.2 -538.2 ,562.7 z " />
      <path d="M -368.2 ,214.7 C -368.2 ,214.1 -367.7 ,213.6 -367.1 ,213.6 C -366.6 ,213.6 -366.1 ,214.1 -366.1 ,214.7 C -366.1 ,215.2 -366.6 ,215.7 -367.1 ,215.7 C -367.7 ,215.7 -368.2 ,215.2 -368.2 ,214.7 z " />
      <path d="M -378.2 ,204.7 C -378.2 ,204.1 -377.7 ,203.6 -377.1 ,203.6 C -376.6 ,203.6 -376.1 ,204.1 -376.1 ,204.7 C -376.1 ,205.2 -376.6 ,205.7 -377.1 ,205.7 C -377.7 ,205.7 -378.2 ,205.2 -378.2 ,204.7 z " />
      <path d="M -374.2 ,160.7 C -374.2 ,160.1 -373.7 ,159.6 -373.1 ,159.6 C -372.6 ,159.6 -372.1 ,160.1 -372.1 ,160.7 C -372.1 ,161.2 -372.6 ,161.7 -373.1 ,161.7 C -373.7 ,161.7 -374.2 ,161.2 -374.2 ,160.7 z " />
      <path d="M -440.2 ,152.7 C -440.2 ,152.1 -439.7 ,151.6 -439.1 ,151.6 C -438.6 ,151.6 -438.1 ,152.1 -438.1 ,152.7 C -438.1 ,153.2 -438.6 ,153.7 -439.1 ,153.7 C -439.7 ,153.7 -440.2 ,153.2 -440.2 ,152.7 z " />
      <path d="M -496.2 ,140.7 C -496.2 ,140.1 -495.7 ,139.6 -495.1 ,139.6 C -494.6 ,139.6 -494.1 ,140.1 -494.1 ,140.7 C -494.1 ,141.2 -494.6 ,141.7 -495.1 ,141.7 C -495.7 ,141.7 -496.2 ,141.2 -496.2 ,140.7 z " />
      <path d="M -512.2 ,144.7 C -512.2 ,144.1 -511.7 ,143.6 -511.1 ,143.6 C -510.6 ,143.6 -510.1 ,144.1 -510.1 ,144.7 C -510.1 ,145.2 -510.6 ,145.7 -511.1 ,145.7 C -511.7 ,145.7 -512.2 ,145.2 -512.2 ,144.7 z " />
      <path d="M -284.2 ,110.7 C -284.2 ,110.1 -283.7 ,109.6 -283.1 ,109.6 C -282.6 ,109.6 -282.1 ,110.1 -282.1 ,110.7 C -282.1 ,111.2 -282.6 ,111.7 -283.1 ,111.7 C -283.7 ,111.7 -284.2 ,111.2 -284.2 ,110.7 z " />
      <path d="M -228.2 ,114.7 C -228.2 ,114.1 -227.7 ,113.6 -227.1 ,113.6 C -226.6 ,113.6 -226.1 ,114.1 -226.1 ,114.7 C -226.1 ,115.2 -226.6 ,115.7 -227.1 ,115.7 C -227.7 ,115.7 -228.2 ,115.2 -228.2 ,114.7 z " />
      <path d="M -230.2 ,126.7 C -230.2 ,126.1 -229.7 ,125.6 -229.1 ,125.6 C -228.6 ,125.6 -228.1 ,126.1 -228.1 ,126.7 C -228.1 ,127.2 -228.6 ,127.7 -229.1 ,127.7 C -229.7 ,127.7 -230.2 ,127.2 -230.2 ,126.7 z " />
      <path d="M -196.2 ,158.7 C -196.2 ,158.1 -195.7 ,157.6 -195.1 ,157.6 C -194.6 ,157.6 -194.1 ,158.1 -194.1 ,158.7 C -194.1 ,159.2 -194.6 ,159.7 -195.1 ,159.7 C -195.7 ,159.7 -196.2 ,159.2 -196.2 ,158.7 z " />
      <path d="M -242.2 ,256.7 C -242.2 ,256.1 -241.7 ,255.6 -241.1 ,255.6 C -240.6 ,255.6 -240.1 ,256.1 -240.1 ,256.7 C -240.1 ,257.2 -240.6 ,257.7 -241.1 ,257.7 C -241.7 ,257.7 -242.2 ,257.2 -242.2 ,256.7 z " />
      <path d="M -246.2 ,286.7 C -246.2 ,286.1 -245.7 ,285.6 -245.1 ,285.6 C -244.6 ,285.6 -244.1 ,286.1 -244.1 ,286.7 C -244.1 ,287.2 -244.6 ,287.7 -245.1 ,287.7 C -245.7 ,287.7 -246.2 ,287.2 -246.2 ,286.7 z " />
      <path d="M -266.2 ,286.7 C -266.2 ,286.1 -265.7 ,285.6 -265.1 ,285.6 C -264.6 ,285.6 -264.1 ,286.1 -264.1 ,286.7 C -264.1 ,287.2 -264.6 ,287.7 -265.1 ,287.7 C -265.7 ,287.7 -266.2 ,287.2 -266.2 ,286.7 z " />
      <path d="M -182.2 ,192.7 C -182.2 ,192.1 -181.7 ,191.6 -181.1 ,191.6 C -180.6 ,191.6 -180.1 ,192.1 -180.1 ,192.7 C -180.1 ,193.2 -180.6 ,193.7 -181.1 ,193.7 C -181.7 ,193.7 -182.2 ,193.2 -182.2 ,192.7 z " />
      <path d="M -176.2 ,228.7 C -176.2 ,228.1 -175.7 ,227.6 -175.1 ,227.6 C -174.6 ,227.6 -174.1 ,228.1 -174.1 ,228.7 C -174.1 ,229.2 -174.6 ,229.7 -175.1 ,229.7 C -175.7 ,229.7 -176.2 ,229.2 -176.2 ,228.7 z " />
      <path d="M -162.2 ,240.7 C -162.2 ,240.1 -161.7 ,239.6 -161.1 ,239.6 C -160.6 ,239.6 -160.1 ,240.1 -160.1 ,240.7 C -160.1 ,241.2 -160.6 ,241.7 -161.1 ,241.7 C -161.7 ,241.7 -162.2 ,241.2 -162.2 ,240.7 z " />
      <path d="M -154.2 ,280.7 C -154.2 ,280.1 -153.7 ,279.6 -153.1 ,279.6 C -152.6 ,279.6 -152.1 ,280.1 -152.1 ,280.7 C -152.1 ,281.2 -152.6 ,281.7 -153.1 ,281.7 C -153.7 ,281.7 -154.2 ,281.2 -154.2 ,280.7 z " />
      <path d="M -182.2 ,336.7 C -182.2 ,336.1 -181.7 ,335.6 -181.1 ,335.6 C -180.6 ,335.6 -180.1 ,336.1 -180.1 ,336.7 C -180.1 ,337.2 -180.6 ,337.7 -181.1 ,337.7 C -181.7 ,337.7 -182.2 ,337.2 -182.2 ,336.7 z " />
      <path d="M -194.2 ,372.7 C -194.2 ,372.1 -193.7 ,371.6 -193.1 ,371.6 C -192.6 ,371.6 -192.1 ,372.1 -192.1 ,372.7 C -192.1 ,373.2 -192.6 ,373.7 -193.1 ,373.7 C -193.7 ,373.7 -194.2 ,373.2 -194.2 ,372.7 z " />
      <path d="M -146.2 ,352.7 C -146.2 ,352.1 -145.7 ,351.6 -145.1 ,351.6 C -144.6 ,351.6 -144.1 ,352.1 -144.1 ,352.7 C -144.1 ,353.2 -144.6 ,353.7 -145.1 ,353.7 C -145.7 ,353.7 -146.2 ,353.2 -146.2 ,352.7 z " />
      <path d="M -102.2 ,356.7 C -102.2 ,356.1 -101.7 ,355.6 -101.1 ,355.6 C -100.6 ,355.6 -100.1 ,356.1 -100.1 ,356.7 C -100.1 ,357.2 -100.6 ,357.7 -101.1 ,357.7 C -101.7 ,357.7 -102.2 ,357.2 -102.2 ,356.7 z " />
      <path d="M  -64.2 ,324.7 C  -64.2 ,324.1  -63.7 ,323.6 -63.1 ,323.6 C -62.5782 ,323.6 -62.1 ,324.1 -62.1 ,324.7 C -62.1 ,325.2 -62.5782 ,325.7 -63.1 ,325.7 C -63.7 ,325.7 -64.2 ,325.2 -64.2 ,324.7 z " />
      <path d="M  -74.2 ,300.7 C  -74.2 ,300.1  -73.7 ,299.6 -73.1 ,299.6 C -72.5782 ,299.6 -72.1 ,300.1 -72.1 ,300.7 C -72.1 ,301.2 -72.5782 ,301.7 -73.1 ,301.7 C -73.7 ,301.7 -74.2 ,301.2 -74.2 ,300.7 z " />
      <path d="M -110.2 ,298.7 C -110.2 ,298.1 -109.7 ,297.6 -109.1 ,297.6 C -108.6 ,297.6 -108.1 ,298.1 -108.1 ,298.7 C -108.1 ,299.2 -108.6 ,299.7 -109.1 ,299.7 C -109.7 ,299.7 -110.2 ,299.2 -110.2 ,298.7 z " />
      <path d="M -108.2 ,266.7 C -108.2 ,266.1 -107.7 ,265.6 -107.1 ,265.6 C -106.6 ,265.6 -106.1 ,266.1 -106.1 ,266.7 C -106.1 ,267.2 -106.6 ,267.7 -107.1 ,267.7 C -107.7 ,267.7 -108.2 ,267.2 -108.2 ,266.7 z " />
      <path d="M  -72.2 ,216.7 C  -72.2 ,216.1  -71.7 ,215.6 -71.1 ,215.6 C -70.5782 ,215.6 -70.1 ,216.1 -70.1 ,216.7 C -70.1 ,217.2 -70.5782 ,217.7 -71.1 ,217.7 C -71.7 ,217.7 -72.2 ,217.2 -72.2 ,216.7 z " />
      <path d="M  -74.2 ,192.7 C  -74.2 ,192.1  -73.7 ,191.6 -73.1 ,191.6 C -72.5782 ,191.6 -72.1 ,192.1 -72.1 ,192.7 C -72.1 ,193.2 -72.5782 ,193.7 -73.1 ,193.7 C -73.7 ,193.7 -74.2 ,193.2 -74.2 ,192.7 z " />
      <path d="M  -98.2 ,158.7 C  -98.2 ,158.1  -97.7 ,157.6 -97.1 ,157.6 C -96.5782 ,157.6 -96.1 ,158.1 -96.1 ,158.7 C -96.1 ,159.2 -96.5782 ,159.7 -97.1 ,159.7 C -97.7 ,159.7 -98.2 ,159.2 -98.2 ,158.7 z " />
      <path d="M    9.8 ,150.7 C    9.8 ,150.1   10.3 ,149.6 10.8572 ,149.6 C 11.4 ,149.6 11.8795 ,150.1 11.8795 ,150.7 C 11.8795 ,151.2 11.4 ,151.7 10.8572 ,151.7 C 10.3 ,151.7 9.8 ,151.2 9.8 ,150.7 z " />
      <path d="M   13.8 ,148.7 C   13.8 ,148.1   14.3 ,147.6 14.8572 ,147.6 C 15.4 ,147.6 15.8795 ,148.1 15.8795 ,148.7 C 15.8795 ,149.2 15.4 ,149.7 14.8572 ,149.7 C 14.3 ,149.7 13.8 ,149.2 13.8 ,148.7 z " />
    </g>
    <path d="M 484.6 ,727.6 L 441.8 ,647.2"
       style="fill:none; stroke:#b62c2c; stroke-width:12;" />
    <path
       d="M 535.4 ,416.3 C 535.4 ,520.1 451.3 ,604.2 347.5 ,604.2 C 243.7 ,604.2 159.6 ,520.1 159.6 ,416.3 C 159.6 ,312.5 243.7 ,228.4 347.5 ,228.376 C 451.3 ,228.4 535.4 ,312.5 535.4 ,416.3 L 535.4 ,416.3 z "
       transform="matrix(1.39247 ,0 ,0 ,1.39247 ,-129.839 ,-93.3243)"
       style="fill:url(#linearGradient5583); stroke:none;" />
    <path
       d="M 186.429 ,325.091 C 169.763 ,305.3 208.248 ,276.187 227.857 ,263.7 C 247.5 ,251.1 292.622 ,233.71 307.857 ,250.8 C 322.772 ,267.54 296.916 ,296.7 267.1 ,313.7 C 237.908 ,330.27 202.802 ,344.5 186.429 ,325.091 z M 102.1 ,420.8 C 114.97 ,557.1 517.346 ,393.3 455 ,246.5 M 106.429 ,575.091 C 214.3 ,696.192 594.503 ,509.2 579.3 ,342.2 M 215 ,712.2 C 449.3 ,739.8 586.631 ,577.7 617.857 ,495.091 M 325 ,749.376 C 437.6 ,733.5 520.5 ,685.7 583.6 ,616.519"
       style="fill:none; stroke:#000000; stroke-width:1; stroke-opacity:0.40" />
    <path
       d="M 251.4 ,360.8 C 257.7 ,359.7 263.3 ,360.5 268.6 ,362.2 C 262.5 ,354.7 256.3 ,348.4 249.3 ,349.4 C 237.7 ,345.5 230.9 ,349.5 225 ,355.1 C 216.1 ,347.8 209.8 ,345.7 205.7 ,347.9 C 203.3 ,339.7 199.8 ,342.4 196.4 ,344.4 L 185.7 ,343.7 C 192.8 ,334.9 189.1 ,332.3 185 ,330.1 C 187.4 ,323.1 192.3 ,322.7 196.4 ,320.1 C 191.5 ,315.0 186.6 ,309.4 180.7 ,310.8 C 182.6 ,303.2 181.9 ,298.2 180 ,294.4 C 94.0 ,359.6 82.1 ,485.3 102.1 ,548.7 C 116.6 ,541.3 115.1 ,524.5 110.7 ,505.8 C 113.3 ,494.7 113.8 ,478.4 123.6 ,484.4 C 122.9 ,491.0 123.7 ,500.4 125 ,510.8 C 128.4 ,502.7 128.1 ,494.6 125.7 ,486.5 L 140 ,474.4 C 146.3 ,468.2 153.4 ,464.2 157.9 ,453.7 C 165.2 ,451.3 163.0 ,442.5 164.3 ,435.8 C 164.4 ,446.9 165.9 ,450.1 167.9 ,450.8 C 169.3 ,452.7 170.2 ,432.6 165.7 ,424.4 C 164.2 ,420.3 163.5 ,416.3 165.7 ,412.2 L 175 ,407.2 C 188.3 ,400.6 208.3 ,381.8 208.6 ,398.7 C 200.8 ,410.1 197.9 ,416.7 196.1 ,427.2 C 196.3 ,436.4 205.5 ,437.0 209.3 ,428.7 C 215.6 ,416.1 214.8 ,408 213.6 ,400.1 C 225.1 ,387.8 238.6 ,400.5 244.3 ,378.7 C 249.8 ,375.2 250.6 ,368 251.4 ,360.8 z M 153.6 ,492.9 C 155.2 ,489.6 158.7 ,488.7 158.6 ,497.2 C 158.9 ,504.0 158.5 ,510.7 155 ,516.5 C 151.1 ,518.6 147.3 ,520.8 137.9 ,517.2 C 134.6 ,525.8 132.3 ,525.9 130 ,525.1 C 128.9 ,520.5 128.7 ,515.6 140.7 ,507.2 C 145.4 ,505.8 150.7 ,509.5 153.6 ,492.9 z M 154.3 ,482.2 C 153.6 ,473 158.5 ,469.8 166.4 ,470.1 C 167.2 ,478.3 166.6 ,485.3 154.3 ,482.2 z M 286.4 ,356.5 C 280.9 ,360.3 270.1 ,363.2 275 ,368.7 C 270.4 ,373.7 268.5 ,378.2 295.7 ,375.8 L 315 ,363.7 L 327.9 ,351.5 C 346.4 ,349.2 350 ,338.3 355.7 ,328.7 C 368.3 ,322.9 385.5 ,325.4 405.7 ,332.9 C 421.4 ,341.7 436.8 ,352.5 454.3 ,352.2 C 481.1 ,354 500.0 ,362.2 517.1 ,371.5 C 522.6 ,374.6 545.8 ,368.9 577.9 ,358.7 C 576.3 ,350.6 574.5 ,342.6 566.4 ,335.8 C 563.5 ,344.5 558.5 ,351.5 544.3 ,350.8 C 514.2 ,342.8 525.8 ,320.9 521.4 ,304.4 C 525.3 ,297.7 525.0 ,290.1 519.3 ,281.5 C 396.0 ,207.4 312.8 ,220.0 238.6 ,251.5 C 244.7 ,262.7 249.7 ,275.1 271.4 ,267.9 C 306.0 ,253.4 307.5 ,271.9 310.7 ,288.7 L 300,312.2 C 268.8 ,324.7 274.3 ,340.3 286.4 ,356.5 z M 274.3 ,730.1 C 261.4 ,724.4 248.6 ,721.4 235.7 ,708.7 C 227.4 ,691.3 217.1 ,681.5 205 ,679.4 C 191.4 ,673.5 178.5 ,668.6 174.3 ,675.8 C 215.1 ,709.9 246.8 ,724.5 274.3 ,730.1 z "
       style="fill:url(#linearGradient5595); stroke:none;" />
    <path
       d="M 54.3 ,438.1 C 86.2 ,581.5 530.9 ,407.9 478.6 ,233.8"
       transform="translate(37.9 ,49.9)"
       style="fill:none; stroke:#000000; stroke-width:4; stroke-dasharray:4 , 12;" />
    <path
       d="M 98.5714 ,290.9 C 87.6625 ,339.6 167.37 ,364.6 255.714 ,316.7 C 344.7 ,268.383 379.3 ,198.086 327.1 ,178.086"
       transform="translate(37.9 ,49.9)"
       style="fill:none; stroke:#000000; stroke-width:4; stroke-dasharray:4 , 12;" />
    <path
       d="M 568.6 ,358.086 C 576.001 ,524.26 217.025 ,698.9 111.429 ,595.2 C 100.6 ,585.52 94.1 ,579.96 91.4 ,574.514"
       transform="translate(37.9 ,49.9)"
       style="fill:none; stroke:#000000; stroke-width:3;" />
    <path
       d="M 352.543 ,604.196 C 377.717 ,593.7 401.3 ,581.5 423.759 ,568.335"
       transform="translate(37.9 ,49.9)"
       style="fill:#000000; stroke:#ffffff; stroke-width:5;" />
    <path
       d="M 213.142 ,636.0 C 234.632 ,636.797 259.162 ,634.054 278.3 ,628.44"
       transform="translate(37.9 ,49.9)"
       style="fill:#000000; stroke:#ffffff; stroke-width:5;" />
    <path
       d="M 486.4 ,520.353 C 503.79 ,504.399 520.5 ,487.962 533.866 ,469.341"
       transform="translate(37.9 ,49.9)"
       style="fill:#000000; stroke:#ffffff; stroke-width:5;" />
    <path
       d="M 114.821 ,593.1 C 114.7 ,607.3 118.791 ,621.786 124.821 ,635.4 C 109.077 ,626.9 110.445 ,604.7 110.893 ,583.7 L 114.821 ,593.1 z "
       style="fill:#5f5f5f; stroke:none; stroke-width:2;" />
    <path
       d="M 241.429 ,275.4 L 198.6 ,195.091"
       style="fill:none; stroke:#b62c2c; stroke-width:12;" />
    <path
       d="M 198.526 ,174.6 C 213.1 ,140.1 277.6 ,114.1 354.792 ,114.1 C 442.755 ,114.1 514.144 ,147.8 514.144 ,189.388 C 514.144 ,230.9 442.755 ,264.6 354.792 ,264.6 C 282.631 ,264.6 221.623 ,241.954 202.034 ,210.866"
       style="fill:none; stroke:url(#linearGradient5447); stroke-width:5; stroke-opacity:0.81" />
    <path
       d="M 149.25 ,167.052 C 158.605 ,163.5 168.778 ,160.9 180.817 ,160.7 L 156.826 ,148.365 L 149.25 ,167.052 z "
       transform="translate(37.9 ,49.9)"
       style="fill:#ffffff; stroke:none;" />
    <path
       d="M 412.5 ,562.0 C 419.158 ,567.43 421.3 ,574.6 421.786 ,582.371 L 435 ,559.5 L 412.5 ,562.0 z "
       transform="translate(37.9 ,49.9)"
       style="fill:#ffffff; stroke:none;" />
    <path
       d="M 525 ,467.0 C 530.4 ,470.6 532.849 ,476.757 533.929 ,484.157 L 539.643 ,460.2 L 525 ,467.0 z "
       transform="translate(37.9 ,49.9)"
       style="fill:#ffffff; stroke:none;" />
    <path
       d="M 600.4 ,462.2 L 603.214 ,469.7 C 609.3 ,457.3 614.068 ,442.9 614.5 ,426.7 L 617.5 ,430.3 C 617.232 ,424.951 615.7 ,417.7 613.4 ,410.091 C 611.916 ,412.8 610.602 ,415.6 608.214 ,418.3 L 611.429 ,422.9 C 609.603 ,437.2 605.992 ,450.354 600.4 ,462.2 z "
       style="fill:#a7a7a7; stroke:none;" />
    <path
       d="M 268.036 ,622.0 C 273.7 ,626.9 276.754 ,632.5 277.1 ,638.8 L 290.714 ,623.6 L 268.036 ,622.0 z "
       transform="translate(37.9 ,49.9)"
       style="fill:#ffffff; stroke:none;" />
    <path
       d="M 604.5 ,364.9 C 597.828 ,357.65 591.713 ,350.388 583.75 ,343.1 L 585.179 ,340.4 C 580.923 ,338.6 576.3 ,338.854 572.5 ,338.8 L 579.643 ,349.7 L 580.357 ,347.769 C 588.769 ,354.57 595.014 ,362.997 601.607 ,371.162 L 604.5 ,364.9 z "
       style="fill:url(#linearGradient5551); stroke:none;" />
    <path
       d="M 109.813 ,606.5 L 109.7 ,612 C 121.979 ,622.773 134.705 ,628.765 151.188 ,633.9 C 151.71 ,635.5 152.147 ,637.0 152.5 ,638.6 L 162.5 ,630.75 L 145.3 ,621.8 C 146.53 ,623.7 147.6 ,625.5 148.5 ,627.3 C 135.3 ,625.3 120.65 ,615.3 109.813 ,606.5 z "
       transform="translate(37.9 ,49.9)"
       style="fill:url(#linearGradient5566); stroke:none;" />
    <path
       d="M 243.6 ,313.7 C 261.5 ,475.862 325.239 ,617.2 415 ,739.376 M 231.429 ,316.5 C 196.37 ,523.767 268.614 ,673.77 348.6 ,745.091 M 220.714 ,319.376 C 130.084 ,496.5 205.708 ,695.3 288.6 ,737.2 M 205.714 ,321.5 C 142.106 ,407.153 103.5 ,574.8 196.429 ,692.9 M 196.071 ,319.7 C 103.423 ,407.8 106.112 ,502.893 122.1 ,606.5 M 258.6 ,306.5 C 326.521 ,446.7 398.719 ,582.6 474.3 ,715.091 M 271.429 ,297.2 C 375.525 ,398.754 481.364 ,530.7 527.857 ,687.2 M 570 ,637.9 C 539.6 ,472.5 411.5 ,368.958 288.6 ,287.9 M 187.857 ,314.376 C 99.3 ,392.5 82.864 ,480.358 106.429 ,573.7 M 300.714 ,277.2 C 489.183 ,352.4 575.826 ,461.9 600.714 ,592.234"
       style="fill:none; stroke:url(#linearGradient5613); stroke-width:1; stroke-opacity:0.40" />
  </g>
</svg>
