<?xml version="1.0" encoding="UTF-8" standalone="no"?>
<!-- Created with Inkscape (http://www.inkscape.org/) -->
<svg
   xmlns:ns0="http://www.iki.fi/pav/software/textext/"
   xmlns:dc="http://purl.org/dc/elements/1.1/"
   xmlns:cc="http://creativecommons.org/ns#"
   xmlns:rdf="http://www.w3.org/1999/02/22-rdf-syntax-ns#"
   xmlns:svg="http://www.w3.org/2000/svg"
   xmlns="http://www.w3.org/2000/svg"
   xmlns:xlink="http://www.w3.org/1999/xlink"
   xmlns:sodipodi="http://sodipodi.sourceforge.net/DTD/sodipodi-0.dtd"
   xmlns:inkscape="http://www.inkscape.org/namespaces/inkscape"
   width="146.25444"
   height="133.12245"
   id="svg3405"
   sodipodi:version="0.32"
   inkscape:version="0.46"
   version="1.0"
   sodipodi:docname="Elastance button.svg"
   inkscape:output_extension="org.inkscape.output.svg.inkscape">
  <defs
     id="defs3">
    <linearGradient
       id="linearGradient5642">
      <stop
         style="stop-color:#b760b8;stop-opacity:1;"
         offset="0"
         id="stop5644" />
      <stop
         id="stop5662"
         offset="0.19085097"
         style="stop-color:#e0b1e0;stop-opacity:1;" />
      <stop
         style="stop-color:#e0b1e0;stop-opacity:1;"
         offset="0.80394602"
         id="stop5664" />
      <stop
         id="stop5650"
         offset="1"
         style="stop-color:#b661b7;stop-opacity:1;" />
    </linearGradient>
    <inkscape:perspective
       sodipodi:type="inkscape:persp3d"
       inkscape:vp_x="0 : 526.18109 : 1"
       inkscape:vp_y="0 : 1000 : 0"
       inkscape:vp_z="744.09448 : 526.18109 : 1"
       inkscape:persp3d-origin="372.04724 : 350.78739 : 1"
       id="perspective3411" />
    <linearGradient
       inkscape:collect="always"
       xlink:href="#linearGradient5642"
       id="linearGradient5658"
       x1="270.32468"
       y1="357.88229"
       x2="415.86475"
       y2="357.30066"
       gradientUnits="userSpaceOnUse"
       spreadMethod="pad" />
  </defs>
  <sodipodi:namedview
     inkscape:document-units="mm"
     id="base"
     pagecolor="#ffffff"
     bordercolor="#666666"
     borderopacity="1.0"
     inkscape:pageopacity="0.0"
     inkscape:pageshadow="2"
     inkscape:zoom="1.4"
     inkscape:cx="-10.972103"
     inkscape:cy="8.7386023"
     inkscape:current-layer="layer1"
     showgrid="false"
     showguides="true"
     inkscape:guide-bbox="true"
     inkscape:window-width="1100"
     inkscape:window-height="667"
     inkscape:window-x="12"
     inkscape:window-y="20" />
  <metadata
     id="metadata4">
    <rdf:RDF>
      <cc:Work
         rdf:about="">
        <dc:format>image/svg+xml</dc:format>
        <dc:type
           rdf:resource="http://purl.org/dc/dcmitype/StillImage" />
      </cc:Work>
    </rdf:RDF>
  </metadata>
  <g
     inkscape:label="Layer 1"
     inkscape:groupmode="layer"
     id="layer1"
     transform="translate(-270.32465,-291.32107)">
    <rect
       style="opacity:1;fill:url(#linearGradient5658);fill-opacity:1;fill-rule:evenodd;stroke:#646464;stroke-width:4.83300000000000020;stroke-linecap:butt;stroke-linejoin:miter;stroke-miterlimit:4;stroke-dasharray:none;stroke-dashoffset:0;stroke-opacity:1"
       id="rect3414"
       width="141.42137"
       height="128.28938"
       x="272.74118"
       y="293.73761"
       ry="20.5263" />
    <g
       id="g4678"
       transform="translate(367.57014,481.24302)"
       style="fill:#000000;fill-opacity:0.81568627;stroke:#000000;stroke-width:3;stroke-miterlimit:4;stroke-dasharray:none;stroke-opacity:1">
      <rect
         style="fill:#000000;fill-opacity:0.81568627;stroke:#000000;stroke-width:3;stroke-miterlimit:4;stroke-dasharray:none;stroke-opacity:1"
         id="rect4680"
         y="-120.42857"
         x="-37.132141"
         ry="1.0035714"
         height="38.135715"
         width="5.0178571" />
      <rect
         style="fill:#000000;fill-opacity:0.81568627;stroke:#000000;stroke-width:3;stroke-miterlimit:4;stroke-dasharray:none;stroke-opacity:1"
         id="rect4682"
         y="-120.42857"
         x="-15.555355"
         ry="1.0035714"
         height="38.135715"
         width="5.0178571" />
    </g>
    <path
       style="fill:none;fill-rule:evenodd;stroke:#000000;stroke-width:4;stroke-linecap:butt;stroke-linejoin:miter;stroke-miterlimit:4;stroke-dasharray:none;stroke-opacity:1"
       d="M 333.90592,379.8823 L 291.47952,379.8823 L 291.47952,379.8823"
       id="path4666" />
    <path
       style="fill:none;fill-rule:evenodd;stroke:#000000;stroke-width:4;stroke-linecap:butt;stroke-linejoin:miter;stroke-miterlimit:4;stroke-dasharray:none;stroke-opacity:1"
       d="M 355.11913,379.8823 L 395.42421,379.8823"
       id="path4668" />
    <g
       id="g8888"
       style="font-style:normal;font-variant:normal;font-weight:normal;font-stretch:normal;letter-spacing:normal;word-spacing:normal;text-anchor:start;fill:none;fill-opacity:1;fill-rule:evenodd;stroke:#000000;stroke-width:0.22354817;stroke-linecap:butt;stroke-linejoin:miter;stroke-miterlimit:10.43299961;stroke-dasharray:none;stroke-dashoffset:0;stroke-opacity:1"
       xml:space="preserve"
       transform="matrix(4.7428709,0,0,-4.2190673,-736.46162,3323.0535)">
<path
   id="path8890"
   style="fill:#000000;stroke-width:0.22354817;stroke-miterlimit:10.43299961;stroke-dasharray:none"
   d="M 225.02,707.9 L 225.01,707.86 L 225,707.83 L 224.99,707.8 L 224.98,707.77 L 224.97,707.74 L 224.96,707.71 L 224.95,707.69 L 224.94,707.66 L 224.93,707.64 L 224.92,707.62 L 224.91,707.6 L 224.89,707.58 L 224.88,707.56 L 224.86,707.55 L 224.84,707.53 L 224.82,707.52 L 224.8,707.51 L 224.77,707.5 L 224.75,707.49 L 224.72,707.48 L 224.68,707.47 L 224.67,707.46 L 224.65,707.46 L 224.63,707.46 L 224.61,707.46 L 224.59,707.45 L 224.57,707.45 L 224.55,707.45 L 224.53,707.44 L 224.5,707.44 L 224.48,707.44 L 224.45,707.44 L 224.43,707.44 L 224.4,707.44 L 224.37,707.44 L 224.34,707.43 L 224.31,707.43 L 224.28,707.43 L 224.25,707.43 L 224.22,707.43 L 224.18,707.43 L 224.15,707.43 L 224.11,707.43 C 223.94,707.43 223.83,707.43 223.83,707.24 C 223.83,707.12 223.92,707.12 224.11,707.12 L 227.41,707.12 L 227.23,707.43 L 226.1,707.43 C 225.96,707.43 225.94,707.43 225.88,707.44 C 225.78,707.45 225.75,707.46 225.75,707.54 C 225.75,707.57 225.75,707.59 225.8,707.77 L 227.17,713.24 C 227.26,713.59 227.28,713.62 227.71,713.62 L 228.77,713.62 C 229.75,713.62 230.58,713.09 230.58,711.78 C 230.58,711.29 230.38,709.65 229.53,708.56 C 229.24,708.19 228.45,707.43 227.23,707.43 L 227.41,707.12 C 229.48,707.12 231.44,709.22 231.44,711.41 C 231.44,712.81 230.6,713.93 229.1,713.93 L 225.75,713.93 C 225.56,713.93 225.46,713.93 225.46,713.74 C 225.46,713.62 225.54,713.62 225.74,713.62 C 225.87,713.62 226.05,713.61 226.17,713.6 C 226.33,713.58 226.39,713.55 226.39,713.44 C 226.39,713.4 226.38,713.37 226.35,713.25 L 225.02,707.9 z" />
</g>  </g>
</svg>
