<?xml version="1.0" encoding="UTF-8" standalone="no"?>
<svg
   xmlns:dc="http://purl.org/dc/elements/1.1/"
   xmlns:cc="http://creativecommons.org/ns#"
   xmlns:rdf="http://www.w3.org/1999/02/22-rdf-syntax-ns#"
   xmlns:svg="http://www.w3.org/2000/svg"
   xmlns="http://www.w3.org/2000/svg"
   xmlns:xlink="http://www.w3.org/1999/xlink"
   xmlns:sodipodi="http://sodipodi.sourceforge.net/DTD/sodipodi-0.dtd"
   xmlns:inkscape="http://www.inkscape.org/namespaces/inkscape"
   inkscape:version="1.0 (4035a4fb49, 2020-05-01)"
   sodipodi:docname="Electric-flux-surface-example.svg"
   id="svg243"
   height="365.78391"
   width="487.71182"
   version="1.1">
  <metadata
     id="metadata247">
    <rdf:RDF>
      <cc:Work
         rdf:about="">
        <dc:format>image/svg+xml</dc:format>
        <dc:type
           rdf:resource="http://purl.org/dc/dcmitype/StillImage" />
        <dc:title>VFPt_metal_ball_grounded_transparent</dc:title>
      </cc:Work>
    </rdf:RDF>
  </metadata>
  <sodipodi:namedview
     inkscape:document-rotation="0"
     fit-margin-bottom="0"
     fit-margin-right="0"
     fit-margin-left="0"
     fit-margin-top="0"
     inkscape:current-layer="svg243"
     inkscape:window-maximized="1"
     inkscape:window-y="-12"
     inkscape:window-x="101"
     inkscape:cy="250.77518"
     inkscape:cx="45.069558"
     inkscape:zoom="2.2250293"
     showgrid="false"
     id="namedview245"
     inkscape:window-height="2120"
     inkscape:window-width="3727"
     inkscape:pageshadow="2"
     inkscape:pageopacity="0"
     guidetolerance="10"
     gridtolerance="10"
     objecttolerance="10"
     borderopacity="1"
     bordercolor="#666666"
     pagecolor="#ffffff" />
  <title
     id="title2">VFPt_metal_ball_grounded_transparent</title>
  <desc
     id="desc4">VFPt_metal_ball_grounded_transparent
created with VectorFieldPlot 1.1
http://commons.wikimedia.org/wiki/User:Geek3/VectorFieldPlot

about: http://commons.wikimedia.org/wiki/File:VFPt_metal_ball_grounded_transparent.svg
rights: GNU Free Documentation license,
        Creative Commons Attribution ShareAlike license
  </desc>
  <defs
     id="defs22">
    <inkscape:path-effect
       live_update="true"
       perimetral="false"
       vertical_mirror="false"
       horizontal_mirror="false"
       lpeversion="1"
       is_visible="true"
       id="path-effect1083"
       gridpoint32x33x34x35="0,0"
       gridpoint29x31="0.5,0"
       gridpoint28x30="-0.15326021,-0.054238626"
       gridpoint25x27="1,0"
       gridpoint24x26="-0.41112349,-0.027119313"
       gridpoint22x23="0,0.5"
       gridpoint20x21="0,-0.5"
       gridpoint19="0.5,0.5"
       gridpoint18="-0.5,0.5"
       gridpoint17="0.5,-0.5"
       gridpoint16="-1.4433647,-0.68402391"
       gridpoint15="1,0.5"
       gridpoint14="-1,0.5"
       gridpoint13="1,-0.5"
       gridpoint12="-1,-0.5"
       gridpoint10x11="0,1"
       gridpoint8x9="0,-1"
       gridpoint7="0.5,1"
       gridpoint6="-0.5,1"
       gridpoint5="0.5,-1"
       gridpoint4="-0.5,-1"
       gridpoint3="0.16704968,0.86440344"
       gridpoint2="-1.3157463,1.1375337"
       gridpoint1="1.3215576,-0.31814299"
       gridpoint0="-1,-1"
       effect="lattice2" />
    <radialGradient
       r="0.75"
       cy="0.69999999"
       cx="0.64999998"
       id="white_spot">
      <stop
         id="stop6"
         stop-opacity="0.7"
         offset="0"
         stop-color="#ffffff" />
      <stop
         id="stop8"
         stop-opacity="0.5"
         offset="0.1"
         stop-color="#ffffff" />
      <stop
         id="stop10"
         stop-opacity="0"
         offset="0.6"
         stop-color="#ffffff" />
      <stop
         id="stop12"
         stop-opacity="0"
         offset="0.6"
         stop-color="#000000" />
      <stop
         id="stop14"
         stop-opacity="0.05"
         offset="0.75"
         stop-color="#000000" />
      <stop
         id="stop16"
         stop-opacity="0.15"
         offset="0.85"
         stop-color="#000000" />
      <stop
         id="stop18"
         stop-opacity="0.5"
         offset="1"
         stop-color="#000000" />
    </radialGradient>
    <path
       style="fill:#000000;stroke:none"
       inkscape:connector-curvature="0"
       d="M 0.3,0 -2.2,2.25 3.8,0 -2.2,-2.25 Z"
       transform="scale(0.00833333)"
       id="arrow1" />
    <radialGradient
       gradientUnits="userSpaceOnUse"
       fy="5.9999995"
       fx="4.4999995"
       r="22.5"
       cy="5.9999995"
       cx="4.4999995"
       id="radialGradient960"
       xlink:href="#white_spot"
       inkscape:collect="always" />
    <radialGradient
       gradientUnits="userSpaceOnUse"
       fy="5.9999995"
       fx="4.4999995"
       r="22.5"
       cy="5.9999995"
       cx="4.4999995"
       id="radialGradient962"
       xlink:href="#white_spot"
       inkscape:collect="always" />
    <radialGradient
       id="metal_spot"
       cx="0.060599942"
       cy="0.080800042"
       r="1.1109999"
       fx="0.30299994"
       fy="0.40399998"
       gradientUnits="userSpaceOnUse"
       xlink:href="#white_spot-7">
      <stop
         stop-color="#fff"
         offset="0"
         stop-opacity="1"
         id="stop259"
         style="stop-color:#ffffff;stop-opacity:0.80000001" />
      <stop
         stop-color="#e7e7e7"
         offset="0.15"
         stop-opacity="1"
         id="stop261"
         style="stop-color:#e7e7e7;stop-opacity:0.80000001" />
      <stop
         stop-color="#ddd"
         offset="0.25"
         stop-opacity="1"
         id="stop263"
         style="stop-color:#dddddd;stop-opacity:0.80000001" />
      <stop
         stop-color="#aaa"
         offset="0.7"
         stop-opacity="1"
         id="stop265"
         style="stop-color:#aaaaaa;stop-opacity:0.80000001" />
      <stop
         stop-color="#888"
         offset="0.9"
         stop-opacity="1"
         id="stop267"
         style="stop-color:#888888;stop-opacity:0.80000001" />
      <stop
         stop-color="#666"
         offset="1"
         stop-opacity="1"
         id="stop269"
         style="stop-color:#666666;stop-opacity:0.80000001" />
    </radialGradient>
    <radialGradient
       id="white_spot-7"
       cx="0.64999998"
       cy="0.69999999"
       r="0.75">
      <stop
         stop-color="#ffffff"
         offset="0"
         stop-opacity="0.7"
         id="stop6-1" />
      <stop
         stop-color="#ffffff"
         offset="0.1"
         stop-opacity="0.5"
         id="stop8-1" />
      <stop
         stop-color="#ffffff"
         offset="0.6"
         stop-opacity="0"
         id="stop10-4" />
      <stop
         stop-color="#000000"
         offset="0.6"
         stop-opacity="0"
         id="stop12-7" />
      <stop
         stop-color="#000000"
         offset="0.75"
         stop-opacity="0.05"
         id="stop14-1" />
      <stop
         stop-color="#000000"
         offset="0.85"
         stop-opacity="0.15"
         id="stop16-8" />
      <stop
         stop-color="#000000"
         offset="1"
         stop-opacity="0.5"
         id="stop18-2" />
    </radialGradient>
    <inkscape:path-effect
       effect="lattice2"
       gridpoint0="-1,-1"
       gridpoint1="1.3215576,-0.31814299"
       gridpoint2="-1.3157463,1.1375337"
       gridpoint3="0.16704968,0.86440344"
       gridpoint4="-0.5,-1"
       gridpoint5="0.5,-1"
       gridpoint6="-0.5,1"
       gridpoint7="0.5,1"
       gridpoint8x9="0,-1"
       gridpoint10x11="0,1"
       gridpoint12="-1,-0.5"
       gridpoint13="1,-0.5"
       gridpoint14="-1,0.5"
       gridpoint15="1,0.5"
       gridpoint16="-1.4433647,-0.68402391"
       gridpoint17="0.5,-0.5"
       gridpoint18="-0.5,0.5"
       gridpoint19="0.5,0.5"
       gridpoint20x21="0,-0.5"
       gridpoint22x23="0,0.5"
       gridpoint24x26="-0.41112349,-0.027119313"
       gridpoint25x27="1,0"
       gridpoint28x30="-0.15326021,-0.054238626"
       gridpoint29x31="0.5,0"
       gridpoint32x33x34x35="0,0"
       id="path-effect948"
       is_visible="true"
       lpeversion="1"
       horizontal_mirror="false"
       vertical_mirror="false"
       perimetral="false"
       live_update="true" />
    <radialGradient
       gradientTransform="matrix(1.711372,0.40799277,-0.23190197,0.97273916,-0.02437141,-0.02252166)"
       r="1.1109999"
       fy="0.40399998"
       fx="0.30299994"
       cy="0.080800042"
       cx="0.060599942"
       gradientUnits="userSpaceOnUse"
       id="radialGradient932"
       xlink:href="#metal_spot-5"
       inkscape:collect="always" />
    <radialGradient
       xlink:href="#white_spot-7-0"
       gradientUnits="userSpaceOnUse"
       fy="0.40399998"
       fx="0.30299994"
       r="1.1109999"
       cy="0.080800042"
       cx="0.060599942"
       id="metal_spot-5">
      <stop
         style="stop-color:#ffffff;stop-opacity:0.80000001"
         id="stop259-3"
         stop-opacity="1"
         offset="0"
         stop-color="#fff" />
      <stop
         style="stop-color:#e7e7e7;stop-opacity:0.80000001"
         id="stop261-4"
         stop-opacity="1"
         offset="0.15"
         stop-color="#e7e7e7" />
      <stop
         style="stop-color:#dddddd;stop-opacity:0.80000001"
         id="stop263-0"
         stop-opacity="1"
         offset="0.25"
         stop-color="#ddd" />
      <stop
         style="stop-color:#aaaaaa;stop-opacity:0.80000001"
         id="stop265-4"
         stop-opacity="1"
         offset="0.7"
         stop-color="#aaa" />
      <stop
         style="stop-color:#888888;stop-opacity:0.80000001"
         id="stop267-1"
         stop-opacity="1"
         offset="0.9"
         stop-color="#888" />
      <stop
         style="stop-color:#666666;stop-opacity:0.80000001"
         id="stop269-9"
         stop-opacity="1"
         offset="1"
         stop-color="#666" />
    </radialGradient>
    <radialGradient
       r="0.75"
       cy="0.69999999"
       cx="0.64999998"
       id="white_spot-7-0">
      <stop
         id="stop6-1-1"
         stop-opacity="0.7"
         offset="0"
         stop-color="#ffffff" />
      <stop
         id="stop8-1-6"
         stop-opacity="0.5"
         offset="0.1"
         stop-color="#ffffff" />
      <stop
         id="stop10-4-8"
         stop-opacity="0"
         offset="0.6"
         stop-color="#ffffff" />
      <stop
         id="stop12-7-5"
         stop-opacity="0"
         offset="0.6"
         stop-color="#000000" />
      <stop
         id="stop14-1-5"
         stop-opacity="0.05"
         offset="0.75"
         stop-color="#000000" />
      <stop
         id="stop16-8-2"
         stop-opacity="0.15"
         offset="0.85"
         stop-color="#000000" />
      <stop
         id="stop18-2-0"
         stop-opacity="0.5"
         offset="1"
         stop-color="#000000" />
    </radialGradient>
    <marker
       inkscape:collect="always"
       inkscape:isstock="true"
       style="overflow:visible"
       id="Arrow2Send"
       refX="0"
       refY="0"
       orient="auto"
       inkscape:stockid="Arrow2Send">
      <path
         inkscape:connector-curvature="0"
         transform="matrix(-0.3,0,0,-0.3,0.69,0)"
         d="M 8.7185878,4.0337352 -2.2072895,0.01601326 8.7185884,-4.0017078 c -1.7454984,2.3720609 -1.7354408,5.6174519 -6e-7,8.035443 z"
         style="fill:#008080;fill-opacity:1;fill-rule:evenodd;stroke:#008080;stroke-width:0.625;stroke-linejoin:round;stroke-opacity:1"
         id="path919" />
    </marker>
  </defs>
  <rect
     y="-4.9707032e-006"
     x="0"
     height="365.78391"
     width="487.71182"
     id="rect958"
     style="fill:#ffffff;fill-opacity:1;stroke:none;stroke-width:1.98921967;stroke-opacity:0.50196078" />
  <g
     transform="matrix(120,0,0,-120,257.71173,284.74588)"
     id="image">
    <g
       style="fill:none;stroke:#000000;stroke-width:0.01666667;stroke-linecap:round;stroke-linejoin:round"
       id="fieldlines">
      <g
         id="fieldline1">
        <path
           inkscape:connector-curvature="0"
           id="path25"
           d="m -1,0 0.3094,0.0418 0.1539,0.0189 0.1132,0.0117 0.094,0.0074 0.0826,0.0043 0.0758,0.0015 0.0723,-9e-4 L -0.0277,0.0813 0.0446,0.0754 0.1213,0.0666 0.2072,0.0541 0.3128,0.0359 0.5,0" />
        <g
           id="arrows1">
          <use
             height="100%"
             width="100%"
             y="0"
             x="0"
             id="use27"
             transform="matrix(1.9988418,0.0680547,-0.0680547,1.9988418,-0.2549,0.0834)"
             xlink:href="#arrow1" />
        </g>
      </g>
      <g
         id="fieldline2">
        <path
           inkscape:connector-curvature="0"
           id="path31"
           d="m -1,0 0.2142,0.0922 0.1143,0.0471 0.0875,0.0335 0.0732,0.0258 0.0649,0.0202 0.0586,0.0159 0.0541,0.0121 0.0508,0.009 0.0482,0.006 0.0463,0.0033 0.0447,7e-4 L -0.0996,0.264 -0.0567,0.2598 -0.0142,0.2531 0.0282,0.2438 0.0708,0.2319 0.1143,0.2172 0.1592,0.1992 0.2063,0.1776 0.2571,0.1513 0.3137,0.1191 0.3829,0.0764 0.5,0" />
        <g
           id="arrows2">
          <use
             height="100%"
             width="100%"
             y="0"
             x="0"
             id="use33"
             transform="matrix(1.9773035,0.30045118,-0.30045118,1.9773035,-0.296,0.253)"
             xlink:href="#arrow1" />
        </g>
      </g>
      <g
         id="fieldline3">
        <path
           inkscape:connector-curvature="0"
           id="path37"
           d="m -1,0 0.161,0.13 0.0907,0.0706 0.0719,0.0531 0.0625,0.0433 0.0563,0.0362 0.052,0.0305 0.0489,0.0259 0.0464,0.0219 0.0445,0.0182 0.043,0.015 0.0415,0.012 0.0405,0.009 0.0394,0.0063 0.0385,0.0036 0.0376,0.0011 0.0369,-0.0015 0.036,-0.0039 L -0.0169,0.465 0.0179,0.4562 0.0521,0.445 0.0858,0.4313 0.119,0.415 0.1518,0.3962 0.1843,0.3745 0.2166,0.3499 0.2489,0.3221 0.2815,0.2906 0.3147,0.2549 0.3494,0.2137 0.3869,0.165 0.4303,0.1039 0.5,0" />
        <g
           id="arrows3">
          <use
             height="100%"
             width="100%"
             y="0"
             x="0"
             id="use39"
             transform="matrix(1.8647738,0.72292369,-0.72292369,1.8647738,-0.3835,0.4221)"
             xlink:href="#arrow1" />
        </g>
      </g>
      <g
         id="fieldline4">
        <path
           inkscape:connector-curvature="0"
           id="path43"
           d="m -1,0 0.1134,0.1593 0.0675,0.0912 0.0558,0.0716 0.0503,0.0607 0.0469,0.0529 0.0447,0.0468 0.0433,0.0417 0.0422,0.0373 0.0415,0.0334 0.0409,0.0298 0.0404,0.0263 0.04,0.0232 0.0397,0.0201 0.0392,0.0172 0.0389,0.0143 0.0384,0.0114 0.038,0.0088 0.0374,0.0061 0.0369,0.0034 0.0362,9e-4 L -0.0328,0.7548 0.002,0.7507 0.036,0.7442 0.0693,0.7353 0.1016,0.7241 0.133,0.7105 0.1634,0.6945 0.1928,0.6763 0.2211,0.6558 0.2483,0.6329 0.2744,0.6077 0.2992,0.58 0.3228,0.55 0.3452,0.5174 0.3662,0.4822 0.3859,0.4441 0.4043,0.403 0.4215,0.3584 0.4374,0.3096 0.4523,0.2556 0.4664,0.1941 0.4806,0.12 0.5,0" />
        <g
           id="arrows4">
          <use
             height="100%"
             width="100%"
             y="0"
             x="0"
             id="use45"
             transform="matrix(1.5654336,1.2447561,-1.2447561,1.5654336,-0.5206,0.5737)"
             xlink:href="#arrow1" />
          <use
             height="100%"
             width="100%"
             y="0"
             x="0"
             id="use47"
             transform="matrix(0.97145051,-1.7482231,1.7482231,0.97145051,0.3604,0.4909)"
             xlink:href="#arrow1" />
        </g>
      </g>
      <g
         id="fieldline5">
        <path
           inkscape:connector-curvature="0"
           id="path51"
           d="m -1,0 0.0648,0.1801 0.0413,0.1082 0.0363,0.0889 0.0343,0.0777 0.0335,0.07 0.0335,0.0643 0.0337,0.0595 0.0343,0.0555 0.0349,0.0519 0.0357,0.0486 0.0364,0.0455 0.0372,0.0424 0.0379,0.0396 0.0386,0.0367 0.0393,0.034 0.0398,0.0312 0.0404,0.0284 0.0407,0.0257 0.041,0.0229 0.0413,0.0203 0.0413,0.0175 0.0413,0.0148 0.0412,0.0122 0.041,0.0095 0.0406,0.0069 L 0.0205,1.1966 0.0601,1.1984 0.099,1.1976 0.1372,1.1944 0.1746,1.1887 0.2109,1.1807 0.2463,1.1704 0.2806,1.1578 0.3136,1.143 0.3454,1.126 0.3759,1.1069 0.4049,1.0857 0.4325,1.0625 0.4586,1.0373 0.483,1.0102 0.5058,0.9811 0.5269,0.9502 0.5461,0.9175 0.5635,0.883 0.5789,0.8466 0.5924,0.8086 0.6037,0.7688 0.6129,0.7273 0.6199,0.6841 0.6246,0.6392 0.6269,0.5925 0.6268,0.5441 0.6241,0.4936 0.6187,0.4411 0.6105,0.3861 0.5992,0.3282 0.5845,0.2663 0.5657,0.1984 0.5412,0.1201 0.5,0" />
        <g
           id="arrows5">
          <use
             height="100%"
             width="100%"
             y="0"
             x="0"
             id="use53"
             transform="matrix(1.072243,1.6882817,-1.6882817,1.072243,-0.6996,0.6854)"
             xlink:href="#arrow1" />
          <use
             height="100%"
             width="100%"
             y="0"
             x="0"
             id="use55"
             transform="matrix(0.5897486,-1.9110721,1.9110721,0.5897486,0.5909,0.8106)"
             xlink:href="#arrow1" />
        </g>
      </g>
      <g
         id="fieldline6">
        <path
           inkscape:connector-curvature="0"
           id="path59"
           d="m -1,0 0.0141,0.1939 0.0111,0.1222 0.0118,0.1041 0.0131,0.0941 0.0148,0.0876 0.0165,0.083 0.0183,0.0793 0.0202,0.0765 0.0222,0.074 0.0242,0.0717 0.0262,0.0697 0.0281,0.0678 0.0301,0.066 0.0321,0.0642 0.0341,0.0624 0.036,0.0606 0.0378,0.0588 0.0397,0.0569 0.0415,0.0551 0.0432,0.0532 0.0449,0.0512 0.0465,0.0492 0.0481,0.047 0.0495,0.045 0.0508,0.0427 0.0522,0.0405 0.0533,0.0382 0.0544,0.0359 0.0553,0.0334 0.0563,0.031 0.0569,0.0285 0.0577,0.026 0.0581,0.0234 0.0585,0.0208 0.0587,0.0182 0.0589,0.0156 0.0588,0.013 0.0587,0.0103 0.0584,0.0077 0.058,0.0051 0.0574,0.0025 H 0.7233 L 0.7791,2.1837 0.8341,2.1786 0.8879,2.1711 0.9406,2.1611 0.9919,2.1489 1.0418,2.1344 1.0901,2.1177 1.1369,2.0989 1.1818,2.078 1.225,2.0552 1.2663,2.0306 1.3056,2.0041 1.3429,1.976 1.3782,1.9462 1.4113,1.915 1.4422,1.8822 1.471,1.8481 1.4976,1.8127 1.5218,1.7761 1.5438,1.7383 1.5635,1.6994 1.5809,1.6594 1.5959,1.6185 1.6085,1.5766 1.6187,1.5339 1.6265,1.4903 1.6319,1.4459 1.6347,1.4007 1.635,1.3548 1.6327,1.3083 1.6279,1.2611 1.6204,1.2133 1.6101,1.165 1.5972,1.1161 1.5814,1.0668 1.5628,1.0171 1.5413,0.967 1.5168,0.9166 1.4894,0.8659 1.4588,0.8149 1.4252,0.7638 1.3883,0.7126 1.3482,0.6613 1.3048,0.61 1.258,0.5587 1.2078,0.5075 1.1539,0.4563 1.0964,0.4051 1.0349,0.3539 0.9691,0.3026 0.8985,0.2509 0.8222,0.1982 0.7382,0.1434 0.642,0.0839 0.5,0" />
        <g
           id="arrows6">
          <use
             height="100%"
             width="100%"
             y="0"
             x="0"
             id="use61"
             transform="matrix(0.47028423,1.943922,-1.943922,0.47028423,-0.905,0.743)"
             xlink:href="#arrow1" />
          <use
             height="100%"
             width="100%"
             y="0"
             x="0"
             id="use63"
             transform="matrix(1.7566339,0.95615759,-0.95615759,1.7566339,-0.0028,1.999)"
             xlink:href="#arrow1" />
          <use
             height="100%"
             width="100%"
             y="0"
             x="0"
             id="use65"
             transform="matrix(1.2472135,-1.5634764,1.5634764,1.2472135,1.4623,1.8577)"
             xlink:href="#arrow1" />
          <use
             height="100%"
             width="100%"
             y="0"
             x="0"
             id="use67"
             transform="matrix(-1.4832494,-1.34163,1.34163,-1.4832494,1.1518,0.4548)"
             xlink:href="#arrow1" />
        </g>
      </g>
      <g
         id="fieldline7">
        <path
           inkscape:connector-curvature="0"
           id="path71"
           d="m -1,0 -0.0395,0.1939 -0.0239,0.1281 -0.0187,0.1127 -0.015,0.105 -0.012,0.1006 -0.0093,0.098 -0.0067,0.0963 -0.0042,0.0953 -0.0017,0.0948 7e-4,0.0947 0.0031,0.0947 0.0056,0.0949 0.008,0.0954 0.0106,0.0958 0.013,0.0966 0.0157,0.0972 0.0182,0.098 0.0209,0.099 0.0236,0.0999 0.0264,0.101 0.0293,0.1021 0.0321,0.1034 0.0351,0.1047 0.0383,0.1062" />
        <g
           id="arrows7">
          <use
             height="100%"
             width="100%"
             y="0"
             x="0"
             id="use73"
             transform="matrix(-0.15239392,1.9941856,-1.9941856,-0.15239392,-1.1182,0.7401)"
             xlink:href="#arrow1" />
          <use
             height="100%"
             width="100%"
             y="0"
             x="0"
             id="use75"
             transform="matrix(0.46009947,1.9463577,-1.9463577,0.46009947,-1.0251,1.9336)"
             xlink:href="#arrow1" />
        </g>
      </g>
      <g
         id="fieldline8">
        <path
           inkscape:connector-curvature="0"
           id="path79"
           d="M -1,0 -1.0973,0.1895 -1.162,0.3206 -1.2183,0.44 -1.2696,0.5546 -1.3174,0.6675 -1.3624,0.7803 -1.4051,0.8941 -1.4457,1.0095 -1.4844,1.1272 -1.5213,1.2474 -1.5564,1.3708 -1.5899,1.4975 -1.6217,1.6279 -1.6518,1.7624 -1.6803,1.9013 -1.7072,2.045 -1.7325,2.1937 -1.756,2.348 -1.7779,2.5083" />
        <g
           id="arrows8">
          <use
             height="100%"
             width="100%"
             y="0"
             x="0"
             id="use81"
             transform="matrix(-0.74629943,1.8555423,-1.8555423,-0.74629943,-1.3212,0.6774)"
             xlink:href="#arrow1" />
          <use
             height="100%"
             width="100%"
             y="0"
             x="0"
             id="use83"
             transform="matrix(-0.38778384,1.9620458,-1.9620458,-0.38778384,-1.677,1.8858)"
             xlink:href="#arrow1" />
        </g>
      </g>
      <g
         id="fieldline9">
        <path
           inkscape:connector-curvature="0"
           id="path87"
           d="m -1,0 -0.1532,0.1651 -0.1081,0.1196 -0.0978,0.1115 -0.0932,0.1097 -0.091,0.1104 -0.0898,0.1127 -0.0895,0.1159 -0.0896,0.1199 -0.0901,0.1244 -0.0909,0.1295 -0.0921,0.135 -0.0934,0.1412 -0.0951,0.1478 -0.0968,0.155 -0.099,0.1627 -0.1014,0.171 -0.104,0.1801" />
        <g
           id="arrows9">
          <use
             height="100%"
             width="100%"
             y="0"
             x="0"
             id="use89"
             transform="matrix(-1.2710787,1.5441369,-1.5441369,-1.2710787,-1.4977,0.5609)"
             xlink:href="#arrow1" />
          <use
             height="100%"
             width="100%"
             y="0"
             x="0"
             id="use91"
             transform="matrix(-1.0604305,1.6957261,-1.6957261,-1.0604305,-2.314,1.7071)"
             xlink:href="#arrow1" />
        </g>
      </g>
      <g
         id="fieldline10">
        <path
           inkscape:connector-curvature="0"
           id="path95"
           d="m -1,0 -0.2204,0.1349 -0.1635,0.1025 -0.1538,0.099 -0.1517,0.1003 -0.153,0.1039 -0.156,0.1086 -0.1603,0.1144 -0.1657,0.121 -0.1718,0.1283 -0.1788,0.1364" />
        <g
           id="arrows10">
          <use
             height="100%"
             width="100%"
             y="0"
             x="0"
             id="use97"
             transform="matrix(-1.6683494,1.1030006,-1.1030006,-1.6683494,-1.6342,0.4002)"
             xlink:href="#arrow1" />
        </g>
      </g>
      <g
         id="fieldline11">
        <path
           inkscape:connector-curvature="0"
           id="path101"
           d="M -1,0 -1.3236,0.0915 -1.583,0.1671 -1.8387,0.2439 -2.1026,0.3256 -2.3801,0.414 -2.675,0.5104" />
        <g
           id="arrows11">
          <use
             height="100%"
             width="100%"
             y="0"
             x="0"
             id="use103"
             transform="matrix(-1.9153438,0.57572399,-0.57572399,-1.9153438,-1.7205,0.2084)"
             xlink:href="#arrow1" />
        </g>
      </g>
      <g
         id="fieldline12">
        <path
           inkscape:connector-curvature="0"
           id="path107"
           d="M -1,0 H -2.675" />
        <g
           id="arrows12">
          <use
             height="100%"
             width="100%"
             y="0"
             x="0"
             id="use109"
             transform="matrix(-2,0,0,-2,-1.75,0)"
             xlink:href="#arrow1" />
        </g>
      </g>
      <g
         id="fieldline13">
        <path
           inkscape:connector-curvature="0"
           id="path113"
           d="M -1,0 -1.3236,-0.0915 -1.583,-0.1671 -1.8387,-0.2439 -2.1026,-0.3256 -2.3801,-0.414 -2.675,-0.5104" />
        <g
           id="arrows13">
          <use
             height="100%"
             width="100%"
             y="0"
             x="0"
             id="use115"
             transform="matrix(-1.9153438,-0.57572399,0.57572399,-1.9153438,-1.7205,-0.2084)"
             xlink:href="#arrow1" />
        </g>
      </g>
      <g
         id="fieldline14">
        <path
           inkscape:connector-curvature="0"
           id="path119"
           d="m -1,0 -0.2204,-0.1349 -0.1635,-0.1025 -0.1538,-0.099 -0.1517,-0.1003 -0.153,-0.1039 -0.156,-0.1086 -0.1603,-0.1144 -0.1657,-0.121 -0.1718,-0.1283 -0.1788,-0.1364" />
        <g
           id="arrows14">
          <use
             height="100%"
             width="100%"
             y="0"
             x="0"
             id="use121"
             transform="matrix(-1.6683494,-1.1030006,1.1030006,-1.6683494,-1.6342,-0.4002)"
             xlink:href="#arrow1" />
        </g>
      </g>
      <g
         id="fieldline15">
        <path
           inkscape:connector-curvature="0"
           id="path125"
           d="m -1,0 -0.1532,-0.1651 -0.1081,-0.1196 -0.0978,-0.1115 -0.0932,-0.1097 -0.091,-0.1104 -0.0898,-0.1127 -0.0895,-0.1159 -0.0896,-0.1199 -0.0901,-0.1244 -0.0909,-0.1295 -0.0921,-0.135 -0.0934,-0.1412 -0.0951,-0.1478 -0.0968,-0.155 -0.099,-0.1627 -0.1014,-0.171 -0.104,-0.1801" />
        <g
           id="arrows15">
          <use
             height="100%"
             width="100%"
             y="0"
             x="0"
             id="use127"
             transform="matrix(-1.2710787,-1.5441369,1.5441369,-1.2710787,-1.4977,-0.5609)"
             xlink:href="#arrow1" />
          <use
             height="100%"
             width="100%"
             y="0"
             x="0"
             id="use129"
             transform="matrix(-1.0604305,-1.6957261,1.6957261,-1.0604305,-2.314,-1.7071)"
             xlink:href="#arrow1" />
        </g>
      </g>
      <g
         id="fieldline16">
        <path
           inkscape:connector-curvature="0"
           id="path133"
           d="M -1,0 -1.0973,-0.1895 -1.162,-0.3206 -1.2183,-0.44 -1.2696,-0.5546 -1.3174,-0.6675 -1.3624,-0.7803 -1.4051,-0.8941 -1.4457,-1.0095 -1.4844,-1.1272 -1.5213,-1.2474 -1.5564,-1.3708 -1.5899,-1.4975 -1.6217,-1.6279 -1.6518,-1.7624 -1.6803,-1.9013 -1.7072,-2.045 -1.7325,-2.1937 -1.756,-2.348 -1.7779,-2.5083" />
        <g
           id="arrows16">
          <use
             height="100%"
             width="100%"
             y="0"
             x="0"
             id="use135"
             transform="matrix(-0.74629943,-1.8555423,1.8555423,-0.74629943,-1.3212,-0.6774)"
             xlink:href="#arrow1" />
          <use
             height="100%"
             width="100%"
             y="0"
             x="0"
             id="use137"
             transform="matrix(-0.38778384,-1.9620458,1.9620458,-0.38778384,-1.677,-1.8858)"
             xlink:href="#arrow1" />
        </g>
      </g>
      <g
         id="fieldline17">
        <path
           inkscape:connector-curvature="0"
           id="path141"
           d="m -1,0 -0.0395,-0.1939 -0.0239,-0.1281 -0.0187,-0.1127 -0.015,-0.105 -0.012,-0.1006 -0.0093,-0.098 -0.0067,-0.0963 -0.0042,-0.0953 -0.0017,-0.0948 7e-4,-0.0947 0.0031,-0.0947 0.0056,-0.0949 0.008,-0.0954 0.0106,-0.0958 0.013,-0.0966 0.0157,-0.0972 0.0182,-0.098 0.0209,-0.099 0.0236,-0.0999 0.0264,-0.101 0.0293,-0.1021 0.0321,-0.1034 0.0351,-0.1047 0.0383,-0.1062" />
        <g
           id="arrows17">
          <use
             height="100%"
             width="100%"
             y="0"
             x="0"
             id="use143"
             transform="matrix(-0.15239392,-1.9941856,1.9941856,-0.15239392,-1.1182,-0.7401)"
             xlink:href="#arrow1" />
          <use
             height="100%"
             width="100%"
             y="0"
             x="0"
             id="use145"
             transform="matrix(0.46009947,-1.9463577,1.9463577,0.46009947,-1.0251,-1.9336)"
             xlink:href="#arrow1" />
        </g>
      </g>
      <g
         id="fieldline18">
        <path
           inkscape:connector-curvature="0"
           id="path149"
           d="m -1,0 0.0141,-0.1939 0.0111,-0.1222 0.0118,-0.1041 0.0131,-0.0941 0.0148,-0.0876 0.0165,-0.083 0.0183,-0.0793 0.0202,-0.0765 0.0222,-0.074 0.0242,-0.0717 0.0262,-0.0697 0.0281,-0.0678 0.0301,-0.066 0.0321,-0.0642 0.0341,-0.0624 0.036,-0.0606 0.0378,-0.0588 0.0397,-0.0569 0.0415,-0.0551 0.0432,-0.0532 0.0449,-0.0512 0.0465,-0.0492 0.0481,-0.047 0.0495,-0.045 0.0508,-0.0427 0.0522,-0.0405 0.0533,-0.0382 0.0544,-0.0359 0.0553,-0.0334 0.0563,-0.031 0.0569,-0.0285 0.0577,-0.026 0.0581,-0.0234 0.0585,-0.0208 0.0587,-0.0182 0.0589,-0.0156 0.0588,-0.013 0.0587,-0.0103 0.0584,-0.0077 0.058,-0.0051 0.0574,-0.0025 h 0.0568 l 0.0558,0.0026 0.055,0.0051 0.0538,0.0075 0.0527,0.01 0.0513,0.0122 0.0499,0.0145 0.0483,0.0167 0.0468,0.0188 0.0449,0.0209 0.0432,0.0228 0.0413,0.0246 0.0393,0.0265 0.0373,0.0281 0.0353,0.0298 0.0331,0.0312 0.0309,0.0328 0.0288,0.0341 0.0266,0.0354 0.0242,0.0366 0.022,0.0378 0.0197,0.0389 0.0174,0.04 0.015,0.0409 0.0126,0.0419 0.0102,0.0427 0.0078,0.0436 0.0054,0.0444 0.0028,0.0452 3e-4,0.0459 L 1.6327,-1.3083 1.6279,-1.2611 1.6204,-1.2133 1.6101,-1.165 1.5972,-1.1161 1.5814,-1.0668 1.5628,-1.0171 1.5413,-0.967 1.5168,-0.9166 1.4894,-0.8659 1.4588,-0.8149 1.4252,-0.7638 1.3883,-0.7126 1.3482,-0.6613 1.3048,-0.61 1.258,-0.5587 1.2078,-0.5075 1.1539,-0.4563 1.0964,-0.4051 1.0349,-0.3539 0.9691,-0.3026 0.8985,-0.2509 0.8222,-0.1982 0.7382,-0.1434 0.642,-0.0839 0.5,0" />
        <g
           id="arrows18">
          <use
             height="100%"
             width="100%"
             y="0"
             x="0"
             id="use151"
             transform="matrix(0.47028423,-1.943922,1.943922,0.47028423,-0.905,-0.743)"
             xlink:href="#arrow1" />
          <use
             height="100%"
             width="100%"
             y="0"
             x="0"
             id="use153"
             transform="matrix(1.7566339,-0.95615759,0.95615759,1.7566339,-0.0028,-1.999)"
             xlink:href="#arrow1" />
          <use
             height="100%"
             width="100%"
             y="0"
             x="0"
             id="use155"
             transform="matrix(1.2472135,1.5634764,-1.5634764,1.2472135,1.4623,-1.8577)"
             xlink:href="#arrow1" />
          <use
             height="100%"
             width="100%"
             y="0"
             x="0"
             id="use157"
             transform="matrix(-1.4832494,1.34163,-1.34163,-1.4832494,1.1518,-0.4548)"
             xlink:href="#arrow1" />
        </g>
      </g>
      <g
         id="fieldline19">
        <path
           inkscape:connector-curvature="0"
           id="path161"
           d="m -1,0 0.0648,-0.1801 0.0413,-0.1082 0.0363,-0.0889 0.0343,-0.0777 0.0335,-0.07 0.0335,-0.0643 0.0337,-0.0595 0.0343,-0.0555 0.0349,-0.0519 0.0357,-0.0486 0.0364,-0.0455 0.0372,-0.0424 0.0379,-0.0396 0.0386,-0.0367 0.0393,-0.034 0.0398,-0.0312 0.0404,-0.0284 0.0407,-0.0257 0.041,-0.0229 0.0413,-0.0203 0.0413,-0.0175 0.0413,-0.0148 0.0412,-0.0122 0.041,-0.0095 0.0406,-0.0069 0.0402,-0.0043 0.0396,-0.0018 0.0389,8e-4 0.0382,0.0032 0.0374,0.0057 0.0363,0.008 0.0354,0.0103 0.0343,0.0126 0.033,0.0148 0.0318,0.017 0.0305,0.0191 0.029,0.0212 0.0276,0.0232 0.0261,0.0252 0.0244,0.0271 0.0228,0.0291 0.0211,0.0309 0.0192,0.0327 0.0174,0.0345 0.0154,0.0364 0.0135,0.038 0.0113,0.0398 0.0092,0.0415 0.007,0.0432 0.0047,0.0449 0.0023,0.0467 -10e-5,0.0484 -0.0027,0.0505 -0.0054,0.0525 -0.0082,0.055 L 0.5992,-0.3282 0.5845,-0.2663 0.5657,-0.1984 0.5412,-0.1201 0.5,0" />
        <g
           id="arrows19">
          <use
             height="100%"
             width="100%"
             y="0"
             x="0"
             id="use163"
             transform="matrix(1.072243,-1.6882817,1.6882817,1.072243,-0.6996,-0.6854)"
             xlink:href="#arrow1" />
          <use
             height="100%"
             width="100%"
             y="0"
             x="0"
             id="use165"
             transform="matrix(0.5897486,1.9110721,-1.9110721,0.5897486,0.5909,-0.8106)"
             xlink:href="#arrow1" />
        </g>
      </g>
      <g
         id="fieldline20">
        <path
           inkscape:connector-curvature="0"
           id="path169"
           d="m -1,0 0.1134,-0.1593 0.0675,-0.0912 0.0558,-0.0716 0.0503,-0.0607 0.0469,-0.0529 0.0447,-0.0468 0.0433,-0.0417 0.0422,-0.0373 0.0415,-0.0334 0.0409,-0.0298 0.0404,-0.0263 0.04,-0.0232 0.0397,-0.0201 0.0392,-0.0172 0.0389,-0.0143 0.0384,-0.0114 0.038,-0.0088 0.0374,-0.0061 0.0369,-0.0034 0.0362,-9e-4 0.0356,0.0016 0.0348,0.0041 0.034,0.0065 0.0333,0.0089 0.0323,0.0112 0.0314,0.0136 0.0304,0.016 0.0294,0.0182 0.0283,0.0205 0.0272,0.0229 0.0261,0.0252 0.0248,0.0277 0.0236,0.03 0.0224,0.0326 0.021,0.0352 0.0197,0.0381 0.0184,0.0411 0.0172,0.0446 0.0159,0.0488 0.0149,0.054 0.0141,0.0615 L 0.4806,-0.12 0.5,0" />
        <g
           id="arrows20">
          <use
             height="100%"
             width="100%"
             y="0"
             x="0"
             id="use171"
             transform="matrix(1.5654336,-1.2447561,1.2447561,1.5654336,-0.5206,-0.5737)"
             xlink:href="#arrow1" />
          <use
             height="100%"
             width="100%"
             y="0"
             x="0"
             id="use173"
             transform="matrix(0.97145051,1.7482231,-1.7482231,0.97145051,0.3604,-0.4909)"
             xlink:href="#arrow1" />
        </g>
      </g>
      <g
         id="fieldline21">
        <path
           inkscape:connector-curvature="0"
           id="path177"
           d="m -1,0 0.161,-0.13 0.0907,-0.0706 0.0719,-0.0531 0.0625,-0.0433 0.0563,-0.0362 0.052,-0.0305 0.0489,-0.0259 0.0464,-0.0219 0.0445,-0.0182 0.043,-0.015 0.0415,-0.012 0.0405,-0.009 0.0394,-0.0063 0.0385,-0.0036 0.0376,-0.0011 0.0369,0.0015 0.036,0.0039 0.0355,0.0063 0.0348,0.0088 0.0342,0.0112 0.0337,0.0137 0.0332,0.0163 0.0328,0.0188 0.0325,0.0217 0.0323,0.0246 0.0323,0.0278 0.0326,0.0315 0.0332,0.0357 0.0347,0.0412 0.0375,0.0487 0.0434,0.0611 L 0.5,0" />
        <g
           id="arrows21">
          <use
             height="100%"
             width="100%"
             y="0"
             x="0"
             id="use179"
             transform="matrix(1.8647738,-0.72292369,0.72292369,1.8647738,-0.3835,-0.4221)"
             xlink:href="#arrow1" />
        </g>
      </g>
      <g
         id="fieldline22">
        <path
           inkscape:connector-curvature="0"
           id="path183"
           d="m -1,0 0.2142,-0.0922 0.1143,-0.0471 0.0875,-0.0335 0.0732,-0.0258 0.0649,-0.0202 0.0586,-0.0159 0.0541,-0.0121 0.0508,-0.009 0.0482,-0.006 0.0463,-0.0033 0.0447,-7e-4 0.0436,0.0018 0.0429,0.0042 0.0425,0.0067 0.0424,0.0093 0.0426,0.0119 0.0435,0.0147 0.0449,0.018 0.0471,0.0216 0.0508,0.0263 0.0566,0.0322 0.0692,0.0427 L 0.5,0" />
        <g
           id="arrows22">
          <use
             height="100%"
             width="100%"
             y="0"
             x="0"
             id="use185"
             transform="matrix(1.9773035,-0.30045118,0.30045118,1.9773035,-0.296,-0.253)"
             xlink:href="#arrow1" />
        </g>
      </g>
      <g
         id="fieldline23">
        <path
           inkscape:connector-curvature="0"
           id="path189"
           d="m -1,0 0.3094,-0.0418 0.1539,-0.0189 0.1132,-0.0117 0.094,-0.0074 0.0826,-0.0043 0.0758,-0.0015 0.0723,9e-4 0.0711,0.0034 0.0723,0.0059 0.0767,0.0088 0.0859,0.0125 0.1056,0.0182 L 0.5,0" />
        <g
           id="arrows23">
          <use
             height="100%"
             width="100%"
             y="0"
             x="0"
             id="use191"
             transform="matrix(1.9988418,-0.0680547,0.0680547,1.9988418,-0.2549,-0.0834)"
             xlink:href="#arrow1" />
        </g>
      </g>
    </g>
    <g
       id="symbols">
      <g
         transform="matrix(0.00833333,0,0,0.00833333,-1,0)"
         id="charge1">
        <circle
           id="circle196"
           r="14"
           cy="0"
           cx="0"
           style="fill:#ff0000;stroke:none" />
        <circle
           id="circle198"
           style="fill:url(#radialGradient960);stroke:#000000;stroke-width:2"
           r="14"
           cy="0"
           cx="0" />
        <path
           inkscape:connector-curvature="0"
           id="path200"
           style="fill:#000000;stroke:none"
           d="M 2,2 V 8 H -2 V 2 h -6 v -4 h 6 v -6 h 4 v 6 h 6 v 4 z" />
      </g>
      <g
         transform="matrix(0.00589256,0,0,0.00589256,0.5,0)"
         id="charge2">
        <circle
           id="circle203"
           r="14"
           cy="0"
           cx="0"
           style="fill:#0000ff;stroke:none" />
        <circle
           id="circle205"
           style="fill:url(#radialGradient962);stroke:#000000;stroke-width:2"
           r="14"
           cy="0"
           cx="0" />
        <path
           inkscape:connector-curvature="0"
           id="path207"
           style="fill:#000000;stroke:none"
           d="M 8,2 H -8 V -2 H 8 Z" />
      </g>
    </g>
  </g>
  <path
     d="M 0.74430364,0.27313023 C 0.58641764,0.43485066 0.37212918,0.57490769 0.12383352,0.70776885 -0.11136625,0.8336225 -0.39383674,0.96771843 -0.57434831,1.0009686 c -0.20601581,0.037948 -0.3661779,-0.0233096 -0.32684462,-0.21331186 0.0378777,-0.18297101 0.28860082,-0.45087739 0.33219629,-0.7460092 0.0435955,-0.29513182 -0.23823079,-0.57273039 -0.16441608,-0.69433027 0.0723862,-0.1192466 0.57148186,-0.10117075 0.89419152,-0.006389 0.26609373,0.0781535 0.54377737,0.26805474 0.66813634,0.4269975 0.14404574,0.18410436 0.0808695,0.3357043 -0.0846115,0.50520423 z"
     transform="matrix(-161.03652,69.389428,69.389428,161.03652,183.89472,222.78976)"
     sodipodi:ry="1"
     sodipodi:rx="1"
     sodipodi:cy="0"
     sodipodi:cx="0"
     sodipodi:type="arc"
     inkscape:path-effect="#path-effect1083"
     id="circle272"
     style="opacity:0.75;fill:url(#radialGradient932);fill-opacity:1;stroke:none;stroke-width:0.02;stroke-linecap:square" />
  <path
     sodipodi:nodetypes="ccccc"
     d="m 230.78348,104.04357 c 5.24478,-0.92311 9.11138,-3.27782 17.97729,0 2.04133,4.7723 1.85183,10.05941 0,15.73013 -5.05933,-1.67958 -11.44248,-0.97628 -17.97729,0 1.75938,-5.24338 2.12834,-10.48675 0,-15.73013 z"
     style="fill:#008080;fill-opacity:0.15000001;stroke:none;stroke-width:1;stroke-miterlimit:4;stroke-dasharray:none;stroke-opacity:1"
     id="rect1085" />
  <path
     inkscape:transform-center-y="-10.058825"
     inkscape:transform-center-x="-25.412536"
     sodipodi:nodetypes="cc"
     inkscape:connector-curvature="0"
     id="path1361"
     d="m 238.45623,110.96337 46.5609,-15.706245"
     style="fill:#008080;stroke:#008080;stroke-width:4.30287;stroke-linecap:butt;stroke-linejoin:miter;stroke-miterlimit:4;stroke-dasharray:none;stroke-opacity:1;marker-end:url(#Arrow2Send)" />
  <g
     style="fill:#008080"
     transform="matrix(3.191738,0,0,3.191738,-497.0404,-261.46868)"
     id="g3714">
    <path
       d="m 253.00587,111.62087 -1.3465,5.89089 q -0.16836,0.16837 -0.16836,0.50499 0,0.33663 0.33673,0.33663 0.33652,0 0.67325,-1.00988 0,-0.33663 0.16826,-0.33663 0,0 0.16826,0 0.16836,0 0.16836,0.16837 0,0 -0.0841,0.33652 -0.0842,0.33668 -0.2525,0.6733 -0.33663,0.67325 -1.00988,0.67325 -0.84161,0 -1.17813,-0.67325 -0.67325,0.67325 -1.51486,0.67325 -0.84162,0 -1.34651,-0.50493 -0.50493,-0.50494 -0.50493,-1.34651 0,-1.17813 0.84156,-2.18811 0.84151,-1.00977 2.18801,-1.00977 0.67325,0 1.00998,0.33652 l 0.67325,-2.35627 q -0.16837,0 -0.50499,0 -0.33662,0 -0.33662,-0.16837 0,-0.16836 0.0841,-0.25249 0.0842,-0.0841 0.16837,-0.0841 0.0841,0 0.25239,0 h 1.3465 q 0,0 0,0 0.33673,0 0.33673,0.16826 0,0 -0.16837,0.16836 z m -2.69299,6.05926 0.67325,-2.69301 v -0.16836 q 0,-0.16826 -0.2525,-0.42076 -0.25239,-0.25249 -0.58912,-0.25249 -0.84151,0 -1.3465,1.17824 -0.16826,0.33663 -0.33652,1.094 -0.16837,0.75749 -0.16837,1.09401 0,0.84162 0.67326,0.84162 0.50488,0 0.84161,-0.16832 0.33652,-0.16831 0.50489,-0.50493 z"
       id="path1231"
       style="fill:#008080;fill-opacity:1;stroke:none;stroke-width:10.772;stroke-linecap:square;stroke-linejoin:miter;stroke-miterlimit:10;stroke-dasharray:none;stroke-dashoffset:0" />
    <path
       d="m 259.82099,109.69413 h -3.36625 q -0.50499,0 -0.50499,-0.33663 0,-0.33662 0.50499,-0.33662 h 3.70277 q 0,0 -0.0841,-0.16837 -0.0841,-0.16826 -0.0841,-0.16826 0,-0.16826 0.0841,-0.2525 0.0841,-0.0841 0.25249,-0.0841 0,0 0.0841,0 0.0842,0 0.0842,0.0841 0,0.0842 0.16826,0.0842 0.16826,0.33652 0.50499,0.67325 0.33652,0 0.33652,0.16826 0,0.16826 -0.0841,0.2525 -0.0841,0.0841 -0.16826,0.0841 -0.0841,0 -0.0841,0 -0.50499,0.33662 -1.00998,0.67325 -0.16826,0.16836 -0.25239,0.16836 -0.0841,0 -0.2525,-0.0842 -0.16836,-0.0841 -0.16836,-0.25249 0,-0.16826 0.16836,-0.16826 l 0.16837,-0.16826 q 0,0 0,-0.16836 z"
       id="path1242"
       style="fill:#008080;fill-opacity:1;stroke:none;stroke-width:10.772;stroke-linecap:square;stroke-linejoin:miter;stroke-miterlimit:10;stroke-dasharray:none;stroke-dashoffset:0" />
    <path
       d="m 260.08076,111.28425 1.00998,6.7325 q 0,0.16831 0.0841,0.16831 0.0841,0 0.0841,0 0.16826,0 0.50499,0 0.16826,0 0.25239,0 0.0841,0 0.0841,0.0842 0,0.0842 0,0.0842 0,0.16831 0,0.25246 0,0.0842 -0.0841,0.0842 -0.0841,0 -0.0841,0 -0.16826,0 -0.42075,0 -0.2525,0 -0.42076,0 -0.16837,0 -0.42086,0 -0.25239,0 -0.25239,0 -0.16837,0 -0.84162,0 -0.67325,0 -0.84161,0 -0.16826,0 -0.16826,-0.16831 0,-0.16831 0.0841,-0.25247 0.0841,-0.0842 0.0841,-0.0842 0,0 0.16836,0 0.50489,0 0.67325,0 l -0.16836,-1.68307 h -2.86126 l -1.00987,1.51476 q 0.16836,0.16831 0.50488,0.16831 0.33673,0 0.33673,0.16832 0,0.33662 -0.33673,0.33662 -0.16826,0 -0.58901,0 -0.42076,0 -0.58913,0 -0.16836,0 -0.50488,0 -0.33668,0 -0.50499,0 0,0 -0.0841,-0.0842 -0.0842,-0.0841 -0.0842,-0.0841 0,-0.16831 0.0842,-0.25247 0.0841,-0.0842 0.0841,-0.0842 0,0 0.16831,0 0.33668,0 0.58907,-0.0842 0.25249,-0.0841 0.33662,-0.1683 0.0842,-0.0842 0.0842,-0.0842 l 4.20776,-6.56419 q 0.16826,-0.16826 0.2525,-0.2525 0.0841,-0.0841 0.25249,-0.0841 0.16826,0 0.25239,0.0841 0.0841,0.0842 0.0841,0.2525 z m -1.17814,1.68313 -2.01974,3.02962 h 2.35637 z"
       id="path1253"
       style="fill:#008080;fill-opacity:1;stroke:none;stroke-width:10.772;stroke-linecap:square;stroke-linejoin:miter;stroke-miterlimit:10;stroke-dasharray:none;stroke-dashoffset:0" />
  </g>
</svg>
