<svg height="294.41599" width="461.32275" xmlns="http://www.w3.org/2000/svg"><g transform="translate(-120.55775 -551.43418)"><text font-family="Nimbus Roman No9 L" letter-spacing="0" word-spacing="0" x="360.20288" y="691.11414"><tspan font-size="21.333333" font-style="italic" text-anchor="middle" x="360.20288" y="691.11414">Industry</tspan><tspan font-size="21.333333" text-anchor="middle" x="360.20288" y="711.0011">Rivalry</tspan></text><path d="m440 697.36218h20" fill="none" stroke="#000"/><path d="m442.7 700.96218-8.4-3.6 8.4-3.6-2.4 3.6z"/><text font-family="Nimbus Roman No9 L" letter-spacing="0" word-spacing="0" x="468.83237" y="692.65021"><tspan font-size="21.333333" x="468.83237" y="692.65021">Threat of</tspan><tspan font-size="21.333334" font-style="italic" x="468.83237" y="716.11542">Substitutes</tspan></text><path d="m360 617.3622v-20" fill="none" stroke="#000"/><path d="m363.6 614.6622-3.6 8.4-3.6-8.4 3.6 2.4z"/><text font-family="Nimbus Roman No9 L" letter-spacing="0" word-spacing="0" x="360.04538" xml:space="preserve" y="582.36218"><tspan font-size="21.333333" text-anchor="middle" x="360.04538" y="582.36218">Bargaining Power of <tspan font-size="21.333333" font-style="italic">Suppliers</tspan></tspan></text><path d="m280 697.36218h-20" fill="none" stroke="#000"/><path d="m277.3 700.96218 8.4-3.6-8.4-3.6 2.4 3.6z"/><text font-family="Nimbus Roman No9 L" letter-spacing="0" word-spacing="0" x="251.58292" y="692.65021"><tspan font-size="21.333334" text-anchor="end" x="251.58292" y="692.65021">Threat of</tspan><tspan font-size="21.333334" text-anchor="end" x="251.58292" y="719.46759"><tspan font-size="21.333334" font-style="italic">New Entrants</tspan></tspan></text><path d="m360 777.36218v20" fill="none" stroke="#000"/><path d="m363.6 780.06218-3.6-8.4-3.6 8.4 3.6-2.4z"/><text font-family="Nimbus Roman No9 L" letter-spacing="0" word-spacing="0" x="360.04538" xml:space="preserve" y="822.36218"><tspan font-size="21.333333" text-anchor="middle" x="360.04538" y="822.36218">Bargaining Power of <tspan font-size="21.333333" font-style="italic">Buyers</tspan></tspan></text><path d="m415 707.36218c0 33.13709-26.86292 60-60 60s-60-26.86291-60-60c0-33.13708 26.86292-60 60-60s60 26.86292 60 60z" fill="none" stroke="#000" transform="matrix(.70710678 .70710678 -.70710678 .70710678 609.15769 -53.841322)"/><path d="m398.18376 738.94006 8.48529-3.39412-3.39412 8.48529-.84852-4.24264z"/><path d="m321.81624 655.7843-8.48529 3.39412 3.39412-8.48529.84852 4.24264z"/><path d="m401.57788 659.17842-3.39412-8.48529 8.48529 3.39412-4.24264.84852z"/><path d="m311.20963 738.51579 8.48529 3.39412-3.39412-8.48529-.84853 4.24265z"/></g></svg>