<svg xmlns="http://www.w3.org/2000/svg" version="1.0" viewBox="0 0 300 300">
  <defs>
    <radialGradient id="b" cx="150" cy="150" r="142" gradientUnits="userSpaceOnUse">
      <stop offset="0" stop-color="#00FFB5"/>
      <stop offset="1" stop-color="#1FAD8C"/>
    </radialGradient>
    <radialGradient id="a" cx="151" cy="274" r="146" gradientTransform="matrix(1 0 0 .13404 0 237.441)" gradientUnits="userSpaceOnUse">
      <stop offset="0" stop-opacity=".462366"/>
      <stop offset="1" stop-opacity="0"/>
    </radialGradient>
    <linearGradient id="c" x1="158" x2="158" y1="290" y2="9.75" gradientUnits="userSpaceOnUse">
      <stop offset="0" stop-color="#FFF" stop-opacity=".369176"/>
      <stop offset="1" stop-color="#FFF" stop-opacity=".236559"/>
    </linearGradient>
  </defs>
  <path fill="url(#a)" d="M297 274a146 19.6 0 1 1-292 0 146 19.6 0 1 1 292 0z" color="#000" transform="translate(.0000196 .00011034)"/>
  <g transform="translate(-314.11287576 46.76804363) scale(1.09259)">
    <rect width="284" height="284" x="8" y="8" fill="url(#b)" stroke="#005534" stroke-width="5.2" color="#000" rx="15" ry="15" transform="translate(307.46 -27.391) scale(.80111)"/>
    <rect width="275" height="275" x="12.3" y="12.3" fill="none" stroke="url(#c)" stroke-width="5.04" color="#000" rx="14.5" ry="14.5" transform="translate(307.46 -27.391) scale(.80111)"/>
    <path fill="#004b44" d="M398 36.2c-.895.639-1.85 1.33-2.88 2.08-1.02.746-2.02 1.43-3 2.04-.98.618-1.89 1.13-2.72 1.53-.831.405-1.5.607-2.01.607-.554.000084-1.11-.373-1.66-1.12-.554-.745-1.17-1.57-1.85-2.46-.682-.895-1.47-1.71-2.36-2.46-.895-.745-1.94-1.12-3.13-1.12-1.62.000091-3.05.479-4.28 1.44-1.24.959-2.32 2.24-3.26 3.83-.937 1.6-1.75 3.43-2.43 5.5-.682 2.07-1.26 4.21-1.73 6.42-.469 2.22-.863 4.41-1.18 6.58-.32 2.17-.564 4.15-.735 5.94l-.383 3h16.4l1.28 1.79c-.426.596-1 1.25-1.73 1.95-.724.703-1.49 1.37-2.3 2.01-.809.639-1.59 1.22-2.33 1.76-.746.533-1.33.905-1.76 1.12-.213-.596-.543-1.08-.99-1.44-.447-.362-1.05-.65-1.82-.863-.767-.213-1.73-.362-2.88-.447-1.15-.0852-2.51-.128-4.09-.128h-.383l-4.6 39.7c-.554 4.69-1.5 9.21-2.84 13.6-1.34 4.37-3.02 8.44-5.05 12.2-2.02 3.77-4.36 7.16-7 10.2-2.64 3-5.54 5.46-8.69 7.38l-1.66-4.03c2.13-1.19 4.06-3.07 5.78-5.62 1.73-2.56 3.24-5.5 4.54-8.82s2.38-6.85 3.23-10.6c.852-3.73 1.47-7.34 1.85-10.8l4.98-43.2h-9.65l-.959-1.98 6.45-3.77h4.79c.426-3.41.927-6.69 1.5-9.84.575-3.15 1.38-6.13 2.43-8.95 1.04-2.81 2.43-5.44 4.15-7.89 1.73-2.45 3.93-4.68 6.61-6.68 1.15-.809 2.26-1.58 3.32-2.3 1.07-.724 2.15-1.36 3.26-1.92 1.11-.554 2.25-.98 3.42-1.28 1.17-.298 2.42-.447 3.74-.447 1.87.000097 3.57.352 5.08 1.05 1.51.703 2.86 1.49 4.06 2.36 1.19.873 2.25 1.71 3.16 2.52.916.81 1.69 1.32 2.33 1.53zm21 57.4c-.0345-6.25-.969-13.5-6.11-17.7-5.07-3.92-13.2-3.12-17.2 2-5.35 6.28-6.69 14.9-6.78 22.9.131 7.05 2.5 14.9 8.72 18.9 4.34 2.76 10.3 1.4 13.6-2.32 4.66-4.99 6.5-11.9 7.41-18.5.208-1.76.336-3.53.337-5.31zm9.14-3.51c-.0728 14.7-8.14 29.5-21.4 36.2-6.22 3.48-14.6 2.8-19.8-2.27-6.25-6-7.63-15.3-7.09-23.6.414-9.27 4.2-18.4 11-24.8 4.88-4.75 10.9-9.02 17.9-9.56 5.92-.458 12.3 1.95 15.5 7.15 3.21 4.99 3.93 11.1 3.98 16.9zM476 71.9c-.852.98-1.69 1.86-2.52 2.65-.831.788-1.61 1.48-2.33 2.08-.724.596-1.37 1.05-1.95 1.37-.575.32-1.01.479-1.31.479-.554.000047-1.14-.373-1.76-1.12-.618-.745-1.32-1.55-2.11-2.43-.788-.873-1.7-1.68-2.75-2.43-1.04-.745-2.27-1.12-3.67-1.12-1.19.000054-2.36.224-3.51.671s-2.18 1.07-3.1 1.85c-.916.788-1.66 1.75-2.24 2.88-.575 1.13-.863 2.38-.863 3.74-.00002 1.49.714 3.07 2.14 4.73s3.87 3.28 7.32 4.86c1.75.809 3.49 1.75 5.24 2.81 1.75 1.07 3.31 2.29 4.7 3.67 1.38 1.38 2.51 2.96 3.39 4.73.873 1.77 1.31 3.78 1.31 6.04-.00004 2.94-.756 5.7-2.27 8.28s-3.45 4.81-5.82 6.71c-2.36 1.9-5 3.39-7.89 4.47-2.9 1.09-5.73 1.63-8.5 1.63-2-.00001-3.98-.288-5.94-.863s-3.71-1.31-5.24-2.2c-1.53-.895-2.78-1.86-3.74-2.91-.959-1.04-1.44-2.01-1.44-2.91 0-.469.256-1.15.767-2.04.511-.895 1.12-1.78 1.82-2.65.703-.873 1.42-1.64 2.14-2.3.724-.66 1.32-.99 1.79-.99.298.00002.607.266.927.799s.724 1.19 1.21 1.98c.49.788 1.08 1.65 1.76 2.59.682.937 1.53 1.8 2.56 2.59 1.02.788 2.23 1.45 3.61 1.98 1.38.533 3.01.799 4.89.799 1.49 0 2.91-.288 4.25-.863s2.51-1.34 3.51-2.3c1-.959 1.79-2.09 2.36-3.39.575-1.3.863-2.69.863-4.19-.00004-1.66-.341-3.16-1.02-4.51-.682-1.34-1.59-2.56-2.72-3.64-1.13-1.09-2.44-2.08-3.93-2.97-1.49-.895-3.05-1.73-4.66-2.49-2.26-1.07-4.15-2.13-5.69-3.2-1.53-1.07-2.77-2.15-3.71-3.26-.937-1.11-1.61-2.28-2.01-3.51-.405-1.24-.607-2.53-.607-3.9 0-2.68.66-5.13 1.98-7.35s3.02-4.12 5.11-5.72 4.42-2.83 7-3.71c2.58-.873 5.12-1.31 7.64-1.31 2.17.000059 4 .256 5.5.767 1.49.511 2.8 1.11 3.93 1.79 1.13.682 2.12 1.34 2.97 1.98.852.639 1.73 1.09 2.62 1.34zm45 0c-.852.98-1.69 1.86-2.52 2.65-.831.788-1.61 1.48-2.33 2.08-.724.596-1.37 1.05-1.95 1.37-.575.32-1.01.479-1.31.479-.554.000047-1.14-.373-1.76-1.12-.618-.745-1.32-1.55-2.11-2.43-.788-.873-1.7-1.68-2.75-2.43-1.04-.745-2.27-1.12-3.67-1.12-1.19.000054-2.36.224-3.51.671s-2.18 1.07-3.1 1.85c-.916.788-1.66 1.75-2.24 2.88-.575 1.13-.863 2.38-.863 3.74-.00001 1.49.714 3.07 2.14 4.73s3.87 3.28 7.32 4.86c1.75.809 3.49 1.75 5.24 2.81 1.75 1.07 3.31 2.29 4.7 3.67 1.38 1.38 2.51 2.96 3.39 4.73.873 1.77 1.31 3.78 1.31 6.04-.00004 2.94-.756 5.7-2.27 8.28s-3.45 4.81-5.82 6.71c-2.36 1.9-5 3.39-7.89 4.47-2.9 1.09-5.73 1.63-8.5 1.63-2-.00001-3.98-.288-5.94-.863s-3.71-1.31-5.24-2.2c-1.53-.895-2.78-1.86-3.74-2.91-.959-1.04-1.44-2.01-1.44-2.91 0-.469.256-1.15.767-2.04.511-.895 1.12-1.78 1.82-2.65.703-.873 1.42-1.64 2.14-2.3.724-.66 1.32-.99 1.79-.99.298.00002.607.266.927.799s.724 1.19 1.21 1.98c.49.788 1.08 1.65 1.76 2.59.682.937 1.53 1.8 2.56 2.59 1.02.788 2.23 1.45 3.61 1.98 1.38.533 3.01.799 4.89.799 1.49 0 2.91-.288 4.25-.863s2.51-1.34 3.51-2.3c1-.959 1.79-2.09 2.36-3.39.575-1.3.863-2.69.863-4.19-.00003-1.66-.341-3.16-1.02-4.51-.682-1.34-1.59-2.56-2.72-3.64-1.13-1.09-2.44-2.08-3.93-2.97-1.49-.895-3.05-1.73-4.66-2.49-2.26-1.07-4.15-2.13-5.69-3.2-1.53-1.07-2.77-2.15-3.71-3.26-.937-1.11-1.61-2.28-2.01-3.51-.405-1.24-.607-2.53-.607-3.9-.00001-2.68.66-5.13 1.98-7.35s3.02-4.12 5.11-5.72 4.42-2.83 7-3.71c2.58-.873 5.12-1.31 7.64-1.31 2.17.000059 4 .256 5.5.767 1.49.511 2.8 1.11 3.93 1.79 1.13.682 2.12 1.34 2.97 1.98.852.639 1.73 1.09 2.62 1.34z"/>
  </g>
</svg>