<?xml version="1.0" encoding="UTF-8" standalone="no"?>
<!-- Created with Inkscape (http://www.inkscape.org/) -->
<svg
   xmlns:ns0="http://www.iki.fi/pav/software/textext/"
   xmlns:dc="http://purl.org/dc/elements/1.1/"
   xmlns:cc="http://creativecommons.org/ns#"
   xmlns:rdf="http://www.w3.org/1999/02/22-rdf-syntax-ns#"
   xmlns:svg="http://www.w3.org/2000/svg"
   xmlns="http://www.w3.org/2000/svg"
   xmlns:xlink="http://www.w3.org/1999/xlink"
   xmlns:sodipodi="http://sodipodi.sourceforge.net/DTD/sodipodi-0.dtd"
   xmlns:inkscape="http://www.inkscape.org/namespaces/inkscape"
   width="146.25444"
   height="133.12245">
  <defs
     id="defs3">
    <linearGradient
       id="linearGradient5642">
      <stop
         style="stop-color:#b29a15;stop-opacity:1;"
         offset="0"
         id="stop5644" />
      <stop
         id="stop5662"
         offset="0.19085097"
         style="stop-color:#eedc76;stop-opacity:1;" />
      <stop
         style="stop-color:#efdb77;stop-opacity:1;"
         offset="0.80394602"
         id="stop5664" />
      <stop
         id="stop5650"
         offset="1"
         style="stop-color:#b19a15;stop-opacity:1;" />
    </linearGradient>
    <inkscape:perspective
       sodipodi:type="inkscape:persp3d"
       inkscape:vp_x="0 : 526.18109 : 1"
       inkscape:vp_y="0 : 1000 : 0"
       inkscape:vp_z="744.09448 : 526.18109 : 1"
       inkscape:persp3d-origin="372.04724 : 350.78739 : 1"
       id="perspective3411" />
    <linearGradient
       inkscape:collect="always"
       xlink:href="#linearGradient5642"
       id="linearGradient5658"
       x1="270.32468"
       y1="357.88229"
       x2="415.86475"
       y2="357.30066"
       gradientUnits="userSpaceOnUse"
       spreadMethod="pad" />
  </defs>
  <g
     transform="translate(-270.32465,-291.32107)">
    <rect
       style="opacity:1;fill:url(#linearGradient5658);fill-opacity:1;fill-rule:evenodd;stroke:#646464;stroke-width:4.83300018;stroke-linecap:butt;stroke-linejoin:miter;stroke-miterlimit:4;stroke-dasharray:none;stroke-dashoffset:0;stroke-opacity:1"
       id="rect3414"
       width="141.42137"
       height="128.28938"
       x="272.74118"
       y="293.73761"
       ry="20.5263" />
    <g
       id="g12299"
       style="font-style:normal;font-variant:normal;font-weight:normal;font-stretch:normal;letter-spacing:normal;word-spacing:normal;text-anchor:start;fill:none;fill-opacity:1;fill-rule:evenodd;stroke:#000000;stroke-width:0.35700231;stroke-linecap:butt;stroke-linejoin:miter;stroke-miterlimit:10.43299961;stroke-dasharray:none;stroke-dashoffset:0;stroke-opacity:1"
       xml:space="preserve"
       transform="matrix(8.9006335,0,0,-7.9337686,-1694.557,5986.6846)">
<polygon
   id="polygon12301"
   style="stroke-width:0.35700231;fill:black;stroke-miterlimit:10.43299961;stroke-dasharray:none"
   points="225.97,704.63 225.97,705.03 225.01,705.03 225.01,714.2 225.97,714.2 225.97,714.59 224.61,714.59 224.61,704.63 " />
<path
   id="path12303"
   style="stroke-width:0.35700231;fill:black;stroke-miterlimit:10.43299961;stroke-dasharray:none"
   d="M230.89,710.88 L230.89,710.89 L230.9,710.9 L230.9,710.91 L230.9,710.92 L230.91,710.94 L230.91,710.95 L230.91,710.96 L230.91,710.98 L230.92,710.99 L230.92,711 L230.92,711.01 L230.92,711.02 L230.92,711.03 L230.92,711.04 L230.92,711.05 L230.92,711.05 L230.92,711.06 C230.92,711.23,230.8,711.33,230.63,711.33 C230.53,711.33,230.26,711.26,230.23,710.9 C230.05,711.27,229.7,711.53,229.3,711.53 L229.31,711.31 C229.97,711.31,230.1,710.5,230.1,710.45 C230.1,710.4,230.09,710.34,230.07,710.3 L229.6,708.4 C229.54,708.14,229.31,707.89,229.09,707.7 C228.88,707.52,228.57,707.34,228.28,707.34 C227.78,707.34,227.63,707.86,227.63,708.26 C227.63,708.74,227.92,709.91,228.19,710.42 C228.46,710.91,228.89,711.31,229.31,711.31 L229.3,711.53 C228.16,711.53,226.93,710.13,226.93,708.7 C226.93,707.71,227.54,707.12,228.25,707.12 C228.84,707.12,229.31,707.59,229.41,707.7 L229.42,707.69 C229.21,706.8,229.09,706.4,229.09,706.38 C229.05,706.29,228.71,705.3,227.65,705.3 C227.46,705.3,227.14,705.31,226.86,705.4 C227.16,705.49,227.27,705.75,227.27,705.92 C227.27,706.08,227.16,706.27,226.89,706.27 C226.67,706.27,226.35,706.09,226.35,705.69 C226.35,705.28,226.72,705.08,227.67,705.08 C228.92,705.08,229.64,705.86,229.79,706.46 Z " />
<polygon
   id="polygon12305"
   style="stroke-width:0.35700231;fill:black;stroke-miterlimit:10.43299961;stroke-dasharray:none"
   points="232.89,714.59 231.53,714.59 231.53,714.2 232.49,714.2 232.49,705.03 231.53,705.03 231.53,704.63 232.89,704.63 " />
</g>  </g>
</svg>
