<?xml version="1.0" encoding="UTF-8"?>
<svg width="196.3mm" height="105.4mm" version="1.1" viewBox="0 0 196.3 105.4" xmlns="http://www.w3.org/2000/svg" xmlns:xlink="http://www.w3.org/1999/xlink">
 <defs>
  <marker id="j" overflow="visible" orient="auto">
   <path transform="matrix(-.4 0 0 -.4 -4 0)" d="m0 0 5-5-17.5 5 17.5 5z" fill-rule="evenodd" stroke="#000" stroke-width="1pt"/>
  </marker>
  <marker id="e" overflow="visible" orient="auto">
   <path transform="matrix(.4 0 0 .4 4 0)" d="m0 0 5-5-17.5 5 17.5 5z" fill-rule="evenodd" stroke="#000" stroke-width="1pt"/>
  </marker>
  <marker id="f" overflow="visible" orient="auto">
   <path transform="matrix(.4 0 0 .4 4 0)" d="m0 0 5-5-17.5 5 17.5 5z" fill-rule="evenodd" stroke="#000" stroke-width="1pt"/>
  </marker>
  <marker id="g" overflow="visible" orient="auto">
   <path transform="matrix(.4 0 0 .4 4 0)" d="m0 0 5-5-17.5 5 17.5 5z" fill-rule="evenodd" stroke="#000" stroke-width="1pt"/>
  </marker>
  <marker id="h" overflow="visible" orient="auto">
   <path transform="matrix(.4 0 0 .4 4 0)" d="m0 0 5-5-17.5 5 17.5 5z" fill-rule="evenodd" stroke="#000" stroke-width="1pt"/>
  </marker>
  <marker id="i" overflow="visible" orient="auto">
   <path transform="matrix(.4 0 0 .4 4 0)" d="m0 0 5-5-17.5 5 17.5 5z" fill-rule="evenodd" stroke="#000" stroke-width="1pt"/>
  </marker>
 </defs>
 <g transform="translate(-5.624 .1904)">
  <path id="a" d="m24.9 84.01-2.272 5.345" fill="none" stroke="#808080" stroke-width=".75"/>
  <use width="100%" height="100%" xlink:href="#a"/>
  <use transform="translate(5.823 -5.292)" width="100%" height="100%" xlink:href="#a"/>
  <use transform="translate(11.65 -9.525)" width="100%" height="100%" xlink:href="#a"/>
  <use transform="translate(17.47 -13.76)" width="100%" height="100%" xlink:href="#a"/>
  <use transform="translate(23.29 -17.46)" width="100%" height="100%" xlink:href="#a"/>
  <use transform="translate(29.12 -20.64)" width="100%" height="100%" xlink:href="#a"/>
  <use transform="translate(34.94 -23.28)" width="100%" height="100%" xlink:href="#a"/>
  <use transform="translate(40.76 -25.93)" width="100%" height="100%" xlink:href="#a"/>
  <use transform="translate(46.59 -28.05)" width="100%" height="100%" xlink:href="#a"/>
  <use transform="translate(52.41 -30.16)" width="100%" height="100%" xlink:href="#a"/>
  <use transform="translate(58.23 -31.75)" width="100%" height="100%" xlink:href="#a"/>
  <use transform="translate(64.06 -33.34)" width="100%" height="100%" xlink:href="#a"/>
  <use transform="translate(69.88 -34.4)" width="100%" height="100%" xlink:href="#a"/>
  <use transform="translate(75.7 -35.45)" width="100%" height="100%" xlink:href="#a"/>
  <use transform="translate(81.53 -35.98)" width="100%" height="100%" xlink:href="#a"/>
  <use transform="translate(87.35 -36.51)" width="100%" height="100%" xlink:href="#a"/>
  <use transform="translate(93.17 -37.04)" width="100%" height="100%" xlink:href="#a"/>
  <use transform="translate(99 -37.04)" width="100%" height="100%" xlink:href="#a"/>
  <use transform="translate(104.8 -37.04)" width="100%" height="100%" xlink:href="#a"/>
  <use transform="translate(110.6 -36.51)" width="100%" height="100%" xlink:href="#a"/>
  <use transform="translate(116.5 -35.98)" width="100%" height="100%" xlink:href="#a"/>
  <use transform="translate(122.3 -35.45)" width="100%" height="100%" xlink:href="#a"/>
  <use transform="translate(128.1 -34.66)" width="100%" height="100%" xlink:href="#a"/>
 </g>
 <g transform="translate(-7.105 -18.86)">
  <path d="m27.12 66.99 15.43 21.97" marker-start="url(#f)" stroke="#000" stroke-width=".75"/>
  <path d="m22.86 106.2c23.79-23.62 65.38-47.36 132.3-37.86" fill="none" stroke="#000" stroke-width=".75"/>
  <g stroke-width=".2646" aria-label="region 1">
   <path d="m15.04 37.37 0.1101-0.5249c-0.08467-0.03387-0.1778-0.05927-0.2794-0.05927-0.4657 0-0.9059 0.3217-1.287 0.6773l0.1355-0.6181h-0.6773l-0.8128 3.81h0.6773l0.6011-2.836c0.3217-0.2879 0.6858-0.5334 1.067-0.5334 0.1609 0 0.3217 0.03387 0.4657 0.08467z"/>
   <path d="m18.64 38.84 0.01693-0.08467c0.254-1.194-0.2286-1.99-1.211-1.99-0.9821 0-1.812 0.7959-2.066 1.99-0.254 1.194 0.2371 1.99 1.219 1.99 0.4233 0 0.8721-0.1355 1.27-0.381l0.0762-0.3556c-0.4487 0.254-0.7959 0.3471-1.262 0.3471-0.7197 0-0.7535-0.6858-0.5757-1.516zm-0.6689-0.3556h-1.786c0.1439-0.6773 0.5842-1.363 1.185-1.363 0.6011 0 0.7451 0.6858 0.6011 1.363z"/>
   <path d="m22.31 41.17 0.9144-4.318h-0.6773l-0.0254 0.1355c-0.2963-0.1355-0.6265-0.2201-0.9821-0.2201-1.058 0-1.753 0.8467-1.998 1.99-0.2371 1.126 0.0085 1.99 1.024 1.99 0.4233 0 0.8636-0.1947 1.253-0.4572l-0.1863 0.8805c-0.127 0.5757-0.5588 1.135-1.084 1.135-0.4318 0-0.8382-0.08467-1.219-0.2286l-0.0508 0.2625c0.4318 0.2201 0.9229 0.3556 1.456 0.3556 0.7451 0 1.405-0.7281 1.575-1.524zm-0.4149-1.228c-0.3048 0.2455-0.6519 0.4487-1.008 0.4487-0.762 0-0.7705-0.7451-0.5842-1.634 0.1693-0.7959 0.5927-1.634 1.278-1.634 0.3217 0 0.6096 0.08467 0.8636 0.2201z"/>
   <path d="m25.39 40.36 0.0508-0.254c-0.1778 0.1355-0.3895 0.2455-0.6011 0.2455-0.3048 0-0.2794-0.3979-0.2032-0.7535l0.5842-2.752h-0.6773l-0.5842 2.752c-0.1185 0.5673-0.0254 1.143 0.4741 1.143 0.3302 0 0.6604-0.1609 0.9567-0.381zm0.1863-4.834c0.0508-0.2286-0.09313-0.4149-0.3217-0.4149-0.2286 0-0.4572 0.1863-0.508 0.4149-0.04233 0.2286 0.1016 0.4149 0.3302 0.4149s0.4572-0.1863 0.4995-0.4149z"/>
   <path d="m29.64 38.75c0.2794-1.295-0.1439-1.99-1.211-1.99s-1.786 0.6943-2.066 1.99c-0.2709 1.295 0.1524 1.99 1.219 1.99s1.786-0.6943 2.057-1.99zm-0.7451 0c-0.2201 1.058-0.6604 1.634-1.236 1.634-0.5842 0-0.7705-0.5757-0.5503-1.634 0.2286-1.058 0.6604-1.634 1.245-1.634 0.5757 0 0.7705 0.5757 0.5419 1.634z"/>
   <path d="m33.44 40.66 0.5927-2.752c0.127-0.6181-0.2371-1.143-0.8467-1.143-0.4995 0-0.9991 0.2794-1.439 0.6265l0.1185-0.5419h-0.6773l-0.8128 3.81h0.6773l0.6435-3.006c0.3387-0.2794 0.7281-0.4995 1.126-0.4995 0.3895 0 0.6181 0.3471 0.5334 0.7535l-0.5842 2.752z"/>
   <path d="m39.69 40.66 1.245-5.842h-0.4911c-0.5757 0.5334-1.219 0.9906-1.913 1.346l-0.06773 0.3556c0.5588-0.2455 1.109-0.5334 1.634-0.8805l-1.067 5.021z"/>
  </g>
  <g stroke-width=".2646" aria-label="region 2">
   <path d="m15.05 116.8 0.1101-0.5249c-0.08467-0.0339-0.1778-0.0593-0.2794-0.0593-0.4657 0-0.9059 0.3217-1.287 0.6773l0.1355-0.6181h-0.6773l-0.8128 3.81h0.6773l0.6011-2.836c0.3217-0.2879 0.6858-0.5334 1.067-0.5334 0.1609 0 0.3217 0.0339 0.4657 0.0847z"/>
   <path d="m18.64 118.2 0.01693-0.0847c0.254-1.194-0.2286-1.99-1.211-1.99-0.9821 0-1.812 0.7959-2.066 1.99s0.2371 1.99 1.219 1.99c0.4233 0 0.8721-0.1355 1.27-0.381l0.0762-0.3556c-0.4487 0.254-0.7959 0.3471-1.262 0.3471-0.7197 0-0.7535-0.6858-0.5757-1.516zm-0.6689-0.3556h-1.786c0.1439-0.6773 0.5842-1.363 1.185-1.363 0.6011 0 0.7451 0.6858 0.6011 1.363z"/>
   <path d="m22.32 120.6 0.9144-4.318h-0.6773l-0.0254 0.1355c-0.2963-0.1355-0.6265-0.2201-0.9821-0.2201-1.058 0-1.753 0.8467-1.998 1.99-0.2371 1.126 0.0085 1.99 1.024 1.99 0.4233 0 0.8636-0.1947 1.253-0.4572l-0.1863 0.8805c-0.127 0.5757-0.5588 1.135-1.084 1.135-0.4318 0-0.8382-0.0847-1.219-0.2286l-0.0508 0.2625c0.4318 0.2201 0.9229 0.3556 1.456 0.3556 0.7451 0 1.405-0.7281 1.575-1.524zm-0.4149-1.228c-0.3048 0.2455-0.6519 0.4487-1.008 0.4487-0.762 0-0.7705-0.7451-0.5842-1.634 0.1693-0.7959 0.5927-1.634 1.278-1.634 0.3217 0 0.6096 0.0847 0.8636 0.2201z"/>
   <path d="m25.39 119.7 0.0508-0.254c-0.1778 0.1355-0.3895 0.2455-0.6011 0.2455-0.3048 0-0.2794-0.3979-0.2032-0.7535l0.5842-2.752h-0.6773l-0.5842 2.752c-0.1185 0.5673-0.0254 1.143 0.4741 1.143 0.3302 0 0.6604-0.1609 0.9567-0.381zm0.1863-4.834c0.0508-0.2286-0.09313-0.4149-0.3217-0.4149-0.2286 0-0.4572 0.1863-0.508 0.4149-0.04233 0.2286 0.1016 0.4149 0.3302 0.4149s0.4572-0.1863 0.4995-0.4149z"/>
   <path d="m29.64 118.1c0.2794-1.295-0.1439-1.99-1.211-1.99s-1.786 0.6943-2.066 1.99c-0.2709 1.295 0.1524 1.99 1.219 1.99s1.786-0.6943 2.057-1.99zm-0.7451 0c-0.2201 1.058-0.6604 1.634-1.236 1.634-0.5842 0-0.7705-0.5757-0.5503-1.634 0.2286-1.058 0.6604-1.634 1.245-1.634 0.5757 0 0.7705 0.5757 0.5419 1.634z"/>
   <path d="m33.44 120 0.5927-2.752c0.127-0.6181-0.2371-1.143-0.8467-1.143-0.4995 0-0.9991 0.2794-1.439 0.6265l0.1185-0.5419h-0.6773l-0.8128 3.81h0.6773l0.6435-3.006c0.3387-0.2794 0.7281-0.4995 1.126-0.4995 0.3895 0 0.6181 0.3471 0.5334 0.7535l-0.5842 2.752z"/>
   <path d="m40.92 120 0.1185-0.5249h-2.997l1.913-1.507c0.8636-0.6858 1.643-1.532 1.854-2.523 0.1778-0.8297-0.5334-1.372-1.422-1.372-0.6689 0-1.363 0.3048-1.888 0.8213l-0.0762 0.3556c0.5334-0.4995 1.219-0.7874 1.88-0.7874 0.5673 0 0.9652 0.4233 0.8467 0.9821-0.1778 0.8382-0.7281 1.617-1.439 2.218l-2.303 1.939-0.08467 0.3979z"/>
  </g>
  <path d="m22.05 105.3c23.95-23.62 66.05-47.59 133.4-38.09" fill="none" stroke="#f00" stroke-width="1.693"/>
  <path d="m157.6 67.73 15.38 0.2183" fill="none" marker-start="url(#g)" stop-color="#000000" stroke="#000" stroke-width=".55" style="font-variation-settings:normal"/>
  <g transform="rotate(-3.546 -47.08 8.23)">
   <g transform="rotate(-31.83)" aria-label="n">
    <path d="m-11.15 74.56v-3.44c0-0.7726-0.5927-1.429-1.355-1.429-0.6456 0-1.196 0.4127-1.64 0.8996v-0.7937h-1.164v4.762h1.164v-3.503c0.2857-0.3492 0.6456-0.6667 1.09-0.6667 0.4127 0 0.7408 0.3281 0.7408 0.7302v3.44z" stroke-width=".2646"/>
   </g>
   <g transform="matrix(1.137 -.7066 .3941 .6344 0 0)" fill="#333" stop-color="#000000" stroke-width=".2646" style="text-decoration-color:#000000;text-decoration-line:none" aria-label="^">
    <path d="m-8.68 92.1-1.075-2.213h-0.5059l-1.075 2.213h0.5059l0.822-1.695 0.822 1.695z" stroke-width=".2646"/>
   </g>
  </g>
  <g stroke-width=".2646" aria-label="surface charge σ">
   <path d="m176.9 61.72c0.1439-0.6604-0.4911-0.9991-1.143-1.168-0.3979-0.1101-0.7959-0.2879-0.7112-0.6773 0.0762-0.3725 0.508-0.6096 0.9144-0.6096 0.4487 0 0.8721 0.1355 1.194 0.381l0.0762-0.3556c-0.3302-0.2455-0.7451-0.381-1.194-0.381-0.7281 0-1.499 0.4487-1.643 1.126-0.1355 0.6181 0.4911 0.8975 1.109 1.058 0.4318 0.1185 0.8382 0.3556 0.7451 0.7959-0.0847 0.3979-0.5503 0.6435-0.9821 0.6435-0.5165 0-0.9991-0.127-1.397-0.381l-0.0762 0.3556c0.3979 0.254 0.8805 0.381 1.397 0.381 0.762 0 1.566-0.4572 1.71-1.168z"/>
   <path d="m180.8 62.8 0.8128-3.81h-0.6773l-0.635 3.006c-0.3387 0.2794-0.7366 0.4995-1.126 0.4995-0.3979 0-0.6181-0.3471-0.5334-0.7535l0.5842-2.752h-0.6773l-0.5842 2.752c-0.1355 0.6181 0.2371 1.143 0.8467 1.143 0.4995 0 0.9991-0.2794 1.431-0.6265l-0.1101 0.5419z"/>
   <path d="m185 59.52 0.1101-0.5249c-0.0847-0.03387-0.1778-0.05927-0.2794-0.05927-0.4657 0-0.9059 0.3217-1.287 0.6773l0.1355-0.6181h-0.6773l-0.8128 3.81h0.6773l0.6011-2.836c0.3217-0.2879 0.6858-0.5334 1.067-0.5334 0.1609 0 0.3217 0.03387 0.4657 0.08467z"/>
   <path d="m187.9 57.42 0.0593-0.2625c-0.2117-0.2117-0.4741-0.3725-0.8043-0.3725-0.4995 0-0.8467 0.5757-0.9652 1.143l-0.2286 1.058h-0.5927l-0.0762 0.3556h0.5927l-0.7366 3.454h0.6773l0.7366-3.454h0.6181l0.0762-0.3556h-0.6181l0.2201-1.058c0.0847-0.3641 0.2286-0.7535 0.5334-0.7535 0.2117 0 0.381 0.1016 0.508 0.2455z"/>
   <path d="m190.4 62.8 0.8128-3.81h-0.6773l-0.1185 0.5673c-0.1947-0.3387-0.4572-0.6519-0.889-0.6519-1.058 0-1.753 0.8467-1.998 1.99-0.2371 1.126 8e-3 1.99 1.024 1.99 0.4233 0 0.8636-0.1947 1.253-0.4572l-0.0762 0.3725zm-0.5165-0.7197c-0.3048 0.2455-0.6519 0.4487-1.008 0.4487-0.762 0-0.7705-0.7451-0.5842-1.634 0.1693-0.7959 0.5927-1.634 1.278-1.634 0.3979 0 0.6181 0.3217 0.7705 0.6435z"/>
   <path d="m195.1 59.87 0.0762-0.3556c-0.1863-0.381-0.5842-0.6096-1.05-0.6096-1.067 0-1.947 0.7959-2.201 1.99-0.254 1.194 0.2879 1.99 1.355 1.99 0.4403 0 0.8975-0.2201 1.219-0.5842l0.0762-0.3556c-0.381 0.4318-0.7027 0.5842-1.219 0.5842-0.6181 0-0.889-0.6519-0.6858-1.634 0.2117-0.9821 0.762-1.634 1.38-1.634 0.5165 0 0.8382 0.1863 1.05 0.6096z"/>
   <path d="m198.8 60.98 0.0169-0.08467c0.254-1.194-0.2286-1.99-1.211-1.99-0.9821 0-1.812 0.7959-2.066 1.99-0.254 1.194 0.2371 1.99 1.219 1.99 0.4233 0 0.8721-0.1355 1.27-0.381l0.0762-0.3556c-0.4487 0.254-0.7959 0.3471-1.262 0.3471-0.7197 0-0.7535-0.6858-0.5757-1.516zm-0.6689-0.3556h-1.786c0.1439-0.6773 0.5842-1.363 1.185-1.363s0.7451 0.6858 0.6011 1.363z"/>
   <path d="m178.2 67.91 0.0762-0.3556c-0.1863-0.381-0.5842-0.6096-1.05-0.6096-1.067 0-1.947 0.7959-2.201 1.99-0.254 1.194 0.2879 1.99 1.355 1.99 0.4403 0 0.8975-0.2201 1.219-0.5842l0.0762-0.3556c-0.381 0.4318-0.7027 0.5842-1.219 0.5842-0.6181 0-0.889-0.6519-0.6858-1.634 0.2117-0.9821 0.762-1.634 1.38-1.634 0.5165 0 0.8382 0.1863 1.05 0.6096z"/>
   <path d="m181.6 70.84 0.5927-2.752c0.127-0.6181-0.2371-1.143-0.8467-1.143-0.4995 0-0.9991 0.2794-1.439 0.6265l0.5673-2.659h-0.6773l-1.262 5.927h0.6773l0.6435-3.006c0.3387-0.2794 0.7281-0.4995 1.126-0.4995 0.3895 0 0.6181 0.3471 0.5334 0.7535l-0.5842 2.752z"/>
   <path d="m185.9 70.84 0.8128-3.81h-0.6773l-0.1185 0.5673c-0.1947-0.3387-0.4572-0.6519-0.889-0.6519-1.058 0-1.753 0.8467-1.998 1.99-0.2371 1.126 8e-3 1.99 1.024 1.99 0.4233 0 0.8636-0.1947 1.253-0.4572l-0.0762 0.3725zm-0.5165-0.7197c-0.3048 0.2455-0.6519 0.4487-1.008 0.4487-0.762 0-0.7705-0.7451-0.5842-1.634 0.1693-0.7959 0.5927-1.634 1.278-1.634 0.3979 0 0.6181 0.3217 0.7705 0.6435z"/>
   <path d="m190.1 67.56 0.1101-0.5249c-0.0847-0.03387-0.1778-0.05927-0.2794-0.05927-0.4657 0-0.9059 0.3217-1.287 0.6773l0.1355-0.6181h-0.6773l-0.8128 3.81h0.6773l0.6011-2.836c0.3217-0.2879 0.6858-0.5334 1.067-0.5334 0.1609 0 0.3217 0.03387 0.4657 0.08467z"/>
   <path d="m193.2 71.35 0.9144-4.318h-0.6773l-0.0254 0.1355c-0.2963-0.1355-0.6265-0.2201-0.9821-0.2201-1.058 0-1.753 0.8467-1.998 1.99-0.2371 1.126 8e-3 1.99 1.024 1.99 0.4233 0 0.8636-0.1947 1.253-0.4572l-0.1863 0.8805c-0.127 0.5757-0.5588 1.135-1.084 1.135-0.4318 0-0.8382-0.08467-1.219-0.2286l-0.0508 0.2625c0.4318 0.2201 0.9229 0.3556 1.456 0.3556 0.7451 0 1.405-0.7281 1.575-1.524zm-0.4149-1.228c-0.3048 0.2455-0.6519 0.4487-1.008 0.4487-0.762 0-0.7705-0.7451-0.5842-1.634 0.1693-0.7959 0.5927-1.634 1.278-1.634 0.3217 0 0.6096 0.08467 0.8636 0.2201z"/>
   <path d="m198.1 69.02 0.0169-0.08467c0.254-1.194-0.2286-1.99-1.211-1.99-0.9821 0-1.812 0.7959-2.066 1.99-0.254 1.194 0.2371 1.99 1.219 1.99 0.4233 0 0.8721-0.1355 1.27-0.381l0.0762-0.3556c-0.4487 0.254-0.7959 0.3471-1.262 0.3471-0.7197 0-0.7535-0.6858-0.5757-1.516zm-0.6689-0.3556h-1.786c0.1439-0.6773 0.5842-1.363 1.185-1.363 0.6011 0 0.7451 0.6858 0.6011 1.363z"/>
   <path d="m189.1 75.26-0.0847-0.5249-1.82 0.2794c-0.0762-0.0085-0.1524-0.01693-0.2371-0.01693-1.067 0-1.786 0.6943-2.066 1.99-0.2709 1.295 0.1524 1.99 1.219 1.99s1.786-0.6943 2.057-1.99c0.1693-0.7874 0.0762-1.355-0.254-1.676 0.4995 0 0.9821-0.01693 1.185-0.0508zm-1.676 1.727c-0.2201 1.058-0.6604 1.634-1.236 1.634-0.5842 0-0.7705-0.5757-0.5503-1.634 0.2286-1.058 0.6604-1.634 1.245-1.634 0.5757 0 0.7705 0.5757 0.5419 1.634z"/>
  </g>
  <g transform="translate(-.1282 -.1189)">
   <path transform="matrix(.9765 -.2154 .644 .765 0 0)" d="m0.4806 117.4a21.33 4.474 0 0 1 24.93-3.462 21.33 4.474 0 0 1 16.93 5.169" fill="none" stroke="#000" stroke-dasharray="1.91257, 1.91257" stroke-dashoffset="2.04" stroke-linejoin="round" stroke-width=".6375"/>
   <g transform="rotate(-9.115)" aria-label="a">
    <path d="m90.83 58.9 0.8128-3.81h-0.6773l-0.1185 0.5673c-0.1947-0.3387-0.4572-0.6519-0.889-0.6519-1.058 0-1.753 0.8467-1.998 1.99-0.2371 1.126 0.0085 1.99 1.024 1.99 0.4233 0 0.8636-0.1947 1.253-0.4572l-0.0762 0.3725zm-0.5165-0.7197c-0.3048 0.2455-0.6519 0.4487-1.008 0.4487-0.762 0-0.7705-0.7451-0.5842-1.634 0.1693-0.7959 0.5927-1.634 1.278-1.634 0.3979 0 0.6181 0.3217 0.7705 0.6435z" stroke-width=".2646"/>
   </g>
   <path d="m107.8 43.43-18.92 4.053" marker-start="url(#i)" stroke="#000" stroke-width=".55"/>
   <path id="b" d="m66 60.9 3.019 14.03" marker-end="url(#j)" marker-start="url(#e)" stroke="#000" stroke-width=".55"/>
   <path d="m111 50.48c0.4477 2.013-8.549 5.582-19.94 7.891-11.39 2.309-21.31 2.612-21.75 0.5985-0.4477-2.013 8.742-5.584 20.13-7.893 11.39-2.309 21.11-2.61 21.56-0.5971zm8.1e-4 -0.0075 7.127 31.67c0.3938 1.771-8.448 5.804-19.93 8.132-11.48 2.328-21.49 2.177-21.88 0.406l-7.023-31.71" fill="none" stroke="#000" stroke-linejoin="round" stroke-width=".7"/>
   <path id="c" d="m76.78 90.84-6.947 1.759" fill="none" stroke="#000" stroke-dasharray="1.1, 1.1" stroke-dashoffset=".715" stroke-width=".55"/>
   <path id="d" d="m87.57 42.73 2.747 12.55" fill="none" stroke="#000" stroke-dasharray="1.1, 1.1" stroke-width=".55"/>
   <g transform="rotate(-9.115 7.742 7.239)" aria-label="S">
    <path d="m121.8 57.3c0.2201-1.033-0.7112-1.643-1.744-1.871-0.6943-0.1524-1.482-0.3471-1.338-1.033 0.1439-0.6689 0.9483-1.05 1.693-1.05 0.6858 0 1.321 0.2032 1.778 0.6265l0.0677-0.3387c-0.4572-0.4233-1.067-0.6773-1.761-0.6773-1.092 0-2.252 0.6181-2.464 1.617-0.2032 0.9483 0.7281 1.422 1.693 1.634 0.7705 0.1693 1.549 0.508 1.389 1.27-0.1609 0.7705-1.024 1.287-1.854 1.287-0.7789 0-1.516-0.2032-2.083-0.6265l-0.0762 0.3387c0.5757 0.4233 1.287 0.6773 2.083 0.6773 1.168 0 2.388-0.7535 2.616-1.854z" stroke-width=".2646"/>
   </g>
   <path d="m107.7 59.68c11.85-3.348 16.01-9.705 17.42-17.14" fill="none" marker-start="url(#h)" stroke="#000" stroke-width=".55"/>
   <g transform="rotate(-11.57)" aria-label="h">
    <path d="m50.97 82.41v-2.408c0-0.5408-0.4149-1-0.9483-1-0.4445 0-0.8371 0.2519-1.156 0.563v-2.341h-0.5778v5.186h0.5778v-2.615c0.2519-0.2519 0.563-0.4519 0.9112-0.4519 0.3482 0 0.6149 0.3037 0.6149 0.6593v2.408z" stroke-width=".2646"/>
   </g>
   <g transform="rotate(-11.57 82.82 -8.458)" aria-label="h">
    <path d="m50.97 82.41v-2.408c0-0.5408-0.4149-1-0.9483-1-0.4445 0-0.8371 0.2519-1.156 0.563v-2.341h-0.5778v5.186h0.5778v-2.615c0.2519-0.2519 0.563-0.4519 0.9112-0.4519 0.3482 0 0.6149 0.3037 0.6149 0.6593v2.408z" stroke-width=".2646"/>
   </g>
   <use transform="translate(20.63 -4.478)" width="100%" height="100%" xlink:href="#d"/>
   <use transform="translate(3.458 16.01)" width="100%" height="100%" xlink:href="#b"/>
   <use transform="translate(-6.961 -32.15)" width="100%" height="100%" xlink:href="#c"/>
  </g>
 </g>
</svg>
