<?xml version="1.0" encoding="utf-8"?>
<!-- Generator: Adobe Illustrator 15.0.0, SVG Export Plug-In . SVG Version: 6.00 Build 0)  -->
<!DOCTYPE svg PUBLIC "-//W3C//DTD SVG 1.1//EN" "http://www.w3.org/Graphics/SVG/1.1/DTD/svg11.dtd">
<svg version="1.1"
	 id="svg2" inkscape:output_extension="org.inkscape.output.svg.inkscape" sodipodi:version="0.32" sodipodi:docname="giffenen.svg" inkscape:version="0.46" xmlns:dc="http://purl.org/dc/elements/1.1/" xmlns:cc="http://creativecommons.org/ns#" xmlns:rdf="http://www.w3.org/1999/02/22-rdf-syntax-ns#" xmlns:svg="http://www.w3.org/2000/svg" xmlns:sodipodi="http://sodipodi.sourceforge.net/DTD/sodipodi-0.dtd" xmlns:inkscape="http://www.inkscape.org/namespaces/inkscape"
	 xmlns="http://www.w3.org/2000/svg" xmlns:xlink="http://www.w3.org/1999/xlink" x="0px" y="0px" width="744.094px"
	 height="1052.363px" viewBox="0 0 744.094 1052.363" enable-background="new 0 0 744.094 1052.363" xml:space="preserve">
<sodipodi:namedview  id="base" inkscape:window-height="968" inkscape:pageshadow="2" inkscape:pageopacity="0.0" inkscape:window-width="1280" inkscape:window-x="0" inkscape:window-y="0" inkscape:current-layer="svg2" bordercolor="#666666" guidetolerance="10.0" gridtolerance="10.0" inkscape:zoom="1" objecttolerance="10.0" inkscape:cx="372.04724" inkscape:cy="726.18109" pagecolor="#ffffff" borderopacity="1.0" showgrid="false">
	</sodipodi:namedview>
<defs>
	
	
		<inkscape:perspective  id="perspective65" inkscape:persp3d-origin="372.04724 : 350.78739 : 1" sodipodi:type="inkscape:persp3d" inkscape:vp_x="0 : 526.18109 : 1" inkscape:vp_y="0 : 1000 : 0" inkscape:vp_z="744.09448 : 526.18109 : 1">
		</inkscape:perspective>
</defs>
<g id="layer1">
	<path fill="none" d="M0,0"/>
	<path id="path3186" stroke="#000000" d="M60.578,81.03l6,6l-6-21l-6,21L60.578,81.03z"/>
	<path id="path3189" stroke="#000000" d="M662.807,959.382l-6,6l21-6l-21-6L662.807,959.382z"/>
	<path id="path2383" stroke="#000000" d="M674.807,959.382"/>
	<path id="path6592" fill="none" stroke="#FF0000" stroke-width="1.5" d="M61.933,197.122l517.996,762.102"/>
	<path id="path3175" fill="none" stroke="#FF0000" stroke-width="1.5" d="M333.154,959.044L60.578,194.412"/>
	<path id="path6544" fill="none" stroke="#000000" stroke-width="1.5" d="M491.372,905.876L491.372,905.876
		c-270.142,5.984-302.677-430.896-303.13-458.079"/>
	<path id="path6546" fill="none" stroke="#000000" stroke-width="1.5" d="M187.714,235.295
		C151.79,573.976,484.208,537.1,475.28,537.466"/>
	<text transform="matrix(1 0 0 1 23.9492 207.0908)" font-family="'ArialMT'" font-size="24">M</text>
	<g id="g6568">
		<text transform="matrix(1 0 0 1 484.584 541.125)" font-family="'ArialMT'" font-size="24">I</text>
		<text transform="matrix(1 0 0 1 493.0371 548.168)" font-family="'ArialMT'" font-size="18">1</text>
	</g>
	<g id="g6582" transform="translate(-7.6719361,9.9972793)">
		<text transform="matrix(1 0 0 1 504.3438 917.118)" font-family="'ArialMT'" font-size="24">I</text>
		<text transform="matrix(1 0 0 1 512.627 926.4031)" font-family="'ArialMT'" font-size="18">0</text>
	</g>
	<path id="path6594" fill="none" stroke="#0000FF" stroke-width="1.5" stroke-dasharray="12,12" d="M60.578,464.601l347.086,494.781
		"/>
	<text transform="matrix(1 0 0 1 221.7266 711.0703)" font-family="'ArialMT'" font-size="24">A</text>
	<text transform="matrix(1 0 0 1 300.4595 793.8555)" font-family="'ArialMT'" font-size="24">B</text>
	<text transform="matrix(1 0 0 1 229.5508 416.1963)" font-family="'ArialMT'" font-size="24">C</text>
	<path id="path6608" fill="none" stroke="#000000" stroke-width="1.3" stroke-dasharray="15.6,15.6" d="M217.646,352.196v607.186"/>
	<path id="path6610" fill="none" stroke="#000000" stroke-width="1.3" stroke-dasharray="15.6,15.6" d="M239.493,697.349v260.625"/>
	<path id="path6612" fill="none" stroke="#000000" stroke-width="1.3" stroke-dasharray="15.6,15.6" d="M296.825,801.469v156.505"/>
	<g id="g6656" transform="translate(1.8350049,-17.432546)">
		<text transform="matrix(1 0 0 1 322.6118 1009.2392)" font-family="'ArialMT'" font-size="24">N</text>
		<text transform="matrix(1 0 0 1 573.376 1009.2392)" font-family="'ArialMT'" font-size="24">P</text>
		<g id="g6630" transform="translate(-5.4540072,17.127288)">
			<text transform="matrix(1 0 0 1 200.6014 984.7408)" font-family="'ArialMT'" font-size="24">X</text>
			<text transform="matrix(1 0 0 1 217.9916 991.8561)" font-family="'ArialMT'" font-size="18">C</text>
		</g>
		<g id="g6644" transform="translate(-2.7525073,19.267485)">
			<text transform="matrix(1 0 0 1 230.3409 982.6671)" font-family="'ArialMT'" font-size="24">X</text>
			<text transform="matrix(1 0 0 1 249.5606 989.9718)" font-family="'ArialMT'" font-size="18">A</text>
		</g>
		<g id="g6650" transform="translate(0,16.515044)">
			<text transform="matrix(1 0 0 1 279.6548 983.9176)" font-family="'ArialMT'" font-size="24">X</text>
			<text transform="matrix(1 0 0 1 299.9487 992.7242)" font-family="'ArialMT'" font-size="18">B</text>
		</g>
	</g>
</g>
<text transform="matrix(1 0 0 1 119.5811 1029.3613)" font-family="'ArialMT'" font-size="20">Quantity of Giffen good (X) demanded/time period</text>
<text transform="matrix(1 0 0 1 2 21.3624)" font-family="'ArialMT'" font-size="20">Quantity of Y demanded</text>
<text transform="matrix(1 0 0 1 14 49.3624)" font-family="'ArialMT'" font-size="20">/time period</text>
<line fill="none" stroke="#000000" stroke-width="2" x1="662.807" y1="959.382" x2="59.807" y2="959.382"/>
<line fill="none" stroke="#000000" stroke-width="2" x1="60.578" y1="81.03" x2="60.578" y2="959.031"/>
</svg>
