<?xml version="1.0" encoding="UTF-8" standalone="no"?>
<!-- Created with Inkscape (http://www.inkscape.org/) -->
<svg
   xmlns:dc="http://purl.org/dc/elements/1.1/"
   xmlns:cc="http://web.resource.org/cc/"
   xmlns:rdf="http://www.w3.org/1999/02/22-rdf-syntax-ns#"
   xmlns:svg="http://www.w3.org/2000/svg"
   xmlns="http://www.w3.org/2000/svg"
   xmlns:xlink="http://www.w3.org/1999/xlink"
   xmlns:sodipodi="http://sodipodi.sourceforge.net/DTD/sodipodi-0.dtd"
   xmlns:inkscape="http://www.inkscape.org/namespaces/inkscape"
   width="130"
   height="200"
   id="svg5433"
   sodipodi:version="0.32"
   inkscape:version="0.44.1"
   version="1.0"
   sodipodi:docbase="/Users/bdesham/Desktop"
   sodipodi:docname="Global ideas.svg">
  <defs
     id="defs5435">
    <linearGradient
       id="linearGradient865">
      <stop
         style="stop-color:#ffffff;stop-opacity:1.0000000;"
         offset="0.00000000"
         id="stop866" />
      <stop
         style="stop-color:#ffffff;stop-opacity:0.00000000;"
         offset="1.0000000"
         id="stop868" />
    </linearGradient>
    <linearGradient
       id="linearGradient853">
      <stop
         style="stop-color:#e3f9ff;stop-opacity:1.0000000;"
         offset="0.0000000"
         id="stop854" />
      <stop
         style="stop-color:#73bee7;stop-opacity:1.0000000;"
         offset="0.36194703"
         id="stop867" />
      <stop
         style="stop-color:#438ec5;stop-opacity:1.0000000;"
         offset="0.62534887"
         id="stop856" />
      <stop
         style="stop-color:#477daf;stop-opacity:1.0000000;"
         offset="0.72607356"
         id="stop1185" />
      <stop
         style="stop-color:#020407;stop-opacity:1.0000000;"
         offset="1.0000000"
         id="stop855" />
    </linearGradient>
    <linearGradient
       id="linearGradient6339">
      <stop
         id="stop6341"
         offset="0"
         style="stop-color:white;stop-opacity:0.45360824;" />
      <stop
         id="stop6343"
         offset="1"
         style="stop-color:#ffffff;stop-opacity:0;" />
    </linearGradient>
    <linearGradient
       id="linearGradient20428">
      <stop
         style="stop-color:#a3a3a3;stop-opacity:1.0000000;"
         offset="0.0000000"
         id="stop20430" />
      <stop
         style="stop-color:#b5b5b5;stop-opacity:0;"
         offset="1"
         id="stop20432" />
    </linearGradient>
    <linearGradient
       id="linearGradient20393">
      <stop
         style="stop-color:#ffffff;stop-opacity:1;"
         offset="0"
         id="stop20395" />
      <stop
         id="stop2427"
         offset="0.41176471"
         style="stop-color:#ffffff;stop-opacity:0.44117647;" />
      <stop
         style="stop-color:#000000;stop-opacity:0.48039216;"
         offset="1.0000000"
         id="stop20397" />
    </linearGradient>
    <linearGradient
       inkscape:collect="always"
       id="linearGradient3175">
      <stop
         style="stop-color:#f1f3ff;stop-opacity:1;"
         offset="0"
         id="stop3177" />
      <stop
         style="stop-color:#f1f3ff;stop-opacity:0;"
         offset="1"
         id="stop3179" />
    </linearGradient>
    <radialGradient
       id="aigrd7"
       cx="17.8335"
       cy="11.4873"
       r="22.709299"
       fx="17.8335"
       fy="11.4873"
       gradientUnits="userSpaceOnUse">
      <stop
         offset="0.0000000"
         style="stop-color:#ffffff;stop-opacity:0.17525773;"
         id="stop19512" />
      <stop
         offset="0.88200003"
         style="stop-color:#709ac8;stop-opacity:0;"
         id="stop19514" />
      <stop
         offset="1"
         style="stop-color:#6f96dd;stop-opacity:1;"
         id="stop19516" />
    </radialGradient>
    <linearGradient
       id="linearGradient3265">
      <stop
         style="stop-color:#929470;stop-opacity:1;"
         offset="0"
         id="stop3267" />
      <stop
         id="stop3269"
         offset="0.26470590"
         style="stop-color:#60614a;stop-opacity:1.0000000;" />
      <stop
         style="stop-color:#f3f5ba;stop-opacity:1.0000000;"
         offset="0.63235295"
         id="stop3271" />
      <stop
         style="stop-color:#929470;stop-opacity:1.0000000;"
         offset="1.0000000"
         id="stop3273" />
    </linearGradient>
    <linearGradient
       id="linearGradient3311">
      <stop
         style="stop-color:#d6d7a5;stop-opacity:1;"
         offset="0"
         id="stop3313" />
      <stop
         style="stop-color:#8e8f6d;stop-opacity:1.0000000;"
         offset="1.0000000"
         id="stop3315" />
    </linearGradient>
    <linearGradient
       id="linearGradient2399">
      <stop
         id="stop2401"
         offset="0"
         style="stop-color:#929470;stop-opacity:1;" />
      <stop
         style="stop-color:#fcffc1;stop-opacity:1.0000000;"
         offset="0.26470590"
         id="stop2407" />
      <stop
         id="stop2409"
         offset="0.63235295"
         style="stop-color:#f3f5ba;stop-opacity:1.0000000;" />
      <stop
         id="stop2403"
         offset="1.0000000"
         style="stop-color:#929470;stop-opacity:1.0000000;" />
    </linearGradient>
    <linearGradient
       y2="37.226601"
       x2="30.169901"
       y1="37.226601"
       x1="18.9951"
       gradientUnits="userSpaceOnUse"
       id="linearGradient19894">
      <stop
         id="stop19896"
         style="stop-color:#A3A349"
         offset="5.618000e-003" />
      <stop
         id="stop19898"
         style="stop-color:#ACAC54"
         offset="2.078677e-002" />
      <stop
         id="stop19900"
         style="stop-color:#C1C172"
         offset="6.600059e-002" />
      <stop
         id="stop19902"
         style="stop-color:#D4D68E"
         offset="0.1148" />
      <stop
         id="stop19904"
         style="stop-color:#E2E4A6"
         offset="0.1677" />
      <stop
         id="stop19906"
         style="stop-color:#EDF0B8"
         offset="0.2265" />
      <stop
         id="stop19908"
         style="stop-color:#F3F6C3"
         offset="0.2963" />
      <stop
         id="stop19910"
         style="stop-color:#F5F8C7"
         offset="0.4045" />
      <stop
         id="stop19912"
         style="stop-color:#EEF0BE"
         offset="0.5239" />
      <stop
         id="stop19914"
         style="stop-color:#DBDDA9"
         offset="0.6666" />
      <stop
         id="stop19916"
         style="stop-color:#BEBD88"
         offset="0.8211" />
      <stop
         id="stop19918"
         style="stop-color:#989564"
         offset="0.9832" />
      <stop
         id="stop19920"
         style="stop-color:#949160"
         offset="1" />
    </linearGradient>
    <linearGradient
       id="linearGradient3300"
       inkscape:collect="always">
      <stop
         id="stop3302"
         offset="0"
         style="stop-color:#4c4c28;stop-opacity:1;" />
      <stop
         id="stop3304"
         offset="1"
         style="stop-color:#4c4c28;stop-opacity:0;" />
    </linearGradient>
    <linearGradient
       id="aigrd1"
       gradientUnits="userSpaceOnUse"
       x1="23.124001"
       y1="43.165001"
       x2="26.4785"
       y2="43.165001">
      <stop
         offset="5.618000e-003"
         style="stop-color:#686868"
         id="stop19415" />
      <stop
         offset="3.012137e-002"
         style="stop-color:#777777"
         id="stop19417" />
      <stop
         offset="8.366583e-002"
         style="stop-color:#929292"
         id="stop19419" />
      <stop
         offset="0.1422"
         style="stop-color:#A7A7A7"
         id="stop19421" />
      <stop
         offset="0.2074"
         style="stop-color:#B6B6B6"
         id="stop19423" />
      <stop
         offset="0.2846"
         style="stop-color:#BEBEBE"
         id="stop19425" />
      <stop
         offset="0.4045"
         style="stop-color:#C1C1C1"
         id="stop19427" />
      <stop
         offset="0.4962"
         style="stop-color:#BCBCBC"
         id="stop19429" />
      <stop
         offset="0.6057"
         style="stop-color:#ADADAD"
         id="stop19431" />
      <stop
         offset="0.7245"
         style="stop-color:#959595"
         id="stop19433" />
      <stop
         offset="0.8497"
         style="stop-color:#747474"
         id="stop19435" />
      <stop
         offset="0.9789"
         style="stop-color:#494949"
         id="stop19437" />
      <stop
         offset="1"
         style="stop-color:#414141"
         id="stop19439" />
    </linearGradient>
    <linearGradient
       inkscape:collect="always"
       xlink:href="#aigrd1"
       id="linearGradient5490"
       gradientUnits="userSpaceOnUse"
       gradientTransform="matrix(8.044901,0,0,7.010482,-9.797257,7.662649)"
       x1="23.124001"
       y1="43.165001"
       x2="26.4785"
       y2="43.165001" />
    <linearGradient
       inkscape:collect="always"
       xlink:href="#linearGradient3300"
       id="linearGradient5492"
       gradientUnits="userSpaceOnUse"
       gradientTransform="matrix(4.524261,0,0,4.520725,78.36065,121.2228)"
       x1="24.613028"
       y1="31.146202"
       x2="24.613028"
       y2="26.739624" />
    <linearGradient
       inkscape:collect="always"
       xlink:href="#linearGradient19894"
       id="linearGradient5494"
       gradientUnits="userSpaceOnUse"
       gradientTransform="matrix(2.55675,0.135482,-0.534962,2.975922,241.6393,212.2541)"
       x1="-22.87417"
       y1="38.675991"
       x2="-4.3908315"
       y2="38.675991" />
    <linearGradient
       inkscape:collect="always"
       xlink:href="#linearGradient2399"
       id="linearGradient5496"
       gradientUnits="userSpaceOnUse"
       gradientTransform="matrix(2.55675,0.135482,-0.534962,2.975922,241.6393,212.2541)"
       x1="-10.480865"
       y1="39.033951"
       x2="-23.851389"
       y2="39.142845" />
    <linearGradient
       inkscape:collect="always"
       xlink:href="#linearGradient19894"
       id="linearGradient5498"
       gradientUnits="userSpaceOnUse"
       gradientTransform="scale(1.02645,0.974232)"
       x1="-22.87417"
       y1="38.675991"
       x2="-4.3908315"
       y2="38.675991" />
    <linearGradient
       inkscape:collect="always"
       xlink:href="#linearGradient2399"
       id="linearGradient5500"
       gradientUnits="userSpaceOnUse"
       gradientTransform="scale(1.02645,0.974232)"
       x1="-10.480865"
       y1="39.033951"
       x2="-23.851389"
       y2="39.142845" />
    <linearGradient
       inkscape:collect="always"
       xlink:href="#linearGradient19894"
       id="linearGradient5502"
       gradientUnits="userSpaceOnUse"
       gradientTransform="scale(1.02645,0.974232)"
       x1="-22.87417"
       y1="38.675991"
       x2="-4.3908315"
       y2="38.675991" />
    <linearGradient
       inkscape:collect="always"
       xlink:href="#linearGradient2399"
       id="linearGradient5504"
       gradientUnits="userSpaceOnUse"
       gradientTransform="scale(1.02645,0.974232)"
       x1="-10.480865"
       y1="39.033951"
       x2="-23.851389"
       y2="39.142845" />
    <linearGradient
       inkscape:collect="always"
       xlink:href="#linearGradient19894"
       id="linearGradient5506"
       gradientUnits="userSpaceOnUse"
       gradientTransform="matrix(2.791664,-0.598442,0.282591,3.359585,218.7836,158.8463)"
       x1="-22.87417"
       y1="38.675991"
       x2="-4.3908315"
       y2="38.675991" />
    <linearGradient
       inkscape:collect="always"
       xlink:href="#linearGradient2399"
       id="linearGradient5508"
       gradientUnits="userSpaceOnUse"
       gradientTransform="matrix(2.791664,-0.598442,0.282591,3.359585,218.7836,158.8463)"
       x1="-10.480865"
       y1="39.033951"
       x2="-23.851389"
       y2="39.142845" />
    <linearGradient
       inkscape:collect="always"
       xlink:href="#linearGradient3311"
       id="linearGradient5510"
       gradientUnits="userSpaceOnUse"
       gradientTransform="matrix(6.981812,0,0,2.481021,84.92714,124.2165)"
       x1="17.879995"
       y1="55.362793"
       x2="11.906206"
       y2="54.863026" />
    <linearGradient
       inkscape:collect="always"
       xlink:href="#linearGradient3265"
       id="linearGradient5512"
       gradientUnits="userSpaceOnUse"
       gradientTransform="matrix(-3.943785,-0.198075,0.825178,-4.350792,84.92714,124.2165)"
       x1="-29.007195"
       y1="-29.799353"
       x2="-37.641232"
       y2="-29.598314" />
    <linearGradient
       inkscape:collect="always"
       xlink:href="#linearGradient20393"
       id="linearGradient5516"
       gradientUnits="userSpaceOnUse"
       gradientTransform="matrix(-2.691512,0,0,6.719863,295.1038,138.4233)"
       x1="30.620375"
       y1="10.313651"
       x2="32.16608"
       y2="18.162935" />
    <linearGradient
       inkscape:collect="always"
       xlink:href="#linearGradient20393"
       id="linearGradient5518"
       gradientUnits="userSpaceOnUse"
       gradientTransform="matrix(2.691512,0,0,6.719863,84.34866,138.9519)"
       x1="30.620375"
       y1="10.313651"
       x2="32.16608"
       y2="18.162935" />
    <linearGradient
       inkscape:collect="always"
       xlink:href="#linearGradient20428"
       id="linearGradient5520"
       gradientUnits="userSpaceOnUse"
       gradientTransform="matrix(8.490186,0,0,2.130292,85.95254,141.5949)"
       x1="14.637301"
       y1="31.504122"
       x2="9.3648205"
       y2="32.25098" />
    <radialGradient
       inkscape:collect="always"
       xlink:href="#linearGradient6339"
       id="radialGradient3521"
       gradientUnits="userSpaceOnUse"
       gradientTransform="matrix(1.021282,0,0,0.859991,6.960114,31.65602)"
       cx="182.65347"
       cy="174.67812"
       fx="182.65347"
       fy="174.67812"
       r="40.941456" />
    <linearGradient
       inkscape:collect="always"
       xlink:href="#linearGradient3175"
       id="linearGradient3528"
       gradientUnits="userSpaceOnUse"
       gradientTransform="matrix(3.976138,0,0,4.543896,97.70502,130.3422)"
       x1="37.940434"
       y1="16.651863"
       x2="-5.2517161"
       y2="3.8557322" />
    <radialGradient
       inkscape:collect="always"
       xlink:href="#aigrd7"
       id="radialGradient5196"
       gradientUnits="userSpaceOnUse"
       gradientTransform="matrix(2.451553,0,0,3.53296,44.32843,146.4373)"
       cx="68.137589"
       cy="29.869318"
       fx="68.137589"
       fy="29.869318"
       r="33.93409" />
    <radialGradient
       inkscape:collect="always"
       xlink:href="#linearGradient853"
       id="radialGradient5249"
       gradientUnits="userSpaceOnUse"
       cx="227.00549"
       cy="477.83307"
       fx="240.38737"
       fy="325.7662"
       r="200.73203" />
    <linearGradient
       inkscape:collect="always"
       xlink:href="#linearGradient865"
       id="linearGradient5251"
       gradientUnits="userSpaceOnUse"
       gradientTransform="matrix(1.069323,0,0,0.935172,42.79594,135.6217)"
       x1="178.42355"
       y1="199.48994"
       x2="88.360741"
       y2="112.48578" />
    <linearGradient
       inkscape:collect="always"
       xlink:href="#linearGradient865"
       id="linearGradient5253"
       gradientUnits="userSpaceOnUse"
       gradientTransform="matrix(-1.108489,0,0,0.902129,205.22,135.6217)"
       x1="105.80702"
       y1="25.611177"
       x2="82.344437"
       y2="46.947098" />
    <linearGradient
       inkscape:collect="always"
       xlink:href="#linearGradient865"
       id="linearGradient5255"
       gradientUnits="userSpaceOnUse"
       x1="43.39798"
       y1="-53.39077"
       x2="38.977112"
       y2="40.053986" />
    <linearGradient
       inkscape:collect="always"
       xlink:href="#linearGradient865"
       id="linearGradient5257"
       gradientUnits="userSpaceOnUse"
       x1="77.291656"
       y1="180.92995"
       x2="53.211624"
       y2="24.17461" />
    <radialGradient
       inkscape:collect="always"
       xlink:href="#linearGradient853"
       id="radialGradient5300"
       gradientUnits="userSpaceOnUse"
       cx="227.00549"
       cy="477.83307"
       fx="240.38737"
       fy="325.7662"
       r="200.73203" />
    <linearGradient
       inkscape:collect="always"
       xlink:href="#linearGradient865"
       id="linearGradient5302"
       gradientUnits="userSpaceOnUse"
       gradientTransform="matrix(1.069323,0,0,0.935172,42.79594,135.6217)"
       x1="178.42355"
       y1="199.48994"
       x2="88.360741"
       y2="112.48578" />
    <linearGradient
       inkscape:collect="always"
       xlink:href="#linearGradient865"
       id="linearGradient5304"
       gradientUnits="userSpaceOnUse"
       gradientTransform="matrix(-1.108489,0,0,0.902129,205.22,135.6217)"
       x1="105.80702"
       y1="25.611177"
       x2="82.344437"
       y2="46.947098" />
    <linearGradient
       inkscape:collect="always"
       xlink:href="#linearGradient865"
       id="linearGradient5306"
       gradientUnits="userSpaceOnUse"
       x1="43.39798"
       y1="-53.39077"
       x2="38.977112"
       y2="40.053986" />
    <linearGradient
       inkscape:collect="always"
       xlink:href="#linearGradient865"
       id="linearGradient5308"
       gradientUnits="userSpaceOnUse"
       x1="77.291656"
       y1="180.92995"
       x2="53.211624"
       y2="24.17461" />
    <clipPath
       clipPathUnits="userSpaceOnUse"
       id="clipPath5310">
      <path
         inkscape:r_cy="true"
         inkscape:r_cx="true"
         style="color:black;fill:none;fill-opacity:1;fill-rule:nonzero;stroke:#616471;stroke-width:3.8746357;stroke-linecap:round;stroke-linejoin:round;marker:none;marker-start:none;marker-mid:none;marker-end:none;stroke-miterlimit:4;stroke-dashoffset:0;stroke-opacity:1;visibility:visible;display:inline;overflow:visible"
         d="M 122.45186,165.54562 C 99.063667,165.54562 80.071669,184.07424 80.071669,206.89177 C 80.071669,230.28156 97.239203,232.87207 97.239203,241.49227 C 97.239203,251.62048 107.30453,263.10557 123.85505,262.69098 C 141.45401,262.25014 148.71691,252.26114 148.71691,241.49227 C 148.71691,232.2855 164.83206,232.03997 164.83206,206.89177 C 164.83206,184.07424 145.84005,165.54562 122.45186,165.54562 z "
         id="path6305"
         sodipodi:nodetypes="csssssc" />
    </clipPath>
  </defs>
  <sodipodi:namedview
     id="base"
     pagecolor="#ffffff"
     bordercolor="#666666"
     borderopacity="1.0"
     gridtolerance="10000"
     guidetolerance="10"
     objecttolerance="10"
     inkscape:pageopacity="0.0"
     inkscape:pageshadow="2"
     inkscape:zoom="3.0558777"
     inkscape:cx="65"
     inkscape:cy="100.00007"
     inkscape:document-units="cm"
     inkscape:current-layer="layer1"
     inkscape:grid-points="true"
     inkscape:grid-bbox="false"
     gridspacingx="32px"
     gridspacingy="32px"
     grid_units="px"
     showgrid="false"
     height="200px"
     width="130px"
     inkscape:window-width="1068"
     inkscape:window-height="782"
     inkscape:window-x="0"
     inkscape:window-y="22"
     gridempspacing="4" />
  <metadata
     id="metadata5438">
    <rdf:RDF>
      <cc:Work
         rdf:about="">
        <dc:format>image/svg+xml</dc:format>
        <dc:type
           rdf:resource="http://purl.org/dc/dcmitype/StillImage" />
      </cc:Work>
    </rdf:RDF>
  </metadata>
  <g
     inkscape:label="Layer 1"
     inkscape:groupmode="layer"
     id="layer1"
     transform="translate(-135.7141,-132.0765)">
    <g
       id="g5286"
       transform="matrix(1.487248,0,0,1.487248,18.59781,-112.0013)"
       clip-path="url(#clipPath5310)">
      <path
         transform="matrix(-0.336366,0,0,0.336366,200.0282,63.95022)"
         style="fill:url(#radialGradient5300);fill-opacity:1;fill-rule:evenodd;stroke-width:1pt"
         sodipodi:type="arc"
         sodipodi:ry="172.74803"
         sodipodi:rx="172.74803"
         sodipodi:cy="453.50235"
         sodipodi:cx="224.57243"
         id="path5288"
         d="M 397.32047 453.50235 A 172.74803 172.74803 0 1 1  51.824402,453.50235 A 172.74803 172.74803 0 1 1  397.32047 453.50235 z" />
      <path
         style="fill:#0e7a0c;fill-opacity:0.59375;fill-rule:evenodd;stroke-width:1pt"
         sodipodi:nodetypes="ccczcccczzzcccccccccczzccccczccccccccccc"
         id="path5290"
         d="M 134.73989,252.6575 C 127.08089,251.76727 127.00472,238.8051 134.6141,237.75575 C 139.39503,240.44596 143.83602,229.09394 146.27527,233.62311 C 144.26041,242.20379 155.20721,240.26018 157.2979,233.66945 C 160.40652,228.35112 158.84898,238.26347 160.04106,240.37268 C 162.82327,247.20548 154.21108,256.75356 147.8615,250.97625 C 143.32075,246.94189 139.15441,251.23089 134.73989,252.6575 z M 150.76156,257.37642 C 151.52931,260.34352 153.09098,260.61026 154.11032,257.48214 C 155.12967,254.51885 151.29997,255.06867 150.76156,257.37642 L 150.76156,257.37642 z M 92.77876,185.51971 C 86.45166,191.78904 84.58131,200.83883 82.47744,209.15424 C 84.04014,215.02263 88.75498,221.00093 83.32459,226.36135 C 79.85283,233.90605 68.678161,229.15891 71.462699,221.48596 C 71.321638,212.39655 70.208767,202.76968 74.57673,194.40182 C 76.96937,189.08118 81.49786,182.67667 88.03732,183.28558 C 89.76311,183.66915 91.29458,184.59946 92.77876,185.51971 z M 106.7658,206.50027 C 106.31693,199.20747 114.28196,199.83165 112.48568,191.11936 C 112.17968,183.72676 96.75336,187.40993 101.2717,178.59166 C 105.47746,172.00088 104.97593,168.61788 115.50438,166.91711 C 126.03283,164.7501 137.2969,162.21598 155.00581,175.27724 C 172.24849,188.33851 140.66506,177.9809 136.87782,182.77418 C 130.79631,187.89684 133.53763,199.10996 126.44395,201.46271 C 120.31321,205.39246 120.8011,213.51785 119.77745,219.88585 C 120.99737,225.10436 137.14551,221.39916 129.59466,228.55857 C 121.91675,230.50668 116.76976,222.77657 111.43123,218.69909 C 108.72689,216.14194 107.21467,213.32683 106.7658,206.50027 z M 159.91656,195.77687 C 166.43707,195.35906 169.11259,202.84054 168.53841,208.27001 C 164.98568,214.19336 172.80533,219.71023 176.67022,213.62375 C 180.83676,206.26357 174.04014,197.05347 167.67658,193.15543 C 164.86249,190.66262 159.31893,191.00283 159.91656,195.77687 z M 95.57617,258.25234 C 103.76717,258.12865 112.03457,256.269 120.17526,257.9799 C 123.35105,262.24761 132.30603,265.23164 132.42561,269.69335 C 126.10335,274.11385 117.89313,269.96214 111.29055,268.24901 C 106.04844,266.65969 98.5987,267.76242 95.89,261.86894 C 95.50837,260.71438 95.31001,259.45864 95.57617,258.25234 z " />
      <path
         style="fill:url(#linearGradient5302);fill-opacity:1;fill-rule:evenodd;stroke-width:1pt"
         sodipodi:nodetypes="ccc"
         id="path5292"
         d="M 96.49357,263.1789 C 119.18281,290.42571 194.65404,262.82832 177.16535,208.8442 C 162.36801,190.0533 131.25066,203.74454 96.49357,263.1789 z " />
      <path
         style="fill:url(#linearGradient5304);fill-opacity:1;fill-rule:evenodd;stroke-width:1pt"
         sodipodi:nodetypes="ccc"
         id="path5294"
         d="M 139.20707,167.03099 C 113.77242,151.53001 62.02611,174.46047 69.61339,217.65106 C 79.88528,231.34691 98.48626,161.31767 139.20707,167.03099 z " />
      <path
         transform="matrix(-0.84058,0,0,0.565217,166.4821,170.2174)"
         style="fill:url(#linearGradient5306);fill-opacity:1;fill-rule:evenodd;stroke-width:1pt"
         sodipodi:type="arc"
         sodipodi:ry="49.665058"
         sodipodi:rx="49.665058"
         sodipodi:cy="31.15876"
         sodipodi:cx="51.104626"
         id="path5296"
         d="M 100.76968 31.15876 A 49.665058 49.665058 0 1 1  1.4395676,31.15876 A 49.665058 49.665058 0 1 1  100.76968 31.15876 z" />
      <path
         transform="matrix(-0.876812,0,0,0.688406,170.1332,217.4836)"
         style="fill:url(#linearGradient5308);fill-opacity:1;fill-rule:evenodd;stroke-width:1pt"
         sodipodi:type="arc"
         sodipodi:ry="49.665058"
         sodipodi:rx="49.665058"
         sodipodi:cy="31.15876"
         sodipodi:cx="51.104626"
         id="path5298"
         d="M 100.76968 31.15876 A 49.665058 49.665058 0 1 1  1.4395676,31.15876 A 49.665058 49.665058 0 1 1  100.76968 31.15876 z" />
    </g>
    <g
       id="g5086"
       transform="matrix(1.021282,0,0,1.021282,6.960114,3.482065)">
      <path
         inkscape:r_cy="true"
         inkscape:r_cx="true"
         id="path19509"
         d="M 176.04005,301.40217 L 176.04005,307.71161 C 176.04005,314.02104 182.47598,319.62944 189.7164,319.62944 C 196.95681,319.62944 203.39273,314.02104 203.39273,307.71161 L 203.39273,301.40217 L 176.04005,301.40217 z "
         style="fill:url(#linearGradient5490);fill-rule:nonzero;stroke:#565656;stroke-width:3.85835528;stroke-miterlimit:4;stroke-opacity:1" />
      <path
         style="color:black;fill:#aeae57;fill-opacity:1;fill-rule:nonzero;stroke:url(#linearGradient5492);stroke-width:7.68383503;stroke-linecap:round;stroke-linejoin:round;marker:none;marker-start:none;marker-mid:none;marker-end:none;stroke-miterlimit:4;stroke-dashoffset:0;stroke-opacity:1;visibility:visible;display:inline;overflow:visible"
         d="M 188.96432,246.63825 C 174.06081,246.60212 157.15977,251.00411 166.31805,259.32564 C 164.04737,260.2458 160.80161,262.30085 161.18423,267.10966 C 161.39548,269.62108 164.04536,271.1627 167.66924,272.29459 C 163.56103,275.18924 160.94695,278.24809 161.18423,281.06909 C 161.39302,283.55123 163.98711,285.25104 167.5369,286.38698 C 163.5322,289.24832 160.9502,292.37916 161.18423,295.16148 C 161.54191,299.4138 170.67163,304.17697 190.44075,303.62839 C 204.67428,303.23864 217.23458,300.67583 218.22586,295.16148 C 218.6151,292.99618 216.85101,290.97587 214.1231,289.17887 C 216.16523,287.11121 217.59586,285.01402 217.43178,283.0633 C 217.22201,280.56947 214.65843,278.8798 211.07911,277.74542 C 215.08381,274.88408 217.66581,271.75324 217.43178,268.97092 C 217.22201,266.47708 214.65843,264.92036 211.07911,263.78598 C 215.13156,260.90918 217.66732,257.8117 217.43178,255.01148 C 217.16996,251.89884 202.97162,246.6722 188.96432,246.63825 z "
         id="path3209"
         sodipodi:nodetypes="cccccccscccccccs"
         inkscape:r_cx="true"
         inkscape:r_cy="true" />
      <path
         style="color:black;fill:url(#linearGradient5494);fill-opacity:1;fill-rule:nonzero;stroke:url(#linearGradient5496);stroke-width:0.33919904;stroke-linecap:round;stroke-linejoin:round;marker:none;marker-start:none;marker-mid:none;marker-end:none;stroke-miterlimit:4;stroke-dashoffset:0;stroke-opacity:1;visibility:visible;display:inline;overflow:visible"
         d="M 217.88116,294.96121 C 216.88988,300.47556 202.86076,303.58742 180.40637,302.45791 C 166.18537,301.74257 165.3716,297.74561 166.36288,292.23125 C 167.35417,286.7169 179.69878,282.85299 193.91782,283.60646 C 208.13687,284.35992 218.87244,289.44685 217.88116,294.96121 z "
         id="path3183"
         sodipodi:nodetypes="csccc"
         inkscape:r_cx="true"
         inkscape:r_cy="true" />
      <path
         transform="matrix(2.719729,-0.583022,0.290066,3.448445,218.7836,186.9084)"
         d="M -3.5355339 27.228739 A 10.341436 3.2703688 0 1 1  -24.218407,27.228739 A 10.341436 3.2703688 0 1 1  -3.5355339 27.228739 z"
         sodipodi:ry="3.2703688"
         sodipodi:rx="10.341436"
         sodipodi:cy="27.228739"
         sodipodi:cx="-13.87697"
         id="path1603"
         style="color:black;fill:url(#linearGradient5498);fill-opacity:1;fill-rule:nonzero;stroke:url(#linearGradient5500);stroke-width:0.10977408;stroke-linecap:round;stroke-linejoin:round;marker:none;marker-start:none;marker-mid:none;marker-end:none;stroke-miterlimit:4;stroke-dashoffset:0;stroke-opacity:1;visibility:visible;display:inline;overflow:visible"
         sodipodi:type="arc"
         inkscape:r_cx="true"
         inkscape:r_cy="true" />
      <path
         sodipodi:type="arc"
         style="color:black;fill:url(#linearGradient5502);fill-opacity:1;fill-rule:nonzero;stroke:url(#linearGradient5504);stroke-width:0.10977408;stroke-linecap:round;stroke-linejoin:round;marker:none;marker-start:none;marker-mid:none;marker-end:none;stroke-miterlimit:4;stroke-dashoffset:0;stroke-opacity:1;visibility:visible;display:inline;overflow:visible"
         id="path2364"
         sodipodi:cx="-13.87697"
         sodipodi:cy="27.228739"
         sodipodi:rx="10.341436"
         sodipodi:ry="3.2703688"
         d="M -3.5355339 27.228739 A 10.341436 3.2703688 0 1 1  -24.218407,27.228739 A 10.341436 3.2703688 0 1 1  -3.5355339 27.228739 z"
         transform="matrix(2.719729,-0.583022,0.290066,3.448445,218.7836,172.8774)"
         inkscape:r_cx="true"
         inkscape:r_cy="true" />
      <path
         style="color:black;fill:url(#linearGradient5506);fill-opacity:1;fill-rule:nonzero;stroke:url(#linearGradient5508);stroke-width:0.33919924;stroke-linecap:round;stroke-linejoin:round;marker:none;marker-start:none;marker-mid:none;marker-end:none;stroke-miterlimit:4;stroke-dashoffset:0;stroke-opacity:1;visibility:visible;display:inline;overflow:visible"
         d="M 216.87889,255.55648 C 216.87889,261.80394 205.41428,268.78322 189.88878,272.11139 C 174.36327,275.43956 161.33789,273.08827 160.81425,266.86299 C 160.2906,260.63771 170.90598,253.3766 186.44044,252.53061 C 202.09799,251.67793 216.87889,252.33151 216.87889,255.55648 z "
         id="path2366"
         sodipodi:nodetypes="cccss"
         inkscape:r_cx="true"
         inkscape:r_cy="true" />
      <path
         sodipodi:type="arc"
         style="color:black;fill:white;fill-opacity:1;fill-rule:nonzero;stroke:none;stroke-width:2;stroke-linecap:butt;stroke-linejoin:round;marker:none;marker-start:none;marker-mid:none;marker-end:none;stroke-miterlimit:4;stroke-dashoffset:0;stroke-opacity:1;visibility:visible;display:inline;overflow:visible"
         id="path20372"
         sodipodi:cx="27.75"
         sodipodi:cy="22.375"
         sodipodi:rx="3.25"
         sodipodi:ry="3.25"
         d="M 31 22.375 A 3.25 3.25 0 1 1  24.5,22.375 A 3.25 3.25 0 1 1  31 22.375 z"
         transform="matrix(1.513706,0,0,1.520567,131.3654,244.6313)"
         inkscape:r_cx="true"
         inkscape:r_cy="true" />
      <path
         style="fill:black;fill-opacity:0.23391807;fill-rule:evenodd;stroke:none;stroke-width:1px;stroke-linecap:butt;stroke-linejoin:miter;stroke-opacity:1"
         d="M 165.63792,272.52012 C 180.95443,274.80764 197.12823,272.37202 210.1837,263.87141 C 213.84436,261.4879 214.39496,258.76365 216.07947,256.63281 C 209.6534,261.74056 193.40105,275.49703 165.63792,272.52012 z "
         id="path3241"
         sodipodi:nodetypes="cscc"
         inkscape:r_cx="true"
         inkscape:r_cy="true" />
      <path
         transform="matrix(1.513706,0,0,1.520567,131.3654,258.2642)"
         d="M 31 22.375 A 3.25 3.25 0 1 1  24.5,22.375 A 3.25 3.25 0 1 1  31 22.375 z"
         sodipodi:ry="3.25"
         sodipodi:rx="3.25"
         sodipodi:cy="22.375"
         sodipodi:cx="27.75"
         id="path2435"
         style="color:black;fill:white;fill-opacity:1;fill-rule:nonzero;stroke:none;stroke-width:2;stroke-linecap:butt;stroke-linejoin:round;marker:none;marker-start:none;marker-mid:none;marker-end:none;stroke-miterlimit:4;stroke-dashoffset:0;stroke-opacity:1;visibility:visible;display:inline;overflow:visible"
         sodipodi:type="arc"
         inkscape:r_cx="true"
         inkscape:r_cy="true" />
      <path
         style="fill:black;fill-opacity:0.23391807;fill-rule:evenodd;stroke:none;stroke-width:1px;stroke-linecap:butt;stroke-linejoin:miter;stroke-opacity:1"
         d="M 166.19942,300.34641 C 181.51593,302.63393 197.68973,300.19831 210.7452,291.6977 C 214.40586,289.31419 214.95646,286.58995 216.64097,284.4591 C 210.2149,289.56686 193.96254,303.32333 166.19942,300.34641 z "
         id="path3237"
         sodipodi:nodetypes="cscc"
         inkscape:r_cx="true"
         inkscape:r_cy="true" />
      <path
         sodipodi:nodetypes="cscc"
         id="path3239"
         d="M 166.293,286.24525 C 181.60951,288.53277 197.78331,286.09715 210.83878,277.59654 C 214.49945,275.21303 215.05004,272.48879 216.73455,270.35794 C 210.30848,275.4657 194.05613,289.22216 166.293,286.24525 z "
         style="fill:black;fill-opacity:0.23391807;fill-rule:evenodd;stroke:none;stroke-width:1px;stroke-linecap:butt;stroke-linejoin:miter;stroke-opacity:1"
         inkscape:r_cx="true"
         inkscape:r_cy="true" />
      <path
         sodipodi:nodetypes="csscs"
         id="path3243"
         d="M 164.42247,257.90377 C 164.42247,254.32973 171.27655,250.05449 188.58085,250.29376 C 204.61293,250.51544 215.17401,254.33861 215.17401,260.0591 C 215.17401,265.65827 201.15602,269.40257 186.2097,268.6519 C 171.26339,267.90123 164.42247,263.50294 164.42247,257.90377 z "
         style="color:black;fill:url(#linearGradient5510);fill-opacity:1;fill-rule:nonzero;stroke:url(#linearGradient5512);stroke-width:0.33919898;stroke-linecap:round;stroke-linejoin:round;marker:none;marker-start:none;marker-mid:none;marker-end:none;stroke-miterlimit:4;stroke-dashoffset:0;stroke-opacity:1;visibility:visible;display:inline;overflow:visible"
         inkscape:r_cx="true"
         inkscape:r_cy="true" />
    </g>
    <path
       inkscape:r_cy="true"
       inkscape:r_cx="true"
       sodipodi:nodetypes="csssssc"
       id="path2429"
       d="M 200.71412,139.11988 C 168.29582,139.11988 141.97107,164.80235 141.97107,196.42965 C 141.97107,228.85017 165.76695,232.44085 165.76695,244.3893 C 165.76695,258.42797 179.71845,274.34742 202.65908,273.77276 C 227.05294,273.1617 237.12002,259.31597 237.12002,244.3893 C 237.12002,231.62782 259.45718,231.28749 259.45718,196.42965 C 259.45718,164.80235 233.13242,139.11988 200.71412,139.11988 z "
       style="color:black;fill:none;fill-opacity:1;fill-rule:nonzero;stroke:url(#linearGradient3528);stroke-width:3.61111259;stroke-linecap:round;stroke-linejoin:round;marker:none;marker-start:none;marker-mid:none;marker-end:none;stroke-miterlimit:4;stroke-dashoffset:0;stroke-opacity:1;visibility:visible;display:inline;overflow:visible" />
    <g
       id="g5081"
       transform="matrix(1.021282,0,0,1.021282,6.960114,3.482065)">
      <path
         style="fill:url(#linearGradient5516);fill-opacity:1;fill-rule:nonzero;stroke:none;stroke-miterlimit:4"
         d="M 214.94955,203.62458 C 216.28715,204.06542 217.17888,205.38795 216.73301,206.71047 L 200.23602,255.64388 C 199.79016,256.9664 198.45256,257.84808 197.11497,257.40724 C 195.77738,256.9664 194.88565,255.64388 195.33151,254.32135 L 211.8285,205.38795 C 212.27437,204.06542 213.61196,203.18374 214.94955,203.62458 z "
         id="path1691"
         inkscape:r_cx="true"
         inkscape:r_cy="true" />
      <path
         id="path19612"
         d="M 164.5029,204.15318 C 163.16531,204.59402 162.27357,205.91655 162.71944,207.23907 L 179.21643,256.17248 C 179.6623,257.495 180.99989,258.37668 182.33749,257.93584 C 183.67508,257.495 184.56681,256.17248 184.12094,254.84995 L 167.62395,205.91655 C 167.17809,204.59402 165.84049,203.71234 164.5029,204.15318 z "
         style="fill:url(#linearGradient5518);fill-opacity:1;fill-rule:nonzero;stroke:none;stroke-miterlimit:4"
         inkscape:r_cx="true"
         inkscape:r_cy="true" />
      <path
         style="fill:white;fill-opacity:1;fill-rule:nonzero;stroke:url(#linearGradient5520);stroke-width:0.76838332;stroke-linecap:round;stroke-linejoin:round;stroke-miterlimit:4;stroke-opacity:1"
         d="M 164.94325,203.83766 C 163.8915,204.01555 163.06755,204.82992 162.88726,205.86977 C 162.70697,206.90961 163.20954,207.94882 164.14132,208.46292 C 164.14132,208.46292 172.02049,213.0337 182.31854,215.33473 C 192.61659,217.63576 205.79453,217.78502 215.73254,208.19862 C 216.48207,207.61067 216.82956,206.65335 216.62919,205.72834 C 216.42883,204.80334 215.71528,204.07069 214.78796,203.83783 C 213.86064,203.60497 212.87998,203.91218 212.25749,204.63056 C 203.91506,212.67782 192.81925,212.68471 183.38778,210.57732 C 173.95632,208.46993 166.68078,204.23411 166.68078,204.23411 C 166.16996,203.8967 165.55195,203.75569 164.94325,203.83766 z "
         id="path19614"
         inkscape:r_cx="true"
         inkscape:r_cy="true" />
    </g>
    <path
       inkscape:r_cy="true"
       inkscape:r_cx="true"
       style="opacity:0.5977654;color:black;fill:url(#radialGradient3521);fill-opacity:1;fill-rule:nonzero;stroke:none;stroke-width:0.98750001;stroke-linecap:round;stroke-linejoin:round;marker:none;marker-start:none;marker-mid:none;marker-end:none;stroke-miterlimit:4;stroke-dashoffset:0;stroke-opacity:1;visibility:visible;display:inline;overflow:visible"
       d="M 202.14219,146.66845 C 174.28856,146.66845 151.6881,165.23458 151.6881,188.10008 C 151.6881,197.2324 156.03525,205.22873 162.1413,212.07885 C 169.04591,214.99299 176.56637,217.08706 184.85958,217.08706 C 212.71321,217.08706 235.31366,198.52092 235.31367,175.65541 C 235.31367,166.46804 230.89427,158.39694 224.72109,151.52491 C 217.8487,148.64529 210.38274,146.66845 202.14219,146.66845 z "
       id="path6334" />
    <path
       sodipodi:nodetypes="csssssc"
       id="path4289"
       d="M 200.7141,134.20609 C 165.93007,134.20609 137.68425,161.76274 137.68425,195.69806 C 137.68425,230.48447 163.21664,234.33721 163.21664,247.15758 C 163.21664,262.22073 178.18627,279.30192 202.80101,278.68533 C 228.97502,278.02968 239.77674,263.17354 239.77674,247.15758 C 239.77674,233.46483 263.74395,233.09966 263.74395,195.69806 C 263.74395,161.76274 235.49814,134.20609 200.7141,134.20609 z "
       style="color:black;fill:url(#radialGradient5196);fill-opacity:1;fill-rule:nonzero;stroke:#616471;stroke-width:3.87463593;stroke-linecap:round;stroke-linejoin:round;marker:none;marker-start:none;marker-mid:none;marker-end:none;stroke-miterlimit:4;stroke-dashoffset:0;stroke-opacity:1;visibility:visible;display:inline;overflow:visible"
       inkscape:r_cx="true"
       inkscape:r_cy="true" />
  </g>
</svg>
