<?xml version="1.0" encoding="UTF-8" standalone="no"?>
<!-- Created with Inkscape (http://www.inkscape.org/) -->
<svg xmlns:rdf="http://www.w3.org/1999/02/22-rdf-syntax-ns#" xmlns="http://www.w3.org/2000/svg" height="400" width="580" version="1.0" y="0" x="0" xmlns:cc="http://creativecommons.org/ns#" xmlns:xlink="http://www.w3.org/1999/xlink" xmlns:dc="http://purl.org/dc/elements/1.1/">
<style>
 .text1{font-size:40px;fill:#000000;font-family:Bitstream Vera Sans}
 .cl1{fill-rule:nonzero;fill:#000000;}
 .cl2{font-size:25px;font-family:Bitstream Vera Sans;fill:#000000; font-size:18px;;}
 .cl3{font-size:25px;font-family:Bitstream Vera Sans;fill:#000000;}
 .cl4{font-size:23px;font-family:Bitstream Vera Sans;fill:#000000; font-size:21px;;}
 .cl5{stroke-linejoin:miter;stroke:#000000;stroke-linecap:butt;stroke-dasharray:7.2,7.2;stroke-width:1.8;fill:none;}
</style>
 <metadata>
  <rdf:RDF>
   <cc:Work rdf:about="">
    <dc:format>image/svg+xml</dc:format>
    <dc:type rdf:resource="http://purl.org/dc/dcmitype/StillImage"/>
    <dc:title/>
   </cc:Work>
  </rdf:RDF>
 </metadata>
 <defs>
  <marker id="Arrow2Mend" refY="0" refX="0" style="overflow:visible" orient="auto">
   <path style="stroke-linejoin:round;stroke-width:0.625;fill-rule:evenodd" d="M 8.718,4.033 -2.207,0.016 8.718,-4.001 c -1.745,2.372 -1.735,5.617 -6e-7,8.035 z" transform="matrix(-.6 0 0 -.6 3 0)"/>
  </marker>
 </defs>
 <path style="stroke-linejoin:miter;stroke:#000000;stroke-linecap:butt;stroke-width:0.856px;fill:none" d="M 519.687,356.526 43.685,355.801 41.659,43.443"/>
 <path style="stroke-linejoin:miter;stroke:#4040ff;stroke-linecap:butt;stroke-width:2.505;fill:none" d="M 71.252,210.422 C 194.636,481.272 449.310,55.289 449.310,55.289"/>
 <text class="cl3" y="62.230" x="460.781">MC</text>
 <text class="cl3" y="28.006" x="10.854">Price</text>
 <text style="font-size:23px;font-family:Bitstream Vera Sans;fill:#000000" y="379.821" x="463.511">Quantity</text>
 <path class="cl1" d="m 41.502,37.688 6.925,17.257 c 0,0 -5.981,-8.428 -13.221,0 l 6.296,-17.257 z"/>
 <path class="cl1" d="m 533.784,355.466 -17.257,6.925 c 0,0 8.428,-5.981 0,-13.221 l 17.257,6.296 z"/>
 <path style="stroke-linejoin:miter;stroke:#ff0000;stroke-linecap:butt;stroke-width:2.512;fill:none" d="M 71.256,136.781 C 264.038,377.305 404.934,182.943 404.934,182.943"/>
 <path style="stroke-linejoin:miter;stroke:#000000;stroke-linecap:butt;stroke-width:2.700;fill:none" d="M 42.190,77.108 494.605,355.246"/>
 <text style="font-size:25px;font-family:Bitstream Vera Sans;fill:#000000; font-size:20px;" y="312.963" x="456.565">D=AR=P</text>
 <text class="cl3" y="181.098" x="423.559">ATC</text>
 <text class="cl3" y="190.627" x="13.470">P</text>
 <path style="stroke-linejoin:miter;stroke:#000000;stroke-linecap:butt;stroke-dasharray:6.484, 6.484;stroke-width:1.621;fill:none" d="m 216.476,186.318 0,169.786"/>
 <text class="cl3" y="381.867" x="206.482">Q</text>
 <path class="cl5" d="m 300.611,253.143 -259.232,0"/>
 <path style="stroke-linejoin:miter;stroke:#000000;stroke-linecap:butt;stroke-width:2.683;fill:none" d="M 42.867,78.707 266.891,355.492"/>
 <path style="stroke-linejoin:miter;stroke:#000000;stroke-linecap:butt;stroke-dasharray:6,6;stroke-width:1.5;fill:none" d="m 215.564,184.303 -173.553,0"/>
 <text class="cl3" y="333.232" x="258.698">MR</text>
 <text y="45.021" x="227.272" class="text1"><tspan x="227.272" y="45.021"/></text>
 <text class="cl4" y="116.529" x="187.246">Economic</text>
 <text class="cl4" y="137.549" x="191.802">profit lost</text>
 <path style="stroke-linejoin:miter;stroke:#000000;stroke-linecap:butt;stroke-dasharray:7.335, 7.335;stroke-width:1.833;fill:none" d="m 301.780,236.580 -259.405,0"/>
 <path class="cl5" d="m 304.112,245.010 0,112.285"/>
 <text class="cl4" y="163.487" x="251.123">Economic</text>
 <text class="cl4" y="187.958" x="233.046">profit gained</text>
 <path style="stroke-linejoin:miter;marker-end:url(#Arrow2Mend);stroke:#646464;stroke-linecap:butt;stroke-width:1.770;fill:none" d="m 286.894,196.963 -25.630,45.074"/>
 <path style="stroke-linejoin:miter;marker-end:url(#Arrow2Mend);stroke:#646464;stroke-linecap:butt;stroke-width:2;fill:none" d="m 226.154,147.642 -40.394,57.745"/>
 <text class="cl3" y="240.817" x="3.317">P</text>
 <text class="cl3" y="380.577" x="296.969">Q</text>
 <text class="cl2" y="382.134" x="318.592">reg</text>
 <text class="cl2" y="245.619" x="13.290">reg</text>
</svg>
