<?xml version="1.0" encoding="UTF-8" standalone="no"?>
<!-- Created with Inkscape (http://www.inkscape.org/) -->

<svg
   xmlns:dc="http://purl.org/dc/elements/1.1/"
   xmlns:cc="http://creativecommons.org/ns#"
   xmlns:rdf="http://www.w3.org/1999/02/22-rdf-syntax-ns#"
   xmlns:svg="http://www.w3.org/2000/svg"
   xmlns="http://www.w3.org/2000/svg"
   xmlns:sodipodi="http://sodipodi.sourceforge.net/DTD/sodipodi-0.dtd"
   xmlns:inkscape="http://www.inkscape.org/namespaces/inkscape"
   id="svg9348"
   version="1.1"
   inkscape:version="0.48.0 r9654"
   width="106.95375"
   height="86.864998"
   xml:space="preserve"
   sodipodi:docname="Inversion qtl3.svg"><metadata
     id="metadata9354"><rdf:RDF><cc:Work
         rdf:about=""><dc:format>image/svg+xml</dc:format><dc:type
           rdf:resource="http://purl.org/dc/dcmitype/StillImage" /><dc:title /></cc:Work></rdf:RDF></metadata><defs
     id="defs9352" /><sodipodi:namedview
     pagecolor="#ffffff"
     bordercolor="#666666"
     borderopacity="1"
     objecttolerance="10"
     gridtolerance="10"
     guidetolerance="10"
     inkscape:pageopacity="0"
     inkscape:pageshadow="2"
     inkscape:window-width="1404"
     inkscape:window-height="858"
     id="namedview9350"
     showgrid="false"
     fit-margin-top="2.5"
     fit-margin-left="5"
     fit-margin-right="5"
     fit-margin-bottom="2.5"
     inkscape:zoom="3.1676279"
     inkscape:cx="35.13701"
     inkscape:cy="44.416424"
     inkscape:window-x="0"
     inkscape:window-y="0"
     inkscape:window-maximized="0"
     inkscape:current-layer="g9356" /><g
     id="g9356"
     inkscape:groupmode="layer"
     inkscape:label="Inversion qtl1"
     transform="matrix(1.25,0,0,-1.25,-5,89.36625)"><path
       inkscape:connector-curvature="0"
       id="path9360"
       style="fill:#000000;fill-opacity:1;fill-rule:nonzero;stroke:none"
       d="m 8.828,36.890167 c 0.219,0 0.266,0 0.266,0.14 0.031,6.985 0.828,12.781 4.328,17.656 0.062,0.094 0.062,0.11 0.062,0.141 0,0.094 -0.062,0.094 -0.218,0.094 -0.172,0 -0.188,0 -0.203,-0.016 -0.047,-0.031 -1.313,-1.484 -2.313,-3.5 -1.312,-2.625 -2.141,-5.64 -2.516,-9.281 -0.031,-0.297 -0.234,-2.375 -0.234,-4.734 l 0,-0.391 c 0,-0.109 0.063,-0.109 0.281,-0.109 l 0.547,0 z" /><path
       inkscape:connector-curvature="0"
       id="path9362"
       style="fill:#000000;fill-opacity:1;fill-rule:nonzero;stroke:none"
       d="m 8.281,37.015167 c -0.218,0 -0.281,0 -0.281,-0.11 l 0,-0.39 c 0,-6.094 1.078,-9.657 1.391,-10.672 0.672,-2.203 1.781,-4.547 3.453,-6.594 0.14,-0.188 0.187,-0.234 0.219,-0.25 0.031,-0.016 0.031,-0.016 0.203,-0.016 0.156,0 0.218,0 0.218,0.094 0,0.016 0,0.047 -0.062,0.125 -3.313,4.609 -4.313,10.156 -4.328,17.672 0,0.141 -0.047,0.141 -0.266,0.141 l -0.547,0 z" /><path
       inkscape:connector-curvature="0"
       id="path9364"
       style="fill:#000000;fill-opacity:1;fill-rule:nonzero;stroke:none"
       d="m 85.563,37.390167 c 0,6.078 -1.094,9.656 -1.391,10.656 -0.688,2.219 -1.797,4.547 -3.453,6.609 -0.156,0.172 -0.188,0.219 -0.235,0.25 -0.015,0 -0.031,0.016 -0.187,0.016 -0.141,0 -0.234,0 -0.234,-0.094 0,-0.031 0,-0.047 0.14,-0.234 3.469,-4.844 4.235,-10.813 4.25,-17.563 0,-0.14 0.063,-0.14 0.281,-0.14 l 0.547,0 c 0.203,0 0.266,0 0.282,0.109 l 0,0.391 z" /><path
       inkscape:connector-curvature="0"
       id="path9366"
       style="fill:#000000;fill-opacity:1;fill-rule:nonzero;stroke:none"
       d="m 85.563,36.905167 c -0.016,0.11 -0.079,0.11 -0.282,0.11 l -0.547,0 c -0.218,0 -0.281,0 -0.281,-0.141 0,-1.031 -0.015,-3.406 -0.265,-5.875 -0.547,-5.156 -1.86,-8.734 -4.047,-11.797 -0.078,-0.078 -0.078,-0.109 -0.078,-0.125 0,-0.094 0.093,-0.094 0.234,-0.094 0.156,0 0.187,0 0.203,0.016 0.031,0.031 1.297,1.484 2.313,3.484 1.312,2.641 2.14,5.657 2.515,9.282 0.031,0.312 0.235,2.39 0.235,4.75 l 0,0.39 z" /><path
       inkscape:connector-curvature="0"
       id="path9368"
       style="fill:#000000;fill-opacity:1;fill-rule:nonzero;stroke:none"
       d="m 18.484,42.319167 0,0.477 c 1.164,-0.004 1.746,0.148 1.75,0.457 l 0,7.625 c -0.504,-0.258 -1.117,-0.387 -1.839,-0.383 l 0,0.48 c 1.136,-0.003 2,0.305 2.593,0.922 l 0.188,0 c 0.023,-0.004 0.051,-0.015 0.078,-0.035 0.019,-0.027 0.031,-0.054 0.035,-0.078 l 0,-8.531 c -0.004,-0.309 0.582,-0.461 1.758,-0.457 l 0,-0.477 -4.563,0 z" /><path
       inkscape:connector-curvature="0"
       id="path9370"
       style="fill:#0026a0;fill-opacity:1;fill-rule:nonzero;stroke:none"
       d="m 30.617,42.319167 0,0.387 c 0,0.008 0.012,0.023 0.043,0.055 l 2.164,2.441 c 0.489,0.547 0.871,0.988 1.145,1.332 0.273,0.336 0.511,0.731 0.719,1.18 0.203,0.445 0.304,0.91 0.308,1.39 -0.004,0.633 -0.176,1.176 -0.519,1.629 -0.348,0.453 -0.832,0.68 -1.454,0.684 -0.445,-0.004 -0.835,-0.149 -1.168,-0.434 -0.335,-0.289 -0.566,-0.652 -0.691,-1.09 0.035,0.004 0.09,0.008 0.164,0.012 0.121,-0.004 0.238,-0.035 0.352,-0.094 0.109,-0.062 0.195,-0.148 0.258,-0.253 0.058,-0.114 0.089,-0.231 0.093,-0.356 -0.004,-0.125 -0.035,-0.242 -0.093,-0.348 -0.063,-0.113 -0.145,-0.199 -0.254,-0.261 -0.11,-0.067 -0.231,-0.098 -0.356,-0.094 -0.207,-0.004 -0.375,0.066 -0.508,0.211 -0.136,0.137 -0.203,0.301 -0.203,0.492 0,0.363 0.067,0.707 0.199,1.031 0.133,0.317 0.321,0.606 0.571,0.867 0.242,0.254 0.523,0.45 0.843,0.59 0.313,0.133 0.649,0.203 1.008,0.207 0.547,-0.004 1.051,-0.121 1.508,-0.347 0.457,-0.235 0.82,-0.559 1.094,-0.981 0.269,-0.426 0.406,-0.914 0.41,-1.465 -0.004,-0.433 -0.09,-0.832 -0.266,-1.195 -0.175,-0.363 -0.402,-0.699 -0.671,-1 -0.274,-0.309 -0.637,-0.664 -1.098,-1.074 -0.461,-0.41 -0.758,-0.68 -0.891,-0.809 l -1.652,-1.625 1.469,0 c 0.668,-0.004 1.226,0 1.679,0.016 0.446,0.008 0.684,0.027 0.711,0.055 0.11,0.121 0.223,0.562 0.344,1.324 l 0.375,0 -0.375,-2.477 -5.258,0 z" /><path
       inkscape:connector-curvature="0"
       id="path9372"
       style="fill:#000000;fill-opacity:1;fill-rule:nonzero;stroke:none"
       d="m 43.926,43.628167 c 0.191,-0.379 0.5,-0.668 0.922,-0.867 0.418,-0.203 0.859,-0.301 1.328,-0.301 0.562,0 0.969,0.234 1.219,0.711 0.246,0.469 0.371,1.015 0.375,1.637 -0.004,0.371 -0.055,0.738 -0.157,1.101 -0.101,0.356 -0.273,0.652 -0.515,0.891 -0.243,0.234 -0.551,0.351 -0.922,0.355 l -1.016,0 c -0.07,-0.004 -0.101,0.031 -0.097,0.102 l 0,0.16 c -0.004,0.055 0.027,0.082 0.097,0.086 l 0.824,0.055 c 0.336,0 0.621,0.125 0.856,0.382 0.23,0.25 0.398,0.567 0.508,0.942 0.105,0.371 0.16,0.715 0.164,1.039 -0.004,0.449 -0.117,0.824 -0.34,1.125 -0.227,0.297 -0.559,0.449 -0.996,0.449 -0.383,0 -0.75,-0.07 -1.098,-0.211 -0.355,-0.141 -0.625,-0.359 -0.808,-0.652 0.015,0.004 0.054,0.008 0.117,0.011 0.187,-0.003 0.347,-0.07 0.48,-0.199 0.125,-0.136 0.192,-0.297 0.196,-0.48 -0.004,-0.196 -0.071,-0.36 -0.196,-0.492 -0.133,-0.137 -0.293,-0.204 -0.48,-0.2 -0.196,-0.004 -0.36,0.063 -0.492,0.203 -0.141,0.133 -0.207,0.297 -0.204,0.489 -0.003,0.398 0.122,0.746 0.372,1.043 0.25,0.293 0.566,0.515 0.949,0.668 0.383,0.144 0.773,0.218 1.176,0.222 0.394,-0.004 0.792,-0.082 1.195,-0.234 0.394,-0.156 0.726,-0.383 0.996,-0.676 0.262,-0.297 0.394,-0.652 0.398,-1.066 -0.004,-0.399 -0.097,-0.774 -0.281,-1.125 -0.191,-0.36 -0.445,-0.664 -0.766,-0.914 -0.32,-0.254 -0.664,-0.43 -1.027,-0.535 0.434,-0.067 0.84,-0.215 1.215,-0.446 0.375,-0.234 0.676,-0.535 0.906,-0.902 0.227,-0.367 0.34,-0.766 0.344,-1.191 -0.004,-0.524 -0.141,-0.997 -0.414,-1.422 -0.277,-0.426 -0.649,-0.762 -1.109,-1.004 -0.465,-0.242 -0.95,-0.36 -1.457,-0.364 -0.477,0.004 -0.938,0.098 -1.379,0.286 -0.45,0.187 -0.809,0.457 -1.086,0.816 -0.282,0.355 -0.422,0.77 -0.418,1.246 -0.004,0.211 0.066,0.387 0.211,0.527 0.136,0.133 0.316,0.204 0.535,0.204 0.133,0 0.254,-0.032 0.371,-0.094 0.109,-0.063 0.199,-0.149 0.269,-0.258 0.063,-0.113 0.098,-0.242 0.098,-0.379 0,-0.219 -0.074,-0.398 -0.215,-0.539 -0.148,-0.148 -0.32,-0.219 -0.523,-0.215 -0.059,-0.004 -0.102,0 -0.125,0.016 z" /><path
       inkscape:connector-curvature="0"
       id="path9374"
       style="fill:#007800;fill-opacity:1;fill-rule:nonzero;stroke:none"
       d="m 58.281,42.319167 0,0.477 c 0.91,-0.004 1.367,0.148 1.371,0.457 l 0,1.457 -3.754,0 0,0.476 4.368,6.641 c 0.027,0.043 0.07,0.066 0.125,0.07 l 0.218,0 c 0.082,-0.004 0.121,-0.05 0.125,-0.136 l 0,-6.575 1.43,0 0,-0.476 -1.43,0 0,-1.457 c -0.004,-0.199 0.133,-0.324 0.411,-0.375 0.273,-0.059 0.593,-0.086 0.96,-0.082 l 0,-0.477 -3.824,0 z m -1.945,2.867 3.387,0 0,5.184 -3.387,-5.184 z" /><path
       inkscape:connector-curvature="0"
       id="path9376"
       style="fill:#000000;fill-opacity:1;fill-rule:nonzero;stroke:none"
       d="m 69.523,44.022167 c -0.011,0.004 -0.019,0.008 -0.019,0.012 -0.008,-0.004 -0.012,-0.004 -0.012,0 0.133,-0.457 0.395,-0.832 0.785,-1.129 0.383,-0.297 0.813,-0.445 1.289,-0.445 0.368,0 0.676,0.082 0.918,0.246 0.243,0.164 0.43,0.379 0.571,0.648 0.133,0.27 0.23,0.567 0.289,0.895 0.051,0.32 0.078,0.648 0.082,0.98 -0.004,0.411 -0.016,0.754 -0.039,1.028 -0.028,0.269 -0.094,0.527 -0.196,0.773 -0.109,0.266 -0.265,0.492 -0.472,0.688 -0.207,0.187 -0.449,0.285 -0.723,0.289 -0.344,-0.004 -0.629,-0.055 -0.859,-0.153 -0.231,-0.101 -0.41,-0.214 -0.539,-0.336 -0.133,-0.128 -0.258,-0.261 -0.368,-0.406 -0.117,-0.144 -0.187,-0.222 -0.214,-0.23 l -0.164,0 c -0.079,-0.004 -0.118,0.039 -0.114,0.133 l 0,4.769 c -0.004,0.024 0.008,0.051 0.035,0.078 0.02,0.02 0.047,0.031 0.079,0.035 l 0.043,0 c 0.644,-0.312 1.316,-0.468 2.019,-0.464 0.703,-0.004 1.379,0.152 2.031,0.464 l 0.043,0 c 0.024,-0.004 0.047,-0.011 0.075,-0.027 0.019,-0.016 0.031,-0.035 0.035,-0.059 l 0,-0.164 c -0.004,-0.007 -0.008,-0.019 -0.016,-0.035 -0.012,-0.015 -0.016,-0.027 -0.012,-0.035 -0.32,-0.398 -0.715,-0.711 -1.187,-0.934 -0.477,-0.226 -0.977,-0.339 -1.492,-0.335 -0.43,-0.004 -0.832,0.058 -1.207,0.183 l 0,-2.883 c 0.23,0.235 0.504,0.418 0.82,0.547 0.312,0.129 0.644,0.192 0.992,0.195 0.402,-0.003 0.77,-0.093 1.102,-0.269 0.328,-0.184 0.605,-0.422 0.836,-0.723 0.222,-0.3 0.398,-0.64 0.527,-1.015 0.121,-0.379 0.184,-0.754 0.187,-1.125 -0.003,-0.563 -0.14,-1.09 -0.41,-1.582 -0.273,-0.496 -0.644,-0.891 -1.113,-1.18 -0.477,-0.293 -0.996,-0.434 -1.559,-0.438 -0.48,0.004 -0.914,0.122 -1.3,0.364 -0.391,0.242 -0.696,0.566 -0.918,0.968 -0.223,0.403 -0.332,0.84 -0.332,1.317 0,0.183 0.062,0.34 0.187,0.469 0.125,0.125 0.285,0.187 0.481,0.191 0.187,-0.004 0.343,-0.066 0.468,-0.191 0.125,-0.129 0.188,-0.286 0.192,-0.469 -0.004,-0.192 -0.067,-0.348 -0.192,-0.473 -0.125,-0.125 -0.281,-0.187 -0.468,-0.187 -0.032,0.004 -0.059,0.008 -0.079,0.011 -0.027,0 -0.054,0 -0.082,0.004 z" /><path
       inkscape:connector-curvature="0"
       id="path9378"
       style="fill:#000000;fill-opacity:1;fill-rule:nonzero;stroke:none"
       d="m 18.555,25.251721 c 0.191,-0.379 0.5,-0.668 0.922,-0.867 0.418,-0.203 0.859,-0.301 1.328,-0.301 0.562,0 0.968,0.234 1.218,0.711 0.247,0.469 0.372,1.016 0.375,1.637 -0.003,0.371 -0.054,0.738 -0.156,1.101 -0.101,0.356 -0.273,0.653 -0.515,0.891 -0.243,0.234 -0.551,0.351 -0.922,0.355 l -1.016,0 c -0.07,-0.004 -0.101,0.032 -0.098,0.102 l 0,0.16 c -0.003,0.055 0.028,0.082 0.098,0.086 l 0.824,0.055 c 0.336,0 0.621,0.125 0.856,0.382 0.23,0.25 0.398,0.567 0.508,0.942 0.105,0.371 0.16,0.715 0.164,1.039 -0.004,0.449 -0.118,0.824 -0.34,1.125 -0.227,0.297 -0.559,0.449 -0.996,0.449 -0.383,0 -0.75,-0.07 -1.098,-0.211 -0.355,-0.14 -0.625,-0.359 -0.809,-0.652 0.016,0.004 0.055,0.008 0.118,0.012 0.187,-0.004 0.347,-0.071 0.48,-0.2 0.125,-0.136 0.192,-0.297 0.195,-0.48 -0.003,-0.195 -0.07,-0.36 -0.195,-0.492 -0.133,-0.137 -0.293,-0.203 -0.48,-0.2 -0.196,-0.003 -0.36,0.063 -0.493,0.204 -0.14,0.132 -0.207,0.296 -0.203,0.488 -0.004,0.398 0.121,0.746 0.371,1.043 0.25,0.293 0.567,0.515 0.95,0.668 0.382,0.144 0.773,0.219 1.175,0.222 0.395,-0.003 0.793,-0.082 1.196,-0.234 0.394,-0.156 0.726,-0.383 0.996,-0.676 0.262,-0.297 0.394,-0.652 0.398,-1.066 -0.004,-0.399 -0.097,-0.774 -0.281,-1.125 -0.191,-0.359 -0.445,-0.664 -0.766,-0.914 -0.32,-0.254 -0.664,-0.43 -1.027,-0.535 0.434,-0.067 0.84,-0.215 1.215,-0.446 0.375,-0.234 0.676,-0.535 0.906,-0.902 0.227,-0.367 0.34,-0.766 0.344,-1.191 -0.004,-0.524 -0.141,-0.996 -0.414,-1.422 -0.278,-0.426 -0.649,-0.762 -1.11,-1.004 -0.464,-0.242 -0.949,-0.36 -1.457,-0.363 -0.476,0.003 -0.937,0.097 -1.378,0.285 -0.45,0.187 -0.809,0.457 -1.086,0.816 -0.282,0.356 -0.422,0.77 -0.418,1.246 -0.004,0.211 0.066,0.387 0.211,0.528 0.136,0.132 0.316,0.203 0.535,0.203 0.133,0 0.254,-0.032 0.371,-0.094 0.109,-0.063 0.199,-0.149 0.269,-0.258 0.063,-0.113 0.098,-0.242 0.098,-0.379 0,-0.219 -0.074,-0.398 -0.215,-0.539 -0.148,-0.148 -0.32,-0.219 -0.523,-0.215 -0.059,-0.004 -0.102,0 -0.125,0.016 z" /><path
       inkscape:connector-curvature="0"
       id="path9380"
       style="fill:#3589e3;fill-opacity:1;fill-rule:nonzero;stroke:none"
       d="m 31.355,25.645721 c -0.011,0.004 -0.019,0.008 -0.019,0.012 -0.008,-0.004 -0.012,-0.004 -0.012,0 0.133,-0.457 0.395,-0.832 0.785,-1.129 0.383,-0.297 0.813,-0.445 1.289,-0.445 0.368,0 0.676,0.082 0.918,0.246 0.243,0.164 0.43,0.379 0.571,0.648 0.133,0.27 0.23,0.567 0.289,0.895 0.051,0.32 0.078,0.648 0.082,0.98 -0.004,0.411 -0.016,0.754 -0.039,1.028 -0.028,0.269 -0.094,0.527 -0.196,0.773 -0.109,0.266 -0.265,0.492 -0.472,0.688 -0.207,0.187 -0.449,0.285 -0.723,0.289 -0.344,-0.004 -0.629,-0.055 -0.859,-0.153 -0.231,-0.101 -0.41,-0.214 -0.539,-0.335 -0.133,-0.129 -0.258,-0.262 -0.367,-0.407 -0.118,-0.144 -0.188,-0.222 -0.215,-0.23 l -0.164,0 c -0.079,-0.004 -0.118,0.039 -0.114,0.133 l 0,4.769 c -0.004,0.024 0.008,0.051 0.035,0.078 0.02,0.02 0.047,0.032 0.079,0.035 l 0.043,0 c 0.644,-0.312 1.316,-0.468 2.019,-0.464 0.703,-0.004 1.379,0.152 2.031,0.464 l 0.043,0 c 0.024,-0.003 0.047,-0.011 0.075,-0.027 0.019,-0.016 0.031,-0.035 0.035,-0.058 l 0,-0.165 c -0.004,-0.007 -0.008,-0.019 -0.016,-0.035 -0.012,-0.015 -0.016,-0.027 -0.012,-0.035 -0.32,-0.398 -0.714,-0.711 -1.187,-0.933 -0.477,-0.227 -0.977,-0.34 -1.492,-0.336 -0.43,-0.004 -0.832,0.058 -1.207,0.183 l 0,-2.883 c 0.23,0.235 0.504,0.418 0.82,0.547 0.312,0.129 0.644,0.192 0.992,0.196 0.402,-0.004 0.77,-0.094 1.102,-0.27 0.328,-0.184 0.605,-0.422 0.836,-0.723 0.222,-0.3 0.398,-0.64 0.527,-1.015 0.121,-0.379 0.184,-0.754 0.187,-1.125 -0.003,-0.563 -0.14,-1.09 -0.41,-1.582 -0.273,-0.496 -0.644,-0.891 -1.113,-1.18 -0.477,-0.293 -0.996,-0.434 -1.559,-0.437 -0.48,0.003 -0.914,0.121 -1.3,0.363 -0.391,0.242 -0.696,0.566 -0.918,0.969 -0.223,0.402 -0.332,0.839 -0.332,1.316 0,0.184 0.062,0.34 0.187,0.469 0.125,0.125 0.285,0.187 0.481,0.191 0.187,-0.004 0.343,-0.066 0.468,-0.191 0.125,-0.129 0.188,-0.285 0.192,-0.469 -0.004,-0.191 -0.067,-0.348 -0.192,-0.473 -0.125,-0.125 -0.281,-0.187 -0.468,-0.187 -0.032,0.004 -0.059,0.008 -0.078,0.012 -0.028,0 -0.055,0 -0.083,0.003 z" /><path
       inkscape:connector-curvature="0"
       id="path9382"
       style="fill:#000000;fill-opacity:1;fill-rule:nonzero;stroke:none"
       d="m 44.313,23.942721 0,0.477 c 1.164,-0.004 1.746,0.148 1.75,0.457 l 0,7.625 c -0.504,-0.258 -1.118,-0.387 -1.84,-0.383 l 0,0.481 c 1.136,-0.004 2,0.304 2.593,0.921 l 0.188,0 c 0.023,-0.003 0.051,-0.015 0.078,-0.035 0.02,-0.027 0.031,-0.054 0.035,-0.078 l 0,-8.531 c -0.004,-0.309 0.582,-0.461 1.758,-0.457 l 0,-0.477 -4.562,0 z" /><path
       inkscape:connector-curvature="0"
       id="path9384"
       style="fill:#19c800;fill-opacity:1;fill-rule:nonzero;stroke:none"
       d="m 56.445,23.942721 0,0.387 c 0,0.008 0.012,0.023 0.043,0.055 l 2.164,2.441 c 0.489,0.547 0.871,0.988 1.145,1.332 0.273,0.336 0.512,0.731 0.719,1.18 0.203,0.445 0.304,0.91 0.308,1.39 -0.004,0.633 -0.176,1.176 -0.519,1.629 -0.348,0.454 -0.832,0.68 -1.453,0.684 -0.446,-0.004 -0.836,-0.148 -1.168,-0.434 -0.336,-0.289 -0.567,-0.652 -0.692,-1.089 0.035,0.003 0.09,0.007 0.164,0.011 0.121,-0.004 0.239,-0.035 0.352,-0.093 0.109,-0.063 0.195,-0.149 0.258,-0.254 0.058,-0.114 0.089,-0.231 0.093,-0.356 -0.004,-0.125 -0.035,-0.242 -0.093,-0.348 -0.063,-0.113 -0.145,-0.199 -0.254,-0.261 -0.11,-0.067 -0.231,-0.098 -0.356,-0.094 -0.207,-0.004 -0.375,0.066 -0.508,0.211 -0.136,0.137 -0.203,0.301 -0.203,0.492 0,0.363 0.067,0.707 0.2,1.031 0.132,0.317 0.32,0.606 0.57,0.868 0.242,0.253 0.523,0.449 0.844,0.589 0.312,0.133 0.648,0.204 1.007,0.207 0.547,-0.003 1.051,-0.121 1.508,-0.347 0.457,-0.235 0.821,-0.559 1.094,-0.981 0.27,-0.425 0.406,-0.914 0.41,-1.465 -0.004,-0.433 -0.09,-0.832 -0.265,-1.195 -0.176,-0.363 -0.403,-0.699 -0.672,-1 -0.274,-0.308 -0.637,-0.664 -1.098,-1.074 -0.461,-0.41 -0.758,-0.68 -0.891,-0.809 l -1.652,-1.625 1.469,0 c 0.668,-0.004 1.226,0 1.679,0.016 0.446,0.008 0.684,0.027 0.711,0.055 0.11,0.121 0.223,0.562 0.344,1.324 l 0.375,0 -0.375,-2.477 -5.258,0 z" /><path
       inkscape:connector-curvature="0"
       id="path9386"
       style="fill:#000000;fill-opacity:1;fill-rule:nonzero;stroke:none"
       d="m 71.313,23.942721 0,0.477 c 0.91,-0.004 1.367,0.148 1.371,0.457 l 0,1.457 -3.754,0 0,0.477 4.367,6.64 c 0.027,0.043 0.07,0.067 0.125,0.07 l 0.219,0 c 0.082,-0.003 0.121,-0.05 0.125,-0.136 l 0,-6.574 1.429,0 0,-0.477 -1.429,0 0,-1.457 c -0.004,-0.199 0.132,-0.324 0.41,-0.375 0.273,-0.059 0.594,-0.086 0.961,-0.082 l 0,-0.477 -3.824,0 z m -1.946,2.868 3.387,0 0,5.183 -3.387,-5.183 z" /><g
       transform="matrix(1,0,0,-1,0,73.850651)"
       id="g9388"><path
         inkscape:connector-curvature="0"
         id="path9390"
         style="fill:none;stroke:#000000;stroke-width:0.63999999;stroke-linecap:butt;stroke-linejoin:miter;stroke-miterlimit:4;stroke-opacity:1;stroke-dasharray:none"
         d="m 33.066,53.656 c 2.743,1.293 2.223,1.141 3.313,1.574 12.66,5.059 22.992,-1.468 22.992,-1.468" /></g><path
       inkscape:connector-curvature="0"
       id="path9392"
       style="fill:#000000;fill-opacity:1;fill-rule:evenodd;stroke:none"
       d="m 35.434,17.366167 -3.137,3.184 4.453,-0.395 c -0.996,-0.539 -1.523,-1.668 -1.316,-2.789 z" /><path
       inkscape:connector-curvature="0"
       id="path9394"
       style="fill:#3587e3;fill-opacity:1;fill-rule:nonzero;stroke:none"
       d="m 24.333445,7.1336116 c -0.004,0.023 0.117,0.308 0.355,0.851 0.235,0.539 0.379,0.879 0.438,1.02 0.148,0.375 0.281,0.734 0.402,1.0819994 0.117,0.344002 0.223,0.687002 0.317,1.035002 l -0.727,0 c -0.258,-0.004 -0.48,-0.07 -0.668,-0.203 -0.191,-0.137 -0.355,-0.297 -0.5,-0.485 -0.148,-0.187001 -0.23,-0.285001 -0.246,-0.289001 l -0.137,0 c -0.05,-0.004 -0.074,0.028 -0.074,0.09 0,0.012 0.004,0.024 0.012,0.043 0.238,0.418 0.492,0.774 0.769,1.063 0.27,0.285 0.586,0.429 0.942,0.429 l 3.965,0 c 0.078,0 0.144,-0.023 0.195,-0.07 0.051,-0.047 0.074,-0.109 0.078,-0.187 -0.004,-0.098 -0.043,-0.188 -0.117,-0.27 -0.082,-0.082 -0.168,-0.125 -0.266,-0.121 l -1.41,0 c -0.148,-0.649 -0.219,-1.2580009 -0.215,-1.8280009 -0.004,-0.696 0.102,-1.301 0.313,-1.817 0.047,-0.086 0.07,-0.156 0.07,-0.211 0,-0.121 -0.051,-0.222 -0.144,-0.304 -0.098,-0.086 -0.204,-0.125 -0.317,-0.129 -0.187,0.004 -0.312,0.156 -0.379,0.461 -0.07,0.308 -0.105,0.609 -0.101,0.91 -0.004,0.43 0.035,0.855 0.113,1.273 0.074,0.411 0.195,0.9570009 0.359,1.6450009 l -1.215,0 c -0.554,-2.2340009 -0.91,-3.5470009 -1.062,-3.9450009 -0.086,-0.227 -0.227,-0.34 -0.426,-0.344 -0.094,0.004 -0.172,0.031 -0.23,0.086 -0.067,0.054 -0.098,0.125 -0.094,0.215 z" /><path
       inkscape:connector-curvature="0"
       id="path9396"
       style="fill:#3587e3;fill-opacity:1;fill-rule:nonzero;stroke:none"
       d="m 32.231445,4.3946116 c -0.687,0.543 -1.195,1.239 -1.519,2.082 -0.332,0.848 -0.496,1.746 -0.492,2.707 -0.004,0.9540004 0.16,1.8560014 0.492,2.7040014 0.324,0.843 0.832,1.535 1.519,2.078 0.012,0.007 0.024,0.015 0.039,0.019 l 0.094,0 c 0.043,-0.004 0.067,-0.027 0.071,-0.074 -0.004,-0.016 -0.012,-0.039 -0.02,-0.063 -0.305,-0.292 -0.563,-0.617 -0.773,-0.98 -0.219,-0.367 -0.387,-0.746 -0.508,-1.137 -0.129,-0.394 -0.219,-0.804 -0.274,-1.23 -0.054,-0.430002 -0.082,-0.8710014 -0.082,-1.3170014 0,-0.601 0.051,-1.179 0.153,-1.734 0.101,-0.559 0.273,-1.086 0.515,-1.594 0.242,-0.504 0.563,-0.953 0.969,-1.343 0.008,-0.024 0.016,-0.043 0.02,-0.063 -0.004,-0.047 -0.028,-0.07 -0.071,-0.074 l -0.094,0 c -0.015,0.004 -0.027,0.008 -0.039,0.019 z" /><path
       inkscape:connector-curvature="0"
       id="path9398"
       style="fill:#3587e3;fill-opacity:1;fill-rule:nonzero;stroke:none"
       d="m 34.489445,7.1686116 c 0,0.156 0.024,0.301 0.074,0.426 l 0.911,2.4209994 c 0.089,0.243001 0.14,0.473002 0.152,0.684002 0,0.231 -0.09,0.344 -0.27,0.348 -0.293,-0.004 -0.531,-0.149 -0.711,-0.442 -0.183,-0.297001 -0.328,-0.6400014 -0.429,-1.0270014 -0.024,-0.059 -0.047,-0.086 -0.078,-0.082 l -0.133,0 c -0.059,-0.004 -0.086,0.035 -0.082,0.117 0.109,0.4379994 0.289,0.8320014 0.535,1.1800014 0.238,0.344 0.547,0.515 0.922,0.519 0.258,-0.004 0.472,-0.09 0.644,-0.261 0.172,-0.172 0.258,-0.387 0.262,-0.645 -0.004,-0.156001 -0.027,-0.301001 -0.074,-0.4260019 l -0.91,-2.4179995 c -0.106,-0.285 -0.157,-0.511 -0.157,-0.683 0,-0.231 0.09,-0.348 0.274,-0.344 0.199,-0.004 0.375,0.074 0.531,0.234 0.149,0.157 0.274,0.344 0.371,0.563 0.094,0.215 0.172,0.437 0.235,0.668 0.023,0.047 0.05,0.074 0.082,0.074 l 0.129,0 c 0.05,0 0.078,-0.039 0.082,-0.109 -0.063,-0.27 -0.157,-0.532 -0.282,-0.785 -0.129,-0.258 -0.293,-0.473 -0.496,-0.649 -0.203,-0.176 -0.433,-0.262 -0.691,-0.266 -0.258,0.004 -0.473,0.086 -0.637,0.258 -0.172,0.172 -0.254,0.387 -0.254,0.645 z m 1.274,5.9960014 c -0.004,0.152 0.054,0.285 0.175,0.398 0.118,0.114 0.254,0.172 0.411,0.172 0.109,0 0.203,-0.035 0.277,-0.101 0.07,-0.071 0.105,-0.164 0.109,-0.278 -0.004,-0.152 -0.062,-0.285 -0.179,-0.398 -0.121,-0.117 -0.254,-0.172 -0.399,-0.172 -0.109,0 -0.203,0.035 -0.277,0.105 -0.082,0.071 -0.121,0.161 -0.117,0.274 z" /><path
       inkscape:connector-curvature="0"
       id="path9400"
       style="fill:#3587e3;fill-opacity:1;fill-rule:nonzero;stroke:none"
       d="m 39.032445,4.3716116 c -0.047,0.004 -0.07,0.027 -0.066,0.074 -0.004,0.027 0.004,0.047 0.027,0.063 0.582,0.574 1,1.261 1.25,2.062 0.246,0.801 0.371,1.668 0.375,2.61 -0.004,0.445 -0.031,0.8819994 -0.082,1.3040014 -0.055,0.422 -0.144,0.832 -0.266,1.231 -0.125,0.394 -0.289,0.773 -0.5,1.136 -0.21,0.364 -0.472,0.692 -0.777,0.993 -0.023,0.015 -0.031,0.039 -0.027,0.062 -0.004,0.047 0.019,0.07 0.066,0.074 l 0.094,0 c 0.008,-0.004 0.023,-0.011 0.051,-0.019 0.675,-0.543 1.179,-1.235 1.508,-2.078 0.324,-0.848 0.484,-1.750001 0.488,-2.7030014 -0.004,-0.961 -0.164,-1.86 -0.488,-2.708 -0.329,-0.843 -0.833,-1.539 -1.508,-2.082 -0.028,-0.011 -0.043,-0.015 -0.051,-0.019 l -0.094,0 z" /><path
       inkscape:connector-curvature="0"
       id="path9402"
       style="fill:#18c800;fill-opacity:1;fill-rule:nonzero;stroke:none"
       d="m 53.142445,7.1486116 c -0.004,0.024 0.117,0.309 0.355,0.852 0.234,0.539 0.379,0.879 0.438,1.019 0.148,0.375 0.281,0.735 0.402,1.0819994 0.117,0.344002 0.223,0.688002 0.316,1.036002 l -0.726,0 c -0.258,-0.004 -0.481,-0.071 -0.668,-0.204 -0.192,-0.136 -0.356,-0.296 -0.5,-0.484 -0.149,-0.187001 -0.231,-0.285001 -0.246,-0.289001 l -0.137,0 c -0.051,-0.004 -0.074,0.027 -0.074,0.09 0,0.012 0.004,0.023 0.011,0.043 0.239,0.418 0.493,0.773 0.77,1.062 0.269,0.285 0.586,0.43 0.941,0.43 l 3.965,0 c 0.078,0 0.145,-0.023 0.196,-0.07 0.05,-0.047 0.074,-0.11 0.078,-0.188 -0.004,-0.097 -0.043,-0.187 -0.118,-0.269 -0.082,-0.082 -0.168,-0.125 -0.265,-0.121 l -1.41,0 c -0.149,-0.649 -0.219,-1.2580009 -0.215,-1.8290009 -0.004,-0.695 0.101,-1.3 0.312,-1.816 0.047,-0.086 0.071,-0.156 0.071,-0.211 0,-0.121 -0.051,-0.223 -0.145,-0.305 -0.098,-0.086 -0.203,-0.125 -0.316,-0.129 -0.188,0.004 -0.313,0.157 -0.379,0.461 -0.071,0.309 -0.106,0.61 -0.102,0.911 -0.004,0.429 0.035,0.855 0.114,1.273 0.074,0.41 0.195,0.9570009 0.359,1.6450009 l -1.215,0 c -0.555,-2.2350009 -0.91,-3.5470009 -1.062,-3.9460009 -0.086,-0.226 -0.227,-0.34 -0.426,-0.344 -0.094,0.004 -0.172,0.032 -0.231,0.086 -0.066,0.055 -0.097,0.125 -0.093,0.215 z" /><path
       inkscape:connector-curvature="0"
       id="path9404"
       style="fill:#18c800;fill-opacity:1;fill-rule:nonzero;stroke:none"
       d="m 61.044445,4.4106116 c -0.688,0.543 -1.195,1.238 -1.52,2.082 -0.332,0.848 -0.496,1.746 -0.492,2.707 -0.004,0.9530004 0.16,1.8560014 0.492,2.7030014 0.325,0.844 0.832,1.535 1.52,2.078 0.012,0.008 0.023,0.016 0.039,0.02 l 0.094,0 c 0.043,-0.004 0.066,-0.028 0.07,-0.074 -0.004,-0.016 -0.012,-0.039 -0.02,-0.063 -0.304,-0.293 -0.562,-0.617 -0.773,-0.98 -0.219,-0.368 -0.387,-0.746 -0.508,-1.137 -0.129,-0.395 -0.219,-0.805 -0.273,-1.231 -0.055,-0.429002 -0.082,-0.8710014 -0.082,-1.3160014 0,-0.602 0.051,-1.18 0.152,-1.734 0.102,-0.559 0.274,-1.086 0.516,-1.594 0.242,-0.504 0.562,-0.953 0.968,-1.344 0.008,-0.023 0.016,-0.043 0.02,-0.062 -0.004,-0.047 -0.027,-0.071 -0.07,-0.075 l -0.094,0 c -0.016,0.004 -0.027,0.008 -0.039,0.02 z" /><path
       inkscape:connector-curvature="0"
       id="path9406"
       style="fill:#18c800;fill-opacity:1;fill-rule:nonzero;stroke:none"
       d="m 62.282445,4.4536116 c 0.106,-0.051 0.242,-0.078 0.414,-0.082 0.321,0.004 0.598,0.148 0.832,0.437 0.231,0.293 0.391,0.618 0.477,0.965 l 1.066,4.2579994 c 0.051,0.203001 0.078,0.383002 0.078,0.539002 0,0.129 -0.027,0.246 -0.074,0.344 -0.055,0.098 -0.14,0.144 -0.258,0.148 -0.34,-0.004 -0.625,-0.148 -0.859,-0.441 -0.238,-0.297001 -0.438,-0.6520014 -0.602,-1.0590014 -0.015,-0.039 -0.039,-0.054 -0.066,-0.05 l -0.133,0 c -0.023,-0.004 -0.043,0.011 -0.058,0.046 -0.016,0.028 -0.024,0.051 -0.024,0.071 0.18,0.4529994 0.414,0.8510014 0.707,1.1910014 0.289,0.336 0.641,0.504 1.055,0.508 0.183,-0.004 0.355,-0.047 0.512,-0.133 0.156,-0.086 0.277,-0.207 0.363,-0.363 0.086,-0.156 0.129,-0.328 0.133,-0.508001 -0.004,-0.117 -0.016,-0.227001 -0.035,-0.3280009 l -1.067,-4.2579995 c -0.078,-0.301 -0.219,-0.578 -0.426,-0.824 -0.207,-0.246 -0.461,-0.442 -0.754,-0.59 -0.296,-0.144 -0.593,-0.219 -0.894,-0.219 -0.246,0 -0.465,0.055 -0.66,0.164 -0.196,0.11 -0.293,0.278 -0.293,0.496 0,0.168 0.054,0.313 0.172,0.434 0.109,0.125 0.254,0.184 0.425,0.184 0.11,0 0.204,-0.032 0.282,-0.098 0.078,-0.066 0.117,-0.156 0.117,-0.273 0,-0.125 -0.043,-0.243 -0.125,-0.352 -0.086,-0.102 -0.188,-0.172 -0.305,-0.207 z m 3.004,8.7270014 c -0.004,0.152 0.055,0.285 0.176,0.398 0.117,0.113 0.254,0.172 0.402,0.172 0.121,0 0.215,-0.035 0.289,-0.106 0.067,-0.07 0.102,-0.164 0.106,-0.273 -0.004,-0.098 -0.028,-0.188 -0.078,-0.274 -0.055,-0.089 -0.129,-0.16 -0.219,-0.214 -0.098,-0.055 -0.195,-0.082 -0.289,-0.082 -0.113,0 -0.203,0.035 -0.278,0.105 -0.074,0.07 -0.113,0.16 -0.109,0.274 z" /><path
       inkscape:connector-curvature="0"
       id="path9408"
       style="fill:#18c800;fill-opacity:1;fill-rule:nonzero;stroke:none"
       d="m 67.841445,4.3876116 c -0.047,0.003 -0.071,0.027 -0.067,0.074 -0.004,0.027 0.004,0.047 0.028,0.062 0.582,0.574 1,1.262 1.25,2.063 0.246,0.801 0.371,1.668 0.375,2.609 -0.004,0.445 -0.032,0.8829994 -0.082,1.3050014 -0.055,0.422 -0.145,0.832 -0.266,1.23 -0.125,0.395 -0.289,0.774 -0.5,1.137 -0.211,0.363 -0.473,0.691 -0.777,0.992 -0.024,0.016 -0.032,0.039 -0.028,0.063 -0.004,0.047 0.02,0.07 0.067,0.074 l 0.094,0 c 0.007,-0.004 0.023,-0.012 0.05,-0.02 0.676,-0.543 1.18,-1.234 1.508,-2.078 0.324,-0.847 0.484,-1.750001 0.488,-2.7030014 -0.004,-0.961 -0.164,-1.859 -0.488,-2.707 -0.328,-0.844 -0.832,-1.539 -1.508,-2.082 -0.027,-0.012 -0.043,-0.016 -0.05,-0.019 l -0.094,0 z" /><path
       inkscape:connector-curvature="0"
       id="path9410"
       style="fill:#000000;fill-opacity:1;fill-rule:nonzero;stroke:none"
       d="m 43.501445,6.2976116 0,0.058 c -0.004,0.071 0.031,0.121 0.109,0.164 l 5.875,2.715 -5.875,2.7110014 c -0.078,0.027 -0.113,0.078 -0.109,0.152 l 0,0.063 c -0.004,0.043 0.019,0.086 0.066,0.121 0.043,0.035 0.09,0.051 0.149,0.055 0.008,-0.004 0.039,-0.012 0.086,-0.024 l 6.273,-2.8980014 c 0.02,-0.012 0.043,-0.035 0.07,-0.07 0.028,-0.036 0.043,-0.067 0.043,-0.09 l 0,-0.055 c 0,-0.023 -0.015,-0.055 -0.043,-0.086 -0.027,-0.039 -0.05,-0.062 -0.07,-0.07 l -6.273,-2.899 c -0.047,-0.011 -0.078,-0.019 -0.086,-0.023 -0.051,0.004 -0.098,0.019 -0.145,0.055 -0.051,0.035 -0.074,0.078 -0.07,0.121 z" /><path
       inkscape:connector-curvature="0"
       id="path9412"
       style="fill:#000000;fill-opacity:1;fill-rule:nonzero;stroke:none"
       d="m 42.787555,64.945584 c -0.023,0.008 -0.047,0.031 -0.07,0.07 -0.031,0.035 -0.043,0.067 -0.039,0.086 l 0,0.055 c -0.004,0.015 0.008,0.047 0.039,0.086 0.023,0.039 0.047,0.062 0.07,0.074 l 6.274,2.898 c 0.043,0.012 0.078,0.02 0.105,0.024 0.047,-0.004 0.09,-0.02 0.133,-0.055 0.043,-0.035 0.066,-0.078 0.066,-0.121 l 0,-0.062 c 0,-0.075 -0.039,-0.125 -0.113,-0.153 l -5.867,-2.711 5.867,-2.715 c 0.074,-0.05 0.113,-0.101 0.113,-0.164 l 0,-0.058 c 0,-0.043 -0.023,-0.086 -0.07,-0.121 -0.047,-0.035 -0.09,-0.051 -0.129,-0.055 -0.027,0.004 -0.062,0.012 -0.105,0.023 l -6.274,2.899 z" /><path
       inkscape:connector-curvature="0"
       id="path9414"
       style="fill:#0000a0;fill-opacity:1;fill-rule:nonzero;stroke:none"
       d="m 37.412555,63.105584 c 0,0.156 0.024,0.301 0.074,0.426 l 0.911,2.422 c 0.089,0.242 0.14,0.472 0.152,0.683 0,0.231 -0.09,0.344 -0.27,0.348 -0.293,-0.004 -0.531,-0.148 -0.711,-0.441 -0.183,-0.297 -0.328,-0.641 -0.429,-1.028 -0.024,-0.058 -0.047,-0.086 -0.078,-0.082 l -0.133,0 c -0.059,-0.004 -0.086,0.035 -0.082,0.117 0.109,0.438 0.289,0.832 0.535,1.18 0.238,0.344 0.547,0.516 0.922,0.52 0.258,-0.004 0.472,-0.09 0.644,-0.262 0.172,-0.172 0.258,-0.387 0.262,-0.645 -0.004,-0.156 -0.027,-0.3 -0.074,-0.425 l -0.91,-2.418 c -0.106,-0.286 -0.157,-0.512 -0.157,-0.684 0,-0.23 0.09,-0.348 0.274,-0.344 0.199,-0.004 0.375,0.074 0.531,0.235 0.149,0.156 0.274,0.343 0.371,0.562 0.094,0.215 0.172,0.438 0.235,0.668 0.023,0.047 0.05,0.074 0.082,0.074 l 0.129,0 c 0.05,0 0.078,-0.039 0.082,-0.109 -0.063,-0.27 -0.157,-0.531 -0.282,-0.785 -0.129,-0.258 -0.293,-0.473 -0.496,-0.649 -0.203,-0.175 -0.433,-0.261 -0.691,-0.265 -0.258,0.004 -0.473,0.086 -0.637,0.258 -0.172,0.171 -0.254,0.386 -0.254,0.644 z m 1.274,5.996 c -0.004,0.153 0.054,0.285 0.175,0.399 0.118,0.113 0.254,0.171 0.411,0.171 0.109,0 0.203,-0.035 0.277,-0.101 0.07,-0.07 0.105,-0.164 0.109,-0.277 -0.004,-0.153 -0.062,-0.286 -0.179,-0.399 -0.122,-0.117 -0.254,-0.172 -0.399,-0.172 -0.109,0 -0.203,0.035 -0.277,0.106 -0.082,0.07 -0.121,0.16 -0.117,0.273 z" /><path
       inkscape:connector-curvature="0"
       id="path9416"
       style="fill:#007800;fill-opacity:1;fill-rule:nonzero;stroke:none"
       d="m 52.322555,60.371584 c 0.106,-0.051 0.243,-0.078 0.414,-0.082 0.321,0.004 0.598,0.148 0.832,0.437 0.231,0.293 0.391,0.617 0.477,0.965 l 1.066,4.258 c 0.051,0.203 0.079,0.383 0.079,0.539 0,0.129 -0.028,0.246 -0.075,0.344 -0.054,0.097 -0.14,0.144 -0.258,0.148 -0.339,-0.004 -0.625,-0.148 -0.859,-0.441 -0.238,-0.297 -0.437,-0.653 -0.601,-1.059 -0.016,-0.039 -0.04,-0.055 -0.067,-0.051 l -0.133,0 c -0.023,-0.004 -0.043,0.012 -0.058,0.047 -0.016,0.028 -0.024,0.051 -0.024,0.07 0.18,0.454 0.414,0.852 0.707,1.192 0.289,0.336 0.641,0.504 1.055,0.508 0.184,-0.004 0.355,-0.047 0.512,-0.133 0.156,-0.086 0.277,-0.207 0.363,-0.363 0.086,-0.157 0.129,-0.329 0.133,-0.508 -0.004,-0.117 -0.016,-0.227 -0.035,-0.328 l -1.067,-4.258 c -0.078,-0.301 -0.218,-0.578 -0.426,-0.824 -0.207,-0.246 -0.46,-0.442 -0.753,-0.59 -0.297,-0.145 -0.594,-0.219 -0.895,-0.219 -0.246,0 -0.465,0.055 -0.66,0.164 -0.195,0.109 -0.293,0.277 -0.293,0.496 0,0.168 0.055,0.313 0.172,0.434 0.109,0.125 0.254,0.183 0.426,0.183 0.109,0 0.203,-0.031 0.281,-0.097 0.078,-0.067 0.117,-0.157 0.117,-0.274 0,-0.125 -0.043,-0.242 -0.125,-0.351 -0.086,-0.102 -0.187,-0.172 -0.305,-0.207 z m 3.004,8.726 c -0.004,0.153 0.055,0.285 0.176,0.399 0.117,0.113 0.254,0.172 0.402,0.172 0.121,0 0.215,-0.036 0.289,-0.106 0.067,-0.07 0.102,-0.164 0.106,-0.273 -0.004,-0.098 -0.027,-0.188 -0.078,-0.274 -0.055,-0.09 -0.129,-0.16 -0.219,-0.215 -0.098,-0.054 -0.195,-0.082 -0.289,-0.082 -0.113,0 -0.203,0.036 -0.277,0.106 -0.075,0.07 -0.114,0.16 -0.11,0.273 z" /><g
       transform="matrix(1,0,0,-1,0,73.850651)"
       id="g9418"><path
         inkscape:connector-curvature="0"
         id="path9420"
         style="fill:none;stroke:#000000;stroke-width:0.63999999;stroke-linecap:butt;stroke-linejoin:miter;stroke-miterlimit:4;stroke-opacity:1;stroke-dasharray:none"
         d="M 58.926,18.863 C 56.184,17.57 56.703,17.723 55.617,17.289 42.957,12.23 32.625,18.758 32.625,18.758" /></g><path
       inkscape:connector-curvature="0"
       id="path9422"
       style="fill:#000000;fill-opacity:1;fill-rule:evenodd;stroke:none"
       d="m 56.559,57.815167 3.136,-3.183 -4.453,0.394 c 0.996,0.539 1.524,1.668 1.317,2.789 z" /></g></svg>