<svg version="1.1" viewBox="0.0 0.0 830.4383202099738 574.992125984252" fill="none" stroke="none" stroke-linecap="square" stroke-miterlimit="10" xmlns:xlink="http://www.w3.org/1999/xlink" xmlns="http://www.w3.org/2000/svg"><clipPath id="p.0"><path d="m0 0l830.4383 0l0 574.9921l-830.4383 0l0 -574.9921z" clip-rule="nonzero"/></clipPath><g clip-path="url(#p.0)"><path fill="#ffffff" d="m0 0l830.4383 0l0 574.9921l-830.4383 0z" fill-rule="evenodd"/><path fill="#000000" fill-opacity="0.0" d="m127.46982 95.15223l0 0c0 -13.681007 11.090652 -24.771652 24.771652 -24.771652l0 0c6.5698547 0 12.870621 2.6098633 17.516205 7.2554474c4.645584 4.6455917 7.2554474 10.946358 7.2554474 17.516205l0 0c0 13.681007 -11.090652 24.771652 -24.771652 24.771652l0 0c-13.681 0 -24.771652 -11.090645 -24.771652 -24.771652z" fill-rule="evenodd"/><path stroke="#000000" stroke-width="2.0" stroke-linejoin="round" stroke-linecap="butt" d="m127.46982 95.15223l0 0c0 -13.681007 11.090652 -24.771652 24.771652 -24.771652l0 0c6.5698547 0 12.870621 2.6098633 17.516205 7.2554474c4.645584 4.6455917 7.2554474 10.946358 7.2554474 17.516205l0 0c0 13.681007 -11.090652 24.771652 -24.771652 24.771652l0 0c-13.681 0 -24.771652 -11.090645 -24.771652 -24.771652z" fill-rule="evenodd"/><path fill="#000000" fill-opacity="0.0" d="m127.46982 205.21523l0 0c0 -13.681015 11.090652 -24.771652 24.771652 -24.771652l0 0c6.5698547 0 12.870621 2.6098633 17.516205 7.2554474c4.645584 4.645584 7.2554474 10.94635 7.2554474 17.516205l0 0c0 13.681 -11.090652 24.771652 -24.771652 24.771652l0 0c-13.681 0 -24.771652 -11.090652 -24.771652 -24.771652z" fill-rule="evenodd"/><path stroke="#000000" stroke-width="2.0" stroke-linejoin="round" stroke-linecap="butt" d="m127.46982 205.21523l0 0c0 -13.681015 11.090652 -24.771652 24.771652 -24.771652l0 0c6.5698547 0 12.870621 2.6098633 17.516205 7.2554474c4.645584 4.645584 7.2554474 10.94635 7.2554474 17.516205l0 0c0 13.681 -11.090652 24.771652 -24.771652 24.771652l0 0c-13.681 0 -24.771652 -11.090652 -24.771652 -24.771652z" fill-rule="evenodd"/><path fill="#000000" fill-opacity="0.0" d="m248.64091 205.21523l0 0c0 -13.681015 11.090652 -24.771652 24.771652 -24.771652l0 0c6.5698547 0 12.870636 2.6098633 17.516205 7.2554474c4.6455994 4.645584 7.2554626 10.94635 7.2554626 17.516205l0 0c0 13.681 -11.090668 24.771652 -24.771667 24.771652l0 0c-13.681 0 -24.771652 -11.090652 -24.771652 -24.771652z" fill-rule="evenodd"/><path stroke="#000000" stroke-width="2.0" stroke-linejoin="round" stroke-linecap="butt" d="m248.64091 205.21523l0 0c0 -13.681015 11.090652 -24.771652 24.771652 -24.771652l0 0c6.5698547 0 12.870636 2.6098633 17.516205 7.2554474c4.6455994 4.645584 7.2554626 10.94635 7.2554626 17.516205l0 0c0 13.681 -11.090668 24.771652 -24.771667 24.771652l0 0c-13.681 0 -24.771652 -11.090652 -24.771652 -24.771652z" fill-rule="evenodd"/><path fill="#000000" d="m271.56824 211.73709l0 -5.234375l-5.1875 0l0 -2.1875l5.1875 0l0 -5.203125l2.21875 0l0 5.203125l5.1875 0l0 2.1875l-5.1875 0l0 5.234375l-2.21875 0z" fill-rule="nonzero"/><path fill="#000000" fill-opacity="0.0" d="m169.75768 77.636024l-35.02362 35.02362" fill-rule="evenodd"/><path stroke="#000000" stroke-width="2.0" stroke-linejoin="round" stroke-linecap="butt" d="m169.75768 77.636024l-35.02362 35.02362" fill-rule="evenodd"/><path fill="#000000" fill-opacity="0.0" d="m134.72527 77.636024l35.02362 35.02362" fill-rule="evenodd"/><path stroke="#000000" stroke-width="2.0" stroke-linejoin="round" stroke-linecap="butt" d="m134.72527 77.636024l35.02362 35.02362" fill-rule="evenodd"/><path fill="#000000" fill-opacity="0.0" d="m127.46982 315.27823l0 0c0 -13.68103 11.090652 -24.771667 24.771652 -24.771667l0 0c6.5698547 0 12.870621 2.6098633 17.516205 7.2554626c4.645584 4.645569 7.2554474 10.94635 7.2554474 17.516205l0 0c0 13.681 -11.090652 24.771637 -24.771652 24.771637l0 0c-13.681 0 -24.771652 -11.090637 -24.771652 -24.771637z" fill-rule="evenodd"/><path stroke="#000000" stroke-width="2.0" stroke-linejoin="round" stroke-linecap="butt" d="m127.46982 315.27823l0 0c0 -13.68103 11.090652 -24.771667 24.771652 -24.771667l0 0c6.5698547 0 12.870621 2.6098633 17.516205 7.2554626c4.645584 4.645569 7.2554474 10.94635 7.2554474 17.516205l0 0c0 13.681 -11.090652 24.771637 -24.771652 24.771637l0 0c-13.681 0 -24.771652 -11.090637 -24.771652 -24.771637z" fill-rule="evenodd"/><path fill="#000000" fill-opacity="0.0" d="m169.75768 297.76202l-35.02362 35.02362" fill-rule="evenodd"/><path stroke="#000000" stroke-width="2.0" stroke-linejoin="round" stroke-linecap="butt" d="m169.75768 297.76202l-35.02362 35.02362" fill-rule="evenodd"/><path fill="#000000" fill-opacity="0.0" d="m134.72527 297.76202l35.02362 35.02362" fill-rule="evenodd"/><path stroke="#000000" stroke-width="2.0" stroke-linejoin="round" stroke-linecap="butt" d="m134.72527 297.76202l35.02362 35.02362" fill-rule="evenodd"/><path fill="#000000" fill-opacity="0.0" d="m130.13675 185.04196l59.62204 0l0.03149414 40.34645l-59.62204 0z" fill-rule="evenodd"/><path fill="#000000" d="m140.59526 211.96196l-0.010345459 -13.25l2.6875 0l0.008590698 11.0l6.703125 0l0.0017547607 2.25l-9.390625 0zm10.765823 -6.59375q-0.0015869141 -2.046875 0.6067047 -3.421875q0.45233154 -1.03125 1.2329559 -1.828125q0.79623413 -0.8125 1.733429 -1.203125q1.249588 -0.53125 2.874588 -0.53125q2.953125 0 4.7201843 1.828125q1.7826691 1.828125 1.7852173 5.09375q0.002532959 3.234375 -1.761673 5.0625q-1.7485657 1.828125 -4.6860657 1.828125q-2.984375 0 -4.751419 -1.8125q-1.7514343 -1.828125 -1.7539215 -5.015625zm2.781189 -0.09375q0.0017700195 2.265625 1.0495453 3.4375q1.0477905 1.171875 2.6571655 1.171875q1.609375 0 2.6397247 -1.15625q1.0459595 -1.171875 1.0441589 -3.484375q-0.0018005371 -2.296875 -1.0182953 -3.421875q-1.000885 -1.140625 -2.67276 -1.140625q-1.671875 0 -2.6865997 1.15625q-1.01474 1.140625 -1.0129395 3.4375z" fill-rule="nonzero"/><path fill="#000000" fill-opacity="0.0" d="m152.24147 180.45932l0 -60.53544" fill-rule="evenodd"/><path stroke="#000000" stroke-width="2.0" stroke-linejoin="round" stroke-linecap="butt" d="m152.24147 180.45932l0 -48.53543" fill-rule="evenodd"/><path fill="#000000" stroke="#000000" stroke-width="2.0" stroke-linecap="butt" d="m155.54494 131.92389l-3.3034668 -9.076202l-3.3034668 9.076202z" fill-rule="evenodd"/><path fill="#000000" fill-opacity="0.0" d="m152.24147 229.97113l0 60.53543" fill-rule="evenodd"/><path stroke="#000000" stroke-width="2.0" stroke-linejoin="round" stroke-linecap="butt" d="m152.24147 229.97113l0 48.53543" fill-rule="evenodd"/><path fill="#000000" stroke="#000000" stroke-width="2.0" stroke-linecap="butt" d="m148.938 278.50656l3.3034668 9.076202l3.3034668 -9.076202z" fill-rule="evenodd"/><path fill="#000000" fill-opacity="0.0" d="m177.01312 95.15223l97.19684 0" fill-rule="evenodd"/><path stroke="#000000" stroke-width="2.0" stroke-linejoin="round" stroke-linecap="butt" d="m177.01312 95.15223l97.19684 0" fill-rule="evenodd"/><path fill="#000000" fill-opacity="0.0" d="m273.41257 95.15223l0 84.37795" fill-rule="evenodd"/><path stroke="#000000" stroke-width="2.0" stroke-linejoin="round" stroke-linecap="butt" d="m273.41257 95.15223l0 72.37795" fill-rule="evenodd"/><path fill="#000000" stroke="#000000" stroke-width="2.0" stroke-linecap="butt" d="m270.1091 167.53018l3.3034668 9.076202l3.3034668 -9.076202z" fill-rule="evenodd"/><path fill="#000000" fill-opacity="0.0" d="m273.41208 314.36484l0 -84.37796" fill-rule="evenodd"/><path stroke="#000000" stroke-width="2.0" stroke-linejoin="round" stroke-linecap="butt" d="m273.41208 314.36484l0 -72.37796" fill-rule="evenodd"/><path fill="#000000" stroke="#000000" stroke-width="2.0" stroke-linecap="butt" d="m276.71555 241.98688l-3.3034668 -9.076202l-3.3034668 9.076202z" fill-rule="evenodd"/><path fill="#000000" fill-opacity="0.0" d="m154.7664 132.30971l44.409454 0l0 40.346466l-44.409454 0z" fill-rule="evenodd"/><path fill="#000000" d="m168.8914 145.82346q1.9375 0 3.03125 1.375q1.296875 1.640625 1.296875 5.4375q0 3.796875 -1.3125 5.453125q-1.078125 1.375 -3.015625 1.375q-1.953125 0 -3.15625 -1.5q-1.1875 -1.5 -1.1875 -5.34375q0 -3.78125 1.3125 -5.4375q1.078125 -1.359375 3.03125 -1.359375zm0 2.125q-0.46875 0 -0.84375 0.296875q-0.359375 0.296875 -0.5625 1.0625q-0.25 0.984375 -0.25 3.328125q0 2.359375 0.234375 3.234375q0.234375 0.875 0.59375 1.171875q0.359375 0.296875 0.828125 0.296875q0.453125 0 0.8125 -0.296875q0.375 -0.296875 0.578125 -1.0625q0.265625 -0.984375 0.265625 -3.34375q0 -2.34375 -0.25 -3.21875q-0.234375 -0.875 -0.59375 -1.171875q-0.359375 -0.296875 -0.8125 -0.296875zm6.031967 0.609375q0 -1.21875 0.84375 -2.0625q0.859375 -0.84375 2.0625 -0.84375q1.203125 0 2.046875 0.859375q0.859375 0.84375 0.859375 2.046875q0 1.203125 -0.859375 2.0625q-0.84375 0.84375 -2.046875 0.84375q-1.203125 0 -2.0625 -0.84375q-0.84375 -0.859375 -0.84375 -2.0625zm1.515625 0q0 0.5625 0.40625 0.984375q0.40625 0.40625 0.984375 0.40625q0.578125 0 0.984375 -0.40625q0.40625 -0.421875 0.40625 -0.984375q0 -0.578125 -0.40625 -0.984375q-0.40625 -0.40625 -0.984375 -0.40625q-0.578125 0 -0.984375 0.40625q-0.40625 0.40625 -0.40625 0.984375z" fill-rule="nonzero"/><path fill="#000000" fill-opacity="0.0" d="m152.24147 229.97113l73.6378 0l0 40.346466l-73.6378 0z" fill-rule="evenodd"/><path fill="#000000" d="m165.5071 254.96925l0 -3.46875l-3.484375 0l0 -2.390625l3.484375 0l0 -3.484375l2.34375 0l0 3.484375l3.5 0l0 2.390625l-3.5 0l0 3.46875l-2.34375 0zm12.656387 -1.171875l2.484375 -0.265625q0.09375 0.75 0.46875 1.125q0.390625 0.359375 1.015625 0.359375q0.796875 0 1.34375 -0.71875q0.5625 -0.734375 0.71875 -3.03125q-0.96875 1.109375 -2.421875 1.109375q-1.578125 0 -2.71875 -1.203125q-1.140625 -1.21875 -1.140625 -3.171875q0 -2.03125 1.203125 -3.265625q1.203125 -1.25 3.078125 -1.25q2.03125 0 3.328125 1.578125q1.3125 1.5625 1.3125 5.15625q0 3.671875 -1.359375 5.296875q-1.359375 1.6093597 -3.53125 1.6093597q-1.578125 0 -2.546875 -0.828125q-0.953125 -0.84373474 -1.234375 -2.4999847zm5.796875 -5.59375q0 -1.234375 -0.578125 -1.90625q-0.5625 -0.6875 -1.3125 -0.6875q-0.703125 0 -1.171875 0.5625q-0.46875 0.546875 -0.46875 1.828125q0 1.296875 0.5 1.90625q0.515625 0.59375 1.28125 0.59375q0.734375 0 1.234375 -0.578125q0.515625 -0.578125 0.515625 -1.71875zm8.860092 -4.71875q1.9375 0 3.03125 1.375q1.296875 1.640625 1.296875 5.4375q0 3.796875 -1.3125 5.453125q-1.078125 1.3749847 -3.015625 1.3749847q-1.953125 0 -3.15625 -1.4999847q-1.1875 -1.5 -1.1875 -5.34375q0 -3.78125 1.3125 -5.4375q1.078125 -1.359375 3.03125 -1.359375zm0 2.125q-0.46875 0 -0.84375 0.296875q-0.359375 0.296875 -0.5625 1.0625q-0.25 0.984375 -0.25 3.328125q0 2.359375 0.234375 3.234375q0.234375 0.875 0.59375 1.171875q0.359375 0.296875 0.828125 0.296875q0.453125 0 0.8125 -0.296875q0.375 -0.296875 0.578125 -1.0625q0.265625 -0.984375 0.265625 -3.34375q0 -2.34375 -0.25 -3.21875q-0.234375 -0.875 -0.59375 -1.171875q-0.359375 -0.296875 -0.8125 -0.296875zm6.031967 0.609375q0 -1.21875 0.84375 -2.0625q0.859375 -0.84375 2.0625 -0.84375q1.203125 0 2.046875 0.859375q0.859375 0.84375 0.859375 2.046875q0 1.203125 -0.859375 2.0625q-0.84375 0.84375 -2.046875 0.84375q-1.203125 0 -2.0625 -0.84375q-0.84375 -0.859375 -0.84375 -2.0625zm1.515625 0q0 0.5625 0.40625 0.984375q0.40625 0.40625 0.984375 0.40625q0.578125 0 0.984375 -0.40625q0.40625 -0.421875 0.40625 -0.984375q0 -0.578125 -0.40625 -0.984375q-0.40625 -0.40625 -0.984375 -0.40625q-0.578125 0 -0.984375 0.40625q-0.40625 0.40625 -0.40625 0.984375z" fill-rule="nonzero"/><path fill="#000000" fill-opacity="0.0" d="m298.18423 205.21523l55.93701 0" fill-rule="evenodd"/><path stroke="#000000" stroke-width="2.0" stroke-linejoin="round" stroke-linecap="butt" d="m298.1842 205.21523l43.93701 0" fill-rule="evenodd"/><path fill="#000000" stroke="#000000" stroke-width="2.0" stroke-linecap="butt" d="m342.12122 208.51869l9.076202 -3.3034668l-9.076202 -3.3034668z" fill-rule="evenodd"/><path fill="#000000" fill-opacity="0.0" d="m71.52231 95.15223l55.93701 0" fill-rule="evenodd"/><path stroke="#000000" stroke-width="2.0" stroke-linejoin="round" stroke-linecap="butt" d="m71.52231 95.15223l43.93701 0" fill-rule="evenodd"/><path fill="#000000" stroke="#000000" stroke-width="2.0" stroke-linecap="butt" d="m115.45932 98.455696l9.076195 -3.3034668l-9.076195 -3.3034668z" fill-rule="evenodd"/><path fill="#000000" fill-opacity="0.0" d="m71.52231 315.27298l55.93701 0" fill-rule="evenodd"/><path stroke="#000000" stroke-width="2.0" stroke-linejoin="round" stroke-linecap="butt" d="m71.52231 315.27298l43.93701 0" fill-rule="evenodd"/><path fill="#000000" stroke="#000000" stroke-width="2.0" stroke-linecap="butt" d="m115.45932 318.57642l9.076195 -3.3034363l-9.076195 -3.3034668z" fill-rule="evenodd"/><path fill="#000000" fill-opacity="0.0" d="m177.01312 315.27298l97.19684 0" fill-rule="evenodd"/><path stroke="#000000" stroke-width="2.0" stroke-linejoin="round" stroke-linecap="butt" d="m177.01312 315.27298l97.19684 0" fill-rule="evenodd"/><path fill="#000000" fill-opacity="0.0" d="m348.5758 184.95157l44.409454 0l0 35.02362l-44.409454 0z" fill-rule="evenodd"/><path fill="#000000" d="m358.85706 211.87157l0 -13.359375l2.6875 0l0 13.359375l-2.6875 0zm5.277069 0l0 -13.359375l9.15625 0l0 2.265625l-6.453125 0l0 3.15625l5.5625 0l0 2.265625l-5.5625 0l0 5.671875l-2.703125 0z" fill-rule="nonzero"/><path fill="#000000" fill-opacity="0.0" d="m36.356956 72.61155l44.409447 0l0 45.07086l-44.409447 0z" fill-rule="evenodd"/><path fill="#000000" d="m46.638206 99.53155l0 -13.359375l2.6875 0l0 13.359375l-2.6875 0zm9.480179 3.921875l-1.75 0q-1.390625 -2.09375 -2.125 -4.359375q-0.734375 -2.28125 -0.734375 -4.40625q0 -2.625 0.90625 -4.96875q0.78125 -2.046875 1.984375 -3.765625l1.75 0q-1.25 2.75 -1.71875 4.6875q-0.46875 1.9375 -0.46875 4.109375q0 1.5 0.28125 3.0625q0.28125 1.5625 0.765625 2.96875q0.3125 0.9375 1.109375 2.671875zm6.415802 -13.59375l0 2.03125l-1.75 0l0 3.90625q0 1.1875 0.046875 1.390625q0.046875 0.1875 0.21875 0.3125q0.1875 0.125 0.4375 0.125q0.359375 0 1.03125 -0.25l0.21875 2.0q-0.890625 0.375 -2.015625 0.375q-0.703125 0 -1.265625 -0.234375q-0.546875 -0.234375 -0.8125 -0.59375q-0.25 -0.375 -0.34375 -1.0q-0.09375 -0.453125 -0.09375 -1.8125l0 -4.21875l-1.171875 0l0 -2.03125l1.171875 0l0 -1.921875l2.578125 -1.5l0 3.421875l1.75 0zm1.056427 13.59375q0.765625 -1.609375 1.0625 -2.484375q0.3125 -0.859375 0.578125 -1.984375q0.265625 -1.140625 0.390625 -2.15625q0.125 -1.015625 0.125 -2.078125q0 -2.171875 -0.46875 -4.109375q-0.453125 -1.9375 -1.703125 -4.6875l1.734375 0q1.375 1.953125 2.140625 4.15625q0.765625 2.1875 0.765625 4.453125q0 1.90625 -0.609375 4.078125q-0.671875 2.4375 -2.25 4.8125l-1.765625 0z" fill-rule="nonzero"/><path fill="#000000" fill-opacity="0.0" d="m24.829397 292.73752l55.937004 0l0 45.070892l-55.937004 0z" fill-rule="evenodd"/><path fill="#000000" d="m45.93877 317.97003q0.984375 0.703125 2.15625 1.125l-1.0 1.90625q-0.609375 -0.1875 -1.1875 -0.5q-0.125 -0.0625 -1.796875 -1.1875q-1.3125 0.578125 -2.90625 0.578125q-3.078125 0 -4.828125 -1.8125q-1.734375 -1.8125 -1.734375 -5.09375q0 -3.28125 1.75 -5.09375q1.75 -1.8125 4.75 -1.8125q2.96875 0 4.703125 1.8125q1.734375 1.8125 1.734375 5.09375q0 1.71875 -0.484375 3.03125q-0.359375 1.015625 -1.15625 1.953125zm-2.171875 -1.53125q0.515625 -0.609375 0.78125 -1.46875q0.265625 -0.875 0.265625 -1.984375q0 -2.3125 -1.03125 -3.453125q-1.015625 -1.15625 -2.671875 -1.15625q-1.640625 0 -2.671875 1.15625q-1.015625 1.140625 -1.015625 3.453125q0 2.328125 1.015625 3.5q1.03125 1.15625 2.59375 1.15625q0.578125 0 1.109375 -0.1875q-0.828125 -0.53125 -1.671875 -0.84375l0.75 -1.53125q1.34375 0.453125 2.546875 1.359375zm10.152054 7.140625l-1.75 0q-1.390625 -2.09375 -2.125 -4.359375q-0.734375 -2.28125 -0.734375 -4.40625q0 -2.625 0.90625 -4.96875q0.78125 -2.046875 1.984375 -3.765625l1.75 0q-1.25 2.75 -1.71875 4.6875q-0.46875 1.9375 -0.46875 4.109375q0 1.5 0.28125 3.0625q0.28125 1.5625 0.765625 2.96875q0.3125 0.9375 1.109375 2.671875zm6.415802 -13.59375l0 2.03125l-1.75 0l0 3.90625q0 1.1875 0.046875 1.390625q0.046875 0.1875 0.21875 0.3125q0.1875 0.125 0.4375 0.125q0.359375 0 1.03125 -0.25l0.21875 2.0q-0.890625 0.375 -2.015625 0.375q-0.703125 0 -1.265625 -0.234375q-0.546875 -0.234375 -0.8125 -0.59375q-0.25 -0.375 -0.34375 -1.0q-0.09375 -0.453125 -0.09375 -1.8125l0 -4.21875l-1.171875 0l0 -2.03125l1.171875 0l0 -1.921875l2.578125 -1.5l0 3.421875l1.75 0zm1.056427 13.59375q0.765625 -1.609375 1.0625 -2.484375q0.3125 -0.859375 0.578125 -1.984375q0.265625 -1.140625 0.390625 -2.15625q0.125 -1.015625 0.125 -2.078125q0 -2.171875 -0.46875 -4.109375q-0.453125 -1.9375 -1.703125 -4.6875l1.734375 0q1.3750038 1.953125 2.1406288 4.15625q0.765625 2.1875 0.765625 4.453125q0 1.90625 -0.609375 4.078125q-0.671875 2.4375 -2.2500038 4.8125l-1.765625 0z" fill-rule="nonzero"/><path fill="#000000" fill-opacity="0.0" d="m708.105 95.15223l0 0c0 -13.681007 -11.090637 -24.771652 -24.771667 -24.771652l0 0c-6.569824 0 -12.870605 2.6098633 -17.516174 7.2554474c-4.645569 4.6455917 -7.255432 10.946358 -7.255432 17.516205l0 0c0 13.681007 11.090637 24.771652 24.771606 24.771652l0 0c13.68103 0 24.771667 -11.090645 24.771667 -24.771652z" fill-rule="evenodd"/><path stroke="#000000" stroke-width="2.0" stroke-linejoin="round" stroke-linecap="butt" d="m708.105 95.15223l0 0c0 -13.681007 -11.090637 -24.771652 -24.771667 -24.771652l0 0c-6.569824 0 -12.870605 2.6098633 -17.516174 7.2554474c-4.645569 4.6455917 -7.255432 10.946358 -7.255432 17.516205l0 0c0 13.681007 11.090637 24.771652 24.771606 24.771652l0 0c13.68103 0 24.771667 -11.090645 24.771667 -24.771652z" fill-rule="evenodd"/><path fill="#000000" fill-opacity="0.0" d="m708.105 205.21523l0 0c0 -13.681015 -11.090637 -24.771652 -24.771667 -24.771652l0 0c-6.569824 0 -12.870605 2.6098633 -17.516174 7.2554474c-4.645569 4.645584 -7.255432 10.94635 -7.255432 17.516205l0 0c0 13.681 11.090637 24.771652 24.771606 24.771652l0 0c13.68103 0 24.771667 -11.090652 24.771667 -24.771652z" fill-rule="evenodd"/><path stroke="#000000" stroke-width="2.0" stroke-linejoin="round" stroke-linecap="butt" d="m708.105 205.21523l0 0c0 -13.681015 -11.090637 -24.771652 -24.771667 -24.771652l0 0c-6.569824 0 -12.870605 2.6098633 -17.516174 7.2554474c-4.645569 4.645584 -7.255432 10.94635 -7.255432 17.516205l0 0c0 13.681 11.090637 24.771652 24.771606 24.771652l0 0c13.68103 0 24.771667 -11.090652 24.771667 -24.771652z" fill-rule="evenodd"/><path fill="#000000" fill-opacity="0.0" d="m586.9339 205.21523l0 0c0 -13.681015 -11.090637 -24.771652 -24.771667 -24.771652l0 0c-6.569824 0 -12.870605 2.6098633 -17.516235 7.2554474c-4.645569 4.645584 -7.255432 10.94635 -7.255432 17.516205l0 0c0 13.681 11.090637 24.771652 24.771667 24.771652l0 0c13.68103 0 24.771667 -11.090652 24.771667 -24.771652z" fill-rule="evenodd"/><path stroke="#000000" stroke-width="2.0" stroke-linejoin="round" stroke-linecap="butt" d="m586.9339 205.21523l0 0c0 -13.681015 -11.090637 -24.771652 -24.771667 -24.771652l0 0c-6.569824 0 -12.870605 2.6098633 -17.516235 7.2554474c-4.645569 4.645584 -7.255432 10.94635 -7.255432 17.516205l0 0c0 13.681 11.090637 24.771652 24.771667 24.771652l0 0c13.68103 0 24.771667 -11.090652 24.771667 -24.771652z" fill-rule="evenodd"/><path fill="#000000" d="m560.3179 211.73709l0 -5.234375l-5.1875 0l0 -2.1875l5.1875 0l0 -5.203125l2.21875 0l0 5.203125l5.1875 0l0 2.1875l-5.1875 0l0 5.234375l-2.21875 0z" fill-rule="nonzero"/><path fill="#000000" fill-opacity="0.0" d="m665.81714 77.636024l35.02362 35.02362" fill-rule="evenodd"/><path stroke="#000000" stroke-width="2.0" stroke-linejoin="round" stroke-linecap="butt" d="m665.81714 77.636024l35.02362 35.02362" fill-rule="evenodd"/><path fill="#000000" fill-opacity="0.0" d="m700.84955 77.636024l-35.02362 35.02362" fill-rule="evenodd"/><path stroke="#000000" stroke-width="2.0" stroke-linejoin="round" stroke-linecap="butt" d="m700.84955 77.636024l-35.02362 35.02362" fill-rule="evenodd"/><path fill="#000000" fill-opacity="0.0" d="m708.105 315.27823l0 0c0 -13.68103 -11.090637 -24.771667 -24.771667 -24.771667l0 0c-6.569824 0 -12.870605 2.6098633 -17.516174 7.2554626c-4.645569 4.645569 -7.255432 10.94635 -7.255432 17.516205l0 0c0 13.681 11.090637 24.771637 24.771606 24.771637l0 0c13.68103 0 24.771667 -11.090637 24.771667 -24.771637z" fill-rule="evenodd"/><path stroke="#000000" stroke-width="2.0" stroke-linejoin="round" stroke-linecap="butt" d="m708.105 315.27823l0 0c0 -13.68103 -11.090637 -24.771667 -24.771667 -24.771667l0 0c-6.569824 0 -12.870605 2.6098633 -17.516174 7.2554626c-4.645569 4.645569 -7.255432 10.94635 -7.255432 17.516205l0 0c0 13.681 11.090637 24.771637 24.771606 24.771637l0 0c13.68103 0 24.771667 -11.090637 24.771667 -24.771637z" fill-rule="evenodd"/><path fill="#000000" fill-opacity="0.0" d="m665.81714 297.76202l35.02362 35.02362" fill-rule="evenodd"/><path stroke="#000000" stroke-width="2.0" stroke-linejoin="round" stroke-linecap="butt" d="m665.81714 297.76202l35.02362 35.02362" fill-rule="evenodd"/><path fill="#000000" fill-opacity="0.0" d="m700.84955 297.76202l-35.02362 35.02362" fill-rule="evenodd"/><path stroke="#000000" stroke-width="2.0" stroke-linejoin="round" stroke-linecap="butt" d="m700.84955 297.76202l-35.02362 35.02362" fill-rule="evenodd"/><path fill="#000000" fill-opacity="0.0" d="m721.43805 185.04196l-59.62201 0l-0.03149414 40.34645l59.62201 0z" fill-rule="evenodd"/><path fill="#000000" d="m672.2325 211.96196l0.010375977 -13.25l2.6875 0l-0.008605957 11.0l6.703125 0l-0.0017700195 2.25l-9.390625 0zm10.776123 -6.59375q0.0016479492 -2.046875 0.61206055 -3.421875q0.45391846 -1.03125 1.2358398 -1.828125q0.79748535 -0.8125 1.7352905 -1.203125q1.2504272 -0.53125 2.8754272 -0.53125q2.953125 0 4.717285 1.828125q1.7798462 1.828125 1.7772827 5.09375q-0.0025024414 3.234375 -1.7695923 5.0625q-1.7514038 1.828125 -4.688904 1.828125q-2.984375 0 -4.748596 -1.8125q-1.7485352 -1.828125 -1.7460938 -5.015625zm2.781372 -0.09375q-0.0017700195 2.265625 1.0441895 3.4375q1.0459595 1.171875 2.6553345 1.171875q1.609375 0 2.6414795 -1.15625q1.0477905 -1.171875 1.0496216 -3.484375q0.0017700195 -2.296875 -1.0129395 -3.421875q-0.9991455 -1.140625 -2.6710205 -1.140625q-1.671875 0 -2.6883545 1.15625q-1.0165405 1.140625 -1.0183105 3.4375z" fill-rule="nonzero"/><path fill="#000000" fill-opacity="0.0" d="m683.3333 180.45932l0 -60.53544" fill-rule="evenodd"/><path stroke="#000000" stroke-width="2.0" stroke-linejoin="round" stroke-linecap="butt" d="m683.3333 180.45932l0 -48.53543" fill-rule="evenodd"/><path fill="#000000" stroke="#000000" stroke-width="2.0" stroke-linecap="butt" d="m686.6368 131.92389l-3.3034668 -9.076202l-3.3034668 9.076202z" fill-rule="evenodd"/><path fill="#000000" fill-opacity="0.0" d="m683.3333 229.97113l0 60.53543" fill-rule="evenodd"/><path stroke="#000000" stroke-width="2.0" stroke-linejoin="round" stroke-linecap="butt" d="m683.3333 229.97113l0 48.53543" fill-rule="evenodd"/><path fill="#000000" stroke="#000000" stroke-width="2.0" stroke-linecap="butt" d="m680.02985 278.50656l3.3034668 9.076202l3.3034668 -9.076202z" fill-rule="evenodd"/><path fill="#000000" fill-opacity="0.0" d="m737.6247 136.90814l-49.543335 0l0 40.34645l49.543335 0z" fill-rule="evenodd"/><path fill="#000000" d="m702.20636 150.42189q1.9375 0 3.03125 1.375q1.296875 1.640625 1.296875 5.4375q0 3.796875 -1.3125 5.453125q-1.078125 1.375 -3.015625 1.375q-1.953125 0 -3.15625 -1.5q-1.1875 -1.5 -1.1875 -5.34375q0 -3.78125 1.3125 -5.4375q1.078125 -1.359375 3.03125 -1.359375zm0 2.125q-0.46875 0 -0.84375 0.296875q-0.359375 0.296875 -0.5625 1.0625q-0.25 0.984375 -0.25 3.328125q0 2.359375 0.234375 3.234375q0.234375 0.875 0.59375 1.171875q0.359375 0.296875 0.828125 0.296875q0.453125 0 0.8125 -0.296875q0.375 -0.296875 0.578125 -1.0625q0.265625 -0.984375 0.265625 -3.34375q0 -2.34375 -0.25 -3.21875q-0.234375 -0.875 -0.59375 -1.171875q-0.359375 -0.296875 -0.8125 -0.296875zm6.0319824 0.609375q0 -1.21875 0.84375 -2.0625q0.859375 -0.84375 2.0625 -0.84375q1.203125 0 2.046875 0.859375q0.859375 0.84375 0.859375 2.046875q0 1.203125 -0.859375 2.0625q-0.84375 0.84375 -2.046875 0.84375q-1.203125 0 -2.0625 -0.84375q-0.84375 -0.859375 -0.84375 -2.0625zm1.515625 0q0 0.5625 0.40625 0.984375q0.40625 0.40625 0.984375 0.40625q0.578125 0 0.984375 -0.40625q0.40625 -0.421875 0.40625 -0.984375q0 -0.578125 -0.40625 -0.984375q-0.40625 -0.40625 -0.984375 -0.40625q-0.578125 0 -0.984375 0.40625q-0.40625 0.40625 -0.40625 0.984375z" fill-rule="nonzero"/><path fill="#000000" fill-opacity="0.0" d="m754.4593 229.97113l-73.63776 0l0 40.346466l73.63776 0z" fill-rule="evenodd"/><path fill="#000000" d="m694.08716 254.96925l0 -3.46875l-3.484375 0l0 -2.390625l3.484375 0l0 -3.484375l2.34375 0l0 3.484375l3.5 0l0 2.390625l-3.5 0l0 3.46875l-2.34375 0zm12.656372 -1.171875l2.484375 -0.265625q0.09375 0.75 0.46875 1.125q0.390625 0.359375 1.015625 0.359375q0.796875 0 1.34375 -0.71875q0.5625 -0.734375 0.71875 -3.03125q-0.96875 1.109375 -2.421875 1.109375q-1.578125 0 -2.71875 -1.203125q-1.140625 -1.21875 -1.140625 -3.171875q0 -2.03125 1.203125 -3.265625q1.203125 -1.25 3.078125 -1.25q2.03125 0 3.328125 1.578125q1.3125 1.5625 1.3125 5.15625q0 3.671875 -1.359375 5.296875q-1.359375 1.6093597 -3.53125 1.6093597q-1.578125 0 -2.546875 -0.828125q-0.953125 -0.84373474 -1.234375 -2.4999847zm5.796875 -5.59375q0 -1.234375 -0.578125 -1.90625q-0.5625 -0.6875 -1.3125 -0.6875q-0.703125 0 -1.171875 0.5625q-0.46875 0.546875 -0.46875 1.828125q0 1.296875 0.5 1.90625q0.515625 0.59375 1.28125 0.59375q0.734375 0 1.234375 -0.578125q0.515625 -0.578125 0.515625 -1.71875zm8.860107 -4.71875q1.9375 0 3.03125 1.375q1.296875 1.640625 1.296875 5.4375q0 3.796875 -1.3125 5.453125q-1.078125 1.3749847 -3.015625 1.3749847q-1.953125 0 -3.15625 -1.4999847q-1.1875 -1.5 -1.1875 -5.34375q0 -3.78125 1.3125 -5.4375q1.078125 -1.359375 3.03125 -1.359375zm0 2.125q-0.46875 0 -0.84375 0.296875q-0.359375 0.296875 -0.5625 1.0625q-0.25 0.984375 -0.25 3.328125q0 2.359375 0.234375 3.234375q0.234375 0.875 0.59375 1.171875q0.359375 0.296875 0.828125 0.296875q0.453125 0 0.8125 -0.296875q0.375 -0.296875 0.578125 -1.0625q0.265625 -0.984375 0.265625 -3.34375q0 -2.34375 -0.25 -3.21875q-0.234375 -0.875 -0.59375 -1.171875q-0.359375 -0.296875 -0.8125 -0.296875zm6.0319824 0.609375q0 -1.21875 0.84375 -2.0625q0.859375 -0.84375 2.0625 -0.84375q1.203125 0 2.046875 0.859375q0.859375 0.84375 0.859375 2.046875q0 1.203125 -0.859375 2.0625q-0.84375 0.84375 -2.046875 0.84375q-1.203125 0 -2.0625 -0.84375q-0.84375 -0.859375 -0.84375 -2.0625zm1.515625 0q0 0.5625 0.40625 0.984375q0.40625 0.40625 0.984375 0.40625q0.578125 0 0.984375 -0.40625q0.40625 -0.421875 0.40625 -0.984375q0 -0.578125 -0.40625 -0.984375q-0.40625 -0.40625 -0.984375 -0.40625q-0.578125 0 -0.984375 0.40625q-0.40625 0.40625 -0.40625 0.984375z" fill-rule="nonzero"/><path fill="#000000" fill-opacity="0.0" d="m481.45355 205.21523l55.93701 0" fill-rule="evenodd"/><path stroke="#000000" stroke-width="2.0" stroke-linejoin="round" stroke-linecap="butt" d="m481.45358 205.21523l43.93698 0" fill-rule="evenodd"/><path fill="#000000" stroke="#000000" stroke-width="2.0" stroke-linecap="butt" d="m525.39056 208.51869l9.076233 -3.3034668l-9.076233 -3.3034668z" fill-rule="evenodd"/><path fill="#000000" fill-opacity="0.0" d="m708.1155 95.15748l55.93701 0" fill-rule="evenodd"/><path stroke="#000000" stroke-width="2.0" stroke-linejoin="round" stroke-linecap="butt" d="m708.1155 95.15748l43.93701 0" fill-rule="evenodd"/><path fill="#000000" stroke="#000000" stroke-width="2.0" stroke-linecap="butt" d="m752.0525 98.460945l9.076172 -3.3034668l-9.076172 -3.3034592z" fill-rule="evenodd"/><path fill="#000000" fill-opacity="0.0" d="m708.1155 315.27298l55.93701 0" fill-rule="evenodd"/><path stroke="#000000" stroke-width="2.0" stroke-linejoin="round" stroke-linecap="butt" d="m708.1155 315.27298l43.93701 0" fill-rule="evenodd"/><path fill="#000000" stroke="#000000" stroke-width="2.0" stroke-linecap="butt" d="m752.0525 318.57642l9.076172 -3.3034363l-9.076172 -3.3034668z" fill-rule="evenodd"/><path fill="#000000" fill-opacity="0.0" d="m799.21783 72.61155l-44.409424 0l0 45.07086l44.409424 0z" fill-rule="evenodd"/><path fill="#000000" d="m765.08966 99.53155l0 -13.359375l2.6875 0l0 13.359375l-2.6875 0zm9.480164 3.921875l-1.75 0q-1.390625 -2.09375 -2.125 -4.359375q-0.734375 -2.28125 -0.734375 -4.40625q0 -2.625 0.90625 -4.96875q0.78125 -2.046875 1.984375 -3.765625l1.75 0q-1.25 2.75 -1.71875 4.6875q-0.46875 1.9375 -0.46875 4.109375q0 1.5 0.28125 3.0625q0.28125 1.5625 0.765625 2.96875q0.3125 0.9375 1.109375 2.671875zm6.4158325 -13.59375l0 2.03125l-1.75 0l0 3.90625q0 1.1875 0.046875 1.390625q0.046875 0.1875 0.21875 0.3125q0.1875 0.125 0.4375 0.125q0.359375 0 1.03125 -0.25l0.21875 2.0q-0.890625 0.375 -2.015625 0.375q-0.703125 0 -1.265625 -0.234375q-0.546875 -0.234375 -0.8125 -0.59375q-0.25 -0.375 -0.34375 -1.0q-0.09375 -0.453125 -0.09375 -1.8125l0 -4.21875l-1.171875 0l0 -2.03125l1.171875 0l0 -1.921875l2.578125 -1.5l0 3.421875l1.75 0zm1.0563965 13.59375q0.765625 -1.609375 1.0625 -2.484375q0.3125 -0.859375 0.578125 -1.984375q0.265625 -1.140625 0.390625 -2.15625q0.125 -1.015625 0.125 -2.078125q0 -2.171875 -0.46875 -4.109375q-0.453125 -1.9375 -1.703125 -4.6875l1.734375 0q1.375 1.953125 2.140625 4.15625q0.765625 2.1875 0.765625 4.453125q0 1.90625 -0.609375 4.078125q-0.671875 2.4375 -2.25 4.8125l-1.765625 0z" fill-rule="nonzero"/><path fill="#000000" fill-opacity="0.0" d="m494.77457 184.03438l-44.409454 0l0 35.02362l44.409454 0z" fill-rule="evenodd"/><path fill="#000000" d="m460.64636 210.95438l0 -13.359375l2.6875 0l0 13.359375l-2.6875 0zm5.277069 0l0 -13.359375l9.15625 0l0 2.265625l-6.453125 0l0 3.15625l5.5625 0l0 2.265625l-5.5625 0l0 5.671875l-2.703125 0z" fill-rule="nonzero"/><path fill="#000000" fill-opacity="0.0" d="m810.7454 292.73752l-55.93701 0l0 45.070892l55.93701 0z" fill-rule="evenodd"/><path fill="#000000" d="m775.9178 317.97003q0.984375 0.703125 2.15625 1.125l-1.0 1.90625q-0.609375 -0.1875 -1.1875 -0.5q-0.125 -0.0625 -1.796875 -1.1875q-1.3125 0.578125 -2.90625 0.578125q-3.078125 0 -4.828125 -1.8125q-1.734375 -1.8125 -1.734375 -5.09375q0 -3.28125 1.75 -5.09375q1.75 -1.8125 4.75 -1.8125q2.96875 0 4.703125 1.8125q1.734375 1.8125 1.734375 5.09375q0 1.71875 -0.484375 3.03125q-0.359375 1.015625 -1.15625 1.953125zm-2.171875 -1.53125q0.515625 -0.609375 0.78125 -1.46875q0.265625 -0.875 0.265625 -1.984375q0 -2.3125 -1.03125 -3.453125q-1.015625 -1.15625 -2.671875 -1.15625q-1.640625 0 -2.671875 1.15625q-1.015625 1.140625 -1.015625 3.453125q0 2.328125 1.015625 3.5q1.03125 1.15625 2.59375 1.15625q0.578125 0 1.109375 -0.1875q-0.828125 -0.53125 -1.671875 -0.84375l0.75 -1.53125q1.34375 0.453125 2.546875 1.359375zm10.152039 7.140625l-1.75 0q-1.390625 -2.09375 -2.125 -4.359375q-0.734375 -2.28125 -0.734375 -4.40625q0 -2.625 0.90625 -4.96875q0.78125 -2.046875 1.984375 -3.765625l1.75 0q-1.25 2.75 -1.71875 4.6875q-0.46875 1.9375 -0.46875 4.109375q0 1.5 0.28125 3.0625q0.28125 1.5625 0.765625 2.96875q0.3125 0.9375 1.109375 2.671875zm6.4158325 -13.59375l0 2.03125l-1.75 0l0 3.90625q0 1.1875 0.046875 1.390625q0.046875 0.1875 0.21875 0.3125q0.1875 0.125 0.4375 0.125q0.359375 0 1.03125 -0.25l0.21875 2.0q-0.890625 0.375 -2.015625 0.375q-0.703125 0 -1.265625 -0.234375q-0.546875 -0.234375 -0.8125 -0.59375q-0.25 -0.375 -0.34375 -1.0q-0.09375 -0.453125 -0.09375 -1.8125l0 -4.21875l-1.171875 0l0 -2.03125l1.171875 0l0 -1.921875l2.578125 -1.5l0 3.421875l1.75 0zm1.0563965 13.59375q0.765625 -1.609375 1.0625 -2.484375q0.3125 -0.859375 0.578125 -1.984375q0.265625 -1.140625 0.390625 -2.15625q0.125 -1.015625 0.125 -2.078125q0 -2.171875 -0.46875 -4.109375q-0.453125 -1.9375 -1.703125 -4.6875l1.734375 0q1.375 1.953125 2.140625 4.15625q0.765625 2.1875 0.765625 4.453125q0 1.90625 -0.609375 4.078125q-0.671875 2.4375 -2.25 4.8125l-1.765625 0z" fill-rule="nonzero"/><path fill="#000000" fill-opacity="0.0" d="m563.99664 180.44357l0 -85.19685" fill-rule="evenodd"/><path stroke="#000000" stroke-width="2.0" stroke-linejoin="round" stroke-linecap="butt" d="m563.99664 180.44357l0 -85.19685" fill-rule="evenodd"/><path fill="#000000" fill-opacity="0.0" d="m563.0026 95.15223l95.55908 0" fill-rule="evenodd"/><path stroke="#000000" stroke-width="2.0" stroke-linejoin="round" stroke-linecap="butt" d="m563.0026 95.15223l83.55908 0" fill-rule="evenodd"/><path fill="#000000" stroke="#000000" stroke-width="2.0" stroke-linecap="butt" d="m646.5617 98.455696l9.076172 -3.3034668l-9.076172 -3.3034668z" fill-rule="evenodd"/><path fill="#000000" fill-opacity="0.0" d="m563.00134 315.27823l95.55902 0" fill-rule="evenodd"/><path stroke="#000000" stroke-width="2.0" stroke-linejoin="round" stroke-linecap="butt" d="m563.00134 315.27823l83.55902 0" fill-rule="evenodd"/><path fill="#000000" stroke="#000000" stroke-width="2.0" stroke-linecap="butt" d="m646.56036 318.58167l9.076172 -3.3034363l-9.076172 -3.3034668z" fill-rule="evenodd"/><path fill="#000000" fill-opacity="0.0" d="m563.4874 315.69147l0 -85.19684" fill-rule="evenodd"/><path stroke="#000000" stroke-width="2.0" stroke-linejoin="round" stroke-linecap="butt" d="m563.4874 315.69147l0 -85.19684" fill-rule="evenodd"/><path fill="#000000" fill-opacity="0.0" d="m77.67181 14.834645l211.59055 0l0 35.023624l-211.59055 0z" fill-rule="evenodd"/><path fill="#000000" d="m87.95306 41.754642l0 -13.359373l2.6875 0l0 13.359373l-2.6875 0zm3.8708038 0.234375l3.3125 -13.812498l1.921875 0l-3.34375 13.812498l-1.890625 0zm17.323929 -1.921875q0.984375 0.703125 2.15625 1.125l-1.0 1.90625q-0.609375 -0.1875 -1.1875 -0.5q-0.125 -0.0625 -1.796875 -1.1875q-1.3125 0.578125 -2.90625 0.578125q-3.078125 0 -4.828125 -1.8125q-1.734375 -1.8125 -1.734375 -5.09375q0 -3.281248 1.75 -5.093748q1.75 -1.8125 4.75 -1.8125q2.96875 0 4.703125 1.8125q1.734375 1.8125 1.734375 5.093748q0 1.71875 -0.484375 3.03125q-0.359375 1.015625 -1.15625 1.953125zm-2.171875 -1.53125q0.515625 -0.609375 0.78125 -1.46875q0.265625 -0.875 0.265625 -1.984375q0 -2.3125 -1.03125 -3.453123q-1.015625 -1.15625 -2.671875 -1.15625q-1.640625 0 -2.671875 1.15625q-1.015625 1.1406231 -1.015625 3.453123q0 2.328125 1.015625 3.5q1.03125 1.15625 2.59375 1.15625q0.578125 0 1.109375 -0.1875q-0.828125 -0.53125 -1.671875 -0.84375l0.75 -1.53125q1.34375 0.453125 2.546875 1.359375zm11.085358 3.21875l0 -13.359373l4.03125 0l2.421875 9.109373l2.390625 -9.109373l4.0468826 0l0 13.359373l-2.5 0l0 -10.515623l-2.6562576 10.515623l-2.59375 0l-2.640625 -10.515623l0 10.515623l-2.5 0zm14.962685 -4.96875q0 -1.28125 0.625 -2.46875q0.625 -1.203125 1.78125 -1.828125q1.15625 -0.6249981 2.578125 -0.6249981q2.1875 0 3.59375 1.4218731q1.40625 1.421875 1.40625 3.609375q0 2.1875 -1.421875 3.640625q-1.421875 1.4375 -3.5625 1.4375q-1.328125 0 -2.546875 -0.59375q-1.203125 -0.609375 -1.828125 -1.765625q-0.625 -1.171875 -0.625 -2.828125zm2.625 0.125q0 1.453125 0.671875 2.21875q0.6875 0.75 1.6875 0.75q1.0 0 1.671875 -0.75q0.6875 -0.765625 0.6875 -2.234375q0 -1.421875 -0.6875 -2.1875q-0.671875 -0.765625 -1.671875 -0.765625q-1.0 0 -1.6875 0.765625q-0.671875 0.765625 -0.671875 2.203125zm18.23973 4.84375l-2.390625 0l0 -1.421875q-0.59375 0.828125 -1.40625 1.234375q-0.796875 0.40625 -1.609375 0.40625q-1.671875 0 -2.859375 -1.34375q-1.1875 -1.34375 -1.1875 -3.75q0 -2.453125 1.15625 -3.734375q1.15625 -1.2812481 2.921875 -1.2812481q1.625 0 2.8125 1.3437481l0 -4.812498l2.5625 0l0 13.359373zm-6.84375 -5.046875q0 1.546875 0.4375 2.234375q0.609375 1.015625 1.71875 1.015625q0.890625 0 1.5 -0.75q0.625 -0.765625 0.625 -2.25q0 -1.671875 -0.609375 -2.40625q-0.59375 -0.734375 -1.53125 -0.734375q-0.90625 0 -1.53125 0.734375q-0.609375 0.71875 -0.609375 2.15625zm15.724106 5.046875l0 -1.453125q-0.53125 0.78125 -1.390625 1.234375q-0.859375 0.4375 -1.8125 0.4375q-0.96875 0 -1.75 -0.421875q-0.765625 -0.4375 -1.125 -1.203125q-0.34375 -0.78125 -0.34375 -2.140625l0 -6.125l2.5625 0l0 4.4375q0 2.046875 0.140625 2.515625q0.140625 0.453125 0.515625 0.71875q0.375 0.265625 0.953125 0.265625q0.65625 0 1.171875 -0.359375q0.515625 -0.359375 0.703125 -0.890625q0.203125 -0.53125 0.203125 -2.609375l0 -4.078125l2.546875 0l0 9.671875l-2.375 0zm5.036606 0l0 -13.359373l2.5625 0l0 13.359373l-2.5625 0zm7.089554 -6.71875l-2.328125 -0.421875q0.40625 -1.40625 1.359375 -2.078125q0.953125 -0.6718731 2.84375 -0.6718731q1.703125 0 2.546875 0.4062481q0.84375 0.40625 1.171875 1.03125q0.34375 0.625 0.34375 2.28125l-0.015625 3.0q0 1.265625 0.109375 1.875q0.125 0.609375 0.46875 1.296875l-2.53125 0q-0.109375 -0.25 -0.25 -0.75q-0.0625 -0.234375 -0.09375 -0.3125q-0.65625 0.640625 -1.40625 0.96875q-0.734375 0.3125 -1.59375 0.3125q-1.484375 0 -2.34375 -0.8125q-0.859375 -0.8125 -0.859375 -2.046875q0 -0.828125 0.390625 -1.46875q0.390625 -0.640625 1.09375 -0.96875q0.703125 -0.34375 2.03125 -0.609375q1.796875 -0.328125 2.484375 -0.625l0 -0.25q0 -0.75 -0.359375 -1.0625q-0.359375 -0.3125 -1.375 -0.3125q-0.6875 0 -1.078125 0.28125q-0.375 0.265625 -0.609375 0.9375zm3.421875 2.078125q-0.484375 0.15625 -1.5625 0.390625q-1.0625 0.21875 -1.390625 0.4375q-0.5 0.359375 -0.5 0.90625q0 0.53125 0.40625 0.9375q0.40625 0.390625 1.015625 0.390625q0.703125 0 1.328125 -0.46875q0.46875 -0.34375 0.609375 -0.84375q0.09375 -0.328125 0.09375 -1.25l0 -0.5zm9.485092 -5.03125l0 2.03125l-1.75 0l0 3.90625q0 1.1875 0.046875 1.390625q0.046875 0.1875 0.21875 0.3125q0.1875 0.125 0.4375 0.125q0.359375 0 1.03125 -0.25l0.21875 2.0q-0.890625 0.375 -2.015625 0.375q-0.703125 0 -1.265625 -0.234375q-0.546875 -0.234375 -0.8125 -0.59375q-0.25 -0.375 -0.34375 -1.0q-0.09375 -0.453125 -0.09375 -1.8125l0 -4.21875l-1.171875 0l0 -2.03125l1.171875 0l0 -1.9218731l2.578125 -1.5l0 3.421873l1.75 0zm1.181427 4.703125q0 -1.28125 0.625 -2.46875q0.625 -1.203125 1.78125 -1.828125q1.15625 -0.6249981 2.578125 -0.6249981q2.1875 0 3.59375 1.4218731q1.40625 1.421875 1.40625 3.609375q0 2.1875 -1.421875 3.640625q-1.421875 1.4375 -3.5625 1.4375q-1.328125 0 -2.546875 -0.59375q-1.203125 -0.609375 -1.828125 -1.765625q-0.625 -1.171875 -0.625 -2.828125zm2.625 0.125q0 1.453125 0.671875 2.21875q0.6875 0.75 1.6875 0.75q1.0 0 1.671875 -0.75q0.6875 -0.765625 0.6875 -2.234375q0 -1.421875 -0.6875 -2.1875q-0.671875 -0.765625 -1.671875 -0.765625q-1.0 0 -1.6875 0.765625q-0.671875 0.765625 -0.671875 2.203125zm11.817856 4.84375l-2.5625 0l0 -9.671875l2.375 0l0 1.375q0.609375 -0.984375 1.09375 -1.28125q0.484375 -0.3124981 1.109375 -0.3124981q0.875 0 1.6875 0.4843731l-0.796875 2.234375q-0.640625 -0.421875 -1.203125 -0.421875q-0.53125 0 -0.90625 0.296875q-0.375 0.296875 -0.59375 1.078125q-0.203125 0.765625 -0.203125 3.234375l0 2.984375z" fill-rule="nonzero"/><path fill="#000000" fill-opacity="0.0" d="m563.0025 21.608923l211.59058 0l0 35.02362l-211.59058 0z" fill-rule="evenodd"/><path fill="#000000" d="m573.28375 48.528923l0 -13.359375l2.6875 0l0 13.359375l-2.6875 0zm3.8707886 0.234375l3.3125 -13.8125l1.921875 0l-3.34375 13.8125l-1.890625 0zm17.323975 -1.921875q0.984375 0.703125 2.15625 1.125l-1.0 1.90625q-0.609375 -0.1875 -1.1875 -0.5q-0.125 -0.0625 -1.796875 -1.1875q-1.3125 0.578125 -2.90625 0.578125q-3.078125 0 -4.828125 -1.8125q-1.734375 -1.8125 -1.734375 -5.09375q0 -3.28125 1.75 -5.09375q1.75 -1.8125 4.75 -1.8125q2.96875 0 4.703125 1.8125q1.734375 1.8125 1.734375 5.09375q0 1.71875 -0.484375 3.03125q-0.359375 1.015625 -1.15625 1.953125zm-2.171875 -1.53125q0.515625 -0.609375 0.78125 -1.46875q0.265625 -0.875 0.265625 -1.984375q0 -2.3125 -1.03125 -3.453125q-1.015625 -1.15625 -2.671875 -1.15625q-1.640625 0 -2.671875 1.15625q-1.015625 1.140625 -1.015625 3.453125q0 2.328125 1.015625 3.5q1.03125 1.15625 2.59375 1.15625q0.578125 0 1.109375 -0.1875q-0.828125 -0.53125 -1.671875 -0.84375l0.75 -1.53125q1.34375 0.453125 2.546875 1.359375zm11.100952 -10.140625l4.9375 0q1.65625 0 2.53125 0.265625q1.1875 0.34375 2.015625 1.234375q0.84375 0.875 1.28125 2.15625q0.4375 1.28125 0.4375 3.15625q0 1.640625 -0.40625 2.84375q-0.5 1.453125 -1.4375 2.359375q-0.703125 0.671875 -1.890625 1.0625q-0.890625 0.28125 -2.390625 0.28125l-5.078125 0l0 -13.359375zm2.703125 2.265625l0 8.84375l2.015625 0q1.125 0 1.625 -0.125q0.65625 -0.171875 1.078125 -0.5625q0.4375 -0.390625 0.703125 -1.28125q0.28125 -0.90625 0.28125 -2.453125q0 -1.546875 -0.28125 -2.375q-0.265625 -0.828125 -0.765625 -1.28125q-0.484375 -0.46875 -1.234375 -0.640625q-0.5625 -0.125 -2.21875 -0.125l-1.203125 0zm16.363586 8.015625l2.546875 0.421875q-0.484375 1.40625 -1.546875 2.140625q-1.0625 0.734375 -2.65625 0.734375q-2.515625 0 -3.734375 -1.65625q-0.953125 -1.3125 -0.953125 -3.328125q0 -2.40625 1.25 -3.765625q1.265625 -1.359375 3.1875 -1.359375q2.15625 0 3.40625 1.421875q1.25 1.421875 1.1875 4.375l-6.40625 0q0.03125 1.140625 0.609375 1.78125q0.59375 0.625 1.484375 0.625q0.59375 0 1.0 -0.328125q0.421875 -0.328125 0.625 -1.0625zm0.15625 -2.59375q-0.03125 -1.109375 -0.578125 -1.6875q-0.546875 -0.578125 -1.328125 -0.578125q-0.84375 0 -1.390625 0.609375q-0.546875 0.609375 -0.53125 1.65625l3.828125 0zm4.4226074 -4.0l2.359375 0l0 1.3125q1.265625 -1.53125 3.015625 -1.53125q0.9375 0 1.609375 0.390625q0.6875 0.375 1.125 1.140625q0.640625 -0.765625 1.375 -1.140625q0.75 -0.390625 1.578125 -0.390625q1.0625 0 1.796875 0.4375q0.75 0.421875 1.109375 1.265625q0.265625 0.625 0.265625 2.0l0 6.1875l-2.5625 0l0 -5.53125q0 -1.4375 -0.265625 -1.859375q-0.34375 -0.546875 -1.09375 -0.546875q-0.53125 0 -1.015625 0.328125q-0.46875 0.328125 -0.671875 0.96875q-0.203125 0.625 -0.203125 2.0l0 4.640625l-2.5625 0l0 -5.296875q0 -1.421875 -0.140625 -1.828125q-0.140625 -0.40625 -0.421875 -0.609375q-0.28125 -0.203125 -0.78125 -0.203125q-0.59375 0 -1.0625 0.328125q-0.46875 0.3125 -0.6875 0.921875q-0.203125 0.59375 -0.203125 1.984375l0 4.703125l-2.5625 0l0 -9.671875zm16.197754 4.703125q0 -1.28125 0.625 -2.46875q0.625 -1.203125 1.78125 -1.828125q1.15625 -0.625 2.578125 -0.625q2.1875 0 3.59375 1.421875q1.40625 1.421875 1.40625 3.609375q0 2.1875 -1.421875 3.640625q-1.421875 1.4375 -3.5625 1.4375q-1.328125 0 -2.546875 -0.59375q-1.203125 -0.609375 -1.828125 -1.765625q-0.625 -1.171875 -0.625 -2.828125zm2.625 0.125q0 1.453125 0.671875 2.21875q0.6875 0.75 1.6875 0.75q1.0 0 1.671875 -0.75q0.6875 -0.765625 0.6875 -2.234375q0 -1.421875 -0.6875 -2.1875q-0.671875 -0.765625 -1.671875 -0.765625q-1.0 0 -1.6875 0.765625q-0.671875 0.765625 -0.671875 2.203125zm18.239746 4.84375l-2.390625 0l0 -1.421875q-0.59375 0.828125 -1.40625 1.234375q-0.796875 0.40625 -1.609375 0.40625q-1.671875 0 -2.859375 -1.34375q-1.1875 -1.34375 -1.1875 -3.75q0 -2.453125 1.15625 -3.734375q1.15625 -1.28125 2.921875 -1.28125q1.625 0 2.8125 1.34375l0 -4.8125l2.5625 0l0 13.359375zm-6.84375 -5.046875q0 1.546875 0.4375 2.234375q0.609375 1.015625 1.71875 1.015625q0.890625 0 1.5 -0.75q0.625 -0.765625 0.625 -2.25q0 -1.671875 -0.609375 -2.40625q-0.59375 -0.734375 -1.53125 -0.734375q-0.90625 0 -1.53125 0.734375q-0.609375 0.71875 -0.609375 2.15625zm15.72406 5.046875l0 -1.453125q-0.53125 0.78125 -1.390625 1.234375q-0.859375 0.4375 -1.8125 0.4375q-0.96875 0 -1.75 -0.421875q-0.765625 -0.4375 -1.125 -1.203125q-0.34375 -0.78125 -0.34375 -2.140625l0 -6.125l2.5625 0l0 4.4375q0 2.046875 0.140625 2.515625q0.140625 0.453125 0.515625 0.71875q0.375 0.265625 0.953125 0.265625q0.65625 0 1.171875 -0.359375q0.515625 -0.359375 0.703125 -0.890625q0.203125 -0.53125 0.203125 -2.609375l0 -4.078125l2.546875 0l0 9.671875l-2.375 0zm5.036621 0l0 -13.359375l2.5625 0l0 13.359375l-2.5625 0zm7.0895386 -6.71875l-2.328125 -0.421875q0.40625 -1.40625 1.359375 -2.078125q0.953125 -0.671875 2.84375 -0.671875q1.703125 0 2.546875 0.40625q0.84375 0.40625 1.171875 1.03125q0.34375 0.625 0.34375 2.28125l-0.015625 3.0q0 1.265625 0.109375 1.875q0.125 0.609375 0.46875 1.296875l-2.53125 0q-0.109375 -0.25 -0.25 -0.75q-0.0625 -0.234375 -0.09375 -0.3125q-0.65625 0.640625 -1.40625 0.96875q-0.734375 0.3125 -1.59375 0.3125q-1.484375 0 -2.34375 -0.8125q-0.859375 -0.8125 -0.859375 -2.046875q0 -0.828125 0.390625 -1.46875q0.390625 -0.640625 1.09375 -0.96875q0.703125 -0.34375 2.03125 -0.609375q1.796875 -0.328125 2.484375 -0.625l0 -0.25q0 -0.75 -0.359375 -1.0625q-0.359375 -0.3125 -1.375 -0.3125q-0.6875 0 -1.078125 0.28125q-0.375 0.265625 -0.609375 0.9375zm3.421875 2.078125q-0.484375 0.15625 -1.5625 0.390625q-1.0625 0.21875 -1.390625 0.4375q-0.5 0.359375 -0.5 0.90625q0 0.53125 0.40625 0.9375q0.40625 0.390625 1.015625 0.390625q0.703125 0 1.328125 -0.46875q0.46875 -0.34375 0.609375 -0.84375q0.09375 -0.328125 0.09375 -1.25l0 -0.5zm9.485107 -5.03125l0 2.03125l-1.75 0l0 3.90625q0 1.1875 0.046875 1.390625q0.046875 0.1875 0.21875 0.3125q0.1875 0.125 0.4375 0.125q0.359375 0 1.03125 -0.25l0.21875 2.0q-0.890625 0.375 -2.015625 0.375q-0.703125 0 -1.265625 -0.234375q-0.546875 -0.234375 -0.8125 -0.59375q-0.25 -0.375 -0.34375 -1.0q-0.09375 -0.453125 -0.09375 -1.8125l0 -4.21875l-1.171875 0l0 -2.03125l1.171875 0l0 -1.921875l2.578125 -1.5l0 3.421875l1.75 0zm1.1814575 4.703125q0 -1.28125 0.625 -2.46875q0.625 -1.203125 1.78125 -1.828125q1.15625 -0.625 2.578125 -0.625q2.1875 0 3.59375 1.421875q1.40625 1.421875 1.40625 3.609375q0 2.1875 -1.421875 3.640625q-1.421875 1.4375 -3.5625 1.4375q-1.328125 0 -2.546875 -0.59375q-1.203125 -0.609375 -1.828125 -1.765625q-0.625 -1.171875 -0.625 -2.828125zm2.625 0.125q0 1.453125 0.671875 2.21875q0.6875 0.75 1.6875 0.75q1.0 0 1.671875 -0.75q0.6875 -0.765625 0.6875 -2.234375q0 -1.421875 -0.6875 -2.1875q-0.671875 -0.765625 -1.671875 -0.765625q-1.0 0 -1.6875 0.765625q-0.671875 0.765625 -0.671875 2.203125zm11.81781 4.84375l-2.5625 0l0 -9.671875l2.375 0l0 1.375q0.609375 -0.984375 1.09375 -1.28125q0.484375 -0.3125 1.109375 -0.3125q0.875 0 1.6875 0.484375l-0.796875 2.234375q-0.640625 -0.421875 -1.203125 -0.421875q-0.53125 0 -0.90625 0.296875q-0.375 0.296875 -0.59375 1.078125q-0.203125 0.765625 -0.203125 3.234375l0 2.984375z" fill-rule="nonzero"/><path fill="#000000" fill-opacity="0.0" d="m141.1483 470.61942l135.9055 0l0 66.897675l-135.9055 0z" fill-rule="evenodd"/><path stroke="#000000" stroke-width="2.0" stroke-linejoin="round" stroke-linecap="butt" d="m141.1483 470.61942l135.9055 0l0 66.897675l-135.9055 0z" fill-rule="evenodd"/><path fill="#000000" d="m197.94328 499.98825l0 -13.359375l2.6875 0l0 13.359375l-2.6875 0zm3.8708038 0.234375l3.3125 -13.8125l1.921875 0l-3.34375 13.8125l-1.890625 0zm17.323929 -1.921875q0.984375 0.703125 2.15625 1.125l-1.0 1.90625q-0.609375 -0.1875 -1.1875 -0.5q-0.125 -0.0625 -1.796875 -1.1875q-1.3125 0.578125 -2.90625 0.578125q-3.078125 0 -4.828125 -1.8125q-1.734375 -1.8125 -1.734375 -5.09375q0 -3.28125 1.75 -5.09375q1.75 -1.8125 4.75 -1.8125q2.96875 0 4.703125 1.8125q1.734375 1.8125 1.734375 5.09375q0 1.71875 -0.484375 3.03125q-0.359375 1.015625 -1.15625 1.953125zm-2.171875 -1.53125q0.515625 -0.609375 0.78125 -1.46875q0.265625 -0.875 0.265625 -1.984375q0 -2.3125 -1.03125 -3.453125q-1.015625 -1.15625 -2.671875 -1.15625q-1.640625 0 -2.671875 1.15625q-1.015625 1.140625 -1.015625 3.453125q0 2.328125 1.015625 3.5q1.03125 1.15625 2.59375 1.15625q0.578125 0 1.109375 -0.1875q-0.828125 -0.53125 -1.671875 -0.84375l0.75 -1.53125q1.34375 0.453125 2.546875 1.359375z" fill-rule="nonzero"/><path fill="#000000" d="m165.35083 521.9882l0 -13.3593445l4.03125 0l2.421875 9.1093445l2.390625 -9.1093445l4.046875 0l0 13.3593445l-2.5 0l0 -10.5155945l-2.65625 10.5155945l-2.59375 0l-2.640625 -10.5155945l0 10.5155945l-2.5 0zm14.962677 -4.96875q0 -1.28125 0.625 -2.46875q0.625 -1.203125 1.78125 -1.828125q1.15625 -0.625 2.578125 -0.625q2.1875 0 3.59375 1.421875q1.40625 1.421875 1.40625 3.609375q0 2.1875 -1.421875 3.640625q-1.421875 1.4375 -3.5625 1.4375q-1.328125 0 -2.546875 -0.59375q-1.203125 -0.609375 -1.828125 -1.765625q-0.625 -1.171875 -0.625 -2.828125zm2.625 0.125q0 1.453125 0.671875 2.21875q0.6875 0.75 1.6875 0.75q1.0 0 1.671875 -0.75q0.6875 -0.765625 0.6875 -2.234375q0 -1.421875 -0.6875 -2.1875q-0.671875 -0.765625 -1.671875 -0.765625q-1.0 0 -1.6875 0.765625q-0.671875 0.765625 -0.671875 2.203125zm18.23973 4.84375l-2.390625 0l0 -1.421875q-0.59375 0.828125 -1.40625 1.234375q-0.796875 0.40625 -1.609375 0.40625q-1.671875 0 -2.859375 -1.34375q-1.1875 -1.34375 -1.1875 -3.75q0 -2.453125 1.15625 -3.734375q1.15625 -1.28125 2.921875 -1.28125q1.625 0 2.8125 1.34375l0 -4.8124695l2.5625 0l0 13.3593445zm-6.84375 -5.046875q0 1.546875 0.4375 2.234375q0.609375 1.015625 1.71875 1.015625q0.890625 0 1.5 -0.75q0.625 -0.765625 0.625 -2.25q0 -1.671875 -0.609375 -2.40625q-0.59375 -0.734375 -1.53125 -0.734375q-0.90625 0 -1.53125 0.734375q-0.609375 0.71875 -0.609375 2.15625zm15.724106 5.046875l0 -1.453125q-0.53125 0.78125 -1.390625 1.234375q-0.859375 0.4375 -1.8125 0.4375q-0.96875 0 -1.75 -0.421875q-0.765625 -0.4375 -1.125 -1.203125q-0.34375 -0.78125 -0.34375 -2.140625l0 -6.125l2.5625 0l0 4.4375q0 2.046875 0.140625 2.515625q0.140625 0.453125 0.515625 0.71875q0.375 0.265625 0.953125 0.265625q0.65625 0 1.171875 -0.359375q0.515625 -0.359375 0.703125 -0.890625q0.203125 -0.53125 0.203125 -2.609375l0 -4.078125l2.546875 0l0 9.671875l-2.375 0zm5.036606 0l0 -13.3593445l2.5625 0l0 13.3593445l-2.5625 0zm7.089554 -6.71875l-2.328125 -0.421875q0.40625 -1.40625 1.359375 -2.078125q0.953125 -0.671875 2.84375 -0.671875q1.703125 0 2.546875 0.40625q0.84375 0.40625 1.171875 1.03125q0.34375 0.625 0.34375 2.28125l-0.015625 3.0q0 1.265625 0.109375 1.875q0.125 0.609375 0.46875 1.296875l-2.53125 0q-0.109375 -0.25 -0.25 -0.75q-0.0625 -0.234375 -0.09375 -0.3125q-0.65625 0.640625 -1.40625 0.96875q-0.734375 0.3125 -1.59375 0.3125q-1.484375 0 -2.34375 -0.8125q-0.859375 -0.8125 -0.859375 -2.046875q0 -0.828125 0.390625 -1.46875q0.390625 -0.640625 1.09375 -0.96875q0.703125 -0.34375 2.03125 -0.609375q1.796875 -0.328125 2.484375 -0.625l0 -0.25q0 -0.75 -0.359375 -1.0625q-0.359375 -0.3125 -1.375 -0.3125q-0.6875 0 -1.078125 0.28125q-0.375 0.265625 -0.609375 0.9375zm3.421875 2.078125q-0.484375 0.15625 -1.5625 0.390625q-1.0625 0.21875 -1.390625 0.4375q-0.5 0.359375 -0.5 0.90625q0 0.53125 0.40625 0.9375q0.40625 0.390625 1.015625 0.390625q0.703125 0 1.328125 -0.46875q0.46875 -0.34375 0.609375 -0.84375q0.09375 -0.328125 0.09375 -1.25l0 -0.5zm9.485092 -5.03125l0 2.03125l-1.75 0l0 3.90625q0 1.1875 0.046875 1.390625q0.046875 0.1875 0.21875 0.3125q0.1875 0.125 0.4375 0.125q0.359375 0 1.03125 -0.25l0.21875 2.0q-0.890625 0.375 -2.015625 0.375q-0.703125 0 -1.265625 -0.234375q-0.546875 -0.234375 -0.8125 -0.59375q-0.25 -0.375 -0.34375 -1.0q-0.09375 -0.453125 -0.09375 -1.8125l0 -4.21875l-1.171875 0l0 -2.03125l1.171875 0l0 -1.9218445l2.578125 -1.5l0 3.4218445l1.75 0zm1.181427 4.703125q0 -1.28125 0.625 -2.46875q0.625 -1.203125 1.78125 -1.828125q1.15625 -0.625 2.578125 -0.625q2.1875 0 3.59375 1.421875q1.40625 1.421875 1.40625 3.609375q0 2.1875 -1.421875 3.640625q-1.421875 1.4375 -3.5625 1.4375q-1.328125 0 -2.546875 -0.59375q-1.203125 -0.609375 -1.828125 -1.765625q-0.625 -1.171875 -0.625 -2.828125zm2.625 0.125q0 1.453125 0.671875 2.21875q0.6875 0.75 1.6875 0.75q1.0 0 1.671875 -0.75q0.6875 -0.765625 0.6875 -2.234375q0 -1.421875 -0.6875 -2.1875q-0.671875 -0.765625 -1.671875 -0.765625q-1.0 0 -1.6875 0.765625q-0.671875 0.765625 -0.671875 2.203125zm11.817856 4.84375l-2.5625 0l0 -9.671875l2.375 0l0 1.375q0.609375 -0.984375 1.09375 -1.28125q0.484375 -0.3125 1.109375 -0.3125q0.875 0 1.6875 0.484375l-0.796875 2.234375q-0.640625 -0.421875 -1.203125 -0.421875q-0.53125 0 -0.90625 0.296875q-0.375 0.296875 -0.59375 1.078125q-0.203125 0.765625 -0.203125 3.234375l0 2.984375z" fill-rule="nonzero"/><path fill="#000000" fill-opacity="0.0" d="m570.7769 470.62466l135.90552 0l0 66.897675l-135.90552 0z" fill-rule="evenodd"/><path stroke="#000000" stroke-width="2.0" stroke-linejoin="round" stroke-linecap="butt" d="m570.7769 470.62466l135.90552 0l0 66.897675l-135.90552 0z" fill-rule="evenodd"/><path fill="#000000" d="m627.5719 499.9935l0 -13.359375l2.6875 0l0 13.359375l-2.6875 0zm3.8707886 0.234375l3.3125 -13.8125l1.921875 0l-3.34375 13.8125l-1.890625 0zm17.323914 -1.921875q0.984375 0.703125 2.15625 1.125l-1.0 1.90625q-0.609375 -0.1875 -1.1875 -0.5q-0.125 -0.0625 -1.796875 -1.1875q-1.3125 0.578125 -2.90625 0.578125q-3.078125 0 -4.828125 -1.8125q-1.734375 -1.8125 -1.734375 -5.09375q0 -3.28125 1.75 -5.09375q1.75 -1.8125 4.75 -1.8125q2.96875 0 4.703125 1.8125q1.734375 1.8125 1.734375 5.09375q0 1.71875 -0.484375 3.03125q-0.359375 1.015625 -1.15625 1.953125zm-2.171875 -1.53125q0.515625 -0.609375 0.78125 -1.46875q0.265625 -0.875 0.265625 -1.984375q0 -2.3125 -1.03125 -3.453125q-1.015625 -1.15625 -2.671875 -1.15625q-1.640625 0 -2.671875 1.15625q-1.015625 1.140625 -1.015625 3.453125q0 2.328125 1.015625 3.5q1.03125 1.15625 2.59375 1.15625q0.578125 0 1.109375 -0.1875q-0.828125 -0.53125 -1.671875 -0.84375l0.75 -1.53125q1.34375 0.453125 2.546875 1.359375z" fill-rule="nonzero"/><path fill="#000000" d="m582.54694 508.63412l4.9375 0q1.65625 0 2.53125 0.265625q1.1875 0.34375 2.015625 1.234375q0.84375 0.875 1.28125 2.1562195q0.4375 1.28125 0.4375 3.15625q0 1.640625 -0.40625 2.84375q-0.5 1.453125 -1.4375 2.359375q-0.703125 0.671875 -1.890625 1.0625q-0.890625 0.28125 -2.390625 0.28125l-5.078125 0l0 -13.3593445zm2.703125 2.265625l0 8.8437195l2.015625 0q1.125 0 1.625 -0.125q0.65625 -0.171875 1.078125 -0.5625q0.4375 -0.390625 0.703125 -1.28125q0.28125 -0.90625 0.28125 -2.453125q0 -1.546875 -0.28125 -2.375q-0.265625 -0.828125 -0.765625 -1.2812195q-0.484375 -0.46875 -1.234375 -0.640625q-0.5625 -0.125 -2.21875 -0.125l-1.203125 0zm16.363586 8.0155945l2.546875 0.421875q-0.484375 1.40625 -1.546875 2.140625q-1.0625 0.734375 -2.65625 0.734375q-2.515625 0 -3.734375 -1.65625q-0.953125 -1.3125 -0.953125 -3.328125q0 -2.40625 1.25 -3.765625q1.265625 -1.359375 3.1875 -1.359375q2.15625 0 3.40625 1.421875q1.25 1.421875 1.1875 4.375l-6.40625 0q0.03125 1.140625 0.609375 1.78125q0.59375 0.625 1.484375 0.625q0.59375 0 1.0 -0.328125q0.421875 -0.328125 0.625 -1.0625zm0.15625 -2.59375q-0.03125 -1.109375 -0.578125 -1.6875q-0.546875 -0.578125 -1.328125 -0.578125q-0.84375 0 -1.390625 0.609375q-0.546875 0.609375 -0.53125 1.65625l3.828125 0zm4.4225464 -4.0l2.359375 0l0 1.3125q1.265625 -1.53125 3.015625 -1.53125q0.9375 0 1.609375 0.390625q0.6875 0.375 1.125 1.140625q0.640625 -0.765625 1.375 -1.140625q0.75 -0.390625 1.578125 -0.390625q1.0625 0 1.796875 0.4375q0.75 0.421875 1.109375 1.265625q0.265625 0.625 0.265625 2.0l0 6.1875l-2.5625 0l0 -5.53125q0 -1.4375 -0.265625 -1.859375q-0.34375 -0.546875 -1.09375 -0.546875q-0.53125 0 -1.015625 0.328125q-0.46875 0.328125 -0.671875 0.96875q-0.203125 0.625 -0.203125 2.0l0 4.640625l-2.5625 0l0 -5.296875q0 -1.421875 -0.140625 -1.828125q-0.140625 -0.40625 -0.421875 -0.609375q-0.28125 -0.203125 -0.78125 -0.203125q-0.59375 0 -1.0625 0.328125q-0.46875 0.3125 -0.6875 0.921875q-0.203125 0.59375 -0.203125 1.984375l0 4.703125l-2.5625 0l0 -9.671875zm16.197815 4.703125q0 -1.28125 0.625 -2.46875q0.625 -1.203125 1.78125 -1.828125q1.15625 -0.625 2.578125 -0.625q2.1875 0 3.59375 1.421875q1.40625 1.421875 1.40625 3.609375q0 2.1875 -1.421875 3.640625q-1.421875 1.4375 -3.5625 1.4375q-1.328125 0 -2.546875 -0.59375q-1.203125 -0.609375 -1.828125 -1.765625q-0.625 -1.171875 -0.625 -2.828125zm2.625 0.125q0 1.453125 0.671875 2.21875q0.6875 0.75 1.6875 0.75q1.0 0 1.671875 -0.75q0.6875 -0.765625 0.6875 -2.234375q0 -1.421875 -0.6875 -2.1875q-0.671875 -0.765625 -1.671875 -0.765625q-1.0 0 -1.6875 0.765625q-0.671875 0.765625 -0.671875 2.203125zm18.239746 4.84375l-2.390625 0l0 -1.421875q-0.59375 0.828125 -1.40625 1.234375q-0.796875 0.40625 -1.609375 0.40625q-1.671875 0 -2.859375 -1.34375q-1.187561 -1.34375 -1.187561 -3.75q0 -2.453125 1.156311 -3.734375q1.15625 -1.28125 2.921875 -1.28125q1.625 0 2.8125 1.34375l0 -4.8124695l2.5625 0l0 13.3593445zm-6.84375 -5.046875q0 1.546875 0.4375 2.234375q0.609375 1.015625 1.71875 1.015625q0.890625 0 1.5 -0.75q0.625 -0.765625 0.625 -2.25q0 -1.671875 -0.609375 -2.40625q-0.59375 -0.734375 -1.53125 -0.734375q-0.90625 0 -1.53125 0.734375q-0.609375 0.71875 -0.609375 2.15625zm15.72406 5.046875l0 -1.453125q-0.53125 0.78125 -1.390625 1.234375q-0.859375 0.4375 -1.8125 0.4375q-0.96875 0 -1.75 -0.421875q-0.765625 -0.4375 -1.125 -1.203125q-0.34375 -0.78125 -0.34375 -2.140625l0 -6.125l2.5625 0l0 4.4375q0 2.046875 0.140625 2.515625q0.140625 0.453125 0.515625 0.71875q0.375 0.265625 0.953125 0.265625q0.65625 0 1.171875 -0.359375q0.515625 -0.359375 0.703125 -0.890625q0.203125 -0.53125 0.203125 -2.609375l0 -4.078125l2.546875 0l0 9.671875l-2.375 0zm5.036621 0l0 -13.3593445l2.5625 0l0 13.3593445l-2.5625 0zm7.0895386 -6.71875l-2.328125 -0.421875q0.40625 -1.40625 1.359375 -2.078125q0.953125 -0.671875 2.84375 -0.671875q1.703125 0 2.546875 0.40625q0.84375 0.40625 1.171875 1.03125q0.34375 0.625 0.34375 2.28125l-0.015625 3.0q0 1.265625 0.109375 1.875q0.125 0.609375 0.46875 1.296875l-2.53125 0q-0.109375 -0.25 -0.25 -0.75q-0.0625 -0.234375 -0.09375 -0.3125q-0.65625 0.640625 -1.40625 0.96875q-0.734375 0.3125 -1.59375 0.3125q-1.484375 0 -2.34375 -0.8125q-0.859375 -0.8125 -0.859375 -2.046875q0 -0.828125 0.390625 -1.46875q0.390625 -0.640625 1.09375 -0.96875q0.703125 -0.34375 2.03125 -0.609375q1.796875 -0.328125 2.484375 -0.625l0 -0.25q0 -0.75 -0.359375 -1.0625q-0.359375 -0.3125 -1.375 -0.3125q-0.6875 0 -1.078125 0.28125q-0.375 0.265625 -0.609375 0.9375zm3.421875 2.078125q-0.484375 0.15625 -1.5625 0.390625q-1.0625 0.21875 -1.390625 0.4375q-0.5 0.359375 -0.5 0.90625q0 0.53125 0.40625 0.9375q0.40625 0.390625 1.015625 0.390625q0.703125 0 1.328125 -0.46875q0.46875 -0.34375 0.609375 -0.84375q0.09375 -0.328125 0.09375 -1.25l0 -0.5zm9.485107 -5.03125l0 2.03125l-1.75 0l0 3.90625q0 1.1875 0.046875 1.390625q0.046875 0.1875 0.21875 0.3125q0.1875 0.125 0.4375 0.125q0.359375 0 1.03125 -0.25l0.21875 2.0q-0.890625 0.375 -2.015625 0.375q-0.703125 0 -1.265625 -0.234375q-0.546875 -0.234375 -0.8125 -0.59375q-0.25 -0.375 -0.34375 -1.0q-0.09375 -0.453125 -0.09375 -1.8125l0 -4.21875l-1.171875 0l0 -2.03125l1.171875 0l0 -1.9218445l2.578125 -1.5l0 3.4218445l1.75 0zm1.1814575 4.703125q0 -1.28125 0.625 -2.46875q0.625 -1.203125 1.78125 -1.828125q1.15625 -0.625 2.578125 -0.625q2.1875 0 3.59375 1.421875q1.40625 1.421875 1.40625 3.609375q0 2.1875 -1.421875 3.640625q-1.421875 1.4375 -3.5625 1.4375q-1.328125 0 -2.546875 -0.59375q-1.203125 -0.609375 -1.828125 -1.765625q-0.625 -1.171875 -0.625 -2.828125zm2.625 0.125q0 1.453125 0.671875 2.21875q0.6875 0.75 1.6875 0.75q1.0 0 1.671875 -0.75q0.6875 -0.765625 0.6875 -2.234375q0 -1.421875 -0.6875 -2.1875q-0.671875 -0.765625 -1.671875 -0.765625q-1.0 0 -1.6875 0.765625q-0.671875 0.765625 -0.671875 2.203125zm11.81781 4.84375l-2.5625 0l0 -9.671875l2.375 0l0 1.375q0.609375 -0.984375 1.09375 -1.28125q0.484375 -0.3125 1.109375 -0.3125q0.875 0 1.6875 0.484375l-0.796875 2.234375q-0.640625 -0.421875 -1.203125 -0.421875q-0.53125 0 -0.90625 0.296875q-0.375 0.296875 -0.59375 1.078125q-0.203125 0.765625 -0.203125 3.234375l0 2.984375z" fill-rule="nonzero"/><path fill="#000000" fill-opacity="0.0" d="m85.21129 488.72702l55.93701 0" fill-rule="evenodd"/><path stroke="#000000" stroke-width="2.0" stroke-linejoin="round" stroke-linecap="butt" d="m85.21129 488.72702l43.93701 0" fill-rule="evenodd"/><path fill="#000000" stroke="#000000" stroke-width="2.0" stroke-linecap="butt" d="m129.1483 492.0305l9.076187 -3.3034668l-9.076187 -3.3034363z" fill-rule="evenodd"/><path fill="#000000" fill-opacity="0.0" d="m85.21129 525.56433l55.93701 0" fill-rule="evenodd"/><path stroke="#000000" stroke-width="2.0" stroke-linejoin="round" stroke-linecap="butt" d="m85.21129 525.56433l43.93701 0" fill-rule="evenodd"/><path fill="#000000" stroke="#000000" stroke-width="2.0" stroke-linecap="butt" d="m129.1483 528.8678l9.076187 -3.3034668l-9.076187 -3.3034668z" fill-rule="evenodd"/><path fill="#000000" fill-opacity="0.0" d="m277.05432 504.06824l55.93698 0" fill-rule="evenodd"/><path stroke="#000000" stroke-width="2.0" stroke-linejoin="round" stroke-linecap="butt" d="m277.0543 504.06824l43.93701 0" fill-rule="evenodd"/><path fill="#000000" stroke="#000000" stroke-width="2.0" stroke-linecap="butt" d="m320.9913 507.3717l9.076202 -3.3034668l-9.076202 -3.3034668z" fill-rule="evenodd"/><path fill="#000000" fill-opacity="0.0" d="m184.19029 427.3176l0 43.307068" fill-rule="evenodd"/><path stroke="#000000" stroke-width="2.0" stroke-linejoin="round" stroke-linecap="butt" d="m184.19029 427.3176l0 31.307068" fill-rule="evenodd"/><path fill="#000000" stroke="#000000" stroke-width="2.0" stroke-linecap="butt" d="m180.88683 458.62466l3.3034668 9.076202l3.3034668 -9.076202z" fill-rule="evenodd"/><path fill="#000000" fill-opacity="0.0" d="m162.71286 393.30966l59.62204 0l0.03149414 40.346466l-59.62204 0z" fill-rule="evenodd"/><path fill="#000000" d="m173.17137 420.22968l-0.010345459 -13.25l2.6875 0l0.008590698 11.0l6.703125 0l0.0017547607 2.25l-9.390625 0zm10.765839 -6.59375q-0.0016021729 -2.046875 0.6067047 -3.421875q0.45231628 -1.03125 1.2329407 -1.828125q0.7962494 -0.8125 1.7334442 -1.203125q1.2495728 -0.53125 2.8745728 -0.53125q2.953125 0 4.7201843 1.828125q1.7826691 1.828125 1.7852325 5.09375q0.0025177002 3.234375 -1.761673 5.0625q-1.7485809 1.828125 -4.686081 1.828125q-2.984375 0 -4.751419 -1.8125q-1.7514191 -1.828125 -1.7539062 -5.015625zm2.7811737 -0.09375q0.0017700195 2.265625 1.0495605 3.4375q1.0477905 1.171875 2.6571655 1.171875q1.609375 0 2.6397247 -1.15625q1.0459595 -1.171875 1.0441437 -3.484375q-0.0017852783 -2.296875 -1.0182953 -3.421875q-1.000885 -1.140625 -2.67276 -1.140625q-1.671875 0 -2.6865997 1.15625q-1.01474 1.140625 -1.0129395 3.4375z" fill-rule="nonzero"/><path fill="#000000" fill-opacity="0.0" d="m49.0853 466.1916l44.40945 0l0 45.070892l-44.40945 0z" fill-rule="evenodd"/><path fill="#000000" d="m59.36655 493.1116l0 -13.359375l2.6875 0l0 13.359375l-2.6875 0zm9.480183 3.921875l-1.75 0q-1.390625 -2.09375 -2.125 -4.359375q-0.734375 -2.28125 -0.734375 -4.40625q0 -2.625 0.90625 -4.96875q0.78125 -2.046875 1.984375 -3.765625l1.75 0q-1.25 2.75 -1.71875 4.6875q-0.46875 1.9375 -0.46875 4.109375q0 1.5 0.28125 3.0625q0.28125 1.5625 0.765625 2.96875q0.3125 0.9375 1.109375 2.671875zm6.415802 -13.59375l0 2.03125l-1.75 0l0 3.90625q0 1.1875 0.046875 1.390625q0.046875 0.1875 0.21875 0.3125q0.1875 0.125 0.4375 0.125q0.359375 0 1.03125 -0.25l0.21875 2.0q-0.890625 0.375 -2.015625 0.375q-0.703125 0 -1.265625 -0.234375q-0.546875 -0.234375 -0.8125 -0.59375q-0.25 -0.375 -0.34375 -1.0q-0.09375 -0.453125 -0.09375 -1.8125l0 -4.21875l-1.171875 0l0 -2.03125l1.171875 0l0 -1.921875l2.578125 -1.5l0 3.421875l1.75 0zm1.056427 13.59375q0.765625 -1.609375 1.0625 -2.484375q0.3125 -0.859375 0.578125 -1.984375q0.265625 -1.140625 0.390625 -2.15625q0.125 -1.015625 0.125 -2.078125q0 -2.171875 -0.46875 -4.109375q-0.453125 -1.9375 -1.703125 -4.6875l1.734375 0q1.375 1.953125 2.140625 4.15625q0.765625 2.1875 0.765625 4.453125q0 1.90625 -0.609375 4.078125q-0.671875 2.4375 -2.25 4.8125l-1.765625 0z" fill-rule="nonzero"/><path fill="#000000" fill-opacity="0.0" d="m40.78023 503.02887l55.937008 0l0 45.07086l-55.937008 0z" fill-rule="evenodd"/><path fill="#000000" d="m61.889606 528.26135q0.984375 0.703125 2.1562538 1.125l-1.0000038 1.90625q-0.609375 -0.1875 -1.1875 -0.5q-0.125 -0.0625 -1.796875 -1.1875q-1.3125 0.578125 -2.90625 0.578125q-3.078125 0 -4.828125 -1.8125q-1.734375 -1.8125 -1.734375 -5.09375q0 -3.28125 1.75 -5.09375q1.75 -1.8125 4.75 -1.8125q2.96875 0 4.703125 1.8125q1.734375 1.8125 1.734375 5.09375q0 1.71875 -0.484375 3.03125q-0.359375 1.015625 -1.15625 1.953125zm-2.171875 -1.53125q0.515625 -0.609375 0.78125 -1.46875q0.265625 -0.875 0.265625 -1.984375q0 -2.3125 -1.03125 -3.453125q-1.015625 -1.15625 -2.671875 -1.15625q-1.640625 0 -2.671875 1.15625q-1.015625 1.140625 -1.015625 3.453125q0 2.328125 1.015625 3.5q1.03125 1.15625 2.59375 1.15625q0.578125 0 1.109375 -0.1875q-0.828125 -0.53125 -1.671875 -0.84375l0.75 -1.53125q1.34375 0.453125 2.546875 1.359375zm10.152058 7.140625l-1.75 0q-1.390625 -2.09375 -2.125 -4.359375q-0.734375 -2.28125 -0.734375 -4.40625q0 -2.625 0.90625 -4.96875q0.78125 -2.046875 1.984375 -3.765625l1.75 0q-1.25 2.75 -1.71875 4.6875q-0.46875 1.9375 -0.46875 4.109375q0 1.5 0.28125 3.0625q0.28125 1.5625 0.765625 2.96875q0.3125 0.9375 1.109375 2.671875zm6.415802 -13.59375l0 2.03125l-1.75 0l0 3.90625q0 1.1875 0.046875 1.390625q0.046875 0.1875 0.21875 0.3125q0.1875 0.125 0.4375 0.125q0.359375 0 1.03125 -0.25l0.21875 2.0q-0.890625 0.375 -2.015625 0.375q-0.703125 0 -1.265625 -0.234375q-0.546875 -0.234375 -0.8125 -0.59375q-0.25 -0.375 -0.34375 -1.0q-0.09375 -0.453125 -0.09375 -1.8125l0 -4.21875l-1.171875 0l0 -2.03125l1.171875 0l0 -1.921875l2.578125 -1.5l0 3.421875l1.75 0zm1.056427 13.59375q0.765625 -1.609375 1.0625 -2.484375q0.3125 -0.859375 0.578125 -1.984375q0.265625 -1.140625 0.390625 -2.15625q0.125 -1.015625 0.125 -2.078125q0 -2.171875 -0.46875 -4.109375q-0.453125 -1.9375 -1.703125 -4.6875l1.734375 0q1.375 1.953125 2.140625 4.15625q0.765625 2.1875 0.765625 4.453125q0 1.90625 -0.609375 4.078125q-0.671875 2.4375 -2.25 4.8125l-1.765625 0z" fill-rule="nonzero"/><path fill="#000000" fill-opacity="0.0" d="m328.75626 483.1674l44.409454 0l0 35.02365l-44.409454 0z" fill-rule="evenodd"/><path fill="#000000" d="m339.0375 510.0874l0 -13.359375l2.6875 0l0 13.359375l-2.6875 0zm5.277069 0l0 -13.359375l9.15625 0l0 2.265625l-6.453125 0l0 3.15625l5.5625 0l0 2.265625l-5.5625 0l0 5.671875l-2.703125 0z" fill-rule="nonzero"/><path fill="#000000" fill-opacity="0.0" d="m706.6811 485.2467l55.93701 0" fill-rule="evenodd"/><path stroke="#000000" stroke-width="2.0" stroke-linejoin="round" stroke-linecap="butt" d="m706.6811 485.2467l43.93701 0" fill-rule="evenodd"/><path fill="#000000" stroke="#000000" stroke-width="2.0" stroke-linecap="butt" d="m750.6181 488.55017l9.076233 -3.3034668l-9.076233 -3.3034363z" fill-rule="evenodd"/><path fill="#000000" fill-opacity="0.0" d="m706.6811 524.9711l55.93701 0" fill-rule="evenodd"/><path stroke="#000000" stroke-width="2.0" stroke-linejoin="round" stroke-linecap="butt" d="m706.6811 524.9711l43.93701 0" fill-rule="evenodd"/><path fill="#000000" stroke="#000000" stroke-width="2.0" stroke-linecap="butt" d="m750.6181 528.2746l9.076233 -3.3034668l-9.076233 -3.3034668z" fill-rule="evenodd"/><path fill="#000000" fill-opacity="0.0" d="m755.1483 502.4357l55.93701 0l0 45.070892l-55.93701 0z" fill-rule="evenodd"/><path fill="#000000" d="m776.2577 527.6682q0.984375 0.703125 2.15625 1.125l-1.0 1.90625q-0.609375 -0.1875 -1.1875 -0.5q-0.125 -0.0625 -1.796875 -1.1875q-1.3125 0.578125 -2.90625 0.578125q-3.078125 0 -4.828125 -1.8125q-1.734375 -1.8125 -1.734375 -5.09375q0 -3.28125 1.75 -5.09375q1.75 -1.8125 4.75 -1.8125q2.96875 0 4.703125 1.8125q1.734375 1.8125 1.734375 5.09375q0 1.71875 -0.484375 3.03125q-0.359375 1.015625 -1.15625 1.953125zm-2.171875 -1.53125q0.515625 -0.609375 0.78125 -1.46875q0.265625 -0.875 0.265625 -1.984375q0 -2.3125 -1.03125 -3.453125q-1.015625 -1.15625 -2.671875 -1.15625q-1.640625 0 -2.671875 1.15625q-1.015625 1.140625 -1.015625 3.453125q0 2.328125 1.015625 3.5q1.03125 1.15625 2.59375 1.15625q0.578125 0 1.109375 -0.1875q-0.828125 -0.53125 -1.671875 -0.84375l0.75 -1.53125q1.34375 0.453125 2.546875 1.359375zm10.152039 7.140625l-1.75 0q-1.390625 -2.09375 -2.125 -4.359375q-0.734375 -2.28125 -0.734375 -4.40625q0 -2.625 0.90625 -4.96875q0.78125 -2.046875 1.984375 -3.765625l1.75 0q-1.25 2.75 -1.71875 4.6875q-0.46875 1.9375 -0.46875 4.109375q0 1.5 0.28125 3.0625q0.28125 1.5625 0.765625 2.96875q0.3125 0.9375 1.109375 2.671875zm6.4157715 -13.59375l0 2.03125l-1.75 0l0 3.90625q0 1.1875 0.046875 1.390625q0.046875 0.1875 0.21875 0.3125q0.1875 0.125 0.4375 0.125q0.359375 0 1.03125 -0.25l0.21875 2.0q-0.890625 0.375 -2.015625 0.375q-0.703125 0 -1.265625 -0.234375q-0.546875 -0.234375 -0.8125 -0.59375q-0.25 -0.375 -0.34375 -1.0q-0.09375 -0.453125 -0.09375 -1.8125l0 -4.21875l-1.171875 0l0 -2.03125l1.171875 0l0 -1.921875l2.578125 -1.5l0 3.421875l1.75 0zm1.0564575 13.59375q0.765625 -1.609375 1.0625 -2.484375q0.3125 -0.859375 0.578125 -1.984375q0.265625 -1.140625 0.390625 -2.15625q0.125 -1.015625 0.125 -2.078125q0 -2.171875 -0.46875 -4.109375q-0.453125 -1.9375 -1.703125 -4.6875l1.734375 0q1.375 1.953125 2.140625 4.15625q0.765625 2.1875 0.765625 4.453125q0 1.90625 -0.609375 4.078125q-0.671875 2.4375 -2.25 4.8125l-1.765625 0z" fill-rule="nonzero"/><path fill="#000000" fill-opacity="0.0" d="m758.3688 462.71127l44.409424 0l0 45.070892l-44.409424 0z" fill-rule="evenodd"/><path fill="#000000" d="m768.65 489.6313l0 -13.359375l2.6875 0l0 13.359375l-2.6875 0zm9.480164 3.921875l-1.75 0q-1.390625 -2.09375 -2.125 -4.359375q-0.734375 -2.28125 -0.734375 -4.40625q0 -2.625 0.90625 -4.96875q0.78125 -2.046875 1.984375 -3.765625l1.75 0q-1.25 2.75 -1.71875 4.6875q-0.46875 1.9375 -0.46875 4.109375q0 1.5 0.28125 3.0625q0.28125 1.5625 0.765625 2.96875q0.3125 0.9375 1.109375 2.671875zm6.4158325 -13.59375l0 2.03125l-1.75 0l0 3.90625q0 1.1875 0.046875 1.390625q0.046875 0.1875 0.21875 0.3125q0.1875 0.125 0.4375 0.125q0.359375 0 1.03125 -0.25l0.21875 2.0q-0.890625 0.375 -2.015625 0.375q-0.703125 0 -1.265625 -0.234375q-0.546875 -0.234375 -0.8125 -0.59375q-0.25 -0.375 -0.34375 -1.0q-0.09375 -0.453125 -0.09375 -1.8125l0 -4.21875l-1.171875 0l0 -2.03125l1.171875 0l0 -1.921875l2.578125 -1.5l0 3.421875l1.75 0zm1.0563965 13.59375q0.765625 -1.609375 1.0625 -2.484375q0.3125 -0.859375 0.578125 -1.984375q0.265625 -1.140625 0.390625 -2.15625q0.125 -1.015625 0.125 -2.078125q0 -2.171875 -0.46875 -4.109375q-0.453125 -1.9375 -1.703125 -4.6875l1.734375 0q1.375 1.953125 2.140625 4.15625q0.765625 2.1875 0.765625 4.453125q0 1.90625 -0.609375 4.078125q-0.671875 2.4375 -2.25 4.8125l-1.765625 0z" fill-rule="nonzero"/><path fill="#000000" fill-opacity="0.0" d="m513.8994 504.0735l55.93701 0" fill-rule="evenodd"/><path stroke="#000000" stroke-width="2.0" stroke-linejoin="round" stroke-linecap="butt" d="m513.8994 504.0735l43.93701 0" fill-rule="evenodd"/><path fill="#000000" stroke="#000000" stroke-width="2.0" stroke-linecap="butt" d="m557.8364 507.37695l9.076172 -3.3034668l-9.076172 -3.3034668z" fill-rule="evenodd"/><path fill="#000000" fill-opacity="0.0" d="m481.45312 486.5611l44.409424 0l0 35.02362l-44.409424 0z" fill-rule="evenodd"/><path fill="#000000" d="m491.73438 513.4811l0 -13.3593445l2.6875 0l0 13.3593445l-2.6875 0zm5.2770386 0l0 -13.3593445l9.15625 0l0 2.265625l-6.453125 0l0 3.15625l5.5625 0l0 2.265625l-5.5625 0l0 5.6718445l-2.703125 0z" fill-rule="nonzero"/><path fill="#000000" fill-opacity="0.0" d="m612.437 427.3176l0 43.307068" fill-rule="evenodd"/><path stroke="#000000" stroke-width="2.0" stroke-linejoin="round" stroke-linecap="butt" d="m612.437 427.3176l0 31.307068" fill-rule="evenodd"/><path fill="#000000" stroke="#000000" stroke-width="2.0" stroke-linecap="butt" d="m609.13354 458.62466l3.3034668 9.076202l3.3034668 -9.076202z" fill-rule="evenodd"/><path fill="#000000" fill-opacity="0.0" d="m590.9596 393.30966l59.62201 0l0.03149414 40.346466l-59.62201 0z" fill-rule="evenodd"/><path fill="#000000" d="m601.4181 420.22968l-0.010314941 -13.25l2.6875 0l0.008544922 11.0l6.703125 0l0.0017700195 2.25l-9.390625 0zm10.765808 -6.59375q-0.0015869141 -2.046875 0.6067505 -3.421875q0.4522705 -1.03125 1.2329102 -1.828125q0.79626465 -0.8125 1.7334595 -1.203125q1.2495728 -0.53125 2.8745728 -0.53125q2.953125 0 4.720154 1.828125q1.7827148 1.828125 1.7852783 5.09375q0.0025024414 3.234375 -1.7617188 5.0625q-1.7485352 1.828125 -4.686035 1.828125q-2.984375 0 -4.751404 -1.8125q-1.7514648 -1.828125 -1.7539673 -5.015625zm2.781189 -0.09375q0.0017700195 2.265625 1.0495605 3.4375q1.0477905 1.171875 2.6571655 1.171875q1.609375 0 2.6397095 -1.15625q1.0459595 -1.171875 1.0441895 -3.484375q-0.0018310547 -2.296875 -1.0183105 -3.421875q-1.0009155 -1.140625 -2.6727905 -1.140625q-1.671875 0 -2.6865845 1.15625q-1.0147095 1.140625 -1.0129395 3.4375z" fill-rule="nonzero"/></g></svg>