<?xml version="1.0" encoding="UTF-8" standalone="no"?>
<!-- Created with Inkscape (http://www.inkscape.org/) -->

<svg
   width="186.79584mm"
   height="135.73125mm"
   viewBox="0 0 186.79584 135.73125"
   version="1.1"
   id="svg1"
   inkscape:version="1.4.2 (ebf0e94, 2025-05-08)"
   sodipodi:docname="250608 Inflation M2.svg"
   xmlns:inkscape="http://www.inkscape.org/namespaces/inkscape"
   xmlns:sodipodi="http://sodipodi.sourceforge.net/DTD/sodipodi-0.dtd"
   xmlns="http://www.w3.org/2000/svg"
   xmlns:svg="http://www.w3.org/2000/svg">
  <sodipodi:namedview
     id="namedview1"
     pagecolor="#505050"
     bordercolor="#eeeeee"
     borderopacity="1"
     inkscape:showpageshadow="0"
     inkscape:pageopacity="0"
     inkscape:pagecheckerboard="0"
     inkscape:deskcolor="#d1d1d1"
     inkscape:document-units="mm"
     inkscape:zoom="0.71891835"
     inkscape:cx="271.93631"
     inkscape:cy="181.5227"
     inkscape:window-width="1920"
     inkscape:window-height="1009"
     inkscape:window-x="-8"
     inkscape:window-y="-8"
     inkscape:window-maximized="1"
     inkscape:current-layer="g38" />
  <defs
     id="defs1">
    <clipPath
       id="clip0">
      <rect
         x="838"
         y="27"
         width="706"
         height="513"
         id="rect1" />
    </clipPath>
  </defs>
  <g
     inkscape:label="Layer 1"
     inkscape:groupmode="layer"
     id="layer1"
     transform="translate(-22.225001,25.135417)">
    <g
       clip-path="url(#clip0)"
       transform="matrix(0.26458333,0,0,0.26458333,-199.49583,-32.279167)"
       id="g48">
      <rect
         x="838"
         y="27"
         width="705"
         height="512"
         fill="#ffffff"
         id="rect2" />
      <g
         id="g2">
        <path
           d="m 898.5,435.5 h 616 m -616,-37 h 616 m -616,-38 h 616 m -616,-38 h 616 m -616,-38 h 616 m -616,-37 h 616 m -616,-38 h 616 m -616,-38 h 616 m -616,-38 h 616 m -616,-37.9999 h 616"
           stroke="#f0f0f0"
           stroke-linejoin="round"
           stroke-miterlimit="10"
           fill="none"
           id="path2" />
      </g>
      <g
         id="g3">
        <path
           d="m 898.5,417.5 h 616 m -616,-38 h 616 m -616,-38 h 616 m -616,-38 h 616 m -616,-38 h 616 m -616,-37 h 616 m -616,-38 h 616 m -616,-38 h 616 m -616,-38 h 616 m -616,-36.9999 h 616"
           stroke="#d9d9d9"
           stroke-linejoin="round"
           stroke-miterlimit="10"
           fill="none"
           id="path3" />
      </g>
      <g
         id="g4">
        <path
           d="M 898.5,77.5001 V 454.5 m 22,-376.9999 V 454.5 m 22,-376.9999 V 454.5 m 22,-376.9999 V 454.5 m 22,-376.9999 V 454.5 m 22,-376.9999 V 454.5 m 22,-376.9999 V 454.5 m 22,-376.9999 V 454.5 m 22,-376.9999 V 454.5 m 22,-376.9999 V 454.5 m 22,-376.9999 V 454.5 m 22,-376.9999 V 454.5 m 22,-376.9999 V 454.5 m 22,-376.9999 V 454.5 m 22,-376.9999 V 454.5 m 22,-376.9999 V 454.5 m 22,-376.9999 V 454.5 m 22,-376.9999 V 454.5 m 22,-376.9999 V 454.5 m 22,-376.9999 V 454.5 m 22,-376.9999 V 454.5 m 22,-376.9999 V 454.5 m 22,-376.9999 V 454.5 m 22,-376.9999 V 454.5 m 22,-376.9999 V 454.5 m 22,-376.9999 V 454.5 m 22,-376.9999 V 454.5 m 22,-376.9999 V 454.5 m 22,-376.9999 V 454.5"
           stroke="#d9d9d9"
           stroke-linejoin="round"
           stroke-miterlimit="10"
           fill="none"
           id="path4" />
      </g>
      <g
         id="g5">
        <path
           d="m 898.5,454.5 h 616"
           stroke="#d9d9d9"
           stroke-linejoin="round"
           stroke-miterlimit="10"
           fill="none"
           fill-rule="evenodd"
           id="path5" />
      </g>
      <g
         id="g6">
        <path
           d="m 898.5,454.5 v 5 m 22,-5 v 5 m 22,-5 v 5 m 22,-5 v 5 m 22,-5 v 5 m 22,-5 v 5 m 22,-5 v 5 m 22,-5 v 5 m 22,-5 v 5 m 22,-5 v 5 m 22,-5 v 5 m 22,-5 v 5 m 22,-5 v 5 m 22,-5 v 5 m 22,-5 v 5 m 22,-5 v 5 m 22,-5 v 5 m 22,-5 v 5 m 22,-5 v 5 m 22,-5 v 5 m 22,-5 v 5 m 22,-5 v 5 m 22,-5 v 5 m 22,-5 v 5 m 22,-5 v 5 m 22,-5 v 5 m 22,-5 v 5 m 22,-5 v 5 m 22,-5 v 5"
           stroke="#d9d9d9"
           stroke-linejoin="round"
           stroke-miterlimit="10"
           fill="none"
           id="path6" />
      </g>
      <g
         id="g7">
        <path
           d="m 898.5,420.5 2,-1 1,-2 1,-3 h 1 l 1,-2 1,-1 1,-2 1,-4 1,-4 1,-6 2,-3 1,-5 1,-4 1,-4 1,-3 1,4 1,8 1,8 1,5 1,1 2,-4 1,-1 1,1 1,3 1,4 1,6 1,4 h 1 l 1,-2 1,-2 2,-2 h 1 l 1,2 1,1 1,-1 1,-1 1,-3 1,-4 1,-3 1,-1 h 2 l 1,1 1,2 h 1 1 l 1,1 1,-1 1,1 1,-1 1,-3 h 2 l 1,2 1,1 1,1 1,-2 1,-4 1,-6 1,-5 1,-2 h 1 l 2,1 1,2 1,-2 1,-3 1,-3 1,-6 1,-3 1,-2 h 1 l 1,2 2,-1 1,1 1,-5 1,-4 1,-2 1,-4 1,-3 1,-1 1,-1 1,-1 2,-1 1,-4 1,-3 1,-2 1,-2 1,-3 1,-2 h 1 l 1,2 1,4 2,2 h 1 l 1,-1 1,-2 1,1 1,1 1,1 1,1 h 1 l 1,1 2,1 1,1 1,1 1,-1 1,-1 1,-2 h 1 l 1,1 1,2 1,2 2,1 1,-2 h 1 l 1,-1 1,-1 1,1 1,-1 1,-2 h 1 l 1,-2 2,-4 1,-4 1,-4 1,-8 1,-7 1,-13 1,-14 1,-9 1,-7 1,-2 2,-5 1,-7 1,-8 1,-9 1,-9 1,-9 1,-12 1,-13 1,-7 1,2 2,14 1,21 1,22 1,16 1,10 1,9 1,6 1,4 1,-1 1,-3 1,-1 2,-1 1,2 1,3 1,3 1,2 1,2 1,1 h 1 l 1,2 1,4 2,4 1,5 1,7 1,8 1,11 1,11 1,7 1,4 1,1 1,2 2,6 1,6 1,8 1,8 1,8 1,11 1,13 1,11 1,3 1,-4 2,-8 1,-10 1,-4 1,-1 1,1 1,2 1,2 1,6 1,5 1,1 h 2 l 1,-4 1,-5 1,-4 1,-2 1,-1 1,1 1,1 1,1 1,-1 2,1 1,-2 1,-2 1,-3 1,-5 1,-4 1,-1 1,1 1,2 1,3 2,1 1,1 h 1 l 1,1 1,-1 1,-1 1,-2 1,-3 1,-4 1,-6 2,-8 1,-10 1,-10 1,-12 1,-12 1,-10 1,-8 1,-8 1,-5 1,-1 h 2 l 1,3 1,4 1,2 1,2 1,1 1,1 h 1 l 1,-2 1,-5 2,-7 1,-10 1,-11 1,-8 1,-6 1,-3 1,-3 1,-4 1,-5 1,-5 2,-1 h 1 l 1,2 1,4 1,3 1,4 1,2 h 1 l 1,-1 1,-2 2,-1 1,1 1,3 1,5 1,5 1,3 1,3 1,2 1,2 1,2 2,2 1,2 1,1 1,1 1,1 h 1 1 l 1,1 1,1 1,3 2,3 1,5 1,7 1,5 1,4 1,2 1,2 1,3 1,2 1,3 2,1 h 1 l 1,-1 1,-2 1,-2 1,-2 h 1 l 1,1 1,2 1,3 2,3 1,2 1,2 h 1 l 1,-1 h 1 1 1 l 1,1 h 1 l 2,-1 h 1 1 1 1 1 1 1 1 1 2 1 l 1,-1 1,1 h 1 1 1 l 1,-1 1,-2 1,-1 2,-2 1,-1 1,-1 1,-2 1,-2 1,-2 1,-2 1,-1 1,-2 1,-2 2,-2 1,-2 1,-2 1,-1 1,-1 1,-1 1,-1 1,-2 1,-1 1,-3 1,-3 2,-3 1,-3 1,-4 1,-5 1,-4 1,-4 1,-4 1,-2 1,-1 1,-1 2,-1 h 1 1 l 1,-1 1,-2 1,-1 1,-1 1,-1 1,-1 1,-2 2,-3 1,-2 1,-1 1,-2 1,-1 1,-2 1,-2 1,-3 1,-3 1,-2 2,-2 1,-2 1,-1 1,-1 h 1 l 1,2 1,1 1,2 1,2 1,2"
           stroke="#2f5597"
           stroke-width="3"
           stroke-linecap="round"
           stroke-linejoin="round"
           stroke-miterlimit="10"
           fill="none"
           id="path7" />
      </g>
      <g
         id="g8">
        <path
           d="m 898.5,275.5 2,-5 1,-5 1,-4 1,-3 1,-3 1,-3 1,-3 1,-3 1,-2 h 1 l 2,-1 1,-1 1,-1 1,-1 1,1 1,3 1,3 1,3 1,3 1,3 2,4 1,7 1,7 1,4 1,1 1,-2 1,-2 1,-1 1,3 1,6 2,9 1,6 1,5 1,2 1,-2 1,-2 1,-2 1,-1 h 1 l 1,2 2,4 1,6 1,5 1,3 1,2 h 1 l 1,-1 1,-3 1,-4 1,-6 2,-6 1,-6 1,-7 1,-6 1,-7 1,-4 1,-1 1,1 h 1 l 1,-2 2,-5 1,-7 1,-6 1,-4 1,-1 1,-1 h 1 l 1,-2 1,-2 1,-4 2,-4 1,-3 1,-3 1,-1 1,-1 1,-2 1,-3 1,-3 1,-3 1,-3 2,-3 1,-3 1,-3 1,-2 1,-1 h 1 l 1,3 1,8 1,11 1,10 2,7 1,3 h 1 l 1,-1 1,1 1,1 h 1 l 1,1 1,3 1,3 2,3 1,3 1,2 1,1 1,1 1,1 h 1 l 1,1 1,1 1,1 2,2 1,2 1,1 1,1 1,1 1,2 1,2 1,2 1,1 1,-3 2,-6 1,-8 1,-7 1,-7 1,-4 1,-7 1,-7 1,-6 1,-10 1,-5 2,-3 1,-4 1,-1 1,-4 1,-6 1,-6 1,-7 1,-6 1,-2 1,3 2,9 1,12 1,13 1,12 1,9 1,4 h 1 l 1,-1 1,-4 1,-2 h 1 2 l 1,2 1,2 h 1 l 1,-1 1,-2 1,-2 1,-1 1,2 1,4 2,5 1,6 1,8 1,5 1,6 1,6 1,3 1,3 1,2 1,2 2,4 1,6 1,7 1,6 1,8 1,8 1,7 1,6 1,4 1,2 h 2 l 1,1 1,5 1,7 1,11 1,11 1,8 1,9 1,9 1,7 2,6 1,2 1,-1 1,-2 1,-1 1,-2 1,-1 1,-2 1,-2 1,-2 2,-3 1,-4 1,-5 1,-5 1,-2 h 1 l 1,2 1,4 1,3 1,2 2,-1 1,-2 1,-4 1,-5 1,-6 1,-7 1,-8 1,-8 1,-8 1,-11 2,-11 1,-12 1,-15 1,-14 1,-16 1,-18 1,-17 1,-21 1,-22 1,-21 2,-17 1,-9 1,-7 1,-2 1,-6 1,-6 1,-5 1,-3 1,-1 1,3 2,3 1,5 1,6 1,5 1,5 1,4 1,4 1,3 1,5 1,7 2,8 1,8 1,7 1,8 1,8 1,6 1,6 1,5 1,4 1,4 2,5 1,4 1,3 1,2 1,2 1,4 1,4 1,7 1,7 1,7 2,6 1,6 1,5 1,4 1,6 1,5 1,5 1,6 1,4 1,4 2,4 1,3 1,2 1,2 1,1 1,1 1,1 h 1 l 1,-1 1,-3 2,-3 1,-4 1,-3 1,-2 1,-3 1,-1 h 1 1 l 1,-1 1,-1 2,-2 1,-2 1,-1 1,-2 1,-1 1,-2 1,-2 1,-2 1,-2 1,-3 2,-3 1,-2 1,-3 1,-2 1,-2 1,-2 1,-2 1,-2 1,-3 1,-3 2,-2 1,-2 1,-1 h 1 l 1,-1 1,-2 1,-3 1,-3 1,-2 1,-1 2,-1 h 1 l 1,-1 1,1 1,1 1,2 1,1 1,1 h 1 l 1,-2 2,-3 1,-4 1,-4 1,-4 1,-2 1,-3 1,-4 1,-2 1,-2 1,-1 1,1 2,1 1,1 1,2 1,1 1,2 h 1 l 1,-2 1,-3 1,-4 1,-3 2,-4 1,-4 1,-5 1,-4 1,-3 1,-1 h 1 1 1 l 1,1 2,1 h 1 l 1,-1 1,-1 h 1 1 l 1,1 1,1 h 1 l 1,1 2,1 1,1 1,1 1,1 1,1 1,1 1,-2 1,-2 1,-2 1,-3"
           stroke="#ed7d31"
           stroke-width="3"
           stroke-linecap="round"
           stroke-linejoin="round"
           stroke-miterlimit="10"
           fill="none"
           id="path8" />
      </g>
      <g
         id="g9">
        <path
           d="m 1215.5,330.5 1,2 1,2 1,1 2,1 h 1 1 l 1,-1 1,-1 1,-2 h 1 1 l 1,2 1,3 2,3 1,2 1,2 h 1 l 1,1 h 1 1 l 1,1 h 1 1 2 1 l 1,-1 h 1 1 l 1,-1 h 1 1 1 l 1,1 h 2 1 1 1 l 1,1 h 1 l 1,-1 h 1 l 1,-1 1,-2 2,-1 1,-1 1,-2 1,-2 1,-2 1,-2 1,-2 1,-2 1,-2 1,-2 2,-2 1,-2 1,-2 1,-2 1,-1 1,-1 1,-2 1,-1 1,-2 1,-2 1,-3 2,-3 1,-4 1,-4 1,-5 1,-4 1,-5 1,-3 1,-3 1,-1 1,-1 2,-1 1,-1 1,-1 1,-1 1,-1 1,-2 1,-1 1,-1 1,-1 1,-2 2,-1 1,-2 1,-2 1,-2 1,-1 1,-2 1,-2 1,-2 1,-3 1,-3 2,-2 1,-1 1,-1 h 1 1 1 l 1,1 1,2 1,2 1,2 2,3 1,2 1,3 1,3 1,4 1,3 1,3 1,2 1,2 1,3 2,2 1,2 1,2 1,2 1,2 1,2 1,1 1,2 1,2 1,1 2,1 1,2 1,2 1,2 1,2 1,1 1,2 1,2 1,3 1,2 2,3 1,2 1,2 1,1 1,2 1,2 1,1 h 1 l 1,1 h 1 l 2,1 1,1 1,1 h 1 l 1,1 h 1 l 1,1 h 1 l 1,1 h 1 2 1 1 l 1,1 h 1 l 1,1 1,1 1,1 1,1 1,1 2,2 1,1 1,1 1,1 1,1 h 1 l 1,1 h 1 l 1,1 h 1 l 2,1 h 1 l 1,1 h 1 1 1 l 1,1 h 1 1 1 2 1 l 1,-1 h 1 l 1,-1 h 1 l 1,-1 h 1 l 1,-1 1,-1 h 2 l 1,-1 h 1 l 1,-1 h 1 l 1,-1 h 1 1 l 1,-1 h 1 2 1 l 1,1 1,1 1,1 h 1 l 1,1 h 1 1 l 1,1 h 2 1 l 1,-1 h 1 1 1 1 1 l 1,1 h 1 2 1 l 1,1 h 1 l 1,1 1,1 1,1 1,1 1,2 1,1 2,1 h 1 l 1,1 h 1 l 1,1 h 1 1 l 1,-1 h 1 1 2 l 1,-1 h 1 l 1,-1 h 1 1 1 1 1 l 1,-1 2,-2 1,-2 1,-3 1,-3 1,-3 1,-2 1,-2 1,-1 h 1 l 1,-1 h 1 2 1 l 1,-1 h 1"
           stroke="#4472c4"
           stroke-width="3"
           stroke-linecap="round"
           stroke-linejoin="round"
           stroke-miterlimit="10"
           fill="none"
           id="path9" />
      </g>
      <g
         id="g10">
        <path
           d="m 1268.5,245.5 1,2 1,1 1,1 h 1 l 1,-2 2,-4 1,-4 1,-4 1,-3 1,-3 1,-3 1,-3 1,-2 1,-2 1,-1 1,2 2,1 1,1 1,2 1,2 1,1 h 1 l 1,-2 1,-3 1,-3 1,-4 2,-3 1,-4 1,-4 1,-4 1,-3 1,-1 h 1 l 1,1 1,1 1,1 2,1 h 1 1 l 1,-1 1,-1 h 1 1 l 1,-1 1,1 h 1 l 2,2 1,1 1,1 1,1 1,1 1,2 1,-1 1,-2 1,-2 1,-3 h 2 1 1 1 1 1 l 1,1 1,1 1,3 1,2 2,1 1,1 1,1 1,3 1,3 1,4 1,3 1,2 1,1 1,2 2,2 1,3 1,3 1,2 1,1 1,1 1,1 1,2 1,3 1,3 2,2 1,3 1,4 1,3 1,4 1,3 1,6 1,4 1,5 1,4 2,3 1,3 1,3 1,4 1,3 1,4 1,2 1,2 h 1 l 1,1 2,1 1,2 1,1 1,1 1,-1 1,-1 1,-1 1,-1 1,-1 1,-2 2,-2 1,-3 1,-2 h 1 l 1,-1 h 1 l 1,-1 1,-1 1,-2 1,-2 2,-3 1,-4 1,-4 1,-2 1,-3 1,-2 1,-3 1,-3 1,-3 1,-2 h 2 l 1,-1 1,-1 1,-1 1,-2 h 1 1 l 1,1 h 1 l 1,1 h 2 l 1,-1 h 1 1 l 1,-1 h 1 1 1 l 1,1 1,-1 2,-1 1,-1 1,-1 h 1 l 1,3 1,3 1,2 1,2 1,1 h 1 2 l 1,-1 1,-1 1,-2 h 1 l 1,-1 1,-1 h 1 l 1,1 h 1 l 2,-1 1,-1 h 1 1 l 1,-1 h 1 1 l 1,-1 h 1 l 1,-1 2,-1 h 1 1 1 l 1,1 h 1 l 1,2 1,1 1,2 1,2 2,3 1,2 1,1 1,-1 1,-3 1,-10 1,-11 1,-12 1,-12 1,-6 2,-2 1,-3 1,-1 1,2 1,3 1,6 1,8 1,8 1,8 1,6 1,5 2,4 1,2 1,2 1,1"
           stroke="#f68e48"
           stroke-width="3"
           stroke-linecap="round"
           stroke-linejoin="round"
           stroke-miterlimit="10"
           fill="none"
           id="path10" />
      </g>
      <g
         id="g11">
        <text
           font-family="Calibri, Calibri_MSFontService, sans-serif"
           font-weight="400"
           font-size="13px"
           transform="translate(849.347,459)"
           id="text10">-4.00%</text>
      </g>
      <g
         id="g12">
        <text
           font-family="Calibri, Calibri_MSFontService, sans-serif"
           font-weight="400"
           font-size="13px"
           transform="translate(849.347,421)"
           id="text11">-2.00%</text>
      </g>
      <g
         id="g13">
        <text
           font-family="Calibri, Calibri_MSFontService, sans-serif"
           font-weight="400"
           font-size="13px"
           transform="translate(853.427,383)"
           id="text12">0.00%</text>
      </g>
      <g
         id="g14">
        <text
           font-family="Calibri, Calibri_MSFontService, sans-serif"
           font-weight="400"
           font-size="13px"
           transform="translate(853.427,346)"
           id="text13">2.00%</text>
      </g>
      <g
         id="g15">
        <text
           font-family="Calibri, Calibri_MSFontService, sans-serif"
           font-weight="400"
           font-size="13px"
           transform="translate(853.427,308)"
           id="text14">4.00%</text>
      </g>
      <g
         id="g16">
        <text
           font-family="Calibri, Calibri_MSFontService, sans-serif"
           font-weight="400"
           font-size="13px"
           transform="translate(853.427,270)"
           id="text15">6.00%</text>
      </g>
      <g
         id="g17">
        <text
           font-family="Calibri, Calibri_MSFontService, sans-serif"
           font-weight="400"
           font-size="13px"
           transform="translate(853.427,232)"
           id="text16">8.00%</text>
      </g>
      <g
         id="g18">
        <text
           font-family="Calibri, Calibri_MSFontService, sans-serif"
           font-weight="400"
           font-size="13px"
           transform="translate(846.667,195)"
           id="text17">10.00%</text>
      </g>
      <g
         id="g19">
        <text
           font-family="Calibri, Calibri_MSFontService, sans-serif"
           font-weight="400"
           font-size="13px"
           transform="translate(846.667,157)"
           id="text18">12.00%</text>
      </g>
      <g
         id="g20">
        <text
           font-family="Calibri, Calibri_MSFontService, sans-serif"
           font-weight="400"
           font-size="13px"
           transform="translate(846.667,119)"
           id="text19">14.00%</text>
      </g>
      <g
         id="g21">
        <text
           font-family="Calibri, Calibri_MSFontService, sans-serif"
           font-weight="400"
           font-size="13px"
           transform="translate(846.667,81)"
           id="text20">16.00%</text>
      </g>
      <g
         id="g22">
        <text
           font-family="Calibri, Calibri_MSFontService, sans-serif"
           font-weight="400"
           font-size="13px"
           transform="translate(885.454,476)"
           id="text21">1880</text>
      </g>
      <g
         id="g23">
        <text
           font-family="Calibri, Calibri_MSFontService, sans-serif"
           font-weight="400"
           font-size="13px"
           transform="translate(929.435,476)"
           id="text22">1890</text>
      </g>
      <g
         id="g24">
        <text
           font-family="Calibri, Calibri_MSFontService, sans-serif"
           font-weight="400"
           font-size="13px"
           transform="translate(973.415,476)"
           id="text23">1900</text>
      </g>
      <g
         id="g25">
        <text
           font-family="Calibri, Calibri_MSFontService, sans-serif"
           font-weight="400"
           font-size="13px"
           transform="translate(1017.39,476)"
           id="text24">1910</text>
      </g>
      <g
         id="g26">
        <text
           font-family="Calibri, Calibri_MSFontService, sans-serif"
           font-weight="400"
           font-size="13px"
           transform="translate(1061.37,476)"
           id="text25">1920</text>
      </g>
      <g
         id="g27">
        <text
           font-family="Calibri, Calibri_MSFontService, sans-serif"
           font-weight="400"
           font-size="13px"
           transform="translate(1105.35,476)"
           id="text26">1930</text>
      </g>
      <g
         id="g28">
        <text
           font-family="Calibri, Calibri_MSFontService, sans-serif"
           font-weight="400"
           font-size="13px"
           transform="translate(1149.33,476)"
           id="text27">1940</text>
      </g>
      <g
         id="g29">
        <text
           font-family="Calibri, Calibri_MSFontService, sans-serif"
           font-weight="400"
           font-size="13px"
           transform="translate(1193.31,476)"
           id="text28">1950</text>
      </g>
      <g
         id="g30">
        <text
           font-family="Calibri, Calibri_MSFontService, sans-serif"
           font-weight="400"
           font-size="13px"
           transform="translate(1237.29,476)"
           id="text29">1960</text>
      </g>
      <g
         id="g31">
        <text
           font-family="Calibri, Calibri_MSFontService, sans-serif"
           font-weight="400"
           font-size="13px"
           transform="translate(1281.27,476)"
           id="text30">1970</text>
      </g>
      <g
         id="g32">
        <text
           font-family="Calibri, Calibri_MSFontService, sans-serif"
           font-weight="400"
           font-size="13px"
           transform="translate(1325.26,476)"
           id="text31">1980</text>
      </g>
      <g
         id="g33">
        <text
           font-family="Calibri, Calibri_MSFontService, sans-serif"
           font-weight="400"
           font-size="13px"
           transform="translate(1369.24,476)"
           id="text32">1990</text>
      </g>
      <g
         id="g34">
        <text
           font-family="Calibri, Calibri_MSFontService, sans-serif"
           font-weight="400"
           font-size="13px"
           transform="translate(1413.22,476)"
           id="text33">2000</text>
      </g>
      <g
         id="g35">
        <text
           font-family="Calibri, Calibri_MSFontService, sans-serif"
           font-weight="400"
           font-size="13px"
           transform="translate(1457.2,476)"
           id="text34">2010</text>
      </g>
      <g
         id="g36">
        <text
           font-family="Calibri, Calibri_MSFontService, sans-serif"
           font-weight="400"
           font-size="13px"
           transform="translate(1501.18,476)"
           id="text35">2020</text>
      </g>
      <g
         id="g37"
         transform="translate(-2)">
        <text
           font-family="Calibri, Calibri_MSFontService, sans-serif"
           font-weight="700"
           font-size="19px"
           transform="translate(1000.63,56)"
           id="text36">M2 Growth and Inflation (10</text>
      </g>
      <g
         id="g38">
        <text
           font-family="Calibri, Calibri_MSFontService, sans-serif"
           font-weight="700"
           font-size="19px"
           id="text37"
           x="1223.5601"
           y="56">-</text>
      </g>
      <g
         id="g39"
         transform="translate(2)">
        <text
           font-family="Calibri, Calibri_MSFontService, sans-serif"
           font-weight="700"
           font-size="19px"
           transform="translate(1227.27,56)"
           id="text38">year averages, USA)</text>
      </g>
      <g
         id="g40">
        <path
           d="m 984.5,499.5 h 25"
           stroke="#2f5597"
           stroke-width="3"
           stroke-linecap="round"
           stroke-linejoin="round"
           stroke-miterlimit="10"
           fill="none"
           fill-rule="evenodd"
           id="path39" />
      </g>
      <g
         id="g41">
        <text
           font-family="Calibri, Calibri_MSFontService, sans-serif"
           font-weight="400"
           font-size="12px"
           transform="translate(1012.63,503)"
           id="text40">Inflation (GNP Deflator, NBER)</text>
      </g>
      <g
         id="g42">
        <path
           d="m 1194.5,499.5 h 26"
           stroke="#ed7d31"
           stroke-width="3"
           stroke-linecap="round"
           stroke-linejoin="round"
           stroke-miterlimit="10"
           fill="none"
           fill-rule="evenodd"
           id="path41" />
      </g>
      <g
         id="g43">
        <text
           font-family="Calibri, Calibri_MSFontService, sans-serif"
           font-weight="400"
           font-size="12px"
           transform="translate(1222.94,503)"
           id="text42">Growth in money supply (M2, NBER)</text>
      </g>
      <g
         id="g44">
        <path
           d="m 984.5,521.5 h 25"
           stroke="#4472c4"
           stroke-width="3"
           stroke-linecap="round"
           stroke-linejoin="round"
           stroke-miterlimit="10"
           fill="none"
           fill-rule="evenodd"
           id="path43" />
      </g>
      <g
         id="g45">
        <text
           font-family="Calibri, Calibri_MSFontService, sans-serif"
           font-weight="400"
           font-size="12px"
           transform="translate(1012.63,525)"
           id="text44">Inflation (GDP Deflator, FRED)</text>
      </g>
      <g
         id="g46">
        <path
           d="m 1194.5,521.5 h 26"
           stroke="#f68e48"
           stroke-width="3"
           stroke-linecap="round"
           stroke-linejoin="round"
           stroke-miterlimit="10"
           fill="none"
           fill-rule="evenodd"
           id="path45" />
      </g>
      <g
         id="g47">
        <text
           font-family="Calibri, Calibri_MSFontService, sans-serif"
           font-weight="400"
           font-size="12px"
           transform="translate(1222.94,525)"
           id="text46">Growth in money supply (M2, FRED)</text>
      </g>
      <rect
         x="838.5"
         y="27.500099"
         width="705"
         height="512"
         stroke="#d9d9d9"
         stroke-linejoin="round"
         stroke-miterlimit="10"
         fill="none"
         id="rect47" />
    </g>
  </g>
</svg>
