<?xml version="1.0" encoding="iso-8859-1"?>
<!DOCTYPE svg PUBLIC "-//W3C//DTD SVG 1.0//EN" "http://www.w3.org/TR/2001/REC-SVG-20010904/DTD/svg10.dtd">
<!-- Creator: CorelDRAW -->
<svg xmlns="http://www.w3.org/2000/svg" xmlns:odm="http://product.corel.com/CGS/11/cddns/" xml:space="preserve" width="5.19685in" height="3.14961in" style="shape-rendering:geometricPrecision; text-rendering:geometricPrecision; image-rendering:optimizeQuality; fill-rule:evenodd"
     viewBox="0 0 5196 3150">
 <defs>
  <style type="text/css">
   <![CDATA[
    .str2 {stroke:#1F1A17;stroke-width:14}
    .str1 {stroke:#1F1A17;stroke-width:28}
    .str3 {stroke:#822829;stroke-width:28}
    .str0 {stroke:#DA2724;stroke-width:28}
    .fil0 {fill:none}
    .fil2 {fill:#838281}
    .fil3 {fill:#131516}
    .fil1 {fill:#DA2724}
   ]]>
  </style>
 </defs>
 <g id="Ebene 1">
  <path class="fil0 str0" d="M19 2837l3755 0"/>
  <path class="fil0 str0" d="M3781 2834l0 -2822"/>
  <path class="fil0 str1" d="M4074 2545l-585 584"/>
  <path class="fil0 str2" d="M3489 3129l0 -584 585 0"/>
  <path class="fil0 str0" d="M1222 1071l0 1770"/>
  <path class="fil0 str0" d="M1226 1065l3648 0"/>
  <path class="fil0 str1" d="M1515 773l-585 584"/>
  <path class="fil0 str2" d="M1514 773l0 584 -584 0"/>
  <g>
   <path class="fil1" d="M358 2823l0 0 0 28 0 0z"/>
   <path class="fil1" d="M456 2837l-194 -84 0 0 2 6 2 5 3 5 2 5 2 6 1 5 2 5 1 5 1 5 2 6 0 5 1 5 1 5 0 5 0 6 0 5 0 5 0 5 0 5 -1 6 -1 5 0 5 -2 5 -1 5 -1 6 -2 5 -1 5 -2 5 -2 6 -3 5 -2 5 -2 5 194 -83 0 0z"/>
  </g>
  <g>
   <path class="fil1" d="M4520 1051l-1 0 0 28 1 0z"/>
   <path class="fil1" d="M4618 1065l-195 -83 0 0 3 5 2 5 3 5 2 6 1 5 2 5 2 5 1 5 1 6 1 5 1 5 1 5 1 6 0 5 0 5 0 5 0 5 0 6 0 5 -1 5 -1 5 -1 5 -1 6 -1 5 -1 5 -2 5 -2 5 -1 6 -2 5 -3 5 -2 5 -3 5 195 -83 0 0z"/>
  </g>
  <g>
   <path class="fil1" d="M3767 307l0 0 28 0 0 0z"/>
   <path class="fil1" d="M3781 209l-83 194 0 0 5 -2 5 -3 6 -2 5 -2 5 -2 5 -1 5 -2 6 -1 5 -2 5 -1 5 0 5 -1 6 -1 5 0 5 0 5 -1 5 1 6 0 5 0 5 1 5 1 6 0 5 1 5 2 5 1 5 2 6 1 5 2 5 2 5 2 5 3 6 2 -84 -194 0 0z"/>
  </g>
  <path class="fil0 str1" d="M4074 773l-585 584"/>
  <path class="fil0 str2" d="M3489 1357l0 -584 585 0"/>
  <path class="fil0 str2" d="M4074 773l0 584 -585 0"/>
  <path class="fil0 str1" d="M1515 2545l-585 584"/>
  <path class="fil0 str2" d="M930 3129l0 -584 584 0"/>
  <path class="fil0 str2" d="M1514 2545l0 584 -584 0"/>
  <rect class="fil2 str2" x="2088" y="908" width="787" height="315"/>
  <path class="fil0 str3" d="M2088 1065l788 0"/>
  <path class="fil0 str2" d="M2088 1045l0 40"/>
  <path class="fil0 str2" d="M2876 1045l0 40"/>
  <path class="fil3" d="M2412 1270l63 159 -135 0 64 -159 8 0zm31 140l-42 -107 -43 107 85 0z"/>
  <path class="fil3" d="M2531 1270l72 0 0 10 -4 0c-8,0 -14,1 -17,3 -2,2 -4,6 -4,13 19,1 34,7 46,17 11,9 17,22 17,36 0,16 -6,29 -17,39 -11,10 -27,15 -46,15 0,7 1,11 4,13 2,2 7,3 15,3l6 0 0 10 -72 0 0 -10 3 0c9,0 15,-1 17,-3 3,-2 4,-6 4,-13 -19,0 -35,-5 -46,-14 -11,-10 -17,-23 -17,-38 0,-12 4,-23 10,-31 7,-9 16,-16 27,-19 4,-1 8,-2 11,-3 4,-1 9,-2 15,-2 0,-7 -1,-11 -4,-13 -2,-2 -8,-3 -17,-3l-3 0 0 -10zm24 36c-12,0 -21,4 -28,12 -7,7 -10,18 -10,31 0,14 3,24 10,32 6,8 16,11 27,11l1 0 0 -86zm23 86l2 0c11,0 20,-3 26,-11 7,-7 10,-18 10,-31 0,-11 -2,-20 -5,-26 -4,-7 -9,-12 -16,-15 -3,-1 -6,-2 -9,-2 -3,0 -5,-1 -8,-1l0 86z"/>
  <path class="fil3" d="M4333 1394c-4,7 -8,13 -13,17 -6,5 -11,8 -17,8 -4,0 -10,-2 -17,-5 -4,-1 -9,-4 -16,-7 -5,-3 -8,-4 -10,-4 -6,0 -13,7 -20,20l-11 -12c8,-18 19,-27 30,-27 5,0 11,1 17,4 5,2 10,5 17,8 4,2 7,3 10,3 6,0 12,-6 19,-18l11 13z"/>
  <path class="fil3" d="M4485 1445l-4 11c-10,5 -20,8 -30,8 -16,0 -28,-5 -37,-14 -8,-10 -12,-22 -12,-38 0,-15 3,-27 10,-34 1,-3 5,-5 10,-9 10,-7 17,-12 21,-13 3,-2 9,-2 16,-2 10,0 18,1 24,4l1 2c0,1 0,4 -1,10l-1 7c-1,2 -1,7 -1,15l-1 1 -7 0 -1 -1c0,-6 -1,-11 -2,-13 -3,-6 -9,-9 -18,-9 -15,0 -23,10 -23,30 0,14 3,26 9,34 7,9 15,13 27,13 7,0 13,-1 18,-4l2 2z"/>
  <path class="fil3" d="M4605 1405c0,26 -8,43 -26,52 -8,4 -18,7 -28,7 -17,0 -30,-5 -38,-15 -9,-10 -13,-23 -13,-41 0,-25 8,-42 25,-50 8,-4 18,-6 29,-6 23,0 38,8 46,24 3,8 5,17 5,29zm-30 9c0,-18 -2,-31 -6,-39 -4,-8 -10,-12 -18,-12 -14,0 -21,13 -21,39 0,34 8,50 24,50 10,0 16,-5 19,-16 1,-6 2,-13 2,-22z"/>
  <path class="fil3" d="M4705 1425c0,11 -4,21 -13,28 -9,7 -20,11 -34,11 -11,0 -21,-3 -33,-7l-1 -2c1,-6 1,-11 1,-15l1 -14 1 -1 6 0 2 1c0,8 0,13 0,15 7,7 15,11 25,11 6,0 11,-1 15,-4 4,-3 6,-8 6,-13 0,-6 -3,-11 -9,-13 -2,-1 -7,-2 -15,-4 -12,-2 -20,-5 -24,-8 -6,-5 -9,-12 -9,-22 0,-11 4,-19 12,-25 8,-7 18,-10 32,-10 12,0 21,2 29,5l1 2c-1,3 -2,12 -2,25l-1 1 -6 0 -2 -1c0,-5 0,-9 -1,-12 -5,-6 -11,-9 -20,-9 -6,0 -10,1 -14,4 -4,3 -5,6 -5,11 0,6 3,10 9,12 3,1 8,2 16,4 12,2 20,5 24,8 6,5 9,12 9,22z"/>
  <path class="fil3" d="M4778 1374c0,5 0,10 0,15l-1 1c-12,0 -22,-1 -30,-1 -9,0 -18,1 -30,1l-1 -1 0 -6 14 -14c11,-11 17,-19 21,-24 1,-3 3,-6 3,-9 1,-3 2,-5 2,-8 0,-11 -5,-17 -15,-17 -6,0 -10,3 -13,7 -1,2 -2,5 -3,10l-1 1 -4 0 0 -1 2 -23c6,-5 14,-8 24,-8 9,0 16,2 21,7 5,4 7,10 7,17 0,3 0,6 -1,8 -2,5 -4,10 -9,16 -3,4 -9,10 -16,17 -3,2 -7,6 -12,11l0 1 12 0c3,0 7,0 10,0l11 0c3,-1 6,-1 8,-1l1 1z"/>
  <path class="fil3" d="M2755 271c-3,8 -7,14 -12,18 -6,5 -12,8 -17,8 -5,0 -10,-2 -17,-5 -4,-2 -10,-4 -16,-7 -5,-3 -8,-4 -11,-4 -6,0 -12,7 -19,20l-11 -12c8,-18 18,-28 30,-28 4,0 10,2 17,5 4,2 10,5 16,8 5,2 8,3 11,3 5,0 12,-6 18,-18l11 12z"/>
  <path class="fil3" d="M2906 303c0,11 -5,21 -14,28 -8,7 -20,10 -34,10 -10,0 -21,-2 -32,-6l-2 -2c1,-6 2,-12 2,-15l0 -14 1 -1 7 0 1 1c0,8 1,13 1,14 6,8 14,12 24,12 7,0 12,-1 15,-4 4,-4 6,-8 6,-13 0,-6 -3,-11 -8,-13 -3,-1 -8,-2 -15,-4 -12,-2 -20,-5 -24,-8 -6,-5 -9,-13 -9,-22 0,-11 3,-19 11,-25 8,-7 19,-10 32,-10 12,0 22,1 29,5l1 2c-1,3 -1,12 -2,25l-1 1 -6 0 -1 -1c0,-5 -1,-9 -2,-12 -4,-6 -11,-9 -20,-9 -5,0 -10,1 -13,4 -4,3 -6,6 -6,11 0,6 3,10 9,12 3,1 8,2 16,4 13,2 21,5 25,8 6,5 9,12 9,22z"/>
  <path class="fil3" d="M2966 195c0,4 -2,8 -5,12 -3,3 -7,5 -12,5 -4,0 -8,-2 -11,-5 -4,-4 -5,-8 -5,-12 0,-5 1,-9 5,-12 3,-4 7,-5 11,-5 5,0 9,1 12,5 3,3 5,7 5,12zm15 141l-1 1c-7,0 -17,0 -30,0 -13,0 -23,0 -29,0l-1 -1 0 -6 1 -1c7,-1 11,-1 13,-2 1,-1 2,-2 2,-5 0,-10 1,-20 1,-30l0 -16c0,-14 -1,-22 -2,-25 -1,-1 -2,-2 -5,-3 -1,0 -4,0 -9,0l-1 -1 0 -6 1 -2c14,-1 28,-4 42,-9l2 2c-1,13 -1,24 -1,33l0 35c0,5 0,12 1,22 0,3 0,4 2,5 2,1 6,1 13,2l1 1 0 6z"/>
  <path class="fil3" d="M3118 336l-1 1c-8,0 -14,0 -20,0 -5,0 -12,0 -22,0l-1 -1c1,-16 2,-28 2,-37l0 -21c0,-18 -7,-27 -19,-27 -7,0 -12,3 -16,7 -3,4 -5,8 -5,12l0 20c0,19 1,30 2,35 0,2 4,3 12,4l1 1 0 6 -1 1c-6,0 -15,0 -27,0 -13,0 -23,0 -30,0l-1 -1 0 -6 1 -1c7,-1 11,-1 13,-2 1,-1 2,-2 2,-5 1,-10 1,-20 1,-30l0 -16c0,-14 0,-23 -1,-25 -1,-1 -3,-2 -5,-3 -1,0 -4,0 -10,0l-1 -1 0 -6 1 -2c13,-1 27,-4 42,-9l2 2 0 18 18 -16c5,-2 10,-2 16,-2 12,0 20,3 26,10 5,6 7,14 7,25 0,1 0,6 -1,15 0,9 0,15 0,19 0,11 0,18 1,21 0,3 1,5 2,5 1,1 5,2 11,2l1 1 0 6z"/>
  <path class="fil3" d="M3188 252c0,5 0,10 0,15l-1 1c-12,-1 -22,-1 -30,-1 -8,0 -18,0 -29,1l-1 -1 0 -6 13 -14c11,-11 18,-19 21,-24 2,-3 3,-6 4,-9 0,-3 1,-5 1,-8 0,-11 -5,-17 -15,-17 -6,0 -10,3 -13,7 -1,2 -2,5 -3,10l-1 1 -3 0 -1 -1 2 -23c6,-5 14,-8 24,-8 9,0 16,2 21,7 5,4 7,10 7,17 0,3 0,6 -1,8 -1,5 -4,10 -9,16 -3,4 -9,9 -16,17 -3,2 -7,6 -12,11l0 1 12 0c4,0 7,0 10,0l12 -1c3,0 5,0 7,0l1 1z"/>
  <g>
   <path class="fil3" d="M3475 432c-1,7 -1,13 0,18l-1 1c-15,0 -28,0 -37,0 -10,0 -22,0 -35,0l-1 -1 0 -7 16 -17c13,-13 21,-22 25,-29 2,-4 3,-7 4,-10 1,-3 2,-7 2,-10 0,-13 -6,-20 -18,-20 -7,0 -12,3 -16,8 -1,2 -2,6 -3,12l-1 1 -5 0 0 -1 3 -27c6,-7 16,-10 28,-10 11,0 19,2 25,8 6,5 9,12 9,21 0,3 -1,7 -2,10 -1,6 -5,12 -10,18 -4,5 -11,12 -20,20 -3,3 -8,8 -14,14l0 1 14 0c4,0 8,0 12,0l14 0c4,0 7,-1 10,-1l1 1z"/>
   <path class="fil3" d="M3347 65l63 159 -135 0 64 -159 8 0zm31 140l-42 -107 -43 107 85 0z"/>
   <path class="fil3" d="M3466 65l72 0 0 10 -4 0c-8,0 -14,1 -17,3 -2,2 -4,6 -4,12 19,2 35,8 46,18 11,9 17,21 17,36 0,16 -6,29 -17,39 -11,10 -27,15 -46,15 0,7 2,11 4,13 2,2 7,3 15,3l6 0 0 10 -72 0 0 -10 3 0c9,0 15,-1 17,-3 3,-2 4,-6 4,-13 -19,0 -35,-5 -46,-14 -11,-10 -17,-23 -17,-38 0,-12 4,-23 10,-32 7,-8 16,-15 27,-18 4,-1 8,-2 11,-3 4,-1 9,-2 15,-3 0,-6 -1,-10 -4,-12 -2,-2 -8,-3 -17,-3l-3 0 0 -10zm24 36c-12,0 -21,4 -28,12 -7,7 -10,18 -10,31 0,14 3,24 10,32 6,8 16,11 27,11l1 0 0 -86zm23 86l2 0c11,0 20,-3 26,-11 7,-8 10,-18 10,-31 0,-11 -2,-20 -5,-26 -4,-7 -9,-12 -16,-15 -3,-1 -6,-2 -9,-2 -3,-1 -5,-1 -8,-1l0 86z"/>
   <path class="fil0 str2" d="M3271 274l305 0"/>
  </g>
  <g>
   <path class="fil3" d="M5070 1554c0,7 -1,13 0,18l-1 2c-15,-1 -27,-1 -37,-1 -10,0 -21,0 -35,0l-1 -1 0 -7 17 -17c12,-13 20,-22 24,-29 2,-4 4,-7 5,-10 1,-3 1,-7 1,-10 0,-13 -6,-20 -18,-20 -6,0 -12,3 -16,8 0,2 -1,6 -3,12l-1 1 -4 0 -1 -1 3 -27c7,-7 16,-10 28,-10 11,0 20,2 26,8 5,5 8,12 8,21 0,3 -1,7 -1,10 -2,6 -5,12 -11,18 -4,5 -11,12 -19,20 -4,3 -8,8 -15,14l0 1 15 0c4,0 8,0 12,0l14 0c3,0 6,-1 9,-1l1 1z"/>
   <path class="fil3" d="M4943 1187l62 159 -135 0 65 -159 8 0zm30 140l-42 -107 -43 107 85 0z"/>
   <path class="fil3" d="M5062 1187l71 0 0 10 -3 0c-9,0 -15,1 -17,3 -3,2 -4,6 -4,12 19,2 34,8 45,18 12,9 17,22 17,36 0,16 -5,29 -17,39 -11,10 -26,15 -45,15 0,7 1,11 3,13 2,2 8,3 16,3l5 0 0 10 -71 0 0 -10 2 0c9,0 15,-1 18,-3 2,-2 4,-6 4,-13 -20,0 -35,-5 -47,-14 -11,-10 -16,-23 -16,-38 0,-12 3,-23 10,-32 6,-8 15,-15 27,-18 3,-1 7,-2 11,-3 3,-1 8,-2 15,-3 0,-6 -2,-10 -4,-12 -3,-2 -8,-3 -17,-3l-3 0 0 -10zm24 36c-13,0 -22,4 -29,12 -7,7 -10,18 -10,31 0,14 3,24 10,32 7,8 16,11 28,11l1 0 0 -86zm23 86l1 0c11,0 20,-3 27,-11 6,-8 9,-18 9,-31 0,-11 -1,-20 -5,-26 -3,-7 -9,-12 -16,-15 -3,-1 -6,-2 -8,-2 -3,0 -6,-1 -8,-1l0 86z"/>
   <path class="fil0 str2" d="M4866 1396l305 0"/>
  </g>
 </g>
</svg>
