<?xml version="1.0" encoding="UTF-8" standalone="no"?>
<svg
   xmlns:dc="http://purl.org/dc/elements/1.1/"
   xmlns:cc="http://creativecommons.org/ns#"
   xmlns:rdf="http://www.w3.org/1999/02/22-rdf-syntax-ns#"
   xmlns:svg="http://www.w3.org/2000/svg"
   xmlns="http://www.w3.org/2000/svg"
   xmlns:xlink="http://www.w3.org/1999/xlink"
   xmlns:sodipodi="http://sodipodi.sourceforge.net/DTD/sodipodi-0.dtd"
   xmlns:inkscape="http://www.inkscape.org/namespaces/inkscape"
   inkscape:version="1.0 (4035a4fb49, 2020-05-01)"
   sodipodi:docname="Motor_vehicle_deaths_in_the_US.svg"
   id="svg326"
   version="1.1"
   viewBox="0 0 691.50873 469.37076"
   height="469.37076"
   width="691.50873">
  <metadata
     id="metadata332">
    <rdf:RDF>
      <cc:Work
         rdf:about="">
        <dc:format>image/svg+xml</dc:format>
        <dc:type
           rdf:resource="http://purl.org/dc/dcmitype/StillImage" />
        <dc:title>Gnuplot</dc:title>
      </cc:Work>
    </rdf:RDF>
  </metadata>
  <defs
     id="defs330">
    <defs
       id="defs34">
      <circle
         cy="0"
         cx="0"
         id="gpDot"
         r="0.5"
         stroke-width="0.5" />
      <path
         id="gpPt0"
         stroke-width="0.19"
         stroke="currentColor"
         d="M -1,0 H 1 M 0,-1 v 2" />
      <path
         id="gpPt1"
         stroke-width="0.19"
         stroke="currentColor"
         d="M -1,-1 1,1 M 1,-1 -1,1" />
      <path
         id="gpPt2"
         stroke-width="0.19"
         stroke="currentColor"
         d="M -1,0 H 1 M 0,-1 v 2 m -1,-2 2,2 m -2,0 2,-2" />
      <rect
         id="gpPt3"
         stroke-width="0.19"
         stroke="currentColor"
         x="-1"
         y="-1"
         width="2"
         height="2" />
      <rect
         id="gpPt4"
         stroke-width="0.19"
         stroke="currentColor"
         fill="currentColor"
         x="-1"
         y="-1"
         width="2"
         height="2" />
      <circle
         id="gpPt5"
         stroke-width="0.19"
         stroke="currentColor"
         cx="0"
         cy="0"
         r="1" />
      <use
         height="100%"
         width="100%"
         y="0"
         x="0"
         xlink:href="#gpPt5"
         id="gpPt6"
         fill="currentColor"
         stroke="none" />
      <path
         id="gpPt7"
         stroke-width="0.19"
         stroke="currentColor"
         d="m 0,-1.33 -1.33,2 h 2.66 z" />
      <use
         height="100%"
         width="100%"
         y="0"
         x="0"
         xlink:href="#gpPt7"
         id="gpPt8"
         fill="currentColor"
         stroke="none" />
      <use
         height="100%"
         width="100%"
         y="0"
         x="0"
         xlink:href="#gpPt7"
         id="gpPt9"
         stroke="currentColor"
         transform="scale(-1)" />
      <use
         height="100%"
         width="100%"
         y="0"
         x="0"
         xlink:href="#gpPt9"
         id="gpPt10"
         fill="currentColor"
         stroke="none" />
      <use
         height="100%"
         width="100%"
         y="0"
         x="0"
         xlink:href="#gpPt3"
         id="gpPt11"
         stroke="currentColor"
         transform="rotate(45)" />
      <use
         height="100%"
         width="100%"
         y="0"
         x="0"
         xlink:href="#gpPt11"
         id="gpPt12"
         fill="currentColor"
         stroke="none" />
      <path
         id="gpPt13"
         stroke-width="0.19"
         stroke="currentColor"
         d="M 0,1.33 1.265,0.411 0.782,-1.067 -0.782,-1.076 -1.265,0.411 Z" />
      <use
         height="100%"
         width="100%"
         y="0"
         x="0"
         xlink:href="#gpPt13"
         id="gpPt14"
         fill="currentColor"
         stroke="none" />
      <filter
         id="textbox"
         filterUnits="objectBoundingBox"
         x="0"
         y="0"
         height="1"
         width="1">
        <feFlood
           flood-color="white"
           flood-opacity="1"
           result="bgnd"
           id="feFlood24" />
        <feComposite
           in="SourceGraphic"
           in2="bgnd"
           operator="atop"
           id="feComposite26" />
      </filter>
      <filter
         id="greybox"
         filterUnits="objectBoundingBox"
         x="0"
         y="0"
         height="1"
         width="1">
        <feFlood
           flood-color="lightgrey"
           flood-opacity="1"
           result="grey"
           id="feFlood29" />
        <feComposite
           in="SourceGraphic"
           in2="grey"
           operator="atop"
           id="feComposite31" />
      </filter>
    </defs>
  </defs>
  <sodipodi:namedview
     fit-margin-bottom="15"
     fit-margin-right="-72"
     fit-margin-left="20"
     fit-margin-top="15"
     inkscape:current-layer="svg326"
     inkscape:window-maximized="1"
     inkscape:window-y="51"
     inkscape:window-x="2247"
     inkscape:cy="321.39839"
     inkscape:cx="356.34182"
     inkscape:zoom="1.75"
     showgrid="false"
     id="namedview328"
     inkscape:window-height="1411"
     inkscape:window-width="2456"
     inkscape:pageshadow="2"
     inkscape:pageopacity="0"
     guidetolerance="10"
     gridtolerance="10"
     objecttolerance="10"
     borderopacity="1"
     bordercolor="#666666"
     pagecolor="#ffffff"
     inkscape:document-rotation="0" />
  <title
     id="title2">Gnuplot</title>
  <desc
     id="desc4">Produced by GNUPLOT 5.0 patchlevel 4 </desc>
  <rect
     x="63.508743"
     y="15"
     width="700"
     height="400"
     fill="none"
     id="rect6" />
  <g
     transform="translate(63.508747,15)"
     fill="none"
     color="#ffffff"
     stroke="currentColor"
     stroke-width="1"
     stroke-linecap="butt"
     stroke-linejoin="miter"
     id="g36" />
  <path
     id="path38"
     d="m 145.90874,359.8 h 10.5 m 500.3,0 h -10.5"
     stroke="#000000"
     style="color:#000000;fill:none;stroke-width:1;stroke-linecap:butt;stroke-linejoin:miter" />
  <g
     id="g44"
     text-anchor="end"
     font-size="14px"
     font-family="'Linux Biolinum'"
     fill="#000000"
     stroke="none"
     transform="translate(136.20874,368.10031)"
     style="color:#000000;stroke-width:1;stroke-linecap:butt;stroke-linejoin:miter">
    <text
       id="text42"
       style="font-size:21.3333px">0</text>
  </g>
  <path
     id="path48"
     d="m 145.90874,349 h 5.2 m 505.6,0 h -5.2 m -505.6,-10.9 h 5.2 m 505.6,0 h -5.2 m -505.6,-10.8 h 5.2 m 505.6,0 h -5.2 m -505.6,-10.9 h 5.2 m 505.6,0 h -5.2 m -505.6,-10.8 h 10.5 m 500.3,0 h -10.5"
     stroke="#000000"
     style="color:#000000;fill:none;stroke-width:1;stroke-linecap:butt;stroke-linejoin:miter" />
  <g
     id="g54"
     text-anchor="end"
     font-size="14px"
     font-family="'Linux Biolinum'"
     fill="#000000"
     stroke="none"
     transform="translate(136.20874,313.90031)"
     style="color:#000000;stroke-width:1;stroke-linecap:butt;stroke-linejoin:miter">
    <text
       id="text52"
       style="font-size:21.3333px">10000</text>
  </g>
  <path
     id="path58"
     d="m 145.90874,294.7 h 5.2 m 505.6,0 h -5.2 m -505.6,-10.8 h 5.2 m 505.6,0 h -5.2 m -505.6,-10.8 h 5.2 m 505.6,0 h -5.2 m -505.6,-10.9 h 5.2 m 505.6,0 h -5.2 m -505.6,-10.8 h 10.5 m 500.3,0 h -10.5"
     stroke="#000000"
     style="color:#000000;fill:none;stroke-width:1;stroke-linecap:butt;stroke-linejoin:miter" />
  <g
     id="g64"
     text-anchor="end"
     font-size="14px"
     font-family="'Linux Biolinum'"
     fill="#000000"
     stroke="none"
     transform="translate(136.20874,259.70031)"
     style="color:#000000;stroke-width:1;stroke-linecap:butt;stroke-linejoin:miter">
    <text
       id="text62"
       style="font-size:21.3333px">20000</text>
  </g>
  <path
     id="path68"
     d="m 145.90874,240.5 h 5.2 m 505.6,0 h -5.2 m -505.6,-10.8 h 5.2 m 505.6,0 h -5.2 m -505.6,-10.9 h 5.2 m 505.6,0 h -5.2 m -505.6,-10.8 h 5.2 m 505.6,0 h -5.2 m -505.6,-10.9 h 10.5 m 500.3,0 h -10.5"
     stroke="#000000"
     style="color:#000000;fill:none;stroke-width:1;stroke-linecap:butt;stroke-linejoin:miter" />
  <g
     id="g74"
     text-anchor="end"
     font-size="14px"
     font-family="'Linux Biolinum'"
     fill="#000000"
     stroke="none"
     transform="translate(136.20874,205.40031)"
     style="color:#000000;stroke-width:1;stroke-linecap:butt;stroke-linejoin:miter">
    <text
       id="text72"
       style="font-size:21.3333px">30000</text>
  </g>
  <path
     id="path78"
     d="m 145.90874,186.3 h 5.2 m 505.6,0 h -5.2 m -505.6,-10.8 h 5.2 m 505.6,0 h -5.2 m -505.6,-10.9 h 5.2 m 505.6,0 h -5.2 m -505.6,-10.8 h 5.2 m 505.6,0 h -5.2 m -505.6,-10.9 h 10.5 m 500.3,0 h -10.5"
     stroke="#000000"
     style="color:#000000;fill:none;stroke-width:1;stroke-linecap:butt;stroke-linejoin:miter" />
  <g
     id="g84"
     text-anchor="end"
     font-size="14px"
     font-family="'Linux Biolinum'"
     fill="#000000"
     stroke="none"
     transform="translate(136.20874,151.20031)"
     style="color:#000000;stroke-width:1;stroke-linecap:butt;stroke-linejoin:miter">
    <text
       id="text82"
       style="font-size:21.3333px">40000</text>
  </g>
  <path
     id="path88"
     d="m 145.90874,132.1 h 5.2 m 505.6,0 h -5.2 m -505.6,-10.9 h 5.2 m 505.6,0 h -5.2 m -505.6,-10.8 h 5.2 m 505.6,0 h -5.2 m -505.6,-10.8 h 5.2 m 505.6,0 h -5.2 m -505.6,-10.9 h 10.5 m 500.3,0 h -10.5"
     stroke="#000000"
     style="color:#000000;fill:none;stroke-width:1;stroke-linecap:butt;stroke-linejoin:miter" />
  <g
     id="g94"
     text-anchor="end"
     font-size="14px"
     font-family="'Linux Biolinum'"
     fill="#000000"
     stroke="none"
     transform="translate(136.20874,97.000308)"
     style="color:#000000;stroke-width:1;stroke-linecap:butt;stroke-linejoin:miter">
    <text
       id="text92"
       style="font-size:21.3333px">50000</text>
  </g>
  <path
     id="path98"
     d="m 145.90874,77.9 h 5.2 m 505.6,0 h -5.2 m -505.6,-10.9 h 5.2 m 505.6,0 h -5.2 m -505.6,-10.8 h 5.2 m 505.6,0 h -5.2 m -505.6,-10.9 h 5.2 m 505.6,0 h -5.2 m -505.6,-10.8 h 10.5 m 500.3,0 h -10.5"
     stroke="#000000"
     style="color:#000000;fill:none;stroke-width:1;stroke-linecap:butt;stroke-linejoin:miter" />
  <g
     id="g104"
     text-anchor="end"
     font-size="14px"
     font-family="'Linux Biolinum'"
     fill="#000000"
     stroke="none"
     transform="translate(136.20874,42.800308)"
     style="color:#000000;stroke-width:1;stroke-linecap:butt;stroke-linejoin:miter">
    <text
       id="text102"
       style="font-size:21.3333px">60000</text>
  </g>
  <path
     id="path108"
     d="m 145.90874,359.8 v -10.5 m 0,-314.8 V 45"
     stroke="#000000"
     style="color:#000000;fill:none;stroke-width:1;stroke-linecap:butt;stroke-linejoin:miter" />
  <g
     id="g114"
     text-anchor="end"
     font-size="14px"
     font-family="'Linux Biolinum'"
     fill="#000000"
     stroke="none"
     transform="rotate(-45,530.20879,-4.8285203)"
     style="color:#000000;stroke-width:1;stroke-linecap:butt;stroke-linejoin:miter">
    <text
       id="text112"
       style="font-size:21.3333px">1900</text>
  </g>
  <path
     id="path118"
     d="m 168.10874,359.8 v -5.2 m 0,-320.1 v 5.2 m 22.2,320.1 v -10.5 m 0,-314.8 V 45"
     stroke="#000000"
     style="color:#000000;fill:none;stroke-width:1;stroke-linecap:butt;stroke-linejoin:miter" />
  <g
     id="g124"
     text-anchor="end"
     font-size="14px"
     font-family="'Linux Biolinum'"
     fill="#000000"
     stroke="none"
     transform="rotate(-45,552.40879,-58.424061)"
     style="color:#000000;stroke-width:1;stroke-linecap:butt;stroke-linejoin:miter">
    <text
       id="text122"
       style="font-size:21.3333px">1910</text>
  </g>
  <path
     id="path128"
     d="m 212.50874,359.8 v -5.2 m 0,-320.1 v 5.2 m 22.2,320.1 v -10.5 m 0,-314.8 V 45"
     stroke="#000000"
     style="color:#000000;fill:none;stroke-width:1;stroke-linecap:butt;stroke-linejoin:miter" />
  <g
     id="g134"
     text-anchor="end"
     font-size="14px"
     font-family="'Linux Biolinum'"
     fill="#000000"
     stroke="none"
     transform="rotate(-45,574.6088,-112.0196)"
     style="color:#000000;stroke-width:1;stroke-linecap:butt;stroke-linejoin:miter">
    <text
       id="text132"
       style="font-size:21.3333px">1920</text>
  </g>
  <path
     id="path138"
     d="m 256.90874,359.8 v -5.2 m 0,-320.1 v 5.2 m 22.3,320.1 v -10.5 m 0,-314.8 V 45"
     stroke="#000000"
     style="color:#000000;fill:none;stroke-width:1;stroke-linecap:butt;stroke-linejoin:miter" />
  <g
     id="g144"
     text-anchor="end"
     font-size="14px"
     font-family="'Linux Biolinum'"
     fill="#000000"
     stroke="none"
     transform="rotate(-45,596.8588,-165.73586)"
     style="color:#000000;stroke-width:1;stroke-linecap:butt;stroke-linejoin:miter">
    <text
       id="text142"
       style="font-size:21.3333px">1930</text>
  </g>
  <path
     id="path148"
     d="m 301.40874,359.8 v -5.2 m 0,-320.1 v 5.2 m 22.2,320.1 v -10.5 m 0,-314.8 V 45"
     stroke="#000000"
     style="color:#000000;fill:none;stroke-width:1;stroke-linecap:butt;stroke-linejoin:miter" />
  <g
     id="g154"
     text-anchor="end"
     font-size="14px"
     font-family="'Linux Biolinum'"
     fill="#000000"
     stroke="none"
     transform="rotate(-45,619.0588,-219.33137)"
     style="color:#000000;stroke-width:1;stroke-linecap:butt;stroke-linejoin:miter">
    <text
       id="text152"
       style="font-size:21.3333px">1940</text>
  </g>
  <path
     id="path158"
     d="m 345.80874,359.8 v -5.2 m 0,-320.1 v 5.2 m 22.2,320.1 v -10.5 m 0,-314.8 V 45"
     stroke="#000000"
     style="color:#000000;fill:none;stroke-width:1;stroke-linecap:butt;stroke-linejoin:miter" />
  <g
     id="g164"
     text-anchor="end"
     font-size="14px"
     font-family="'Linux Biolinum'"
     fill="#000000"
     stroke="none"
     transform="rotate(-45,641.2588,-272.92691)"
     style="color:#000000;stroke-width:1;stroke-linecap:butt;stroke-linejoin:miter">
    <text
       id="text162"
       style="font-size:21.3333px">1950</text>
  </g>
  <path
     id="path168"
     d="m 390.20874,359.8 v -5.2 m 0,-320.1 v 5.2 m 22.2,320.1 v -10.5 m 0,-314.8 V 45"
     stroke="#000000"
     style="color:#000000;fill:none;stroke-width:1;stroke-linecap:butt;stroke-linejoin:miter" />
  <g
     id="g174"
     text-anchor="end"
     font-size="14px"
     font-family="'Linux Biolinum'"
     fill="#000000"
     stroke="none"
     transform="rotate(-45,663.4588,-326.52245)"
     style="color:#000000;stroke-width:1;stroke-linecap:butt;stroke-linejoin:miter">
    <text
       id="text172"
       style="font-size:21.3333px">1960</text>
  </g>
  <path
     id="path178"
     d="m 434.60874,359.8 v -5.2 m 0,-320.1 v 5.2 m 22.2,320.1 v -10.5 m 0,-314.8 V 45"
     stroke="#000000"
     style="color:#000000;fill:none;stroke-width:1;stroke-linecap:butt;stroke-linejoin:miter" />
  <g
     id="g184"
     text-anchor="end"
     font-size="14px"
     font-family="'Linux Biolinum'"
     fill="#000000"
     stroke="none"
     transform="rotate(-45,685.6588,-380.11799)"
     style="color:#000000;stroke-width:1;stroke-linecap:butt;stroke-linejoin:miter">
    <text
       id="text182"
       style="font-size:21.3333px">1970</text>
  </g>
  <path
     id="path188"
     d="m 479.00874,359.8 v -5.2 m 0,-320.1 v 5.2 m 22.2,320.1 v -10.5 m 0,-314.8 V 45"
     stroke="#000000"
     style="color:#000000;fill:none;stroke-width:1;stroke-linecap:butt;stroke-linejoin:miter" />
  <g
     id="g194"
     text-anchor="end"
     font-size="14px"
     font-family="'Linux Biolinum'"
     fill="#000000"
     stroke="none"
     transform="rotate(-45,707.8588,-433.71353)"
     style="color:#000000;stroke-width:1;stroke-linecap:butt;stroke-linejoin:miter">
    <text
       id="text192"
       style="font-size:21.3333px">1980</text>
  </g>
  <path
     id="path198"
     d="m 523.40874,359.8 v -5.2 m 0,-320.1 v 5.2 m 22.3,320.1 v -10.5 m 0,-314.8 V 45"
     stroke="#000000"
     style="color:#000000;fill:none;stroke-width:1;stroke-linecap:butt;stroke-linejoin:miter" />
  <g
     id="g204"
     text-anchor="end"
     font-size="14px"
     font-family="'Linux Biolinum'"
     fill="#000000"
     stroke="none"
     transform="rotate(-45,730.1088,-487.42979)"
     style="color:#000000;stroke-width:1;stroke-linecap:butt;stroke-linejoin:miter">
    <text
       id="text202"
       style="font-size:21.3333px">1990</text>
  </g>
  <path
     id="path208"
     d="m 567.90874,359.8 v -5.2 m 0,-320.1 v 5.2 m 22.2,320.1 v -10.5 m 0,-314.8 V 45"
     stroke="#000000"
     style="color:#000000;fill:none;stroke-width:1;stroke-linecap:butt;stroke-linejoin:miter" />
  <g
     id="g214"
     text-anchor="end"
     font-size="14px"
     font-family="'Linux Biolinum'"
     fill="#000000"
     stroke="none"
     transform="rotate(-45,752.3088,-541.02533)"
     style="color:#000000;stroke-width:1;stroke-linecap:butt;stroke-linejoin:miter">
    <text
       id="text212"
       style="font-size:21.3333px">2000</text>
  </g>
  <path
     id="path218"
     d="m 612.30874,359.8 v -5.2 m 0,-320.1 v 5.2 m 22.2,320.1 v -10.5 m 0,-314.8 V 45"
     stroke="#000000"
     style="color:#000000;fill:none;stroke-width:1;stroke-linecap:butt;stroke-linejoin:miter" />
  <g
     id="g224"
     text-anchor="end"
     font-size="14px"
     font-family="'Linux Biolinum'"
     fill="#000000"
     stroke="none"
     transform="rotate(-45,774.5088,-594.62087)"
     style="color:#000000;stroke-width:1;stroke-linecap:butt;stroke-linejoin:miter">
    <text
       id="text222"
       style="font-size:21.3333px">2010</text>
  </g>
  <g
     transform="translate(63.508747,15)"
     fill="none"
     color="#000000"
     stroke="currentColor"
     stroke-width="1"
     stroke-linecap="butt"
     stroke-linejoin="miter"
     id="g298" />
  <g
     transform="translate(63.508747,15)"
     fill="none"
     color="#000000"
     stroke="currentColor"
     stroke-width="1"
     stroke-linecap="butt"
     stroke-linejoin="miter"
     id="g302">
    <path
       stroke="#000000"
       d="M 82.4,19.5 V 344.8 H 593.2 V 19.5 Z"
       id="path300" />
  </g>
  <g
     transform="translate(63.508747,15)"
     fill="none"
     color="#000000"
     stroke="currentColor"
     stroke-width="1"
     stroke-linecap="butt"
     stroke-linejoin="miter"
     id="g304" />
  <g
     transform="translate(63.508747,15)"
     id="gnuplot_plot_1">
    <title
       id="title306">&quot;usa.dat&quot; u 1:2</title>
    <g
       fill="none"
       color="#ffffff"
       stroke="#000000"
       stroke-width="2"
       stroke-linecap="butt"
       stroke-linejoin="miter"
       id="g308" />
    <g
       fill="none"
       color="#000000"
       stroke="currentColor"
       stroke-width="2"
       stroke-linecap="butt"
       stroke-linejoin="miter"
       id="g312">
      <path
         stroke="#ff0000"
         d="m 82.4,344.6 4.4,-0.1 4.5,-0.1 4.4,-0.2 4.5,-0.3 4.4,-0.5 4.5,-0.4 4.4,-1.3 4.4,-1 4.5,-2.3 4.4,-2.3 4.5,-2.4 4.4,-5 4.4,-6 4.5,-2.1 4.4,-12.6 4.5,-5.3 4.4,-10.1 4.5,-4.1 4.4,-2.8 4.4,-6.8 4.5,-6 4.4,-8.7 4.5,-16.3 4.4,-2.9 4.4,-12.8 4.5,-7.7 4.4,-12.4 4.5,-11.3 4.4,-16.4 4.5,-8.8 4.4,-4.1 4.4,21.6 4.5,-9.6 4.4,-24.3 4.5,-1.4 4.4,-8.9 4.4,-9.1 4.5,36.5 4.4,1 4.5,-10.9 4.4,-28.4 4.5,60.4 4.4,23.2 4.4,-2.4 4.5,-19.6 4.4,-27.6 4.5,3.7 4.4,2.2 4.4,2.9 4.5,-15.9 4.4,-11.5 4.5,-4.3 4.4,-0.5 4.5,12.5 4.4,-15.2 4.4,-6.9 4.5,5.6 4.4,8.6 4.5,-4.8 4.4,-0.9 4.4,0.6 4.5,-14.6 4.4,-14.9 4.5,-21.3 4.4,-7.8 4.5,-20.6 4.4,0.9 4.4,-10.9 4.5,-4.4 4.4,5 4.5,0.4 4.4,-11.1 4.4,2.9 4.5,48.1 4.4,3.6 4.5,-5.4 4.4,-12.8 4.5,-13.3 4.4,-4.1 h 4.4 l 4.5,9.7 4.4,29 4.5,7.4 4.4,-9 4.4,2.3 4.5,-12.3 4.4,-1.6 4.5,-3.8 4.4,8.2 4.5,5.3 4.4,16.8 4.4,12.2 4.5,-4.9 4.4,-3 4.5,-6 4.4,-1.4 4.4,0.3 4.5,2.8 4.4,-1.2 4.5,-1.2 4.4,-1.4 4.5,-4.4 4.4,0.7 4.4,0.3 4.5,-3.7 4.4,4.4 4.5,7.8 4.4,20.8 4.4,19.2 4.5,4.8 4.4,2.8 4.5,-7.1 4.4,5.8 4.5,-0.1 4.4,-12.8"
         id="path310" />
    </g>
  </g>
  <g
     transform="translate(63.508747,15)"
     fill="none"
     color="#000000"
     stroke="currentColor"
     stroke-width="2"
     stroke-linecap="butt"
     stroke-linejoin="miter"
     id="g315" />
  <g
     transform="translate(63.508747,15)"
     fill="none"
     color="#000000"
     stroke="#000000"
     stroke-width="1"
     stroke-linecap="butt"
     stroke-linejoin="miter"
     id="g317" />
  <g
     transform="translate(63.508747,15)"
     fill="none"
     color="#000000"
     stroke="currentColor"
     stroke-width="1"
     stroke-linecap="butt"
     stroke-linejoin="miter"
     id="g321">
    <path
       stroke="#000000"
       d="M 82.4,19.5 V 344.8 H 593.2 V 19.5 Z"
       id="path319" />
  </g>
  <g
     transform="translate(63.508747,15)"
     fill="none"
     color="#000000"
     stroke="currentColor"
     stroke-width="1"
     stroke-linecap="butt"
     stroke-linejoin="miter"
     id="g323" />
  <text
     id="text1328"
     y="449.0322"
     x="363.29587"
     style="font-style:normal;font-weight:normal;font-size:26.6667px;line-height:1.25;font-family:sans-serif;fill:#000000;fill-opacity:1;stroke:none"
     xml:space="preserve"><tspan
       style="font-style:normal;font-variant:normal;font-weight:normal;font-stretch:normal;font-size:26.6667px;font-family:'Linux Biolinum';-inkscape-font-specification:'Linux Biolinum'"
       y="449.0322"
       x="363.29587"
       id="tspan1326"
       sodipodi:role="line">Jahr</tspan></text>
  <text
     transform="rotate(-90)"
     xml:space="preserve"
     style="font-style:normal;font-weight:normal;font-size:26.6667px;line-height:1.25;font-family:sans-serif;fill:#000000;fill-opacity:1;stroke:none"
     x="-347.29227"
     y="48.260441"
     id="text1328-1"><tspan
       sodipodi:role="line"
       id="tspan1326-0"
       x="-347.29227"
       y="48.260441"
       style="font-style:normal;font-variant:normal;font-weight:normal;font-stretch:normal;font-size:26.6667px;font-family:'Linux Biolinum';-inkscape-font-specification:'Linux Biolinum'">jährliche Verkehrstote (USA)</tspan></text>
</svg>
