<?xml version="1.0" encoding="UTF-8" standalone="no"?>
<!-- Created with Inkscape (http://www.inkscape.org/) -->
<svg
   xmlns:ns0="http://www.iki.fi/pav/software/textext/"
   xmlns:dc="http://purl.org/dc/elements/1.1/"
   xmlns:cc="http://creativecommons.org/ns#"
   xmlns:rdf="http://www.w3.org/1999/02/22-rdf-syntax-ns#"
   xmlns:svg="http://www.w3.org/2000/svg"
   xmlns="http://www.w3.org/2000/svg"
   xmlns:xlink="http://www.w3.org/1999/xlink"
   xmlns:sodipodi="http://sodipodi.sourceforge.net/DTD/sodipodi-0.dtd"
   xmlns:inkscape="http://www.inkscape.org/namespaces/inkscape"
   width="146.25444"
   height="133.12245">
  <defs
     id="defs3">
    <linearGradient
       id="linearGradient5642">
      <stop
         id="stop5644"
         offset="0"
         style="stop-color:#896b3e;stop-opacity:1;" />
      <stop
         style="stop-color:#ffc165;stop-opacity:1;"
         offset="0.19085097"
         id="stop5662" />
      <stop
         id="stop5664"
         offset="0.80394602"
         style="stop-color:#ffc165;stop-opacity:1;" />
      <stop
         style="stop-color:#886a3e;stop-opacity:1;"
         offset="1"
         id="stop5650" />
    </linearGradient>
    <inkscape:perspective
       id="perspective3411"
       inkscape:persp3d-origin="372.04724 : 350.78739 : 1"
       inkscape:vp_z="744.09448 : 526.18109 : 1"
       inkscape:vp_y="0 : 1000 : 0"
       inkscape:vp_x="0 : 526.18109 : 1"
       sodipodi:type="inkscape:persp3d" />
    <linearGradient
       spreadMethod="pad"
       gradientUnits="userSpaceOnUse"
       y2="357.30066"
       x2="415.86475"
       y1="357.88229"
       x1="270.32468"
       id="linearGradient5658"
       xlink:href="#linearGradient5642"
       inkscape:collect="always" />
    <linearGradient
       gradientTransform="translate(766.70262,-273.41525)"
       y2="357.30066"
       x2="415.86475"
       y1="357.88229"
       x1="270.32468"
       spreadMethod="pad"
       gradientUnits="userSpaceOnUse"
       id="linearGradient17403"
       xlink:href="#linearGradient5642"
       inkscape:collect="always" />
    <linearGradient
       gradientTransform="translate(1020.9883,-247.70097)"
       y2="357.30066"
       x2="415.86475"
       y1="357.88229"
       x1="270.32468"
       spreadMethod="pad"
       gradientUnits="userSpaceOnUse"
       id="linearGradient17429"
       xlink:href="#linearGradient5642"
       inkscape:collect="always" />
    <linearGradient
       gradientTransform="translate(-398.8415,434.71424)"
       y2="357.30066"
       x2="415.86475"
       y1="357.88229"
       x1="270.32468"
       spreadMethod="pad"
       gradientUnits="userSpaceOnUse"
       id="linearGradient17454"
       xlink:href="#linearGradient5642"
       inkscape:collect="always" />
    <linearGradient
       gradientTransform="translate(-154.55579,566.14281)"
       y2="357.30066"
       x2="415.86475"
       y1="357.88229"
       x1="270.32468"
       spreadMethod="pad"
       gradientUnits="userSpaceOnUse"
       id="linearGradient17458"
       xlink:href="#linearGradient5642"
       inkscape:collect="always" />
  </defs>
  <g
     transform="translate(-270.32465,-291.32107)">
    <rect
       ry="20.5263"
       y="293.73761"
       x="272.74118"
       height="128.28938"
       width="141.42137"
       id="rect3414"
       style="opacity:1;fill:url(#linearGradient5658);fill-opacity:1;fill-rule:evenodd;stroke:#646464;stroke-width:4.83300000000000020;stroke-linecap:butt;stroke-linejoin:miter;stroke-miterlimit:4;stroke-dasharray:none;stroke-dashoffset:0;stroke-opacity:1" />
    <g
       id="g18634"
       transform="matrix(0.6421765,0,0,0.6421765,100.39316,-27.059062)">
      <path
         style="fill:#828ee2;fill-opacity:1;fill-rule:evenodd;stroke:#000000;stroke-width:6.22881746;stroke-linecap:butt;stroke-linejoin:miter;stroke-miterlimit:4;stroke-dasharray:none;stroke-dashoffset:0;stroke-opacity:1"
         d="M 284.56232,668.95587 L 322.98789,608.09688 L 379.62672,608.31898 L 379.84883,668.95587 L 284.56232,668.95587 z"
         id="path17371"
         sodipodi:nodetypes="ccccc" />
      <path
         sodipodi:nodetypes="cccc"
         style="fill:#ff6575;fill-opacity:1;fill-rule:evenodd;stroke:#000000;stroke-width:6.22881746;stroke-linecap:butt;stroke-linejoin:miter;stroke-miterlimit:4;stroke-dasharray:none;stroke-dashoffset:0;stroke-opacity:1"
         d="M 322.49571,608.54111 L 379.1825,517.25262 L 435.82133,608.76322 L 322.49571,608.54111 z"
         id="path17375" />
      <path
         style="fill:#ffc165;fill-opacity:1;fill-rule:evenodd;stroke:#000000;stroke-width:6.22881746;stroke-linecap:butt;stroke-linejoin:miter;stroke-miterlimit:4;stroke-dasharray:none;stroke-dashoffset:0;stroke-opacity:1"
         d="M 472.91422,668.95587 L 435.77339,608.54109 L 379.1825,608.76321 L 379.84883,668.95587 L 472.91422,668.95587 z"
         id="path17377"
         sodipodi:nodetypes="ccccc" />
      <g
         style="font-style:normal;font-variant:normal;font-weight:normal;font-stretch:normal;letter-spacing:normal;word-spacing:normal;text-anchor:start;fill:none;fill-opacity:1;fill-rule:evenodd;stroke:#000000;stroke-width:0.3481102;stroke-linecap:butt;stroke-linejoin:miter;stroke-miterlimit:10.43299961;stroke-dasharray:none;stroke-dashoffset:0;stroke-opacity:1"
         xml:space="preserve"
         transform="matrix(4.7428709,0,0,-4.2190673,-661.58976,3639.7289)">
<path
   id="path9517"
   style="fill:#000000;stroke-width:0.3481102;stroke-miterlimit:10.43299961;stroke-dasharray:none"
   d="M 228.6,710.51 L 228.7,710.53 L 228.79,710.56 L 228.89,710.58 L 228.99,710.61 L 229.08,710.65 L 229.18,710.68 L 229.27,710.72 L 229.37,710.76 L 229.46,710.8 L 229.56,710.85 L 229.65,710.9 L 229.74,710.95 L 229.83,711 L 229.91,711.06 L 230,711.12 L 230.08,711.18 L 230.15,711.24 L 230.23,711.3 L 230.3,711.37 L 230.37,711.44 L 230.43,711.51 L 230.49,711.58 L 230.54,711.66 L 230.59,711.74 L 230.64,711.82 L 230.68,711.9 L 230.71,711.98 L 230.74,712.07 L 230.76,712.16 L 230.78,712.25 L 230.79,712.34 L 230.79,712.43 C 230.79,713.29 229.9,713.93 228.59,713.93 L 225.75,713.93 C 225.55,713.93 225.46,713.93 225.46,713.73 C 225.46,713.62 225.55,713.62 225.74,713.62 C 225.76,713.62 225.95,713.62 226.12,713.6 C 226.3,713.58 226.39,713.57 226.39,713.44 C 226.39,713.4 226.38,713.37 226.35,713.25 L 225.02,707.9 C 224.92,707.51 224.9,707.43 224.11,707.43 C 223.93,707.43 223.84,707.43 223.84,707.23 C 223.84,707.12 223.96,707.12 223.98,707.12 C 224.26,707.12 224.96,707.15 225.24,707.15 C 225.51,707.15 226.22,707.12 226.5,707.12 C 226.58,707.12 226.7,707.12 226.7,707.32 C 226.7,707.43 226.61,707.43 226.42,707.43 C 226.05,707.43 225.77,707.43 225.77,707.61 C 225.77,707.67 225.79,707.72 225.8,707.78 L 226.46,710.42 L 227.65,710.42 L 227.64,710.64 L 226.52,710.64 L 227.17,713.24 C 227.23,713.48 227.26,713.58 227.45,713.61 C 227.54,713.62 227.86,713.62 228.05,713.62 C 228.76,713.62 229.87,713.62 229.87,712.63 C 229.87,712.29 229.71,711.61 229.32,711.22 C 229.06,710.96 228.53,710.64 227.64,710.64 L 227.65,710.42 C 228.55,710.42 228.73,709.86 228.73,709.51 C 228.73,709.36 228.65,709.05 228.59,708.83 C 228.52,708.55 228.43,708.18 228.43,707.98 C 228.43,706.9 229.63,706.9 229.76,706.9 C 230.61,706.9 230.95,707.91 230.95,708.05 C 230.95,708.17 230.85,708.17 230.84,708.17 C 230.74,708.17 230.73,708.1 230.71,708.03 C 230.46,707.29 230.03,707.12 229.8,707.12 C 229.47,707.12 229.4,707.34 229.4,707.73 C 229.4,708.04 229.46,708.55 229.5,708.87 C 229.52,709.01 229.54,709.2 229.54,709.33 C 229.54,710.1 228.87,710.41 228.6,710.51 z" />
</g>      <g
         style="font-style:normal;font-variant:normal;font-weight:normal;font-stretch:normal;letter-spacing:normal;word-spacing:normal;text-anchor:start;fill:none;fill-opacity:1;fill-rule:evenodd;stroke:#000000;stroke-width:0.3481102;stroke-linecap:butt;stroke-linejoin:miter;stroke-miterlimit:10.43299961;stroke-dasharray:none;stroke-dashoffset:0;stroke-opacity:1"
         xml:space="preserve"
         transform="matrix(4.7428709,0,0,-4.2190673,-698.44766,3571.7185)">
<path
   id="path19489"
   style="fill:#000000;stroke-width:0.3481102;stroke-miterlimit:10.43299961;stroke-dasharray:none"
   d="M 229.69,712.79 L 229.73,712.86 L 229.78,712.93 L 229.82,712.99 L 229.87,713.05 L 229.91,713.1 L 229.96,713.15 L 230,713.2 L 230.04,713.25 L 230.08,713.29 L 230.13,713.32 L 230.17,713.36 L 230.21,713.39 L 230.25,713.42 L 230.29,713.44 L 230.33,713.47 L 230.37,713.49 L 230.41,713.51 L 230.45,713.52 L 230.49,713.54 L 230.53,713.55 L 230.57,713.56 L 230.6,713.57 L 230.64,713.58 L 230.68,713.59 L 230.71,713.6 L 230.75,713.6 L 230.82,713.61 L 230.89,713.61 L 230.96,713.62 C 231.08,713.63 231.09,713.8 231.09,713.81 C 231.09,713.89 231.04,713.93 230.96,713.93 C 230.71,713.93 230.42,713.9 230.15,713.9 C 229.82,713.9 229.48,713.93 229.16,713.93 C 229.1,713.93 228.97,713.93 228.97,713.74 C 228.97,713.63 229.06,713.62 229.13,713.62 C 229.4,713.6 229.59,713.5 229.59,713.29 C 229.59,713.14 229.44,712.92 229.44,712.91 L 226.38,708.05 L 225.7,713.32 C 225.7,713.49 225.93,713.62 226.39,713.62 C 226.53,713.62 226.64,713.62 226.64,713.82 C 226.64,713.91 226.56,713.93 226.5,713.93 C 226.1,713.93 225.67,713.9 225.27,713.9 C 225.09,713.9 224.9,713.91 224.72,713.91 C 224.54,713.91 224.35,713.93 224.18,713.93 C 224.11,713.93 223.99,713.93 223.99,713.74 C 223.99,713.62 224.08,713.62 224.24,713.62 C 224.8,713.62 224.81,713.53 224.84,713.28 L 225.62,707.13 C 225.65,706.93 225.69,706.9 225.82,706.9 C 225.98,706.9 226.02,706.95 226.1,707.08 L 229.69,712.79 z" />
</g>      <g
         transform="matrix(4.7428709,0,0,-4.2190673,-729.99716,3639.3661)"
         xml:space="preserve"
         style="font-style:normal;font-variant:normal;font-weight:normal;font-stretch:normal;letter-spacing:normal;word-spacing:normal;text-anchor:start;fill:none;fill-opacity:1;fill-rule:evenodd;stroke:#000000;stroke-width:0.34776208;stroke-linecap:butt;stroke-linejoin:miter;stroke-miterlimit:10.43299961;stroke-dasharray:none;stroke-dashoffset:0;stroke-opacity:1">
<path
   d="M 227.16,713.16 L 227.17,713.19 L 227.18,713.22 L 227.18,713.25 L 227.19,713.28 L 227.2,713.31 L 227.21,713.34 L 227.22,713.36 L 227.23,713.38 L 227.24,713.4 L 227.25,713.42 L 227.26,713.44 L 227.28,713.46 L 227.29,713.48 L 227.31,713.49 L 227.33,713.51 L 227.35,713.52 L 227.37,713.54 L 227.4,713.55 L 227.43,713.56 L 227.46,713.57 L 227.49,713.58 L 227.51,713.58 L 227.52,713.58 L 227.54,713.59 L 227.56,713.59 L 227.58,713.59 L 227.6,713.6 L 227.63,713.6 L 227.65,713.6 L 227.67,713.6 L 227.7,713.61 L 227.72,713.61 L 227.75,713.61 L 227.78,713.61 L 227.8,713.61 L 227.83,713.61 L 227.86,713.62 L 227.89,713.62 L 227.93,713.62 L 227.96,713.62 L 227.99,713.62 L 228.03,713.62 L 228.07,713.62 C 228.3,713.62 228.38,713.62 228.38,713.81 C 228.38,713.93 228.27,713.93 228.23,713.93 C 227.95,713.93 227.21,713.9 226.92,713.9 C 226.62,713.9 225.89,713.93 225.59,713.93 C 225.52,713.93 225.4,713.93 225.4,713.73 C 225.4,713.62 225.49,713.62 225.67,713.62 C 226.09,713.62 226.36,713.62 226.36,713.43 C 226.36,713.38 226.36,713.36 226.34,713.27 L 225,707.9 C 224.91,707.53 224.88,707.43 224.09,707.43 C 223.86,707.43 223.77,707.43 223.77,707.23 C 223.77,707.12 223.89,707.12 223.92,707.12 C 224.21,707.12 224.94,707.15 225.23,707.15 C 225.52,707.15 226.26,707.12 226.56,707.12 C 226.64,707.12 226.76,707.12 226.76,707.31 C 226.76,707.43 226.68,707.43 226.46,707.43 C 226.28,707.43 226.23,707.43 226.03,707.45 C 225.82,707.47 225.78,707.51 225.78,707.62 C 225.78,707.7 225.8,707.78 225.82,707.85 L 227.16,713.16 z"
   style="fill:#000000;stroke-width:0.34776208;stroke-miterlimit:10.43299961;stroke-dasharray:none"
   id="path18593" />
</g>    </g>
  </g>
</svg>
