<?xml version="1.0" encoding="UTF-8" standalone="no"?>
<!-- Created with Serif DrawPlus 11, 0, 3, 23 (Feb 25, 14:12:55) (http://www.serif.com) -->
<svg version="1.1" xmlns="http://www.w3.org/2000/svg" xmlns:xlink="http://www.w3.org/1999/xlink" xmlns:inkscape="http://www.inkscape.org/namespaces/inkscape" width="203.699" height="354.328">
	<path id="dp_path001" transform="matrix(1,0,0,1,-477.667,261.373)" fill="black" fill-rule="evenodd" stroke="none" stroke-width="1.33333" d="M 489.675,-84.2093 C 489.675,-116.121 512.653,-141.991 541,-141.991 L 555.353,-141.991 C 564.651,-183.667 571.767,-209.984 572.037,-210.98 C 580.757,-243.387 589.636,-260.703 601.685,-260.703 C 610.404,-260.703 618.965,-254.507 618.965,-245.929 C 618.965,-240.368 615.003,-237.985 611.197,-237.985 C 607.551,-237.985 603.587,-240.528 603.587,-245.769 C 603.587,-249.741 606.283,-253.236 611.515,-253.555 C 610.88,-254.189 606.916,-257.208 602.001,-257.208 C 595.819,-257.208 590.428,-236.715 588.525,-228.931 C 583.136,-208.437 577.269,-176.665 571.404,-142.828 C 571.356,-142.548 571.309,-142.269 571.263,-141.991 L 617.077,-141.991 C 626.375,-183.667 633.491,-209.984 633.763,-210.98 C 642.483,-243.387 651.36,-260.703 663.409,-260.703 C 672.129,-260.703 680.691,-254.507 680.691,-245.929 C 680.691,-240.368 676.727,-237.985 672.923,-237.985 C 669.276,-237.985 665.312,-240.528 665.312,-245.769 C 665.312,-249.741 668.007,-253.236 673.239,-253.555 C 672.605,-254.189 668.641,-257.208 663.727,-257.208 C 657.544,-257.208 652.153,-236.715 650.251,-228.931 C 644.86,-208.437 638.995,-176.665 633.128,-142.828 C 633.052,-142.377 632.976,-141.927 632.9,-141.477 C 657.997,-137.697 677.356,-113.499 677.356,-84.2093 C 677.356,-52.2973 654.377,-26.428 626.031,-26.428 L 610.347,-26.428 C 607.687,-14.5787 604.923,-2.756 602.055,9.04133 C 590.799,55.1107 581.761,92.284 557.663,92.284 C 547.992,92.284 540.065,85.612 540.065,77.5107 C 540.065,71.9507 544.028,69.568 547.833,69.568 C 551.48,69.568 555.444,72.1093 555.444,77.352 C 555.444,81.3227 552.748,84.8187 547.675,85.136 C 547.675,85.136 551.639,88.7893 557.345,88.7893 C 570.188,88.7893 577.48,58.924 580.335,47.3267 C 585.567,25.2453 590.164,-1.284 594.285,-25.5893 C 594.332,-25.868 594.379,-26.148 594.427,-26.428 L 548.621,-26.428 C 545.961,-14.5787 543.197,-2.756 540.329,9.04133 C 529.073,55.1107 520.036,92.284 495.939,92.284 C 486.267,92.284 478.34,85.612 478.34,77.5107 C 478.34,71.9507 482.304,69.568 486.108,69.568 C 489.755,69.568 493.719,72.1093 493.719,77.352 C 493.719,81.3227 491.024,84.8187 485.951,85.136 C 485.951,85.136 489.913,88.7893 495.621,88.7893 C 508.463,88.7893 515.756,58.924 518.609,47.3267 C 523.841,25.2453 528.439,-1.284 532.561,-25.5893 C 532.648,-26.112 532.736,-26.6347 532.827,-27.1573 C 508.364,-31.5627 489.675,-55.4267 489.675,-84.2093 Z M 616.997,-57.1067 C 615.347,-49.208 613.651,-41.32 611.911,-33.4427 L 625.159,-33.4427 C 649.083,-33.4427 668.477,-57.276 668.477,-84.2093 C 668.477,-108.64 652.516,-130.524 631.692,-134.376 C 627.251,-108.528 622.36,-82.764 616.997,-57.1067 Z M 550.185,-33.4427 L 595.62,-33.4427 C 602.205,-71.7827 609.279,-106.563 615.524,-134.976 L 570.071,-134.976 C 564.237,-100.971 557.624,-67.1093 550.185,-33.4427 Z M 498.552,-84.2093 C 498.552,-60.284 513.856,-38.804 534.045,-34.3067 C 540.588,-72.3053 547.601,-106.776 553.8,-134.976 L 541.871,-134.976 C 517.947,-134.976 498.552,-111.141 498.552,-84.2093 Z "/>
</svg>