<?xml version="1.0" encoding="UTF-8" standalone="no"?>
<!-- Created with Inkscape (http://www.inkscape.org/) -->

<svg
   xmlns:dc="http://purl.org/dc/elements/1.1/"
   xmlns:cc="http://creativecommons.org/ns#"
   xmlns:rdf="http://www.w3.org/1999/02/22-rdf-syntax-ns#"
   xmlns:svg="http://www.w3.org/2000/svg"
   xmlns="http://www.w3.org/2000/svg"
   xmlns:sodipodi="http://sodipodi.sourceforge.net/DTD/sodipodi-0.dtd"
   xmlns:inkscape="http://www.inkscape.org/namespaces/inkscape"
   width="326.68307"
   height="121.00407"
   id="svg5058"
   version="1.1"
   inkscape:version="0.48.2 r9819"
   sodipodi:docname="New document 2">
  <defs
     id="defs5060" />
  <sodipodi:namedview
     id="base"
     pagecolor="#ffffff"
     bordercolor="#666666"
     borderopacity="1.0"
     inkscape:pageopacity="0.0"
     inkscape:pageshadow="2"
     inkscape:zoom="0.35"
     inkscape:cx="312.62725"
     inkscape:cy="43.360499"
     inkscape:document-units="px"
     inkscape:current-layer="layer1"
     showgrid="false"
     units="cm"
     fit-margin-top="0.5"
     fit-margin-right="0.5"
     fit-margin-bottom="0.5"
     fit-margin-left="0.5"
     inkscape:window-width="469"
     inkscape:window-height="485"
     inkscape:window-x="1570"
     inkscape:window-y="130"
     inkscape:window-maximized="0" />
  <metadata
     id="metadata5063">
    <rdf:RDF>
      <cc:Work
         rdf:about="">
        <dc:format>image/svg+xml</dc:format>
        <dc:type
           rdf:resource="http://purl.org/dc/dcmitype/StillImage" />
        <dc:title></dc:title>
      </cc:Work>
    </rdf:RDF>
  </metadata>
  <g
     inkscape:label="Layer 1"
     inkscape:groupmode="layer"
     id="layer1"
     transform="translate(-62.372751,-454.71729)">
    <polyline
       transform="translate(-16.911214,443.21533)"
       points="97.313,114.477 97.313,29.531 "
       id="polyline17"
       style="fill:none;stroke:#000000;stroke-width:0.5pt;stroke-dasharray:2, 2" />
    <polyline
       transform="translate(-16.911214,443.21533)"
       points="126.375,114.477 126.375,29.531 "
       id="polyline19"
       style="fill:none;stroke:#000000;stroke-width:0.5pt;stroke-dasharray:2, 2" />
    <polyline
       transform="translate(-16.911214,443.21533)"
       points="155.438,114.477 155.438,29.531 "
       id="polyline21"
       style="fill:none;stroke:#000000;stroke-width:0.5pt;stroke-dasharray:2, 2" />
    <polyline
       transform="translate(-16.911214,443.21533)"
       points="184.500,114.477 184.500,29.531 "
       id="polyline23"
       style="fill:none;stroke:#000000;stroke-width:0.5pt;stroke-dasharray:2, 2" />
    <polyline
       transform="translate(-16.911214,443.21533)"
       points="213.563,114.477 213.563,29.531 "
       id="polyline25"
       style="fill:none;stroke:#000000;stroke-width:0.5pt;stroke-dasharray:2, 2" />
    <polyline
       transform="translate(-16.911214,443.21533)"
       points="242.625,114.477 242.625,29.531 "
       id="polyline27"
       style="fill:none;stroke:#000000;stroke-width:0.5pt;stroke-dasharray:2, 2" />
    <polyline
       transform="translate(-16.911214,443.21533)"
       points="271.688,114.477 271.688,29.531 "
       id="polyline29"
       style="fill:none;stroke:#000000;stroke-width:0.5pt;stroke-dasharray:2, 2" />
    <polyline
       transform="translate(-16.911214,443.21533)"
       points="300.750,114.477 300.750,29.531 "
       id="polyline31"
       style="fill:none;stroke:#000000;stroke-width:0.5pt;stroke-dasharray:2, 2" />
    <polyline
       transform="translate(-16.911214,443.21533)"
       points="329.813,114.477 329.813,29.531 "
       id="polyline33"
       style="fill:none;stroke:#000000;stroke-width:0.5pt;stroke-dasharray:2, 2" />
    <polyline
       transform="translate(-16.911214,443.21533)"
       points="358.875,114.477 358.875,29.531 "
       id="polyline35"
       style="fill:none;stroke:#000000;stroke-width:0.5pt;stroke-dasharray:2, 2" />
    <polyline
       transform="translate(-16.911214,443.21533)"
       points="387.938,114.477 387.938,29.531 "
       id="polyline37"
       style="fill:none;stroke:#000000;stroke-width:0.5pt;stroke-dasharray:2, 2" />
    <polyline
       transform="translate(-16.911214,443.21533)"
       points="97.603,86.162 97.894,86.162 98.184,86.162 98.475,86.162 98.766,86.162 99.056,86.162 99.347,86.162 99.638,86.162 99.928,86.162 100.219,86.162 100.509,86.162 100.800,86.162 101.091,86.162 101.381,86.162 101.672,86.162 101.963,86.162 102.253,86.162 102.544,86.162 102.834,86.162 103.125,86.162 103.416,86.162 103.706,86.162 103.997,86.162 104.287,86.162 104.578,86.162 104.869,86.162 105.159,86.162 105.450,86.162 105.741,86.162 106.031,86.162 106.322,86.162 106.613,86.162 106.903,86.162 107.194,86.162 107.484,86.162 107.775,86.162 108.066,86.162 108.356,86.162 108.647,86.162 108.938,86.162 109.228,86.162 109.519,86.162 109.809,86.162 110.100,86.162 110.391,86.162 110.681,86.162 110.972,86.162 111.262,86.162 111.553,86.162 111.844,86.162 112.134,86.162 112.425,86.162 112.716,86.162 113.006,86.162 113.297,86.162 113.587,86.162 113.878,86.162 114.169,86.162 114.459,86.162 114.750,86.162 115.041,86.162 115.331,86.162 115.622,86.162 115.912,86.162 116.203,86.162 116.494,86.162 116.784,86.162 117.075,86.162 117.366,86.162 117.656,86.162 117.947,86.162 118.238,86.162 118.528,86.162 118.819,86.162 119.109,86.162 119.400,86.162 119.691,86.162 119.981,86.162 120.272,86.162 120.563,86.162 120.853,86.162 121.144,86.162 121.434,86.162 121.725,86.162 122.016,86.162 122.306,86.162 122.597,86.162 122.887,86.162 123.178,86.162 123.469,86.162 123.759,86.162 124.050,86.162 124.341,86.162 124.631,86.162 124.922,86.162 125.212,86.162 125.503,86.162 125.794,86.162 126.084,86.162 126.375,86.162 126.666,57.847 126.956,57.847 127.247,57.847 127.537,57.847 127.828,57.847 128.119,57.847 128.409,57.847 128.700,57.847 128.991,57.847 129.281,57.847 129.572,57.847 129.863,57.847 130.153,57.847 130.444,57.847 130.734,57.847 131.025,57.847 131.316,57.847 131.606,57.847 131.897,57.847 132.188,57.847 132.478,57.847 132.769,57.847 133.059,57.847 133.350,57.847 133.641,57.847 133.931,57.847 134.222,57.847 134.513,57.847 134.803,57.847 135.094,57.847 135.384,57.847 135.675,57.847 135.966,57.847 136.256,57.847 136.547,57.847 136.837,57.847 137.128,57.847 137.419,57.847 137.709,57.847 138.000,57.847 138.291,57.847 138.581,57.847 138.872,57.847 139.162,57.847 139.453,57.847 139.744,57.847 140.034,57.847 140.325,57.847 140.616,57.847 140.906,57.847 141.197,57.847 141.487,57.847 141.778,57.847 142.069,57.847 142.359,57.847 142.650,57.847 142.941,57.847 143.231,57.847 143.522,57.847 143.813,57.847 144.103,57.847 144.394,57.847 144.684,57.847 144.975,57.847 145.266,57.847 145.556,57.847 145.847,57.847 146.137,57.847 146.428,57.847 146.719,57.847 147.009,57.847 147.300,57.847 147.591,57.847 147.881,57.847 148.172,57.847 148.463,57.847 148.753,57.847 149.044,57.847 149.334,57.847 149.625,57.847 149.916,57.847 150.206,57.847 150.497,57.847 150.788,57.847 151.078,57.847 151.369,57.847 151.659,57.847 151.950,57.847 152.241,57.847 152.531,57.847 152.822,57.847 153.112,57.847 153.403,57.847 153.694,57.847 153.984,57.847 154.275,57.847 154.566,57.847 154.856,57.847 155.147,57.847 155.437,57.847 155.728,86.162 156.019,86.162 156.309,86.162 156.600,86.162 156.891,86.162 157.181,86.162 157.472,86.162 157.762,86.162 158.053,86.162 158.344,86.162 158.634,86.162 158.925,86.162 159.216,86.162 159.506,86.162 159.797,86.162 160.087,86.162 160.378,86.162 160.669,86.162 160.959,86.162 161.250,86.162 161.541,86.162 161.831,86.162 162.122,86.162 162.413,86.162 162.703,86.162 162.994,86.162 163.284,86.162 163.575,86.162 163.866,86.162 164.156,86.162 164.447,86.162 164.737,86.162 165.028,86.162 165.319,86.162 165.609,86.162 165.900,86.162 166.191,86.162 166.481,86.162 166.772,86.162 167.062,86.162 167.353,86.162 167.644,86.162 167.934,86.162 168.225,86.162 168.516,86.162 168.806,86.162 169.097,86.162 169.387,86.162 169.678,86.162 169.969,86.162 170.259,86.162 170.550,86.162 170.841,86.162 171.131,86.162 171.422,86.162 171.713,86.162 172.003,86.162 172.294,86.162 172.584,86.162 172.875,86.162 173.166,86.162 173.456,86.162 173.747,86.162 174.038,86.162 174.328,86.162 174.619,86.162 174.909,86.162 175.200,86.162 175.491,86.162 175.781,86.162 176.072,86.162 176.362,86.162 176.653,86.162 176.944,86.162 177.234,86.162 177.525,86.162 177.816,86.162 178.106,86.162 178.397,86.162 178.688,86.162 178.978,86.162 179.269,86.162 179.559,86.162 179.850,86.162 180.141,86.162 180.431,86.162 180.722,86.162 181.012,86.162 181.303,86.162 181.594,86.162 181.884,86.162 182.175,86.162 182.466,86.162 182.756,86.162 183.047,86.162 183.338,86.162 183.628,86.162 183.919,86.162 184.209,86.162 184.500,86.162 184.791,57.847 185.081,57.847 185.372,57.847 185.662,57.847 185.953,57.847 186.244,57.847 186.534,57.847 186.825,57.847 187.116,57.847 187.406,57.847 187.697,57.847 187.988,57.847 188.278,57.847 188.569,57.847 188.859,57.847 189.150,57.847 189.441,57.847 189.731,57.847 190.022,57.847 190.312,57.847 190.603,57.847 190.894,57.847 191.184,57.847 191.475,57.847 191.766,57.847 192.056,57.847 192.347,57.847 192.638,57.847 192.928,57.847 193.219,57.847 193.509,57.847 193.800,57.847 194.091,57.847 194.381,57.847 194.672,57.847 194.962,57.847 195.253,57.847 195.544,57.847 195.834,57.847 196.125,57.847 196.416,57.847 196.706,57.847 196.997,57.847 197.287,57.847 197.578,57.847 197.869,57.847 198.159,57.847 198.450,57.847 198.741,57.847 199.031,57.847 199.322,57.847 199.613,57.847 199.903,57.847 200.194,57.847 200.484,57.847 200.775,57.847 201.066,57.847 201.356,57.847 201.647,57.847 201.938,57.847 202.228,57.847 202.519,57.847 202.809,57.847 203.100,57.847 203.391,57.847 203.681,57.847 203.972,57.847 204.262,57.847 204.553,57.847 204.844,57.847 205.134,57.847 205.425,57.847 205.716,57.847 206.006,57.847 206.297,57.847 206.587,57.847 206.878,57.847 207.169,57.847 207.459,57.847 207.750,57.847 208.041,57.847 208.331,57.847 208.622,57.847 208.912,57.847 209.203,57.847 209.494,57.847 209.784,57.847 210.075,57.847 210.366,57.847 210.656,57.847 210.947,57.847 211.238,57.847 211.528,57.847 211.819,57.847 212.109,57.847 212.400,57.847 212.691,57.847 212.981,57.847 213.272,57.847 213.562,57.847 213.853,57.847 214.144,57.847 214.434,57.847 214.725,57.847 215.016,57.847 215.306,57.847 215.597,57.847 215.887,57.847 216.178,57.847 216.469,57.847 216.759,57.847 217.050,57.847 217.341,57.847 217.631,57.847 217.922,57.847 218.213,57.847 218.503,57.847 218.794,57.847 219.084,57.847 219.375,57.847 219.666,57.847 219.956,57.847 220.247,57.847 220.538,57.847 220.828,57.847 221.119,57.847 221.409,57.847 221.700,57.847 221.991,57.847 222.281,57.847 222.572,57.847 222.862,57.847 223.153,57.847 223.444,57.847 223.734,57.847 224.025,57.847 224.316,57.847 224.606,57.847 224.897,57.847 225.188,57.847 225.478,57.847 225.769,57.847 226.059,57.847 226.350,57.847 226.641,57.847 226.931,57.847 227.222,57.847 227.512,57.847 227.803,57.847 228.094,57.847 228.384,57.847 228.675,57.847 228.966,57.847 229.256,57.847 229.547,57.847 229.838,57.847 230.128,57.847 230.419,57.847 230.709,57.847 231.000,57.847 231.291,57.847 231.581,57.847 231.872,57.847 232.162,57.847 232.453,57.847 232.744,57.847 233.034,57.847 233.325,57.847 233.616,57.847 233.906,57.847 234.197,57.847 234.487,57.847 234.778,57.847 235.069,57.847 235.359,57.847 235.650,57.847 235.941,57.847 236.231,57.847 236.522,57.847 236.813,57.847 237.103,57.847 237.394,57.847 237.684,57.847 237.975,57.847 238.266,57.847 238.556,57.847 238.847,57.847 239.138,57.847 239.428,57.847 239.719,57.847 240.009,57.847 240.300,57.847 240.591,57.847 240.881,57.847 241.172,57.847 241.462,57.847 241.753,57.847 242.044,57.847 242.334,57.847 242.625,57.847 242.916,86.162 243.206,86.162 243.497,86.162 243.787,86.162 244.078,86.162 244.369,86.162 244.659,86.162 244.950,86.162 245.241,86.162 245.531,86.162 245.822,86.162 246.112,86.162 246.403,86.162 246.694,86.162 246.984,86.162 247.275,86.162 247.566,86.162 247.856,86.162 248.147,86.162 248.438,86.162 248.728,86.162 249.019,86.162 249.309,86.162 249.600,86.162 249.891,86.162 250.181,86.162 250.472,86.162 250.762,86.162 251.053,86.162 251.344,86.162 251.634,86.162 251.925,86.162 252.216,86.162 252.506,86.162 252.797,86.162 253.087,86.162 253.378,86.162 253.669,86.162 253.959,86.162 254.250,86.162 254.541,86.162 254.831,86.162 255.122,86.162 255.412,86.162 255.703,86.162 255.994,86.162 256.284,86.162 256.575,86.162 256.866,86.162 257.156,86.162 257.447,86.162 257.738,86.162 258.028,86.162 258.319,86.162 258.609,86.162 258.900,86.162 259.191,86.162 259.481,86.162 259.772,86.162 260.063,86.162 260.353,86.162 260.644,86.162 260.934,86.162 261.225,86.162 261.516,86.162 261.806,86.162 262.097,86.162 262.387,86.162 262.678,86.162 262.969,86.162 263.259,86.162 263.550,86.162 263.841,86.162 264.131,86.162 264.422,86.162 264.713,86.162 265.003,86.162 265.294,86.162 265.584,86.162 265.875,86.162 266.166,86.162 266.456,86.162 266.747,86.162 267.038,86.162 267.328,86.162 267.619,86.162 267.909,86.162 268.200,86.162 268.491,86.162 268.781,86.162 269.072,86.162 269.363,86.162 269.653,86.162 269.944,86.162 270.234,86.162 270.525,86.162 270.816,86.162 271.106,86.162 271.397,86.162 271.688,86.162 271.978,86.162 272.269,86.162 272.559,86.162 272.850,86.162 273.141,86.162 273.431,86.162 273.722,86.162 274.012,86.162 274.303,86.162 274.594,86.162 274.884,86.162 275.175,86.162 275.466,86.162 275.756,86.162 276.047,86.162 276.337,86.162 276.628,86.162 276.919,86.162 277.209,86.162 277.500,86.162 277.791,86.162 278.081,86.162 278.372,86.162 278.663,86.162 278.953,86.162 279.244,86.162 279.534,86.162 279.825,86.162 280.116,86.162 280.406,86.162 280.697,86.162 280.987,86.162 281.278,86.162 281.569,86.162 281.859,86.162 282.150,86.162 282.441,86.162 282.731,86.162 283.022,86.162 283.313,86.162 283.603,86.162 283.894,86.162 284.184,86.162 284.475,86.162 284.766,86.162 285.056,86.162 285.347,86.162 285.637,86.162 285.928,86.162 286.219,86.162 286.509,86.162 286.800,86.162 287.091,86.162 287.381,86.162 287.672,86.162 287.962,86.162 288.253,86.162 288.544,86.162 288.834,86.162 289.125,86.162 289.416,86.162 289.706,86.162 289.997,86.162 290.288,86.162 290.578,86.162 290.869,86.162 291.159,86.162 291.450,86.162 291.741,86.162 292.031,86.162 292.322,86.162 292.613,86.162 292.903,86.162 293.194,86.162 293.484,86.162 293.775,86.162 294.066,86.162 294.356,86.162 294.647,86.162 294.938,86.162 295.228,86.162 295.519,86.162 295.809,86.162 296.100,86.162 296.391,86.162 296.681,86.162 296.972,86.162 297.263,86.162 297.553,86.162 297.844,86.162 298.134,86.162 298.425,86.162 298.716,86.162 299.006,86.162 299.297,86.162 299.587,86.162 299.878,86.162 300.169,86.162 300.459,86.162 300.750,86.162 301.041,57.847 301.331,57.847 301.622,57.847 301.913,57.847 302.203,57.847 302.494,57.847 302.784,57.847 303.075,57.847 303.366,57.847 303.656,57.847 303.947,57.847 304.237,57.847 304.528,57.847 304.819,57.847 305.109,57.847 305.400,57.847 305.691,57.847 305.981,57.847 306.272,57.847 306.562,57.847 306.853,57.847 307.144,57.847 307.434,57.847 307.725,57.847 308.016,57.847 308.306,57.847 308.597,57.847 308.887,57.847 309.178,57.847 309.469,57.847 309.759,57.847 310.050,57.847 310.341,57.847 310.631,57.847 310.922,57.847 311.212,57.847 311.503,57.847 311.794,57.847 312.084,57.847 312.375,57.847 312.666,57.847 312.956,57.847 313.247,57.847 313.537,57.847 313.828,57.847 314.119,57.847 314.409,57.847 314.700,57.847 314.991,57.847 315.281,57.847 315.572,57.847 315.863,57.847 316.153,57.847 316.444,57.847 316.734,57.847 317.025,57.847 317.316,57.847 317.606,57.847 317.897,57.847 318.188,57.847 318.478,57.847 318.769,57.847 319.059,57.847 319.350,57.847 319.641,57.847 319.931,57.847 320.222,57.847 320.513,57.847 320.803,57.847 321.094,57.847 321.384,57.847 321.675,57.847 321.966,57.847 322.256,57.847 322.547,57.847 322.838,57.847 323.128,57.847 323.419,57.847 323.709,57.847 324.000,57.847 324.291,57.847 324.581,57.847 324.872,57.847 325.163,57.847 325.453,57.847 325.744,57.847 326.034,57.847 326.325,57.847 326.616,57.847 326.906,57.847 327.197,57.847 327.488,57.847 327.778,57.847 328.069,57.847 328.359,57.847 328.650,57.847 328.941,57.847 329.231,57.847 329.522,57.847 329.812,57.847 330.103,86.162 330.394,86.162 330.684,86.162 330.975,86.162 331.266,86.162 331.556,86.162 331.847,86.162 332.137,86.162 332.428,86.162 332.719,86.162 333.009,86.162 333.300,86.162 333.591,86.162 333.881,86.162 334.172,86.162 334.462,86.162 334.753,86.162 335.044,86.162 335.334,86.162 335.625,86.162 335.916,86.162 336.206,86.162 336.497,86.162 336.787,86.162 337.078,86.162 337.369,86.162 337.659,86.162 337.950,86.162 338.241,86.162 338.531,86.162 338.822,86.162 339.113,86.162 339.403,86.162 339.694,86.162 339.984,86.162 340.275,86.162 340.566,86.162 340.856,86.162 341.147,86.162 341.438,86.162 341.728,86.162 342.019,86.162 342.309,86.162 342.600,86.162 342.891,86.162 343.181,86.162 343.472,86.162 343.762,86.162 344.053,86.162 344.344,86.162 344.634,86.162 344.925,86.162 345.216,86.162 345.506,86.162 345.797,86.162 346.088,86.162 346.378,86.162 346.669,86.162 346.959,86.162 347.250,86.162 347.541,86.162 347.831,86.162 348.122,86.162 348.412,86.162 348.703,86.162 348.994,86.162 349.284,86.162 349.575,86.162 349.866,86.162 350.156,86.162 350.447,86.162 350.737,86.162 351.028,86.162 351.319,86.162 351.609,86.162 351.900,86.162 352.191,86.162 352.481,86.162 352.772,86.162 353.063,86.162 353.353,86.162 353.644,86.162 353.934,86.162 354.225,86.162 354.516,86.162 354.806,86.162 355.097,86.162 355.387,86.162 355.678,86.162 355.969,86.162 356.259,86.162 356.550,86.162 356.841,86.162 357.131,86.162 357.422,86.162 357.713,86.162 358.003,86.162 358.294,86.162 358.584,86.162 358.875,86.162 359.166,86.162 359.456,86.162 359.747,86.162 360.037,86.162 360.328,86.162 360.619,86.162 360.909,86.162 361.200,86.162 361.491,86.162 361.781,86.162 362.072,86.162 362.363,86.162 362.653,86.162 362.944,86.162 363.234,86.162 363.525,86.162 363.816,86.162 364.106,86.162 364.397,86.162 364.688,86.162 364.978,86.162 365.269,86.162 365.559,86.162 365.850,86.162 366.141,86.162 366.431,86.162 366.722,86.162 367.012,86.162 367.303,86.162 367.594,86.162 367.884,86.162 368.175,86.162 368.466,86.162 368.756,86.162 369.047,86.162 369.338,86.162 369.628,86.162 369.919,86.162 370.209,86.162 370.500,86.162 370.791,86.162 371.081,86.162 371.372,86.162 371.663,86.162 371.953,86.162 372.244,86.162 372.534,86.162 372.825,86.162 373.116,86.162 373.406,86.162 373.697,86.162 373.988,86.162 374.278,86.162 374.569,86.162 374.859,86.162 375.150,86.162 375.441,86.162 375.731,86.162 376.022,86.162 376.313,86.162 376.603,86.162 376.894,86.162 377.184,86.162 377.475,86.162 377.766,86.162 378.056,86.162 378.347,86.162 378.637,86.162 378.928,86.162 379.219,86.162 379.509,86.162 379.800,86.162 380.091,86.162 380.381,86.162 380.672,86.162 380.962,86.162 381.253,86.162 381.544,86.162 381.834,86.162 382.125,86.162 382.416,86.162 382.706,86.162 382.997,86.162 383.288,86.162 383.578,86.162 383.869,86.162 384.159,86.162 384.450,86.162 384.741,86.162 385.031,86.162 385.322,86.162 385.612,86.162 385.903,86.162 386.194,86.162 386.484,86.162 386.775,86.162 387.066,86.162 387.356,86.162 387.647,86.162 387.938,86.162 "
       id="polyline64"
       style="fill:none;stroke:#0000ff;stroke-width:0.5pt;stroke-dasharray:none" />
    <g
       transform="translate(87.666786,494.49833)"
       id="g69">
      <g
         id="g71">
        <text
           x="0"
           y="0"
           font-size="17pt"
           id="text73"
           style="font-size:21.25px;text-anchor:start;fill:#000000;font-family:Helvetica">0</text>
      </g>
    </g>
    <g
       transform="translate(116.72979,494.49833)"
       id="g76">
      <g
         id="g78">
        <text
           x="0"
           y="0"
           font-size="17pt"
           id="text80"
           style="font-size:21.25px;text-anchor:start;fill:#000000;font-family:Helvetica">1</text>
      </g>
    </g>
    <g
       transform="translate(145.79179,494.49833)"
       id="g83">
      <g
         id="g85">
        <text
           x="0"
           y="0"
           font-size="17pt"
           id="text87"
           style="font-size:21.25px;text-anchor:start;fill:#000000;font-family:Helvetica">0</text>
      </g>
    </g>
    <g
       transform="translate(174.85479,494.49833)"
       id="g90">
      <g
         id="g92">
        <text
           x="0"
           y="0"
           font-size="17pt"
           id="text94"
           style="font-size:21.25px;text-anchor:start;fill:#000000;font-family:Helvetica">1</text>
      </g>
    </g>
    <g
       transform="translate(203.91679,494.49833)"
       id="g97">
      <g
         id="g99">
        <text
           x="0"
           y="0"
           font-size="17pt"
           id="text101"
           style="font-size:21.25px;text-anchor:start;fill:#000000;font-family:Helvetica">1</text>
      </g>
    </g>
    <g
       transform="translate(232.97979,494.49833)"
       id="g104">
      <g
         id="g106">
        <text
           x="0"
           y="0"
           font-size="17pt"
           id="text108"
           style="font-size:21.25px;text-anchor:start;fill:#000000;font-family:Helvetica">0</text>
      </g>
    </g>
    <g
       transform="translate(262.04179,494.49833)"
       id="g111">
      <g
         id="g113">
        <text
           x="0"
           y="0"
           font-size="17pt"
           id="text115"
           style="font-size:21.25px;text-anchor:start;fill:#000000;font-family:Helvetica">0</text>
      </g>
    </g>
    <g
       transform="translate(291.10479,494.49833)"
       id="g118">
      <g
         id="g120">
        <text
           x="0"
           y="0"
           font-size="17pt"
           id="text122"
           style="font-size:21.25px;text-anchor:start;fill:#000000;font-family:Helvetica">1</text>
      </g>
    </g>
    <g
       transform="translate(320.16679,494.49833)"
       id="g125">
      <g
         id="g127">
        <text
           x="0"
           y="0"
           font-size="17pt"
           id="text129"
           style="font-size:21.25px;text-anchor:start;fill:#000000;font-family:Helvetica">0</text>
      </g>
    </g>
    <g
       transform="translate(349.22979,494.49833)"
       id="g132">
      <g
         id="g134">
        <text
           x="0"
           y="0"
           font-size="17pt"
           id="text136"
           style="font-size:21.25px;text-anchor:start;fill:#000000;font-family:Helvetica">0</text>
      </g>
    </g>
    <polyline
       transform="translate(-16.911214,443.21533)"
       style="fill:none;stroke:#000000;stroke-width:0.5pt;stroke-dasharray:none"
       id="polyline143"
       points="97.313,114.477 97.313,110.408 " />
    <polyline
       transform="translate(-16.911214,443.21533)"
       style="fill:none;stroke:#000000;stroke-width:0.5pt;stroke-dasharray:none"
       id="polyline145"
       points="126.375,114.477 126.375,110.408 " />
    <polyline
       transform="translate(-16.911214,443.21533)"
       style="fill:none;stroke:#000000;stroke-width:0.5pt;stroke-dasharray:none"
       id="polyline147"
       points="155.438,114.477 155.438,110.408 " />
    <polyline
       transform="translate(-16.911214,443.21533)"
       style="fill:none;stroke:#000000;stroke-width:0.5pt;stroke-dasharray:none"
       id="polyline149"
       points="184.500,114.477 184.500,110.408 " />
    <polyline
       transform="translate(-16.911214,443.21533)"
       style="fill:none;stroke:#000000;stroke-width:0.5pt;stroke-dasharray:none"
       id="polyline151"
       points="213.563,114.477 213.563,110.408 " />
    <polyline
       transform="translate(-16.911214,443.21533)"
       style="fill:none;stroke:#000000;stroke-width:0.5pt;stroke-dasharray:none"
       id="polyline153"
       points="242.625,114.477 242.625,110.408 " />
    <polyline
       transform="translate(-16.911214,443.21533)"
       style="fill:none;stroke:#000000;stroke-width:0.5pt;stroke-dasharray:none"
       id="polyline155"
       points="271.688,114.477 271.688,110.408 " />
    <polyline
       transform="translate(-16.911214,443.21533)"
       style="fill:none;stroke:#000000;stroke-width:0.5pt;stroke-dasharray:none"
       id="polyline157"
       points="300.750,114.477 300.750,110.408 " />
    <polyline
       transform="translate(-16.911214,443.21533)"
       style="fill:none;stroke:#000000;stroke-width:0.5pt;stroke-dasharray:none"
       id="polyline159"
       points="329.813,114.477 329.813,110.408 " />
    <polyline
       transform="translate(-16.911214,443.21533)"
       style="fill:none;stroke:#000000;stroke-width:0.5pt;stroke-dasharray:none"
       id="polyline161"
       points="358.875,114.477 358.875,110.408 " />
    <polyline
       transform="translate(-16.911214,443.21533)"
       style="fill:none;stroke:#000000;stroke-width:0.5pt;stroke-dasharray:none"
       id="polyline163"
       points="387.938,114.477 387.938,110.408 " />
    <polyline
       transform="translate(-16.911214,443.21533)"
       style="fill:none;stroke:#000000;stroke-width:0.5pt;stroke-dasharray:none"
       id="polyline167"
       points="97.313,29.531 97.313,33.600 " />
    <polyline
       transform="translate(-16.911214,443.21533)"
       style="fill:none;stroke:#000000;stroke-width:0.5pt;stroke-dasharray:none"
       id="polyline169"
       points="126.375,29.531 126.375,33.600 " />
    <polyline
       transform="translate(-16.911214,443.21533)"
       style="fill:none;stroke:#000000;stroke-width:0.5pt;stroke-dasharray:none"
       id="polyline171"
       points="155.438,29.531 155.438,33.600 " />
    <polyline
       transform="translate(-16.911214,443.21533)"
       style="fill:none;stroke:#000000;stroke-width:0.5pt;stroke-dasharray:none"
       id="polyline173"
       points="184.500,29.531 184.500,33.600 " />
    <polyline
       transform="translate(-16.911214,443.21533)"
       style="fill:none;stroke:#000000;stroke-width:0.5pt;stroke-dasharray:none"
       id="polyline175"
       points="213.563,29.531 213.563,33.600 " />
    <polyline
       transform="translate(-16.911214,443.21533)"
       style="fill:none;stroke:#000000;stroke-width:0.5pt;stroke-dasharray:none"
       id="polyline177"
       points="242.625,29.531 242.625,33.600 " />
    <polyline
       transform="translate(-16.911214,443.21533)"
       style="fill:none;stroke:#000000;stroke-width:0.5pt;stroke-dasharray:none"
       id="polyline179"
       points="271.688,29.531 271.688,33.600 " />
    <polyline
       transform="translate(-16.911214,443.21533)"
       style="fill:none;stroke:#000000;stroke-width:0.5pt;stroke-dasharray:none"
       id="polyline181"
       points="300.750,29.531 300.750,33.600 " />
    <polyline
       transform="translate(-16.911214,443.21533)"
       style="fill:none;stroke:#000000;stroke-width:0.5pt;stroke-dasharray:none"
       id="polyline183"
       points="329.813,29.531 329.813,33.600 " />
    <polyline
       transform="translate(-16.911214,443.21533)"
       style="fill:none;stroke:#000000;stroke-width:0.5pt;stroke-dasharray:none"
       id="polyline185"
       points="358.875,29.531 358.875,33.600 " />
    <polyline
       transform="translate(-16.911214,443.21533)"
       style="fill:none;stroke:#000000;stroke-width:0.5pt;stroke-dasharray:none"
       id="polyline187"
       points="387.938,29.531 387.938,33.600 " />
  </g>
</svg>
