<?xml version="1.0" encoding="UTF-8" standalone="no"?>
<svg xmlns="http://www.w3.org/2000/svg" width="80pt" height="80pt">
  <path fill-opacity=".5" fill-rule="evenodd" d="M39.375 18.125c-5.6282 0-10.18749 3.771577-10.1875 8.40625 0 3.181801 2.23541 5.857088 5.40625 7.28125-1.7079.331964-3.29288.783747-4.78125 1.34375-1.71602-1.080612-3.76824-1.843749-6.09375-1.84375-5.6282 0-10.18751 3.771575-10.1875 8.40625 0 3.18871 2.2241 5.89111 5.40625 7.3125-4.2072.81811-8.02842 2.24189-10.28125 4.4375-4.74434 6.4775-2.97639 11.57809-3.0625 12.5.42643.49162 3.13647 2.37876 5.15625 2.21875-.05265-1.08348.13148-2.22762.21875-3.40625.06847-1.11133.03183-1.68043.15625-2.8125.28575-2.21595.59375-3.9375.59375-3.9375-.11546.09508-.37725 1.96761-.59375 3.9375-.11325.87824-.08423 1.83983-.15625 2.8125-.07896 1.28173-.24508 2.82104-.15625 3.40625-.01959.00196-.04278-.00156-.0625 0 .00096.0198-.00102.04277 0 .0625.2199 3.66999 2.00617 12.10333 2.78125 12.8125 6.56787.96964 12.93556.86984 19.65625.34375 1.05312-.08244 2.04916-.0488 3.125-.15625 0 0 .2377-2.46987.3125-3.1875.64416-2.21024 1.17069-4.85016.75-7.3125.06846-.69289.05562-.6608.125-1.375-.08415-1.21177-.21945-1.89418-.34375-2.9375.01109.00044.02016.03081.03125.03125.14145 1.33539.3125 2.90625.3125 2.90625 2.62872-.46054 4.49628-.91322 7.125-2.4375.07267-.07779.09214-.36169.15625-.5 1.1345-.04968 2.28328-.10274 3.4375-.1875.3403 1.2394.73929 2.91505.96875 3.125 5.72343.84497 11.31946.83113 17.09375.5.60455 2.93066 1.2677 5.52216 1.6875 5.90625 6.49248.95851 12.80317.8827 19.4375.375.28562-.00128.4273-.01641.71875-.03125.8902-.07296 1.71838-.0657 2.625-.15625 0 0 .24137-2.41159.3125-3.09375.64038-2.17534 1.13662-4.80016.75-7.28125.07326-.7407.08185-.70288.15625-1.46875-.17384-2.50323-.49953-4.35495-.78125-6.0625-.23581-1.61831-.46711-3.39523-.78125-4.34375-.02305-.05542.36019 1.79165.78125 4.34375.43951 3.01626.78125 6.0625.78125 6.0625 2.62872-.46054 4.46502-.94446 7.09375-2.46875.86119-.92192 1.30472-6.18232-2.59375-13.34375C94.80653 45.259046 89.7511 43.603747 84 43.15625c2.57187-1.524732 4.375-3.880498 4.375-6.6875 0-.020795.00018-.041741 0-.0625.06787-.335604.18453-.777057.21875-1-.20862-.141184-.35645-.115998-.53125-.1875-.75878-4.018749-4.81437-7.156251-9.90625-7.15625-4.22115 0-7.82648 2.11183-9.375 5.125.47951-.973355.78125-2.041744.78125-3.15625 0-.020971.00019-.041565 0-.0625.06637-.329787.18499-.780076.21875-1-.21353-.144504-.35308-.115915-.53125-.1875-.76465-4.013123-4.78796-7.125003-9.875-7.125-5.6282 0-10.1875 3.740326-10.1875 8.375 0 1.510331.58872 2.868831 1.4375 4.09375-1.66393-.443258-3.47511-.72373-5.40625-.875 2.21319-1.309591 3.70069-3.268512 4.09375-5.59375.14692-.470553.17202-.746057.25-1.125 0-.010443.00005-.020816 0-.03125.07001-.34382.18388-.804069.21875-1.03125-.21353-.144504-.35308-.115915-.53125-.1875-.76016-4.017428-4.78426-7.156253-9.875-7.15625zM68.75 33.3125c-.47951.973354-.78125 2.041745-.78125 3.15625 0 .212335.13741.385358.15625.59375-.94203-.156684-1.90518-.265392-2.90625-.34375 1.50126-.894361 2.80004-1.983441 3.53125-3.40625z"/>
  <g fill-rule="evenodd" transform="translate(0 -2.5)">
    <path fill="#ff8a00" stroke="#000" stroke-linejoin="round" stroke-width="2.2418875" d="M18.815381 66.311465c.156649-1.630275-3.046345-10.639625 5.583697-22.094177 13.01629-12.332393 53.567295-12.473631 60.658702.190342 7.091407 12.663973 6.3193 21.99353 4.752781 23.623811-4.781681 2.69548-8.153493 3.509874-12.935176 4.324269 0 0-1.177675-13.555204-2.81415-18.358779-.069967-.163561 2.025318 7.320618 2.81415 18.363242-1.090983 10.917222-2.181972 20.956596-2.181972 20.956596-14.445757 1.4026-27.638299 1.676542-41.457457-.306817-1.409864-1.254061-4.666088-16.159924-5.066083-22.649786-.399995-7.493105 1.793129-18.092138 1.793129-18.092138-.469952.376214-2.181972 14.497985-1.636475 17.991492-3.684107.358361-8.727887-3.070214-9.511146-3.948055z" transform="matrix(.54975 0 0 .5655 27.39579 15.90509)"/>
    <path fill="#ff8a00" stroke="#000" stroke-linejoin="round" stroke-width="2.2418875" d="M70.32947 23.44657c0 8.195774-8.308947 14.847418-18.546757 14.847418-10.237804 0-18.546757-6.651644-18.546757-14.847418 0-8.195773 8.308953-14.847418 18.546757-14.847418 10.23781 0 18.546757 6.651645 18.546757 14.847418z" transform="matrix(.54975 0 0 .5655 27.39579 15.90509)"/>
    <path fill="#fff" fill-opacity=".24999996" d="M55.71432558 21.40142198c-4.44018832-1.52246328-14.89929872 6.39434563-6.61094737 13.49917403 5.03221362-1.0149754-4.63753045-9.23627727 6.61094737-13.49917403zM50.58344117 36.9305474c-.49335395-.1014975-7.10430132 1.11647288-9.47240249 4.46589212-1.9734169 1.21797037-3.84816303 7.00333149-3.05879615 11.67221802.98670845.81198044 2.86145457 2.13144886 3.35480907 1.8269564 2.76278379-5.98835608-6.51227657-12.17970656 9.17638957-17.96506655z"/>
    <path fill="#fff" fill-opacity=".24999996" d="M43.9724938 47.08030202c-1.97341745 6.19135049-.09867078 17.25458417 2.07208826 20.90849529 2.17075849.71048295 5.2295552 1.01497597 5.92025073.811981.5920253-5.17637564-8.18968056-4.46589269-7.99233898-21.7204763z"/>
    <path fill-opacity=".24999996" d="M56.30635032 37.13354236c8.3870227-2.33444326 6.2162642-11.57072053 9.96575644-9.0332823-.29601237 1.92845333-1.48006295 8.72878985-9.96575644 9.0332823zm15.78733693 18.67554951s4.53885912-.91347792 4.73620125-1.82695585c1.0853798-3.55241476-1.87474612-11.97671103-3.25613829-13.39767694-6.70961815-2.43594131 7.30164345 14.10815933-1.48006296 15.22463279z"/>
    <path fill-opacity=".23999996" d="M63.11463982 68.80077831s4.34151753.30449245 4.83487148-.50748798c.4933545-.81198044 2.76278434-7.91680885 1.38139217-11.36772557-4.53885966-3.85690666 1.67740454 11.77371607-6.21626365 11.87521355z"/>
    <path fill="#8400ff" stroke="#000" stroke-linejoin="round" stroke-width="2.2418875" d="M18.815381 66.311465c.156649-1.630275-3.046345-10.639625 5.583697-22.094177 13.01629-12.332393 53.567295-12.473631 60.658702.190342 7.091407 12.663973 6.3193 21.99353 4.752781 23.623811-4.781681 2.69548-8.153493 3.509874-12.935176 4.324269 0 0-1.177675-13.555204-2.81415-18.358779-.069967-.163561 2.025318 7.320618 2.81415 18.363242-1.090983 10.917222-2.181972 20.956596-2.181972 20.956596-14.445757 1.4026-27.638299 1.676542-41.457457-.306817-1.409864-1.254061-4.666088-16.159924-5.066083-22.649786-.399995-7.493105 1.793129-18.092138 1.793129-18.092138-.469952.376214-2.181972 14.497985-1.636475 17.991492-3.684107.358361-8.727887-3.070214-9.511146-3.948055z" transform="matrix(.54975 0 0 .5655 46.19665 22.32519)"/>
    <path fill="#8400ff" stroke="#000" stroke-linejoin="round" stroke-width="2.2418875" d="M70.32947 23.44657c0 8.195774-8.308947 14.847418-18.546757 14.847418-10.237804 0-18.546757-6.651644-18.546757-14.847418 0-8.195773 8.308953-14.847418 18.546757-14.847418 10.23781 0 18.546757 6.651645 18.546757 14.847418z" transform="matrix(.54975 0 0 .5655 46.19665 22.32519)"/>
    <path fill="#fff" fill-opacity=".24999996" d="M74.51518558 27.82152198c-4.44018832-1.52246328-14.89929872 6.39434563-6.61094737 13.49917403 5.03221362-1.0149754-4.63753045-9.23627727 6.61094737-13.49917403zM69.38430117 43.3506474c-.49335395-.1014975-7.10430132 1.11647288-9.47240249 4.46589212-1.9734169 1.21797037-3.84816303 7.00333149-3.05879615 11.67221802.98670845.81198044 2.86145457 2.13144886 3.35480907 1.8269564 2.76278379-5.98835608-6.51227657-12.17970656 9.17638957-17.96506655z"/>
    <path fill="#fff" fill-opacity=".24999996" d="M62.7733538 53.50040202c-1.97341745 6.19135049-.09867078 17.25458417 2.07208826 20.90849529 2.17075849.71048295 5.2295552 1.01497597 5.92025073.811981.5920253-5.17637564-8.18968056-4.46589269-7.99233898-21.7204763z"/>
    <path fill-opacity=".24999996" d="M75.10721032 43.55364236c8.3870227-2.33444326 6.2162642-11.57072053 9.96575644-9.0332823-.29601237 1.92845333-1.48006295 8.72878985-9.96575644 9.0332823zm15.78733693 18.67554951s4.53885912-.91347792 4.73620125-1.82695585c1.0853798-3.55241476-1.87474612-11.97671103-3.25613829-13.39767694-6.70961815-2.43594131 7.30164345 14.10815933-1.48006296 15.22463279z"/>
    <path fill-opacity=".23999996" d="M81.91549982 75.22087831s4.34151753.30449245 4.83487148-.50748798c.4933545-.81198044 2.76278434-7.91680885 1.38139217-11.36772557-4.53885966-3.85690666 1.67740454 11.77371607-6.21626365 11.87521355z"/>
    <path fill="#008500" stroke="#000" stroke-linejoin="round" stroke-width="2.2418875" d="M18.815381 66.311465c.156649-1.630275-3.046345-10.639625 5.583697-22.094177 13.01629-12.332393 53.567295-12.473631 60.658702.190342 7.091407 12.663973 6.3193 21.99353 4.752781 23.623811-4.781681 2.69548-8.153493 3.509874-12.935176 4.324269 0 0-1.177675-13.555204-2.81415-18.358779-.069967-.163561 2.025318 7.320618 2.81415 18.363242-1.090983 10.917222-2.181972 20.956596-2.181972 20.956596-14.445757 1.4026-27.638299 1.676542-41.457457-.306817-1.409864-1.254061-4.666088-16.159924-5.066083-22.649786-.399995-7.493105 1.793129-18.092138 1.793129-18.092138-.469952.376214-2.181972 14.497985-1.636475 17.991492-3.684107.358361-8.727887-3.070214-9.511146-3.948055z" transform="matrix(.54975 0 0 .5655 7.407524 12.39695)"/>
    <path fill="#008500" stroke="#000" stroke-linejoin="round" stroke-width="2.2418875" d="M70.32947 23.44657c0 8.195774-8.308947 14.847418-18.546757 14.847418-10.237804 0-18.546757-6.651644-18.546757-14.847418 0-8.195773 8.308953-14.847418 18.546757-14.847418 10.23781 0 18.546757 6.651645 18.546757 14.847418z" transform="matrix(.54975 0 0 .5655 7.407524 12.39695)"/>
    <path fill="#fff" fill-opacity=".24999996" d="M35.72605958 17.89328198c-4.44018832-1.52246328-14.89929872 6.39434563-6.61094737 13.49917403 5.03221362-1.0149754-4.63753045-9.23627727 6.61094737-13.49917403zM30.59517517 33.4224074c-.49335395-.1014975-7.10430132 1.11647288-9.47240249 4.46589212-1.9734169 1.21797037-3.84816303 7.00333149-3.05879615 11.67221802.98670845.81198044 2.86145457 2.13144886 3.35480907 1.8269564 2.76278379-5.98835608-6.51227657-12.17970656 9.17638957-17.96506655z"/>
    <path fill="#fff" fill-opacity=".24999996" d="M23.9842278 43.57216202c-1.97341745 6.19135049-.09867078 17.25458417 2.07208826 20.90849529 2.17075849.71048295 5.2295552 1.01497597 5.92025073.811981.5920253-5.17637564-8.18968056-4.46589269-7.99233898-21.7204763z"/>
    <path fill-opacity=".24999996" d="M36.31808432 33.62540236c8.3870227-2.33444326 6.2162642-11.57072053 9.96575644-9.0332823-.29601237 1.92845333-1.48006295 8.72878985-9.96575644 9.0332823zm15.78733693 18.67554951s4.53885912-.91347792 4.73620125-1.82695585c1.0853798-3.55241476-1.87474612-11.97671103-3.25613829-13.39767694-6.70961815-2.43594131 7.30164345 14.10815933-1.48006296 15.22463279z"/>
    <path fill-opacity=".23999996" d="M43.12637382 65.29263831s4.34151753.30449245 4.83487148-.50748798c.4933545-.81198044 2.76278434-7.91680885 1.38139217-11.36772557-4.53885966-3.85690666 1.67740454 11.77371607-6.21626365 11.87521355z"/>
    <path fill="#00c" stroke="#000" stroke-linejoin="round" stroke-width="2.2418875" d="M18.815381 66.311465c.156649-1.630275-3.046345-10.639625 5.583697-22.094177 13.01629-12.332393 53.567295-12.473631 60.658702.190342 7.091407 12.663973 6.3193 21.99353 4.752781 23.623811-4.781681 2.69548-8.153493 3.509874-12.935176 4.324269 0 0-1.177675-13.555204-2.81415-18.358779-.069967-.163561 2.025318 7.320618 2.81415 18.363242-1.090983 10.917222-2.181972 20.956596-2.181972 20.956596-14.445757 1.4026-27.638299 1.676542-41.457457-.306817-1.409864-1.254061-4.666088-16.159924-5.066083-22.649786-.399995-7.493105 1.793129-18.092138 1.793129-18.092138-.469952.376214-2.181972 14.497985-1.636475 17.991492-3.684107.358361-8.727887-3.070214-9.511146-3.948055z" transform="matrix(.54975 0 0 .5655 -8.255344 27.59062)"/>
    <path fill="#00c" stroke="#000" stroke-linejoin="round" stroke-width="2.2418875" d="M70.32947 23.44657c0 8.195774-8.308947 14.847418-18.546757 14.847418-10.237804 0-18.546757-6.651644-18.546757-14.847418 0-8.195773 8.308953-14.847418 18.546757-14.847418 10.23781 0 18.546757 6.651645 18.546757 14.847418z" transform="matrix(.54975 0 0 .5655 -8.255344 27.59062)"/>
    <path fill="#fff" fill-opacity=".24999996" d="M20.06319158 33.08695198c-4.44018832-1.52246328-14.89929872 6.39434563-6.61094737 13.49917403 5.03221362-1.0149754-4.63753045-9.23627727 6.61094737-13.49917403zM14.93230717 48.6160774c-.49335395-.1014975-7.10430132 1.11647288-9.47240249 4.46589212-1.9734169 1.21797037-3.84816303 7.00333149-3.05879615 11.67221802.98670845.81198044 2.86145457 2.13144886 3.35480907 1.8269564 2.7627838-5.98835607-6.51227657-12.17970655 9.17638957-17.96506654z"/>
    <path fill="#fff" fill-opacity=".24999996" d="M8.3213598 58.76583202c-1.97341745 6.19135049-.09867078 17.25458417 2.07208826 20.90849529 2.17075849.71048295 5.2295552 1.01497597 5.92025073.811981.5920253-5.17637564-8.18968056-4.46589269-7.99233898-21.7204763z"/>
    <path fill-opacity=".24999996" d="M20.65521632 48.81907236c8.3870227-2.33444326 6.2162642-11.57072053 9.96575644-9.0332823-.29601237 1.92845333-1.48006295 8.72878985-9.96575644 9.0332823zm15.78733693 18.67554951s4.53885912-.91347792 4.73620125-1.82695585c1.0853798-3.55241476-1.87474612-11.97671103-3.25613829-13.39767694-6.70961815-2.43594131 7.30164345 14.10815933-1.48006296 15.22463279z"/>
    <path fill-opacity=".23999996" d="M27.46350582 80.48630831s4.34151753.30449245 4.83487148-.50748798c.4933545-.81198044 2.76278434-7.91680885 1.38139217-11.36772557-4.53885966-3.85690666 1.67740454 11.77371607-6.21626365 11.87521355z"/>
  </g>
</svg>