<?xml version="1.0" encoding="UTF-8" standalone="no"?>
<!-- Created with Inkscape (http://www.inkscape.org/) -->
<svg xmlns:rdf="http://www.w3.org/1999/02/22-rdf-syntax-ns#" xmlns="http://www.w3.org/2000/svg" height="400" width="580" version="1.0" y="0" x="0" xmlns:cc="http://creativecommons.org/ns#" xmlns:xlink="http://www.w3.org/1999/xlink" xmlns:dc="http://purl.org/dc/elements/1.1/">
<style>
 .cl1{fill-rule:nonzero;fill:#000000;}
 .cl2{font-size:25px;font-family:Bitstream Vera Sans;fill:#000000;}
</style>
 <metadata>
  <rdf:RDF>
   <cc:Work rdf:about="">
    <dc:format>image/svg+xml</dc:format>
    <dc:type rdf:resource="http://purl.org/dc/dcmitype/StillImage"/>
    <dc:title/>
   </cc:Work>
  </rdf:RDF>
 </metadata>
 <path style="stroke-linejoin:miter;stroke:#000000;stroke-linecap:butt;stroke-width:0.856px;fill:none" d="M 519.687,356.526 43.685,355.801 41.659,43.443"/>
 <path style="stroke-linejoin:miter;stroke:#4040ff;stroke-linecap:butt;stroke-width:2.505;fill:none" d="M 71.252,210.422 C 194.636,481.272 449.310,55.289 449.310,55.289"/>
 <text class="cl2" y="62.230" x="460.781">MC</text>
 <text class="cl2" y="28.006" x="10.854">Price</text>
 <text style="font-size:23px;font-family:Bitstream Vera Sans;fill:#000000" y="379.821" x="463.511">Quantity</text>
 <path class="cl1" d="m 41.502,37.688 6.925,17.257 c 0,0 -5.981,-8.428 -13.221,0 l 6.296,-17.257 z"/>
 <path class="cl1" d="m 533.784,355.466 -17.257,6.925 c 0,0 8.428,-5.981 0,-13.221 l 17.257,6.296 z"/>
 <path style="stroke-linejoin:miter;stroke:#ff0000;stroke-linecap:butt;stroke-width:2.512;fill:none" d="m 71.256,136.781 c 294.513,214.550 367.227,0.707 367.227,0.707"/>
 <path style="stroke-linejoin:miter;stroke:#008000;stroke-linecap:butt;stroke-width:2.704;fill:none" d="m 43.272,179.922 395.056,0 0,0"/>
 <text style="font-size:25px;font-family:Bitstream Vera Sans;fill:#000000; font-size:20px;" y="184.673" x="458.756">D=AR=MR</text>
 <text class="cl2" y="138.335" x="458.617">ATC</text>
 <text class="cl2" y="188.651" x="15.495">P</text>
 <path style="stroke-linejoin:miter;stroke:#000000;stroke-linecap:butt;stroke-dasharray:6.559, 6.559;stroke-width:1.639;fill:none" d="m 359.333,181.645 0,173.721"/>
 <text class="cl2" y="379.310" x="350.933">Q</text>
 <text class="cl2" y="225.337" x="13.581">C</text>
 <rect style="fill-opacity:0.703;fill:#ffffff" height="37.9" width="313" y="181" x="44.4"/>
 <path style="stroke-linejoin:miter;stroke:#000000;stroke-linecap:butt;stroke-dasharray:6.215, 6.215;stroke-width:1.035;fill:none" d="m 357.106,221.143 -315.944,0"/>
 <text style="font-size:23px;font-family:Bitstream Vera Sans;fill:#000000; font-size:21px;" y="207.989" x="127.411">Economic profit</text>
</svg>
