<?xml version="1.0" encoding="UTF-8" standalone="no"?>
<!-- Created with Serif DrawPlus 11, 0, 3, 23 (Feb 25, 14:12:55) (http://www.serif.com) -->
<svg version="1.1" xmlns="http://www.w3.org/2000/svg" xmlns:xlink="http://www.w3.org/1999/xlink" width="356.068" height="257.327">
	<g id="dp_group001" transform="matrix(1,0,0,1,548.197,-213.527)">
		<path id="dp_path002" fill="none" fill-rule="evenodd" stroke="black" stroke-width="2.26533" d="M -396.667,349.519 L -368,343.519 L -352,361.519"/>
		<path id="dp_path003" fill="none" fill-rule="evenodd" stroke="#ee0505" stroke-width="2.26533" d="M -548,338.848 L -192.328,401.916"/>
		<text id="dp_text001" transform="matrix(1,0,0,1,-323.395,348.92)" xml:space="preserve" fill="black" font-family="Arial" font-size="31" font-weight="700" x="0" y="0">r </text>
		<text id="dp_text002" transform="matrix(1.68283,0,0,1,-325.07,329.901)" xml:space="preserve" fill="black" font-family="Arial" font-size="17" font-weight="700" x="0" y="0">^ </text>
		<g id="dp_group006">
			<g id="dp_group007">
				<path id="dp_path008" fill="black" fill-rule="evenodd" d="M -264.316,343.379 L -263.863,345.599 L -262.959,350.037 L -252.993,342.227 L -265.22,338.94 Z "/>
				<path id="dp_path009" fill="black" d="M -380.791,369.448 L -263.863,345.599 L -264.316,343.38 L -381.244,367.229 Z "/>
			</g>
		</g>
		<text id="dp_text003" transform="matrix(1.68283,0,0,1,-311.01,262.28)" xml:space="preserve" fill="black" font-family="Arial" font-size="17" font-weight="700" x="0" y="0">^ </text>
		<path id="dp_path011" fill="#cd0101" fill-rule="evenodd" d="M -218.912,364.723 C -219.015,364.313 -219.147,363.911 -219.311,363.515 C -219.473,363.116 -219.688,362.764 -219.953,362.457 C -220.219,362.152 -220.531,361.901 -220.888,361.707 C -221.245,361.513 -221.669,361.416 -222.16,361.416 C -222.649,361.416 -223.12,361.513 -223.569,361.707 C -224.019,361.901 -224.447,362.152 -224.856,362.457 C -225.264,362.764 -225.652,363.116 -226.02,363.515 C -226.388,363.911 -226.724,364.313 -227.031,364.723 C -227.949,365.928 -228.685,367.179 -229.237,368.476 C -229.788,369.772 -230.227,371.083 -230.555,372.409 C -230.901,373.737 -231.121,375.049 -231.213,376.344 C -231.305,377.641 -231.197,378.892 -230.891,380.097 C -230.789,380.505 -230.651,380.904 -230.477,381.289 C -230.304,381.677 -230.089,382.025 -229.835,382.331 C -229.579,382.637 -229.272,382.888 -228.915,383.081 C -228.557,383.276 -228.133,383.373 -227.644,383.373 C -227.153,383.373 -226.684,383.276 -226.235,383.081 C -225.785,382.888 -225.351,382.637 -224.932,382.331 C -224.513,382.025 -224.12,381.677 -223.752,381.289 C -223.385,380.904 -223.048,380.505 -222.741,380.097 C -221.843,378.892 -221.117,377.641 -220.567,376.344 C -220.015,375.049 -219.565,373.737 -219.219,372.409 C -218.892,371.083 -218.683,369.772 -218.591,368.476 C -218.499,367.179 -218.605,365.928 -218.912,364.723 Z M -220.628,364.965 C -220.525,366.071 -220.587,367.207 -220.812,368.373 C -221.036,369.54 -221.292,370.727 -221.577,371.935 L -227.98,371.935 C -227.695,370.727 -227.368,369.54 -227,368.373 C -226.632,367.207 -226.121,366.071 -225.468,364.965 C -224.999,364.189 -224.513,363.512 -224.013,362.94 C -223.512,362.365 -222.945,362.08 -222.312,362.08 C -222.007,362.08 -221.751,362.156 -221.547,362.309 C -221.343,362.463 -221.179,362.672 -221.056,362.94 C -220.933,363.205 -220.843,363.512 -220.781,363.86 C -220.72,364.209 -220.668,364.577 -220.628,364.965 Z M -221.823,372.88 C -222.108,374.085 -222.435,375.264 -222.803,376.416 C -223.171,377.569 -223.681,378.708 -224.335,379.832 C -224.784,380.605 -225.264,381.28 -225.775,381.851 C -226.285,382.423 -226.847,382.709 -227.46,382.709 C -227.767,382.709 -228.027,382.632 -228.241,382.479 C -228.456,382.327 -228.624,382.117 -228.747,381.851 C -228.869,381.585 -228.967,381.28 -229.037,380.932 C -229.109,380.585 -229.155,380.22 -229.176,379.832 C -229.257,378.708 -229.191,377.569 -228.976,376.416 C -228.761,375.264 -228.512,374.085 -228.225,372.88 Z "/>
		<g id="dp_group012">
			<g id="dp_group013">
				<path id="dp_path014" fill="#ed0101" d="M -373.396,308.429 L -371.649,308.444 L -369.907,308.468 L -368.169,308.501 L -366.441,308.544 L -364.716,308.597 L -362.996,308.659 L -361.285,308.729 L -359.579,308.809 L -357.879,308.899 L -356.187,308.997 L -354.5,309.104 L -352.82,309.221 L -351.147,309.347 L -349.481,309.48 L -347.824,309.624 L -346.173,309.775 L -344.529,309.936 L -342.893,310.104 L -341.265,310.283 L -339.645,310.468 L -338.035,310.664 L -336.429,310.867 L -334.833,311.077 L -333.247,311.296 L -331.669,311.525 L -330.099,311.761 L -328.537,312.005 L -326.985,312.256 L -325.443,312.516 L -323.908,312.784 L -322.385,313.06 L -320.871,313.344 L -319.365,313.636 L -317.869,313.935 L -316.385,314.241 L -314.911,314.556 L -313.444,314.879 L -311.991,315.207 L -310.547,315.544 L -309.112,315.888 L -307.689,316.239 L -306.277,316.597 L -304.877,316.963 L -303.487,317.336 L -302.108,317.715 L -300.741,318.101 L -299.385,318.493 L -298.043,318.893 L -296.711,319.303 L -295.391,319.716 L -294.083,320.136 L -292.788,320.563 L -291.504,320.996 L -290.233,321.436 L -288.976,321.884 L -287.731,322.336 L -286.497,322.795 L -285.277,323.26 L -284.072,323.731 L -282.88,324.209 L -281.701,324.693 L -280.536,325.183 L -279.383,325.679 L -278.245,326.179 L -277.121,326.687 L -276.011,327.2 L -274.916,327.717 L -273.836,328.241 L -272.768,328.771 L -271.716,329.305 L -270.68,329.845 L -269.659,330.391 L -268.649,330.944 L -268.152,331.22 L -267.659,331.497 L -267.169,331.779 L -266.684,332.059 L -266.201,332.343 L -265.721,332.627 L -265.248,332.911 L -264.779,333.197 L -264.311,333.485 L -263.848,333.773 L -263.389,334.063 L -262.936,334.353 L -262.485,334.647 L -262.037,334.94 L -261.596,335.235 L -261.156,335.531 L -260.721,335.827 L -260.292,336.124 L -259.867,336.424 L -259.444,336.724 L -259.027,337.025 L -258.613,337.327 L -258.204,337.632 L -257.797,337.937 L -257.396,338.243 L -257,338.549 L -256.607,338.857 L -256.219,339.165 L -255.835,339.476 L -255.455,339.787 L -255.08,340.099 L -254.708,340.412 L -254.34,340.728 L -253.979,341.04 L -253.621,341.357 L -253.267,341.673 L -252.919,341.992 L -252.573,342.311 L -252.233,342.632 L -251.896,342.952 L -251.567,343.272 L -251.24,343.595 L -250.917,343.919 L -250.599,344.244 L -250.284,344.569 L -249.976,344.895 L -249.673,345.223 L -249.372,345.551 L -249.077,345.879 L -248.787,346.208 L -248.501,346.537 L -248.22,346.869 L -247.943,347.201 L -247.671,347.535 L -247.404,347.867 L -247.141,348.203 L -246.884,348.537 L -246.631,348.872 L -246.383,349.208 L -246.139,349.547 L -245.9,349.885 L -245.665,350.224 L -245.437,350.561 L -245.212,350.903 L -244.992,351.245 L -244.776,351.587 L -244.567,351.927 L -244.363,352.268 L -244.163,352.613 L -243.967,352.957 L -243.776,353.303 L -243.589,353.647 L -243.411,353.992 L -243.232,354.341 L -243.061,354.688 L -242.896,355.035 L -242.735,355.383 L -242.58,355.731 L -242.428,356.083 L -242.281,356.433 L -242.139,356.784 L -242.004,357.133 L -241.872,357.487 L -241.745,357.839 L -241.624,358.192 L -241.508,358.544 L -241.396,358.899 L -241.291,359.252 L -241.189,359.608 L -241.093,359.964 L -241.003,360.32 L -240.917,360.676 L -240.836,361.035 L -240.76,361.393 L -240.691,361.748 L -240.625,362.109 L -240.564,362.469 L -240.509,362.827 L -240.46,363.188 L -240.415,363.549 L -240.376,363.912 L -240.341,364.273 L -240.312,364.636 L -240.288,364.999 L -240.271,365.363 L -240.256,365.729 L -240.248,366.092 L -240.245,366.459 L -240.248,366.825 L -240.256,367.188 L -240.271,367.555 L -240.288,367.919 L -240.312,368.281 L -240.341,368.644 L -240.376,369.005 L -240.415,369.368 L -240.46,369.729 L -240.509,370.091 L -240.564,370.448 L -240.625,370.808 L -240.691,371.169 L -240.76,371.524 L -240.836,371.883 L -240.917,372.241 L -241.003,372.597 L -241.093,372.953 L -241.189,373.309 L -241.291,373.665 L -241.396,374.019 L -241.508,374.373 L -241.624,374.725 L -241.745,375.079 L -241.872,375.431 L -242.004,375.784 L -242.139,376.133 L -242.281,376.484 L -242.428,376.835 L -242.58,377.187 L -242.735,377.535 L -242.896,377.883 L -243.061,378.229 L -243.232,378.576 L -243.411,378.925 L -243.589,379.271 L -243.776,379.615 L -243.967,379.96 L -244.163,380.304 L -244.363,380.649 L -244.567,380.991 L -244.776,381.331 L -244.992,381.672 L -245.212,382.015 L -245.437,382.356 L -245.665,382.693 L -245.9,383.032 L -246.139,383.371 L -246.383,383.709 L -246.631,384.045 L -246.884,384.38 L -247.141,384.715 L -247.404,385.051 L -247.671,385.383 L -247.943,385.716 L -248.22,386.048 L -248.501,386.38 L -248.787,386.709 L -249.077,387.039 L -249.372,387.367 L -249.673,387.695 L -249.976,388.023 L -250.284,388.348 L -250.599,388.673 L -250.917,388.999 L -251.24,389.323 L -251.567,389.645 L -251.896,389.965 L -252.233,390.285 L -252.573,390.607 L -252.919,390.925 L -253.267,391.244 L -253.621,391.56 L -253.979,391.877 L -254.34,392.189 L -254.708,392.505 L -255.08,392.819 L -255.455,393.131 L -255.835,393.441 L -256.219,393.752 L -256.607,394.06 L -257,394.368 L -257.396,394.675 L -257.797,394.98 L -258.204,395.285 L -258.613,395.591 L -259.027,395.892 L -259.444,396.193 L -259.867,396.493 L -260.292,396.793 L -260.721,397.091 L -261.156,397.387 L -261.596,397.683 L -262.037,397.977 L -262.485,398.271 L -262.936,398.564 L -263.389,398.855 L -263.848,399.144 L -264.311,399.432 L -264.779,399.72 L -265.248,400.007 L -265.721,400.291 L -266.201,400.575 L -266.684,400.859 L -267.169,401.139 L -267.659,401.42 L -268.152,401.697 L -268.649,401.973 L -269.659,402.527 L -270.68,403.072 L -271.716,403.612 L -272.768,404.147 L -273.836,404.676 L -274.916,405.2 L -276.011,405.717 L -277.121,406.231 L -278.245,406.739 L -279.383,407.239 L -280.536,407.735 L -281.701,408.224 L -282.88,408.708 L -284.072,409.187 L -285.277,409.657 L -286.497,410.123 L -287.731,410.581 L -288.976,411.033 L -290.233,411.481 L -291.504,411.921 L -292.788,412.355 L -294.083,412.781 L -295.391,413.201 L -296.711,413.615 L -298.043,414.024 L -299.385,414.424 L -300.741,414.816 L -302.108,415.203 L -303.487,415.581 L -304.877,415.955 L -306.277,416.32 L -307.689,416.679 L -309.112,417.029 L -310.547,417.373 L -311.991,417.711 L -313.444,418.039 L -314.911,418.361 L -316.385,418.676 L -317.869,418.983 L -319.365,419.281 L -320.871,419.573 L -322.385,419.857 L -323.908,420.133 L -325.443,420.401 L -326.985,420.661 L -328.537,420.912 L -330.099,421.156 L -331.669,421.392 L -333.247,421.621 L -334.833,421.84 L -336.429,422.051 L -338.035,422.253 L -339.645,422.449 L -341.265,422.635 L -342.893,422.813 L -344.529,422.981 L -346.173,423.143 L -347.824,423.293 L -349.481,423.437 L -351.147,423.571 L -352.82,423.696 L -354.5,423.813 L -356.187,423.92 L -357.879,424.019 L -359.579,424.108 L -361.285,424.188 L -362.996,424.259 L -364.716,424.32 L -366.441,424.373 L -368.169,424.416 L -369.907,424.449 L -371.649,424.473 L -373.396,424.488 L -375.149,424.493 L -376.903,424.488 L -378.649,424.473 L -380.392,424.449 L -382.129,424.416 L -383.857,424.373 L -385.583,424.32 L -387.303,424.259 L -389.013,424.188 L -390.72,424.108 L -392.42,424.019 L -394.112,423.92 L -395.799,423.813 L -397.479,423.696 L -399.152,423.571 L -400.817,423.437 L -402.475,423.293 L -404.125,423.143 L -405.769,422.981 L -407.405,422.813 L -409.033,422.635 L -410.653,422.449 L -412.264,422.253 L -413.869,422.051 L -415.465,421.84 L -417.052,421.621 L -418.629,421.392 L -420.2,421.156 L -421.761,420.912 L -423.313,420.661 L -424.856,420.401 L -426.391,420.133 L -427.913,419.857 L -429.428,419.573 L -430.933,419.281 L -432.429,418.983 L -433.913,418.676 L -435.388,418.361 L -436.855,418.039 L -438.308,417.711 L -439.752,417.373 L -441.187,417.029 L -442.609,416.679 L -444.021,416.32 L -445.421,415.955 L -446.812,415.581 L -448.191,415.203 L -449.557,414.816 L -450.913,414.424 L -452.256,414.024 L -453.588,413.615 L -454.908,413.201 L -456.216,412.781 L -457.511,412.355 L -458.795,411.921 L -460.065,411.481 L -461.323,411.033 L -462.568,410.581 L -463.801,410.123 L -465.021,409.657 L -466.227,409.187 L -467.419,408.708 L -468.597,408.224 L -469.763,407.735 L -470.916,407.239 L -472.053,406.739 L -473.177,406.231 L -474.288,405.717 L -475.383,405.2 L -476.463,404.676 L -477.531,404.147 L -478.583,403.612 L -479.619,403.072 L -480.64,402.527 L -481.649,401.973 L -482.147,401.697 L -482.64,401.42 L -483.129,401.139 L -483.615,400.859 L -484.097,400.575 L -484.577,400.291 L -485.051,400.007 L -485.52,399.72 L -485.988,399.432 L -486.451,399.144 L -486.909,398.855 L -487.363,398.564 L -487.813,398.271 L -488.261,397.977 L -488.703,397.683 L -489.143,397.387 L -489.577,397.091 L -490.007,396.793 L -490.432,396.493 L -490.855,396.193 L -491.272,395.892 L -491.685,395.591 L -492.095,395.285 L -492.501,394.98 L -492.903,394.675 L -493.299,394.368 L -493.692,394.06 L -494.08,393.752 L -494.464,393.441 L -494.844,393.131 L -495.219,392.819 L -495.591,392.505 L -495.959,392.189 L -496.32,391.877 L -496.677,391.56 L -497.032,391.244 L -497.38,390.925 L -497.725,390.607 L -498.065,390.285 L -498.403,389.965 L -498.732,389.645 L -499.059,389.323 L -499.381,388.999 L -499.7,388.673 L -500.015,388.348 L -500.323,388.023 L -500.625,387.695 L -500.927,387.367 L -501.221,387.039 L -501.512,386.709 L -501.797,386.38 L -502.079,386.048 L -502.356,385.716 L -502.628,385.383 L -502.895,385.051 L -503.157,384.715 L -503.415,384.38 L -503.668,384.045 L -503.916,383.709 L -504.16,383.371 L -504.399,383.032 L -504.633,382.693 L -504.861,382.356 L -505.087,382.015 L -505.307,381.672 L -505.523,381.331 L -505.732,380.991 L -505.936,380.649 L -506.136,380.304 L -506.332,379.96 L -506.523,379.615 L -506.709,379.271 L -506.888,378.925 L -507.067,378.576 L -507.237,378.229 L -507.403,377.883 L -507.564,377.535 L -507.719,377.187 L -507.871,376.835 L -508.017,376.484 L -508.16,376.133 L -508.295,375.784 L -508.427,375.431 L -508.553,375.079 L -508.675,374.725 L -508.791,374.373 L -508.903,374.019 L -509.008,373.665 L -509.109,373.309 L -509.205,372.953 L -509.296,372.597 L -509.381,372.241 L -509.463,371.883 L -509.539,371.524 L -509.608,371.169 L -509.673,370.808 L -509.735,370.448 L -509.789,370.091 L -509.839,369.729 L -509.884,369.368 L -509.923,369.005 L -509.957,368.644 L -509.987,368.281 L -510.011,367.919 L -510.028,367.555 L -510.043,367.188 L -510.051,366.825 L -510.053,366.459 L -510.051,366.092 L -510.043,365.729 L -510.028,365.363 L -510.011,364.999 L -509.987,364.636 L -509.957,364.273 L -509.923,363.912 L -509.884,363.549 L -509.839,363.188 L -509.789,362.827 L -509.735,362.469 L -509.673,362.109 L -509.608,361.748 L -509.539,361.393 L -509.463,361.035 L -509.381,360.676 L -509.296,360.32 L -509.205,359.964 L -509.109,359.608 L -509.008,359.252 L -508.903,358.899 L -508.791,358.544 L -508.675,358.192 L -508.553,357.839 L -508.427,357.487 L -508.295,357.133 L -508.16,356.784 L -508.017,356.433 L -507.871,356.083 L -507.719,355.731 L -507.564,355.383 L -507.403,355.035 L -507.237,354.688 L -507.067,354.341 L -506.888,353.992 L -506.709,353.647 L -506.523,353.303 L -506.332,352.957 L -506.136,352.613 L -505.936,352.268 L -505.732,351.927 L -505.523,351.587 L -505.307,351.245 L -505.087,350.903 L -504.861,350.561 L -504.633,350.224 L -504.399,349.885 L -504.16,349.547 L -503.916,349.208 L -503.668,348.872 L -503.415,348.537 L -503.157,348.203 L -502.895,347.867 L -502.628,347.535 L -502.356,347.201 L -502.079,346.869 L -501.797,346.537 L -501.512,346.208 L -501.221,345.879 L -500.927,345.551 L -500.625,345.223 L -500.323,344.895 L -500.015,344.569 L -499.7,344.244 L -499.381,343.919 L -499.059,343.595 L -498.732,343.272 L -498.403,342.952 L -498.065,342.632 L -497.725,342.311 L -497.38,341.992 L -497.032,341.673 L -496.677,341.357 L -496.32,341.04 L -495.959,340.728 L -495.591,340.412 L -495.219,340.099 L -494.844,339.787 L -494.464,339.476 L -494.08,339.165 L -493.692,338.857 L -493.299,338.549 L -492.903,338.243 L -492.501,337.937 L -492.095,337.632 L -491.685,337.327 L -491.272,337.025 L -490.855,336.724 L -490.432,336.424 L -490.007,336.124 L -489.577,335.827 L -489.143,335.531 L -488.703,335.235 L -488.261,334.94 L -487.813,334.647 L -487.363,334.353 L -486.909,334.063 L -486.451,333.773 L -485.988,333.485 L -485.52,333.197 L -485.051,332.911 L -484.577,332.627 L -484.097,332.343 L -483.615,332.059 L -483.129,331.779 L -482.64,331.497 L -482.147,331.22 L -481.649,330.944 L -480.64,330.391 L -479.619,329.845 L -478.583,329.305 L -477.531,328.771 L -476.463,328.241 L -475.383,327.717 L -474.288,327.2 L -473.177,326.687 L -472.053,326.179 L -470.916,325.679 L -469.763,325.183 L -468.597,324.693 L -467.419,324.209 L -466.227,323.731 L -465.021,323.26 L -463.801,322.795 L -462.568,322.336 L -461.323,321.884 L -460.065,321.436 L -458.795,320.996 L -457.511,320.563 L -456.216,320.136 L -454.908,319.716 L -453.588,319.303 L -452.256,318.893 L -450.913,318.493 L -449.557,318.101 L -448.191,317.715 L -446.812,317.336 L -445.421,316.963 L -444.021,316.597 L -442.609,316.239 L -441.187,315.888 L -439.752,315.544 L -438.308,315.207 L -436.855,314.879 L -435.388,314.556 L -433.913,314.241 L -432.429,313.935 L -430.933,313.636 L -429.428,313.344 L -427.913,313.06 L -426.391,312.784 L -424.856,312.516 L -423.313,312.256 L -421.761,312.005 L -420.2,311.761 L -418.629,311.525 L -417.052,311.296 L -415.465,311.077 L -413.869,310.867 L -412.264,310.664 L -410.653,310.468 L -409.033,310.283 L -407.405,310.104 L -405.769,309.936 L -404.125,309.775 L -402.475,309.624 L -400.817,309.48 L -399.152,309.347 L -397.479,309.221 L -395.799,309.104 L -394.112,308.997 L -392.42,308.899 L -390.72,308.809 L -389.013,308.729 L -387.303,308.659 L -385.583,308.597 L -383.857,308.544 L -382.129,308.501 L -380.392,308.468 L -378.649,308.444 L -376.903,308.429 L -375.149,308.424 L -373.396,308.429 L -373.383,305.997 L -375.149,305.992 L -376.916,305.997 L -378.676,306.012 L -380.429,306.036 L -382.18,306.069 L -383.924,306.112 L -385.663,306.165 L -387.393,306.227 L -389.12,306.297 L -390.84,306.38 L -392.553,306.469 L -394.259,306.568 L -395.959,306.677 L -397.652,306.795 L -399.339,306.92 L -401.017,307.056 L -402.691,307.2 L -404.355,307.353 L -406.012,307.515 L -407.661,307.685 L -409.303,307.864 L -410.936,308.052 L -412.563,308.248 L -414.181,308.453 L -415.791,308.667 L -417.391,308.888 L -418.984,309.117 L -420.568,309.356 L -422.143,309.603 L -423.708,309.856 L -425.267,310.119 L -426.815,310.389 L -428.353,310.668 L -429.884,310.955 L -431.403,311.249 L -432.912,311.551 L -434.412,311.86 L -435.903,312.177 L -437.383,312.503 L -438.852,312.836 L -440.312,313.176 L -441.76,313.523 L -443.199,313.879 L -444.627,314.24 L -446.043,314.611 L -447.449,314.987 L -448.844,315.371 L -450.227,315.763 L -451.599,316.16 L -452.96,316.565 L -454.308,316.977 L -455.644,317.396 L -456.968,317.821 L -458.281,318.256 L -459.581,318.695 L -460.871,319.14 L -462.147,319.593 L -463.408,320.053 L -464.657,320.517 L -465.896,320.991 L -467.12,321.469 L -468.333,321.953 L -469.531,322.445 L -470.715,322.943 L -471.887,323.447 L -473.043,323.957 L -474.188,324.473 L -475.317,324.995 L -476.433,325.523 L -477.535,326.057 L -478.621,326.597 L -479.695,327.143 L -480.755,327.693 L -481.797,328.252 L -482.825,328.813 L -483.333,329.097 L -483.84,329.383 L -484.343,329.669 L -484.839,329.957 L -485.332,330.247 L -485.823,330.536 L -486.309,330.828 L -486.792,331.123 L -487.268,331.416 L -487.744,331.712 L -488.213,332.009 L -488.683,332.308 L -489.144,332.609 L -489.603,332.911 L -490.057,333.213 L -490.508,333.517 L -490.953,333.821 L -491.399,334.129 L -491.837,334.437 L -492.271,334.745 L -492.701,335.057 L -493.128,335.369 L -493.551,335.683 L -493.968,335.996 L -494.383,336.312 L -494.795,336.629 L -495.199,336.948 L -495.6,337.267 L -495.997,337.588 L -496.391,337.909 L -496.781,338.235 L -497.164,338.559 L -497.545,338.883 L -497.923,339.211 L -498.293,339.539 L -498.661,339.868 L -499.025,340.2 L -499.384,340.532 L -499.737,340.864 L -500.088,341.197 L -500.436,341.536 L -500.776,341.872 L -501.112,342.209 L -501.444,342.548 L -501.772,342.889 L -502.096,343.231 L -502.415,343.572 L -502.729,343.916 L -503.04,344.263 L -503.344,344.608 L -503.645,344.956 L -503.94,345.304 L -504.231,345.652 L -504.519,346.004 L -504.801,346.357 L -505.077,346.709 L -505.351,347.063 L -505.617,347.419 L -505.881,347.776 L -506.139,348.133 L -506.393,348.491 L -506.641,348.851 L -506.885,349.212 L -507.124,349.575 L -507.357,349.936 L -507.587,350.299 L -507.812,350.665 L -508.032,351.033 L -508.245,351.4 L -508.455,351.768 L -508.659,352.137 L -508.859,352.508 L -509.053,352.88 L -509.24,353.251 L -509.427,353.624 L -509.605,354 L -509.78,354.377 L -509.948,354.755 L -510.111,355.131 L -510.268,355.508 L -510.421,355.888 L -510.569,356.269 L -510.712,356.649 L -510.849,357.033 L -510.981,357.416 L -511.108,357.8 L -511.228,358.187 L -511.344,358.572 L -511.453,358.96 L -511.557,359.345 L -511.659,359.736 L -511.752,360.127 L -511.839,360.515 L -511.923,360.905 L -512,361.3 L -512.071,361.691 L -512.137,362.083 L -512.197,362.48 L -512.252,362.873 L -512.3,363.269 L -512.344,363.667 L -512.381,364.063 L -512.413,364.46 L -512.44,364.86 L -512.46,365.259 L -512.475,365.657 L -512.483,366.06 L -512.485,366.459 L -512.483,366.857 L -512.475,367.26 L -512.46,367.659 L -512.44,368.057 L -512.413,368.457 L -512.381,368.855 L -512.344,369.251 L -512.3,369.648 L -512.252,370.044 L -512.197,370.437 L -512.137,370.835 L -512.071,371.227 L -512,371.617 L -511.923,372.012 L -511.839,372.403 L -511.752,372.791 L -511.659,373.181 L -511.557,373.572 L -511.453,373.957 L -511.344,374.345 L -511.228,374.731 L -511.108,375.117 L -510.981,375.501 L -510.849,375.884 L -510.712,376.268 L -510.569,376.648 L -510.421,377.029 L -510.268,377.409 L -510.111,377.787 L -509.948,378.163 L -509.78,378.54 L -509.605,378.917 L -509.427,379.293 L -509.24,379.667 L -509.053,380.037 L -508.859,380.409 L -508.659,380.78 L -508.455,381.149 L -508.245,381.517 L -508.032,381.884 L -507.812,382.252 L -507.587,382.619 L -507.357,382.981 L -507.124,383.343 L -506.885,383.705 L -506.641,384.067 L -506.393,384.427 L -506.139,384.784 L -505.881,385.141 L -505.617,385.499 L -505.351,385.855 L -505.077,386.208 L -504.801,386.56 L -504.519,386.913 L -504.231,387.265 L -503.94,387.613 L -503.645,387.961 L -503.344,388.309 L -503.04,388.655 L -502.729,389.001 L -502.415,389.345 L -502.096,389.687 L -501.772,390.028 L -501.444,390.369 L -501.112,390.708 L -500.776,391.045 L -500.436,391.381 L -500.088,391.72 L -499.737,392.053 L -499.384,392.385 L -499.025,392.717 L -498.661,393.049 L -498.293,393.379 L -497.923,393.707 L -497.545,394.035 L -497.164,394.359 L -496.781,394.683 L -496.391,395.008 L -495.997,395.329 L -495.6,395.651 L -495.199,395.969 L -494.795,396.288 L -494.383,396.605 L -493.968,396.921 L -493.551,397.235 L -493.128,397.548 L -492.701,397.86 L -492.271,398.172 L -491.837,398.48 L -491.399,398.788 L -490.953,399.096 L -490.508,399.4 L -490.057,399.704 L -489.603,400.007 L -489.144,400.308 L -488.683,400.609 L -488.213,400.908 L -487.744,401.205 L -487.268,401.501 L -486.792,401.795 L -486.309,402.089 L -485.823,402.381 L -485.332,402.671 L -484.839,402.96 L -484.343,403.248 L -483.84,403.535 L -483.333,403.82 L -482.825,404.104 L -481.797,404.665 L -480.755,405.224 L -479.695,405.775 L -478.621,406.32 L -477.535,406.86 L -476.433,407.395 L -475.317,407.923 L -474.188,408.444 L -473.043,408.96 L -471.887,409.471 L -470.715,409.975 L -469.531,410.472 L -468.333,410.964 L -467.12,411.448 L -465.896,411.927 L -464.657,412.4 L -463.408,412.864 L -462.147,413.324 L -460.871,413.777 L -459.581,414.223 L -458.281,414.661 L -456.968,415.096 L -455.644,415.521 L -454.308,415.94 L -452.96,416.352 L -451.599,416.757 L -450.227,417.155 L -448.844,417.547 L -447.449,417.931 L -446.043,418.307 L -444.627,418.677 L -443.199,419.039 L -441.76,419.395 L -440.312,419.741 L -438.852,420.081 L -437.383,420.415 L -435.903,420.74 L -434.412,421.057 L -432.912,421.367 L -431.403,421.668 L -429.884,421.963 L -428.353,422.249 L -426.815,422.528 L -425.267,422.799 L -423.708,423.061 L -422.143,423.315 L -420.568,423.561 L -418.984,423.8 L -417.391,424.029 L -415.791,424.251 L -414.181,424.464 L -412.563,424.669 L -410.936,424.865 L -409.303,425.053 L -407.661,425.232 L -406.012,425.403 L -404.355,425.564 L -402.691,425.717 L -401.017,425.861 L -399.339,425.997 L -397.652,426.123 L -395.959,426.24 L -394.259,426.349 L -392.553,426.448 L -390.84,426.537 L -389.12,426.62 L -387.393,426.691 L -385.663,426.752 L -383.924,426.805 L -382.18,426.848 L -380.429,426.881 L -378.676,426.905 L -376.916,426.92 L -375.149,426.925 L -373.383,426.92 L -371.623,426.905 L -369.869,426.881 L -368.119,426.848 L -366.375,426.805 L -364.636,426.752 L -362.905,426.691 L -361.179,426.62 L -359.459,426.537 L -357.745,426.448 L -356.04,426.349 L -354.34,426.24 L -352.647,426.123 L -350.96,425.997 L -349.281,425.861 L -347.608,425.717 L -345.944,425.564 L -344.287,425.403 L -342.637,425.232 L -340.996,425.053 L -339.363,424.865 L -337.736,424.669 L -336.117,424.464 L -334.508,424.251 L -332.908,424.029 L -331.315,423.8 L -329.731,423.561 L -328.156,423.315 L -326.591,423.061 L -325.032,422.799 L -323.484,422.528 L -321.945,422.249 L -320.415,421.963 L -318.896,421.668 L -317.387,421.367 L -315.887,421.057 L -314.396,420.74 L -312.916,420.415 L -311.447,420.081 L -309.987,419.741 L -308.539,419.395 L -307.1,419.039 L -305.672,418.677 L -304.256,418.307 L -302.849,417.931 L -301.455,417.547 L -300.072,417.155 L -298.7,416.757 L -297.339,416.352 L -295.991,415.94 L -294.655,415.521 L -293.331,415.096 L -292.017,414.661 L -290.717,414.223 L -289.428,413.777 L -288.152,413.324 L -286.891,412.864 L -285.641,412.4 L -284.403,411.927 L -283.179,411.448 L -281.965,410.964 L -280.768,410.472 L -279.584,409.975 L -278.412,409.471 L -277.256,408.96 L -276.111,408.444 L -274.981,407.923 L -273.865,407.395 L -272.764,406.86 L -271.677,406.32 L -270.604,405.775 L -269.544,405.224 L -268.501,404.665 L -267.473,404.104 L -266.965,403.82 L -266.459,403.535 L -265.956,403.248 L -265.46,402.96 L -264.967,402.671 L -264.476,402.381 L -263.989,402.089 L -263.507,401.795 L -263.031,401.501 L -262.555,401.205 L -262.085,400.908 L -261.616,400.609 L -261.155,400.308 L -260.696,400.007 L -260.241,399.704 L -259.791,399.4 L -259.345,399.096 L -258.9,398.788 L -258.461,398.48 L -258.028,398.172 L -257.597,397.86 L -257.171,397.548 L -256.748,397.235 L -256.331,396.921 L -255.916,396.605 L -255.504,396.288 L -255.1,395.969 L -254.699,395.651 L -254.301,395.329 L -253.908,395.008 L -253.517,394.683 L -253.135,394.359 L -252.753,394.035 L -252.376,393.707 L -252.005,393.379 L -251.637,393.049 L -251.273,392.717 L -250.915,392.385 L -250.561,392.053 L -250.211,391.72 L -249.863,391.381 L -249.523,391.045 L -249.187,390.708 L -248.855,390.369 L -248.527,390.028 L -248.203,389.687 L -247.884,389.345 L -247.569,389.001 L -247.259,388.655 L -246.955,388.309 L -246.653,387.961 L -246.359,387.613 L -246.068,387.265 L -245.78,386.913 L -245.497,386.56 L -245.221,386.208 L -244.948,385.855 L -244.681,385.499 L -244.417,385.141 L -244.16,384.784 L -243.905,384.427 L -243.657,384.067 L -243.413,383.705 L -243.175,383.343 L -242.941,382.981 L -242.712,382.619 L -242.487,382.252 L -242.267,381.884 L -242.053,381.517 L -241.844,381.149 L -241.64,380.78 L -241.44,380.409 L -241.245,380.037 L -241.059,379.667 L -240.872,379.293 L -240.693,378.917 L -240.519,378.54 L -240.351,378.163 L -240.188,377.787 L -240.031,377.409 L -239.877,377.029 L -239.729,376.648 L -239.587,376.268 L -239.449,375.884 L -239.317,375.501 L -239.191,375.117 L -239.071,374.731 L -238.955,374.345 L -238.845,373.957 L -238.741,373.572 L -238.64,373.181 L -238.547,372.791 L -238.46,372.403 L -238.376,372.012 L -238.299,371.617 L -238.228,371.227 L -238.161,370.835 L -238.101,370.437 L -238.047,370.044 L -237.999,369.648 L -237.955,369.251 L -237.917,368.855 L -237.885,368.457 L -237.859,368.057 L -237.839,367.659 L -237.824,367.26 L -237.816,366.857 L -237.813,366.459 L -237.816,366.06 L -237.824,365.657 L -237.839,365.259 L -237.859,364.86 L -237.885,364.46 L -237.917,364.063 L -237.955,363.667 L -237.999,363.269 L -238.047,362.873 L -238.101,362.48 L -238.161,362.083 L -238.228,361.691 L -238.299,361.3 L -238.376,360.905 L -238.46,360.515 L -238.547,360.127 L -238.64,359.736 L -238.741,359.345 L -238.845,358.96 L -238.955,358.572 L -239.071,358.187 L -239.191,357.8 L -239.317,357.416 L -239.449,357.033 L -239.587,356.649 L -239.729,356.269 L -239.877,355.888 L -240.031,355.508 L -240.188,355.131 L -240.351,354.755 L -240.519,354.377 L -240.693,354 L -240.872,353.624 L -241.059,353.251 L -241.245,352.88 L -241.44,352.508 L -241.64,352.137 L -241.844,351.768 L -242.053,351.4 L -242.267,351.033 L -242.487,350.665 L -242.712,350.299 L -242.941,349.936 L -243.175,349.575 L -243.413,349.212 L -243.657,348.851 L -243.905,348.491 L -244.16,348.133 L -244.417,347.776 L -244.681,347.419 L -244.948,347.063 L -245.221,346.709 L -245.497,346.357 L -245.78,346.004 L -246.068,345.652 L -246.359,345.304 L -246.653,344.956 L -246.955,344.608 L -247.259,344.263 L -247.569,343.916 L -247.884,343.572 L -248.203,343.231 L -248.527,342.889 L -248.855,342.548 L -249.187,342.209 L -249.523,341.872 L -249.863,341.536 L -250.211,341.197 L -250.561,340.864 L -250.915,340.532 L -251.273,340.2 L -251.637,339.868 L -252.005,339.539 L -252.376,339.211 L -252.753,338.883 L -253.135,338.559 L -253.517,338.235 L -253.908,337.909 L -254.301,337.588 L -254.699,337.267 L -255.1,336.948 L -255.504,336.629 L -255.916,336.312 L -256.331,335.996 L -256.748,335.683 L -257.171,335.369 L -257.597,335.057 L -258.028,334.745 L -258.461,334.437 L -258.9,334.129 L -259.345,333.821 L -259.791,333.517 L -260.241,333.213 L -260.696,332.911 L -261.155,332.609 L -261.616,332.308 L -262.085,332.009 L -262.555,331.712 L -263.031,331.416 L -263.507,331.123 L -263.989,330.828 L -264.476,330.536 L -264.967,330.247 L -265.46,329.957 L -265.956,329.669 L -266.459,329.383 L -266.965,329.097 L -267.473,328.813 L -268.501,328.252 L -269.544,327.693 L -270.604,327.143 L -271.677,326.597 L -272.764,326.057 L -273.865,325.523 L -274.981,324.995 L -276.111,324.473 L -277.256,323.957 L -278.412,323.447 L -279.584,322.943 L -280.768,322.445 L -281.965,321.953 L -283.179,321.469 L -284.403,320.991 L -285.641,320.517 L -286.891,320.053 L -288.152,319.593 L -289.428,319.14 L -290.717,318.695 L -292.017,318.256 L -293.331,317.821 L -294.655,317.396 L -295.991,316.977 L -297.339,316.565 L -298.7,316.16 L -300.072,315.763 L -301.455,315.371 L -302.849,314.987 L -304.256,314.611 L -305.672,314.24 L -307.1,313.879 L -308.539,313.523 L -309.987,313.176 L -311.447,312.836 L -312.916,312.503 L -314.396,312.177 L -315.887,311.86 L -317.387,311.551 L -318.896,311.249 L -320.415,310.955 L -321.945,310.668 L -323.484,310.389 L -325.032,310.119 L -326.591,309.856 L -328.156,309.603 L -329.731,309.356 L -331.315,309.117 L -332.908,308.888 L -334.508,308.667 L -336.117,308.453 L -337.736,308.248 L -339.363,308.052 L -340.996,307.864 L -342.637,307.685 L -344.287,307.515 L -345.944,307.353 L -347.608,307.2 L -349.281,307.056 L -350.96,306.92 L -352.647,306.795 L -354.34,306.677 L -356.04,306.568 L -357.745,306.469 L -359.459,306.38 L -361.179,306.297 L -362.905,306.227 L -364.636,306.165 L -366.375,306.112 L -368.119,306.069 L -369.869,306.036 L -371.623,306.012 L -373.383,305.997 Z "/>
			</g>
		</g>
		<g id="dp_group015">
			<g id="dp_group016">
				<path id="dp_path017" fill="#c70202" fill-rule="evenodd" d="M -245.421,350.165 L -243.777,348.807 L -240.488,346.088 L -251.396,341.264 L -248.709,352.884 Z "/>
				<path id="dp_path018" fill="#c70202" d="M -245.42,350.165 L -245.193,350.437 L -244.999,350.745 L -244.776,351.108 L -244.557,351.471 L -244.344,351.835 L -244.137,352.197 L -243.932,352.567 L -243.733,352.932 L -243.541,353.297 L -243.353,353.667 L -243.169,354.036 L -242.991,354.403 L -242.82,354.773 L -242.651,355.144 L -242.488,355.516 L -242.331,355.888 L -242.179,356.26 L -242.032,356.632 L -241.889,357.007 L -241.753,357.38 L -241.621,357.755 L -241.495,358.131 L -241.375,358.507 L -241.259,358.883 L -241.148,359.259 L -241.044,359.636 L -240.943,360.013 L -240.849,360.391 L -240.761,360.771 L -240.677,361.151 L -240.599,361.529 L -240.525,361.908 L -240.459,362.289 L -240.396,362.668 L -240.341,363.048 L -240.289,363.431 L -240.245,363.811 L -240.205,364.193 L -240.171,364.576 L -240.141,364.957 L -240.117,365.337 L -240.101,365.721 L -240.088,366.104 L -240.083,366.487 L -240.083,366.873 L -240.087,367.257 L -240.097,367.64 L -240.113,368.021 L -240.137,368.408 L -240.164,368.793 L -240.199,369.176 L -240.239,369.561 L -240.283,369.945 L -240.335,370.329 L -240.392,370.715 L -240.455,371.101 L -240.524,371.487 L -240.599,371.872 L -240.679,372.256 L -240.767,372.643 L -240.859,373.028 L -240.957,373.413 L -241.063,373.799 L -241.173,374.184 L -241.291,374.569 L -241.413,374.956 L -241.543,375.34 L -241.679,375.727 L -241.821,376.113 L -241.968,376.499 L -242.123,376.884 L -242.283,377.268 L -242.451,377.653 L -242.624,378.039 L -242.804,378.424 L -242.991,378.811 L -243.181,379.193 L -243.381,379.579 L -243.588,379.964 L -243.799,380.347 L -244.017,380.731 L -244.243,381.115 L -244.475,381.499 L -244.713,381.883 L -244.957,382.265 L -245.211,382.647 L -245.469,383.031 L -245.733,383.412 L -246.007,383.795 L -246.285,384.176 L -246.569,384.556 L -246.863,384.936 L -247.163,385.317 L -247.469,385.697 L -247.783,386.076 L -248.101,386.453 L -248.431,386.833 L -248.764,387.211 L -249.105,387.587 L -249.453,387.964 L -249.809,388.34 L -250.171,388.716 L -250.541,389.089 L -250.917,389.464 L -251.307,389.841 L -249.819,391.369 L -249.424,390.984 L -249.032,390.596 L -248.645,390.204 L -248.268,389.812 L -247.896,389.42 L -247.532,389.027 L -247.175,388.632 L -246.825,388.236 L -246.483,387.84 L -246.145,387.441 L -245.819,387.044 L -245.496,386.645 L -245.183,386.245 L -244.873,385.847 L -244.571,385.443 L -244.279,385.04 L -243.992,384.639 L -243.709,384.233 L -243.437,383.831 L -243.171,383.425 L -242.911,383.019 L -242.659,382.613 L -242.411,382.205 L -242.172,381.797 L -241.94,381.389 L -241.713,380.98 L -241.496,380.571 L -241.283,380.161 L -241.076,379.749 L -240.879,379.339 L -240.685,378.927 L -240.501,378.515 L -240.323,378.103 L -240.149,377.689 L -239.984,377.275 L -239.824,376.86 L -239.673,376.447 L -239.527,376.033 L -239.387,375.617 L -239.256,375.204 L -239.128,374.789 L -239.009,374.372 L -238.896,373.957 L -238.789,373.54 L -238.689,373.125 L -238.596,372.709 L -238.508,372.291 L -238.428,371.876 L -238.353,371.459 L -238.285,371.043 L -238.223,370.628 L -238.168,370.209 L -238.119,369.793 L -238.076,369.379 L -238.039,368.961 L -238.009,368.544 L -237.985,368.131 L -237.967,367.715 L -237.956,367.297 L -237.949,366.881 L -237.952,366.471 L -237.957,366.056 L -237.971,365.641 L -237.989,365.228 L -238.013,364.813 L -238.045,364.4 L -238.083,363.988 L -238.125,363.576 L -238.175,363.164 L -238.229,362.755 L -238.289,362.343 L -238.357,361.932 L -238.429,361.524 L -238.508,361.113 L -238.592,360.705 L -238.681,360.299 L -238.777,359.892 L -238.879,359.485 L -238.985,359.079 L -239.097,358.675 L -239.216,358.269 L -239.34,357.867 L -239.471,357.464 L -239.605,357.064 L -239.745,356.663 L -239.892,356.263 L -240.043,355.864 L -240.2,355.465 L -240.363,355.069 L -240.531,354.673 L -240.704,354.277 L -240.881,353.885 L -241.065,353.491 L -241.255,353.097 L -241.449,352.707 L -241.648,352.319 L -241.853,351.927 L -242.065,351.54 L -242.279,351.155 L -242.499,350.768 L -242.725,350.383 L -242.955,350.001 L -243.191,349.617 L -243.465,349.184 L -243.777,348.805 Z "/>
			</g>
		</g>
		<path id="dp_path019" fill="none" fill-rule="evenodd" stroke="#ee0505" stroke-width="2.26533" d="M -380.967,263.519 L -380.967,470.852"/>
		<path id="dp_path020" fill="none" fill-rule="evenodd" stroke="#ee0505" stroke-width="2.26533" d="M -382.297,401.012 L -345.021,408.656 L -345.021,373.493"/>
		<path id="dp_path021" fill="black" fill-rule="evenodd" d="M -298.216,268.643 C -298.563,267.724 -299.125,266.973 -299.901,266.392 C -300.677,265.809 -301.616,265.519 -302.72,265.519 C -303.803,265.519 -304.849,265.799 -305.86,266.361 C -306.871,266.923 -307.764,267.643 -308.54,268.521 C -309.583,269.685 -310.389,270.933 -310.961,272.271 C -311.533,273.609 -311.992,274.952 -312.34,276.3 C -312.503,276.975 -312.645,277.653 -312.768,278.337 C -312.891,279.021 -312.963,279.696 -312.983,280.36 C -313.004,281.023 -312.973,281.675 -312.891,282.317 C -312.809,282.961 -312.656,283.579 -312.432,284.171 C -312.084,285.091 -311.523,285.841 -310.747,286.423 C -309.971,287.005 -309.041,287.296 -307.959,287.296 C -306.876,287.296 -305.824,287.016 -304.803,286.453 C -303.781,285.892 -302.883,285.172 -302.107,284.293 C -301.065,283.129 -300.259,281.881 -299.687,280.543 C -299.115,279.205 -298.655,277.863 -298.308,276.515 C -297.96,275.167 -297.747,273.819 -297.664,272.471 C -297.583,271.123 -297.767,269.848 -298.216,268.643 Z M -300.973,269.003 C -300.871,269.901 -300.937,270.939 -301.172,272.113 C -301.407,273.285 -301.668,274.475 -301.953,275.68 L -308.327,275.68 C -308.04,274.516 -307.713,273.364 -307.345,272.22 C -306.979,271.076 -306.529,270.065 -305.997,269.187 C -305.569,268.475 -305.073,267.867 -304.512,267.367 C -303.951,266.867 -303.373,266.616 -302.781,266.616 C -302.229,266.616 -301.811,266.841 -301.524,267.291 C -301.239,267.74 -301.055,268.312 -300.973,269.003 Z M -302.321,277.109 C -302.607,278.276 -302.933,279.437 -303.301,280.595 C -303.669,281.751 -304.119,282.769 -304.649,283.651 C -305.079,284.365 -305.573,284.971 -306.136,285.46 C -306.697,285.953 -307.275,286.199 -307.867,286.199 C -308.419,286.199 -308.837,285.973 -309.123,285.521 C -309.408,285.072 -309.592,284.508 -309.675,283.835 C -309.776,282.933 -309.715,281.893 -309.491,280.717 C -309.265,279.54 -309,278.337 -308.693,277.109 Z "/>
		<g id="dp_group022">
			<g id="dp_group023">
				<path id="dp_path024" fill="black" fill-rule="evenodd" d="M -382.1,268.08 L -379.835,268.08 L -375.305,268.08 L -380.968,256.755 L -386.629,268.08 Z "/>
				<path id="dp_path025" fill="black" d="M -379.835,368.781 L -379.835,268.08 L -382.099,268.08 L -382.099,368.781 Z "/>
			</g>
		</g>
		<g id="dp_group026">
			<g id="dp_group027">
				<path id="dp_path028" fill="black" fill-rule="evenodd" d="M -421.729,321.017 L -419.973,319.588 L -416.46,316.729 L -428,311.52 L -425.243,323.877 Z "/>
				<path id="dp_path029" fill="black" d="M -380.455,368.137 L -419.972,319.588 L -421.729,321.017 L -382.212,369.567 Z "/>
			</g>
		</g>
		<g id="dp_group030">
			<g id="dp_group031">
				<path id="dp_path032" fill="black" fill-rule="evenodd" d="M -291.996,293.951 L -290.24,292.521 L -286.727,289.663 L -298.267,284.453 L -295.509,296.811 Z "/>
				<path id="dp_path033" fill="black" d="M -250.721,341.071 L -290.239,292.521 L -291.996,293.951 L -252.479,342.5 Z "/>
			</g>
		</g>
		<path id="dp_path034" fill="none" fill-rule="evenodd" stroke="black" stroke-width="2.26533" d="M -380.964,333.808 L -343.688,326.164 L -343.688,361.327"/>
		<text id="dp_text004" transform="matrix(1.68283,0,0,1,-439.01,277.28)" xml:space="preserve" fill="black" font-family="Arial" font-size="17" font-weight="700" x="0" y="0">^ </text>
		<path id="dp_path036" fill="black" fill-rule="evenodd" d="M -426.216,283.643 C -426.563,282.724 -427.125,281.973 -427.901,281.392 C -428.677,280.809 -429.616,280.519 -430.72,280.519 C -431.803,280.519 -432.849,280.799 -433.86,281.361 C -434.871,281.923 -435.764,282.643 -436.54,283.521 C -437.583,284.685 -438.389,285.933 -438.961,287.271 C -439.533,288.609 -439.992,289.952 -440.34,291.3 C -440.503,291.975 -440.645,292.653 -440.768,293.337 C -440.891,294.021 -440.963,294.696 -440.983,295.36 C -441.004,296.023 -440.973,296.675 -440.891,297.317 C -440.809,297.961 -440.656,298.579 -440.432,299.171 C -440.084,300.091 -439.523,300.841 -438.747,301.423 C -437.971,302.005 -437.041,302.296 -435.959,302.296 C -434.876,302.296 -433.824,302.016 -432.803,301.453 C -431.781,300.892 -430.883,300.172 -430.107,299.293 C -429.065,298.129 -428.259,296.881 -427.687,295.543 C -427.115,294.205 -426.655,292.863 -426.308,291.515 C -425.96,290.167 -425.747,288.819 -425.664,287.471 C -425.583,286.123 -425.767,284.848 -426.216,283.643 Z M -428.973,284.003 C -428.871,284.901 -428.937,285.939 -429.172,287.113 C -429.407,288.285 -429.668,289.475 -429.953,290.68 L -436.327,290.68 C -436.04,289.516 -435.713,288.364 -435.345,287.22 C -434.979,286.076 -434.529,285.065 -433.997,284.187 C -433.569,283.475 -433.073,282.867 -432.512,282.367 C -431.951,281.867 -431.373,281.616 -430.781,281.616 C -430.229,281.616 -429.811,281.841 -429.524,282.291 C -429.239,282.74 -429.055,283.312 -428.973,284.003 Z M -430.321,292.109 C -430.607,293.276 -430.933,294.437 -431.301,295.595 C -431.669,296.751 -432.119,297.769 -432.649,298.651 C -433.079,299.365 -433.573,299.971 -434.136,300.46 C -434.697,300.953 -435.275,301.199 -435.867,301.199 C -436.419,301.199 -436.837,300.973 -437.123,300.521 C -437.408,300.072 -437.592,299.508 -437.675,298.835 C -437.776,297.933 -437.715,296.893 -437.491,295.717 C -437.265,294.54 -437,293.337 -436.693,292.109 Z "/>
		<text id="dp_text005" transform="matrix(1,0,0,1,-389.395,248.92)" xml:space="preserve" fill="black" font-family="Arial" font-size="31" font-weight="700" x="0" y="0">n </text>
		<text id="dp_text006" transform="matrix(1.68283,0,0,1,-387.07,230.901)" xml:space="preserve" fill="black" font-family="Arial" font-size="17" font-weight="700" x="0" y="0">^ </text>
		<path id="dp_path039" fill="none" fill-rule="evenodd" stroke="black" stroke-width="2.13333" stroke-linejoin="miter" stroke-miterlimit="5" d="M -402.667,342.185 L -402.667,296.185 L -380.667,326.185"/>
	</g>
</svg>