<?xml version="1.0" encoding="UTF-8" standalone="no"?>
<!-- Generator: Adobe Illustrator 12.0.1, SVG Export Plug-In . SVG Version: 6.00 Build 51448)  -->
<svg
   xmlns:dc="http://purl.org/dc/elements/1.1/"
   xmlns:cc="http://web.resource.org/cc/"
   xmlns:rdf="http://www.w3.org/1999/02/22-rdf-syntax-ns#"
   xmlns:svg="http://www.w3.org/2000/svg"
   xmlns="http://www.w3.org/2000/svg"
   xmlns:sodipodi="http://sodipodi.sourceforge.net/DTD/sodipodi-0.dtd"
   xmlns:inkscape="http://www.inkscape.org/namespaces/inkscape"
   version="1.1"
   id="Layer_1"
   width="119.05"
   height="112.4"
   viewBox="0 0 119.05 112.4"
   style="overflow:visible;enable-background:new 0 0 119.05 112.4;"
   xml:space="preserve"
   sodipodi:version="0.32"
   inkscape:version="0.45.1"
   sodipodi:docname="Polyvinylchlorid.svg"
   inkscape:output_extension="org.inkscape.output.svg.inkscape"
   sodipodi:docbase="C:\"><metadata
   id="metadata52"><rdf:RDF><cc:Work
       rdf:about=""><dc:format>image/svg+xml</dc:format><dc:type
         rdf:resource="http://purl.org/dc/dcmitype/StillImage" /></cc:Work></rdf:RDF></metadata><defs
   id="defs50" /><sodipodi:namedview
   inkscape:window-height="579"
   inkscape:window-width="801"
   inkscape:pageshadow="2"
   inkscape:pageopacity="0.0"
   guidetolerance="10.0"
   gridtolerance="10.0"
   objecttolerance="10.0"
   borderopacity="1.0"
   bordercolor="#666666"
   pagecolor="#ffffff"
   id="base"
   inkscape:zoom="3.3629893"
   inkscape:cx="59.525002"
   inkscape:cy="56.200001"
   inkscape:window-x="132"
   inkscape:window-y="132"
   inkscape:current-layer="Layer_1" />
<g
   id="g3"
   transform="matrix(0.95,0,0,0.95,2.97625,2.810025)">
	<path
   style="fill:#231f20"
   d="M 45.144,57.972 L 47.425,58.546 C 46.949,60.416 46.092,61.842 44.856,62.823 C 43.619,63.804 42.106,64.296 40.319,64.296 C 38.469,64.296 36.965,63.919 35.806,63.164 C 34.647,62.41 33.765,61.316 33.16,59.886 C 32.555,58.455 32.253,56.918 32.253,55.277 C 32.253,53.487 32.594,51.924 33.277,50.591 C 33.96,49.258 34.931,48.244 36.192,47.553 C 37.452,46.862 38.838,46.515 40.352,46.515 C 42.069,46.515 43.512,46.953 44.682,47.829 C 45.853,48.706 46.668,49.937 47.128,51.526 L 44.894,52.053 C 44.496,50.803 43.919,49.893 43.163,49.323 C 42.406,48.753 41.454,48.468 40.308,48.468 C 38.99,48.468 37.888,48.784 37.002,49.417 C 36.117,50.05 35.495,50.899 35.136,51.966 C 34.777,53.033 34.598,54.132 34.598,55.265 C 34.598,56.726 34.81,58.001 35.235,59.091 C 35.66,60.181 36.32,60.995 37.217,61.534 C 38.114,62.073 39.084,62.343 40.129,62.343 C 41.4,62.343 42.475,61.976 43.356,61.241 C 44.237,60.506 44.832,59.417 45.144,57.972 z "
   id="path5" />
</g>
<path
   style="fill:#231f20"
   d="M 2.97625,53.825026 L 31.428751,53.825026 L 31.428751,55.440026 L 2.97625,55.440026 L 2.97625,53.825026 z "
   id="rect7" />
<g
   id="g9"
   transform="matrix(0.95,0,0,0.95,2.97625,2.810025)">
	<path
   style="fill:#231f20"
   d="M 84.844,57.972 L 87.125,58.546 C 86.648,60.416 85.792,61.842 84.556,62.823 C 83.319,63.804 81.807,64.296 80.02,64.296 C 78.17,64.296 76.666,63.919 75.506,63.164 C 74.347,62.41 73.465,61.316 72.86,59.886 C 72.255,58.456 71.953,56.918 71.953,55.277 C 71.953,53.487 72.295,51.924 72.976,50.591 C 73.66,49.258 74.63,48.244 75.891,47.553 C 77.151,46.862 78.537,46.515 80.051,46.515 C 81.768,46.515 83.211,46.953 84.381,47.829 C 85.552,48.706 86.366,49.937 86.827,51.526 L 84.593,52.053 C 84.195,50.803 83.618,49.893 82.862,49.323 C 82.106,48.753 81.153,48.468 80.007,48.468 C 78.689,48.468 77.587,48.784 76.701,49.417 C 75.816,50.05 75.193,50.899 74.835,51.966 C 74.477,53.033 74.297,54.132 74.297,55.265 C 74.297,56.726 74.51,58.001 74.934,59.091 C 75.36,60.181 76.02,60.995 76.916,61.534 C 77.812,62.073 78.783,62.343 79.828,62.343 C 81.098,62.343 82.174,61.976 83.055,61.241 C 83.936,60.506 84.531,59.417 84.844,57.972 z "
   id="path11" />
</g>
<path
   style="fill:#231f20"
   d="M 50.23875,53.825026 L 69.09625,53.825026 L 69.09625,55.440026 L 50.23875,55.440026 L 50.23875,53.825026 z "
   id="rect13" />
<path
   style="fill:#231f20"
   d="M 87.953747,53.825026 L 116.07375,53.825026 L 116.07375,55.440026 L 87.953747,55.440026 L 87.953747,53.825026 z "
   id="rect15" />
<g
   id="g17"
   transform="matrix(0.95,0,0,0.95,2.97625,2.810025)">
	<path
   style="fill:#231f20"
   d="M 32.987,24.35 L 32.987,7.163 L 35.268,7.163 L 35.268,14.226 L 44.159,14.226 L 44.159,7.163 L 46.44,7.163 L 46.44,24.35 L 44.159,24.35 L 44.159,16.256 L 35.268,16.256 L 35.268,24.35 L 32.987,24.35 z "
   id="path19" />
</g>
<path
   style="fill:#231f20"
   d="M 39.883748,28.032524 L 41.498749,28.032524 L 41.498749,44.847525 L 39.883748,44.847525 L 39.883748,28.032524 z "
   id="rect21" />
<g
   id="g23"
   transform="matrix(0.95,0,0,0.95,2.97625,2.810025)">
	<path
   style="fill:#231f20"
   d="M 32.987,103.65 L 32.987,86.462 L 35.268,86.462 L 35.268,93.525 L 44.159,93.525 L 44.159,86.462 L 46.44,86.462 L 46.44,103.65 L 44.159,103.65 L 44.159,95.556 L 35.268,95.556 L 35.268,103.65 L 32.987,103.65 z "
   id="path25" />
</g>
<path
   style="fill:#231f20"
   d="M 39.883748,65.985025 L 41.498749,65.985025 L 41.498749,82.800975 L 39.883748,82.800975 L 39.883748,65.985025 z "
   id="rect27" />
<g
   id="g29"
   transform="matrix(0.95,0,0,0.95,2.97625,2.810025)">
	<path
   style="fill:#231f20"
   d="M 84.844,18.323 L 87.125,18.897 C 86.648,20.767 85.792,22.193 84.556,23.174 C 83.319,24.155 81.807,24.647 80.02,24.647 C 78.17,24.647 76.666,24.27 75.506,23.515 C 74.347,22.761 73.465,21.667 72.86,20.237 C 72.255,18.807 71.953,17.269 71.953,15.628 C 71.953,13.838 72.295,12.275 72.976,10.942 C 73.66,9.609 74.63,8.595 75.891,7.904 C 77.151,7.213 78.537,6.866 80.051,6.866 C 81.768,6.866 83.211,7.304 84.381,8.18 C 85.552,9.057 86.366,10.288 86.827,11.877 L 84.593,12.404 C 84.195,11.154 83.618,10.244 82.862,9.674 C 82.106,9.104 81.153,8.819 80.007,8.819 C 78.689,8.819 77.587,9.135 76.701,9.768 C 75.816,10.401 75.193,11.25 74.835,12.317 C 74.477,13.384 74.297,14.483 74.297,15.616 C 74.297,17.077 74.51,18.352 74.934,19.442 C 75.36,20.532 76.02,21.346 76.916,21.885 C 77.812,22.424 78.783,22.694 79.828,22.694 C 81.098,22.694 82.174,22.327 83.055,21.592 C 83.936,20.857 84.531,19.768 84.844,18.323 z "
   id="path31" />
	<path
   style="fill:#231f20"
   d="M 89.613,24.35 L 89.613,7.163 L 91.722,7.163 L 91.722,24.35 L 89.613,24.35 z "
   id="path33" />
</g>
<path
   style="fill:#231f20"
   d="M 77.55125,28.317525 L 79.16625,28.317525 L 79.16625,44.847525 L 77.55125,44.847525 L 77.55125,28.317525 z "
   id="rect35" />
<g
   id="g37"
   transform="matrix(0.95,0,0,0.95,2.97625,2.810025)">
	<path
   style="fill:#231f20"
   d="M 72.688,103.65 L 72.688,86.462 L 74.969,86.462 L 74.969,93.525 L 83.86,93.525 L 83.86,86.462 L 86.141,86.462 L 86.141,103.65 L 83.86,103.65 L 83.86,95.556 L 74.969,95.556 L 74.969,103.65 L 72.688,103.65 z "
   id="path39" />
</g>
<path
   style="fill:#231f20"
   d="M 77.55125,65.985025 L 79.16625,65.985025 L 79.16625,82.800975 L 77.55125,82.800975 L 77.55125,65.985025 z "
   id="rect41" />
<path
   style="fill:none;stroke:#231f20;stroke-width:1.70000005"
   d="M 29.48125,104.31752 L 23.16375,104.31752 L 23.16375,3.617525 L 29.48125,3.617525 M 94.65125,3.617525 L 100.96875,3.617525 L 100.96875,104.31752 L 94.65125,104.31752"
   id="path43" />
<g
   id="g45"
   transform="matrix(0.95,0,0,0.95,2.97625,2.810025)">
	<path
   style="fill:#231f20"
   d="M 111.088,112.4 L 111.088,103.056 L 112.51,103.056 L 112.51,104.383 C 113.196,103.363 114.188,102.853 115.485,102.853 C 116.049,102.853 116.567,102.955 117.04,103.157 C 117.513,103.359 117.866,103.624 118.101,103.952 C 118.336,104.28 118.5,104.671 118.595,105.122 C 118.654,105.415 118.683,105.928 118.683,106.66 L 118.683,112.4 L 117.105,112.4 L 117.105,106.723 C 117.105,106.079 117.042,105.597 116.919,105.278 C 116.796,104.959 116.575,104.704 116.261,104.514 C 115.947,104.323 115.577,104.228 115.155,104.228 C 114.478,104.228 113.894,104.442 113.404,104.87 C 112.912,105.298 112.668,106.109 112.668,107.304 L 112.668,112.401 L 111.088,112.401 L 111.088,112.4 z "
   id="path47" />
</g>
</svg>