<?xml version="1.0" encoding="UTF-8" standalone="no"?>
<!-- Created with Inkscape (http://www.inkscape.org/) -->
<svg
   xmlns:svg="http://www.w3.org/2000/svg"
   xmlns="http://www.w3.org/2000/svg"
   version="1.0"
   width="218.05"
   height="260"
   id="svg2">
  <defs
     id="defs4" />
  <g
     transform="translate(-390.35714,-601.36218)"
     id="layer1">
    <path
       d="M 584.79947,843.42517 L 584.79947,835.48816 L 586.12231,835.48816 C 587.30435,835.48816 587.44514,835.59574 587.44514,836.49892 L 587.44514,837.50969 L 588.29553,836.73514 C 590.2985,834.91079 592.81517,834.58494 594.93246,835.8758 C 596.94075,837.10023 597.27191,838.43466 597.27191,845.3028 L 597.27191,851.36218 L 595.97509,851.36218 L 594.67826,851.36218 L 594.55776,845.2807 C 594.44154,839.41517 594.40558,839.1736 593.54501,838.47755 C 592.20713,837.39548 590.33603,837.54761 588.86842,838.8578 L 587.63411,839.95972 L 587.5124,845.66095 L 587.39068,851.36218 L 586.09507,851.36218 L 584.79947,851.36218 L 584.79947,843.42517 z M 424.92546,842.48029 C 424.92546,842.16848 424.67034,841.91336 424.35852,841.91336 C 423.85874,841.91336 423.79159,837.83987 423.79159,807.51966 L 423.79159,773.12596 L 412.07506,773.12596 L 400.35852,773.12596 L 400.35852,772.18108 L 400.35852,771.2362 L 412.07506,771.2362 L 423.79159,771.2362 L 423.79159,691.86611 C 423.79159,621.5669 423.85639,612.49603 424.35852,612.49603 C 424.67034,612.49603 424.92546,612.24091 424.92546,611.92911 C 424.92546,611.44506 425.97532,611.36218 432.10655,611.36218 L 439.28765,611.36218 L 439.28765,612.49603 L 439.28765,613.6299 L 432.67349,613.6299 L 426.05931,613.6299 L 426.05931,692.43305 L 426.05931,771.2362 L 448.5475,771.2362 L 471.03568,771.2362 L 471.03568,772.18108 L 471.03568,773.12596 L 448.5475,773.12596 L 426.05931,773.12596 L 426.05931,806.95273 L 426.05931,840.77951 L 432.67349,840.77951 L 439.28765,840.77951 L 439.28765,841.91336 L 439.28765,843.04722 L 432.10655,843.04722 C 425.97532,843.04722 424.92546,842.96434 424.92546,842.48029 z M 558.72073,841.91336 L 558.72073,840.77951 L 565.3349,840.77951 L 571.94908,840.77951 L 571.94908,806.95273 L 571.94908,773.12596 L 566.84671,773.12596 L 561.74435,773.12596 L 561.74435,772.18108 L 561.74435,771.2362 L 566.84671,771.2362 L 571.94908,771.2362 L 571.94908,692.43305 L 571.94908,613.6299 L 565.3349,613.6299 L 558.72073,613.6299 L 558.72073,612.49603 L 558.72073,611.36218 L 565.90183,611.36218 C 572.03307,611.36218 573.08293,611.44506 573.08293,611.92911 C 573.08293,612.24091 573.33805,612.49603 573.64986,612.49603 C 574.152,612.49603 574.2168,621.5669 574.2168,691.86611 L 574.2168,771.2362 L 586.31128,771.2362 L 598.40577,771.2362 L 598.40577,772.18108 L 598.40577,773.12596 L 586.31128,773.12596 L 574.2168,773.12596 L 574.2168,807.51966 C 574.2168,837.83987 574.14965,841.91336 573.64986,841.91336 C 573.33805,841.91336 573.08293,842.16848 573.08293,842.48029 C 573.08293,842.96434 572.03307,843.04722 565.90183,843.04722 L 558.72073,843.04722 L 558.72073,841.91336 z M 474.81522,823.01572 L 474.81522,812.05509 L 476.32703,812.05509 L 477.83884,812.05509 L 477.83884,816.59052 L 477.83884,821.12596 L 483.50813,821.12596 L 489.17743,821.12596 L 489.17743,816.59052 L 489.17743,812.05509 L 490.68923,812.05509 L 492.20104,812.05509 L 492.20104,823.01572 L 492.20104,833.97636 L 490.68923,833.97636 L 489.17743,833.97636 L 489.17743,828.87399 L 489.17743,823.77163 L 483.50813,823.77163 L 477.83884,823.77163 L 477.83884,828.87399 L 477.83884,833.97636 L 476.32703,833.97636 L 474.81522,833.97636 L 474.81522,823.01572 z M 539.8231,823.01572 L 539.8231,812.05509 L 541.3349,812.05509 L 542.84671,812.05509 L 542.84671,816.59052 L 542.84671,821.12596 L 548.51601,821.12596 L 554.18529,821.12596 L 554.18529,816.59052 L 554.18529,812.05509 L 555.69711,812.05509 L 557.20892,812.05509 L 557.20892,823.01572 L 557.20892,833.97636 L 555.69711,833.97636 L 554.18529,833.97636 L 554.18529,828.87399 L 554.18529,823.77163 L 548.51601,823.77163 L 542.84671,823.77163 L 542.84671,828.87399 L 542.84671,833.97636 L 541.3349,833.97636 L 539.8231,833.97636 L 539.8231,823.01572 z M 482.37428,798.25982 L 482.37428,787.11021 L 483.50813,787.11021 L 484.64199,787.11021 L 484.64199,798.25982 L 484.64199,809.40942 L 483.50813,809.40942 L 482.37428,809.40942 L 482.37428,798.25982 z M 547.38214,798.25982 L 547.38214,787.11021 L 548.51601,787.11021 L 549.64986,787.11021 L 549.64986,798.25982 L 549.64986,809.40942 L 548.51601,809.40942 L 547.38214,809.40942 L 547.38214,798.25982 z M 480.365,783.91696 C 477.98417,783.06785 476.74034,781.817 475.27204,778.79525 C 474.3963,776.99301 474.26104,776.23891 474.25512,773.12596 C 474.24757,769.15687 475.0252,766.77221 477.00871,764.6819 C 479.26398,762.30518 483.45237,761.22818 486.85775,762.14932 C 488.83181,762.6833 491.20755,764.8198 492.00477,766.77807 L 492.57479,768.17821 L 491.15956,768.56939 C 490.3812,768.78454 489.70115,768.8348 489.64837,768.68107 C 489.26472,767.56391 487.84796,765.81448 486.81867,765.18691 C 484.08459,763.51992 479.89791,764.8086 478.21679,767.83462 C 477.39458,769.3146 477.27191,770.00155 477.27191,773.12596 C 477.27191,776.25037 477.39458,776.93731 478.21679,778.4173 C 479.47893,780.68914 481.81414,781.9344 484.38668,781.70738 C 486.65921,781.50684 487.96388,780.57271 489.17743,778.27725 C 490.08704,776.55668 490.17167,776.49899 491.44514,776.73144 C 492.1727,776.86424 492.82233,777.02626 492.88875,777.09147 C 493.28874,777.48413 491.108,781.29264 489.88257,782.34156 C 487.46483,784.41106 483.56185,785.0571 480.365,783.91696 z M 545.37288,783.91696 C 542.99204,783.06785 541.74821,781.817 540.2799,778.79525 C 539.40418,776.99301 539.26891,776.23891 539.26299,773.12596 C 539.25544,769.15687 540.03308,766.77221 542.01658,764.6819 C 544.27186,762.30518 548.46025,761.22818 551.86563,762.14932 C 553.83969,762.6833 556.21542,764.8198 557.01265,766.77807 L 557.58266,768.17821 L 556.16744,768.56939 C 555.38907,768.78454 554.70903,768.8348 554.65623,768.68107 C 554.2726,767.56391 552.85584,765.81448 551.82654,765.18691 C 549.09246,763.51992 544.90579,764.8086 543.22467,767.83462 C 542.40245,769.3146 542.27979,770.00155 542.27979,773.12596 C 542.27979,776.25037 542.40245,776.93731 543.22467,778.4173 C 544.48681,780.68914 546.82202,781.9344 549.39455,781.70738 C 551.66709,781.50684 552.97174,780.57271 554.18529,778.27725 C 555.09492,776.55668 555.17955,776.49899 556.45301,776.73144 C 557.18057,776.86424 557.8302,777.02626 557.89663,777.09147 C 558.29662,777.48413 556.11588,781.29264 554.89045,782.34156 C 552.47271,784.41106 548.56973,785.0571 545.37288,783.91696 z M 495.98057,772.18108 L 495.98057,771.2362 L 516.01207,771.2362 L 536.04356,771.2362 L 536.04356,772.18108 L 536.04356,773.12596 L 516.01207,773.12596 L 495.98057,773.12596 L 495.98057,772.18108 z M 482.28338,741.1106 L 482.18529,722.70154 L 460.5475,710.21302 L 438.9097,697.7245 L 438.9097,672.20213 L 438.9097,646.67975 L 460.96664,633.93435 C 473.09796,626.92438 483.20704,621.18895 483.43126,621.18895 C 483.65549,621.18895 493.6716,626.8691 505.68929,633.8115 L 527.53962,646.43405 L 527.53962,672.20106 L 527.53962,697.96808 L 506.10065,710.31866 L 484.66168,722.66927 L 484.65183,741.09446 L 484.64199,759.51966 L 483.51172,759.51966 L 482.38147,759.51966 L 482.28338,741.1106 z M 504.54588,708.77257 L 525.64986,696.57666 L 525.73338,672.20564 L 525.8169,647.83462 L 504.63154,635.63341 L 483.44617,623.43221 L 462.3118,635.62627 L 441.17743,647.82032 L 441.18394,672.20542 L 441.19045,696.59052 L 462.2548,708.76578 C 473.8402,715.46217 483.34677,720.94721 483.38052,720.95476 C 483.41427,720.9623 492.93868,715.48032 504.54588,708.77257 z M 483.45575,713.63437 C 483.20916,713.09314 483.07753,712.58265 483.16328,712.49992 C 483.56451,712.11283 517.78218,692.48641 518.27979,692.35796 C 518.59159,692.27748 519.05859,692.55562 519.31756,692.97608 C 519.89224,693.90909 521.99207,692.56432 501.83884,704.16978 C 492.90026,709.31717 485.20825,713.77385 484.74548,714.07353 C 483.96548,714.57867 483.87141,714.54663 483.45575,713.63437 z M 446.46876,672.21257 L 446.46876,651.42517 L 447.60262,651.42517 L 448.73647,651.42517 L 448.73647,672.21257 L 448.73647,692.99997 L 447.60262,692.99997 L 446.46876,692.99997 L 446.46876,672.21257 z M 500.61668,642.05661 C 491.0059,636.50381 483.13976,631.78051 483.13636,631.5604 C 483.13296,631.34029 483.34277,630.88679 483.60262,630.55263 C 484.02025,630.01557 486.0923,631.11441 501.46196,640.02371 C 511.02476,645.56695 519.05749,650.23778 519.31249,650.40332 C 519.67769,650.64041 519.67822,650.86106 519.31498,651.44269 C 519.06137,651.8488 518.68217,652.17467 518.47233,652.16685 C 518.26249,652.15902 510.22745,647.60942 500.61668,642.05661 z M 547.38214,747.9921 L 547.38214,736.84249 L 548.51601,736.84249 L 549.64986,736.84249 L 549.64986,747.9921 L 549.64986,759.1417 L 548.51601,759.1417 L 547.38214,759.1417 L 547.38214,747.9921 z M 539.8231,722.85824 L 539.8231,711.89761 L 541.3349,711.89761 L 542.84671,711.89761 L 542.84671,716.43305 L 542.84671,720.96848 L 548.51601,720.96848 L 554.18529,720.96848 L 554.18529,716.43305 L 554.18529,711.89761 L 555.69711,711.89761 L 557.20892,711.89761 L 557.20892,722.85824 L 557.20892,733.81887 L 555.69711,733.81887 L 554.18529,733.81887 L 554.18529,728.71651 L 554.18529,723.61415 L 548.51601,723.61415 L 542.84671,723.61415 L 542.84671,728.71651 L 542.84671,733.81887 L 541.3349,733.81887 L 539.8231,733.81887 L 539.8231,722.85824 z"
       id="path2470"
       style="fill:#000000" />
  </g>
</svg>
