<?xml version="1.0" encoding="UTF-8" standalone="no"?>
<!-- Generator: Adobe Illustrator 12.0.1, SVG Export Plug-In . SVG Version: 6.00 Build 51448)  -->
<svg
   xmlns:dc="http://purl.org/dc/elements/1.1/"
   xmlns:cc="http://web.resource.org/cc/"
   xmlns:rdf="http://www.w3.org/1999/02/22-rdf-syntax-ns#"
   xmlns:svg="http://www.w3.org/2000/svg"
   xmlns="http://www.w3.org/2000/svg"
   xmlns:sodipodi="http://sodipodi.sourceforge.net/DTD/sodipodi-0.dtd"
   xmlns:inkscape="http://www.inkscape.org/namespaces/inkscape"
   version="1.1"
   id="Layer_1"
   width="103.95"
   height="92.899"
   viewBox="0 0 103.95 92.899"
   style="overflow:visible;enable-background:new 0 0 103.95 92.899;"
   xml:space="preserve"
   sodipodi:version="0.32"
   inkscape:version="0.45.1"
   sodipodi:docname="Polypropylen.svg"
   inkscape:output_extension="org.inkscape.output.svg.inkscape"
   sodipodi:docbase="C:\"><metadata
   id="metadata30"><rdf:RDF><cc:Work
       rdf:about=""><dc:format>image/svg+xml</dc:format><dc:type
         rdf:resource="http://purl.org/dc/dcmitype/StillImage" /></cc:Work></rdf:RDF></metadata><defs
   id="defs28" /><sodipodi:namedview
   inkscape:window-height="579"
   inkscape:window-width="801"
   inkscape:pageshadow="2"
   inkscape:pageopacity="0.0"
   guidetolerance="10.0"
   gridtolerance="10.0"
   objecttolerance="10.0"
   borderopacity="1.0"
   bordercolor="#666666"
   pagecolor="#ffffff"
   id="base"
   inkscape:zoom="4.068935"
   inkscape:cx="51.974998"
   inkscape:cy="46.449501"
   inkscape:window-x="88"
   inkscape:window-y="88"
   inkscape:current-layer="Layer_1" />
<path
   style="fill:#231f20"
   d="M 34.85125,53.67 L 35.65875,54.145 L 35.65875,55.095 L 3.40625,73.6675 L 2.59875,72.28905 L 34.85125,53.67 z "
   id="polygon3" />
<path
   style="fill:#231f20"
   d="M 68.29125,72.05155 L 68.29125,73.905 L 35.65875,55.095 L 35.65875,54.145 L 36.46625,53.67 L 68.29125,72.05155 z "
   id="polygon5" />
<path
   style="fill:#231f20"
   d="M 100.54375,53.4325 L 101.35125,54.8575 L 68.29125,73.905 L 68.29125,72.05155 L 100.54375,53.4325 z "
   id="polygon7" />
<g
   id="g9"
   transform="matrix(0.95,0,0,0.95,2.59875,2.3225)">
	<path
   style="fill:#231f20"
   d="M 40.244,18.322 L 42.525,18.896 C 42.049,20.766 41.192,22.192 39.956,23.173 C 38.719,24.154 37.206,24.646 35.419,24.646 C 33.569,24.646 32.065,24.269 30.906,23.514 C 29.747,22.76 28.865,21.666 28.26,20.236 C 27.655,18.805 27.353,17.268 27.353,15.627 C 27.353,13.837 27.694,12.274 28.377,10.941 C 29.06,9.608 30.031,8.594 31.292,7.903 C 32.552,7.212 33.938,6.865 35.452,6.865 C 37.169,6.865 38.612,7.303 39.782,8.179 C 40.953,9.056 41.768,10.287 42.228,11.876 L 39.994,12.403 C 39.596,11.153 39.019,10.243 38.263,9.673 C 37.506,9.103 36.554,8.818 35.408,8.818 C 34.09,8.818 32.988,9.134 32.102,9.767 C 31.217,10.4 30.595,11.249 30.236,12.316 C 29.877,13.383 29.698,14.482 29.698,15.615 C 29.698,17.076 29.91,18.351 30.335,19.441 C 30.76,20.531 31.42,21.345 32.317,21.884 C 33.214,22.423 34.184,22.693 35.229,22.693 C 36.5,22.693 37.575,22.326 38.456,21.591 C 39.337,20.856 39.932,19.768 40.244,18.322 z "
   id="path11" />
	<path
   style="fill:#231f20"
   d="M 45.419,24.35 L 45.419,7.162 L 47.7,7.162 L 47.7,14.225 L 56.591,14.225 L 56.591,7.162 L 58.872,7.162 L 58.872,24.35 L 56.591,24.35 L 56.591,16.256 L 47.7,16.256 L 47.7,24.35 L 45.419,24.35 z "
   id="path13" />
</g>
<g
   id="g15"
   transform="matrix(0.95,0,0,0.95,2.59875,2.3225)">
	<path
   style="fill:#231f20"
   d="M 60.469,25.443 L 62.047,25.224 C 62.231,26.12 62.539,26.766 62.975,27.162 C 63.413,27.557 63.948,27.755 64.582,27.755 C 65.336,27.755 65.969,27.497 66.481,26.983 C 66.994,26.467 67.25,25.829 67.25,25.067 C 67.25,24.341 67.012,23.743 66.535,23.271 C 66.058,22.799 65.451,22.564 64.715,22.564 C 64.414,22.564 64.041,22.623 63.594,22.74 L 63.77,21.349 C 63.876,21.361 63.961,21.367 64.026,21.367 C 64.701,21.367 65.307,21.192 65.848,20.841 C 66.387,20.49 66.657,19.949 66.657,19.218 C 66.657,18.639 66.46,18.159 66.067,17.78 C 65.672,17.4 65.165,17.21 64.542,17.21 C 63.925,17.21 63.409,17.404 62.998,17.792 C 62.587,18.18 62.321,18.762 62.204,19.538 L 60.626,19.257 C 60.819,18.195 61.261,17.372 61.946,16.789 C 62.633,16.205 63.486,15.913 64.507,15.913 C 65.212,15.913 65.861,16.063 66.452,16.365 C 67.044,16.666 67.497,17.077 67.811,17.597 C 68.125,18.117 68.282,18.67 68.282,19.255 C 68.282,19.811 68.134,20.317 67.835,20.773 C 67.536,21.229 67.093,21.591 66.507,21.861 C 67.269,22.037 67.862,22.402 68.286,22.955 C 68.711,23.51 68.923,24.202 68.923,25.034 C 68.923,26.16 68.513,27.113 67.691,27.895 C 66.869,28.677 65.83,29.069 64.574,29.069 C 63.441,29.069 62.5,28.732 61.752,28.06 C 61.002,27.386 60.575,26.515 60.469,25.443 z "
   id="path17" />
</g>
<path
   style="fill:#231f20"
   d="M 34.85125,27.83 L 36.46625,27.83 L 36.46625,53.67 L 35.65875,54.145 L 34.85125,53.67 L 34.85125,27.83 z "
   id="polygon19" />
<path
   style="fill:none;stroke:#231f20;stroke-width:1.70000005"
   d="M 24.44875,85.305 L 19.27125,85.305 L 19.27125,3.13 L 24.44875,3.13 M 79.54875,3.13 L 84.7253,3.13 L 84.7253,85.305 L 79.54875,85.305"
   id="path21" />
<g
   id="g23"
   transform="matrix(0.95,0,0,0.95,2.59875,2.3225)">
	<path
   style="fill:#231f20"
   d="M 94.387,92.899 L 94.387,83.555 L 95.809,83.555 L 95.809,84.882 C 96.497,83.862 97.489,83.352 98.786,83.352 C 99.349,83.352 99.867,83.454 100.34,83.656 C 100.812,83.858 101.165,84.123 101.402,84.451 C 101.636,84.779 101.8,85.17 101.894,85.621 C 101.953,85.914 101.982,86.427 101.982,87.159 L 101.982,92.899 L 100.404,92.899 L 100.404,87.222 C 100.404,86.578 100.343,86.096 100.218,85.777 C 100.095,85.458 99.876,85.203 99.562,85.013 C 99.248,84.822 98.878,84.727 98.455,84.727 C 97.779,84.727 97.195,84.941 96.703,85.369 C 96.213,85.797 95.967,86.608 95.967,87.803 L 95.967,92.9 L 94.387,92.9 L 94.387,92.899 z "
   id="path25" />
</g>
</svg>