<?xml version="1.0" encoding="utf-8"?>
<!-- Generator: Adobe Illustrator 13.0.0, SVG Export Plug-In  -->
<!DOCTYPE svg PUBLIC "-//W3C//DTD SVG 1.1//EN" "http://www.w3.org/Graphics/SVG/1.1/DTD/svg11.dtd" [
	<!ENTITY ns_flows "http://ns.adobe.com/Flows/1.0/">
]>
<svg version="1.1"
	 xmlns="http://www.w3.org/2000/svg" xmlns:xlink="http://www.w3.org/1999/xlink" xmlns:a="http://ns.adobe.com/AdobeSVGViewerExtensions/3.0/"
	 x="0px" y="0px" width="619px" height="520px" viewBox="-49.543 -42.75 619 520" enable-background="new -49.543 -42.75 619 520"
	 xml:space="preserve">
<defs>
</defs>
<line fill="none" stroke="#2828FF" stroke-width="8.5" x1="17.457" y1="401.25" x2="195.686" y2="133.906"/>
<polyline fill="none" stroke="#000000" stroke-width="4" points="517.457,401.25 17.457,401.25 17.457,1.25 "/>
<polygon points="268.652,44.247 273.976,38.091 268.652,31.935 284.625,38.091 "/>
<polygon fill="#2828FF" points="204.358,165.287 195.686,133.906 163.383,137.971 219.314,98.463 "/>
<line fill="none" stroke="#000000" stroke-width="2.5" x1="4.332" y1="1.25" x2="30.582" y2="1.25"/>
<line fill="none" stroke="#000000" stroke-width="2.5" x1="4.332" y1="101.25" x2="30.582" y2="101.25"/>
<line fill="none" stroke="#000000" stroke-width="2.5" x1="4.332" y1="201.25" x2="30.582" y2="201.25"/>
<line fill="none" stroke="#000000" stroke-width="2.5" x1="4.332" y1="301.25" x2="30.582" y2="301.25"/>
<line fill="none" stroke="#000000" stroke-width="2.5" x1="117.457" y1="414.375" x2="117.457" y2="388.125"/>
<line fill="none" stroke="#000000" stroke-width="2.5" x1="217.457" y1="414.375" x2="217.457" y2="388.125"/>
<line fill="none" stroke="#000000" stroke-width="2.5" x1="317.457" y1="414.375" x2="317.457" y2="388.125"/>
<line fill="none" stroke="#000000" stroke-width="2.5" x1="417.457" y1="414.375" x2="417.457" y2="388.125"/>
<line fill="none" stroke="#000000" stroke-width="2.5" x1="517.457" y1="414.375" x2="517.457" y2="388.125"/>
<g>
	<path d="M20.703,425.104c3.141,0,5.562,0.912,7.263,2.734c1.701,1.823,2.551,4.46,2.551,7.91c0,2.523-0.432,5.358-1.294,8.509
		c-0.863,3.148-2.112,5.875-3.748,8.178c-1.636,2.304-3.503,4.013-5.603,5.127c-2.1,1.115-4.297,1.673-6.592,1.673
		c-3.271,0-5.754-0.911-7.446-2.734c-1.693-1.822-2.539-4.427-2.539-7.813c0-2.441,0.411-5.2,1.233-8.276
		c0.822-3.076,2.01-5.79,3.564-8.143c1.554-2.352,3.41-4.134,5.566-5.346C15.816,425.711,18.164,425.104,20.703,425.104z
		 M25.879,434.724c0-4.98-1.815-7.471-5.444-7.471c-1.758,0-3.398,0.627-4.919,1.88c-1.522,1.254-2.856,3.044-4.004,5.371
		c-1.147,2.328-2.039,4.883-2.673,7.666s-0.952,5.241-0.952,7.373c0,5.029,1.831,7.544,5.493,7.544c2.229,0,4.276-1.025,6.14-3.076
		c1.863-2.051,3.389-4.928,4.578-8.63C25.285,441.678,25.879,438.126,25.879,434.724z"/>
</g>
<g>
	<path d="M235.35,178.307l0.269-1.196c0.96-0.081,1.676-0.455,2.148-1.123c0.472-0.667,0.708-1.839,0.708-3.516
		c0-0.635-0.024-1.326-0.073-2.075l-0.171-3.149h-10.742l-1.343,2.393c-0.635,1.123-1.099,2.087-1.392,2.894
		c-0.293,0.805-0.439,1.518-0.439,2.136c0,1.367,0.822,2.182,2.466,2.441l-0.269,1.196h-9.985l0.269-1.196
		c0.504-0.064,0.98-0.265,1.428-0.599c0.447-0.333,0.923-0.838,1.428-1.514c0.504-0.675,1.212-1.794,2.124-3.356l15.649-27.051
		h3.687l1.758,27.222c0.081,1.286,0.228,2.291,0.439,3.016c0.211,0.724,0.5,1.261,0.867,1.611c0.366,0.35,0.899,0.573,1.599,0.671
		l-0.269,1.196H235.35z M228.587,165.123h9.546l-0.415-7.861c-0.049-1.074-0.09-2.417-0.122-4.028
		c-0.033-1.611-0.049-2.774-0.049-3.491h-0.269L228.587,165.123z"/>
</g>
<g>
	<path d="M242.547,48.097c3.141,0,5.562,0.912,7.263,2.734c1.701,1.823,2.551,4.46,2.551,7.91c0,2.523-0.432,5.358-1.294,8.509
		c-0.863,3.148-2.112,5.875-3.748,8.178c-1.636,2.304-3.503,4.013-5.603,5.127c-2.1,1.115-4.297,1.673-6.592,1.673
		c-3.271,0-5.754-0.911-7.446-2.734c-1.693-1.822-2.539-4.427-2.539-7.813c0-2.441,0.411-5.2,1.233-8.276
		c0.822-3.076,2.01-5.79,3.564-8.143c1.554-2.352,3.41-4.134,5.566-5.346C237.66,48.703,240.008,48.097,242.547,48.097z
		 M247.723,57.716c0-4.98-1.815-7.471-5.444-7.471c-1.758,0-3.398,0.627-4.919,1.88c-1.522,1.254-2.856,3.044-4.004,5.371
		c-1.147,2.328-2.039,4.883-2.673,7.666s-0.952,5.241-0.952,7.373c0,5.029,1.831,7.544,5.493,7.544c2.229,0,4.276-1.025,6.14-3.076
		c1.863-2.051,3.389-4.928,4.578-8.63C247.129,64.67,247.723,61.118,247.723,57.716z"/>
	<path d="M270.188,81.813l0.269-1.196c0.96-0.081,1.676-0.455,2.148-1.123c0.472-0.667,0.708-1.839,0.708-3.516
		c0-0.635-0.024-1.326-0.073-2.075l-0.171-3.149h-10.742l-1.343,2.393c-0.635,1.123-1.099,2.087-1.392,2.894
		c-0.293,0.805-0.439,1.518-0.439,2.136c0,1.367,0.822,2.182,2.466,2.441l-0.269,1.196h-9.985l0.269-1.196
		c0.504-0.064,0.98-0.265,1.428-0.599c0.447-0.333,0.923-0.838,1.428-1.514c0.504-0.675,1.212-1.794,2.124-3.356l15.649-27.051
		h3.687l1.758,27.222c0.081,1.286,0.228,2.291,0.439,3.016c0.211,0.724,0.5,1.261,0.867,1.611c0.366,0.35,0.899,0.573,1.599,0.671
		l-0.269,1.196H270.188z M263.426,68.629h9.546l-0.415-7.861c-0.049-1.074-0.09-2.417-0.122-4.028
		c-0.033-1.611-0.049-2.774-0.049-3.491h-0.269L263.426,68.629z"/>
	<path d="M297.996,64.088v-3.247h30.078v3.247H297.996z M297.996,74.22v-3.247h30.078v3.247H297.996z"/>
	<path d="M351.341,66.459c0,5.697,0.916,10.393,2.747,14.087s4.626,6.168,8.387,7.422l-0.586,1.88
		c-4.77-1.254-8.423-3.951-10.962-8.094c-2.539-4.142-3.809-9.158-3.809-15.051c0-5.875,1.273-10.893,3.821-15.051
		c2.547-4.159,6.197-6.864,10.95-8.118l0.658,1.88c-3.808,1.254-6.628,3.699-8.459,7.336
		C352.256,56.389,351.341,60.958,351.341,66.459z"/>
	<path d="M380.613,77.906c0.798,0,1.441-0.049,1.93-0.146s0.879-0.26,1.172-0.488c0.293-0.228,0.524-0.525,0.695-0.891
		c0.171-0.367,0.387-0.932,0.646-1.697h2.076l-0.416,7.129h-20.092v-1.172c0.699-1.709,1.643-3.458,2.832-5.249
		c1.188-1.79,2.872-3.897,5.053-6.323c1.889-2.083,3.248-3.662,4.078-4.736c0.91-1.172,1.59-2.186,2.038-3.039
		c0.447-0.855,0.769-1.66,0.964-2.418c0.195-0.756,0.293-1.517,0.293-2.282c0-1.221-0.195-2.299-0.586-3.235
		c-0.391-0.936-0.988-1.672-1.794-2.209s-1.819-0.806-3.04-0.806c-3.043,0-5.094,1.693-6.152,5.078h-2.953v-4.688
		c1.969-0.928,3.813-1.599,5.529-2.015c1.717-0.414,3.26-0.622,4.627-0.622c3.027,0,5.313,0.663,6.859,1.989
		c1.547,1.327,2.32,3.252,2.32,5.774c0,0.863-0.086,1.656-0.257,2.38c-0.171,0.725-0.439,1.441-0.806,2.148
		c-0.366,0.709-0.859,1.47-1.477,2.283c-0.619,0.814-1.303,1.64-2.051,2.479c-0.75,0.838-2.043,2.233-3.883,4.187
		c-3.092,3.271-5.363,6.128-6.811,8.569H380.613z"/>
	<path d="M398.705,76.148c0.227,1.14,0.342,2.263,0.342,3.369c0,1.14-0.195,2.182-0.586,3.125s-1.014,1.884-1.868,2.82
		c-0.854,0.936-2.03,1.965-3.528,3.088l-1.318-1.489c0.83-0.781,1.433-1.485,1.807-2.112c0.375-0.626,0.643-1.339,0.807-2.136
		c0.162-0.798,0.244-1.798,0.244-3.003c0-1.236-0.058-2.457-0.172-3.662H398.705z"/>
	<path d="M405.296,55.396v-4.639c1.887-0.895,3.653-1.563,5.297-2.002c1.645-0.439,3.23-0.659,4.762-0.659
		c1.838,0,3.449,0.285,4.834,0.854c1.383,0.57,2.441,1.388,3.174,2.453c0.732,1.066,1.098,2.341,1.098,3.821
		c0,1.384-0.276,2.601-0.83,3.649c-0.553,1.051-1.33,1.966-2.331,2.747s-2.3,1.547-3.894,2.295v0.22
		c0.992,0.18,1.948,0.484,2.868,0.916c0.919,0.431,1.737,0.988,2.454,1.672c0.715,0.684,1.289,1.502,1.721,2.453
		c0.432,0.953,0.646,2.039,0.646,3.26c0,1.889-0.41,3.564-1.232,5.029s-2.08,2.621-3.771,3.467c-1.693,0.847-3.752,1.27-6.178,1.27
		c-1.399,0-2.909-0.158-4.528-0.477c-1.62-0.316-3.104-0.735-4.456-1.257v-5.176h2.93c0.57,1.693,1.322,2.922,2.259,3.687
		c0.936,0.766,2.21,1.147,3.821,1.147c2.115,0,3.715-0.577,4.797-1.733c1.082-1.155,1.623-2.864,1.623-5.127
		c0-2.376-0.716-4.19-2.148-5.444c-1.432-1.253-3.531-1.88-6.299-1.88h-2.197v-2.148c2.197-0.13,4.049-0.553,5.555-1.27
		c1.506-0.716,2.625-1.636,3.357-2.759s1.098-2.384,1.098-3.784c0-1.807-0.48-3.198-1.439-4.175
		c-0.961-0.977-2.361-1.465-4.199-1.465c-1.531,0-2.775,0.415-3.736,1.245c-0.96,0.83-1.668,2.1-2.123,3.809H405.296z"/>
	<path d="M441.234,66.459c0-5.501-0.912-10.07-2.734-13.709c-1.824-3.637-4.647-6.082-8.473-7.336l0.66-1.88
		c4.752,1.254,8.402,3.959,10.949,8.118c2.547,4.158,3.82,9.176,3.82,15.051c0,5.893-1.27,10.909-3.809,15.051
		c-2.539,4.143-6.193,6.84-10.961,8.094l-0.586-1.88c3.76-1.254,6.555-3.728,8.386-7.422S441.234,72.156,441.234,66.459z"/>
</g>
<line fill="none" stroke="#000000" stroke-width="3" x1="274.864" y1="38.091" x2="225.957" y2="38.091"/>
</svg>
