<?xml version="1.0" encoding="UTF-8" standalone="no"?>
<!-- Creator: fig2dev Version 3.2 Patchlevel 5-alpha5 -->
<!-- CreationDate: Fri Jan  5 00:01:08 2007 -->
<!-- Magnification: 1.050 -->
<svg
   xmlns:dc="http://purl.org/dc/elements/1.1/"
   xmlns:cc="http://creativecommons.org/ns#"
   xmlns:rdf="http://www.w3.org/1999/02/22-rdf-syntax-ns#"
   xmlns:svg="http://www.w3.org/2000/svg"
   xmlns="http://www.w3.org/2000/svg"
   xmlns:sodipodi="http://sodipodi.sourceforge.net/DTD/sodipodi-0.dtd"
   xmlns:inkscape="http://www.inkscape.org/namespaces/inkscape"
   width="1.8in"
   height="3.3in"
   viewBox="743 932 2103 3993"
   id="svg2"
   sodipodi:version="0.32"
   inkscape:version="0.46"
   sodipodi:docname="Prop-tableau-4.svg"
   inkscape:output_extension="org.inkscape.output.svg.inkscape">
  <metadata
     id="metadata33">
    <rdf:RDF>
      <cc:Work
         rdf:about="">
        <dc:format>image/svg+xml</dc:format>
        <dc:type
           rdf:resource="http://purl.org/dc/dcmitype/StillImage" />
      </cc:Work>
    </rdf:RDF>
  </metadata>
  <defs
     id="defs31">
    <inkscape:perspective
       sodipodi:type="inkscape:persp3d"
       inkscape:vp_x="0 : 148.5 : 1"
       inkscape:vp_y="0 : 1000 : 0"
       inkscape:vp_z="162 : 148.5 : 1"
       inkscape:persp3d-origin="81 : 99 : 1"
       id="perspective35" />
  </defs>
  <sodipodi:namedview
     inkscape:window-height="701"
     inkscape:window-width="911"
     inkscape:pageshadow="2"
     inkscape:pageopacity="0.0"
     guidetolerance="10.0"
     gridtolerance="10.0"
     objecttolerance="10.0"
     borderopacity="1.0"
     bordercolor="#666666"
     pagecolor="#ffffff"
     id="base"
     showgrid="false"
     inkscape:zoom="1.6767677"
     inkscape:cx="6.1536156"
     inkscape:cy="148.5"
     inkscape:window-x="20"
     inkscape:window-y="42"
     inkscape:current-layer="g4" />
  <g
     style="stroke-width:.025in; stroke:black; fill:none"
     id="g4">
    <rect
       style="opacity:1;fill:#ffffff;fill-opacity:1;fill-rule:nonzero;stroke:none;stroke-width:2.17499995;stroke-miterlimit:4;stroke-dasharray:none;stroke-opacity:1"
       id="rect3797"
       width="2178"
       height="3993"
       x="705.5"
       y="932" />
<!-- Line: box --><!-- Line -->    <polyline
       points="1606,3874 1086,4393 "
       style="stroke:#000000;stroke-width:32; stroke-linejoin:miter; stroke-linecap:butt; "
       id="polyline8" />
<!-- Line -->    <polyline
       points="1984,3874 2503,4393 "
       style="stroke:#000000;stroke-width:32; stroke-linejoin:miter; stroke-linecap:butt; "
       id="polyline10" />
<!-- Line -->    <polyline
       points="1795,3023 1795,3543 "
       style="stroke:#000000;stroke-width:32; stroke-linejoin:miter; stroke-linecap:butt; "
       id="polyline12" />
<!-- Line -->    <polyline
       points="1795,2173 1795,2692 "
       style="stroke:#000000;stroke-width:32; stroke-linejoin:miter; stroke-linecap:butt; "
       id="polyline14" />
<!-- Line -->    <polyline
       points="1795,1370 1795,1889 "
       style="stroke:#000000;stroke-width:32; stroke-linejoin:miter; stroke-linecap:butt; "
       id="polyline16" />
<!-- Text -->    <path
       style="font-size:202px;font-style:normal;font-weight:normal;text-anchor:middle;fill:#000000;font-family:Times"
       d="M 1064.6445,4562.3018 C 1058.0689,4567.891 1051.7236,4571.8363 1045.6084,4574.1377 C 1039.5589,4576.4391 1033.0491,4577.5898 1026.0791,4577.5898 C 1014.5719,4577.5898 1005.7278,4574.7952 999.54688,4569.2061 C 993.36588,4563.5511 990.27538,4556.3509 990.27539,4547.6055 C 990.27538,4542.4766 991.4261,4537.808 993.72754,4533.5996 C 996.09471,4529.3256 999.15233,4525.9063 1002.9004,4523.3418 C 1006.7142,4520.7774 1010.9883,4518.8376 1015.7227,4517.5225 C 1019.2076,4516.6019 1024.4681,4515.7143 1031.5039,4514.8594 C 1045.8385,4513.1498 1056.3922,4511.1114 1063.165,4508.7441 C 1063.2307,4506.3113 1063.2636,4504.766 1063.2637,4504.1084 C 1063.2636,4496.8754 1061.5868,4491.7794 1058.2334,4488.8203 C 1053.6962,4484.8093 1046.9563,4482.8038 1038.0137,4482.8037 C 1029.6627,4482.8038 1023.4817,4484.2833 1019.4707,4487.2422 C 1015.5254,4490.1355 1012.5993,4495.2973 1010.6924,4502.7275 L 993.33301,4500.3604 C 994.91112,4492.9301 997.50845,4486.9464 1001.125,4482.4092 C 1004.7415,4477.8064 1009.969,4474.2885 1016.8076,4471.8555 C 1023.6461,4469.3569 1031.5696,4468.1075 1040.5781,4468.1074 C 1049.5208,4468.1075 1056.7867,4469.1596 1062.376,4471.2637 C 1067.9651,4473.3679 1072.0748,4476.031 1074.7051,4479.2529 C 1077.3352,4482.4093 1079.1763,4486.4203 1080.2285,4491.2861 C 1080.8202,4494.311 1081.1161,4499.7686 1081.1162,4507.6592 L 1081.1162,4531.3311 C 1081.1161,4547.8356 1081.4778,4558.2907 1082.2012,4562.6963 C 1082.9901,4567.0361 1084.5025,4571.2116 1086.7383,4575.2227 L 1068.1953,4575.2227 C 1066.3541,4571.5404 1065.1705,4567.2334 1064.6445,4562.3018 M 1063.165,4522.6514 C 1056.721,4525.2816 1047.0549,4527.5173 1034.167,4529.3584 C 1026.8681,4530.4105 1021.7063,4531.5941 1018.6816,4532.9092 C 1015.6569,4534.2243 1013.3226,4536.1641 1011.6787,4538.7285 C 1010.0348,4541.2272 1009.2129,4544.0218 1009.2129,4547.1123 C 1009.2129,4551.8467 1010.9883,4555.792 1014.5391,4558.9482 C 1018.1556,4562.1045 1023.416,4563.6826 1030.3203,4563.6826 C 1037.1588,4563.6826 1043.2412,4562.2031 1048.5674,4559.2441 C 1053.8935,4556.2194 1057.8059,4552.1097 1060.3047,4546.915 C 1062.2115,4542.904 1063.165,4536.986 1063.165,4529.1611 L 1063.165,4522.6514"
       id="text18" />
<!-- Text -->    <path
       style="font-size:202px;font-style:normal;font-weight:normal;text-anchor:middle;fill:#000000;font-family:Times"
       d="M 2542.5176,4533.4023 L 2525.75,4533.4023 L 2525.75,4490.2012 L 2447.041,4490.2012 L 2447.041,4473.6309 L 2542.5176,4473.6309 L 2542.5176,4533.4023 M 2583.8447,4575.2227 L 2567.373,4575.2227 L 2567.373,4430.627 L 2585.127,4430.627 L 2585.127,4482.2119 C 2592.623,4472.809 2602.1904,4468.1075 2613.8291,4468.1074 C 2620.273,4468.1075 2626.3554,4469.4226 2632.0762,4472.0527 C 2637.8625,4474.6173 2642.5969,4478.2667 2646.2793,4483.001 C 2650.0272,4487.6697 2652.9534,4493.3246 2655.0576,4499.9658 C 2657.1617,4506.6072 2658.2138,4513.7087 2658.2139,4521.2705 C 2658.2138,4539.2217 2653.7753,4553.0961 2644.8984,4562.8936 C 2636.0214,4572.6911 2625.3691,4577.5898 2612.9414,4577.5898 C 2600.5794,4577.5898 2590.8805,4572.4281 2583.8447,4562.1045 L 2583.8447,4575.2227 M 2583.6475,4522.0596 C 2583.6474,4534.6189 2585.3571,4543.6931 2588.7764,4549.2822 C 2594.3655,4558.4222 2601.9274,4562.9922 2611.4619,4562.9922 C 2619.221,4562.9922 2625.928,4559.6387 2631.583,4552.9316 C 2637.2379,4546.1589 2640.0653,4536.0983 2640.0654,4522.75 C 2640.0653,4509.073 2637.3365,4498.9796 2631.8789,4492.4697 C 2626.4869,4485.9601 2619.9443,4482.7052 2612.251,4482.7051 C 2604.4918,4482.7052 2597.7848,4486.0916 2592.1299,4492.8643 C 2586.4749,4499.5714 2583.6474,4509.3031 2583.6475,4522.0596"
       id="text20" />
<!-- Text -->    <path
       style="font-size:202px;font-style:normal;font-weight:normal;text-anchor:middle;fill:#000000;font-family:Times"
       d="M 1412.2061,1364.5107 C 1402.4085,1352.1487 1394.1233,1337.6826 1387.3506,1321.1123 C 1380.5778,1304.542 1377.1914,1287.3799 1377.1914,1269.626 C 1377.1914,1253.9763 1379.723,1238.9841 1384.7861,1224.6494 C 1390.7041,1208.0135 1399.844,1191.4432 1412.2061,1174.9385 L 1424.9297,1174.9385 C 1416.9733,1188.6157 1411.7128,1198.3803 1409.1484,1204.2324 C 1405.1373,1213.3067 1401.9811,1222.7755 1399.6797,1232.6387 C 1396.8522,1244.935 1395.4384,1257.2969 1395.4385,1269.7246 C 1395.4384,1301.3529 1405.2688,1332.9482 1424.9297,1364.5107 L 1412.2061,1364.5107 M 1514.0938,1309.0791 C 1507.5182,1314.6683 1501.1728,1318.6136 1495.0576,1320.915 C 1489.0081,1323.2165 1482.4983,1324.3672 1475.5283,1324.3672 C 1464.0211,1324.3672 1455.1771,1321.5726 1448.9961,1315.9834 C 1442.8151,1310.3285 1439.7246,1303.1283 1439.7246,1294.3828 C 1439.7246,1289.2539 1440.8753,1284.5853 1443.1768,1280.377 C 1445.5439,1276.1029 1448.6015,1272.6836 1452.3496,1270.1191 C 1456.1634,1267.5547 1460.4375,1265.615 1465.1719,1264.2998 C 1468.6569,1263.3793 1473.9173,1262.4916 1480.9531,1261.6367 C 1495.2877,1259.9271 1505.8414,1257.8887 1512.6143,1255.5215 C 1512.6799,1253.0886 1512.7128,1251.5434 1512.7129,1250.8857 C 1512.7128,1243.6527 1511.0361,1238.5567 1507.6826,1235.5977 C 1503.1454,1231.5867 1496.4055,1229.5811 1487.4629,1229.5811 C 1479.1119,1229.5811 1472.9309,1231.0606 1468.9199,1234.0195 C 1464.9746,1236.9128 1462.0485,1242.0746 1460.1416,1249.5049 L 1442.7822,1247.1377 C 1444.3603,1239.7074 1446.9577,1233.7237 1450.5742,1229.1865 C 1454.1907,1224.5838 1459.4183,1221.0659 1466.2568,1218.6328 C 1473.0953,1216.1342 1481.0188,1214.8849 1490.0273,1214.8848 C 1498.97,1214.8849 1506.2359,1215.937 1511.8252,1218.041 C 1517.4143,1220.1453 1521.524,1222.8084 1524.1543,1226.0303 C 1526.7844,1229.1866 1528.6256,1233.1977 1529.6777,1238.0635 C 1530.2694,1241.0883 1530.5653,1246.546 1530.5654,1254.4365 L 1530.5654,1278.1084 C 1530.5653,1294.613 1530.927,1305.0681 1531.6504,1309.4736 C 1532.4394,1313.8135 1533.9517,1317.9889 1536.1875,1322 L 1517.6445,1322 C 1515.8033,1318.3177 1514.6197,1314.0108 1514.0938,1309.0791 M 1512.6143,1269.4287 C 1506.1702,1272.059 1496.5042,1274.2946 1483.6162,1276.1357 C 1476.3173,1277.1879 1471.1556,1278.3715 1468.1309,1279.6865 C 1465.1061,1281.0017 1462.7718,1282.9414 1461.1279,1285.5059 C 1459.484,1288.0046 1458.6621,1290.7992 1458.6621,1293.8896 C 1458.6621,1298.624 1460.4375,1302.5694 1463.9883,1305.7256 C 1467.6048,1308.8818 1472.8652,1310.46 1479.7695,1310.46 C 1486.608,1310.46 1492.6904,1308.9805 1498.0166,1306.0215 C 1503.3427,1302.9968 1507.2551,1298.8871 1509.7539,1293.6924 C 1511.6607,1289.6813 1512.6142,1283.7634 1512.6143,1275.9385 L 1512.6143,1269.4287 M 1611.9407,1304.628 L 1565.0767,1204.638 C 1563.8647,1201.81 1561.0367,1200.8 1558.2087,1200.8 C 1556.5927,1200.8 1554.9767,1201.204 1553.5627,1201.81 C 1550.7347,1203.022 1548.3107,1205.446 1548.3107,1208.678 C 1548.3107,1209.89 1548.5127,1210.9 1549.1187,1212.112 L 1600.2247,1317.758 C 1602.8507,1323.01 1606.2847,1325.636 1611.9407,1325.636 C 1617.5967,1325.636 1621.0307,1323.01 1623.6567,1317.758 L 1674.7627,1212.112 C 1675.3687,1210.9 1675.5707,1209.89 1675.5707,1208.678 C 1675.5707,1205.446 1673.1467,1203.022 1670.3187,1201.81 C 1668.9047,1201.204 1667.2887,1200.8 1665.6727,1200.8 C 1662.8447,1200.8 1660.0167,1201.81 1658.8047,1204.638 L 1611.9407,1304.628 M 1786.5176,1280.1797 L 1769.75,1280.1797 L 1769.75,1236.9785 L 1691.041,1236.9785 L 1691.041,1220.4082 L 1786.5176,1220.4082 L 1786.5176,1280.1797 M 1827.8447,1322 L 1811.373,1322 L 1811.373,1177.4043 L 1829.127,1177.4043 L 1829.127,1228.9893 C 1836.623,1219.5864 1846.1904,1214.8849 1857.8291,1214.8848 C 1864.273,1214.8849 1870.3554,1216.2 1876.0762,1218.8301 C 1881.8625,1221.3946 1886.5969,1225.044 1890.2793,1229.7783 C 1894.0272,1234.447 1896.9534,1240.102 1899.0576,1246.7432 C 1901.1617,1253.3845 1902.2138,1260.4861 1902.2139,1268.0479 C 1902.2138,1285.9991 1897.7753,1299.8734 1888.8984,1309.6709 C 1880.0214,1319.4684 1869.3691,1324.3672 1856.9414,1324.3672 C 1844.5794,1324.3672 1834.8805,1319.2054 1827.8447,1308.8818 L 1827.8447,1322 M 1827.6475,1268.8369 C 1827.6474,1281.3962 1829.3571,1290.4704 1832.7764,1296.0596 C 1838.3655,1305.1996 1845.9274,1309.7695 1855.4619,1309.7695 C 1863.221,1309.7695 1869.928,1306.416 1875.583,1299.709 C 1881.2379,1292.9362 1884.0653,1282.8757 1884.0654,1269.5273 C 1884.0653,1255.8503 1881.3365,1245.7569 1875.8789,1239.2471 C 1870.4869,1232.7374 1863.9443,1229.4825 1856.251,1229.4824 C 1848.4918,1229.4825 1841.7848,1232.8689 1836.1299,1239.6416 C 1830.4749,1246.3487 1827.6474,1256.0805 1827.6475,1268.8369 M 1935.1572,1364.5107 L 1922.4336,1364.5107 C 1942.0944,1332.9482 1951.9248,1301.3529 1951.9248,1269.7246 C 1951.9248,1257.3627 1950.511,1245.0994 1947.6836,1232.9346 C 1945.4479,1223.0714 1942.3245,1213.6026 1938.3135,1204.5283 C 1935.749,1198.6105 1930.4557,1188.7472 1922.4336,1174.9385 L 1935.1572,1174.9385 C 1947.5192,1191.4432 1956.6591,1208.0135 1962.5771,1224.6494 C 1967.6402,1238.9841 1970.1718,1253.9763 1970.1719,1269.626 C 1970.1718,1287.3799 1966.7525,1304.542 1959.9141,1321.1123 C 1953.1412,1337.6826 1944.889,1352.1487 1935.1572,1364.5107 M 2045.136,1221.404 L 2092,1321.394 C 2093.212,1324.222 2096.04,1325.232 2098.868,1325.232 C 2100.484,1325.232 2102.1,1324.828 2103.514,1324.222 C 2106.342,1323.01 2108.766,1320.586 2108.766,1317.354 C 2108.766,1316.142 2108.564,1315.132 2107.958,1313.92 L 2056.852,1208.274 C 2054.226,1203.022 2050.792,1200.396 2045.136,1200.396 C 2039.48,1200.396 2036.046,1203.022 2033.42,1208.274 L 1982.314,1313.92 C 1981.708,1315.132 1981.506,1316.142 1981.506,1317.354 C 1981.506,1320.586 1983.93,1323.01 1986.758,1324.222 C 1988.172,1324.828 1989.788,1325.232 1991.404,1325.232 C 1994.232,1325.232 1997.06,1324.222 1998.272,1321.394 L 2045.136,1221.404 M 2142.6807,1322 L 2126.209,1322 L 2126.209,1177.4043 L 2143.9629,1177.4043 L 2143.9629,1228.9893 C 2151.4589,1219.5864 2161.0263,1214.8849 2172.665,1214.8848 C 2179.109,1214.8849 2185.1913,1216.2 2190.9121,1218.8301 C 2196.6985,1221.3946 2201.4329,1225.044 2205.1152,1229.7783 C 2208.8632,1234.447 2211.7893,1240.102 2213.8936,1246.7432 C 2215.9976,1253.3845 2217.0497,1260.4861 2217.0498,1268.0479 C 2217.0497,1285.9991 2212.6112,1299.8734 2203.7344,1309.6709 C 2194.8573,1319.4684 2184.205,1324.3672 2171.7773,1324.3672 C 2159.4153,1324.3672 2149.7164,1319.2054 2142.6807,1308.8818 L 2142.6807,1322 M 2142.4834,1268.8369 C 2142.4834,1281.3962 2144.193,1290.4704 2147.6123,1296.0596 C 2153.2015,1305.1996 2160.7633,1309.7695 2170.2979,1309.7695 C 2178.0569,1309.7695 2184.7639,1306.416 2190.4189,1299.709 C 2196.0738,1292.9362 2198.9013,1282.8757 2198.9014,1269.5273 C 2198.9013,1255.8503 2196.1724,1245.7569 2190.7148,1239.2471 C 2185.3228,1232.7374 2178.7802,1229.4825 2171.0869,1229.4824 C 2163.3277,1229.4825 2156.6207,1232.8689 2150.9658,1239.6416 C 2145.3108,1246.3487 2142.4834,1256.0805 2142.4834,1268.8369"
       id="text22" />
<!-- Text -->    <path
       style="font-size:202px;font-style:normal;font-weight:normal;text-anchor:middle;fill:#000000;font-family:Times"
       d="M 1786.5176,2036.1797 L 1769.75,2036.1797 L 1769.75,1992.9785 L 1691.041,1992.9785 L 1691.041,1976.4082 L 1786.5176,1976.4082 L 1786.5176,2036.1797 M 1879.8242,2065.0791 C 1873.2486,2070.6683 1866.9033,2074.6136 1860.7881,2076.915 C 1854.7386,2079.2165 1848.2288,2080.3672 1841.2588,2080.3672 C 1829.7516,2080.3672 1820.9075,2077.5726 1814.7266,2071.9834 C 1808.5456,2066.3285 1805.4551,2059.1283 1805.4551,2050.3828 C 1805.4551,2045.2539 1806.6058,2040.5853 1808.9072,2036.377 C 1811.2744,2032.1029 1814.332,2028.6836 1818.0801,2026.1191 C 1821.8939,2023.5547 1826.1679,2021.615 1830.9023,2020.2998 C 1834.3873,2019.3793 1839.6477,2018.4916 1846.6836,2017.6367 C 1861.0182,2015.9271 1871.5719,2013.8887 1878.3447,2011.5215 C 1878.4104,2009.0886 1878.4433,2007.5434 1878.4434,2006.8857 C 1878.4433,1999.6527 1876.7665,1994.5567 1873.4131,1991.5977 C 1868.8759,1987.5867 1862.136,1985.5811 1853.1934,1985.5811 C 1844.8424,1985.5811 1838.6614,1987.0606 1834.6504,1990.0195 C 1830.705,1992.9128 1827.7789,1998.0746 1825.8721,2005.5049 L 1808.5127,2003.1377 C 1810.0908,1995.7074 1812.6881,1989.7237 1816.3047,1985.1865 C 1819.9212,1980.5838 1825.1487,1977.0659 1831.9873,1974.6328 C 1838.8258,1972.1342 1846.7493,1970.8849 1855.7578,1970.8848 C 1864.7005,1970.8849 1871.9664,1971.937 1877.5557,1974.041 C 1883.1448,1976.1453 1887.2545,1978.8084 1889.8848,1982.0303 C 1892.5149,1985.1866 1894.356,1989.1977 1895.4082,1994.0635 C 1895.9999,1997.0883 1896.2958,2002.546 1896.2959,2010.4365 L 1896.2959,2034.1084 C 1896.2958,2050.613 1896.6575,2061.0681 1897.3809,2065.4736 C 1898.1698,2069.8135 1899.6822,2073.9889 1901.918,2078 L 1883.375,2078 C 1881.5338,2074.3177 1880.3502,2070.0108 1879.8242,2065.0791 M 1878.3447,2025.4287 C 1871.9006,2028.059 1862.2346,2030.2946 1849.3467,2032.1357 C 1842.0478,2033.1879 1836.886,2034.3715 1833.8613,2035.6865 C 1830.8366,2037.0017 1828.5022,2038.9414 1826.8584,2041.5059 C 1825.2145,2044.0046 1824.3926,2046.7992 1824.3926,2049.8896 C 1824.3926,2054.624 1826.1679,2058.5694 1829.7188,2061.7256 C 1833.3353,2064.8818 1838.5957,2066.46 1845.5,2066.46 C 1852.3385,2066.46 1858.4208,2064.9805 1863.7471,2062.0215 C 1869.0732,2058.9968 1872.9856,2054.8871 1875.4844,2049.6924 C 1877.3912,2045.6813 1878.3446,2039.7634 1878.3447,2031.9385 L 1878.3447,2025.4287"
       id="text24" />
<!-- Text -->    <path
       style="font-size:202px;font-style:normal;font-weight:normal;text-anchor:middle;fill:#000000;font-family:Times"
       d="M 1637.7793,2916.0791 C 1631.2037,2921.6683 1624.8583,2925.6136 1618.7432,2927.915 C 1612.6936,2930.2165 1606.1839,2931.3672 1599.2139,2931.3672 C 1587.7067,2931.3672 1578.8626,2928.5726 1572.6816,2922.9834 C 1566.5006,2917.3285 1563.4101,2910.1283 1563.4102,2901.3828 C 1563.4101,2896.2539 1564.5609,2891.5853 1566.8623,2887.377 C 1569.2295,2883.1029 1572.2871,2879.6836 1576.0352,2877.1191 C 1579.8489,2874.5547 1584.123,2872.615 1588.8574,2871.2998 C 1592.3424,2870.3793 1597.6028,2869.4916 1604.6387,2868.6367 C 1618.9732,2866.9271 1629.5269,2864.8887 1636.2998,2862.5215 C 1636.3655,2860.0886 1636.3984,2858.5434 1636.3984,2857.8857 C 1636.3984,2850.6527 1634.7216,2845.5567 1631.3682,2842.5977 C 1626.831,2838.5867 1620.0911,2836.5811 1611.1484,2836.5811 C 1602.7975,2836.5811 1596.6165,2838.0606 1592.6055,2841.0195 C 1588.6601,2843.9128 1585.734,2849.0746 1583.8271,2856.5049 L 1566.4678,2854.1377 C 1568.0459,2846.7074 1570.6432,2840.7237 1574.2598,2836.1865 C 1577.8763,2831.5838 1583.1038,2828.0659 1589.9424,2825.6328 C 1596.7809,2823.1342 1604.7044,2821.8849 1613.7129,2821.8848 C 1622.6555,2821.8849 1629.9215,2822.937 1635.5107,2825.041 C 1641.0998,2827.1453 1645.2095,2829.8084 1647.8398,2833.0303 C 1650.47,2836.1866 1652.3111,2840.1977 1653.3633,2845.0635 C 1653.955,2848.0883 1654.2509,2853.546 1654.251,2861.4365 L 1654.251,2885.1084 C 1654.2509,2901.613 1654.6125,2912.0681 1655.3359,2916.4736 C 1656.1249,2920.8135 1657.6373,2924.9889 1659.873,2929 L 1641.3301,2929 C 1639.4888,2925.3177 1638.3053,2921.0108 1637.7793,2916.0791 M 1636.2998,2876.4287 C 1629.8557,2879.059 1620.1897,2881.2946 1607.3018,2883.1357 C 1600.0029,2884.1879 1594.8411,2885.3715 1591.8164,2886.6865 C 1588.7916,2888.0017 1586.4573,2889.9414 1584.8135,2892.5059 C 1583.1696,2895.0046 1582.3476,2897.7992 1582.3477,2900.8896 C 1582.3476,2905.624 1584.123,2909.5694 1587.6738,2912.7256 C 1591.2903,2915.8818 1596.5507,2917.46 1603.4551,2917.46 C 1610.2936,2917.46 1616.3759,2915.9805 1621.7021,2913.0215 C 1627.0282,2909.9968 1630.9407,2905.8871 1633.4395,2900.6924 C 1635.3463,2896.6813 1636.2997,2890.7634 1636.2998,2882.9385 L 1636.2998,2876.4287 M 1735.6262,2911.628 L 1688.7622,2811.638 C 1687.5502,2808.81 1684.7222,2807.8 1681.8942,2807.8 C 1680.2782,2807.8 1678.6622,2808.204 1677.2482,2808.81 C 1674.4202,2810.022 1671.9962,2812.446 1671.9962,2815.678 C 1671.9962,2816.89 1672.1982,2817.9 1672.8042,2819.112 L 1723.9102,2924.758 C 1726.5362,2930.01 1729.9702,2932.636 1735.6262,2932.636 C 1741.2822,2932.636 1744.7162,2930.01 1747.3422,2924.758 L 1798.4482,2819.112 C 1799.0542,2817.9 1799.2562,2816.89 1799.2562,2815.678 C 1799.2562,2812.446 1796.8322,2810.022 1794.0042,2808.81 C 1792.5902,2808.204 1790.9742,2807.8 1789.3582,2807.8 C 1786.5302,2807.8 1783.7022,2808.81 1782.4902,2811.638 L 1735.6262,2911.628 M 1910.2031,2887.1797 L 1893.4355,2887.1797 L 1893.4355,2843.9785 L 1814.7266,2843.9785 L 1814.7266,2827.4082 L 1910.2031,2827.4082 L 1910.2031,2887.1797 M 1951.5303,2929 L 1935.0586,2929 L 1935.0586,2784.4043 L 1952.8125,2784.4043 L 1952.8125,2835.9893 C 1960.3086,2826.5864 1969.8759,2821.8849 1981.5146,2821.8848 C 1987.9586,2821.8849 1994.0409,2823.2 1999.7617,2825.8301 C 2005.5481,2828.3946 2010.2825,2832.044 2013.9648,2836.7783 C 2017.7128,2841.447 2020.6389,2847.102 2022.7432,2853.7432 C 2024.8472,2860.3845 2025.8993,2867.4861 2025.8994,2875.0479 C 2025.8993,2892.9991 2021.4608,2906.8734 2012.584,2916.6709 C 2003.7069,2926.4684 1993.0546,2931.3672 1980.627,2931.3672 C 1968.2649,2931.3672 1958.566,2926.2054 1951.5303,2915.8818 L 1951.5303,2929 M 1951.333,2875.8369 C 1951.333,2888.3962 1953.0426,2897.4704 1956.4619,2903.0596 C 1962.0511,2912.1996 1969.6129,2916.7695 1979.1475,2916.7695 C 1986.9065,2916.7695 1993.6135,2913.416 1999.2686,2906.709 C 2004.9234,2899.9362 2007.7509,2889.8757 2007.751,2876.5273 C 2007.7509,2862.8503 2005.0221,2852.7569 1999.5645,2846.2471 C 1994.1725,2839.7374 1987.6298,2836.4825 1979.9365,2836.4824 C 1972.1774,2836.4825 1965.4703,2839.8689 1959.8154,2846.6416 C 1954.1604,2853.3487 1951.333,2863.0805 1951.333,2875.8369"
       id="text26" />
<!-- Text -->    <path
       style="font-size:202px;font-style:normal;font-weight:normal;text-anchor:middle;fill:#000000;font-family:Times"
       d="M 1768.665,3779 L 1752.1934,3779 L 1752.1934,3634.4043 L 1769.9473,3634.4043 L 1769.9473,3685.9893 C 1777.4433,3676.5864 1787.0107,3671.8849 1798.6494,3671.8848 C 1805.0934,3671.8849 1811.1757,3673.2 1816.8965,3675.8301 C 1822.6829,3678.3946 1827.4172,3682.044 1831.0996,3686.7783 C 1834.8476,3691.447 1837.7737,3697.102 1839.8779,3703.7432 C 1841.982,3710.3845 1843.0341,3717.4861 1843.0342,3725.0479 C 1843.0341,3742.9991 1838.5956,3756.8734 1829.7188,3766.6709 C 1820.8417,3776.4684 1810.1894,3781.3672 1797.7617,3781.3672 C 1785.3997,3781.3672 1775.7008,3776.2054 1768.665,3765.8818 L 1768.665,3779 M 1768.4678,3725.8369 C 1768.4677,3738.3962 1770.1774,3747.4704 1773.5967,3753.0596 C 1779.1858,3762.1996 1786.7477,3766.7695 1796.2822,3766.7695 C 1804.0413,3766.7695 1810.7483,3763.416 1816.4033,3756.709 C 1822.0582,3749.9362 1824.8857,3739.8757 1824.8857,3726.5273 C 1824.8857,3712.8503 1822.1568,3702.7569 1816.6992,3696.2471 C 1811.3072,3689.7374 1804.7646,3686.4825 1797.0713,3686.4824 C 1789.3121,3686.4825 1782.6051,3689.8689 1776.9502,3696.6416 C 1771.2952,3703.3487 1768.4677,3713.0805 1768.4678,3725.8369"
       id="text28" />
    <path
       style="fill:none;fill-rule:evenodd;stroke:#000000;stroke-width:29.24166667;stroke-linecap:butt;stroke-linejoin:miter;stroke-opacity:1;stroke-miterlimit:4;stroke-dasharray:none"
       d="M 1964.3373,3714.2711 C 2394.7219,3699.847 2860.4657,3646.8492 2605.7831,4379.7711"
       id="path2446"
       sodipodi:nodetypes="cc" />
    <path
       style="fill:none;fill-rule:evenodd;stroke:#000000;stroke-width:29.24166667;stroke-linecap:butt;stroke-linejoin:miter;stroke-opacity:1;stroke-miterlimit:4;stroke-dasharray:none"
       d="M 1635.5964,2006.4217 C 661.16258,2196.5533 759.91509,3252.7651 986.13253,4411.8434"
       id="path3218"
       sodipodi:nodetypes="cc" />
  </g>
</svg>
