<?xml version="1.0" encoding="UTF-8" standalone="no"?>
<!-- Created with Inkscape (http://www.inkscape.org/) -->
<svg
   xmlns:ns0="http://www.iki.fi/pav/software/textext/"
   xmlns:dc="http://purl.org/dc/elements/1.1/"
   xmlns:cc="http://creativecommons.org/ns#"
   xmlns:rdf="http://www.w3.org/1999/02/22-rdf-syntax-ns#"
   xmlns:svg="http://www.w3.org/2000/svg"
   xmlns="http://www.w3.org/2000/svg"
   xmlns:xlink="http://www.w3.org/1999/xlink"
   xmlns:sodipodi="http://sodipodi.sourceforge.net/DTD/sodipodi-0.dtd"
   xmlns:inkscape="http://www.inkscape.org/namespaces/inkscape"
   width="146.25444"
   height="133.12245"
   id="svg3405"
   sodipodi:version="0.32"
   inkscape:version="0.46"
   version="1.0"
   sodipodi:docname="Reactance button.svg"
   inkscape:output_extension="org.inkscape.output.svg.inkscape">
  <defs
     id="defs3">
    <linearGradient
       id="linearGradient5642">
      <stop
         style="stop-color:#52999e;stop-opacity:1;"
         offset="0"
         id="stop5644" />
      <stop
         id="stop5662"
         offset="0.19085097"
         style="stop-color:#a5d5d8;stop-opacity:1;" />
      <stop
         style="stop-color:#a4d5d8;stop-opacity:1;"
         offset="0.80394602"
         id="stop5664" />
      <stop
         id="stop5650"
         offset="1"
         style="stop-color:#529a9e;stop-opacity:1;" />
    </linearGradient>
    <inkscape:perspective
       sodipodi:type="inkscape:persp3d"
       inkscape:vp_x="0 : 526.18109 : 1"
       inkscape:vp_y="0 : 1000 : 0"
       inkscape:vp_z="744.09448 : 526.18109 : 1"
       inkscape:persp3d-origin="372.04724 : 350.78739 : 1"
       id="perspective3411" />
    <linearGradient
       inkscape:collect="always"
       xlink:href="#linearGradient5642"
       id="linearGradient5658"
       x1="270.32468"
       y1="357.88229"
       x2="415.86475"
       y2="357.30066"
       gradientUnits="userSpaceOnUse"
       spreadMethod="pad" />
  </defs>
  <sodipodi:namedview
     inkscape:document-units="mm"
     id="base"
     pagecolor="#ffffff"
     bordercolor="#666666"
     borderopacity="1.0"
     inkscape:pageopacity="0.0"
     inkscape:pageshadow="2"
     inkscape:zoom="1.4"
     inkscape:cx="-10.972103"
     inkscape:cy="8.7386023"
     inkscape:current-layer="layer1"
     showgrid="false"
     showguides="true"
     inkscape:guide-bbox="true"
     inkscape:window-width="1100"
     inkscape:window-height="667"
     inkscape:window-x="125"
     inkscape:window-y="163" />
  <metadata
     id="metadata4">
    <rdf:RDF>
      <cc:Work
         rdf:about="">
        <dc:format>image/svg+xml</dc:format>
        <dc:type
           rdf:resource="http://purl.org/dc/dcmitype/StillImage" />
      </cc:Work>
    </rdf:RDF>
  </metadata>
  <g
     inkscape:label="Layer 1"
     inkscape:groupmode="layer"
     id="layer1"
     transform="translate(-270.32465,-291.32107)">
    <rect
       style="opacity:1;fill:url(#linearGradient5658);fill-opacity:1;fill-rule:evenodd;stroke:#646464;stroke-width:4.84267139;stroke-linecap:butt;stroke-linejoin:miter;stroke-miterlimit:7.21649981;stroke-dasharray:none;stroke-dashoffset:0;stroke-opacity:1"
       id="rect3414"
       width="141.42137"
       height="128.28938"
       x="272.74118"
       y="293.73761"
       ry="20.5263" />
    <path
       style="fill:none;fill-rule:evenodd;stroke:#000000;stroke-width:4;stroke-linecap:butt;stroke-linejoin:miter;stroke-miterlimit:4;stroke-dasharray:none;stroke-opacity:1"
       d="M 333.90592,379.8823 L 291.47952,379.8823 L 291.47952,379.8823"
       id="path4666" />
    <path
       style="fill:none;fill-rule:evenodd;stroke:#000000;stroke-width:4;stroke-linecap:butt;stroke-linejoin:miter;stroke-miterlimit:4;stroke-dasharray:none;stroke-opacity:1"
       d="M 355.11913,379.8823 L 395.42421,379.8823"
       id="path4668" />
    <rect
       transform="matrix(0,-1,1,0,0,0)"
       rx="0"
       ry="6.9352922"
       y="307.00888"
       x="-391.05719"
       height="69.11937"
       width="23.241219"
       id="rect2913"
       style="fill:#ffffff;fill-opacity:1;stroke:#000000;stroke-width:4;stroke-miterlimit:4.0999999;stroke-dasharray:none;stroke-opacity:1" />
    <g
       transform="matrix(4.7428709,0,0,-4.2190673,-740.83934,3327.9106)"
       xml:space="preserve"
       style="font-style:normal;font-variant:normal;font-weight:normal;font-stretch:normal;letter-spacing:normal;word-spacing:normal;text-anchor:start;fill:none;fill-opacity:1;fill-rule:evenodd;stroke:#000000;stroke-width:0.22354817;stroke-linecap:butt;stroke-linejoin:miter;stroke-miterlimit:10.43299961;stroke-dasharray:none;stroke-dashoffset:0;stroke-opacity:1"
       id="g12938">
<path
   d="M 228.26,711.22 L 227.43,713.2 C 227.4,713.28 227.38,713.32 227.38,713.33 C 227.38,713.39 227.55,713.58 227.96,713.62 C 228.07,713.63 228.16,713.64 228.16,713.81 C 228.16,713.93 228.04,713.93 228.01,713.93 C 227.61,713.93 227.18,713.9 226.76,713.9 C 226.51,713.9 225.89,713.93 225.64,713.93 C 225.58,713.93 225.46,713.93 225.46,713.73 C 225.46,713.62 225.56,713.62 225.69,713.62 C 226.29,713.62 226.35,713.52 226.44,713.3 L 227.62,710.52 L 225.51,708.26 C 225.46,708.21 225.45,708.2 225.38,708.15 C 224.9,707.62 224.43,707.46 223.92,707.43 C 223.79,707.42 223.7,707.42 223.7,707.23 C 223.7,707.22 223.7,707.12 223.83,707.12 C 224.13,707.12 224.46,707.15 224.77,707.15 C 225.14,707.15 225.52,707.12 225.88,707.12 C 225.94,707.12 226.06,707.12 226.06,707.32 C 226.06,707.42 225.96,707.43 225.94,707.43 C 225.85,707.44 225.54,707.46 225.54,707.74 C 225.54,707.9 225.69,708.06 225.81,708.19 L 226.83,709.26 C 227.13,709.59 227.52,710 227.73,710.24 L 228.73,707.86 C 228.77,707.75 228.78,707.74 228.78,707.72 C 228.78,707.64 228.59,707.47 228.21,707.43 C 228.1,707.42 228.01,707.41 228.01,707.24 C 228.01,707.12 228.12,707.12 228.15,707.12 C 228.43,707.12 229.13,707.15 229.41,707.15 C 229.66,707.15 230.27,707.12 230.52,707.12 C 230.59,707.12 230.71,707.12 230.71,707.31 C 230.71,707.43 230.61,707.43 230.53,707.43 C 229.86,707.44 229.84,707.47 229.67,707.87 C 229.28,708.8 228.61,710.35 228.38,710.95 C 229.06,711.65 230.11,712.83 230.43,713.11 C 230.71,713.35 231.09,713.59 231.69,713.62 C 231.82,713.63 231.91,713.63 231.91,713.82 C 231.91,713.83 231.91,713.93 231.78,713.93 C 231.48,713.93 231.15,713.9 230.85,713.9 C 230.48,713.9 230.1,713.93 229.74,713.93 C 229.68,713.93 229.55,713.93 229.55,713.73 C 229.55,713.66 229.6,713.63 229.67,713.62 C 229.76,713.61 230.07,713.59 230.07,713.31 C 230.07,713.17 229.96,713.04 229.88,712.95 L 228.26,711.22 z"
   style="fill:#000000;stroke-width:0.22354817;stroke-miterlimit:10.43299961;stroke-dasharray:none"
   id="path12940" />
</g>  </g>
</svg>
