<?xml version="1.0" encoding="UTF-8" standalone="no"?>
<!-- Created with Serif DrawPlus 11, 0, 3, 23 (Feb 25, 14:12:55) (http://www.serif.com) -->
<svg version="1.1" xmlns="http://www.w3.org/2000/svg" xmlns:xlink="http://www.w3.org/1999/xlink" width="340.307" height="347.721">
	<g id="dp_group001" transform="matrix(1,0,0,1,-445.281,-22.6213)">
		<g id="dp_group002">
			<g id="dp_group003">
				<path id="dp_path004" fill="black" fill-rule="evenodd" d="M 585.628,53.008 L 586.695,53.008 L 588.828,53.008 L 586.161,47.6747 L 583.495,53.008 Z "/>
				<path id="dp_path005" fill="black" d="M 586.695,370.341 L 586.695,53.008 L 585.628,53.008 L 585.628,370.341 Z "/>
			</g>
		</g>
		<path id="dp_path006" fill="#f60004" fill-rule="evenodd" fill-opacity="0.32549" stroke="#f60004" stroke-width="0.666667" d="M 742.535,216.859 L 565.823,216.711 L 484.987,261.012 L 666.729,261.012 Z "/>
		<g id="dp_group007">
			<g id="dp_group008">
				<path id="dp_path009" fill="black" fill-rule="evenodd" d="M 752.684,151.027 L 753.217,151.951 L 754.284,153.799 L 757.569,148.823 L 751.617,149.18 Z "/>
				<path id="dp_path010" fill="black" d="M 478.399,310.617 L 753.217,151.951 L 752.684,151.028 L 477.865,309.695 Z "/>
			</g>
		</g>
		<g id="dp_group011">
			<g id="dp_group012">
				<path id="dp_path013" fill="black" fill-rule="evenodd" d="M 762.615,246.415 L 762.615,247.481 L 762.615,249.615 L 767.948,246.948 L 762.615,244.281 Z "/>
				<path id="dp_path014" fill="black" d="M 445.281,247.481 L 762.615,247.481 L 762.615,246.415 L 445.281,246.415 Z "/>
			</g>
		</g>
		<path id="dp_path015" fill="none" fill-rule="evenodd" stroke="#f60004" stroke-width="0.666667" d="M 630.491,132.263 L 679.843,132.261"/>
		<path id="dp_path016" fill="none" fill-rule="evenodd" stroke="#f60004" stroke-width="0.666667" d="M 630.493,221.412 L 586.028,247.085"/>
		<path id="dp_path017" fill="none" fill-rule="evenodd" stroke="#2d04e4" stroke-width="0.666667" d="M 586.163,247.011 L 586.164,157.792"/>
		<path id="dp_path018" fill="none" fill-rule="evenodd" stroke="#f60004" stroke-width="0.666667" d="M 630.628,221.335 L 679.98,221.333"/>
		<path id="dp_path019" fill="none" fill-rule="evenodd" stroke="#f60004" stroke-width="0.666667" d="M 635.517,157.849 L 679.983,132.176"/>
		<path id="dp_path020" fill="none" fill-rule="evenodd" stroke="#f60004" stroke-width="0.666667" d="M 630.627,132.177 L 586.161,157.851"/>
		<path id="dp_path021" fill="none" fill-rule="evenodd" stroke="#2d04e4" stroke-width="0.666667" d="M 630.491,221.411 L 630.492,132.192"/>
		<path id="dp_path022" fill="none" fill-rule="evenodd" stroke="#f60004" stroke-width="0.666667" d="M 586.165,157.793 L 635.517,157.792"/>
		<g id="dp_group023">
			<path id="dp_path024" fill="#2d04e4" fill-rule="evenodd" d="M 679.169,221.953 L 679.171,132.735"/>
			<g id="dp_group025">
				<g id="dp_group026">
					<path id="dp_path027" fill="#2d04e4" fill-rule="evenodd" d="M 678.171,139.735 L 680.171,139.735 L 684.171,141.735 L 679.171,132.735 L 674.171,141.735 Z "/>
					<path id="dp_path028" fill="#2d04e4" d="M 680.169,221.953 L 680.171,139.735 L 678.171,139.735 L 678.169,221.953 Z "/>
				</g>
			</g>
		</g>
		<g id="dp_group029">
			<path id="dp_path030" fill="#f60004" fill-rule="evenodd" d="M 636.323,247.087 L 680.788,221.413"/>
			<g id="dp_group031">
				<g id="dp_group032">
					<path id="dp_path033" fill="#f60004" fill-rule="evenodd" d="M 676.413,223.169 L 677.08,224.324 L 677.259,227.3 L 680.788,221.413 L 673.925,221.527 Z "/>
					<path id="dp_path034" fill="#f60004" d="M 636.656,247.664 L 677.08,224.324 L 676.413,223.169 L 635.989,246.509 Z "/>
				</g>
			</g>
		</g>
		<path id="dp_path035" fill="black" fill-rule="evenodd" d="M 785.587,255.143 L 781.388,255.143 L 778.561,249.201 L 776.512,249.201 L 776.512,255.143 L 772.795,255.143 L 772.795,240.273 L 780.617,240.273 C 781.841,240.273 782.892,240.711 783.764,241.585 C 784.639,242.46 785.076,243.509 785.076,244.733 C 785.076,245.579 784.847,246.369 784.389,247.107 C 783.932,247.843 783.317,248.392 782.547,248.757 Z M 784.075,244.733 C 784.075,244.077 783.872,243.465 783.465,242.897 C 783.073,242.372 782.565,241.979 781.943,241.716 L 781.943,247.751 C 782.565,247.489 783.077,247.084 783.476,246.537 C 783.876,245.991 784.075,245.389 784.075,244.733 Z M 780.94,248.017 L 780.94,241.479 C 780.78,241.464 780.707,241.457 780.721,241.457 L 776.512,241.457 L 776.512,248.017 L 780.7,248.017 C 780.7,248.017 780.78,248.017 780.94,248.017 Z M 783.959,254.14 L 781.556,249.088 C 781.22,249.161 780.601,249.197 779.697,249.197 L 782.063,254.14 Z M 775.509,254.14 L 775.509,241.275 L 773.797,241.275 L 773.797,254.14 Z "/>
		<path id="dp_path036" fill="black" fill-rule="evenodd" d="M 593.012,37.4907 L 588.813,37.4907 L 585.988,31.5507 L 583.937,31.5507 L 583.937,37.4907 L 580.22,37.4907 L 580.22,22.6213 L 588.043,22.6213 C 589.268,22.6213 590.317,23.0587 591.189,23.9333 C 592.064,24.808 592.501,25.8587 592.501,27.0827 C 592.501,27.928 592.272,28.7187 591.815,29.4547 C 591.357,30.192 590.744,30.7413 589.972,31.1067 Z M 591.5,27.0827 C 591.5,26.4267 591.297,25.8147 590.891,25.2453 C 590.499,24.7213 589.991,24.328 589.368,24.0653 L 589.368,30.1 C 589.991,29.8373 590.503,29.4333 590.901,28.8867 C 591.301,28.34 591.5,27.7387 591.5,27.0827 Z M 588.365,30.3667 L 588.365,23.828 C 588.205,23.8133 588.132,23.8067 588.147,23.8067 L 583.937,23.8067 L 583.937,30.3667 L 588.125,30.3667 C 588.125,30.3667 588.205,30.3667 588.365,30.3667 Z M 591.385,36.4893 L 588.981,31.4373 C 588.645,31.5107 588.027,31.5467 587.123,31.5467 L 589.488,36.4893 Z M 582.935,36.4893 L 582.935,23.624 L 581.223,23.624 L 581.223,36.4893 Z "/>
		<path id="dp_path037" fill="black" fill-rule="evenodd" d="M 774.004,151.016 L 769.805,151.016 L 766.979,145.075 L 764.929,145.075 L 764.929,151.016 L 761.212,151.016 L 761.212,136.147 L 769.035,136.147 C 770.259,136.147 771.309,136.584 772.181,137.459 C 773.056,138.333 773.493,139.383 773.493,140.607 C 773.493,141.452 773.264,142.243 772.807,142.98 C 772.349,143.716 771.735,144.265 770.964,144.631 Z M 772.492,140.607 C 772.492,139.951 772.289,139.339 771.883,138.771 C 771.491,138.245 770.983,137.852 770.36,137.589 L 770.36,143.624 C 770.983,143.363 771.495,142.957 771.893,142.411 C 772.293,141.864 772.492,141.263 772.492,140.607 Z M 769.357,143.891 L 769.357,137.352 C 769.197,137.337 769.124,137.331 769.139,137.331 L 764.929,137.331 L 764.929,143.891 L 769.117,143.891 C 769.117,143.891 769.197,143.891 769.357,143.891 Z M 772.376,150.013 L 769.973,144.961 C 769.637,145.035 769.019,145.071 768.115,145.071 L 770.48,150.013 Z M 763.927,150.013 L 763.927,137.148 L 762.215,137.148 L 762.215,150.013 Z "/>
		<g id="dp_group038">
			<text id="dp_text001" transform="matrix(1,0,0,1,668.739,238.374)" xml:space="preserve" fill="#f60004" font-family="Arial" font-size="15" font-weight="400" font-style="italic" x="0" y="0">x </text>
			<text id="dp_text002" transform="matrix(1,0,0,1,676.487,242.507)" xml:space="preserve" fill="#f60004" font-family="Arial" font-size="10" font-weight="400" x="0" y="0">2 </text>
		</g>
		<g id="dp_group041">
			<text id="dp_text003" transform="matrix(1,0,0,1,685.358,158.229)" xml:space="preserve" fill="#2d04e4" font-family="Arial" font-size="15" font-weight="400" font-style="italic" x="0" y="0">f </text>
			<text id="dp_text004" transform="matrix(1,0,0,1,696.749,157.229)" xml:space="preserve" fill="#2d04e4" font-family="Arial" font-size="15" font-weight="400" font-style="italic" x="0" y="0">x </text>
			<text id="dp_text005" transform="matrix(1,0,0,1,704.499,161.362)" xml:space="preserve" fill="#2d04e4" font-family="Arial" font-size="10" font-weight="400" x="0" y="0">1 </text>
			<text id="dp_text006" transform="matrix(1,0,0,1,714.686,157.229)" xml:space="preserve" fill="#2d04e4" font-family="Arial" font-size="15" font-weight="400" font-style="italic" x="0" y="0">x </text>
			<text id="dp_text007" transform="matrix(1,0,0,1,722.434,161.362)" xml:space="preserve" fill="#2d04e4" font-family="Arial" font-size="10" font-weight="400" x="0" y="0">2 </text>
			<text id="dp_text008" transform="matrix(1,0,0,1,710.233,157.229)" xml:space="preserve" fill="#2d04e4" font-family="Arial" font-size="15" font-weight="400" x="0" y="0">, </text>
			<text id="dp_text009" transform="matrix(1,0,0,1,691.472,157.229)" xml:space="preserve" fill="#2d04e4" font-family="Arial" font-size="15" font-weight="400" x="0" y="0">( </text>
			<text id="dp_text010" transform="matrix(1,0,0,1,728.617,157.229)" xml:space="preserve" fill="#2d04e4" font-family="Arial" font-size="15" font-weight="400" x="0" y="0">) </text>
		</g>
		<g id="dp_group050">
			<text id="dp_text011" transform="matrix(1,0,0,1,613.762,257.44)" xml:space="preserve" fill="#f60004" font-family="Arial" font-size="15" font-weight="400" font-style="italic" x="0" y="0">x </text>
			<text id="dp_text012" transform="matrix(1,0,0,1,621.428,261.573)" xml:space="preserve" fill="#f60004" font-family="Arial" font-size="10" font-weight="400" x="0" y="0">1 </text>
		</g>
		<g id="dp_group053">
			<text id="dp_text013" transform="matrix(1,0,0,1,625.481,122.582)" xml:space="preserve" fill="#6607bb" font-family="Arial" font-size="15" font-weight="400" font-style="italic" x="0" y="0">x </text>
			<text id="dp_text014" transform="matrix(1,0,0,1,633.23,126.715)" xml:space="preserve" fill="#6607bb" font-family="Arial" font-size="10" font-weight="400" x="0" y="0">1 </text>
			<text id="dp_text015" transform="matrix(1,0,0,1,643.418,122.582)" xml:space="preserve" fill="#6607bb" font-family="Arial" font-size="15" font-weight="400" font-style="italic" x="0" y="0">x </text>
			<text id="dp_text016" transform="matrix(1,0,0,1,651.166,126.715)" xml:space="preserve" fill="#6607bb" font-family="Arial" font-size="10" font-weight="400" x="0" y="0">2 </text>
			<text id="dp_text017" transform="matrix(1,0,0,1,638.965,122.582)" xml:space="preserve" fill="#6607bb" font-family="Arial" font-size="15" font-weight="400" x="0" y="0">, </text>
			<text id="dp_text018" transform="matrix(1,0,0,1,620.204,122.582)" xml:space="preserve" fill="#6607bb" font-family="Arial" font-size="15" font-weight="400" x="0" y="0">( </text>
			<text id="dp_text019" transform="matrix(1,0,0,1,656.903,122.582)" xml:space="preserve" fill="#6607bb" font-family="Arial" font-size="15" font-weight="400" x="0" y="0">, </text>
			<text id="dp_text020" transform="matrix(1,0,0,1,707.84,122.582)" xml:space="preserve" fill="#6607bb" font-family="Arial" font-size="15" font-weight="400" x="0" y="0">) </text>
			<g id="dp_group062">
				<text id="dp_text021" transform="matrix(1,0,0,1,660.964,123.609)" xml:space="preserve" fill="#6607bb" font-family="Arial" font-size="15" font-weight="400" font-style="italic" x="0" y="0">f </text>
				<text id="dp_text022" transform="matrix(1,0,0,1,672.355,122.609)" xml:space="preserve" fill="#6607bb" font-family="Arial" font-size="15" font-weight="400" font-style="italic" x="0" y="0">x </text>
				<text id="dp_text023" transform="matrix(1,0,0,1,680.105,126.742)" xml:space="preserve" fill="#6607bb" font-family="Arial" font-size="10" font-weight="400" x="0" y="0">1 </text>
				<text id="dp_text024" transform="matrix(1,0,0,1,690.292,122.609)" xml:space="preserve" fill="#6607bb" font-family="Arial" font-size="15" font-weight="400" font-style="italic" x="0" y="0">x </text>
				<text id="dp_text025" transform="matrix(1,0,0,1,698.041,126.742)" xml:space="preserve" fill="#6607bb" font-family="Arial" font-size="10" font-weight="400" x="0" y="0">2 </text>
				<text id="dp_text026" transform="matrix(1,0,0,1,685.84,122.609)" xml:space="preserve" fill="#6607bb" font-family="Arial" font-size="15" font-weight="400" x="0" y="0">, </text>
				<text id="dp_text027" transform="matrix(1,0,0,1,667.079,122.609)" xml:space="preserve" fill="#6607bb" font-family="Arial" font-size="15" font-weight="400" x="0" y="0">( </text>
				<text id="dp_text028" transform="matrix(1,0,0,1,705.224,122.609)" xml:space="preserve" fill="#6607bb" font-family="Arial" font-size="15" font-weight="400" x="0" y="0">) </text>
			</g>
		</g>
		<g id="dp_group071">
			<g id="dp_group072">
				<path id="dp_path073" fill="#8d00df" fill-rule="evenodd" d="M 673.032,138.911 L 675.095,140.6 L 677.529,146.044 L 679.98,132.537 L 667.217,137.592 Z "/>
				<path id="dp_path074" fill="#8d00df" d="M 587.192,247.852 L 675.095,140.601 L 673.033,138.911 L 585.131,246.161 Z "/>
			</g>
		</g>
		<g id="dp_group075">
			<g id="dp_group076">
				<path id="dp_path077" fill="#f60004" fill-rule="evenodd" d="M 672.965,222.219 L 673.493,224.148 L 672.62,228.533 L 679.981,221.335 L 669.98,218.889 Z "/>
				<path id="dp_path078" fill="#f60004" d="M 586.425,247.971 L 673.493,224.148 L 672.965,222.22 L 585.897,246.043 Z "/>
			</g>
		</g>
		<path id="dp_path079" fill="none" fill-rule="evenodd" stroke="#2d04e4" stroke-width="0.666667" d="M 635.516,157.792 L 635.515,247.011"/>
		<g id="dp_group080">
			<text id="dp_text029" transform="matrix(1,0,0,1,685.977,228.372)" xml:space="preserve" fill="#f60004" font-family="Arial" font-size="15" font-weight="400" font-style="italic" x="0" y="0">x </text>
			<text id="dp_text030" transform="matrix(1,0,0,1,693.727,232.505)" xml:space="preserve" fill="#f60004" font-family="Arial" font-size="10" font-weight="400" x="0" y="0">1 </text>
			<text id="dp_text031" transform="matrix(1,0,0,1,703.914,228.372)" xml:space="preserve" fill="#f60004" font-family="Arial" font-size="15" font-weight="400" font-style="italic" x="0" y="0">x </text>
			<text id="dp_text032" transform="matrix(1,0,0,1,711.662,232.505)" xml:space="preserve" fill="#f60004" font-family="Arial" font-size="10" font-weight="400" x="0" y="0">2 </text>
			<text id="dp_text033" transform="matrix(1,0,0,1,699.461,228.372)" xml:space="preserve" fill="#f60004" font-family="Arial" font-size="15" font-weight="400" x="0" y="0">, </text>
			<text id="dp_text034" transform="matrix(1,0,0,1,680.7,228.372)" xml:space="preserve" fill="#f60004" font-family="Arial" font-size="15" font-weight="400" x="0" y="0">( </text>
			<text id="dp_text035" transform="matrix(1,0,0,1,718.845,228.372)" xml:space="preserve" fill="#f60004" font-family="Arial" font-size="15" font-weight="400" x="0" y="0">) </text>
		</g>
		<g id="dp_group088">
			<path id="dp_path089" fill="#f60004" fill-rule="evenodd" d="M 586.163,247.011 L 635.515,247.009"/>
			<g id="dp_group090">
				<g id="dp_group091">
					<path id="dp_path092" fill="#f60004" fill-rule="evenodd" d="M 630.848,246.343 L 630.848,247.676 L 629.515,250.343 L 635.515,247.009 L 629.515,243.676 Z "/>
					<path id="dp_path093" fill="#f60004" d="M 586.163,247.677 L 630.848,247.676 L 630.848,246.343 L 586.163,246.344 Z "/>
				</g>
			</g>
		</g>
		<path id="dp_path094" fill="#841c97" fill-rule="evenodd" fill-opacity="0.25098" stroke="#8d00df" stroke-width="0.666667" d="M 746.097,120.195 C 691.073,95.1587 617.571,105.452 569.385,56.98 C 567.144,82.336 545.405,138.799 489.132,178.34 C 571.343,166.197 611.672,182.489 667.623,208.489 C 720.201,182.915 702.064,125.993 746.097,120.195 Z "/>
	</g>
</svg>