<?xml version="1.0" encoding="UTF-8" standalone="no"?>
<!-- Created with Serif DrawPlus 11, 0, 3, 23 (Feb 25, 14:12:55) (http://www.serif.com) -->
<svg version="1.1" xmlns="http://www.w3.org/2000/svg" xmlns:xlink="http://www.w3.org/1999/xlink" width="342.049" height="343.185">
	<g id="dp_group001" transform="matrix(1,0,0,1,-37.9107,35.3013)">
		<path id="dp_path002" fill="none" fill-rule="evenodd" stroke="#75008a" stroke-width="1.33333" d="M 83.9987,136.559 C 136.688,122.543 175.003,7.75067 201.365,13.1493 S 257.451,232.329 274.565,233.169 S 300.269,167.045 341.999,158.997"/>
		<path id="dp_path003" fill="black" fill-rule="evenodd" d="M 379.959,154.339 L 375.76,154.339 L 372.933,148.397 L 370.884,148.397 L 370.884,154.339 L 367.167,154.339 L 367.167,139.469 L 374.989,139.469 C 376.213,139.469 377.264,139.907 378.136,140.781 C 379.011,141.656 379.448,142.705 379.448,143.929 C 379.448,144.775 379.219,145.565 378.761,146.303 C 378.304,147.039 377.689,147.588 376.919,147.953 Z M 378.447,143.929 C 378.447,143.273 378.244,142.661 377.837,142.093 C 377.445,141.568 376.937,141.175 376.315,140.912 L 376.315,146.947 C 376.937,146.685 377.449,146.28 377.848,145.733 C 378.248,145.187 378.447,144.585 378.447,143.929 Z M 375.312,147.213 L 375.312,140.675 C 375.152,140.66 375.079,140.653 375.093,140.653 L 370.884,140.653 L 370.884,147.213 L 375.072,147.213 C 375.072,147.213 375.152,147.213 375.312,147.213 Z M 378.331,153.336 L 375.928,148.284 C 375.592,148.357 374.973,148.393 374.069,148.393 L 376.435,153.336 Z M 369.881,153.336 L 369.881,140.471 L 368.169,140.471 L 368.169,153.336 Z "/>
		<path id="dp_path004" fill="black" fill-rule="evenodd" d="M 206.612,-20.432 L 202.413,-20.432 L 199.588,-26.372 L 197.537,-26.372 L 197.537,-20.432 L 193.82,-20.432 L 193.82,-35.3013 L 201.643,-35.3013 C 202.868,-35.3013 203.917,-34.864 204.789,-33.9893 C 205.664,-33.1147 206.101,-32.064 206.101,-30.84 C 206.101,-29.9947 205.872,-29.204 205.415,-28.468 C 204.957,-27.7307 204.344,-27.1813 203.572,-26.816 Z M 205.1,-30.84 C 205.1,-31.496 204.897,-32.108 204.491,-32.6773 C 204.099,-33.2013 203.591,-33.5947 202.968,-33.8573 L 202.968,-27.8227 C 203.591,-28.0853 204.103,-28.4893 204.501,-29.036 C 204.901,-29.5827 205.1,-30.184 205.1,-30.84 Z M 201.965,-27.556 L 201.965,-34.0947 C 201.805,-34.1093 201.732,-34.116 201.747,-34.116 L 197.537,-34.116 L 197.537,-27.556 L 201.725,-27.556 C 201.725,-27.556 201.805,-27.556 201.965,-27.556 Z M 204.985,-21.4333 L 202.581,-26.4853 C 202.245,-26.412 201.627,-26.376 200.723,-26.376 L 203.088,-21.4333 Z M 196.535,-21.4333 L 196.535,-34.2987 L 194.823,-34.2987 L 194.823,-21.4333 Z "/>
		<g id="dp_group005">
			<g id="dp_group006">
				<path id="dp_path007" fill="black" fill-rule="evenodd" d="M 355.244,146.015 L 355.244,147.081 L 355.244,149.215 L 360.577,146.548 L 355.244,143.881 Z "/>
				<path id="dp_path008" fill="black" d="M 37.9107,147.081 L 355.244,147.081 L 355.244,146.015 L 37.9107,146.015 Z "/>
			</g>
		</g>
		<g id="dp_group009">
			<g id="dp_group010">
				<path id="dp_path011" fill="black" fill-rule="evenodd" d="M 198.711,-9.45067 L 199.777,-9.45067 L 201.911,-9.45067 L 199.244,-14.784 L 196.577,-9.45067 Z "/>
				<path id="dp_path012" fill="black" d="M 199.777,307.883 L 199.777,-9.45067 L 198.711,-9.45067 L 198.711,307.883 Z "/>
			</g>
		</g>
		<g id="dp_group013">
			<g id="dp_group014">
				<path id="dp_path015" fill="#8d00df" fill-rule="evenodd" d="M 226.513,94.696 L 228.845,95.9907 L 232.213,100.911 L 232.209,87.184 L 220.556,94.4387 Z "/>
				<path id="dp_path016" fill="#8d00df" d="M 200.409,147.196 L 228.845,95.9907 L 226.515,94.6973 L 198.079,145.903 Z "/>
			</g>
		</g>
		<g id="dp_group017">
			<text id="dp_text001" transform="matrix(1,0,0,1,237.285,80.1165)" xml:space="preserve" fill="#8d00df" font-family="Arial" font-size="18" font-weight="400" font-style="italic" x="0" y="0">x </text>
			<text id="dp_text002" transform="matrix(1,0,0,1,246.581,85.1291)" xml:space="preserve" fill="#8d00df" font-family="Arial" font-size="12" font-weight="400" x="0" y="0">1 </text>
			<text id="dp_text003" transform="matrix(1,0,0,1,253.435,80.1165)" xml:space="preserve" fill="#8d00df" font-family="Arial" font-size="18" font-weight="400" x="0" y="0">, </text>
			<text id="dp_text004" transform="matrix(1,0,0,1,230.986,80.1165)" xml:space="preserve" fill="#8d00df" font-family="Arial" font-size="18" font-weight="400" x="0" y="0">( </text>
			<text id="dp_text005" transform="matrix(1,0,0,1,285.886,80.1165)" xml:space="preserve" fill="#8d00df" font-family="Arial" font-size="18" font-weight="400" x="0" y="0">) </text>
			<g id="dp_group023">
				<text id="dp_text006" transform="matrix(1,0,0,1,259.174,80.8769)" xml:space="preserve" fill="#8d00df" font-family="Arial" font-size="15" font-weight="400" font-style="italic" x="0" y="0">f </text>
				<text id="dp_text007" transform="matrix(1,0,0,1,270.565,79.8773)" xml:space="preserve" fill="#8d00df" font-family="Arial" font-size="15" font-weight="400" font-style="italic" x="0" y="0">x </text>
				<text id="dp_text008" transform="matrix(1,0,0,1,278.315,84.0103)" xml:space="preserve" fill="#8d00df" font-family="Arial" font-size="10" font-weight="400" x="0" y="0">1 </text>
				<text id="dp_text009" transform="matrix(1,0,0,1,265.288,79.8773)" xml:space="preserve" fill="#8d00df" font-family="Arial" font-size="15" font-weight="400" x="0" y="0">( </text>
				<text id="dp_text010" transform="matrix(1,0,0,1,283.433,79.8773)" xml:space="preserve" fill="#8d00df" font-family="Arial" font-size="15" font-weight="400" x="0" y="0">) </text>
			</g>
		</g>
		<path id="dp_path029" fill="none" fill-rule="evenodd" stroke="#2d04e4" stroke-width="0.666667" d="M 199.243,87.1867 L 199.243,146.551"/>
		<path id="dp_path030" fill="none" fill-rule="evenodd" stroke="#f60004" stroke-width="0.666667" d="M 199.245,87.1853 L 232.211,87.1853"/>
		<g id="dp_group031">
			<g id="dp_group032">
				<path id="dp_path033" fill="#2d04e4" fill-rule="evenodd" d="M 231.211,94.188 L 233.211,94.188 L 237.211,96.188 L 232.211,87.188 L 227.211,96.188 Z "/>
				<path id="dp_path034" fill="#2d04e4" d="M 233.211,146.552 L 233.211,94.188 L 231.211,94.188 L 231.211,146.552 Z "/>
			</g>
		</g>
		<text id="dp_text011" transform="matrix(1,0,0,1,223.262,164.403)" xml:space="preserve" fill="#f60004" font-family="Arial" font-size="18" font-weight="400" font-style="italic" x="0" y="0">x </text>
		<text id="dp_text012" transform="matrix(1,0,0,1,232.559,169.416)" xml:space="preserve" fill="#f60004" font-family="Arial" font-size="12" font-weight="400" x="0" y="0">1 </text>
		<path id="dp_path037" fill="none" fill-rule="evenodd" stroke="#f60004" stroke-width="1.39467" d="M 80.9987,146.548 L 344.999,146.548"/>
		<g id="dp_group038">
			<g id="dp_group039">
				<path id="dp_path040" fill="#f60004" fill-rule="evenodd" d="M 225.211,145.549 L 225.211,147.549 L 223.211,151.549 L 232.211,146.549 L 223.211,141.549 Z "/>
				<path id="dp_path041" fill="#f60004" d="M 199.245,147.549 L 225.211,147.549 L 225.211,145.549 L 199.245,145.549 Z "/>
			</g>
		</g>
		<g id="dp_group042">
			<text id="dp_text013" transform="matrix(1,0,0,1,237.951,106.25)" xml:space="preserve" fill="#2d04e4" font-family="Arial" font-size="15" font-weight="400" font-style="italic" x="0" y="0">f </text>
			<text id="dp_text014" transform="matrix(1,0,0,1,249.342,105.251)" xml:space="preserve" fill="#2d04e4" font-family="Arial" font-size="15" font-weight="400" font-style="italic" x="0" y="0">x </text>
			<text id="dp_text015" transform="matrix(1,0,0,1,257.092,109.384)" xml:space="preserve" fill="#2d04e4" font-family="Arial" font-size="10" font-weight="400" x="0" y="0">1 </text>
			<text id="dp_text016" transform="matrix(1,0,0,1,244.066,105.251)" xml:space="preserve" fill="#2d04e4" font-family="Arial" font-size="15" font-weight="400" x="0" y="0">( </text>
			<text id="dp_text017" transform="matrix(1,0,0,1,262.21,105.251)" xml:space="preserve" fill="#2d04e4" font-family="Arial" font-size="15" font-weight="400" x="0" y="0">) </text>
		</g>
	</g>
</svg>