<?xml version="1.0" encoding="UTF-8" standalone="no"?>
<!-- Created with Serif DrawPlus 11, 0, 3, 23 (Feb 25, 14:12:55) (http://www.serif.com) -->
<svg version="1.1" xmlns="http://www.w3.org/2000/svg" xmlns:xlink="http://www.w3.org/1999/xlink" width="352.231" height="332.167">
	<g id="dp_group001" transform="matrix(1,0,0,1,-835.693,-25.7173)">
		<g id="dp_group002">
			<g id="dp_group003">
				<path id="dp_path004" fill="black" fill-rule="evenodd" d="M 1139.42,145.016 L 1139.95,145.94 L 1141.02,147.788 L 1144.3,142.812 L 1138.35,143.169 Z "/>
				<path id="dp_path005" fill="black" d="M 865.133,304.607 L 1139.95,145.94 L 1139.42,145.017 L 864.6,303.684 Z "/>
			</g>
		</g>
		<g id="dp_group006">
			<text id="dp_text001" transform="matrix(1,6.05072e-015,-5.27356e-015,1,1067.16,145.12)" xml:space="preserve" fill="#2d04e4" font-family="Arial" font-size="15" font-weight="400" font-style="italic" x="0" y="0">f </text>
			<text id="dp_text002" transform="matrix(1,6.82787e-015,-5.16254e-015,1,1078.55,144.12)" xml:space="preserve" fill="#2d04e4" font-family="Arial" font-size="15" font-weight="400" font-style="italic" x="0" y="0">x </text>
			<text id="dp_text003" transform="matrix(1,6.71685e-015,-4.94049e-015,1,1086.3,148.253)" xml:space="preserve" fill="#2d04e4" font-family="Arial" font-size="10" font-weight="400" x="0" y="0">1 </text>
			<text id="dp_text004" transform="matrix(1,6.55032e-015,-5.32907e-015,1,1096.49,144.12)" xml:space="preserve" fill="#2d04e4" font-family="Arial" font-size="15" font-weight="400" font-style="italic" x="0" y="0">x </text>
			<text id="dp_text005" transform="matrix(1,6.43929e-015,-5.38458e-015,1,1104.24,148.253)" xml:space="preserve" fill="#2d04e4" font-family="Arial" font-size="10" font-weight="400" x="0" y="0">2 </text>
			<text id="dp_text006" transform="matrix(1,6.66134e-015,-5.27356e-015,1,1092.04,144.12)" xml:space="preserve" fill="#2d04e4" font-family="Arial" font-size="15" font-weight="400" x="0" y="0">, </text>
			<text id="dp_text007" transform="matrix(1,5.93969e-015,-5.16254e-015,1,1073.28,144.12)" xml:space="preserve" fill="#2d04e4" font-family="Arial" font-size="15" font-weight="400" x="0" y="0">( </text>
			<text id="dp_text008" transform="matrix(1,6.43929e-015,-5.44009e-015,1,1114.49,144.12)" xml:space="preserve" fill="#2d04e4" font-family="Arial" font-size="15" font-weight="400" font-style="italic" x="0" y="0">x </text>
			<text id="dp_text009" transform="matrix(1,5.77316e-015,-5.60663e-015,1,1122.24,148.253)" xml:space="preserve" fill="#2d04e4" font-family="Arial" font-size="10" font-weight="400" x="0" y="0">3 </text>
			<text id="dp_text010" transform="matrix(1,6.21725e-015,-5.44009e-015,1,1110.04,144.12)" xml:space="preserve" fill="#2d04e4" font-family="Arial" font-size="15" font-weight="400" x="0" y="0">, </text>
			<text id="dp_text011" transform="matrix(1,6.43929e-015,-5.44009e-015,1,1128.42,144.12)" xml:space="preserve" fill="#2d04e4" font-family="Arial" font-size="15" font-weight="400" x="0" y="0">) </text>
		</g>
		<g id="dp_group018">
			<g id="dp_group019">
				<path id="dp_path020" fill="black" fill-rule="evenodd" d="M 1163.22,246.704 L 1163.22,247.771 L 1163.22,249.904 L 1168.55,247.237 L 1163.22,244.571 Z "/>
				<path id="dp_path021" fill="black" d="M 845.884,247.771 L 1163.22,247.771 L 1163.22,246.704 L 845.884,246.704 Z "/>
			</g>
		</g>
		<g id="dp_group022">
			<g id="dp_group023">
				<path id="dp_path024" fill="black" fill-rule="evenodd" d="M 1015.12,51.0853 L 1016.15,51.3613 L 1018.22,51.9147 L 1017.02,46.072 L 1013.06,50.5333 Z "/>
				<path id="dp_path025" fill="black" d="M 934.023,357.883 L 1016.15,51.3627 L 1015.13,51.0853 L 932.993,357.605 Z "/>
			</g>
		</g>
		<g id="dp_group026">
			<g id="dp_group027">
				<path id="dp_path028" fill="black" fill-rule="evenodd" d="M 851.485,76.6653 L 852.379,76.084 L 854.167,74.92 L 849.021,71.9053 L 849.697,77.8293 Z "/>
				<path id="dp_path029" fill="black" d="M 1025.54,342.012 L 852.379,76.084 L 851.485,76.6653 L 1024.64,342.593 Z "/>
			</g>
		</g>
		<g id="dp_group030">
			<path id="dp_path031" fill="#f60004" fill-rule="evenodd" fill-opacity="0.223529" stroke="#f60004" stroke-width="0.266667" d="M 1107.14,224.229 L 989.507,224.229 L 902.624,275.296 L 1019.64,275.296 Z "/>
			<path id="dp_path032" fill="#f60004" fill-rule="evenodd" fill-opacity="0.223529" stroke="#f60004" stroke-width="0.266667" d="M 1005.86,159.985 L 1122.88,159.987 L 1107.14,224.229 L 989.509,224.229 Z "/>
			<path id="dp_path033" fill="#f60004" fill-rule="evenodd" fill-opacity="0.223529" stroke="#f60004" stroke-width="0.266667" d="M 918.977,211.055 L 1005.86,159.988 L 989.509,224.229 L 902.624,275.297 Z "/>
		</g>
		<path id="dp_path034" fill="none" fill-rule="evenodd" stroke="#f60004" stroke-width="0.666667" d="M 1038.95,198.589 L 1056.77,132.407"/>
		<path id="dp_path035" fill="none" fill-rule="evenodd" stroke="#f60004" stroke-width="0.666667" d="M 971.025,198.589 L 988.847,132.407"/>
		<path id="dp_path036" fill="none" fill-rule="evenodd" stroke="#2d04e4" stroke-width="0.666667" d="M 991.152,231.304 L 970.896,198.657"/>
		<path id="dp_path037" fill="none" fill-rule="evenodd" stroke="#2d04e4" stroke-width="0.666667" d="M 1008.92,164.92 L 988.66,132.273"/>
		<path id="dp_path038" fill="none" fill-rule="evenodd" stroke="#2d04e4" stroke-width="0.666667" d="M 981.479,181.764 L 961.223,149.117"/>
		<g id="dp_group039">
			<g id="dp_group040">
				<path id="dp_path041" fill="#f60004" fill-rule="evenodd" d="M 1025.39,246.571 L 1025.39,247.904 L 1024.05,250.571 L 1030.05,247.237 L 1024.05,243.904 Z "/>
				<path id="dp_path042" fill="#f60004" d="M 962.127,247.904 L 1025.39,247.904 L 1025.39,246.571 L 962.127,246.571 Z "/>
			</g>
		</g>
		<path id="dp_path043" fill="none" fill-rule="evenodd" stroke="#f60004" stroke-width="0.666667" d="M 961.985,247.403 L 990.952,230.973"/>
		<path id="dp_path044" fill="none" fill-rule="evenodd" stroke="#f60004" stroke-width="0.666667" d="M 962.127,247.399 L 979.948,181.216"/>
		<g id="dp_group045">
			<g id="dp_group046">
				<path id="dp_path047" fill="#f60004" fill-rule="evenodd" d="M 1054.7,232.689 L 1055.36,233.849 L 1055.51,236.827 L 1059.09,230.967 L 1052.22,231.028 Z "/>
				<path id="dp_path048" fill="#f60004" d="M 1030.45,247.976 L 1055.36,233.849 L 1054.7,232.689 L 1029.79,246.816 Z "/>
			</g>
		</g>
		<path id="dp_path049" fill="none" fill-rule="evenodd" stroke="#f60004" stroke-width="0.666667" d="M 991.095,230.971 L 1008.92,164.788"/>
		<path id="dp_path050" fill="none" fill-rule="evenodd" stroke="#f60004" stroke-width="0.666667" d="M 981.085,181.052 L 1010.05,164.623"/>
		<g id="dp_group051">
			<g id="dp_group052">
				<path id="dp_path053" fill="#f60004" fill-rule="evenodd" d="M 1074.27,168.899 L 1075.55,169.245 L 1077.78,171.227 L 1076.12,164.565 L 1071.35,169.493 Z "/>
				<path id="dp_path054" fill="#f60004" d="M 1058.95,230.921 L 1075.55,169.245 L 1074.27,168.899 L 1057.66,230.575 Z "/>
			</g>
		</g>
		<path id="dp_path055" fill="none" fill-rule="evenodd" stroke="#f60004" stroke-width="0.666667" d="M 979.948,181.216 L 1047.87,181.216"/>
		<path id="dp_path056" fill="none" fill-rule="evenodd" stroke="#f60004" stroke-width="0.666667" d="M 990.953,230.972 L 1058.88,230.972"/>
		<path id="dp_path057" fill="none" fill-rule="evenodd" stroke="#f60004" stroke-width="0.666667" d="M 1008.92,164.788 L 1076.84,164.788"/>
		<path id="dp_path058" fill="none" fill-rule="evenodd" stroke="#f60004" stroke-width="0.666667" d="M 1009.98,214.855 L 1038.95,198.425"/>
		<path id="dp_path059" fill="none" fill-rule="evenodd" stroke="#f60004" stroke-width="0.666667" d="M 1027.81,148.836 L 1056.77,132.407"/>
		<path id="dp_path060" fill="none" fill-rule="evenodd" stroke="#f60004" stroke-width="0.666667" d="M 942.383,214.98 L 971.349,198.551"/>
		<path id="dp_path061" fill="none" fill-rule="evenodd" stroke="#f60004" stroke-width="0.666667" d="M 961.016,148.671 L 989.983,132.241"/>
		<path id="dp_path062" fill="none" fill-rule="evenodd" stroke="#f60004" stroke-width="0.666667" d="M 959.879,148.835 L 1027.81,148.835"/>
		<path id="dp_path063" fill="none" fill-rule="evenodd" stroke="#f60004" stroke-width="0.666667" d="M 970.884,198.591 L 1038.81,198.591"/>
		<path id="dp_path064" fill="none" fill-rule="evenodd" stroke="#f60004" stroke-width="0.666667" d="M 988.828,132.965 L 1056.75,132.965"/>
		<path id="dp_path065" fill="none" fill-rule="evenodd" stroke="#2d04e4" stroke-width="0.666667" d="M 1059.02,230.807 L 1038.77,198.16"/>
		<g id="dp_group066">
			<g id="dp_group067">
				<path id="dp_path068" fill="#8d00df" fill-rule="evenodd" d="M 1049.84,138.8 L 1051.91,140.484 L 1054.36,145.92 L 1056.77,132.407 L 1044.02,137.499 Z "/>
				<path id="dp_path069" fill="#8d00df" d="M 964.251,248.081 L 1051.91,140.485 L 1049.84,138.8 L 962.184,246.396 Z "/>
			</g>
		</g>
		<path id="dp_path070" fill="black" fill-rule="evenodd" d="M 1187.92,255.431 L 1183.72,255.431 L 1180.9,249.489 L 1178.85,249.489 L 1178.85,255.431 L 1175.13,255.431 L 1175.13,240.561 L 1182.95,240.561 C 1184.18,240.561 1185.23,240.999 1186.1,241.873 C 1186.97,242.748 1187.41,243.797 1187.41,245.021 C 1187.41,245.867 1187.18,246.657 1186.73,247.395 C 1186.27,248.131 1185.65,248.68 1184.88,249.045 Z M 1186.41,245.021 C 1186.41,244.365 1186.21,243.753 1185.8,243.185 C 1185.41,242.66 1184.9,242.267 1184.28,242.004 L 1184.28,248.039 C 1184.9,247.777 1185.41,247.372 1185.81,246.825 C 1186.21,246.279 1186.41,245.677 1186.41,245.021 Z M 1183.28,248.305 L 1183.28,241.767 C 1183.12,241.752 1183.04,241.745 1183.06,241.745 L 1178.85,241.745 L 1178.85,248.305 L 1183.04,248.305 C 1183.04,248.305 1183.12,248.305 1183.28,248.305 Z M 1186.29,254.428 L 1183.89,249.376 C 1183.56,249.449 1182.94,249.485 1182.03,249.485 L 1184.4,254.428 Z M 1177.85,254.428 L 1177.85,241.563 L 1176.13,241.563 L 1176.13,254.428 Z "/>
		<path id="dp_path071" fill="black" fill-rule="evenodd" d="M 1026.43,40.5867 L 1022.23,40.5867 L 1019.4,34.6467 L 1017.35,34.6467 L 1017.35,40.5867 L 1013.63,40.5867 L 1013.63,25.7173 L 1021.46,25.7173 C 1022.68,25.7173 1023.73,26.1547 1024.6,27.0293 C 1025.48,27.904 1025.92,28.9547 1025.92,30.1787 C 1025.92,31.024 1025.69,31.8147 1025.23,32.5507 C 1024.77,33.288 1024.16,33.8373 1023.39,34.2027 Z M 1024.91,30.1787 C 1024.91,29.5227 1024.71,28.9107 1024.31,28.3413 C 1023.91,27.8173 1023.41,27.424 1022.78,27.1613 L 1022.78,33.196 C 1023.41,32.9333 1023.92,32.5293 1024.32,31.9827 C 1024.72,31.436 1024.91,30.8347 1024.91,30.1787 Z M 1021.78,33.4627 L 1021.78,26.924 C 1021.62,26.9093 1021.55,26.9027 1021.56,26.9027 L 1017.35,26.9027 L 1017.35,33.4627 L 1021.54,33.4627 C 1021.54,33.4627 1021.62,33.4627 1021.78,33.4627 Z M 1024.8,39.5853 L 1022.4,34.5333 C 1022.06,34.6067 1021.44,34.6427 1020.54,34.6427 L 1022.9,39.5853 Z M 1016.35,39.5853 L 1016.35,26.72 L 1014.64,26.72 L 1014.64,39.5853 Z "/>
		<path id="dp_path072" fill="black" fill-rule="evenodd" d="M 1164.71,149.348 L 1160.51,149.348 L 1157.68,143.407 L 1155.63,143.407 L 1155.63,149.348 L 1151.92,149.348 L 1151.92,134.479 L 1159.74,134.479 C 1160.96,134.479 1162.01,134.916 1162.89,135.791 C 1163.76,136.665 1164.2,137.715 1164.2,138.939 C 1164.2,139.784 1163.97,140.575 1163.51,141.312 C 1163.05,142.048 1162.44,142.597 1161.67,142.963 Z M 1163.2,138.939 C 1163.2,138.283 1162.99,137.671 1162.59,137.103 C 1162.19,136.577 1161.69,136.184 1161.06,135.921 L 1161.06,141.956 C 1161.69,141.695 1162.2,141.289 1162.6,140.743 C 1163,140.196 1163.2,139.595 1163.2,138.939 Z M 1160.06,142.223 L 1160.06,135.684 C 1159.9,135.669 1159.83,135.663 1159.84,135.663 L 1155.63,135.663 L 1155.63,142.223 L 1159.82,142.223 C 1159.82,142.223 1159.9,142.223 1160.06,142.223 Z M 1163.08,148.345 L 1160.68,143.293 C 1160.34,143.367 1159.72,143.403 1158.82,143.403 L 1161.18,148.345 Z M 1154.63,148.345 L 1154.63,135.48 L 1152.92,135.48 L 1152.92,148.345 Z "/>
		<path id="dp_path073" fill="black" fill-rule="evenodd" d="M 848.485,61.5987 L 844.287,61.5987 L 841.461,55.6587 L 839.411,55.6587 L 839.411,61.5987 L 835.693,61.5987 L 835.693,46.7293 L 843.516,46.7293 C 844.741,46.7293 845.791,47.1667 846.663,48.0413 C 847.537,48.916 847.975,49.9667 847.975,51.1907 C 847.975,52.036 847.745,52.8267 847.288,53.5627 C 846.831,54.3 846.217,54.8493 845.445,55.2147 Z M 846.973,51.1907 C 846.973,50.5347 846.771,49.9227 846.364,49.3533 C 845.972,48.8293 845.464,48.436 844.841,48.1733 L 844.841,54.208 C 845.464,53.9453 845.976,53.5413 846.375,52.9947 C 846.775,52.448 846.973,51.8467 846.973,51.1907 Z M 843.839,54.4747 L 843.839,47.936 C 843.679,47.9213 843.605,47.9147 843.62,47.9147 L 839.411,47.9147 L 839.411,54.4747 L 843.599,54.4747 C 843.599,54.4747 843.679,54.4747 843.839,54.4747 Z M 846.859,60.5973 L 844.455,55.5453 C 844.119,55.6187 843.5,55.6547 842.596,55.6547 L 844.961,60.5973 Z M 838.408,60.5973 L 838.408,47.732 L 836.696,47.732 L 836.696,60.5973 Z "/>
		<g id="dp_group074">
			<text id="dp_text012" transform="matrix(1,1.38778e-015,-1.33227e-015,1,938.919,124.328)" xml:space="preserve" fill="#6607bb" font-family="Arial" font-size="15" font-weight="400" font-style="italic" x="0" y="0">x </text>
			<text id="dp_text013" transform="matrix(1,1.38778e-015,-1.33227e-015,1,946.549,128.461)" xml:space="preserve" fill="#6607bb" font-family="Arial" font-size="10" font-weight="400" x="0" y="0">1 </text>
			<text id="dp_text014" transform="matrix(1,1.27676e-015,-1.33227e-015,1,956.495,124.328)" xml:space="preserve" fill="#6607bb" font-family="Arial" font-size="15" font-weight="400" font-style="italic" x="0" y="0">x </text>
			<text id="dp_text015" transform="matrix(1,1.33227e-015,-1.38778e-015,1,964.123,128.461)" xml:space="preserve" fill="#6607bb" font-family="Arial" font-size="10" font-weight="400" x="0" y="0">2 </text>
			<text id="dp_text016" transform="matrix(1,1.38778e-015,-1.33227e-015,1,952.163,124.328)" xml:space="preserve" fill="#6607bb" font-family="Arial" font-size="15" font-weight="400" x="0" y="0">, </text>
			<text id="dp_text017" transform="matrix(1,1.38778e-015,-1.33227e-015,1,933.763,124.328)" xml:space="preserve" fill="#6607bb" font-family="Arial" font-size="15" font-weight="400" x="0" y="0">( </text>
			<text id="dp_text018" transform="matrix(1,1.27676e-015,-1.33227e-015,1,974.07,124.328)" xml:space="preserve" fill="#6607bb" font-family="Arial" font-size="15" font-weight="400" font-style="italic" x="0" y="0">x </text>
			<text id="dp_text019" transform="matrix(1,1.33227e-015,-1.38778e-015,1,981.7,128.461)" xml:space="preserve" fill="#6607bb" font-family="Arial" font-size="10" font-weight="400" x="0" y="0">3 </text>
			<text id="dp_text020" transform="matrix(1,1.27676e-015,-1.33227e-015,1,969.739,124.328)" xml:space="preserve" fill="#6607bb" font-family="Arial" font-size="15" font-weight="400" x="0" y="0">, </text>
			<text id="dp_text021" transform="matrix(1,1.27676e-015,-1.33227e-015,1,987.315,124.328)" xml:space="preserve" fill="#6607bb" font-family="Arial" font-size="15" font-weight="400" x="0" y="0">, </text>
			<text id="dp_text022" transform="matrix(1,1.33227e-015,-1.38778e-015,1,1056.89,124.328)" xml:space="preserve" fill="#6607bb" font-family="Arial" font-size="15" font-weight="400" x="0" y="0">) </text>
			<g id="dp_group086">
				<text id="dp_text023" transform="matrix(1,1.16573e-015,-1.38778e-015,1,991.367,125.289)" xml:space="preserve" fill="#6607bb" font-family="Arial" font-size="15" font-weight="400" font-style="italic" x="0" y="0">f </text>
				<text id="dp_text024" transform="matrix(1,1.33227e-015,-1.38778e-015,1,1002.76,124.289)" xml:space="preserve" fill="#6607bb" font-family="Arial" font-size="15" font-weight="400" font-style="italic" x="0" y="0">x </text>
				<text id="dp_text025" transform="matrix(1,1.27676e-015,-1.38778e-015,1,1010.51,128.422)" xml:space="preserve" fill="#6607bb" font-family="Arial" font-size="10" font-weight="400" x="0" y="0">1 </text>
				<text id="dp_text026" transform="matrix(1,1.22125e-015,-1.38778e-015,1,1020.69,124.289)" xml:space="preserve" fill="#6607bb" font-family="Arial" font-size="15" font-weight="400" font-style="italic" x="0" y="0">x </text>
				<text id="dp_text027" transform="matrix(1,1.22125e-015,-1.38778e-015,1,1028.44,128.422)" xml:space="preserve" fill="#6607bb" font-family="Arial" font-size="10" font-weight="400" x="0" y="0">2 </text>
				<text id="dp_text028" transform="matrix(1,1.33227e-015,-1.38778e-015,1,1016.24,124.289)" xml:space="preserve" fill="#6607bb" font-family="Arial" font-size="15" font-weight="400" x="0" y="0">, </text>
				<text id="dp_text029" transform="matrix(1,1.22125e-015,-1.38778e-015,1,997.482,124.289)" xml:space="preserve" fill="#6607bb" font-family="Arial" font-size="15" font-weight="400" x="0" y="0">( </text>
				<text id="dp_text030" transform="matrix(1,1.22125e-015,-1.38778e-015,1,1038.69,124.289)" xml:space="preserve" fill="#6607bb" font-family="Arial" font-size="15" font-weight="400" font-style="italic" x="0" y="0">x </text>
				<text id="dp_text031" transform="matrix(1,1.22125e-015,-1.38778e-015,1,1046.44,128.422)" xml:space="preserve" fill="#6607bb" font-family="Arial" font-size="10" font-weight="400" x="0" y="0">3 </text>
				<text id="dp_text032" transform="matrix(1,1.33227e-015,-1.38778e-015,1,1034.24,124.289)" xml:space="preserve" fill="#6607bb" font-family="Arial" font-size="15" font-weight="400" x="0" y="0">, </text>
				<text id="dp_text033" transform="matrix(1,1.4988e-015,-1.38778e-015,1,1052.63,124.289)" xml:space="preserve" fill="#6607bb" font-family="Arial" font-size="15" font-weight="400" x="0" y="0">) </text>
			</g>
		</g>
		<g id="dp_group098">
			<text id="dp_text034" transform="matrix(1,0,0,1,1069.32,201.867)" xml:space="preserve" fill="#f60004" font-family="Arial" font-size="15" font-weight="400" font-style="italic" x="0" y="0">x </text>
			<text id="dp_text035" transform="matrix(1,0,0,1,1077.07,206)" xml:space="preserve" fill="#f60004" font-family="Arial" font-size="10" font-weight="400" x="0" y="0">3 </text>
		</g>
		<g id="dp_group101">
			<text id="dp_text036" transform="matrix(1,0,0,1,994.491,258.071)" xml:space="preserve" fill="#f60004" font-family="Arial" font-size="15" font-weight="400" font-style="italic" x="0" y="0">x </text>
			<text id="dp_text037" transform="matrix(1,0,0,1,1002.24,262.205)" xml:space="preserve" fill="#f60004" font-family="Arial" font-size="10" font-weight="400" x="0" y="0">1 </text>
		</g>
		<g id="dp_group104">
			<text id="dp_text038" transform="matrix(1,0,0,1,1056.13,241.426)" xml:space="preserve" fill="#f60004" font-family="Arial" font-size="15" font-weight="400" font-style="italic" x="0" y="0">x </text>
			<text id="dp_text039" transform="matrix(1,0,0,1,1063.88,245.559)" xml:space="preserve" fill="#f60004" font-family="Arial" font-size="10" font-weight="400" x="0" y="0">2 </text>
		</g>
		<g id="dp_group107">
			<g id="dp_group108">
				<path id="dp_path109" fill="#f60004" fill-rule="evenodd" d="M 1070.58,168.077 L 1071.75,169.699 L 1072.47,174.112 L 1076.84,164.789 L 1066.62,166.005 Z "/>
				<path id="dp_path110" fill="#f60004" d="M 963.031,248.208 L 1071.75,169.699 L 1070.58,168.077 L 961.86,246.587 Z "/>
			</g>
		</g>
		<path id="dp_path111" fill="none" fill-rule="evenodd" stroke="#2d04e4" stroke-width="0.666667" d="M 1030.05,247.101 L 1009.8,214.455"/>
		<path id="dp_path112" fill="none" fill-rule="evenodd" stroke="#2d04e4" stroke-width="0.666667" d="M 962.313,247.503 L 942.057,214.856"/>
		<path id="dp_path113" fill="none" fill-rule="evenodd" stroke="#2d04e4" stroke-width="0.666667" d="M 1047.87,181.217 L 1027.62,148.571"/>
		<path id="dp_path114" fill="none" fill-rule="evenodd" stroke="#f60004" stroke-width="0.666667" d="M 942.057,214.856 L 1009.98,214.856"/>
		<path id="dp_path115" fill="none" fill-rule="evenodd" stroke="#f60004" stroke-width="0.666667" d="M 1009.99,215.019 L 1027.81,148.836"/>
		<path id="dp_path116" fill="none" fill-rule="evenodd" stroke="#f60004" stroke-width="0.666667" d="M 942.057,214.981 L 959.879,148.799"/>
		<path id="dp_path117" fill="none" fill-rule="evenodd" stroke="#f60004" stroke-width="0.666667" d="M 1030.05,247.4 L 1047.88,181.217"/>
		<g id="dp_group118">
			<path id="dp_path119" fill="#2d04e4" fill-rule="evenodd" d="M 1076.47,164.629 L 1056.77,132.407"/>
			<g id="dp_group120">
				<g id="dp_group121">
					<path id="dp_path122" fill="#2d04e4" fill-rule="evenodd" d="M 1059.57,138.901 L 1061.28,137.859 L 1065.73,137.48 L 1056.77,132.408 L 1057.2,142.695 Z "/>
					<path id="dp_path123" fill="#2d04e4" d="M 1077.32,164.108 L 1061.28,137.859 L 1059.57,138.901 L 1075.61,165.151 Z "/>
				</g>
			</g>
		</g>
		<path id="dp_path124" fill="none" fill-rule="evenodd" stroke="#f60004" stroke-width="0.666667" d="M 1047.88,181.217 L 1076.84,164.788"/>
		<g id="dp_group125">
			<text id="dp_text040" transform="matrix(1,1.55431e-015,-1.94289e-015,1,1080.84,176.216)" xml:space="preserve" fill="#f60004" font-family="Arial" font-size="15" font-weight="400" font-style="italic" x="0" y="0">x </text>
			<text id="dp_text041" transform="matrix(1,1.27676e-015,-1.60982e-015,1,1088.47,180.349)" xml:space="preserve" fill="#f60004" font-family="Arial" font-size="10" font-weight="400" x="0" y="0">1 </text>
			<text id="dp_text042" transform="matrix(1,1.55431e-015,-1.94289e-015,1,1098.41,176.216)" xml:space="preserve" fill="#f60004" font-family="Arial" font-size="15" font-weight="400" font-style="italic" x="0" y="0">x </text>
			<text id="dp_text043" transform="matrix(1,1.33227e-015,-1.77636e-015,1,1106.04,180.349)" xml:space="preserve" fill="#f60004" font-family="Arial" font-size="10" font-weight="400" x="0" y="0">2 </text>
			<text id="dp_text044" transform="matrix(1,1.4988e-015,-1.83187e-015,1,1094.08,176.216)" xml:space="preserve" fill="#f60004" font-family="Arial" font-size="15" font-weight="400" x="0" y="0">, </text>
			<text id="dp_text045" transform="matrix(1,1.44329e-015,-1.77636e-015,1,1075.68,176.216)" xml:space="preserve" fill="#f60004" font-family="Arial" font-size="15" font-weight="400" x="0" y="0">( </text>
			<text id="dp_text046" transform="matrix(1,1.60982e-015,-2.05391e-015,1,1115.99,176.216)" xml:space="preserve" fill="#f60004" font-family="Arial" font-size="15" font-weight="400" font-style="italic" x="0" y="0">x </text>
			<text id="dp_text047" transform="matrix(1,1.33227e-015,-1.77636e-015,1,1123.62,180.349)" xml:space="preserve" fill="#f60004" font-family="Arial" font-size="10" font-weight="400" x="0" y="0">3 </text>
			<text id="dp_text048" transform="matrix(1,1.55431e-015,-1.94289e-015,1,1111.66,176.216)" xml:space="preserve" fill="#f60004" font-family="Arial" font-size="15" font-weight="400" x="0" y="0">, </text>
			<text id="dp_text049" transform="matrix(1,1.11022e-016,-2.77556e-015,1,1129.49,176.216)" xml:space="preserve" fill="#f60004" font-family="Arial" font-size="15" font-weight="400" x="0" y="0">) </text>
		</g>
		<g id="dp_group136">
			<path id="dp_path137" fill="#f60004" fill-rule="evenodd" fill-opacity="0.223529" stroke="#f60004" stroke-width="0.266667" d="M 919.169,211.056 L 1036.02,211.057 L 1122.9,159.991 L 1005.88,159.991 Z "/>
			<path id="dp_path138" fill="#f60004" fill-rule="evenodd" fill-opacity="0.223529" stroke="#f60004" stroke-width="0.266667" d="M 1019.66,275.301 L 902.645,275.3 L 918.996,211.193 L 1036.01,211.057 Z "/>
			<path id="dp_path139" fill="#f60004" fill-rule="evenodd" fill-opacity="0.223529" stroke="#f60004" stroke-width="0.266667" d="M 1107.16,224.232 L 1019.66,275.299 L 1036.01,211.057 L 1122.9,159.989 Z "/>
		</g>
		<g id="dp_group140">
			<path id="dp_path141" fill="#841c97" fill-rule="evenodd" fill-opacity="0.270588" stroke="#8d00df" stroke-width="0.666667" d="M 1089.49,119.789 C 1049.02,102.367 991.671,108.817 952.433,81.6573 C 948.849,79.176 944.449,76.1933 941.212,73.1133 C 939.413,92.3707 926.779,135.252 881.603,165.283 C 947.6,156.061 973.553,161.096 1018.47,180.843 C 1064.28,165.792 1051.71,127.356 1089.49,119.789 Z "/>
			<path id="dp_path142" fill="#841c97" fill-rule="evenodd" fill-opacity="0.270588" stroke="#8d00df" stroke-width="0.666667" d="M 1012.77,174.392 C 994.009,158.177 972.409,141.859 949.357,138.24 C 923.239,134.14 902.292,141.379 879.117,148.16 C 882.896,152 885.153,159.177 881.603,165.283 C 947.6,156.061 973.553,161.003 1018.47,180.749 C 1017.4,179.04 1014.8,177.156 1012.77,174.392 Z "/>
			<path id="dp_path143" fill="#841c97" fill-rule="evenodd" fill-opacity="0.270588" stroke="#8d00df" stroke-width="0.666667" d="M 1012.77,174.392 C 1019.65,173.076 1025.03,171.336 1029.64,168.66 C 1042.4,161.264 1047.78,149.788 1051.31,143.916 C 1063.16,124.148 1067.69,109.1 1085.4,104 C 1084.17,110.627 1086.58,115.071 1089.5,119.789 C 1083.71,120.8 1078.7,122.379 1073.45,126.484 C 1067.15,131.415 1060.85,139.449 1057.13,147.273 C 1053.59,154.708 1047.92,162.456 1041.67,167.835 C 1033.26,175.073 1023.93,178.952 1018.47,180.843 C 1017.4,179.133 1014.8,177.156 1012.77,174.392 Z "/>
			<path id="dp_path144" fill="#841c97" fill-rule="evenodd" fill-opacity="0.270588" stroke="#8d00df" stroke-width="0.666667" d="M 1085.4,104 C 1066.19,102.159 1028.84,100.024 1010.88,97.02 C 999.949,95.1907 986.605,92.5227 975.5,88.368 C 960.189,82.64 948.368,75.996 937.923,65.996 C 939.455,67.968 941.785,71.488 940.964,73.0587 C 955.201,84.9213 969.705,92.3053 981.905,96.004 C 991.315,98.856 1010.4,103.181 1037.78,106.943 C 1056.91,109.572 1076.37,114.372 1089.5,119.789 C 1085.21,114.476 1083.74,107.431 1085.4,104 Z "/>
			<path id="dp_path145" fill="#841c97" fill-rule="evenodd" fill-opacity="0.270588" stroke="#8d00df" stroke-width="0.666667" d="M 1085.4,104 C 1042.19,98.86 976.605,102.809 937.923,65.996 C 934.404,95.324 921.723,133.172 879.117,148.16 C 945.459,126.897 968.368,136.761 1012.77,174.392 C 1057.33,167.909 1051.42,114.565 1085.4,104 Z "/>
		</g>
	</g>
</svg>