<?xml version="1.0" encoding="UTF-8" standalone="no"?>
<!-- Created with Inkscape (http://www.inkscape.org/) -->

<svg
   xmlns:dc="http://purl.org/dc/elements/1.1/"
   xmlns:cc="http://creativecommons.org/ns#"
   xmlns:rdf="http://www.w3.org/1999/02/22-rdf-syntax-ns#"
   xmlns:svg="http://www.w3.org/2000/svg"
   xmlns="http://www.w3.org/2000/svg"
   xmlns:sodipodi="http://sodipodi.sourceforge.net/DTD/sodipodi-0.dtd"
   xmlns:inkscape="http://www.inkscape.org/namespaces/inkscape"
   width="326.68307"
   height="121.00407"
   id="svg5175"
   version="1.1"
   inkscape:version="0.48.2 r9819"
   sodipodi:docname="New document 8">
  <defs
     id="defs5177">
    <clipPath
       id="ID000017">
      <rect
         x="68.25"
         y="147.511"
         width="406.875"
         height="84.945999"
         id="rect299" />
    </clipPath>
  </defs>
  <sodipodi:namedview
     id="base"
     pagecolor="#ffffff"
     bordercolor="#666666"
     borderopacity="1.0"
     inkscape:pageopacity="0.0"
     inkscape:pageshadow="2"
     inkscape:zoom="0.98994949"
     inkscape:cx="179.64058"
     inkscape:cy="37.600759"
     inkscape:document-units="px"
     inkscape:current-layer="layer1"
     showgrid="false"
     units="cm"
     fit-margin-top="0.5"
     fit-margin-right="0.5"
     fit-margin-bottom="0.5"
     fit-margin-left="0.5"
     inkscape:window-width="469"
     inkscape:window-height="485"
     inkscape:window-x="1648"
     inkscape:window-y="208"
     inkscape:window-maximized="0" />
  <metadata
     id="metadata5180">
    <rdf:RDF>
      <cc:Work
         rdf:about="">
        <dc:format>image/svg+xml</dc:format>
        <dc:type
           rdf:resource="http://purl.org/dc/dcmitype/StillImage" />
        <dc:title></dc:title>
      </cc:Work>
    </rdf:RDF>
  </metadata>
  <g
     inkscape:label="Layer 1"
     inkscape:groupmode="layer"
     id="layer1"
     transform="translate(-207.59646,-366.14586)">
    <polyline
       transform="translate(128.3125,236.6639)"
       points="97.313,232.457 97.313,147.511 "
       id="polyline307"
       style="fill:none;stroke:#000000;stroke-width:0.5pt;stroke-dasharray:2, 2" />
    <polyline
       transform="translate(128.3125,236.6639)"
       points="126.375,232.457 126.375,147.511 "
       id="polyline309"
       style="fill:none;stroke:#000000;stroke-width:0.5pt;stroke-dasharray:2, 2" />
    <polyline
       transform="translate(128.3125,236.6639)"
       points="155.438,232.457 155.438,147.511 "
       id="polyline311"
       style="fill:none;stroke:#000000;stroke-width:0.5pt;stroke-dasharray:2, 2" />
    <polyline
       transform="translate(128.3125,236.6639)"
       points="184.500,232.457 184.500,147.511 "
       id="polyline313"
       style="fill:none;stroke:#000000;stroke-width:0.5pt;stroke-dasharray:2, 2" />
    <polyline
       transform="translate(128.3125,236.6639)"
       points="213.563,232.457 213.563,147.511 "
       id="polyline315"
       style="fill:none;stroke:#000000;stroke-width:0.5pt;stroke-dasharray:2, 2" />
    <polyline
       transform="translate(128.3125,236.6639)"
       points="242.625,232.457 242.625,147.511 "
       id="polyline317"
       style="fill:none;stroke:#000000;stroke-width:0.5pt;stroke-dasharray:2, 2" />
    <polyline
       transform="translate(128.3125,236.6639)"
       points="271.688,232.457 271.688,147.511 "
       id="polyline319"
       style="fill:none;stroke:#000000;stroke-width:0.5pt;stroke-dasharray:2, 2" />
    <polyline
       transform="translate(128.3125,236.6639)"
       points="300.750,232.457 300.750,147.511 "
       id="polyline321"
       style="fill:none;stroke:#000000;stroke-width:0.5pt;stroke-dasharray:2, 2" />
    <polyline
       transform="translate(128.3125,236.6639)"
       points="329.813,232.457 329.813,147.511 "
       id="polyline323"
       style="fill:none;stroke:#000000;stroke-width:0.5pt;stroke-dasharray:2, 2" />
    <polyline
       transform="translate(128.3125,236.6639)"
       points="358.875,232.457 358.875,147.511 "
       id="polyline325"
       style="fill:none;stroke:#000000;stroke-width:0.5pt;stroke-dasharray:2, 2" />
    <polyline
       transform="translate(128.3125,236.6639)"
       points="387.938,232.457 387.938,147.511 "
       id="polyline327"
       style="fill:none;stroke:#000000;stroke-width:0.5pt;stroke-dasharray:2, 2" />
    <polyline
       transform="translate(128.3125,236.6639)"
       points="97.313,232.457 97.313,232.457 "
       id="polyline329"
       style="fill:none;stroke:#000000;stroke-width:0.5pt;stroke-dasharray:2, 2" />
    <polyline
       transform="translate(128.3125,236.6639)"
       points="126.375,232.457 126.375,232.457 "
       id="polyline331"
       style="fill:none;stroke:#000000;stroke-width:0.5pt;stroke-dasharray:2, 2" />
    <polyline
       transform="translate(128.3125,236.6639)"
       points="155.438,232.457 155.438,232.457 "
       id="polyline333"
       style="fill:none;stroke:#000000;stroke-width:0.5pt;stroke-dasharray:2, 2" />
    <polyline
       transform="translate(128.3125,236.6639)"
       points="184.500,232.457 184.500,232.457 "
       id="polyline335"
       style="fill:none;stroke:#000000;stroke-width:0.5pt;stroke-dasharray:2, 2" />
    <polyline
       transform="translate(128.3125,236.6639)"
       points="213.563,232.457 213.563,232.457 "
       id="polyline337"
       style="fill:none;stroke:#000000;stroke-width:0.5pt;stroke-dasharray:2, 2" />
    <polyline
       transform="translate(128.3125,236.6639)"
       points="242.625,232.457 242.625,232.457 "
       id="polyline339"
       style="fill:none;stroke:#000000;stroke-width:0.5pt;stroke-dasharray:2, 2" />
    <polyline
       transform="translate(128.3125,236.6639)"
       points="271.688,232.457 271.688,232.457 "
       id="polyline341"
       style="fill:none;stroke:#000000;stroke-width:0.5pt;stroke-dasharray:2, 2" />
    <polyline
       transform="translate(128.3125,236.6639)"
       points="300.750,232.457 300.750,232.457 "
       id="polyline343"
       style="fill:none;stroke:#000000;stroke-width:0.5pt;stroke-dasharray:2, 2" />
    <polyline
       transform="translate(128.3125,236.6639)"
       points="329.813,232.457 329.813,232.457 "
       id="polyline345"
       style="fill:none;stroke:#000000;stroke-width:0.5pt;stroke-dasharray:2, 2" />
    <polyline
       transform="translate(128.3125,236.6639)"
       points="358.875,232.457 358.875,232.457 "
       id="polyline347"
       style="fill:none;stroke:#000000;stroke-width:0.5pt;stroke-dasharray:2, 2" />
    <polyline
       transform="translate(128.3125,236.6639)"
       points="387.938,232.457 387.938,232.457 "
       id="polyline349"
       style="fill:none;stroke:#000000;stroke-width:0.5pt;stroke-dasharray:2, 2" />
    <g
       transform="translate(128.3125,236.6639)"
       id="g351">
      <g
         id="ID000018"
         clip-path="url(#ID000017)">
        <polyline
           points="97.603,202.379 97.894,201.844 98.184,209.218 98.475,197.056 98.766,199.630 99.056,200.046 99.347,195.684 99.638,203.550 99.928,212.723 100.219,204.694 100.509,202.757 100.800,194.603 101.091,204.472 101.381,210.937 101.672,199.926 101.963,193.854 102.253,199.821 102.544,213.613 102.834,198.740 103.125,199.121 103.416,214.248 103.706,203.429 103.997,198.681 104.287,207.385 104.578,199.184 104.869,198.376 105.159,198.165 105.450,193.498 105.741,218.128 106.031,218.225 106.322,205.528 106.613,207.749 106.903,203.771 107.194,213.631 107.484,189.052 107.775,204.065 108.066,210.317 108.356,201.393 108.647,213.024 108.938,200.356 109.228,206.292 109.519,210.780 109.809,205.513 110.100,205.817 110.391,199.782 110.681,205.594 110.972,204.032 111.262,196.012 111.553,205.740 111.844,207.023 112.134,204.120 112.425,193.688 112.716,191.887 113.006,205.525 113.297,200.852 113.587,195.659 113.878,207.865 114.169,200.875 114.459,208.777 114.750,205.785 115.041,213.374 115.331,206.088 115.622,207.641 115.912,205.782 116.203,200.770 116.494,208.477 116.784,213.700 117.075,217.833 117.366,210.614 117.656,194.556 117.947,193.656 118.238,207.794 118.528,206.429 118.819,204.439 119.109,198.292 119.400,203.112 119.691,204.193 119.981,197.423 120.272,204.267 120.563,216.542 120.853,203.076 121.144,204.217 121.434,191.152 121.725,214.188 122.016,193.537 122.306,198.549 122.597,196.361 122.887,202.404 123.178,211.791 123.469,207.857 123.759,188.383 124.050,207.061 124.341,196.242 124.631,204.269 124.922,213.791 125.212,203.082 125.503,202.403 125.794,200.988 126.084,199.596 126.375,195.623 126.666,190.019 126.956,197.100 127.247,176.206 127.537,185.790 127.828,186.042 128.119,189.775 128.409,181.943 128.700,195.294 128.991,199.234 129.281,186.267 129.572,196.933 129.863,187.719 130.153,190.449 130.444,190.219 130.734,191.250 131.025,188.660 131.316,185.903 131.606,202.265 131.897,190.312 132.188,200.516 132.478,199.281 132.769,192.947 133.059,192.519 133.350,173.303 133.641,187.074 133.931,188.318 134.222,194.436 134.513,187.814 134.803,187.937 135.094,193.653 135.384,201.445 135.675,189.294 135.966,196.919 136.256,195.347 136.547,200.436 136.837,198.020 137.128,190.302 137.419,189.457 137.709,182.178 138.000,194.635 138.291,202.563 138.581,188.658 138.872,186.516 139.162,192.343 139.453,190.536 139.744,178.331 140.034,193.434 140.325,201.954 140.616,179.604 140.906,196.462 141.197,197.145 141.487,192.141 141.778,201.799 142.069,192.412 142.359,183.735 142.650,181.627 142.941,193.144 143.231,184.215 143.522,190.256 143.813,192.973 144.103,181.175 144.394,194.086 144.684,203.287 144.975,192.493 145.266,191.159 145.556,190.222 145.847,196.927 146.137,190.314 146.428,191.112 146.719,176.644 147.009,188.186 147.300,190.084 147.591,195.306 147.881,183.064 148.172,194.020 148.463,187.255 148.753,180.504 149.044,194.680 149.334,193.180 149.625,199.934 149.916,197.283 150.206,187.266 150.497,191.795 150.788,196.750 151.078,188.287 151.369,183.634 151.659,175.932 151.950,187.314 152.241,182.516 152.531,190.704 152.822,197.087 153.112,188.913 153.403,172.874 153.694,192.549 153.984,189.174 154.275,193.128 154.566,206.589 154.856,192.325 155.147,193.763 155.437,188.256 155.728,205.507 156.019,197.471 156.309,205.378 156.600,205.250 156.891,218.248 157.181,204.159 157.472,204.490 157.762,194.477 158.053,211.623 158.344,203.324 158.634,197.835 158.925,207.465 159.216,208.154 159.506,193.071 159.797,208.079 160.087,215.782 160.378,192.959 160.669,200.859 160.959,206.234 161.250,205.267 161.541,204.271 161.831,207.072 162.122,200.330 162.413,197.059 162.703,204.100 162.994,206.228 163.284,201.778 163.575,207.551 163.866,203.521 164.156,213.550 164.447,201.380 164.737,198.787 165.028,195.234 165.319,193.597 165.609,199.430 165.900,193.502 166.191,198.615 166.481,200.051 166.772,205.035 167.062,203.518 167.353,208.993 167.644,213.223 167.934,202.778 168.225,196.135 168.516,206.701 168.806,193.102 169.097,204.870 169.387,205.493 169.678,195.103 169.969,202.672 170.259,199.352 170.550,206.624 170.841,203.287 171.131,199.299 171.422,196.231 171.713,206.102 172.003,210.902 172.294,191.585 172.584,195.480 172.875,199.480 173.166,195.416 173.456,206.321 173.747,211.601 174.038,201.625 174.328,199.689 174.619,213.516 174.909,203.180 175.200,204.699 175.491,207.251 175.781,196.286 176.072,207.853 176.362,208.975 176.653,210.835 176.944,203.937 177.234,205.748 177.525,205.115 177.816,192.821 178.106,195.597 178.397,203.071 178.688,192.585 178.978,206.398 179.269,220.410 179.559,194.656 179.850,206.187 180.141,206.318 180.431,195.496 180.722,192.211 181.012,214.633 181.303,198.574 181.594,213.515 181.884,206.284 182.175,199.451 182.466,201.770 182.756,200.876 183.047,194.726 183.338,208.480 183.628,206.056 183.919,201.796 184.209,202.998 184.500,196.942 184.791,188.795 185.081,183.807 185.372,193.240 185.662,182.530 185.953,189.050 186.244,188.520 186.534,194.793 186.825,188.963 187.116,193.213 187.406,194.173 187.697,190.906 187.988,185.749 188.278,196.406 188.569,187.921 188.859,181.697 189.150,190.134 189.441,182.559 189.731,190.851 190.022,188.736 190.312,202.129 190.603,198.222 190.894,194.300 191.184,194.441 191.475,198.070 191.766,202.572 192.056,206.888 192.347,183.794 192.638,186.873 192.928,181.798 193.219,182.454 193.509,196.488 193.800,182.745 194.091,197.041 194.381,184.447 194.672,192.645 194.962,186.716 195.253,189.372 195.544,183.219 195.834,190.388 196.125,200.471 196.416,185.136 196.706,185.032 196.997,187.475 197.287,194.552 197.578,189.917 197.869,193.883 198.159,190.904 198.450,186.495 198.741,187.847 199.031,199.651 199.322,187.666 199.613,183.579 199.903,192.527 200.194,186.087 200.484,193.659 200.775,201.604 201.066,185.780 201.356,195.901 201.647,199.802 201.938,208.489 202.228,188.193 202.519,183.502 202.809,196.058 203.100,198.148 203.391,187.043 203.681,193.840 203.972,195.599 204.262,198.005 204.553,185.189 204.844,192.873 205.134,191.155 205.425,194.333 205.716,174.326 206.006,185.282 206.297,195.383 206.587,194.992 206.878,185.085 207.169,189.900 207.459,194.015 207.750,197.743 208.041,186.707 208.331,185.777 208.622,194.485 208.912,192.768 209.203,205.756 209.494,196.025 209.784,193.658 210.075,185.679 210.366,189.807 210.656,188.893 210.947,187.383 211.238,190.617 211.528,198.065 211.819,197.160 212.109,191.321 212.400,188.471 212.691,191.050 212.981,191.068 213.272,185.405 213.562,191.231 213.853,193.821 214.144,193.572 214.434,204.665 214.725,186.576 215.016,170.356 215.306,190.099 215.597,186.695 215.887,196.312 216.178,199.412 216.469,193.712 216.759,188.924 217.050,189.259 217.341,196.486 217.631,191.123 217.922,188.418 218.213,195.518 218.503,194.524 218.794,193.141 219.084,197.261 219.375,190.542 219.666,193.773 219.956,184.664 220.247,194.539 220.538,186.309 220.828,190.533 221.119,188.244 221.409,194.063 221.700,194.013 221.991,198.178 222.281,186.625 222.572,196.110 222.862,205.881 223.153,184.642 223.444,201.459 223.734,191.937 224.025,188.811 224.316,202.706 224.606,189.046 224.897,189.610 225.188,188.147 225.478,196.327 225.769,200.706 226.059,182.686 226.350,191.197 226.641,198.813 226.931,197.689 227.222,188.174 227.512,189.960 227.803,195.800 228.094,191.678 228.384,185.077 228.675,187.727 228.966,190.571 229.256,201.407 229.547,194.026 229.838,186.200 230.128,189.957 230.419,193.203 230.709,180.108 231.000,193.375 231.291,195.110 231.581,190.127 231.872,177.011 232.162,182.423 232.453,198.455 232.744,187.178 233.034,184.049 233.325,194.348 233.616,194.948 233.906,197.081 234.197,196.110 234.487,204.324 234.778,195.348 235.069,185.608 235.359,193.949 235.650,179.901 235.941,199.627 236.231,189.798 236.522,194.248 236.813,190.219 237.103,191.648 237.394,196.349 237.684,191.216 237.975,181.752 238.266,194.730 238.556,191.207 238.847,187.225 239.138,186.758 239.428,191.248 239.719,185.557 240.009,187.569 240.300,184.039 240.591,184.735 240.881,185.883 241.172,178.537 241.462,190.719 241.753,188.250 242.044,192.790 242.334,187.804 242.625,191.795 242.916,211.396 243.206,215.177 243.497,200.270 243.787,201.474 244.078,205.884 244.369,206.332 244.659,195.277 244.950,202.041 245.241,208.159 245.531,206.067 245.822,204.630 246.112,210.339 246.403,205.087 246.694,189.923 246.984,203.774 247.275,202.536 247.566,194.967 247.856,205.310 248.147,208.110 248.438,202.787 248.728,198.943 249.019,201.056 249.309,199.826 249.600,205.144 249.891,213.750 250.181,204.735 250.472,202.874 250.762,203.321 251.053,202.862 251.344,210.227 251.634,207.059 251.925,206.740 252.216,206.403 252.506,208.325 252.797,209.101 253.087,196.169 253.378,195.649 253.669,208.042 253.959,206.870 254.250,211.774 254.541,205.402 254.831,195.850 255.122,193.474 255.412,204.800 255.703,200.566 255.994,214.322 256.284,195.781 256.575,196.247 256.866,217.519 257.156,206.744 257.447,198.401 257.738,214.803 258.028,206.493 258.319,209.067 258.609,199.788 258.900,201.780 259.191,208.565 259.481,204.473 259.772,197.486 260.063,207.327 260.353,208.331 260.644,197.800 260.934,202.676 261.225,209.643 261.516,213.433 261.806,204.548 262.097,199.444 262.387,205.862 262.678,201.113 262.969,191.790 263.259,213.720 263.550,213.497 263.841,195.752 264.131,202.853 264.422,199.737 264.713,195.264 265.003,201.470 265.294,211.109 265.584,208.178 265.875,197.320 266.166,213.728 266.456,204.383 266.747,200.011 267.038,200.122 267.328,207.720 267.619,202.670 267.909,203.280 268.200,210.200 268.491,218.988 268.781,203.014 269.072,209.134 269.363,197.275 269.653,209.715 269.944,203.724 270.234,201.046 270.525,201.028 270.816,197.695 271.106,203.809 271.397,191.721 271.688,212.120 271.978,190.411 272.269,199.129 272.559,213.614 272.850,201.653 273.141,199.864 273.431,208.728 273.722,214.496 274.012,200.377 274.303,215.663 274.594,207.715 274.884,188.466 275.175,207.239 275.466,203.300 275.756,195.266 276.047,205.541 276.337,205.832 276.628,199.706 276.919,207.873 277.209,209.329 277.500,205.390 277.791,192.559 278.081,188.206 278.372,211.961 278.663,211.671 278.953,203.865 279.244,201.082 279.534,205.306 279.825,200.590 280.116,202.485 280.406,200.580 280.697,213.171 280.987,206.269 281.278,193.164 281.569,207.293 281.859,208.374 282.150,200.505 282.441,194.633 282.731,201.265 283.022,202.145 283.313,208.170 283.603,201.438 283.894,196.438 284.184,191.705 284.475,206.755 284.766,209.089 285.056,198.422 285.347,207.286 285.637,201.150 285.928,200.432 286.219,208.656 286.509,203.559 286.800,202.590 287.091,192.673 287.381,208.910 287.672,203.171 287.962,209.348 288.253,207.274 288.544,194.375 288.834,202.740 289.125,214.087 289.416,197.872 289.706,213.820 289.997,209.342 290.288,209.735 290.578,207.860 290.869,212.367 291.159,199.711 291.450,210.577 291.741,215.035 292.031,218.045 292.322,199.459 292.613,201.871 292.903,210.563 293.194,201.757 293.484,195.874 293.775,206.699 294.066,207.122 294.356,211.516 294.647,196.372 294.938,211.959 295.228,205.385 295.519,210.175 295.809,206.616 296.100,214.630 296.391,202.644 296.681,203.280 296.972,216.715 297.263,196.452 297.553,196.048 297.844,214.548 298.134,218.554 298.425,203.361 298.716,209.059 299.006,204.818 299.297,212.309 299.587,194.878 299.878,200.161 300.169,196.130 300.459,201.948 300.750,200.837 301.041,194.102 301.331,186.976 301.622,198.590 301.913,180.283 302.203,192.630 302.494,205.372 302.784,196.925 303.075,196.915 303.366,190.518 303.656,194.493 303.947,197.759 304.237,196.729 304.528,183.733 304.819,183.212 305.109,192.701 305.400,193.937 305.691,186.061 305.981,197.959 306.272,183.849 306.562,193.286 306.853,194.009 307.144,178.622 307.434,188.573 307.725,193.422 308.016,189.819 308.306,193.775 308.597,190.208 308.887,190.887 309.178,184.620 309.469,188.510 309.759,192.097 310.050,198.773 310.341,195.932 310.631,180.644 310.922,178.817 311.212,197.322 311.503,181.372 311.794,199.176 312.084,200.226 312.375,185.391 312.666,195.004 312.956,188.809 313.247,186.522 313.537,197.656 313.828,195.214 314.119,192.177 314.409,197.764 314.700,190.610 314.991,188.547 315.281,196.500 315.572,189.158 315.863,188.012 316.153,192.432 316.444,204.501 316.734,184.070 317.025,187.659 317.316,193.699 317.606,185.244 317.897,186.267 318.188,188.387 318.478,193.572 318.769,189.373 319.059,194.968 319.350,199.897 319.641,189.425 319.931,197.094 320.222,186.998 320.513,190.550 320.803,188.915 321.094,196.065 321.384,190.775 321.675,191.531 321.966,191.704 322.256,186.248 322.547,195.339 322.838,195.971 323.128,202.649 323.419,188.678 323.709,188.645 324.000,193.905 324.291,193.644 324.581,199.094 324.872,183.240 325.163,192.068 325.453,189.563 325.744,193.394 326.034,184.722 326.325,202.005 326.616,185.625 326.906,200.209 327.197,199.261 327.488,192.324 327.778,199.325 328.069,182.547 328.359,200.697 328.650,185.474 328.941,185.184 329.231,200.567 329.522,179.575 329.812,199.664 330.103,208.630 330.394,189.297 330.684,193.246 330.975,214.169 331.266,201.925 331.556,208.615 331.847,201.567 332.137,195.385 332.428,199.418 332.719,206.058 333.009,204.896 333.300,200.744 333.591,197.714 333.881,199.127 334.172,197.991 334.462,206.662 334.753,196.693 335.044,205.352 335.334,203.215 335.625,212.821 335.916,194.360 336.206,198.156 336.497,211.608 336.787,213.458 337.078,194.695 337.369,203.255 337.659,213.182 337.950,196.558 338.241,203.129 338.531,200.328 338.822,206.555 339.113,209.317 339.403,199.738 339.694,201.824 339.984,195.797 340.275,210.978 340.566,192.468 340.856,198.563 341.147,198.400 341.438,215.620 341.728,197.439 342.019,194.032 342.309,212.372 342.600,190.296 342.891,202.044 343.181,213.606 343.472,197.763 343.762,198.948 344.053,197.705 344.344,218.786 344.634,207.960 344.925,200.534 345.216,199.247 345.506,213.620 345.797,201.656 346.088,206.149 346.378,203.058 346.669,207.287 346.959,213.031 347.250,198.833 347.541,215.881 347.831,202.264 348.122,208.194 348.412,201.624 348.703,200.617 348.994,204.524 349.284,198.469 349.575,204.637 349.866,197.280 350.156,206.617 350.447,217.571 350.737,206.511 351.028,216.504 351.319,187.543 351.609,207.576 351.900,202.627 352.191,218.083 352.481,201.941 352.772,188.359 353.063,200.978 353.353,217.223 353.644,208.423 353.934,199.075 354.225,198.083 354.516,207.059 354.806,194.071 355.097,207.973 355.387,210.622 355.678,210.307 355.969,198.910 356.259,210.048 356.550,205.342 356.841,207.597 357.131,198.277 357.422,210.532 357.713,203.579 358.003,207.143 358.294,185.820 358.584,194.671 358.875,194.056 359.166,204.990 359.456,207.319 359.747,199.734 360.037,214.046 360.328,206.522 360.619,213.992 360.909,203.955 361.200,196.403 361.491,202.759 361.781,204.044 362.072,212.384 362.363,212.826 362.653,205.266 362.944,200.867 363.234,197.683 363.525,201.425 363.816,193.507 364.106,201.896 364.397,206.411 364.688,193.453 364.978,202.053 365.269,189.659 365.559,192.102 365.850,219.118 366.141,207.648 366.431,219.879 366.722,211.611 367.012,199.067 367.303,205.975 367.594,198.472 367.884,210.137 368.175,200.659 368.466,205.856 368.756,206.200 369.047,196.919 369.338,210.863 369.628,207.611 369.919,192.518 370.209,189.973 370.500,196.904 370.791,207.196 371.081,222.018 371.372,212.315 371.663,208.346 371.953,204.555 372.244,206.116 372.534,211.457 372.825,186.910 373.116,215.055 373.406,194.207 373.697,193.671 373.988,198.144 374.278,216.569 374.569,206.074 374.859,207.135 375.150,200.852 375.441,195.939 375.731,212.086 376.022,193.548 376.313,194.368 376.603,214.898 376.894,201.085 377.184,212.869 377.475,197.044 377.766,200.451 378.056,206.913 378.347,206.047 378.637,209.277 378.928,214.422 379.219,211.592 379.509,207.290 379.800,188.559 380.091,213.900 380.381,197.784 380.672,212.422 380.962,205.129 381.253,204.167 381.544,212.363 381.834,214.653 382.125,201.344 382.416,194.681 382.706,206.642 382.997,195.798 383.288,203.719 383.578,201.448 383.869,207.799 384.159,221.095 384.450,205.289 384.741,209.023 385.031,203.267 385.322,202.224 385.612,206.740 385.903,208.067 386.194,201.000 386.484,208.699 386.775,203.345 387.066,200.074 387.356,206.409 387.647,199.654 387.938,205.886 "
           id="polyline354"
           style="fill:none;stroke:#0000ff;stroke-width:0.5pt;stroke-dasharray:none" />
        <g
           id="g356" />
      </g>
      <g
         id="ID000019" />
      <g
         id="ID000020" />
      <g
         id="ID000021" />
    </g>
  </g>
</svg>
