<?xml version="1.0" encoding="utf-8"?>
<!DOCTYPE svg PUBLIC "-//W3C//DTD SVG 1.1//EN" "http://www.w3.org/Graphics/SVG/1.1/DTD/svg11.dtd">
<svg version="1.1" id="Layer_2" xmlns="http://www.w3.org/2000/svg" xmlns:xlink="http://www.w3.org/1999/xlink" x="0px" y="0px"
	 viewBox="0 0 285 125" style="enable-background:new 0 0 285 125;" width="285px" height="125px" xml:space="preserve">
<style type="text/css">
	.st0{fill:none;stroke:#000;stroke-width:2;}
	.st1{fill:none;stroke:#000;stroke-width:3;}
	.st2{fill:#fff;}
</style>
<line class="st0" x1="210.4" y1="42.1" x2="155.3" y2="14.3"/>
<polyline class="st1" points="9.3,88.4 56.1,88.4 73.4,42.1 113.1,42.1 131.6,88.4 180.9,88.4 198,42.1 236.5,42.1 255,88.4 
	269.3,88.4 "/>
<g>
	<g>
		<line class="st0" x1="30.2" y1="42" x2="30.2" y2="88.4"/>
		<g>
			<g>
				<circle class="st2" cx="30.2" cy="42.5" r="9.4"/>
				<path d="M19.5,42.5c0,5.9,4.8,10.6,10.6,10.6c5.9,0,10.6-4.8,10.6-10.6c0-5.9-4.8-10.6-10.6-10.6C24.3,31.9,19.5,36.7,19.5,42.5
					C19.5,48.4,19.5,36.7,19.5,42.5z M38.3,42.5c0,4.5-3.7,8.1-8.1,8.1c-4.5,0-8.1-3.7-8.1-8.1c0-4.5,3.7-8.1,8.1-8.1
					C34.7,34.4,38.3,38,38.3,42.5C38.3,47,38.3,38,38.3,42.5z"/>
			</g>
		</g>
	</g>
</g>
<g>
	<g>
		<line class="st0" x1="155.3" y1="42" x2="155.3" y2="88.4"/>
		<g>
			<g>
				<circle class="st2" cx="155.3" cy="42.5" r="9.4"/>
				<path d="M144.6,42.5c0,5.9,4.8,10.6,10.6,10.6c5.9,0,10.6-4.8,10.6-10.6c0-5.9-4.8-10.6-10.6-10.6
					C149.4,31.9,144.6,36.7,144.6,42.5C144.6,48.4,144.6,36.7,144.6,42.5z M163.4,42.5c0,4.5-3.7,8.1-8.1,8.1
					c-4.5,0-8.1-3.7-8.1-8.1c0-4.5,3.7-8.1,8.1-8.1C159.8,34.4,163.4,38,163.4,42.5C163.4,47,163.4,38,163.4,42.5z"/>
			</g>
		</g>
	</g>
</g>
<g>
	<g>
		<line class="st0" x1="122.6" y1="108" x2="122.6" y2="65.8"/>
		<g>
			<g>
				<circle class="st2" cx="122.6" cy="107.5" r="9.4"/>
				<path d="M133.2,107.5c0-5.9-4.8-10.6-10.6-10.6s-10.6,4.8-10.6,10.6c0,5.9,4.8,10.6,10.6,10.6S133.2,113.3,133.2,107.5
					C133.2,101.6,133.2,113.3,133.2,107.5z M114.4,107.5c0-4.5,3.7-8.1,8.1-8.1s8.1,3.7,8.1,8.1c0,4.5-3.7,8.1-8.1,8.1
					S114.4,112,114.4,107.5C114.4,103,114.4,112,114.4,107.5z"/>
			</g>
		</g>
	</g>
</g>
<g>
	<g>
		<line class="st0" x1="66.3" y1="108" x2="66.3" y2="62.5"/>
		<g>
			<g>
				<circle class="st2" cx="66.3" cy="107.5" r="9.4"/>
				<path d="M76.9,107.5c0-5.9-4.8-10.6-10.6-10.6s-10.6,4.8-10.6,10.6c0,5.9,4.8,10.6,10.6,10.6S76.9,113.3,76.9,107.5
					C76.9,101.6,76.9,113.3,76.9,107.5z M58.1,107.5c0-4.5,3.7-8.1,8.1-8.1s8.1,3.7,8.1,8.1c0,4.5-3.7,8.1-8.1,8.1
					S58.1,112,58.1,107.5C58.1,103,58.1,112,58.1,107.5z"/>
			</g>
		</g>
	</g>
</g>
<g>
	<g>
		<line class="st0" x1="246.3" y1="108" x2="246.3" y2="65.8"/>
		<g>
			<g>
				<circle class="st2" cx="246.3" cy="107.5" r="9.4"/>
				<path d="M256.9,107.5c0-5.9-4.8-10.6-10.6-10.6s-10.6,4.8-10.6,10.6c0,5.9,4.8,10.6,10.6,10.6S256.9,113.3,256.9,107.5
					C256.9,101.6,256.9,113.3,256.9,107.5z M238.1,107.5c0-4.5,3.7-8.1,8.1-8.1s8.1,3.7,8.1,8.1c0,4.5-3.7,8.1-8.1,8.1
					S238.1,112,238.1,107.5C238.1,103,238.1,112,238.1,107.5z"/>
			</g>
		</g>
	</g>
</g>
<g>
	<g>
		<line class="st0" x1="190" y1="108" x2="190" y2="65.8"/>
		<g>
			<g>
				<circle class="st2" cx="190" cy="107.5" r="9.4"/>
				<path d="M200.6,107.5c0-5.9-4.8-10.6-10.6-10.6s-10.6,4.8-10.6,10.6c0,5.9,4.8,10.6,10.6,10.6S200.6,113.3,200.6,107.5
					C200.6,101.6,200.6,113.3,200.6,107.5z M181.8,107.5c0-4.5,3.7-8.1,8.1-8.1s8.1,3.7,8.1,8.1c0,4.5-3.7,8.1-8.1,8.1
					S181.8,112,181.8,107.5C181.8,103,181.8,112,181.8,107.5z"/>
			</g>
		</g>
	</g>
</g>
<g>
	<g>
		<line class="st0" x1="155.3" y1="13.3" x2="98.5" y2="42.1"/>
		<g>
			<g>
				<circle class="st2" cx="154.8" cy="13.6" r="9.4"/>
				<path d="M150,4.1c-5.2,2.7-7.3,9.1-4.7,14.3c2.7,5.2,9.1,7.3,14.3,4.7c5.2-2.7,7.3-9.1,4.7-14.3C161.7,3.5,155.3,1.4,150,4.1
					C144.8,6.7,155.3,1.4,150,4.1z M158.5,20.8c-4,2-8.9,0.4-11-3.6c-2-4-0.4-8.9,3.6-11c4-2,8.9-0.4,11,3.6
					C164.1,13.9,162.5,18.8,158.5,20.8C154.5,22.9,162.5,18.8,158.5,20.8z"/>
			</g>
		</g>
	</g>
</g>
<g>
	<path d="M31,46.2H30v-6.7c-0.3,0.2-0.6,0.5-1,0.7s-0.8,0.4-1.1,0.5v-1c0.6-0.3,1.1-0.6,1.5-1s0.8-0.8,0.9-1.1H31V46.2z"/>
</g>
<g>
	<path d="M156.1,46.2H155v-6.7c-0.3,0.2-0.6,0.5-1,0.7s-0.8,0.4-1.1,0.5v-1c0.6-0.3,1.1-0.6,1.5-1s0.8-0.8,0.9-1.1h0.7V46.2z"/>
</g>
<g>
	<path d="M157.2,16.3v1h-5.7c0-0.3,0-0.5,0.1-0.7c0.1-0.4,0.4-0.8,0.7-1.1s0.8-0.8,1.4-1.3c0.9-0.8,1.6-1.4,1.9-1.8s0.5-0.9,0.5-1.3
		c0-0.4-0.1-0.8-0.4-1.1s-0.7-0.4-1.2-0.4c-0.5,0-0.9,0.2-1.2,0.5s-0.5,0.7-0.5,1.3l-1.1-0.1c0.1-0.8,0.4-1.4,0.8-1.8s1.1-0.6,2-0.6
		c0.8,0,1.5,0.2,2,0.7s0.7,1,0.7,1.7c0,0.3-0.1,0.7-0.2,1s-0.4,0.7-0.7,1s-0.9,0.9-1.6,1.5c-0.6,0.5-1,0.9-1.2,1.1s-0.3,0.4-0.4,0.6
		H157.2z"/>
</g>
<g>
	<path d="M63.1,109.2l1.1-0.1c0.1,0.6,0.3,1,0.6,1.3s0.6,0.4,1.1,0.4c0.5,0,0.9-0.2,1.3-0.5s0.5-0.8,0.5-1.3c0-0.5-0.2-0.9-0.5-1.2
		s-0.7-0.5-1.2-0.5c-0.2,0-0.4,0-0.7,0.1l0.1-0.9c0.1,0,0.1,0,0.2,0c0.4,0,0.9-0.1,1.2-0.4s0.5-0.6,0.5-1.1c0-0.4-0.1-0.7-0.4-1
		s-0.6-0.4-1-0.4c-0.4,0-0.8,0.1-1,0.4s-0.4,0.6-0.5,1.2l-1.1-0.2c0.1-0.7,0.4-1.3,0.9-1.6c0.5-0.4,1-0.6,1.7-0.6
		c0.5,0,0.9,0.1,1.3,0.3s0.7,0.5,0.9,0.8s0.3,0.7,0.3,1.1c0,0.4-0.1,0.7-0.3,1s-0.5,0.5-0.9,0.7c0.5,0.1,0.9,0.4,1.2,0.7
		s0.4,0.8,0.4,1.4c0,0.8-0.3,1.4-0.8,1.9s-1.2,0.8-2.1,0.8c-0.8,0-1.4-0.2-1.9-0.7C63.5,110.5,63.2,110,63.1,109.2z"/>
</g>
<g>
	<path d="M122.7,111.5v-2.1h-3.7v-1l3.9-5.6h0.9v5.6h1.2v1h-1.2v2.1H122.7z M122.7,108.5v-3.9l-2.7,3.9H122.7z"/>
</g>
<g>
	<path d="M186.6,109.2l1.1-0.1c0.1,0.6,0.3,1,0.6,1.3s0.6,0.4,1.1,0.4c0.5,0,0.9-0.2,1.3-0.5s0.5-0.8,0.5-1.3c0-0.5-0.2-0.9-0.5-1.2
		s-0.7-0.5-1.2-0.5c-0.2,0-0.4,0-0.7,0.1l0.1-0.9c0.1,0,0.1,0,0.2,0c0.4,0,0.9-0.1,1.2-0.4s0.5-0.6,0.5-1.1c0-0.4-0.1-0.7-0.4-1
		s-0.6-0.4-1-0.4c-0.4,0-0.8,0.1-1,0.4s-0.4,0.6-0.5,1.2l-1.1-0.2c0.1-0.7,0.4-1.3,0.9-1.6s1-0.6,1.7-0.6c0.5,0,0.9,0.1,1.3,0.3
		s0.7,0.5,0.9,0.8s0.3,0.7,0.3,1.1c0,0.4-0.1,0.7-0.3,1s-0.5,0.5-0.9,0.7c0.5,0.1,0.9,0.4,1.2,0.7s0.4,0.8,0.4,1.4
		c0,0.8-0.3,1.4-0.8,1.9s-1.2,0.8-2.1,0.8c-0.8,0-1.4-0.2-1.9-0.7S186.6,110,186.6,109.2z"/>
</g>
<g>
	<path d="M246.1,111.5v-2.1h-3.7v-1l3.9-5.6h0.9v5.6h1.2v1h-1.2v2.1H246.1z M246.1,108.5v-3.9l-2.7,3.9H246.1z"/>
</g>
</svg>
