<?xml version="1.0" encoding="UTF-8" standalone="no"?>
<!-- Created with Inkscape (http://www.inkscape.org/) -->
<svg
   xmlns:ns0="http://www.iki.fi/pav/software/textext/"
   xmlns:dc="http://purl.org/dc/elements/1.1/"
   xmlns:cc="http://creativecommons.org/ns#"
   xmlns:rdf="http://www.w3.org/1999/02/22-rdf-syntax-ns#"
   xmlns:svg="http://www.w3.org/2000/svg"
   xmlns="http://www.w3.org/2000/svg"
   xmlns:xlink="http://www.w3.org/1999/xlink"
   xmlns:sodipodi="http://sodipodi.sourceforge.net/DTD/sodipodi-0.dtd"
   xmlns:inkscape="http://www.inkscape.org/namespaces/inkscape"
   width="146.25444"
   height="133.12245"
   id="svg3405"
   sodipodi:version="0.32"
   inkscape:version="0.46"
   version="1.0"
   sodipodi:docname="s-parameter button.svg"
   inkscape:output_extension="org.inkscape.output.svg.inkscape">
  <sodipodi:namedview
     inkscape:document-units="mm"
     id="base"
     pagecolor="#ffffff"
     bordercolor="#666666"
     borderopacity="1.0"
     inkscape:pageopacity="0.0"
     inkscape:pageshadow="2"
     inkscape:zoom="0.7"
     inkscape:cx="-152.32587"
     inkscape:cy="8.7386023"
     inkscape:current-layer="layer1"
     showgrid="false"
     showguides="true"
     inkscape:guide-bbox="true"
     inkscape:window-width="1280"
     inkscape:window-height="968"
     inkscape:window-x="-4"
     inkscape:window-y="-4" />
  <defs
     id="defs3">
    <linearGradient
       id="linearGradient5642">
      <stop
         id="stop5644"
         offset="0"
         style="stop-color:#b29a15;stop-opacity:1;" />
      <stop
         style="stop-color:#eedc76;stop-opacity:1;"
         offset="0.19085097"
         id="stop5662" />
      <stop
         id="stop5664"
         offset="0.80394602"
         style="stop-color:#efdb77;stop-opacity:1;" />
      <stop
         style="stop-color:#b19a15;stop-opacity:1;"
         offset="1"
         id="stop5650" />
    </linearGradient>
    <inkscape:perspective
       id="perspective3411"
       inkscape:persp3d-origin="372.04724 : 350.78739 : 1"
       inkscape:vp_z="744.09448 : 526.18109 : 1"
       inkscape:vp_y="0 : 1000 : 0"
       inkscape:vp_x="0 : 526.18109 : 1"
       sodipodi:type="inkscape:persp3d" />
    <linearGradient
       spreadMethod="pad"
       gradientUnits="userSpaceOnUse"
       y2="357.30066"
       x2="415.86475"
       y1="357.88229"
       x1="270.32468"
       id="linearGradient5658"
       xlink:href="#linearGradient5642"
       inkscape:collect="always" />
  </defs>
  <metadata
     id="metadata4">
    <rdf:RDF>
      <cc:Work
         rdf:about="">
        <dc:format>image/svg+xml</dc:format>
        <dc:type
           rdf:resource="http://purl.org/dc/dcmitype/StillImage" />
      </cc:Work>
    </rdf:RDF>
  </metadata>
  <g
     transform="translate(-270.32465,-291.32107)"
     id="layer1"
     inkscape:groupmode="layer"
     inkscape:label="Layer 1">
    <rect
       ry="20.5263"
       y="293.73761"
       x="272.74118"
       height="128.28938"
       width="141.42137"
       id="rect3414"
       style="opacity:1;fill:url(#linearGradient5658);fill-opacity:1;fill-rule:evenodd;stroke:#646464;stroke-width:4.83300018;stroke-linecap:butt;stroke-linejoin:miter;stroke-miterlimit:4;stroke-dasharray:none;stroke-dashoffset:0;stroke-opacity:1" />
    <g
       id="g12447"
       style="font-style:normal;font-variant:normal;font-weight:normal;font-stretch:normal;letter-spacing:normal;word-spacing:normal;text-anchor:start;fill:none;fill-opacity:1;fill-rule:evenodd;stroke:#000000;stroke-width:0.35700231;stroke-linecap:butt;stroke-linejoin:miter;stroke-miterlimit:10.43299961;stroke-dasharray:none;stroke-dashoffset:0;stroke-opacity:1"
       xml:space="preserve"
       transform="matrix(8.9006335,0,0,-7.9337686,-1694.557,5986.6846)">
<polygon
   id="polygon12449"
   style="stroke-width:0.35700231;fill:black;stroke-miterlimit:10.43299961;stroke-dasharray:none"
   points="225.97,704.63 225.97,705.03 225.01,705.03 225.01,714.2 225.97,714.2 225.97,714.59 224.61,714.59 224.61,704.63 " />
<path
   id="path12451"
   style="stroke-width:0.35700231;fill:black;stroke-miterlimit:10.43299961;stroke-dasharray:none"
   d="M230.1,710.85 L230.07,710.85 L230.04,710.84 L230.02,710.84 L229.99,710.84 L229.97,710.83 L229.95,710.82 L229.92,710.81 L229.9,710.81 L229.88,710.8 L229.86,710.78 L229.84,710.77 L229.82,710.76 L229.8,710.75 L229.78,710.73 L229.77,710.72 L229.75,710.7 L229.74,710.69 L229.72,710.67 L229.71,710.65 L229.69,710.64 L229.68,710.62 L229.67,710.6 L229.66,710.58 L229.65,710.56 L229.64,710.54 L229.64,710.52 L229.63,710.5 L229.63,710.48 L229.62,710.46 L229.62,710.44 L229.62,710.42 L229.62,710.4 C229.62,710.26,229.71,710.11,229.93,710.11 C230.15,710.11,230.38,710.28,230.38,710.67 C230.38,711.12,229.96,711.53,229.2,711.53 C227.88,711.53,227.51,710.51,227.51,710.07 C227.51,709.29,228.25,709.15,228.54,709.09 C229.06,708.99,229.58,708.88,229.58,708.33 C229.58,708.07,229.35,707.23,228.15,707.23 C228.01,707.23,227.25,707.23,227.02,707.76 C227.4,707.71,227.65,708.01,227.65,708.29 C227.65,708.52,227.49,708.64,227.28,708.64 C227.02,708.64,226.72,708.43,226.72,707.98 C226.72,707.41,227.29,707.01,228.14,707.01 C229.76,707.01,230.15,708.22,230.15,708.67 C230.15,709.03,229.96,709.27,229.84,709.39 C229.57,709.67,229.28,709.72,228.84,709.81 C228.48,709.89,228.08,709.96,228.08,710.41 C228.08,710.7,228.32,711.31,229.2,711.31 C229.45,711.31,229.95,711.24,230.1,710.85 Z " />
<polygon
   id="polygon12453"
   style="stroke-width:0.35700231;fill:black;stroke-miterlimit:10.43299961;stroke-dasharray:none"
   points="232.46,714.59 231.09,714.59 231.09,714.2 232.06,714.2 232.06,705.03 231.09,705.03 231.09,704.63 232.46,704.63 " />
</g>  </g>
</svg>
