<?xml version="1.0" encoding="UTF-8"?>
<!-- Created with Inkscape (http://www.inkscape.org/) -->
<svg width="600" height="400" fill-rule="evenodd" version="1.1" viewBox="0 0 169.33 112.89" xml:space="preserve" xmlns="http://www.w3.org/2000/svg" xmlns:cc="http://creativecommons.org/ns#" xmlns:dc="http://purl.org/dc/elements/1.1/" xmlns:rdf="http://www.w3.org/1999/02/22-rdf-syntax-ns#" xmlns:xlink="http://www.w3.org/1999/xlink"><metadata><rdf:RDF><cc:Work><dc:format>image/svg+xml</dc:format><dc:type/></cc:Work></rdf:RDF></metadata><defs><filter id="filter30671" x="-.038494" y="-.48044" width="1.0769" height="1.9609" color-interpolation-filters="sRGB"><feGaussianBlur stdDeviation="3.477918"/></filter><filter id="filter8814-0-5" x="-.030507" y="-.13765" width="1.0696" height="1.2831" color-interpolation-filters="sRGB"><feGaussianBlur stdDeviation="3.8434197"/></filter><linearGradient id="linearGradient3927-0-2" x1="71.241" x2="57.151" y1="54.977" y2="85.893" gradientTransform="matrix(1.1025 0 0 1.135 -.048791 .24195)" gradientUnits="userSpaceOnUse"><stop stop-color="#fff" offset="0"/><stop stop-color="#efefef" offset="1"/></linearGradient><filter id="filter22633" x="-.41542" y="-.9804" width="1.8308" height="2.9608" color-interpolation-filters="sRGB"><feGaussianBlur stdDeviation="3.909012"/></filter><filter id="filter71215" x="-.26185" y="-.74526" width="1.5237" height="2.4905" color-interpolation-filters="sRGB"><feGaussianBlur stdDeviation="1.0327733"/></filter><filter id="filter9437-2" x="-.078405" y="-.23144" width="1.1568" height="1.4629" color-interpolation-filters="sRGB"><feGaussianBlur stdDeviation="1.2882552"/></filter><filter id="filter46684" x="-.086885" y="-.23604" width="1.1738" height="1.4721" color-interpolation-filters="sRGB"><feGaussianBlur stdDeviation="1.0290628"/></filter><filter id="filter13653" x="-.064252" y="-.55175" width="1.1285" height="2.1035" color-interpolation-filters="sRGB"><feGaussianBlur stdDeviation="0.75953176"/></filter><filter id="filter21683-9" x="-.14907" y="-.24244" width="1.2981" height="1.4849" color-interpolation-filters="sRGB"><feGaussianBlur stdDeviation="2.8000243"/></filter><filter id="filter90209" x="-.1061" y="-.10702" width="1.2122" height="1.214" color-interpolation-filters="sRGB"><feGaussianBlur stdDeviation="2.029477"/></filter><linearGradient id="linearGradient92694" x1="160.5" x2="136.51" y1="191.84" y2="174.25" gradientUnits="userSpaceOnUse"><stop stop-color="#0f00db" stop-opacity=".56522" offset=".0020121"/><stop stop-color="#0f00db" stop-opacity=".28406" offset=".72233"/></linearGradient><linearGradient id="linearGradient92740" x1="76.104" x2="50.135" y1="-43.498" y2="-37.341" gradientUnits="userSpaceOnUse"><stop stop-color="#7a73ed" stop-opacity=".72174" offset="0"/><stop stop-color="#8a83ee" stop-opacity="0" offset="1"/></linearGradient><linearGradient id="linearGradient92782" x1="90.549" x2="78.279" y1="-31.96" y2="-41.367" gradientUnits="userSpaceOnUse"><stop stop-color="#0f00db" stop-opacity=".64058" offset="0"/><stop stop-color="#beb9f8" stop-opacity=".91815" offset=".58714"/><stop stop-color="#a8a3ff" stop-opacity=".30961" offset="1"/></linearGradient><linearGradient id="linearGradient92856" x1="160.5" x2="136.51" y1="191.84" y2="174.25" gradientUnits="userSpaceOnUse"><stop stop-color="#0f00db" stop-opacity=".56522" offset=".0020121"/><stop stop-color="#0f00db" stop-opacity=".25797" offset=".72233"/></linearGradient><linearGradient id="linearGradient2648" x1="89.419" x2="189.45" y1="169.82" y2="169.82" gradientTransform="translate(-2.08e-4,-142.01)" gradientUnits="userSpaceOnUse"><stop stop-color="#fff" stop-opacity=".34203" offset="0"/><stop stop-color="#fff" stop-opacity=".12456" offset=".39357"/><stop stop-color="#fff" stop-opacity=".59431" offset=".45039"/><stop stop-color="#fff" stop-opacity="0" offset=".51153"/><stop stop-color="#fff" stop-opacity="0" offset=".58874"/><stop stop-color="#fff" stop-opacity=".6548" offset=".66682"/><stop stop-color="#fff" stop-opacity=".25979" offset=".7066"/><stop stop-color="#fff" stop-opacity=".21352" offset="1"/></linearGradient><filter id="filter1830" x="-.29148" y="-1.5378" width="1.583" height="4.0757" color-interpolation-filters="sRGB"><feGaussianBlur stdDeviation="1.2837552"/></filter><clipPath id="clipPath9769"><path d="m45.783-43.532v11.578h12.18v-6.1998l-0.56445-0.0086-0.70887-0.63776-1.6862 0.35719-0.47901-0.17364c0.0328-0.10395-0.18045-0.10742-0.41121-0.14938l-0.36546-0.13229c-0.09741-0.07151-0.16048-0.17922-0.15159-0.34506l0.03528-0.99275-1.2634-0.32908-0.23262-0.62949-0.64603 0.17529-0.2056-1.2485-1.5533-0.1108-0.0893 0.06119c-0.0048 0.0035-0.0095 0.0069-0.01434 0.01047l-0.03693-0.04741-0.99992-1.1774z" fill="none" stroke="#000" stroke-linejoin="round" stroke-width=".36192"/></clipPath><linearGradient id="linearGradient10326" x1="112.26" x2="118.03" y1="205.93" y2="199.76" gradientTransform="matrix(.63804 -.32065 .5745 .82603 -83.631 -80.975)" gradientUnits="userSpaceOnUse"><stop stop-opacity="0" offset="0"/><stop stop-opacity=".039146" offset=".2194"/><stop stop-opacity=".83986" offset=".50357"/><stop stop-opacity=".70463" offset=".77678"/><stop stop-color="#c8c8c8" stop-opacity="0" offset="1"/></linearGradient><linearGradient id="linearGradient10330" x1="103.08" x2="103.53" y1="261.82" y2="250.26" gradientTransform="matrix(.85856 .31108 .0034739 .82968 18.268 -194.19)" gradientUnits="userSpaceOnUse"><stop stop-opacity="0" offset="0"/><stop stop-opacity=".046263" offset=".13857"/><stop stop-opacity=".83986" offset=".53164"/><stop stop-opacity=".70463" offset=".68382"/><stop stop-color="#c8c8c8" stop-opacity="0" offset="1"/></linearGradient><linearGradient id="linearGradient10334" x1="107.76" x2="105.28" y1="192.2" y2="197.3" gradientTransform="matrix(.85856 .31108 .0034739 .82968 4.4997 -151.44)" gradientUnits="userSpaceOnUse"><stop stop-opacity="0" offset="0"/><stop stop-opacity=".039146" offset=".2194"/><stop stop-opacity=".83986" offset=".53164"/><stop stop-opacity=".70463" offset=".68382"/><stop stop-color="#c8c8c8" stop-opacity="0" offset="1"/></linearGradient><clipPath id="clipPath11068"><path d="m0.21513 0.038086h169.12v112.85h-169.12z" fill="#e6e6e6" fill-rule="evenodd" stroke-width="1.1003"/></clipPath></defs><g clip-path="url(#clipPath11068)"><path d="m0.21513 0.038086h169.12v112.85h-169.12z" clip-path="none" fill="url(#linearGradient3927-0-2)" fill-rule="evenodd" stroke-width="1.1003"/><g id="g9775" transform="translate(-9.6559,-16.904)"><use transform="translate(30.243,16.871)" clip-path="url(#clipPath9769)" xlink:href="#g66881"/><path d="m76.59-26.571v11.013h11.051v-5.6439l-0.70887-0.63776-1.6862 0.35719-0.47901-0.17364c0.0328-0.10395-0.18045-0.10742-0.41121-0.14938l-0.36546-0.13229c-0.0974-0.07151-0.16049-0.17922-0.15159-0.34506l0.0353-0.99275-1.2634-0.32908-0.23261-0.62949-0.64603 0.17529-0.20561-1.2485-1.5533-0.1108-0.0893 0.06119c-5e-3 0.0035-0.01 0.0069-0.0143 0.01047l-0.0369-0.04741-0.99991-1.1774z" fill="none" stroke="#000" stroke-linejoin="round" stroke-width=".24892"/></g><rect id="rect594" x="46.321" y="-33.214" width="11.119" height="2.1075" fill="#ff7d00" filter="url(#filter1830)" opacity=".55897" stroke="#110800" stroke-linecap="round" stroke-linejoin="round" stroke-width=".32"/><path id="path66839" transform="matrix(.48582 0 -.049129 .38983 -10.902 -111.28)" d="m101.79 202.95c-0.0877 0.96959-0.11355-0.17523 0.23841 0.7318 0.19733 0.75138 0.0849 2.1603 1.1755 2.1164 1.2788-0.2361 1.2617-2.2856 2.3745-2.5179 1.894-0.39535 1.386 3.4274 4.2231 4.1402 1.8902 0.47489 1.422-3.2737 1.8459-4.3948 0.42079-1.113 2.0432-0.5069 2.5585 0.41456 1.2048 2.1544 0.24837 5.8216 3.2905 5.1833 2.3448-0.49198 0.5897-4.387 1.8467-5.7537 0.76583-0.83263 2.2346 0.13767 1.6018 1.2043-0.19409 1.0228-0.45284 2.244 0.12946 3.1798 0.72776 0.68297 2.5166 1.0002 2.8358-0.24266 0.35194-2.039-0.18991-2.0113 0.3695-4.0312 0.16899-1.1865-0.23881-0.48337-0.94891-1.4908-0.91659-0.81447-2.1773-1.1921-3.3324-1.5618-2.4522-0.37313-4.9202-0.68232-7.405-0.68695-1.8441-0.0319-3.6953-0.26601-5.5327-0.12811-1.2718 0.0954-4.9015-0.24529-5.2707 3.8377z" filter="url(#filter22633)" opacity=".61234" style="mix-blend-mode:normal"/><g id="g66853" transform="matrix(1.0667,0,0,1.0667,-41.648,-223.34)"><rect x="68.036" y="160.77" width="6.6856" height="2.4383" fill="#fff"/><g><path d="m69.156 162.21c0.01246 0.29348 0.19532 0.54346 0.44852 0.65323 0.24389-0.11263 0.40717-0.36592 0.39576-0.65849-0.01214-0.29348-0.19524-0.54345-0.44842-0.65302-0.24397 0.1125-0.40727 0.36571-0.39587 0.65828z" fill="#00af00" fill-rule="evenodd" stroke-width=".26458"/><path d="m73.675 162.23c-0.0114 0.29234-0.19529 0.5426-0.4485 0.6522-0.24397-0.11274-0.40717-0.36595-0.39473-0.65858 0.01132-0.29236 0.19524-0.54345 0.44844-0.65296 0.24397 0.11348 0.40717 0.36562 0.39478 0.65934z" fill="#00af00" fill-rule="evenodd" stroke-width=".26458"/><path d="m74.88 156.5c-0.01349 7e-3 -0.02805 0.0291-0.04027 0.0569-0.0984 0.22222-1.7549 2.3286-2.0042 2.3875-1.1038 0.0206-1.8571 0.0577-2.963 0.14476-0.78846-0.47437-1.324-1.294-1.94-1.973-0.57044-0.67177-0.66643-0.69765-0.79798 0.18497 0.01986 0.13124-0.07749 0.70805 0.33922 2.4154 0.18703 0.76996-0.03727 1.8478 0.01958 2.5694 0.0227 0.5302 0.34605 0.85455 0.46911 1.2308 0.1251 0.38121 0.35242 0.74504 0.4527 1.1596 0.23783 0.60352 0.87127 0.55695 1.3126 0.93533 0.15002 0.23969-0.18809 0.48787-0.41857 0.86699-0.24786 0.1302-0.6522 0.61412-1.0117 0.98933 1.42-0.21728 0.40926 0.0196-0.1974 0.94559 0.56541-0.13229 0.75353-0.23466 0.54166 0.13232-0.10665 0.35137-0.41648 1.2049-0.44558 1.3165 0.33787-0.16327 0.34637-0.43603 0.46831-0.21907 0.38235 0.67283 0.01538 2.0754 0 2.1014-0.2418 0.17042-0.62836 0.23439-0.87765 0.12091-0.36481-0.16748-0.79058-0.39587-1.1917-0.20987-0.42569 0.3048-0.41325 0.89191-0.3855 1.361 0.12938 1.4719 0.99539 1.5256 1.4171 2.9136 0.15719 0.34216 0.28207 0.82074-0.07358 1.0872-0.23437 0.22537-0.59716 0.45691-0.55478 0.82891 0.05977 0.41646 0.5085 0.60989 0.87736 0.6686 0.42066 0.0899 0.85378-6e-3 1.2724 0.10449 0.40005 0.24503 0.64688 0.77631 1.1586 0.81338 0.35851 0.0579 0.73477-0.0185 1.0469-0.20137 0.10747-0.29687 0.51149-0.56648 0.79671-0.34637 0.40741 0.60563 1.357 0.8496 1.9484 0.36991 0.28207-0.28313 0.60352-0.64479 1.0469-0.56324 0.43 0.0238 0.97269-0.0847 1.1513-0.53107 0.13126-0.32568 0.01982-0.75145-0.29025-0.93451-0.29266-0.25112-0.4146-0.72014-0.20878-1.0623 0.51255-1.5316 1.1234-1.8872 1.0303-3.5338-0.0051-0.37094-0.11377-0.86281-0.52282-0.96623-0.45805-0.10634-0.95835 0.23971-1.3446 0.41034-0.24104 0.0505-0.66998-0.0672-0.70096-0.34636-0.09284-0.85162 0.12308-0.79267 0.22545-1.7229 0.13629 0.0352 0.30586 0.16243 0.43815 0.20789-0.18598-0.38468-0.30292-0.9075-0.26879-1.2869 0.0074 3e-3 0.0177 6e-3 0.02378 8e-3 0.17677 0.0712 0.3474 0.0412 0.52604 0.10319-0.15796-0.41646-0.34822-0.88162-0.62206-1.174-0.01244-0.0466-0.03411-0.0982-0.04866-0.14467 0.18703 0.0484 0.29549 0.12485 0.48578 0.16745-0.26461-0.35166-0.59537-0.71017-0.8319-0.87659-0.0085-6e-3 -0.02273-9e-3 -0.03196-0.0154-0.03945-0.059-0.06831-0.11903-0.10454-0.17669 0.07755 0.0225 0.15825 0.0537 0.24074 0.064 0.11377 0.0257 0.15007 0.0124 0.3546-0.0167-0.34004-0.20452-0.55192-0.32541-0.83714-0.48254-0.14896-0.30301-0.61389-0.46411-0.64905-0.77309 0.26136-0.45384 0.92392-0.4009 1.1565-0.85066 0.78848-2.3646 0.91043-2.005 0.91252-2.5993-0.02482-1.1359-0.26032-1.8863-0.23543-2.924 0.08573-0.81749 0.2685-1.3787 0.14446-2.196-0.02355-0.19553-0.25112-0.6522-0.25823-0.53978zm-5.8291 5.1544c0.20346-3e-3 0.41857 0.0175 0.6437 0.0722 0.60166 0.1479 1.0676 0.47969 1.2237 0.82177-0.29977 0.23048-0.86384 0.29977-1.4644 0.15293-0.60037-0.14687-1.0666-0.47122-1.2237-0.8133 0.18706-0.1437 0.48149-0.22757 0.82074-0.23363zm4.7263 8e-3c0.33893 6e-3 0.63339 0.089 0.82045 0.23363-0.15692 0.34213-0.62304 0.66569-1.2237 0.81335-0.60029 0.14688-1.1728 0.0775-1.4726-0.1529 0.15714-0.34322 0.63053-0.66654 1.2319-0.81338 0.22442-0.0547 0.44027-0.0839 0.64402-0.0807z" fill-rule="evenodd" stroke="#000" stroke-width=".14999"/><path d="m60.96 165.6c-0.25718 0.0196-0.51141 0.0672-0.75644 0.14578-0.25109 0.0857-0.49824 0.18812-0.7212 0.33285-0.22334 0.13735-0.38264 0.34817-0.51779 0.56724-0.13044 0.19529-0.25958 0.39584-0.32994 0.62235-0.08363 0.24892-0.1302 0.50933-0.16222 0.76883-0.02378 0.23151-0.03707 0.46514 0.0021 0.69562 0.02887 0.23047 0.11671 0.44955 0.24609 0.64185 0.08887 0.14557 0.19206 0.29453 0.3564 0.36068 0.23678 0.1116 0.50033 0.17669 0.76168 0.18809 0.13335 0.0135 0.24826-0.0715 0.35671-0.1365 0.0558-0.0495 0.12591-0.0836 0.15293-0.15907 0.12412-0.19732 0.25321-0.39788 0.29557-0.63044 0.02984-0.26147 0.0291-0.52608 0.05895-0.78878 0.01749-0.20349 0.14475-0.41857 0.36174-0.45061 0.27488-0.0722 0.5352 0.10853 0.70694 0.30803 0.16748 0.19626 0.33181 0.40005 0.44453 0.63367 0.13012 0.22934 0.21585 0.47834 0.28199 0.73261 0.0672 0.24818 0.14687 0.49506 0.17251 0.75141 0.03127 0.2553 0.04448 0.51173 0.06217 0.76809 0.0029 0.26543 0.02572 0.5292 0.063 0.79161 0.04019 0.2604 0.08467 0.52073 0.12803 0.78031 0.03413 0.20346 0.11909 0.39367 0.17886 0.59002 0.08469 0.22434 0.18812 0.43942 0.30083 0.65011 0.14684 0.21719 0.3048 0.42698 0.47837 0.62227 0.17489 0.20873 0.36195 0.40508 0.55724 0.59529 0.18391 0.16221 0.36489 0.3297 0.57359 0.4599 0.32041 0.20579 0.63767 0.4164 0.96234 0.61589 0.2304 0.13335 0.46088 0.26459 0.69345 0.39585 0.2553 0.11483 0.50536 0.24606 0.76065 0.36301 0.25215 0.11459 0.49718 0.24577 0.75644 0.3429 0.24082 0.0963 0.48157 0.19761 0.73686 0.25235 0.24503 0.0527 0.49509 0.10748 0.74724 0.0961 0.22966 0 0.4527-0.0526 0.66458-0.13649 0.21802-0.0982 0.40005-0.28208 0.49821-0.50115 0.09925-0.23887 0.08784-0.51488-0.0071-0.75351-0.07147-0.20558-0.20796-0.40193-0.40643-0.50032-0.23437-0.1188-0.50001-0.15587-0.75218-0.22202-0.26062-0.0775-0.52522-0.14475-0.7824-0.23257-0.25633-0.0746-0.49395-0.19552-0.73686-0.30503-0.26061-0.11354-0.50557-0.26041-0.75771-0.39053-0.23971-0.12089-0.46202-0.27276-0.6903-0.4146-0.23154-0.1437-0.44664-0.312-0.65543-0.4866-0.20455-0.1728-0.40928-0.3588-0.55081-0.58814-0.13126-0.22651-0.24188-0.46934-0.31096-0.72263-0.0653-0.25823-0.06215-0.52596-0.09411-0.78944-0.03923-0.41333-0.07334-0.82793-0.12517-1.2401-0.0381-0.27413-0.07829-0.54795-0.14655-0.81571-0.07043-0.27276-0.16327-0.53737-0.24-0.80804-0.07829-0.23574-0.18891-0.45802-0.30689-0.67492-0.13126-0.21699-0.24691-0.44453-0.3969-0.64905-0.13629-0.20161-0.29236-0.38865-0.45564-0.56753-0.16957-0.18892-0.3741-0.34216-0.57891-0.48975-0.20873-0.14684-0.42989-0.27384-0.66249-0.37732-0.2273-0.0899-0.46305-0.15293-0.70064-0.20979-0.16851-0.0424-0.34208-0.0445-0.51488-0.032z" fill-rule="evenodd" stroke-width=".26458"/></g><path d="m73.534 162.89c1.4812-0.28943 2.2871-0.40111 4.8493 0.52282m-4.2529 0.0547c1.4314-0.0537 2.4866 0.36592 3.8777 1.2649m-5.0943-1.1863c1.697 0.0495 2.9787 0.36698 4.1477 1.6465m-6.4628-0.98716c-1.7674-0.16748-3.3208-0.12486-4.8204 0.85066m5.2276-1.234c-2.286-0.1963-3.7507-0.87339-6.1111 0.245m5.5179-0.59954c-1.9523-0.31515-2.7728-0.75142-5.2771-0.35745" fill="none" stroke="#000" stroke-linecap="round" stroke-width=".31747"/></g><g id="g66881" transform="matrix(-.27815 0 0 .27815 99.986 -96.498)" fill-rule="evenodd"><path d="m153.11 190.42h39.732v39.598h-39.732z" fill="#ff7d00" fill-rule="evenodd" stroke="#000" stroke-linejoin="round" stroke-width="1.3012"/><g><g><path d="m178.85 222.4 4.6348 2.4097c1.0972 0.95436 0.82325 1.604 1.5857 2.1944 0.75147 0.69068 1.2305 0.80275 1.6773 0.15235 0.35523-0.73976 0.28418-1.4795 0.39551-2.2852 0.51856-0.49805 0.94484-0.74708 1.3726-1.2451 0.46729-0.52003 0.44679-1.0327-0.27466-1.399-0.6006-0.2417-1.169-0.36622-1.8897-0.15381-0.4585 0.14649-0.9463 0.22705-1.5557-0.0293l-5.001-2.3218-14.209-4.9293c-1.9116-0.93019-3.4996-1.626-5.3907-2.6734-1.0269-0.813-0.69581-1.7432-1.9395-2.4976-0.54713-0.271-0.94264-0.39551-1.3806 0.35157-0.27979 0.65919-0.25782 1.3623-0.3003 2.0435-0.48927 0.52735-1.043 0.83497-1.4451 1.4868-0.58229 0.93752 0.3003 1.2451 0.77638 1.3623 1.3506 0.33692 1.8384-0.271 3.0835-0.022 2.4207 1.1279 4.8634 2.2998 7.1998 3.4498z" fill="#fff2e5" stroke="#000" stroke-linejoin="round" stroke-width=".91554"/><path d="m179.88 218.19 6.9215-3.2623c1.311-0.51856 1.4942 0.21241 2.6514 0 0.88478-0.0103 1.6165-0.35596 1.5557-1.1887-0.44678-0.66138-0.86427-1.0767-1.6465-1.7996 0.041-0.77198-0.10255-1.5139-0.39552-2.2559-0.30542-0.43726-0.85475-0.62989-1.6773 0.15235-0.83351 0.62989-0.56983 1.4736-1.6165 2.3474-1.7066 0.84963-3.2623 1.5967-5.1527 2.5342l-14.392 4.9732c-1.6663 0.88625-3.1802 1.7066-5.0904 2.439-1.5557 0.38819-1.4942-0.56397-3.3838 0.0659-0.53981 0.42481-0.52955 1.0401-0.0923 1.4942 0.50758 0.49805 0.86427 0.813 1.311 1.2525 0.1421 0.62989 0.1626 1.1719 0.2439 1.9263 0.3047 0.92286 0.97634 0.87159 1.555 0.42481 0.25415-0.31495 0.5691-0.6006 0.76173-0.94484 0.26368-0.45411 0.55958-0.97414 0.91554-1.399l4.6033-2.439z" fill="#fff2e5" stroke="#000" stroke-linejoin="round" stroke-width=".91554"/><path d="m163.69 208.43c-1.4019-1.3623-2.3804-3.7281-2.5174-6.2806-0.14648-2.8125 1.3345-5.6031 3.5552-7.1998 2.4881-1.7512 6.6476-2.2347 9.2345-2.1028 1.752 1e-3 5.6544 0.90968 7.0328 1.9358 2.417 1.7578 3.712 4.251 3.8013 7.0936 0.1333 2.855-1.0694 5.0303-2.5416 6.3868" fill="#fff2e5" stroke="#000" stroke-width=".91554"/></g><path d="m163.83 207.95s-1.6941 5.1292 1.5703 6.0038l1.1902 6.86c1.2525 5.3995 11.309 5.4032 12.788 0l1.1865-6.86c3.3472-0.89357 1.648-6.006 1.648-6.006z" fill="#fff2e5" stroke-width=".073243"/></g><g><g><path d="m163.78 200.43c-0.56764 0.49658-0.49586 1.2429-0.39405 2.3584 0.0806 0.84596 0.6211 1.6795 0.64967 2.4536 0.19775 1.6311-0.28419 3.2637-0.51124 4.5982-0.15601 1.5322 0.28418 2.8528 0.85182 3.3633 0.56763 0.50391 1.3008 0.71265 2.0706 0.94777 0.69948 0.1831 1.062 0.50537 1.5916 0.90089 0.62989 0.67384 0.78078 1.2232 0.76613 1.9043m13.462-16.56c0.56763 0.49806 0.49585 1.2451 0.39404 2.3584-0.0806 0.84962-0.6211 1.6846-0.64966 2.4536-0.19776 1.6333 0.28418 3.2666 0.51123 4.5997 0.15601 1.5381-0.28418 2.8565-0.85182 3.3692-0.56763 0.50538-1.607 0.77638-2.0706 0.94484-0.53981 0.19043-1.0928 0.53467-1.5908 0.93019-0.60059 0.57862-0.78077 1.1939-0.76686 1.875" fill="none" stroke="#000" stroke-width=".91554"/><path d="m165.4 213.96c0.50831 1.2305 1.0474 2.4288 1.0986 3.6893-0.23438 1.0166-0.16334 2.2156 0.0908 3.1714 0.3252 1.3111 1.5952 2.8653 2.866 3.3838 1.2964 0.47242 2.1094 0.59474 3.567 0.59474" fill="none" stroke="#000" stroke-width=".91554"/><path d="m180.57 213.96c-0.50831 1.2305-1.0474 2.4288-1.0972 3.6893 0.23438 1.0159 0.1626 2.2156-0.0915 3.1714-0.3296 1.3111-1.6114 2.8199-2.8858 3.3384-1.2744 0.52003-2.0874 0.64454-3.5376 0.64454" fill="#fff2e5" stroke="#000" stroke-width=".91554"/></g><g><path d="m172.73 210.2c-0.71046 0.54053-0.86867 0.72218-1.2612 1.3198-0.14209 0.23072-0.40724 0.76906-0.47975 1.1309-0.0732 0.36182-0.12671 0.88624-0.12597 1.1646 7e-3 0.94117 0.30029 1.5308 0.62989 1.511 0.29297-0.0366 0.66651-0.34425 1.2305-1.0327m0.52002-4.0796c0.71046 0.53467 0.8716 0.71778 1.2598 1.3184 0.14648 0.22706 0.41016 0.76906 0.4834 1.128 0.0733 0.35889 0.13184 0.88625 0.12452 1.1646 0 0.93751-0.3003 1.5308-0.62257 1.5088-0.29297-0.0366-0.66652-0.34424-1.2305-1.0327m-6.5553-8.2252c0.98878-0.17579 1.9409-0.28565 2.9297-0.39552 1.2891-0.32959 1.941 1.1426 1.5894 2.2559-0.44679 0.98146-1.0767 1.8457-1.7945 2.6807-0.55665 0.6299-1.2232 0.72511-1.8604 0.51271-0.51271-0.14649-0.98146-0.46144-1.4942-1.1939-0.21973-0.62989-0.41016-0.95949-0.69581-1.7359-0.22119-0.7251 0.12452-1.8018 1.3404-2.1387zm12.605 0c-0.98146-0.17579-1.941-0.28565-2.9224-0.39552-1.2891-0.32959-1.941 1.1426-1.582 2.2559 0.44678 0.98146 1.0767 1.8457 1.8018 2.6807 0.56397 0.6299 1.2305 0.72511 1.8604 0.51271 0.5127-0.14649 0.98878-0.46144 1.4942-1.1939 0.22706-0.62989 0.41749-0.95949 0.70314-1.7359 0.22705-0.7251-0.12451-1.8018-1.3404-2.1387z" stroke="#000" stroke-width=".073243pt"/><path d="m166.67 214.51c0.41749 0.97707 0.54567 1.3477 0.84596 2.3233 0.25636 0.90089 0.35157 1.4502 0.50904 2.729m11.233-5.105c-0.41749 0.98146-0.5464 1.3477-0.84743 2.3218-0.25635 0.90089-0.3501 1.4502-0.5083 2.732" fill="none" stroke="#000" stroke-width=".45777"/><path d="m168.45 216.8c1.0767 0.66139 2.9414 0.7632 4.6107 0.73244 1.8604-9e-3 3.452-0.14283 4.4971-0.77638m-8.7306 1.7688c1.1887 0.74708 2.5877 1.0034 4.1983 0.94338 1.67-0.041 2.9517-0.18165 4.1016-0.96462" fill="none" stroke="#000" stroke-width=".36622"/><path d="m167.97 219.43c1.2715 1.5344 3.0469 1.8018 5.0662 1.8545 2.1607 0.0791 4.3331-0.78004 4.8926-1.8531" fill="#fff2e5" stroke="#000" stroke-width=".45777"/><path d="m168.81 217.13-0.0293 3.0176m1.0203-2.6976-0.0146 3.2315m1.1133-3.0945-0.0315 3.3838m1.0225-3.3077-0.0161 3.43m1.128-3.3985v3.4292m1.0672-3.4498 0.0147 3.4278m0.9463-3.523 0.0293 3.3692m1.084-3.5523 0.0146 3.23m0.99098-3.6329 0.0293 3.0469" fill="#fff2e5" stroke="#000" stroke-width=".36622"/></g></g></g><g id="g66887" transform="matrix(-1.0663 .20878 .20878 1.0663 105.19 -28.612)" fill-rule="evenodd"><path d="m36.026-27.923v-4.4112l-1.4112-2.3689-1.4144 2.3689v4.4112z" fill="#808080" stop-color="#000000" stroke="#000" stroke-linecap="round" stroke-linejoin="round" stroke-width=".47978"/><rect transform="scale(1,-1)" x="36.026" y="29.597" width="12.924" height="1.4414" fill="#e9c6af" fill-rule="evenodd" stop-color="#000000" stroke="#000" stroke-linecap="round" stroke-linejoin="round" stroke-width=".47978" style="font-variation-settings:normal"/></g><rect id="rect71213" transform="matrix(1.0667 0 0 .78507 2.3599 -251.53)" x="41.83" y="257.89" width="9.4661" height="3.3259" filter="url(#filter71215)" opacity=".27313"/><g id="g66899" transform="matrix(-1.1589,0,0,1.1589,188.82,-323.87)"><path d="m112.86 237.81 5.2983-9.2298 5.2992 9.2298z" fill="#ff0" fill-rule="evenodd" stroke="#000" stroke-linejoin="round" stroke-width=".347"/><g><path d="m117.8 235.31-0.86172 1.5019c0.78504 0.45547 1.6776 0.45547 2.4616 0l-0.8617-1.5019-0.0167 0.0112c-0.0205 0.0113-0.0421 0.0225-0.0643 0.0308-0.0224 0.0103-0.044 0.0186-0.0684 0.0261-0.0232 7e-3 -0.0456 0.0131-0.07 0.0186-0.0232 6e-3 -0.0476 9e-3 -0.0727 0.0112-0.0243 2e-3 -0.0494 5e-3 -0.0757 5e-3 -0.0251 0-0.0495-3e-3 -0.0755-5e-3 -0.0234-2e-3 -0.0494-6e-3 -0.0739-0.0112-0.0232-5e-3 -0.0476-0.0112-0.07-0.0186-0.0242-7e-3 -0.0457-0.0139-0.0682-0.0261-0.0224-8e-3 -0.0437-0.0196-0.0643-0.0308-7e-3 -3e-3 -0.0122-7e-3 -0.0186-0.0112z" fill-rule="evenodd" stroke-width=".23897"/><path d="m116.93 232.52c-0.78409 0.45643-1.2293 1.2331-1.2293 2.1452h1.7232c0-0.0263 2e-3 -0.0523 4e-3 -0.0757 9.3e-4 -0.0241 7e-3 -0.0504 0.0102-0.0746 6e-3 -0.0234 0.0122-0.0485 0.0196-0.0709 7e-3 -0.0234 0.0141-0.0459 0.0253-0.0672 9e-3 -0.0224 0.0205-0.0459 0.0315-0.0654 0.0113-0.0206 0.0234-0.0411 0.0366-0.0617 0.0129-0.0196 0.027-0.0382 0.0421-0.0568 0.0148-0.0186 0.0316-0.0354 0.0485-0.0524 0.0167-0.0158 0.0344-0.0325 0.053-0.0476 0.0186-0.0148 0.0376-0.0299 0.0571-0.043l0.0438-0.028z" fill-rule="evenodd" stroke-width=".23897"/><path d="m119.4 232.52-0.8617 1.5019c0.0151 0.0103 0.0292 0.0167 0.044 0.028 0.0206 0.0131 0.0392 0.0282 0.0569 0.043 0.0186 0.015 0.0356 0.0318 0.0542 0.0476 0.0167 0.017 0.0335 0.0356 0.0476 0.0524 0.0151 0.0186 0.0299 0.0373 0.0421 0.0568 0.0131 0.0206 0.027 0.0411 0.0373 0.0617 0.0112 0.0196 0.0225 0.043 0.0318 0.0654 9e-3 0.0213 0.0177 0.0438 0.0251 0.0672 8e-3 0.0241 0.0131 0.0476 0.0188 0.0709 5e-3 0.0242 9e-3 0.0476 0.0101 0.0746 3e-3 0.0234 5e-3 0.0494 5e-3 0.0757h1.7223c-3e-3 -0.91212-0.44903-1.6888-1.2331-2.1452z" fill-rule="evenodd" stroke-width=".23897"/><path d="m118.66 234.67c0 0.27245-0.22036 0.49469-0.49281 0.49469-0.27075 0-0.49103-0.22224-0.49103-0.49469 0-0.27266 0.22028-0.4949 0.49103-0.4949 0.27245 0 0.49281 0.22224 0.49281 0.4949z" fill-rule="evenodd" stroke-width=".23897"/></g></g><g><path transform="matrix(.32266 0 0 .32266 -8.1146 -8.5338)" d="m5.774 188.79s137.41 16.552 232.37 27.706" fill="none" filter="url(#filter30671)" stroke="#b9b9b9" stroke-width="10"/><g transform="matrix(.81332 .081996 .057459 .72012 -48.336 63.32)"><use transform="translate(31.875)" xlink:href="#rect594"/></g><g transform="matrix(.81332 .081996 .057459 .72012 -8.3611 67.612)"><use transform="translate(31.875)" xlink:href="#rect594"/></g><use transform="matrix(.80473 .085356 0 .70922 -21.173 65.328)" xlink:href="#path66839"/><use transform="matrix(.76176 .06997 .043104 .70924 -18.656 65.89)" xlink:href="#g66853"/><g transform="matrix(1 0 .083331 1 -4.378 -5.08)"><use transform="matrix(.80473 .085356 0 .70922 -23.722 70.408)" xlink:href="#g66881"/><use transform="matrix(.80473 .085356 0 .70922 -23.722 70.244)" xlink:href="#g66887"/><use transform="matrix(.80473 .085356 0 .70922 -23.722 70.408)" xlink:href="#rect71213"/><use transform="matrix(.80473 .085356 0 .70922 -23.722 70.408)" xlink:href="#g66899"/></g><use transform="matrix(.80473 .085356 0 .70922 17.536 69.663)" xlink:href="#path66839"/><use transform="matrix(.81215 .080206 .039518 .73522 18.428 70.7)" xlink:href="#g66853"/><use transform="matrix(.80979 .085356 .042103 .70922 17.154 69.663)" xlink:href="#g66881"/><use transform="matrix(.80979 .085356 .042103 .70922 17.178 69.499)" xlink:href="#g66887"/><use transform="matrix(.80473 .085356 0 .70922 15.707 69.663)" xlink:href="#rect71213"/><use transform="matrix(.80979 .085356 .042103 .70922 17.154 69.663)" xlink:href="#g66899"/><g transform="matrix(.97997 0 0 1.0024 .56192 -5.1356)" fill-rule="evenodd" stroke-width=".21321"><path d="m-12.038 23.172 2.9033 33.342 38.652 4.4294-2.0527-34.017zm2.1507 1.9663 2.5981 0.24964 0.19049 2.2686-2.5944-0.25273zm4.8367 0.46474 2.613 0.25107 0.18351 2.2743-2.6092-0.25417zm4.8644 0.4674 2.633 0.253 0.17644 2.2801-2.6292-0.25612zm4.8986 0.47068 2.6421 0.25387 0.16929 2.286-2.6382-0.257zm4.9207 0.47281 2.6636 0.25593 0.16205 2.2918-2.6596-0.25909zm4.9543 0.47604 2.6739 0.25693 0.15473 2.2977-2.67-0.2601zm4.978 0.47831 2.6895 0.25842 0.14733 2.3036-2.6855-0.26161zm5.007 0.4811 2.7103 0.26043 0.13982 2.3096-2.7063-0.26363zm-33.091 0.82729 36.074 3.5516 1.3546 22.38-35.56-3.9585zm1.0032 23.526 2.5526 0.28665 0.18336 2.1837-2.549-0.2895zm4.7519 0.53362 2.5669 0.28826 0.17663 2.189-2.5633-0.29112zm4.7786 0.53661 2.5864 0.29044 0.1698 2.1944-2.5827-0.29332zm4.8116 0.54032 2.595 0.29141 0.16291 2.1997-2.5913-0.29429zm4.8329 0.54271 2.6158 0.29374 0.15592 2.2051-2.612-0.29665zm4.8653 0.54635 2.6257 0.29485 0.14886 2.2106-2.6219-0.29777zm4.888 0.5489 2.6407 0.29654 0.14172 2.216-2.6368-0.29947zm4.9159 0.55204 2.6608 0.2988 0.13449 2.2215-2.6569-0.30175z"/><path d="m27.381 26.918 2.0546 34.016 40.456 4.6362-1.1194-34.718zm2.1998 2.0121 2.721 0.26145 0.13229 2.3155-2.7169-0.26466zm5.0656 0.48673 2.7369 0.26297 0.12461 2.3215-2.7327-0.26621zm5.0952 0.48958 2.7583 0.26503 0.11683 2.3276-2.7541-0.26829zm5.1317 0.49308 2.7681 0.26598 0.10897 2.3336-2.7639-0.26924zm5.1556 0.49538 2.791 0.26818 0.101 2.3397-2.7867-0.27147zm5.1915 0.49883 2.8023 0.26926 0.09294 2.3459-2.7979-0.27256zm5.217 0.50128 2.819 0.27086 0.08479 2.352-2.8146-0.27418zm5.2481 0.50427 2.8412 0.273 0.07653 2.3582-2.8367-0.27634zm-34.791 0.75728 37.793 3.7209 0.74084 22.841-37.228-4.1442zm0.35128 23.999 2.671 0.29994 0.12723 2.2269-2.667-0.3029zm4.9724 0.55838 2.6863 0.30166 0.11983 2.2325-2.6823-0.30463zm5.0009 0.56158 2.707 0.30398 0.11234 2.238-2.7029-0.30698zm5.0362 0.56554 2.7164 0.30503 0.10476 2.2436-2.7123-0.30804zm5.059 0.56811 2.7385 0.30752 0.09709 2.2492-2.7343-0.31054zm5.0937 0.57199 2.7492 0.30872 0.08933 2.2548-2.745-0.31176zm5.1181 0.57474 2.7653 0.31053 0.08149 2.2605-2.761-0.31358zm5.148 0.5781 2.7868 0.31294 0.07354 2.2662-2.7825-0.31601z"/></g></g><g><path transform="matrix(.32606 .02069 0 .32256 -6.7507 -16.481)" d="m240.46 220.34c81.247 0.50022 120.75-19.108 164.52-32.604 68.004-20.971 138.85-65.21 138.85-65.21" fill="none" filter="url(#filter8814-0-5)" stroke="#b9b9b9" stroke-width="10"/><g transform="matrix(.78001 -.24506 .0043469 .7313 74.815 83.206)"><use transform="translate(31.875)" xlink:href="#rect594"/></g><g transform="matrix(.84288 -.099172 .0046973 .74663 29.584 82.297)"><use transform="translate(31.875)" xlink:href="#rect594"/></g><g><path d="m150.71 9.1026c-0.25145 11.398-0.77558 34.173-0.77558 34.173 7.0499-2.7458 13.667-5.6204 20.985-8.9455 6.3914-2.9039 10.723-4.8908 10.723-4.8908 0.34071-11.442 1.007-34.334 1.007-34.334-8.3658 4.1323-19.55 9.2549-31.94 13.997zm1.8674 1.042c0.83253-0.3175 2.4455-0.96454 2.4455-0.96454-0.0129 0.76348-0.0596 2.2767-0.0596 2.2767-0.79688 0.32535-2.441 0.96407-2.441 0.96407zm4.517-1.7982c0.81015-0.32178 2.3744-0.97403 2.3744-0.97403-0.0157 0.7637-0.0673 2.2774-0.0673 2.2774-0.77204 0.32742-2.3703 0.97366-2.3703 0.97366zm4.381-1.8124c0.78632-0.32401 2.2985-0.97719 2.2985-0.97719-0.0182 0.76392-0.0739 2.2781-0.0739 2.2781-0.74553 0.32729-2.2951 0.97685-2.2951 0.97685zm4.2328-1.8134c0.75594-0.32202 2.2029-0.96752 2.2029-0.96752-0.0201 0.76418-0.0788 2.2788-0.0788 2.2788-0.71256 0.32282-2.2005 0.96714-2.2005 0.96714zm4.0551-1.7935c0.7256-0.31856 2.1067-0.9532 2.1067-0.9532-0.0213 0.76454-0.0815 2.2797-0.0815 2.2797-0.67926 0.31666-2.1056 0.95266-2.1056 0.95266zm3.8662-1.7605c0.68838-0.31059 1.99-0.92527 1.99-0.92527-0.0215 0.76509-0.081 2.2811-0.081 2.2811-0.63929 0.30591-1.9907 0.92446-1.9907 0.92446zm3.6475-1.7058c0.64857-0.29995 1.865-0.88915 1.865-0.88915-0.0205 0.76591-0.0768 2.2832-0.0768 2.2832-0.59654 0.2923-1.8678 0.88791-1.8678 0.88791zm3.4095-1.6342c0.60563-0.28644 1.73-0.84413 1.73-0.84413-0.0179 0.76712-0.0678 2.2863-0.0678 2.2863-0.55042 0.27557-1.7355 0.84229-1.7355 0.84229zm-27.241 16c6.337-2.4955 12.76-5.2483 19.26-8.2307 5.8384-2.6787 9.6043-4.5408 9.6043-4.5408-0.21825 7.5367-0.6689 22.591-0.6689 22.591-3.9443 1.806-10.653 4.9443-16.982 7.7245-6.2751 2.7565-11.776 4.9494-11.776 4.9494zm-1.5534 24.604c0.81346-0.31531 2.3905-0.9587 2.3905-0.9587-0.0131 0.76347-0.0596 2.2767-0.0596 2.2767-0.77928 0.32362-2.386 0.95823-2.386 0.95823zm4.4165-1.7879c0.79221-0.31995 2.3242-0.96937 2.3242-0.96937-0.0159 0.76369-0.0673 2.2774-0.0673 2.2774-0.75648 0.32611-2.3201 0.96899-2.3201 0.96899zm4.2907-1.804c0.77055-0.32232 2.2564-0.97295 2.2564-0.97295-0.0183 0.76391-0.0739 2.278-0.0739 2.278-0.73318 0.32614-2.253 0.97261-2.253 0.97261zm4.1592-1.8054c0.74365-0.32012 2.1729-0.96273 2.1729-0.96273-0.0202 0.76417-0.0788 2.2787-0.0788 2.2787-0.70482 0.3215-2.1705 0.96234-2.1705 0.96234zm4.0059-1.7839c0.71818-0.31602 2.0932-0.94652 2.0932-0.94652-0.0214 0.76455-0.0815 2.2796-0.0815 2.2796-0.67765 0.31474-2.0922 0.94598-2.0922 0.94598zm3.8498-1.7468c0.6875-0.30687 1.9981-0.91518 1.9981-0.91518-0.0215 0.76511-0.081 2.281-0.081 2.281-0.64552 0.30289-1.9988 0.91437-1.9988 0.91437zm3.6735-1.685c0.65598-0.29442 1.9001-0.87378 1.9001-0.87378-0.0204 0.76594-0.0768 2.2831-0.0768 2.2831-0.61248 0.28759-1.903 0.87254-1.903 0.87254zm3.4883-1.6027c0.62336-0.27833 1.7984-0.82133 1.7984-0.82133-0.0176 0.76717-0.0677 2.2862-0.0677 2.2862-0.5782 0.26851-1.8039 0.81949-1.8039 0.81949z" fill-rule="evenodd" stroke-width=".28222"/><path d="m67.934 25.773c0.38224 11.582 1.1194 34.718 1.1194 34.718 7.9586-0.38392 16.865-1.1159 26.455-2.5361 8.745-1.2951 15.568-2.8339 15.568-2.8339-0.0152-11.324-0.0698-33.98-0.0698-33.98-13.988 3.0185-28.079 4.6621-43.073 4.6321zm2.363 1.7938c1.0064-0.0045 2.9753-0.05687 2.9753-0.05687 0.0284 0.77286 0.0587 2.2969 0.0587 2.2969-0.97518 0.0357-2.9668 0.065-2.9668 0.065zm5.5177-0.14035c0.99499-0.03169 2.9439-0.13724 2.9439-0.13724 0.0239 0.76851 0.0455 2.2847 0.0455 2.2847-0.96622 0.06148-2.9372 0.1434-2.9372 0.1434zm5.4608-0.28937c0.98678-0.05867 2.9216-0.21701 2.9216-0.21701 0.0204 0.76525 0.0353 2.2757 0.0353 2.2757-0.95998 0.08717-2.9163 0.22148-2.9163 0.22148zm5.417-0.43686c0.97545-0.0849 2.8896-0.29432 2.8896-0.29432 0.0176 0.76292 0.0272 2.2694 0.0272 2.2694-0.95028 0.11206-2.8855 0.29736-2.8855 0.29736zm5.3643-0.58025c0.96944-0.11088 2.8729-0.37102 2.8729-0.37102 0.0153 0.76137 0.0206 2.2654 0.0206 2.2654-0.94539 0.13688-2.8696 0.37291-2.8696 0.37291zm5.327-0.72105c0.95987-0.13563 2.8452-0.44378 2.8452-0.44378 0.0134 0.76043 0.015 2.2633 0.015 2.2633-0.93662 0.16036-2.8423 0.44473-2.8423 0.44473zm5.2804-0.8557c0.95239-0.15965 2.8233-0.51434 2.8233-0.51434 0.0116 0.75999 0.01 2.2626 0.01 2.2626-0.92952 0.18318-2.8206 0.51456-2.8206 0.51456zm5.2395-0.98552c0.94668-0.18296 2.8062-0.58273 2.8062-0.58273 0.01 0.75992 5e-3 2.263 5e-3 2.263-0.9238 0.20531-2.8035 0.58242-2.8035 0.58242zm-36.316 8.0991c7.5856-0.16756 15.824-0.76566 24.739-2.0544 8.0964-1.1705 14.416-2.5944 14.416-2.5944 0.0244 7.4603 0.0486 22.36 0.0486 22.36-7.07 1.5251-15.03 2.8943-23.937 3.8663-8.09 0.88289-14.637 1.1654-14.637 1.1654zm-0.45557 24.555c0.96633-0.04095 2.8694-0.158 2.8694-0.158 0.0281 0.77257 0.0587 2.2969 0.0587 2.2969-0.94464 0.06686-2.8609 0.16614-2.8609 0.16614zm5.3314-0.31736c0.96369-0.05946 2.8612-0.2137 2.8612-0.2137 0.0237 0.76828 0.0455 2.2846 0.0455 2.2846-0.94235 0.08485-2.8545 0.21985-2.8545 0.21985zm5.3154-0.4221c0.96235-0.07907 2.8568-0.27256 2.8568-0.27256 0.0202 0.76508 0.0353 2.2756 0.0353 2.2756-0.94115 0.10395-2.8515 0.27703-2.8515 0.27703zm5.3029-0.53215c0.95638-0.09903 2.8383-0.33216 2.8383-0.33216 0.0174 0.7628 0.0272 2.2694 0.0272 2.2694-0.93515 0.12327-2.8342 0.3352-2.8342 0.3352zm5.2734-0.64409c0.9541-0.11992 2.8308-0.39447 2.8308-0.39447 0.0152 0.76129 0.0206 2.2654 0.0206 2.2654-0.93263 0.14356-2.8275 0.39636-2.8275 0.39636zm5.2516-0.75933c0.94706-0.14052 2.809-0.45559 2.809-0.45559 0.0133 0.76039 0.015 2.2632 0.015 2.2632-0.92522 0.16342-2.8061 0.45654-2.8061 0.45654zm5.2144-0.87354c0.94096-0.16132 2.7898-0.51716 2.7898-0.51716 0.0115 0.75997 0.01 2.2625 0.01 2.2625-0.91856 0.18344-2.7871 0.51738-2.7871 0.51738zm5.1775-0.98765c0.93566-0.18221 2.7728-0.57885 2.7728-0.57885 0.01 0.75992 5e-3 2.2629 5e-3 2.2629-0.91254 0.20352-2.7702 0.57854-2.7702 0.57854z" fill-rule="evenodd" stroke-width=".28222"/><g transform="matrix(.84123 -.1016 .017253 .74412 -101.76 90.371)"><use transform="translate(188.44,10.666)" xlink:href="#path66839"/><use transform="translate(188.44,10.666)" xlink:href="#g66853"/><use transform="translate(188.44,10.666)" xlink:href="#g66881"/><use transform="translate(188.44,10.666)" xlink:href="#g66887"/><use transform="translate(188.44,10.666)" xlink:href="#rect71213"/><use transform="translate(188.44,10.666)" xlink:href="#g66899"/></g><path d="m110.99 21.145c0.0316 11.334 0.0701 33.98 0.0701 33.98 7.7623-1.6759 16.041-3.8779 24.923-6.8122 8.0278-2.6522 13.996-5.0525 13.996-5.0525 0.26589-11.389 0.77673-34.173 0.77673-34.173-12.456 4.7694-25.847 9.0553-39.766 12.058zm2.152 1.295c0.93707-0.20451 2.777-0.64556 2.777-0.64556 8e-3 0.76012-2.7e-4 2.2641-2.7e-4 2.2641-0.91388 0.22555-2.7742 0.64487-2.7742 0.64487zm5.1522-1.2262c0.92872-0.22489 2.7512-0.70482 2.7512-0.70482 6e-3 0.7605-6e-3 2.2657-6e-3 2.2657-0.90487 0.24462-2.7481 0.7039-2.7481 0.7039zm5.1029-1.3344c0.92134-0.24425 2.7277-0.76092 2.7277-0.76092 4e-3 0.76098-0.012 2.2676-0.012 2.2676-0.8965 0.26263-2.7243 0.75988-2.7243 0.75988zm5.0544-1.4356c0.90898-0.26093 2.689-0.80868 2.689-0.80868 2e-3 0.7615-0.0188 2.2696-0.0188 2.2696-0.88295 0.27781-2.6853 0.80763-2.6853 0.80763zm4.9861-1.5236c0.89948-0.27703 2.6584-0.85464 2.6584-0.85464-1e-3 0.76201-0.0263 2.2715-0.0263 2.2715-0.8719 0.29237-2.6543 0.85365-2.6543 0.85365zm4.9205-1.6045c0.88457-0.29003 2.6112-0.89102 2.6112-0.89102-4e-3 0.76248-0.0343 2.2732-0.0343 2.2732-0.8553 0.30366-2.6068 0.89013-2.6068 0.89013zm4.8347-1.6708c0.86948-0.30146 2.5631-0.92255 2.5631-0.92255-7e-3 0.76288-0.0427 2.2746-0.0427 2.2746-0.83827 0.3133-2.5586 0.9218-2.5586 0.9218zm4.7424-1.7265c0.85385-0.31127 2.5129-0.94901 2.5129-0.94901-0.01 0.76321-0.0512 2.2758-0.0512 2.2758-0.82043 0.32118-2.5083 0.9484-2.5083 0.9484zm-33.693 14.31c7.1383-1.6455 14.807-3.7767 23.06-6.5202 7.4714-2.4838 13.075-4.686 13.075-4.686-0.16181 7.5016-0.50666 22.487-0.50666 22.487-6.1729 2.3991-13.535 5.0297-21.786 7.4564-7.5626 2.2243-13.828 3.6298-13.828 3.6298zm-1.0688 24.339c0.92576-0.20204 2.742-0.637 2.742-0.637 8e-3 0.76013-2.6e-4 2.264-2.6e-4 2.264-0.90181 0.22235-2.7392 0.63632-2.7392 0.63632zm5.0858-1.2088c0.91652-0.22131 2.713-0.69337 2.713-0.69337 6e-3 0.76052-6e-3 2.2657-6e-3 2.2657-0.89161 0.24058-2.7099 0.69244-2.7099 0.69244zm5.0302-1.3123c0.90783-0.24008 2.6854-0.74802 2.6854-0.74802 4e-3 0.761-0.012 2.2675-0.012 2.2675-0.8818 0.25822-2.682 0.74699-2.682 0.74699zm4.974-1.4115c0.89401-0.2566 2.6424-0.79561 2.6424-0.79561 1e-3 0.76152-0.0188 2.2695-0.0188 2.2695-0.86686 0.27342-2.6387 0.79455-2.6387 0.79455zm4.8976-1.4995c0.88297-0.27285 2.6075-0.84224 2.6075-0.84224-1e-3 0.76202-0.0263 2.2714-0.0263 2.2714-0.85448 0.28828-2.6034 0.84124-2.6034 0.84124zm4.8244-1.582c0.86674-0.28624 2.557-0.87999 2.557-0.87999-4e-3 0.76249-0.0343 2.2731-0.0343 2.2731-0.83696 0.3001-2.5526 0.87911-2.5526 0.87911zm4.7327-1.6511c0.85065-0.29819 2.5066-0.91325 2.5066-0.91325-7e-3 0.76288-0.0427 2.2745-0.0427 2.2745-0.81945 0.31036-2.5021 0.9125-2.5021 0.9125zm4.637-1.71c0.83451-0.30855 2.4559-0.94152 2.4559-0.94152-0.0101 0.76321-0.0512 2.2757-0.0512 2.2757-0.80177 0.31888-2.4513 0.94091-2.4513 0.94091z" fill-rule="evenodd" stroke-width=".28222"/><use transform="matrix(.77795 -.24393 .0038188 .73331 101.46 74.587)" xlink:href="#path66839"/><use transform="matrix(.77795 -.24393 .0038188 .73331 101.1 74.587)" xlink:href="#g66853"/><use transform="matrix(.77795 -.24393 .0038188 .73331 99.74 75.389)" xlink:href="#g66881"/><use transform="matrix(.77795 -.24393 .0038188 .73331 99.743 75.598)" xlink:href="#g66887"/><use transform="matrix(.77795 -.24393 .0038188 .73331 99.74 75.389)" xlink:href="#rect71213"/><use transform="matrix(.77795 -.24393 .0038188 .73331 99.74 75.748)" xlink:href="#g66899"/><use transform="matrix(.69857 -.31017 -.010031 .72454 139.32 63.541)" xlink:href="#g66853"/><use transform="matrix(.77795 -.24393 .0038188 .73331 137.49 61.29)" xlink:href="#path66839"/></g><path d="m182.65-4.8942c-8.3562 4.1275-19.525 9.2433-31.942 14.014s-25.807 9.0342-39.704 12.042c-13.897 3.0073-28.079 4.6406-43.072 4.6108 0.38353 11.582 1.1234 34.718 1.1234 34.718 15.407-1.0411 27.298-2.0585 41.917-5.4256s25.506-6.4314 38.158-11.47c12.651-5.0386 21.3-9.0168 32.513-14.155 0.34071-11.442 1.0071-34.334 1.0071-34.334z" fill="url(#linearGradient2648)" fill-rule="evenodd" stroke-width=".2827"/></g><g><path d="m155.16 65.318c14.341 8.3947 24.27 14.927 37.252 25.195-0.39415 11.69-0.59064 37.605-0.59064 37.605-7.0664-7.0127-15.425-14.206-23.915-21.153-7.732-6.3272-13.476-11.074-13.476-11.074z" fill="#fff" opacity=".64286" stroke="#000" stroke-linecap="round" stroke-linejoin="round" stroke-width=".25878"/><path transform="matrix(.32266 0 0 .32266 -8.1146 -8.5338)" d="m238.15 216.5c37.186 7.8092 128.24 44.511 156.57 60.302 37.176 20.725 144.61 101.12 144.61 101.12" fill="none" filter="url(#filter30671)" stroke="#b9b9b9" stroke-width="10"/><circle cx="155.1" cy="96.125" r=".033315" fill="#ff2a2a" stroke="#000" stroke-width=".28222"/><g transform="matrix(.73414 .30979 0 .74537 -87.37 -64.458)"><path d="m216.54 40.12c10.577-2.3225 21.521-4.1795 33.286-5.3267 10.659-1.0394 19.148-1.1866 19.148-1.1866 0.0215 11.171 0.0315 33.473 0.0315 33.473-9.527-0.40884-19.859-0.20909-31.792 0.97645-10.771 1.07-20.05 2.6731-20.05 2.6731-0.20796-10.203-0.41593-20.406-0.6239-30.61z" fill="#fff" opacity=".64286" stroke="#000" stroke-linecap="round" stroke-linejoin="round" stroke-width=".32"/><path d="m273.49 33.519c9.5583-0.10643 20.371 0.22853 32.402 1.2667 10.98 0.94752 19.847 2.2547 19.847 2.2547-0.23683 13.273-0.74378 39.764-0.74378 39.764-9.7838-2.8871-20.722-5.5384-32.439-7.3638-10.671-1.6623-19.083-2.1181-19.083-2.1181 6e-3 -11.268 0.0118-22.536 0.0178-33.803z" fill="#fff" opacity=".64286" stroke="#000" stroke-linecap="round" stroke-linejoin="round" stroke-width=".32"/><path d="m269.11 24.906c0.0262 16.976 0.0455 50.883 0.0455 50.883 10.327 0.65603 21.821 2.2099 34.749 5.3144 11.761 2.8241 21.268 6.1639 21.268 6.1639 0.3907-20.161 1.1389-60.516 1.1389-60.516-19.116-1.9694-39.018-2.6625-57.202-1.8461m2.8938 2.5493c1.263-0.02719 3.7591-0.09121 3.7591-0.09121 0.01 1.1574-4e-3 3.439-4e-3 3.439-1.2423 0.02395-3.7548 0.06207-3.7548 0.06207-1e-5 0.20883 1.4e-4 -3.6186 1.3e-4 -3.4098zm6.997-0.13513c1.2687-1.9e-5 3.7783-0.01197 3.7783-0.01197 7e-3 1.1777-0.0129 3.4987-0.0129 3.4987-1.2491-3e-3 -3.7737-0.02107-3.7737-0.02107-5.1e-4 0.21225 9e-3 -3.6779 8e-3 -3.4656zm7.0352 0.0107c1.2791 0.02602 3.8103 0.06415 3.8103 0.06415 4e-3 1.2006-0.022 3.5662-0.022 3.5662-1.2599-0.0292-3.8053-0.10148-3.8053-0.10148-1e-3 0.21612 0.018-3.745 0.017-3.5288zm7.0906 0.15105c1.2852 0.05116 3.8288 0.13757 3.8288 0.13757 5.1e-4 1.2263-0.0319 3.6417-0.0319 3.6417-1.266-0.05445-3.8234-0.1792-3.8234-0.1792-2e-3 0.22048 0.0281-3.8206 0.0265-3.6001zm7.1324 0.28692c1.2948 0.07573 3.864 0.21006 3.864 0.21006-3e-3 1.2547-0.0423 3.7256-0.0423 3.7256-1.2774-0.07957-3.8584-0.25622-3.8584-0.25622-2e-3 0.22534 0.0389-3.9047 0.0366-3.6794zm7.1885 0.42092c1.3008 0.09991 3.8797 0.281 3.8797 0.281-7e-3 1.2859-0.0532 3.8174-0.0532 3.8174-1.2822-0.10407-3.8738-0.3314-3.8738-0.3314-3e-3 0.23071 0.0502-3.9977 0.0473-3.767zm7.222 0.55314c1.3078 0.12423 3.8971 0.35253 3.8971 0.35253-0.0102 1.3196-0.0643 3.917-0.0643 3.917-1.2872-0.12878-3.8911-0.40701-3.8911-0.40701-4e-3 0.23655 0.0619-4.0991 0.0583-3.8625zm7.2507 0.68649c1.3148 0.14917 3.9132 0.426 3.9132 0.426-0.0139 1.3558-0.0752 4.0238-0.0752 4.0238-1.2917-0.15412-3.9073-0.48433-3.9073-0.48433-4e-3 0.24286 0.0736-4.2083 0.0693-3.9655zm-48.437 4.0894c9.5583-0.10643 20.371 0.22853 32.402 1.2667 10.98 0.94752 19.847 2.2547 19.847 2.2547-0.23682 13.273-0.74377 39.764-0.74377 39.764-9.7838-2.8871-20.722-5.5384-32.439-7.3638-10.671-1.6623-19.083-2.1181-19.083-2.1181 6e-3 -11.268 0.0118-22.536 0.0178-33.803zm-1.4814 36.31c1.2455 0.09044 3.7061 0.27082 3.7061 0.27082 9e-3 1.1584-4e-3 3.4389-4e-3 3.4389-1.2244-0.09983-3.7018-0.29995-3.7018-0.29995 1e-5 -0.15424 1.3e-4 -3.2555 1.4e-4 -3.4097zm6.8965 0.55836c1.2498 0.13352 3.7208 0.39862 3.7208 0.39862 7e-3 1.1789-0.0128 3.4986-0.0128 3.4986-1.2297-0.14327-3.7162-0.43166-3.7162-0.43166 3.7e-4 -0.15676 8e-3 -3.3088 8e-3 -3.4655zm6.9262 0.79629c1.2585 0.17718 3.7479 0.52803 3.7479 0.52803 4e-3 1.202-0.022 3.5661-0.022 3.5661-1.2389-0.18731-3.7429-0.56536-3.7429-0.56536 7.7e-4 -0.15962 0.0162-3.3691 0.017-3.5287zm6.9727 1.0362c1.2631 0.22019 3.762 0.65492 3.762 0.65492 3.2e-4 1.2278-0.0318 3.6416-0.0318 3.6416-1.2436-0.23031-3.7566-0.69655-3.7566-0.69655 1e-3 -0.16284 0.0253-3.4371 0.0265-3.6zm7.0065 1.2728c1.2736 0.26381 3.7933 0.78366 3.7933 0.78366-3e-3 1.2564-0.0423 3.7255-0.0423 3.7255-1.2538-0.274-3.7876-0.82982-3.7876-0.82982 2e-3 -0.16643 0.035-3.5129 0.0366-3.6793zm7.0558 1.5098c1.2784 0.3059 3.8066 0.90724 3.8066 0.90724-7e-3 1.2877-0.0532 3.8173-0.0532 3.8173-1.2578-0.31567-3.8007-0.95763-3.8007-0.95763 2e-3 -0.1704 0.0451-3.5965 0.0473-3.7669zm7.0853 1.7398c1.2843 0.34764 3.823 1.0296 3.823 1.0296-0.0104 1.3216-0.0642 3.9169-0.0642 3.9169-1.2628-0.35685-3.817-1.0841-3.817-1.0841 3e-3 -0.17472 0.0556-3.6877 0.0583-3.8624zm7.1132 1.966c1.2908 0.38905 3.8402 1.1509 3.8402 1.1509-0.0141 1.3579-0.0752 4.0237-0.0752 4.0237-1.2678-0.39752-3.8343-1.2092-3.8343-1.2092 3e-3 -0.17937 0.0662-3.786 0.0693-3.9654z" fill-rule="evenodd" stroke-width=".28222"/><path d="m212.58 79.41c11.427-1.7872 23.545-3.3561 36.143-3.844 11.522-0.44628 20.669 0.23726 20.669 0.23726-3e-3 -16.962-0.0418-50.908-0.0418-50.908-18.577 0.82072-37.005 3.0382-57.848 8.2818zm2.219-44.437c1.403-0.32108 4.1328-0.94541 4.1328-0.94541 0.0319 1.0451 0.0592 3.1126 0.0592 3.1126-1.3514 0.30194-4.1261 0.92056-4.1261 0.92056 4e-3 0.18911-0.0718-3.4571-0.0688-3.2676zm7.6271-1.6978c1.3585-0.27398 4.0085-0.80868 4.0085-0.80868 0.0279 1.0593 0.0484 3.1539 0.0484 3.1539-1.3132 0.2588-4.0029 0.78716-4.0029 0.78716 3e-3 0.19184-0.0572-3.3242-0.0539-3.1324zm7.4082-1.4481c1.3261-0.23087 3.9194-0.68343 3.9194-0.68343 0.0246 1.0722 0.0394 3.191 0.0394 3.191-1.2864 0.21887-3.9147 0.66382-3.9147 0.66382 3e-3 0.19423-0.0467-3.3657-0.044-3.1714zm7.2474-1.2182c1.2973-0.19005 3.8402-0.56493 3.8402-0.56493 0.0218 1.0844 0.0315 3.2263 0.0315 3.2263-1.2625 0.18079-3.8361 0.54607-3.8361 0.54607 2e-3 0.19643-0.0378-3.4038-0.0356-3.2074zm7.1167-1.0028c1.2813-0.153 3.7984-0.45719 3.7984-0.45719 0.0193 1.0967 0.0243 3.2618 0.0243 3.2618-1.2507 0.14574-3.7947 0.4379-3.7947 0.4379 2e-3 0.19858-0.0299-3.4411-0.0281-3.2425zm7.0423-0.80517c1.2667-0.11787 3.76-0.35517 3.76-0.35517 0.0169 1.1096 0.0174 3.2995 0.0174 3.2995-1.2396 0.1123-3.7564 0.33456-3.7564 0.33456 1e-3 0.20081-0.0224-3.4797-0.0211-3.2788zm6.9857-0.61937c1.2608-0.0855 3.7468-0.261 3.7468-0.261 0.0145 1.1238 0.0105 3.3409 0.0105 3.3409-1.2365 0.08107-3.743 0.23818-3.743 0.23818 8.8e-4 0.20321-0.0151-3.5213-0.0143-3.3181zm6.9671-0.44685c1.2626-0.05531 3.7555-0.17304 3.7555-0.17304 0.0121 1.1398 3e-3 3.3875 3e-3 3.3875-1.2404 0.05156-3.7516 0.14726-3.7516 0.14726 4.4e-4 0.20588-8e-3 -3.5676-7e-3 -3.3617zm-48.642 12.384c10.577-2.3225 21.521-4.1795 33.286-5.3267 10.659-1.0394 19.148-1.1866 19.148-1.1866 0.0215 11.171 0.0315 33.473 0.0315 33.473-9.527-0.40884-19.859-0.20908-31.792 0.97645-10.771 1.07-20.05 2.6731-20.05 2.6731-0.20797-10.203-0.41594-20.406-0.6239-30.61zm-0.93321 33.226c1.3734-0.21251 4.0492-0.63662 4.0492-0.63662 0.0317 1.0459 0.0592 3.1125 0.0592 3.1125-1.3252 0.20422-4.0425 0.61178-4.0425 0.61178-3e-3 -0.13967-0.0629-2.948-0.0659-3.0877zm7.4785-1.1434c1.3342-0.18095 3.9397-0.54122 3.9397-0.54122 0.0277 1.0601 0.0484 3.1538 0.0484 3.1538-1.2916 0.17317-3.9341 0.5197-3.9341 0.5197-2e-3 -0.14169-0.0515-2.9906-0.0539-3.1323zm7.2853-0.96304c1.3057-0.14732 3.8611-0.43978 3.8611-0.43978 0.0245 1.0729 0.0393 3.1909 0.0393 3.1909-1.2679 0.13968-3.8564 0.42017-3.8564 0.42017-2e-3 -0.14346-0.042-3.0279-0.044-3.1713zm7.1427-0.77101c1.2796-0.11097 3.7891-0.33061 3.7891-0.33061 0.0217 1.085 0.0315 3.2262 0.0315 3.2262-1.2461 0.1034-3.785 0.31175-3.785 0.31175-2e-3 -0.14508-0.034-3.0622-0.0356-3.2073zm7.0238-0.56647c1.2652-0.0733 3.7512-0.21748 3.7512-0.21748 0.0191 1.0973 0.0243 3.2617 0.0243 3.2617-1.2352 0.06543-3.7474 0.19819-3.7474 0.19819-1e-3 -0.14667-0.0269-3.0958-0.0281-3.2424zm6.9554-0.35375c1.2513-0.03366 3.7142-0.099 3.7142-0.099 0.0167 1.1104 0.0175 3.2994 0.0175 3.2994-1.2244 0.02557-3.7105 0.07839-3.7105 0.07839-9.6e-4 -0.14831-0.0202-3.1304-0.0212-3.2788zm6.9002-0.13223c1.2453 7e-3 3.7 0.02257 3.7 0.02257 0.0144 1.1247 0.0105 3.3408 0.0105 3.3408-1.2209-0.01556-3.6963-0.04538-3.6963-0.04538-6.4e-4 -0.15009-0.0136-3.1679-0.0143-3.318zm6.8793 0.09519c1.2463 0.04889 3.7061 0.1474 3.7061 0.1474 0.0119 1.1407 3e-3 3.3874 3e-3 3.3874-1.2238-0.05796-3.7021-0.17319-3.7021-0.17319-3.2e-4 -0.15206-7e-3 -3.2095-7e-3 -3.3616z" fill-rule="evenodd" stroke-width=".28222"/></g><use transform="matrix(.16044 .82515 -.81195 -.14284 49.607 -4.1714)" xlink:href="#g66887"/><path transform="matrix(.46867 .39431 -.3591 .53338 32.82 39.774)" d="m87.075-52.674s-4.4072 1.5846-9.3116 3.5242c-5.1341 2.0304-10.095 4.1553-12.366 5.247-3.2216 1.5484-7.2862-2.1908-5.664-6.5386 0.6554-1.7566 1.9106-0.22701 13.95-3.2025 5.5295-1.3666 11.691-3.5041 16.597-3.239 4.7977 0.25926 6.6771-0.37585 8.518 0.49882-8.5649 1.41-11.723 3.7101-11.723 3.7101z" fill="url(#linearGradient92740)" fill-rule="evenodd" filter="url(#filter9437-2)" style="mix-blend-mode:normal"/><path transform="matrix(.35666 .1505 -.036068 .27534 44.515 -14.163)" d="m116.37 189.29c-0.0992 1.0112-0.1281-0.15718 0.26893 0.70214 0.22287 0.7316 0.0954 2.1947 1.3251 1.9376 1.4405-0.49039 1.4208-2.5893 2.6696-3.038 2.1254-0.76376 1.5606 3.2494 4.727 3.4893 2.1096 0.15979 1.5838-3.6157 2.055-4.8436 0.46774-1.2189 2.2711-0.8668 2.8436 5e-5 1.3444 2.0358 0.27457 5.9563 3.6489 4.8362 2.5924-0.8605 0.64888-4.6243 2.0346-6.2244 0.84106-0.97122 2.4669-0.18613 1.7672 1.0145-0.2128 1.0868-0.49662 2.3869 0.14588 3.2741 0.80249 0.60509 2.7705 0.69411 3.1198-0.63648 0.38443-2.1604-0.21078-2.06 0.40139-4.2299 0.18427-1.2535-0.26266-0.47085-1.0443-1.4191-1.0098-0.72091-2.3946-0.93316-3.6702-1.1461-2.7052-0.025-5.434 0.048-8.1969 0.46672-2.0536 0.28181-4.1105 0.37054-6.1714 0.85699-1.4169 0.3344-5.5055 0.69016-5.9241 4.9601z" filter="url(#filter22633)" opacity=".61234" style="mix-blend-mode:normal"/><use transform="matrix(.80281 .30243 .0084057 .78481 58.685 71.338)" xlink:href="#g66899"/><path transform="matrix(.78309 .33045 0 .58516 55.799 -114.57)" d="m51.209 247.32c3.4801-0.36914 10.361-0.82352 10.361-0.82352 0.01337 1.1898 0.0093 3.5296 0.0093 3.5296-3.4314 0.15816-10.352 0.75708-10.352 0.75708-1.47e-4 -0.0286-0.01771-3.4346-0.01786-3.4632z" filter="url(#filter71215)" opacity=".27313"/><g transform="matrix(.803 .31283 .004475 .77396 32.796 60.165)"><use transform="translate(31.875)" xlink:href="#rect594"/></g><g transform="matrix(.78309 .33045 0 .79507 -43.776 -188.35)" fill-rule="evenodd"><g transform="matrix(.9375 0 0 .9375 89.257 267.09)"><path transform="matrix(.97235 .23353 .1616 .98686 0 0)" d="m101.15-71.6c0.0185 0.64209-0.36914 1.3103-1.0782 1.8597-0.70921 0.54953-1.6835 0.93703-2.713 1.086-2.1406 0.30976-3.9461-0.46906-3.9967-1.7737-0.05057-1.3048 1.6773-2.681 3.8359-3.0181 2.1582-0.33697 3.9133 0.50484 3.9519 1.8461z" fill="#fff"/><g fill-rule="evenodd"><path d="m80.629-47.967c-0.12232 0.31575-0.03248 0.63152 0.19869 0.81758 0.3231-0.05322 0.62066-0.27756 0.74116-0.59248 0.12214-0.31547 0.03285-0.63269-0.19816-0.81874-0.32276 0.05304-0.62098 0.27866-0.7417 0.59365z" fill="#00af00" stroke-width=".28222"/><path d="m85.622-46.665c-0.14702 0.30666-0.46216 0.51745-0.79095 0.5587-0.21716-0.19208-0.28175-0.50894-0.13551-0.81655 0.14724-0.30694 0.46352-0.51988 0.79197-0.56078 0.21655 0.19325 0.28085 0.51024 0.13449 0.81864z" fill="#00af00" stroke-width=".28222"/><path d="m86.199-50.411c-1.1136-0.50755-2.0215-0.71129-3.3375-0.69058-0.81446-0.57519-2.1181-1.1281-2.9928-1.6175-0.82185-0.49977-0.93472-0.23782-0.57249 0.51228 0.34256 0.99006 0.32061 0.79235 0.44647 1.604-0.04049 0.88988-0.73177 1.4818-1.0013 2.266-0.21936 0.57129-0.0073 1.0012-0.04324 1.4343-0.03596 0.4389 0.05042 0.88617-0.0287 1.3539-0.01265 0.70536 0.16216 0.77088 0.4806 1.2919 0.05677 0.29515 0.11964 0.52221-0.31235 0.86302-0.34099 0.07248-0.42745 0.0667-1.3862-0.26958 1.1999 0.98056 1.567 1.7328-0.93232 1.5251 0.77378 0.2626 0.77082 0.51848 0.62912 0.95877-0.37933 0.34903-0.0648 0.53383-1.2021 0.52016 0.44647 0.17019 0.83103 0.71309 0.83103 0.71309s-0.15445 0.72458-1.4226 0.72693c1.3493 0.33318 0.78176 0.26002 0.64702 0.7948-0.11512 0.62194-0.64815 1.2311-1.1282 0.88196-0.33479-0.27207-1.0391-0.604-1.581-0.50563-0.62627 0.2176-0.88662 0.84457-1.0738 1.3483-0.53997 1.5921 0.51558 1.3168 0.34681 2.8909 0.01882 0.40174-0.06182 0.93877-0.58908 1.1314-0.37258 0.1788-1.1909 0.73319-1.3174 1.1365-0.12648 0.45465 0.29539 0.76943 0.6885 0.92415 0.43722 0.20062 0.9749 0.21011 1.3971 0.43503 0.33916 0.36209 0.37245 0.98662 0.93404 1.1621 0.3771 0.15616 0.8381 0.17745 1.272 0.06971 0.25903-0.28402 1.1293-0.85085 1.3485-0.53929 0.17547 0.74979 1.1283 1.2765 2.0053 0.94426 0.44414-0.21569 0.9661-0.50226 1.4204-0.28452 0.46575 0.15296 1.116 0.20291 1.5168-0.21118 0.29344-0.30204 0.36473-0.78424 0.10684-1.0709-0.20824-0.35294-0.13023-0.88361 0.25326-1.1816 1.2658-1.4553 2.0991-1.6425 2.7456-3.4045 0.16297-0.39259 0.26907-0.94526-0.13491-1.1816-0.45502-0.25426-1.1615-0.04132-1.6677 0.02216-0.28874-0.01915-0.30831-0.08457-0.21495-0.38871 0.0687-0.22249 0.08284-0.14354 0.14849-0.27411 0.07058-0.14038 0.91507-0.40175 1.1687-0.39407-0.61521-0.26217-1.0391-0.5702-0.89532-0.7787 0.07709-0.11181 0.02531-0.01513 0.1198-0.18219 0.13336 0.07772 0.79393-0.09841 1.098-0.08132-0.52529-0.43375-0.53577-0.92826-0.32505-1.3192 0.0064 0.0055 0.01635 0.01203 0.02235 0.01611 0.16179 0.12819 0.64944 0.13201 0.96719 0.15338-0.67651-0.52201-0.53676-0.80321-0.70715-1.1977 0.0075-0.05303 0.13105-0.2311 0.13511-0.28499 0.17469 0.11072 0.57675-0.18268 1.1002-0.29609-0.47668-0.29044-0.92067-0.33626-1.1443-0.53335-0.01504-0.07384-0.06268-0.19762-0.07628-0.26951 0.50804-0.02805 0.72411-0.25902 1.2418-0.55389-0.37383-0.05072-1.0634-0.03036-1.3052-0.28084-0.02592-0.3654-0.07806-0.32966 0.02579-0.66728 0.49422-0.40397 0.80855-0.19319 1.2704-0.59931 1.9448-2.2681 1.9111-1.8474 2.1838-2.4771 0.48959-1.2125 0.01388-1.047 0.51297-2.1415 0.9123-0.88452 1.6786-0.74212 2.8861-1.4696 0.06412-0.03825 0.08015-0.07662 0.08015-0.07662s-0.08873-0.03805-0.12412-0.04168c-0.91692-0.24532-1.6105-0.31317-2.335-0.38246-0.43876-0.04197-1.2675-0.15631-2.1791-0.0333l5e-6 4e-6zm-4.6673 1.807c0.59877 0.32239 0.88583 1.0671 0.90305 1.4751-0.43722 0.16043-1.1753 0.34726-1.7756 0.02751-0.60095-0.32005-0.89297-1.0598-0.91072-1.4664 0.67109-0.15384 1.286-0.2594 1.7833-0.03625zm5.2551 1.8643c-0.32835 0.31529-1.0626 0.87064-1.8608 0.74695-0.72788-0.02259-1.1833-0.516-1.409-0.8473 0.33068-0.31958 1.1059-0.79667 1.8333-0.77443 0.57486 0.03584 1.1382 0.44559 1.4365 0.87478z" stroke="#000" stroke-width=".15999"/></g></g><path d="m153.63 224.91c-0.0234-0.14112-0.10362-0.4452-0.10362-0.4452-0.26841 0.43934-0.83967 1.2956-0.83967 1.2956-0.0761 0.0249-0.26201 0.053-0.26201 0.053-0.034-0.16568-0.13549-0.51857-0.13549-0.51857-0.0807 0.48238-0.2756 1.4238-0.2756 1.4238-0.14036-0.15424-0.45499-0.48342-0.45499-0.48342-0.0195 0.60934-0.092 1.805-0.092 1.805-0.10475 0.0215-0.34843 0.043-0.34843 0.043 0.22154 0.34271 0.63012 1.009 0.63012 1.009 0.0863 0.18881 0.22504 0.54482 0.22504 0.54482-0.10891 0.0752-0.36076 0.20385-0.36076 0.20385 0.29858 0.15948 0.86018 0.45879 0.86018 0.45879 0.39495 0.2739 1.148 0.80407 1.148 0.80407-0.22034 0.0495-0.69622 0.12711-0.69622 0.12711 0.22411 0.18029 0.63792 0.52006 0.63792 0.52006 0.0395 0.16689 0.085 0.47817 0.085 0.47817-0.12972 0.21111-0.42269 0.61065-0.42269 0.61065-0.15224-0.0307-0.49089-0.11401-0.49089-0.11401 0.0167 0.16922 0.0167 0.48515 0.0167 0.48515 0.0506 0.31002 0.11819 0.90774 0.11819 0.90774-0.22033-8e-3 -0.69619-0.0446-0.69619-0.0446 0.32388 0.3421 0.93641 1.0081 0.93641 1.0081-0.22916 0.0674-0.72282 0.18087-0.72282 0.18087 0.1536 0.0776 0.42676 0.2108 0.42676 0.2108 0.42934 0.18642 1.2509 0.5413 1.2509 0.5413-0.20073 0.099-0.6368 0.27515-0.6368 0.27515 0.68015 0.0986 1.9986 0.28292 1.9986 0.28292 0.51159 0.13418 1.4949 0.38478 1.4949 0.38478 0.29363 7e-3 0.84562-1e-3 0.84562-1e-3 0.20502-0.11414 0.5813-0.36534 0.5813-0.36534 0.14244-0.50698 0.39473-1.5457 0.39473-1.5457-0.1079-0.11539-0.35639-0.36917-0.35639-0.36917-0.38901-0.15036-1.2032-0.47069-1.2032-0.47069-0.56179-0.0544-1.728-0.17958-1.728-0.17958 8e-3 -0.15105-9e-3 -0.47605-9e-3 -0.47605 0.29152-0.40772 0.84032-1.246 0.84032-1.246 0.11062-0.19813 0.2988-0.61754 0.2988-0.61754-0.17958 0.14363-0.57254 0.40843-0.57254 0.40843 0.0435-0.15021 0.0975-0.47368 0.0975-0.47368 0.13871-0.41215 0.38312-1.2602 0.38312-1.2602-0.10698 0.0967-0.35421 0.2674-0.35421 0.2674-0.0901 6.6e-4 -0.3035-0.0208-0.3035-0.0208-0.0913-0.61334-0.307-1.8604-0.307-1.8604-0.0875 0.15582-0.29578 0.44465-0.29578 0.44465-0.0633-0.1865-0.22309-0.58151-0.22309-0.58151-0.11021-0.1487-0.36389-0.46779-0.36389-0.46779-0.0896-0.0653-0.30224-0.21809-0.30224-0.21809 0.16573-0.12345 0.46324-0.39235 0.46324-0.39235-0.17234-6e-3 -0.55132-0.0401-0.55132-0.0401 0.54372-0.31673 1.5893-0.9668 1.5893-0.9668-0.22184 9.4e-4 -0.70034-0.0186-0.70034-0.0186 0.16408-0.16736 0.45851-0.52427 0.45851-0.52427 0.27802-0.29519 0.79939-0.90724 0.79939-0.90724-0.20972 0.0436-0.66381 0.1093-0.66381 0.1093-0.0559-0.11432-0.20094-0.36509-0.20094-0.36509-0.0272-0.20073-0.11478-0.62429-0.11478-0.62429-0.21573 0.20637-0.68158 0.59752-0.68158 0.59752-0.0857-0.23021-0.29029-0.7119-0.29029-0.7119-0.0671 0.22307-0.23461 0.64659-0.23461 0.64659-0.0607-3e-3 -0.2156-0.03-0.2156-0.03-1e-3 7.9e-4 -0.36946 0.21159-0.37085 0.21239z" stroke-width=".93742"/></g><use transform="matrix(.79378 .30378 0 .77537 42.375 64.376)" xlink:href="#g9775"/><path transform="matrix(.73414 .3098 0 .74538 25.737 53.855)" d="m100.32-40.492c-1.3276-2.5849-4.9947-2.6253-7.9891-2.1109-1.9343 0.30981-4.6202 1.2669-8.0969 1.2746-3.4863 0.0078-8.7705-1.8296-7.434-3.6121 0.70444-0.93955 5.1973-1.2201 7.2531-1.2369 0.85096-7e-3 0.93206 4.1669 5.3028-0.78654 0.79728-0.90356 5.4099-2.5485 9.3276-1.5791 1.3973 0.34576 5.2125 2.1646 4.049 6.02-0.75263 3.5556 3.3662 2.6114 2.0018 3.9716-2.5195 0.70601-2.6182-0.87289-4.4142-1.9407z" fill="url(#linearGradient92782)" fill-rule="evenodd" filter="url(#filter46684)" style="mix-blend-mode:normal"/><path d="m88.677 45.706c1.1603 0.70059 2.0826 1.2919 3.8549 2.5767m-3.6015-1.9815c1.1629 0.76812 1.8921 1.6273 2.988 2.755m-3.9965-3.3885c1.0906 1.0553 2.115 2.3669 2.9756 3.6376m-5.0783-4.4974c-1.381-1.0816-2.7678-1.8139-4.4641-2.3538m4.9257 2.3301c-1.7561-1.3628-2.9616-2.2535-5.0606-3.3266m4.696 2.7678c-1.4319-1.2353-2.5563-2.2826-4.2521-3.5079" fill="none" stroke="#000" stroke-linecap="round" stroke-width=".2505"/><g transform="matrix(.65995 -.11574 .38828 .8339 -122.27 -154.86)"><g transform="rotate(9.2868,164.38,272.27)"><g transform="matrix(1.7239 .40121 -.83682 1.2363 110.9 -130.48)" stroke="#000" stroke-linecap="round" stroke-linejoin="round" stroke-width=".12734"><path d="m169.05 270.53c-0.085-0.19345-0.27734-0.60305-0.27734-0.60305-0.2557 0.044-0.79013 0.11127-0.79013 0.11127 0.0554 0.11503 0.14357 0.32186 0.14357 0.32186 0.16179 0.16844 0.46284 0.48299 0.46284 0.48299-1.3e-4 8e-5 0.46119-0.31316 0.46106-0.31307z" fill="#fff2e5"/><path d="m168.35 269.47c0.10006 0.057 0.27768 0.14786 0.27768 0.14786 0.0532 0.10942 0.13713 0.30489 0.13713 0.30489-0.2557 0.044-0.79013 0.11127-0.79013 0.11127-0.0977-0.24785-0.31536-0.76579-0.31536-0.76579 0.2302 0.0665 0.46042 0.13377 0.69068 0.20177z" fill="#ff7d00"/></g></g></g><g transform="matrix(.68001 -.070393 .35196 .83894 -115.21 -158.3)"><g transform="rotate(-30.764,169.12,275.79)" stroke="#000" stroke-linecap="round" stroke-linejoin="round" stroke-width=".2"><path d="m182.78 280.16c-0.31936 0.37422-0.95149 1.0815-0.95149 1.0815 0.23409 0.27932 0.70855 0.79621 0.70855 0.79621 0.23785 0.36455 0.71889 1.0526 0.71889 1.0526 0.23382-0.18748 0.70983-0.60459 0.70983-0.60459-0.39032-0.77783-0.78556-1.553-1.1858-2.3257z" fill="#ff7d00"/><path d="m182.62 281.37c0.27408 0.0476 0.83086 0.10036 0.83086 0.10036-0.22669-0.42571-0.67607-1.317-0.67607-1.317-0.35866 0.30534-1.0681 0.87399-1.0681 0.87399 0.15469 0.21579 0.47133 0.60538 0.47133 0.60538-1e-5 0 0.44194-0.26278 0.44194-0.26278z" fill="#fff2e5"/></g></g><use transform="matrix(.15006 .98261 -.80538 -.32191 94.064 -1.3283)" xlink:href="#g66887"/><path transform="matrix(.80678 .34045 0 1.0734 43.253 -163.2)" d="m89.477 188.83c1.6357 0.44361 8.688 1.2192 14.789 1.8825 6.3247 0.68773 12.453 1.3267 13.121 0.66709 0.51846-0.51199-7.5773-1.3822-15.255-2.1244-7.663-0.74085-14.978-1.3716-12.654-0.42525v2e-5z" fill-rule="evenodd" filter="url(#filter13653)" style="mix-blend-mode:normal"/><g transform="matrix(.80583 .54366 .0044908 .90312 75.71 67.839)"><use transform="translate(31.875)" xlink:href="#rect594"/></g><use transform="matrix(.80856 .52537 0 .9124 84.546 75.673)" xlink:href="#g9775"/><path transform="matrix(.73418 .30981 0 .69304 7.9871 -111.82)" d="m159.52 164.28c-2.9937-0.16277-7.0935 0.22157-10.123 0.81713-6.7333 1.3236-3.4908 7.0016 1.665 6.8211 3.4854-0.12207 3.261 1.6456 9.5341 1.1972 2.7742-0.19823 6.0578-0.0409 2.3434 2.712-1.2576 0.93209-5.1803 0.91626-7.1527 1.4551-2.0951 0.57239-1.8867 1.5084 4.4811 4.6131 3.7866 1.8462 12-0.8162 11.93 2.2793-0.0707 3.1237 7.5292 5.2348 12.397 7.7862 0.51126-1.9736 1.5104-6.019 1.5104-6.019 1.5335 1.7308 4.5636 5.258 4.5636 5.258-1.2131-0.18151-1.7673-3.4744-4.4955-6.9886-2.7202-3.5039-7.6521-7.2359-17.443-7.8438 6.1496-2.5101 5.9294-4.5091 3.4378-5.7737-2.4935-1.2656-7.038-1.6688-9.5095-1.2795-8.5317 1.3442-8.246 0.21362-0.54479-2.773 2.0402-1.4096 0.3593-2.101-2.5942-2.2615z" fill="url(#linearGradient92856)" filter="url(#filter21683-9)" style="mix-blend-mode:normal"/><g id="use92668" transform="matrix(.78309 .33045 0 .79507 42.869 -100.17)"><path d="m94.194 170.6c0.33987 0.10011 0.9899 0.27035 0.9899 0.27035-0.07654-0.22565-0.26005-0.7089-0.26005-0.7089 0.19958-0.0131 0.56821-0.072 0.56821-0.072 0.05134 0.31335 0.12336 0.90712 0.12336 0.90712 0.12332-0.14188 0.33949-0.45927 0.33949-0.45927 0.11355 0.0959 0.3101 0.25464 0.3101 0.25464 0.12874 0.18554 0.35576 0.52416 0.35576 0.52416 0.0778-0.20859 0.20286-0.65981 0.20286-0.65981 0.16056 0.12285 0.4513 0.33594 0.4513 0.33594 0.15944 0.23473 0.44801 0.67222 0.44801 0.67222-0.0033-0.32292 0.01331-0.48846 0.01438-0.81102 0.04221-0.0434 0.09596-0.16401 0.09596-0.16401 0.23316 0.15717 0.66947 0.43982 0.66947 0.43982-0.13822-0.22419-0.44474-0.70431-0.44474-0.70431 0.04492-0.14068 0.03225-0.30534-0.01471-0.50284 0.23668-2e-3 0.67963-0.0391 0.67963-0.0391 0.15117 4e-3 0.42289-0.0231 0.42289-0.0231-0.1223-0.043-0.39728-0.16261-0.39728-0.16261-0.32421-0.12058-1.0016-0.39202-1.0016-0.39202-0.06351-0.0955-0.1294-0.17683-0.19845-0.25739 0.1515-0.0259 0.42389-0.11123 0.42389-0.11123 0.13463-0.0231 0.37325-0.10274 0.37325-0.10274-0.12542-0.018-0.40668-0.0874-0.40668-0.0874-0.29939-0.0558-0.92774-0.19872-0.92774-0.19872-0.15244-0.0655-0.48752-0.22912-0.48752-0.22912 0.17903-0.091 0.50657-0.30635 0.50657-0.30635-0.46562 0.0342-1.4259 0.073-1.4259 0.073-0.18177-3e-3 -0.57562-0.0407-0.57562-0.0407 0.40677-0.59536-0.20026-0.22547-0.56694-0.097-0.199 0.0819-0.62736 0.21339-0.62736 0.21339-0.05701-0.14701-0.20155-0.4731-0.20155-0.4731-0.20943 0.42876-0.6579 1.2512-0.6579 1.2512-0.06904 0.0501-0.23769 0.11774-0.23769 0.11774-0.07615-0.23277-0.25888-0.7296-0.25888-0.7296-0.17194 0.40034-0.54567 1.1666-0.54567 1.1666-0.10098 0.16532-0.33334 0.46315-0.33334 0.46315-0.13774-0.14055-0.44375-0.45305-0.44375-0.45305 0.02908 0.47326 0.05659 1.3875 0.05659 1.3875 0.0145 0.11165 0.0129 0.30245 0.0129 0.30245-0.21329-0.16572-0.66947-0.52693-0.66947-0.52693 0.2039 0.41854 0.58163 1.2273 0.58163 1.2273 0.05585 0.14344 0.13695 0.39804 0.13695 0.39804-0.25062 0.01-0.782-2e-3 -0.782-2e-3 0.52891 0.31872 1.556 0.93283 1.556 0.93283-0.27335 0.0863-0.85026 0.22743-0.85026 0.22743 0.49927 0.1357 1.4692 0.38133 1.4692 0.38133 0.06664 0.0673 0.16934 0.16918 0.16934 0.16918-0.27015 0.21515-0.84041 0.61262-0.84041 0.61262 0.65963-0.0247 1.9502-0.0986 1.9502-0.0986 0.11965 0.0753 0.32848 0.19291 0.32848 0.19291-0.16532 0.12733-0.52628 0.34867-0.52628 0.34867 0.44297 0.0358 1.2994 0.0783 1.2994 0.0783 1.1789 0.18878 2.2948 0.48638 4.2913 0.72394 5.8354 1.1119 12.222 1.8119 17.555 2.6242 0.38716 0.0584 0.85399 0.0262 1.3039-0.0428 0.40223 0.1918 1.1778 0.54127 1.1778 0.54127-0.10427-0.22483-0.34331-0.71223-0.34331-0.71223 0.0844-0.0206 0.14688-0.045 0.22308-0.0641 0.49373 0.29365 1.4538 0.85096 1.4538 0.85096s-0.30229-0.51045-0.63683-1.0244c0.15761 0.0134 0.5852 0.0599 1.0921 0.25277 0.6111 0.23175 1.2967 0.88429 1.278 0.26774-0.02-0.62573-1.4132-2.3094-1.5213-2.3793 0.10741-0.6448 0.17727-0.94793 0.13088-1.608 0.65935-0.31824 1.0651-0.64549 1.6162-0.57523 0.51375 0.0783 1.2715 0.35564 0.92285-0.12041-0.30131-0.31052-0.75444-0.75746-1.0284-0.92131-0.4015-0.24012-1.8464-0.87443-2.8354-0.9817-0.71453-1.1588-2.003-1.9282-3.5315-1.8637-0.31436 0.0405-0.73258 0.0866-1.0019 0.27217-0.22242 0.13035-0.41678 0.18294-0.62211 0.24451-0.67145-0.47866-2.0439-1.4561-2.0439-1.4561 0.27325 0.44494 0.79027 1.3048 0.79027 1.3048-0.41251-0.29315-1.2648-0.90783-1.2648-0.90783-0.69585-0.36062-2.1166-1.103-2.1166-1.103 0.22115 0.35848 0.63341 1.0434 0.63341 1.0434-0.30529-0.0818-0.94532-0.27937-0.94532-0.27937-0.60486-0.43501-1.8442-1.327-1.8442-1.327 0.15724 0.34326 0.44122 0.99663 0.44122 0.99663-0.23431-0.0404-0.73298-0.15594-0.73298-0.15594-0.18539-0.0309-0.58646-0.12764-0.58646-0.12764-0.51275-0.34942-1.5682-1.0739-1.5682-1.0739 0.23045 0.31457 0.66143 0.91239 0.66143 0.91239-0.15439 3e-3 -0.49368-0.0272-0.49368-0.0272-0.22223 0.0239-0.69695 0.0373-0.69695 0.0373-0.41383-0.21371-1.2691-0.66926-1.2691-0.66926 0.18611 0.26355 0.52806 0.75827 0.52806 0.75827-0.19732 0.0525-0.62234 0.12303-0.62234 0.12303 7e-3 0.0114-9e-3 -9.1e-4 -9e-3 -9.1e-4 -0.4434-0.14564-1.358-0.46557-1.358-0.46557 0.15116 0.38613 0.42301 1.1265 0.42301 1.1265-0.10899 0.0496-0.35757 0.11403-0.35757 0.11403-0.57646-0.11441-1.7561-0.36922-1.7561-0.36922 0.16941 0.28725 0.47794 0.82983 0.47794 0.82983-0.0323 0.0325-0.12749 0.0631-0.12749 0.0631-0.51211 0.22911-1.5649 0.65479-1.5649 0.65479 0.23615 0.0646 0.6782 0.16091 0.6782 0.16091-0.10857 0.22431-0.21822 0.45079-0.3118 0.65647-0.3544 0.0681-1.0929 0.17185-1.0929 0.17185 0.18641 0.0726 0.52885 0.18462 0.52885 0.18462-0.07505 0.2007-0.25559 0.56726-0.25559 0.56726-0.18449 0.0263 0.15837 1.1141-0.09468 1.1175-0.43879-0.41128-1.3466-1.2592-1.3466-1.2592 0.13778 0.32142 0.38292 0.93235 0.38292 0.93235-0.20309-0.0688-0.63918-0.23894-0.63918-0.23894-0.45791-0.28552-1.4004-0.88049-1.4004-0.88049 0.14805 0.33398 0.41378 0.97067 0.41378 0.97067-0.25796-0.17505-0.80308-0.55527-0.80308-0.55527-0.20458-0.42681-0.64328-1.3082-0.64328-1.3082-0.04428 0.16759-0.16337 0.4692-0.16337 0.4692-0.04446 0.10282-0.16391 0.2751-0.16391 0.2751-0.11045-0.048-0.36169-0.17656-0.36169-0.17656 0.19331-0.12385 0.54951-0.40451 0.54951-0.40451-0.13573-7e-3 -0.43757-0.0543-0.43757-0.0543 0.15935-0.0828 0.44753-0.28136 0.44753-0.28136-8.1e-5 -1.1e-4 -0.26252-0.36744-0.2626-0.36756z" fill-rule="evenodd"/><path d="m116.11 173.21c0.51937-2.0021 0.76983-4.4387-0.0624-5.953m0.42008 6.575c0.64794-2.5946 1.4826-4.736 0.57599-7.2814m-0.0645 6.7202c0.72202-2.1654 1.8412-3.4164 1.3977-6.075" fill="none" stroke="#000" stroke-linecap="round" stroke-width=".31747"/></g><use transform="matrix(.82147 .48948 -.019565 .9143 99.825 88.786)" xlink:href="#g66899"/><path transform="matrix(.78309 .33045 0 .58516 95.069 -98.002)" d="m56.357 249.85c3.5657 0.69195 10.702 2.3019 10.702 2.3019-7e-3 1.4108-0.05216 4.1756-0.05216 4.1756-3.5628-0.90004-10.688-2.4688-10.688-2.4688 3.18e-4 -0.0331 0.03814-3.9756 0.03846-4.0087z" filter="url(#filter71215)" opacity=".27313"/><path d="m152.19 56.387c-0.2701 14.932-0.83476 44.74-0.83476 44.74 7.8318 5.9983 16.619 13.29 25.848 21.803 8.4268 7.7732 14.481 14.085 14.481 14.085 0.36574-18.424 1.076-55.316 1.076-55.316-11.644-9.0751-26.623-17.97-40.57-25.312zm2.1657 3.5284c0.96403 0.53666 2.8648 1.5813 2.8648 1.5813-0.0128 1.0336-0.0629 3.0567-0.0629 3.0567-0.94489-0.53235-2.8608-1.6254-2.8608-1.6254-4e-3 0.1845 0.0624-3.1972 0.0588-3.0126zm5.3224 2.9629c0.96055 0.55463 2.8518 1.6335 2.8518 1.6335-0.0152 1.0624-0.0699 3.1418-0.0699 3.1418-0.93971-0.54975-2.8482-1.6797-2.8482-1.6797-4e-3 0.18959 0.0703-3.2851 0.0662-3.0956zm5.2929 3.0588c0.95495 0.5729 2.8316 1.6864 2.8316 1.6864-0.0173 1.0923-0.0758 3.2301-0.0758 3.2301-0.93204-0.56725-2.8286-1.7343-2.8286-1.7343-4e-3 0.19491 0.0773-3.3771 0.0728-3.1822zm5.2451 3.1536c0.9406 0.58794 2.7847 1.7293 2.7847 1.7293-0.0189 1.1229-0.0803 3.3207-0.0803 3.3207-0.91544-0.58112-2.7825-1.7782-2.7825-1.7782-5e-3 0.20022 0.0829-3.4722 0.0781-3.2718zm5.1563 3.2354c0.92493 0.60451 2.7334 1.777 2.7334 1.777-0.0199 1.1539-0.0827 3.4123-0.0827 3.4123-0.89725-0.59642-2.7323-1.8264-2.7323-1.8264-5e-3 0.2059 0.0867-3.5689 0.0816-3.3629zm5.0469 3.3187c0.89915 0.6175 2.6514 1.8138 2.6514 1.8138-0.0201 1.1847-0.0825 3.5036-0.0825 3.5036-0.8689-0.60774-2.6518-1.8627-2.6518-1.8627-5e-3 0.21155 0.088-3.6662 0.083-3.4546zm4.8904 3.3886c0.86833 0.63049 2.5539 1.8505 2.5539 1.8505-0.0193 1.2149-0.0793 3.593-0.0793 3.593-0.83529-0.61882-2.5561-1.8983-2.5561-1.8983-5e-3 0.21706 0.0865-3.7624 0.0815-3.5453zm4.6994 3.4554c0.83157 0.64345 2.438 1.8873 2.438 1.8873-0.0172 1.244-0.0722 3.6791-0.0722 3.6791-0.79551-0.62961-2.4423-1.9331-2.4423-1.9331-4e-3 0.22263 0.0812-3.8558 0.0765-3.6333zm-34.63-16.546c7.1678 4.1605 15.571 9.3436 23.865 15.148 7.6862 5.3791 13.094 9.8664 13.094 9.8664-0.23091 12.14-0.71296 36.357-0.71296 36.357-6.2621-6.1597-13.855-13.076-22.519-20.216-7.9001-6.5105-14.325-11.217-14.325-11.217 0.19914-9.9794 0.39828-19.959 0.59741-29.938zm-1.7546 31.41c0.94655 0.71819 2.8142 2.1291 2.8142 2.1291-0.0129 1.0352-0.0629 3.0566-0.0629 3.0566-0.92853-0.71592-2.8101-2.1732-2.8101-2.1732 3e-3 -0.13628 0.0562-2.8763 0.0588-3.0126zm5.2302 3.9934c0.9447 0.74553 2.8063 2.2076 2.8063 2.2076-0.0153 1.064-0.0699 3.1417-0.0699 3.1417-0.92527-0.74149-2.8027-2.2538-2.8027-2.2538 3e-3 -0.14001 0.0633-2.9555 0.0662-3.0955zm5.2114 4.1356c0.94145 0.7716 2.7939 2.2819 2.7939 2.2819-0.0174 1.094-0.0759 3.23-0.0759 3.23-0.92042-0.7655-2.7908-2.3298-2.7908-2.3298 3e-3 -0.1441 0.0695-3.0382 0.0728-3.1821zm5.1793 4.2665c0.93047 0.79132 2.7579 2.3367 2.7579 2.3367-0.0189 1.1246-0.0803 3.3206-0.0803 3.3206-0.90771-0.78261-2.7557-2.3856-2.7557-2.3856 4e-3 -0.14794 0.0746-3.1237 0.0781-3.2717zm5.1121 4.3682c0.91924 0.81081 2.7207 2.3908 2.7207 2.3908-0.0199 1.1556-0.0827 3.4122-0.0827 3.4122-0.89453-0.79926-2.7196-2.4402-2.7196-2.4402 4e-3 -0.15213 0.078-3.2107 0.0816-3.3628zm5.0306 4.4582c0.89914 0.82287 2.6567 2.4222 2.6567 2.4222-0.02 1.1864-0.0825 3.5035-0.0825 3.5035-0.87243-0.8079-2.6571-2.4711-2.6571-2.4711 4e-3 -0.1563 0.0792-3.2983 0.083-3.4545zm4.9091 4.5147c0.87534 0.83193 2.5811 2.4444 2.5811 2.4444-0.0192 1.2166-0.0793 3.593-0.0793 3.593-0.84647-0.81319-2.5833-2.4921-2.5833-2.4921 4e-3 -0.16038 0.0778-3.3848 0.0815-3.5452zm4.7608 4.5496c0.84706 0.8376 2.4917 2.4562 2.4917 2.4562-0.0171 1.2455-0.0722 3.679-0.0722 3.679-0.81585-0.81466-2.496-2.502-2.496-2.502 4e-3 -0.16426 0.0731-3.4689 0.0765-3.6332z" fill-rule="evenodd" stroke-width=".20877"/><path transform="matrix(.80678 .34045 0 1.0734 80.557 -147.46)" d="m94.587 196.67c1.7348 0.86106 8.9009 3.0305 15.077 4.815 6.3898 1.8461 12.254 3.4212 12.915 2.6803 0.53039-0.59487-7.24-2.6702-15.028-4.8102-7.7544-2.1309-15.327-4.2418-12.964-2.6851 0 1e-5 -1e-6 2e-5 -1e-6 3e-5z" fill-rule="evenodd" filter="url(#filter13653)" style="mix-blend-mode:normal"/><path transform="matrix(.73418 .30981 0 .69304 45.29 -96.082)" d="m153.58 168.36c-4.2999-0.66578-5.368 10.628-1.9266 12.008 3.3121 2.3606 5.8225 0.8938 12.943 2.3957-7.5832 0.70627-11.341 6.1523-2.8554 9.9192 2.3148 0.8027 7.1184 4.4714 11.848 8.8919 4.7855 4.473 8.9924 9.2351 10.668 11.599 1.1241 1.5864 1.435 0.0498 2.0331-1.4146 0.59808-1.4644 1.49-2.8722 3.7104-0.90278 0.66482-1.3234 1.9607-4.0752 1.9607-4.0752 1.2066 1.356 3.552 4.06 3.552 4.06-1.0768-0.4058-1.6641-4.383-4.2493-8.9906-2.587-4.611-7.163-9.811-16.759-12.332 8.6372 1.4719 15.824-2.2588 12.166-6.3966-1.73-1.9571-5.9447-4.0443-13.92-5.339-11.323-1.8383-6.721-3.668-3.6721-2.9904 4.6003 1.0224 7.0046 0.62103 6.8457-0.4096-0.15758-1.0222-2.8858-2.6641-8.791-3.7022-6.051-2.1248-9.2488-1.5733-13.554-2.3212v-4e-5z" fill="url(#linearGradient92694)" filter="url(#filter90209)" opacity=".64286" style="mix-blend-mode:normal"/><use transform="matrix(.99734 .080324 0 1.271 41.81 -2.085)" xlink:href="#use92668"/><path d="m108.36 44.988-2.3085 0.09007c0.84806 1.8205 1.1221 3.4387 0.78507 5.0337s-1.1803 2.5941-2.6393 3.0436l0.98086 2.5476c2.0283-0.5297 3.4824-1.8332 3.9672-3.9157 0.48479-2.0826 0.2815-4.3884-0.78528-6.7992z" fill="url(#linearGradient10326)" opacity=".16667"/><path d="m105.77 41.187c2.9811 3.3258 4.3018 7.5389 3.3567 10.814-0.59998 1.9346-1.9394 3.2824-3.8572 3.8186m-1.0368-13.261c2.0393 2.2821 3.0246 5.145 2.5574 7.5282-0.33587 1.4955-1.216 2.5604-2.532 3.0636" fill="none" stroke="url(#linearGradient10330)" stroke-linecap="round" stroke-linejoin="round" stroke-width=".25301"/><path d="m96.125 47.134c-0.73099-1.2927-0.85244-2.6005-0.57001-3.4787 0.28244-0.87815 0.91073-1.7624 2.002-2.0256" fill="none" opacity=".8" stroke="url(#linearGradient10334)" stroke-linecap="round" stroke-linejoin="round" stroke-width=".25301"/></g></g></svg>
