<?xml version="1.0" encoding="UTF-8" standalone="no"?>
<!-- Created with Inkscape (http://www.inkscape.org/) -->

<svg
   xmlns:dc="http://purl.org/dc/elements/1.1/"
   xmlns:cc="http://creativecommons.org/ns#"
   xmlns:rdf="http://www.w3.org/1999/02/22-rdf-syntax-ns#"
   xmlns:svg="http://www.w3.org/2000/svg"
   xmlns="http://www.w3.org/2000/svg"
   version="1.1"
   width="100%"
   height="100%"
   viewBox="0 0 248.19699 168.83299"
   id="svg2">
  <desc
     id="desc4">Matlab Figure Converted by PLOT2SVG written by Juerg Schwizer</desc>
  <metadata
     id="metadata10469">
    <rdf:RDF>
      <cc:Work
         rdf:about="">
        <dc:format>image/svg+xml</dc:format>
        <dc:type
           rdf:resource="http://purl.org/dc/dcmitype/StillImage" />
        <dc:title></dc:title>
      </cc:Work>
    </rdf:RDF>
  </metadata>
  <defs
     id="defs10467" />
  <path
     d="m 127.71875,0.03125 c 1.96953,0.68706766 3.77873,1.728511 5.53125,2.84375 5.68444,-0.1664634 11.35972,0.1351305 17.03125,0.46875 -1.73194,-1.1492389 -3.57847,-2.1023993 -5.53125,-2.8125 -5.6651,-0.45913017 -11.34995,-0.58354857 -17.03125,-0.5 z m -4.25,0.125 c -5.70361,0.2336956 -11.37548,0.81394241 -17.03125,1.5625 1.95847,0.6900238 3.78385,1.7005175 5.53125,2.8125 C 117.61899,3.7613446 123.30363,3.2513106 129,3 127.28567,1.8094865 125.39256,0.94326338 123.46875,0.15625 z M 149,0.90625 c 1.96418,0.6694319 3.78573,1.7017145 5.53125,2.8125 5.71276,0.5944911 11.3908,1.4529283 17.03125,2.53125 C 169.85207,5.0455955 167.95676,4.1939604 166.03125,3.40625 160.39919,2.2891664 154.71106,1.4856327 149,0.90625 z m -46.8125,1.4375 C 96.464888,3.3096165 90.767826,4.4520829 85.15625,5.9375 87.106815,6.6380546 88.941831,7.6391195 90.6875,8.75 96.310308,7.3225043 101.99157,6.1139557 107.71875,5.1875 106.00019,4.0048872 104.11138,3.1307925 102.1875,2.34375 z m 32.46875,1.5 c 2.00275,1.4247295 3.75993,3.1494432 5.53125,4.84375 5.68351,-0.080003 11.36274,0.089238 17.03125,0.5 -1.73044,-1.7529327 -3.58348,-3.3699033 -5.53125,-4.875 -5.66508,-0.4641114 -11.35053,-0.55229 -17.03125,-0.46875 z m -4.28125,0.125 C 124.103,4.2953783 119.00738,4.7504024 113.34375,5.5 c 1.99941,1.4415661 3.79164,3.1353901 5.53125,4.875 5.65135,-0.7706117 11.33386,-1.2798945 17.03125,-1.53125 -1.66132,-1.8295873 -3.58341,-3.3698478 -5.53125,-4.875 z m 39.9375,0.34375 c 1.96346,0.6759081 3.78484,1.7011488 5.53125,2.8125 5.74468,1.2638733 11.4064,2.8505892 17.03125,4.5625 -1.72987,-1.168721 -3.60534,-2.0558794 -5.53125,-2.84375 C 181.73627,7.0795573 176.0521,5.5785891 170.3125,4.3125 z m -14.375,0.375 c 1.9717,1.4743322 3.79243,3.136185 5.53125,4.875 5.71797,0.542825 11.39215,1.453188 17.03125,2.53125 -1.6913,-1.79287 -3.58414,-3.3704114 -5.53125,-4.875 C 167.33901,6.0657565 161.63964,5.35834 155.9375,4.6875 z m -46.84375,1.46875 c -5.72932,0.9221197 -11.402883,2.1554082 -17.03125,3.5625 1.99347,1.451281 3.791265,3.135015 5.53125,4.875 5.62016,-1.451631 11.30209,-2.635724 17.03125,-3.5625 -1.69439,-1.7852366 -3.54058,-3.4272419 -5.53125,-4.875 z M 80.90625,7.0625 c -5.768034,1.593637 -11.417957,3.561289 -17.03125,5.625 1.930762,0.74325 3.819326,1.676529 5.53125,2.84375 5.568779,-2.194858 11.293752,-3.937501 17.03125,-5.625 C 84.697913,8.7506893 82.833288,7.8508336 80.90625,7.0625 z m 96.3125,1.03125 c 2.01998,1.5283684 3.9853,3.332564 5.53125,4.875 5.75001,1.241656 11.41327,2.827536 17.03125,4.5625 -1.70386,-1.770251 -3.54256,-3.428678 -5.53125,-4.875 -5.59469,-1.822363 -11.3081,-3.215876 -17.03125,-4.5625 z M 141.5625,10.1875 c 1.98812,2.171216 3.79154,4.502672 5.53125,6.875 5.68335,-0.07635 11.3631,0.08322 17.03125,0.5 -1.70296,-2.41177 -3.58181,-4.690977 -5.53125,-6.90625 -5.82598,-0.440889 -11.98586,-0.537879 -17.03125,-0.46875 z m -4.25,0.125 c -5.69916,0.210199 -11.37949,0.783222 -17.03125,1.53125 1.96864,2.199545 3.78641,4.526916 5.53125,6.90625 5.65033,-0.779208 11.33395,-1.279899 17.03125,-1.53125 -1.7175,-2.400101 -3.58197,-4.691155 -5.53125,-6.90625 z m -49.5,0.5625 c -5.756209,1.627414 -11.443914,3.488666 -17.03125,5.625 1.986252,1.443163 3.797302,3.109802 5.53125,4.84375 C 81.914775,19.260145 87.586406,17.35867 93.34375,15.75 91.661607,13.944308 89.760517,12.380286 87.8125,10.875 z m 75.03125,0.15625 c 1.99219,2.183637 3.78522,4.525295 5.53125,6.90625 6.28774,0.687745 11.37979,1.450824 17.03125,2.53125 -1.68349,-2.427307 -3.58184,-4.691013 -5.53125,-6.90625 -5.63506,-1.107989 -11.31933,-1.943258 -17.03125,-2.53125 z M 116,12.5 c -5.73799,0.878008 -11.39825,2.174659 -17.03125,3.5625 2.03956,2.148921 3.76403,4.56042 5.5625,6.90625 5.61994,-1.453285 11.29946,-2.648737 17.03125,-3.5625 C 119.8176,17.015603 118.00451,14.67882 116,12.5 z m -56.40625,1.84375 c -5.792814,2.278458 -11.419014,4.940887 -17.03125,7.625 1.967004,0.694041 3.777949,1.728013 5.53125,2.84375 5.58415,-2.744879 11.247417,-5.328478 17.03125,-7.625 -1.725645,-1.141384 -3.572016,-2.162277 -5.53125,-2.84375 z M 184.125,14.4375 c 2.02152,2.155746 3.78605,4.526439 5.53125,6.90625 5.75343,1.228401 11.41327,2.827536 17.03125,4.5625 C 205.01516,23.467587 203.10649,21.216187 201.15625,19 195.55578,17.209943 189.86603,15.703904 184.125,14.4375 z m -89.40625,2.78125 c -5.757378,1.612569 -11.421181,3.531225 -17.03125,5.59375 2.013414,2.164294 3.785804,4.526096 5.53125,6.90625 C 88.826875,27.652066 94.492577,25.733692 100.25,24.125 98.572893,21.691803 96.66853,19.434409 94.71875,17.21875 z m -28.1875,0.9375 c -5.809395,2.239258 -11.434051,4.908712 -17.03125,7.625 1.996367,1.448111 3.791108,3.134858 5.53125,4.875 C 60.587618,27.843081 66.305928,25.370353 72.0625,23 70.325483,21.271546 68.515383,19.599256 66.53125,18.15625 z m 81.9375,0.90625 C 150.4643,21.946692 152.27759,24.946629 154,28 c 5.68473,-0.186058 11.35951,0.135118 17.03125,0.46875 -1.70966,-3.061344 -3.58704,-6.02118 -5.53125,-8.9375 -5.66815,-0.423667 -11.34913,-0.552311 -17.03125,-0.46875 z m -4.25,0.125 c -5.69861,0.231704 -11.37834,0.783071 -17.03125,1.53125 1.97226,2.899706 3.77499,5.903952 5.53125,8.9375 5.65036,-0.77628 11.33416,-1.279908 17.03125,-1.53125 -1.71063,-3.059094 -3.58757,-6.021974 -5.53125,-8.9375 z M 169.75,19.90625 c 2.00648,2.874676 3.77591,5.905548 5.53125,8.9375 5.71523,0.575281 11.3907,1.452909 17.03125,2.53125 -1.69446,-3.070969 -3.58706,-6.021221 -5.53125,-8.9375 C 181.15144,21.292274 175.45286,20.567451 169.75,19.90625 z M 122.9375,21.375 c -5.73082,0.914963 -11.40277,2.155381 -17.03125,3.5625 1.95034,2.911937 3.77566,5.905118 5.53125,8.9375 5.62281,-1.427496 11.30407,-2.636044 17.03125,-3.5625 -1.72518,-3.050396 -3.58747,-6.021834 -5.53125,-8.9375 z m 68.125,1.9375 c 1.95382,2.908928 3.77578,5.905324 5.53125,8.9375 5.74468,1.263873 11.4064,2.850589 17.03125,4.5625 -1.75069,-3.037331 -3.58671,-6.020685 -5.53125,-8.9375 -5.60282,-1.792952 -11.30826,-3.215913 -17.03125,-4.5625 z m -152.75,0.84375 c -5.809385,2.978834 -11.442236,6.286403 -17.03125,9.65625 1.968193,0.702482 3.775499,1.726454 5.53125,2.84375 5.564797,-3.422012 11.258047,-6.631099 17.03125,-9.6875 -1.736161,-1.135825 -3.580728,-2.103219 -5.53125,-2.8125 z m 35.125,0.3125 c -5.785892,2.308622 -11.429523,4.937765 -17.03125,7.65625 1.974741,2.194603 3.822705,4.498755 5.53125,6.90625 5.56053,-2.802403 11.275129,-5.286083 17.03125,-7.65625 -1.693502,-2.420418 -3.581322,-4.690422 -5.53125,-6.90625 z m 28.21875,1.625 c -5.759917,1.612852 -11.444565,3.488914 -17.03125,5.625 1.954394,2.907691 3.809782,5.885807 5.53125,8.9375 5.568779,-2.194858 11.29375,-3.937501 17.03125,-5.625 -1.76387,-3.029162 -3.58667,-6.020625 -5.53125,-8.9375 z m -56.4375,1.84375 c -5.772566,3.037482 -11.450108,6.259625 -17,9.6875 1.99736,1.440605 3.792803,3.136553 5.53125,4.875 5.544845,-3.455469 11.239405,-6.665668 17.03125,-9.6875 -1.822706,-1.763197 -3.804051,-3.567161 -5.5625,-4.875 z m 110.1875,2.53125 c 1.98349,3.585083 3.70005,7.306358 5.53125,10.96875 6.26138,-0.03279 11.34692,0.08809 17.03125,0.5 -1.76021,-3.69851 -3.59459,-7.359512 -5.53125,-10.96875 -5.6651,-0.439101 -11.35074,-0.583537 -17.03125,-0.5 z M 151.125,30.625 c -5.70067,0.204794 -11.37875,0.783125 -17.03125,1.53125 1.98257,3.584759 3.79493,7.259347 5.53125,10.96875 5.6493,-0.789956 11.33374,-1.279889 17.03125,-1.53125 C 154.968,37.858999 153.06145,34.233832 151.125,30.625 z m 25.5625,0.71875 c 1.93728,3.608042 3.79511,7.259714 5.53125,10.96875 5.71797,0.542825 11.39215,1.453188 17.03125,2.53125 -1.7465,-3.704523 -3.59486,-7.360031 -5.53125,-10.96875 -5.63339,-1.118474 -11.31916,-1.943241 -17.03125,-2.53125 z m -46.84375,1.46875 c -5.74134,0.863063 -11.40287,2.155406 -17.03125,3.5625 1.97652,3.588842 3.79457,7.258572 5.53125,10.96875 5.61128,-1.498307 11.31563,-2.58511 17.03125,-3.59375 -1.70369,-3.717104 -3.59882,-7.33616 -5.53125,-10.9375 z m -49.5,0.5625 C 74.535943,35.618391 68.924644,38.315931 63.3125,41 c 2.01521,2.869154 3.775871,5.905482 5.53125,8.9375 5.58415,-2.744879 11.247417,-5.328478 17.03125,-7.625 -1.711574,-3.058258 -3.526909,-6.061706 -5.53125,-8.9375 z m -28.1875,0.90625 c -5.786381,3.031956 -11.47314,6.25455 -17.03125,9.6875 1.964067,2.202377 3.823221,4.499483 5.53125,6.90625 5.535301,-3.472767 11.257955,-6.63105 17.03125,-9.6875 -1.715101,-2.402088 -3.581969,-4.691158 -5.53125,-6.90625 z M 197.96875,34.75 c 1.94747,3.603709 3.79478,7.259015 5.53125,10.96875 5.74623,1.233402 11.41735,2.797545 17.03125,4.53125 C 218.80562,46.545168 216.932,42.913042 215,39.3125 209.40615,37.501728 203.7092,36.016277 197.96875,34.75 z M 17.03125,36.5 C 11.195838,40.162974 5.5872466,44.161396 0,48.1875 1.9605527,48.901404 3.7763052,49.914467 5.53125,51.03125 11.093982,46.974381 16.742311,43.024164 22.5625,39.34375 20.849303,38.176166 18.980982,37.208993 17.03125,36.5 z m 91.53125,1.03125 c -5.76626,1.584038 -11.421441,3.53132 -17.03125,5.59375 1.936766,3.609014 3.794861,7.259191 5.53125,10.96875 5.5954,-2.100078 11.27471,-3.985306 17.03125,-5.59375 -1.71716,-3.718411 -3.59499,-7.360266 -5.53125,-10.96875 z m -84.625,2.75 C 18.147508,44.019701 12.458934,47.917144 6.90625,52 c 1.9973248,1.442917 3.829324,3.095713 5.53125,4.875 5.552957,-4.083591 11.244738,-7.974536 17.03125,-11.71875 -1.6917,-1.796043 -3.583937,-3.370258 -5.53125,-4.875 z m 35.125,2.875 c -5.800091,3.009608 -11.437184,6.314607 -17.03125,9.6875 1.978696,2.894513 3.8088,5.884067 5.53125,8.9375 5.564797,-3.422012 11.258047,-6.631099 17.03125,-9.6875 -1.709662,-3.061344 -3.587037,-6.02118 -5.53125,-8.9375 z m 103.25,1.28125 c 1.92796,4.297296 3.78203,8.626939 5.53125,13 5.68224,-0.125085 11.36465,0.08334 17.03125,0.5 -1.73601,-4.377942 -3.60235,-8.703824 -5.53125,-13 -5.66512,-0.457665 -11.34998,-0.583548 -17.03125,-0.5 z m -4.25,0.125 c -5.70011,0.253674 -11.37667,0.8141 -17.03125,1.5625 1.91753,4.300682 3.78237,8.627798 5.53125,13 5.64686,-0.827577 11.33823,-1.227616 17.03125,-1.5625 -1.75871,-4.369444 -3.63452,-8.689254 -5.53125,-13 z M 87.28125,44.78125 C 81.503871,47.100991 75.818577,49.653211 70.25,52.4375 c 1.937275,3.608042 3.795105,7.259714 5.53125,10.96875 C 81.335677,60.587603 87.055756,58.120424 92.8125,55.75 91.067171,52.04583 89.217356,48.389447 87.28125,44.78125 z m 96.3125,0.53125 c 1.94879,4.288821 3.78181,8.626388 5.53125,13 5.71289,0.56244 11.39388,1.422268 17.03125,2.5 -1.71802,-4.386738 -3.63441,-8.689005 -5.53125,-13 -5.63312,-1.104229 -11.3221,-1.912293 -17.03125,-2.5 z M 30.875,46.625 C 25.06117,50.329358 19.396891,54.260558 13.84375,58.34375 15.794727,60.553883 17.668303,62.845108 19.375,65.25 24.899441,61.125866 30.619825,57.275407 36.40625,53.53125 34.678342,51.137828 32.82472,48.840591 30.875,46.625 z M 136.75,46.75 c -5.73707,0.907119 -11.39547,2.205224 -17.03125,3.59375 2.01368,4.263276 3.74418,8.651833 5.5625,13 5.61124,-1.499014 11.31277,-2.599233 17.03125,-3.59375 -1.8151,-4.349583 -3.55925,-8.732203 -5.5625,-13 z m 68.125,1.96875 c 1.98031,4.274019 3.78208,8.62708 5.53125,13 5.74953,1.220188 11.41731,2.797533 17.03125,4.53125 -1.71339,-4.388646 -3.60217,-8.703411 -5.53125,-13 C 216.29993,51.481767 210.6144,49.984795 204.875,48.71875 z M 115.46875,51.5 c -5.76204,1.59453 -11.4219,3.53149 -17.03125,5.59375 1.97411,4.276503 3.78214,8.627219 5.53125,13 C 109.56363,67.975985 115.26291,66.156131 121,64.46875 119.2831,60.091274 117.39413,55.788348 115.46875,51.5 z M 66,54.59375 c -5.809323,2.992491 -11.472632,6.254236 -17.03125,9.6875 1.989782,3.570974 3.704232,7.283465 5.53125,10.9375 C 60.054561,71.786213 65.743262,68.58232 71.53125,65.5625 69.766541,61.866636 67.936538,58.202752 66,54.59375 z m -28.21875,0.9375 c -5.807631,3.701491 -11.483014,7.607915 -17.03125,11.6875 1.957041,2.90789 3.809128,5.884648 5.53125,8.9375 C 31.825405,72.061078 37.526096,68.181644 43.3125,64.4375 41.583198,61.400003 39.761768,58.412004 37.78125,55.53125 z M 94.1875,58.75 c -5.768845,2.340072 -11.462628,4.871939 -17.03125,7.65625 1.960362,4.283889 3.781827,8.626442 5.53125,13 5.550749,-2.823137 11.275469,-5.286223 17.03125,-7.65625 -1.728023,-4.381587 -3.602279,-8.703656 -5.53125,-13 z m 75.03125,2.1875 c 1.93952,4.975342 3.7708,9.989955 5.53125,15.03125 5.68102,-0.10936 11.36551,0.0834 17.03125,0.5 -1.78754,-5.189652 -3.82372,-10.604897 -5.53125,-15.03125 -5.66481,-0.44237 -11.35084,-0.583535 -17.03125,-0.5 z m -4.25,0.125 c -5.69997,0.256574 -11.37663,0.814094 -17.03125,1.5625 1.94291,4.974008 3.77086,9.990122 5.53125,15.03125 5.64697,-0.824695 11.33832,-1.227622 17.03125,-1.5625 -1.74231,-5.047271 -3.63773,-10.039248 -5.53125,-15.03125 z m 25.53125,0.75 c 1.98644,4.955969 3.77119,9.991088 5.53125,15.03125 5.72366,0.498186 11.37987,1.502698 17.03125,2.5 -1.71201,-5.059078 -3.63771,-10.039191 -5.53125,-15.03125 -5.63712,-1.087934 -11.31964,-1.920562 -17.03125,-2.5 z M 143.6875,63.25 c -5.73657,0.909962 -11.39971,2.185866 -17.03125,3.59375 1.91673,4.982969 3.77109,9.990803 5.53125,15.03125 5.6095,-1.508035 11.31539,-2.585068 17.03125,-3.59375 C 147.46307,73.239055 145.58099,68.241917 143.6875,63.25 z m 68.125,1.96875 c 1.91064,4.984883 3.77122,9.991154 5.53125,15.03125 5.74957,1.221652 11.41048,2.82058 17.03125,4.53125 C 232.6022,79.745086 230.73727,74.742005 228.84375,69.75 223.23114,68.00399 217.552,66.484816 211.8125,65.21875 z M 44.6875,66.9375 C 38.88846,70.662454 33.208964,74.573372 27.65625,78.65625 29.646741,82.236907 31.451178,85.915586 33.1875,89.625 38.735499,85.533038 44.4318,81.650747 50.21875,77.90625 48.523636,74.175693 46.623932,70.546305 44.6875,66.9375 z M 122.40625,68 c -5.76989,1.56936 -11.42198,3.53152 -17.03125,5.59375 2.08922,5.503543 3.76208,9.964992 5.53125,15.03125 5.59427,-2.105373 11.27421,-3.985164 17.03125,-5.59375 C 126.14983,78.000244 124.32887,72.981322 122.40625,68 z m -49.5,0.5625 c -5.817331,2.968677 -11.441071,6.285701 -17.03125,9.65625 1.92349,4.299493 3.78193,8.626699 5.53125,13 5.544858,-3.449751 11.262007,-6.601945 17.03125,-9.65625 -1.736013,-4.377942 -3.602354,-8.703824 -5.53125,-13 z m 28.1875,6.6875 c -5.776445,2.323609 -11.44687,4.904527 -17.03125,7.65625 1.986444,4.955969 3.771193,9.991088 5.53125,15.03125 5.569044,-2.788378 11.2743,-5.285742 17.03125,-7.65625 -1.77906,-5.033277 -3.53321,-10.079587 -5.53125,-15.03125 z m 75.0625,4.75 c 1.96031,5.649412 3.68875,11.374775 5.53125,17.0625 5.68215,-0.135226 11.36404,0.05808 17.03125,0.46875 -1.79614,-5.703075 -3.64044,-11.390083 -5.53125,-17.0625 C 187.52242,80.004639 181.83697,79.91646 176.15625,80 z m -4.28125,0.125 c -5.69845,0.216465 -11.37966,0.783245 -17.03125,1.53125 1.9534,5.651422 3.76153,11.351146 5.53125,17.0625 5.65135,-0.770612 11.33386,-1.279895 17.03125,-1.53125 -1.72996,-5.72461 -3.61432,-11.398843 -5.53125,-17.0625 z m 25.5625,0.71875 c 1.8925,5.671518 3.76161,11.351374 5.53125,17.0625 5.71378,0.58594 11.39071,1.452911 17.03125,2.53125 -1.79667,-5.702481 -3.61435,-11.398931 -5.53125,-17.0625 -5.6368,-1.093052 -11.31997,-1.943324 -17.03125,-2.53125 z M 51.625,80.90625 c -5.830575,3.66952 -11.444298,7.661608 -17.03125,11.6875 1.91762,4.301518 3.75441,8.63867 5.53125,13 5.541242,-4.09316 11.2489,-7.945979 17.03125,-11.6875 -1.76957,-4.36425 -3.602208,-8.703498 -5.53125,-13 z m 98.96875,1.40625 c -5.72932,0.92212 -11.40288,2.155408 -17.03125,3.5625 1.93691,5.657423 3.76143,11.350806 5.53125,17.0625 5.62455,-1.41767 11.30447,-2.63611 17.03125,-3.5625 -1.7265,-5.725479 -3.6143,-11.398774 -5.53125,-17.0625 z m 68.125,1.9375 c 1.90375,5.668378 3.76147,11.350942 5.53125,17.0625 5.74626,1.26022 11.41236,2.82726 17.03125,4.5625 -1.752,-5.71662 -3.61441,-11.399121 -5.53125,-17.0625 -5.59469,-1.822363 -11.3081,-3.215876 -17.03125,-4.5625 z M 79.8125,85.0625 c -5.80508,2.989333 -11.441507,6.285964 -17.03125,9.65625 1.939519,4.975342 3.770798,9.98995 5.53125,15.03125 5.558856,-3.42579 11.26205,-6.60197 17.03125,-9.65625 C 83.621237,95.038812 81.73511,90.043808 79.8125,85.0625 z m 49.5,1.96875 c -5.76155,1.602066 -11.42059,3.531008 -17.03125,5.59375 1.89623,5.680967 3.78106,11.36586 5.53125,17.09375 5.73453,-2.22322 11.93589,-4.12438 17.03125,-5.625 -1.82739,-5.86853 -3.8303,-12.029307 -5.53125,-17.0625 z m -21.28125,7.28125 c -5.8094,2.239258 -11.434051,4.908712 -17.03125,7.625 1.896105,5.67016 3.761638,11.35148 5.53125,17.0625 5.56986,-2.7754 11.24763,-5.32856 17.03125,-7.625 -1.76619,-5.71182 -3.61444,-11.39919 -5.53125,-17.0625 z m -49.5,3.09375 C 52.72539,101.12289 47.053292,105.0417 41.5,109.125 c 1.945115,4.97331 3.770846,9.99009 5.53125,15.03125 5.529786,-4.11592 11.244938,-7.97467 17.03125,-11.71875 -1.732589,-5.05082 -3.608718,-10.05014 -5.53125,-15.03125 z m 124.53125,4.1562 c 1.90201,6.34785 3.75351,12.71004 5.53125,19.09375 5.68099,-0.10825 11.36552,0.0833 17.03125,0.49995 -1.77059,-6.38522 -3.61924,-12.74936 -5.53125,-19.09375 -5.66482,-0.44096 -11.35088,-0.58335 -17.03125,-0.49995 z m -4.25,0.1563 c -5.70138,0.19849 -11.37858,0.78305 -17.03125,1.5312 1.88615,6.35193 3.75364,12.7105 5.53125,19.09375 5.64827,-0.79851 11.33384,-1.27998 17.03125,-1.5312 -1.79635,-6.37782 -3.61921,-12.74926 -5.53125,-19.09375 z m 25.53125,0.71875 c 1.92296,6.34182 3.75347,12.70989 5.53125,19.09375 5.71928,0.53587 11.3919,1.45314 17.03125,2.53125 -1.74478,-6.39283 -3.61921,-12.74924 -5.53125,-19.09375 -5.6319,-1.12709 -11.31922,-1.94325 -17.03125,-2.53125 z M 157.5,103.875 c -5.73707,0.90712 -11.39547,2.20522 -17.03125,3.59375 1.99453,6.32273 3.7095,12.72911 5.5625,19.09375 5.61467,-1.47083 11.3004,-2.64889 17.03125,-3.5625 -1.82403,-6.38384 -3.59174,-12.7843 -5.5625,-19.125 z m -70.75,0.21875 c -5.79262,3.01823 -11.473997,6.25508 -17.03125,9.6875 1.960313,5.64941 3.688747,11.37477 5.53125,17.0625 5.560455,-3.4289 11.239472,-6.6657 17.03125,-9.6875 -1.79614,-5.70307 -3.640444,-11.39008 -5.53125,-17.0625 z m 138.875,1.75 c 1.95801,6.33102 3.75356,12.71024 5.53125,19.09375 5.74454,1.24598 11.43811,2.75296 17.03125,4.5625 -1.71784,-6.4114 -3.64012,-12.76391 -5.53125,-19.125 -5.60632,-1.76823 -11.29185,-3.26521 -17.03125,-4.53125 z m -89.40625,2.78125 c -5.76204,1.59453 -11.4219,3.53149 -17.03125,5.59375 1.9528,6.33249 3.75354,12.71014 5.53125,19.09375 5.60136,-2.08325 11.27468,-3.9853 17.03125,-5.59375 -1.73007,-6.39736 -3.61918,-12.74914 -5.53125,-19.09375 z m -21.28125,7.25 c -5.76884,2.34007 -11.46263,4.87194 -17.03125,7.65625 1.922955,6.34182 3.75347,12.70989 5.53125,19.09375 5.55871,-2.80794 11.27496,-5.28601 17.03125,-7.65625 -1.74281,-6.39378 -3.64289,-12.742 -5.53125,-19.09375 z m -49.5,0.5625 c -5.789992,3.73845 -11.478566,7.63589 -17.03125,11.71875 1.962186,5.6486 3.761559,11.35122 5.53125,17.0625 5.552957,-4.08359 11.244738,-7.97454 17.03125,-11.71875 -1.723221,-5.72668 -3.640546,-11.39039 -5.53125,-17.0625 z m 28.21875,9.25 c -5.817331,2.96868 -11.441071,6.2857 -17.03125,9.65625 1.888488,6.36228 3.771465,12.72578 5.53125,19.125 5.526606,-3.48746 11.258125,-6.63114 17.03125,-9.6875 -1.770592,-6.38522 -3.619242,-12.74936 -5.53125,-19.09375 z M 72.375,138.03125 c -5.822883,3.69086 -11.478074,7.63553 -17.03125,11.71875 1.882924,6.35249 3.774367,12.70509 5.53125,19.09375 5.519463,-4.13254 11.244384,-7.97431 17.03125,-11.71875 -1.789358,-6.38019 -3.642933,-12.74214 -5.53125,-19.09375 z"
     id="polyline17"
     style="fill:#ff0000;fill-opacity:1;stroke:none" />
</svg>
