<?xml version="1.0" encoding="UTF-8" standalone="no"?>
<svg id="svg2" xmlns="http://www.w3.org/2000/svg" height="185" width="180" version="1.0">
 <path fill-opacity=".2" d="m164 82c6.8 48-24 92-67.84 98.26-44.26 6.24-85.56-27.56-92.26-75.46-6.69-47.93 23.7-91.82 67.9-98.06 44.27-6.23 85.6 27.56 92.3 75.46z"/>
 <path fill="#02b" d="m176 80.2c6.79 47.93-23.6 91.8-67.9 98.06-44.2 6.24-85.5-27.56-92.2-75.47s23.72-91.82 67.94-98.05c44.23-6.23 85.56 27.56 92.26 75.46z"/>
 <path fill="#eef" d="m160 82.5c5 38.3-19 73.4-54.3 78.4-35.4 5-68.4-22-73.8-60.4-5.3-38.5 19-73.5 54.4-78.5 35.4-4.9 68.39 22.14 73.7 60.5z"/>
 <path fill="#02b" d="m63.97 142.36c-4.07-0.16-6.97-3.36-7.27-7.36 0-3.1-2.94-13.3 3.1-18.01l16.2-13.99c21-14.4 6-45-19.3-27.6-3.1 2.1-13.7 7.2-14.23-1.9-0.47-3.7 3.53-7.4 10.73-11 14.79-8.5 30-6.7 39.8 6.2 18.7 23.5-0.3 38.06-19.7 53.2-5.102 3.98-2 10.77-4.06 17.6-1.64 1.9-3.34 2.9-5.27 2.9zm-2.97 24.14c-2.03 0-3.9-0.7-5.6-2.05-5.7-5.45-0.84-16.09 6.55-16.85 10.05 0.4 8.05 18-0.95 18.9z" transform="matrix(1 -.27 .27 1 0 0)"/>
</svg>
