<?xml version="1.0" encoding="UTF-8" standalone="no"?>
<svg
   xmlns:dc="http://purl.org/dc/elements/1.1/"
   xmlns:cc="http://creativecommons.org/ns#"
   xmlns:rdf="http://www.w3.org/1999/02/22-rdf-syntax-ns#"
   xmlns:svg="http://www.w3.org/2000/svg"
   xmlns="http://www.w3.org/2000/svg"
   xmlns:sodipodi="http://sodipodi.sourceforge.net/DTD/sodipodi-0.dtd"
   xmlns:inkscape="http://www.inkscape.org/namespaces/inkscape"
   id="svg2"
   version="1.1"
   viewBox="0 0 180 185"
   height="185"
   width="180"
   inkscape:version="0.92.4 (5da689c313, 2019-01-14)"
   sodipodi:docname="Symbol_portal_class (small).svg">
  <sodipodi:namedview
     pagecolor="#ffffff"
     bordercolor="#666666"
     borderopacity="1"
     objecttolerance="10"
     gridtolerance="10"
     guidetolerance="10"
     inkscape:pageopacity="0"
     inkscape:pageshadow="2"
     inkscape:window-width="1366"
     inkscape:window-height="705"
     id="namedview9"
     showgrid="false"
     inkscape:zoom="2.5513514"
     inkscape:cx="138.15593"
     inkscape:cy="91.067385"
     inkscape:window-x="-8"
     inkscape:window-y="-8"
     inkscape:window-maximized="1"
     inkscape:current-layer="svg2" />
  <metadata
     id="metadata12">
    <rdf:RDF>
      <cc:Work
         rdf:about="">
        <dc:format>image/svg+xml</dc:format>
        <dc:type
           rdf:resource="http://purl.org/dc/dcmitype/StillImage" />
        <dc:title></dc:title>
      </cc:Work>
    </rdf:RDF>
  </metadata>
  <defs
     id="defs10" />
  <path
     id="_1"
     style="fill-opacity:0.2"
     d="M 164.07,82.2 C 170.8,130.13 140.4,174 96.2,180.3 C 51.9,186.5 10.6,152.7 3.93,104.79 C -2.79,56.87 27.6,12.98 71.843612,6.7 C 116.1,0.5 157.4,34.3 164,82.21z" />
  <path
     id="_2"
     style="fill:#7d3546;fill-opacity:1"
     d="M 176.07,80.2 C 182.8,128 152.4,172.03 108.16,178.26 C 63.9,184.5 22.6,150.7 15.9,102.79 C 9.22,54.9 39.6,10.9 83.8,4.7 C 128,-1.5 169,32.3 176,80.2 z" />
  <path
     id="_3"
     style="fill:#e8c8d0;fill-opacity:1"
     d="M 160.057,82.470048 C 165.43,120.8 141.1,155.9 105.7,160.9 C 70.35,165.89 37.3,138.9 31.9,100.5 C 26.6,62.2 50.9,27 86.3,22 C 121.7,17.1 154.7,44 160.057,82.5 L 160.057,82.5 z" />
  <path
     inkscape:connector-curvature="0"
     d="m 103.98404,51.767334 c 0.40813,0.03092 0.82244,-0.04947 1.23057,0.01855 1.4037,-0.02473 2.80741,-0.03092 4.21111,-0.04947 0.30919,0.01855 0.62456,-0.0371 0.93375,0.02474 1.5212,-0.0062 3.04239,-0.0062 4.56977,-0.01237 0.69876,0.05565 1.40371,0.01855 2.10247,0.0371 0.68021,-0.0062 1.36042,0.0062 2.04063,0.0062 1.45936,0.08657 2.92491,0.0062 4.38427,0.105123 0.73586,0.04329 1.51501,-0.08657 2.19522,0.247349 1.08834,0.426678 1.89222,1.515014 1.91077,2.689923 -0.0495,0.296819 -0.17933,0.58127 -0.28445,0.865722 -0.69258,2.04063 -1.2924,4.118363 -1.80565,6.214647 -0.13604,0.41431 -0.17314,0.853355 -0.30918,1.261481 -0.12986,0.667843 -0.31538,1.323318 -0.41431,1.997344 -0.14223,0.51325 -0.1917,1.045051 -0.32156,1.5583 -0.0804,0.389575 -0.10512,0.791518 -0.20406,1.181092 -0.0989,0.482331 -0.12368,0.97703 -0.23498,1.45936 -0.10513,0.581271 -0.12368,1.174909 -0.24117,1.75618 -0.0804,0.544168 -0.0989,1.100703 -0.18551,1.644871 -0.11131,0.77915 -0.10512,1.564484 -0.21643,2.343634 -0.0495,0.742047 -0.0742,1.484095 -0.10512,2.226142 -0.0618,0.51325 -0.0495,1.026499 -0.0618,1.545932 0.006,0.717313 -0.0495,1.446993 0.068,2.164306 0.0742,0.667842 0.27208,1.323318 0.57509,1.929323 0.22261,0.383391 0.48851,0.748231 0.85335,1.014132 0.68021,0.5318 1.60159,0.636924 2.43639,0.525617 0.35866,-0.06184 0.7235,-0.105124 1.06978,-0.228798 0.40195,-0.166961 0.83481,-0.24735 1.21202,-0.469964 1.31713,-0.587454 2.51677,-1.403706 3.66076,-2.28798 1.08834,-0.853354 2.10247,-1.805648 3.04858,-2.807413 0.53799,-0.618372 1.31095,-0.970845 2.07773,-1.205827 0.60601,-0.228798 1.2553,-0.303002 1.89223,-0.401942 1.30476,-0.14841 2.6219,-0.179328 3.92666,-0.04329 0.5318,0.09276 1.08216,0.105123 1.60777,0.247349 0.38339,0.09894 0.78534,0.136042 1.15018,0.284452 1.21201,0.340105 2.4302,0.902824 3.22172,1.910772 1.36042,1.694342 2.21377,3.734972 2.86925,5.794154 0.12986,0.36484 0.21643,0.742047 0.30919,1.119255 0.6431,2.281796 0.79151,4.699634 0.45141,7.043267 -0.19788,1.681974 -0.58746,3.345398 -1.15636,4.9408 -0.43904,1.13162 -0.95848,2.263253 -1.79328,3.153703 -0.46996,0.45142 -1.04505,0.79152 -1.65106,1.0265 -0.54416,0.27209 -1.15635,0.35866 -1.73762,0.53799 -1.44081,0.27826 -2.92491,0.34629 -4.39045,0.27208 -0.68021,-0.0989 -1.36661,-0.10512 -2.03445,-0.27208 -1.34805,-0.25972 -2.74557,-0.66166 -3.78444,-1.60159 -0.93374,-0.84717 -1.96024,-1.583043 -3.02384,-2.244698 -1.15018,-0.698761 -2.36837,-1.317134 -3.6484,-1.749995 -1.28004,-0.426677 -2.67137,-0.723496 -4.01324,-0.41431 -0.89046,0.179328 -1.66961,0.82862 -2.00972,1.669607 -0.17314,0.352473 -0.25353,0.742053 -0.29682,1.125443 -0.068,0.401943 -0.1113,0.816253 -0.0618,1.224383 0.0866,0.909 0.15459,1.8242 0.31537,2.72084 0.0928,0.85335 0.21643,1.70052 0.3401,2.54769 0.0557,0.37103 0.10513,0.74205 0.20407,1.10071 0.12985,0.77915 0.25971,1.55211 0.42049,2.32508 0.20406,0.72968 0.27208,1.50265 0.50707,2.22614 0.15459,0.65548 0.27208,1.32332 0.48233,1.96024 0.0989,0.4205 0.20406,0.84099 0.30918,1.2553 0.21643,0.60601 0.32774,1.24911 0.55035,1.85512 0.13605,0.39576 0.19788,0.80388 0.35866,1.19346 0.0928,0.22261 0.14223,0.46378 0.21643,0.69258 0.58746,1.74381 1.17491,3.4938 1.87985,5.18815 0.0866,0.303 0.2288,0.58745 0.35866,0.87808 0.17933,0.50089 0.41431,0.97703 0.63074,1.47173 0.17315,0.25972 0.0804,0.58127 0.0309,0.86572 -0.17314,1.14399 -1.08834,2.12721 -2.19522,2.43021 -0.37721,0.15459 -0.79152,0.12986 -1.18728,0.18551 -1.42844,0.16696 -2.85688,0.303 -4.27914,0.45141 -0.59364,0.068 -1.18728,0.0928 -1.77473,0.20407 -4.78002,0.45141 -9.56005,0.86572 -14.34625,1.21819 -0.34011,0.0989 -0.69876,0.068 -1.05124,0.0804 -0.42667,0.10512 -0.8719,0.0495 -1.30476,0.11749 -0.38958,0.0495 -0.77915,0.0309 -1.16254,0.0742 -0.47615,0.068 -0.95848,0.0433 -1.43464,0.0927 -0.61219,0.0804 -1.23674,0.0433 -1.84893,0.12986 -0.476149,0.0309 -0.952299,0.0495 -1.428439,0.0618 -0.32774,-0.0247 -0.6493,0.0866 -0.97703,0.0804 -1.00795,0.0247 -2.02827,0.0247 -3.03003,0.13604 -1.40371,0.0618 -2.80741,0.12367 -4.21112,0.19169 -1.28003,-0.006 -2.55388,0.0989 -3.83391,0.13605 -0.92756,-0.0371 -1.85512,0.12985 -2.78268,0.0433 -0.43286,0.006 -0.86572,0.0495 -1.29858,0.0495 -0.53799,-0.0309 -1.07597,0.0556 -1.61396,0.0247 -0.4947,0.006 -0.98321,0.0556 -1.47791,0.0309 -0.59982,0.0495 -1.19346,0.0124 -1.79328,0.0557 -0.14223,0.006 -0.28445,0.006 -0.42049,-0.0124 -0.37103,-0.0495 -0.74205,0.0309 -1.11307,-0.006 -1.447,0.0371 -2.90017,0.0371 -4.34717,0.068 -0.61219,-0.068 -1.23056,-0.006 -1.84893,-0.0185 -1.08834,0.0124 -2.18286,0.006 -3.27738,0.0185 -1.17491,-0.068 -2.34981,-0.0185 -3.52472,-0.0371 -0.45142,-0.006 -0.90901,0.0247 -1.36042,-0.0309 -1.13163,-0.006 -2.26325,-0.0247 -3.40105,-0.0309 -1.11308,-0.068 -2.22615,-0.0556 -3.3454,-0.0742 -1.01413,-0.0866 -1.98498,-0.65547 -2.49823,-1.54593 -0.14841,-0.303 -0.30918,-0.606 -0.35865,-0.93993 -0.0928,-0.95229 -0.45142,-1.85511 -0.61219,-2.80122 -0.20407,-0.75442 -0.35248,-1.5212 -0.51944,-2.28798 -0.16077,-0.59364 -0.25971,-1.19965 -0.38339,-1.79947 -0.0557,-0.39576 -0.19169,-0.77297 -0.25353,-1.16872 -0.10512,-0.55654 -0.21025,-1.11308 -0.30919,-1.66961 -0.17933,-0.65548 -0.25353,-1.3295 -0.38339,-1.99116 -0.0866,-0.63693 -0.27208,-1.26148 -0.35247,-1.90459 -0.12986,-0.74205 -0.21643,-1.49646 -0.38339,-2.23233 -0.21643,-1.33568 -0.37103,-2.68373 -0.61219,-4.01324 -0.11131,-0.86572 -0.2288,-1.73762 -0.33392,-2.60335 -0.0928,-0.63692 -0.12986,-1.28621 -0.25354,-1.92314 -0.29063,-2.57861 -0.5318,-5.16341 -0.71112,-7.748214 -0.0557,-0.383391 -0.0433,-0.772966 -0.0742,-1.156357 -0.0928,-0.834803 -0.0866,-1.681974 -0.14222,-2.529145 -0.0309,-1.113071 -0.12986,-2.219959 -0.1175,-3.339214 -0.0124,-0.371023 -0.0495,-0.742047 -0.0309,-1.119255 0.0124,-0.41431 -0.068,-0.828619 0,-1.236745 -0.006,-1.397523 -0.006,-2.795046 0,-4.192569 0.0618,-1.032682 0.0495,-2.065365 0.0866,-3.098048 -0.0124,-0.476147 0.0742,-0.94611 0.068,-1.422258 0.0309,-0.636924 0.0495,-1.273848 0.0742,-1.910772 0.0928,-0.884273 0.10513,-1.77473 0.16078,-2.665187 0.12368,-1.032683 0.11131,-2.071549 0.24735,-3.098048 0.0557,-1.156358 0.21643,-2.306531 0.29063,-3.462889 0.11131,-0.68021 0.12986,-1.366604 0.21025,-2.052998 0.10513,-0.606005 0.12986,-1.224378 0.21025,-1.830383 0.12986,-0.711129 0.14222,-1.434625 0.27827,-2.145754 0.068,-0.816253 0.22879,-1.626321 0.31537,-2.442573 0.0186,-0.179328 0.0495,-0.36484 0.0866,-0.544168 0.11131,-0.51325 0.11749,-1.045051 0.24116,-1.552116 0.0804,-0.327738 0.0618,-0.661659 0.0928,-0.995581 0.16078,-1.212011 1.10689,-2.250877 2.2818,-2.560064 0.3772,-0.09894 0.77296,-0.105123 1.16254,-0.154593 0.69257,-0.08657 1.39134,-0.154593 2.0901,-0.234982 1.37279,-0.204063 2.76412,-0.303002 4.1431,-0.445228 1.6696,-0.160777 3.33921,-0.31537 5.00882,-0.469963 0.18551,-0.0062 0.37102,-0.03092 0.55653,-0.0742 3.79063,-0.327738 7.58744,-0.612189 11.38425,-0.87809 1.07597,-0.04329 2.15193,-0.09276 3.2279,-0.142225 0.17933,0.395758 0.19788,0.834803 0.24117,1.255297 0,0.661659 -0.10512,1.329501 -0.23498,1.978793 -0.12368,0.36484 -0.17933,0.754415 -0.32156,1.113071 -0.82862,2.393103 -2.19522,4.57596 -3.84009,6.499099 -0.40813,0.408126 -0.74823,0.896641 -0.96466,1.440809 -0.29682,0.636924 -0.48852,1.323318 -0.63693,2.009712 -0.16696,0.562719 -0.17933,1.156357 -0.28445,1.737628 -0.0866,0.878089 -0.11131,1.768546 -0.0557,2.65282 0.0309,1.020315 0.15459,2.04063 0.40194,3.030027 0.13604,0.36484 0.2288,0.748231 0.36484,1.113071 0.25972,0.544168 0.51943,1.100704 0.93374,1.552116 0.2288,0.2659 0.51325,0.476147 0.80389,0.667843 1.49028,0.983213 3.22172,1.521197 4.94698,1.929323 0.65548,0.117491 1.30477,0.290635 1.97261,0.346289 0.73586,0.142226 1.48409,0.179328 2.22614,0.210247 0.84099,0.08657 1.69434,0.0371 2.53533,-0.06184 0.56272,-0.05565 1.10689,-0.204064 1.66961,-0.290636 0.72349,-0.117491 1.41607,-0.36484 2.1272,-0.537984 0.32155,-0.07421 0.61219,-0.234982 0.92756,-0.31537 0.43904,-0.117491 0.84099,-0.333922 1.27385,-0.476147 1.41607,-0.61219 2.81978,-1.329502 3.96377,-2.38692 0.43286,-0.395759 0.72968,-0.915192 0.98321,-1.434625 0.50707,-1.100704 0.81007,-2.281796 0.96466,-3.481439 0.11131,-0.500882 0.11749,-1.020316 0.1546,-1.533565 0.0309,-0.451412 -0.0124,-0.902825 0.0433,-1.354237 -0.0124,-0.599822 -0.0495,-1.199643 -0.16696,-1.787098 -0.14222,-1.205827 -0.44523,-2.436389 -1.15636,-3.431969 -0.41431,-0.469964 -0.90282,-0.871906 -1.32331,-1.335686 -1.28004,-1.304766 -2.40547,-2.745575 -3.36395,-4.303875 -0.27209,-0.51325 -0.56891,-1.020315 -0.7977,-1.5583 -0.11131,-0.352472 -0.29682,-0.68021 -0.38339,-1.038866 -0.11131,-0.383391 -0.17933,-0.772966 -0.24735,-1.162541 -0.12368,-0.519433 -0.0124,-1.051234 0.0927,-1.564484 1.36042,-0.05565 2.72084,-0.117491 4.08126,-0.179328 1.62632,-0.01237 3.25883,-0.136042 4.885149,-0.185512 0.4947,0.02473 0.98321,-0.04329 1.47792,-0.01237 0.61837,-0.0371 1.23675,-0.01855 1.8613,-0.04947 M 83.287141,88.869858 c -1.84893,0.766782 -3.49999,2.059182 -4.60688,3.734972 -0.068,-0.111307 -0.0804,-0.234981 -0.0866,-0.358656 -0.006,0.222614 0.0247,0.46378 -0.11749,0.649292 -0.34629,0.507065 -0.59982,1.069785 -0.84717,1.62632 -0.29064,0.717313 -0.46378,1.471728 -0.60601,2.232327 -0.23498,1.811832 -0.006,3.704057 0.7606,5.373667 0.2288,0.59364 0.58746,1.11925 0.93375,1.65105 0.65547,0.92138 1.44699,1.75 2.38073,2.39311 0.13604,0.0618 0.10513,0.2288 0.11749,0.35247 -0.006,0.31537 0.0618,0.61837 0.0433,0.93374 0.0804,0.69876 0.0742,1.39753 0.13604,2.10247 0.10512,1.56448 0.17933,3.13515 0.29064,4.70582 0.0309,0.41431 0.0186,0.84717 0.13604,1.24911 0.25972,1.12544 1.00176,2.11484 1.96642,2.73939 0.98322,0.63074 2.15194,0.89664 3.30212,0.97703 1.8613,0.068 3.79681,-0.12985 5.47878,-0.99558 0.58127,-0.34629 1.15017,-0.73586 1.56448,-1.28003 0.54417,-0.63692 0.87809,-1.44081 0.99558,-2.26943 0.0309,-0.50088 -0.0124,-0.99558 -0.0371,-1.49646 0.0371,0 0.11131,0.0124 0.14841,0.0185 l -0.0804,-0.12367 c -0.0247,0.0309 -0.0557,0.0618 -0.0866,0.0989 -0.0371,-0.84099 -0.0804,-1.67579 -0.15459,-2.5106 0,-0.0371 0.006,-0.0989 0.0124,-0.13604 -0.1113,-1.64487 -0.20406,-3.28974 -0.30918,-4.93462 -0.0371,-0.16696 0.10512,-0.2659 0.21024,-0.36484 0.74205,-0.71731 1.38516,-1.54593 1.88604,-2.44875 0.46378,-0.88428 0.86572,-1.83039 1.01413,-2.819783 0.0309,-0.0989 0.0557,-0.20407 0.068,-0.30301 0.39576,-2.263243 -0.068,-4.650162 -1.24293,-6.616588 -0.57508,-0.915192 -1.25529,-1.77473 -2.09628,-2.461124 -1.02031,-0.902825 -2.23233,-1.570667 -3.52472,-2.003529 -2.4735,-0.816252 -5.24381,-0.723496 -7.64928,0.284452 z"
     id="path10"
     style="opacity:1;fill:#7d3546;fill-opacity:1;stroke:#008066;stroke-width:0.00579725" />
</svg>
