<?xml version="1.0" encoding="UTF-8" standalone="no"?>
<svg
   xmlns:dc="http://purl.org/dc/elements/1.1/"
   xmlns:cc="http://creativecommons.org/ns#"
   xmlns:rdf="http://www.w3.org/1999/02/22-rdf-syntax-ns#"
   xmlns:svg="http://www.w3.org/2000/svg"
   xmlns="http://www.w3.org/2000/svg"
   xmlns:sodipodi="http://sodipodi.sourceforge.net/DTD/sodipodi-0.dtd"
   xmlns:inkscape="http://www.inkscape.org/namespaces/inkscape"
   version="1.0"
   id="Layer_1"
   width="744.09448"
   height="744.09448"
   viewBox="0 0 687 552"
   overflow="visible"
   enable-background="new 0 0 687 552"
   xml:space="preserve"
   sodipodi:version="0.32"
   inkscape:version="0.46"
   sodipodi:docname="Permutaeder Join Meet.svg"
   inkscape:output_extension="org.inkscape.output.svg.inkscape"
   style="overflow: visible;"><metadata
   id="metadata5787"><rdf:RDF><cc:Work
       rdf:about=""><dc:format>image/svg+xml</dc:format><dc:type
         rdf:resource="http://purl.org/dc/dcmitype/StillImage" /></cc:Work></rdf:RDF></metadata><defs
   id="defs5785"><inkscape:perspective
   sodipodi:type="inkscape:persp3d"
   inkscape:vp_x="0 : 276 : 1"
   inkscape:vp_y="0 : 1000 : 0"
   inkscape:vp_z="687 : 276 : 1"
   inkscape:persp3d-origin="343.5 : 184 : 1"
   id="perspective5789" />
	
	
	
	
	
	
	

	
	
	
	
	
	
	
	
	

	
	
	
	
	
	
	
	
	

	
	
	
	
	
	
	
	
	

	
	
	
	
	
	
	
	
	

	
	
	
	
	
	
	
	
	
	
	
	
	
	
	
	
	
	
	
	
	
	
	
	
</defs><sodipodi:namedview
   inkscape:window-height="768"
   inkscape:window-width="1024"
   inkscape:pageshadow="2"
   inkscape:pageopacity="0.0"
   guidetolerance="10.0"
   gridtolerance="10.0"
   objecttolerance="10.0"
   borderopacity="1.0"
   bordercolor="#666666"
   pagecolor="#ffffff"
   id="base"
   showgrid="false"
   inkscape:zoom="0.47520749"
   inkscape:cx="837.14923"
   inkscape:cy="417.00885"
   inkscape:window-x="0"
   inkscape:window-y="0"
   inkscape:current-layer="layer1"
   units="cm" />


<g
   inkscape:groupmode="layer"
   id="layer2"
   inkscape:label="edges"
   style="display:inline"
   sodipodi:insensitive="true"><path
     style="opacity:1;fill:#000000;fill-opacity:1;stroke:none;stroke-width:2.39266992;stroke-miterlimit:10;stroke-dasharray:none;stroke-opacity:1;overflow:visible"
     d="M 50.701819,216.41332 L 53.451179,216.77507 L 64.701847,131.76199 L 61.952487,131.40023 L 50.701819,216.41332 z"
     id="polyline5638" /><path
     style="opacity:1;fill:#000000;fill-opacity:1;stroke:none;stroke-width:2.39266992;stroke-miterlimit:10;stroke-dasharray:none;stroke-opacity:1;overflow:visible"
     d="M 50.701819,216.66655 L 61.952487,394.18111 L 64.738023,394.00023 L 53.487355,216.52184 L 50.701819,216.66655 z"
     id="polyline5640" /><path
     style="opacity:1;fill:#000000;fill-opacity:1;stroke:none;stroke-width:2.39266992;stroke-miterlimit:10;stroke-dasharray:none;stroke-opacity:1;overflow:visible"
     d="M 194.17497,-1.0031289 L 195.00701,1.6377031 L 302.52143,-32.114301 L 301.68939,-34.755133 L 194.17497,-1.0031289 z"
     id="polyline5642" /><path
     style="opacity:1;fill:#000000;fill-opacity:1;stroke:none;stroke-width:2.39266992;stroke-miterlimit:10;stroke-dasharray:none;stroke-opacity:1;overflow:visible"
     d="M 62.350421,130.60436 L 64.303913,132.55786 L 195.58582,1.3121211 L 193.59616,-0.64137109 L 62.350421,130.60436 z"
     id="polyline5644" /><path
     style="opacity:1;fill:#000000;fill-opacity:1;stroke:none;stroke-width:2.39123011;stroke-miterlimit:10;stroke-dasharray:none;stroke-opacity:1;overflow:visible"
     d="M 62.251262,395.02532 L 193.63092,526.33098 L 195.58586,524.3766 L 64.206208,393.07093 L 62.251262,395.02532 z"
     id="polyline5646" /><path
     style="opacity:1;fill:#000000;fill-opacity:1;stroke:none;stroke-width:2.39266992;stroke-miterlimit:10;stroke-dasharray:none;stroke-opacity:1;overflow:visible"
     d="M 301.79792,-32.078125 L 456.81114,1.6738789 L 457.38995,-1.0393047 L 302.41291,-34.791309 L 301.79792,-32.078125 z"
     id="polyline5648" /><path
     style="opacity:1;fill:#000000;fill-opacity:1;stroke:none;stroke-width:2.39266992;stroke-miterlimit:10;stroke-dasharray:none;stroke-opacity:1;overflow:visible"
     d="M 456.1238,1.3121211 L 587.40571,132.55786 L 589.3592,130.60436 L 458.07729,-0.64137109 L 456.1238,1.3121211 z"
     id="polyline5650" /><path
     style="opacity:1;fill:#000000;fill-opacity:1;stroke:none;stroke-width:2.39266992;stroke-miterlimit:10;stroke-dasharray:none;stroke-opacity:1;overflow:visible"
     d="M 456.1238,524.37774 L 458.07729,526.33123 L 589.3592,395.0855 L 587.40571,393.13201 L 456.1238,524.37774 z"
     id="polyline5652" /><path
     style="opacity:1;fill:#000000;fill-opacity:1;stroke:none;stroke-width:2.39266992;stroke-miterlimit:10;stroke-dasharray:none;stroke-opacity:1;overflow:visible"
     d="M 61.952487,131.68964 L 74.396956,314.05175 L 77.146316,313.87087 L 64.701847,131.50876 L 61.952487,131.68964 z"
     id="polyline5654" /><path
     style="opacity:1;fill:#000000;fill-opacity:1;stroke:none;stroke-width:2.39266992;stroke-miterlimit:10;stroke-dasharray:none;stroke-opacity:1;overflow:visible"
     d="M 61.952487,393.8917 L 64.701847,394.32581 L 77.146316,314.16028 L 74.396956,313.76234 L 61.952487,393.8917 z"
     id="polyline5656" /><path
     style="opacity:1;fill:#000000;fill-opacity:1;stroke:none;stroke-width:2.39266992;stroke-miterlimit:10;stroke-dasharray:none;stroke-opacity:1;overflow:visible"
     d="M 194.2835,1.6738789 L 351.79285,38.971109 L 352.44401,36.294102 L 194.89848,-1.0393047 L 194.2835,1.6738789 z"
     id="polyline5658" /><path
     style="opacity:1;fill:#000000;fill-opacity:1;stroke:none;stroke-width:2.39266992;stroke-miterlimit:10;stroke-dasharray:none;stroke-opacity:1;overflow:visible"
     d="M 351.64814,36.330277 L 352.58871,38.934934 L 457.57083,1.6377031 L 456.66644,-0.96695313 L 351.64814,36.330277 z"
     id="polyline5660" /><path
     style="opacity:1;fill:#000000;fill-opacity:1;stroke:none;stroke-width:2.39380002;stroke-miterlimit:10;stroke-dasharray:none;stroke-opacity:1;overflow:visible"
     d="M 194.05182,526.72393 L 351.57627,591.59153 L 352.62547,589.02573 L 195.10102,524.15814 L 194.05182,526.72393 z"
     id="polyline37" /><path
     style="opacity:1;fill:#000000;fill-opacity:1;stroke:none;stroke-width:2.39201999;stroke-miterlimit:10;stroke-dasharray:none;stroke-opacity:1;overflow:visible"
     d="M 351.39535,589.13124 L 352.84213,591.48434 L 457.80628,526.5026 L 456.35949,524.1495 L 351.39535,589.13124 z"
     id="polyline5664" /><path
     style="opacity:1;fill:#000000;fill-opacity:1;stroke:none;stroke-width:2.39266992;stroke-miterlimit:10;stroke-dasharray:none;stroke-opacity:1;overflow:visible"
     d="M 587.00778,131.87052 L 627.09054,314.2688 L 629.80373,313.65382 L 589.72096,131.2917 L 587.00778,131.87052 z"
     id="polyline5666" /><path
     style="opacity:1;fill:#000000;fill-opacity:1;stroke:none;stroke-width:2.39266992;stroke-miterlimit:10;stroke-dasharray:none;stroke-opacity:1;overflow:visible"
     d="M 587.15248,393.49377 L 589.61243,394.72374 L 629.6952,314.59439 L 627.19907,313.32823 L 587.15248,393.49377 z"
     id="polyline5668" /><path
     style="opacity:1;fill:#000000;fill-opacity:1;stroke:none;stroke-width:2.39266992;stroke-miterlimit:10;stroke-dasharray:none;stroke-opacity:1;overflow:visible"
     d="M 75.301351,315.28173 L 234.98125,372.0777 L 235.88564,369.47305 L 76.241921,312.67707 L 75.301351,315.28173 z"
     id="polyline5670" /><path
     style="opacity:1;fill:#000000;fill-opacity:1;stroke:none;stroke-width:2.39266992;stroke-miterlimit:10;stroke-dasharray:none;stroke-opacity:1;overflow:visible"
     d="M 350.74375,37.84966 L 379.90143,225.13168 L 382.65079,224.69757 L 353.49311,37.415551 L 350.74375,37.84966 z"
     id="polyline5672" /><path
     style="opacity:1;fill:#000000;fill-opacity:1;stroke:none;stroke-width:2.39266992;stroke-miterlimit:10;stroke-dasharray:none;stroke-opacity:1;overflow:visible"
     d="M 234.43861,369.79863 L 236.42828,371.75212 L 382.25285,225.89137 L 380.29936,223.93788 L 234.43861,369.79863 z"
     id="polyline5674" /><path
     style="opacity:1;fill:#000000;fill-opacity:1;stroke:none;stroke-width:2.39002991;stroke-miterlimit:10;stroke-dasharray:none;stroke-opacity:1;overflow:visible"
     d="M 350.81687,589.78136 L 353.38639,590.7961 L 382.592,516.97343 L 380.02249,515.95868 L 350.81687,589.78136 z"
     id="polyline5676" /><path
     style="opacity:1;fill:#000000;fill-opacity:1;stroke:none;stroke-width:2.39266992;stroke-miterlimit:10;stroke-dasharray:none;stroke-opacity:1;overflow:visible"
     d="M 234.43861,371.75212 L 380.29936,517.5767 L 382.25285,515.6232 L 236.42828,369.79863 L 234.43861,371.75212 z"
     id="polyline5678" /><path
     style="opacity:1;fill:#000000;fill-opacity:1;stroke:none;stroke-width:2.39266992;stroke-miterlimit:10;stroke-dasharray:none;stroke-opacity:1;overflow:visible"
     d="M 526.44952,369.5454 L 527.78802,371.96918 L 629.11639,315.1732 L 627.77788,312.74942 L 526.44952,369.5454 z"
     id="polyline5680" /><path
     style="opacity:1;fill:#000000;fill-opacity:1;stroke:none;stroke-width:2.39266992;stroke-miterlimit:10;stroke-dasharray:none;stroke-opacity:1;overflow:visible"
     d="M 380.29936,225.89137 L 526.12394,371.75212 L 528.1136,369.79863 L 382.25285,223.93788 L 380.29936,225.89137 z"
     id="polyline5682" /><path
     style="opacity:1;fill:#000000;fill-opacity:1;stroke:none;stroke-width:2.39266992;stroke-miterlimit:10;stroke-dasharray:none;stroke-opacity:1;overflow:visible"
     d="M 380.29936,515.6232 L 382.25285,517.5767 L 528.1136,371.75212 L 526.12394,369.79863 L 380.29936,515.6232 z"
     id="polyline5684" /><path
     style="opacity:0.3;fill:#000000;fill-opacity:1;stroke:none;stroke-width:2.39266992;stroke-miterlimit:10;stroke-dasharray:none;stroke-opacity:1;display:inline;overflow:visible"
     d="M 159.1875,266.46875 L 78.6875,297.5 L 78.90625,300.65625 L 160.25,269.28125 C 159.80941,268.38358 159.45693,267.45034 159.1875,266.46875 z M 69.90625,300.875 L 55.90625,306.28125 L 56.9375,309.125 L 70.125,304.03125 L 69.90625,300.875 z"
     id="polyline5608"
     transform="matrix(0.92327,0,0,0.92327,0,-67.5)" /><path
     style="opacity:0.3;fill:#000000;fill-opacity:1;stroke:none;stroke-width:2.39266992;stroke-miterlimit:10;stroke-dasharray:none;stroke-opacity:1;display:inline;overflow:visible"
     d="M 291.25,143.34375 L 184.96875,249.6875 C 185.73164,250.31071 186.45605,251.00002 187.09375,251.75 L 293.375,145.5 C 292.60844,144.84557 291.88283,144.12842 291.25,143.34375 z"
     id="polyline5600"
     transform="matrix(0.92327,0,0,0.92327,0,-67.5)" /><path
     style="opacity:0.3;fill:#000000;fill-opacity:1;stroke:none;stroke-width:2.39266992;stroke-miterlimit:10;stroke-dasharray:none;stroke-opacity:1;display:inline;overflow:visible"
     d="M 325.75,36.5625 L 312.03125,92.8125 L 314.96875,93.5 L 328.6875,37.28125 L 325.75,36.5625 z M 309.90625,101.5625 L 306.09375,117.25 C 307.10235,117.38892 308.09056,117.59033 309.03125,117.90625 L 312.84375,102.25 L 309.90625,101.5625 z"
     id="polyline5610"
     transform="matrix(0.92327,0,0,0.92327,0,-67.5)" /><path
     style="opacity:0.3;fill:#000000;fill-opacity:1;stroke:none;stroke-width:2.39266992;stroke-miterlimit:10;stroke-dasharray:none;stroke-opacity:1;display:inline;overflow:visible"
     d="M 316.4375,143.40625 C 315.80501,144.1819 315.07633,144.88451 314.3125,145.53125 L 394.1875,225.40625 L 393.40625,220.375 L 316.4375,143.40625 z M 404.21875,231.1875 L 405,236.21875 L 420.53125,251.75 C 421.17986,250.9997 421.91274,250.30818 422.6875,249.6875 L 404.21875,231.1875 z"
     id="polyline5604"
     transform="matrix(0.92327,0,0,0.92327,0,-67.5)" /><path
     style="opacity:0.3;fill:#000000;fill-opacity:1;stroke:none;stroke-width:2.39266992;stroke-miterlimit:10;stroke-dasharray:none;stroke-opacity:1;display:inline;overflow:visible"
     d="M 187.125,272.625 C 186.48899,273.37499 185.76106,274.06385 185,274.6875 L 291.28125,381 C 291.91886,380.21572 292.634,379.49586 293.40625,378.84375 L 187.125,272.625 z"
     id="polyline5602"
     transform="matrix(0.92327,0,0,0.92327,0,-67.5)" /><path
     style="opacity:0.3;fill:#000000;fill-opacity:1;stroke:none;stroke-width:2.39266992;stroke-miterlimit:10;stroke-dasharray:none;stroke-opacity:1;display:inline;overflow:visible"
     d="M 420.40625,272.71875 L 412,281.125 L 412.5625,284.78125 L 422.5625,274.78125 C 421.79405,274.15349 421.04762,273.47506 420.40625,272.71875 z M 404.09375,289 L 314.25,378.84375 C 315.02,379.49048 315.76892,380.19137 316.40625,380.96875 L 404.6875,292.6875 L 404.09375,289 z"
     id="polyline5606"
     transform="matrix(0.92327,0,0,0.92327,0,-67.5)" /><path
     style="opacity:0.3;fill:#000000;fill-opacity:1;stroke:none;stroke-width:2.39266992;stroke-miterlimit:10;stroke-dasharray:none;stroke-opacity:1;display:inline;overflow:visible"
     d="M 307.3125,406.90625 C 306.33893,407.11984 305.34264,407.25168 304.3125,407.28125 L 305.625,417.71875 L 308.3125,415 L 307.3125,406.90625 z M 309.71875,426.28125 L 307.03125,429 L 320.09375,533.4375 L 323.53125,536.90625 L 309.71875,426.28125 z M 321.90625,547.96875 L 323.625,561.84375 L 323.65625,561.84375 C 324.61735,561.64853 325.61218,561.55558 326.625,561.53125 L 325.375,551.4375 L 321.90625,547.96875 z"
     id="polyline5612"
     transform="matrix(0.92327,0,0,0.92327,0,-67.5)" /><path
     style="opacity:0.3;fill:#000000;fill-opacity:1;stroke:none;stroke-width:2.39008999;stroke-miterlimit:10;stroke-dasharray:none;stroke-opacity:1;display:inline;overflow:visible"
     d="M 311.59375,585.28125 L 210.03125,640.84375 L 211.5,643.46875 L 313.03125,587.9375 C 312.4659,587.1036 312.00545,586.21244 311.59375,585.28125 z"
     id="polyline5616"
     transform="matrix(0.92327,0,0,0.92327,0,-67.5)" /><path
     style="opacity:0.3;fill:#000000;fill-opacity:1;stroke:none;stroke-width:2.39266992;stroke-miterlimit:10;stroke-dasharray:none;stroke-opacity:1;display:inline;overflow:visible"
     d="M 343.34375,583 C 343.07011,583.97651 342.68589,584.91576 342.25,585.8125 L 370.40625,596.46875 L 365.25,591.3125 L 343.34375,583 z M 385.6875,599.0625 L 390.84375,604.21875 L 422.875,616.375 L 425.21875,614.03125 L 385.6875,599.0625 z M 434.4375,617.53125 L 432.125,619.84375 L 494.59375,643.53125 L 495.625,640.71875 L 434.4375,617.53125 z"
     id="polyline5618"
     transform="matrix(0.92327,0,0,0.92327,0,-67.5)" /><path
     style="opacity:0.3;fill:#000000;fill-opacity:1;stroke:none;stroke-width:2.39266992;stroke-miterlimit:10;stroke-dasharray:none;stroke-opacity:1;display:inline;overflow:visible"
     d="M 448.71875,264.9375 C 448.55259,265.93964 448.27924,266.91263 447.9375,267.84375 L 582,304.84375 C 582.17912,303.84198 582.42588,302.86656 582.78125,301.9375 L 448.71875,264.9375 z"
     id="polyline5614"
     transform="matrix(0.92327,0,0,0.92327,0,-67.5)" /><path
     style="opacity:0.3;fill:#000000;fill-opacity:1;stroke:none;stroke-width:2.39266992;stroke-miterlimit:10;stroke-dasharray:none;stroke-opacity:1;display:inline;overflow:visible"
     d="M 602.6875,323.125 C 601.7438,323.41679 600.75913,323.60406 599.75,323.71875 L 623.5,440.0625 L 626.25,438.53125 L 602.6875,323.125 z M 628.125,447.78125 L 625.375,449.3125 L 635.78125,500.25 L 638.71875,499.65625 L 628.125,447.78125 z"
     id="polyline5622"
     transform="matrix(0.92327,0,0,0.92327,0,-67.5)" /><path
     style="opacity:0.3;fill:#000000;fill-opacity:1;stroke:none;stroke-width:2.39266992;stroke-miterlimit:10;stroke-dasharray:none;stroke-opacity:1;display:inline;overflow:visible"
     d="M 635.90625,215.03125 L 602.9375,292.34375 C 603.89511,292.65764 604.81833,293.05261 605.6875,293.53125 L 638.65625,216.21875 L 635.90625,215.03125 z"
     id="polyline5620"
     transform="matrix(0.92327,0,0,0.92327,0,-67.5)" /></g><g
   inkscape:groupmode="layer"
   id="layer1"
   inkscape:label="vertices"
   style="display:inline"
   sodipodi:insensitive="true"><g
     style="opacity:1;display:inline;overflow:visible"
     id="g2491"
     transform="matrix(0.8,0,0,0.8,54.3631,37.417)"><path
       transform="matrix(0.909091,0,0,1,45.0966,634.252)"
       d="M 379.13385,56.692909 A 19.48819,17.716536 0 1 1 340.15747,56.692909 A 19.48819,17.716536 0 1 1 379.13385,56.692909 z"
       sodipodi:ry="17.716536"
       sodipodi:rx="19.48819"
       sodipodi:cy="56.692909"
       sodipodi:cx="359.64566"
       id="path3190"
       style="fill:#ffffff;fill-opacity:1;stroke:#000000;stroke-width:3.81479001;stroke-miterlimit:4;stroke-dasharray:none;stroke-dashoffset:0;stroke-opacity:1"
       sodipodi:type="arc" /><path
       transform="matrix(0.780865,0,0,0.727238,322.619,726.868)"
       d="M 76.499192,-49.397121 A 13.199861,14.399848 0 1 1 50.099471,-49.397121 A 13.199861,14.399848 0 1 1 76.499192,-49.397121 z"
       sodipodi:ry="14.399848"
       sodipodi:rx="13.199861"
       sodipodi:cy="-49.397121"
       sodipodi:cx="63.299332"
       id="path3320"
       style="fill:#000000;fill-opacity:1;stroke:none;stroke-width:1.5;stroke-miterlimit:4;stroke-dasharray:none;stroke-opacity:1;display:inline"
       sodipodi:type="arc" /></g><g
     style="opacity:1;display:inline;overflow:visible"
     id="g6423"
     transform="matrix(0.8,0,0,0.8,151.936,227.707)"><path
       transform="matrix(0,0.909091,-1,0,109.843,45.0966)"
       d="M 379.13385,56.692909 A 19.48819,17.716536 0 1 1 340.15747,56.692909 A 19.48819,17.716536 0 1 1 379.13385,56.692909 z"
       sodipodi:ry="17.716536"
       sodipodi:rx="19.48819"
       sodipodi:cy="56.692909"
       sodipodi:cx="359.64566"
       id="path3219"
       style="fill:#33eb2a;fill-opacity:1;stroke:#000000;stroke-width:1.90740001;stroke-miterlimit:4;stroke-dasharray:none;stroke-dashoffset:0;stroke-opacity:1"
       sodipodi:type="arc" /><path
       id="text3611"
       d="M 54.643619,379.7584 L 52.735549,379.7584 L 52.735549,367.5998 C 52.276189,368.03796 51.671979,368.4761 50.922889,368.91424 C 50.180859,369.3524 49.513039,369.681 48.919419,369.90008 L 48.919419,368.05561 C 49.986519,367.55388 50.919349,366.94612 51.717919,366.23234 C 52.516479,365.5186 53.081819,364.82604 53.413969,364.15468 L 54.643619,364.15468 L 54.643619,379.7584"
       style="font-size:21px;font-style:normal;font-variant:normal;font-weight:normal;font-stretch:normal;text-align:start;line-height:100%;text-anchor:start;fill:#000000;fill-opacity:1;stroke:none;stroke-width:1px;stroke-linecap:butt;stroke-linejoin:miter;stroke-opacity:1;display:inline;font-family:Arial" /></g><g
     style="opacity:1;display:inline;overflow:visible"
     id="g3895"
     transform="matrix(0.8,0,0,0.8,83.615,14.6699)"><path
       transform="matrix(0.909091,0,0,1,45.0966,570.472)"
       d="M 379.13385,56.692909 A 19.48819,17.716536 0 1 1 340.15747,56.692909 A 19.48819,17.716536 0 1 1 379.13385,56.692909 z"
       sodipodi:ry="17.716536"
       sodipodi:rx="19.48819"
       sodipodi:cy="56.692909"
       sodipodi:cx="359.64566"
       id="path3897"
       style="fill:#33eb2a;fill-opacity:1;stroke:#000000;stroke-width:1.90740001;stroke-miterlimit:4;stroke-dasharray:none;stroke-dashoffset:0;stroke-opacity:1"
       sodipodi:type="arc" /><path
       id="path3899"
       d="M 377.3008,633.20136 L 377.3008,635.03521 L 367.02906,635.03521 C 367.01493,634.57586 367.08912,634.13418 367.25167,633.71017 C 367.51313,633.01054 367.93009,632.32153 368.5025,631.64309 C 369.082,630.96467 369.91588,630.18025 371.00419,629.28981 C 372.69318,627.90471 373.83448,626.80934 374.42812,626.0037 C 375.02173,625.19102 375.31853,624.42425 375.31853,623.70342 C 375.31853,622.94728 375.04645,622.31126 374.50231,621.79536 C 373.96523,621.27241 373.26206,621.01094 372.39284,621.01093 C 371.47414,621.01094 370.73917,621.28655 370.18796,621.83775 C 369.63674,622.38899 369.35761,623.15221 369.35054,624.12744 L 367.38947,623.92603 C 367.52373,622.4632 368.02901,621.35015 368.90532,620.58691 C 369.7816,619.81664 370.95826,619.43149 372.43523,619.43148 C 373.92635,619.43149 375.10653,619.8449 375.97577,620.67172 C 376.84499,621.49856 377.2796,622.52326 377.27961,623.74582 C 377.2796,624.36773 377.1524,624.97902 376.89799,625.57968 C 376.64357,626.18038 376.21957,626.81287 375.62595,627.47716 C 375.0394,628.14145 374.06062,629.05308 372.68965,630.21205 C 371.5448,631.17315 370.80985,631.82684 370.48477,632.17312 C 370.1597,632.51233 369.89114,632.85508 369.67914,633.20136 L 377.3008,633.20136"
       style="font-size:21px;font-style:normal;font-variant:normal;font-weight:normal;font-stretch:normal;text-align:start;line-height:100%;text-anchor:start;fill:#000000;fill-opacity:1;stroke:none;stroke-width:1px;stroke-linecap:butt;stroke-linejoin:miter;stroke-opacity:1;display:inline;font-family:Arial" /></g><g
     style="opacity:1;display:inline;overflow:visible"
     id="g2615"
     transform="matrix(0.8,0,0,0.8,-30.3108,96.3749)"><path
       transform="matrix(0,0.909091,-1,0,173.622,45.0966)"
       d="M 379.13385,56.692909 A 19.48819,17.716536 0 1 1 340.15747,56.692909 A 19.48819,17.716536 0 1 1 379.13385,56.692909 z"
       sodipodi:ry="17.716536"
       sodipodi:rx="19.48819"
       sodipodi:cy="56.692909"
       sodipodi:cx="359.64566"
       id="path2617"
       style="fill:#ffffff;fill-opacity:1;stroke:#000000;stroke-width:1.90740001;stroke-miterlimit:4;stroke-dasharray:none;stroke-dashoffset:0;stroke-opacity:1"
       sodipodi:type="arc" /><path
       id="path2619"
       d="M 111.65564,375.51827 L 113.56371,375.26385 C 113.78276,376.3451 114.15378,377.12599 114.67674,377.60653 C 115.20674,378.08002 115.84985,378.31675 116.60601,378.31675 C 117.50349,378.31675 118.25965,378.00582 118.87449,377.38393 C 119.49636,376.76204 119.8073,375.99175 119.80732,375.07304 C 119.8073,374.19676 119.5211,373.47594 118.94868,372.91057 C 118.37626,372.33816 117.64837,372.05195 116.76501,372.05195 C 116.40458,372.05195 115.95584,372.12262 115.41876,372.26396 L 115.63077,370.58909 C 115.75797,370.60325 115.86044,370.6103 115.93819,370.6103 C 116.75088,370.6103 117.4823,370.3983 118.13245,369.97427 C 118.7826,369.55028 119.10768,368.89659 119.10768,368.01321 C 119.10768,367.31359 118.87095,366.73411 118.39747,366.27475 C 117.92398,365.81542 117.31268,365.58574 116.56361,365.58572 C 115.82158,365.58574 115.20321,365.81895 114.70855,366.28536 C 114.21385,366.75177 113.89585,367.45141 113.7545,368.38423 L 111.84645,368.045 C 112.07965,366.76591 112.60966,365.77654 113.43649,365.0769 C 114.26331,364.37023 115.29155,364.01687 116.5212,364.01686 C 117.36922,364.01687 118.15013,364.20063 118.86388,364.56809 C 119.57762,364.92852 120.12178,365.4232 120.49633,366.05213 C 120.87795,366.68111 121.06875,367.34893 121.06877,368.05561 C 121.06875,368.72697 120.88854,369.33826 120.52815,369.88947 C 120.16771,370.4407 119.63416,370.87884 118.92749,371.20392 C 119.84617,371.41593 120.55993,371.85761 121.06877,372.52896 C 121.57756,373.19326 121.83197,374.02715 121.83198,375.03065 C 121.83197,376.38751 121.3373,377.5394 120.34794,378.48636 C 119.35855,379.42627 118.10772,379.89622 116.59541,379.89622 C 115.23149,379.89622 114.09726,379.48987 113.19269,378.67717 C 112.29519,377.86447 111.78284,376.81151 111.65564,375.51827"
       style="font-size:21px;font-style:normal;font-variant:normal;font-weight:normal;font-stretch:normal;text-align:start;line-height:100%;text-anchor:start;opacity:0.7;fill:#000000;fill-opacity:1;stroke:none;stroke-width:1px;stroke-linecap:butt;stroke-linejoin:miter;stroke-opacity:1;display:inline;font-family:Arial" /></g><g
     style="opacity:1;display:inline;overflow:visible"
     id="g6419"
     transform="matrix(0.8,0,0,0.8,-22.4861,-91.488)"><path
       transform="matrix(0.909091,0,0,1,-4.50966,520.866)"
       d="M 379.13385,56.692909 A 19.48819,17.716536 0 1 1 340.15747,56.692909 A 19.48819,17.716536 0 1 1 379.13385,56.692909 z"
       sodipodi:ry="17.716536"
       sodipodi:rx="19.48819"
       sodipodi:cy="56.692909"
       sodipodi:cx="359.64566"
       id="path3184"
       style="fill:#ffffff;fill-opacity:1;stroke:#000000;stroke-width:1.90740001;stroke-miterlimit:4;stroke-dasharray:none;stroke-dashoffset:0;stroke-opacity:1"
       sodipodi:type="arc" /><path
       id="text3623"
       d="M 322.79657,585.12064 L 322.79657,581.39991 L 316.05475,581.39991 L 316.05475,579.65086 L 323.1464,569.58051 L 324.70464,569.58051 L 324.70464,579.65086 L 326.80352,579.65086 L 326.80352,581.39991 L 324.70464,581.39991 L 324.70464,585.12064 L 322.79657,585.12064 M 322.79657,579.65086 L 322.79657,572.64401 L 317.93102,579.65086 L 322.79657,579.65086"
       style="font-size:21px;font-style:normal;font-variant:normal;font-weight:normal;font-stretch:normal;text-align:start;line-height:100%;text-anchor:start;opacity:0.7;fill:#000000;fill-opacity:1;stroke:none;stroke-width:1px;stroke-linecap:butt;stroke-linejoin:miter;stroke-opacity:1;display:inline;font-family:Arial" /></g><g
     style="opacity:1;display:inline;overflow:visible"
     id="g2624"
     transform="matrix(0.8,0,0,0.8,-57.5335,-23.3754)"><path
       transform="matrix(0,0.909091,-1,0,223.228,94.7029)"
       d="M 379.13385,56.692909 A 19.48819,17.716536 0 1 1 340.15747,56.692909 A 19.48819,17.716536 0 1 1 379.13385,56.692909 z"
       sodipodi:ry="17.716536"
       sodipodi:rx="19.48819"
       sodipodi:cy="56.692909"
       sodipodi:cx="359.64566"
       id="path2626"
       style="fill:#33eb2a;fill-opacity:1;stroke:#000000;stroke-width:1.90740001;stroke-miterlimit:4;stroke-dasharray:none;stroke-dashoffset:0;stroke-opacity:1"
       sodipodi:type="arc" /><path
       id="path2628"
       d="M 161.01238,425.13588 L 163.01584,424.96629 C 163.16424,425.94153 163.507,426.67647 164.04408,427.17117 C 164.58821,427.65877 165.24192,427.90258 166.00513,427.90258 C 166.92383,427.90258 167.70119,427.5563 168.33721,426.86374 C 168.97325,426.1712 169.29125,425.2525 169.29125,424.10765 C 169.29125,423.01935 168.98384,422.16072 168.36903,421.53177 C 167.76128,420.90282 166.96271,420.58834 165.97335,420.58833 C 165.35852,420.58834 164.80376,420.72969 164.30908,421.01235 C 163.81441,421.28796 163.4257,421.64837 163.14305,422.09359 L 161.35159,421.86037 L 162.85683,413.8783 L 170.5845,413.8783 L 170.5845,415.70157 L 164.38329,415.70157 L 163.54586,419.8781 C 164.47869,419.22796 165.45745,418.90288 166.48216,418.90287 C 167.839,418.90288 168.98384,419.37284 169.91669,420.31271 C 170.84951,421.25263 171.31592,422.46107 171.31592,423.93804 C 171.31592,425.34436 170.90605,426.55987 170.08628,427.58457 C 169.08983,428.84249 167.72947,429.47145 166.00513,429.47145 C 164.59176,429.47145 163.43633,429.07569 162.53883,428.2842 C 161.64839,427.49271 161.13958,426.44327 161.01238,425.13588"
       style="font-size:21px;font-style:normal;font-variant:normal;font-weight:normal;font-stretch:normal;text-align:start;line-height:100%;text-anchor:start;fill:#000000;fill-opacity:1;stroke:none;stroke-width:1px;stroke-linecap:butt;stroke-linejoin:miter;stroke-opacity:1;display:inline;font-family:Arial" /></g><g
     style="opacity:1;display:inline;overflow:visible"
     id="g2630"
     transform="matrix(0.8,0,0,0.8,-95.8045,227.657)"><path
       transform="matrix(0,0.909091,-1,0,747.638,45.0966)"
       d="M 379.13385,56.692909 A 19.48819,17.716536 0 1 1 340.15747,56.692909 A 19.48819,17.716536 0 1 1 379.13385,56.692909 z"
       sodipodi:ry="17.716536"
       sodipodi:rx="19.48819"
       sodipodi:cy="56.692909"
       sodipodi:cx="359.64566"
       id="path2632"
       style="fill:#33eb2a;fill-opacity:1;stroke:#000000;stroke-width:1.90740001;stroke-miterlimit:4;stroke-dasharray:none;stroke-dashoffset:0;stroke-opacity:1"
       sodipodi:type="arc" /><path
       id="path2634"
       d="M 695.29105,367.89131 L 693.39359,368.03971 C 693.22397,367.29064 692.9837,366.74648 692.67276,366.40725 C 692.15687,365.86312 691.52085,365.59104 690.76469,365.59103 C 690.15693,365.59104 689.62338,365.76065 689.16405,366.09984 C 688.56335,366.538 688.08986,367.17756 687.7436,368.01852 C 687.39731,368.85947 687.21712,370.05732 687.20297,371.61204 C 687.66232,370.91241 688.22414,370.393 688.88845,370.05379 C 689.55272,369.71457 690.24881,369.54497 690.9767,369.54496 C 692.24874,369.54497 693.32998,370.01493 694.22042,370.95482 C 695.11791,371.88765 695.56665,373.0961 695.56666,374.58013 C 695.56665,375.55538 695.35465,376.46348 694.93063,377.30443 C 694.51368,378.13833 693.93773,378.77789 693.20279,379.22309 C 692.46781,379.66831 691.63392,379.89092 690.7011,379.89092 C 689.11103,379.89092 687.81425,379.3079 686.81076,378.14187 C 685.80726,376.96876 685.30551,375.03949 685.30551,372.35405 C 685.30551,369.35062 685.86026,367.16697 686.96976,365.80303 C 687.93793,364.61581 689.24177,364.02217 690.88129,364.02216 C 692.10387,364.02217 693.10384,364.36492 693.88121,365.05041 C 694.66562,365.73591 695.13558,366.68287 695.29105,367.89131 M 687.49979,374.59074 C 687.49977,375.24796 687.63757,375.87692 687.9132,376.47761 C 688.19587,377.07829 688.58808,377.53765 689.08983,377.85564 C 689.59159,378.1666 690.11807,378.32205 690.66929,378.32205 C 691.47491,378.32205 692.16747,377.99699 692.74696,377.34682 C 693.32645,376.69667 693.61619,375.81332 693.6162,374.69674 C 693.61619,373.62258 693.32998,372.77809 692.75757,372.16325 C 692.18513,371.54137 691.46431,371.23043 690.5951,371.23042 C 689.73294,371.23043 689.0015,371.54137 688.40082,372.16325 C 687.80012,372.77809 687.49977,373.58724 687.49979,374.59074"
       style="font-size:21px;font-style:normal;font-variant:normal;font-weight:normal;font-stretch:normal;text-align:start;line-height:100%;text-anchor:start;fill:#000000;fill-opacity:1;stroke:none;stroke-width:1px;stroke-linecap:butt;stroke-linejoin:miter;stroke-opacity:1;display:inline;font-family:Arial" /></g><g
     style="opacity:0.3;display:inline;overflow:visible"
     id="g6375"
     transform="matrix(0.8,0,0,0.8,4.33576,424.052)"><path
       transform="matrix(0.909091,0,0,1,45.0966,-3.54331)"
       d="M 379.13385,56.692909 A 19.48819,17.716536 0 1 1 340.15747,56.692909 A 19.48819,17.716536 0 1 1 379.13385,56.692909 z"
       sodipodi:ry="17.716536"
       sodipodi:rx="19.48819"
       sodipodi:cy="56.692909"
       sodipodi:cx="359.64566"
       id="path3166"
       style="opacity:1;fill:#ffffff;fill-opacity:1;stroke:#000000;stroke-width:3.81479001;stroke-miterlimit:4;stroke-dasharray:none;stroke-dashoffset:0;stroke-opacity:1"
       sodipodi:type="arc" /><path
       id="text3635"
       d="M 365.87584,47.287006 L 365.87584,43.871326 L 378.45233,43.871326 L 378.45233,46.541056 C 377.41409,47.561846 376.35842,49.027566 375.28531,50.938236 C 374.21217,52.848936 373.39207,54.881756 372.82498,57.036726 C 372.26659,59.182976 371.99177,61.102376 372.0005,62.794946 L 368.45396,62.794946 C 368.51503,60.142676 369.06032,57.438056 370.08982,54.681086 C 371.12804,51.924126 372.51089,49.459436 374.23836,47.287006 L 365.87584,47.287006"
       style="font-size:21px;font-style:normal;font-variant:normal;font-weight:bold;font-stretch:normal;text-align:start;line-height:100%;text-anchor:start;fill:#000000;fill-opacity:1;stroke:none;stroke-width:1px;stroke-linecap:butt;stroke-linejoin:miter;stroke-opacity:1;display:inline;font-family:Arial" /></g><g
     style="opacity:1;display:inline;overflow:visible"
     id="g6415"
     transform="matrix(0.8,0,0,0.8,189.646,-91.3186)"><path
       transform="matrix(0.909091,0,0,1,94.7029,520.866)"
       d="M 379.13385,56.692909 A 19.48819,17.716536 0 1 1 340.15747,56.692909 A 19.48819,17.716536 0 1 1 379.13385,56.692909 z"
       sodipodi:ry="17.716536"
       sodipodi:rx="19.48819"
       sodipodi:cy="56.692909"
       sodipodi:cx="359.64566"
       id="path3186"
       style="fill:#ffffff;fill-opacity:1;stroke:#000000;stroke-width:1.90740001;stroke-miterlimit:4;stroke-dasharray:none;stroke-dashoffset:0;stroke-opacity:1"
       sodipodi:type="arc" /><path
       id="text3639"
       d="M 419.21664,576.59266 C 418.42514,576.30291 417.83858,575.8895 417.45697,575.35242 C 417.07537,574.81533 416.88456,574.17225 416.88456,573.42314 C 416.88456,572.29246 417.29089,571.34196 418.1036,570.57164 C 418.91629,569.80137 419.99753,569.41623 421.34731,569.4162 C 422.70415,569.41623 423.79598,569.81196 424.62282,570.60345 C 425.44965,571.38789 425.86305,572.34545 425.86306,573.47614 C 425.86305,574.19699 425.67226,574.82594 425.29065,575.36301 C 424.91609,575.89304 424.34366,576.30291 423.57338,576.59266 C 424.52741,576.90361 425.25176,577.40535 425.74646,578.0979 C 426.24819,578.79046 426.49907,579.61729 426.49908,580.57839 C 426.49907,581.90698 426.02913,583.02355 425.08923,583.92811 C 424.14934,584.83267 422.91262,585.28495 421.37912,585.28495 C 419.84559,585.28495 418.60888,584.83267 417.66899,583.92811 C 416.72907,583.01647 416.25913,581.88224 416.25913,580.52539 C 416.25913,579.51483 416.51353,578.67033 417.02236,577.99191 C 417.53824,577.30642 418.26966,576.84 419.21664,576.59266 M 418.83501,573.35954 C 418.83501,574.09451 419.07175,574.6952 419.54524,575.1616 C 420.01871,575.62803 420.63355,575.86123 421.38971,575.86123 C 422.12466,575.86123 422.72536,575.63157 423.19177,575.17221 C 423.66524,574.7058 423.90199,574.13691 423.902,573.46555 C 423.90199,572.76593 423.65818,572.17938 423.17058,571.70589 C 422.69001,571.22534 422.08933,570.98507 421.36851,570.98506 C 420.64062,570.98507 420.03639,571.21829 419.55585,571.68469 C 419.0753,572.15111 418.83501,572.7094 418.83501,573.35954 M 418.2202,580.53598 C 418.2202,581.08014 418.34741,581.60663 418.60181,582.11545 C 418.86328,582.62426 419.24843,583.02001 419.75726,583.30268 C 420.26607,583.57829 420.81376,583.71611 421.4003,583.71609 C 422.31194,583.71611 423.06456,583.42282 423.6582,582.83626 C 424.25181,582.24972 424.54862,581.50416 424.54862,580.59959 C 424.54862,579.6809 424.2412,578.92121 423.62639,578.32051 C 423.01864,577.71983 422.2554,577.4195 421.3367,577.41948 C 420.43921,577.4195 419.69365,577.71629 419.10003,578.30992 C 418.51348,578.90354 418.2202,579.64556 418.2202,580.53598"
       style="font-size:21px;font-style:normal;font-variant:normal;font-weight:normal;font-stretch:normal;text-align:start;line-height:100%;text-anchor:start;opacity:0.7;fill:#000000;fill-opacity:1;stroke:none;stroke-width:1px;stroke-linecap:butt;stroke-linejoin:miter;stroke-opacity:1;display:inline;font-family:Arial" /></g><g
     style="opacity:1;display:inline;overflow:visible"
     id="g6463"
     transform="matrix(0.8,0,0,0.8,-81.2567,-41.3576)"><path
       transform="matrix(0,0.909091,-1,0,223.228,-4.50965)"
       d="M 379.13385,56.692909 A 19.48819,17.716536 0 1 1 340.15747,56.692909 A 19.48819,17.716536 0 1 1 379.13385,56.692909 z"
       sodipodi:ry="17.716536"
       sodipodi:rx="19.48819"
       sodipodi:cy="56.692909"
       sodipodi:cx="359.64566"
       id="path3213"
       style="fill:#ffbb00;fill-opacity:1;stroke:#000000;stroke-width:1.90740001;stroke-miterlimit:4;stroke-dasharray:none;stroke-dashoffset:0;stroke-opacity:1"
       sodipodi:type="arc" /><path
       id="text3643"
       d="M 161.34098,326.4608 L 163.17484,326.29119 C 163.33032,327.15336 163.62712,327.77878 164.06527,328.16746 C 164.50342,328.55613 165.06525,328.75047 165.75074,328.75047 C 166.33729,328.75047 166.84963,328.61621 167.28779,328.34767 C 167.73299,328.07912 168.09693,327.72225 168.37962,327.27703 C 168.66228,326.82474 168.89902,326.21699 169.08984,325.45376 C 169.28064,324.69055 169.37606,323.91319 169.37606,323.12169 C 169.37606,323.03689 169.37252,322.90969 169.36545,322.74007 C 168.98383,323.34783 168.46087,323.84252 167.7966,324.22412 C 167.13936,324.59868 166.42561,324.78595 165.65533,324.78593 C 164.36915,324.78595 163.28084,324.31953 162.39041,323.3867 C 161.49998,322.45386 161.05477,321.22423 161.05477,319.69777 C 161.05477,318.12186 161.51765,316.85335 162.44342,315.89223 C 163.37624,314.93115 164.54228,314.45059 165.94153,314.45058 C 166.9521,314.45059 167.87432,314.72267 168.70824,315.26681 C 169.54919,315.81098 170.1852,316.58834 170.6163,317.59889 C 171.05444,318.6024 171.27351,320.05819 171.27353,321.96625 C 171.27351,323.95205 171.05797,325.53504 170.62691,326.71521 C 170.19581,327.88832 169.55273,328.78228 168.69763,329.3971 C 167.84958,330.01192 166.85316,330.31933 165.70833,330.31933 C 164.49282,330.31933 163.49991,329.98366 162.72962,329.31229 C 161.95934,328.63387 161.49644,327.68337 161.34098,326.4608 M 169.15346,319.60237 C 169.15344,318.507 168.86016,317.63778 168.27362,316.99467 C 167.69412,316.3516 166.99451,316.03006 166.17473,316.03004 C 165.32672,316.03006 164.58822,316.37634 163.95927,317.06887 C 163.33032,317.76145 163.01583,318.65894 163.01583,319.76137 C 163.01583,320.75074 163.31266,321.55637 163.90627,322.17825 C 164.50694,322.79309 165.24543,323.10049 166.12174,323.10048 C 167.00509,323.10049 167.72947,322.79309 168.29484,322.17825 C 168.86723,321.55637 169.15344,320.69774 169.15346,319.60237"
       style="font-size:21px;font-style:normal;font-variant:normal;font-weight:normal;font-stretch:normal;text-align:start;line-height:100%;text-anchor:start;fill:#000000;fill-opacity:1;stroke:none;stroke-width:1px;stroke-linecap:butt;stroke-linejoin:miter;stroke-opacity:1;display:inline;font-family:Arial" /></g><g
     style="opacity:1;display:inline;overflow:visible"
     id="g6395"
     transform="matrix(0.8,0,0,0.8,83.6034,-197.24)"><path
       transform="matrix(0.909091,0,0,1,45.0966,471.26)"
       d="M 379.13385,56.692909 A 19.48819,17.716536 0 1 1 340.15747,56.692909 A 19.48819,17.716536 0 1 1 379.13385,56.692909 z"
       sodipodi:ry="17.716536"
       sodipodi:rx="19.48819"
       sodipodi:cy="56.692909"
       sodipodi:cx="359.64566"
       id="path3182"
       style="fill:#ffbb00;fill-opacity:1;stroke:#000000;stroke-width:1.90740001;stroke-miterlimit:4;stroke-dasharray:none;stroke-dashoffset:0;stroke-opacity:1"
       sodipodi:type="arc" /><path
       id="text3647"
       d="M 367.51053,535.50058 L 365.60245,535.50058 L 365.60245,523.34196 C 365.14309,523.78012 364.5389,524.21827 363.7898,524.65641 C 363.04778,525.09457 362.37994,525.42318 361.78633,525.64224 L 361.78633,523.79778 C 362.85343,523.29604 363.78625,522.68829 364.58483,521.97451 C 365.38338,521.26078 365.94873,520.56822 366.28088,519.89684 L 367.51053,519.89684 L 367.51053,535.50058 M 372.40791,527.83653 C 372.40791,525.99913 372.59516,524.52215 372.96972,523.40557 C 373.35132,522.28194 373.91314,521.41624 374.65517,520.80848 C 375.40425,520.20074 376.34416,519.89685 377.47487,519.89684 C 378.30876,519.89685 379.04018,520.06646 379.66913,520.40566 C 380.29808,520.73782 380.81752,521.2219 381.2274,521.85791 C 381.63726,522.48688 381.95881,523.25718 382.19202,524.16879 C 382.42522,525.07336 382.54183,526.29594 382.54184,527.83653 C 382.54183,529.65978 382.35456,531.13324 381.98003,532.25688 C 381.60547,533.37344 381.04365,534.23914 380.29457,534.85395 C 379.55252,535.46172 378.61264,535.76559 377.47487,535.76559 C 375.97668,535.76559 374.80004,535.22851 373.94495,534.15434 C 372.92025,532.86109 372.40791,530.75515 372.40791,527.83653 M 374.36897,527.83653 C 374.36897,530.38768 374.66578,532.08727 375.25941,532.9353 C 375.86007,533.77626 376.59857,534.19673 377.47487,534.19673 C 378.35117,534.19673 379.08611,533.77273 379.67976,532.92469 C 380.28042,532.07666 380.58078,530.38061 380.58078,527.83653 C 380.58078,525.27831 380.28042,523.57872 379.67976,522.73774 C 379.08611,521.8968 378.34411,521.47632 377.45367,521.4763 C 376.57737,521.47632 375.87774,521.84733 375.3548,522.58934 C 374.69758,523.53631 374.36897,525.28538 374.36897,527.83653"
       style="font-size:21px;font-style:normal;font-variant:normal;font-weight:normal;font-stretch:normal;text-align:start;line-height:100%;text-anchor:start;fill:#000000;fill-opacity:1;stroke:none;stroke-width:1px;stroke-linecap:butt;stroke-linejoin:miter;stroke-opacity:1;display:inline;font-family:Arial" /></g><g
     style="opacity:1;display:inline;overflow:visible"
     id="g6431"
     transform="matrix(0.8,0,0,0.8,-109.622,-166.055)"><path
       transform="matrix(0,0.909091,-1,0,272.835,45.0966)"
       d="M 379.13385,56.692909 A 19.48819,17.716536 0 1 1 340.15747,56.692909 A 19.48819,17.716536 0 1 1 379.13385,56.692909 z"
       sodipodi:ry="17.716536"
       sodipodi:rx="19.48819"
       sodipodi:cy="56.692909"
       sodipodi:cx="359.64566"
       id="path3211"
       style="fill:#ffffff;fill-opacity:1;stroke:#000000;stroke-width:1.90740001;stroke-miterlimit:4;stroke-dasharray:none;stroke-dashoffset:0;stroke-opacity:1"
       sodipodi:type="arc" /><path
       id="text3651"
       d="M 212.58668,379.7584 L 210.67862,379.7584 L 210.67862,367.5998 C 210.21924,368.03796 209.61504,368.47609 208.86595,368.91424 C 208.12392,369.3524 207.45611,369.68099 206.86248,369.90008 L 206.86248,368.05561 C 207.92958,367.55388 208.86242,366.94611 209.66098,366.23234 C 210.45953,365.5186 211.02488,364.82603 211.35704,364.15468 L 212.58668,364.15468 L 212.58668,379.7584 M 223.05983,379.7584 L 221.15177,379.7584 L 221.15177,367.5998 C 220.69242,368.03796 220.08819,368.47609 219.3391,368.91424 C 218.59707,369.3524 217.92925,369.68099 217.33564,369.90008 L 217.33564,368.05561 C 218.40273,367.55388 219.33557,366.94611 220.13414,366.23234 C 220.93269,365.5186 221.49805,364.82603 221.8302,364.15468 L 223.05983,364.15468 L 223.05983,379.7584"
       style="font-size:21px;font-style:normal;font-variant:normal;font-weight:normal;font-stretch:normal;text-align:start;line-height:100%;text-anchor:start;opacity:0.7;fill:#000000;fill-opacity:1;stroke:none;stroke-width:1px;stroke-linecap:butt;stroke-linejoin:miter;stroke-opacity:1;display:inline;font-family:Arial" /></g><g
     style="opacity:1;display:inline;overflow:visible"
     id="g6447"
     transform="matrix(0.8,0,0,0.8,86.6302,96.3456)"><path
       transform="matrix(0,0.909091,-1,0,683.858,45.0966)"
       d="M 379.13385,56.692909 A 19.48819,17.716536 0 1 1 340.15747,56.692909 A 19.48819,17.716536 0 1 1 379.13385,56.692909 z"
       sodipodi:ry="17.716536"
       sodipodi:rx="19.48819"
       sodipodi:cy="56.692909"
       sodipodi:cx="359.64566"
       id="path3240"
       style="fill:#ffffff;fill-opacity:1;stroke:#000000;stroke-width:1.90740001;stroke-miterlimit:4;stroke-dasharray:none;stroke-dashoffset:0;stroke-opacity:1"
       sodipodi:type="arc" /><path
       id="text3655"
       d="M 622.29404,379.7584 L 620.38598,379.7584 L 620.38598,367.59979 C 619.92662,368.03796 619.3224,368.4761 618.57331,368.91424 C 617.83129,369.3524 617.16347,369.68099 616.56984,369.90008 L 616.56984,368.05561 C 617.63695,367.55388 618.56978,366.94612 619.36835,366.23235 C 620.16689,365.5186 620.73224,364.82603 621.0644,364.15468 L 622.29404,364.15468 L 622.29404,379.7584 M 637.21935,377.92456 L 637.21935,379.7584 L 626.94761,379.7584 C 626.93348,379.29906 627.00767,378.85738 627.17022,378.43337 C 627.43169,377.73374 627.84862,377.04473 628.42105,376.36628 C 629.00054,375.68786 629.83443,374.90344 630.92274,374.013 C 632.61173,372.6279 633.75303,371.53254 634.34666,370.7269 C 634.94028,369.91422 635.23708,369.14745 635.23709,368.42661 C 635.23708,367.67048 634.965,367.03446 634.42086,366.51856 C 633.88376,365.99561 633.18061,365.73414 632.31138,365.73413 C 631.39268,365.73414 630.65773,366.00975 630.10652,366.56095 C 629.55529,367.11219 629.27616,367.8754 629.26907,368.85064 L 627.30802,368.64923 C 627.44228,367.18639 627.94756,366.07335 628.82387,365.3101 C 629.70015,364.53984 630.87681,364.15469 632.35378,364.15468 C 633.84491,364.15469 635.02508,364.5681 635.89431,365.39492 C 636.76354,366.22176 637.19814,367.24646 637.19816,368.46902 C 637.19814,369.09092 637.07094,369.70222 636.81653,370.30287 C 636.56212,370.90358 636.13811,371.53607 635.5445,372.20036 C 634.95793,372.86465 633.97918,373.77628 632.60818,374.93525 C 631.46336,375.89635 630.7284,376.55004 630.40333,376.89632 C 630.07824,377.23553 629.80971,377.57828 629.59769,377.92456 L 637.21935,377.92456"
       style="font-size:21px;font-style:normal;font-variant:normal;font-weight:normal;font-stretch:normal;text-align:start;line-height:100%;text-anchor:start;opacity:0.7;fill:#000000;fill-opacity:1;stroke:none;stroke-width:1px;stroke-linecap:butt;stroke-linejoin:miter;stroke-opacity:1;display:inline;font-family:Arial" /></g><g
     style="opacity:0.3;display:inline;overflow:visible"
     id="g6379"
     transform="matrix(0.8,0,0,0.8,-17.1105,200.074)"><path
       transform="matrix(0.909091,0,0,1,45.0966,60.2362)"
       d="M 379.13385,56.692909 A 19.48819,17.716536 0 1 1 340.15747,56.692909 A 19.48819,17.716536 0 1 1 379.13385,56.692909 z"
       sodipodi:ry="17.716536"
       sodipodi:rx="19.48819"
       sodipodi:cy="56.692909"
       sodipodi:cx="359.64566"
       id="path3168"
       style="opacity:1;fill:#ffbb00;fill-opacity:1;stroke:#000000;stroke-width:1.90740001;stroke-miterlimit:4;stroke-dasharray:none;stroke-dashoffset:0;stroke-opacity:1"
       sodipodi:type="arc" /><path
       id="text3659"
       d="M 367.48402,124.44725 L 365.57595,124.44725 L 365.57595,112.28863 C 365.11661,112.72679 364.51238,113.16493 363.7633,113.60308 C 363.02126,114.04123 362.35344,114.36985 361.75982,114.58891 L 361.75982,112.74445 C 362.82692,112.24271 363.75977,111.63495 364.55834,110.92118 C 365.35688,110.20744 365.92224,109.51488 366.25438,108.84351 L 367.48402,108.84351 L 367.48402,124.44725 M 372.392,120.34491 L 374.30006,120.0905 C 374.51912,121.17174 374.89013,121.95263 375.41311,122.43317 C 375.94311,122.90666 376.5862,123.1434 377.34238,123.1434 C 378.23986,123.1434 378.996,122.83246 379.61085,122.21058 C 380.23272,121.58868 380.54367,120.8184 380.54368,119.89969 C 380.54367,119.0234 380.25744,118.30258 379.68505,117.73721 C 379.11262,117.1648 378.38473,116.87859 377.50136,116.87859 C 377.14094,116.87859 376.69221,116.94926 376.15512,117.0906 L 376.36712,115.41573 C 376.49433,115.42989 376.5968,115.43694 376.67455,115.43694 C 377.48722,115.43694 378.21866,115.22494 378.86882,114.80092 C 379.51896,114.37692 379.84404,113.72323 379.84404,112.83985 C 379.84404,112.14023 379.60731,111.56075 379.13383,111.10139 C 378.66035,110.64206 378.04904,110.41238 377.29995,110.41236 C 376.55795,110.41238 375.93957,110.64559 375.44489,111.112 C 374.9502,111.57841 374.6322,112.27805 374.49086,113.21087 L 372.58282,112.87164 C 372.816,111.59255 373.34603,110.60318 374.17286,109.90355 C 374.99968,109.19687 376.02792,108.84352 377.25756,108.84351 C 378.10558,108.84352 378.88648,109.02727 379.60023,109.39473 C 380.31399,109.75516 380.85815,110.24984 381.2327,110.87878 C 381.61431,111.50775 381.80511,112.17557 381.80512,112.88225 C 381.80511,113.55361 381.62491,114.1649 381.2645,114.71611 C 380.90408,115.26734 380.37053,115.70549 379.66385,116.03056 C 380.58253,116.24257 381.2963,116.68425 381.80512,117.3556 C 382.31392,118.0199 382.56833,118.85379 382.56835,119.85729 C 382.56833,121.21415 382.07365,122.36604 381.08429,123.313 C 380.09492,124.25291 378.84407,124.72286 377.33177,124.72286 C 375.96786,124.72286 374.83361,124.31651 373.92904,123.50382 C 373.03156,122.69112 372.51918,121.63815 372.392,120.34491"
       style="font-size:21px;font-style:normal;font-variant:normal;font-weight:normal;font-stretch:normal;text-align:start;line-height:100%;text-anchor:start;fill:#000000;fill-opacity:1;stroke:none;stroke-width:1px;stroke-linecap:butt;stroke-linejoin:miter;stroke-opacity:1;display:inline;font-family:Arial" /></g><g
     style="opacity:1;display:inline;overflow:visible"
     id="g6459"
     transform="matrix(0.8,0,0,0.8,166.348,-23.377)"><path
       transform="matrix(0,0.909091,-1,0,634.252,94.7029)"
       d="M 379.13385,56.692909 A 19.48819,17.716536 0 1 1 340.15747,56.692909 A 19.48819,17.716536 0 1 1 379.13385,56.692909 z"
       sodipodi:ry="17.716536"
       sodipodi:rx="19.48819"
       sodipodi:cy="56.692909"
       sodipodi:cx="359.64566"
       id="path3244"
       style="fill:#33eb2a;fill-opacity:1;stroke:#000000;stroke-width:1.90740001;stroke-miterlimit:4;stroke-dasharray:none;stroke-dashoffset:0;stroke-opacity:1"
       sodipodi:type="arc" /><path
       id="text3663"
       d="M 572.57236,429.47674 L 570.66429,429.47674 L 570.66429,417.31813 C 570.20495,417.75629 569.60073,418.19443 568.85163,418.63257 C 568.10961,419.07073 567.44178,419.39933 566.84817,419.61841 L 566.84817,417.77394 C 567.91527,417.27221 568.84811,416.66445 569.64668,415.95068 C 570.44523,415.23693 571.01058,414.54437 571.34273,413.87301 L 572.57236,413.87301 L 572.57236,429.47674 M 583.58614,429.47674 L 583.58614,425.75602 L 576.84432,425.75602 L 576.84432,424.00695 L 583.93596,413.93661 L 585.4942,413.93661 L 585.4942,424.00695 L 587.59309,424.00695 L 587.59309,425.75602 L 585.4942,425.75602 L 585.4942,429.47674 L 583.58614,429.47674 M 583.58614,424.00695 L 583.58614,417.00012 L 578.72059,424.00695 L 583.58614,424.00695"
       style="font-size:21px;font-style:normal;font-variant:normal;font-weight:normal;font-stretch:normal;text-align:start;line-height:100%;text-anchor:start;fill:#000000;fill-opacity:1;stroke:none;stroke-width:1px;stroke-linecap:butt;stroke-linejoin:miter;stroke-opacity:1;display:inline;font-family:Arial" /></g><g
     style="opacity:0.3;display:inline;overflow:visible"
     id="g6407"
     transform="matrix(0.8,0,0,0.8,-96.5483,40.9743)"><path
       transform="matrix(0.909091,0,0,1,-4.57704,110.247)"
       d="M 379.13385,56.692909 A 19.48819,17.716536 0 1 1 340.15747,56.692909 A 19.48819,17.716536 0 1 1 379.13385,56.692909 z"
       sodipodi:ry="17.716536"
       sodipodi:rx="19.48819"
       sodipodi:cy="56.692909"
       sodipodi:cx="359.64566"
       id="path3170"
       style="opacity:1;fill:#ffffff;fill-opacity:1;stroke:#000000;stroke-width:1.90740001;stroke-miterlimit:4;stroke-dasharray:none;stroke-dashoffset:0;stroke-opacity:1"
       sodipodi:type="arc" /><path
       id="text3667"
       d="M 317.37401,174.25 L 315.46594,174.25 L 315.46594,162.09138 C 315.00658,162.52954 314.40236,162.96769 313.65327,163.40583 C 312.91126,163.84399 312.24343,164.1726 311.64981,164.39166 L 311.64981,162.5472 C 312.71691,162.04546 313.64973,161.43771 314.44831,160.72394 C 315.24685,160.0102 315.81221,159.31764 316.14436,158.64626 L 317.37401,158.64626 L 317.37401,174.25 M 322.27138,170.17947 L 324.27485,170.00985 C 324.42325,170.98511 324.76599,171.72007 325.30308,172.21474 C 325.84723,172.70236 326.50091,172.94617 327.26414,172.94615 C 328.18283,172.94617 328.9602,172.59989 329.59623,171.90732 C 330.23224,171.21479 330.55025,170.29607 330.55026,169.15124 C 330.55025,168.06293 330.24284,167.20431 329.62803,166.57534 C 329.02027,165.94639 328.2217,165.63191 327.23235,165.63191 C 326.61753,165.63191 326.06275,165.77327 325.56808,166.05592 C 325.0734,166.33154 324.68471,166.69196 324.40204,167.13717 L 322.61059,166.90396 L 324.11583,158.92187 L 331.8435,158.92187 L 331.8435,160.74516 L 325.64228,160.74516 L 324.80486,164.92169 C 325.7377,164.27154 326.71646,163.94645 327.74116,163.94645 C 329.098,163.94645 330.24284,164.41641 331.17568,165.3563 C 332.1085,166.2962 332.57491,167.50464 332.57494,168.98163 C 332.57491,170.38795 332.16504,171.60345 331.34529,172.62815 C 330.34885,173.88607 328.98846,174.51502 327.26414,174.51502 C 325.85076,174.51502 324.69532,174.11927 323.79782,173.32777 C 322.9074,172.53628 322.39857,171.48684 322.27138,170.17947"
       style="font-size:21px;font-style:normal;font-variant:normal;font-weight:normal;font-stretch:normal;text-align:start;line-height:100%;text-anchor:start;opacity:0.7;fill:#000000;fill-opacity:1;stroke:none;stroke-width:1px;stroke-linecap:butt;stroke-linejoin:miter;stroke-opacity:1;display:inline;font-family:Arial" /></g><g
     style="opacity:1;display:inline;overflow:visible"
     id="g6391"
     transform="matrix(0.8,0,0,0.8,54.4319,-333.748)"><path
       transform="matrix(0.909091,0,0,1,45.0966,407.48)"
       d="M 379.13385,56.692909 A 19.48819,17.716536 0 1 1 340.15747,56.692909 A 19.48819,17.716536 0 1 1 379.13385,56.692909 z"
       sodipodi:ry="17.716536"
       sodipodi:rx="19.48819"
       sodipodi:cy="56.692909"
       sodipodi:cx="359.64566"
       id="path3180"
       style="fill:#ffffff;fill-opacity:1;stroke:#000000;stroke-width:3.81479001;stroke-miterlimit:4;stroke-dasharray:none;stroke-dashoffset:0;stroke-opacity:1"
       sodipodi:type="arc" /><path
       id="text3671"
       d="M 367.21725,473.54277 L 363.53984,473.54277 L 363.53984,459.68378 C 362.19625,460.94012 360.61274,461.8693 358.7893,462.47128 L 358.7893,459.13412 C 359.749,458.82005 360.7916,458.22679 361.91706,457.35431 C 363.04254,456.47314 363.81466,455.448 364.23345,454.27889 L 367.21725,454.27889 L 367.21725,473.54277 M 385.18552,459.0556 L 381.6259,459.44821 C 381.53864,458.71536 381.3118,458.17443 380.94537,457.82544 C 380.57894,457.47647 380.10345,457.30198 379.51891,457.30197 C 378.74241,457.30198 378.08371,457.65097 377.54279,458.34891 C 377.01058,459.04689 376.67469,460.49954 376.5351,462.70684 C 377.45118,461.625 378.58974,461.08408 379.95078,461.08406 C 381.48628,461.08408 382.79934,461.66863 383.88992,462.83771 C 384.98921,464.00681 385.53885,465.51617 385.53887,467.36577 C 385.53885,469.3288 384.96303,470.90358 383.8114,472.09013 C 382.65975,473.27667 381.18093,473.86994 379.37496,473.86994 C 377.43809,473.86994 375.84586,473.11963 374.59824,471.619 C 373.35063,470.10964 372.72682,467.6406 372.72682,464.21183 C 372.72682,460.69584 373.3768,458.16135 374.67676,456.60836 C 375.97672,455.05541 377.66493,454.27892 379.74139,454.27889 C 381.19838,454.27892 382.40237,454.68897 383.35336,455.50906 C 384.31306,456.32047 384.92377,457.50264 385.18552,459.0556 M 376.84918,467.07785 C 376.84918,468.27313 377.12401,469.19793 377.67366,469.85227 C 378.2233,470.49789 378.85147,470.8207 379.55817,470.8207 C 380.23868,470.8207 380.80577,470.55461 381.25946,470.0224 C 381.71313,469.4902 381.93996,468.61775 381.93998,467.40503 C 381.93996,466.15742 381.69568,465.2457 381.20711,464.66987 C 380.71852,464.08533 380.10781,463.79306 379.37496,463.79305 C 378.66825,463.79306 378.07062,464.07225 377.58205,464.63061 C 377.09346,465.18026 376.84918,465.99601 376.84918,467.07785"
       style="font-size:21px;font-style:normal;font-variant:normal;font-weight:bold;font-stretch:normal;text-align:start;line-height:100%;text-anchor:start;fill:#000000;fill-opacity:1;stroke:none;stroke-width:1px;stroke-linecap:butt;stroke-linejoin:miter;stroke-opacity:1;display:inline;font-family:Arial" /></g><g
     style="opacity:1;display:inline;overflow:visible"
     id="g6435"
     transform="matrix(0.8,0,0,0.8,-29.346,-297.326)"><path
       transform="matrix(0,0.909091,-1,0,336.614,45.0966)"
       d="M 379.13385,56.692909 A 19.48819,17.716536 0 1 1 340.15747,56.692909 A 19.48819,17.716536 0 1 1 379.13385,56.692909 z"
       sodipodi:ry="17.716536"
       sodipodi:rx="19.48819"
       sodipodi:cy="56.692909"
       sodipodi:cx="359.64566"
       id="path3209"
       style="fill:#ffbb00;fill-opacity:1;stroke:#000000;stroke-width:1.90740001;stroke-miterlimit:4;stroke-dasharray:none;stroke-dashoffset:0;stroke-opacity:1"
       sodipodi:type="arc" /><path
       id="text3675"
       d="M 275.15357,379.75841 L 273.24549,379.75841 L 273.24549,367.5998 C 272.78613,368.03796 272.18193,368.4761 271.43284,368.91424 C 270.69081,369.3524 270.02298,369.68099 269.42937,369.90008 L 269.42937,368.05561 C 270.49647,367.55388 271.42929,366.94612 272.22787,366.23235 C 273.02642,365.5186 273.59178,364.82603 273.92392,364.15468 L 275.15357,364.15468 L 275.15357,379.75841 M 280.17815,366.25355 L 280.17815,364.41969 L 290.23789,364.41969 L 290.23789,365.90373 C 289.2485,366.95672 288.2662,368.35596 287.29098,370.10147 C 286.32281,371.84702 285.57372,373.64201 285.04371,375.48646 C 284.66208,376.78678 284.41829,378.21076 284.31228,379.75841 L 282.35121,379.75841 C 282.37241,378.53584 282.6127,377.05886 283.07204,375.32746 C 283.53139,373.59607 284.18861,371.92828 285.04371,370.32407 C 285.90586,368.71284 286.82103,367.356 287.7892,366.25355 L 280.17815,366.25355"
       style="font-size:21px;font-style:normal;font-variant:normal;font-weight:normal;font-stretch:normal;text-align:start;line-height:100%;text-anchor:start;fill:#000000;fill-opacity:1;stroke:none;stroke-width:1px;stroke-linecap:butt;stroke-linejoin:miter;stroke-opacity:1;display:inline;font-family:Arial" /></g><g
     id="g3258"
     style="opacity:0.3"><g
       transform="matrix(0.8,0,0,0.8,89.9567,-41.3939)"
       id="g6455"
       style="opacity:1;display:inline;overflow:visible"><path
         sodipodi:type="arc"
         style="fill:#ffbb00;fill-opacity:1;stroke:#000000;stroke-width:1.90740001;stroke-miterlimit:4;stroke-dasharray:none;stroke-dashoffset:0;stroke-opacity:1"
         id="path3242"
         sodipodi:cx="359.64566"
         sodipodi:cy="56.692909"
         sodipodi:rx="19.48819"
         sodipodi:ry="17.716536"
         d="M 379.13385,56.692909 A 19.48819,17.716536 0 1 1 340.15747,56.692909 A 19.48819,17.716536 0 1 1 379.13385,56.692909 z"
         transform="matrix(0,0.909091,-1,0,634.252,-4.50966)" /><path
         style="font-size:21px;font-style:normal;font-variant:normal;font-weight:normal;font-stretch:normal;text-align:start;line-height:100%;text-anchor:start;fill:#000000;fill-opacity:1;stroke:none;stroke-width:1px;stroke-linecap:butt;stroke-linejoin:miter;stroke-opacity:1;display:inline;font-family:Arial"
         d="M 572.52466,330.05432 L 570.6166,330.05432 L 570.6166,317.8957 C 570.15724,318.33386 569.55302,318.77201 568.80393,319.21015 C 568.0619,319.64831 567.39408,319.97692 566.80047,320.19598 L 566.80047,318.35152 C 567.86756,317.84978 568.80039,317.24203 569.59897,316.52825 C 570.39751,315.81452 570.96287,315.12196 571.29502,314.45058 L 572.52466,314.45058 L 572.52466,330.05432 M 580.35833,321.62704 C 579.56684,321.33729 578.98029,320.92388 578.59868,320.3868 C 578.21705,319.84971 578.02624,319.20663 578.02625,318.45752 C 578.02624,317.32684 578.4326,316.37634 579.24529,315.60602 C 580.05798,314.83575 581.13922,314.45061 582.489,314.45058 C 583.84584,314.45061 584.93768,314.84634 585.76453,315.63783 C 586.59134,316.42227 587.00475,317.37983 587.00475,318.51052 C 587.00475,319.23137 586.81394,319.86032 586.43234,320.39739 C 586.05779,320.92742 585.48537,321.33729 584.71508,321.62704 C 585.66911,321.93799 586.39348,322.43973 586.88815,323.13228 C 587.3899,323.82484 587.64078,324.65167 587.64079,325.61277 C 587.64078,326.94136 587.17082,328.05793 586.23095,328.96249 C 585.29103,329.86705 584.05432,330.31933 582.52079,330.31933 C 580.98728,330.31933 579.75057,329.86705 578.81067,328.96249 C 577.87078,328.05085 577.40083,326.91662 577.40083,325.55977 C 577.40083,324.54921 577.65524,323.70471 578.16407,323.02629 C 578.67994,322.3408 579.41138,321.87438 580.35833,321.62704 M 579.97672,318.39392 C 579.97672,319.12889 580.21346,319.72958 580.68696,320.19598 C 581.16043,320.66241 581.77523,320.89561 582.53141,320.89561 C 583.26637,320.89561 583.86704,320.66595 584.33347,320.20659 C 584.80695,319.74018 585.04368,319.17129 585.0437,318.49993 C 585.04368,317.80031 584.79988,317.21376 584.31226,316.74027 C 583.83171,316.25972 583.23102,316.01945 582.51021,316.01944 C 581.78231,316.01945 581.1781,316.25267 580.69754,316.71907 C 580.21699,317.18549 579.97672,317.74378 579.97672,318.39392 M 579.3619,325.57036 C 579.36188,326.11452 579.4891,326.64101 579.74352,327.14983 C 580.00499,327.65864 580.39013,328.05439 580.89895,328.33706 C 581.40776,328.61267 581.95544,328.75049 582.54201,328.75047 C 583.45363,328.75049 584.20626,328.4572 584.79989,327.87064 C 585.39349,327.2841 585.6903,326.53854 585.69031,325.63397 C 585.6903,324.71528 585.38289,323.95559 584.76808,323.35489 C 584.16032,322.75421 583.3971,322.45388 582.47842,322.45386 C 581.5809,322.45388 580.83535,322.75067 580.24173,323.3443 C 579.65517,323.93792 579.36188,324.67994 579.3619,325.57036"
         id="text3679" /></g></g><g
     style="opacity:0.3;display:inline;overflow:visible"
     id="g6411"
     transform="matrix(0.8,0,0,0.8,62.263,41.4308)"><path
       transform="matrix(0.909091,0,0,1,94.7029,109.843)"
       d="M 379.13385,56.692909 A 19.48819,17.716536 0 1 1 340.15747,56.692909 A 19.48819,17.716536 0 1 1 379.13385,56.692909 z"
       sodipodi:ry="17.716536"
       sodipodi:rx="19.48819"
       sodipodi:cy="56.692909"
       sodipodi:cx="359.64566"
       id="path3172"
       style="opacity:1;fill:#ffffff;fill-opacity:1;stroke:#000000;stroke-width:1.90740001;stroke-miterlimit:4;stroke-dasharray:none;stroke-dashoffset:0;stroke-opacity:1"
       sodipodi:type="arc" /><path
       id="text3683"
       d="M 417.02976,174.25001 L 415.1217,174.25001 L 415.1217,162.09139 C 414.66234,162.52955 414.05813,162.96769 413.30903,163.40583 C 412.567,163.844 411.89918,164.17261 411.30556,164.39167 L 411.30556,162.54721 C 412.37267,162.04547 413.30549,161.43771 414.10406,160.72394 C 414.90262,160.01021 415.46796,159.31764 415.80011,158.64626 L 417.02976,158.64626 L 417.02976,174.25001 M 422.21334,170.65649 L 424.0472,170.48687 C 424.20268,171.34904 424.49948,171.97447 424.93765,172.36315 C 425.37577,172.75182 425.9376,172.94616 426.62309,172.94616 C 427.20963,172.94616 427.72198,172.8119 428.16014,172.54336 C 428.60535,172.27481 428.96931,171.91793 429.25199,171.47271 C 429.53466,171.02043 429.7714,170.41267 429.9622,169.64945 C 430.15299,168.88623 430.24841,168.10888 430.24842,167.31737 C 430.24841,167.23258 430.24489,167.10538 430.23782,166.93576 C 429.8562,167.54352 429.33324,168.03821 428.66896,168.4198 C 428.01173,168.79437 427.29798,168.98164 426.52769,168.98162 C 425.24151,168.98164 424.15321,168.51522 423.26278,167.58239 C 422.37235,166.64955 421.92713,165.41992 421.92713,163.89346 C 421.92713,162.31754 422.39001,161.04904 423.31578,160.08792 C 424.24861,159.12683 425.41465,158.64628 426.8139,158.64626 C 427.82446,158.64628 428.74669,158.91835 429.58059,159.4625 C 430.42154,160.00667 431.05757,160.78402 431.48866,161.79458 C 431.9268,162.79809 432.14587,164.25388 432.14588,166.16194 C 432.14587,168.14773 431.93033,169.73073 431.49925,170.9109 C 431.06816,172.08401 430.42508,172.97797 429.56999,173.59278 C 428.72195,174.20761 427.72553,174.51502 426.58068,174.51502 C 425.36518,174.51502 424.37227,174.17935 423.60198,173.50798 C 422.83169,172.82956 422.3688,171.87905 422.21334,170.65649 M 430.02581,163.79806 C 430.0258,162.70269 429.73252,161.83347 429.14598,161.19036 C 428.56647,160.54729 427.86687,160.22575 427.0471,160.22573 C 426.19909,160.22575 425.46058,160.57203 424.83163,161.26456 C 424.20268,161.95713 423.8882,162.85463 423.8882,163.95705 C 423.8882,164.94642 424.18501,165.75206 424.77864,166.37393 C 425.37931,166.98878 426.1178,167.29618 426.9941,167.29617 C 427.87746,167.29618 428.60181,166.98878 429.16718,166.37393 C 429.73959,165.75206 430.0258,164.89343 430.02581,163.79806"
       style="font-size:21px;font-style:normal;font-variant:normal;font-weight:normal;font-stretch:normal;text-align:start;line-height:100%;text-anchor:start;opacity:0.7;fill:#000000;fill-opacity:1;stroke:none;stroke-width:1px;stroke-linecap:butt;stroke-linejoin:miter;stroke-opacity:1;display:inline;font-family:Arial" /></g><g
     style="opacity:1;display:inline;overflow:visible"
     id="g6443"
     transform="matrix(0.8,0,0,0.8,165.926,-166.185)"><path
       transform="matrix(0,0.909091,-1,0,584.646,45.0966)"
       d="M 379.13385,56.692909 A 19.48819,17.716536 0 1 1 340.15747,56.692909 A 19.48819,17.716536 0 1 1 379.13385,56.692909 z"
       sodipodi:ry="17.716536"
       sodipodi:rx="19.48819"
       sodipodi:cy="56.692909"
       sodipodi:cx="359.64566"
       id="path3246"
       style="fill:#ffffff;fill-opacity:1;stroke:#000000;stroke-width:1.90740001;stroke-miterlimit:4;stroke-dasharray:none;stroke-dashoffset:0;stroke-opacity:1"
       sodipodi:type="arc" /><path
       id="text3687"
       d="M 526.95443,377.79204 L 526.95443,379.6259 L 516.68268,379.6259 C 516.66855,379.16656 516.74275,378.72488 516.9053,378.30086 C 517.16675,377.60125 517.58371,376.91222 518.15613,376.23379 C 518.73561,375.55538 519.5695,374.77094 520.65782,373.8805 C 522.3468,372.49538 523.4881,371.40004 524.08174,370.5944 C 524.67535,369.7817 524.97215,369.01496 524.97216,368.29411 C 524.97215,367.53796 524.70007,366.90194 524.15594,366.38605 C 523.61885,365.86311 522.91568,365.60165 522.04645,365.60163 C 521.12776,365.60165 520.3928,365.87725 519.84159,366.42845 C 519.29036,366.97969 519.01123,367.74292 519.00416,368.71812 L 517.0431,368.51671 C 517.17736,367.05389 517.68264,365.94086 518.55894,365.17761 C 519.43523,364.40733 520.61188,364.02218 522.08887,364.02216 C 523.57997,364.02218 524.76015,364.4356 525.62938,365.26242 C 526.49861,366.08926 526.93322,367.11395 526.93323,368.33651 C 526.93322,368.95842 526.80601,369.5697 526.55161,370.17039 C 526.2972,370.77107 525.87319,371.40356 525.27957,372.06785 C 524.69302,372.73212 523.71424,373.64378 522.34327,374.80274 C 521.19842,375.76385 520.46348,376.41752 520.1384,376.7638 C 519.81332,377.10302 519.54476,377.44576 519.33276,377.79204 L 526.95443,377.79204 M 529.01091,371.96186 C 529.01091,370.12446 529.19817,368.64748 529.57271,367.53089 C 529.95433,366.40726 530.51615,365.54156 531.25818,364.9338 C 532.00727,364.32606 532.94717,364.02218 534.07787,364.02216 C 534.91177,364.02218 535.64319,364.19178 536.27216,364.53098 C 536.90109,364.86314 537.4205,365.34723 537.83041,365.98322 C 538.24028,366.61221 538.56182,367.3825 538.79503,368.29411 C 539.02825,369.19869 539.14485,370.42126 539.14485,371.96186 C 539.14485,373.7851 538.95757,375.25856 538.58303,376.3822 C 538.20847,377.49876 537.64666,378.36447 536.89757,378.97928 C 536.15554,379.58704 535.21565,379.89092 534.07787,379.89092 C 532.57969,379.89092 531.40304,379.35384 530.54796,378.27967 C 529.52326,376.9864 529.01091,374.88048 529.01091,371.96186 M 530.97196,371.96186 C 530.97196,374.513 531.26878,376.2126 531.8624,377.06063 C 532.46308,377.90158 533.20158,378.32205 534.07787,378.32205 C 534.95417,378.32205 535.68912,377.89805 536.28275,377.05002 C 536.88343,376.20198 537.18377,374.50594 537.18378,371.96186 C 537.18377,369.40364 536.88343,367.70405 536.28275,366.86307 C 535.68912,366.02212 534.94709,365.60165 534.05667,365.60163 C 533.18036,365.60165 532.48076,365.97266 531.9578,366.71467 C 531.30058,367.66164 530.97196,369.4107 530.97196,371.96186"
       style="font-size:21px;font-style:normal;font-variant:normal;font-weight:normal;font-stretch:normal;text-align:start;line-height:100%;text-anchor:start;opacity:0.7;fill:#000000;fill-opacity:1;stroke:none;stroke-width:1px;stroke-linecap:butt;stroke-linejoin:miter;stroke-opacity:1;display:inline;font-family:Arial" /></g><g
     style="opacity:0.3;display:inline;overflow:visible"
     id="g2678"
     transform="matrix(0.8,0,0,0.8,-17.076,-117.441)"><path
       transform="matrix(0.909091,0,0,1,45.0966,159.449)"
       d="M 379.13385,56.692909 A 19.48819,17.716536 0 1 1 340.15747,56.692909 A 19.48819,17.716536 0 1 1 379.13385,56.692909 z"
       sodipodi:ry="17.716536"
       sodipodi:rx="19.48819"
       sodipodi:cy="56.692909"
       sodipodi:cx="359.64566"
       id="path2680"
       style="opacity:1;fill:#33eb2a;fill-opacity:1;stroke:#000000;stroke-width:1.90740001;stroke-miterlimit:4;stroke-dasharray:none;stroke-dashoffset:0;stroke-opacity:1"
       sodipodi:type="arc" /><path
       id="path2682"
       d="M 372.67906,221.79222 L 372.67906,223.62607 L 362.40729,223.62607 C 362.39316,223.16672 362.46737,222.72504 362.6299,222.30103 C 362.89137,221.6014 363.30832,220.91239 363.88075,220.23395 C 364.46024,219.55553 365.29413,218.77111 366.38244,217.88067 C 368.07142,216.49557 369.21272,215.4002 369.80636,214.59456 C 370.39997,213.78188 370.69677,213.01511 370.69678,212.29428 C 370.69677,211.53814 370.4247,210.90212 369.88056,210.38622 C 369.34346,209.86327 368.64031,209.6018 367.77108,209.60179 C 366.85238,209.6018 366.11742,209.87741 365.5662,210.42861 C 365.01498,210.97985 364.73584,211.74307 364.72878,212.7183 L 362.76771,212.51689 C 362.90198,211.05406 363.40727,209.94101 364.28357,209.17777 C 365.15986,208.4075 366.33649,208.02235 367.81348,208.02234 C 369.30459,208.02235 370.48476,208.43576 371.354,209.26258 C 372.22322,210.08942 372.65784,211.11412 372.65785,212.33668 C 372.65784,212.95859 372.53063,213.56988 372.27624,214.17054 C 372.02183,214.77124 371.59781,215.40373 371.0042,216.06802 C 370.41763,216.73231 369.43885,217.64394 368.06789,218.80291 C 366.92304,219.76401 366.18808,220.4177 365.86302,220.76398 C 365.53793,221.10319 365.26938,221.44594 365.05739,221.79222 L 372.67906,221.79222 M 381.92257,223.62607 L 380.0145,223.62607 L 380.0145,211.46746 C 379.55516,211.90562 378.95094,212.34376 378.20184,212.7819 C 377.45981,213.22006 376.79198,213.54866 376.19837,213.76774 L 376.19837,211.92327 C 377.26547,211.42154 378.1983,210.81378 378.99687,210.10001 C 379.79543,209.38626 380.36078,208.6937 380.69292,208.02234 L 381.92257,208.02234 L 381.92257,223.62607"
       style="font-size:21px;font-style:normal;font-variant:normal;font-weight:normal;font-stretch:normal;text-align:start;line-height:100%;text-anchor:start;fill:#000000;fill-opacity:1;stroke:none;stroke-width:1px;stroke-linecap:butt;stroke-linejoin:miter;stroke-opacity:1;display:inline;font-family:Arial" /></g><g
     style="opacity:1;display:inline;overflow:visible"
     id="g6439"
     transform="matrix(0.8,0,0,0.8,85.7352,-297.317)"><path
       transform="matrix(0,0.909091,-1,0,520.866,45.0966)"
       d="M 379.13385,56.692909 A 19.48819,17.716536 0 1 1 340.15747,56.692909 A 19.48819,17.716536 0 1 1 379.13385,56.692909 z"
       sodipodi:ry="17.716536"
       sodipodi:rx="19.48819"
       sodipodi:cy="56.692909"
       sodipodi:cx="359.64566"
       id="path3248"
       style="fill:#ffbb00;fill-opacity:1;stroke:#000000;stroke-width:1.90740001;stroke-miterlimit:4;stroke-dasharray:none;stroke-dashoffset:0;stroke-opacity:1"
       sodipodi:type="arc" /><path
       id="text3695"
       d="M 463.24917,377.92455 L 463.24917,379.75841 L 452.97742,379.75841 C 452.96328,379.29905 453.03748,378.85737 453.20003,378.43336 C 453.46151,377.73373 453.87845,377.04472 454.45087,376.36629 C 455.03036,375.68787 455.86425,374.90345 456.95255,374.013 C 458.64154,372.62791 459.78285,371.53253 460.37647,370.72689 C 460.97008,369.91421 461.26689,369.14745 461.26691,368.42661 C 461.26689,367.67047 460.99483,367.03445 460.45067,366.51855 C 459.91359,365.9956 459.21043,365.73413 458.34121,365.73413 C 457.4225,365.73413 456.68756,366.00974 456.13633,366.56094 C 455.58512,367.11218 455.30597,367.8754 455.2989,368.85063 L 453.33784,368.64923 C 453.47211,367.18639 453.97739,366.07334 454.85369,365.3101 C 455.72998,364.53983 456.90662,364.15468 458.38361,364.15467 C 459.87472,364.15468 461.0549,364.56809 461.92413,365.39491 C 462.79334,366.22175 463.22796,367.24646 463.22798,368.46901 C 463.22796,369.09092 463.10077,369.70221 462.84635,370.30287 C 462.59194,370.90358 462.16792,371.53606 461.57432,372.20035 C 460.98776,372.86464 460.009,373.77628 458.63801,374.93524 C 457.49318,375.89634 456.75821,376.55003 456.43314,376.89631 C 456.10806,377.23553 455.83952,377.57827 455.62752,377.92455 L 463.24917,377.92455 M 475.3336,377.92455 L 475.3336,379.75841 L 465.06184,379.75841 C 465.0477,379.29905 465.12191,378.85737 465.28444,378.43336 C 465.54592,377.73373 465.96287,377.04472 466.53529,376.36629 C 467.11478,375.68787 467.94867,374.90345 469.03698,374.013 C 470.72596,372.62791 471.86727,371.53253 472.46089,370.72689 C 473.0545,369.91421 473.35131,369.14745 473.35133,368.42661 C 473.35131,367.67047 473.07924,367.03445 472.53509,366.51855 C 471.99801,365.9956 471.29485,365.73413 470.42563,365.73413 C 469.50692,365.73413 468.77196,366.00974 468.22074,366.56094 C 467.66952,367.11218 467.39038,367.8754 467.38333,368.85063 L 465.42225,368.64923 C 465.55654,367.18639 466.06181,366.07334 466.9381,365.3101 C 467.8144,364.53983 468.99104,364.15468 470.46803,364.15467 C 471.95913,364.15468 473.13931,364.56809 474.00856,365.39491 C 474.87777,366.22175 475.3124,367.24646 475.3124,368.46901 C 475.3124,369.09092 475.18518,369.70221 474.93079,370.30287 C 474.67636,370.90358 474.25234,371.53606 473.65874,372.20035 C 473.07218,372.86464 472.09341,373.77628 470.72244,374.93524 C 469.57759,375.89634 468.84263,376.55003 468.51755,376.89631 C 468.19248,377.23553 467.92393,377.57827 467.71194,377.92455 L 475.3336,377.92455"
       style="font-size:21px;font-style:normal;font-variant:normal;font-weight:normal;font-stretch:normal;text-align:start;line-height:100%;text-anchor:start;fill:#000000;fill-opacity:1;stroke:none;stroke-width:1px;stroke-linecap:butt;stroke-linejoin:miter;stroke-opacity:1;display:inline;font-family:Arial" /></g><g
     style="opacity:1;display:inline;overflow:visible"
     id="g6387"
     transform="matrix(0.8,0,0,0.8,4.45895,-257.372)"><path
       transform="matrix(0.909091,0,0,1,45.0966,223.228)"
       d="M 379.13385,56.692909 A 19.48819,17.716536 0 1 1 340.15747,56.692909 A 19.48819,17.716536 0 1 1 379.13385,56.692909 z"
       sodipodi:ry="17.716536"
       sodipodi:rx="19.48819"
       sodipodi:cy="56.692909"
       sodipodi:cx="359.64566"
       id="path3176"
       style="opacity:1;fill:#ffffff;fill-opacity:1;stroke:#000000;stroke-width:3.81479001;stroke-miterlimit:4;stroke-dasharray:none;stroke-dashoffset:0;stroke-opacity:1"
       sodipodi:type="arc" /><path
       id="text3699"
       d="M 371.05169,285.61813 L 371.05169,289.0338 L 358.16113,289.0338 C 358.30072,287.74256 358.7195,286.52112 359.41746,285.36948 C 360.11542,284.20911 361.49391,282.6736 363.55292,280.7629 C 365.21058,279.21866 366.22699,278.17172 366.60216,277.62205 C 367.10817,276.86303 367.36118,276.11272 367.36119,275.37111 C 367.36118,274.55101 367.13871,273.92285 366.69376,273.4866 C 366.25753,273.04166 365.65117,272.81918 364.87469,272.81917 C 364.10692,272.81918 363.4962,273.05038 363.04252,273.51278 C 362.58885,273.97519 362.32711,274.74295 362.25732,275.81606 L 358.59299,275.44962 C 358.8111,273.42554 359.49598,271.97291 360.64763,271.0917 C 361.79927,270.21054 363.23883,269.76994 364.9663,269.76993 C 366.85953,269.76994 368.34706,270.28034 369.42892,271.3011 C 370.51076,272.32188 371.05168,273.59131 371.05169,275.10937 C 371.05168,275.97312 370.89464,276.7976 370.58056,277.58279 C 370.2752,278.35929 369.78661,279.17504 369.11484,280.03003 C 368.66987,280.59714 367.86721,281.41288 366.70686,282.47728 C 365.54647,283.54168 364.80924,284.24837 364.49518,284.59736 C 364.1898,284.94635 363.94115,285.2866 363.74921,285.61813 L 371.05169,285.61813 M 373.42042,283.94301 L 376.98004,283.51114 C 377.09347,284.4185 377.39882,285.11211 377.89613,285.59195 C 378.39342,286.07181 378.99542,286.31174 379.70212,286.31174 C 380.46115,286.31174 381.09804,286.02382 381.6128,285.448 C 382.13626,284.87218 382.398,284.09569 382.39801,283.11853 C 382.398,282.19374 382.14935,281.46087 381.65206,280.91995 C 381.15475,280.37903 380.5484,280.10856 379.83298,280.10856 C 379.36185,280.10856 378.79911,280.20017 378.14478,280.38338 L 378.55047,277.38648 C 379.54506,277.41267 380.3041,277.19892 380.82758,276.74523 C 381.35105,276.28285 381.61279,275.67212 381.6128,274.91306 C 381.61279,274.26747 381.42085,273.75272 381.03697,273.36881 C 380.65309,272.98495 380.14269,272.79301 379.50582,272.79299 C 378.87763,272.79301 378.34107,273.01112 377.89613,273.44734 C 377.45117,273.88359 377.18071,274.52048 377.08474,275.35803 L 373.69524,274.78221 C 373.9308,273.62185 374.28415,272.69704 374.75528,272.00779 C 375.23512,271.30984 375.89819,270.76455 376.74448,270.37193 C 377.59949,269.97061 378.55483,269.76994 379.61051,269.76993 C 381.41649,269.76994 382.86476,270.34578 383.95535,271.49739 C 384.85397,272.43967 385.30329,273.50406 385.3033,274.69059 C 385.30329,276.37444 384.38285,277.71804 382.54196,278.72135 C 383.64125,278.95692 384.51807,279.48475 385.17243,280.30485 C 385.83548,281.12498 386.16701,282.11522 386.16704,283.27558 C 386.16701,284.95943 385.55193,286.39462 384.32177,287.58117 C 383.09161,288.7677 381.56044,289.36098 379.72828,289.36098 C 377.9921,289.36098 376.55254,288.86368 375.40962,287.86907 C 374.26671,286.86575 373.60363,285.55706 373.42042,283.94301"
       style="font-size:21px;font-style:normal;font-variant:normal;font-weight:bold;font-stretch:normal;text-align:start;line-height:100%;text-anchor:start;fill:#000000;fill-opacity:1;stroke:none;stroke-width:1px;stroke-linecap:butt;stroke-linejoin:miter;stroke-opacity:1;display:inline;font-family:Arial" /></g></g></svg>