<?xml version="1.0" encoding="UTF-8" standalone="no"?>
<!-- Created with Serif DrawPlus 11, 0, 3, 23 (Feb 25, 14:12:55) (http://www.serif.com) -->
<svg version="1.1" xmlns="http://www.w3.org/2000/svg" xmlns:xlink="http://www.w3.org/1999/xlink" width="426.641" height="307.689">
	<g id="dp_group001" transform="matrix(1,0,0,1,-197.041,-709.82)">
		<g id="dp_group002">
			<g id="dp_group003">
				<text id="dp_text001" transform="matrix(1,0,0,1,550.445,945.928)" xml:space="preserve" fill="black" font-family="Arial" font-size="31" font-weight="700" x="0" y="0">b </text>
				<text id="dp_text002" transform="matrix(1.68283,0,0,1,551.97,925.109)" xml:space="preserve" fill="black" font-family="Arial" font-size="17" font-weight="700" x="0" y="0">^ </text>
			</g>
			<g id="dp_group006">
				<g id="dp_group007">
					<g id="dp_group008">
						<path id="dp_path009" fill="black" fill-rule="evenodd" d="M 544.463,825.493 L 545.173,827.644 L 546.595,831.945 L 555.572,823.016 L 543.043,821.192 Z "/>
						<path id="dp_path010" fill="black" d="M 406.172,873.565 L 545.173,827.644 L 544.464,825.495 L 405.463,871.416 Z "/>
					</g>
				</g>
				<g id="dp_group011">
					<g id="dp_group012">
						<path id="dp_path013" fill="black" fill-rule="evenodd" d="M 413.68,730.045 L 415.94,730.187 L 420.461,730.472 L 415.521,718.813 L 409.159,729.76 Z "/>
						<path id="dp_path014" fill="black" d="M 406.968,872.735 L 415.941,730.187 L 413.68,730.045 L 404.707,872.593 Z "/>
					</g>
				</g>
				<g id="dp_group015">
					<g id="dp_group016">
						<path id="dp_path017" fill="black" fill-rule="evenodd" d="M 531.949,922.969 L 531.091,925.065 L 529.375,929.257 L 542,928.309 L 533.667,918.777 Z "/>
						<path id="dp_path018" fill="black" d="M 405.395,873.592 L 531.091,925.067 L 531.949,922.971 L 406.253,871.496 Z "/>
					</g>
				</g>
				<path id="dp_path019" fill="none" fill-rule="evenodd" stroke="black" stroke-width="1.33333" d="M 452.701,856.495 L 496.44,870.6 L 444.483,888.82"/>
				<path id="dp_path020" fill="none" fill-rule="evenodd" stroke="black" stroke-width="1.33333" d="M 409.189,802.291 L 473.804,782.995 L 468.355,852.017"/>
				<path id="dp_path021" fill="none" fill-rule="evenodd" stroke="black" stroke-width="1.33333" d="M 408.829,834.324 L 440.612,847.345 L 437.32,884.744"/>
			</g>
			<g id="dp_group022">
				<text id="dp_text003" transform="matrix(1,0,0,1,372.378,743.013)" xml:space="preserve" fill="black" font-family="Arial" font-size="31" font-weight="700" x="0" y="0">n </text>
				<text id="dp_text004" transform="matrix(1.68283,0,0,1,373.904,727.195)" xml:space="preserve" fill="black" font-family="Arial" font-size="17" font-weight="700" x="0" y="0">^ </text>
			</g>
			<g id="dp_group025">
				<text id="dp_text005" transform="matrix(1,0,0,1,561.705,832.261)" xml:space="preserve" fill="black" font-family="Arial" font-size="31" font-weight="700" x="0" y="0">t </text>
				<text id="dp_text006" transform="matrix(1.68283,0,0,1,558.23,811.443)" xml:space="preserve" fill="black" font-family="Arial" font-size="17" font-weight="700" x="0" y="0">^ </text>
			</g>
			<path id="dp_path028" fill="none" fill-rule="evenodd" stroke="black" stroke-width="1.33333" d="M 367.253,867.847 C 482.851,825.005 556.26,862.025 615.6,949.119"/>
		</g>
		<g id="dp_group029">
			<path id="dp_path030" fill="none" fill-rule="evenodd" stroke="black" stroke-width="1.33333" d="M 253.6,960.119 C 326.267,852.119 419.933,840.119 512.6,853.119"/>
			<path id="dp_path031" fill="none" fill-rule="evenodd" stroke="black" stroke-width="1.33333" d="M 274.253,870.447 C 389.851,827.605 463.26,864.625 522.6,951.719"/>
			<path id="dp_path032" fill="none" fill-rule="evenodd" stroke="black" stroke-width="1.33333" d="M 276.6,965.119 C 349.267,857.119 442.933,845.119 535.6,858.119"/>
			<path id="dp_path033" fill="none" fill-rule="evenodd" stroke="#ee0000" stroke-width="1.33333" d="M 289.6,969.119 C 362.267,861.119 455.933,849.119 548.6,862.119"/>
			<path id="dp_path034" fill="none" fill-rule="evenodd" stroke="black" stroke-width="1.33333" d="M 364.6,1010.12 C 437.267,902.119 530.933,890.119 623.6,903.119"/>
			<path id="dp_path035" fill="none" fill-rule="evenodd" stroke="black" stroke-width="1.33333" d="M 321.6,985.119 C 394.267,877.119 487.933,865.119 580.6,878.119"/>
			<path id="dp_path036" fill="none" fill-rule="evenodd" stroke="black" stroke-width="1.33333" d="M 217.6,959.119 C 290.267,851.119 383.933,839.119 476.6,852.119"/>
			<path id="dp_path037" fill="none" fill-rule="evenodd" stroke="black" stroke-width="1.33333" d="M 230.253,896.847 C 345.851,854.005 419.26,891.025 478.6,978.119"/>
			<path id="dp_path038" fill="none" fill-rule="evenodd" stroke="#ee0000" stroke-width="1.33333" d="M 260.653,880.247 C 376.251,837.405 449.66,874.425 509,961.519"/>
			<path id="dp_path039" fill="none" fill-rule="evenodd" stroke="black" stroke-width="1.33333" d="M 298.253,866.847 C 413.851,824.005 487.26,861.025 546.6,948.119"/>
			<path id="dp_path040" fill="none" fill-rule="evenodd" stroke="black" stroke-width="1.33333" d="M 222.253,910.847 C 337.851,868.005 411.26,905.025 470.6,992.119"/>
			<path id="dp_path041" fill="none" fill-rule="evenodd" stroke="black" stroke-width="1.33333" d="M 338.253,871.847 C 453.851,829.005 527.26,866.025 586.6,953.119"/>
			<path id="dp_path042" fill="none" fill-rule="evenodd" stroke="black" stroke-width="1.33333" d="M 197.253,935.847 C 312.851,893.005 386.26,930.025 445.6,1017.12"/>
		</g>
	</g>
</svg>