<svg xmlns="http://www.w3.org/2000/svg" xmlns:xlink="http://www.w3.org/1999/xlink" x="0" y="0" width="362" height="168" style="
        width:362px;
        height:168px;
        background: transparent;
        fill: none;
">
        
        
        <svg xmlns="http://www.w3.org/2000/svg" class="role-diagram-draw-area"><g class="shapes-region" style="stroke: black; fill: none;"><g class="arrow-line"><path class="connection real" stroke-dasharray="" d="  M64,63.25 L32.91,94.34" style="stroke: rgb(0, 0, 0); stroke-width: 1px; fill: none; fill-opacity: 1;"/><g stroke="#000" transform="matrix(0.7071067811865474,-0.7071067811865477,0.7071067811865477,0.7071067811865474,31.5,95.75)" style="stroke: rgb(0, 0, 0); stroke-width: 1px;"><path d=" M10.93,-3.29 Q4.96,-0.45 0,0 Q4.96,0.45 10.93,3.29"/></g></g><g class="arrow-line"><path class="connection real" stroke-dasharray="" d="  M77.5,63.25 L108.59,94.34" style="stroke: rgb(0, 0, 0); stroke-width: 1px; fill: none; fill-opacity: 1;"/><g stroke="#000" transform="matrix(-0.7071067811865477,-0.7071067811865475,0.7071067811865475,-0.7071067811865477,110,95.75)" style="stroke: rgb(0, 0, 0); stroke-width: 1px;"><path d=" M10.93,-3.29 Q4.96,-0.45 0,0 Q4.96,0.45 10.93,3.29"/></g></g><g class="composite-shape"><path class="real" d=" M140.5,64.81 L187.3,64.81 L187.3,53.5 L218.5,76.13 L187.3,98.75 L187.3,87.44 L140.5,87.44 Z" style="stroke-width: 1px; stroke: rgb(0, 0, 0); fill: none; fill-opacity: 1;"/></g><g class="arrow-line"><path class="connection real" stroke-dasharray="" d="  M279.5,63.75 L248.41,94.84" style="stroke: rgb(0, 0, 0); stroke-width: 1px; fill: none; fill-opacity: 1;"/><g stroke="#000" transform="matrix(0.7071067811865474,-0.7071067811865477,0.7071067811865477,0.7071067811865474,247,96.25)" style="stroke: rgb(0, 0, 0); stroke-width: 1px;"><path d=" M10.93,-3.29 Q4.96,-0.45 0,0 Q4.96,0.45 10.93,3.29"/></g></g><g class="arrow-line"><path class="connection real" stroke-dasharray="" d="  M293,63.75 L324.09,94.84" style="stroke: rgb(0, 0, 0); stroke-width: 1px; fill: none; fill-opacity: 1;"/><g stroke="#000" transform="matrix(-0.7071067811865477,-0.7071067811865475,0.7071067811865475,-0.7071067811865477,325.5,96.25)" style="stroke: rgb(0, 0, 0); stroke-width: 1px;"><path d=" M10.93,-3.29 Q4.96,-0.45 0,0 Q4.96,0.45 10.93,3.29"/></g></g><g/></g><g/><g/><g/></svg>
        <svg xmlns="http://www.w3.org/2000/svg" xmlns:xlink="http://www.w3.org/1999/xlink" width="360" height="166" style="width:360px;height:166px;font-family:Asana-Math, Asana;background:transparent;"><g><g><g><g transform="matrix(1,0,0,1,67,61.19999694824219)"><path transform="matrix(0.017,0,0,-0.017,0,0)" d="M418 -3L418 27L366 30C311 33 301 44 301 96L301 700L60 598L67 548L217 614L217 96C217 44 206 33 152 30L96 27L96 -3C250 0 250 0 261 0C292 0 402 -3 418 -3Z" stroke="rgb(0,0,0)" stroke-opacity="1" stroke-width="8" fill="rgb(0,0,0)" fill-opacity="1"></path></g></g></g></g><g><g><g><g transform="matrix(1,0,0,1,24,110.70001220703125)"><path transform="matrix(0.017,0,0,-0.017,0,0)" d="M16 23L16 -3C203 -3 203 0 239 0C275 0 275 -3 468 -3L468 82C353 77 307 81 122 77L304 270C401 373 431 428 431 503C431 618 353 689 226 689C154 689 105 669 56 619L39 483L68 483L81 529C97 587 133 612 200 612C286 612 341 558 341 473C341 398 299 324 186 204Z" stroke="rgb(0,0,0)" stroke-opacity="1" stroke-width="8" fill="rgb(0,0,0)" fill-opacity="1"></path></g></g></g></g><g><g><g><g transform="matrix(1,0,0,1,109.5,110.20001220703125)"><path transform="matrix(0.017,0,0,-0.017,0,0)" d="M462 224C462 345 355 366 308 374C388 436 418 482 418 541C418 630 344 689 233 689C165 689 120 670 72 622L43 498L74 498L92 554C103 588 166 622 218 622C283 622 336 569 336 506C336 431 277 368 206 368C198 368 187 369 174 370L159 371L147 318L154 312C192 329 211 334 238 334C321 334 369 281 369 190C369 88 308 21 215 21C169 21 128 36 98 64C74 86 61 109 42 163L15 153C36 92 44 56 50 6C103 -12 147 -20 184 -20C307 -20 462 87 462 224Z" stroke="rgb(0,0,0)" stroke-opacity="1" stroke-width="8" fill="rgb(0,0,0)" fill-opacity="1"></path></g></g></g></g><g><g><g><g transform="matrix(1,0,0,1,146,81)"><path transform="matrix(0.0135,0,0,-0.0135,0,0)" d="M27 386L101 386L101 0L176 0L176 386L286 386L286 445L173 445L173 581C173 658 234 672 266 672C298 672 324 664 347 655L347 722C324 728 299 733 268 733C187 733 100 673 100 542C100 534 101 526 101 518L101 445L27 445ZM385 0L463 0L463 240C463 314 488 394 565 394C663 394 663 319 663 281L663 0L741 0L741 240C741 314 766 394 843 394C941 394 940 281 940 281L940 0L1019 0L1019 288C1019 346 1016 455 882 455C791 455 746 394 731 374C717 412 687 455 604 455C516 455 472 398 458 380L458 450L385 450ZM1143 113C1143 67 1173 -11 1257 -11C1367 -11 1422 34 1423 35L1423 0L1499 0L1499 305C1494 389 1428 461 1333 461C1270 461 1224 445 1176 417L1182 350C1215 373 1257 401 1332 401C1345 401 1371 400 1395 371C1420 341 1420 307 1421 279L1421 245C1318 244 1143 219 1143 113ZM1216 114C1216 177 1349 192 1421 193L1421 130C1421 65 1352 51 1309 51C1255 51 1216 78 1216 114ZM1660 -195L1738 -195L1738 46C1771 15 1814 -11 1873 -11C1970 -11 2059 83 2059 224C2059 343 1996 455 1901 455C1867 455 1799 448 1735 396L1735 445L1660 445ZM1738 126L1738 334C1744 341 1778 391 1844 391C1926 391 1980 310 1980 222C1980 116 1905 50 1835 50C1776 50 1738 102 1738 126ZM2509 250C2509 -54 2636 -192 2700 -250L2762 -250L2730 -216C2613 -81 2587 103 2587 250C2587 387 2610 529 2681 648C2710 697 2733 719 2762 750L2700 750C2632 689 2509 551 2509 250ZM2873 250C2873 237 2882 219 2910 219C2914 219 2918 220 2918 220L3176 220L3176 -38C3176 -45 3175 -53 3177 -60C3179 -68 3189 -83 3207 -83C3239 -83 3237 -49 3237 -38L3237 220L3499 220C3513 220 3539 221 3539 250C3539 279 3511 281 3497 281L3237 281L3237 538C3237 541 3240 583 3206 583C3175 583 3176 550 3176 538L3176 281L2920 281C2912 281 2903 281 2895 279C2887 277 2873 268 2873 250ZM3686 554C3746 554 3780 563 3816 577L3816 59L3691 59L3691 0L4021 0L4021 59L3896 59L3896 678L3877 678C3850 653 3801 612 3686 612ZM4151 -250L4212 -250C4280 -189 4404 -51 4404 251C4404 550 4280 689 4212 750L4151 750C4198 700 4326 577 4326 250C4326 -64 4211 -186 4151 -250Z" stroke="rgb(0,0,0)" stroke-opacity="1" stroke-width="8" fill="rgb(0,0,0)" fill-opacity="1"></path></g></g></g></g><g><g><g><g transform="matrix(1,0,0,1,282,61.69999694824219)"><path transform="matrix(0.017,0,0,-0.017,0,0)" d="M16 23L16 -3C203 -3 203 0 239 0C275 0 275 -3 468 -3L468 82C353 77 307 81 122 77L304 270C401 373 431 428 431 503C431 618 353 689 226 689C154 689 105 669 56 619L39 483L68 483L81 529C97 587 133 612 200 612C286 612 341 558 341 473C341 398 299 324 186 204Z" stroke="rgb(0,0,0)" stroke-opacity="1" stroke-width="8" fill="rgb(0,0,0)" fill-opacity="1"></path></g></g></g></g><g><g><g><g transform="matrix(1,0,0,1,238.5,111.20001220703125)"><path transform="matrix(0.017,0,0,-0.017,0,0)" d="M462 224C462 345 355 366 308 374C388 436 418 482 418 541C418 630 344 689 233 689C165 689 120 670 72 622L43 498L74 498L92 554C103 588 166 622 218 622C283 622 336 569 336 506C336 431 277 368 206 368C198 368 187 369 174 370L159 371L147 318L154 312C192 329 211 334 238 334C321 334 369 281 369 190C369 88 308 21 215 21C169 21 128 36 98 64C74 86 61 109 42 163L15 153C36 92 44 56 50 6C103 -12 147 -20 184 -20C307 -20 462 87 462 224Z" stroke="rgb(0,0,0)" stroke-opacity="1" stroke-width="8" fill="rgb(0,0,0)" fill-opacity="1"></path></g></g></g></g><g><g><g><g transform="matrix(1,0,0,1,324.5,111.45001220703125)"><path transform="matrix(0.017,0,0,-0.017,0,0)" d="M280 181L280 106C280 46 269 32 220 30L158 27L158 -3C291 0 291 0 315 0C339 0 339 0 472 -3L472 27L424 30C375 33 364 46 364 106L364 181C423 181 444 180 472 177L472 248L364 245L365 697L285 667L2 204L2 181ZM280 245L65 245L280 597Z" stroke="rgb(0,0,0)" stroke-opacity="1" stroke-width="8" fill="rgb(0,0,0)" fill-opacity="1"></path></g></g></g></g></svg>
</svg>
