<svg width="16" height="16" viewBox="0 0 12 12" xmlns="http://www.w3.org/2000/svg"><path d="M9.656 7.221c0 .345-.08.661-.236.95-.154.288-.36.52-.618.696a1.515 1.515 0 0 1-.86.258 1.38 1.38 0 0 1-.825-.258 1.802 1.802 0 0 1-.555-.697 2.266 2.266 0 0 1-.197-.949c0-.348.077-.666.23-.954a1.87 1.87 0 0 1 .618-.69c.258-.173.546-.26.865-.26.322 0 .6.087.836.26.236.171.418.402.545.69.131.284.197.602.197.954zm-5.66 1.657a1.341 1.341 0 0 1-.377.146c-.176.052-.31.092-.404.118L3.08 8.95l4.913-6.688c.094-.052.218-.101.371-.146.157-.045.29-.08.399-.107l.157.18ZM5.64 3.92c0 .344-.079.662-.236.954a1.852 1.852 0 0 1-.624.69 1.515 1.515 0 0 1-.859.26 1.38 1.38 0 0 1-.83-.26 1.713 1.713 0 0 1-.551-.69 2.305 2.305 0 0 1-.197-.954c0-.345.075-.661.225-.95a1.87 1.87 0 0 1 .618-.69c.258-.172.546-.258.865-.258.321 0 .6.086.836.258.24.168.425.397.556.685.131.288.197.606.197.955Zm3.094 3.414c0-.536-.079-.93-.236-1.185-.157-.258-.343-.388-.556-.388-.172 0-.324.107-.455.32-.127.214-.19.55-.19 1.011 0 .543.07.944.212 1.202.143.258.332.387.568.387.187 0 .342-.11.466-.331.127-.22.19-.56.19-1.016Zm-4.02-3.302c0-.54-.081-.934-.242-1.185-.158-.254-.341-.382-.55-.382-.177 0-.33.107-.461.32-.127.214-.191.549-.191 1.005 0 .543.071.944.213 1.202.143.258.332.388.568.388.187 0 .344-.11.471-.332.127-.22.191-.56.191-1.016z" style="font-style:normal;font-variant:normal;font-weight:400;font-stretch:normal;font-size:11.5px;line-height:0;font-family:'Gentium Book Plus';-inkscape-font-specification:'Gentium Book Plus';font-variant-ligatures:normal;font-variant-caps:normal;font-variant-numeric:normal;font-feature-settings:normal;text-align:start;writing-mode:lr-tb;text-anchor:start;fill:#000006;fill-opacity:1;stroke:none;stroke-width:.15;stroke-linecap:square;stroke-linejoin:bevel;stroke-miterlimit:4;stroke-dasharray:none;stroke-dashoffset:0;stroke-opacity:1;paint-order:markers stroke fill"/></svg>