<?xml version="1.0" encoding="UTF-8" standalone="no"?>
<!-- Created with Inkscape (http://www.inkscape.org/) -->
<svg
   xmlns:dc="http://purl.org/dc/elements/1.1/"
   xmlns:cc="http://creativecommons.org/ns#"
   xmlns:rdf="http://www.w3.org/1999/02/22-rdf-syntax-ns#"
   xmlns:svg="http://www.w3.org/2000/svg"
   xmlns="http://www.w3.org/2000/svg"
   xmlns:sodipodi="http://sodipodi.sourceforge.net/DTD/sodipodi-0.dtd"
   xmlns:inkscape="http://www.inkscape.org/namespaces/inkscape"
   width="734"
   height="500"
   id="svg2"
   sodipodi:version="0.32"
   inkscape:version="0.46"
   sodipodi:docname="utility-quantified.svg"
   inkscape:output_extension="org.inkscape.output.svg.inkscape"
   version="1.0">
  <defs
     id="defs4">
    <inkscape:perspective
       sodipodi:type="inkscape:persp3d"
       inkscape:vp_x="0 : 526.18109 : 1"
       inkscape:vp_y="0 : 1000 : 0"
       inkscape:vp_z="744.09448 : 526.18109 : 1"
       inkscape:persp3d-origin="372.04724 : 350.78739 : 1"
       id="perspective10" />
    <inkscape:perspective
       id="perspective2447"
       inkscape:persp3d-origin="372.04724 : 350.78739 : 1"
       inkscape:vp_z="744.09448 : 526.18109 : 1"
       inkscape:vp_y="0 : 1000 : 0"
       inkscape:vp_x="0 : 526.18109 : 1"
       sodipodi:type="inkscape:persp3d" />
  </defs>
  <sodipodi:namedview
     id="base"
     pagecolor="#ffffff"
     bordercolor="#666666"
     borderopacity="1.0"
     gridtolerance="10000"
     guidetolerance="10"
     objecttolerance="10"
     inkscape:pageopacity="0.0"
     inkscape:pageshadow="2"
     inkscape:zoom="1.5253955"
     inkscape:cx="367.59823"
     inkscape:cy="227.98486"
     inkscape:document-units="px"
     inkscape:current-layer="layer1"
     showgrid="false"
     inkscape:window-width="1920"
     inkscape:window-height="1123"
     inkscape:window-x="0"
     inkscape:window-y="26" />
  <metadata
     id="metadata7">
    <rdf:RDF>
      <cc:Work
         rdf:about="">
        <dc:format>image/svg+xml</dc:format>
        <dc:type
           rdf:resource="http://purl.org/dc/dcmitype/StillImage" />
      </cc:Work>
    </rdf:RDF>
  </metadata>
  <g
     inkscape:label="Layer 1"
     inkscape:groupmode="layer"
     id="layer1"
     transform="translate(0,-102.36218)">
    <g
       id="g3718"
       transform="translate(40,0)">
      <rect
         rx="2.7362968e-05"
         y="102.36218"
         x="-40"
         height="500"
         width="734"
         id="rect3566"
         style="opacity:1;fill:#ffffff;fill-opacity:1;fill-rule:nonzero;stroke:none;stroke-width:1;stroke-linecap:butt;stroke-linejoin:miter;marker:none;marker-start:none;marker-mid:none;marker-end:none;stroke-miterlimit:4;stroke-dasharray:none;stroke-dashoffset:0;stroke-opacity:1;visibility:visible;display:inline;overflow:visible;enable-background:accumulate" />
      <g
         id="g3333">
        <rect
           style="opacity:1;fill:#cde9ff;fill-opacity:1;fill-rule:nonzero;stroke:none;stroke-width:0;stroke-linecap:butt;stroke-linejoin:miter;marker:none;marker-start:none;marker-mid:none;marker-end:none;stroke-miterlimit:4;stroke-dasharray:none;stroke-dashoffset:0;stroke-opacity:1;visibility:visible;display:inline;overflow:visible;enable-background:accumulate"
           id="rect3317"
           width="684"
           height="440"
           x="0"
           y="112.36218"
           rx="0.0002487668" />
        <g
           id="g3327">
          <path
             id="text3274"
             d="M -30,290.09375 L -30,294.21875 L -24.8125,297.5625 L -30,300.875 L -30,304.96875 L -30,318.3125 L -27.15625,318.3125 L -27.15625,313.46875 L -15.40625,313.46875 L -15.40625,309.71875 L -27.15625,309.71875 L -27.15625,304.875 L -29.84375,304.875 L -21.5625,299.4375 L -15.40625,299.4375 L -15.40625,295.65625 L -21.5625,295.65625 L -30,290.09375 z M -30,320.25 L -30,324 L -15.40625,324 L -15.40625,320.25 L -30,320.25 z M -18.25,326.375 L -18.25,332.96875 L -30,332.96875 L -30,336.75 L -15.40625,336.75 L -15.40625,326.375 L -18.25,326.375 z M -30,340.40625 L -30,344.15625 L -15.40625,344.15625 L -15.40625,340.40625 L -30,340.40625 z M -30,346.09375 L -30,359.53125 L -27.15625,359.53125 L -27.15625,354.6875 L -15.40625,354.6875 L -15.40625,350.9375 L -27.15625,350.9375 L -27.15625,346.09375 L -30,346.09375 z M -30,361.46875 L -30,365.21875 L -21.25,365.21875 C -20.04557,365.21876 -19.177081,365.44663 -18.65625,365.84375 C -18.14193,366.23438 -17.906239,366.85157 -17.90625,367.75 C -17.90624,368.64194 -18.141931,369.29038 -18.65625,369.6875 C -19.17708,370.07813 -20.04557,370.28126 -21.25,370.28125 L -30,370.28125 L -30,374.03125 L -21.25,374.03125 C -19.1862,374.03125 -17.665359,373.53516 -16.65625,372.5 C -15.64713,371.46485 -15.125,369.86589 -15.125,367.75 C -15.125,365.62762 -15.647129,364.06642 -16.65625,363.03125 C -17.66536,361.99611 -19.1862,361.46876 -21.25,361.46875 L -30,361.46875 z M 229.625,572.84375 L 229.625,575.6875 L 233.125,575.6875 L 233.125,572.84375 L 229.625,572.84375 z M 284.34375,572.84375 C 282.95052,572.84377 281.91406,573.14585 281.25,573.71875 C 280.58594,574.28517 280.28125,575.15236 280.28125,576.34375 L 280.28125,577.09375 L 278.53125,577.09375 L 278.53125,579.59375 L 280.28125,579.59375 L 280.28125,588.03125 L 283.75,588.03125 L 283.75,579.59375 L 286.75,579.59375 L 286.75,577.09375 L 283.75,577.09375 L 283.75,576.34375 C 283.74999,575.90105 283.86718,575.58204 284.0625,575.40625 C 284.25781,575.22397 284.59895,575.15626 285.09375,575.15625 L 287.03125,575.15625 L 287.03125,572.84375 L 284.34375,572.84375 z M 418.28125,572.84375 C 416.88802,572.84377 415.88281,573.14585 415.21875,573.71875 C 414.55469,574.28517 414.21875,575.15236 414.21875,576.34375 L 414.21875,577.09375 L 412.46875,577.09375 L 412.46875,579.59375 L 414.21875,579.59375 L 414.21875,588.03125 L 417.71875,588.03125 L 417.71875,579.59375 L 420.6875,579.59375 L 420.6875,577.09375 L 417.71875,577.09375 L 417.71875,576.34375 C 417.71874,575.90105 417.80468,575.58204 418,575.40625 C 418.19531,575.22397 418.53645,575.15626 419.03125,575.15625 L 420.96875,575.15625 L 420.96875,572.84375 L 418.28125,572.84375 z M 302.90625,573.1875 C 300.39322,573.18751 298.41406,573.87111 296.96875,575.21875 C 295.52344,576.56642 294.8125,578.431 294.8125,580.78125 C 294.8125,583.10547 295.51823,584.95183 296.9375,586.3125 C 298.35677,587.66667 300.29036,588.34375 302.71875,588.34375 C 303.79296,588.34375 304.83462,588.22786 305.84375,588 C 306.85285,587.77214 307.81249,587.42448 308.75,586.96875 L 308.75,579.9375 L 302.90625,579.9375 L 302.90625,582.46875 L 305.1875,582.46875 L 305.1875,585.3125 C 304.92056,585.41667 304.61978,585.47917 304.28125,585.53125 C 303.94921,585.57683 303.57812,585.59375 303.1875,585.59375 C 301.74869,585.59375 300.65624,585.1836 299.875,584.34375 C 299.09374,583.50391 298.6875,582.32422 298.6875,580.78125 C 298.6875,579.22527 299.09895,578.02084 299.90625,577.1875 C 300.72005,576.34767 301.8776,575.93751 303.375,575.9375 C 304.18228,575.93751 304.98046,576.0534 305.78125,576.28125 C 306.58853,576.50913 307.40493,576.85027 308.21875,577.3125 L 308.21875,574.28125 C 307.43098,573.92319 306.57941,573.65106 305.6875,573.46875 C 304.80207,573.28647 303.87629,573.18751 302.90625,573.1875 z M 318.71875,573.1875 C 316.3815,573.18751 314.55338,573.87762 313.21875,575.21875 C 311.89062,576.55991 311.21875,578.41798 311.21875,580.78125 C 311.21875,583.13803 311.89062,584.97136 313.21875,586.3125 C 314.55338,587.65365 316.3815,588.34375 318.71875,588.34375 C 321.06249,588.34375 322.89061,587.65365 324.21875,586.3125 C 325.54686,584.97136 326.21873,583.13803 326.21875,580.78125 C 326.21873,578.41798 325.54686,576.55991 324.21875,575.21875 C 322.89061,573.87762 321.06249,573.18751 318.71875,573.1875 z M 335.71875,573.1875 C 333.3815,573.18751 331.52213,573.87762 330.1875,575.21875 C 328.85937,576.55991 328.21875,578.41798 328.21875,580.78125 C 328.21875,583.13803 328.85937,584.97136 330.1875,586.3125 C 331.52213,587.65365 333.3815,588.34375 335.71875,588.34375 C 338.06249,588.34375 339.89061,587.65365 341.21875,586.3125 C 342.54686,584.97136 343.21873,583.13803 343.21875,580.78125 C 343.21873,578.41798 342.54686,576.55991 341.21875,575.21875 C 339.89061,573.87762 338.06249,573.18751 335.71875,573.1875 z M 434.65625,573.1875 C 432.89843,573.18751 431.53125,573.59376 430.59375,574.375 C 429.65625,575.15626 429.1875,576.26694 429.1875,577.71875 C 429.1875,578.87761 429.51693,579.81641 430.1875,580.5 C 430.86458,581.1836 431.94791,581.65626 433.40625,581.96875 L 434.84375,582.3125 C 435.72916,582.50782 436.33202,582.72136 436.625,582.96875 C 436.92447,583.21615 437.06249,583.57553 437.0625,584.03125 C 437.06249,584.53907 436.84244,584.91407 436.40625,585.1875 C 435.97004,585.46094 435.35155,585.59375 434.53125,585.59375 C 433.72395,585.59375 432.87239,585.46615 432,585.21875 C 431.13411,584.96485 430.24349,584.6198 429.3125,584.125 L 429.3125,587.28125 C 430.24349,587.6263 431.19401,587.88672 432.125,588.0625 C 433.05598,588.23828 433.98176,588.34375 434.90625,588.34375 C 436.86588,588.34375 438.29947,587.9375 439.25,587.15625 C 440.20702,586.36849 440.68749,585.17058 440.6875,583.5625 C 440.68749,582.33855 440.33983,581.38282 439.65625,580.71875 C 438.97265,580.0547 437.83983,579.57553 436.21875,579.25 L 434.625,578.9375 C 433.86328,578.78126 433.32421,578.58985 433.03125,578.375 C 432.74479,578.15366 432.59375,577.82814 432.59375,577.4375 C 432.59375,576.91668 432.82031,576.55991 433.25,576.3125 C 433.67968,576.06512 434.35156,575.93751 435.25,575.9375 C 435.92708,575.93751 436.64452,576.00522 437.40625,576.1875 C 438.16796,576.3698 438.94921,576.64194 439.75,577 L 439.75,573.9375 C 438.84504,573.69663 437.97134,573.4922 437.125,573.375 C 436.27864,573.25132 435.45702,573.18751 434.65625,573.1875 z M 503.0625,573.1875 C 500.63411,573.18751 498.70052,573.88934 497.28125,575.25 C 495.86198,576.60418 495.15625,578.45053 495.15625,580.78125 C 495.15625,583.10547 495.86198,584.95183 497.28125,586.3125 C 498.70052,587.66667 500.63411,588.34375 503.0625,588.34375 C 503.87629,588.34375 504.65754,588.24479 505.40625,588.0625 C 506.15494,587.88021 506.87238,587.60807 507.5625,587.25 L 507.5625,584.21875 C 506.86587,584.69401 506.17707,585.0599 505.5,585.28125 C 504.82291,585.50261 504.12369,585.59375 503.375,585.59375 C 502.03385,585.59375 500.95572,585.17188 500.1875,584.3125 C 499.41927,583.45313 499.03125,582.28516 499.03125,580.78125 C 499.03125,579.27084 499.41927,578.07813 500.1875,577.21875 C 500.95572,576.35939 502.03385,575.93751 503.375,575.9375 C 504.12369,575.93751 504.82291,576.02866 505.5,576.25 C 506.17707,576.47137 506.86587,576.83725 507.5625,577.3125 L 507.5625,574.28125 C 506.87238,573.92319 506.15494,573.65106 505.40625,573.46875 C 504.65754,573.28647 503.87629,573.18751 503.0625,573.1875 z M 346.03125,573.46875 L 346.03125,588.03125 L 350,588.03125 C 352.18749,588.03125 353.84374,587.875 354.9375,587.5625 C 356.03124,587.24349 356.96874,586.72396 357.75,585.96875 C 358.43358,585.3112 358.91795,584.54688 359.25,583.6875 C 359.58202,582.82162 359.74998,581.85027 359.75,580.75 C 359.74998,579.66277 359.58202,578.67188 359.25,577.8125 C 358.91795,576.95314 358.43358,576.18881 357.75,575.53125 C 356.97525,574.77605 356.02473,574.25001 354.9375,573.9375 C 353.85676,573.6185 352.21353,573.46876 350,573.46875 L 346.03125,573.46875 z M 444.03125,573.46875 L 444.03125,588.03125 L 454.40625,588.03125 L 454.40625,585.21875 L 447.8125,585.21875 L 447.8125,581.875 L 453.8125,581.875 L 453.8125,579.03125 L 447.8125,579.03125 L 447.8125,576.3125 L 454.1875,576.3125 L 454.1875,573.46875 L 444.03125,573.46875 z M 457.71875,573.46875 L 457.71875,588.03125 L 461.46875,588.03125 L 461.46875,582.53125 L 462.53125,582.53125 C 463.14322,582.53126 463.63541,582.67058 464,582.9375 C 464.37109,583.20443 464.73567,583.70834 465.09375,584.4375 L 466.875,588.03125 L 470.875,588.03125 L 468.84375,583.90625 C 468.42707,583.06641 468.00389,582.44141 467.59375,582.03125 C 467.19009,581.61459 466.73306,581.33594 466.21875,581.21875 C 467.15624,580.92579 467.85025,580.4935 468.3125,579.875 C 468.78124,579.25652 469.03124,578.46355 469.03125,577.5 C 469.03124,576.10678 468.58592,575.08204 467.6875,574.4375 C 466.79556,573.79298 465.38931,573.46876 463.46875,573.46875 L 457.71875,573.46875 z M 471.375,573.46875 L 476.78125,588.03125 L 481.25,588.03125 L 486.65625,573.46875 L 482.875,573.46875 L 479.03125,584.21875 L 475.15625,573.46875 L 471.375,573.46875 z M 488.5625,573.46875 L 488.5625,588.03125 L 492.34375,588.03125 L 492.34375,573.46875 L 488.5625,573.46875 z M 510.6875,573.46875 L 510.6875,588.03125 L 521.0625,588.03125 L 521.0625,585.21875 L 514.4375,585.21875 L 514.4375,581.875 L 520.4375,581.875 L 520.4375,579.03125 L 514.4375,579.03125 L 514.4375,576.3125 L 520.84375,576.3125 L 520.84375,573.46875 L 510.6875,573.46875 z M 220.375,574 L 220.375,577.09375 L 218.65625,577.09375 L 218.65625,579.59375 L 220.375,579.59375 L 220.375,584.25 C 220.375,585.63021 220.67708,586.60807 221.25,587.1875 C 221.82942,587.76042 222.80729,588.03125 224.1875,588.03125 L 227.1875,588.03125 L 227.1875,585.53125 L 225.375,585.53125 C 224.77604,585.53125 224.38932,585.45703 224.1875,585.28125 C 223.98567,585.09896 223.87499,584.75782 223.875,584.25 L 223.875,579.59375 L 227.46875,579.59375 L 227.46875,577.09375 L 223.875,577.09375 L 223.875,574 L 220.375,574 z M 236.84375,574 L 236.84375,577.09375 L 235.09375,577.09375 L 235.09375,579.59375 L 236.84375,579.59375 L 236.84375,584.25 C 236.84375,585.63021 237.11458,586.60807 237.6875,587.1875 C 238.26692,587.76042 239.24479,588.03125 240.625,588.03125 L 243.625,588.03125 L 243.625,585.53125 L 241.84375,585.53125 C 241.24479,585.53125 240.82682,585.45703 240.625,585.28125 C 240.42317,585.09896 240.31249,584.75782 240.3125,584.25 L 240.3125,579.59375 L 243.9375,579.59375 L 243.9375,577.09375 L 240.3125,577.09375 L 240.3125,574 L 236.84375,574 z M 318.71875,575.9375 C 319.87108,575.93751 320.74348,576.34116 321.375,577.1875 C 322.0065,578.03386 322.34374,579.2448 322.34375,580.78125 C 322.34374,582.3112 322.0065,583.4974 321.375,584.34375 C 320.74348,585.19011 319.87108,585.59375 318.71875,585.59375 C 317.57291,585.59375 316.694,585.19011 316.0625,584.34375 C 315.43098,583.4974 315.09375,582.3112 315.09375,580.78125 C 315.09375,579.2448 315.43098,578.03386 316.0625,577.1875 C 316.694,576.34116 317.57291,575.93751 318.71875,575.9375 z M 335.71875,575.9375 C 336.87108,575.93751 337.74348,576.34116 338.375,577.1875 C 339.0065,578.03386 339.34374,579.2448 339.34375,580.78125 C 339.34374,582.3112 339.0065,583.4974 338.375,584.34375 C 337.74348,585.19011 336.87108,585.59375 335.71875,585.59375 C 334.57291,585.59375 333.66275,585.19011 333.03125,584.34375 C 332.39973,583.4974 332.09375,582.3112 332.09375,580.78125 C 332.09375,579.2448 332.39973,578.03386 333.03125,577.1875 C 333.66275,576.34116 334.57291,575.93751 335.71875,575.9375 z M 461.46875,576.1875 L 463.0625,576.1875 C 463.85025,576.18751 464.41145,576.33855 464.75,576.625 C 465.09504,576.91147 465.28124,577.3672 465.28125,578.03125 C 465.28124,578.70183 465.09504,579.20704 464.75,579.5 C 464.41145,579.79298 463.85025,579.93751 463.0625,579.9375 L 461.46875,579.9375 L 461.46875,576.1875 z M 349.8125,576.3125 L 351.15625,576.3125 C 352.69921,576.31251 353.84895,576.6823 354.65625,577.4375 C 355.46353,578.19272 355.87499,579.3047 355.875,580.75 C 355.87499,582.20183 355.47004,583.30079 354.65625,584.0625 C 353.84895,584.82422 352.6927,585.21875 351.15625,585.21875 L 349.8125,585.21875 L 349.8125,576.3125 z M 197,576.84375 C 196.24479,576.84376 195.47395,576.90235 194.71875,577 C 193.96354,577.09116 193.21745,577.22397 192.46875,577.40625 L 192.46875,580.0625 C 193.02213,579.76303 193.60547,579.556 194.25,579.40625 C 194.89453,579.25652 195.59505,579.15626 196.34375,579.15625 C 197.26822,579.15626 197.97004,579.30209 198.40625,579.5625 C 198.84244,579.81641 199.03124,580.22787 199.03125,580.78125 L 199.03125,581.03125 L 197,581.03125 C 195.11197,581.03126 193.69791,581.33855 192.8125,581.9375 C 191.93359,582.53646 191.5,583.46745 191.5,584.75 C 191.5,585.80469 191.85937,586.67969 192.5625,587.34375 C 193.27213,588.0013 194.17968,588.34375 195.3125,588.34375 C 196.15234,588.34375 196.88281,588.17448 197.46875,587.875 C 198.05468,587.56901 198.56249,587.10156 199.03125,586.4375 L 199.03125,588.03125 L 202.5625,588.03125 L 202.5625,581.8125 C 202.56249,580.06121 202.12889,578.806 201.25,578.03125 C 200.37759,577.25001 198.97265,576.84376 197,576.84375 z M 212.9375,576.84375 C 212.22135,576.84376 211.56119,577.00652 210.96875,577.3125 C 210.3763,577.61199 209.83984,578.08074 209.3125,578.71875 L 209.3125,577.09375 L 205.8125,577.09375 L 205.8125,588.03125 L 209.3125,588.03125 L 209.3125,582.65625 C 209.31249,581.66016 209.52083,580.90365 209.9375,580.34375 C 210.35416,579.77735 210.92708,579.46876 211.65625,579.46875 C 211.95572,579.46876 212.20312,579.5573 212.4375,579.6875 C 212.67187,579.81121 212.86327,579.99089 213,580.21875 C 213.10416,580.38803 213.17968,580.64193 213.21875,581 C 213.26431,581.35808 213.28124,581.9935 213.28125,582.9375 L 213.28125,586.96875 L 213.28125,588.03125 L 216.8125,588.03125 L 216.8125,581.375 C 216.81249,579.89714 216.47004,578.77475 215.8125,578 C 215.16145,577.22527 214.20051,576.84376 212.9375,576.84375 z M 271.28125,576.84375 C 269.39322,576.84376 267.91145,577.35939 266.84375,578.375 C 265.78255,579.39063 265.25,580.79688 265.25,582.59375 C 265.25,584.39063 265.78255,585.79688 266.84375,586.8125 C 267.91145,587.82813 269.39322,588.34375 271.28125,588.34375 C 273.16275,588.34375 274.6328,587.82813 275.6875,586.8125 C 276.74869,585.79688 277.28124,584.39063 277.28125,582.59375 C 277.28124,580.79688 276.74869,579.39063 275.6875,578.375 C 274.6328,577.35939 273.16275,576.84376 271.28125,576.84375 z M 374.65625,576.84375 C 372.76822,576.84376 371.28645,577.35939 370.21875,578.375 C 369.15755,579.39063 368.625,580.79688 368.625,582.59375 C 368.625,584.39063 369.15755,585.79688 370.21875,586.8125 C 371.28645,587.82813 372.76822,588.34375 374.65625,588.34375 C 376.53775,588.34375 377.97655,587.82813 379.03125,586.8125 C 380.09244,585.79688 380.62499,584.39063 380.625,582.59375 C 380.62499,580.79688 380.09244,579.39063 379.03125,578.375 C 377.97655,577.35939 376.53775,576.84376 374.65625,576.84375 z M 390.3125,576.84375 C 389.49869,576.84376 388.80468,577.01173 388.21875,577.34375 C 387.63932,577.66928 387.13671,578.19011 386.6875,578.90625 L 386.6875,577.09375 L 383.1875,577.09375 L 383.1875,588.03125 L 386.6875,588.03125 L 386.6875,583 C 386.68749,581.92579 386.92447,581.10417 387.40625,580.53125 C 387.89452,579.95183 388.60156,579.65626 389.5,579.65625 C 389.80598,579.65626 390.10676,579.70964 390.40625,579.78125 C 390.71223,579.84636 391.0065,579.95053 391.3125,580.09375 L 391.3125,576.9375 C 391.05207,576.90496 390.85546,576.88152 390.71875,576.875 C 390.58202,576.86199 390.42968,576.84376 390.3125,576.84375 z M 405.21875,576.84375 C 403.33072,576.84376 401.84895,577.35939 400.78125,578.375 C 399.72005,579.39063 399.1875,580.79688 399.1875,582.59375 C 399.1875,584.39063 399.72005,585.79688 400.78125,586.8125 C 401.84895,587.82813 403.33072,588.34375 405.21875,588.34375 C 407.10025,588.34375 408.5703,587.82813 409.625,586.8125 C 410.68619,585.79688 411.21874,584.39063 411.21875,582.59375 C 411.21874,580.79688 410.68619,579.39063 409.625,578.375 C 408.5703,577.35939 407.10025,576.84376 405.21875,576.84375 z M 167.0625,576.875 C 165.93599,576.99179 165.00765,577.53451 164.25,578.46875 C 163.38411,579.52996 162.9375,580.90756 162.9375,582.59375 C 162.9375,584.27995 163.38411,585.64453 164.25,586.71875 C 165.11588,587.78646 166.21484,588.34375 167.5625,588.34375 C 168.32421,588.34375 169.01432,588.17448 169.59375,587.875 C 170.17317,587.57552 170.70572,587.11328 171.1875,586.46875 L 171.1875,592.21875 L 174.6875,592.21875 L 174.6875,577.09375 L 171.1875,577.09375 L 171.1875,578.71875 C 170.70572,578.07423 170.17317,577.61199 169.59375,577.3125 C 169.01432,577.01303 168.32421,576.87501 167.5625,576.875 C 167.39404,576.875 167.22343,576.85832 167.0625,576.875 z M 177.9375,577.09375 L 177.9375,583.78125 C 177.9375,585.25912 178.27995,586.38151 178.9375,587.15625 C 179.60156,587.93099 180.58072,588.34375 181.84375,588.34375 C 182.55338,588.34375 183.19531,588.17448 183.78125,587.875 C 184.37369,587.56901 184.91015,587.10677 185.4375,586.46875 L 185.4375,588.03125 L 188.9375,588.03125 L 188.9375,577.09375 L 185.4375,577.09375 L 185.4375,582.5 C 185.43749,583.4961 185.22916,584.28386 184.8125,584.84375 C 184.39583,585.40365 183.82291,585.6875 183.09375,585.6875 C 182.79426,585.6875 182.54687,585.6237 182.3125,585.5 C 182.08463,585.3763 181.89322,585.19662 181.75,584.96875 C 181.63932,584.79297 181.57682,584.50912 181.53125,584.125 C 181.48567,583.73438 181.43749,583.09766 181.4375,582.21875 C 181.43749,581.91928 181.46223,581.32943 181.46875,580.4375 C 181.47526,579.53907 181.46874,578.77996 181.46875,578.1875 L 181.46875,577.09375 L 177.9375,577.09375 z M 229.625,577.09375 L 229.625,588.03125 L 233.125,588.03125 L 233.125,577.09375 L 229.625,577.09375 z M 244.65625,577.09375 L 249.5,588.46875 L 249.40625,588.78125 C 249.25651,589.26953 249.05468,589.59245 248.78125,589.78125 C 248.51432,589.97005 248.09244,590.0625 247.5,590.0625 L 246.40625,590.0625 L 246.40625,592.375 L 248.40625,592.375 C 249.41536,592.375 250.23176,592.11328 250.84375,591.625 C 251.46223,591.14323 252.0065,590.3112 252.46875,589.09375 L 257.0625,577.09375 L 253.5625,577.09375 L 251.0625,584.53125 L 248.125,577.09375 L 244.65625,577.09375 z M 271.28125,579.34375 C 272.04296,579.34376 272.6276,579.62761 273.03125,580.1875 C 273.43489,580.74089 273.62499,581.54558 273.625,582.59375 C 273.62499,583.64193 273.43489,584.44011 273.03125,585 C 272.6276,585.55339 272.04296,585.84375 271.28125,585.84375 C 270.5065,585.84375 269.91015,585.55339 269.5,585 C 269.09635,584.44011 268.90625,583.64193 268.90625,582.59375 C 268.90625,581.54558 269.09635,580.74089 269.5,580.1875 C 269.91015,579.62761 270.5065,579.34376 271.28125,579.34375 z M 374.65625,579.34375 C 375.41796,579.34376 375.97135,579.62761 376.375,580.1875 C 376.77864,580.74089 376.99999,581.54558 377,582.59375 C 376.99999,583.64193 376.77864,584.44011 376.375,585 C 375.97135,585.55339 375.41796,585.84375 374.65625,585.84375 C 373.8815,585.84375 373.28515,585.55339 372.875,585 C 372.47135,584.44011 372.25,583.64193 372.25,582.59375 C 372.25,581.54558 372.47135,580.74089 372.875,580.1875 C 373.28515,579.62761 373.8815,579.34376 374.65625,579.34375 z M 405.21875,579.34375 C 405.98046,579.34376 406.5651,579.62761 406.96875,580.1875 C 407.37239,580.74089 407.59374,581.54558 407.59375,582.59375 C 407.59374,583.64193 407.37239,584.44011 406.96875,585 C 406.5651,585.55339 405.98046,585.84375 405.21875,585.84375 C 404.444,585.84375 403.84765,585.55339 403.4375,585 C 403.03385,584.44011 402.84375,583.64193 402.84375,582.59375 C 402.84375,581.54558 403.03385,580.74089 403.4375,580.1875 C 403.84765,579.62761 404.444,579.34376 405.21875,579.34375 z M 168.875,579.375 C 169.62369,579.37501 170.20312,579.67188 170.59375,580.21875 C 170.99088,580.76563 171.18749,581.55209 171.1875,582.59375 C 171.18749,583.63542 170.99088,584.42188 170.59375,584.96875 C 170.20312,585.51563 169.62369,585.78125 168.875,585.78125 C 168.13281,585.78125 167.55338,585.51563 167.15625,584.96875 C 166.76562,584.42188 166.5625,583.63542 166.5625,582.59375 C 166.5625,581.55209 166.76562,580.76563 167.15625,580.21875 C 167.55338,579.67188 168.13281,579.37501 168.875,579.375 z M 197.21875,583.125 L 199.03125,583.125 L 199.03125,583.53125 C 199.03124,584.24089 198.82421,584.83724 198.375,585.3125 C 197.92577,585.78125 197.3763,586 196.71875,586 C 196.1914,586 195.76822,585.8724 195.46875,585.625 C 195.17578,585.3711 195.03125,585.03646 195.03125,584.59375 C 195.03125,584.11198 195.22916,583.7474 195.59375,583.5 C 195.96484,583.25261 196.48958,583.125 197.21875,583.125 z"
             style="font-size:20px;font-style:normal;font-variant:normal;font-weight:bold;font-stretch:normal;fill:#000000;fill-opacity:1;stroke:none;stroke-width:1px;stroke-linecap:butt;stroke-linejoin:miter;stroke-opacity:1;font-family:Sans;-inkscape-font-specification:Sans Bold" />
          <g
             id="g3301">
            <rect
               style="opacity:1;fill:#000000;fill-opacity:1;fill-rule:nonzero;stroke:none;stroke-width:0;stroke-linecap:butt;stroke-linejoin:miter;marker:none;marker-start:none;marker-mid:none;marker-end:none;stroke-miterlimit:4;stroke-dasharray:none;stroke-dashoffset:0;stroke-opacity:1;visibility:visible;display:inline;overflow:visible;enable-background:accumulate"
               id="rect3247"
               width="684"
               height="1"
               x="0"
               y="471.36218"
               rx="0.00012103977" />
            <rect
               style="opacity:1;fill:#000000;fill-opacity:1;fill-rule:nonzero;stroke:none;stroke-width:0;stroke-linecap:butt;stroke-linejoin:miter;marker:none;marker-start:none;marker-mid:none;marker-end:none;stroke-miterlimit:4;stroke-dasharray:none;stroke-dashoffset:0;stroke-opacity:1;visibility:visible;display:inline;overflow:visible;enable-background:accumulate"
               id="rect3267"
               width="1"
               height="440"
               x="0"
               y="112.36218"
               rx="0.00012103977" />
          </g>
        </g>
      </g>
      <g
         id="g3520">
        <g
           id="g3496">
          <rect
             rx="3.1869611e-05"
             y="386.33484"
             x="131"
             height="10"
             width="10"
             id="rect3438"
             style="opacity:1;fill:#0000ff;fill-opacity:1;fill-rule:nonzero;stroke:none;stroke-width:0;stroke-linecap:butt;stroke-linejoin:miter;marker:none;marker-start:none;marker-mid:none;marker-end:none;stroke-miterlimit:4;stroke-dasharray:none;stroke-dashoffset:0;stroke-opacity:1;visibility:visible;display:inline;overflow:visible;enable-background:accumulate" />
          <rect
             rx="3.1869611e-05"
             y="407.36218"
             x="199"
             height="10"
             width="10"
             id="rect3464"
             style="opacity:1;fill:#0000ff;fill-opacity:1;fill-rule:nonzero;stroke:none;stroke-width:0;stroke-linecap:butt;stroke-linejoin:miter;marker:none;marker-start:none;marker-mid:none;marker-end:none;stroke-miterlimit:4;stroke-dasharray:none;stroke-dashoffset:0;stroke-opacity:1;visibility:visible;display:inline;overflow:visible;enable-background:accumulate" />
          <rect
             rx="3.1869611e-05"
             y="417.36218"
             x="267"
             height="10"
             width="10"
             id="rect3466"
             style="opacity:1;fill:#0000ff;fill-opacity:1;fill-rule:nonzero;stroke:none;stroke-width:0;stroke-linecap:butt;stroke-linejoin:miter;marker:none;marker-start:none;marker-mid:none;marker-end:none;stroke-miterlimit:4;stroke-dasharray:none;stroke-dashoffset:0;stroke-opacity:1;visibility:visible;display:inline;overflow:visible;enable-background:accumulate" />
          <rect
             rx="3.1869611e-05"
             y="437.36218"
             x="335"
             height="10"
             width="10"
             id="rect3468"
             style="opacity:1;fill:#0000ff;fill-opacity:1;fill-rule:nonzero;stroke:none;stroke-width:0;stroke-linecap:butt;stroke-linejoin:miter;marker:none;marker-start:none;marker-mid:none;marker-end:none;stroke-miterlimit:4;stroke-dasharray:none;stroke-dashoffset:0;stroke-opacity:1;visibility:visible;display:inline;overflow:visible;enable-background:accumulate" />
          <rect
             rx="3.1869611e-05"
             y="447.36218"
             x="403"
             height="10"
             width="10"
             id="rect3470"
             style="opacity:1;fill:#0000ff;fill-opacity:1;fill-rule:nonzero;stroke:none;stroke-width:0;stroke-linecap:butt;stroke-linejoin:miter;marker:none;marker-start:none;marker-mid:none;marker-end:none;stroke-miterlimit:4;stroke-dasharray:none;stroke-dashoffset:0;stroke-opacity:1;visibility:visible;display:inline;overflow:visible;enable-background:accumulate" />
          <rect
             rx="3.1869611e-05"
             y="467.36218"
             x="471"
             height="10"
             width="10"
             id="rect3474"
             style="opacity:1;fill:#0000ff;fill-opacity:1;fill-rule:nonzero;stroke:none;stroke-width:0;stroke-linecap:butt;stroke-linejoin:miter;marker:none;marker-start:none;marker-mid:none;marker-end:none;stroke-miterlimit:4;stroke-dasharray:none;stroke-dashoffset:0;stroke-opacity:1;visibility:visible;display:inline;overflow:visible;enable-background:accumulate" />
          <rect
             rx="3.1869611e-05"
             y="487.36218"
             x="539"
             height="10"
             width="10"
             id="rect3476"
             style="opacity:1;fill:#0000ff;fill-opacity:1;fill-rule:nonzero;stroke:none;stroke-width:0;stroke-linecap:butt;stroke-linejoin:miter;marker:none;marker-start:none;marker-mid:none;marker-end:none;stroke-miterlimit:4;stroke-dasharray:none;stroke-dashoffset:0;stroke-opacity:1;visibility:visible;display:inline;overflow:visible;enable-background:accumulate" />
          <rect
             rx="3.1869611e-05"
             y="497.36218"
             x="607.19629"
             height="10"
             width="10"
             id="rect3478"
             style="opacity:1;fill:#0000ff;fill-opacity:1;fill-rule:nonzero;stroke:none;stroke-width:0;stroke-linecap:butt;stroke-linejoin:miter;marker:none;marker-start:none;marker-mid:none;marker-end:none;stroke-miterlimit:4;stroke-dasharray:none;stroke-dashoffset:0;stroke-opacity:1;visibility:visible;display:inline;overflow:visible;enable-background:accumulate" />
          <rect
             rx="3.1869611e-05"
             y="517.36218"
             x="675"
             height="10"
             width="10"
             id="rect3480"
             style="opacity:1;fill:#0000ff;fill-opacity:1;fill-rule:nonzero;stroke:none;stroke-width:0;stroke-linecap:butt;stroke-linejoin:miter;marker:none;marker-start:none;marker-mid:none;marker-end:none;stroke-miterlimit:4;stroke-dasharray:none;stroke-dashoffset:0;stroke-opacity:1;visibility:visible;display:inline;overflow:visible;enable-background:accumulate" />
          <rect
             rx="3.1869611e-05"
             y="377.36218"
             x="63"
             height="10"
             width="10"
             id="rect3494"
             style="opacity:1;fill:#0000ff;fill-opacity:1;fill-rule:nonzero;stroke:none;stroke-width:0;stroke-linecap:butt;stroke-linejoin:miter;marker:none;marker-start:none;marker-mid:none;marker-end:none;stroke-miterlimit:4;stroke-dasharray:none;stroke-dashoffset:0;stroke-opacity:1;visibility:visible;display:inline;overflow:visible;enable-background:accumulate" />
        </g>
        <g
           id="g3451"
           transform="translate(-1.5235293e-5,2.7088195e-6)">
          <path
             transform="matrix(0.1965963,0,0,0.1552076,130.31111,369.55385)"
             d="M -296.60324,82.523865 A 20.346258,25.771927 0 1 1 -337.29575,82.523865 A 20.346258,25.771927 0 1 1 -296.60324,82.523865 z"
             sodipodi:ry="25.771927"
             sodipodi:rx="20.346258"
             sodipodi:cy="82.523865"
             sodipodi:cx="-316.94949"
             id="path3375"
             style="fill:#ff0000;fill-opacity:1;fill-rule:nonzero;stroke:none;stroke-width:0;stroke-linecap:butt;stroke-linejoin:miter;marker:none;marker-start:none;marker-mid:none;marker-end:none;stroke-miterlimit:4;stroke-dasharray:none;stroke-dashoffset:0;stroke-opacity:1;visibility:visible;display:inline;overflow:visible;enable-background:accumulate"
             sodipodi:type="arc" />
          <path
             transform="matrix(0.1965963,0,0,0.1552076,62.311112,459.55385)"
             d="M -296.60324,82.523865 A 20.346258,25.771927 0 1 1 -337.29575,82.523865 A 20.346258,25.771927 0 1 1 -296.60324,82.523865 z"
             sodipodi:ry="25.771927"
             sodipodi:rx="20.346258"
             sodipodi:cy="82.523865"
             sodipodi:cx="-316.94949"
             id="path3377"
             style="fill:#ff0000;fill-opacity:1;fill-rule:nonzero;stroke:none;stroke-width:0;stroke-linecap:butt;stroke-linejoin:miter;marker:none;marker-start:none;marker-mid:none;marker-end:none;stroke-miterlimit:4;stroke-dasharray:none;stroke-dashoffset:0;stroke-opacity:1;visibility:visible;display:inline;overflow:visible;enable-background:accumulate"
             sodipodi:type="arc" />
          <path
             transform="matrix(0.1965963,0,0,0.1552076,198.31111,289.55385)"
             d="M -296.60324,82.523865 A 20.346258,25.771927 0 1 1 -337.29575,82.523865 A 20.346258,25.771927 0 1 1 -296.60324,82.523865 z"
             sodipodi:ry="25.771927"
             sodipodi:rx="20.346258"
             sodipodi:cy="82.523865"
             sodipodi:cx="-316.94949"
             id="path3379"
             style="fill:#ff0000;fill-opacity:1;fill-rule:nonzero;stroke:none;stroke-width:0;stroke-linecap:butt;stroke-linejoin:miter;marker:none;marker-start:none;marker-mid:none;marker-end:none;stroke-miterlimit:4;stroke-dasharray:none;stroke-dashoffset:0;stroke-opacity:1;visibility:visible;display:inline;overflow:visible;enable-background:accumulate"
             sodipodi:type="arc" />
          <path
             transform="matrix(0.1965963,0,0,0.1552076,266.31111,229.55385)"
             d="M -296.60324,82.523865 A 20.346258,25.771927 0 1 1 -337.29575,82.523865 A 20.346258,25.771927 0 1 1 -296.60324,82.523865 z"
             sodipodi:ry="25.771927"
             sodipodi:rx="20.346258"
             sodipodi:cy="82.523865"
             sodipodi:cx="-316.94949"
             id="path3381"
             style="fill:#ff0000;fill-opacity:1;fill-rule:nonzero;stroke:none;stroke-width:0;stroke-linecap:butt;stroke-linejoin:miter;marker:none;marker-start:none;marker-mid:none;marker-end:none;stroke-miterlimit:4;stroke-dasharray:none;stroke-dashoffset:0;stroke-opacity:1;visibility:visible;display:inline;overflow:visible;enable-background:accumulate"
             sodipodi:type="arc" />
          <path
             transform="matrix(0.1965963,0,0,0.1552076,334.31111,179.55385)"
             d="M -296.60324,82.523865 A 20.346258,25.771927 0 1 1 -337.29575,82.523865 A 20.346258,25.771927 0 1 1 -296.60324,82.523865 z"
             sodipodi:ry="25.771927"
             sodipodi:rx="20.346258"
             sodipodi:cy="82.523865"
             sodipodi:cx="-316.94949"
             id="path3383"
             style="fill:#ff0000;fill-opacity:1;fill-rule:nonzero;stroke:none;stroke-width:0;stroke-linecap:butt;stroke-linejoin:miter;marker:none;marker-start:none;marker-mid:none;marker-end:none;stroke-miterlimit:4;stroke-dasharray:none;stroke-dashoffset:0;stroke-opacity:1;visibility:visible;display:inline;overflow:visible;enable-background:accumulate"
             sodipodi:type="arc" />
          <path
             transform="matrix(0.1965963,0,0,0.1552076,402.31111,149.55385)"
             d="M -296.60324,82.523865 A 20.346258,25.771927 0 1 1 -337.29575,82.523865 A 20.346258,25.771927 0 1 1 -296.60324,82.523865 z"
             sodipodi:ry="25.771927"
             sodipodi:rx="20.346258"
             sodipodi:cy="82.523865"
             sodipodi:cx="-316.94949"
             id="path3385"
             style="fill:#ff0000;fill-opacity:1;fill-rule:nonzero;stroke:none;stroke-width:0;stroke-linecap:butt;stroke-linejoin:miter;marker:none;marker-start:none;marker-mid:none;marker-end:none;stroke-miterlimit:4;stroke-dasharray:none;stroke-dashoffset:0;stroke-opacity:1;visibility:visible;display:inline;overflow:visible;enable-background:accumulate"
             sodipodi:type="arc" />
          <path
             transform="matrix(0.1965963,0,0,0.1552076,470.31111,129.55385)"
             d="M -296.60324,82.523865 A 20.346258,25.771927 0 1 1 -337.29575,82.523865 A 20.346258,25.771927 0 1 1 -296.60324,82.523865 z"
             sodipodi:ry="25.771927"
             sodipodi:rx="20.346258"
             sodipodi:cy="82.523865"
             sodipodi:cx="-316.94949"
             id="path3387"
             style="fill:#ff0000;fill-opacity:1;fill-rule:nonzero;stroke:none;stroke-width:0;stroke-linecap:butt;stroke-linejoin:miter;marker:none;marker-start:none;marker-mid:none;marker-end:none;stroke-miterlimit:4;stroke-dasharray:none;stroke-dashoffset:0;stroke-opacity:1;visibility:visible;display:inline;overflow:visible;enable-background:accumulate"
             sodipodi:type="arc" />
          <path
             transform="matrix(0.1965963,0,0,0.1552076,538.31111,129.55385)"
             d="M -296.60324,82.523865 A 20.346258,25.771927 0 1 1 -337.29575,82.523865 A 20.346258,25.771927 0 1 1 -296.60324,82.523865 z"
             sodipodi:ry="25.771927"
             sodipodi:rx="20.346258"
             sodipodi:cy="82.523865"
             sodipodi:cx="-316.94949"
             id="path3389"
             style="fill:#ff0000;fill-opacity:1;fill-rule:nonzero;stroke:none;stroke-width:0;stroke-linecap:butt;stroke-linejoin:miter;marker:none;marker-start:none;marker-mid:none;marker-end:none;stroke-miterlimit:4;stroke-dasharray:none;stroke-dashoffset:0;stroke-opacity:1;visibility:visible;display:inline;overflow:visible;enable-background:accumulate"
             sodipodi:type="arc" />
          <path
             transform="matrix(0.1965963,0,0,0.1552076,606.31111,149.55385)"
             d="M -296.60324,82.523865 A 20.346258,25.771927 0 1 1 -337.29575,82.523865 A 20.346258,25.771927 0 1 1 -296.60324,82.523865 z"
             sodipodi:ry="25.771927"
             sodipodi:rx="20.346258"
             sodipodi:cy="82.523865"
             sodipodi:cx="-316.94949"
             id="path3391"
             style="fill:#ff0000;fill-opacity:1;fill-rule:nonzero;stroke:none;stroke-width:0;stroke-linecap:butt;stroke-linejoin:miter;marker:none;marker-start:none;marker-mid:none;marker-end:none;stroke-miterlimit:4;stroke-dasharray:none;stroke-dashoffset:0;stroke-opacity:1;visibility:visible;display:inline;overflow:visible;enable-background:accumulate"
             sodipodi:type="arc" />
          <path
             transform="matrix(0.1965963,0,0,0.1552076,674.31111,179.55385)"
             d="M -296.60324,82.523865 A 20.346258,25.771927 0 1 1 -337.29575,82.523865 A 20.346258,25.771927 0 1 1 -296.60324,82.523865 z"
             sodipodi:ry="25.771927"
             sodipodi:rx="20.346258"
             sodipodi:cy="82.523865"
             sodipodi:cx="-316.94949"
             id="path3393"
             style="fill:#ff0000;fill-opacity:1;fill-rule:nonzero;stroke:none;stroke-width:0;stroke-linecap:butt;stroke-linejoin:miter;marker:none;marker-start:none;marker-mid:none;marker-end:none;stroke-miterlimit:4;stroke-dasharray:none;stroke-dashoffset:0;stroke-opacity:1;visibility:visible;display:inline;overflow:visible;enable-background:accumulate"
             sodipodi:type="arc" />
          <path
             transform="matrix(0.1965963,0,0,0.1552076,742.31111,229.55385)"
             d="M -296.60324,82.523865 A 20.346258,25.771927 0 1 1 -337.29575,82.523865 A 20.346258,25.771927 0 1 1 -296.60324,82.523865 z"
             sodipodi:ry="25.771927"
             sodipodi:rx="20.346258"
             sodipodi:cy="82.523865"
             sodipodi:cx="-316.94949"
             id="path3395"
             style="fill:#ff0000;fill-opacity:1;fill-rule:nonzero;stroke:none;stroke-width:0;stroke-linecap:butt;stroke-linejoin:miter;marker:none;marker-start:none;marker-mid:none;marker-end:none;stroke-miterlimit:4;stroke-dasharray:none;stroke-dashoffset:0;stroke-opacity:1;visibility:visible;display:inline;overflow:visible;enable-background:accumulate"
             sodipodi:type="arc" />
        </g>
      </g>
      <g
         transform="translate(700,140)"
         id="g3559">
        <rect
           style="opacity:1;fill:#f0f0f0;fill-opacity:1;fill-rule:nonzero;stroke:#000000;stroke-width:0.66839373;stroke-linecap:butt;stroke-linejoin:miter;marker:none;marker-start:none;marker-mid:none;marker-end:none;stroke-miterlimit:4;stroke-dasharray:none;stroke-dashoffset:0;stroke-opacity:1;visibility:visible;display:inline;overflow:visible;enable-background:accumulate"
           id="rect3552"
           width="174.3316"
           height="55.331608"
           x="-299.6658"
           y="146.69638"
           rx="2.6990176e-05" />
        <g
           id="g3554"
           transform="translate(226,-59.999997)">
          <path
             transform="matrix(0.1965963,0,0,0.1552076,-448.6889,210.55385)"
             d="M -296.60324,82.523865 A 20.346258,25.771927 0 1 1 -337.29575,82.523865 A 20.346258,25.771927 0 1 1 -296.60324,82.523865 z"
             sodipodi:ry="25.771927"
             sodipodi:rx="20.346258"
             sodipodi:cy="82.523865"
             sodipodi:cx="-316.94949"
             id="path3410"
             style="opacity:1;fill:#ff0000;fill-opacity:1;fill-rule:nonzero;stroke:none;stroke-width:0;stroke-linecap:butt;stroke-linejoin:miter;marker:none;marker-start:none;marker-mid:none;marker-end:none;stroke-miterlimit:4;stroke-dasharray:none;stroke-dashoffset:0;stroke-opacity:1;visibility:visible;display:inline;overflow:visible;enable-background:accumulate"
             sodipodi:type="arc" />
          <rect
             rx="3.1869611e-05"
             y="237.86218"
             x="-516"
             height="10"
             width="10"
             id="rect3412"
             style="opacity:1;fill:#0000ff;fill-opacity:1;fill-rule:nonzero;stroke:none;stroke-width:0;stroke-linecap:butt;stroke-linejoin:miter;marker:none;marker-start:none;marker-mid:none;marker-end:none;stroke-miterlimit:4;stroke-dasharray:none;stroke-dashoffset:0;stroke-opacity:1;visibility:visible;display:inline;overflow:visible;enable-background:accumulate" />
          <path
             id="text3545"
             d="M -500,217.24499 L -489.25,217.24499 L -489.25,219.51843 L -493.11718,219.51843 L -493.11718,228.90905 L -496.125,228.90905 L -496.125,219.51843 L -500,219.51843 L -500,217.24499 M -485.78906,221.94812 C -486.40886,221.94812 -486.88281,222.17208 -487.21093,222.61999 C -487.53385,223.06271 -487.69531,223.70333 -487.69531,224.54187 C -487.69531,225.38041 -487.53385,226.02364 -487.21093,226.47155 C -486.88281,226.91427 -486.40886,227.13562 -485.78906,227.13562 C -485.17969,227.13562 -484.71354,226.91427 -484.39062,226.47155 C -484.06771,226.02364 -483.90625,225.38041 -483.90625,224.54187 C -483.90625,223.70333 -484.06771,223.06271 -484.39062,222.61999 C -484.71354,222.17208 -485.17969,221.94812 -485.78906,221.94812 M -485.78906,219.94812 C -484.28386,219.94813 -483.10938,220.35438 -482.26562,221.16687 C -481.41667,221.97937 -480.99219,223.10437 -480.99218,224.54187 C -480.99219,225.97937 -481.41667,227.10437 -482.26562,227.91687 C -483.10938,228.72937 -484.28386,229.13562 -485.78906,229.13562 C -487.29948,229.13562 -488.48177,228.72937 -489.33593,227.91687 C -490.18489,227.10437 -490.60937,225.97937 -490.60937,224.54187 C -490.60937,223.10437 -490.18489,221.97937 -489.33593,221.16687 C -488.48177,220.35438 -487.29948,219.94813 -485.78906,219.94812 M -475.89843,217.67468 L -475.89843,220.15905 L -473.01562,220.15905 L -473.01562,222.15905 L -475.89843,222.15905 L -475.89843,225.86999 C -475.89844,226.27624 -475.81771,226.55229 -475.65625,226.69812 C -475.49479,226.83874 -475.17448,226.90906 -474.69531,226.90905 L -473.25781,226.90905 L -473.25781,228.90905 L -475.65625,228.90905 C -476.76042,228.90905 -477.54427,228.67989 -478.00781,228.22155 C -478.46614,227.75801 -478.69531,226.97416 -478.69531,225.86999 L -478.69531,222.15905 L -480.08593,222.15905 L -480.08593,220.15905 L -478.69531,220.15905 L -478.69531,217.67468 L -475.89843,217.67468 M -467.375,224.97155 C -467.95833,224.97156 -468.39844,225.07052 -468.69531,225.26843 C -468.98698,225.46635 -469.13281,225.75802 -469.13281,226.14343 C -469.13281,226.4976 -469.01563,226.77624 -468.78125,226.97937 C -468.54167,227.17729 -468.21094,227.27624 -467.78906,227.27624 C -467.26302,227.27624 -466.82031,227.08874 -466.46093,226.71374 C -466.10157,226.33354 -465.92188,225.85958 -465.92187,225.29187 L -465.92187,224.97155 L -467.375,224.97155 M -463.10156,223.91687 L -463.10156,228.90905 L -465.92187,228.90905 L -465.92187,227.61218 C -466.29688,228.14343 -466.71875,228.53145 -467.1875,228.77624 C -467.65625,229.01583 -468.22656,229.13562 -468.89843,229.13562 C -469.80469,229.13562 -470.54167,228.8726 -471.10937,228.34655 C -471.67187,227.81531 -471.95312,227.12781 -471.95312,226.28405 C -471.95312,225.25802 -471.60156,224.50541 -470.89843,224.02624 C -470.1901,223.54708 -469.08073,223.3075 -467.57031,223.30749 L -465.92187,223.30749 L -465.92187,223.08874 C -465.92188,222.64604 -466.09636,222.32312 -466.44531,222.11999 C -466.79427,221.91167 -467.33854,221.8075 -468.07812,221.80749 C -468.67708,221.8075 -469.23437,221.8674 -469.75,221.98718 C -470.26562,222.10698 -470.74479,222.28667 -471.1875,222.52624 L -471.1875,220.39343 C -470.58854,220.24761 -469.98698,220.13823 -469.38281,220.0653 C -468.77865,219.98719 -468.17448,219.94813 -467.57031,219.94812 C -465.99219,219.94813 -464.85417,220.26063 -464.15625,220.88562 C -463.45313,221.50542 -463.10157,222.51583 -463.10156,223.91687 M -460.51562,216.7528 L -457.71875,216.7528 L -457.71875,228.90905 L -460.51562,228.90905 L -460.51562,216.7528 M -449.32812,217.24499 L -446.32031,217.24499 L -446.32031,224.23718 C -446.32031,225.20073 -446.16406,225.89083 -445.85156,226.30749 C -445.53386,226.71895 -445.01823,226.92468 -444.30468,226.92468 C -443.58594,226.92468 -443.07032,226.71895 -442.75781,226.30749 C -442.44011,225.89083 -442.28125,225.20073 -442.28125,224.23718 L -442.28125,217.24499 L -439.27343,217.24499 L -439.27343,224.23718 C -439.27345,225.88822 -439.68751,227.11739 -440.51562,227.92468 C -441.34376,228.73197 -442.60678,229.13562 -444.30468,229.13562 C -445.9974,229.13562 -447.25781,228.73197 -448.08593,227.92468 C -448.91406,227.11739 -449.32812,225.88822 -449.32812,224.23718 L -449.32812,217.24499 M -433.39843,217.67468 L -433.39843,220.15905 L -430.51562,220.15905 L -430.51562,222.15905 L -433.39843,222.15905 L -433.39843,225.86999 C -433.39844,226.27624 -433.31771,226.55229 -433.15625,226.69812 C -432.99479,226.83874 -432.67448,226.90906 -432.19531,226.90905 L -430.75781,226.90905 L -430.75781,228.90905 L -433.15625,228.90905 C -434.26042,228.90905 -435.04427,228.67989 -435.50781,228.22155 C -435.96614,227.75801 -436.19531,226.97416 -436.19531,225.86999 L -436.19531,222.15905 L -437.58593,222.15905 L -437.58593,220.15905 L -436.19531,220.15905 L -436.19531,217.67468 L -433.39843,217.67468 M -428.79687,220.15905 L -426,220.15905 L -426,228.90905 L -428.79687,228.90905 L -428.79687,220.15905 M -428.79687,216.7528 L -426,216.7528 L -426,219.03405 L -428.79687,219.03405 L -428.79687,216.7528 M -423.29687,216.7528 L -420.5,216.7528 L -420.5,228.90905 L -423.29687,228.90905 L -423.29687,216.7528 M -417.79687,220.15905 L -415,220.15905 L -415,228.90905 L -417.79687,228.90905 L -417.79687,220.15905 M -417.79687,216.7528 L -415,216.7528 L -415,219.03405 L -417.79687,219.03405 L -417.79687,216.7528 M -409.24218,217.67468 L -409.24218,220.15905 L -406.35937,220.15905 L -406.35937,222.15905 L -409.24218,222.15905 L -409.24218,225.86999 C -409.24219,226.27624 -409.16146,226.55229 -409,226.69812 C -408.83854,226.83874 -408.51823,226.90906 -408.03906,226.90905 L -406.60156,226.90905 L -406.60156,228.90905 L -409,228.90905 C -410.10417,228.90905 -410.88802,228.67989 -411.35156,228.22155 C -411.80989,227.75801 -412.03906,226.97416 -412.03906,225.86999 L -412.03906,222.15905 L -413.42968,222.15905 L -413.42968,220.15905 L -412.03906,220.15905 L -412.03906,217.67468 L -409.24218,217.67468 M -405.78906,220.15905 L -402.99218,220.15905 L -400.64062,226.09655 L -398.64062,220.15905 L -395.84375,220.15905 L -399.52343,229.73718 C -399.89323,230.71114 -400.32552,231.39082 -400.82031,231.77624 C -401.3099,232.16686 -401.95833,232.36218 -402.76562,232.36218 L -404.38281,232.36218 L -404.38281,230.52624 L -403.50781,230.52624 C -403.03385,230.52624 -402.6901,230.45072 -402.47656,230.29968 C -402.25781,230.14864 -402.08854,229.8778 -401.96875,229.48718 L -401.89062,229.24499 L -405.78906,220.15905 M -498.60937,237.24499 L -494.78125,237.24499 L -492.125,243.48718 L -489.45312,237.24499 L -485.63281,237.24499 L -485.63281,248.90905 L -488.47656,248.90905 L -488.47656,240.3778 L -491.16406,246.66687 L -493.07031,246.66687 L -495.75781,240.3778 L -495.75781,248.90905 L -498.60937,248.90905 L -498.60937,237.24499 M -478.90625,244.97155 C -479.48958,244.97156 -479.92969,245.07052 -480.22656,245.26843 C -480.51823,245.46635 -480.66406,245.75802 -480.66406,246.14343 C -480.66406,246.4976 -480.54688,246.77624 -480.3125,246.97937 C -480.07292,247.17729 -479.74219,247.27624 -479.32031,247.27624 C -478.79427,247.27624 -478.35156,247.08874 -477.99218,246.71374 C -477.63282,246.33354 -477.45313,245.85958 -477.45312,245.29187 L -477.45312,244.97155 L -478.90625,244.97155 M -474.63281,243.91687 L -474.63281,248.90905 L -477.45312,248.90905 L -477.45312,247.61218 C -477.82813,248.14343 -478.25,248.53145 -478.71875,248.77624 C -479.1875,249.01583 -479.75781,249.13562 -480.42968,249.13562 C -481.33594,249.13562 -482.07292,248.8726 -482.64062,248.34655 C -483.20312,247.81531 -483.48437,247.12781 -483.48437,246.28405 C -483.48437,245.25802 -483.13281,244.50541 -482.42968,244.02624 C -481.72135,243.54708 -480.61198,243.3075 -479.10156,243.30749 L -477.45312,243.30749 L -477.45312,243.08874 C -477.45313,242.64604 -477.62761,242.32312 -477.97656,242.11999 C -478.32552,241.91167 -478.86979,241.8075 -479.60937,241.80749 C -480.20833,241.8075 -480.76562,241.8674 -481.28125,241.98718 C -481.79687,242.10698 -482.27604,242.28667 -482.71875,242.52624 L -482.71875,240.39343 C -482.11979,240.24761 -481.51823,240.13823 -480.91406,240.0653 C -480.3099,239.98719 -479.70573,239.94813 -479.10156,239.94812 C -477.52344,239.94813 -476.38542,240.26063 -475.6875,240.88562 C -474.98438,241.50542 -474.63282,242.51583 -474.63281,243.91687 M -465.54687,242.54187 C -465.79167,242.42729 -466.03646,242.34396 -466.28125,242.29187 C -466.52084,242.23458 -466.76302,242.20594 -467.00781,242.20593 C -467.72656,242.20594 -468.28125,242.43771 -468.67187,242.90124 C -469.05729,243.35958 -469.25,244.01843 -469.25,244.8778 L -469.25,248.90905 L -472.04687,248.90905 L -472.04687,240.15905 L -469.25,240.15905 L -469.25,241.59655 C -468.89063,241.02365 -468.47917,240.60698 -468.01562,240.34655 C -467.54688,240.08094 -466.98698,239.94813 -466.33593,239.94812 C -466.24219,239.94813 -466.14063,239.95333 -466.03125,239.96374 C -465.92188,239.96896 -465.76302,239.98458 -465.55468,240.01062 L -465.54687,242.54187 M -458.1875,247.42468 C -458.57292,247.9351 -458.9974,248.3101 -459.46093,248.54968 C -459.92448,248.78926 -460.46094,248.90905 -461.07031,248.90905 C -462.13802,248.90905 -463.02083,248.48978 -463.71875,247.65124 C -464.41666,246.80749 -464.76562,245.73458 -464.76562,244.43249 C -464.76562,243.12521 -464.41666,242.0549 -463.71875,241.22155 C -463.02083,240.38302 -462.13802,239.96375 -461.07031,239.96374 C -460.46094,239.96375 -459.92448,240.08354 -459.46093,240.32312 C -458.9974,240.56271 -458.57292,240.94031 -458.1875,241.45593 L -458.1875,240.15905 L -455.375,240.15905 L -455.375,248.02624 C -455.37501,249.43249 -455.82032,250.50541 -456.71093,251.24499 C -457.59636,251.98978 -458.88282,252.36218 -460.57031,252.36218 C -461.11719,252.36218 -461.64583,252.32051 -462.15625,252.23718 C -462.66667,252.15384 -463.17969,252.02624 -463.69531,251.85437 L -463.69531,249.67468 C -463.20573,249.95593 -462.72656,250.16426 -462.25781,250.29968 C -461.78906,250.4403 -461.31771,250.51062 -460.84375,250.51062 C -459.92709,250.51062 -459.25521,250.3101 -458.82812,249.90905 C -458.40105,249.50801 -458.1875,248.88041 -458.1875,248.02624 L -458.1875,247.42468 M -460.03125,241.97937 C -460.60938,241.97937 -461.0599,242.19292 -461.38281,242.61999 C -461.70573,243.04708 -461.86719,243.65125 -461.86718,244.43249 C -461.86719,245.23458 -461.71094,245.84395 -461.39843,246.26062 C -461.08594,246.67208 -460.63021,246.87781 -460.03125,246.8778 C -459.44792,246.87781 -458.99479,246.66427 -458.67187,246.23718 C -458.34896,245.8101 -458.1875,245.20854 -458.1875,244.43249 C -458.1875,243.65125 -458.34896,243.04708 -458.67187,242.61999 C -458.99479,242.19292 -459.44792,241.97937 -460.03125,241.97937 M -452.67187,240.15905 L -449.875,240.15905 L -449.875,248.90905 L -452.67187,248.90905 L -452.67187,240.15905 M -452.67187,236.7528 L -449.875,236.7528 L -449.875,239.03405 L -452.67187,239.03405 L -452.67187,236.7528 M -438.375,243.58093 L -438.375,248.90905 L -441.1875,248.90905 L -441.1875,248.04187 L -441.1875,244.83093 C -441.1875,244.07573 -441.20573,243.55489 -441.24218,243.26843 C -441.27344,242.98198 -441.33073,242.77104 -441.41406,242.63562 C -441.52344,242.45333 -441.67188,242.31271 -441.85937,242.21374 C -442.04688,242.10958 -442.26042,242.0575 -442.5,242.05749 C -443.08334,242.0575 -443.54167,242.28406 -443.875,242.73718 C -444.20833,243.1851 -444.375,243.8075 -444.375,244.60437 L -444.375,248.90905 L -447.17187,248.90905 L -447.17187,240.15905 L -444.375,240.15905 L -444.375,241.4403 C -443.95313,240.9299 -443.50521,240.5549 -443.03125,240.3153 C -442.55729,240.07052 -442.03386,239.94813 -441.46093,239.94812 C -440.45053,239.94813 -439.6849,240.25802 -439.16406,240.8778 C -438.63803,241.4976 -438.37501,242.39864 -438.375,243.58093 M -431.84375,244.97155 C -432.42708,244.97156 -432.86719,245.07052 -433.16406,245.26843 C -433.45573,245.46635 -433.60156,245.75802 -433.60156,246.14343 C -433.60156,246.4976 -433.48438,246.77624 -433.25,246.97937 C -433.01042,247.17729 -432.67969,247.27624 -432.25781,247.27624 C -431.73177,247.27624 -431.28906,247.08874 -430.92968,246.71374 C -430.57032,246.33354 -430.39063,245.85958 -430.39062,245.29187 L -430.39062,244.97155 L -431.84375,244.97155 M -427.57031,243.91687 L -427.57031,248.90905 L -430.39062,248.90905 L -430.39062,247.61218 C -430.76563,248.14343 -431.1875,248.53145 -431.65625,248.77624 C -432.125,249.01583 -432.69531,249.13562 -433.36718,249.13562 C -434.27344,249.13562 -435.01042,248.8726 -435.57812,248.34655 C -436.14062,247.81531 -436.42187,247.12781 -436.42187,246.28405 C -436.42187,245.25802 -436.07031,244.50541 -435.36718,244.02624 C -434.65885,243.54708 -433.54948,243.3075 -432.03906,243.30749 L -430.39062,243.30749 L -430.39062,243.08874 C -430.39063,242.64604 -430.56511,242.32312 -430.91406,242.11999 C -431.26302,241.91167 -431.80729,241.8075 -432.54687,241.80749 C -433.14583,241.8075 -433.70312,241.8674 -434.21875,241.98718 C -434.73437,242.10698 -435.21354,242.28667 -435.65625,242.52624 L -435.65625,240.39343 C -435.05729,240.24761 -434.45573,240.13823 -433.85156,240.0653 C -433.2474,239.98719 -432.64323,239.94813 -432.03906,239.94812 C -430.46094,239.94813 -429.32292,240.26063 -428.625,240.88562 C -427.92188,241.50542 -427.57032,242.51583 -427.57031,243.91687 M -424.98437,236.7528 L -422.1875,236.7528 L -422.1875,248.90905 L -424.98437,248.90905 L -424.98437,236.7528 M -413.79687,237.24499 L -410.78906,237.24499 L -410.78906,244.23718 C -410.78906,245.20073 -410.63281,245.89083 -410.32031,246.30749 C -410.00261,246.71895 -409.48698,246.92468 -408.77343,246.92468 C -408.05469,246.92468 -407.53907,246.71895 -407.22656,246.30749 C -406.90886,245.89083 -406.75,245.20073 -406.75,244.23718 L -406.75,237.24499 L -403.74218,237.24499 L -403.74218,244.23718 C -403.7422,245.88822 -404.15626,247.11739 -404.98437,247.92468 C -405.81251,248.73197 -407.07553,249.13562 -408.77343,249.13562 C -410.46615,249.13562 -411.72656,248.73197 -412.55468,247.92468 C -413.38281,247.11739 -413.79687,245.88822 -413.79687,244.23718 L -413.79687,237.24499 M -397.86718,237.67468 L -397.86718,240.15905 L -394.98437,240.15905 L -394.98437,242.15905 L -397.86718,242.15905 L -397.86718,245.86999 C -397.86719,246.27624 -397.78646,246.55229 -397.625,246.69812 C -397.46354,246.83874 -397.14323,246.90906 -396.66406,246.90905 L -395.22656,246.90905 L -395.22656,248.90905 L -397.625,248.90905 C -398.72917,248.90905 -399.51302,248.67989 -399.97656,248.22155 C -400.43489,247.75801 -400.66406,246.97416 -400.66406,245.86999 L -400.66406,242.15905 L -402.05468,242.15905 L -402.05468,240.15905 L -400.66406,240.15905 L -400.66406,237.67468 L -397.86718,237.67468 M -393.26562,240.15905 L -390.46875,240.15905 L -390.46875,248.90905 L -393.26562,248.90905 L -393.26562,240.15905 M -393.26562,236.7528 L -390.46875,236.7528 L -390.46875,239.03405 L -393.26562,239.03405 L -393.26562,236.7528 M -387.76562,236.7528 L -384.96875,236.7528 L -384.96875,248.90905 L -387.76562,248.90905 L -387.76562,236.7528 M -382.26562,240.15905 L -379.46875,240.15905 L -379.46875,248.90905 L -382.26562,248.90905 L -382.26562,240.15905 M -382.26562,236.7528 L -379.46875,236.7528 L -379.46875,239.03405 L -382.26562,239.03405 L -382.26562,236.7528 M -373.71093,237.67468 L -373.71093,240.15905 L -370.82812,240.15905 L -370.82812,242.15905 L -373.71093,242.15905 L -373.71093,245.86999 C -373.71094,246.27624 -373.63021,246.55229 -373.46875,246.69812 C -373.30729,246.83874 -372.98698,246.90906 -372.50781,246.90905 L -371.07031,246.90905 L -371.07031,248.90905 L -373.46875,248.90905 C -374.57292,248.90905 -375.35677,248.67989 -375.82031,248.22155 C -376.27864,247.75801 -376.50781,246.97416 -376.50781,245.86999 L -376.50781,242.15905 L -377.89843,242.15905 L -377.89843,240.15905 L -376.50781,240.15905 L -376.50781,237.67468 L -373.71093,237.67468 M -370.25781,240.15905 L -367.46093,240.15905 L -365.10937,246.09655 L -363.10937,240.15905 L -360.3125,240.15905 L -363.99218,249.73718 C -364.36198,250.71114 -364.79427,251.39082 -365.28906,251.77624 C -365.77865,252.16686 -366.42708,252.36218 -367.23437,252.36218 L -368.85156,252.36218 L -368.85156,250.52624 L -367.97656,250.52624 C -367.5026,250.52624 -367.15885,250.45072 -366.94531,250.29968 C -366.72656,250.14864 -366.55729,249.8778 -366.4375,249.48718 L -366.35937,249.24499 L -370.25781,240.15905"
             style="font-size:16px;font-style:normal;font-variant:normal;font-weight:bold;font-stretch:normal;fill:#000000;fill-opacity:1;stroke:none;stroke-width:1px;stroke-linecap:butt;stroke-linejoin:miter;stroke-opacity:1;font-family:Sans;-inkscape-font-specification:Sans Bold" />
        </g>
      </g>
    </g>
  </g>
</svg>
