<?xml version='1.0' encoding='UTF-8'?>
<svg xmlns:xlink="http://www.w3.org/1999/xlink" xmlns="http://www.w3.org/2000/svg" version="1.1" baseProfile="full" width="600" height="500">
  <title>VFPt_image_charge_plane_horizontal</title>
  <desc>VFPt_image_charge_plane_horizontal
created with VectorFieldPlot 1.1
http://commons.wikimedia.org/wiki/User:Geek3/VectorFieldPlot

about: http://commons.wikimedia.org/wiki/File:VFPt_image_charge_plane_horizontal.svg
rights: GNU Free Documentation license,
        Creative Commons Attribution ShareAlike license
  </desc>
  <defs>
    <radialGradient id="white_spot" cx="0.65" cy="0.7" r="0.75">
      <stop stop-color="#ffffff" offset="0" stop-opacity="0.7"/>
      <stop stop-color="#ffffff" offset="0.1" stop-opacity="0.5"/>
      <stop stop-color="#ffffff" offset="0.6" stop-opacity="0"/>
      <stop stop-color="#000000" offset="0.6" stop-opacity="0"/>
      <stop stop-color="#000000" offset="0.75" stop-opacity="0.05"/>
      <stop stop-color="#000000" offset="0.85" stop-opacity="0.15"/>
      <stop stop-color="#000000" offset="1" stop-opacity="0.5"/>
    </radialGradient>
    <path id="arrow1" stroke="none" fill="#000000" transform="scale(0.01)" d="M 0.3,0 L -2.2,2.25 L 3.8,0 L -2.2,-2.25 L 0.3,0 Z"/>
  </defs>
  <rect id="background" x="0" y="0" width="600" height="500" fill="#ffffff"/>
  <g id="image" transform="translate(300.0,300.0) scale(100.0,-100.0)">
    <g id="fieldlines" fill="none" stroke="#000000" stroke-width="0.02" stroke-linejoin="round" stroke-linecap="round">
      <g id="fieldline1">
        <path d="M 0.0000,0.0000 L 0.0000,3.0100"/>
        <g id="arrows1">
          <use xlink:href="#arrow1" transform="translate(0.0000,2.1070) rotate(90.00) scale(2.7)"/>
        </g>
      </g>
      <g id="fieldline2">
        <path d="M 0.0000,0.0000 L -0.1252,0.3643 L -0.2171,0.6249 L -0.3031,0.8617 L -0.3877,1.0877 L -0.4727,1.3077 L -0.5589,1.5243 L -0.6469,1.7387 L -0.7370,1.9517 L -0.8294,2.1640 L -0.9243,2.3757 L -1.0217,2.5872 L -1.1218,2.7986 L -1.2245,3.0100"/>
        <g id="arrows2">
          <use xlink:href="#arrow1" transform="translate(-0.8128,2.1256) rotate(113.74) scale(2.7)"/>
        </g>
      </g>
      <g id="fieldline3">
        <path d="M 0.0000,0.0000 L -0.1855,0.2394 L -0.3151,0.4031 L -0.4323,0.5473 L -0.5441,0.6813 L -0.6535,0.8085 L -0.7619,0.9309 L -0.8701,1.0494 L -0.9786,1.1646 L -1.0878,1.2771 L -1.1980,1.3870 L -1.3092,1.4946 L -1.4217,1.6000 L -1.5355,1.7033 L -1.6507,1.8045 L -1.7672,1.9037 L -1.8852,2.0009 L -2.0046,2.0962 L -2.1255,2.1894 L -2.2477,2.2807 L -2.3714,2.3700 L -2.4965,2.4572 L -2.6229,2.5425 L -2.7506,2.6257 L -2.8797,2.7068 L -3.0100,2.7858"/>
        <g id="arrows3">
          <use xlink:href="#arrow1" transform="translate(-1.9901,2.0844) rotate(141.98) scale(2.7)"/>
        </g>
      </g>
      <g id="fieldline4">
        <path d="M 0.0000,0.0000 L -0.2222,0.1476 L -0.3711,0.2439 L -0.5030,0.3266 L -0.6261,0.4009 L -0.7440,0.4693 L -0.8586,0.5331 L -0.9710,0.5929 L -1.0819,0.6492 L -1.1918,0.7022 L -1.3008,0.7522 L -1.4094,0.7993 L -1.5175,0.8437 L -1.6254,0.8852 L -1.7331,0.9242 L -1.8406,0.9604 L -1.9479,0.9941 L -2.0551,1.0252 L -2.1622,1.0538 L -2.2691,1.0798 L -2.3758,1.1032 L -2.4823,1.1242 L -2.5886,1.1426 L -2.6945,1.1585 L -2.8001,1.1719 L -2.9053,1.1829 L -3.0100,1.1913"/>
        <g id="arrows4">
          <use xlink:href="#arrow1" transform="translate(-2.0430,1.0214) rotate(164.65) scale(2.7)"/>
        </g>
      </g>
      <g id="fieldline5">
        <path d="M 0.0000,0.0000 L -0.2396,0.0653 L -0.3949,0.1054 L -0.5290,0.1378 L -0.6515,0.1649 L -0.7666,0.1880 L -0.8764,0.2077 L -0.9822,0.2242 L -1.0848,0.2378 L -1.1847,0.2486 L -1.2824,0.2568 L -1.3780,0.2625 L -1.4718,0.2656 L -1.5639,0.2663 L -1.6544,0.2646 L -1.7433,0.2605 L -1.8307,0.2540 L -1.9166,0.2453 L -2.0009,0.2344 L -2.0838,0.2212 L -2.1651,0.2058 L -2.2449,0.1882 L -2.3231,0.1686 L -2.3996,0.1469 L -2.4746,0.1232 L -2.5478,0.0974 L -2.6193,0.0698 L -2.6891,0.0402 L -2.7570,0.0088 L -2.8231,-0.0244 L -2.8874,-0.0593 L -2.9497,-0.0960 L -3.0100,-0.1342"/>
        <g id="arrows5">
          <use xlink:href="#arrow1" transform="translate(-2.1476,0.2087) rotate(-168.26) scale(2.7)"/>
        </g>
      </g>
      <g id="fieldline6">
        <path d="M 0.0000,0.0000 L -0.2428,-0.0112 L -0.3949,-0.0204 L -0.5233,-0.0304 L -0.6379,-0.0417 L -0.7434,-0.0546 L -0.8422,-0.0690 L -0.9356,-0.0852 L -1.0245,-0.1030 L -1.1096,-0.1225 L -1.1912,-0.1438 L -1.2696,-0.1668 L -1.3452,-0.1915 L -1.4179,-0.2178 L -1.4880,-0.2458 L -1.5555,-0.2755 L -1.6205,-0.3067 L -1.6830,-0.3394 L -1.7431,-0.3737 L -1.8008,-0.4094 L -1.8561,-0.4466 L -1.9089,-0.4851 L -1.9594,-0.5249 L -2.0074,-0.5659 L -2.0531,-0.6081 L -2.0963,-0.6515 L -2.1371,-0.6959 L -2.1754,-0.7413 L -2.2114,-0.7877 L -2.2448,-0.8349 L -2.2758,-0.8830 L -2.3044,-0.9318 L -2.3305,-0.9813 L -2.3541,-1.0314 L -2.3752,-1.0820 L -2.3939,-1.1332 L -2.4100,-1.1848 L -2.4237,-1.2368 L -2.4349,-1.2890 L -2.4436,-1.3416 L -2.4499,-1.3943 L -2.4536,-1.4471 L -2.4549,-1.5000"/>
        <g id="arrows6">
          <use xlink:href="#arrow1" transform="translate(-2.0854,-0.6412) rotate(-133.40) scale(2.7)"/>
        </g>
      </g>
      <g id="fieldline7">
        <path d="M 0.0000,0.0000 L -0.2300,-0.0827 L -0.3695,-0.1351 L -0.4843,-0.1808 L -0.5846,-0.2232 L -0.6749,-0.2641 L -0.7578,-0.3043 L -0.8346,-0.3442 L -0.9062,-0.3842 L -0.9733,-0.4246 L -1.0363,-0.4654 L -1.0957,-0.5067 L -1.1515,-0.5487 L -1.2040,-0.5913 L -1.2534,-0.6345 L -1.2998,-0.6784 L -1.3432,-0.7230 L -1.3838,-0.7682 L -1.4215,-0.8141 L -1.4565,-0.8605 L -1.4888,-0.9075 L -1.5184,-0.9550 L -1.5453,-1.0029 L -1.5697,-1.0514 L -1.5913,-1.1002 L -1.6105,-1.1494 L -1.6270,-1.1989 L -1.6410,-1.2487 L -1.6524,-1.2986 L -1.6613,-1.3488 L -1.6676,-1.3991 L -1.6714,-1.4495 L -1.6727,-1.5000"/>
        <g id="arrows7">
          <use xlink:href="#arrow1" transform="translate(-1.4350,-0.8325) rotate(-125.94) scale(2.7)"/>
        </g>
      </g>
      <g id="fieldline8">
        <path d="M 0.0000,0.0000 L -0.2003,-0.1448 L -0.3182,-0.2325 L -0.4130,-0.3056 L -0.4940,-0.3710 L -0.5655,-0.4316 L -0.6298,-0.4891 L -0.6882,-0.5444 L -0.7415,-0.5981 L -0.7905,-0.6507 L -0.8354,-0.7024 L -0.8768,-0.7535 L -0.9148,-0.8041 L -0.9496,-0.8544 L -0.9814,-0.9045 L -1.0103,-0.9543 L -1.0364,-1.0041 L -1.0598,-1.0538 L -1.0806,-1.1034 L -1.0988,-1.1530 L -1.1145,-1.2026 L -1.1278,-1.2521 L -1.1385,-1.3017 L -1.1469,-1.3513 L -1.1529,-1.4008 L -1.1564,-1.4504 L -1.1576,-1.5000"/>
        <g id="arrows8">
          <use xlink:href="#arrow1" transform="translate(-0.9995,-0.9368) rotate(-118.70) scale(2.7)"/>
        </g>
      </g>
      <g id="fieldline9">
        <path d="M 0.0000,0.0000 L -0.1702,-0.2082 L -0.2671,-0.3301 L -0.3426,-0.4287 L -0.4061,-0.5154 L -0.4608,-0.5942 L -0.5087,-0.6674 L -0.5510,-0.7366 L -0.5887,-0.8028 L -0.6221,-0.8667 L -0.6518,-0.9286 L -0.6780,-0.9891 L -0.7010,-1.0483 L -0.7210,-1.1066 L -0.7381,-1.1641 L -0.7523,-1.2209 L -0.7639,-1.2773 L -0.7728,-1.3333 L -0.7792,-1.3890 L -0.7830,-1.4445 L -0.7842,-1.5000"/>
        <g id="arrows9">
          <use xlink:href="#arrow1" transform="translate(-0.6799,-0.9954) rotate(-111.07) scale(2.7)"/>
        </g>
      </g>
      <g id="fieldline10">
        <path d="M 0.0000,0.0000 L -0.1263,-0.2648 L -0.1961,-0.4155 L -0.2491,-0.5350 L -0.2925,-0.6383 L -0.3291,-0.7308 L -0.3602,-0.8158 L -0.3868,-0.8952 L -0.4097,-0.9703 L -0.4292,-1.0423 L -0.4456,-1.1117 L -0.4592,-1.1790 L -0.4701,-1.2450 L -0.4784,-1.3096 L -0.4844,-1.3736 L -0.4879,-1.4369 L -0.4891,-1.5000"/>
        <g id="arrows10">
          <use xlink:href="#arrow1" transform="translate(-0.4249,-1.0281) rotate(-103.97) scale(2.7)"/>
        </g>
      </g>
      <g id="fieldline11">
        <path d="M 0.0000,0.0000 L -0.0777,-0.3501 L -0.1188,-0.5438 L -0.1485,-0.6942 L -0.1718,-0.8228 L -0.1902,-0.9373 L -0.2048,-1.0422 L -0.2163,-1.1404 L -0.2248,-1.2339 L -0.2308,-1.3243 L -0.2343,-1.4126 L -0.2355,-1.5000"/>
        <g id="arrows11">
          <use xlink:href="#arrow1" transform="translate(-0.2048,-1.0449) rotate(-96.86) scale(2.7)"/>
        </g>
      </g>
      <g id="fieldline12">
        <path d="M -0.0000,-0.1055 L -0.0000,-1.5000"/>
        <g id="arrows12">
          <use xlink:href="#arrow1" transform="translate(-0.0000,-1.0817) rotate(-90.00) scale(2.7)"/>
        </g>
      </g>
      <g id="fieldline13">
        <path d="M 0.0000,0.0000 L 0.0777,-0.3501 L 0.1188,-0.5438 L 0.1485,-0.6942 L 0.1718,-0.8228 L 0.1902,-0.9373 L 0.2048,-1.0422 L 0.2163,-1.1404 L 0.2248,-1.2339 L 0.2308,-1.3243 L 0.2343,-1.4126 L 0.2355,-1.5000"/>
        <g id="arrows13">
          <use xlink:href="#arrow1" transform="translate(0.2048,-1.0449) rotate(-83.14) scale(2.7)"/>
        </g>
      </g>
      <g id="fieldline14">
        <path d="M 0.0000,0.0000 L 0.1263,-0.2648 L 0.1961,-0.4155 L 0.2491,-0.5350 L 0.2925,-0.6383 L 0.3291,-0.7308 L 0.3602,-0.8158 L 0.3868,-0.8952 L 0.4097,-0.9703 L 0.4292,-1.0423 L 0.4456,-1.1117 L 0.4592,-1.1790 L 0.4701,-1.2450 L 0.4784,-1.3096 L 0.4844,-1.3736 L 0.4879,-1.4369 L 0.4891,-1.5000"/>
        <g id="arrows14">
          <use xlink:href="#arrow1" transform="translate(0.4249,-1.0281) rotate(-76.03) scale(2.7)"/>
        </g>
      </g>
      <g id="fieldline15">
        <path d="M 0.0000,0.0000 L 0.1702,-0.2082 L 0.2671,-0.3301 L 0.3426,-0.4287 L 0.4061,-0.5154 L 0.4608,-0.5942 L 0.5087,-0.6674 L 0.5510,-0.7366 L 0.5887,-0.8028 L 0.6221,-0.8667 L 0.6518,-0.9286 L 0.6780,-0.9891 L 0.7010,-1.0483 L 0.7210,-1.1066 L 0.7381,-1.1641 L 0.7523,-1.2209 L 0.7639,-1.2773 L 0.7728,-1.3333 L 0.7792,-1.3890 L 0.7830,-1.4445 L 0.7842,-1.5000"/>
        <g id="arrows15">
          <use xlink:href="#arrow1" transform="translate(0.6799,-0.9954) rotate(-68.93) scale(2.7)"/>
        </g>
      </g>
      <g id="fieldline16">
        <path d="M 0.0000,0.0000 L 0.2003,-0.1448 L 0.3182,-0.2325 L 0.4130,-0.3056 L 0.4940,-0.3710 L 0.5655,-0.4316 L 0.6298,-0.4891 L 0.6882,-0.5444 L 0.7415,-0.5981 L 0.7905,-0.6507 L 0.8354,-0.7024 L 0.8768,-0.7535 L 0.9148,-0.8041 L 0.9496,-0.8544 L 0.9814,-0.9045 L 1.0103,-0.9543 L 1.0364,-1.0041 L 1.0598,-1.0538 L 1.0806,-1.1034 L 1.0988,-1.1530 L 1.1145,-1.2026 L 1.1278,-1.2521 L 1.1385,-1.3017 L 1.1469,-1.3513 L 1.1529,-1.4008 L 1.1564,-1.4504 L 1.1576,-1.5000"/>
        <g id="arrows16">
          <use xlink:href="#arrow1" transform="translate(0.9995,-0.9368) rotate(-61.30) scale(2.7)"/>
        </g>
      </g>
      <g id="fieldline17">
        <path d="M 0.0000,0.0000 L 0.2300,-0.0827 L 0.3695,-0.1351 L 0.4843,-0.1808 L 0.5846,-0.2232 L 0.6749,-0.2641 L 0.7578,-0.3043 L 0.8346,-0.3442 L 0.9062,-0.3842 L 0.9733,-0.4246 L 1.0363,-0.4654 L 1.0957,-0.5067 L 1.1515,-0.5487 L 1.2040,-0.5913 L 1.2534,-0.6345 L 1.2998,-0.6784 L 1.3432,-0.7230 L 1.3838,-0.7682 L 1.4215,-0.8141 L 1.4565,-0.8605 L 1.4888,-0.9075 L 1.5184,-0.9550 L 1.5453,-1.0029 L 1.5697,-1.0514 L 1.5913,-1.1002 L 1.6105,-1.1494 L 1.6270,-1.1989 L 1.6410,-1.2487 L 1.6524,-1.2986 L 1.6613,-1.3488 L 1.6676,-1.3991 L 1.6714,-1.4495 L 1.6727,-1.5000"/>
        <g id="arrows17">
          <use xlink:href="#arrow1" transform="translate(1.4350,-0.8325) rotate(-54.06) scale(2.7)"/>
        </g>
      </g>
      <g id="fieldline18">
        <path d="M 0.0000,0.0000 L 0.2428,-0.0112 L 0.3949,-0.0204 L 0.5233,-0.0304 L 0.6379,-0.0417 L 0.7434,-0.0546 L 0.8422,-0.0690 L 0.9356,-0.0852 L 1.0245,-0.1030 L 1.1096,-0.1225 L 1.1912,-0.1438 L 1.2696,-0.1668 L 1.3452,-0.1915 L 1.4179,-0.2178 L 1.4880,-0.2458 L 1.5555,-0.2755 L 1.6205,-0.3067 L 1.6830,-0.3394 L 1.7431,-0.3737 L 1.8008,-0.4094 L 1.8561,-0.4466 L 1.9089,-0.4851 L 1.9594,-0.5249 L 2.0074,-0.5659 L 2.0531,-0.6081 L 2.0963,-0.6515 L 2.1371,-0.6959 L 2.1754,-0.7413 L 2.2114,-0.7877 L 2.2448,-0.8349 L 2.2758,-0.8830 L 2.3044,-0.9318 L 2.3305,-0.9813 L 2.3541,-1.0314 L 2.3752,-1.0820 L 2.3939,-1.1332 L 2.4100,-1.1848 L 2.4237,-1.2368 L 2.4349,-1.2890 L 2.4436,-1.3416 L 2.4499,-1.3943 L 2.4536,-1.4471 L 2.4549,-1.5000"/>
        <g id="arrows18">
          <use xlink:href="#arrow1" transform="translate(2.0854,-0.6412) rotate(-46.60) scale(2.7)"/>
        </g>
      </g>
      <g id="fieldline19">
        <path d="M 0.0000,0.0000 L 0.2396,0.0653 L 0.3949,0.1054 L 0.5290,0.1378 L 0.6515,0.1649 L 0.7666,0.1880 L 0.8764,0.2077 L 0.9822,0.2242 L 1.0848,0.2378 L 1.1847,0.2486 L 1.2824,0.2568 L 1.3780,0.2625 L 1.4718,0.2656 L 1.5639,0.2663 L 1.6544,0.2646 L 1.7433,0.2605 L 1.8307,0.2540 L 1.9166,0.2453 L 2.0009,0.2344 L 2.0838,0.2212 L 2.1651,0.2058 L 2.2449,0.1882 L 2.3231,0.1686 L 2.3996,0.1469 L 2.4746,0.1232 L 2.5478,0.0974 L 2.6193,0.0698 L 2.6891,0.0402 L 2.7570,0.0088 L 2.8231,-0.0244 L 2.8874,-0.0593 L 2.9497,-0.0960 L 3.0100,-0.1342"/>
        <g id="arrows19">
          <use xlink:href="#arrow1" transform="translate(2.1476,0.2087) rotate(-11.74) scale(2.7)"/>
        </g>
      </g>
      <g id="fieldline20">
        <path d="M 0.0000,0.0000 L 0.2222,0.1476 L 0.3711,0.2439 L 0.5030,0.3266 L 0.6261,0.4009 L 0.7440,0.4693 L 0.8586,0.5331 L 0.9710,0.5929 L 1.0819,0.6492 L 1.1918,0.7022 L 1.3008,0.7522 L 1.4094,0.7993 L 1.5175,0.8437 L 1.6254,0.8852 L 1.7331,0.9242 L 1.8406,0.9604 L 1.9479,0.9941 L 2.0551,1.0252 L 2.1622,1.0538 L 2.2691,1.0798 L 2.3758,1.1032 L 2.4823,1.1242 L 2.5886,1.1426 L 2.6945,1.1585 L 2.8001,1.1719 L 2.9053,1.1829 L 3.0100,1.1913"/>
        <g id="arrows20">
          <use xlink:href="#arrow1" transform="translate(2.0430,1.0214) rotate(15.35) scale(2.7)"/>
        </g>
      </g>
      <g id="fieldline21">
        <path d="M 0.0000,0.0000 L 0.1855,0.2394 L 0.3151,0.4031 L 0.4323,0.5473 L 0.5441,0.6813 L 0.6535,0.8085 L 0.7619,0.9309 L 0.8701,1.0494 L 0.9786,1.1646 L 1.0878,1.2771 L 1.1980,1.3870 L 1.3092,1.4946 L 1.4217,1.6000 L 1.5355,1.7033 L 1.6507,1.8045 L 1.7672,1.9037 L 1.8852,2.0009 L 2.0046,2.0962 L 2.1255,2.1894 L 2.2477,2.2807 L 2.3714,2.3700 L 2.4965,2.4572 L 2.6229,2.5425 L 2.7506,2.6257 L 2.8797,2.7068 L 3.0100,2.7858"/>
        <g id="arrows21">
          <use xlink:href="#arrow1" transform="translate(1.9901,2.0844) rotate(38.02) scale(2.7)"/>
        </g>
      </g>
      <g id="fieldline22">
        <path d="M 0.0000,0.0000 L 0.1252,0.3643 L 0.2171,0.6249 L 0.3031,0.8617 L 0.3877,1.0877 L 0.4727,1.3077 L 0.5589,1.5243 L 0.6469,1.7387 L 0.7370,1.9517 L 0.8294,2.1640 L 0.9243,2.3757 L 1.0217,2.5872 L 1.1218,2.7986 L 1.2245,3.0100"/>
        <g id="arrows22">
          <use xlink:href="#arrow1" transform="translate(0.8128,2.1256) rotate(66.26) scale(2.7)"/>
        </g>
      </g>
    </g>
    <g id="symbols">
      <g id="charge1" transform="translate(0.0,0.0) scale(0.015,0.015)">
        <circle style="fill:#ff0000; stroke:none" cx="0" cy="0" r="14"/>
        <circle cx="0" cy="0" r="14" style="fill:url(#white_spot); stroke:#000000; stroke-width:2"/>
        <path d="M 2,2 V 8 H -2 V 2 H -8 V -2 H -2 V -8 H 2 V -2 H 8 V 2 H 2 Z" style="fill:#000000; stroke:none"/>
      </g>
      <g id="metal_surface">
        <defs>
          <linearGradient id="grad1" x1="0" x2="0" y1="0" y2="1" gradientUnits="objectBoundingBox">
            <stop stop-color="#bbb" offset="0" stop-opacity="0"/>
            <stop stop-color="#bbb" offset="1" stop-opacity="1"/>
          </linearGradient>
        </defs>
        <rect y="-2.02" x="-3.02" style="fill:url(#grad1); stroke:#000; stroke-width:0.03" height="0.515" width="6.04"/>
      </g>
    </g>
  </g>
</svg>
