<?xml version="1.0" encoding="UTF-8" standalone="no"?>
<!-- Created with Inkscape (http://www.inkscape.org/) -->
<svg
   xmlns:dc="http://purl.org/dc/elements/1.1/"
   xmlns:cc="http://creativecommons.org/ns#"
   xmlns:rdf="http://www.w3.org/1999/02/22-rdf-syntax-ns#"
   xmlns:svg="http://www.w3.org/2000/svg"
   xmlns="http://www.w3.org/2000/svg"
   xmlns:sodipodi="http://sodipodi.sourceforge.net/DTD/sodipodi-0.dtd"
   xmlns:inkscape="http://www.inkscape.org/namespaces/inkscape"
   version="1.0"
   width="400"
   height="400"
   id="svg2728"
   sodipodi:version="0.32"
   inkscape:version="0.46"
   sodipodi:docname="Wikibooks-logo-en-noslogan.svg"
   inkscape:output_extension="org.inkscape.output.svg.inkscape">
  <metadata
     id="metadata18">
    <rdf:RDF>
      <cc:Work
         rdf:about="">
        <dc:format>image/svg+xml</dc:format>
        <dc:type
           rdf:resource="http://purl.org/dc/dcmitype/StillImage" />
      </cc:Work>
    </rdf:RDF>
  </metadata>
  <sodipodi:namedview
     inkscape:window-height="821"
     inkscape:window-width="1272"
     inkscape:pageshadow="2"
     inkscape:pageopacity="0.0"
     guidetolerance="10.0"
     gridtolerance="10.0"
     objecttolerance="10.0"
     borderopacity="1.0"
     bordercolor="#666666"
     pagecolor="#ffffff"
     id="base"
     showgrid="false"
     inkscape:zoom="1.245"
     inkscape:cx="240.3826"
     inkscape:cy="186.14387"
     inkscape:window-x="0"
     inkscape:window-y="116"
     inkscape:current-layer="svg2728" />
  <defs
     id="defs2731">
    <inkscape:perspective
       sodipodi:type="inkscape:persp3d"
       inkscape:vp_x="0 : 200 : 1"
       inkscape:vp_y="0 : 1000 : 0"
       inkscape:vp_z="400 : 200 : 1"
       inkscape:persp3d-origin="200 : 133.33333 : 1"
       id="perspective20" />
  </defs>
  <g
     id="layer1" />
  <text
     xml:space="preserve"
     style="font-style: normal; font-variant: normal; font-weight: bold; font-stretch: normal; fill: rgb(0, 0, 0); fill-opacity: 1; stroke: none; stroke-width: 1px; stroke-linecap: butt; stroke-linejoin: miter; stroke-opacity: 1; font-family: DejaVu Sans;"
     x="15.261"
     y="175.904"
     id="text2416"><tspan
       sodipodi:role="line"
       id="tspan2418"
       x="15.261"
       y="175.904" /></text>
  <g
     id="g2861">
    <g
       transform="translate(0,12.9688)"
       id="g3189">
      <g
         id="g3177">
        <path
           d="M 191.65664,115.97593 C 196.93351,182.00184 208.45394,245.91983 242.85479,307.46513 L 255.86467,307.56221 L 338.15581,234.14292 L 259.72068,35.943307 L 203.18059,89.951746 L 191.65664,115.97593 z"
           style="fill:#fdfcf8;fill-opacity:1;fill-rule:evenodd;stroke:none;stroke-width:1px;stroke-linecap:butt;stroke-linejoin:miter;stroke-opacity:1"
           id="path3297" />
        <path
           id="path3272"
           style="fill:#5f96d3;fill-opacity:1"
           d="M 263.32723,16.5 C 236.14031,42.801966 209.26473,68.875 209.26473,68.875 C 209.26473,68.875 218.92098,88.53125 218.92098,88.53125 C 232.01455,75.550025 245.18226,64.133911 257.73348,51.4375 C 284.16674,109.4727 302.17756,156.24917 324.33191,218.08448 C 331.58462,238.17246 330.10582,239.07126 312.76941,249.92823 C 284.91465,263.77995 276.0966,272.86547 242.89833,308.1875 L 265.61708,308.1875 C 293.37052,283.09599 303.67261,274.24081 338.42566,255.92823 C 350.71955,248.83035 352.40523,239.86966 347.36316,225.92823 C 331.10198,180.73146 295.87208,83.322614 263.32723,16.5 z" />
      </g>
      <g
         id="g3181">
        <path
           d="M 125.84082,116.04509 C 131.11769,182.071 144.61911,246.8316 179.01996,308.3769 L 199.35471,308.55962 L 261.32293,230.84125 L 193.90486,36.012472 L 137.36477,90.020911 L 125.84082,116.04509 z"
           style="fill:#f4eed7;fill-rule:evenodd;stroke:none;stroke-width:1px;stroke-linecap:butt;stroke-linejoin:miter;stroke-opacity:1"
           id="path3214" />
        <path
           id="path3138"
           style="fill:#2a62a1;fill-opacity:1;fill-rule:evenodd;stroke:none;stroke-width:22;stroke-linecap:round;stroke-linejoin:miter;stroke-miterlimit:4;stroke-dasharray:none;stroke-opacity:1"
           d="M 192.45223,17.125 C 172.56466,30.549352 157.22356,49.869448 139.92098,66.4375 C 139.92098,66.4375 147.01473,89.0625 147.01473,89.0625 C 160.5559,78.391834 172.3403,65.526043 184.51473,53.34375 L 250.17098,218.03125 C 253.95672,229.18194 247.99456,239.10365 236.01473,249.90625 C 221.66549,261.43896 192.12216,288.32681 178.73348,308.8125 L 199.10848,308.8125 C 220.49313,286.84657 224.35368,283.86504 248.70223,262.78125 C 265.04857,246.10281 279.81623,237.56053 272.10848,216.1875 L 192.45223,17.125 z" />
      </g>
      <g
         id="g3185">
        <path
           d="M 50.218883,114.63177 C 55.595535,183.91551 77.233973,245.97178 102.67801,306.33668 L 129.48015,306.00572 L 199.88087,225.96804 L 118.28293,34.599156 L 61.742841,88.607595 L 50.218883,114.63177 z"
           style="fill:#e9ddaf;fill-rule:evenodd;stroke:none;stroke-width:1px;stroke-linecap:butt;stroke-linejoin:miter;stroke-opacity:1"
           id="path2238" />
        <path
           id="path3136"
           style="fill:#15304f;fill-opacity:1;fill-rule:evenodd;stroke:none;stroke-width:22;stroke-linecap:round;stroke-linejoin:miter;stroke-miterlimit:4;stroke-dasharray:none;stroke-opacity:1"
           d="M 125.32723,16.0625 C 120.02588,17.841698 115.61512,21.260515 111.48348,24.875 C 55.394922,78.847012 53.13973,81.125 53.13973,81.125 C 50.188265,83.867742 49.941746,87.87735 49.98348,91.90625 L 50.218884,114.63177 C 50.218884,114.63177 76.123108,89.450054 114.79598,52.21875 C 135.6144,106.45643 157.3415,160.40524 178.73348,214.4375 C 181.66298,222.60083 174.65125,229.2909 165.76473,238.21875 C 153.49118,250.19233 127.82007,274.84011 101.54598,307.75 L 127.88973,307.75 C 127.88973,307.75 191.20222,238.3125 191.20223,238.3125 C 197.22151,230.03457 204.70542,221.9413 201.54598,214.4375 C 201.54598,214.4375 125.32723,16.062501 125.32723,16.0625 z" />
      </g>
    </g>
    <g
       transform="translate(6.8381,12.9688)"
       id="g2700">
      <path
         id="text2420"
         d="M 19.999969,316.41012 L 30.089813,316.41012 L 37.144501,346.07809 L 44.144501,316.41012 L 54.289032,316.41012 L 61.289032,346.07809 L 68.343719,316.41012 L 78.351532,316.41012 L 68.726532,357.23434 L 56.585907,357.23434 L 49.175751,326.19918 L 41.847626,357.23434 L 29.707001,357.23434 L 19.999969,316.41012 z M 85.269501,316.41012 L 95.796844,316.41012 L 95.796844,357.23434 L 85.269501,357.23434 L 85.269501,316.41012 z M 106.16013,316.41012 L 116.68747,316.41012 L 116.68747,331.31246 L 131.86325,316.41012 L 144.08591,316.41012 L 124.42575,335.74215 L 146.10934,357.23434 L 132.92966,357.23434 L 116.68747,341.15622 L 116.68747,357.23434 L 106.16013,357.23434 L 106.16013,316.41012 z M 149.582,316.41012 L 160.10934,316.41012 L 160.10934,357.23434 L 149.582,357.23434 L 149.582,316.41012 z"
         style="font-size:56px;font-style:normal;font-variant:normal;font-weight:bold;font-stretch:normal;fill:#0b2645;fill-opacity:1;stroke:none;stroke-width:1px;stroke-linecap:butt;stroke-linejoin:miter;stroke-opacity:1;font-family:DejaVu Sans" />
      <path
         style="font-size:56px;font-style:normal;font-variant:normal;font-weight:bold;font-stretch:normal;fill:#0a4e98;fill-opacity:1;stroke:none;stroke-width:1px;stroke-linecap:butt;stroke-linejoin:miter;stroke-opacity:1;font-family:DejaVu Sans"
         d="M 186.35118,332.18747 C 188.01001,332.18749 189.26782,331.82291 190.12462,331.09372 C 190.98136,330.36458 191.40975,329.28906 191.40977,327.86716 C 191.40975,326.46354 190.98136,325.39258 190.12462,324.65427 C 189.26782,323.91602 188.01001,323.54688 186.35118,323.54684 L 180.52696,323.54684 L 180.52696,332.18747 L 186.35118,332.18747 z M 186.70665,350.04294 C 188.82121,350.04295 190.4117,349.59633 191.47813,348.70309 C 192.54451,347.80987 193.07772,346.46092 193.07774,344.65622 C 193.07772,342.888 192.54907,341.56183 191.49181,340.6777 C 190.43449,339.79361 188.83944,339.35155 186.70665,339.35153 L 180.52696,339.35153 L 180.52696,350.04294 L 186.70665,350.04294 z M 196.49571,335.35934 C 198.7561,336.01562 200.50609,337.22785 201.74571,338.99606 C 202.98526,340.76431 203.60505,342.93358 203.60509,345.50388 C 203.60505,349.44138 202.27432,352.37628 199.6129,354.30856 C 196.95141,356.24086 192.90454,357.207 187.47227,357.207 L 169.99962,357.207 L 169.99962,316.38278 L 185.80431,316.38278 C 191.47355,316.38282 195.57967,317.23959 198.12267,318.95309 C 200.6656,320.66667 201.93708,323.41016 201.93712,327.18356 C 201.93708,329.17057 201.47224,330.86132 200.54259,332.25583 C 199.61287,333.65038 198.26391,334.68489 196.49571,335.35934 L 196.49571,335.35934 z M 227.30431,323.27341 C 224.09595,323.27344 221.60767,324.45834 219.83946,326.82809 C 218.07122,329.19791 217.1871,332.53385 217.18712,336.83591 C 217.1871,341.11978 218.07122,344.4466 219.83946,346.81638 C 221.60767,349.18618 224.09595,350.37107 227.30431,350.37106 C 230.53084,350.37107 233.02823,349.18618 234.79649,346.81638 C 236.56469,344.4466 237.4488,341.11978 237.44884,336.83591 C 237.4488,332.53385 236.56469,329.19791 234.79649,326.82809 C 233.02823,324.45834 230.53084,323.27344 227.30431,323.27341 L 227.30431,323.27341 z M 227.30431,315.6445 C 233.86678,315.64454 239.0074,317.52214 242.72618,321.27731 C 246.44489,325.03255 248.30426,330.21875 248.30431,336.83591 C 248.30426,343.43488 246.44489,348.61196 242.72618,352.36716 C 239.0074,356.12237 233.86678,357.99997 227.30431,357.99997 C 220.76002,357.99997 215.62396,356.12237 211.8961,352.36716 C 208.16823,348.61196 206.3043,343.43488 206.30431,336.83591 C 206.3043,330.21875 208.16823,325.03255 211.8961,321.27731 C 215.62396,317.52214 220.76002,315.64454 227.30431,315.6445 L 227.30431,315.6445 z M 270.88243,323.27341 C 267.67408,323.27344 265.1858,324.45834 263.41759,326.82809 C 261.64934,329.19791 260.76523,332.53385 260.76524,336.83591 C 260.76523,341.11978 261.64934,344.4466 263.41759,346.81638 C 265.1858,349.18618 267.67408,350.37107 270.88243,350.37106 C 274.10897,350.37107 276.60636,349.18618 278.37462,346.81638 C 280.14281,344.4466 281.02693,341.11978 281.02696,336.83591 C 281.02693,332.53385 280.14281,329.19791 278.37462,326.82809 C 276.60636,324.45834 274.10897,323.27344 270.88243,323.27341 L 270.88243,323.27341 z M 270.88243,315.6445 C 277.4449,315.64454 282.58552,317.52214 286.30431,321.27731 C 290.02301,325.03255 291.88239,330.21875 291.88243,336.83591 C 291.88239,343.43488 290.02301,348.61196 286.30431,352.36716 C 282.58552,356.12237 277.4449,357.99997 270.88243,357.99997 C 264.33814,357.99997 259.20208,356.12237 255.47423,352.36716 C 251.74636,348.61196 249.88243,343.43488 249.88243,336.83591 C 249.88243,330.21875 251.74636,325.03255 255.47423,321.27731 C 259.20208,317.52214 264.33814,315.64454 270.88243,315.6445 L 270.88243,315.6445 z M 295.81212,316.38278 L 306.33946,316.38278 L 306.33946,331.28513 L 321.51524,316.38278 L 333.7379,316.38278 L 314.07774,335.71481 L 333.76134,357.207 L 322.58165,357.207 L 306.33946,341.12888 L 306.33946,357.207 L 295.81212,357.207 L 295.81212,316.38278 z M 363.64415,317.66794 L 363.64415,326.30856 C 361.40193,325.30599 359.21443,324.54948 357.08165,324.03903 C 354.94881,323.52865 352.93449,323.27344 351.03868,323.27341 C 348.52304,323.27344 346.66366,323.61979 345.46056,324.31247 C 344.25742,325.00521 343.65585,326.08073 343.65587,327.53903 C 343.65585,328.63281 344.06145,329.48502 344.87267,330.09567 C 345.68385,330.70638 347.15585,331.23046 349.28868,331.66794 L 353.77306,332.57028 C 358.31209,333.48176 361.53865,334.86718 363.45274,336.72653 C 365.36677,338.58593 366.3238,341.22915 366.32384,344.65622 C 366.3238,349.15883 364.98852,352.50844 362.31798,354.70505 C 359.64738,356.90166 355.5686,357.99997 350.08165,357.99997 C 347.49309,357.99997 344.89544,357.75388 342.28868,357.26169 C 339.6819,356.7695 337.07513,356.04034 334.46837,355.07419 L 334.46837,346.18747 C 337.07513,347.5729 339.59531,348.61651 342.02892,349.31833 C 344.46249,350.02016 346.8095,350.37107 349.06993,350.37106 C 351.36678,350.37107 353.1259,349.98826 354.34727,349.22263 C 355.5686,348.45701 356.17928,347.36326 356.17931,345.94138 C 356.17928,344.66535 355.76457,343.68097 354.93517,342.98825 C 354.10571,342.29556 352.45142,341.67577 349.97227,341.12888 L 345.89806,340.22653 C 341.81471,339.35155 338.82969,337.95702 336.94298,336.04294 C 335.05625,334.1289 334.1129,331.54947 334.1129,328.30466 C 334.1129,324.23959 335.42539,321.11329 338.0504,318.92575 C 340.67539,316.73829 344.44882,315.64454 349.37071,315.6445 C 351.61288,315.64454 353.91887,315.81316 356.28868,316.15036 C 358.65844,316.48764 361.11026,316.9935 363.64415,317.66794 L 363.64415,317.66794 z"
         id="text3194"
         sodipodi:nodetypes="cssscccccssscccccsssccccssscccssssssscccssssssscccssssssscccsssssssccccccccccccccccsssssccsssssccsssssccssssscc" />
    </g>
  </g>
</svg>
