<?xml version="1.0" encoding="UTF-8" standalone="no"?>
<svg
   xmlns:dc="http://purl.org/dc/elements/1.1/"
   xmlns:cc="http://creativecommons.org/ns#"
   xmlns:rdf="http://www.w3.org/1999/02/22-rdf-syntax-ns#"
   xmlns:svg="http://www.w3.org/2000/svg"
   xmlns="http://www.w3.org/2000/svg"
   xmlns:sodipodi="http://sodipodi.sourceforge.net/DTD/sodipodi-0.dtd"
   xmlns:inkscape="http://www.inkscape.org/namespaces/inkscape"
   version="1.1"
   id="Wikimedia_Logo"
   viewBox="-400 -525 821.97627 671.98718"
   width="626.26764"
   height="511.99023"
   inkscape:version="0.91 r13725"
   sodipodi:docname="Wikiversity_concept_02b_plain.svg">
  <metadata
     id="metadata4368">
    <rdf:RDF>
      <cc:Work
         rdf:about="">
        <dc:format>image/svg+xml</dc:format>
        <dc:type
           rdf:resource="http://purl.org/dc/dcmitype/StillImage" />
        <dc:title></dc:title>
      </cc:Work>
    </rdf:RDF>
  </metadata>
  <sodipodi:namedview
     pagecolor="#ffffff"
     bordercolor="#666666"
     borderopacity="1"
     objecttolerance="10"
     gridtolerance="10"
     guidetolerance="10"
     inkscape:pageopacity="0"
     inkscape:pageshadow="2"
     inkscape:window-width="640"
     inkscape:window-height="480"
     id="namedview4366"
     showgrid="false"
     inkscape:zoom="0.70710678"
     inkscape:cx="302.93232"
     inkscape:cy="241.40342"
     inkscape:current-layer="g4308"
     fit-margin-left="20"
     fit-margin-top="25"
     fit-margin-bottom="20"
     fit-margin-right="20"
     showguides="false"
     inkscape:guide-bbox="true">
    <sodipodi:guide
       position="795.72363,26.135571"
       orientation="1,0"
       id="guide4187" />
    <sodipodi:guide
       position="26.249993,26.068921"
       orientation="1,0"
       id="guide4189" />
    <sodipodi:guide
       position="743.52,26.252471"
       orientation="0,1"
       id="guide4218" />
    <sodipodi:guide
       position="734.01049,12.272281"
       orientation="0,1"
       id="guide4226" />
    <sodipodi:guide
       position="767.99194,6.1968534"
       orientation="0,1"
       id="guide4242" />
  </sodipodi:namedview>
  <defs
     id="defs4288" />
  <defs
     id="defs4315" />
  <g
     inkscape:label="logo_main"
     id="g4308"
     inkscape:groupmode="layer"
     transform="translate(-4.519753,-39.185557)"
     style="display:inline">
    <path
       style="fill:#006499;fill-opacity:1"
       d="m 318.1543,26.099609 c -6.7325,1.186713 -13.86227,6.138676 -20.82032,15.484375 -5.92161,7.953619 -11.55736,18.862801 -16.54687,32.175782 l 74.37305,0 C 350.11155,60.336317 344.43255,49.346268 338.51562,41.369141 331.60097,32.046836 324.58296,27.184417 318.1543,26.099609 Z m 23.23828,2.125 c 1.95399,2.069347 3.848,4.336577 5.67578,6.800782 7.3313,9.884017 13.81872,22.986967 19.42187,38.734375 l 51.51954,0 C 396.74344,50.134348 370.3537,33.932508 341.39258,28.224609 Z m -46.75781,0.05078 c -28.86576,5.749912 -55.16784,21.92615 -76.375,45.484375 l 51.18945,0 c 5.54039,-15.644182 11.99472,-28.666264 19.34375,-38.53711 1.87632,-2.520184 3.82611,-4.837214 5.8418,-6.947265 z m -38.29688,2.263671 a 199.99999,200 0 0 0 -73.59961,43.220704 l 21.4668,0 C 219.0685,55.429834 236.72636,40.654697 256.33789,30.53906 Z m 124.32617,0.375 c 19.31799,10.104387 36.7186,24.745084 51.39649,42.845704 l 21.55273,0 A 199.99999,200 0 0 0 380.66406,30.914062 Z M 171.91602,84.410156 a 199.99999,200 0 0 0 -37.67774,58.128904 l 33.14649,0 c 6.98606,-21.41453 16.76379,-41.03566 28.77929,-58.128904 l -24.24804,0 z m 37.48437,0 C 196.57344,101.11287 186.06993,120.76794 178.5918,142.53906 l 74.9414,0 c 2.99509,-21.57594 7.22395,-41.13443 12.42578,-58.128904 l -56.55859,0 z m 67.71484,0 c -5.32117,16.644654 -9.68947,36.261224 -12.79687,58.128904 l 107.5,0 c -3.16892,-21.85227 -7.60705,-41.47166 -12.96875,-58.128904 l -81.73438,0 z m 92.90039,0 c 5.2422,16.999784 9.53487,36.562654 12.58985,58.128904 l 75.07031,0 c -7.47804,-21.77139 -17.98177,-41.42583 -30.80859,-58.128904 l -56.85157,0 z m 70.0879,0 c 12.01546,17.093064 21.79122,36.714674 28.77734,58.128904 l 33.36719,0 A 199.99999,200 0 0 0 464.23438,84.410156 l -24.13086,0 z M 130.05273,153.18945 A 199.99999,200 0 0 0 118.13477,220.625 l 37.04687,0 c 0,-23.58269 3.17242,-46.27837 9.00391,-67.43555 l -34.13282,0 z m 45.17774,0 c -6.06786,20.97646 -9.39844,43.68008 -9.39844,67.43555 l 82.57031,0 c 0,-23.8357 1.33165,-46.47308 3.7793,-67.43555 l -76.95117,0 z m 87.68555,0 c -2.49173,20.86239 -3.86329,43.53625 -3.86329,67.43555 l 118.16211,0 c 0,-23.87776 -1.41274,-46.55529 -3.96289,-67.43555 l -110.33593,0 z m 121.06836,0 c 2.50448,20.97702 3.88085,43.61802 3.88085,67.43555 l 82.57032,0 c 0,-23.75528 -3.33075,-46.45896 -9.39844,-67.43555 l -77.05273,0 z m 88.09765,0 c 5.83164,21.15723 9.00391,43.85279 9.00391,67.43555 l 37.04883,0 a 199.99999,200 0 0 0 -11.97461,-67.43555 l -34.07813,0 z M 25,231.27539 l 0,19.41602 586.26758,0 0,-19.41602 -586.26758,0 z m 20.042969,30.06445 0,201.68555 78.294921,0 0,-201.68555 -78.294921,0 z m 155.962891,0 0,201.68555 78.29492,0 0,-201.68555 -78.29492,0 z m 155.96289,0 0,201.68555 78.29297,0 0,-201.68555 -78.29297,0 z m 155.96094,0 0,201.68555 78.29492,0 0,-201.68555 -78.29492,0 z M 25,473.67383 l 0,19.41601 586.26758,0 0,-19.41601 -586.26758,0 z"
       transform="matrix(1.3125001,0,0,1.3125,-402.04275,-487.25768)"
       id="rect4310"
       inkscape:connector-curvature="0" />
  </g>
</svg>
