<?xml version="1.0" encoding="UTF-8" standalone="no"?>
<!-- Created with Inkscape (http://www.inkscape.org/) -->

<svg
   xmlns:dc="http://purl.org/dc/elements/1.1/"
   xmlns:cc="http://creativecommons.org/ns#"
   xmlns:rdf="http://www.w3.org/1999/02/22-rdf-syntax-ns#"
   xmlns:svg="http://www.w3.org/2000/svg"
   xmlns="http://www.w3.org/2000/svg"
   xmlns:sodipodi="http://sodipodi.sourceforge.net/DTD/sodipodi-0.dtd"
   xmlns:inkscape="http://www.inkscape.org/namespaces/inkscape"
   width="319.1875"
   height="239.375"
   id="svg3198"
   version="1.1"
   inkscape:version="0.48.4 r9939"
   sodipodi:docname="xto3minus3x_w.svg">
  <sodipodi:namedview
     id="base"
     pagecolor="#ffffff"
     bordercolor="#666666"
     borderopacity="1.0"
     inkscape:pageopacity="0.0"
     inkscape:pageshadow="2"
     inkscape:zoom="1.9725"
     inkscape:cx="232.09686"
     inkscape:cy="187.57429"
     inkscape:document-units="px"
     inkscape:current-layer="layer1"
     showgrid="false"
     inkscape:window-width="1920"
     inkscape:window-height="977"
     inkscape:window-x="-4"
     inkscape:window-y="-4"
     inkscape:window-maximized="1"
     fit-margin-top="0"
     fit-margin-left="0"
     fit-margin-right="0"
     fit-margin-bottom="0" />
  <defs
     id="defs3200" />
  <metadata
     id="metadata3203">
    <rdf:RDF>
      <cc:Work
         rdf:about="">
        <dc:format>image/svg+xml</dc:format>
        <dc:type
           rdf:resource="http://purl.org/dc/dcmitype/StillImage" />
        <dc:title></dc:title>
      </cc:Work>
    </rdf:RDF>
  </metadata>
  <g
     id="layer1"
     inkscape:groupmode="layer"
     inkscape:label="Layer 1"
     style="display:inline"
     transform="translate(-0.625,-12.96875)">
    <path
       style="fill:none;stroke:#dcdcdc;stroke-width:0.5pt;stroke-linecap:butt;stroke-linejoin:miter;stroke-opacity:1;display:inline"
       d="m 41.754984,14.242671 0,236.785399"
       id="path6798"
       inkscape:connector-curvature="0" />
    <path
       style="fill:none;stroke:#dcdcdc;stroke-width:0.5pt;stroke-linecap:butt;stroke-linejoin:miter;stroke-opacity:1;display:inline"
       d="m 81.754984,14.242671 0,236.785409"
       id="path6794"
       inkscape:connector-curvature="0" />
    <path
       style="fill:none;stroke:#dcdcdc;stroke-width:0.5pt;stroke-linecap:butt;stroke-linejoin:miter;stroke-opacity:1;display:inline"
       d="m 161.75499,14.242671 0,236.785409"
       id="path6792"
       inkscape:connector-curvature="0" />
    <path
       style="fill:none;stroke:#dcdcdc;stroke-width:0.5pt;stroke-linecap:butt;stroke-linejoin:miter;stroke-opacity:1;display:inline"
       d="m 201.75499,14.242671 0,236.097889"
       id="path6790"
       inkscape:connector-curvature="0" />
    <path
       style="fill:none;stroke:#dcdcdc;stroke-width:0.5pt;stroke-linecap:butt;stroke-linejoin:miter;stroke-opacity:1;display:inline"
       d="m 241.75499,14.242671 0,236.097889"
       id="path6788"
       inkscape:connector-curvature="0" />
    <path
       style="fill:none;stroke:#dcdcdc;stroke-width:0.5pt;stroke-linecap:butt;stroke-linejoin:miter;stroke-opacity:1;display:inline"
       d="m 281.75499,14.242671 0,236.097889"
       id="path6786"
       inkscape:connector-curvature="0" />
    <path
       style="fill:none;stroke:#dcdcdc;stroke-width:0.5pt;stroke-linecap:butt;stroke-linejoin:miter;stroke-opacity:1;display:inline"
       d="m 3.9514842,33.443071 316.2815658,0"
       id="path6764"
       inkscape:connector-curvature="0" />
    <path
       style="fill:none;stroke:#dcdcdc;stroke-width:0.5pt;stroke-linecap:butt;stroke-linejoin:miter;stroke-opacity:1;display:inline"
       d="m 3.9514842,73.443071 316.2815658,0"
       id="path6762"
       inkscape:connector-curvature="0" />
    <path
       style="fill:none;stroke:#dcdcdc;stroke-width:0.5pt;stroke-linecap:butt;stroke-linejoin:miter;stroke-opacity:1;display:inline"
       d="m 3.9514842,113.44307 316.2815658,0"
       id="path6760"
       inkscape:connector-curvature="0" />
    <path
       style="fill:none;stroke:#dcdcdc;stroke-width:0.5pt;stroke-linecap:butt;stroke-linejoin:miter;stroke-opacity:1;display:inline"
       d="m 3.9514842,193.44307 316.2815658,0"
       id="path6758"
       inkscape:connector-curvature="0" />
    <path
       style="fill:none;stroke:#dcdcdc;stroke-width:0.5pt;stroke-linecap:butt;stroke-linejoin:miter;stroke-opacity:1;display:inline"
       d="m 3.9514842,233.44307 316.2815658,0"
       id="path6754"
       inkscape:connector-curvature="0" />
    <path
       inkscape:connector-curvature="0"
       style="fill:none;stroke:#666600;stroke-width:2.71439171;stroke-linecap:square;stroke-linejoin:miter;stroke-miterlimit:0;stroke-opacity:1;stroke-dasharray:none;stroke-dashoffset:0;display:inline"
       d="m 40.264164,252.71363 c 0.004,-0.003 0.009,-7e-5 0.0127,0.009 0.10586,0.21757 0.21173,-3.27238 0.3176,-3.05565 0.10587,0.21673 0.21173,-3.24029 0.3176,-3.02441 0.10587,0.21588 0.21174,-3.20832 0.31761,-2.99329 0.10586,0.21504 0.21173,-3.17647 0.3176,-2.96229 0.10587,0.21419 0.21173,-3.14475 0.3176,-2.93142 0.10587,0.21334 0.21174,-3.11315 0.3176,-2.90067 0.10587,0.21249 0.21174,-3.08168 0.31761,-2.87004 0.10587,0.21164 0.21173,-3.05032 0.3176,-2.83953 0.10587,0.21079 0.21174,-3.01909 0.3176,-2.80915 0.10587,0.20995 0.21174,-2.98798 0.31761,-2.77888 0.10587,0.20909 0.21173,-2.957 0.3176,-2.74875 0.10587,0.20825 0.21174,-2.92613 0.3176,-2.71873 0.10587,0.20741 0.21174,-2.89538 0.31761,-2.68883 0.10587,0.20656 0.21173,-2.86476 0.3176,-2.65906 0.10587,0.20571 0.21174,-2.83426 0.3176,-2.6294 0.10587,0.20485 0.21174,-2.80389 0.31761,-2.59988 0.10586,0.20401 0.21173,-2.77364 0.3176,-2.57047 0.10587,0.20316 0.21174,-2.7435 0.3176,-2.54119 0.10587,0.20231 0.21174,-2.71349 0.31761,-2.51202 0.10586,0.20146 0.21173,-2.68361 0.3176,-2.48299 0.10587,0.20062 0.21174,-2.65384 0.3176,-2.45406 0.10587,0.19977 0.21174,-2.6242 0.31761,-2.42527 0.10586,0.19892 0.21173,-2.59468 0.3176,-2.3966 0.10587,0.19807 0.21173,-2.56527 0.3176,-2.36805 0.10587,0.19723 0.21174,-2.53599 0.31761,-2.33961 0.10586,0.19638 0.21173,-2.50684 0.3176,-2.31131 0.10587,0.19553 0.21173,-2.47781 0.3176,-2.28313 0.10587,0.19469 0.21174,-2.44889 0.31761,-2.25506 0.10586,0.19384 0.21173,-2.42011 0.3176,-2.22712 0.10587,0.19299 0.21173,-2.39144 0.3176,-2.1993 0.10587,0.19214 0.21174,-2.3629 0.31761,-2.17161 0.10586,0.19129 0.21173,-2.33448 0.3176,-2.14403 0.10587,0.19044 0.21173,-2.30618 0.3176,-2.11658 0.10587,0.18959 0.21174,-2.27801 0.3176,-2.08926 0.10587,0.18875 0.21174,-2.24994 0.31761,-2.06204 0.10587,0.1879 0.21173,-2.22202 0.3176,-2.03496 0.10587,0.18705 0.21174,-2.19421 0.3176,-2.008 0.10587,0.1862 0.21174,-2.16652 0.31761,-1.98116 0.10587,0.18536 0.21173,-2.13895 0.3176,-1.95444 0.10587,0.18451 0.21174,-2.1115 0.3176,-1.92784 0.10587,0.18366 0.21174,-2.08418 0.31761,-1.90137 0.10587,0.18281 0.21173,-2.05699 0.3176,-1.87502 0.10587,0.18197 0.21174,-2.02991 0.3176,-1.84879 0.10587,0.18112 0.21174,-2.00295 0.31761,-1.82268 0.10586,0.18027 0.21173,-1.97612 0.3176,-1.79669 0.10587,0.17942 0.21174,-1.94941 0.3176,-1.77084 0.10587,0.17858 0.21174,-1.92282 0.31761,-1.74509 0.10586,0.17773 0.21173,-1.89636 0.3176,-1.71948 0.10587,0.17688 0.21174,-1.87001 0.3176,-1.69397 0.10587,0.17603 0.21174,-1.84379 0.31761,-1.66861 0.10586,0.17519 0.21173,-1.81769 0.3176,-1.64335 0.10587,0.17433 0.21173,-1.79171 0.3176,-1.61822 0.10587,0.17348 0.21174,-1.76586 0.31761,-1.59322 0.10586,0.17264 0.21173,-1.74012 0.3176,-1.56833 0.10587,0.17179 0.21173,-1.71451 0.3176,-1.54357 0.10587,0.17094 0.21174,-1.68902 0.31761,-1.51893 0.10586,0.1701 0.21173,-1.66366 0.3176,-1.49441 0.10587,0.16925 0.21173,-1.63841 0.3176,-1.47001 0.10587,0.1684 0.21174,-1.61329 0.31761,-1.44574 0.10586,0.16756 0.21173,-1.58829 0.3176,-1.42158 0.10587,0.1667 0.21173,-1.56342 0.3176,-1.39756 0.10587,0.16586 0.21174,-1.53866 0.3176,-1.37365 0.10587,0.16501 0.21174,-1.51403 0.31761,-1.34987 0.10587,0.16417 0.21173,-1.48951 0.3176,-1.3262 0.10587,0.16332 0.21174,-1.46513 0.3176,-1.30266 0.10587,0.16246 0.21174,-1.44086 0.31761,-1.27925 0.10587,0.16162 0.21173,-1.41671 0.3176,-1.25594 0.10587,0.16077 0.21174,-1.3927 0.3176,-1.23277 0.10587,0.15992 0.21174,-1.3688 0.31761,-1.20972 0.10587,0.15907 0.21173,-1.34502 0.3176,-1.18679 0.10587,0.15822 0.21174,-1.32136 0.3176,-1.16399 0.10587,0.15738 0.21174,-1.29782 0.31761,-1.14129 0.10586,0.15653 0.21173,-1.27442 0.3176,-1.11874 0.10587,0.15569 0.21174,-1.25113 0.3176,-1.09629 0.10587,0.15484 0.21174,-1.22796 0.31761,-1.07398 0.10586,0.15399 0.21173,-1.20491 0.3176,-1.05177 0.10587,0.15314 0.21174,-1.181999 0.3176,-1.029709 0.10587,0.152299 0.21174,-1.15919 0.31761,-1.00775 0.10586,0.15145 0.21173,-1.13652 0.3176,-0.98592 0.10587,0.1506 0.21173,-1.11396 0.3176,-0.96421 0.10587,0.14974 0.21174,-1.09153 0.31761,-0.94263 0.10586,0.1489 0.21173,-1.06922 0.3176,-0.92117 0.10587,0.14805 0.21173,-1.04703 0.3176,-0.89982 0.10587,0.1472 0.21174,-1.02497 0.31761,-0.87861 0.10586,0.14636 0.21173,-1.00302 0.3176,-0.85751 0.10587,0.14551 0.21173,-0.9812 0.3176,-0.83653 0.10587,0.14466 0.21174,-0.9595 0.31761,-0.81569 0.10586,0.14382 0.21173,-0.93792 0.3176,-0.79495 0.10587,0.14297 0.21173,-0.91646 0.3176,-0.77435 0.10587,0.14212 0.21174,-0.89513 0.3176,-0.75386 0.10587,0.14127 0.21174,-0.87392 0.31761,-0.73349 0.10587,0.14042 0.21173,-0.85283 0.3176,-0.71326 0.10587,0.13958 0.21174,-0.83186 0.3176,-0.69313 0.10587,0.13872 0.21174,-0.81102 0.31761,-0.67314 0.10587,0.13787 0.21173,-0.7903 0.3176,-0.65327 0.10587,0.13703 0.21174,-0.7697 0.3176,-0.63351 0.10587,0.13618 0.21174,-0.74922 0.31761,-0.61389 0.10586,0.13534 0.21173,-0.72886 0.3176,-0.59437 0.10587,0.13449 0.21174,-0.70863 0.3176,-0.57499 0.10587,0.13364 0.21174,-0.68852 0.31761,-0.55573 0.10586,0.13279 0.21173,-0.66853 0.3176,-0.53658 0.10587,0.13194 0.21174,-0.64866 0.3176,-0.51757 0.10587,0.1311 0.21174,-0.62892 0.31761,-0.49867 0.10586,0.13025 0.21173,-0.60929 0.3176,-0.47989 0.10587,0.1294 0.21174,-0.5898 0.3176,-0.46124 0.10587,0.12855 0.21174,-0.57042 0.31761,-0.44272 0.10586,0.12771 0.21173,-0.55116 0.3176,-0.4243 0.10587,0.12686 0.21173,-0.53203 0.3176,-0.40602 0.10587,0.12601 0.21174,-0.51302 0.31761,-0.38785 0.10586,0.12516 0.21173,-0.49413 0.3176,-0.36982 0.10587,0.12432 0.21173,-0.47536 0.3176,-0.35189 0.10587,0.12346 0.21174,-0.45672 0.31761,-0.3341 0.10586,0.12262 0.21173,-0.43819 0.3176,-0.31642 0.10587,0.12177 0.21173,-0.4198 0.3176,-0.29887 0.10587,0.12092 0.21174,-0.40152 0.31761,-0.28144 0.10586,0.12007 0.21173,-0.38336 0.3176,-0.26414 0.10587,0.11923 0.21173,-0.36532 0.3176,-0.24694 0.10587,0.11838 0.21174,-0.34742 0.3176,-0.22989 0.10587,0.11753 0.21174,-0.32962 0.31761,-0.21294 0.10587,0.11669 0.21173,-0.31196 0.3176,-0.19612 0.10587,0.11584 0.21174,-0.29441 0.3176,-0.17943 0.10587,0.11499 0.21174,-0.27699 0.31761,-0.16285 0.10587,0.11414 0.21173,-0.25969 0.3176,-0.14639 0.10587,0.11329 0.21174,-0.24251 0.3176,-0.13007 0.10587,0.11244 0.21174,-0.22546 0.31761,-0.11386 0.10586,0.1116 0.21173,-0.20852 0.3176,-0.0978 0.10587,0.11075 0.21174,-0.19171 0.3176,-0.0818 0.10587,0.1099 0.21174,-0.17502 0.31761,-0.066 0.10586,0.10905 0.21173,-0.15845 0.3176,-0.0503 0.10587,0.1082 0.21174,-0.14201 0.3176,-0.0346 0.10587,0.10736 0.21174,-0.12569 0.31761,-0.0192 0.10586,0.10651 0.21173,-0.10949 0.3176,-0.004 0.10587,0.10566 0.21174,-0.0934 0.3176,0.0114 0.10587,0.10481 0.21174,-0.0774 0.31761,0.0265 0.10586,0.10397 0.21173,-0.0616 0.3176,0.0415 0.10587,0.10312 0.21173,-0.0459 0.3176,0.0564 0.10587,0.10227 0.21174,-0.0303 0.31761,0.0711 0.10586,0.10142 0.21173,-0.0149 0.3176,0.0857 0.10587,0.10057 0.21173,5e-4 0.3176,0.10022 0.10587,0.0997 0.21174,0.0157 0.31761,0.1146 0.10586,0.0989 0.21173,0.0308 0.3176,0.12885 0.10587,0.098 0.21173,0.0458 0.3176,0.14298 0.10587,0.0972 0.21174,0.0607 0.31761,0.15699 0.10586,0.0963 0.21173,0.0754 0.3176,0.17088 0.10587,0.0955 0.21173,0.09 0.3176,0.18464 0.10587,0.0946 0.21174,0.10449 0.3176,0.19828 0.10587,0.0938 0.21174,0.11885 0.31761,0.2118 0.10587,0.0929 0.21173,0.1331 0.3176,0.2252 0.10587,0.0921 0.21174,0.14722 0.3176,0.23847 0.10587,0.0913 0.21174,0.16122 0.31761,0.25163 0.10587,0.0904 0.21173,0.1751 0.3176,0.26465 0.10587,0.0896 0.21174,0.18886 0.3176,0.27757 0.10587,0.0887 0.21174,0.20249 0.31761,0.29035 0.10586,0.0879 0.21173,0.21601 0.3176,0.30301 0.10587,0.087 0.21174,0.2294 0.3176,0.31556 0.10587,0.0862 0.21174,0.24267 0.31761,0.32798 0.10586,0.0853 0.21173,0.25581 0.3176,0.34027 0.10587,0.0845 0.21174,0.26884 0.3176,0.35245 0.10587,0.0836 0.21174,0.28174 0.31761,0.36451 0.10586,0.0828 0.21173,0.29451 0.3176,0.37643 0.10587,0.0819 0.21174,0.30717 0.3176,0.38824 0.10587,0.0811 0.21174,0.3197 0.31761,0.39993 0.10586,0.0802 0.21173,0.33211 0.3176,0.41149 0.10587,0.0794 0.21173,0.34441 0.3176,0.42294 0.10587,0.0785 0.21174,0.35657 0.31761,0.43425 0.10586,0.0777 0.21173,0.36862 0.3176,0.44545 0.10587,0.0768 0.21173,0.38054 0.3176,0.45653 0.10587,0.076 0.21174,0.39234 0.31761,0.46748 0.10586,0.0751 0.21173,0.40402 0.3176,0.47831 0.10587,0.0743 0.21173,0.41558 0.3176,0.48902 0.10587,0.0734 0.21174,0.42701 0.31761,0.49961 0.10586,0.0726 0.21173,0.43832 0.3176,0.51007 0.10587,0.0717 0.21173,0.44951 0.3176,0.52041 0.10587,0.0709 0.21174,0.46058 0.3176,0.53063 0.10587,0.07 0.21174,0.47153 0.31761,0.54073 0.10587,0.0692 0.21173,0.48235 0.3176,0.55071 0.10587,0.0684 0.21174,0.49305 0.3176,0.56056 0.10587,0.0675 0.21174,0.50362 0.31761,0.57029 0.10587,0.0667 0.21173,0.51408 0.3176,0.57989 0.10587,0.0658 0.21174,0.52442 0.3176,0.58939 0.10587,0.065 0.21174,0.53463 0.31761,0.59875 0.10586,0.0641 0.21173,0.54472 0.3176,0.60799 0.10587,0.0633 0.21174,0.55469 0.3176,0.61711 0.10587,0.0624 0.21174,0.56454 0.31761,0.62611 0.10586,0.0616 0.21173,0.57426 0.3176,0.63499 0.10587,0.0607 0.21174,0.58386 0.3176,0.64373 0.10587,0.0599 0.211735,0.59334 0.317605,0.65237 0.10586,0.059 0.21173,0.6027 0.3176,0.66088 0.105871,0.0582 0.211741,0.61193 0.317611,0.66927 0.10586,0.0573 0.21173,0.62104 0.3176,0.67753 0.10587,0.0565 0.21174,0.63003 0.3176,0.68567 0.10587,0.0556 0.21174,0.6389 0.31761,0.69369 0.10586,0.0548 0.21174,0.64764 0.31761,0.70159 0.10586,0.0539 0.21173,0.65627 0.3176,0.70936 0.10587,0.0531 0.21173,0.66477 0.3176,0.71702 0.10587,0.0523 0.21174,0.67315 0.3176,0.72455 0.10587,0.0514 0.21174,0.681409 0.31761,0.731959 0.10587,0.0506 0.21173,0.68954 0.3176,0.73924 0.10587,0.0497 0.21174,0.69756 0.3176,0.74641 0.10587,0.0489 0.21174,0.70545 0.31761,0.75346 0.10587,0.048 0.21173,0.71321 0.3176,0.76037 0.10587,0.0472 0.21174,0.72086 0.3176,0.76717 0.10587,0.0463 0.21174,0.72838 0.31761,0.77385 0.10587,0.0455 0.21173,0.73578 0.3176,0.7804 0.10587,0.0446 0.21174,0.74306 0.3176,0.78683 0.10587,0.0438 0.21174,0.75022 0.31761,0.79314 0.10586,0.0429 0.21173,0.75725 0.3176,0.79932 0.10587,0.0421 0.21174,0.76417 0.3176,0.8054 0.10587,0.0412 0.21174,0.77095 0.31761,0.81133 0.10586,0.0404 0.21173,0.77762 0.3176,0.81715 0.10587,0.0395 0.21174,0.78417 0.3176,0.82286 0.10587,0.0387 0.21174,0.79059 0.31761,0.82843 0.10586,0.0378 0.21173,0.79689 0.3176,0.83388 0.10587,0.037 0.21173,0.80307 0.3176,0.83921 0.10587,0.0361 0.21174,0.80913 0.31761,0.84443 0.10586,0.0353 0.21173,0.81506 0.3176,0.8495 0.10587,0.0345 0.21173,0.82088 0.3176,0.85448 0.10587,0.0336 0.21174,0.82657 0.31761,0.85932 0.10586,0.0327 0.21173,0.83213 0.3176,0.86403 0.10587,0.0319 0.21173,0.83759 0.3176,0.86864 0.10587,0.031 0.21174,0.84291 0.31761,0.87311 0.10586,0.0302 0.21173,0.84811 0.3176,0.87747 0.10587,0.0293 0.21173,0.85319 0.3176,0.88169 0.10587,0.0285 0.21174,0.85815 0.3176,0.88581 0.10587,0.0277 0.21174,0.86298 0.31761,0.88979 0.10587,0.0268 0.21173,0.8677 0.3176,0.89366 0.10587,0.026 0.21174,0.87229 0.3176,0.8974 0.10587,0.0251 0.21174,0.87676 0.31761,0.90102 0.10587,0.0243 0.21173,0.8811 0.3176,0.90452 0.10587,0.0234 0.21174,0.88533 0.3176,0.9079 0.10587,0.0226 0.21174,0.88942 0.31761,0.91115 0.10587,0.0217 0.21173,0.8934 0.3176,0.91428 0.10587,0.0209 0.21174,0.89726 0.3176,0.91729 0.10587,0.02 0.21174,0.901 0.31761,0.92018 0.10586,0.0192 0.21173,0.90461 0.3176,0.92294 0.10587,0.0183 0.21174,0.9081 0.3176,0.92559 0.10587,0.0175 0.21174,0.91147 0.31761,0.92811 0.10586,0.0166 0.21173,0.91471 0.3176,0.9305 0.10587,0.0158 0.21174,0.91784 0.3176,0.93278 0.10587,0.0149 0.21174,0.92084 0.31761,0.93494 0.10586,0.0141 0.21173,0.92372 0.3176,0.93696 0.10587,0.0132 0.21173,0.92648 0.3176,0.93888 0.10587,0.0124 0.21174,0.92911 0.31761,0.94066 0.10586,0.0115 0.21173,0.93163 0.3176,0.94233 0.10587,0.0107 0.21173,0.93402 0.3176,0.94387 0.10587,0.01 0.21174,0.93629 0.31761,0.94529 0.10586,0.009 0.21173,0.93843 0.3176,0.9466 0.10587,0.008 0.21173,0.94045 0.3176,0.94776 0.10587,0.007 0.21174,0.94236 0.31761,0.94882 0.10586,0.006 0.21173,0.94414 0.3176,0.94976 0.10587,0.006 0.21173,0.94579 0.3176,0.95056 0.10587,0.005 0.21174,0.94733 0.3176,0.95125 0.10587,0.004 0.21174,0.94874 0.31761,0.95181 0.10587,0.003 0.21173,0.95004 0.3176,0.95226 0.10587,0.002 0.21174,0.9512 0.3176,0.95258 0.10587,0.001 0.21174,0.95225 0.31761,0.95278 0.10587,5.3e-4 0.21173,0.95317 0.3176,0.95285 0.10587,-3.2e-4 0.21174,0.95398 0.3176,0.95281 0.10587,-0.001 0.21174,0.95465 0.31761,0.95264 0.10587,-0.002 0.21173,0.95521 0.3176,0.95235 0.10587,-0.003 0.21174,0.95565 0.3176,0.95194 0.10587,-0.004 0.21174,0.95596 0.31761,0.9514 0.10586,-0.005 0.21173,0.95615 0.3176,0.95075 0.10587,-0.005 0.21174,0.95622 0.3176,0.94996 0.10587,-0.006 0.21174,0.95617 0.31761,0.94907 0.10586,-0.007 0.21173,0.95599 0.3176,0.94804 0.10587,-0.008 0.21174,0.95569 0.3176,0.9469 0.10587,-0.009 0.21174,0.95527 0.31761,0.94563 0.10586,-0.01 0.21173,0.95473 0.3176,0.94423 0.10587,-0.0105 0.21173,0.95407 0.3176,0.94273 0.10587,-0.0113 0.21174,0.95328 0.31761,0.94109 0.10586,-0.0122 0.21173,0.95237 0.3176,0.93933 0.10587,-0.013 0.21173,0.95134 0.3176,0.93746 0.10587,-0.0139 0.21174,0.95019 0.31761,0.93545 0.10586,-0.0147 0.21173,0.94891 0.3176,0.93334 0.10587,-0.0156 0.21173,0.94751 0.3176,0.93108 0.10587,-0.0164 0.21174,0.94599 0.31761,0.92872 0.10586,-0.0173 0.21173,0.94435 0.3176,0.92623 0.10587,-0.0181 0.21173,0.94258 0.3176,0.92361 0.10587,-0.019 0.21174,0.9407 0.3176,0.92088 0.10587,-0.0198 0.21174,0.93869 0.31761,0.91803 0.10587,-0.0207 0.21173,0.93655 0.3176,0.91504 0.10587,-0.0215 0.21174,0.93431 0.3176,0.91194 0.10587,-0.0224 0.21174,0.93193 0.31761,0.90873 0.10587,-0.0232 0.21173,0.92943 0.3176,0.90537 0.10587,-0.0241 0.21174,0.92681 0.3176,0.90191 0.10587,-0.0249 0.21174,0.92407 0.31761,0.89832 0.10586,-0.0258 0.21173,0.9212 0.3176,0.8946 0.10587,-0.0266 0.21174,0.91822 0.3176,0.89077 0.10587,-0.0274 0.21174,0.91511 0.31761,0.88682 0.10586,-0.0283 0.21173,0.91188 0.3176,0.88273 0.10587,-0.0291 0.21174,0.90853 0.3176,0.87854 0.10587,-0.03 0.21174,0.90505 0.31761,0.87421 0.10586,-0.0308 0.21173,0.90145 0.3176,0.86977 0.10587,-0.0317 0.21174,0.89773 0.3176,0.86519 0.10587,-0.0325 0.21174,0.8939 0.31761,0.86051 0.10586,-0.0334 0.21173,0.88993 0.3176,0.8557 0.10587,-0.0342 0.21173,0.88584 0.3176,0.85076 0.10587,-0.0351 0.21174,0.88163 0.31761,0.84571 0.10586,-0.0359 0.21173,0.8773 0.3176,0.84053 0.10587,-0.0368 0.21173,0.87284 0.3176,0.83522 0.10587,-0.0376 0.21174,0.86828 0.31761,0.82981 0.10586,-0.0385 0.21173,0.86357 0.3176,0.82425 0.10587,-0.0393 0.21173,0.85876 0.3176,0.81859 0.10587,-0.0402 0.21174,0.85382 0.31761,0.8128 0.10586,-0.041 0.21173,0.84876 0.3176,0.80689 0.10587,-0.0419 0.21173,0.84357 0.3176,0.80086 0.10587,-0.0427 0.21174,0.83825 0.3176,0.7947 0.10587,-0.0436 0.21174,0.83282 0.31761,0.78842 0.10587,-0.0444 0.21173,0.82727 0.3176,0.78202 0.10587,-0.0453 0.21174,0.82159 0.3176,0.77549 0.10587,-0.0461 0.21174,0.8158 0.31761,0.76885 0.10587,-0.0469 0.21173,0.80988 0.3176,0.76209 0.10587,-0.0478 0.21174,0.80384 0.3176,0.75519 0.10587,-0.0486 0.21174,0.79768 0.31761,0.74818 0.10586,-0.0495 0.21173,0.79139 0.3176,0.74105 0.10587,-0.0503 0.21174,0.78498 0.3176,0.73379 0.10587,-0.0512 0.21174,0.77845 0.31761,0.72642 0.10586,-0.052 0.21173,0.77179 0.3176,0.71891 0.10587,-0.0529 0.21174,0.76502 0.3176,0.71129 0.10587,-0.0537 0.21174,0.75812 0.31761,0.70354 0.10586,-0.0546 0.21173,0.75111 0.3176,0.69568 0.10587,-0.0554 0.21174,0.74396 0.3176,0.68769 0.10587,-0.0563 0.21174,0.7367 0.31761,0.67958 0.10586,-0.0571 0.21173,0.72931 0.3176,0.67134 0.10587,-0.058 0.21173,0.7218 0.3176,0.66298 0.10587,-0.0588 0.21174,0.71418 0.31761,0.65451 0.10586,-0.0597 0.21173,0.70642 0.3176,0.64591 0.10587,-0.0605 0.21173,0.69855 0.3176,0.63718 0.10587,-0.0614 0.21174,0.69055 0.31761,0.62834 0.10586,-0.0622 0.21173,0.68243 0.3176,0.61938 0.10587,-0.0631 0.21173,0.67418 0.3176,0.61028 0.10587,-0.0639 0.21174,0.66582 0.31761,0.60107 0.10586,-0.0648 0.21173,0.65734 0.3176,0.59174 0.10587,-0.0656 0.21173,0.64873 0.3176,0.58228 0.10587,-0.0665 0.21174,0.64 0.3176,0.5727 0.10587,-0.0673 0.21174,0.63115 0.31761,0.56301 0.10587,-0.0682 0.21173,0.62217 0.3176,0.55318 0.10587,-0.069 0.21174,0.61307 0.3176,0.54323 0.10587,-0.0698 0.21174,0.60386 0.31761,0.53317 0.10587,-0.0707 0.21173,0.59451 0.3176,0.52298 0.10587,-0.0715 0.21174,0.58505 0.3176,0.51267 0.10587,-0.0724 0.21174,0.57546 0.31761,0.50223 0.10586,-0.0732 0.21173,0.56576 0.3176,0.49168 0.10587,-0.0741 0.21174,0.55592 0.3176,0.481 0.10587,-0.0749 0.21174,0.54597 0.31761,0.4702 0.10586,-0.0758 0.21173,0.5359 0.3176,0.45927 0.10587,-0.0766 0.21174,0.52571 0.3176,0.44824 0.10587,-0.0775 0.21174,0.51538 0.31761,0.43706 0.10586,-0.0783 0.21173,0.50494 0.3176,0.42578 0.10587,-0.0792 0.21174,0.49437 0.3176,0.41436 0.10587,-0.08 0.21174,0.48369 0.31761,0.40283 0.10586,-0.0809 0.21173,0.47289 0.3176,0.39118 0.10587,-0.0817 0.21173,0.46195 0.3176,0.37939 0.10587,-0.0825 0.21174,0.45091 0.31761,0.3675 0.10586,-0.0834 0.21173,0.43973 0.3176,0.35547 0.10587,-0.0842 0.21173,0.42844 0.3176,0.34333 0.10587,-0.0851 0.21174,0.41702 0.31761,0.33107 0.10586,-0.0859 0.21173,0.40547 0.3176,0.31867 0.10587,-0.0868 0.21173,0.39381 0.3176,0.30616 0.10587,-0.0876 0.21174,0.38203 0.31761,0.29353 0.10586,-0.0885 0.21173,0.37012 0.3176,0.28078 0.10587,-0.0893 0.21173,0.35808 0.3176,0.26789 0.10587,-0.0902 0.21174,0.34593 0.3176,0.2549 0.10587,-0.091 0.21174,0.33365 0.31761,0.24177 0.10587,-0.0919 0.21173,0.32126 0.3176,0.22853 0.10587,-0.0927 0.21174,0.30874 0.3176,0.21516 0.10587,-0.0936 0.21174,0.2961 0.31761,0.20167 0.10587,-0.0944 0.21173,0.28334 0.3176,0.18806 0.10587,-0.0953 0.21174,0.27045 0.3176,0.17433 0.10587,-0.0961 0.21174,0.25744 0.31761,0.16047 0.10586,-0.097 0.21173,0.24432 0.3176,0.1465 0.10587,-0.0978 0.21174,0.23106 0.3176,0.13239 0.10587,-0.0987 0.21174,0.21769 0.31761,0.11817 0.10586,-0.0995 0.21173,0.2042 0.3176,0.10383 0.10587,-0.10036 0.21174,0.19057 0.3176,0.0894 0.10587,-0.10121 0.21174,0.17683 0.31761,0.0748 0.10586,-0.10206 0.21173,0.16296 0.3176,0.0601 0.10587,-0.10291 0.21174,0.14898 0.3176,0.0452 0.10587,-0.10376 0.21174,0.13487 0.31761,0.0303 0.10586,-0.1046 0.21173,0.12064 0.3176,0.0152 0.10587,-0.10545 0.21173,0.1063 0.3176,0 0.10587,-0.1063 0.21174,0.0918 0.31761,-0.0153 0.10586,-0.10714 0.21173,0.0772 0.3176,-0.0308 0.10587,-0.10799 0.21173,0.0625 0.3176,-0.0463 0.10587,-0.10884 0.21174,0.0477 0.31761,-0.062 0.10586,-0.10968 0.21173,0.0327 0.3176,-0.0778 0.10587,-0.11054 0.21173,0.0176 0.3176,-0.0938 0.10587,-0.11139 0.21174,0.002 0.3176,-0.10983 0.10587,-0.11223 0.21174,-0.0129 0.31761,-0.126 0.10587,-0.11308 0.21173,-0.0284 0.3176,-0.14231 0.10587,-0.11393 0.21174,-0.0439 0.3176,-0.15872 0.10587,-0.11478 0.21174,-0.0597 0.31761,-0.17527 0.10587,-0.11563 0.21173,-0.0755 0.3176,-0.19194 0.10587,-0.11647 0.21174,-0.0914 0.3176,-0.20873 0.10587,-0.11732 0.21174,-0.10747 0.31761,-0.22563 0.10587,-0.11817 0.21173,-0.12366 0.3176,-0.24267 0.10587,-0.11902 0.21174,-0.13996 0.3176,-0.25983 0.10587,-0.11986 0.21174,-0.15639 0.31761,-0.2771 0.10586,-0.12071 0.21173,-0.17294 0.3176,-0.2945 0.10587,-0.12156 0.21174,-0.18962 0.3176,-0.31202 0.10587,-0.12241 0.21174,-0.20642 0.31761,-0.32967 0.10586,-0.12325 0.21173,-0.22333 0.3176,-0.34743 0.10587,-0.12411 0.21174,-0.24038 0.3176,-0.36533 0.10587,-0.12495 0.21174,-0.25753 0.31761,-0.38333 0.10586,-0.1258 0.21173,-0.27482 0.3176,-0.40147 0.10587,-0.12664 0.21174,-0.29222 0.3176,-0.41972 0.10587,-0.12749 0.21174,-0.30976 0.31761,-0.4381 0.10586,-0.12834 0.21173,-0.32741 0.3176,-0.45659 0.10587,-0.12919 0.21173,-0.34519 0.3176,-0.47522 0.10587,-0.13004 0.21174,-0.36308 0.31761,-0.49397 0.10586,-0.13088 0.21173,-0.3811 0.3176,-0.51283 0.10587,-0.13173 0.21173,-0.39924 0.3176,-0.53182 0.10587,-0.13258 0.21174,-0.4175 0.31761,-0.55093 0.10586,-0.13343 0.21173,-0.43588 0.3176,-0.57016 0.10587,-0.13428 0.21173,-0.45439 0.3176,-0.58952 0.10587,-0.13512 0.21174,-0.47302 0.3176,-0.60899 0.10587,-0.13597 0.21174,-0.49178 0.31761,-0.6286 0.10587,-0.13682 0.21173,-0.51065 0.3176,-0.64831 0.10587,-0.13767 0.21174,-0.52965 0.3176,-0.66816 0.10587,-0.13852 0.21174,-0.54877 0.31761,-0.68813 0.10587,-0.13936 0.21173,-0.568 0.3176,-0.70821 0.10587,-0.14021 0.21174,-0.58737 0.3176,-0.72843 0.10587,-0.14106 0.21174,-0.60685 0.31761,-0.74875 0.10587,-0.14191 0.21173,-0.62646 0.3176,-0.76922 0.10587,-0.14275 0.21174,-0.64618 0.3176,-0.78979 0.10587,-0.1436 0.21174,-0.66604 0.31761,-0.81049 0.10586,-0.14445 0.21173,-0.68601 0.3176,-0.83131 0.10587,-0.14529 0.21174,-0.70611 0.3176,-0.85225 0.10587,-0.14615 0.21174,-0.72633 0.31761,-0.87332 0.10586,-0.14699 0.21173,-0.74667 0.3176,-0.89451 0.10587,-0.14784 0.21174,-0.76713 0.3176,-0.91582 0.10587,-0.14869 0.21174,-0.78771 0.31761,-0.93725 0.10586,-0.14954 0.21173,-0.80842 0.3176,-0.95881 0.10587,-0.15038 0.21174,-0.82925 0.3176,-0.98048 0.10587,-0.15123 0.21174,-0.8502 0.31761,-1.00228 0.10586,-0.15208 0.21173,-0.87128 0.3176,-1.02421 0.10587,-0.15293 0.21173,-0.89247 0.3176,-1.04625 0.10587,-0.15377 0.21174,-0.91379 0.31761,-1.06841 0.10586,-0.15462 0.21173,-0.93523 0.3176,-1.0907 0.10587,-0.15547 0.21173,-0.9568 0.3176,-1.11312 0.10587,-0.15632 0.21174,-0.97847 0.31761,-1.13564 0.10586,-0.15717 0.21173,-1.00029 0.3176,-1.1583 0.10587,-0.15802 0.21173,-1.02221 0.3176,-1.18108 0.10587,-0.15886 0.21174,-1.04426 0.3176,-1.20397 0.10587,-0.15971 0.21174,-1.06644 0.31761,-1.227 0.10587,-0.16056 0.21173,-1.08874 0.3176,-1.25014 0.10587,-0.16141 0.21174,-1.11115 0.3176,-1.27341 0.10587,-0.16225 0.21174,-1.13369 0.31761,-1.29679 0.10587,-0.16311 0.21173,-1.15636 0.3176,-1.32031 0.10587,-0.16395 0.21174,-1.17914 0.3176,-1.34394 0.10587,-0.16479 0.21174,-1.20204 0.31761,-1.36769 0.10587,-0.16564 0.21173,-1.22507 0.3176,-1.39157 0.10587,-0.16649 0.21174,-1.24822 0.3176,-1.41556 0.10587,-0.16735 0.21174,-1.2715 0.31761,-1.43969 0.10586,-0.16819 0.21173,-1.2949 0.3176,-1.46394 0.10587,-0.16903 0.21174,-1.31841 0.3176,-1.48829 0.10587,-0.16989 0.21174,-1.34206 0.31761,-1.51279 0.10586,-0.17073 0.21173,-1.36582 0.3176,-1.5374 0.10587,-0.17158 0.21174,-1.3897 0.3176,-1.56213 0.10587,-0.17242 0.21174,-1.4137 0.31761,-1.58698 0.10586,-0.17328 0.21173,-1.43784 0.3176,-1.61196 0.10587,-0.17412 0.21174,-1.46209 0.3176,-1.63706 0.10587,-0.17497 0.21174,-1.48646 0.31761,-1.66228 0.10586,-0.17582 0.21173,-1.51095 0.3176,-1.68762 0.10587,-0.17667 0.21173,-1.53558 0.3176,-1.71309 0.10587,-0.17752 0.21174,-1.56031 0.31761,-1.73868 0.10586,-0.17836 0.21173,-1.58517 0.3176,-1.76438 0.10587,-0.17922 0.21173,-1.61017 0.3176,-1.79022 0.10587,-0.18006 0.21174,-1.63527 0.31761,-1.81618 0.10586,-0.1809 0.21173,-1.66049 0.3176,-1.84225 0.10587,-0.18175 0.21173,-1.68584 0.3176,-1.86845 0.10587,-0.1826 0.21174,-1.71132 0.3176,-1.89477 0.10587,-0.18345 0.21174,-1.73691 0.31761,-1.92121 0.10587,-0.1843 0.21173,-1.76263 0.3176,-1.94778 0.10587,-0.18515 0.21174,-1.78847 0.3176,-1.97447 0.10587,-0.18599 0.21174,-1.81443 0.31761,-2.00127 0.10587,-0.18684 0.21173,-1.84052 0.3176,-2.02821 0.10587,-0.18769 0.21174,-1.86673 0.3176,-2.05526 0.10587,-0.18854 0.21174,-1.89306 0.31761,-2.08244 0.10587,-0.18939 0.21173,-1.91951 0.3176,-2.10974 0.10587,-0.19023 0.21174,-1.94608 0.3176,-2.13716 0.10587,-0.19108 0.21174,-1.97277 0.31761,-2.1647 0.10586,-0.19193 0.21173,-1.99959 0.3176,-2.19237 0.10587,-0.19278 0.21174,-2.02653 0.3176,-2.22016 0.10587,-0.19362 0.21174,-2.05359 0.31761,-2.24806 0.10586,-0.19447 0.21173,-2.08078 0.3176,-2.2761 0.10587,-0.19532 0.21174,-2.10808 0.3176,-2.30425 0.10587,-0.19617 0.21174,-2.13551 0.31761,-2.33253 0.10586,-0.19701 0.21173,-2.16306 0.3176,-2.36092 0.10587,-0.19787 0.21174,-2.19074 0.3176,-2.38945 0.10587,-0.19871 0.21174,-2.21853 0.31761,-2.41809 0.10586,-0.19956 0.21173,-2.24645 0.3176,-2.44686 0.10587,-0.2004 0.21173,-2.27449 0.3176,-2.47574 0.10587,-0.20125 0.21174,-2.30265 0.31761,-2.50475 0.10586,-0.20211 0.21173,-2.33094 0.3176,-2.53389 0.10587,-0.20295 0.21173,-2.359339 0.3176,-2.563129 0.10587,-0.2038 0.21174,-2.38787 0.31761,-2.59252 0.10586,-0.20465 0.21173,-2.41652 0.3176,-2.62201 0.10587,-0.2055 0.21173,-2.4453 0.3176,-2.65164 0.10587,-0.20634 0.21174,-2.47418 0.3176,-2.68137 0.10587,-0.20719 0.21174,-2.50321 0.31761,-2.71125 0.10587,-0.20803 0.21173,-2.53234 0.3176,-2.74123 0.10587,-0.20888 0.21174,-2.5616 0.3176,-2.77134 0.10587,-0.20973 0.21174,-2.59099 0.31761,-2.80157 0.10587,-0.21058 0.21173,-2.62049 0.3176,-2.83192 0.10587,-0.21143 0.21174,-2.65013 0.3176,-2.8624 0.10587,-0.21228 0.21174,-2.67988 0.31761,-2.893 0.10587,-0.21313 0.21173,-2.70975 0.3176,-2.92372 0.10587,-0.21398 0.21174,-2.73975 0.3176,-2.95457 0.10587,-0.21482 0.21174,-2.76986 0.31761,-2.98553 0.10586,-0.21566 0.21173,-2.8001 0.3176,-3.01661 0.10587,-0.21652 0.21174,-2.83046 0.3176,-3.04783 0.10587,-0.21736 0.21174,-2.86094 0.31761,-3.07915 0.10586,-0.21821 0.21173,-2.89155 0.3176,-3.11061 0.10587,-0.21906 0.21174,-2.92228 0.3176,-3.14219 0.10587,-0.21991 0.21174,-2.95313 0.31761,-3.17389 0.10586,-0.22075 0.21173,-2.9841 0.3176,-3.2057 0.10587,-0.2216 0.21173,-3.0152 0.3176,-3.23765 0.10587,-0.22245 0.21174,-3.04641 0.31761,-3.26971 0.10586,-0.2233 0.21173,-3.07776 0.3176,-3.3019 0.10587,-0.22415 0.21173,-3.10922 0.3176,-3.33421 0.10587,-0.225 0.21174,-3.1408 0.31761,-3.36664 0.10586,-0.22585 0.21173,-3.17251 0.3176,-3.3992 0.0731,-0.15664 0.1463,-1.62674 0.21946,-2.59543"
       id="path8033" />
    <path
       sodipodi:nodetypes="cc"
       id="dp_path003"
       d="m 1.5676542,152.56082 318.4996658,0"
       inkscape:connector-curvature="0"
       style="fill:none;stroke:#000000;stroke-width:1.50016522;stroke-miterlimit:4;stroke-dasharray:none;display:inline" />
    <path
       sodipodi:nodetypes="cc"
       id="dp_path003-1"
       d="m 122.19183,14.084881 0,238.502349"
       inkscape:connector-curvature="0"
       style="fill:none;stroke:#000000;stroke-width:1.49868047;stroke-miterlimit:4;stroke-dasharray:none;display:inline" />
    <path
       id="dp_path004"
       d="m 122.12616,14.042621 -5.601,5.854"
       inkscape:connector-curvature="0"
       style="fill:none;stroke:#000000;stroke-width:1.33333004;display:inline" />
    <path
       id="dp_path005"
       d="m 122.12516,14.048621 5.601,5.853"
       inkscape:connector-curvature="0"
       style="fill:none;stroke:#000000;stroke-width:1.33333004;display:inline" />
    <path
       id="dp_path006"
       d="m 320.17134,152.54359 -5.853,-5.601"
       inkscape:connector-curvature="0"
       style="fill:none;stroke:#000000;stroke-width:1.33333004;display:inline" />
    <path
       id="dp_path007"
       d="m 320.16934,152.54259 -5.854,5.60101"
       inkscape:connector-curvature="0"
       style="fill:none;stroke:#000000;stroke-width:1.33333004;display:inline" />
    <path
       id="dp_path010"
       d="m 308.47357,161.933 c -0.003,-0.103 -0.039,-0.167 -0.106,-0.189 -0.065,-0.023 -0.14,-0.031 -0.218,-0.028 -0.123,-0.01 -0.208,0.013 -0.252,0.054 -0.044,0.043 -0.091,0.148 -0.138,0.314 -0.306,0.92899 -0.696,1.61199 -1.166,2.052 -0.472,0.441 -0.943,0.66 -1.414,0.656 -0.23,0.013 -0.456,-0.078 -0.67,-0.272 -0.216,-0.194 -0.332,-0.564 -0.348,-1.11501 0.006,-0.272 0.054,-0.60899 0.14,-1.01299 0.089,-0.402 0.178,-0.794 0.273,-1.174 l 0.737,-2.965 c 0.148,-0.589 0.376,-1.116 0.684,-1.58 0.31,-0.465 0.716,-0.709 1.223,-0.737 0.047,-0.01 0.169,0.01 0.369,0.038 0.203,0.032 0.396,0.12 0.583,0.264 -0.415,0.14 -0.667,0.34 -0.757,0.603 -0.09,0.261 -0.126,0.408 -0.108,0.439 -0.004,0.15 0.052,0.302 0.168,0.45 0.114,0.15 0.312,0.231 0.589,0.242 0.215,0.01 0.44,-0.082 0.676,-0.258 0.236,-0.176 0.364,-0.473 0.384,-0.889 -0.011,-0.364 -0.128,-0.644 -0.348,-0.84 -0.221,-0.197 -0.477,-0.333 -0.768,-0.408 -0.291,-0.076 -0.547,-0.109 -0.767,-0.107 -0.397,0.01 -0.742,0.107 -1.032,0.287 -0.29,0.183 -0.529,0.387 -0.71,0.613 -0.183,0.228 -0.311,0.415 -0.383,0.563 -0.261,-0.628 -0.6,-1.033 -1.016,-1.217 -0.415,-0.184 -0.771,-0.264 -1.064,-0.246 -0.543,0.014 -1.023,0.163 -1.437,0.45 -0.415,0.286 -0.763,0.628 -1.046,1.025 -0.281,0.399 -0.494,0.772 -0.638,1.12 -0.144,0.348 -0.216,0.592 -0.216,0.728 0.006,0.105 0.046,0.168 0.121,0.189 0.075,0.024 0.141,0.034 0.203,0.028 0.132,0.01 0.218,-0.01 0.26,-0.054 0.04,-0.042 0.082,-0.146 0.129,-0.314 0.309,-0.926 0.704,-1.61 1.183,-2.05 0.482,-0.442 0.946,-0.659 1.397,-0.656 0.317,0 0.571,0.122 0.756,0.358 0.185,0.235 0.281,0.571 0.285,1.007 -0.008,0.276 -0.058,0.639 -0.156,1.085 -0.094,0.447 -0.196,0.878 -0.3,1.296 l -0.498,1.97 c -0.112,0.481 -0.248,0.962 -0.411,1.44 -0.163,0.477 -0.379,0.876 -0.645,1.198 -0.27,0.322 -0.619,0.49 -1.048,0.502 -0.044,0.01 -0.166,-0.01 -0.362,-0.038 -0.197,-0.033 -0.393,-0.121 -0.59,-0.266 0.32,-0.098 0.541,-0.254 0.665,-0.463 0.125,-0.211 0.184,-0.401 0.179,-0.576 -0.012,-0.276 -0.102,-0.461 -0.263,-0.557 -0.161,-0.098 -0.32,-0.143 -0.472,-0.135 -0.281,0 -0.531,0.108 -0.745,0.31499 -0.212,0.208 -0.327,0.49201 -0.338,0.85301 0.016,0.425 0.21,0.753 0.579,0.983 0.369,0.23 0.812,0.348 1.325,0.349 0.522,-0.02 0.959,-0.183 1.315,-0.487 0.355,-0.305 0.625,-0.629 0.811,-0.976 0.24,0.599 0.566,0.998 0.981,1.192 0.413,0.198 0.773,0.287 1.077,0.271 0.56,-0.012 1.047,-0.165 1.464,-0.457 0.419,-0.294 0.766,-0.639 1.043,-1.043 0.277,-0.403 0.485,-0.775 0.624,-1.121 0.139,-0.347 0.207,-0.58 0.207,-0.703 z"
       inkscape:connector-curvature="0"
       style="fill:#000000;fill-rule:evenodd;display:inline" />
    <path
       id="dp_path011"
       d="m 132.49118,32.329401 2.12,-8.523 c 0.014,-0.067 0.027,-0.124 0.042,-0.176 0.014,-0.053 0.024,-0.095 0.024,-0.127 0.001,-0.128 -0.046,-0.25 -0.142,-0.369 -0.094,-0.117 -0.25,-0.18 -0.464,-0.189 -0.316,0.021 -0.532,0.133 -0.649,0.333 -0.116,0.2 -0.18,0.353 -0.195,0.464 l -1.58,6.364 c -0.052,0.221 -0.178,0.481 -0.376,0.779 -0.2,0.297 -0.464,0.56 -0.788,0.788 -0.325,0.226 -0.7,0.348 -1.126,0.36 -0.474,-0.026 -0.788,-0.215 -0.947,-0.566 -0.159,-0.352 -0.231,-0.72 -0.22,-1.102 0.02,-0.683 0.16,-1.455 0.425,-2.312 0.263,-0.86 0.542,-1.671 0.828,-2.43 0.086,-0.221 0.155,-0.421 0.206,-0.6 0.048,-0.178 0.073,-0.368 0.073,-0.568 -0.009,-0.546 -0.165,-0.972 -0.471,-1.278 -0.304,-0.304 -0.693,-0.462 -1.168,-0.466 -0.501,0.018 -0.926,0.183 -1.278,0.502 -0.354,0.317 -0.638,0.689 -0.856,1.113 -0.22,0.423 -0.379,0.801 -0.48,1.135 -0.1,0.334 -0.151,0.525 -0.15,0.573 0.006,0.105 0.047,0.168 0.122,0.192 0.073,0.021 0.142,0.031 0.204,0.027 0.133,0 0.221,-0.016 0.266,-0.06 0.044,-0.044 0.084,-0.14 0.123,-0.288 0.055,-0.243 0.161,-0.579 0.319,-1.004 0.157,-0.426 0.373,-0.814 0.649,-1.166 0.277,-0.35 0.624,-0.536 1.039,-0.558 0.121,-0.01 0.232,0.025 0.328,0.102 0.093,0.078 0.144,0.255 0.149,0.527 -0.004,0.255 -0.052,0.539 -0.148,0.851 -0.096,0.314 -0.22,0.678 -0.373,1.097 -0.292,0.769 -0.548,1.524 -0.77,2.268 -0.222,0.743 -0.34,1.4 -0.35,1.976 0.028,0.928 0.284,1.58 0.77,1.956 0.484,0.376 1.035,0.559 1.646,0.544 0.497,-0.015 0.91,-0.112 1.238,-0.291 0.328,-0.176 0.564,-0.344 0.706,-0.498 -0.282,1.178 -0.626,2.098 -1.032,2.758 -0.407,0.662 -0.827,1.123 -1.262,1.386 -0.436,0.264 -0.836,0.389 -1.206,0.381 -0.34,-0.011 -0.61,-0.084 -0.806,-0.219 -0.194,-0.137 -0.333,-0.277 -0.414,-0.425 -0.08,-0.148 -0.119,-0.245 -0.116,-0.291 -0.003,-0.001 0.008,-0.01 0.029,-0.025 0.021,-0.013 0.071,-0.028 0.144,-0.039 0.331,-0.07 0.571,-0.213 0.715,-0.433 0.144,-0.219 0.216,-0.421 0.212,-0.609 -0.006,-0.23 -0.079,-0.403 -0.22,-0.519 -0.143,-0.117 -0.312,-0.176 -0.512,-0.177 -0.16,-0.015 -0.376,0.06 -0.647,0.225 -0.272,0.164 -0.424,0.541 -0.453,1.127 0.012,0.568 0.208,1.018 0.59,1.346 0.38,0.328 0.874,0.498 1.48,0.504 0.758,-0.014 1.462,-0.233 2.115,-0.654 0.652,-0.423 1.209,-0.963 1.671,-1.623 0.461,-0.663 0.786,-1.356 0.973,-2.083 z"
       inkscape:connector-curvature="0"
       style="fill:#000000;fill-rule:evenodd;display:inline" />
    <g
       transform="matrix(0.85387384,0,0,1.1711332,0.81748415,0.9928172)"
       style="font-size:12px;font-style:normal;font-variant:normal;font-weight:normal;font-stretch:normal;text-align:start;line-height:125%;letter-spacing:0px;word-spacing:0px;writing-mode:lr-tb;text-anchor:start;fill:#000000;fill-opacity:1;stroke:none;display:inline;font-family:Calibri;-inkscape-font-specification:Calibri"
       id="text13887-5">
      <path
         inkscape:connector-curvature="0"
         d="m 234.55038,140.12173 c 0,0.0703 -0.005,0.13282 -0.0146,0.1875 -0.01,0.0547 -0.0234,0.10059 -0.041,0.1377 -0.0176,0.0371 -0.041,0.0644 -0.0703,0.082 -0.0293,0.0176 -0.0615,0.0264 -0.0967,0.0264 l -4.18945,0 c -0.0547,0 -0.10254,-0.007 -0.14356,-0.0205 -0.041,-0.0137 -0.0762,-0.0361 -0.10547,-0.0674 -0.0293,-0.0312 -0.0508,-0.0762 -0.0644,-0.13477 -0.0137,-0.0586 -0.0205,-0.13086 -0.0205,-0.21679 0,-0.0781 0.003,-0.14649 0.009,-0.20508 0.006,-0.0586 0.0185,-0.11035 0.0381,-0.15528 0.0195,-0.0449 0.0439,-0.0898 0.0732,-0.13476 0.0293,-0.0449 0.0674,-0.0928 0.11426,-0.14356 l 1.4707,-1.55859 c 0.33984,-0.35937 0.6123,-0.68164 0.81738,-0.9668 0.20508,-0.28515 0.36328,-0.54491 0.47461,-0.77929 0.11133,-0.23437 0.18457,-0.44726 0.21973,-0.63868 0.0352,-0.1914 0.0527,-0.37108 0.0527,-0.53906 0,-0.16796 -0.0274,-0.32714 -0.082,-0.47754 -0.0547,-0.15038 -0.13379,-0.28222 -0.2373,-0.39551 -0.10352,-0.11327 -0.23341,-0.20311 -0.38965,-0.26953 -0.15626,-0.0664 -0.33594,-0.0996 -0.53906,-0.0996 -0.23829,1e-5 -0.45216,0.0332 -0.64161,0.0996 -0.18945,0.0664 -0.35547,0.13868 -0.49804,0.2168 -0.14258,0.0781 -0.26172,0.1504 -0.35743,0.2168 -0.0957,0.0664 -0.16699,0.0996 -0.21386,0.0996 -0.0273,0 -0.0518,-0.008 -0.0732,-0.0234 -0.0215,-0.0156 -0.0391,-0.041 -0.0527,-0.0762 -0.0137,-0.0351 -0.0244,-0.082 -0.0322,-0.14063 -0.008,-0.0586 -0.0117,-0.1289 -0.0117,-0.21094 -1e-5,-0.0586 0.002,-0.10936 0.006,-0.15234 0.004,-0.043 0.0107,-0.0801 0.0205,-0.11133 0.01,-0.0312 0.0225,-0.0605 0.0381,-0.0879 0.0156,-0.0273 0.0469,-0.0615 0.0937,-0.10254 0.0469,-0.041 0.12793,-0.0967 0.24316,-0.16699 0.11524,-0.0703 0.25977,-0.13964 0.4336,-0.20801 0.17382,-0.0684 0.36523,-0.12597 0.57422,-0.17285 0.20898,-0.0469 0.4287,-0.0703 0.65918,-0.0703 0.36718,1e-5 0.68847,0.0518 0.96386,0.15527 0.27539,0.10353 0.5039,0.24513 0.68555,0.42481 0.18164,0.17969 0.31738,0.38868 0.40723,0.62695 0.0898,0.23829 0.13476,0.49219 0.13476,0.76172 0,0.24219 -0.0215,0.4834 -0.0644,0.72363 -0.043,0.24024 -0.1338,0.50001 -0.27246,0.7793 -0.13868,0.2793 -0.33887,0.58985 -0.60059,0.93164 -0.26172,0.3418 -0.60938,0.73535 -1.04297,1.18066 l -1.20117,1.25391 3.29883,0 c 0.0312,0 0.0615,0.009 0.0908,0.0264 0.0293,0.0176 0.0547,0.0439 0.0762,0.0791 0.0215,0.0352 0.0371,0.0791 0.0469,0.13183 0.01,0.0527 0.0146,0.11426 0.0146,0.18457 z"
         id="path8370" />
    </g>
    <g
       transform="matrix(0.85387384,0,0,1.1711332,0.81748415,0.9928172)"
       style="font-size:12px;font-style:normal;font-variant:normal;font-weight:normal;font-stretch:normal;text-align:start;line-height:125%;letter-spacing:0px;word-spacing:0px;writing-mode:lr-tb;text-anchor:start;fill:#000000;fill-opacity:1;stroke:none;display:inline;font-family:Calibri;-inkscape-font-specification:Calibri"
       id="text9940">
      <path
         inkscape:connector-curvature="0"
         d="m 280.81717,138.30695 c -10e-6,0.34765 -0.0605,0.66113 -0.18164,0.94043 -0.1211,0.27929 -0.29493,0.51855 -0.52149,0.71777 -0.22656,0.19922 -0.50586,0.35254 -0.83789,0.45996 -0.33203,0.10742 -0.70703,0.16113 -1.125,0.16113 -0.25391,0 -0.49121,-0.0205 -0.71191,-0.0615 -0.22071,-0.041 -0.41699,-0.0898 -0.58887,-0.14649 -0.17187,-0.0566 -0.31445,-0.11523 -0.42773,-0.17578 -0.11328,-0.0605 -0.18457,-0.10449 -0.21387,-0.13183 -0.0293,-0.0273 -0.0518,-0.0547 -0.0674,-0.082 -0.0156,-0.0273 -0.0293,-0.0605 -0.041,-0.0996 -0.0117,-0.0391 -0.0205,-0.0869 -0.0264,-0.14356 -0.006,-0.0566 -0.009,-0.12597 -0.009,-0.20801 0,-0.14062 0.0137,-0.23828 0.041,-0.29296 0.0273,-0.0547 0.0664,-0.082 0.11719,-0.082 0.0352,1e-5 0.10449,0.0313 0.20801,0.0937 0.10351,0.0625 0.23632,0.12989 0.39843,0.20215 0.16211,0.0723 0.35157,0.13965 0.56836,0.20215 0.2168,0.0625 0.45801,0.0937 0.72364,0.0937 0.25781,0 0.48437,-0.0332 0.67968,-0.0996 0.19531,-0.0664 0.35938,-0.16015 0.49219,-0.28125 0.13281,-0.12109 0.23242,-0.26465 0.29883,-0.43066 0.0664,-0.16602 0.0996,-0.34668 0.0996,-0.54199 -10e-6,-0.21485 -0.042,-0.4082 -0.12598,-0.58008 -0.084,-0.17187 -0.20703,-0.32031 -0.36914,-0.44531 -0.16211,-0.125 -0.36133,-0.2207 -0.59765,-0.28711 -0.23634,-0.0664 -0.50489,-0.0996 -0.80567,-0.0996 l -0.7207,0 c -0.0312,0 -0.0615,-0.007 -0.0908,-0.0205 -0.0293,-0.0137 -0.0547,-0.0361 -0.0762,-0.0674 -0.0215,-0.0312 -0.0391,-0.0723 -0.0527,-0.12305 -0.0137,-0.0508 -0.0205,-0.11718 -0.0205,-0.19922 0,-0.0742 0.006,-0.13574 0.0176,-0.18457 0.0117,-0.0488 0.0283,-0.0879 0.0498,-0.11719 0.0215,-0.0293 0.0459,-0.0508 0.0732,-0.0644 0.0273,-0.0137 0.0586,-0.0205 0.0937,-0.0205 l 0.66211,0 c 0.25781,1e-5 0.48925,-0.0332 0.69433,-0.0996 0.20508,-0.0664 0.37891,-0.1621 0.52149,-0.28711 0.14257,-0.12499 0.25195,-0.27441 0.32812,-0.44824 0.0762,-0.17382 0.11426,-0.36816 0.11426,-0.58301 0,-0.15624 -0.0254,-0.30566 -0.0762,-0.44824 -0.0508,-0.14257 -0.12696,-0.26659 -0.22852,-0.37207 -0.10156,-0.10546 -0.23144,-0.18847 -0.38964,-0.24902 -0.15821,-0.0605 -0.34083,-0.0908 -0.54786,-0.0908 -0.22656,0 -0.43457,0.0342 -0.62402,0.10254 -0.18945,0.0684 -0.3584,0.1416 -0.50684,0.21972 -0.14843,0.0781 -0.27148,0.15138 -0.36914,0.21973 -0.0976,0.0684 -0.16601,0.10254 -0.20507,0.10254 -0.0274,0 -0.0518,-0.005 -0.0733,-0.0146 -0.0215,-0.01 -0.0391,-0.0293 -0.0527,-0.0586 -0.0137,-0.0293 -0.0234,-0.0703 -0.0293,-0.12305 -0.006,-0.0527 -0.009,-0.12207 -0.009,-0.20801 0,-0.0586 0.002,-0.11034 0.006,-0.15527 0.004,-0.0449 0.0117,-0.084 0.0234,-0.11719 0.0117,-0.0332 0.0254,-0.0635 0.041,-0.0908 0.0156,-0.0273 0.042,-0.0596 0.0791,-0.0967 0.0371,-0.0371 0.1123,-0.0908 0.22558,-0.16113 0.11328,-0.0703 0.25293,-0.13964 0.41895,-0.20801 0.16601,-0.0684 0.35742,-0.12597 0.57422,-0.17285 0.21679,-0.0469 0.45019,-0.0703 0.70019,-0.0703 0.35156,0 0.66016,0.0449 0.92578,0.13476 0.26563,0.0898 0.4873,0.21681 0.66504,0.38086 0.17773,0.16407 0.31055,0.36036 0.39844,0.58887 0.0879,0.22852 0.13183,0.48145 0.13184,0.75879 -1e-5,0.23828 -0.0313,0.45996 -0.0937,0.66504 -0.0625,0.20508 -0.1543,0.38672 -0.27539,0.54492 -0.1211,0.1582 -0.26954,0.29297 -0.44532,0.40429 -0.17578,0.11134 -0.37891,0.18848 -0.60937,0.23145 l 0,0.0117 c 0.26171,0.0273 0.50097,0.0928 0.71777,0.19629 0.21679,0.10352 0.40332,0.2334 0.55957,0.38965 0.15625,0.15625 0.27832,0.33887 0.36621,0.54785 0.0879,0.20898 0.13183,0.43262 0.13184,0.6709 z"
         id="path8367" />
    </g>
    <g
       transform="matrix(0.85387384,0,0,1.1711332,0.81748415,0.9928172)"
       style="font-size:12px;font-style:normal;font-variant:normal;font-weight:normal;font-stretch:normal;text-align:start;line-height:125%;letter-spacing:0px;word-spacing:0px;writing-mode:lr-tb;text-anchor:start;fill:#000000;fill-opacity:1;stroke:none;display:inline;font-family:Calibri;-inkscape-font-specification:Calibri"
       id="text9944">
      <path
         inkscape:connector-curvature="0"
         d="m 188.05096,140.12389 c 0,0.0742 -0.006,0.13672 -0.0176,0.1875 -0.0117,0.0508 -0.0273,0.0918 -0.0469,0.12304 -0.0195,0.0312 -0.042,0.0537 -0.0674,0.0674 -0.0254,0.0137 -0.0518,0.0205 -0.0791,0.0205 l -3.96094,0 c -0.0273,0 -0.0527,-0.007 -0.0762,-0.0205 -0.0234,-0.0137 -0.0459,-0.0361 -0.0674,-0.0674 -0.0215,-0.0312 -0.0381,-0.0723 -0.0498,-0.12304 -0.0117,-0.0508 -0.0176,-0.11328 -0.0176,-0.1875 0,-0.0703 0.006,-0.13086 0.0176,-0.18164 0.0117,-0.0508 0.0264,-0.0928 0.0439,-0.12598 0.0176,-0.0332 0.0391,-0.0586 0.0644,-0.0762 0.0254,-0.0176 0.0537,-0.0264 0.085,-0.0264 l 1.58203,0 0,-5.76563 -1.46484,0.87305 c -0.0742,0.0391 -0.13379,0.0625 -0.17871,0.0703 -0.0449,0.008 -0.0811,-9.7e-4 -0.1084,-0.0264 -0.0274,-0.0254 -0.0459,-0.0674 -0.0557,-0.12598 -0.01,-0.0586 -0.0147,-0.13281 -0.0147,-0.22266 0,-0.0664 0.003,-0.12304 0.009,-0.16992 0.006,-0.0469 0.0147,-0.0859 0.0264,-0.11719 0.0117,-0.0312 0.0283,-0.0586 0.0498,-0.082 0.0215,-0.0234 0.0498,-0.0469 0.085,-0.0703 l 1.74609,-1.11914 c 0.0156,-0.0117 0.0352,-0.0215 0.0586,-0.0293 0.0234,-0.008 0.0527,-0.0156 0.0879,-0.0234 0.0352,-0.008 0.0762,-0.0127 0.12305,-0.0146 0.0469,-0.002 0.10547,-0.003 0.17578,-0.003 0.0937,1e-5 0.17187,0.004 0.23438,0.0117 0.0625,0.008 0.11132,0.0186 0.14648,0.0322 0.0351,0.0137 0.0586,0.0313 0.0703,0.0527 0.0117,0.0215 0.0176,0.0439 0.0176,0.0674 l 0,6.66211 1.3711,0 c 0.0312,0 0.0605,0.009 0.0879,0.0264 0.0273,0.0176 0.0498,0.043 0.0674,0.0762 0.0176,0.0332 0.0312,0.0752 0.041,0.12598 0.01,0.0508 0.0146,0.11132 0.0146,0.18164 z"
         id="path8364" />
    </g>
    <g
       transform="matrix(0.85387384,0,0,1.1711332,0.81748415,0.9928172)"
       style="font-size:12px;font-style:normal;font-variant:normal;font-weight:normal;font-stretch:normal;text-align:start;line-height:125%;letter-spacing:0px;word-spacing:0px;writing-mode:lr-tb;text-anchor:start;fill:#000000;fill-opacity:1;stroke:none;display:inline;font-family:Calibri;-inkscape-font-specification:Calibri"
       id="text4522">
      <path
         inkscape:connector-curvature="0"
         d="m 91.749634,137.15851 c -6e-6,0.14844 -0.01856,0.25684 -0.05566,0.32519 -0.03712,0.0684 -0.09278,0.10255 -0.166992,0.10254 l -5.63086,0 c -0.07422,1e-5 -0.128906,-0.0342 -0.164062,-0.10254 -0.03516,-0.0684 -0.05273,-0.17675 -0.05273,-0.32519 0,-0.14453 0.01758,-0.25097 0.05273,-0.31934 0.03516,-0.0684 0.08984,-0.10253 0.164062,-0.10254 l 5.63086,0 c 0.03515,1e-5 0.06738,0.009 0.09668,0.0264 0.02929,0.0176 0.05273,0.043 0.07031,0.0762 0.01757,0.0332 0.03124,0.0762 0.04102,0.12891 0.0098,0.0527 0.01464,0.11621 0.01465,0.19043 z"
         id="path8359" />
      <path
         inkscape:connector-curvature="0"
         d="m 97.146118,140.07648 c -5e-6,0.0742 -0.0059,0.13672 -0.01758,0.1875 -0.01172,0.0508 -0.02735,0.0918 -0.04687,0.12304 -0.01954,0.0312 -0.042,0.0537 -0.06738,0.0674 -0.0254,0.0137 -0.05176,0.0205 -0.0791,0.0205 l -3.960938,0 c -0.02734,0 -0.05273,-0.007 -0.07617,-0.0205 -0.02344,-0.0137 -0.0459,-0.0361 -0.06738,-0.0674 -0.02148,-0.0312 -0.03809,-0.0723 -0.0498,-0.12304 -0.01172,-0.0508 -0.01758,-0.11328 -0.01758,-0.1875 -10e-7,-0.0703 0.0059,-0.13086 0.01758,-0.18164 0.01172,-0.0508 0.02637,-0.0928 0.04394,-0.12598 0.01758,-0.0332 0.03906,-0.0586 0.06445,-0.0762 0.02539,-0.0176 0.05371,-0.0264 0.08496,-0.0264 l 1.582031,0 0,-5.76562 -1.464843,0.87304 c -0.07422,0.0391 -0.133791,0.0625 -0.178711,0.0703 -0.04492,0.008 -0.08106,-9.8e-4 -0.108399,-0.0264 -0.02734,-0.0254 -0.0459,-0.0674 -0.05566,-0.12598 -0.0098,-0.0586 -0.01465,-0.13281 -0.01465,-0.22265 -1e-6,-0.0664 0.0029,-0.12305 0.0088,-0.16993 0.0059,-0.0469 0.01465,-0.0859 0.02637,-0.11718 0.01172,-0.0312 0.02832,-0.0586 0.0498,-0.082 0.02148,-0.0234 0.0498,-0.0469 0.08496,-0.0703 l 1.746093,-1.11914 c 0.01562,-0.0117 0.03515,-0.0215 0.05859,-0.0293 0.02343,-0.008 0.05273,-0.0156 0.08789,-0.0234 0.03515,-0.008 0.07617,-0.0127 0.123047,-0.0147 0.04687,-0.002 0.105465,-0.003 0.175781,-0.003 0.09375,1e-5 0.171871,0.004 0.234375,0.0117 0.0625,0.008 0.111324,0.0186 0.146484,0.0322 0.03515,0.0137 0.05859,0.0313 0.07031,0.0527 0.01171,0.0215 0.01757,0.044 0.01758,0.0674 l 0,6.66211 1.371094,0 c 0.03124,0 0.06054,0.009 0.08789,0.0264 0.02734,0.0176 0.0498,0.043 0.06738,0.0762 0.01757,0.0332 0.03125,0.0752 0.04102,0.12598 0.0098,0.0508 0.01464,0.11133 0.01465,0.18164 z"
         id="path8361" />
    </g>
    <g
       transform="matrix(0.85387384,0,0,1.1711332,0.81748415,0.9928172)"
       style="font-size:12px;font-style:normal;font-variant:normal;font-weight:normal;font-stretch:normal;text-align:start;line-height:125%;letter-spacing:0px;word-spacing:0px;writing-mode:lr-tb;text-anchor:start;fill:#000000;fill-opacity:1;stroke:none;display:inline;font-family:Calibri;-inkscape-font-specification:Calibri"
       id="text6581">
      <path
         inkscape:connector-curvature="0"
         d="m 330.38538,138.31866 c -10e-6,0.12891 -0.0195,0.23048 -0.0586,0.30469 -0.0391,0.0742 -0.0937,0.11133 -0.16406,0.11133 l -0.85547,0 0,1.59375 c 0,0.0312 -0.008,0.0576 -0.0234,0.0791 -0.0156,0.0215 -0.043,0.04 -0.082,0.0557 -0.0391,0.0156 -0.0899,0.0273 -0.15234,0.0351 -0.0625,0.008 -0.14258,0.0117 -0.24024,0.0117 -0.0937,0 -0.17187,-0.004 -0.23437,-0.0117 -0.0625,-0.008 -0.11231,-0.0195 -0.14941,-0.0351 -0.0371,-0.0156 -0.0625,-0.0342 -0.0762,-0.0557 -0.0137,-0.0215 -0.0205,-0.0479 -0.0205,-0.0791 l 0,-1.59375 -3.12891,0 c -0.0469,0 -0.0859,-0.006 -0.11719,-0.0176 -0.0312,-0.0117 -0.0596,-0.0332 -0.085,-0.0644 -0.0254,-0.0312 -0.043,-0.0762 -0.0527,-0.13477 -0.01,-0.0586 -0.0147,-0.13476 -0.0147,-0.22851 0,-0.0742 0.002,-0.14062 0.006,-0.19922 0.004,-0.0586 0.0117,-0.1123 0.0234,-0.16113 0.0117,-0.0488 0.0274,-0.0957 0.0469,-0.14063 0.0195,-0.0449 0.043,-0.0928 0.0703,-0.14355 l 2.73047,-4.60547 c 0.0195,-0.0312 0.0478,-0.0586 0.085,-0.082 0.0371,-0.0234 0.085,-0.043 0.14356,-0.0586 0.0586,-0.0156 0.13085,-0.0264 0.21679,-0.0322 0.0859,-0.006 0.1875,-0.009 0.30469,-0.009 0.1289,0 0.24121,0.005 0.33692,0.0146 0.0957,0.01 0.17284,0.0225 0.23144,0.0381 0.0586,0.0156 0.10351,0.0361 0.13477,0.0615 0.0312,0.0254 0.0469,0.0557 0.0469,0.0908 l 0,4.83984 0.85547,0 c 0.0664,0 0.12011,0.0342 0.16113,0.10254 0.041,0.0684 0.0615,0.17285 0.0615,0.31347 z m -2.05664,-4.57617 -0.0117,0 -2.4668,4.16016 2.47852,0 z"
         id="path8356" />
    </g>
    <g
       transform="matrix(0.85387384,0,0,1.1711332,0.81748415,0.9928172)"
       style="font-size:12px;font-style:normal;font-variant:normal;font-weight:normal;font-stretch:normal;text-align:start;line-height:125%;letter-spacing:0px;word-spacing:0px;writing-mode:lr-tb;text-anchor:start;fill:#000000;fill-opacity:1;stroke:none;display:inline;font-family:Calibri;-inkscape-font-specification:Calibri"
       id="text6585">
      <path
         inkscape:connector-curvature="0"
         d="m 44.904282,137.15851 c -6e-6,0.14844 -0.01856,0.25684 -0.05566,0.32519 -0.03712,0.0684 -0.09278,0.10255 -0.166993,0.10254 l -5.630859,0 c -0.07422,1e-5 -0.128906,-0.0342 -0.164063,-0.10254 -0.03516,-0.0684 -0.05273,-0.17675 -0.05273,-0.32519 0,-0.14453 0.01758,-0.25097 0.05273,-0.31934 0.03516,-0.0684 0.08984,-0.10253 0.164063,-0.10254 l 5.630859,0 c 0.03515,1e-5 0.06738,0.009 0.09668,0.0264 0.02929,0.0176 0.05273,0.043 0.07031,0.0762 0.01757,0.0332 0.03124,0.0762 0.04102,0.12891 0.0098,0.0527 0.01464,0.11621 0.01465,0.19043 z"
         id="path8351" />
      <path
         inkscape:connector-curvature="0"
         d="m 50.283188,140.04132 c -6e-6,0.0703 -0.0049,0.13281 -0.01465,0.1875 -0.0098,0.0547 -0.02344,0.10059 -0.04101,0.1377 -0.01758,0.0371 -0.04102,0.0644 -0.07031,0.082 -0.0293,0.0176 -0.06153,0.0264 -0.09668,0.0264 l -4.189454,0 c -0.05469,0 -0.102539,-0.007 -0.143554,-0.0205 -0.04102,-0.0137 -0.07617,-0.0361 -0.105469,-0.0674 -0.0293,-0.0312 -0.05078,-0.0762 -0.06445,-0.13476 -0.01367,-0.0586 -0.02051,-0.13086 -0.02051,-0.2168 -10e-7,-0.0781 0.0029,-0.14648 0.0088,-0.20508 0.0059,-0.0586 0.01855,-0.11035 0.03809,-0.15527 0.01953,-0.0449 0.04394,-0.0898 0.07324,-0.13477 0.0293,-0.0449 0.06738,-0.0928 0.114258,-0.14355 l 1.470703,-1.55859 c 0.339841,-0.35938 0.612302,-0.68164 0.817383,-0.9668 0.205075,-0.28515 0.363278,-0.54492 0.474609,-0.7793 0.111325,-0.23437 0.184567,-0.44726 0.219727,-0.63867 0.03515,-0.1914 0.05273,-0.37109 0.05273,-0.53906 -4e-6,-0.16797 -0.02735,-0.32714 -0.08203,-0.47754 -0.05469,-0.15039 -0.133793,-0.28222 -0.237305,-0.39551 -0.103519,-0.11327 -0.233401,-0.20312 -0.389648,-0.26953 -0.156253,-0.0664 -0.33594,-0.0996 -0.539063,-0.0996 -0.238283,1e-5 -0.45215,0.0332 -0.641601,0.0996 -0.189455,0.0664 -0.355471,0.13868 -0.498047,0.2168 -0.142579,0.0781 -0.26172,0.15039 -0.357422,0.21679 -0.0957,0.0664 -0.166993,0.0996 -0.213867,0.0996 -0.02735,1e-5 -0.05176,-0.008 -0.07324,-0.0234 -0.02149,-0.0156 -0.03906,-0.041 -0.05274,-0.0762 -0.01367,-0.0351 -0.02441,-0.082 -0.03223,-0.14062 -0.0078,-0.0586 -0.01172,-0.1289 -0.01172,-0.21094 -1e-6,-0.0586 0.002,-0.10937 0.0059,-0.15234 0.0039,-0.043 0.01074,-0.0801 0.02051,-0.11133 0.0098,-0.0312 0.02246,-0.0605 0.03809,-0.0879 0.01562,-0.0273 0.04687,-0.0615 0.09375,-0.10254 0.04687,-0.041 0.127929,-0.0967 0.243164,-0.16699 0.115233,-0.0703 0.259764,-0.13964 0.433594,-0.20801 0.173826,-0.0684 0.365232,-0.12597 0.574219,-0.17285 0.208982,-0.0469 0.428708,-0.0703 0.659179,-0.0703 0.367185,0 0.688473,0.0518 0.963868,0.15527 0.275386,0.10352 0.503902,0.24512 0.685547,0.4248 0.181635,0.1797 0.317378,0.38868 0.407226,0.62696 0.08984,0.23828 0.134761,0.49219 0.134766,0.76172 -5e-6,0.24219 -0.02149,0.4834 -0.06445,0.72363 -0.04297,0.24024 -0.133794,0.5 -0.272461,0.77929 -0.138677,0.27931 -0.338872,0.58985 -0.600586,0.93165 -0.261723,0.3418 -0.609379,0.73535 -1.042969,1.18066 l -1.201172,1.25391 3.298828,0 c 0.03125,0 0.06152,0.009 0.09082,0.0264 0.02929,0.0176 0.05468,0.0439 0.07617,0.0791 0.02148,0.0352 0.0371,0.0791 0.04687,0.13184 0.0098,0.0527 0.01464,0.11426 0.01465,0.18457 z"
         id="path8353" />
    </g>
    <g
       transform="matrix(0.85387384,0,0,1.1711332,0.81748415,0.9928172)"
       style="font-size:12px;font-style:normal;font-variant:normal;font-weight:normal;font-stretch:normal;text-align:start;line-height:125%;letter-spacing:0px;word-spacing:0px;writing-mode:lr-tb;text-anchor:start;fill:#000000;fill-opacity:1;stroke:none;display:inline;font-family:Calibri;-inkscape-font-specification:Calibri"
       id="text13879">
      <path
         inkscape:connector-curvature="0"
         d="m 137.09961,29.793982 c -1e-5,0.347658 -0.0606,0.661134 -0.18164,0.940429 -0.1211,0.279298 -0.29493,0.518556 -0.52149,0.717774 -0.22656,0.199219 -0.50586,0.352539 -0.83789,0.459961 -0.33203,0.107421 -0.70703,0.161132 -1.125,0.161132 -0.2539,0 -0.49121,-0.02051 -0.71191,-0.06152 -0.22071,-0.04102 -0.41699,-0.08984 -0.58887,-0.146484 -0.17187,-0.05664 -0.31445,-0.115235 -0.42773,-0.175782 -0.11328,-0.06055 -0.18457,-0.104491 -0.21387,-0.131836 -0.0293,-0.02734 -0.0518,-0.05469 -0.0674,-0.08203 -0.0156,-0.02734 -0.0293,-0.06055 -0.041,-0.09961 -0.0117,-0.03906 -0.0205,-0.08691 -0.0264,-0.143555 -0.006,-0.05664 -0.009,-0.125976 -0.009,-0.208008 0,-0.140624 0.0137,-0.23828 0.041,-0.292968 0.0273,-0.05469 0.0664,-0.08203 0.11719,-0.08203 0.0351,2e-6 0.10449,0.03125 0.20801,0.09375 0.10351,0.0625 0.23632,0.129884 0.39843,0.202149 0.16211,0.07227 0.35157,0.139649 0.56836,0.202148 0.2168,0.0625 0.45801,0.09375 0.72364,0.09375 0.25781,1e-6 0.48437,-0.0332 0.67968,-0.09961 0.19531,-0.06641 0.35938,-0.160155 0.49219,-0.28125 0.13281,-0.121093 0.23242,-0.264647 0.29883,-0.430664 0.0664,-0.166014 0.0996,-0.346678 0.0996,-0.541992 0,-0.214842 -0.042,-0.408201 -0.12598,-0.580079 -0.084,-0.171872 -0.20703,-0.320309 -0.36914,-0.445312 -0.16211,-0.124997 -0.36133,-0.2207 -0.59765,-0.287109 -0.23634,-0.0664 -0.50489,-0.09961 -0.80567,-0.09961 l -0.7207,0 c -0.0312,4e-6 -0.0615,-0.0068 -0.0908,-0.02051 -0.0293,-0.01367 -0.0547,-0.03613 -0.0762,-0.06738 -0.0215,-0.03125 -0.0391,-0.07226 -0.0527,-0.123047 -0.0137,-0.05078 -0.0205,-0.117184 -0.0205,-0.199219 0,-0.07422 0.006,-0.135738 0.0176,-0.18457 0.0117,-0.04882 0.0283,-0.08789 0.0498,-0.117188 0.0215,-0.02929 0.0459,-0.05078 0.0732,-0.06445 0.0273,-0.01367 0.0586,-0.0205 0.0937,-0.02051 l 0.66211,0 c 0.25781,4e-6 0.48925,-0.0332 0.69433,-0.09961 0.20508,-0.0664 0.37891,-0.162105 0.52149,-0.28711 0.14257,-0.124995 0.25195,-0.274409 0.32812,-0.448242 0.0762,-0.173823 0.11426,-0.368158 0.11426,-0.583008 0,-0.156244 -0.0254,-0.305658 -0.0762,-0.448242 -0.0508,-0.142572 -0.12696,-0.266595 -0.22852,-0.37207 -0.10156,-0.105462 -0.23144,-0.18847 -0.38964,-0.249024 -0.15821,-0.06054 -0.34083,-0.09081 -0.54786,-0.09082 -0.22656,7e-6 -0.43457,0.03419 -0.62402,0.102539 -0.18945,0.06837 -0.3584,0.141608 -0.50684,0.219727 -0.14843,0.07813 -0.27148,0.151373 -0.36914,0.219726 -0.0976,0.06837 -0.16601,0.102546 -0.20507,0.102539 -0.0273,7e-6 -0.0518,-0.0049 -0.0733,-0.01465 -0.0215,-0.0098 -0.0391,-0.02929 -0.0527,-0.05859 -0.0137,-0.02929 -0.0234,-0.07031 -0.0293,-0.123047 -0.006,-0.05273 -0.009,-0.122063 -0.009,-0.208007 0,-0.05859 0.002,-0.110345 0.006,-0.155274 0.004,-0.04491 0.0117,-0.08398 0.0234,-0.117187 0.0117,-0.0332 0.0254,-0.06347 0.041,-0.09082 0.0156,-0.02734 0.042,-0.05956 0.0791,-0.09668 0.0371,-0.0371 0.1123,-0.09081 0.22558,-0.161133 0.11328,-0.07031 0.25293,-0.139641 0.41895,-0.208008 0.16601,-0.06835 0.35742,-0.125969 0.57422,-0.172852 0.21679,-0.04687 0.45019,-0.0703 0.70019,-0.07031 0.35156,8e-6 0.66016,0.04493 0.92578,0.134766 0.26563,0.08985 0.4873,0.216804 0.66504,0.380859 0.17773,0.164069 0.31055,0.360358 0.39844,0.588867 0.0879,0.228522 0.13183,0.481452 0.13184,0.758789 -1e-5,0.238287 -0.0313,0.459966 -0.0937,0.665039 -0.0625,0.205083 -0.1543,0.386724 -0.27539,0.544922 -0.1211,0.158208 -0.26954,0.292973 -0.44532,0.404297 -0.17578,0.111332 -0.37891,0.188481 -0.60937,0.231445 l 0,0.01172 c 0.26171,0.02735 0.50097,0.09278 0.71777,0.196289 0.21679,0.103519 0.40332,0.233402 0.55957,0.389649 0.15625,0.156253 0.27832,0.33887 0.36621,0.547851 0.0879,0.208987 0.13183,0.43262 0.13184,0.670899 z"
         id="path8348" />
    </g>
    <g
       transform="matrix(0.85387384,0,0,1.1711332,0.81748415,0.9928172)"
       style="font-size:12px;font-style:normal;font-variant:normal;font-weight:normal;font-stretch:normal;text-align:start;line-height:125%;letter-spacing:0px;word-spacing:0px;writing-mode:lr-tb;text-anchor:start;fill:#000000;fill-opacity:1;stroke:none;display:inline;font-family:Calibri;-inkscape-font-specification:Calibri"
       id="text13887">
      <path
         inkscape:connector-curvature="0"
         d="m 137.09375,65.683327 c -1e-5,0.07031 -0.005,0.132813 -0.0146,0.1875 -0.01,0.05469 -0.0234,0.100586 -0.041,0.137695 -0.0176,0.03711 -0.041,0.06445 -0.0703,0.08203 -0.0293,0.01758 -0.0615,0.02637 -0.0967,0.02637 l -4.18945,0 c -0.0547,0 -0.10254,-0.0068 -0.14355,-0.02051 -0.041,-0.01367 -0.0762,-0.03613 -0.10547,-0.06738 -0.0293,-0.03125 -0.0508,-0.07617 -0.0645,-0.134766 -0.0137,-0.05859 -0.0205,-0.130859 -0.0205,-0.216797 0,-0.07812 0.003,-0.146483 0.009,-0.205078 0.006,-0.05859 0.0186,-0.110351 0.0381,-0.155273 0.0195,-0.04492 0.0439,-0.08984 0.0732,-0.134766 0.0293,-0.04492 0.0674,-0.09277 0.11426,-0.143555 l 1.4707,-1.558593 c 0.33985,-0.359372 0.61231,-0.681638 0.81739,-0.966797 0.20507,-0.285153 0.36327,-0.544918 0.47461,-0.779297 0.11132,-0.23437 0.18456,-0.447261 0.21972,-0.638672 0.0352,-0.191401 0.0527,-0.371088 0.0527,-0.539062 -1e-5,-0.167963 -0.0273,-0.327143 -0.082,-0.477539 -0.0547,-0.150385 -0.1338,-0.282221 -0.23731,-0.395508 -0.10352,-0.113275 -0.2334,-0.203119 -0.38965,-0.269532 -0.15625,-0.0664 -0.33594,-0.0996 -0.53906,-0.09961 -0.23828,7e-6 -0.45215,0.03321 -0.6416,0.09961 -0.18946,0.06641 -0.35547,0.138679 -0.49805,0.216797 -0.14258,0.07813 -0.26172,0.150397 -0.35742,0.216797 -0.0957,0.06641 -0.16699,0.09962 -0.21387,0.09961 -0.0273,6e-6 -0.0518,-0.0078 -0.0732,-0.02344 -0.0215,-0.01562 -0.0391,-0.04101 -0.0527,-0.07617 -0.0137,-0.03515 -0.0244,-0.08203 -0.0322,-0.140625 -0.008,-0.05859 -0.0117,-0.128899 -0.0117,-0.210937 0,-0.05859 0.002,-0.109369 0.006,-0.152344 0.004,-0.04296 0.0107,-0.08007 0.0205,-0.111328 0.01,-0.03124 0.0225,-0.06054 0.0381,-0.08789 0.0156,-0.02734 0.0469,-0.06152 0.0937,-0.102539 0.0469,-0.04101 0.12793,-0.09667 0.24317,-0.166992 0.11523,-0.0703 0.25976,-0.139641 0.43359,-0.208008 0.17383,-0.06835 0.36523,-0.125969 0.57422,-0.172851 0.20898,-0.04687 0.42871,-0.0703 0.65918,-0.07031 0.36718,8e-6 0.68847,0.05177 0.96387,0.155274 0.27538,0.103523 0.5039,0.245124 0.68554,0.424804 0.18164,0.179695 0.31738,0.388679 0.40723,0.626953 0.0898,0.238288 0.13476,0.492194 0.13477,0.761719 -1e-5,0.242193 -0.0215,0.483404 -0.0645,0.723633 -0.043,0.240239 -0.13379,0.500004 -0.27246,0.779297 -0.13867,0.279301 -0.33887,0.589847 -0.60058,0.93164 -0.26173,0.3418 -0.60938,0.735355 -1.04297,1.180664 l -1.20117,1.253907 3.29882,0 c 0.0312,10e-7 0.0615,0.0088 0.0908,0.02637 0.0293,0.01758 0.0547,0.04395 0.0762,0.0791 0.0215,0.03516 0.0371,0.0791 0.0469,0.131836 0.01,0.05273 0.0146,0.114259 0.0146,0.184571 z"
         id="path8345" />
    </g>
    <g
       transform="matrix(0.85387384,0,0,1.1711332,0.81748415,0.9928172)"
       style="font-size:12px;font-style:normal;font-variant:normal;font-weight:normal;font-stretch:normal;text-align:start;line-height:125%;letter-spacing:0px;word-spacing:0px;writing-mode:lr-tb;text-anchor:start;fill:#000000;fill-opacity:1;stroke:none;display:inline;font-family:Calibri;-inkscape-font-specification:Calibri"
       id="text13891">
      <path
         inkscape:connector-curvature="0"
         d="m 136.75977,98.165718 c -1e-5,0.07422 -0.006,0.136719 -0.0176,0.1875 -0.0117,0.05078 -0.0273,0.0918 -0.0469,0.123047 -0.0195,0.03125 -0.042,0.05371 -0.0674,0.06738 -0.0254,0.01367 -0.0518,0.02051 -0.0791,0.02051 l -3.96094,0 c -0.0273,0 -0.0527,-0.0068 -0.0762,-0.02051 -0.0234,-0.01367 -0.0459,-0.03613 -0.0674,-0.06738 -0.0215,-0.03125 -0.0381,-0.07227 -0.0498,-0.123047 -0.0117,-0.05078 -0.0176,-0.113281 -0.0176,-0.1875 0,-0.07031 0.006,-0.130859 0.0176,-0.181641 0.0117,-0.05078 0.0264,-0.09277 0.0439,-0.125976 0.0176,-0.0332 0.0391,-0.05859 0.0644,-0.07617 0.0254,-0.01758 0.0537,-0.02637 0.085,-0.02637 l 1.58203,0 0,-5.765625 -1.46484,0.873047 c -0.0742,0.03907 -0.13379,0.06251 -0.17871,0.07031 -0.0449,0.0078 -0.0811,-9.71e-4 -0.1084,-0.02637 -0.0273,-0.02538 -0.0459,-0.06738 -0.0557,-0.125977 -0.01,-0.05859 -0.0146,-0.132806 -0.0146,-0.222656 0,-0.0664 0.003,-0.123041 0.009,-0.169922 0.006,-0.04687 0.0146,-0.08593 0.0264,-0.117187 0.0117,-0.03124 0.0283,-0.05859 0.0498,-0.08203 0.0215,-0.02343 0.0498,-0.04687 0.085,-0.07031 L 134.2638,90.9997 c 0.0156,-0.01171 0.0352,-0.02148 0.0586,-0.0293 0.0234,-0.0078 0.0527,-0.01562 0.0879,-0.02344 0.0352,-0.0078 0.0762,-0.01269 0.12304,-0.01465 0.0469,-0.0019 0.10547,-0.0029 0.17578,-0.0029 0.0937,8e-6 0.17188,0.0039 0.23438,0.01172 0.0625,0.0078 0.11132,0.01856 0.14648,0.03223 0.0352,0.01368 0.0586,0.03126 0.0703,0.05273 0.0117,0.02149 0.0176,0.04395 0.0176,0.06738 l 0,6.66211 1.3711,0 c 0.0312,1e-6 0.0605,0.0088 0.0879,0.02637 0.0273,0.01758 0.0498,0.04297 0.0674,0.07617 0.0176,0.0332 0.0312,0.0752 0.041,0.125976 0.01,0.05078 0.0146,0.111329 0.0147,0.181641 z"
         id="path8342" />
    </g>
    <g
       transform="matrix(0.85387384,0,0,1.1711332,0.81748415,0.9928172)"
       style="font-size:12px;font-style:normal;font-variant:normal;font-weight:normal;font-stretch:normal;text-align:start;line-height:125%;letter-spacing:0px;word-spacing:0px;writing-mode:lr-tb;text-anchor:start;fill:#000000;fill-opacity:1;stroke:none;display:inline;font-family:Calibri;-inkscape-font-specification:Calibri"
       id="text13895">
      <path
         inkscape:connector-curvature="0"
         d="m 133.73342,165.26541 c 0,0.14844 -0.0186,0.25684 -0.0557,0.3252 -0.0371,0.0684 -0.0928,0.10254 -0.16699,0.10254 l -5.63086,0 c -0.0742,0 -0.12891,-0.0342 -0.16407,-0.10254 -0.0352,-0.0684 -0.0527,-0.17676 -0.0527,-0.3252 0,-0.14453 0.0176,-0.25097 0.0527,-0.31933 0.0352,-0.0684 0.0898,-0.10254 0.16407,-0.10254 l 5.63086,0 c 0.0351,0 0.0674,0.009 0.0967,0.0264 0.0293,0.0176 0.0527,0.043 0.0703,0.0762 0.0176,0.0332 0.0312,0.0762 0.041,0.1289 0.01,0.0527 0.0146,0.11622 0.0146,0.19043 z"
         id="path8337" />
      <path
         inkscape:connector-curvature="0"
         d="m 139.12991,168.18338 c -1e-5,0.0742 -0.006,0.13672 -0.0176,0.1875 -0.0117,0.0508 -0.0273,0.0918 -0.0469,0.12305 -0.0195,0.0312 -0.042,0.0537 -0.0674,0.0674 -0.0254,0.0137 -0.0518,0.0205 -0.0791,0.0205 l -3.96094,0 c -0.0273,0 -0.0527,-0.007 -0.0762,-0.0205 -0.0234,-0.0137 -0.0459,-0.0361 -0.0674,-0.0674 -0.0215,-0.0312 -0.0381,-0.0723 -0.0498,-0.12305 -0.0117,-0.0508 -0.0176,-0.11328 -0.0176,-0.1875 0,-0.0703 0.006,-0.13086 0.0176,-0.18164 0.0117,-0.0508 0.0264,-0.0928 0.0439,-0.12598 0.0176,-0.0332 0.0391,-0.0586 0.0645,-0.0762 0.0254,-0.0176 0.0537,-0.0264 0.085,-0.0264 l 1.58203,0 0,-5.76562 -1.46484,0.87305 c -0.0742,0.0391 -0.13379,0.0625 -0.17871,0.0703 -0.0449,0.008 -0.0811,-9.7e-4 -0.1084,-0.0264 -0.0273,-0.0254 -0.0459,-0.0674 -0.0557,-0.12598 -0.01,-0.0586 -0.0146,-0.1328 -0.0146,-0.22265 0,-0.0664 0.003,-0.12304 0.009,-0.16992 0.006,-0.0469 0.0146,-0.0859 0.0264,-0.11719 0.0117,-0.0312 0.0283,-0.0586 0.0498,-0.082 0.0215,-0.0234 0.0498,-0.0469 0.085,-0.0703 l 1.74609,-1.11915 c 0.0156,-0.0117 0.0352,-0.0215 0.0586,-0.0293 0.0234,-0.008 0.0527,-0.0156 0.0879,-0.0234 0.0351,-0.008 0.0762,-0.0127 0.12304,-0.0146 0.0469,-0.002 0.10547,-0.003 0.17578,-0.003 0.0937,1e-5 0.17188,0.004 0.23438,0.0117 0.0625,0.008 0.11132,0.0186 0.14648,0.0322 0.0352,0.0137 0.0586,0.0312 0.0703,0.0527 0.0117,0.0215 0.0176,0.0439 0.0176,0.0674 l 0,6.66211 1.3711,0 c 0.0312,0 0.0605,0.009 0.0879,0.0264 0.0273,0.0176 0.0498,0.043 0.0674,0.0762 0.0176,0.0332 0.0312,0.0752 0.041,0.12598 0.01,0.0508 0.0146,0.11133 0.0146,0.18164 z"
         id="path8339" />
    </g>
    <g
       transform="matrix(0.85387384,0,0,1.1711332,0.81748415,0.9928172)"
       style="font-size:12px;font-style:normal;font-variant:normal;font-weight:normal;font-stretch:normal;text-align:start;line-height:125%;letter-spacing:0px;word-spacing:0px;writing-mode:lr-tb;text-anchor:start;fill:#000000;fill-opacity:1;stroke:none;display:inline;font-family:Calibri;-inkscape-font-specification:Calibri"
       id="text7989">
      <path
         inkscape:connector-curvature="0"
         d="m 133.73342,199.42038 c 0,0.14844 -0.0186,0.25684 -0.0557,0.32519 -0.0371,0.0684 -0.0928,0.10255 -0.16699,0.10254 l -5.63086,0 c -0.0742,1e-5 -0.12891,-0.0342 -0.16407,-0.10254 -0.0352,-0.0683 -0.0527,-0.17675 -0.0527,-0.32519 0,-0.14453 0.0176,-0.25097 0.0527,-0.31934 0.0352,-0.0684 0.0898,-0.10253 0.16407,-0.10254 l 5.63086,0 c 0.0351,1e-5 0.0674,0.009 0.0967,0.0264 0.0293,0.0176 0.0527,0.043 0.0703,0.0762 0.0176,0.0332 0.0312,0.0762 0.041,0.12891 0.01,0.0527 0.0146,0.11621 0.0146,0.19043 z"
         id="path8332" />
      <path
         inkscape:connector-curvature="0"
         d="m 139.11233,202.30319 c -10e-6,0.0703 -0.005,0.13281 -0.0146,0.1875 -0.01,0.0547 -0.0234,0.10059 -0.041,0.1377 -0.0176,0.0371 -0.041,0.0644 -0.0703,0.082 -0.0293,0.0176 -0.0615,0.0264 -0.0967,0.0264 l -4.18945,0 c -0.0547,0 -0.10254,-0.007 -0.14356,-0.0205 -0.041,-0.0137 -0.0762,-0.0361 -0.10547,-0.0674 -0.0293,-0.0312 -0.0508,-0.0762 -0.0644,-0.13477 -0.0137,-0.0586 -0.0205,-0.13086 -0.0205,-0.2168 0,-0.0781 0.003,-0.14648 0.009,-0.20508 0.006,-0.0586 0.0186,-0.11035 0.0381,-0.15527 0.0195,-0.0449 0.0439,-0.0898 0.0732,-0.13476 0.0293,-0.0449 0.0674,-0.0928 0.11426,-0.14356 l 1.4707,-1.55859 c 0.33984,-0.35937 0.6123,-0.68164 0.81738,-0.9668 0.20508,-0.28515 0.36328,-0.54492 0.47461,-0.7793 0.11133,-0.23437 0.18457,-0.44726 0.21973,-0.63867 0.0351,-0.1914 0.0527,-0.37109 0.0527,-0.53906 -1e-5,-0.16796 -0.0274,-0.32714 -0.082,-0.47754 -0.0547,-0.15038 -0.13379,-0.28222 -0.2373,-0.39551 -0.10352,-0.11327 -0.2334,-0.20312 -0.38965,-0.26953 -0.15625,-0.0664 -0.33594,-0.0996 -0.53906,-0.0996 -0.23829,10e-6 -0.45215,0.0332 -0.6416,0.0996 -0.18946,0.0664 -0.35547,0.13868 -0.49805,0.2168 -0.14258,0.0781 -0.26172,0.15039 -0.35742,0.21679 -0.0957,0.0664 -0.167,0.0996 -0.21387,0.0996 -0.0273,10e-6 -0.0518,-0.008 -0.0732,-0.0234 -0.0215,-0.0156 -0.0391,-0.041 -0.0527,-0.0762 -0.0137,-0.0352 -0.0244,-0.082 -0.0322,-0.14062 -0.008,-0.0586 -0.0117,-0.1289 -0.0117,-0.21094 0,-0.0586 0.002,-0.10937 0.006,-0.15234 0.004,-0.043 0.0107,-0.0801 0.0205,-0.11133 0.01,-0.0312 0.0225,-0.0605 0.0381,-0.0879 0.0156,-0.0273 0.0469,-0.0615 0.0937,-0.10254 0.0469,-0.041 0.12793,-0.0967 0.24317,-0.16699 0.11523,-0.0703 0.25976,-0.13964 0.43359,-0.20801 0.17383,-0.0683 0.36523,-0.12597 0.57422,-0.17285 0.20898,-0.0469 0.42871,-0.0703 0.65918,-0.0703 0.36718,0 0.68847,0.0518 0.96387,0.15527 0.27538,0.10352 0.5039,0.24512 0.68554,0.4248 0.18164,0.1797 0.31738,0.38868 0.40723,0.62696 0.0898,0.23829 0.13476,0.49219 0.13476,0.76172 0,0.24219 -0.0215,0.4834 -0.0644,0.72363 -0.043,0.24024 -0.13379,0.5 -0.27246,0.7793 -0.13868,0.2793 -0.33887,0.58984 -0.60059,0.93164 -0.26172,0.3418 -0.60937,0.73535 -1.04296,1.18066 l -1.20118,1.25391 3.29883,0 c 0.0312,0 0.0615,0.009 0.0908,0.0264 0.0293,0.0176 0.0547,0.0439 0.0762,0.0791 0.0215,0.0351 0.0371,0.0791 0.0469,0.13183 0.01,0.0527 0.0146,0.11426 0.0146,0.18457 z"
         id="path8334" />
    </g>
    <g
       transform="translate(0.81748415,0.9928172)"
       style="font-size:20px;font-style:normal;font-weight:normal;line-height:125%;letter-spacing:0px;word-spacing:0px;fill:#808000;fill-opacity:1;stroke:none;font-family:Sans"
       id="text3074">
      <path
         inkscape:connector-curvature="0"
         d="m 218.92409,53.075848 c -1e-5,0.07162 -0.007,0.144865 -0.0195,0.219726 -0.013,0.07488 -0.0358,0.144866 -0.0684,0.209961 -0.21486,0.592456 -0.44923,1.209317 -0.70313,1.850586 -0.25391,0.641282 -0.55014,1.311855 -0.88867,2.011719 -0.33855,0.699874 -0.73406,1.430667 -1.18652,2.192383 -0.45248,0.76172 -0.99122,1.562501 -1.61621,2.402343 l -2.5293,3.447266 c -0.0391,0.05208 -0.0879,0.09765 -0.14649,0.136719 -0.0586,0.03906 -0.13021,0.07324 -0.21484,0.102539 -0.0846,0.02929 -0.18718,0.05045 -0.30762,0.06348 -0.12044,0.01302 -0.26204,0.01953 -0.4248,0.01953 -0.17578,-4e-6 -0.32064,-0.0081 -0.43457,-0.02441 -0.11393,-0.01628 -0.2002,-0.04395 -0.25879,-0.08301 -0.0586,-0.03907 -0.0846,-0.09115 -0.0781,-0.15625 0.007,-0.06511 0.0456,-0.143233 0.11719,-0.234375 l 2.38281,-3.056641 -1.45507,-8.583984 c -0.013,-0.07812 -0.0228,-0.149731 -0.0293,-0.214844 -0.007,-0.06509 -0.01,-0.120434 -0.01,-0.166016 0,-0.07161 0.0114,-0.131826 0.0342,-0.180664 0.0228,-0.04882 0.0667,-0.08788 0.13184,-0.117187 0.0651,-0.02929 0.15137,-0.04882 0.25879,-0.05859 0.10742,-0.0098 0.23925,-0.01464 0.39551,-0.01465 0.17578,9e-6 0.31412,0.0049 0.41504,0.01465 0.1009,0.0098 0.17903,0.02605 0.23437,0.04883 0.0553,0.0228 0.0944,0.05698 0.11719,0.102539 0.0228,0.04558 0.0374,0.100921 0.0439,0.166016 l 1.14258,7.167969 0.0195,0 c 0.40364,-0.566404 0.76823,-1.142576 1.09375,-1.728516 0.32552,-0.585933 0.625,-1.180008 0.89844,-1.782227 0.27343,-0.602207 0.52571,-1.210931 0.75684,-1.826171 0.23111,-0.615227 0.44758,-1.238599 0.64941,-1.870118 0.013,-0.05207 0.0374,-0.09602 0.0732,-0.131836 0.0358,-0.0358 0.0879,-0.06672 0.15625,-0.09277 0.0683,-0.02603 0.16113,-0.04394 0.27832,-0.05371 0.11718,-0.0098 0.26367,-0.01464 0.43946,-0.01465 0.29296,9e-6 0.48827,0.01954 0.58593,0.05859 0.0976,0.03907 0.14648,0.09767 0.14649,0.175782 z"
         style="font-style:oblique;font-variant:normal;font-stretch:normal;fill:#808000;font-family:Calibri;-inkscape-font-specification:Calibri Oblique"
         id="path8317" />
      <path
         inkscape:connector-curvature="0"
         d="m 227.67409,58.11491 c -1e-5,0.03907 -0.003,0.09115 -0.01,0.15625 -0.007,0.06511 -0.0179,0.136723 -0.0342,0.214844 -0.0163,0.07813 -0.0374,0.154626 -0.0635,0.229492 -0.026,0.07487 -0.0602,0.143233 -0.10254,0.205078 -0.0423,0.06185 -0.0912,0.112308 -0.14649,0.151367 -0.0553,0.03907 -0.11557,0.0586 -0.18066,0.05859 l -7.36328,0 c -0.0846,3e-6 -0.153,-0.02929 -0.20508,-0.08789 -0.0521,-0.05859 -0.0781,-0.152992 -0.0781,-0.283204 0,-0.07161 0.01,-0.164384 0.0293,-0.27832 0.0195,-0.113928 0.0505,-0.224605 0.0928,-0.332031 0.0423,-0.107418 0.0977,-0.200191 0.16602,-0.27832 0.0684,-0.07812 0.15462,-0.117184 0.25879,-0.117188 l 7.37305,0 c 0.0911,4e-6 0.15786,0.03256 0.20019,0.09766 0.0423,0.06511 0.0635,0.152999 0.0635,0.263672 z m 0.76172,-3.798828 c -1e-5,0.04558 -0.003,0.100919 -0.01,0.166016 -0.007,0.06511 -0.0179,0.133471 -0.0342,0.205078 -0.0163,0.07162 -0.0374,0.146491 -0.0635,0.224609 -0.026,0.07813 -0.0602,0.148119 -0.10253,0.209961 -0.0423,0.06186 -0.0912,0.113939 -0.14649,0.15625 -0.0554,0.04232 -0.11882,0.06348 -0.19043,0.06348 l -7.36328,0 c -0.0781,6e-6 -0.14323,-0.02929 -0.19531,-0.08789 -0.0521,-0.05859 -0.0781,-0.156243 -0.0781,-0.292969 0,-0.07161 0.01,-0.162753 0.0293,-0.273437 0.0195,-0.11067 0.0505,-0.219719 0.0928,-0.327149 0.0423,-0.107414 0.0977,-0.200187 0.16602,-0.27832 0.0684,-0.07812 0.15462,-0.117179 0.25879,-0.117187 l 7.37304,0 c 0.0911,8e-6 0.15787,0.03093 0.2002,0.09277 0.0423,0.06186 0.0635,0.14812 0.0635,0.258789 z"
         style="font-style:oblique;font-variant:normal;font-stretch:normal;fill:#808000;font-family:Calibri;-inkscape-font-specification:Calibri Oblique"
         id="path8319" />
      <path
         inkscape:connector-curvature="0"
         d="m 234.17799,57.450848 1.91407,4.296875 c 0.0391,0.09115 0.0537,0.167643 0.0439,0.229492 -0.01,0.06185 -0.0505,0.112305 -0.12207,0.151367 -0.0716,0.03906 -0.1709,0.06673 -0.29785,0.08301 -0.12696,0.01628 -0.29135,0.02441 -0.49316,0.02441 -0.1823,0 -0.32553,-0.0049 -0.42969,-0.01465 -0.10417,-0.0098 -0.18555,-0.02604 -0.24414,-0.04883 -0.0586,-0.02279 -0.0977,-0.05208 -0.11719,-0.08789 -0.0195,-0.03581 -0.0391,-0.0765 -0.0586,-0.122071 l -1.46485,-3.466796 -2.76367,3.466796 c -0.0391,0.04557 -0.0797,0.08626 -0.12207,0.122071 -0.0423,0.03581 -0.10254,0.06348 -0.18066,0.08301 -0.0781,0.01953 -0.17741,0.03581 -0.29786,0.04883 -0.12044,0.01302 -0.27832,0.01953 -0.47363,0.01953 -0.1888,0 -0.34179,-0.0081 -0.45898,-0.02441 -0.11719,-0.01628 -0.20345,-0.04395 -0.25879,-0.08301 -0.0553,-0.03906 -0.0781,-0.08789 -0.0684,-0.146484 0.01,-0.05859 0.0472,-0.133464 0.1123,-0.22461 l 3.65235,-4.335937 -1.80664,-4.101563 c -0.0391,-0.09114 -0.0553,-0.167634 -0.0488,-0.229492 0.007,-0.06184 0.0407,-0.112295 0.10254,-0.151367 0.0619,-0.03905 0.15462,-0.06509 0.27832,-0.07813 0.12369,-0.01301 0.28645,-0.01952 0.48828,-0.01953 0.18229,9e-6 0.32552,0.0049 0.42969,0.01465 0.10416,0.0098 0.18391,0.02442 0.23925,0.04395 0.0553,0.01954 0.0944,0.04558 0.11719,0.07813 0.0228,0.03256 0.0439,0.07162 0.0635,0.117188 l 1.39648,3.28125 2.63672,-3.28125 c 0.0391,-0.03905 0.0781,-0.07486 0.11719,-0.107422 0.0391,-0.03254 0.0944,-0.06021 0.16602,-0.08301 0.0716,-0.02278 0.16112,-0.03905 0.26855,-0.04883 0.10741,-0.0098 0.24902,-0.01464 0.4248,-0.01465 0.19531,9e-6 0.35481,0.0065 0.47852,0.01953 0.12369,0.01303 0.21483,0.03582 0.27344,0.06836 0.0586,0.03256 0.083,0.07976 0.0732,0.141602 -0.01,0.06186 -0.057,0.138355 -0.1416,0.229492 z"
         style="font-style:oblique;font-variant:normal;font-stretch:normal;fill:#808000;font-family:Calibri;-inkscape-font-specification:Calibri Oblique"
         id="path8321" />
      <path
         inkscape:connector-curvature="0"
         d="m 245.44362,52.841807 c -1e-5,0.521487 -0.0908,0.991701 -0.27246,1.410644 -0.18165,0.418947 -0.44239,0.777834 -0.78223,1.076661 -0.33985,0.298828 -0.75879,0.528808 -1.25683,0.689941 -0.49806,0.161133 -1.06056,0.241699 -1.6875,0.241699 -0.38087,0 -0.73682,-0.03076 -1.06788,-0.09228 -0.33105,-0.06152 -0.62549,-0.134766 -0.8833,-0.219727 -0.25781,-0.08496 -0.47168,-0.172851 -0.6416,-0.263671 -0.16992,-0.09082 -0.27685,-0.156738 -0.3208,-0.197754 -0.044,-0.04102 -0.0776,-0.08203 -0.10107,-0.123047 -0.0234,-0.04102 -0.0439,-0.09082 -0.0615,-0.149414 -0.0176,-0.05859 -0.0308,-0.13037 -0.0395,-0.215332 -0.009,-0.08496 -0.0132,-0.188964 -0.0132,-0.312012 0,-0.210936 0.0205,-0.35742 0.0615,-0.439453 0.041,-0.08203 0.0996,-0.123045 0.17578,-0.123047 0.0527,2e-6 0.15674,0.04688 0.31202,0.140625 0.15527,0.09375 0.35449,0.194826 0.59765,0.303223 0.24316,0.1084 0.52734,0.209474 0.85254,0.303222 0.32519,0.09375 0.68701,0.140626 1.08545,0.140625 0.38671,1e-6 0.72656,-0.0498 1.01953,-0.149414 0.29296,-0.09961 0.53906,-0.240233 0.73828,-0.421875 0.19922,-0.181639 0.34863,-0.39697 0.44824,-0.645996 0.0996,-0.249021 0.14941,-0.520017 0.14942,-0.812988 -1e-5,-0.322262 -0.063,-0.612301 -0.18897,-0.870117 -0.12598,-0.257809 -0.31055,-0.480465 -0.55371,-0.667969 -0.24317,-0.187495 -0.54199,-0.33105 -0.89648,-0.430664 -0.3545,-0.0996 -0.75733,-0.149409 -1.2085,-0.149414 l -1.08105,0 c -0.0469,5e-6 -0.0923,-0.01025 -0.13623,-0.03076 -0.0439,-0.0205 -0.082,-0.05419 -0.11426,-0.101074 -0.0322,-0.04687 -0.0586,-0.108393 -0.0791,-0.18457 -0.0205,-0.07617 -0.0308,-0.175776 -0.0308,-0.298829 -1e-5,-0.111322 0.009,-0.203607 0.0264,-0.276855 0.0176,-0.07324 0.0425,-0.13183 0.0747,-0.175781 0.0322,-0.04394 0.0688,-0.07617 0.10986,-0.09668 0.041,-0.0205 0.0879,-0.03075 0.14063,-0.03076 l 0.99316,0 c 0.38672,7e-6 0.73389,-0.0498 1.04151,-0.149414 0.30761,-0.0996 0.56835,-0.243157 0.78222,-0.430664 0.21387,-0.187493 0.37793,-0.411613 0.49219,-0.672363 0.11425,-0.260734 0.17138,-0.552238 0.17139,-0.874512 -10e-6,-0.234366 -0.0381,-0.458487 -0.11426,-0.672363 -0.0762,-0.213858 -0.19044,-0.399893 -0.34277,-0.558106 -0.15235,-0.158193 -0.34718,-0.282704 -0.58448,-0.373535 -0.23731,-0.09081 -0.51123,-0.13622 -0.82177,-0.13623 -0.33985,10e-6 -0.65186,0.05128 -0.93604,0.153808 -0.28418,0.10255 -0.5376,0.212413 -0.76025,0.32959 -0.22266,0.117197 -0.40723,0.227061 -0.55371,0.32959 -0.14649,0.102549 -0.24903,0.153818 -0.30762,0.153809 -0.041,9e-6 -0.0776,-0.0073 -0.10986,-0.02197 -0.0322,-0.01464 -0.0586,-0.04394 -0.0791,-0.08789 -0.0205,-0.04393 -0.0352,-0.105459 -0.0439,-0.18457 -0.009,-0.07909 -0.0132,-0.183096 -0.0132,-0.312012 -1e-5,-0.08788 0.003,-0.165517 0.009,-0.23291 0.006,-0.06737 0.0176,-0.125966 0.0352,-0.175781 0.0176,-0.04979 0.0381,-0.0952 0.0615,-0.13623 0.0234,-0.04101 0.063,-0.08935 0.11866,-0.14502 0.0557,-0.05565 0.16845,-0.13622 0.33838,-0.241699 0.16992,-0.105458 0.37939,-0.209462 0.62841,-0.312012 0.24902,-0.102528 0.53613,-0.188953 0.86133,-0.259277 0.32519,-0.0703 0.67529,-0.105458 1.05029,-0.105469 0.52734,1.1e-5 0.99023,0.06739 1.38868,0.202148 0.39843,0.134777 0.73095,0.325207 0.99755,0.571289 0.2666,0.246105 0.46582,0.540538 0.59766,0.883301 0.13183,0.342783 0.19775,0.722177 0.19776,1.138184 -1e-5,0.35743 -0.0469,0.689949 -0.14063,0.997558 -0.0938,0.307625 -0.23145,0.580086 -0.41309,0.817383 -0.18164,0.237312 -0.4043,0.43946 -0.66796,0.606446 -0.26368,0.166998 -0.56837,0.28272 -0.91407,0.347168 l 0,0.01758 c 0.39258,0.04102 0.75146,0.139166 1.07666,0.294433 0.32519,0.155279 0.60498,0.350103 0.83936,0.584473 0.23437,0.23438 0.41747,0.508305 0.54931,0.821777 0.13183,0.313481 0.19775,0.64893 0.19776,1.006348 z"
         style="font-size:18px;font-style:normal;-inkscape-font-specification:Calibri"
         id="path8323" />
      <path
         inkscape:connector-curvature="0"
         d="m 256.57057,56.650066 c -10e-6,0.247401 -0.0309,0.428065 -0.0928,0.541993 -0.0619,0.113937 -0.15463,0.170903 -0.27832,0.170898 l -9.38477,0 c -0.1237,5e-6 -0.21484,-0.05696 -0.27343,-0.170898 -0.0586,-0.113928 -0.0879,-0.294592 -0.0879,-0.541993 0,-0.240879 0.0293,-0.418288 0.0879,-0.532226 0.0586,-0.113926 0.14973,-0.170892 0.27343,-0.170899 l 9.38477,0 c 0.0586,7e-6 0.11229,0.01465 0.16113,0.04395 0.0488,0.0293 0.0879,0.07162 0.11719,0.126953 0.0293,0.05534 0.0521,0.126959 0.0684,0.214844 0.0163,0.0879 0.0244,0.19369 0.0244,0.317382 z"
         style="font-style:normal;-inkscape-font-specification:Calibri"
         id="path8325" />
      <path
         inkscape:connector-curvature="0"
         d="m 265.43776,58.564129 c -1e-5,0.57943 -0.10092,1.10189 -0.30273,1.567383 -0.20184,0.465496 -0.49155,0.864259 -0.86915,1.196289 -0.37761,0.332032 -0.8431,0.587565 -1.39648,0.766601 -0.55339,0.179037 -1.17839,0.268555 -1.875,0.268555 -0.42318,0 -0.81869,-0.03418 -1.18652,-0.102539 -0.36784,-0.06836 -0.69499,-0.14974 -0.98145,-0.244141 -0.28646,-0.0944 -0.52409,-0.192057 -0.71289,-0.292968 -0.1888,-0.100911 -0.30762,-0.174153 -0.35644,-0.219727 -0.0488,-0.04557 -0.0863,-0.09115 -0.11231,-0.136719 -0.026,-0.04557 -0.0488,-0.10091 -0.0684,-0.166015 -0.0195,-0.0651 -0.0342,-0.144856 -0.0439,-0.239258 -0.01,-0.0944 -0.0147,-0.20996 -0.0147,-0.34668 0,-0.234373 0.0228,-0.397133 0.0684,-0.488281 0.0456,-0.09114 0.11067,-0.136717 0.19531,-0.136719 0.0586,2e-6 0.17415,0.05209 0.34668,0.15625 0.17252,0.104169 0.39388,0.216473 0.66406,0.336914 0.27018,0.120444 0.58594,0.232749 0.94727,0.336914 0.36132,0.104168 0.76334,0.156251 1.20605,0.15625 0.42968,10e-7 0.80729,-0.05534 1.13281,-0.166015 0.32552,-0.110676 0.59896,-0.266926 0.82032,-0.46875 0.22134,-0.201821 0.38736,-0.441079 0.49804,-0.717774 0.11067,-0.27669 0.16601,-0.577796 0.16602,-0.90332 -10e-6,-0.358069 -0.07,-0.680335 -0.20996,-0.966797 -0.13998,-0.286454 -0.34506,-0.533849 -0.61524,-0.742187 -0.27018,-0.208328 -0.60222,-0.367834 -0.99609,-0.478516 -0.39388,-0.110671 -0.84148,-0.16601 -1.34277,-0.166016 l -1.20117,0 c -0.0521,6e-6 -0.10255,-0.01139 -0.15137,-0.03418 -0.0488,-0.02278 -0.0911,-0.06022 -0.12696,-0.112305 -0.0358,-0.05208 -0.0651,-0.120437 -0.0879,-0.205078 -0.0228,-0.08463 -0.0342,-0.195306 -0.0342,-0.332031 0,-0.123692 0.01,-0.226231 0.0293,-0.307618 0.0195,-0.08137 0.0472,-0.146477 0.083,-0.195312 0.0358,-0.04882 0.0765,-0.08463 0.12207,-0.107422 0.0456,-0.02278 0.0976,-0.03417 0.15625,-0.03418 l 1.10352,0 c 0.42968,7e-6 0.81542,-0.05533 1.15722,-0.166015 0.34179,-0.11067 0.63151,-0.270175 0.86914,-0.478516 0.23763,-0.208325 0.41992,-0.457349 0.54688,-0.74707 0.12694,-0.289705 0.19042,-0.613598 0.19043,-0.97168 -10e-6,-0.260407 -0.0423,-0.50943 -0.12696,-0.74707 -0.0846,-0.23762 -0.21159,-0.444326 -0.38086,-0.620117 -0.16927,-0.175771 -0.38574,-0.314117 -0.64941,-0.41504 -0.26368,-0.1009 -0.56804,-0.151355 -0.91309,-0.151367 -0.3776,1.2e-5 -0.72428,0.05698 -1.04003,0.170899 -0.31576,0.113943 -0.59734,0.236013 -0.84473,0.366211 -0.2474,0.130219 -0.45248,0.252289 -0.61524,0.366211 -0.16276,0.113942 -0.27669,0.170908 -0.34179,0.170898 -0.0456,1e-5 -0.0863,-0.0081 -0.12207,-0.02441 -0.0358,-0.01627 -0.0651,-0.04882 -0.0879,-0.09766 -0.0228,-0.04882 -0.0391,-0.117177 -0.0488,-0.205078 -0.01,-0.08788 -0.0147,-0.20344 -0.0147,-0.34668 0,-0.09764 0.003,-0.183908 0.01,-0.258789 0.007,-0.07486 0.0195,-0.139963 0.0391,-0.195313 0.0195,-0.05533 0.0423,-0.105782 0.0684,-0.151367 0.026,-0.04556 0.07,-0.09927 0.13183,-0.161133 0.0618,-0.06184 0.18718,-0.151355 0.37598,-0.268554 0.1888,-0.117176 0.42155,-0.232735 0.69824,-0.34668 0.27669,-0.11392 0.5957,-0.209948 0.95703,-0.288086 0.36133,-0.07811 0.75032,-0.117175 1.167,-0.117187 0.58593,1.2e-5 1.10025,0.07488 1.54296,0.224609 0.44271,0.149752 0.81217,0.36134 1.1084,0.634766 0.29622,0.273449 0.51757,0.600597 0.66407,0.981445 0.14647,0.38087 0.21971,0.802419 0.21972,1.264648 -1e-5,0.397145 -0.0521,0.766611 -0.15625,1.108399 -0.10417,0.341805 -0.25717,0.644539 -0.45898,0.908203 -0.20183,0.263679 -0.44923,0.488288 -0.74219,0.673828 -0.29298,0.185554 -0.63152,0.314134 -1.01562,0.385742 l 0,0.01953 c 0.43619,0.04558 0.83495,0.154629 1.19628,0.327149 0.36132,0.172532 0.6722,0.389003 0.93262,0.649414 0.26041,0.260422 0.46386,0.564784 0.61035,0.913086 0.14648,0.348311 0.21972,0.721032 0.21973,1.118164 z"
         style="font-style:normal;-inkscape-font-specification:Calibri"
         id="path8327" />
      <path
         inkscape:connector-curvature="0"
         d="m 272.10768,57.450848 1.91406,4.296875 c 0.0391,0.09115 0.0537,0.167643 0.0439,0.229492 -0.01,0.06185 -0.0505,0.112305 -0.12207,0.151367 -0.0716,0.03906 -0.17091,0.06673 -0.29785,0.08301 -0.12696,0.01628 -0.29135,0.02441 -0.49317,0.02441 -0.18229,0 -0.32552,-0.0049 -0.42968,-0.01465 -0.10418,-0.0098 -0.18556,-0.02604 -0.24414,-0.04883 -0.0586,-0.02279 -0.0977,-0.05208 -0.11719,-0.08789 -0.0195,-0.03581 -0.0391,-0.0765 -0.0586,-0.122071 l -1.46484,-3.466796 -2.76367,3.466796 c -0.0391,0.04557 -0.0798,0.08626 -0.12207,0.122071 -0.0423,0.03581 -0.10254,0.06348 -0.18067,0.08301 -0.0781,0.01953 -0.17741,0.03581 -0.29785,0.04883 -0.12044,0.01302 -0.27832,0.01953 -0.47363,0.01953 -0.1888,0 -0.3418,-0.0081 -0.45898,-0.02441 -0.11719,-0.01628 -0.20346,-0.04395 -0.25879,-0.08301 -0.0553,-0.03906 -0.0781,-0.08789 -0.0684,-0.146484 0.01,-0.05859 0.0472,-0.133464 0.1123,-0.22461 l 3.65235,-4.335937 -1.80665,-4.101563 c -0.0391,-0.09114 -0.0553,-0.167634 -0.0488,-0.229492 0.007,-0.06184 0.0407,-0.112295 0.10254,-0.151367 0.0618,-0.03905 0.15462,-0.06509 0.27832,-0.07813 0.12369,-0.01301 0.28645,-0.01952 0.48828,-0.01953 0.18229,9e-6 0.32552,0.0049 0.42968,0.01465 0.10417,0.0098 0.18392,0.02442 0.23926,0.04395 0.0553,0.01954 0.0944,0.04558 0.11719,0.07813 0.0228,0.03256 0.0439,0.07162 0.0635,0.117188 l 1.39648,3.28125 2.63672,-3.28125 c 0.039,-0.03905 0.0781,-0.07486 0.11719,-0.107422 0.039,-0.03254 0.0944,-0.06021 0.16601,-0.08301 0.0716,-0.02278 0.16113,-0.03905 0.26856,-0.04883 0.10741,-0.0098 0.24901,-0.01464 0.4248,-0.01465 0.19531,9e-6 0.35481,0.0065 0.47852,0.01953 0.12369,0.01303 0.21483,0.03582 0.27344,0.06836 0.0586,0.03256 0.083,0.07976 0.0732,0.141602 -0.01,0.06186 -0.057,0.138355 -0.1416,0.229492 z"
         style="font-style:oblique;font-variant:normal;font-stretch:normal;fill:#808000;font-family:Calibri;-inkscape-font-specification:Calibri Oblique"
         id="path8329" />
    </g>
  </g>
  <g
     inkscape:groupmode="layer"
     id="layer4"
     inkscape:label="Layer2"
     style="display:inline"
     transform="translate(-0.625,-12.96875)" />
  <g
     inkscape:groupmode="layer"
     id="layer5"
     inkscape:label="Layer3"
     transform="translate(-0.625,-12.96875)" />
  <g
     inkscape:groupmode="layer"
     id="layer6"
     inkscape:label="Layer4"
     transform="translate(-0.625,-12.96875)" />
</svg>
