<?xml version="1.0" encoding="utf-8" standalone="no"?>
<!DOCTYPE svg PUBLIC "-//W3C//DTD SVG 1.1//EN"
  "http://www.w3.org/Graphics/SVG/1.1/DTD/svg11.dtd">
<svg xmlns:xlink="http://www.w3.org/1999/xlink" width="269.764375pt" height="171.366pt" viewBox="0 0 269.764375 171.366" xmlns="http://www.w3.org/2000/svg" version="1.1">
 <metadata>
  <rdf:RDF xmlns:dc="http://purl.org/dc/elements/1.1/" xmlns:cc="http://creativecommons.org/ns#" xmlns:rdf="http://www.w3.org/1999/02/22-rdf-syntax-ns#">
   <cc:Work>
    <dc:type rdf:resource="http://purl.org/dc/dcmitype/StillImage"/>
    <dc:date>2026-03-11T16:28:20.959609</dc:date>
    <dc:format>image/svg+xml</dc:format>
    <dc:creator>
     <cc:Agent>
      <dc:title>Matplotlib v3.10.8, https://matplotlib.org/</dc:title>
     </cc:Agent>
    </dc:creator>
   </cc:Work>
  </rdf:RDF>
 </metadata>
 <defs>
  <style type="text/css">*{stroke-linejoin: round; stroke-linecap: butt}</style>
 </defs>
 <g id="figure_1">
  <g id="patch_1">
   <path d="M 0 171.366 
L 269.764375 171.366 
L 269.764375 0 
L 0 0 
L 0 171.366 
z
" style="fill: none"/>
  </g>
  <g id="axes_1">
   <g id="patch_2">
    <path d="M 40.084375 107.646 
C 44.858031 107.646 49.436813 105.749406 52.812297 102.373922 
C 56.187781 98.998438 58.084375 94.419656 58.084375 89.646 
C 58.084375 84.872344 56.187781 80.293562 52.812297 76.918078 
C 49.436813 73.542594 44.858031 71.646 40.084375 71.646 
C 35.310719 71.646 30.731937 73.542594 27.356453 76.918078 
C 23.980969 80.293562 22.084375 84.872344 22.084375 89.646 
C 22.084375 94.419656 23.980969 98.998438 27.356453 102.373922 
C 30.731937 105.749406 35.310719 107.646 40.084375 107.646 
L 40.084375 107.646 
z
" clip-path="url(#pdc2a696b39)" style="fill: none; stroke: #000000; stroke-width: 2; stroke-linejoin: miter"/>
   </g>
   <g id="patch_3">
    <path d="M 202.084375 53.646 
C 206.858031 53.646 211.436813 51.749406 214.812297 48.373922 
C 218.187781 44.998438 220.084375 40.419656 220.084375 35.646 
C 220.084375 30.872344 218.187781 26.293562 214.812297 22.918078 
C 211.436813 19.542594 206.858031 17.646 202.084375 17.646 
C 197.310719 17.646 192.731937 19.542594 189.356453 22.918078 
C 185.980969 26.293562 184.084375 30.872344 184.084375 35.646 
C 184.084375 40.419656 185.980969 44.998438 189.356453 48.373922 
C 192.731937 51.749406 197.310719 53.646 202.084375 53.646 
L 202.084375 53.646 
z
" clip-path="url(#pdc2a696b39)" style="fill: none; stroke: #000000; stroke-width: 2; stroke-linejoin: miter"/>
   </g>
   <g id="line2d_1">
    <path d="M 148.084375 35.646 
L 148.084375 71.646 
L 157.084375 74.646 
L 139.084375 80.646 
L 157.084375 86.646 
L 139.084375 92.646 
L 157.084375 98.646 
L 139.084375 104.646 
L 148.084375 107.646 
L 148.084375 143.646 
" clip-path="url(#pdc2a696b39)" style="fill: none; stroke: #000000; stroke-width: 2; stroke-linecap: round"/>
   </g>
   <g id="line2d_2">
    <path d="M 148.084375 143.646 
L 148.084375 158.046 
L 139.084375 158.046 
L 157.084375 158.046 
M 141.784375 162.366 
L 154.384375 162.366 
M 146.284375 166.686 
L 149.884375 166.686 
" clip-path="url(#pdc2a696b39)" style="fill: none; stroke: #000000; stroke-width: 2; stroke-linecap: round"/>
   </g>
   <g id="line2d_3">
    <path d="M 148.084375 143.646 
L 94.084375 143.646 
L 40.084375 143.646 
" clip-path="url(#pdc2a696b39)" style="fill: none; stroke: #000000; stroke-width: 2; stroke-linecap: round"/>
   </g>
   <g id="line2d_4">
    <path d="M 40.084375 143.646 
L 40.084375 107.646 
L 40.084375 107.646 
M 40.084375 71.646 
L 40.084375 71.646 
L 40.084375 35.646 
" clip-path="url(#pdc2a696b39)" style="fill: none; stroke: #000000; stroke-width: 2; stroke-linecap: round"/>
   </g>
   <g id="line2d_5">
    <path d="M 43.684375 98.646 
L 36.484375 98.646 
" clip-path="url(#pdc2a696b39)" style="fill: none; stroke: #000000; stroke-width: 2; stroke-linecap: round"/>
   </g>
   <g id="line2d_6">
    <path d="M 40.084375 84.246 
L 40.084375 77.046 
" clip-path="url(#pdc2a696b39)" style="fill: none; stroke: #000000; stroke-width: 2; stroke-linecap: round"/>
   </g>
   <g id="line2d_7">
    <path d="M 43.684375 80.646 
L 36.484375 80.646 
" clip-path="url(#pdc2a696b39)" style="fill: none; stroke: #000000; stroke-width: 2; stroke-linecap: round"/>
   </g>
   <g id="line2d_8">
    <path d="M 40.084375 35.646 
L 76.084375 35.646 
L 79.084375 26.646 
L 85.084375 44.646 
L 91.084375 26.646 
L 97.084375 44.646 
L 103.084375 26.646 
L 109.084375 44.646 
L 112.084375 35.646 
L 148.084375 35.646 
" clip-path="url(#pdc2a696b39)" style="fill: none; stroke: #000000; stroke-width: 2; stroke-linecap: round"/>
   </g>
   <g id="line2d_9">
    <path d="M 148.084375 35.646 
L 184.084375 35.646 
L 184.084375 35.646 
M 220.084375 35.646 
L 220.084375 35.646 
L 256.084375 35.646 
" clip-path="url(#pdc2a696b39)" style="fill: none; stroke: #000000; stroke-width: 2; stroke-linecap: round"/>
   </g>
   <g id="line2d_10">
    <path d="M 211.084375 32.046 
L 211.084375 39.246 
" clip-path="url(#pdc2a696b39)" style="fill: none; stroke: #000000; stroke-width: 2; stroke-linecap: round"/>
   </g>
   <g id="line2d_11">
    <path d="M 189.484375 35.646 
L 196.684375 35.646 
" clip-path="url(#pdc2a696b39)" style="fill: none; stroke: #000000; stroke-width: 2; stroke-linecap: round"/>
   </g>
   <g id="line2d_12">
    <path d="M 193.084375 32.046 
L 193.084375 39.246 
" clip-path="url(#pdc2a696b39)" style="fill: none; stroke: #000000; stroke-width: 2; stroke-linecap: round"/>
   </g>
   <g id="line2d_13">
    <path d="M 256.084375 35.646 
L 256.084375 71.646 
L 265.084375 74.646 
L 247.084375 80.646 
L 265.084375 86.646 
L 247.084375 92.646 
L 265.084375 98.646 
L 247.084375 104.646 
L 256.084375 107.646 
L 256.084375 143.646 
" clip-path="url(#pdc2a696b39)" style="fill: none; stroke: #000000; stroke-width: 2; stroke-linecap: round"/>
   </g>
   <g id="line2d_14">
    <path d="M 256.084375 143.646 
L 202.084375 143.646 
L 148.084375 143.646 
" clip-path="url(#pdc2a696b39)" style="fill: none; stroke: #000000; stroke-width: 2; stroke-linecap: round"/>
   </g>
   <g id="text_1">
    <!-- 1Ω -->
    <g transform="translate(115.877813 93.509125) scale(0.14 -0.14)">
     <defs>
      <path id="DejaVuSans-31" d="M 794 531 
L 1825 531 
L 1825 4091 
L 703 3866 
L 703 4441 
L 1819 4666 
L 2450 4666 
L 2450 531 
L 3481 531 
L 3481 0 
L 794 0 
L 794 531 
z
" transform="scale(0.015625)"/>
      <path id="DejaVuSans-3a9" d="M 4647 556 
L 4647 0 
L 2772 0 
L 2772 556 
Q 3325 859 3634 1378 
Q 3944 1897 3944 2528 
Q 3944 3278 3531 3731 
Q 3119 4184 2444 4184 
Q 1769 4184 1355 3729 
Q 941 3275 941 2528 
Q 941 1897 1250 1378 
Q 1563 859 2119 556 
L 2119 0 
L 244 0 
L 244 556 
L 1241 556 
Q 747 991 519 1456 
Q 294 1922 294 2497 
Q 294 3491 894 4106 
Q 1491 4722 2444 4722 
Q 3391 4722 3994 4106 
Q 4594 3494 4594 2528 
Q 4594 1922 4372 1459 
Q 4150 997 3647 556 
L 4647 556 
z
" transform="scale(0.015625)"/>
     </defs>
     <use xlink:href="#DejaVuSans-31"/>
     <use xlink:href="#DejaVuSans-3a9" transform="translate(63.623047 0)"/>
    </g>
   </g>
   <g id="text_2">
    <!-- 6V -->
    <g transform="translate(0 93.509125) scale(0.14 -0.14)">
     <defs>
      <path id="DejaVuSans-36" d="M 2113 2584 
Q 1688 2584 1439 2293 
Q 1191 2003 1191 1497 
Q 1191 994 1439 701 
Q 1688 409 2113 409 
Q 2538 409 2786 701 
Q 3034 994 3034 1497 
Q 3034 2003 2786 2293 
Q 2538 2584 2113 2584 
z
M 3366 4563 
L 3366 3988 
Q 3128 4100 2886 4159 
Q 2644 4219 2406 4219 
Q 1781 4219 1451 3797 
Q 1122 3375 1075 2522 
Q 1259 2794 1537 2939 
Q 1816 3084 2150 3084 
Q 2853 3084 3261 2657 
Q 3669 2231 3669 1497 
Q 3669 778 3244 343 
Q 2819 -91 2113 -91 
Q 1303 -91 875 529 
Q 447 1150 447 2328 
Q 447 3434 972 4092 
Q 1497 4750 2381 4750 
Q 2619 4750 2861 4703 
Q 3103 4656 3366 4563 
z
" transform="scale(0.015625)"/>
      <path id="DejaVuSans-56" d="M 1831 0 
L 50 4666 
L 709 4666 
L 2188 738 
L 3669 4666 
L 4325 4666 
L 2547 0 
L 1831 0 
z
" transform="scale(0.015625)"/>
     </defs>
     <use xlink:href="#DejaVuSans-36"/>
     <use xlink:href="#DejaVuSans-56" transform="translate(63.623047 0)"/>
    </g>
   </g>
   <g id="text_3">
    <!-- 2Ω -->
    <g transform="translate(84.281094 20.134437) scale(0.14 -0.14)">
     <defs>
      <path id="DejaVuSans-32" d="M 1228 531 
L 3431 531 
L 3431 0 
L 469 0 
L 469 531 
Q 828 903 1448 1529 
Q 2069 2156 2228 2338 
Q 2531 2678 2651 2914 
Q 2772 3150 2772 3378 
Q 2772 3750 2511 3984 
Q 2250 4219 1831 4219 
Q 1534 4219 1204 4116 
Q 875 4013 500 3803 
L 500 4441 
Q 881 4594 1212 4672 
Q 1544 4750 1819 4750 
Q 2544 4750 2975 4387 
Q 3406 4025 3406 3419 
Q 3406 3131 3298 2873 
Q 3191 2616 2906 2266 
Q 2828 2175 2409 1742 
Q 1991 1309 1228 531 
z
" transform="scale(0.015625)"/>
     </defs>
     <use xlink:href="#DejaVuSans-32"/>
     <use xlink:href="#DejaVuSans-3a9" transform="translate(63.623047 0)"/>
    </g>
   </g>
   <g id="text_4">
    <!-- 10V -->
    <g transform="translate(188.388437 11.134437) scale(0.14 -0.14)">
     <defs>
      <path id="DejaVuSans-30" d="M 2034 4250 
Q 1547 4250 1301 3770 
Q 1056 3291 1056 2328 
Q 1056 1369 1301 889 
Q 1547 409 2034 409 
Q 2525 409 2770 889 
Q 3016 1369 3016 2328 
Q 3016 3291 2770 3770 
Q 2525 4250 2034 4250 
z
M 2034 4750 
Q 2819 4750 3233 4129 
Q 3647 3509 3647 2328 
Q 3647 1150 3233 529 
Q 2819 -91 2034 -91 
Q 1250 -91 836 529 
Q 422 1150 422 2328 
Q 422 3509 836 4129 
Q 1250 4750 2034 4750 
z
" transform="scale(0.015625)"/>
     </defs>
     <use xlink:href="#DejaVuSans-31"/>
     <use xlink:href="#DejaVuSans-30" transform="translate(63.623047 0)"/>
     <use xlink:href="#DejaVuSans-56" transform="translate(127.246094 0)"/>
    </g>
   </g>
   <g id="text_5">
    <!-- 2Ω -->
    <g transform="translate(223.877812 93.509125) scale(0.14 -0.14)">
     <use xlink:href="#DejaVuSans-32"/>
     <use xlink:href="#DejaVuSans-3a9" transform="translate(63.623047 0)"/>
    </g>
   </g>
   <g id="patch_4">
    <path d="M 148.084375 38.346 
C 148.800423 38.346 149.487241 38.061511 149.993563 37.555188 
C 150.499886 37.048866 150.784375 36.362048 150.784375 35.646 
C 150.784375 34.929952 150.499886 34.243134 149.993563 33.736812 
C 149.487241 33.230489 148.800423 32.946 148.084375 32.946 
C 147.368327 32.946 146.681509 33.230489 146.175187 33.736812 
C 145.668864 34.243134 145.384375 34.929952 145.384375 35.646 
C 145.384375 36.362048 145.668864 37.048866 146.175187 37.555188 
C 146.681509 38.061511 147.368327 38.346 148.084375 38.346 
z
" clip-path="url(#pdc2a696b39)" style="stroke: #000000; stroke-width: 2; stroke-linejoin: miter"/>
   </g>
   <g id="text_6">
    <!-- X -->
    <g transform="translate(143.289375 26.434437) scale(0.14 -0.14)">
     <defs>
      <path id="DejaVuSans-58" d="M 403 4666 
L 1081 4666 
L 2241 2931 
L 3406 4666 
L 4084 4666 
L 2584 2425 
L 4184 0 
L 3506 0 
L 2194 1984 
L 872 0 
L 191 0 
L 1856 2491 
L 403 4666 
z
" transform="scale(0.015625)"/>
     </defs>
     <use xlink:href="#DejaVuSans-58"/>
    </g>
   </g>
  </g>
 </g>
 <defs>
  <clipPath id="pdc2a696b39">
   <rect x="0.000375" y="-0" width="269.764" height="171.366"/>
  </clipPath>
 </defs>
</svg>
