<?xml version="1.0" encoding="utf-8" standalone="no"?>
<!DOCTYPE svg PUBLIC "-//W3C//DTD SVG 1.1//EN"
  "http://www.w3.org/Graphics/SVG/1.1/DTD/svg11.dtd">
<svg xmlns:xlink="http://www.w3.org/1999/xlink" width="153.36pt" height="164.16pt" viewBox="0 0 153.36 164.16" xmlns="http://www.w3.org/2000/svg" version="1.1">
 <metadata>
  <rdf:RDF xmlns:dc="http://purl.org/dc/elements/1.1/" xmlns:cc="http://creativecommons.org/ns#" xmlns:rdf="http://www.w3.org/1999/02/22-rdf-syntax-ns#">
   <cc:Work>
    <dc:type rdf:resource="http://purl.org/dc/dcmitype/StillImage"/>
    <dc:date>2026-03-06T21:19:24.187041</dc:date>
    <dc:format>image/svg+xml</dc:format>
    <dc:creator>
     <cc:Agent>
      <dc:title>Matplotlib v3.10.8, https://matplotlib.org/</dc:title>
     </cc:Agent>
    </dc:creator>
   </cc:Work>
  </rdf:RDF>
 </metadata>
 <defs>
  <style type="text/css">*{stroke-linejoin: round; stroke-linecap: butt}</style>
 </defs>
 <g id="figure_1">
  <g id="patch_1">
   <path d="M 0 164.16 
L 153.36 164.16 
L 153.36 0 
L 0 0 
L 0 164.16 
z
" style="fill: none"/>
  </g>
  <g id="axes_1">
   <g id="line2d_1">
    <path d="M 4.68 82.08 
L 40.68 82.08 
L 67.68 82.08 
" clip-path="url(#p91eeb7e203)" style="fill: none; stroke: #000000; stroke-width: 2; stroke-linecap: round"/>
   </g>
   <g id="patch_2">
    <path d="M 67.68 79.38 
L 76.68 82.08 
L 67.68 84.78 
z
" clip-path="url(#p91eeb7e203)"/>
   </g>
   <g id="line2d_2">
    <path d="M 148.68 82.08 
L 112.68 82.08 
L 85.68 82.08 
" clip-path="url(#p91eeb7e203)" style="fill: none; stroke: #000000; stroke-width: 2; stroke-linecap: round"/>
   </g>
   <g id="patch_3">
    <path d="M 85.68 84.78 
L 76.68 82.08 
L 85.68 79.38 
z
" clip-path="url(#p91eeb7e203)"/>
   </g>
   <g id="line2d_3">
    <path d="M 76.68 82.08 
L 76.68 46.08 
L 76.68 19.08 
" clip-path="url(#p91eeb7e203)" style="fill: none; stroke: #000000; stroke-width: 2; stroke-linecap: round"/>
   </g>
   <g id="patch_4">
    <path d="M 73.98 19.08 
L 76.68 10.08 
L 79.38 19.08 
z
" clip-path="url(#p91eeb7e203)"/>
   </g>
   <g id="line2d_4">
    <path d="M 76.68 82.08 
L 76.68 118.08 
L 76.68 145.08 
" clip-path="url(#p91eeb7e203)" style="fill: none; stroke: #000000; stroke-width: 2; stroke-linecap: round"/>
   </g>
   <g id="patch_5">
    <path d="M 79.38 145.08 
L 76.68 154.08 
L 73.98 145.08 
z
" clip-path="url(#p91eeb7e203)"/>
   </g>
   <g id="text_1">
    <!-- I1 -->
    <g transform="translate(34.16125 70.168437) scale(0.14 -0.14)">
     <defs>
      <path id="DejaVuSans-49" d="M 628 4666 
L 1259 4666 
L 1259 0 
L 628 0 
L 628 4666 
z
" transform="scale(0.015625)"/>
      <path id="DejaVuSans-31" d="M 794 531 
L 1825 531 
L 1825 4091 
L 703 3866 
L 703 4441 
L 1819 4666 
L 2450 4666 
L 2450 531 
L 3481 531 
L 3481 0 
L 794 0 
L 794 531 
z
" transform="scale(0.015625)"/>
     </defs>
     <use xlink:href="#DejaVuSans-49"/>
     <use xlink:href="#DejaVuSans-31" transform="translate(29.492188 0)"/>
    </g>
   </g>
   <g id="text_2">
    <!-- I2 -->
    <g transform="translate(106.16125 70.168437) scale(0.14 -0.14)">
     <defs>
      <path id="DejaVuSans-32" d="M 1228 531 
L 3431 531 
L 3431 0 
L 469 0 
L 469 531 
Q 828 903 1448 1529 
Q 2069 2156 2228 2338 
Q 2531 2678 2651 2914 
Q 2772 3150 2772 3378 
Q 2772 3750 2511 3984 
Q 2250 4219 1831 4219 
Q 1534 4219 1204 4116 
Q 875 4013 500 3803 
L 500 4441 
Q 881 4594 1212 4672 
Q 1544 4750 1819 4750 
Q 2544 4750 2975 4387 
Q 3406 4025 3406 3419 
Q 3406 3131 3298 2873 
Q 3191 2616 2906 2266 
Q 2828 2175 2409 1742 
Q 1991 1309 1228 531 
z
" transform="scale(0.015625)"/>
     </defs>
     <use xlink:href="#DejaVuSans-49"/>
     <use xlink:href="#DejaVuSans-32" transform="translate(29.492188 0)"/>
    </g>
   </g>
   <g id="text_3">
    <!-- I3 -->
    <g transform="translate(54.6425 49.943125) scale(0.14 -0.14)">
     <defs>
      <path id="DejaVuSans-33" d="M 2597 2516 
Q 3050 2419 3304 2112 
Q 3559 1806 3559 1356 
Q 3559 666 3084 287 
Q 2609 -91 1734 -91 
Q 1441 -91 1130 -33 
Q 819 25 488 141 
L 488 750 
Q 750 597 1062 519 
Q 1375 441 1716 441 
Q 2309 441 2620 675 
Q 2931 909 2931 1356 
Q 2931 1769 2642 2001 
Q 2353 2234 1838 2234 
L 1294 2234 
L 1294 2753 
L 1863 2753 
Q 2328 2753 2575 2939 
Q 2822 3125 2822 3475 
Q 2822 3834 2567 4026 
Q 2313 4219 1838 4219 
Q 1578 4219 1281 4162 
Q 984 4106 628 3988 
L 628 4550 
Q 988 4650 1302 4700 
Q 1616 4750 1894 4750 
Q 2613 4750 3031 4423 
Q 3450 4097 3450 3541 
Q 3450 3153 3228 2886 
Q 3006 2619 2597 2516 
z
" transform="scale(0.015625)"/>
     </defs>
     <use xlink:href="#DejaVuSans-49"/>
     <use xlink:href="#DejaVuSans-33" transform="translate(29.492188 0)"/>
    </g>
   </g>
   <g id="text_4">
    <!-- I4 -->
    <g transform="translate(54.6425 121.943125) scale(0.14 -0.14)">
     <defs>
      <path id="DejaVuSans-34" d="M 2419 4116 
L 825 1625 
L 2419 1625 
L 2419 4116 
z
M 2253 4666 
L 3047 4666 
L 3047 1625 
L 3713 1625 
L 3713 1100 
L 3047 1100 
L 3047 0 
L 2419 0 
L 2419 1100 
L 313 1100 
L 313 1709 
L 2253 4666 
z
" transform="scale(0.015625)"/>
     </defs>
     <use xlink:href="#DejaVuSans-49"/>
     <use xlink:href="#DejaVuSans-34" transform="translate(29.492188 0)"/>
    </g>
   </g>
   <g id="patch_6">
    <path d="M 76.68 84.78 
C 77.396048 84.78 78.082866 84.495511 78.589188 83.989188 
C 79.095511 83.482866 79.38 82.796048 79.38 82.08 
C 79.38 81.363952 79.095511 80.677134 78.589188 80.170812 
C 78.082866 79.664489 77.396048 79.38 76.68 79.38 
C 75.963952 79.38 75.277134 79.664489 74.770812 80.170812 
C 74.264489 80.677134 73.98 81.363952 73.98 82.08 
C 73.98 82.796048 74.264489 83.482866 74.770812 83.989188 
C 75.277134 84.495511 75.963952 84.78 76.68 84.78 
z
" clip-path="url(#p91eeb7e203)" style="stroke: #000000; stroke-width: 2; stroke-linejoin: miter"/>
   </g>
  </g>
 </g>
 <defs>
  <clipPath id="p91eeb7e203">
   <rect x="0" y="-0" width="153.36" height="164.16"/>
  </clipPath>
 </defs>
</svg>
