<?xml version="1.0" encoding="utf-8" standalone="no"?>
<!DOCTYPE svg PUBLIC "-//W3C//DTD SVG 1.1//EN"
  "http://www.w3.org/Graphics/SVG/1.1/DTD/svg11.dtd">
<svg xmlns:xlink="http://www.w3.org/1999/xlink" width="155.324pt" height="139.158pt" viewBox="0 0 155.324 139.158" xmlns="http://www.w3.org/2000/svg" version="1.1">
 <metadata>
  <rdf:RDF xmlns:dc="http://purl.org/dc/elements/1.1/" xmlns:cc="http://creativecommons.org/ns#" xmlns:rdf="http://www.w3.org/1999/02/22-rdf-syntax-ns#">
   <cc:Work>
    <dc:type rdf:resource="http://purl.org/dc/dcmitype/StillImage"/>
    <dc:date>2026-03-07T18:10:48.869850</dc:date>
    <dc:format>image/svg+xml</dc:format>
    <dc:creator>
     <cc:Agent>
      <dc:title>Matplotlib v3.10.8, https://matplotlib.org/</dc:title>
     </cc:Agent>
    </dc:creator>
   </cc:Work>
  </rdf:RDF>
 </metadata>
 <defs>
  <style type="text/css">*{stroke-linejoin: round; stroke-linecap: butt}</style>
 </defs>
 <g id="figure_1">
  <g id="patch_1">
   <path d="M 0 139.158 
L 155.324 139.158 
L 155.324 0 
L 0 0 
L 0 139.158 
z
" style="fill: none"/>
  </g>
  <g id="axes_1">
   <g id="patch_2">
    <path d="M 33.644 98.478 
C 38.417656 98.478 42.996438 96.581406 46.371922 93.205922 
C 49.747406 89.830438 51.644 85.251656 51.644 80.478 
C 51.644 75.704344 49.747406 71.125562 46.371922 67.750078 
C 42.996438 64.374594 38.417656 62.478 33.644 62.478 
C 28.870344 62.478 24.291562 64.374594 20.916078 67.750078 
C 17.540594 71.125562 15.644 75.704344 15.644 80.478 
C 15.644 85.251656 17.540594 89.830438 20.916078 93.205922 
C 24.291562 96.581406 28.870344 98.478 33.644 98.478 
L 33.644 98.478 
z
" clip-path="url(#p5f7dbcef11)" style="fill: none; stroke: #000000; stroke-width: 2; stroke-linejoin: miter"/>
   </g>
   <g id="patch_3">
    <path d="M 102.388737 70.153624 
C 101.297798 68.595602 99.966776 67.220294 98.445282 66.078962 
C 96.923789 64.93763 95.230966 64.044634 93.42991 63.433258 
C 91.628855 62.821882 89.742226 62.499818 87.840346 62.479071 
C 85.938465 62.458324 84.045259 62.739154 82.231296 63.311095 
C 80.417332 63.883035 78.705431 64.738891 77.159401 65.84676 
C 75.613372 66.954629 74.252664 68.300574 73.127997 69.834426 
C 72.00333 71.368279 71.128852 73.070742 70.537159 74.878359 
C 69.945465 76.685977 69.644 78.576006 69.644 80.478 
C 69.644 82.379994 69.945465 84.270023 70.537159 86.077641 
C 71.128852 87.885258 72.00333 89.587721 73.127997 91.121574 
C 74.252664 92.655426 75.613372 94.001371 77.159401 95.10924 
C 78.705431 96.217109 80.417332 97.072965 82.231296 97.644905 
C 84.045259 98.216846 85.938465 98.497676 87.840346 98.476929 
C 89.742226 98.456182 91.628855 98.134118 93.42991 97.522742 
C 95.230966 96.911366 96.923789 96.01837 98.445282 94.877038 
C 99.966776 93.735706 101.297798 92.360398 102.388737 90.802376 
" clip-path="url(#p5f7dbcef11)" style="fill: none; stroke: #000000; stroke-width: 2; stroke-linejoin: miter"/>
   </g>
   <g id="patch_4">
    <path d="M 107.757412 83.135113 
L 104.806935 92.056137 
L 102.609969 90.517805 
L 102.403482 90.8127 
L 102.373992 90.792051 
L 102.58048 90.497157 
L 100.383514 88.958825 
z
" clip-path="url(#p5f7dbcef11)" style="stroke: #000000; stroke-linejoin: miter"/>
   </g>
   <g id="line2d_1">
    <path d="M 33.644 134.478 
L 33.644 98.478 
L 33.644 98.478 
M 33.644 62.478 
L 33.644 62.478 
L 33.644 26.478 
" clip-path="url(#p5f7dbcef11)" style="fill: none; stroke: #000000; stroke-width: 2; stroke-linecap: round"/>
   </g>
   <g id="line2d_2">
    <path d="M 37.244 89.478 
L 30.044 89.478 
" clip-path="url(#p5f7dbcef11)" style="fill: none; stroke: #000000; stroke-width: 2; stroke-linecap: round"/>
   </g>
   <g id="line2d_3">
    <path d="M 33.644 75.078 
L 33.644 67.878 
" clip-path="url(#p5f7dbcef11)" style="fill: none; stroke: #000000; stroke-width: 2; stroke-linecap: round"/>
   </g>
   <g id="line2d_4">
    <path d="M 37.244 71.478 
L 30.044 71.478 
" clip-path="url(#p5f7dbcef11)" style="fill: none; stroke: #000000; stroke-width: 2; stroke-linecap: round"/>
   </g>
   <g id="line2d_5">
    <path d="M 33.644 26.478 
L 69.644 26.478 
L 72.644 17.478 
L 78.644 35.478 
L 84.644 17.478 
L 90.644 35.478 
L 96.644 17.478 
L 102.644 35.478 
L 105.644 26.478 
L 141.644 26.478 
" clip-path="url(#p5f7dbcef11)" style="fill: none; stroke: #000000; stroke-width: 2; stroke-linecap: round"/>
   </g>
   <g id="line2d_6">
    <path d="M 141.644 26.478 
L 141.644 62.478 
L 150.644 65.478 
L 132.644 71.478 
L 150.644 77.478 
L 132.644 83.478 
L 150.644 89.478 
L 132.644 95.478 
L 141.644 98.478 
L 141.644 134.478 
" clip-path="url(#p5f7dbcef11)" style="fill: none; stroke: #000000; stroke-width: 2; stroke-linecap: round"/>
   </g>
   <g id="line2d_7">
    <path d="M 141.644 134.478 
L 87.644 134.478 
L 33.644 134.478 
" clip-path="url(#p5f7dbcef11)" style="fill: none; stroke: #000000; stroke-width: 2; stroke-linecap: round"/>
   </g>
   <g id="text_1">
    <!-- V -->
    <g transform="translate(2.467125 84.341125) scale(0.14 -0.14)">
     <defs>
      <path id="DejaVuSans-56" d="M 1831 0 
L 50 4666 
L 709 4666 
L 2188 738 
L 3669 4666 
L 4325 4666 
L 2547 0 
L 1831 0 
z
" transform="scale(0.015625)"/>
     </defs>
     <use xlink:href="#DejaVuSans-56"/>
    </g>
   </g>
   <g id="text_2">
    <!-- R1 -->
    <g transform="translate(78.326344 10.966438) scale(0.14 -0.14)">
     <defs>
      <path id="DejaVuSans-52" d="M 2841 2188 
Q 3044 2119 3236 1894 
Q 3428 1669 3622 1275 
L 4263 0 
L 3584 0 
L 2988 1197 
Q 2756 1666 2539 1819 
Q 2322 1972 1947 1972 
L 1259 1972 
L 1259 0 
L 628 0 
L 628 4666 
L 2053 4666 
Q 2853 4666 3247 4331 
Q 3641 3997 3641 3322 
Q 3641 2881 3436 2590 
Q 3231 2300 2841 2188 
z
M 1259 4147 
L 1259 2491 
L 2053 2491 
Q 2509 2491 2742 2702 
Q 2975 2913 2975 3322 
Q 2975 3731 2742 3939 
Q 2509 4147 2053 4147 
L 1259 4147 
z
" transform="scale(0.015625)"/>
      <path id="DejaVuSans-31" d="M 794 531 
L 1825 531 
L 1825 4091 
L 703 3866 
L 703 4441 
L 1819 4666 
L 2450 4666 
L 2450 531 
L 3481 531 
L 3481 0 
L 794 0 
L 794 531 
z
" transform="scale(0.015625)"/>
     </defs>
     <use xlink:href="#DejaVuSans-52"/>
     <use xlink:href="#DejaVuSans-31" transform="translate(69.482422 0)"/>
    </g>
   </g>
   <g id="text_3">
    <!-- R2 -->
    <g transform="translate(110.408687 84.341125) scale(0.14 -0.14)">
     <defs>
      <path id="DejaVuSans-32" d="M 1228 531 
L 3431 531 
L 3431 0 
L 469 0 
L 469 531 
Q 828 903 1448 1529 
Q 2069 2156 2228 2338 
Q 2531 2678 2651 2914 
Q 2772 3150 2772 3378 
Q 2772 3750 2511 3984 
Q 2250 4219 1831 4219 
Q 1534 4219 1204 4116 
Q 875 4013 500 3803 
L 500 4441 
Q 881 4594 1212 4672 
Q 1544 4750 1819 4750 
Q 2544 4750 2975 4387 
Q 3406 4025 3406 3419 
Q 3406 3131 3298 2873 
Q 3191 2616 2906 2266 
Q 2828 2175 2409 1742 
Q 1991 1309 1228 531 
z
" transform="scale(0.015625)"/>
     </defs>
     <use xlink:href="#DejaVuSans-52"/>
     <use xlink:href="#DejaVuSans-32" transform="translate(69.482422 0)"/>
    </g>
   </g>
   <g id="text_4">
    <!-- R3 -->
    <g transform="translate(78.326344 127.966437) scale(0.14 -0.14)">
     <defs>
      <path id="DejaVuSans-33" d="M 2597 2516 
Q 3050 2419 3304 2112 
Q 3559 1806 3559 1356 
Q 3559 666 3084 287 
Q 2609 -91 1734 -91 
Q 1441 -91 1130 -33 
Q 819 25 488 141 
L 488 750 
Q 750 597 1062 519 
Q 1375 441 1716 441 
Q 2309 441 2620 675 
Q 2931 909 2931 1356 
Q 2931 1769 2642 2001 
Q 2353 2234 1838 2234 
L 1294 2234 
L 1294 2753 
L 1863 2753 
Q 2328 2753 2575 2939 
Q 2822 3125 2822 3475 
Q 2822 3834 2567 4026 
Q 2313 4219 1838 4219 
Q 1578 4219 1281 4162 
Q 984 4106 628 3988 
L 628 4550 
Q 988 4650 1302 4700 
Q 1616 4750 1894 4750 
Q 2613 4750 3031 4423 
Q 3450 4097 3450 3541 
Q 3450 3153 3228 2886 
Q 3006 2619 2597 2516 
z
" transform="scale(0.015625)"/>
     </defs>
     <use xlink:href="#DejaVuSans-52"/>
     <use xlink:href="#DejaVuSans-33" transform="translate(69.482422 0)"/>
    </g>
   </g>
   <g id="text_5">
    <!-- loop -->
    <g transform="translate(72.689156 84.341125) scale(0.14 -0.14)">
     <defs>
      <path id="DejaVuSans-6c" d="M 603 4863 
L 1178 4863 
L 1178 0 
L 603 0 
L 603 4863 
z
" transform="scale(0.015625)"/>
      <path id="DejaVuSans-6f" d="M 1959 3097 
Q 1497 3097 1228 2736 
Q 959 2375 959 1747 
Q 959 1119 1226 758 
Q 1494 397 1959 397 
Q 2419 397 2687 759 
Q 2956 1122 2956 1747 
Q 2956 2369 2687 2733 
Q 2419 3097 1959 3097 
z
M 1959 3584 
Q 2709 3584 3137 3096 
Q 3566 2609 3566 1747 
Q 3566 888 3137 398 
Q 2709 -91 1959 -91 
Q 1206 -91 779 398 
Q 353 888 353 1747 
Q 353 2609 779 3096 
Q 1206 3584 1959 3584 
z
" transform="scale(0.015625)"/>
      <path id="DejaVuSans-70" d="M 1159 525 
L 1159 -1331 
L 581 -1331 
L 581 3500 
L 1159 3500 
L 1159 2969 
Q 1341 3281 1617 3432 
Q 1894 3584 2278 3584 
Q 2916 3584 3314 3078 
Q 3713 2572 3713 1747 
Q 3713 922 3314 415 
Q 2916 -91 2278 -91 
Q 1894 -91 1617 61 
Q 1341 213 1159 525 
z
M 3116 1747 
Q 3116 2381 2855 2742 
Q 2594 3103 2138 3103 
Q 1681 3103 1420 2742 
Q 1159 2381 1159 1747 
Q 1159 1113 1420 752 
Q 1681 391 2138 391 
Q 2594 391 2855 752 
Q 3116 1113 3116 1747 
z
" transform="scale(0.015625)"/>
     </defs>
     <use xlink:href="#DejaVuSans-6c"/>
     <use xlink:href="#DejaVuSans-6f" transform="translate(27.783203 0)"/>
     <use xlink:href="#DejaVuSans-6f" transform="translate(88.964844 0)"/>
     <use xlink:href="#DejaVuSans-70" transform="translate(150.146484 0)"/>
    </g>
   </g>
  </g>
 </g>
 <defs>
  <clipPath id="p5f7dbcef11">
   <rect x="0" y="0" width="155.324" height="139.158"/>
  </clipPath>
 </defs>
</svg>
