<?xml version="1.0" encoding="utf-8" standalone="no"?>
<!DOCTYPE svg PUBLIC "-//W3C//DTD SVG 1.1//EN"
  "http://www.w3.org/Graphics/SVG/1.1/DTD/svg11.dtd">
<svg xmlns:xlink="http://www.w3.org/1999/xlink" width="116.896126pt" height="40.32pt" viewBox="0 0 116.896126 40.32" xmlns="http://www.w3.org/2000/svg" version="1.1">
 <metadata>
  <rdf:RDF xmlns:dc="http://purl.org/dc/elements/1.1/" xmlns:cc="http://creativecommons.org/ns#" xmlns:rdf="http://www.w3.org/1999/02/22-rdf-syntax-ns#">
   <cc:Work>
    <dc:type rdf:resource="http://purl.org/dc/dcmitype/StillImage"/>
    <dc:date>1970-01-01T00:00:00+00:00</dc:date>
    <dc:format>image/svg+xml</dc:format>
    <dc:creator>
     <cc:Agent>
      <dc:title>Matplotlib v3.11.2, https://matplotlib.org/</dc:title>
     </cc:Agent>
    </dc:creator>
   </cc:Work>
  </rdf:RDF>
 </metadata>
 <defs>
  <style type="text/css">*{stroke-linejoin: round; stroke-linecap: butt}</style>
 </defs>
 <g id="figure_1">
  <g id="patch_1">
   <path d="M 0 40.32
L 116.896126 40.32
L 116.896126 0
L 0 0
L 0 40.32
z
" style="fill: none"/>
  </g>
  <g id="axes_1">
   <g id="line2d_1">
    <path d="M 4.661502 26.694071
L 55.22087 26.694071
M 55.22087 17.729644
L 55.22087 35.658498
M 61.675257 17.729644
L 61.675257 35.658498
M 61.675257 26.694071
L 112.234625 26.694071
" clip-path="url(#p85229f3b2a)" style="fill: none; stroke: #000000; stroke-width: 2; stroke-linecap: round"/>
   </g>
   <g id="text_1">
    <!-- C -->
    <g transform="translate(53.560094 12.239655) scale(0.14 -0.14)">
     <defs>
      <path id="DejaVuSans-26" d="M 4122 4306
L 4122 3641
Q 3803 3938 3442 4084
Q 3081 4231 2675 4231
Q 1875 4231 1450 3742
Q 1025 3253 1025 2328
Q 1025 1406 1450 917
Q 1875 428 2675 428
Q 3081 428 3442 575
Q 3803 722 4122 1019
L 4122 359
Q 3791 134 3420 21
Q 3050 -91 2638 -91
Q 1578 -91 968 557
Q 359 1206 359 2328
Q 359 3453 968 4101
Q 1578 4750 2638 4750
Q 3056 4750 3426 4639
Q 3797 4528 4122 4306
z
" transform="scale(0.015625)"/>
     </defs>
     <use xlink:href="#DejaVuSans-26"/>
    </g>
   </g>
  </g>
 </g>
 <defs>
  <clipPath id="p85229f3b2a">
   <rect x="0" y="0" width="116.896126" height="40.32"/>
  </clipPath>
 </defs>
</svg>
