<?xml version="1.0" standalone="no"?>
<mlt LC_NUMERIC="C" version="7.21.0" title="Shotcut version 23.11.04" producer="main_bin">
  <profile description="PAL 4:3 DV or DVD" width="1920" height="1080" progressive="1" sample_aspect_num="1" sample_aspect_den="1" display_aspect_num="16" display_aspect_den="9" frame_rate_num="60" frame_rate_den="1" colorspace="709"/>
  <playlist id="main_bin" title="Shotcut version 23.11.04">
    <property name="shotcut:projectAudioChannels">2</property>
    <property name="shotcut:projectFolder">1</property>
    <property name="shotcut:skipConvert">0</property>
    <property name="xml_retain">1</property>
  </playlist>
  <producer id="black" in="00:00:00.000" out="00:05:59.983">
    <property name="length">00:06:00.000</property>
    <property name="eof">pause</property>
    <property name="resource">0</property>
    <property name="aspect_ratio">1</property>
    <property name="mlt_service">color</property>
    <property name="mlt_image_format">rgba</property>
    <property name="set.test_audio">0</property>
  </producer>
  <playlist id="background">
    <entry producer="black" in="00:00:00.000" out="00:05:59.983"/>
  </playlist>
  <chain id="chain0" out="00:00:15.267">
    <property name="length">00:00:15.283</property>
    <property name="eof">pause</property>
    <property name="resource">voiceovers/voiceover 9.webm</property>
    <property name="mlt_service">avformat-novalidate</property>
    <property name="meta.media.nb_streams">1</property>
    <property name="meta.media.0.stream.type">audio</property>
    <property name="meta.media.0.codec.sample_fmt">fltp</property>
    <property name="meta.media.0.codec.sample_rate">48000</property>
    <property name="meta.media.0.codec.channels">2</property>
    <property name="meta.media.0.codec.name">opus</property>
    <property name="meta.media.0.codec.long_name">Opus</property>
    <property name="meta.media.0.codec.bit_rate">0</property>
    <property name="meta.attr.0.stream.language.markup">eng</property>
    <property name="meta.attr.0.stream.title.markup">Audio</property>
    <property name="meta.attr.0.stream.DATE.markup">2023-12-01T11:00:00+08:00</property>
    <property name="meta.attr.0.stream.ENCODER.markup">Lavc60.3.100 libopus</property>
    <property name="meta.attr.0.stream.DURATION.markup">00:00:15.279000000</property>
    <property name="meta.attr.DATE.markup">2023-12-01T11:00:00+08:00</property>
    <property name="meta.attr.COMMENT.markup">Breaking Study Mis-strategies</property>
    <property name="meta.attr.ENCODED_BY.markup">Audacity 3.4.2/9dd60f25c6cd271879756ea57fd67e582fe17d91, FFmpeg 6.0-full_build-www.gyan.dev</property>
    <property name="meta.attr.ARTIST.markup">William So</property>
    <property name="meta.attr.AUTHOR.markup">William So</property>
    <property name="meta.attr.ENCODER.markup">Lavf60.3.100</property>
    <property name="seekable">1</property>
    <property name="audio_index">0</property>
    <property name="video_index">-1</property>
    <property name="creation_time">2023-12-01T03:00:55</property>
    <property name="astream">0</property>
    <property name="shotcut:hash">3a3a1d74d4330339466ff1321313bda9</property>
    <property name="shotcut:caption">voiceover 9.webm</property>
  </chain>
  <chain id="chain1" out="00:00:16.517">
    <property name="length">992</property>
    <property name="eof">pause</property>
    <property name="resource">voiceovers/voiceover 1.webm</property>
    <property name="mlt_service">avformat</property>
    <property name="meta.media.nb_streams">1</property>
    <property name="meta.media.0.stream.type">audio</property>
    <property name="meta.media.0.codec.sample_fmt">fltp</property>
    <property name="meta.media.0.codec.sample_rate">48000</property>
    <property name="meta.media.0.codec.channels">2</property>
    <property name="meta.media.0.codec.name">opus</property>
    <property name="meta.media.0.codec.long_name">Opus</property>
    <property name="meta.media.0.codec.bit_rate">0</property>
    <property name="meta.attr.0.stream.language.markup">eng</property>
    <property name="meta.attr.0.stream.title.markup">Audio</property>
    <property name="meta.attr.0.stream.DATE.markup">2023-11-29T03:20:09+08:00</property>
    <property name="meta.attr.0.stream.ENCODER.markup">Lavc60.3.100 libopus</property>
    <property name="meta.attr.0.stream.DURATION.markup">00:00:16.534000000</property>
    <property name="meta.attr.DATE.markup">2023-11-29T03:20:09+08:00</property>
    <property name="meta.attr.COMMENT.markup">Breaking Study Mis-strategies</property>
    <property name="meta.attr.ENCODED_BY.markup">Audacity 3.4.2/9dd60f25c6cd271879756ea57fd67e582fe17d91, FFmpeg 6.0-full_build-www.gyan.dev</property>
    <property name="meta.attr.ARTIST.markup">William So</property>
    <property name="meta.attr.AUTHOR.markup">William So</property>
    <property name="meta.attr.ENCODER.markup">Lavf60.3.100</property>
    <property name="seekable">1</property>
    <property name="audio_index">0</property>
    <property name="video_index">-1</property>
    <property name="astream">0</property>
    <property name="video_delay">0</property>
    <property name="xml">was here</property>
    <property name="shotcut:hash">0534d376c4e44feaae510862c47172e2</property>
    <property name="shotcut:caption">voiceover 1.webm</property>
  </chain>
  <chain id="chain2" out="00:00:23.267">
    <property name="length">1397</property>
    <property name="eof">pause</property>
    <property name="resource">voiceovers/voiceover 2.webm</property>
    <property name="mlt_service">avformat</property>
    <property name="meta.media.nb_streams">1</property>
    <property name="meta.media.0.stream.type">audio</property>
    <property name="meta.media.0.codec.sample_fmt">fltp</property>
    <property name="meta.media.0.codec.sample_rate">48000</property>
    <property name="meta.media.0.codec.channels">2</property>
    <property name="meta.media.0.codec.name">opus</property>
    <property name="meta.media.0.codec.long_name">Opus</property>
    <property name="meta.media.0.codec.bit_rate">0</property>
    <property name="meta.attr.0.stream.language.markup">eng</property>
    <property name="meta.attr.0.stream.title.markup">Audio</property>
    <property name="meta.attr.0.stream.DATE.markup">2023-11-29T03:20:09+08:00</property>
    <property name="meta.attr.0.stream.ENCODER.markup">Lavc60.3.100 libopus</property>
    <property name="meta.attr.0.stream.DURATION.markup">00:00:23.277000000</property>
    <property name="meta.attr.DATE.markup">2023-11-29T03:20:09+08:00</property>
    <property name="meta.attr.COMMENT.markup">Breaking Study Mis-strategies</property>
    <property name="meta.attr.ENCODED_BY.markup">Audacity 3.4.2/9dd60f25c6cd271879756ea57fd67e582fe17d91, FFmpeg 6.0-full_build-www.gyan.dev</property>
    <property name="meta.attr.ARTIST.markup">William So</property>
    <property name="meta.attr.AUTHOR.markup">William So</property>
    <property name="meta.attr.ENCODER.markup">Lavf60.3.100</property>
    <property name="seekable">1</property>
    <property name="audio_index">0</property>
    <property name="video_index">-1</property>
    <property name="astream">0</property>
    <property name="video_delay">0</property>
    <property name="xml">was here</property>
    <property name="shotcut:hash">b38e2746c17c673578c2e1d579f0d424</property>
    <property name="shotcut:caption">voiceover 2.webm</property>
  </chain>
  <chain id="chain3" out="00:01:10.583">
    <property name="length">4236</property>
    <property name="eof">pause</property>
    <property name="resource">voiceovers/voiceover 3.webm</property>
    <property name="mlt_service">avformat</property>
    <property name="meta.media.nb_streams">1</property>
    <property name="meta.media.0.stream.type">audio</property>
    <property name="meta.media.0.codec.sample_fmt">fltp</property>
    <property name="meta.media.0.codec.sample_rate">48000</property>
    <property name="meta.media.0.codec.channels">2</property>
    <property name="meta.media.0.codec.name">opus</property>
    <property name="meta.media.0.codec.long_name">Opus</property>
    <property name="meta.media.0.codec.bit_rate">0</property>
    <property name="meta.attr.0.stream.language.markup">eng</property>
    <property name="meta.attr.0.stream.title.markup">Audio</property>
    <property name="meta.attr.0.stream.DATE.markup">2023-11-29T03:20:09+08:00</property>
    <property name="meta.attr.0.stream.ENCODER.markup">Lavc60.3.100 libopus</property>
    <property name="meta.attr.0.stream.DURATION.markup">00:01:10.586000000</property>
    <property name="meta.attr.DATE.markup">2023-11-29T03:20:09+08:00</property>
    <property name="meta.attr.COMMENT.markup">Breaking Study Mis-strategies</property>
    <property name="meta.attr.ENCODED_BY.markup">Audacity 3.4.2/9dd60f25c6cd271879756ea57fd67e582fe17d91, FFmpeg 6.0-full_build-www.gyan.dev</property>
    <property name="meta.attr.ARTIST.markup">William So</property>
    <property name="meta.attr.AUTHOR.markup">William So</property>
    <property name="meta.attr.ENCODER.markup">Lavf60.3.100</property>
    <property name="seekable">1</property>
    <property name="audio_index">0</property>
    <property name="video_index">-1</property>
    <property name="astream">0</property>
    <property name="video_delay">0</property>
    <property name="xml">was here</property>
    <property name="shotcut:hash">54311e2fe334c799cd8a0e8bedc78284</property>
    <property name="shotcut:caption">voiceover 3.webm</property>
  </chain>
  <chain id="chain4" out="00:01:10.583">
    <property name="length">4236</property>
    <property name="eof">pause</property>
    <property name="resource">voiceovers/voiceover 3.webm</property>
    <property name="mlt_service">avformat</property>
    <property name="meta.media.nb_streams">1</property>
    <property name="meta.media.0.stream.type">audio</property>
    <property name="meta.media.0.codec.sample_fmt">fltp</property>
    <property name="meta.media.0.codec.sample_rate">48000</property>
    <property name="meta.media.0.codec.channels">2</property>
    <property name="meta.media.0.codec.name">opus</property>
    <property name="meta.media.0.codec.long_name">Opus</property>
    <property name="meta.media.0.codec.bit_rate">0</property>
    <property name="meta.attr.0.stream.language.markup">eng</property>
    <property name="meta.attr.0.stream.title.markup">Audio</property>
    <property name="meta.attr.0.stream.DATE.markup">2023-11-29T03:20:09+08:00</property>
    <property name="meta.attr.0.stream.ENCODER.markup">Lavc60.3.100 libopus</property>
    <property name="meta.attr.0.stream.DURATION.markup">00:01:10.586000000</property>
    <property name="meta.attr.DATE.markup">2023-11-29T03:20:09+08:00</property>
    <property name="meta.attr.COMMENT.markup">Breaking Study Mis-strategies</property>
    <property name="meta.attr.ENCODED_BY.markup">Audacity 3.4.2/9dd60f25c6cd271879756ea57fd67e582fe17d91, FFmpeg 6.0-full_build-www.gyan.dev</property>
    <property name="meta.attr.ARTIST.markup">William So</property>
    <property name="meta.attr.AUTHOR.markup">William So</property>
    <property name="meta.attr.ENCODER.markup">Lavf60.3.100</property>
    <property name="seekable">1</property>
    <property name="audio_index">0</property>
    <property name="video_index">-1</property>
    <property name="astream">0</property>
    <property name="video_delay">0</property>
    <property name="xml">was here</property>
    <property name="shotcut:hash">54311e2fe334c799cd8a0e8bedc78284</property>
    <property name="shotcut:caption">voiceover 3.webm</property>
  </chain>
  <chain id="chain5" out="00:01:10.583">
    <property name="length">00:01:10.600</property>
    <property name="eof">pause</property>
    <property name="resource">voiceovers/voiceover 3.webm</property>
    <property name="mlt_service">avformat-novalidate</property>
    <property name="meta.media.nb_streams">1</property>
    <property name="meta.media.0.stream.type">audio</property>
    <property name="meta.media.0.codec.sample_fmt">fltp</property>
    <property name="meta.media.0.codec.sample_rate">48000</property>
    <property name="meta.media.0.codec.channels">2</property>
    <property name="meta.media.0.codec.name">opus</property>
    <property name="meta.media.0.codec.long_name">Opus</property>
    <property name="meta.media.0.codec.bit_rate">0</property>
    <property name="meta.attr.0.stream.language.markup">eng</property>
    <property name="meta.attr.0.stream.title.markup">Audio</property>
    <property name="meta.attr.0.stream.DATE.markup">2023-11-29T03:20:09+08:00</property>
    <property name="meta.attr.0.stream.ENCODER.markup">Lavc60.3.100 libopus</property>
    <property name="meta.attr.0.stream.DURATION.markup">00:01:10.586000000</property>
    <property name="meta.attr.DATE.markup">2023-11-29T03:20:09+08:00</property>
    <property name="meta.attr.COMMENT.markup">Breaking Study Mis-strategies</property>
    <property name="meta.attr.ENCODED_BY.markup">Audacity 3.4.2/9dd60f25c6cd271879756ea57fd67e582fe17d91, FFmpeg 6.0-full_build-www.gyan.dev</property>
    <property name="meta.attr.ARTIST.markup">William So</property>
    <property name="meta.attr.AUTHOR.markup">William So</property>
    <property name="meta.attr.ENCODER.markup">Lavf60.3.100</property>
    <property name="seekable">1</property>
    <property name="audio_index">0</property>
    <property name="video_index">-1</property>
    <property name="creation_time">2023-11-28T19:24:26</property>
    <property name="astream">0</property>
    <property name="shotcut:skipConvert">1</property>
    <property name="shotcut:hash">8b36a6c16bc91bc32147dd56734c418a</property>
    <property name="xml">was here</property>
    <property name="shotcut:caption">voiceover 3.webm</property>
  </chain>
  <chain id="chain6" out="00:00:36.283">
    <property name="length">2178</property>
    <property name="eof">pause</property>
    <property name="resource">voiceovers/voiceover 4.webm</property>
    <property name="mlt_service">avformat</property>
    <property name="meta.media.nb_streams">1</property>
    <property name="meta.media.0.stream.type">audio</property>
    <property name="meta.media.0.codec.sample_fmt">fltp</property>
    <property name="meta.media.0.codec.sample_rate">48000</property>
    <property name="meta.media.0.codec.channels">2</property>
    <property name="meta.media.0.codec.name">opus</property>
    <property name="meta.media.0.codec.long_name">Opus</property>
    <property name="meta.media.0.codec.bit_rate">0</property>
    <property name="meta.attr.0.stream.language.markup">eng</property>
    <property name="meta.attr.0.stream.title.markup">Audio</property>
    <property name="meta.attr.0.stream.DATE.markup">2023-11-29T03:20:09+08:00</property>
    <property name="meta.attr.0.stream.ENCODER.markup">Lavc60.3.100 libopus</property>
    <property name="meta.attr.0.stream.DURATION.markup">00:00:36.297000000</property>
    <property name="meta.attr.DATE.markup">2023-11-29T03:20:09+08:00</property>
    <property name="meta.attr.COMMENT.markup">Breaking Study Mis-strategies</property>
    <property name="meta.attr.ENCODED_BY.markup">Audacity 3.4.2/9dd60f25c6cd271879756ea57fd67e582fe17d91, FFmpeg 6.0-full_build-www.gyan.dev</property>
    <property name="meta.attr.ARTIST.markup">William So</property>
    <property name="meta.attr.AUTHOR.markup">William So</property>
    <property name="meta.attr.ENCODER.markup">Lavf60.3.100</property>
    <property name="seekable">1</property>
    <property name="audio_index">0</property>
    <property name="video_index">-1</property>
    <property name="astream">0</property>
    <property name="video_delay">0</property>
    <property name="xml">was here</property>
    <property name="shotcut:hash">b177835b0ad7c1ca4531caccd9aa273f</property>
    <property name="shotcut:caption">voiceover 4.webm</property>
  </chain>
  <chain id="chain7" out="00:00:53.500">
    <property name="length">3211</property>
    <property name="eof">pause</property>
    <property name="resource">voiceovers/voiceover 5.webm</property>
    <property name="mlt_service">avformat</property>
    <property name="meta.media.nb_streams">1</property>
    <property name="meta.media.0.stream.type">audio</property>
    <property name="meta.media.0.codec.sample_fmt">fltp</property>
    <property name="meta.media.0.codec.sample_rate">48000</property>
    <property name="meta.media.0.codec.channels">2</property>
    <property name="meta.media.0.codec.name">opus</property>
    <property name="meta.media.0.codec.long_name">Opus</property>
    <property name="meta.media.0.codec.bit_rate">0</property>
    <property name="meta.attr.0.stream.language.markup">eng</property>
    <property name="meta.attr.0.stream.title.markup">Audio</property>
    <property name="meta.attr.0.stream.DATE.markup">2023-11-29T03:20:09+08:00</property>
    <property name="meta.attr.0.stream.ENCODER.markup">Lavc60.3.100 libopus</property>
    <property name="meta.attr.0.stream.DURATION.markup">00:00:53.514000000</property>
    <property name="meta.attr.DATE.markup">2023-11-29T03:20:09+08:00</property>
    <property name="meta.attr.COMMENT.markup">Breaking Study Mis-strategies</property>
    <property name="meta.attr.ENCODED_BY.markup">Audacity 3.4.2/9dd60f25c6cd271879756ea57fd67e582fe17d91, FFmpeg 6.0-full_build-www.gyan.dev</property>
    <property name="meta.attr.ARTIST.markup">William So</property>
    <property name="meta.attr.AUTHOR.markup">William So</property>
    <property name="meta.attr.ENCODER.markup">Lavf60.3.100</property>
    <property name="seekable">1</property>
    <property name="audio_index">0</property>
    <property name="video_index">-1</property>
    <property name="astream">0</property>
    <property name="video_delay">0</property>
    <property name="xml">was here</property>
    <property name="shotcut:hash">302bec424ecfe7ed197639637321b5f9</property>
    <property name="shotcut:caption">voiceover 5.webm</property>
  </chain>
  <chain id="chain8" out="00:00:56.150">
    <property name="length">3370</property>
    <property name="eof">pause</property>
    <property name="resource">voiceovers/voiceover 6.webm</property>
    <property name="mlt_service">avformat</property>
    <property name="meta.media.nb_streams">1</property>
    <property name="meta.media.0.stream.type">audio</property>
    <property name="meta.media.0.codec.sample_fmt">fltp</property>
    <property name="meta.media.0.codec.sample_rate">48000</property>
    <property name="meta.media.0.codec.channels">2</property>
    <property name="meta.media.0.codec.name">opus</property>
    <property name="meta.media.0.codec.long_name">Opus</property>
    <property name="meta.media.0.codec.bit_rate">0</property>
    <property name="meta.attr.0.stream.language.markup">eng</property>
    <property name="meta.attr.0.stream.title.markup">Audio</property>
    <property name="meta.attr.0.stream.DATE.markup">2023-11-29T03:20:09+08:00</property>
    <property name="meta.attr.0.stream.ENCODER.markup">Lavc60.3.100 libopus</property>
    <property name="meta.attr.0.stream.DURATION.markup">00:00:56.173000000</property>
    <property name="meta.attr.DATE.markup">2023-11-29T03:20:09+08:00</property>
    <property name="meta.attr.COMMENT.markup">Breaking Study Mis-strategies</property>
    <property name="meta.attr.ENCODED_BY.markup">Audacity 3.4.2/9dd60f25c6cd271879756ea57fd67e582fe17d91, FFmpeg 6.0-full_build-www.gyan.dev</property>
    <property name="meta.attr.ARTIST.markup">William So</property>
    <property name="meta.attr.AUTHOR.markup">William So</property>
    <property name="meta.attr.ENCODER.markup">Lavf60.3.100</property>
    <property name="seekable">1</property>
    <property name="audio_index">0</property>
    <property name="video_index">-1</property>
    <property name="astream">0</property>
    <property name="video_delay">0</property>
    <property name="xml">was here</property>
    <property name="shotcut:hash">ec9d9ee46586f2165711d085de6b503c</property>
    <property name="shotcut:caption">voiceover 6.webm</property>
  </chain>
  <chain id="chain9" out="00:00:40.517">
    <property name="length">2432</property>
    <property name="eof">pause</property>
    <property name="resource">voiceovers/voiceover 7.webm</property>
    <property name="mlt_service">avformat</property>
    <property name="meta.media.nb_streams">1</property>
    <property name="meta.media.0.stream.type">audio</property>
    <property name="meta.media.0.codec.sample_fmt">fltp</property>
    <property name="meta.media.0.codec.sample_rate">48000</property>
    <property name="meta.media.0.codec.channels">2</property>
    <property name="meta.media.0.codec.name">opus</property>
    <property name="meta.media.0.codec.long_name">Opus</property>
    <property name="meta.media.0.codec.bit_rate">0</property>
    <property name="meta.attr.0.stream.language.markup">eng</property>
    <property name="meta.attr.0.stream.title.markup">Audio</property>
    <property name="meta.attr.0.stream.DATE.markup">2023-11-29T03:20:09+08:00</property>
    <property name="meta.attr.0.stream.ENCODER.markup">Lavc60.3.100 libopus</property>
    <property name="meta.attr.0.stream.DURATION.markup">00:00:40.539000000</property>
    <property name="meta.attr.DATE.markup">2023-11-29T03:20:09+08:00</property>
    <property name="meta.attr.COMMENT.markup">Breaking Study Mis-strategies</property>
    <property name="meta.attr.ENCODED_BY.markup">Audacity 3.4.2/9dd60f25c6cd271879756ea57fd67e582fe17d91, FFmpeg 6.0-full_build-www.gyan.dev</property>
    <property name="meta.attr.ARTIST.markup">William So</property>
    <property name="meta.attr.AUTHOR.markup">William So</property>
    <property name="meta.attr.ENCODER.markup">Lavf60.3.100</property>
    <property name="seekable">1</property>
    <property name="audio_index">0</property>
    <property name="video_index">-1</property>
    <property name="astream">0</property>
    <property name="video_delay">0</property>
    <property name="xml">was here</property>
    <property name="shotcut:hash">f0a8f85e7e9e10b4b4736b1115264ab0</property>
    <property name="shotcut:caption">voiceover 7.webm</property>
  </chain>
  <chain id="chain10" out="00:00:13.367">
    <property name="length">803</property>
    <property name="eof">pause</property>
    <property name="resource">voiceovers/voiceover 8.webm</property>
    <property name="mlt_service">avformat</property>
    <property name="meta.media.nb_streams">1</property>
    <property name="meta.media.0.stream.type">audio</property>
    <property name="meta.media.0.codec.sample_fmt">fltp</property>
    <property name="meta.media.0.codec.sample_rate">48000</property>
    <property name="meta.media.0.codec.channels">2</property>
    <property name="meta.media.0.codec.name">opus</property>
    <property name="meta.media.0.codec.long_name">Opus</property>
    <property name="meta.media.0.codec.bit_rate">0</property>
    <property name="meta.attr.0.stream.language.markup">eng</property>
    <property name="meta.attr.0.stream.title.markup">Audio</property>
    <property name="meta.attr.0.stream.DATE.markup">2023-11-29T03:20:09+08:00</property>
    <property name="meta.attr.0.stream.ENCODER.markup">Lavc60.3.100 libopus</property>
    <property name="meta.attr.0.stream.DURATION.markup">00:00:13.389000000</property>
    <property name="meta.attr.DATE.markup">2023-11-29T03:20:09+08:00</property>
    <property name="meta.attr.COMMENT.markup">Breaking Study Mis-strategies</property>
    <property name="meta.attr.ENCODED_BY.markup">Audacity 3.4.2/9dd60f25c6cd271879756ea57fd67e582fe17d91, FFmpeg 6.0-full_build-www.gyan.dev</property>
    <property name="meta.attr.ARTIST.markup">William So</property>
    <property name="meta.attr.AUTHOR.markup">William So</property>
    <property name="meta.attr.ENCODER.markup">Lavf60.3.100</property>
    <property name="seekable">1</property>
    <property name="audio_index">0</property>
    <property name="video_index">-1</property>
    <property name="astream">0</property>
    <property name="video_delay">0</property>
    <property name="xml">was here</property>
    <property name="shotcut:hash">eb19c669aa7cf0c1d76c31a0b832c52b</property>
    <property name="shotcut:caption">voiceover 8.webm</property>
  </chain>
  <chain id="chain11" out="00:00:02.200">
    <property name="length">00:00:02.217</property>
    <property name="eof">pause</property>
    <property name="resource">voiceovers/voiceover 10.webm</property>
    <property name="mlt_service">avformat-novalidate</property>
    <property name="meta.media.nb_streams">1</property>
    <property name="meta.media.0.stream.type">audio</property>
    <property name="meta.media.0.codec.sample_fmt">fltp</property>
    <property name="meta.media.0.codec.sample_rate">48000</property>
    <property name="meta.media.0.codec.channels">2</property>
    <property name="meta.media.0.codec.name">opus</property>
    <property name="meta.media.0.codec.long_name">Opus</property>
    <property name="meta.media.0.codec.bit_rate">0</property>
    <property name="meta.attr.0.stream.language.markup">eng</property>
    <property name="meta.attr.0.stream.title.markup">Audio</property>
    <property name="meta.attr.0.stream.DATE.markup">2023-12-01T11:00:00+08:00</property>
    <property name="meta.attr.0.stream.ENCODER.markup">Lavc60.3.100 libopus</property>
    <property name="meta.attr.0.stream.DURATION.markup">00:00:02.217000000</property>
    <property name="meta.attr.DATE.markup">2023-12-01T11:00:00+08:00</property>
    <property name="meta.attr.COMMENT.markup">Breaking Study Mis-strategies</property>
    <property name="meta.attr.ENCODED_BY.markup">Audacity 3.4.2/9dd60f25c6cd271879756ea57fd67e582fe17d91, FFmpeg 6.0-full_build-www.gyan.dev</property>
    <property name="meta.attr.ARTIST.markup">William So</property>
    <property name="meta.attr.AUTHOR.markup">William So</property>
    <property name="meta.attr.ENCODER.markup">Lavf60.3.100</property>
    <property name="seekable">1</property>
    <property name="audio_index">0</property>
    <property name="video_index">-1</property>
    <property name="creation_time">2023-12-01T03:01:17</property>
    <property name="astream">0</property>
    <property name="shotcut:hash">e239e0db476616666cc52077998641d2</property>
    <property name="shotcut:caption">voiceover 10.webm</property>
  </chain>
  <playlist id="playlist0">
    <property name="shotcut:audio">1</property>
    <property name="shotcut:name">A1</property>
    <property name="shotcut:lock">0</property>
    <blank length="00:00:01.000"/>
    <entry producer="chain0" in="00:00:00.000" out="00:00:15.267"/>
    <blank length="00:00:01.717"/>
    <entry producer="chain1" in="00:00:00.000" out="00:00:16.517"/>
    <blank length="00:00:04.467"/>
    <entry producer="chain2" in="00:00:00.000" out="00:00:23.267"/>
    <blank length="00:00:00.717"/>
    <entry producer="chain3" in="00:00:00.000" out="00:00:39.650"/>
    <blank length="00:00:00.833"/>
    <entry producer="chain4" in="00:00:39.667" out="00:01:03.233"/>
    <blank length="00:00:00.917"/>
    <entry producer="chain5" in="00:01:03.250" out="00:01:10.583"/>
    <blank length="00:00:04.650"/>
    <entry producer="chain6" in="00:00:00.000" out="00:00:36.283"/>
    <blank length="00:00:00.700"/>
    <entry producer="chain7" in="00:00:00.000" out="00:00:53.483"/>
    <blank length="00:00:04.500"/>
    <entry producer="chain8" in="00:00:00.000" out="00:00:56.150"/>
    <blank length="00:00:00.833"/>
    <entry producer="chain9" in="00:00:00.000" out="00:00:40.517"/>
    <blank length="00:00:00.467"/>
    <entry producer="chain10" in="00:00:00.000" out="00:00:13.367"/>
    <blank length="00:00:06.583"/>
    <entry producer="chain11" in="00:00:00.000" out="00:00:02.200"/>
  </playlist>
  <producer id="producer0" in="00:00:00.000" out="00:00:25.017">
    <property name="length">00:00:25.033</property>
    <property name="eof">pause</property>
    <property name="resource">0.85:heads/IMG_0069.MOV</property>
    <property name="aspect_ratio">1</property>
    <property name="meta.media.nb_streams">5</property>
    <property name="meta.media.0.stream.type">video</property>
    <property name="meta.media.0.stream.frame_rate">59.9624</property>
    <property name="meta.media.0.stream.sample_aspect_ratio">0</property>
    <property name="meta.media.0.codec.width">1920</property>
    <property name="meta.media.0.codec.height">1080</property>
    <property name="meta.media.0.codec.rotate">0</property>
    <property name="meta.media.0.codec.pix_fmt">yuv420p</property>
    <property name="meta.media.0.codec.sample_aspect_ratio">0</property>
    <property name="meta.media.0.codec.colorspace">709</property>
    <property name="meta.media.0.codec.color_trc">1</property>
    <property name="meta.media.0.codec.name">hevc</property>
    <property name="meta.media.0.codec.long_name">HEVC (High Efficiency Video Coding)</property>
    <property name="meta.media.0.codec.bit_rate">11747768</property>
    <property name="meta.attr.0.stream.creation_time.markup">2023-12-01T02:38:11.000000Z</property>
    <property name="meta.attr.0.stream.handler_name.markup">Core Media Video</property>
    <property name="meta.attr.0.stream.vendor_id.markup">[0][0][0][0]</property>
    <property name="meta.attr.0.stream.encoder.markup">HEVC</property>
    <property name="meta.media.1.stream.type">audio</property>
    <property name="meta.media.1.codec.sample_fmt">fltp</property>
    <property name="meta.media.1.codec.sample_rate">44100</property>
    <property name="meta.media.1.codec.channels">2</property>
    <property name="meta.media.1.codec.name">aac</property>
    <property name="meta.media.1.codec.long_name">AAC (Advanced Audio Coding)</property>
    <property name="meta.media.1.codec.bit_rate">162823</property>
    <property name="meta.attr.1.stream.creation_time.markup">2023-12-01T02:38:11.000000Z</property>
    <property name="meta.attr.1.stream.handler_name.markup">Core Media Audio</property>
    <property name="meta.attr.1.stream.vendor_id.markup">[0][0][0][0]</property>
    <property name="meta.attr.major_brand.markup">qt  </property>
    <property name="meta.attr.minor_version.markup">0</property>
    <property name="meta.attr.compatible_brands.markup">qt  </property>
    <property name="meta.attr.creation_time.markup">2023-12-01T02:38:11.000000Z</property>
    <property name="meta.attr.com.apple.quicktime.location.accuracy.horizontal.markup">6.627539</property>
    <property name="meta.attr.com.apple.quicktime.location.ISO6709.markup">+22.3358+114.2637/</property>
    <property name="meta.attr.com.apple.quicktime.make.markup">Apple</property>
    <property name="meta.attr.com.apple.quicktime.model.markup">iPhone 11</property>
    <property name="meta.attr.com.apple.quicktime.software.markup">17.0.3</property>
    <property name="meta.attr.com.apple.quicktime.creationdate.markup">2023-12-01T10:38:11+0800</property>
    <property name="seekable">1</property>
    <property name="meta.media.sample_aspect_num">1</property>
    <property name="meta.media.sample_aspect_den">1</property>
    <property name="audio_index">1</property>
    <property name="video_index">0</property>
    <property name="warp_speed">0.85</property>
    <property name="warp_resource">heads/IMG_0069.MOV</property>
    <property name="mlt_service">timewarp</property>
    <property name="shotcut:producer">avformat</property>
    <property name="video_delay">0</property>
    <property name="astream">0</property>
    <property name="vstream">0</property>
    <property name="shotcut:hash">ae915bb1fa4d53d7cf99a7323784f8fb</property>
    <property name="shotcut:caption">IMG_0069.MOV (0.85x)</property>
    <property name="xml">was here</property>
    <property name="meta.media.frame_rate_num">7975</property>
    <property name="meta.media.frame_rate_den">133</property>
    <property name="meta.media.colorspace">709</property>
    <property name="meta.media.color_trc">1</property>
    <property name="meta.media.has_b_frames">2</property>
    <property name="meta.media.width">1920</property>
    <property name="meta.media.height">1080</property>
    <property name="meta.media.color_range">mpeg</property>
    <property name="meta.media.top_field_first">0</property>
    <property name="meta.media.progressive">1</property>
    <filter id="filter0" out="00:00:02.933">
      <property name="start">1</property>
      <property name="level">00:00:00.000=0;00:00:00.983=1</property>
      <property name="mlt_service">brightness</property>
      <property name="shotcut:filter">fadeInBrightness</property>
      <property name="alpha">1</property>
      <property name="shotcut:animIn">00:00:01.000</property>
    </filter>
    <filter id="filter1" out="00:00:02.933">
      <property name="window">75</property>
      <property name="max_gain">20dB</property>
      <property name="mlt_service">volume</property>
      <property name="shotcut:filter">muteVolume</property>
      <property name="gain">0</property>
    </filter>
  </producer>
  <chain id="chain12" out="00:00:21.267">
    <property name="length">00:00:21.283</property>
    <property name="eof">pause</property>
    <property name="resource">heads/IMG_0069.MOV</property>
    <property name="mlt_service">avformat-novalidate</property>
    <property name="meta.media.nb_streams">5</property>
    <property name="meta.media.0.stream.type">video</property>
    <property name="meta.media.0.stream.frame_rate">59.9624</property>
    <property name="meta.media.0.stream.sample_aspect_ratio">0</property>
    <property name="meta.media.0.codec.width">1920</property>
    <property name="meta.media.0.codec.height">1080</property>
    <property name="meta.media.0.codec.rotate">0</property>
    <property name="meta.media.0.codec.pix_fmt">yuv420p</property>
    <property name="meta.media.0.codec.sample_aspect_ratio">0</property>
    <property name="meta.media.0.codec.colorspace">709</property>
    <property name="meta.media.0.codec.color_trc">1</property>
    <property name="meta.media.0.codec.name">hevc</property>
    <property name="meta.media.0.codec.long_name">HEVC (High Efficiency Video Coding)</property>
    <property name="meta.media.0.codec.bit_rate">11747768</property>
    <property name="meta.attr.0.stream.creation_time.markup">2023-12-01T02:38:11.000000Z</property>
    <property name="meta.attr.0.stream.handler_name.markup">Core Media Video</property>
    <property name="meta.attr.0.stream.vendor_id.markup">[0][0][0][0]</property>
    <property name="meta.attr.0.stream.encoder.markup">HEVC</property>
    <property name="meta.media.1.stream.type">audio</property>
    <property name="meta.media.1.codec.sample_fmt">fltp</property>
    <property name="meta.media.1.codec.sample_rate">44100</property>
    <property name="meta.media.1.codec.channels">2</property>
    <property name="meta.media.1.codec.name">aac</property>
    <property name="meta.media.1.codec.long_name">AAC (Advanced Audio Coding)</property>
    <property name="meta.media.1.codec.bit_rate">162823</property>
    <property name="meta.attr.1.stream.creation_time.markup">2023-12-01T02:38:11.000000Z</property>
    <property name="meta.attr.1.stream.handler_name.markup">Core Media Audio</property>
    <property name="meta.attr.1.stream.vendor_id.markup">[0][0][0][0]</property>
    <property name="meta.attr.major_brand.markup">qt  </property>
    <property name="meta.attr.minor_version.markup">0</property>
    <property name="meta.attr.compatible_brands.markup">qt  </property>
    <property name="meta.attr.creation_time.markup">2023-12-01T02:38:11.000000Z</property>
    <property name="meta.attr.com.apple.quicktime.location.accuracy.horizontal.markup">6.627539</property>
    <property name="meta.attr.com.apple.quicktime.location.ISO6709.markup">+22.3358+114.2637/</property>
    <property name="meta.attr.com.apple.quicktime.make.markup">Apple</property>
    <property name="meta.attr.com.apple.quicktime.model.markup">iPhone 11</property>
    <property name="meta.attr.com.apple.quicktime.software.markup">17.0.3</property>
    <property name="meta.attr.com.apple.quicktime.creationdate.markup">2023-12-01T10:38:11+0800</property>
    <property name="seekable">1</property>
    <property name="meta.media.sample_aspect_num">1</property>
    <property name="meta.media.sample_aspect_den">1</property>
    <property name="audio_index">1</property>
    <property name="video_index">0</property>
    <property name="creation_time">2023-12-01T02:38:11</property>
    <property name="vstream">0</property>
    <property name="meta.media.frame_rate_num">7975</property>
    <property name="meta.media.frame_rate_den">133</property>
    <property name="meta.media.colorspace">709</property>
    <property name="meta.media.color_trc">1</property>
    <property name="meta.media.has_b_frames">2</property>
    <property name="meta.media.width">1920</property>
    <property name="meta.media.height">1080</property>
    <property name="meta.media.color_range">mpeg</property>
    <property name="astream">0</property>
    <property name="shotcut:hash">ae915bb1fa4d53d7cf99a7323784f8fb</property>
    <property name="meta.media.top_field_first">0</property>
    <property name="meta.media.progressive">1</property>
    <property name="shotcut:caption">IMG_0069.MOV</property>
    <property name="xml">was here</property>
    <filter id="filter2" in="00:00:02.500" out="00:00:05.033">
      <property name="window">75</property>
      <property name="max_gain">20dB</property>
      <property name="mlt_service">volume</property>
      <property name="shotcut:filter">muteVolume</property>
      <property name="gain">0</property>
    </filter>
  </chain>
  <producer id="producer1" in="00:00:00.000" out="00:00:17.717">
    <property name="length">00:00:17.733</property>
    <property name="eof">pause</property>
    <property name="resource">1.2:heads/IMG_0069.MOV</property>
    <property name="aspect_ratio">1</property>
    <property name="meta.media.nb_streams">5</property>
    <property name="meta.media.0.stream.type">video</property>
    <property name="meta.media.0.stream.frame_rate">59.9624</property>
    <property name="meta.media.0.stream.sample_aspect_ratio">0</property>
    <property name="meta.media.0.codec.width">1920</property>
    <property name="meta.media.0.codec.height">1080</property>
    <property name="meta.media.0.codec.rotate">0</property>
    <property name="meta.media.0.codec.pix_fmt">yuv420p</property>
    <property name="meta.media.0.codec.sample_aspect_ratio">0</property>
    <property name="meta.media.0.codec.colorspace">709</property>
    <property name="meta.media.0.codec.color_trc">1</property>
    <property name="meta.media.0.codec.name">hevc</property>
    <property name="meta.media.0.codec.long_name">HEVC (High Efficiency Video Coding)</property>
    <property name="meta.media.0.codec.bit_rate">11747768</property>
    <property name="meta.attr.0.stream.creation_time.markup">2023-12-01T02:38:11.000000Z</property>
    <property name="meta.attr.0.stream.handler_name.markup">Core Media Video</property>
    <property name="meta.attr.0.stream.vendor_id.markup">[0][0][0][0]</property>
    <property name="meta.attr.0.stream.encoder.markup">HEVC</property>
    <property name="meta.media.1.stream.type">audio</property>
    <property name="meta.media.1.codec.sample_fmt">fltp</property>
    <property name="meta.media.1.codec.sample_rate">44100</property>
    <property name="meta.media.1.codec.channels">2</property>
    <property name="meta.media.1.codec.name">aac</property>
    <property name="meta.media.1.codec.long_name">AAC (Advanced Audio Coding)</property>
    <property name="meta.media.1.codec.bit_rate">162823</property>
    <property name="meta.attr.1.stream.creation_time.markup">2023-12-01T02:38:11.000000Z</property>
    <property name="meta.attr.1.stream.handler_name.markup">Core Media Audio</property>
    <property name="meta.attr.1.stream.vendor_id.markup">[0][0][0][0]</property>
    <property name="meta.attr.major_brand.markup">qt  </property>
    <property name="meta.attr.minor_version.markup">0</property>
    <property name="meta.attr.compatible_brands.markup">qt  </property>
    <property name="meta.attr.creation_time.markup">2023-12-01T02:38:11.000000Z</property>
    <property name="meta.attr.com.apple.quicktime.location.accuracy.horizontal.markup">6.627539</property>
    <property name="meta.attr.com.apple.quicktime.location.ISO6709.markup">+22.3358+114.2637/</property>
    <property name="meta.attr.com.apple.quicktime.make.markup">Apple</property>
    <property name="meta.attr.com.apple.quicktime.model.markup">iPhone 11</property>
    <property name="meta.attr.com.apple.quicktime.software.markup">17.0.3</property>
    <property name="meta.attr.com.apple.quicktime.creationdate.markup">2023-12-01T10:38:11+0800</property>
    <property name="seekable">1</property>
    <property name="meta.media.sample_aspect_num">1</property>
    <property name="meta.media.sample_aspect_den">1</property>
    <property name="audio_index">1</property>
    <property name="video_index">0</property>
    <property name="warp_speed">1.2</property>
    <property name="warp_resource">heads/IMG_0069.MOV</property>
    <property name="mlt_service">timewarp</property>
    <property name="shotcut:producer">avformat</property>
    <property name="video_delay">0</property>
    <property name="astream">0</property>
    <property name="vstream">0</property>
    <property name="shotcut:hash">ae915bb1fa4d53d7cf99a7323784f8fb</property>
    <property name="shotcut:caption">IMG_0069.MOV (1.2x)</property>
    <property name="xml">was here</property>
    <property name="meta.media.frame_rate_num">7975</property>
    <property name="meta.media.frame_rate_den">133</property>
    <property name="meta.media.colorspace">709</property>
    <property name="meta.media.color_trc">1</property>
    <property name="meta.media.has_b_frames">2</property>
    <property name="meta.media.width">1920</property>
    <property name="meta.media.height">1080</property>
    <property name="meta.media.color_range">mpeg</property>
    <property name="meta.media.top_field_first">0</property>
    <property name="meta.media.progressive">1</property>
    <filter id="filter3" in="00:00:04.217" out="00:00:16.700">
      <property name="window">75</property>
      <property name="max_gain">20dB</property>
      <property name="mlt_service">volume</property>
      <property name="shotcut:filter">muteVolume</property>
      <property name="gain">0</property>
    </filter>
  </producer>
  <producer id="producer2" in="00:00:00.000" out="00:05:04.033">
    <property name="length">00:05:04.050</property>
    <property name="eof">pause</property>
    <property name="resource">0.07:heads/IMG_0069.MOV</property>
    <property name="aspect_ratio">1</property>
    <property name="meta.media.nb_streams">5</property>
    <property name="meta.media.0.stream.type">video</property>
    <property name="meta.media.0.stream.frame_rate">59.9624</property>
    <property name="meta.media.0.stream.sample_aspect_ratio">0</property>
    <property name="meta.media.0.codec.width">1920</property>
    <property name="meta.media.0.codec.height">1080</property>
    <property name="meta.media.0.codec.rotate">0</property>
    <property name="meta.media.0.codec.pix_fmt">yuv420p</property>
    <property name="meta.media.0.codec.sample_aspect_ratio">0</property>
    <property name="meta.media.0.codec.colorspace">709</property>
    <property name="meta.media.0.codec.color_trc">1</property>
    <property name="meta.media.0.codec.name">hevc</property>
    <property name="meta.media.0.codec.long_name">HEVC (High Efficiency Video Coding)</property>
    <property name="meta.media.0.codec.bit_rate">11747768</property>
    <property name="meta.attr.0.stream.creation_time.markup">2023-12-01T02:38:11.000000Z</property>
    <property name="meta.attr.0.stream.handler_name.markup">Core Media Video</property>
    <property name="meta.attr.0.stream.vendor_id.markup">[0][0][0][0]</property>
    <property name="meta.attr.0.stream.encoder.markup">HEVC</property>
    <property name="meta.media.1.stream.type">audio</property>
    <property name="meta.media.1.codec.sample_fmt">fltp</property>
    <property name="meta.media.1.codec.sample_rate">44100</property>
    <property name="meta.media.1.codec.channels">2</property>
    <property name="meta.media.1.codec.name">aac</property>
    <property name="meta.media.1.codec.long_name">AAC (Advanced Audio Coding)</property>
    <property name="meta.media.1.codec.bit_rate">162823</property>
    <property name="meta.attr.1.stream.creation_time.markup">2023-12-01T02:38:11.000000Z</property>
    <property name="meta.attr.1.stream.handler_name.markup">Core Media Audio</property>
    <property name="meta.attr.1.stream.vendor_id.markup">[0][0][0][0]</property>
    <property name="meta.attr.major_brand.markup">qt  </property>
    <property name="meta.attr.minor_version.markup">0</property>
    <property name="meta.attr.compatible_brands.markup">qt  </property>
    <property name="meta.attr.creation_time.markup">2023-12-01T02:38:11.000000Z</property>
    <property name="meta.attr.com.apple.quicktime.location.accuracy.horizontal.markup">6.627539</property>
    <property name="meta.attr.com.apple.quicktime.location.ISO6709.markup">+22.3358+114.2637/</property>
    <property name="meta.attr.com.apple.quicktime.make.markup">Apple</property>
    <property name="meta.attr.com.apple.quicktime.model.markup">iPhone 11</property>
    <property name="meta.attr.com.apple.quicktime.software.markup">17.0.3</property>
    <property name="meta.attr.com.apple.quicktime.creationdate.markup">2023-12-01T10:38:11+0800</property>
    <property name="seekable">1</property>
    <property name="meta.media.sample_aspect_num">1</property>
    <property name="meta.media.sample_aspect_den">1</property>
    <property name="audio_index">1</property>
    <property name="video_index">0</property>
    <property name="warp_speed">0.07</property>
    <property name="warp_resource">heads/IMG_0069.MOV</property>
    <property name="mlt_service">timewarp</property>
    <property name="shotcut:producer">avformat</property>
    <property name="video_delay">0</property>
    <property name="astream">0</property>
    <property name="vstream">0</property>
    <property name="shotcut:hash">ae915bb1fa4d53d7cf99a7323784f8fb</property>
    <property name="shotcut:caption">IMG_0069.MOV (0.07x)</property>
    <property name="xml">was here</property>
    <property name="meta.media.frame_rate_num">7975</property>
    <property name="meta.media.frame_rate_den">133</property>
    <property name="meta.media.colorspace">709</property>
    <property name="meta.media.color_trc">1</property>
    <property name="meta.media.has_b_frames">2</property>
    <property name="meta.media.width">1920</property>
    <property name="meta.media.height">1080</property>
    <property name="meta.media.color_range">mpeg</property>
    <property name="meta.media.top_field_first">0</property>
    <property name="meta.media.progressive">1</property>
    <filter id="filter4" in="00:04:46.550" out="00:05:03.533">
      <property name="mlt_service">avfilter.gblur</property>
      <property name="shotcut:filter">blur_gaussian_av</property>
      <property name="av.sigma">00:00:00.000=0;00:00:02.000=25</property>
      <property name="av.sigmaV">00:00:00.000=0;00:00:02.000=25</property>
      <property name="av.planes">0xf</property>
    </filter>
    <filter id="filter5" in="00:04:46.550" out="00:05:03.533">
      <property name="window">75</property>
      <property name="max_gain">20dB</property>
      <property name="mlt_service">volume</property>
      <property name="shotcut:filter">muteVolume</property>
      <property name="gain">0</property>
    </filter>
  </producer>
  <producer id="producer3" in="00:00:00.000" out="00:01:37.483">
    <property name="length">00:01:37.500</property>
    <property name="eof">pause</property>
    <property name="resource">0.1:backgrounds/pexels-oleg-lehnitsky-7898696 (1080p).mp4</property>
    <property name="aspect_ratio">1</property>
    <property name="meta.media.nb_streams">2</property>
    <property name="meta.media.0.stream.type">video</property>
    <property name="meta.media.0.stream.frame_rate">30</property>
    <property name="meta.media.0.stream.sample_aspect_ratio">0</property>
    <property name="meta.media.0.codec.width">1920</property>
    <property name="meta.media.0.codec.height">1080</property>
    <property name="meta.media.0.codec.rotate">0</property>
    <property name="meta.media.0.codec.pix_fmt">yuv420p</property>
    <property name="meta.media.0.codec.sample_aspect_ratio">0</property>
    <property name="meta.media.0.codec.colorspace">709</property>
    <property name="meta.media.0.codec.color_trc">1</property>
    <property name="meta.media.0.codec.name">h264</property>
    <property name="meta.media.0.codec.long_name">H.264 / AVC / MPEG-4 AVC / MPEG-4 part 10</property>
    <property name="meta.media.0.codec.bit_rate">4904164</property>
    <property name="meta.attr.0.stream.creation_time.markup">2021-05-14T12:54:42.000000Z</property>
    <property name="meta.attr.0.stream.handler_name.markup">L-SMASH Video Handler</property>
    <property name="meta.attr.0.stream.vendor_id.markup">[0][0][0][0]</property>
    <property name="meta.attr.0.stream.encoder.markup">AVC Coding</property>
    <property name="meta.media.1.stream.type">audio</property>
    <property name="meta.media.1.codec.sample_fmt">fltp</property>
    <property name="meta.media.1.codec.sample_rate">48000</property>
    <property name="meta.media.1.codec.channels">2</property>
    <property name="meta.media.1.codec.name">aac</property>
    <property name="meta.media.1.codec.long_name">AAC (Advanced Audio Coding)</property>
    <property name="meta.media.1.codec.bit_rate">253375</property>
    <property name="meta.attr.1.stream.creation_time.markup">2021-05-14T12:54:42.000000Z</property>
    <property name="meta.attr.1.stream.handler_name.markup">L-SMASH Audio Handler</property>
    <property name="meta.attr.1.stream.vendor_id.markup">[0][0][0][0]</property>
    <property name="meta.attr.major_brand.markup">mp42</property>
    <property name="meta.attr.minor_version.markup">0</property>
    <property name="meta.attr.compatible_brands.markup">mp42mp41isomavc1</property>
    <property name="meta.attr.creation_time.markup">2021-05-14T12:54:42.000000Z</property>
    <property name="seekable">1</property>
    <property name="meta.media.sample_aspect_num">1</property>
    <property name="meta.media.sample_aspect_den">1</property>
    <property name="audio_index">1</property>
    <property name="video_index">0</property>
    <property name="warp_speed">0.1</property>
    <property name="warp_resource">backgrounds/pexels-oleg-lehnitsky-7898696 (1080p).mp4</property>
    <property name="mlt_service">timewarp</property>
    <property name="shotcut:producer">avformat</property>
    <property name="video_delay">0</property>
    <property name="astream">0</property>
    <property name="vstream">0</property>
    <property name="shotcut:hash">bfcae2a3f39f92facd3b94e7c1280d0e</property>
    <property name="shotcut:caption">pexels-oleg-lehnitsky-7898696 (1080p).mp4 (0.1x)</property>
    <property name="xml">was here</property>
    <property name="meta.media.frame_rate_num">30</property>
    <property name="meta.media.frame_rate_den">1</property>
    <property name="meta.media.colorspace">709</property>
    <property name="meta.media.color_trc">1</property>
    <property name="meta.media.has_b_frames">2</property>
    <property name="meta.media.width">1920</property>
    <property name="meta.media.height">1080</property>
    <property name="meta.media.color_range">mpeg</property>
    <property name="meta.media.top_field_first">0</property>
    <property name="meta.media.progressive">1</property>
    <property name="meta.shotcut.vui">1</property>
    <filter id="filter6" out="00:01:37.333">
      <property name="argument">Video by oleg lehnitsky</property>
      <property name="geometry">0 0 480 1080 1</property>
      <property name="family">Times New Roman</property>
      <property name="size">1080</property>
      <property name="weight">400</property>
      <property name="style">normal</property>
      <property name="fgcolour">#ffffffff</property>
      <property name="bgcolour">#00000000</property>
      <property name="olcolour">#aa000000</property>
      <property name="pad">0</property>
      <property name="halign">center</property>
      <property name="valign">bottom</property>
      <property name="outline">3</property>
      <property name="opacity">1.0</property>
      <property name="mlt_service">dynamictext</property>
      <property name="shotcut:filter">dynamicText</property>
      <property name="shotcut:usePointSize">0</property>
      <property name="shotcut:animIn">00:00:00.000</property>
      <property name="shotcut:animOut">00:00:00.000</property>
    </filter>
  </producer>
  <producer id="producer4" in="00:00:00.000" out="00:01:37.483">
    <property name="length">00:01:37.500</property>
    <property name="eof">pause</property>
    <property name="resource">0.1:backgrounds/pexels-oleg-lehnitsky-7898696 (1080p).mp4</property>
    <property name="aspect_ratio">1</property>
    <property name="meta.media.nb_streams">2</property>
    <property name="meta.media.0.stream.type">video</property>
    <property name="meta.media.0.stream.frame_rate">30</property>
    <property name="meta.media.0.stream.sample_aspect_ratio">0</property>
    <property name="meta.media.0.codec.width">1920</property>
    <property name="meta.media.0.codec.height">1080</property>
    <property name="meta.media.0.codec.rotate">0</property>
    <property name="meta.media.0.codec.pix_fmt">yuv420p</property>
    <property name="meta.media.0.codec.sample_aspect_ratio">0</property>
    <property name="meta.media.0.codec.colorspace">709</property>
    <property name="meta.media.0.codec.color_trc">1</property>
    <property name="meta.media.0.codec.name">h264</property>
    <property name="meta.media.0.codec.long_name">H.264 / AVC / MPEG-4 AVC / MPEG-4 part 10</property>
    <property name="meta.media.0.codec.bit_rate">4904164</property>
    <property name="meta.attr.0.stream.creation_time.markup">2021-05-14T12:54:42.000000Z</property>
    <property name="meta.attr.0.stream.handler_name.markup">L-SMASH Video Handler</property>
    <property name="meta.attr.0.stream.vendor_id.markup">[0][0][0][0]</property>
    <property name="meta.attr.0.stream.encoder.markup">AVC Coding</property>
    <property name="meta.media.1.stream.type">audio</property>
    <property name="meta.media.1.codec.sample_fmt">fltp</property>
    <property name="meta.media.1.codec.sample_rate">48000</property>
    <property name="meta.media.1.codec.channels">2</property>
    <property name="meta.media.1.codec.name">aac</property>
    <property name="meta.media.1.codec.long_name">AAC (Advanced Audio Coding)</property>
    <property name="meta.media.1.codec.bit_rate">253375</property>
    <property name="meta.attr.1.stream.creation_time.markup">2021-05-14T12:54:42.000000Z</property>
    <property name="meta.attr.1.stream.handler_name.markup">L-SMASH Audio Handler</property>
    <property name="meta.attr.1.stream.vendor_id.markup">[0][0][0][0]</property>
    <property name="meta.attr.major_brand.markup">mp42</property>
    <property name="meta.attr.minor_version.markup">0</property>
    <property name="meta.attr.compatible_brands.markup">mp42mp41isomavc1</property>
    <property name="meta.attr.creation_time.markup">2021-05-14T12:54:42.000000Z</property>
    <property name="seekable">1</property>
    <property name="meta.media.sample_aspect_num">1</property>
    <property name="meta.media.sample_aspect_den">1</property>
    <property name="audio_index">1</property>
    <property name="video_index">0</property>
    <property name="warp_speed">0.1</property>
    <property name="warp_resource">backgrounds/pexels-oleg-lehnitsky-7898696 (1080p).mp4</property>
    <property name="mlt_service">timewarp</property>
    <property name="shotcut:producer">avformat</property>
    <property name="video_delay">0</property>
    <property name="astream">0</property>
    <property name="vstream">0</property>
    <property name="shotcut:hash">bfcae2a3f39f92facd3b94e7c1280d0e</property>
    <property name="shotcut:caption">pexels-oleg-lehnitsky-7898696 (1080p).mp4 (0.1x)</property>
    <property name="xml">was here</property>
    <property name="meta.media.frame_rate_num">30</property>
    <property name="meta.media.frame_rate_den">1</property>
    <property name="meta.media.colorspace">709</property>
    <property name="meta.media.color_trc">1</property>
    <property name="meta.media.has_b_frames">2</property>
    <property name="meta.media.width">1920</property>
    <property name="meta.media.height">1080</property>
    <property name="meta.media.color_range">mpeg</property>
    <property name="meta.media.top_field_first">0</property>
    <property name="meta.media.progressive">1</property>
    <property name="meta.shotcut.vui">1</property>
    <filter id="filter7" out="00:01:37.333">
      <property name="argument">Video by oleg lehnitsky</property>
      <property name="geometry">0 0 480 1080 1</property>
      <property name="family">Times New Roman</property>
      <property name="size">1080</property>
      <property name="weight">400</property>
      <property name="style">normal</property>
      <property name="fgcolour">#ffffffff</property>
      <property name="bgcolour">#00000000</property>
      <property name="olcolour">#aa000000</property>
      <property name="pad">0</property>
      <property name="halign">center</property>
      <property name="valign">bottom</property>
      <property name="outline">3</property>
      <property name="opacity">1.0</property>
      <property name="mlt_service">dynamictext</property>
      <property name="shotcut:filter">dynamicText</property>
      <property name="shotcut:usePointSize">0</property>
      <property name="shotcut:animIn">00:00:00.000</property>
      <property name="shotcut:animOut">00:00:00.000</property>
    </filter>
  </producer>
  <producer id="producer5" in="00:00:00.000" out="00:01:37.483">
    <property name="length">00:01:37.500</property>
    <property name="eof">pause</property>
    <property name="resource">0.1:backgrounds/pexels-oleg-lehnitsky-7898696 (1080p).mp4</property>
    <property name="aspect_ratio">1</property>
    <property name="meta.media.nb_streams">2</property>
    <property name="meta.media.0.stream.type">video</property>
    <property name="meta.media.0.stream.frame_rate">30</property>
    <property name="meta.media.0.stream.sample_aspect_ratio">0</property>
    <property name="meta.media.0.codec.width">1920</property>
    <property name="meta.media.0.codec.height">1080</property>
    <property name="meta.media.0.codec.rotate">0</property>
    <property name="meta.media.0.codec.pix_fmt">yuv420p</property>
    <property name="meta.media.0.codec.sample_aspect_ratio">0</property>
    <property name="meta.media.0.codec.colorspace">709</property>
    <property name="meta.media.0.codec.color_trc">1</property>
    <property name="meta.media.0.codec.name">h264</property>
    <property name="meta.media.0.codec.long_name">H.264 / AVC / MPEG-4 AVC / MPEG-4 part 10</property>
    <property name="meta.media.0.codec.bit_rate">4904164</property>
    <property name="meta.attr.0.stream.creation_time.markup">2021-05-14T12:54:42.000000Z</property>
    <property name="meta.attr.0.stream.handler_name.markup">L-SMASH Video Handler</property>
    <property name="meta.attr.0.stream.vendor_id.markup">[0][0][0][0]</property>
    <property name="meta.attr.0.stream.encoder.markup">AVC Coding</property>
    <property name="meta.media.1.stream.type">audio</property>
    <property name="meta.media.1.codec.sample_fmt">fltp</property>
    <property name="meta.media.1.codec.sample_rate">48000</property>
    <property name="meta.media.1.codec.channels">2</property>
    <property name="meta.media.1.codec.name">aac</property>
    <property name="meta.media.1.codec.long_name">AAC (Advanced Audio Coding)</property>
    <property name="meta.media.1.codec.bit_rate">253375</property>
    <property name="meta.attr.1.stream.creation_time.markup">2021-05-14T12:54:42.000000Z</property>
    <property name="meta.attr.1.stream.handler_name.markup">L-SMASH Audio Handler</property>
    <property name="meta.attr.1.stream.vendor_id.markup">[0][0][0][0]</property>
    <property name="meta.attr.major_brand.markup">mp42</property>
    <property name="meta.attr.minor_version.markup">0</property>
    <property name="meta.attr.compatible_brands.markup">mp42mp41isomavc1</property>
    <property name="meta.attr.creation_time.markup">2021-05-14T12:54:42.000000Z</property>
    <property name="seekable">1</property>
    <property name="meta.media.sample_aspect_num">1</property>
    <property name="meta.media.sample_aspect_den">1</property>
    <property name="audio_index">1</property>
    <property name="video_index">0</property>
    <property name="warp_speed">0.1</property>
    <property name="warp_resource">backgrounds/pexels-oleg-lehnitsky-7898696 (1080p).mp4</property>
    <property name="mlt_service">timewarp</property>
    <property name="shotcut:producer">avformat</property>
    <property name="video_delay">0</property>
    <property name="astream">0</property>
    <property name="vstream">0</property>
    <property name="shotcut:hash">bfcae2a3f39f92facd3b94e7c1280d0e</property>
    <property name="shotcut:caption">pexels-oleg-lehnitsky-7898696 (1080p).mp4 (0.1x)</property>
    <property name="xml">was here</property>
    <property name="meta.media.frame_rate_num">30</property>
    <property name="meta.media.frame_rate_den">1</property>
    <property name="meta.media.colorspace">709</property>
    <property name="meta.media.color_trc">1</property>
    <property name="meta.media.has_b_frames">2</property>
    <property name="meta.media.width">1920</property>
    <property name="meta.media.height">1080</property>
    <property name="meta.media.color_range">mpeg</property>
    <property name="meta.media.top_field_first">0</property>
    <property name="meta.media.progressive">1</property>
    <property name="meta.shotcut.vui">1</property>
    <filter id="filter8" out="00:01:37.333">
      <property name="argument">Video by oleg lehnitsky</property>
      <property name="geometry">0 0 480 1080 1</property>
      <property name="family">Times New Roman</property>
      <property name="size">1080</property>
      <property name="weight">400</property>
      <property name="style">normal</property>
      <property name="fgcolour">#ffffffff</property>
      <property name="bgcolour">#00000000</property>
      <property name="olcolour">#aa000000</property>
      <property name="pad">0</property>
      <property name="halign">center</property>
      <property name="valign">bottom</property>
      <property name="outline">3</property>
      <property name="opacity">1.0</property>
      <property name="mlt_service">dynamictext</property>
      <property name="shotcut:filter">dynamicText</property>
      <property name="shotcut:usePointSize">0</property>
      <property name="shotcut:animIn">00:00:00.000</property>
      <property name="shotcut:animOut">00:00:00.000</property>
    </filter>
  </producer>
  <producer id="producer6" in="00:00:00.000" out="00:01:37.483">
    <property name="length">00:01:37.500</property>
    <property name="eof">pause</property>
    <property name="resource">0.1:backgrounds/pexels-oleg-lehnitsky-7898696 (1080p).mp4</property>
    <property name="aspect_ratio">1</property>
    <property name="meta.media.nb_streams">2</property>
    <property name="meta.media.0.stream.type">video</property>
    <property name="meta.media.0.stream.frame_rate">30</property>
    <property name="meta.media.0.stream.sample_aspect_ratio">0</property>
    <property name="meta.media.0.codec.width">1920</property>
    <property name="meta.media.0.codec.height">1080</property>
    <property name="meta.media.0.codec.rotate">0</property>
    <property name="meta.media.0.codec.pix_fmt">yuv420p</property>
    <property name="meta.media.0.codec.sample_aspect_ratio">0</property>
    <property name="meta.media.0.codec.colorspace">709</property>
    <property name="meta.media.0.codec.color_trc">1</property>
    <property name="meta.media.0.codec.name">h264</property>
    <property name="meta.media.0.codec.long_name">H.264 / AVC / MPEG-4 AVC / MPEG-4 part 10</property>
    <property name="meta.media.0.codec.bit_rate">4904164</property>
    <property name="meta.attr.0.stream.creation_time.markup">2021-05-14T12:54:42.000000Z</property>
    <property name="meta.attr.0.stream.handler_name.markup">L-SMASH Video Handler</property>
    <property name="meta.attr.0.stream.vendor_id.markup">[0][0][0][0]</property>
    <property name="meta.attr.0.stream.encoder.markup">AVC Coding</property>
    <property name="meta.media.1.stream.type">audio</property>
    <property name="meta.media.1.codec.sample_fmt">fltp</property>
    <property name="meta.media.1.codec.sample_rate">48000</property>
    <property name="meta.media.1.codec.channels">2</property>
    <property name="meta.media.1.codec.name">aac</property>
    <property name="meta.media.1.codec.long_name">AAC (Advanced Audio Coding)</property>
    <property name="meta.media.1.codec.bit_rate">253375</property>
    <property name="meta.attr.1.stream.creation_time.markup">2021-05-14T12:54:42.000000Z</property>
    <property name="meta.attr.1.stream.handler_name.markup">L-SMASH Audio Handler</property>
    <property name="meta.attr.1.stream.vendor_id.markup">[0][0][0][0]</property>
    <property name="meta.attr.major_brand.markup">mp42</property>
    <property name="meta.attr.minor_version.markup">0</property>
    <property name="meta.attr.compatible_brands.markup">mp42mp41isomavc1</property>
    <property name="meta.attr.creation_time.markup">2021-05-14T12:54:42.000000Z</property>
    <property name="seekable">1</property>
    <property name="meta.media.sample_aspect_num">1</property>
    <property name="meta.media.sample_aspect_den">1</property>
    <property name="audio_index">1</property>
    <property name="video_index">0</property>
    <property name="warp_speed">0.1</property>
    <property name="warp_resource">backgrounds/pexels-oleg-lehnitsky-7898696 (1080p).mp4</property>
    <property name="mlt_service">timewarp</property>
    <property name="shotcut:producer">avformat</property>
    <property name="video_delay">0</property>
    <property name="astream">0</property>
    <property name="vstream">0</property>
    <property name="shotcut:hash">bfcae2a3f39f92facd3b94e7c1280d0e</property>
    <property name="shotcut:caption">pexels-oleg-lehnitsky-7898696 (1080p).mp4 (0.1x)</property>
    <property name="xml">was here</property>
    <property name="meta.media.frame_rate_num">30</property>
    <property name="meta.media.frame_rate_den">1</property>
    <property name="meta.media.colorspace">709</property>
    <property name="meta.media.color_trc">1</property>
    <property name="meta.media.has_b_frames">2</property>
    <property name="meta.media.width">1920</property>
    <property name="meta.media.height">1080</property>
    <property name="meta.media.color_range">mpeg</property>
    <property name="meta.media.top_field_first">0</property>
    <property name="meta.media.progressive">1</property>
    <property name="meta.shotcut.vui">1</property>
    <filter id="filter9" out="00:00:16.933">
      <property name="argument">Video by oleg lehnitsky</property>
      <property name="geometry">0 0 480 1080 1</property>
      <property name="family">Times New Roman</property>
      <property name="size">1080</property>
      <property name="weight">400</property>
      <property name="style">normal</property>
      <property name="fgcolour">#ffffffff</property>
      <property name="bgcolour">#00000000</property>
      <property name="olcolour">#aa000000</property>
      <property name="pad">0</property>
      <property name="halign">center</property>
      <property name="valign">bottom</property>
      <property name="outline">3</property>
      <property name="opacity">1.0</property>
      <property name="mlt_service">dynamictext</property>
      <property name="shotcut:filter">dynamicText</property>
      <property name="shotcut:usePointSize">0</property>
      <property name="shotcut:animIn">00:00:00.000</property>
      <property name="shotcut:animOut">00:00:00.000</property>
    </filter>
  </producer>
  <producer id="producer8" in="00:00:00.000" out="03:59:59.983">
    <property name="length">04:00:00.000</property>
    <property name="eof">pause</property>
    <property name="resource">#FF000000</property>
    <property name="aspect_ratio">1</property>
    <property name="mlt_service">color</property>
    <property name="mlt_image_format">rgba</property>
    <property name="shotcut:caption">#FF000000</property>
    <property name="shotcut:detail">#FF000000</property>
    <property name="xml">was here</property>
    <property name="seekable">1</property>
    <property name="meta.shotcut.vui">1</property>
  </producer>
  <chain id="chain13" out="00:00:07.850">
    <property name="length">00:00:07.867</property>
    <property name="eof">pause</property>
    <property name="resource">heads/IMG_0070.MOV</property>
    <property name="mlt_service">avformat-novalidate</property>
    <property name="meta.media.nb_streams">5</property>
    <property name="meta.media.0.stream.type">video</property>
    <property name="meta.media.0.stream.frame_rate">59.9619</property>
    <property name="meta.media.0.stream.sample_aspect_ratio">0</property>
    <property name="meta.media.0.codec.width">1920</property>
    <property name="meta.media.0.codec.height">1080</property>
    <property name="meta.media.0.codec.rotate">0</property>
    <property name="meta.media.0.codec.pix_fmt">yuv420p</property>
    <property name="meta.media.0.codec.sample_aspect_ratio">0</property>
    <property name="meta.media.0.codec.colorspace">709</property>
    <property name="meta.media.0.codec.color_trc">1</property>
    <property name="meta.media.0.codec.name">hevc</property>
    <property name="meta.media.0.codec.long_name">HEVC (High Efficiency Video Coding)</property>
    <property name="meta.media.0.codec.bit_rate">11654784</property>
    <property name="meta.attr.0.stream.creation_time.markup">2023-12-01T02:39:17.000000Z</property>
    <property name="meta.attr.0.stream.handler_name.markup">Core Media Video</property>
    <property name="meta.attr.0.stream.vendor_id.markup">[0][0][0][0]</property>
    <property name="meta.attr.0.stream.encoder.markup">HEVC</property>
    <property name="meta.media.1.stream.type">audio</property>
    <property name="meta.media.1.codec.sample_fmt">fltp</property>
    <property name="meta.media.1.codec.sample_rate">44100</property>
    <property name="meta.media.1.codec.channels">2</property>
    <property name="meta.media.1.codec.name">aac</property>
    <property name="meta.media.1.codec.long_name">AAC (Advanced Audio Coding)</property>
    <property name="meta.media.1.codec.bit_rate">163517</property>
    <property name="meta.attr.1.stream.creation_time.markup">2023-12-01T02:39:17.000000Z</property>
    <property name="meta.attr.1.stream.handler_name.markup">Core Media Audio</property>
    <property name="meta.attr.1.stream.vendor_id.markup">[0][0][0][0]</property>
    <property name="meta.attr.major_brand.markup">qt  </property>
    <property name="meta.attr.minor_version.markup">0</property>
    <property name="meta.attr.compatible_brands.markup">qt  </property>
    <property name="meta.attr.creation_time.markup">2023-12-01T02:39:17.000000Z</property>
    <property name="meta.attr.com.apple.quicktime.location.accuracy.horizontal.markup">3.551419</property>
    <property name="meta.attr.com.apple.quicktime.location.ISO6709.markup">+22.3358+114.2637/</property>
    <property name="meta.attr.com.apple.quicktime.make.markup">Apple</property>
    <property name="meta.attr.com.apple.quicktime.model.markup">iPhone 11</property>
    <property name="meta.attr.com.apple.quicktime.software.markup">17.0.3</property>
    <property name="meta.attr.com.apple.quicktime.creationdate.markup">2023-12-01T10:39:17+0800</property>
    <property name="seekable">1</property>
    <property name="meta.media.sample_aspect_num">1</property>
    <property name="meta.media.sample_aspect_den">1</property>
    <property name="audio_index">1</property>
    <property name="video_index">0</property>
    <property name="creation_time">2023-12-01T02:39:17</property>
    <property name="vstream">0</property>
    <property name="meta.media.frame_rate_num">283200</property>
    <property name="meta.media.frame_rate_den">4723</property>
    <property name="meta.media.colorspace">709</property>
    <property name="meta.media.color_trc">1</property>
    <property name="meta.media.has_b_frames">2</property>
    <property name="meta.media.width">1920</property>
    <property name="meta.media.height">1080</property>
    <property name="meta.media.color_range">mpeg</property>
    <property name="astream">0</property>
    <property name="shotcut:hash">3e5e926b5078b7a7f65cf0d20cefcb7a</property>
    <property name="meta.media.top_field_first">0</property>
    <property name="meta.media.progressive">1</property>
    <property name="shotcut:caption">IMG_0070.MOV</property>
    <property name="xml">was here</property>
    <filter id="filter10" in="00:00:01.500" out="00:00:03.483">
      <property name="window">75</property>
      <property name="max_gain">20dB</property>
      <property name="mlt_service">volume</property>
      <property name="shotcut:filter">muteVolume</property>
      <property name="gain">0</property>
    </filter>
  </chain>
  <chain id="chain43" out="00:00:05.433">
    <property name="length">00:00:05.450</property>
    <property name="eof">pause</property>
    <property name="resource">heads/IMG_0071.MOV</property>
    <property name="mlt_service">avformat-novalidate</property>
    <property name="meta.media.nb_streams">5</property>
    <property name="meta.media.0.stream.type">video</property>
    <property name="meta.media.0.stream.frame_rate">59.9633</property>
    <property name="meta.media.0.stream.sample_aspect_ratio">0</property>
    <property name="meta.media.0.codec.width">1920</property>
    <property name="meta.media.0.codec.height">1080</property>
    <property name="meta.media.0.codec.rotate">0</property>
    <property name="meta.media.0.codec.pix_fmt">yuv420p</property>
    <property name="meta.media.0.codec.sample_aspect_ratio">0</property>
    <property name="meta.media.0.codec.colorspace">709</property>
    <property name="meta.media.0.codec.color_trc">1</property>
    <property name="meta.media.0.codec.name">hevc</property>
    <property name="meta.media.0.codec.long_name">HEVC (High Efficiency Video Coding)</property>
    <property name="meta.media.0.codec.bit_rate">21251867</property>
    <property name="meta.attr.0.stream.creation_time.markup">2023-12-01T03:21:53.000000Z</property>
    <property name="meta.attr.0.stream.handler_name.markup">Core Media Video</property>
    <property name="meta.attr.0.stream.vendor_id.markup">[0][0][0][0]</property>
    <property name="meta.attr.0.stream.encoder.markup">HEVC</property>
    <property name="meta.media.1.stream.type">audio</property>
    <property name="meta.media.1.codec.sample_fmt">fltp</property>
    <property name="meta.media.1.codec.sample_rate">44100</property>
    <property name="meta.media.1.codec.channels">2</property>
    <property name="meta.media.1.codec.name">aac</property>
    <property name="meta.media.1.codec.long_name">AAC (Advanced Audio Coding)</property>
    <property name="meta.media.1.codec.bit_rate">163227</property>
    <property name="meta.attr.1.stream.creation_time.markup">2023-12-01T03:21:53.000000Z</property>
    <property name="meta.attr.1.stream.handler_name.markup">Core Media Audio</property>
    <property name="meta.attr.1.stream.vendor_id.markup">[0][0][0][0]</property>
    <property name="meta.attr.major_brand.markup">qt  </property>
    <property name="meta.attr.minor_version.markup">0</property>
    <property name="meta.attr.compatible_brands.markup">qt  </property>
    <property name="meta.attr.creation_time.markup">2023-12-01T03:21:53.000000Z</property>
    <property name="meta.attr.com.apple.quicktime.location.accuracy.horizontal.markup">1.634273</property>
    <property name="meta.attr.com.apple.quicktime.location.ISO6709.markup">+22.3358+114.2636/</property>
    <property name="meta.attr.com.apple.quicktime.make.markup">Apple</property>
    <property name="meta.attr.com.apple.quicktime.model.markup">iPhone 11</property>
    <property name="meta.attr.com.apple.quicktime.software.markup">17.0.3</property>
    <property name="meta.attr.com.apple.quicktime.creationdate.markup">2023-12-01T11:21:53+0800</property>
    <property name="seekable">1</property>
    <property name="meta.media.sample_aspect_num">1</property>
    <property name="meta.media.sample_aspect_den">1</property>
    <property name="audio_index">1</property>
    <property name="video_index">0</property>
    <property name="creation_time">2023-12-01T03:21:53</property>
    <property name="vstream">0</property>
    <property name="meta.media.frame_rate_num">24525</property>
    <property name="meta.media.frame_rate_den">409</property>
    <property name="meta.media.colorspace">709</property>
    <property name="meta.media.color_trc">1</property>
    <property name="meta.media.has_b_frames">2</property>
    <property name="meta.media.width">1920</property>
    <property name="meta.media.height">1080</property>
    <property name="meta.media.color_range">mpeg</property>
    <property name="astream">0</property>
    <property name="shotcut:hash">c30e188da1b903fdb18a331b9fb270ca</property>
    <property name="meta.media.top_field_first">0</property>
    <property name="meta.media.progressive">1</property>
    <property name="shotcut:caption">IMG_0071.MOV</property>
    <property name="xml">was here</property>
    <filter id="filter11" out="00:00:00.983">
      <property name="window">75</property>
      <property name="max_gain">20dB</property>
      <property name="mlt_service">volume</property>
      <property name="shotcut:filter">muteVolume</property>
      <property name="gain">0</property>
    </filter>
  </chain>
  <chain id="chain14" out="00:00:07.850">
    <property name="length">00:00:07.867</property>
    <property name="eof">pause</property>
    <property name="resource">heads/IMG_0070.MOV</property>
    <property name="mlt_service">avformat-novalidate</property>
    <property name="meta.media.nb_streams">5</property>
    <property name="meta.media.0.stream.type">video</property>
    <property name="meta.media.0.stream.frame_rate">59.9619</property>
    <property name="meta.media.0.stream.sample_aspect_ratio">0</property>
    <property name="meta.media.0.codec.width">1920</property>
    <property name="meta.media.0.codec.height">1080</property>
    <property name="meta.media.0.codec.rotate">0</property>
    <property name="meta.media.0.codec.pix_fmt">yuv420p</property>
    <property name="meta.media.0.codec.sample_aspect_ratio">0</property>
    <property name="meta.media.0.codec.colorspace">709</property>
    <property name="meta.media.0.codec.color_trc">1</property>
    <property name="meta.media.0.codec.name">hevc</property>
    <property name="meta.media.0.codec.long_name">HEVC (High Efficiency Video Coding)</property>
    <property name="meta.media.0.codec.bit_rate">11654784</property>
    <property name="meta.attr.0.stream.creation_time.markup">2023-12-01T02:39:17.000000Z</property>
    <property name="meta.attr.0.stream.handler_name.markup">Core Media Video</property>
    <property name="meta.attr.0.stream.vendor_id.markup">[0][0][0][0]</property>
    <property name="meta.attr.0.stream.encoder.markup">HEVC</property>
    <property name="meta.media.1.stream.type">audio</property>
    <property name="meta.media.1.codec.sample_fmt">fltp</property>
    <property name="meta.media.1.codec.sample_rate">44100</property>
    <property name="meta.media.1.codec.channels">2</property>
    <property name="meta.media.1.codec.name">aac</property>
    <property name="meta.media.1.codec.long_name">AAC (Advanced Audio Coding)</property>
    <property name="meta.media.1.codec.bit_rate">163517</property>
    <property name="meta.attr.1.stream.creation_time.markup">2023-12-01T02:39:17.000000Z</property>
    <property name="meta.attr.1.stream.handler_name.markup">Core Media Audio</property>
    <property name="meta.attr.1.stream.vendor_id.markup">[0][0][0][0]</property>
    <property name="meta.attr.major_brand.markup">qt  </property>
    <property name="meta.attr.minor_version.markup">0</property>
    <property name="meta.attr.compatible_brands.markup">qt  </property>
    <property name="meta.attr.creation_time.markup">2023-12-01T02:39:17.000000Z</property>
    <property name="meta.attr.com.apple.quicktime.location.accuracy.horizontal.markup">3.551419</property>
    <property name="meta.attr.com.apple.quicktime.location.ISO6709.markup">+22.3358+114.2637/</property>
    <property name="meta.attr.com.apple.quicktime.make.markup">Apple</property>
    <property name="meta.attr.com.apple.quicktime.model.markup">iPhone 11</property>
    <property name="meta.attr.com.apple.quicktime.software.markup">17.0.3</property>
    <property name="meta.attr.com.apple.quicktime.creationdate.markup">2023-12-01T10:39:17+0800</property>
    <property name="seekable">1</property>
    <property name="meta.media.sample_aspect_num">1</property>
    <property name="meta.media.sample_aspect_den">1</property>
    <property name="audio_index">1</property>
    <property name="video_index">0</property>
    <property name="creation_time">2023-12-01T02:39:17</property>
    <property name="vstream">0</property>
    <property name="meta.media.frame_rate_num">283200</property>
    <property name="meta.media.frame_rate_den">4723</property>
    <property name="meta.media.colorspace">709</property>
    <property name="meta.media.color_trc">1</property>
    <property name="meta.media.has_b_frames">2</property>
    <property name="meta.media.width">1920</property>
    <property name="meta.media.height">1080</property>
    <property name="meta.media.color_range">mpeg</property>
    <property name="astream">0</property>
    <property name="shotcut:hash">3e5e926b5078b7a7f65cf0d20cefcb7a</property>
    <property name="meta.media.top_field_first">0</property>
    <property name="meta.media.progressive">1</property>
    <property name="shotcut:caption">IMG_0070.MOV</property>
    <property name="xml">was here</property>
    <filter id="filter12" in="00:00:04.500" out="00:00:05.983">
      <property name="window">75</property>
      <property name="max_gain">20dB</property>
      <property name="mlt_service">volume</property>
      <property name="shotcut:filter">muteVolume</property>
      <property name="gain">0</property>
    </filter>
  </chain>
  <producer id="producer9" in="00:00:00.000" out="00:01:37.483">
    <property name="length">00:01:37.500</property>
    <property name="eof">pause</property>
    <property name="resource">0.1:backgrounds/pexels-oleg-lehnitsky-7898696 (1080p).mp4</property>
    <property name="aspect_ratio">1</property>
    <property name="meta.media.nb_streams">2</property>
    <property name="meta.media.0.stream.type">video</property>
    <property name="meta.media.0.stream.frame_rate">30</property>
    <property name="meta.media.0.stream.sample_aspect_ratio">0</property>
    <property name="meta.media.0.codec.width">1920</property>
    <property name="meta.media.0.codec.height">1080</property>
    <property name="meta.media.0.codec.rotate">0</property>
    <property name="meta.media.0.codec.pix_fmt">yuv420p</property>
    <property name="meta.media.0.codec.sample_aspect_ratio">0</property>
    <property name="meta.media.0.codec.colorspace">709</property>
    <property name="meta.media.0.codec.color_trc">1</property>
    <property name="meta.media.0.codec.name">h264</property>
    <property name="meta.media.0.codec.long_name">H.264 / AVC / MPEG-4 AVC / MPEG-4 part 10</property>
    <property name="meta.media.0.codec.bit_rate">4904164</property>
    <property name="meta.attr.0.stream.creation_time.markup">2021-05-14T12:54:42.000000Z</property>
    <property name="meta.attr.0.stream.handler_name.markup">L-SMASH Video Handler</property>
    <property name="meta.attr.0.stream.vendor_id.markup">[0][0][0][0]</property>
    <property name="meta.attr.0.stream.encoder.markup">AVC Coding</property>
    <property name="meta.media.1.stream.type">audio</property>
    <property name="meta.media.1.codec.sample_fmt">fltp</property>
    <property name="meta.media.1.codec.sample_rate">48000</property>
    <property name="meta.media.1.codec.channels">2</property>
    <property name="meta.media.1.codec.name">aac</property>
    <property name="meta.media.1.codec.long_name">AAC (Advanced Audio Coding)</property>
    <property name="meta.media.1.codec.bit_rate">253375</property>
    <property name="meta.attr.1.stream.creation_time.markup">2021-05-14T12:54:42.000000Z</property>
    <property name="meta.attr.1.stream.handler_name.markup">L-SMASH Audio Handler</property>
    <property name="meta.attr.1.stream.vendor_id.markup">[0][0][0][0]</property>
    <property name="meta.attr.major_brand.markup">mp42</property>
    <property name="meta.attr.minor_version.markup">0</property>
    <property name="meta.attr.compatible_brands.markup">mp42mp41isomavc1</property>
    <property name="meta.attr.creation_time.markup">2021-05-14T12:54:42.000000Z</property>
    <property name="seekable">1</property>
    <property name="meta.media.sample_aspect_num">1</property>
    <property name="meta.media.sample_aspect_den">1</property>
    <property name="audio_index">1</property>
    <property name="video_index">0</property>
    <property name="warp_speed">0.1</property>
    <property name="warp_resource">backgrounds/pexels-oleg-lehnitsky-7898696 (1080p).mp4</property>
    <property name="mlt_service">timewarp</property>
    <property name="shotcut:producer">avformat</property>
    <property name="video_delay">0</property>
    <property name="astream">0</property>
    <property name="vstream">0</property>
    <property name="shotcut:hash">bfcae2a3f39f92facd3b94e7c1280d0e</property>
    <property name="shotcut:caption">pexels-oleg-lehnitsky-7898696 (1080p).mp4 (0.1x)</property>
    <property name="xml">was here</property>
    <property name="meta.media.frame_rate_num">30</property>
    <property name="meta.media.frame_rate_den">1</property>
    <property name="meta.media.colorspace">709</property>
    <property name="meta.media.color_trc">1</property>
    <property name="meta.media.has_b_frames">2</property>
    <property name="meta.media.width">1920</property>
    <property name="meta.media.height">1080</property>
    <property name="meta.media.color_range">mpeg</property>
    <property name="meta.media.top_field_first">0</property>
    <property name="meta.media.progressive">1</property>
    <property name="meta.shotcut.vui">1</property>
    <filter id="filter13" in="00:00:24.950" out="00:00:28.933">
      <property name="argument">Video by oleg lehnitsky</property>
      <property name="geometry">0 0 480 1080 1</property>
      <property name="family">Times New Roman</property>
      <property name="size">1080</property>
      <property name="weight">400</property>
      <property name="style">normal</property>
      <property name="fgcolour">#ffffffff</property>
      <property name="bgcolour">#00000000</property>
      <property name="olcolour">#aa000000</property>
      <property name="pad">0</property>
      <property name="halign">center</property>
      <property name="valign">bottom</property>
      <property name="outline">3</property>
      <property name="opacity">1</property>
      <property name="mlt_service">dynamictext</property>
      <property name="shotcut:filter">dynamicText</property>
      <property name="shotcut:usePointSize">0</property>
      <property name="shotcut:animIn">00:00:00.000</property>
      <property name="shotcut:animOut">00:00:00.000</property>
    </filter>
    <filter id="filter14" in="00:00:24.950" out="00:00:28.933">
      <property name="start">1</property>
      <property name="level">00:00:03.000=1;00:00:03.983=0</property>
      <property name="mlt_service">brightness</property>
      <property name="shotcut:filter">fadeOutBrightness</property>
      <property name="alpha">1</property>
      <property name="shotcut:animOut">00:00:01.000</property>
    </filter>
  </producer>
  <tractor id="tractor0" in="00:00:00.000" out="00:00:00.483">
    <property name="shotcut:transition">lumaMix</property>
    <track producer="chain14" in="00:00:05.500" out="00:00:05.983"/>
    <track producer="producer9" in="00:00:24.950" out="00:00:25.433"/>
    <transition id="transition0" out="00:00:00.483">
      <property name="a_track">0</property>
      <property name="b_track">1</property>
      <property name="factory">loader</property>
      <property name="mlt_service">luma</property>
      <property name="alpha_over">1</property>
      <property name="fix_background_alpha">1</property>
    </transition>
    <transition id="transition1" out="00:00:00.483">
      <property name="a_track">0</property>
      <property name="b_track">1</property>
      <property name="mlt_service">mix</property>
      <property name="start">-1</property>
      <property name="accepts_blanks">1</property>
    </transition>
  </tractor>
  <playlist id="playlist1">
    <property name="shotcut:video">1</property>
    <property name="shotcut:name">V1</property>
    <property name="shotcut:lock">0</property>
    <entry producer="producer0" in="00:00:00.000" out="00:00:02.933"/>
    <entry producer="chain12" in="00:00:02.500" out="00:00:05.033"/>
    <entry producer="producer1" in="00:00:04.217" out="00:00:16.700"/>
    <entry producer="producer2" in="00:04:46.550" out="00:05:03.533"/>
    <blank length="00:00:04.000"/>
    <entry producer="producer3" in="00:00:00.000" out="00:01:37.333"/>
    <entry producer="producer4" in="00:00:00.000" out="00:01:37.333"/>
    <entry producer="producer5" in="00:00:00.000" out="00:01:37.333"/>
    <entry producer="producer6" in="00:00:00.000" out="00:00:16.933"/>
    <entry producer="producer8" in="00:00:00.000" out="00:00:03.983"/>
    <entry producer="chain13" in="00:00:01.500" out="00:00:03.483"/>
    <entry producer="chain43" in="00:00:00.000" out="00:00:00.983"/>
    <entry producer="chain14" in="00:00:04.500" out="00:00:05.483"/>
    <entry producer="tractor0" in="00:00:00.000" out="00:00:00.483"/>
    <entry producer="producer9" in="00:00:25.450" out="00:00:28.933"/>
  </playlist>
  <producer id="producer10" in="00:00:00.000" out="00:00:22.567">
    <property name="length">00:00:22.583</property>
    <property name="eof">pause</property>
    <property name="resource">0.82:heads/IMG_0055.MOV</property>
    <property name="aspect_ratio">1</property>
    <property name="meta.media.nb_streams">5</property>
    <property name="meta.media.0.stream.type">video</property>
    <property name="meta.media.0.stream.frame_rate">59.9622</property>
    <property name="meta.media.0.stream.sample_aspect_ratio">0</property>
    <property name="meta.media.0.codec.width">1920</property>
    <property name="meta.media.0.codec.height">1080</property>
    <property name="meta.media.0.codec.rotate">0</property>
    <property name="meta.media.0.codec.pix_fmt">yuv420p</property>
    <property name="meta.media.0.codec.sample_aspect_ratio">0</property>
    <property name="meta.media.0.codec.colorspace">709</property>
    <property name="meta.media.0.codec.color_trc">1</property>
    <property name="meta.media.0.codec.name">hevc</property>
    <property name="meta.media.0.codec.long_name">HEVC (High Efficiency Video Coding)</property>
    <property name="meta.media.0.codec.bit_rate">11766623</property>
    <property name="meta.attr.0.stream.creation_time.markup">2023-11-30T16:02:22.000000Z</property>
    <property name="meta.attr.0.stream.handler_name.markup">Core Media Video</property>
    <property name="meta.attr.0.stream.vendor_id.markup">[0][0][0][0]</property>
    <property name="meta.attr.0.stream.encoder.markup">HEVC</property>
    <property name="meta.media.1.stream.type">audio</property>
    <property name="meta.media.1.codec.sample_fmt">fltp</property>
    <property name="meta.media.1.codec.sample_rate">44100</property>
    <property name="meta.media.1.codec.channels">2</property>
    <property name="meta.media.1.codec.name">aac</property>
    <property name="meta.media.1.codec.long_name">AAC (Advanced Audio Coding)</property>
    <property name="meta.media.1.codec.bit_rate">162273</property>
    <property name="meta.attr.1.stream.creation_time.markup">2023-11-30T16:02:22.000000Z</property>
    <property name="meta.attr.1.stream.handler_name.markup">Core Media Audio</property>
    <property name="meta.attr.1.stream.vendor_id.markup">[0][0][0][0]</property>
    <property name="meta.attr.major_brand.markup">qt  </property>
    <property name="meta.attr.minor_version.markup">0</property>
    <property name="meta.attr.compatible_brands.markup">qt  </property>
    <property name="meta.attr.creation_time.markup">2023-11-30T16:02:22.000000Z</property>
    <property name="meta.attr.com.apple.quicktime.location.accuracy.horizontal.markup">35.000000</property>
    <property name="meta.attr.com.apple.quicktime.location.ISO6709.markup">+22.3378+114.2659+066.866/</property>
    <property name="meta.attr.com.apple.quicktime.make.markup">Apple</property>
    <property name="meta.attr.com.apple.quicktime.model.markup">iPhone 11</property>
    <property name="meta.attr.com.apple.quicktime.software.markup">17.0.3</property>
    <property name="meta.attr.com.apple.quicktime.creationdate.markup">2023-12-01T00:02:22+0800</property>
    <property name="seekable">1</property>
    <property name="meta.media.sample_aspect_num">1</property>
    <property name="meta.media.sample_aspect_den">1</property>
    <property name="audio_index">1</property>
    <property name="video_index">0</property>
    <property name="warp_speed">0.82</property>
    <property name="warp_resource">heads/IMG_0055.MOV</property>
    <property name="mlt_service">timewarp</property>
    <property name="shotcut:producer">avformat</property>
    <property name="video_delay">0</property>
    <property name="astream">0</property>
    <property name="vstream">0</property>
    <property name="shotcut:hash">99dfbd249ce857456931c6c3833caccc</property>
    <property name="shotcut:caption">IMG_0055.MOV (0.82x)</property>
    <property name="xml">was here</property>
    <property name="meta.media.frame_rate_num">666000</property>
    <property name="meta.media.frame_rate_den">11107</property>
    <property name="meta.media.colorspace">709</property>
    <property name="meta.media.color_trc">1</property>
    <property name="meta.media.has_b_frames">2</property>
    <property name="meta.media.width">1920</property>
    <property name="meta.media.height">1080</property>
    <property name="meta.media.color_range">mpeg</property>
    <property name="meta.media.top_field_first">0</property>
    <property name="meta.media.progressive">1</property>
    <property name="meta.shotcut.vui">1</property>
    <filter id="filter15" out="00:00:10.983">
      <property name="version">0.6</property>
      <property name="mlt_service">frei0r.select0r</property>
      <property name="threads">0</property>
      <property name="0">#ffe4dacf</property>
      <property name="1">1</property>
      <property name="2">0.042</property>
      <property name="3">0.084</property>
      <property name="4">0.667</property>
      <property name="5">0</property>
      <property name="6">1</property>
      <property name="7">0.5</property>
      <property name="8">0</property>
      <property name="9">0</property>
      <property name="disable">0</property>
    </filter>
    <filter id="filter16" out="00:00:10.983">
      <property name="background">color:#00000000</property>
      <property name="mlt_service">affine</property>
      <property name="shotcut:filter">affineSizePosition</property>
      <property name="transition.fill">1</property>
      <property name="transition.distort">0</property>
      <property name="transition.rect">305.496 -72.2643 2304 1296 1</property>
      <property name="transition.valign">middle</property>
      <property name="transition.halign">center</property>
      <property name="shotcut:animIn">00:00:00.000</property>
      <property name="shotcut:animOut">00:00:00.000</property>
      <property name="transition.threads">0</property>
    </filter>
    <filter id="filter17" out="00:00:10.983">
      <property name="start">1</property>
      <property name="level">1</property>
      <property name="mlt_service">brightness</property>
      <property name="shotcut:filter">fadeInBrightness</property>
      <property name="alpha">00:00:00.000=0;00:00:01.983=1</property>
      <property name="shotcut:animIn">00:00:02.000</property>
    </filter>
    <filter id="filter18" out="00:00:10.983">
      <property name="window">75</property>
      <property name="max_gain">20dB</property>
      <property name="mlt_service">volume</property>
      <property name="shotcut:filter">muteVolume</property>
      <property name="gain">0</property>
    </filter>
  </producer>
  <producer id="producer11" in="00:00:00.000" out="00:00:37.000">
    <property name="length">00:00:37.017</property>
    <property name="eof">pause</property>
    <property name="resource">0.5:heads/IMG_0055.MOV</property>
    <property name="aspect_ratio">1</property>
    <property name="meta.media.nb_streams">5</property>
    <property name="meta.media.0.stream.type">video</property>
    <property name="meta.media.0.stream.frame_rate">59.9622</property>
    <property name="meta.media.0.stream.sample_aspect_ratio">0</property>
    <property name="meta.media.0.codec.width">1920</property>
    <property name="meta.media.0.codec.height">1080</property>
    <property name="meta.media.0.codec.rotate">0</property>
    <property name="meta.media.0.codec.pix_fmt">yuv420p</property>
    <property name="meta.media.0.codec.sample_aspect_ratio">0</property>
    <property name="meta.media.0.codec.colorspace">709</property>
    <property name="meta.media.0.codec.color_trc">1</property>
    <property name="meta.media.0.codec.name">hevc</property>
    <property name="meta.media.0.codec.long_name">HEVC (High Efficiency Video Coding)</property>
    <property name="meta.media.0.codec.bit_rate">11766623</property>
    <property name="meta.attr.0.stream.creation_time.markup">2023-11-30T16:02:22.000000Z</property>
    <property name="meta.attr.0.stream.handler_name.markup">Core Media Video</property>
    <property name="meta.attr.0.stream.vendor_id.markup">[0][0][0][0]</property>
    <property name="meta.attr.0.stream.encoder.markup">HEVC</property>
    <property name="meta.media.1.stream.type">audio</property>
    <property name="meta.media.1.codec.sample_fmt">fltp</property>
    <property name="meta.media.1.codec.sample_rate">44100</property>
    <property name="meta.media.1.codec.channels">2</property>
    <property name="meta.media.1.codec.name">aac</property>
    <property name="meta.media.1.codec.long_name">AAC (Advanced Audio Coding)</property>
    <property name="meta.media.1.codec.bit_rate">162273</property>
    <property name="meta.attr.1.stream.creation_time.markup">2023-11-30T16:02:22.000000Z</property>
    <property name="meta.attr.1.stream.handler_name.markup">Core Media Audio</property>
    <property name="meta.attr.1.stream.vendor_id.markup">[0][0][0][0]</property>
    <property name="meta.attr.major_brand.markup">qt  </property>
    <property name="meta.attr.minor_version.markup">0</property>
    <property name="meta.attr.compatible_brands.markup">qt  </property>
    <property name="meta.attr.creation_time.markup">2023-11-30T16:02:22.000000Z</property>
    <property name="meta.attr.com.apple.quicktime.location.accuracy.horizontal.markup">35.000000</property>
    <property name="meta.attr.com.apple.quicktime.location.ISO6709.markup">+22.3378+114.2659+066.866/</property>
    <property name="meta.attr.com.apple.quicktime.make.markup">Apple</property>
    <property name="meta.attr.com.apple.quicktime.model.markup">iPhone 11</property>
    <property name="meta.attr.com.apple.quicktime.software.markup">17.0.3</property>
    <property name="meta.attr.com.apple.quicktime.creationdate.markup">2023-12-01T00:02:22+0800</property>
    <property name="seekable">1</property>
    <property name="meta.media.sample_aspect_num">1</property>
    <property name="meta.media.sample_aspect_den">1</property>
    <property name="audio_index">1</property>
    <property name="video_index">0</property>
    <property name="warp_speed">0.5</property>
    <property name="warp_resource">heads/IMG_0055.MOV</property>
    <property name="mlt_service">timewarp</property>
    <property name="shotcut:producer">avformat</property>
    <property name="video_delay">0</property>
    <property name="astream">0</property>
    <property name="vstream">0</property>
    <property name="shotcut:hash">99dfbd249ce857456931c6c3833caccc</property>
    <property name="shotcut:caption">IMG_0055.MOV (0.5x)</property>
    <property name="xml">was here</property>
    <property name="meta.media.frame_rate_num">666000</property>
    <property name="meta.media.frame_rate_den">11107</property>
    <property name="meta.media.colorspace">709</property>
    <property name="meta.media.color_trc">1</property>
    <property name="meta.media.has_b_frames">2</property>
    <property name="meta.media.width">1920</property>
    <property name="meta.media.height">1080</property>
    <property name="meta.media.color_range">mpeg</property>
    <property name="meta.media.top_field_first">0</property>
    <property name="meta.media.progressive">1</property>
    <property name="meta.shotcut.vui">1</property>
    <filter id="filter19" in="00:00:26.233" out="00:00:29.217">
      <property name="version">0.6</property>
      <property name="mlt_service">frei0r.select0r</property>
      <property name="threads">0</property>
      <property name="0">#ffe4dacf</property>
      <property name="1">1</property>
      <property name="2">0.042</property>
      <property name="3">0.084</property>
      <property name="4">0.667</property>
      <property name="5">0</property>
      <property name="6">1</property>
      <property name="7">0.5</property>
      <property name="8">0</property>
      <property name="9">0</property>
      <property name="disable">0</property>
    </filter>
    <filter id="filter20" in="00:00:26.233" out="00:00:29.217">
      <property name="background">color:#00000000</property>
      <property name="mlt_service">affine</property>
      <property name="shotcut:filter">affineSizePosition</property>
      <property name="transition.fill">1</property>
      <property name="transition.distort">0</property>
      <property name="transition.rect">220.425 -36.6486 2304 1296 1</property>
      <property name="transition.valign">middle</property>
      <property name="transition.halign">center</property>
      <property name="shotcut:animIn">00:00:00.000</property>
      <property name="shotcut:animOut">00:00:00.000</property>
      <property name="transition.threads">0</property>
    </filter>
    <filter id="filter21" in="00:00:26.233" out="00:00:29.217">
      <property name="window">75</property>
      <property name="max_gain">20dB</property>
      <property name="mlt_service">volume</property>
      <property name="shotcut:filter">muteVolume</property>
      <property name="gain">0</property>
    </filter>
  </producer>
  <tractor id="tractor1" in="00:00:00.000" out="00:00:00.983">
    <property name="shotcut:transition">lumaMix</property>
    <track producer="producer10" in="00:00:10.000" out="00:00:10.983"/>
    <track producer="producer11" in="00:00:26.233" out="00:00:27.217"/>
    <transition id="transition2" out="00:00:00.983">
      <property name="a_track">0</property>
      <property name="b_track">1</property>
      <property name="factory">loader</property>
      <property name="mlt_service">luma</property>
      <property name="alpha_over">1</property>
      <property name="fix_background_alpha">1</property>
    </transition>
    <transition id="transition3" out="00:00:00.983">
      <property name="a_track">0</property>
      <property name="b_track">1</property>
      <property name="mlt_service">mix</property>
      <property name="start">-1</property>
      <property name="accepts_blanks">1</property>
    </transition>
  </tractor>
  <producer id="producer12" in="00:00:00.000" out="00:01:14.017">
    <property name="length">00:01:14.033</property>
    <property name="eof">pause</property>
    <property name="resource">0.25:heads/IMG_0055.MOV</property>
    <property name="aspect_ratio">1</property>
    <property name="meta.media.nb_streams">5</property>
    <property name="meta.media.0.stream.type">video</property>
    <property name="meta.media.0.stream.frame_rate">59.9622</property>
    <property name="meta.media.0.stream.sample_aspect_ratio">0</property>
    <property name="meta.media.0.codec.width">1920</property>
    <property name="meta.media.0.codec.height">1080</property>
    <property name="meta.media.0.codec.rotate">0</property>
    <property name="meta.media.0.codec.pix_fmt">yuv420p</property>
    <property name="meta.media.0.codec.sample_aspect_ratio">0</property>
    <property name="meta.media.0.codec.colorspace">709</property>
    <property name="meta.media.0.codec.color_trc">1</property>
    <property name="meta.media.0.codec.name">hevc</property>
    <property name="meta.media.0.codec.long_name">HEVC (High Efficiency Video Coding)</property>
    <property name="meta.media.0.codec.bit_rate">11766623</property>
    <property name="meta.attr.0.stream.creation_time.markup">2023-11-30T16:02:22.000000Z</property>
    <property name="meta.attr.0.stream.handler_name.markup">Core Media Video</property>
    <property name="meta.attr.0.stream.vendor_id.markup">[0][0][0][0]</property>
    <property name="meta.attr.0.stream.encoder.markup">HEVC</property>
    <property name="meta.media.1.stream.type">audio</property>
    <property name="meta.media.1.codec.sample_fmt">fltp</property>
    <property name="meta.media.1.codec.sample_rate">44100</property>
    <property name="meta.media.1.codec.channels">2</property>
    <property name="meta.media.1.codec.name">aac</property>
    <property name="meta.media.1.codec.long_name">AAC (Advanced Audio Coding)</property>
    <property name="meta.media.1.codec.bit_rate">162273</property>
    <property name="meta.attr.1.stream.creation_time.markup">2023-11-30T16:02:22.000000Z</property>
    <property name="meta.attr.1.stream.handler_name.markup">Core Media Audio</property>
    <property name="meta.attr.1.stream.vendor_id.markup">[0][0][0][0]</property>
    <property name="meta.attr.major_brand.markup">qt  </property>
    <property name="meta.attr.minor_version.markup">0</property>
    <property name="meta.attr.compatible_brands.markup">qt  </property>
    <property name="meta.attr.creation_time.markup">2023-11-30T16:02:22.000000Z</property>
    <property name="meta.attr.com.apple.quicktime.location.accuracy.horizontal.markup">35.000000</property>
    <property name="meta.attr.com.apple.quicktime.location.ISO6709.markup">+22.3378+114.2659+066.866/</property>
    <property name="meta.attr.com.apple.quicktime.make.markup">Apple</property>
    <property name="meta.attr.com.apple.quicktime.model.markup">iPhone 11</property>
    <property name="meta.attr.com.apple.quicktime.software.markup">17.0.3</property>
    <property name="meta.attr.com.apple.quicktime.creationdate.markup">2023-12-01T00:02:22+0800</property>
    <property name="seekable">1</property>
    <property name="meta.media.sample_aspect_num">1</property>
    <property name="meta.media.sample_aspect_den">1</property>
    <property name="audio_index">1</property>
    <property name="video_index">0</property>
    <property name="warp_speed">0.25</property>
    <property name="warp_resource">heads/IMG_0055.MOV</property>
    <property name="mlt_service">timewarp</property>
    <property name="shotcut:producer">avformat</property>
    <property name="video_delay">0</property>
    <property name="astream">0</property>
    <property name="vstream">0</property>
    <property name="shotcut:hash">99dfbd249ce857456931c6c3833caccc</property>
    <property name="shotcut:caption">IMG_0055.MOV (0.25x)</property>
    <property name="xml">was here</property>
    <property name="meta.media.frame_rate_num">666000</property>
    <property name="meta.media.frame_rate_den">11107</property>
    <property name="meta.media.colorspace">709</property>
    <property name="meta.media.color_trc">1</property>
    <property name="meta.media.has_b_frames">2</property>
    <property name="meta.media.width">1920</property>
    <property name="meta.media.height">1080</property>
    <property name="meta.media.color_range">mpeg</property>
    <property name="meta.media.top_field_first">0</property>
    <property name="meta.media.progressive">1</property>
    <property name="meta.shotcut.vui">1</property>
    <filter id="filter22" in="00:00:58.467" out="00:01:02.450">
      <property name="version">0.6</property>
      <property name="mlt_service">frei0r.select0r</property>
      <property name="threads">0</property>
      <property name="0">#ffe4dacf</property>
      <property name="1">1</property>
      <property name="2">0.042</property>
      <property name="3">0.084</property>
      <property name="4">0.667</property>
      <property name="5">0</property>
      <property name="6">1</property>
      <property name="7">0.5</property>
      <property name="8">0</property>
      <property name="9">0</property>
      <property name="disable">0</property>
    </filter>
    <filter id="filter23" in="00:00:58.467" out="00:01:02.450">
      <property name="background">color:#00000000</property>
      <property name="mlt_service">affine</property>
      <property name="shotcut:filter">affineSizePosition</property>
      <property name="transition.fill">1</property>
      <property name="transition.distort">0</property>
      <property name="transition.rect">220 -37 2304 1296 1</property>
      <property name="transition.valign">middle</property>
      <property name="transition.halign">center</property>
      <property name="shotcut:animIn">00:00:00.000</property>
      <property name="shotcut:animOut">00:00:00.000</property>
      <property name="transition.threads">0</property>
    </filter>
    <filter id="filter24" in="00:00:58.467" out="00:01:02.450">
      <property name="window">75</property>
      <property name="max_gain">20dB</property>
      <property name="mlt_service">volume</property>
      <property name="shotcut:filter">muteVolume</property>
      <property name="gain">0</property>
    </filter>
  </producer>
  <chain id="chain15" out="00:00:18.867">
    <property name="length">00:00:18.883</property>
    <property name="eof">pause</property>
    <property name="resource">backgrounds/pexels-tima-miroshnichenko-6550654 (1080p).mp4</property>
    <property name="mlt_service">avformat-novalidate</property>
    <property name="meta.media.nb_streams">2</property>
    <property name="meta.media.0.stream.type">video</property>
    <property name="meta.media.0.stream.frame_rate">25</property>
    <property name="meta.media.0.stream.sample_aspect_ratio">0</property>
    <property name="meta.media.0.codec.width">1920</property>
    <property name="meta.media.0.codec.height">1080</property>
    <property name="meta.media.0.codec.rotate">0</property>
    <property name="meta.media.0.codec.pix_fmt">yuv420p</property>
    <property name="meta.media.0.codec.sample_aspect_ratio">0</property>
    <property name="meta.media.0.codec.colorspace">709</property>
    <property name="meta.media.0.codec.color_trc">1</property>
    <property name="meta.media.0.codec.name">h264</property>
    <property name="meta.media.0.codec.long_name">H.264 / AVC / MPEG-4 AVC / MPEG-4 part 10</property>
    <property name="meta.media.0.codec.bit_rate">2254851</property>
    <property name="meta.attr.0.stream.creation_time.markup">2021-01-20T10:26:52.000000Z</property>
    <property name="meta.attr.0.stream.handler_name.markup">L-SMASH Video Handler</property>
    <property name="meta.attr.0.stream.vendor_id.markup">[0][0][0][0]</property>
    <property name="meta.attr.0.stream.encoder.markup">AVC Coding</property>
    <property name="meta.media.1.stream.type">audio</property>
    <property name="meta.media.1.codec.sample_fmt">fltp</property>
    <property name="meta.media.1.codec.sample_rate">48000</property>
    <property name="meta.media.1.codec.channels">2</property>
    <property name="meta.media.1.codec.name">aac</property>
    <property name="meta.media.1.codec.long_name">AAC (Advanced Audio Coding)</property>
    <property name="meta.media.1.codec.bit_rate">253375</property>
    <property name="meta.attr.1.stream.creation_time.markup">2021-01-20T10:26:52.000000Z</property>
    <property name="meta.attr.1.stream.handler_name.markup">L-SMASH Audio Handler</property>
    <property name="meta.attr.1.stream.vendor_id.markup">[0][0][0][0]</property>
    <property name="meta.attr.major_brand.markup">mp42</property>
    <property name="meta.attr.minor_version.markup">0</property>
    <property name="meta.attr.compatible_brands.markup">mp42mp41isomavc1</property>
    <property name="meta.attr.creation_time.markup">2021-01-20T10:26:52.000000Z</property>
    <property name="seekable">1</property>
    <property name="meta.media.sample_aspect_num">1</property>
    <property name="meta.media.sample_aspect_den">1</property>
    <property name="audio_index">1</property>
    <property name="video_index">0</property>
    <property name="creation_time">2021-01-20T10:26:52</property>
    <property name="vstream">0</property>
    <property name="meta.media.frame_rate_num">25</property>
    <property name="meta.media.frame_rate_den">1</property>
    <property name="meta.media.colorspace">709</property>
    <property name="meta.media.color_trc">1</property>
    <property name="meta.media.has_b_frames">2</property>
    <property name="meta.media.width">1920</property>
    <property name="meta.media.height">1080</property>
    <property name="meta.media.color_range">mpeg</property>
    <property name="astream">0</property>
    <property name="shotcut:hash">d28ae1d805cd8a7f8ba55a14a2e5e15a</property>
    <property name="meta.media.top_field_first">0</property>
    <property name="meta.media.progressive">1</property>
    <property name="shotcut:caption">pexels-tima-miroshnichenko-6550654 (1080p).mp4</property>
    <property name="xml">was here</property>
    <property name="meta.shotcut.vui">1</property>
    <filter id="filter25" out="00:00:03.983">
      <property name="mlt_service">avfilter.gblur</property>
      <property name="shotcut:filter">blur_gaussian_av</property>
      <property name="av.sigma">25</property>
      <property name="av.sigmaV">25</property>
      <property name="av.planes">0xf</property>
    </filter>
    <filter id="filter26" out="00:00:03.983">
      <property name="argument">YOUR TYPICAL
STUDY METHODS</property>
      <property name="geometry">00:00:00.000=240 180 1440 720 1;00:00:04.000=0 0 1920 1080 1</property>
      <property name="family">Liberation Serif</property>
      <property name="size">540</property>
      <property name="weight">700</property>
      <property name="style">normal</property>
      <property name="fgcolour">#ffffffff</property>
      <property name="bgcolour">#00000000</property>
      <property name="olcolour">#aa000000</property>
      <property name="pad">0</property>
      <property name="halign">center</property>
      <property name="valign">middle</property>
      <property name="outline">16</property>
      <property name="opacity">1.0</property>
      <property name="mlt_service">dynamictext</property>
      <property name="shotcut:filter">dynamicText</property>
      <property name="shotcut:usePointSize">0</property>
      <property name="shotcut:animIn">00:00:00.000</property>
      <property name="shotcut:animOut">00:00:00.000</property>
      <property name="shotcut:pointSize">48</property>
    </filter>
    <filter id="filter27" out="00:00:03.983">
      <property name="argument">Video by Tima Miroshnichenko</property>
      <property name="geometry">1440 3 480 1080 1</property>
      <property name="family">Times New Roman</property>
      <property name="size">1080</property>
      <property name="weight">400</property>
      <property name="style">normal</property>
      <property name="fgcolour">#ffffffff</property>
      <property name="bgcolour">#00000000</property>
      <property name="olcolour">#aa000000</property>
      <property name="pad">0</property>
      <property name="halign">right</property>
      <property name="valign">bottom</property>
      <property name="outline">3</property>
      <property name="opacity">1.0</property>
      <property name="mlt_service">dynamictext</property>
      <property name="shotcut:filter">dynamicText</property>
      <property name="shotcut:usePointSize">0</property>
      <property name="shotcut:animIn">00:00:00.000</property>
      <property name="shotcut:animOut">00:00:00.000</property>
    </filter>
  </chain>
  <producer id="producer13" in="00:00:00.000" out="00:00:09.400">
    <property name="length">00:00:09.417</property>
    <property name="eof">pause</property>
    <property name="resource">1.5:heads/IMG_0057.MOV</property>
    <property name="aspect_ratio">1</property>
    <property name="meta.media.nb_streams">5</property>
    <property name="meta.media.0.stream.type">video</property>
    <property name="meta.media.0.stream.frame_rate">59.9646</property>
    <property name="meta.media.0.stream.sample_aspect_ratio">0</property>
    <property name="meta.media.0.codec.width">1920</property>
    <property name="meta.media.0.codec.height">1080</property>
    <property name="meta.media.0.codec.rotate">0</property>
    <property name="meta.media.0.codec.pix_fmt">yuv420p</property>
    <property name="meta.media.0.codec.sample_aspect_ratio">0</property>
    <property name="meta.media.0.codec.colorspace">709</property>
    <property name="meta.media.0.codec.color_trc">1</property>
    <property name="meta.media.0.codec.name">hevc</property>
    <property name="meta.media.0.codec.long_name">HEVC (High Efficiency Video Coding)</property>
    <property name="meta.media.0.codec.bit_rate">11747906</property>
    <property name="meta.attr.0.stream.creation_time.markup">2023-11-30T16:33:20.000000Z</property>
    <property name="meta.attr.0.stream.handler_name.markup">Core Media Video</property>
    <property name="meta.attr.0.stream.vendor_id.markup">[0][0][0][0]</property>
    <property name="meta.attr.0.stream.encoder.markup">HEVC</property>
    <property name="meta.media.1.stream.type">audio</property>
    <property name="meta.media.1.codec.sample_fmt">fltp</property>
    <property name="meta.media.1.codec.sample_rate">44100</property>
    <property name="meta.media.1.codec.channels">2</property>
    <property name="meta.media.1.codec.name">aac</property>
    <property name="meta.media.1.codec.long_name">AAC (Advanced Audio Coding)</property>
    <property name="meta.media.1.codec.bit_rate">169763</property>
    <property name="meta.attr.1.stream.creation_time.markup">2023-11-30T16:33:20.000000Z</property>
    <property name="meta.attr.1.stream.handler_name.markup">Core Media Audio</property>
    <property name="meta.attr.1.stream.vendor_id.markup">[0][0][0][0]</property>
    <property name="meta.attr.major_brand.markup">qt  </property>
    <property name="meta.attr.minor_version.markup">0</property>
    <property name="meta.attr.compatible_brands.markup">qt  </property>
    <property name="meta.attr.creation_time.markup">2023-11-30T16:33:20.000000Z</property>
    <property name="meta.attr.com.apple.quicktime.location.accuracy.horizontal.markup">35.000000</property>
    <property name="meta.attr.com.apple.quicktime.location.ISO6709.markup">+22.3378+114.2659+067.642/</property>
    <property name="meta.attr.com.apple.quicktime.make.markup">Apple</property>
    <property name="meta.attr.com.apple.quicktime.model.markup">iPhone 11</property>
    <property name="meta.attr.com.apple.quicktime.software.markup">17.0.3</property>
    <property name="meta.attr.com.apple.quicktime.creationdate.markup">2023-12-01T00:33:20+0800</property>
    <property name="seekable">1</property>
    <property name="meta.media.sample_aspect_num">1</property>
    <property name="meta.media.sample_aspect_den">1</property>
    <property name="audio_index">1</property>
    <property name="video_index">0</property>
    <property name="warp_speed">1.5</property>
    <property name="warp_resource">heads/IMG_0057.MOV</property>
    <property name="mlt_service">timewarp</property>
    <property name="shotcut:producer">avformat</property>
    <property name="video_delay">0</property>
    <property name="astream">0</property>
    <property name="vstream">0</property>
    <property name="shotcut:hash">6de444ab0286f3215cb1a9c3ae84f8d1</property>
    <property name="shotcut:caption">IMG_0057.MOV (1.5x)</property>
    <property name="xml">was here</property>
    <property name="meta.media.frame_rate_num">6776</property>
    <property name="meta.media.frame_rate_den">113</property>
    <property name="meta.media.colorspace">709</property>
    <property name="meta.media.color_trc">1</property>
    <property name="meta.media.has_b_frames">2</property>
    <property name="meta.media.width">1920</property>
    <property name="meta.media.height">1080</property>
    <property name="meta.media.color_range">mpeg</property>
    <property name="meta.media.top_field_first">0</property>
    <property name="meta.media.progressive">1</property>
    <filter id="filter28" in="00:00:01.017" out="00:00:09.400">
      <property name="version">0.6</property>
      <property name="mlt_service">frei0r.select0r</property>
      <property name="threads">0</property>
      <property name="0">#ffe4dacf</property>
      <property name="1">1</property>
      <property name="2">0.042</property>
      <property name="3">0.084</property>
      <property name="4">0.667</property>
      <property name="5">0</property>
      <property name="6">1</property>
      <property name="7">0.5</property>
      <property name="8">0.35</property>
      <property name="9">0</property>
      <property name="disable">0</property>
    </filter>
    <filter id="filter29" in="00:00:01.017" out="00:00:09.400">
      <property name="background">color:#00000000</property>
      <property name="mlt_service">affine</property>
      <property name="shotcut:filter">affineSizePosition</property>
      <property name="transition.fill">1</property>
      <property name="transition.distort">0</property>
      <property name="transition.rect">-206.936 -7.39944 2304 1296 1</property>
      <property name="transition.valign">middle</property>
      <property name="transition.halign">center</property>
      <property name="shotcut:animIn">00:00:00.000</property>
      <property name="shotcut:animOut">00:00:00.000</property>
      <property name="transition.threads">0</property>
    </filter>
    <filter id="filter30" in="00:00:01.017" out="00:00:09.400">
      <property name="start">1</property>
      <property name="level">1</property>
      <property name="mlt_service">brightness</property>
      <property name="shotcut:filter">fadeOutBrightness</property>
      <property name="alpha">00:00:06.400=1;00:00:08.383=0</property>
      <property name="shotcut:animOut">00:00:02.000</property>
    </filter>
    <filter id="filter31" in="00:00:01.017" out="00:00:09.400">
      <property name="window">75</property>
      <property name="max_gain">20dB</property>
      <property name="mlt_service">volume</property>
      <property name="shotcut:filter">muteVolume</property>
      <property name="gain">0</property>
    </filter>
  </producer>
  <chain id="chain16" out="00:00:19.483">
    <property name="length">00:00:19.500</property>
    <property name="eof">pause</property>
    <property name="resource">heads/IMG_0058.MOV</property>
    <property name="mlt_service">avformat-novalidate</property>
    <property name="meta.media.nb_streams">5</property>
    <property name="meta.media.0.stream.type">video</property>
    <property name="meta.media.0.stream.frame_rate">59.9641</property>
    <property name="meta.media.0.stream.sample_aspect_ratio">0</property>
    <property name="meta.media.0.codec.width">1920</property>
    <property name="meta.media.0.codec.height">1080</property>
    <property name="meta.media.0.codec.rotate">0</property>
    <property name="meta.media.0.codec.pix_fmt">yuv420p</property>
    <property name="meta.media.0.codec.sample_aspect_ratio">0</property>
    <property name="meta.media.0.codec.colorspace">709</property>
    <property name="meta.media.0.codec.color_trc">1</property>
    <property name="meta.media.0.codec.name">hevc</property>
    <property name="meta.media.0.codec.long_name">HEVC (High Efficiency Video Coding)</property>
    <property name="meta.media.0.codec.bit_rate">11712588</property>
    <property name="meta.attr.0.stream.creation_time.markup">2023-11-30T16:36:53.000000Z</property>
    <property name="meta.attr.0.stream.handler_name.markup">Core Media Video</property>
    <property name="meta.attr.0.stream.vendor_id.markup">[0][0][0][0]</property>
    <property name="meta.attr.0.stream.encoder.markup">HEVC</property>
    <property name="meta.media.1.stream.type">audio</property>
    <property name="meta.media.1.codec.sample_fmt">fltp</property>
    <property name="meta.media.1.codec.sample_rate">44100</property>
    <property name="meta.media.1.codec.channels">2</property>
    <property name="meta.media.1.codec.name">aac</property>
    <property name="meta.media.1.codec.long_name">AAC (Advanced Audio Coding)</property>
    <property name="meta.media.1.codec.bit_rate">170413</property>
    <property name="meta.attr.1.stream.creation_time.markup">2023-11-30T16:36:53.000000Z</property>
    <property name="meta.attr.1.stream.handler_name.markup">Core Media Audio</property>
    <property name="meta.attr.1.stream.vendor_id.markup">[0][0][0][0]</property>
    <property name="meta.attr.major_brand.markup">qt  </property>
    <property name="meta.attr.minor_version.markup">0</property>
    <property name="meta.attr.compatible_brands.markup">qt  </property>
    <property name="meta.attr.creation_time.markup">2023-11-30T16:36:53.000000Z</property>
    <property name="meta.attr.com.apple.quicktime.location.accuracy.horizontal.markup">23.824413</property>
    <property name="meta.attr.com.apple.quicktime.location.ISO6709.markup">+22.3378+114.2657+067.318/</property>
    <property name="meta.attr.com.apple.quicktime.make.markup">Apple</property>
    <property name="meta.attr.com.apple.quicktime.model.markup">iPhone 11</property>
    <property name="meta.attr.com.apple.quicktime.software.markup">17.0.3</property>
    <property name="meta.attr.com.apple.quicktime.creationdate.markup">2023-12-01T00:36:53+0800</property>
    <property name="seekable">1</property>
    <property name="meta.media.sample_aspect_num">1</property>
    <property name="meta.media.sample_aspect_den">1</property>
    <property name="audio_index">1</property>
    <property name="video_index">0</property>
    <property name="creation_time">2023-11-30T16:36:53</property>
    <property name="vstream">0</property>
    <property name="meta.media.frame_rate_num">33400</property>
    <property name="meta.media.frame_rate_den">557</property>
    <property name="meta.media.colorspace">709</property>
    <property name="meta.media.color_trc">1</property>
    <property name="meta.media.has_b_frames">2</property>
    <property name="meta.media.width">1920</property>
    <property name="meta.media.height">1080</property>
    <property name="meta.media.color_range">mpeg</property>
    <property name="astream">0</property>
    <property name="shotcut:hash">095df1ab39258e87578759c2975b0aee</property>
    <property name="meta.media.top_field_first">0</property>
    <property name="meta.media.progressive">1</property>
    <property name="shotcut:caption">IMG_0058.MOV</property>
    <property name="xml">was here</property>
    <filter id="filter32" in="00:00:04.000" out="00:00:09.983">
      <property name="version">0.6</property>
      <property name="mlt_service">frei0r.select0r</property>
      <property name="threads">0</property>
      <property name="0">#ffe4dacf</property>
      <property name="1">1</property>
      <property name="2">0.042</property>
      <property name="3">0.084</property>
      <property name="4">0.667</property>
      <property name="5">0</property>
      <property name="6">1</property>
      <property name="7">0.5</property>
      <property name="8">0.35</property>
      <property name="9">0</property>
      <property name="disable">0</property>
    </filter>
    <filter id="filter33" in="00:00:04.000" out="00:00:09.983">
      <property name="background">color:#00000000</property>
      <property name="mlt_service">affine</property>
      <property name="shotcut:filter">affineSizePosition</property>
      <property name="transition.fill">1</property>
      <property name="transition.distort">0</property>
      <property name="transition.rect">-206.936 -7.39944 2304 1296 1</property>
      <property name="transition.valign">middle</property>
      <property name="transition.halign">center</property>
      <property name="shotcut:animIn">00:00:00.000</property>
      <property name="shotcut:animOut">00:00:00.000</property>
      <property name="transition.threads">0</property>
    </filter>
    <filter id="filter34" in="00:00:04.000" out="00:00:09.983">
      <property name="start">1</property>
      <property name="level">1</property>
      <property name="mlt_service">brightness</property>
      <property name="shotcut:filter">fadeInBrightness</property>
      <property name="alpha">00:00:00.000=0;00:00:01.983=1</property>
      <property name="shotcut:animIn">00:00:02.000</property>
    </filter>
    <filter id="filter35" in="00:00:04.000" out="00:00:09.983">
      <property name="window">75</property>
      <property name="max_gain">20dB</property>
      <property name="mlt_service">volume</property>
      <property name="shotcut:filter">muteVolume</property>
      <property name="gain">0</property>
    </filter>
  </chain>
  <producer id="producer14" in="00:00:00.000" out="00:00:22.383">
    <property name="length">00:00:22.400</property>
    <property name="eof">pause</property>
    <property name="resource">0.87:heads/IMG_0058.MOV</property>
    <property name="aspect_ratio">1</property>
    <property name="meta.media.nb_streams">5</property>
    <property name="meta.media.0.stream.type">video</property>
    <property name="meta.media.0.stream.frame_rate">59.9641</property>
    <property name="meta.media.0.stream.sample_aspect_ratio">0</property>
    <property name="meta.media.0.codec.width">1920</property>
    <property name="meta.media.0.codec.height">1080</property>
    <property name="meta.media.0.codec.rotate">0</property>
    <property name="meta.media.0.codec.pix_fmt">yuv420p</property>
    <property name="meta.media.0.codec.sample_aspect_ratio">0</property>
    <property name="meta.media.0.codec.colorspace">709</property>
    <property name="meta.media.0.codec.color_trc">1</property>
    <property name="meta.media.0.codec.name">hevc</property>
    <property name="meta.media.0.codec.long_name">HEVC (High Efficiency Video Coding)</property>
    <property name="meta.media.0.codec.bit_rate">11712588</property>
    <property name="meta.attr.0.stream.creation_time.markup">2023-11-30T16:36:53.000000Z</property>
    <property name="meta.attr.0.stream.handler_name.markup">Core Media Video</property>
    <property name="meta.attr.0.stream.vendor_id.markup">[0][0][0][0]</property>
    <property name="meta.attr.0.stream.encoder.markup">HEVC</property>
    <property name="meta.media.1.stream.type">audio</property>
    <property name="meta.media.1.codec.sample_fmt">fltp</property>
    <property name="meta.media.1.codec.sample_rate">44100</property>
    <property name="meta.media.1.codec.channels">2</property>
    <property name="meta.media.1.codec.name">aac</property>
    <property name="meta.media.1.codec.long_name">AAC (Advanced Audio Coding)</property>
    <property name="meta.media.1.codec.bit_rate">170413</property>
    <property name="meta.attr.1.stream.creation_time.markup">2023-11-30T16:36:53.000000Z</property>
    <property name="meta.attr.1.stream.handler_name.markup">Core Media Audio</property>
    <property name="meta.attr.1.stream.vendor_id.markup">[0][0][0][0]</property>
    <property name="meta.attr.major_brand.markup">qt  </property>
    <property name="meta.attr.minor_version.markup">0</property>
    <property name="meta.attr.compatible_brands.markup">qt  </property>
    <property name="meta.attr.creation_time.markup">2023-11-30T16:36:53.000000Z</property>
    <property name="meta.attr.com.apple.quicktime.location.accuracy.horizontal.markup">23.824413</property>
    <property name="meta.attr.com.apple.quicktime.location.ISO6709.markup">+22.3378+114.2657+067.318/</property>
    <property name="meta.attr.com.apple.quicktime.make.markup">Apple</property>
    <property name="meta.attr.com.apple.quicktime.model.markup">iPhone 11</property>
    <property name="meta.attr.com.apple.quicktime.software.markup">17.0.3</property>
    <property name="meta.attr.com.apple.quicktime.creationdate.markup">2023-12-01T00:36:53+0800</property>
    <property name="seekable">1</property>
    <property name="meta.media.sample_aspect_num">1</property>
    <property name="meta.media.sample_aspect_den">1</property>
    <property name="audio_index">1</property>
    <property name="video_index">0</property>
    <property name="warp_speed">0.87</property>
    <property name="warp_resource">heads/IMG_0058.MOV</property>
    <property name="mlt_service">timewarp</property>
    <property name="shotcut:producer">avformat</property>
    <property name="video_delay">0</property>
    <property name="astream">0</property>
    <property name="vstream">0</property>
    <property name="shotcut:hash">095df1ab39258e87578759c2975b0aee</property>
    <property name="shotcut:caption">IMG_0058.MOV (0.87x)</property>
    <property name="xml">was here</property>
    <property name="meta.media.frame_rate_num">33400</property>
    <property name="meta.media.frame_rate_den">557</property>
    <property name="meta.media.colorspace">709</property>
    <property name="meta.media.color_trc">1</property>
    <property name="meta.media.has_b_frames">2</property>
    <property name="meta.media.width">1920</property>
    <property name="meta.media.height">1080</property>
    <property name="meta.media.color_range">mpeg</property>
    <property name="meta.media.top_field_first">0</property>
    <property name="meta.media.progressive">1</property>
    <filter id="filter36" in="00:00:11.500" out="00:00:18.483">
      <property name="version">0.6</property>
      <property name="mlt_service">frei0r.select0r</property>
      <property name="threads">0</property>
      <property name="0">#ffe4dacf</property>
      <property name="1">1</property>
      <property name="2">0.042</property>
      <property name="3">0.084</property>
      <property name="4">0.667</property>
      <property name="5">0</property>
      <property name="6">1</property>
      <property name="7">0.5</property>
      <property name="8">0.35</property>
      <property name="9">0</property>
      <property name="disable">0</property>
    </filter>
    <filter id="filter37" in="00:00:11.500" out="00:00:18.483">
      <property name="background">color:#00000000</property>
      <property name="mlt_service">affine</property>
      <property name="shotcut:filter">affineSizePosition</property>
      <property name="transition.fill">1</property>
      <property name="transition.distort">0</property>
      <property name="transition.rect">-206.936 -7.39944 2304 1296 1</property>
      <property name="transition.valign">middle</property>
      <property name="transition.halign">center</property>
      <property name="shotcut:animIn">00:00:00.000</property>
      <property name="shotcut:animOut">00:00:00.000</property>
      <property name="transition.threads">0</property>
    </filter>
    <filter id="filter38" in="00:00:11.500" out="00:00:18.483">
      <property name="window">75</property>
      <property name="max_gain">20dB</property>
      <property name="mlt_service">volume</property>
      <property name="shotcut:filter">muteVolume</property>
      <property name="gain">0</property>
    </filter>
  </producer>
  <chain id="chain17" out="00:00:15.033">
    <property name="length">00:00:15.050</property>
    <property name="eof">pause</property>
    <property name="resource">backgrounds/pexels_videos_1793334 (1080p).mp4</property>
    <property name="mlt_service">avformat-novalidate</property>
    <property name="meta.media.nb_streams">1</property>
    <property name="meta.media.0.stream.type">video</property>
    <property name="meta.media.0.stream.frame_rate">29.97</property>
    <property name="meta.media.0.stream.sample_aspect_ratio">0</property>
    <property name="meta.media.0.codec.width">1920</property>
    <property name="meta.media.0.codec.height">1080</property>
    <property name="meta.media.0.codec.rotate">0</property>
    <property name="meta.media.0.codec.pix_fmt">yuv420p</property>
    <property name="meta.media.0.codec.sample_aspect_ratio">0</property>
    <property name="meta.media.0.codec.colorspace">709</property>
    <property name="meta.media.0.codec.color_trc">1</property>
    <property name="meta.media.0.codec.name">h264</property>
    <property name="meta.media.0.codec.long_name">H.264 / AVC / MPEG-4 AVC / MPEG-4 part 10</property>
    <property name="meta.media.0.codec.bit_rate">4974306</property>
    <property name="meta.attr.0.stream.creation_time.markup">2019-01-14T02:15:45.000000Z</property>
    <property name="meta.attr.0.stream.handler_name.markup">L-SMASH Video Handler</property>
    <property name="meta.attr.0.stream.vendor_id.markup">[0][0][0][0]</property>
    <property name="meta.attr.0.stream.encoder.markup">AVC Coding</property>
    <property name="meta.attr.major_brand.markup">mp42</property>
    <property name="meta.attr.minor_version.markup">0</property>
    <property name="meta.attr.compatible_brands.markup">mp42mp41isomavc1</property>
    <property name="meta.attr.creation_time.markup">2019-01-14T02:15:45.000000Z</property>
    <property name="seekable">1</property>
    <property name="meta.media.sample_aspect_num">1</property>
    <property name="meta.media.sample_aspect_den">1</property>
    <property name="audio_index">-1</property>
    <property name="video_index">0</property>
    <property name="creation_time">2019-01-14T02:15:45</property>
    <property name="vstream">0</property>
    <property name="meta.media.frame_rate_num">30000</property>
    <property name="meta.media.frame_rate_den">1001</property>
    <property name="meta.media.colorspace">709</property>
    <property name="meta.media.color_trc">1</property>
    <property name="meta.media.has_b_frames">2</property>
    <property name="meta.media.width">1920</property>
    <property name="meta.media.height">1080</property>
    <property name="meta.media.color_range">mpeg</property>
    <property name="shotcut:hash">87db25f61ccdcecd3bf94358d0b5207c</property>
    <property name="meta.media.top_field_first">0</property>
    <property name="meta.media.progressive">1</property>
    <property name="shotcut:caption">pexels_videos_1793334 (1080p).mp4</property>
    <property name="meta.shotcut.vui">1</property>
    <property name="xml">was here</property>
    <filter id="filter39" out="00:00:14.983">
      <property name="lift_r">0.249989</property>
      <property name="lift_g">0.249989</property>
      <property name="lift_b">0.249989</property>
      <property name="gamma_r">1</property>
      <property name="gamma_g">1</property>
      <property name="gamma_b">1</property>
      <property name="gain_r">1</property>
      <property name="gain_g">1</property>
      <property name="gain_b">1</property>
      <property name="mlt_service">lift_gamma_gain</property>
      <property name="disable">0</property>
    </filter>
    <filter id="filter40" out="00:00:14.983">
      <property name="mlt_service">avfilter.gblur</property>
      <property name="shotcut:filter">blur_gaussian_av</property>
      <property name="av.sigma">25</property>
      <property name="av.sigmaV">25</property>
      <property name="av.planes">0xf</property>
      <property name="disable">0</property>
    </filter>
    <filter id="filter41" out="00:00:14.983">
      <property name="argument">Video by Miguel Á. Padriñán</property>
      <property name="geometry">1440 3 480 1080 1</property>
      <property name="family">Times New Roman</property>
      <property name="size">1080</property>
      <property name="weight">400</property>
      <property name="style">normal</property>
      <property name="fgcolour">#ff000000</property>
      <property name="bgcolour">#00000000</property>
      <property name="olcolour">#aaffffff</property>
      <property name="pad">0</property>
      <property name="halign">right</property>
      <property name="valign">bottom</property>
      <property name="outline">3</property>
      <property name="opacity">1.0</property>
      <property name="mlt_service">dynamictext</property>
      <property name="shotcut:filter">dynamicText</property>
      <property name="shotcut:usePointSize">0</property>
      <property name="shotcut:animIn">00:00:00.000</property>
      <property name="shotcut:animOut">00:00:00.000</property>
      <property name="disable">0</property>
    </filter>
  </chain>
  <tractor id="tractor2" in="00:00:00.000" out="00:00:00.983">
    <property name="shotcut:transition">lumaMix</property>
    <track producer="producer14" in="00:00:17.500" out="00:00:18.483"/>
    <track producer="chain17" in="00:00:00.000" out="00:00:00.983"/>
    <transition id="transition4" out="00:00:00.983">
      <property name="a_track">0</property>
      <property name="b_track">1</property>
      <property name="factory">loader</property>
      <property name="resource">%luma17.pgm</property>
      <property name="mlt_service">luma</property>
      <property name="alpha_over">1</property>
      <property name="fix_background_alpha">1</property>
      <property name="progressive">1</property>
      <property name="invert">0</property>
      <property name="softness">0.2</property>
    </transition>
    <transition id="transition5" out="00:00:00.983">
      <property name="a_track">0</property>
      <property name="b_track">1</property>
      <property name="mlt_service">mix</property>
      <property name="start">-1</property>
      <property name="accepts_blanks">1</property>
    </transition>
  </tractor>
  <chain id="chain18" out="00:00:15.033">
    <property name="length">00:00:15.050</property>
    <property name="eof">pause</property>
    <property name="resource">backgrounds/pexels_videos_1793334 (1080p).mp4</property>
    <property name="mlt_service">avformat-novalidate</property>
    <property name="meta.media.nb_streams">1</property>
    <property name="meta.media.0.stream.type">video</property>
    <property name="meta.media.0.stream.frame_rate">29.97</property>
    <property name="meta.media.0.stream.sample_aspect_ratio">0</property>
    <property name="meta.media.0.codec.width">1920</property>
    <property name="meta.media.0.codec.height">1080</property>
    <property name="meta.media.0.codec.rotate">0</property>
    <property name="meta.media.0.codec.pix_fmt">yuv420p</property>
    <property name="meta.media.0.codec.sample_aspect_ratio">0</property>
    <property name="meta.media.0.codec.colorspace">709</property>
    <property name="meta.media.0.codec.color_trc">1</property>
    <property name="meta.media.0.codec.name">h264</property>
    <property name="meta.media.0.codec.long_name">H.264 / AVC / MPEG-4 AVC / MPEG-4 part 10</property>
    <property name="meta.media.0.codec.bit_rate">4974306</property>
    <property name="meta.attr.0.stream.creation_time.markup">2019-01-14T02:15:45.000000Z</property>
    <property name="meta.attr.0.stream.handler_name.markup">L-SMASH Video Handler</property>
    <property name="meta.attr.0.stream.vendor_id.markup">[0][0][0][0]</property>
    <property name="meta.attr.0.stream.encoder.markup">AVC Coding</property>
    <property name="meta.attr.major_brand.markup">mp42</property>
    <property name="meta.attr.minor_version.markup">0</property>
    <property name="meta.attr.compatible_brands.markup">mp42mp41isomavc1</property>
    <property name="meta.attr.creation_time.markup">2019-01-14T02:15:45.000000Z</property>
    <property name="seekable">1</property>
    <property name="meta.media.sample_aspect_num">1</property>
    <property name="meta.media.sample_aspect_den">1</property>
    <property name="audio_index">-1</property>
    <property name="video_index">0</property>
    <property name="creation_time">2019-01-14T02:15:45</property>
    <property name="vstream">0</property>
    <property name="meta.media.frame_rate_num">30000</property>
    <property name="meta.media.frame_rate_den">1001</property>
    <property name="meta.media.colorspace">709</property>
    <property name="meta.media.color_trc">1</property>
    <property name="meta.media.has_b_frames">2</property>
    <property name="meta.media.width">1920</property>
    <property name="meta.media.height">1080</property>
    <property name="meta.media.color_range">mpeg</property>
    <property name="shotcut:hash">87db25f61ccdcecd3bf94358d0b5207c</property>
    <property name="meta.media.top_field_first">0</property>
    <property name="meta.media.progressive">1</property>
    <property name="shotcut:caption">pexels_videos_1793334 (1080p).mp4</property>
    <property name="meta.shotcut.vui">1</property>
    <property name="xml">was here</property>
    <filter id="filter42" out="00:00:14.983">
      <property name="lift_r">0.249989</property>
      <property name="lift_g">0.249989</property>
      <property name="lift_b">0.249989</property>
      <property name="gamma_r">1</property>
      <property name="gamma_g">1</property>
      <property name="gamma_b">1</property>
      <property name="gain_r">1</property>
      <property name="gain_g">1</property>
      <property name="gain_b">1</property>
      <property name="mlt_service">lift_gamma_gain</property>
      <property name="disable">0</property>
    </filter>
    <filter id="filter43" out="00:00:14.983">
      <property name="mlt_service">avfilter.gblur</property>
      <property name="shotcut:filter">blur_gaussian_av</property>
      <property name="av.sigma">25</property>
      <property name="av.sigmaV">25</property>
      <property name="av.planes">0xf</property>
      <property name="disable">0</property>
    </filter>
    <filter id="filter44" out="00:00:14.983">
      <property name="argument">Video by Miguel Á. Padriñán</property>
      <property name="geometry">1440 3 480 1080 1</property>
      <property name="family">Times New Roman</property>
      <property name="size">1080</property>
      <property name="weight">400</property>
      <property name="style">normal</property>
      <property name="fgcolour">#ff000000</property>
      <property name="bgcolour">#00000000</property>
      <property name="olcolour">#aaffffff</property>
      <property name="pad">0</property>
      <property name="halign">right</property>
      <property name="valign">bottom</property>
      <property name="outline">3</property>
      <property name="opacity">1.0</property>
      <property name="mlt_service">dynamictext</property>
      <property name="shotcut:filter">dynamicText</property>
      <property name="shotcut:usePointSize">0</property>
      <property name="shotcut:animIn">00:00:00.000</property>
      <property name="shotcut:animOut">00:00:00.000</property>
      <property name="disable">0</property>
    </filter>
  </chain>
  <tractor id="tractor3" in="00:00:00.000" out="00:00:00.983">
    <property name="shotcut:transition">lumaMix</property>
    <track producer="chain17" in="00:00:14.000" out="00:00:14.983"/>
    <track producer="chain18" in="00:00:00.000" out="00:00:00.983"/>
    <transition id="transition6" out="00:00:00.983">
      <property name="a_track">0</property>
      <property name="b_track">1</property>
      <property name="factory">loader</property>
      <property name="mlt_service">luma</property>
      <property name="alpha_over">1</property>
      <property name="fix_background_alpha">1</property>
    </transition>
    <transition id="transition7" out="00:00:00.983">
      <property name="a_track">0</property>
      <property name="b_track">1</property>
      <property name="mlt_service">mix</property>
      <property name="start">-1</property>
      <property name="accepts_blanks">1</property>
    </transition>
  </tractor>
  <chain id="chain19" out="00:00:17.050">
    <property name="length">00:00:17.067</property>
    <property name="eof">pause</property>
    <property name="resource">heads/IMG_0059.MOV</property>
    <property name="mlt_service">avformat-novalidate</property>
    <property name="meta.media.nb_streams">5</property>
    <property name="meta.media.0.stream.type">video</property>
    <property name="meta.media.0.stream.frame_rate">59.9648</property>
    <property name="meta.media.0.stream.sample_aspect_ratio">0</property>
    <property name="meta.media.0.codec.width">1920</property>
    <property name="meta.media.0.codec.height">1080</property>
    <property name="meta.media.0.codec.rotate">0</property>
    <property name="meta.media.0.codec.pix_fmt">yuv420p</property>
    <property name="meta.media.0.codec.sample_aspect_ratio">0</property>
    <property name="meta.media.0.codec.colorspace">709</property>
    <property name="meta.media.0.codec.color_trc">1</property>
    <property name="meta.media.0.codec.name">hevc</property>
    <property name="meta.media.0.codec.long_name">HEVC (High Efficiency Video Coding)</property>
    <property name="meta.media.0.codec.bit_rate">11772239</property>
    <property name="meta.attr.0.stream.creation_time.markup">2023-11-30T16:41:33.000000Z</property>
    <property name="meta.attr.0.stream.handler_name.markup">Core Media Video</property>
    <property name="meta.attr.0.stream.vendor_id.markup">[0][0][0][0]</property>
    <property name="meta.attr.0.stream.encoder.markup">HEVC</property>
    <property name="meta.media.1.stream.type">audio</property>
    <property name="meta.media.1.codec.sample_fmt">fltp</property>
    <property name="meta.media.1.codec.sample_rate">44100</property>
    <property name="meta.media.1.codec.channels">2</property>
    <property name="meta.media.1.codec.name">aac</property>
    <property name="meta.media.1.codec.long_name">AAC (Advanced Audio Coding)</property>
    <property name="meta.media.1.codec.bit_rate">168000</property>
    <property name="meta.attr.1.stream.creation_time.markup">2023-11-30T16:41:33.000000Z</property>
    <property name="meta.attr.1.stream.handler_name.markup">Core Media Audio</property>
    <property name="meta.attr.1.stream.vendor_id.markup">[0][0][0][0]</property>
    <property name="meta.attr.major_brand.markup">qt  </property>
    <property name="meta.attr.minor_version.markup">0</property>
    <property name="meta.attr.compatible_brands.markup">qt  </property>
    <property name="meta.attr.creation_time.markup">2023-11-30T16:41:33.000000Z</property>
    <property name="meta.attr.com.apple.quicktime.location.accuracy.horizontal.markup">35.000000</property>
    <property name="meta.attr.com.apple.quicktime.location.ISO6709.markup">+22.3378+114.2659+067.011/</property>
    <property name="meta.attr.com.apple.quicktime.make.markup">Apple</property>
    <property name="meta.attr.com.apple.quicktime.model.markup">iPhone 11</property>
    <property name="meta.attr.com.apple.quicktime.software.markup">17.0.3</property>
    <property name="meta.attr.com.apple.quicktime.creationdate.markup">2023-12-01T00:41:33+0800</property>
    <property name="seekable">1</property>
    <property name="meta.media.sample_aspect_num">1</property>
    <property name="meta.media.sample_aspect_den">1</property>
    <property name="audio_index">1</property>
    <property name="video_index">0</property>
    <property name="creation_time">2023-11-30T16:41:33</property>
    <property name="vstream">0</property>
    <property name="meta.media.frame_rate_num">51150</property>
    <property name="meta.media.frame_rate_den">853</property>
    <property name="meta.media.colorspace">709</property>
    <property name="meta.media.color_trc">1</property>
    <property name="meta.media.has_b_frames">2</property>
    <property name="meta.media.width">1920</property>
    <property name="meta.media.height">1080</property>
    <property name="meta.media.color_range">mpeg</property>
    <property name="astream">0</property>
    <property name="shotcut:hash">0b6791520a29707c47d3ba39a75ed903</property>
    <property name="meta.media.top_field_first">0</property>
    <property name="meta.media.progressive">1</property>
    <property name="shotcut:caption">IMG_0059.MOV</property>
    <property name="meta.shotcut.vui">1</property>
    <property name="xml">was here</property>
    <filter id="filter45" in="00:00:00.500" out="00:00:13.483">
      <property name="version">0.6</property>
      <property name="mlt_service">frei0r.select0r</property>
      <property name="threads">0</property>
      <property name="0">#ffe4dacf</property>
      <property name="1">1</property>
      <property name="2">0.042</property>
      <property name="3">0.084</property>
      <property name="4">0.667</property>
      <property name="5">0</property>
      <property name="6">1</property>
      <property name="7">0.5</property>
      <property name="8">0.35</property>
      <property name="9">0</property>
      <property name="disable">0</property>
    </filter>
    <filter id="filter46" in="00:00:00.500" out="00:00:13.483">
      <property name="background">color:#00000000</property>
      <property name="mlt_service">affine</property>
      <property name="shotcut:filter">affineSizePosition</property>
      <property name="transition.fill">1</property>
      <property name="transition.distort">0</property>
      <property name="transition.rect">143.334 -140.372 2304 1296 1</property>
      <property name="transition.valign">middle</property>
      <property name="transition.halign">center</property>
      <property name="shotcut:animIn">00:00:00.000</property>
      <property name="shotcut:animOut">00:00:00.000</property>
      <property name="transition.threads">0</property>
    </filter>
    <filter id="filter47" in="00:00:00.500" out="00:00:13.483">
      <property name="window">75</property>
      <property name="max_gain">20dB</property>
      <property name="mlt_service">volume</property>
      <property name="shotcut:filter">muteVolume</property>
      <property name="gain">0</property>
    </filter>
  </chain>
  <tractor id="tractor4" in="00:00:00.000" out="00:00:00.983">
    <property name="shotcut:transition">lumaMix</property>
    <track producer="chain18" in="00:00:14.000" out="00:00:14.983"/>
    <track producer="chain19" in="00:00:00.500" out="00:00:01.483"/>
    <transition id="transition8" out="00:00:00.983">
      <property name="a_track">0</property>
      <property name="b_track">1</property>
      <property name="factory">loader</property>
      <property name="mlt_service">luma</property>
      <property name="alpha_over">1</property>
      <property name="fix_background_alpha">1</property>
    </transition>
    <transition id="transition9" out="00:00:00.983">
      <property name="a_track">0</property>
      <property name="b_track">1</property>
      <property name="mlt_service">mix</property>
      <property name="start">-1</property>
      <property name="accepts_blanks">1</property>
    </transition>
  </tractor>
  <producer id="producer15" in="00:00:00.000" out="00:00:13.633">
    <property name="length">00:00:13.650</property>
    <property name="eof">pause</property>
    <property name="resource">1.25:heads/IMG_0059.MOV</property>
    <property name="aspect_ratio">1</property>
    <property name="meta.media.nb_streams">5</property>
    <property name="meta.media.0.stream.type">video</property>
    <property name="meta.media.0.stream.frame_rate">59.9648</property>
    <property name="meta.media.0.stream.sample_aspect_ratio">0</property>
    <property name="meta.media.0.codec.width">1920</property>
    <property name="meta.media.0.codec.height">1080</property>
    <property name="meta.media.0.codec.rotate">0</property>
    <property name="meta.media.0.codec.pix_fmt">yuv420p</property>
    <property name="meta.media.0.codec.sample_aspect_ratio">0</property>
    <property name="meta.media.0.codec.colorspace">709</property>
    <property name="meta.media.0.codec.color_trc">1</property>
    <property name="meta.media.0.codec.name">hevc</property>
    <property name="meta.media.0.codec.long_name">HEVC (High Efficiency Video Coding)</property>
    <property name="meta.media.0.codec.bit_rate">11772239</property>
    <property name="meta.attr.0.stream.creation_time.markup">2023-11-30T16:41:33.000000Z</property>
    <property name="meta.attr.0.stream.handler_name.markup">Core Media Video</property>
    <property name="meta.attr.0.stream.vendor_id.markup">[0][0][0][0]</property>
    <property name="meta.attr.0.stream.encoder.markup">HEVC</property>
    <property name="meta.media.1.stream.type">audio</property>
    <property name="meta.media.1.codec.sample_fmt">fltp</property>
    <property name="meta.media.1.codec.sample_rate">44100</property>
    <property name="meta.media.1.codec.channels">2</property>
    <property name="meta.media.1.codec.name">aac</property>
    <property name="meta.media.1.codec.long_name">AAC (Advanced Audio Coding)</property>
    <property name="meta.media.1.codec.bit_rate">168000</property>
    <property name="meta.attr.1.stream.creation_time.markup">2023-11-30T16:41:33.000000Z</property>
    <property name="meta.attr.1.stream.handler_name.markup">Core Media Audio</property>
    <property name="meta.attr.1.stream.vendor_id.markup">[0][0][0][0]</property>
    <property name="meta.attr.major_brand.markup">qt  </property>
    <property name="meta.attr.minor_version.markup">0</property>
    <property name="meta.attr.compatible_brands.markup">qt  </property>
    <property name="meta.attr.creation_time.markup">2023-11-30T16:41:33.000000Z</property>
    <property name="meta.attr.com.apple.quicktime.location.accuracy.horizontal.markup">35.000000</property>
    <property name="meta.attr.com.apple.quicktime.location.ISO6709.markup">+22.3378+114.2659+067.011/</property>
    <property name="meta.attr.com.apple.quicktime.make.markup">Apple</property>
    <property name="meta.attr.com.apple.quicktime.model.markup">iPhone 11</property>
    <property name="meta.attr.com.apple.quicktime.software.markup">17.0.3</property>
    <property name="meta.attr.com.apple.quicktime.creationdate.markup">2023-12-01T00:41:33+0800</property>
    <property name="seekable">1</property>
    <property name="meta.media.sample_aspect_num">1</property>
    <property name="meta.media.sample_aspect_den">1</property>
    <property name="audio_index">1</property>
    <property name="video_index">0</property>
    <property name="warp_speed">1.25</property>
    <property name="warp_resource">heads/IMG_0059.MOV</property>
    <property name="mlt_service">timewarp</property>
    <property name="shotcut:producer">avformat</property>
    <property name="video_delay">0</property>
    <property name="astream">0</property>
    <property name="vstream">0</property>
    <property name="shotcut:hash">0b6791520a29707c47d3ba39a75ed903</property>
    <property name="shotcut:caption">IMG_0059.MOV (1.25x)</property>
    <property name="xml">was here</property>
    <property name="meta.media.frame_rate_num">51150</property>
    <property name="meta.media.frame_rate_den">853</property>
    <property name="meta.media.colorspace">709</property>
    <property name="meta.media.color_trc">1</property>
    <property name="meta.media.has_b_frames">2</property>
    <property name="meta.media.width">1920</property>
    <property name="meta.media.height">1080</property>
    <property name="meta.media.color_range">mpeg</property>
    <property name="meta.media.top_field_first">0</property>
    <property name="meta.media.progressive">1</property>
    <filter id="filter48" in="00:00:10.800" out="00:00:11.767">
      <property name="version">0.6</property>
      <property name="mlt_service">frei0r.select0r</property>
      <property name="threads">0</property>
      <property name="0">#ffe4dacf</property>
      <property name="1">1</property>
      <property name="2">0.042</property>
      <property name="3">0.084</property>
      <property name="4">0.667</property>
      <property name="5">0</property>
      <property name="6">1</property>
      <property name="7">0.5</property>
      <property name="8">0.35</property>
      <property name="9">0</property>
      <property name="disable">0</property>
    </filter>
    <filter id="filter49" in="00:00:10.800" out="00:00:11.767">
      <property name="background">color:#00000000</property>
      <property name="mlt_service">affine</property>
      <property name="shotcut:filter">affineSizePosition</property>
      <property name="transition.fill">1</property>
      <property name="transition.distort">0</property>
      <property name="transition.rect">143.334 -140.372 2304 1296 1</property>
      <property name="transition.valign">middle</property>
      <property name="transition.halign">center</property>
      <property name="shotcut:animIn">00:00:00.000</property>
      <property name="shotcut:animOut">00:00:00.000</property>
      <property name="transition.threads">0</property>
    </filter>
    <filter id="filter50" in="00:00:10.800" out="00:00:11.767">
      <property name="window">75</property>
      <property name="max_gain">20dB</property>
      <property name="mlt_service">volume</property>
      <property name="shotcut:filter">muteVolume</property>
      <property name="gain">0</property>
    </filter>
  </producer>
  <producer id="producer16" in="00:00:00.000" out="00:00:28.433">
    <property name="length">00:00:28.450</property>
    <property name="eof">pause</property>
    <property name="resource">0.6:heads/IMG_0059.MOV</property>
    <property name="aspect_ratio">1</property>
    <property name="meta.media.nb_streams">5</property>
    <property name="meta.media.0.stream.type">video</property>
    <property name="meta.media.0.stream.frame_rate">59.9648</property>
    <property name="meta.media.0.stream.sample_aspect_ratio">0</property>
    <property name="meta.media.0.codec.width">1920</property>
    <property name="meta.media.0.codec.height">1080</property>
    <property name="meta.media.0.codec.rotate">0</property>
    <property name="meta.media.0.codec.pix_fmt">yuv420p</property>
    <property name="meta.media.0.codec.sample_aspect_ratio">0</property>
    <property name="meta.media.0.codec.colorspace">709</property>
    <property name="meta.media.0.codec.color_trc">1</property>
    <property name="meta.media.0.codec.name">hevc</property>
    <property name="meta.media.0.codec.long_name">HEVC (High Efficiency Video Coding)</property>
    <property name="meta.media.0.codec.bit_rate">11772239</property>
    <property name="meta.attr.0.stream.creation_time.markup">2023-11-30T16:41:33.000000Z</property>
    <property name="meta.attr.0.stream.handler_name.markup">Core Media Video</property>
    <property name="meta.attr.0.stream.vendor_id.markup">[0][0][0][0]</property>
    <property name="meta.attr.0.stream.encoder.markup">HEVC</property>
    <property name="meta.media.1.stream.type">audio</property>
    <property name="meta.media.1.codec.sample_fmt">fltp</property>
    <property name="meta.media.1.codec.sample_rate">44100</property>
    <property name="meta.media.1.codec.channels">2</property>
    <property name="meta.media.1.codec.name">aac</property>
    <property name="meta.media.1.codec.long_name">AAC (Advanced Audio Coding)</property>
    <property name="meta.media.1.codec.bit_rate">168000</property>
    <property name="meta.attr.1.stream.creation_time.markup">2023-11-30T16:41:33.000000Z</property>
    <property name="meta.attr.1.stream.handler_name.markup">Core Media Audio</property>
    <property name="meta.attr.1.stream.vendor_id.markup">[0][0][0][0]</property>
    <property name="meta.attr.major_brand.markup">qt  </property>
    <property name="meta.attr.minor_version.markup">0</property>
    <property name="meta.attr.compatible_brands.markup">qt  </property>
    <property name="meta.attr.creation_time.markup">2023-11-30T16:41:33.000000Z</property>
    <property name="meta.attr.com.apple.quicktime.location.accuracy.horizontal.markup">35.000000</property>
    <property name="meta.attr.com.apple.quicktime.location.ISO6709.markup">+22.3378+114.2659+067.011/</property>
    <property name="meta.attr.com.apple.quicktime.make.markup">Apple</property>
    <property name="meta.attr.com.apple.quicktime.model.markup">iPhone 11</property>
    <property name="meta.attr.com.apple.quicktime.software.markup">17.0.3</property>
    <property name="meta.attr.com.apple.quicktime.creationdate.markup">2023-12-01T00:41:33+0800</property>
    <property name="seekable">1</property>
    <property name="meta.media.sample_aspect_num">1</property>
    <property name="meta.media.sample_aspect_den">1</property>
    <property name="audio_index">1</property>
    <property name="video_index">0</property>
    <property name="warp_speed">0.6</property>
    <property name="warp_resource">heads/IMG_0059.MOV</property>
    <property name="mlt_service">timewarp</property>
    <property name="shotcut:producer">avformat</property>
    <property name="video_delay">0</property>
    <property name="astream">0</property>
    <property name="vstream">0</property>
    <property name="shotcut:hash">0b6791520a29707c47d3ba39a75ed903</property>
    <property name="shotcut:caption">IMG_0059.MOV (0.6x)</property>
    <property name="xml">was here</property>
    <property name="meta.media.frame_rate_num">51150</property>
    <property name="meta.media.frame_rate_den">853</property>
    <property name="meta.media.colorspace">709</property>
    <property name="meta.media.color_trc">1</property>
    <property name="meta.media.has_b_frames">2</property>
    <property name="meta.media.width">1920</property>
    <property name="meta.media.height">1080</property>
    <property name="meta.media.color_range">mpeg</property>
    <property name="meta.media.top_field_first">0</property>
    <property name="meta.media.progressive">1</property>
    <filter id="filter51" in="00:00:24.567" out="00:00:25.567">
      <property name="version">0.6</property>
      <property name="mlt_service">frei0r.select0r</property>
      <property name="threads">0</property>
      <property name="0">#ffe4dacf</property>
      <property name="1">1</property>
      <property name="2">0.042</property>
      <property name="3">0.084</property>
      <property name="4">0.667</property>
      <property name="5">0</property>
      <property name="6">1</property>
      <property name="7">0.5</property>
      <property name="8">0.35</property>
      <property name="9">0</property>
      <property name="disable">0</property>
    </filter>
    <filter id="filter52" in="00:00:24.567" out="00:00:25.567">
      <property name="background">color:#00000000</property>
      <property name="mlt_service">affine</property>
      <property name="shotcut:filter">affineSizePosition</property>
      <property name="transition.fill">1</property>
      <property name="transition.distort">0</property>
      <property name="transition.rect">143.334 -140.372 2304 1296 1</property>
      <property name="transition.valign">middle</property>
      <property name="transition.halign">center</property>
      <property name="shotcut:animIn">00:00:00.000</property>
      <property name="shotcut:animOut">00:00:00.000</property>
      <property name="transition.threads">0</property>
    </filter>
    <filter id="filter53" in="00:00:24.567" out="00:00:25.567">
      <property name="window">75</property>
      <property name="max_gain">20dB</property>
      <property name="mlt_service">volume</property>
      <property name="shotcut:filter">muteVolume</property>
      <property name="gain">0</property>
    </filter>
  </producer>
  <chain id="chain20" out="00:00:09.383">
    <property name="length">00:00:09.400</property>
    <property name="eof">pause</property>
    <property name="resource">backgrounds/production_id_4769542 (1080p).mp4</property>
    <property name="mlt_service">avformat-novalidate</property>
    <property name="meta.media.nb_streams">1</property>
    <property name="meta.media.0.stream.type">video</property>
    <property name="meta.media.0.stream.frame_rate">25</property>
    <property name="meta.media.0.stream.sample_aspect_ratio">0</property>
    <property name="meta.media.0.codec.width">2048</property>
    <property name="meta.media.0.codec.height">1080</property>
    <property name="meta.media.0.codec.rotate">0</property>
    <property name="meta.media.0.codec.pix_fmt">yuv420p</property>
    <property name="meta.media.0.codec.sample_aspect_ratio">0</property>
    <property name="meta.media.0.codec.colorspace">709</property>
    <property name="meta.media.0.codec.color_trc">1</property>
    <property name="meta.media.0.codec.name">h264</property>
    <property name="meta.media.0.codec.long_name">H.264 / AVC / MPEG-4 AVC / MPEG-4 part 10</property>
    <property name="meta.media.0.codec.bit_rate">5356256</property>
    <property name="meta.attr.0.stream.creation_time.markup">2020-07-01T10:59:55.000000Z</property>
    <property name="meta.attr.0.stream.handler_name.markup">L-SMASH Video Handler</property>
    <property name="meta.attr.0.stream.vendor_id.markup">[0][0][0][0]</property>
    <property name="meta.attr.0.stream.encoder.markup">AVC Coding</property>
    <property name="meta.attr.major_brand.markup">mp42</property>
    <property name="meta.attr.minor_version.markup">0</property>
    <property name="meta.attr.compatible_brands.markup">mp42mp41isomavc1</property>
    <property name="meta.attr.creation_time.markup">2020-07-01T10:59:55.000000Z</property>
    <property name="seekable">1</property>
    <property name="meta.media.sample_aspect_num">1</property>
    <property name="meta.media.sample_aspect_den">1</property>
    <property name="audio_index">-1</property>
    <property name="video_index">0</property>
    <property name="creation_time">2020-07-01T10:59:55</property>
    <property name="vstream">0</property>
    <property name="meta.media.frame_rate_num">25</property>
    <property name="meta.media.frame_rate_den">1</property>
    <property name="meta.media.colorspace">709</property>
    <property name="meta.media.color_trc">1</property>
    <property name="meta.media.has_b_frames">2</property>
    <property name="meta.media.width">2048</property>
    <property name="meta.media.height">1080</property>
    <property name="meta.media.color_range">mpeg</property>
    <property name="shotcut:hash">e63d2f84a1b58074f9c71aa2f563d301</property>
    <property name="meta.media.top_field_first">0</property>
    <property name="meta.media.progressive">1</property>
    <property name="shotcut:caption">production_id_4769542 (1080p).mp4</property>
    <property name="meta.shotcut.vui">1</property>
    <property name="xml">was here</property>
    <filter id="filter54" out="00:00:09.383">
      <property name="mlt_service">avfilter.gblur</property>
      <property name="shotcut:filter">blur_gaussian_av</property>
      <property name="av.sigma">25</property>
      <property name="av.sigmaV">25</property>
      <property name="av.planes">0xf</property>
    </filter>
    <filter id="filter55" out="00:00:09.383">
      <property name="background">color:#00000000</property>
      <property name="mlt_service">affine</property>
      <property name="shotcut:filter">affineSizePosition</property>
      <property name="transition.fill">1</property>
      <property name="transition.distort">0</property>
      <property name="transition.rect">-64 0.25 2048 1080 1</property>
      <property name="transition.valign">middle</property>
      <property name="transition.halign">center</property>
      <property name="shotcut:animIn">00:00:00.000</property>
      <property name="shotcut:animOut">00:00:00.000</property>
      <property name="transition.threads">0</property>
    </filter>
    <filter id="filter56" out="00:00:09.383">
      <property name="argument">Video by cottonbro studio</property>
      <property name="geometry">1440 3 480 1080 1</property>
      <property name="family">Times New Roman</property>
      <property name="size">1080</property>
      <property name="weight">400</property>
      <property name="style">normal</property>
      <property name="fgcolour">#ff000000</property>
      <property name="bgcolour">#00000000</property>
      <property name="olcolour">#aaffffff</property>
      <property name="pad">0</property>
      <property name="halign">right</property>
      <property name="valign">bottom</property>
      <property name="outline">3</property>
      <property name="opacity">1.0</property>
      <property name="mlt_service">dynamictext</property>
      <property name="shotcut:filter">dynamicText</property>
      <property name="shotcut:usePointSize">0</property>
      <property name="shotcut:animIn">00:00:00.000</property>
      <property name="shotcut:animOut">00:00:00.000</property>
      <property name="disable">0</property>
    </filter>
    <filter id="filter57" out="00:00:09.383">
      <property name="argument">Negatives of Cramming</property>
      <property name="geometry">0 0 1920 1080 1</property>
      <property name="family">Times New Roman</property>
      <property name="size">1080</property>
      <property name="weight">700</property>
      <property name="style">normal</property>
      <property name="fgcolour">#ff000000</property>
      <property name="bgcolour">#00000000</property>
      <property name="olcolour">#aaffffff</property>
      <property name="pad">0</property>
      <property name="halign">left</property>
      <property name="valign">top</property>
      <property name="outline">16</property>
      <property name="opacity">1.0</property>
      <property name="mlt_service">dynamictext</property>
      <property name="shotcut:filter">dynamicText</property>
      <property name="shotcut:usePointSize">0</property>
      <property name="shotcut:animIn">00:00:00.000</property>
      <property name="shotcut:animOut">00:00:00.000</property>
    </filter>
  </chain>
  <tractor id="tractor5" in="00:00:00.000" out="00:00:00.983">
    <property name="shotcut:transition">lumaMix</property>
    <track producer="producer16" in="00:00:24.583" out="00:00:25.567"/>
    <track producer="chain20" in="00:00:00.000" out="00:00:00.983"/>
    <transition id="transition10" out="00:00:00.983">
      <property name="a_track">0</property>
      <property name="b_track">1</property>
      <property name="factory">loader</property>
      <property name="resource">%luma02.pgm</property>
      <property name="mlt_service">luma</property>
      <property name="alpha_over">1</property>
      <property name="fix_background_alpha">1</property>
      <property name="progressive">1</property>
      <property name="invert">0</property>
      <property name="softness">0.2</property>
    </transition>
    <transition id="transition11" out="00:00:00.983">
      <property name="a_track">0</property>
      <property name="b_track">1</property>
      <property name="mlt_service">mix</property>
      <property name="start">-1</property>
      <property name="accepts_blanks">1</property>
    </transition>
  </tractor>
  <chain id="chain21" out="00:00:09.383">
    <property name="length">00:00:09.400</property>
    <property name="eof">pause</property>
    <property name="resource">backgrounds/production_id_4769542 (1080p).mp4</property>
    <property name="mlt_service">avformat-novalidate</property>
    <property name="meta.media.nb_streams">1</property>
    <property name="meta.media.0.stream.type">video</property>
    <property name="meta.media.0.stream.frame_rate">25</property>
    <property name="meta.media.0.stream.sample_aspect_ratio">0</property>
    <property name="meta.media.0.codec.width">2048</property>
    <property name="meta.media.0.codec.height">1080</property>
    <property name="meta.media.0.codec.rotate">0</property>
    <property name="meta.media.0.codec.pix_fmt">yuv420p</property>
    <property name="meta.media.0.codec.sample_aspect_ratio">0</property>
    <property name="meta.media.0.codec.colorspace">709</property>
    <property name="meta.media.0.codec.color_trc">1</property>
    <property name="meta.media.0.codec.name">h264</property>
    <property name="meta.media.0.codec.long_name">H.264 / AVC / MPEG-4 AVC / MPEG-4 part 10</property>
    <property name="meta.media.0.codec.bit_rate">5356256</property>
    <property name="meta.attr.0.stream.creation_time.markup">2020-07-01T10:59:55.000000Z</property>
    <property name="meta.attr.0.stream.handler_name.markup">L-SMASH Video Handler</property>
    <property name="meta.attr.0.stream.vendor_id.markup">[0][0][0][0]</property>
    <property name="meta.attr.0.stream.encoder.markup">AVC Coding</property>
    <property name="meta.attr.major_brand.markup">mp42</property>
    <property name="meta.attr.minor_version.markup">0</property>
    <property name="meta.attr.compatible_brands.markup">mp42mp41isomavc1</property>
    <property name="meta.attr.creation_time.markup">2020-07-01T10:59:55.000000Z</property>
    <property name="seekable">1</property>
    <property name="meta.media.sample_aspect_num">1</property>
    <property name="meta.media.sample_aspect_den">1</property>
    <property name="audio_index">-1</property>
    <property name="video_index">0</property>
    <property name="creation_time">2020-07-01T10:59:55</property>
    <property name="vstream">0</property>
    <property name="meta.media.frame_rate_num">25</property>
    <property name="meta.media.frame_rate_den">1</property>
    <property name="meta.media.colorspace">709</property>
    <property name="meta.media.color_trc">1</property>
    <property name="meta.media.has_b_frames">2</property>
    <property name="meta.media.width">2048</property>
    <property name="meta.media.height">1080</property>
    <property name="meta.media.color_range">mpeg</property>
    <property name="shotcut:hash">e63d2f84a1b58074f9c71aa2f563d301</property>
    <property name="meta.media.top_field_first">0</property>
    <property name="meta.media.progressive">1</property>
    <property name="shotcut:caption">production_id_4769542 (1080p).mp4</property>
    <property name="meta.shotcut.vui">1</property>
    <property name="xml">was here</property>
    <filter id="filter58" out="00:00:08.583">
      <property name="mlt_service">avfilter.gblur</property>
      <property name="shotcut:filter">blur_gaussian_av</property>
      <property name="av.sigma">25</property>
      <property name="av.sigmaV">25</property>
      <property name="av.planes">0xf</property>
    </filter>
    <filter id="filter59" out="00:00:08.583">
      <property name="background">color:#00000000</property>
      <property name="mlt_service">affine</property>
      <property name="shotcut:filter">affineSizePosition</property>
      <property name="transition.fill">1</property>
      <property name="transition.distort">0</property>
      <property name="transition.rect">-64 0.25 2048 1080 1</property>
      <property name="transition.valign">middle</property>
      <property name="transition.halign">center</property>
      <property name="shotcut:animIn">00:00:00.000</property>
      <property name="shotcut:animOut">00:00:00.000</property>
      <property name="transition.threads">0</property>
    </filter>
    <filter id="filter60" out="00:00:08.583">
      <property name="argument">Video by cottonbro studio</property>
      <property name="geometry">1440 3 480 1080 1</property>
      <property name="family">Times New Roman</property>
      <property name="size">1080</property>
      <property name="weight">400</property>
      <property name="style">normal</property>
      <property name="fgcolour">#ff000000</property>
      <property name="bgcolour">#00000000</property>
      <property name="olcolour">#aaffffff</property>
      <property name="pad">0</property>
      <property name="halign">right</property>
      <property name="valign">bottom</property>
      <property name="outline">3</property>
      <property name="opacity">1.0</property>
      <property name="mlt_service">dynamictext</property>
      <property name="shotcut:filter">dynamicText</property>
      <property name="shotcut:usePointSize">0</property>
      <property name="shotcut:animIn">00:00:00.000</property>
      <property name="shotcut:animOut">00:00:00.000</property>
      <property name="disable">0</property>
    </filter>
    <filter id="filter61" out="00:00:08.583">
      <property name="argument">Negatives of Cramming</property>
      <property name="geometry">0 0 1920 1080 1</property>
      <property name="family">Times New Roman</property>
      <property name="size">1080</property>
      <property name="weight">700</property>
      <property name="style">normal</property>
      <property name="fgcolour">#ff000000</property>
      <property name="bgcolour">#00000000</property>
      <property name="olcolour">#aaffffff</property>
      <property name="pad">0</property>
      <property name="halign">left</property>
      <property name="valign">top</property>
      <property name="outline">16</property>
      <property name="opacity">1.0</property>
      <property name="mlt_service">dynamictext</property>
      <property name="shotcut:filter">dynamicText</property>
      <property name="shotcut:usePointSize">0</property>
      <property name="shotcut:animIn">00:00:00.000</property>
      <property name="shotcut:animOut">00:00:00.000</property>
    </filter>
  </chain>
  <tractor id="tractor6" in="00:00:00.000" out="00:00:00.983">
    <property name="shotcut:transition">lumaMix</property>
    <track producer="chain20" in="00:00:08.400" out="00:00:09.383"/>
    <track producer="chain21" in="00:00:00.000" out="00:00:00.983"/>
    <transition id="transition12" out="00:00:00.983">
      <property name="a_track">0</property>
      <property name="b_track">1</property>
      <property name="factory">loader</property>
      <property name="mlt_service">luma</property>
      <property name="alpha_over">1</property>
      <property name="fix_background_alpha">1</property>
    </transition>
    <transition id="transition13" out="00:00:00.983">
      <property name="a_track">0</property>
      <property name="b_track">1</property>
      <property name="mlt_service">mix</property>
      <property name="start">-1</property>
      <property name="accepts_blanks">1</property>
    </transition>
  </tractor>
  <producer id="producer17" in="00:00:00.000" out="00:00:29.583">
    <property name="length">00:00:29.600</property>
    <property name="eof">pause</property>
    <property name="resource">0.5:heads/IMG_0060.MOV</property>
    <property name="aspect_ratio">1</property>
    <property name="meta.media.nb_streams">5</property>
    <property name="meta.media.0.stream.type">video</property>
    <property name="meta.media.0.stream.frame_rate">59.9662</property>
    <property name="meta.media.0.stream.sample_aspect_ratio">0</property>
    <property name="meta.media.0.codec.width">1920</property>
    <property name="meta.media.0.codec.height">1080</property>
    <property name="meta.media.0.codec.rotate">0</property>
    <property name="meta.media.0.codec.pix_fmt">yuv420p</property>
    <property name="meta.media.0.codec.sample_aspect_ratio">0</property>
    <property name="meta.media.0.codec.colorspace">709</property>
    <property name="meta.media.0.codec.color_trc">1</property>
    <property name="meta.media.0.codec.name">hevc</property>
    <property name="meta.media.0.codec.long_name">HEVC (High Efficiency Video Coding)</property>
    <property name="meta.media.0.codec.bit_rate">11741490</property>
    <property name="meta.attr.0.stream.creation_time.markup">2023-11-30T16:43:27.000000Z</property>
    <property name="meta.attr.0.stream.handler_name.markup">Core Media Video</property>
    <property name="meta.attr.0.stream.vendor_id.markup">[0][0][0][0]</property>
    <property name="meta.attr.0.stream.encoder.markup">HEVC</property>
    <property name="meta.media.1.stream.type">audio</property>
    <property name="meta.media.1.codec.sample_fmt">fltp</property>
    <property name="meta.media.1.codec.sample_rate">44100</property>
    <property name="meta.media.1.codec.channels">2</property>
    <property name="meta.media.1.codec.name">aac</property>
    <property name="meta.media.1.codec.long_name">AAC (Advanced Audio Coding)</property>
    <property name="meta.media.1.codec.bit_rate">171145</property>
    <property name="meta.attr.1.stream.creation_time.markup">2023-11-30T16:43:27.000000Z</property>
    <property name="meta.attr.1.stream.handler_name.markup">Core Media Audio</property>
    <property name="meta.attr.1.stream.vendor_id.markup">[0][0][0][0]</property>
    <property name="meta.attr.major_brand.markup">qt  </property>
    <property name="meta.attr.minor_version.markup">0</property>
    <property name="meta.attr.compatible_brands.markup">qt  </property>
    <property name="meta.attr.creation_time.markup">2023-11-30T16:43:27.000000Z</property>
    <property name="meta.attr.com.apple.quicktime.location.accuracy.horizontal.markup">35.000000</property>
    <property name="meta.attr.com.apple.quicktime.location.ISO6709.markup">+22.3378+114.2659+067.704/</property>
    <property name="meta.attr.com.apple.quicktime.make.markup">Apple</property>
    <property name="meta.attr.com.apple.quicktime.model.markup">iPhone 11</property>
    <property name="meta.attr.com.apple.quicktime.software.markup">17.0.3</property>
    <property name="meta.attr.com.apple.quicktime.creationdate.markup">2023-12-01T00:43:27+0800</property>
    <property name="seekable">1</property>
    <property name="meta.media.sample_aspect_num">1</property>
    <property name="meta.media.sample_aspect_den">1</property>
    <property name="audio_index">1</property>
    <property name="video_index">0</property>
    <property name="warp_speed">0.5</property>
    <property name="warp_resource">heads/IMG_0060.MOV</property>
    <property name="mlt_service">timewarp</property>
    <property name="shotcut:producer">avformat</property>
    <property name="video_delay">0</property>
    <property name="astream">0</property>
    <property name="vstream">0</property>
    <property name="shotcut:hash">3ba81badc6093f4cdc1e0308370802f1</property>
    <property name="shotcut:caption">IMG_0060.MOV (0.5x)</property>
    <property name="xml">was here</property>
    <property name="meta.media.frame_rate_num">21288</property>
    <property name="meta.media.frame_rate_den">355</property>
    <property name="meta.media.colorspace">709</property>
    <property name="meta.media.color_trc">1</property>
    <property name="meta.media.has_b_frames">2</property>
    <property name="meta.media.width">1920</property>
    <property name="meta.media.height">1080</property>
    <property name="meta.media.color_range">mpeg</property>
    <property name="meta.media.top_field_first">0</property>
    <property name="meta.media.progressive">1</property>
    <property name="meta.shotcut.vui">1</property>
    <filter id="filter62" in="00:00:09.833" out="00:00:11.067">
      <property name="version">0.6</property>
      <property name="mlt_service">frei0r.select0r</property>
      <property name="threads">0</property>
      <property name="0">#ffe4dacf</property>
      <property name="1">1</property>
      <property name="2">0.042</property>
      <property name="3">0.084</property>
      <property name="4">0.667</property>
      <property name="5">0</property>
      <property name="6">1</property>
      <property name="7">0.5</property>
      <property name="8">0.35</property>
      <property name="9">0</property>
      <property name="disable">0</property>
    </filter>
    <filter id="filter63" in="00:00:09.833" out="00:00:11.067">
      <property name="background">color:#00000000</property>
      <property name="mlt_service">affine</property>
      <property name="shotcut:filter">affineSizePosition</property>
      <property name="transition.fill">1</property>
      <property name="transition.distort">0</property>
      <property name="transition.rect">-259 -179 2304 1296 1</property>
      <property name="transition.valign">middle</property>
      <property name="transition.halign">center</property>
      <property name="shotcut:animIn">00:00:00.000</property>
      <property name="shotcut:animOut">00:00:00.000</property>
      <property name="transition.threads">0</property>
    </filter>
    <filter id="filter64" in="00:00:09.833" out="00:00:11.067">
      <property name="window">75</property>
      <property name="max_gain">20dB</property>
      <property name="mlt_service">volume</property>
      <property name="shotcut:filter">muteVolume</property>
      <property name="gain">0</property>
    </filter>
  </producer>
  <tractor id="tractor7" in="00:00:00.000" out="00:00:00.983">
    <property name="shotcut:transition">lumaMix</property>
    <track producer="chain21" in="00:00:07.600" out="00:00:08.583"/>
    <track producer="producer17" in="00:00:09.833" out="00:00:10.817"/>
    <transition id="transition14" out="00:00:00.983">
      <property name="a_track">0</property>
      <property name="b_track">1</property>
      <property name="factory">loader</property>
      <property name="resource">%luma02.pgm</property>
      <property name="mlt_service">luma</property>
      <property name="alpha_over">1</property>
      <property name="fix_background_alpha">1</property>
      <property name="progressive">1</property>
      <property name="invert">1</property>
      <property name="softness">0.2</property>
    </transition>
    <transition id="transition15" out="00:00:00.983">
      <property name="a_track">0</property>
      <property name="b_track">1</property>
      <property name="mlt_service">mix</property>
      <property name="start">-1</property>
      <property name="accepts_blanks">1</property>
    </transition>
  </tractor>
  <chain id="chain22" out="00:00:14.783">
    <property name="length">00:00:14.800</property>
    <property name="eof">pause</property>
    <property name="resource">heads/IMG_0060.MOV</property>
    <property name="mlt_service">avformat</property>
    <property name="meta.media.nb_streams">5</property>
    <property name="meta.media.0.stream.type">video</property>
    <property name="meta.media.0.stream.frame_rate">59.9662</property>
    <property name="meta.media.0.stream.sample_aspect_ratio">0</property>
    <property name="meta.media.0.codec.width">1920</property>
    <property name="meta.media.0.codec.height">1080</property>
    <property name="meta.media.0.codec.rotate">0</property>
    <property name="meta.media.0.codec.pix_fmt">yuv420p</property>
    <property name="meta.media.0.codec.sample_aspect_ratio">0</property>
    <property name="meta.media.0.codec.colorspace">709</property>
    <property name="meta.media.0.codec.color_trc">1</property>
    <property name="meta.media.0.codec.name">hevc</property>
    <property name="meta.media.0.codec.long_name">HEVC (High Efficiency Video Coding)</property>
    <property name="meta.media.0.codec.bit_rate">11741490</property>
    <property name="meta.attr.0.stream.creation_time.markup">2023-11-30T16:43:27.000000Z</property>
    <property name="meta.attr.0.stream.handler_name.markup">Core Media Video</property>
    <property name="meta.attr.0.stream.vendor_id.markup">[0][0][0][0]</property>
    <property name="meta.attr.0.stream.encoder.markup">HEVC</property>
    <property name="meta.media.1.stream.type">audio</property>
    <property name="meta.media.1.codec.sample_fmt">fltp</property>
    <property name="meta.media.1.codec.sample_rate">44100</property>
    <property name="meta.media.1.codec.channels">2</property>
    <property name="meta.media.1.codec.name">aac</property>
    <property name="meta.media.1.codec.long_name">AAC (Advanced Audio Coding)</property>
    <property name="meta.media.1.codec.bit_rate">171145</property>
    <property name="meta.attr.1.stream.creation_time.markup">2023-11-30T16:43:27.000000Z</property>
    <property name="meta.attr.1.stream.handler_name.markup">Core Media Audio</property>
    <property name="meta.attr.1.stream.vendor_id.markup">[0][0][0][0]</property>
    <property name="meta.attr.major_brand.markup">qt  </property>
    <property name="meta.attr.minor_version.markup">0</property>
    <property name="meta.attr.compatible_brands.markup">qt  </property>
    <property name="meta.attr.creation_time.markup">2023-11-30T16:43:27.000000Z</property>
    <property name="meta.attr.com.apple.quicktime.location.accuracy.horizontal.markup">35.000000</property>
    <property name="meta.attr.com.apple.quicktime.location.ISO6709.markup">+22.3378+114.2659+067.704/</property>
    <property name="meta.attr.com.apple.quicktime.make.markup">Apple</property>
    <property name="meta.attr.com.apple.quicktime.model.markup">iPhone 11</property>
    <property name="meta.attr.com.apple.quicktime.software.markup">17.0.3</property>
    <property name="meta.attr.com.apple.quicktime.creationdate.markup">2023-12-01T00:43:27+0800</property>
    <property name="seekable">1</property>
    <property name="meta.media.sample_aspect_num">1</property>
    <property name="meta.media.sample_aspect_den">1</property>
    <property name="audio_index">1</property>
    <property name="video_index">0</property>
    <property name="vstream">0</property>
    <property name="meta.media.frame_rate_num">21288</property>
    <property name="meta.media.frame_rate_den">355</property>
    <property name="meta.media.colorspace">709</property>
    <property name="meta.media.color_trc">1</property>
    <property name="meta.media.has_b_frames">2</property>
    <property name="meta.media.width">1920</property>
    <property name="meta.media.height">1080</property>
    <property name="meta.media.color_range">mpeg</property>
    <property name="astream">0</property>
    <property name="video_delay">0</property>
    <property name="shotcut:hash">3ba81badc6093f4cdc1e0308370802f1</property>
    <property name="shotcut:caption">IMG_0060.MOV</property>
    <property name="shotcut:producer">avformat</property>
    <property name="xml">was here</property>
    <property name="meta.media.top_field_first">0</property>
    <property name="meta.media.progressive">1</property>
    <property name="meta.shotcut.vui">1</property>
    <filter id="filter65" in="00:00:05.550" out="00:00:13.283">
      <property name="version">0.6</property>
      <property name="mlt_service">frei0r.select0r</property>
      <property name="threads">0</property>
      <property name="0">#ffe4dacf</property>
      <property name="1">1</property>
      <property name="2">0.042</property>
      <property name="3">0.084</property>
      <property name="4">0.667</property>
      <property name="5">0</property>
      <property name="6">1</property>
      <property name="7">0.5</property>
      <property name="8">0.35</property>
      <property name="9">0</property>
      <property name="disable">0</property>
    </filter>
    <filter id="filter66" in="00:00:05.550" out="00:00:13.283">
      <property name="background">color:#00000000</property>
      <property name="mlt_service">affine</property>
      <property name="shotcut:filter">affineSizePosition</property>
      <property name="transition.fill">1</property>
      <property name="transition.distort">0</property>
      <property name="transition.rect">-258.828 -179.291 2304 1296 1</property>
      <property name="transition.valign">middle</property>
      <property name="transition.halign">center</property>
      <property name="shotcut:animIn">00:00:00.000</property>
      <property name="shotcut:animOut">00:00:00.000</property>
      <property name="transition.threads">0</property>
    </filter>
    <filter id="filter67" in="00:00:05.550" out="00:00:13.283">
      <property name="window">75</property>
      <property name="max_gain">20dB</property>
      <property name="mlt_service">volume</property>
      <property name="shotcut:filter">muteVolume</property>
      <property name="gain">0</property>
    </filter>
  </chain>
  <chain id="chain23" out="00:00:18.867">
    <property name="length">00:00:18.883</property>
    <property name="eof">pause</property>
    <property name="resource">backgrounds/pexels-tima-miroshnichenko-6550654 (1080p).mp4</property>
    <property name="mlt_service">avformat-novalidate</property>
    <property name="meta.media.nb_streams">2</property>
    <property name="meta.media.0.stream.type">video</property>
    <property name="meta.media.0.stream.frame_rate">25</property>
    <property name="meta.media.0.stream.sample_aspect_ratio">0</property>
    <property name="meta.media.0.codec.width">1920</property>
    <property name="meta.media.0.codec.height">1080</property>
    <property name="meta.media.0.codec.rotate">0</property>
    <property name="meta.media.0.codec.pix_fmt">yuv420p</property>
    <property name="meta.media.0.codec.sample_aspect_ratio">0</property>
    <property name="meta.media.0.codec.colorspace">709</property>
    <property name="meta.media.0.codec.color_trc">1</property>
    <property name="meta.media.0.codec.name">h264</property>
    <property name="meta.media.0.codec.long_name">H.264 / AVC / MPEG-4 AVC / MPEG-4 part 10</property>
    <property name="meta.media.0.codec.bit_rate">2254851</property>
    <property name="meta.attr.0.stream.creation_time.markup">2021-01-20T10:26:52.000000Z</property>
    <property name="meta.attr.0.stream.handler_name.markup">L-SMASH Video Handler</property>
    <property name="meta.attr.0.stream.vendor_id.markup">[0][0][0][0]</property>
    <property name="meta.attr.0.stream.encoder.markup">AVC Coding</property>
    <property name="meta.media.1.stream.type">audio</property>
    <property name="meta.media.1.codec.sample_fmt">fltp</property>
    <property name="meta.media.1.codec.sample_rate">48000</property>
    <property name="meta.media.1.codec.channels">2</property>
    <property name="meta.media.1.codec.name">aac</property>
    <property name="meta.media.1.codec.long_name">AAC (Advanced Audio Coding)</property>
    <property name="meta.media.1.codec.bit_rate">253375</property>
    <property name="meta.attr.1.stream.creation_time.markup">2021-01-20T10:26:52.000000Z</property>
    <property name="meta.attr.1.stream.handler_name.markup">L-SMASH Audio Handler</property>
    <property name="meta.attr.1.stream.vendor_id.markup">[0][0][0][0]</property>
    <property name="meta.attr.major_brand.markup">mp42</property>
    <property name="meta.attr.minor_version.markup">0</property>
    <property name="meta.attr.compatible_brands.markup">mp42mp41isomavc1</property>
    <property name="meta.attr.creation_time.markup">2021-01-20T10:26:52.000000Z</property>
    <property name="seekable">1</property>
    <property name="meta.media.sample_aspect_num">1</property>
    <property name="meta.media.sample_aspect_den">1</property>
    <property name="audio_index">1</property>
    <property name="video_index">0</property>
    <property name="creation_time">2021-01-20T10:26:52</property>
    <property name="vstream">0</property>
    <property name="meta.media.frame_rate_num">25</property>
    <property name="meta.media.frame_rate_den">1</property>
    <property name="meta.media.colorspace">709</property>
    <property name="meta.media.color_trc">1</property>
    <property name="meta.media.has_b_frames">2</property>
    <property name="meta.media.width">1920</property>
    <property name="meta.media.height">1080</property>
    <property name="meta.media.color_range">mpeg</property>
    <property name="astream">0</property>
    <property name="shotcut:hash">d28ae1d805cd8a7f8ba55a14a2e5e15a</property>
    <property name="meta.media.top_field_first">0</property>
    <property name="meta.media.progressive">1</property>
    <property name="shotcut:caption">pexels-tima-miroshnichenko-6550654 (1080p).mp4</property>
    <property name="xml">was here</property>
    <property name="meta.shotcut.vui">1</property>
    <filter id="filter68" out="00:00:03.983">
      <property name="mlt_service">avfilter.gblur</property>
      <property name="shotcut:filter">blur_gaussian_av</property>
      <property name="av.sigma">25</property>
      <property name="av.sigmaV">25</property>
      <property name="av.planes">0xf</property>
    </filter>
    <filter id="filter69" out="00:00:03.983">
      <property name="argument">ACTIVE STUDY
METHODS</property>
      <property name="geometry">00:00:00.000=240 180 1440 720 1;00:00:04.000=0 0 1920 1080 1</property>
      <property name="family">Liberation Serif</property>
      <property name="size">540</property>
      <property name="weight">700</property>
      <property name="style">normal</property>
      <property name="fgcolour">#ffffffff</property>
      <property name="bgcolour">#00000000</property>
      <property name="olcolour">#aa000000</property>
      <property name="pad">0</property>
      <property name="halign">center</property>
      <property name="valign">middle</property>
      <property name="outline">16</property>
      <property name="opacity">1.0</property>
      <property name="mlt_service">dynamictext</property>
      <property name="shotcut:filter">dynamicText</property>
      <property name="shotcut:usePointSize">0</property>
      <property name="shotcut:animIn">00:00:00.000</property>
      <property name="shotcut:animOut">00:00:00.000</property>
      <property name="shotcut:pointSize">48</property>
    </filter>
    <filter id="filter70" out="00:00:03.983">
      <property name="argument">Video by Tima Miroshnichenko</property>
      <property name="geometry">1440 3 480 1080 1</property>
      <property name="family">Times New Roman</property>
      <property name="size">1080</property>
      <property name="weight">400</property>
      <property name="style">normal</property>
      <property name="fgcolour">#ffffffff</property>
      <property name="bgcolour">#00000000</property>
      <property name="olcolour">#aa000000</property>
      <property name="pad">0</property>
      <property name="halign">right</property>
      <property name="valign">bottom</property>
      <property name="outline">3</property>
      <property name="opacity">1.0</property>
      <property name="mlt_service">dynamictext</property>
      <property name="shotcut:filter">dynamicText</property>
      <property name="shotcut:usePointSize">0</property>
      <property name="shotcut:animIn">00:00:00.000</property>
      <property name="shotcut:animOut">00:00:00.000</property>
    </filter>
  </chain>
  <chain id="chain24" out="00:00:15.400">
    <property name="length">00:00:15.417</property>
    <property name="eof">pause</property>
    <property name="resource">heads/IMG_0061.MOV</property>
    <property name="mlt_service">avformat-novalidate</property>
    <property name="meta.media.nb_streams">5</property>
    <property name="meta.media.0.stream.type">video</property>
    <property name="meta.media.0.stream.frame_rate">59.9611</property>
    <property name="meta.media.0.stream.sample_aspect_ratio">0</property>
    <property name="meta.media.0.codec.width">1920</property>
    <property name="meta.media.0.codec.height">1080</property>
    <property name="meta.media.0.codec.rotate">0</property>
    <property name="meta.media.0.codec.pix_fmt">yuv420p</property>
    <property name="meta.media.0.codec.sample_aspect_ratio">0</property>
    <property name="meta.media.0.codec.colorspace">709</property>
    <property name="meta.media.0.codec.color_trc">1</property>
    <property name="meta.media.0.codec.name">hevc</property>
    <property name="meta.media.0.codec.long_name">HEVC (High Efficiency Video Coding)</property>
    <property name="meta.media.0.codec.bit_rate">11768312</property>
    <property name="meta.attr.0.stream.creation_time.markup">2023-11-30T16:46:40.000000Z</property>
    <property name="meta.attr.0.stream.handler_name.markup">Core Media Video</property>
    <property name="meta.attr.0.stream.vendor_id.markup">[0][0][0][0]</property>
    <property name="meta.attr.0.stream.encoder.markup">HEVC</property>
    <property name="meta.media.1.stream.type">audio</property>
    <property name="meta.media.1.codec.sample_fmt">fltp</property>
    <property name="meta.media.1.codec.sample_rate">44100</property>
    <property name="meta.media.1.codec.channels">2</property>
    <property name="meta.media.1.codec.name">aac</property>
    <property name="meta.media.1.codec.long_name">AAC (Advanced Audio Coding)</property>
    <property name="meta.media.1.codec.bit_rate">172448</property>
    <property name="meta.attr.1.stream.creation_time.markup">2023-11-30T16:46:40.000000Z</property>
    <property name="meta.attr.1.stream.handler_name.markup">Core Media Audio</property>
    <property name="meta.attr.1.stream.vendor_id.markup">[0][0][0][0]</property>
    <property name="meta.attr.major_brand.markup">qt  </property>
    <property name="meta.attr.minor_version.markup">0</property>
    <property name="meta.attr.compatible_brands.markup">qt  </property>
    <property name="meta.attr.creation_time.markup">2023-11-30T16:46:40.000000Z</property>
    <property name="meta.attr.com.apple.quicktime.location.accuracy.horizontal.markup">14.410142</property>
    <property name="meta.attr.com.apple.quicktime.location.ISO6709.markup">+22.3378+114.2659+068.032/</property>
    <property name="meta.attr.com.apple.quicktime.make.markup">Apple</property>
    <property name="meta.attr.com.apple.quicktime.model.markup">iPhone 11</property>
    <property name="meta.attr.com.apple.quicktime.software.markup">17.0.3</property>
    <property name="meta.attr.com.apple.quicktime.creationdate.markup">2023-12-01T00:46:40+0800</property>
    <property name="seekable">1</property>
    <property name="meta.media.sample_aspect_num">1</property>
    <property name="meta.media.sample_aspect_den">1</property>
    <property name="audio_index">1</property>
    <property name="video_index">0</property>
    <property name="creation_time">2023-11-30T16:46:40</property>
    <property name="vstream">0</property>
    <property name="meta.media.frame_rate_num">92400</property>
    <property name="meta.media.frame_rate_den">1541</property>
    <property name="meta.media.colorspace">709</property>
    <property name="meta.media.color_trc">1</property>
    <property name="meta.media.has_b_frames">2</property>
    <property name="meta.media.width">1920</property>
    <property name="meta.media.height">1080</property>
    <property name="meta.media.color_range">mpeg</property>
    <property name="astream">0</property>
    <property name="shotcut:hash">f545d29d6746cf7549c3ca98d3ce148d</property>
    <property name="meta.media.top_field_first">0</property>
    <property name="meta.media.progressive">1</property>
    <property name="shotcut:caption">IMG_0061.MOV</property>
    <property name="meta.shotcut.vui">1</property>
    <property name="xml">was here</property>
    <filter id="filter71" in="00:00:03.167" out="00:00:12.650">
      <property name="version">0.6</property>
      <property name="mlt_service">frei0r.select0r</property>
      <property name="threads">0</property>
      <property name="0">#ffe4dacf</property>
      <property name="1">1</property>
      <property name="2">0.042</property>
      <property name="3">0.084</property>
      <property name="4">0.667</property>
      <property name="5">0</property>
      <property name="6">1</property>
      <property name="7">0.5</property>
      <property name="8">0.35</property>
      <property name="9">0</property>
      <property name="disable">0</property>
    </filter>
    <filter id="filter72" in="00:00:03.167" out="00:00:12.650">
      <property name="background">color:#00000000</property>
      <property name="mlt_service">affine</property>
      <property name="shotcut:filter">affineSizePosition</property>
      <property name="transition.fill">1</property>
      <property name="transition.distort">0</property>
      <property name="transition.rect">-252.342 -94.9666 2304 1296 1</property>
      <property name="transition.valign">middle</property>
      <property name="transition.halign">center</property>
      <property name="shotcut:animIn">00:00:00.000</property>
      <property name="shotcut:animOut">00:00:00.000</property>
      <property name="transition.threads">0</property>
    </filter>
    <filter id="filter73" in="00:00:03.167" out="00:00:12.650">
      <property name="window">75</property>
      <property name="max_gain">20dB</property>
      <property name="mlt_service">volume</property>
      <property name="shotcut:filter">muteVolume</property>
      <property name="gain">0</property>
    </filter>
  </chain>
  <chain id="chain25" out="00:00:32.583">
    <property name="length">00:00:32.600</property>
    <property name="eof">pause</property>
    <property name="resource">backgrounds/production_id_4769557 (1080p).mp4</property>
    <property name="mlt_service">avformat-novalidate</property>
    <property name="meta.media.nb_streams">1</property>
    <property name="meta.media.0.stream.type">video</property>
    <property name="meta.media.0.stream.frame_rate">25</property>
    <property name="meta.media.0.stream.sample_aspect_ratio">0</property>
    <property name="meta.media.0.codec.width">2048</property>
    <property name="meta.media.0.codec.height">1080</property>
    <property name="meta.media.0.codec.rotate">0</property>
    <property name="meta.media.0.codec.pix_fmt">yuv420p</property>
    <property name="meta.media.0.codec.sample_aspect_ratio">0</property>
    <property name="meta.media.0.codec.colorspace">709</property>
    <property name="meta.media.0.codec.color_trc">1</property>
    <property name="meta.media.0.codec.name">h264</property>
    <property name="meta.media.0.codec.long_name">H.264 / AVC / MPEG-4 AVC / MPEG-4 part 10</property>
    <property name="meta.media.0.codec.bit_rate">3796474</property>
    <property name="meta.attr.0.stream.creation_time.markup">2020-07-01T11:41:41.000000Z</property>
    <property name="meta.attr.0.stream.handler_name.markup">L-SMASH Video Handler</property>
    <property name="meta.attr.0.stream.vendor_id.markup">[0][0][0][0]</property>
    <property name="meta.attr.0.stream.encoder.markup">AVC Coding</property>
    <property name="meta.attr.major_brand.markup">mp42</property>
    <property name="meta.attr.minor_version.markup">0</property>
    <property name="meta.attr.compatible_brands.markup">mp42mp41isomavc1</property>
    <property name="meta.attr.creation_time.markup">2020-07-01T11:41:41.000000Z</property>
    <property name="seekable">1</property>
    <property name="meta.media.sample_aspect_num">1</property>
    <property name="meta.media.sample_aspect_den">1</property>
    <property name="audio_index">-1</property>
    <property name="video_index">0</property>
    <property name="creation_time">2020-07-01T11:41:41</property>
    <property name="vstream">0</property>
    <property name="meta.media.frame_rate_num">25</property>
    <property name="meta.media.frame_rate_den">1</property>
    <property name="meta.media.colorspace">709</property>
    <property name="meta.media.color_trc">1</property>
    <property name="meta.media.has_b_frames">2</property>
    <property name="meta.media.width">2048</property>
    <property name="meta.media.height">1080</property>
    <property name="meta.media.color_range">mpeg</property>
    <property name="shotcut:hash">d4887d02330cf76727122ae16a0dcafc</property>
    <property name="meta.media.top_field_first">0</property>
    <property name="meta.media.progressive">1</property>
    <property name="shotcut:caption">production_id_4769557 (1080p).mp4</property>
    <property name="meta.shotcut.vui">1</property>
    <property name="xml">was here</property>
    <filter id="filter74" out="00:00:17.983">
      <property name="lift_r">0.124987</property>
      <property name="lift_g">0.124987</property>
      <property name="lift_b">0.124987</property>
      <property name="gamma_r">1</property>
      <property name="gamma_g">1</property>
      <property name="gamma_b">1</property>
      <property name="gain_r">1</property>
      <property name="gain_g">1</property>
      <property name="gain_b">1</property>
      <property name="mlt_service">lift_gamma_gain</property>
    </filter>
    <filter id="filter75" out="00:00:17.983">
      <property name="mlt_service">avfilter.gblur</property>
      <property name="shotcut:filter">blur_gaussian_av</property>
      <property name="av.sigma">25</property>
      <property name="av.sigmaV">25</property>
      <property name="av.planes">0xf</property>
    </filter>
    <filter id="filter76" out="00:00:17.983">
      <property name="background">color:#00000000</property>
      <property name="mlt_service">affine</property>
      <property name="shotcut:filter">affineSizePosition</property>
      <property name="transition.fill">1</property>
      <property name="transition.distort">0</property>
      <property name="transition.rect">-64 0.25 2048 1080 1</property>
      <property name="transition.valign">middle</property>
      <property name="transition.halign">center</property>
      <property name="shotcut:animIn">00:00:00.000</property>
      <property name="shotcut:animOut">00:00:00.000</property>
      <property name="transition.threads">0</property>
    </filter>
    <filter id="filter77" out="00:00:17.983">
      <property name="argument">Video by cottonbro studio</property>
      <property name="geometry">1440 3 480 1080 1</property>
      <property name="family">Times New Roman</property>
      <property name="size">1080</property>
      <property name="weight">400</property>
      <property name="style">normal</property>
      <property name="fgcolour">#ff000000</property>
      <property name="bgcolour">#00000000</property>
      <property name="olcolour">#aaffffff</property>
      <property name="pad">0</property>
      <property name="halign">right</property>
      <property name="valign">bottom</property>
      <property name="outline">3</property>
      <property name="opacity">1.0</property>
      <property name="mlt_service">dynamictext</property>
      <property name="shotcut:filter">dynamicText</property>
      <property name="shotcut:usePointSize">0</property>
      <property name="shotcut:animIn">00:00:00.000</property>
      <property name="shotcut:animOut">00:00:00.000</property>
      <property name="disable">0</property>
    </filter>
    <filter id="filter78" out="00:00:17.983">
      <property name="argument">(Walck-Shannon, Rowell, &amp; Frey, 2021)</property>
      <property name="geometry">0 0 1440 1080 1</property>
      <property name="family">Times New Roman</property>
      <property name="size">1080</property>
      <property name="weight">400</property>
      <property name="style">normal</property>
      <property name="fgcolour">#ff000000</property>
      <property name="bgcolour">#00000000</property>
      <property name="olcolour">#aaffffff</property>
      <property name="pad">0</property>
      <property name="halign">center</property>
      <property name="valign">top</property>
      <property name="outline">3</property>
      <property name="opacity">1.0</property>
      <property name="mlt_service">dynamictext</property>
      <property name="shotcut:filter">dynamicText</property>
      <property name="shotcut:usePointSize">0</property>
      <property name="shotcut:animIn">00:00:00.000</property>
      <property name="shotcut:animOut">00:00:00.000</property>
    </filter>
  </chain>
  <tractor id="tractor8" in="00:00:00.000" out="00:00:00.983">
    <property name="shotcut:transition">lumaMix</property>
    <track producer="chain24" in="00:00:11.667" out="00:00:12.650"/>
    <track producer="chain25" in="00:00:00.000" out="00:00:00.983"/>
    <transition id="transition16" out="00:00:00.983">
      <property name="a_track">0</property>
      <property name="b_track">1</property>
      <property name="factory">loader</property>
      <property name="mlt_service">luma</property>
      <property name="alpha_over">1</property>
      <property name="fix_background_alpha">1</property>
    </transition>
    <transition id="transition17" out="00:00:00.983">
      <property name="a_track">0</property>
      <property name="b_track">1</property>
      <property name="mlt_service">mix</property>
      <property name="start">-1</property>
      <property name="accepts_blanks">1</property>
    </transition>
  </tractor>
  <chain id="chain26" out="00:00:26.117">
    <property name="length">00:00:26.133</property>
    <property name="eof">pause</property>
    <property name="resource">heads/IMG_0062.MOV</property>
    <property name="mlt_service">avformat-novalidate</property>
    <property name="meta.media.nb_streams">5</property>
    <property name="meta.media.0.stream.type">video</property>
    <property name="meta.media.0.stream.frame_rate">59.9617</property>
    <property name="meta.media.0.stream.sample_aspect_ratio">0</property>
    <property name="meta.media.0.codec.width">1920</property>
    <property name="meta.media.0.codec.height">1080</property>
    <property name="meta.media.0.codec.rotate">0</property>
    <property name="meta.media.0.codec.pix_fmt">yuv420p</property>
    <property name="meta.media.0.codec.sample_aspect_ratio">0</property>
    <property name="meta.media.0.codec.colorspace">709</property>
    <property name="meta.media.0.codec.color_trc">1</property>
    <property name="meta.media.0.codec.name">hevc</property>
    <property name="meta.media.0.codec.long_name">HEVC (High Efficiency Video Coding)</property>
    <property name="meta.media.0.codec.bit_rate">11735726</property>
    <property name="meta.attr.0.stream.creation_time.markup">2023-11-30T16:50:21.000000Z</property>
    <property name="meta.attr.0.stream.handler_name.markup">Core Media Video</property>
    <property name="meta.attr.0.stream.vendor_id.markup">[0][0][0][0]</property>
    <property name="meta.attr.0.stream.encoder.markup">HEVC</property>
    <property name="meta.media.1.stream.type">audio</property>
    <property name="meta.media.1.codec.sample_fmt">fltp</property>
    <property name="meta.media.1.codec.sample_rate">44100</property>
    <property name="meta.media.1.codec.channels">2</property>
    <property name="meta.media.1.codec.name">aac</property>
    <property name="meta.media.1.codec.long_name">AAC (Advanced Audio Coding)</property>
    <property name="meta.media.1.codec.bit_rate">170489</property>
    <property name="meta.attr.1.stream.creation_time.markup">2023-11-30T16:50:21.000000Z</property>
    <property name="meta.attr.1.stream.handler_name.markup">Core Media Audio</property>
    <property name="meta.attr.1.stream.vendor_id.markup">[0][0][0][0]</property>
    <property name="meta.attr.major_brand.markup">qt  </property>
    <property name="meta.attr.minor_version.markup">0</property>
    <property name="meta.attr.compatible_brands.markup">qt  </property>
    <property name="meta.attr.creation_time.markup">2023-11-30T16:50:21.000000Z</property>
    <property name="meta.attr.com.apple.quicktime.location.accuracy.horizontal.markup">17.102165</property>
    <property name="meta.attr.com.apple.quicktime.location.ISO6709.markup">+22.3378+114.2658+066.329/</property>
    <property name="meta.attr.com.apple.quicktime.make.markup">Apple</property>
    <property name="meta.attr.com.apple.quicktime.model.markup">iPhone 11</property>
    <property name="meta.attr.com.apple.quicktime.software.markup">17.0.3</property>
    <property name="meta.attr.com.apple.quicktime.creationdate.markup">2023-12-01T00:50:21+0800</property>
    <property name="seekable">1</property>
    <property name="meta.media.sample_aspect_num">1</property>
    <property name="meta.media.sample_aspect_den">1</property>
    <property name="audio_index">1</property>
    <property name="video_index">0</property>
    <property name="creation_time">2023-11-30T16:50:21</property>
    <property name="vstream">0</property>
    <property name="meta.media.frame_rate_num">23505</property>
    <property name="meta.media.frame_rate_den">392</property>
    <property name="meta.media.colorspace">709</property>
    <property name="meta.media.color_trc">1</property>
    <property name="meta.media.has_b_frames">2</property>
    <property name="meta.media.width">1920</property>
    <property name="meta.media.height">1080</property>
    <property name="meta.media.color_range">mpeg</property>
    <property name="astream">0</property>
    <property name="shotcut:hash">9c31f20e61a6c254c85353ad0d085a88</property>
    <property name="meta.media.top_field_first">0</property>
    <property name="meta.media.progressive">1</property>
    <property name="shotcut:caption">IMG_0062.MOV</property>
    <property name="meta.shotcut.vui">1</property>
    <property name="xml">was here</property>
    <filter id="filter79" in="00:00:05.733" out="00:00:21.717">
      <property name="version">0.6</property>
      <property name="mlt_service">frei0r.select0r</property>
      <property name="threads">0</property>
      <property name="0">#ffe4dacf</property>
      <property name="1">1</property>
      <property name="2">0.042</property>
      <property name="3">0.084</property>
      <property name="4">0.667</property>
      <property name="5">0</property>
      <property name="6">1</property>
      <property name="7">0.5</property>
      <property name="8">0.35</property>
      <property name="9">0</property>
      <property name="disable">0</property>
    </filter>
    <filter id="filter80" in="00:00:05.733" out="00:00:21.717">
      <property name="background">color:#00000000</property>
      <property name="mlt_service">affine</property>
      <property name="shotcut:filter">affineSizePosition</property>
      <property name="transition.fill">1</property>
      <property name="transition.distort">0</property>
      <property name="transition.rect">00:00:14.000=-304.234 -88.4801 2304 1296 1;00:00:16.000=-2880 -450 7680 4320 1</property>
      <property name="transition.valign">middle</property>
      <property name="transition.halign">center</property>
      <property name="shotcut:animIn">00:00:00.000</property>
      <property name="shotcut:animOut">00:00:00.000</property>
      <property name="transition.threads">0</property>
    </filter>
    <filter id="filter81" in="00:00:05.733" out="00:00:21.717">
      <property name="window">75</property>
      <property name="max_gain">20dB</property>
      <property name="mlt_service">volume</property>
      <property name="shotcut:filter">muteVolume</property>
      <property name="gain">0</property>
    </filter>
  </chain>
  <tractor id="tractor9" in="00:00:00.000" out="00:00:00.483">
    <property name="shotcut:transition">lumaMix</property>
    <track producer="chain25" in="00:00:17.500" out="00:00:17.983"/>
    <track producer="chain26" in="00:00:05.733" out="00:00:06.217"/>
    <transition id="transition18" out="00:00:00.483">
      <property name="a_track">0</property>
      <property name="b_track">1</property>
      <property name="factory">loader</property>
      <property name="mlt_service">luma</property>
      <property name="alpha_over">1</property>
      <property name="fix_background_alpha">1</property>
    </transition>
    <transition id="transition19" out="00:00:00.483">
      <property name="a_track">0</property>
      <property name="b_track">1</property>
      <property name="mlt_service">mix</property>
      <property name="start">-1</property>
      <property name="accepts_blanks">1</property>
    </transition>
  </tractor>
  <chain id="chain27" out="00:00:12.950">
    <property name="length">00:00:12.967</property>
    <property name="eof">pause</property>
    <property name="resource">backgrounds/production_id_5198168 (1080p).mp4</property>
    <property name="mlt_service">avformat-novalidate</property>
    <property name="meta.media.nb_streams">1</property>
    <property name="meta.media.0.stream.type">video</property>
    <property name="meta.media.0.stream.frame_rate">25</property>
    <property name="meta.media.0.stream.sample_aspect_ratio">0</property>
    <property name="meta.media.0.codec.width">1920</property>
    <property name="meta.media.0.codec.height">1080</property>
    <property name="meta.media.0.codec.rotate">0</property>
    <property name="meta.media.0.codec.pix_fmt">yuv420p</property>
    <property name="meta.media.0.codec.sample_aspect_ratio">0</property>
    <property name="meta.media.0.codec.colorspace">709</property>
    <property name="meta.media.0.codec.color_trc">1</property>
    <property name="meta.media.0.codec.name">h264</property>
    <property name="meta.media.0.codec.long_name">H.264 / AVC / MPEG-4 AVC / MPEG-4 part 10</property>
    <property name="meta.media.0.codec.bit_rate">2752943</property>
    <property name="meta.attr.0.stream.creation_time.markup">2020-08-26T08:51:56.000000Z</property>
    <property name="meta.attr.0.stream.handler_name.markup">L-SMASH Video Handler</property>
    <property name="meta.attr.0.stream.vendor_id.markup">[0][0][0][0]</property>
    <property name="meta.attr.0.stream.encoder.markup">AVC Coding</property>
    <property name="meta.attr.major_brand.markup">mp42</property>
    <property name="meta.attr.minor_version.markup">0</property>
    <property name="meta.attr.compatible_brands.markup">mp42mp41isomavc1</property>
    <property name="meta.attr.creation_time.markup">2020-08-26T08:51:56.000000Z</property>
    <property name="seekable">1</property>
    <property name="meta.media.sample_aspect_num">1</property>
    <property name="meta.media.sample_aspect_den">1</property>
    <property name="audio_index">-1</property>
    <property name="video_index">0</property>
    <property name="creation_time">2020-08-26T08:51:56</property>
    <property name="vstream">0</property>
    <property name="meta.media.frame_rate_num">25</property>
    <property name="meta.media.frame_rate_den">1</property>
    <property name="meta.media.colorspace">709</property>
    <property name="meta.media.color_trc">1</property>
    <property name="meta.media.has_b_frames">2</property>
    <property name="meta.media.width">1920</property>
    <property name="meta.media.height">1080</property>
    <property name="meta.media.color_range">mpeg</property>
    <property name="shotcut:hash">a48924e7a9087e4d6ecc44e1ea340b06</property>
    <property name="meta.media.top_field_first">0</property>
    <property name="meta.media.progressive">1</property>
    <property name="shotcut:caption">production_id_5198168 (1080p).mp4</property>
    <property name="meta.shotcut.vui">1</property>
    <property name="xml">was here</property>
    <filter id="filter82" out="00:00:12.950">
      <property name="mlt_service">avfilter.gblur</property>
      <property name="shotcut:filter">blur_gaussian_av</property>
      <property name="av.sigma">25</property>
      <property name="av.sigmaV">25</property>
      <property name="av.planes">0xf</property>
    </filter>
    <filter id="filter83" out="00:00:12.950">
      <property name="argument">Video by Max Fischer</property>
      <property name="geometry">1440 3 480 1080 1</property>
      <property name="family">Times New Roman</property>
      <property name="size">1080</property>
      <property name="weight">400</property>
      <property name="style">normal</property>
      <property name="fgcolour">#ff000000</property>
      <property name="bgcolour">#00000000</property>
      <property name="olcolour">#aaffffff</property>
      <property name="pad">0</property>
      <property name="halign">right</property>
      <property name="valign">bottom</property>
      <property name="outline">3</property>
      <property name="opacity">1.0</property>
      <property name="mlt_service">dynamictext</property>
      <property name="shotcut:filter">dynamicText</property>
      <property name="shotcut:usePointSize">0</property>
      <property name="shotcut:animIn">00:00:00.000</property>
      <property name="shotcut:animOut">00:00:00.000</property>
      <property name="disable">0</property>
    </filter>
  </chain>
  <chain id="chain28" out="00:00:12.950">
    <property name="length">00:00:12.967</property>
    <property name="eof">pause</property>
    <property name="resource">backgrounds/production_id_5198168 (1080p).mp4</property>
    <property name="mlt_service">avformat-novalidate</property>
    <property name="meta.media.nb_streams">1</property>
    <property name="meta.media.0.stream.type">video</property>
    <property name="meta.media.0.stream.frame_rate">25</property>
    <property name="meta.media.0.stream.sample_aspect_ratio">0</property>
    <property name="meta.media.0.codec.width">1920</property>
    <property name="meta.media.0.codec.height">1080</property>
    <property name="meta.media.0.codec.rotate">0</property>
    <property name="meta.media.0.codec.pix_fmt">yuv420p</property>
    <property name="meta.media.0.codec.sample_aspect_ratio">0</property>
    <property name="meta.media.0.codec.colorspace">709</property>
    <property name="meta.media.0.codec.color_trc">1</property>
    <property name="meta.media.0.codec.name">h264</property>
    <property name="meta.media.0.codec.long_name">H.264 / AVC / MPEG-4 AVC / MPEG-4 part 10</property>
    <property name="meta.media.0.codec.bit_rate">2752943</property>
    <property name="meta.attr.0.stream.creation_time.markup">2020-08-26T08:51:56.000000Z</property>
    <property name="meta.attr.0.stream.handler_name.markup">L-SMASH Video Handler</property>
    <property name="meta.attr.0.stream.vendor_id.markup">[0][0][0][0]</property>
    <property name="meta.attr.0.stream.encoder.markup">AVC Coding</property>
    <property name="meta.attr.major_brand.markup">mp42</property>
    <property name="meta.attr.minor_version.markup">0</property>
    <property name="meta.attr.compatible_brands.markup">mp42mp41isomavc1</property>
    <property name="meta.attr.creation_time.markup">2020-08-26T08:51:56.000000Z</property>
    <property name="seekable">1</property>
    <property name="meta.media.sample_aspect_num">1</property>
    <property name="meta.media.sample_aspect_den">1</property>
    <property name="audio_index">-1</property>
    <property name="video_index">0</property>
    <property name="creation_time">2020-08-26T08:51:56</property>
    <property name="vstream">0</property>
    <property name="meta.media.frame_rate_num">25</property>
    <property name="meta.media.frame_rate_den">1</property>
    <property name="meta.media.colorspace">709</property>
    <property name="meta.media.color_trc">1</property>
    <property name="meta.media.has_b_frames">2</property>
    <property name="meta.media.width">1920</property>
    <property name="meta.media.height">1080</property>
    <property name="meta.media.color_range">mpeg</property>
    <property name="shotcut:hash">a48924e7a9087e4d6ecc44e1ea340b06</property>
    <property name="meta.media.top_field_first">0</property>
    <property name="meta.media.progressive">1</property>
    <property name="shotcut:caption">production_id_5198168 (1080p).mp4</property>
    <property name="meta.shotcut.vui">1</property>
    <property name="xml">was here</property>
    <filter id="filter84" out="00:00:12.950">
      <property name="mlt_service">avfilter.gblur</property>
      <property name="shotcut:filter">blur_gaussian_av</property>
      <property name="av.sigma">25</property>
      <property name="av.sigmaV">25</property>
      <property name="av.planes">0xf</property>
    </filter>
    <filter id="filter85" out="00:00:12.950">
      <property name="argument">Video by Max Fischer</property>
      <property name="geometry">1440 3 480 1080 1</property>
      <property name="family">Times New Roman</property>
      <property name="size">1080</property>
      <property name="weight">400</property>
      <property name="style">normal</property>
      <property name="fgcolour">#ff000000</property>
      <property name="bgcolour">#00000000</property>
      <property name="olcolour">#aaffffff</property>
      <property name="pad">0</property>
      <property name="halign">right</property>
      <property name="valign">bottom</property>
      <property name="outline">3</property>
      <property name="opacity">1.0</property>
      <property name="mlt_service">dynamictext</property>
      <property name="shotcut:filter">dynamicText</property>
      <property name="shotcut:usePointSize">0</property>
      <property name="shotcut:animIn">00:00:00.000</property>
      <property name="shotcut:animOut">00:00:00.000</property>
      <property name="disable">0</property>
    </filter>
  </chain>
  <tractor id="tractor10" in="00:00:00.000" out="00:00:00.983">
    <property name="shotcut:transition">lumaMix</property>
    <track producer="chain27" in="00:00:11.967" out="00:00:12.950"/>
    <track producer="chain28" in="00:00:00.000" out="00:00:00.983"/>
    <transition id="transition20" out="00:00:00.983">
      <property name="a_track">0</property>
      <property name="b_track">1</property>
      <property name="factory">loader</property>
      <property name="mlt_service">luma</property>
      <property name="alpha_over">1</property>
      <property name="fix_background_alpha">1</property>
    </transition>
    <transition id="transition21" out="00:00:00.983">
      <property name="a_track">0</property>
      <property name="b_track">1</property>
      <property name="mlt_service">mix</property>
      <property name="start">-1</property>
      <property name="accepts_blanks">1</property>
    </transition>
  </tractor>
  <chain id="chain29" out="00:00:12.950">
    <property name="length">00:00:12.967</property>
    <property name="eof">pause</property>
    <property name="resource">backgrounds/production_id_5198168 (1080p).mp4</property>
    <property name="mlt_service">avformat-novalidate</property>
    <property name="meta.media.nb_streams">1</property>
    <property name="meta.media.0.stream.type">video</property>
    <property name="meta.media.0.stream.frame_rate">25</property>
    <property name="meta.media.0.stream.sample_aspect_ratio">0</property>
    <property name="meta.media.0.codec.width">1920</property>
    <property name="meta.media.0.codec.height">1080</property>
    <property name="meta.media.0.codec.rotate">0</property>
    <property name="meta.media.0.codec.pix_fmt">yuv420p</property>
    <property name="meta.media.0.codec.sample_aspect_ratio">0</property>
    <property name="meta.media.0.codec.colorspace">709</property>
    <property name="meta.media.0.codec.color_trc">1</property>
    <property name="meta.media.0.codec.name">h264</property>
    <property name="meta.media.0.codec.long_name">H.264 / AVC / MPEG-4 AVC / MPEG-4 part 10</property>
    <property name="meta.media.0.codec.bit_rate">2752943</property>
    <property name="meta.attr.0.stream.creation_time.markup">2020-08-26T08:51:56.000000Z</property>
    <property name="meta.attr.0.stream.handler_name.markup">L-SMASH Video Handler</property>
    <property name="meta.attr.0.stream.vendor_id.markup">[0][0][0][0]</property>
    <property name="meta.attr.0.stream.encoder.markup">AVC Coding</property>
    <property name="meta.attr.major_brand.markup">mp42</property>
    <property name="meta.attr.minor_version.markup">0</property>
    <property name="meta.attr.compatible_brands.markup">mp42mp41isomavc1</property>
    <property name="meta.attr.creation_time.markup">2020-08-26T08:51:56.000000Z</property>
    <property name="seekable">1</property>
    <property name="meta.media.sample_aspect_num">1</property>
    <property name="meta.media.sample_aspect_den">1</property>
    <property name="audio_index">-1</property>
    <property name="video_index">0</property>
    <property name="creation_time">2020-08-26T08:51:56</property>
    <property name="vstream">0</property>
    <property name="meta.media.frame_rate_num">25</property>
    <property name="meta.media.frame_rate_den">1</property>
    <property name="meta.media.colorspace">709</property>
    <property name="meta.media.color_trc">1</property>
    <property name="meta.media.has_b_frames">2</property>
    <property name="meta.media.width">1920</property>
    <property name="meta.media.height">1080</property>
    <property name="meta.media.color_range">mpeg</property>
    <property name="shotcut:hash">a48924e7a9087e4d6ecc44e1ea340b06</property>
    <property name="meta.media.top_field_first">0</property>
    <property name="meta.media.progressive">1</property>
    <property name="shotcut:caption">production_id_5198168 (1080p).mp4</property>
    <property name="meta.shotcut.vui">1</property>
    <property name="xml">was here</property>
    <filter id="filter86" out="00:00:12.950">
      <property name="mlt_service">avfilter.gblur</property>
      <property name="shotcut:filter">blur_gaussian_av</property>
      <property name="av.sigma">25</property>
      <property name="av.sigmaV">25</property>
      <property name="av.planes">0xf</property>
    </filter>
    <filter id="filter87" out="00:00:12.950">
      <property name="argument">Video by Max Fischer</property>
      <property name="geometry">1440 3 480 1080 1</property>
      <property name="family">Times New Roman</property>
      <property name="size">1080</property>
      <property name="weight">400</property>
      <property name="style">normal</property>
      <property name="fgcolour">#ff000000</property>
      <property name="bgcolour">#00000000</property>
      <property name="olcolour">#aaffffff</property>
      <property name="pad">0</property>
      <property name="halign">right</property>
      <property name="valign">bottom</property>
      <property name="outline">3</property>
      <property name="opacity">1.0</property>
      <property name="mlt_service">dynamictext</property>
      <property name="shotcut:filter">dynamicText</property>
      <property name="shotcut:usePointSize">0</property>
      <property name="shotcut:animIn">00:00:00.000</property>
      <property name="shotcut:animOut">00:00:00.000</property>
      <property name="disable">0</property>
    </filter>
  </chain>
  <tractor id="tractor11" in="00:00:00.000" out="00:00:00.983">
    <property name="shotcut:transition">lumaMix</property>
    <track producer="chain28" in="00:00:11.967" out="00:00:12.950"/>
    <track producer="chain29" in="00:00:00.000" out="00:00:00.983"/>
    <transition id="transition22" out="00:00:00.983">
      <property name="a_track">0</property>
      <property name="b_track">1</property>
      <property name="factory">loader</property>
      <property name="mlt_service">luma</property>
      <property name="alpha_over">1</property>
      <property name="fix_background_alpha">1</property>
    </transition>
    <transition id="transition23" out="00:00:00.983">
      <property name="a_track">0</property>
      <property name="b_track">1</property>
      <property name="mlt_service">mix</property>
      <property name="start">-1</property>
      <property name="accepts_blanks">1</property>
    </transition>
  </tractor>
  <chain id="chain30" out="00:00:12.950">
    <property name="length">00:00:12.967</property>
    <property name="eof">pause</property>
    <property name="resource">backgrounds/production_id_5198168 (1080p).mp4</property>
    <property name="mlt_service">avformat-novalidate</property>
    <property name="meta.media.nb_streams">1</property>
    <property name="meta.media.0.stream.type">video</property>
    <property name="meta.media.0.stream.frame_rate">25</property>
    <property name="meta.media.0.stream.sample_aspect_ratio">0</property>
    <property name="meta.media.0.codec.width">1920</property>
    <property name="meta.media.0.codec.height">1080</property>
    <property name="meta.media.0.codec.rotate">0</property>
    <property name="meta.media.0.codec.pix_fmt">yuv420p</property>
    <property name="meta.media.0.codec.sample_aspect_ratio">0</property>
    <property name="meta.media.0.codec.colorspace">709</property>
    <property name="meta.media.0.codec.color_trc">1</property>
    <property name="meta.media.0.codec.name">h264</property>
    <property name="meta.media.0.codec.long_name">H.264 / AVC / MPEG-4 AVC / MPEG-4 part 10</property>
    <property name="meta.media.0.codec.bit_rate">2752943</property>
    <property name="meta.attr.0.stream.creation_time.markup">2020-08-26T08:51:56.000000Z</property>
    <property name="meta.attr.0.stream.handler_name.markup">L-SMASH Video Handler</property>
    <property name="meta.attr.0.stream.vendor_id.markup">[0][0][0][0]</property>
    <property name="meta.attr.0.stream.encoder.markup">AVC Coding</property>
    <property name="meta.attr.major_brand.markup">mp42</property>
    <property name="meta.attr.minor_version.markup">0</property>
    <property name="meta.attr.compatible_brands.markup">mp42mp41isomavc1</property>
    <property name="meta.attr.creation_time.markup">2020-08-26T08:51:56.000000Z</property>
    <property name="seekable">1</property>
    <property name="meta.media.sample_aspect_num">1</property>
    <property name="meta.media.sample_aspect_den">1</property>
    <property name="audio_index">-1</property>
    <property name="video_index">0</property>
    <property name="creation_time">2020-08-26T08:51:56</property>
    <property name="vstream">0</property>
    <property name="meta.media.frame_rate_num">25</property>
    <property name="meta.media.frame_rate_den">1</property>
    <property name="meta.media.colorspace">709</property>
    <property name="meta.media.color_trc">1</property>
    <property name="meta.media.has_b_frames">2</property>
    <property name="meta.media.width">1920</property>
    <property name="meta.media.height">1080</property>
    <property name="meta.media.color_range">mpeg</property>
    <property name="shotcut:hash">a48924e7a9087e4d6ecc44e1ea340b06</property>
    <property name="meta.media.top_field_first">0</property>
    <property name="meta.media.progressive">1</property>
    <property name="shotcut:caption">production_id_5198168 (1080p).mp4</property>
    <property name="meta.shotcut.vui">1</property>
    <property name="xml">was here</property>
    <filter id="filter88" out="00:00:04.583">
      <property name="mlt_service">avfilter.gblur</property>
      <property name="shotcut:filter">blur_gaussian_av</property>
      <property name="av.sigma">25</property>
      <property name="av.sigmaV">25</property>
      <property name="av.planes">0xf</property>
    </filter>
    <filter id="filter89" out="00:00:04.583">
      <property name="argument">Video by Max Fischer</property>
      <property name="geometry">1440 3 480 1080 1</property>
      <property name="family">Times New Roman</property>
      <property name="size">1080</property>
      <property name="weight">400</property>
      <property name="style">normal</property>
      <property name="fgcolour">#ff000000</property>
      <property name="bgcolour">#00000000</property>
      <property name="olcolour">#aaffffff</property>
      <property name="pad">0</property>
      <property name="halign">right</property>
      <property name="valign">bottom</property>
      <property name="outline">3</property>
      <property name="opacity">1.0</property>
      <property name="mlt_service">dynamictext</property>
      <property name="shotcut:filter">dynamicText</property>
      <property name="shotcut:usePointSize">0</property>
      <property name="shotcut:animIn">00:00:00.000</property>
      <property name="shotcut:animOut">00:00:00.000</property>
      <property name="disable">0</property>
    </filter>
  </chain>
  <tractor id="tractor12" in="00:00:00.000" out="00:00:00.983">
    <property name="shotcut:transition">lumaMix</property>
    <track producer="chain29" in="00:00:11.967" out="00:00:12.950"/>
    <track producer="chain30" in="00:00:00.000" out="00:00:00.983"/>
    <transition id="transition24" out="00:00:00.983">
      <property name="a_track">0</property>
      <property name="b_track">1</property>
      <property name="factory">loader</property>
      <property name="mlt_service">luma</property>
      <property name="alpha_over">1</property>
      <property name="fix_background_alpha">1</property>
    </transition>
    <transition id="transition25" out="00:00:00.983">
      <property name="a_track">0</property>
      <property name="b_track">1</property>
      <property name="mlt_service">mix</property>
      <property name="start">-1</property>
      <property name="accepts_blanks">1</property>
    </transition>
  </tractor>
  <producer id="producer18" in="00:00:00.000" out="00:00:24.833">
    <property name="length">00:00:24.850</property>
    <property name="eof">pause</property>
    <property name="resource">0.6:heads/IMG_0063.MOV</property>
    <property name="aspect_ratio">1</property>
    <property name="meta.media.nb_streams">5</property>
    <property name="meta.media.0.stream.type">video</property>
    <property name="meta.media.0.stream.frame_rate">59.9665</property>
    <property name="meta.media.0.stream.sample_aspect_ratio">0</property>
    <property name="meta.media.0.codec.width">1920</property>
    <property name="meta.media.0.codec.height">1080</property>
    <property name="meta.media.0.codec.rotate">0</property>
    <property name="meta.media.0.codec.pix_fmt">yuv420p</property>
    <property name="meta.media.0.codec.sample_aspect_ratio">0</property>
    <property name="meta.media.0.codec.colorspace">709</property>
    <property name="meta.media.0.codec.color_trc">1</property>
    <property name="meta.media.0.codec.name">hevc</property>
    <property name="meta.media.0.codec.long_name">HEVC (High Efficiency Video Coding)</property>
    <property name="meta.media.0.codec.bit_rate">11731426</property>
    <property name="meta.attr.0.stream.creation_time.markup">2023-11-30T16:56:12.000000Z</property>
    <property name="meta.attr.0.stream.handler_name.markup">Core Media Video</property>
    <property name="meta.attr.0.stream.vendor_id.markup">[0][0][0][0]</property>
    <property name="meta.attr.0.stream.encoder.markup">HEVC</property>
    <property name="meta.media.1.stream.type">audio</property>
    <property name="meta.media.1.codec.sample_fmt">fltp</property>
    <property name="meta.media.1.codec.sample_rate">44100</property>
    <property name="meta.media.1.codec.channels">2</property>
    <property name="meta.media.1.codec.name">aac</property>
    <property name="meta.media.1.codec.long_name">AAC (Advanced Audio Coding)</property>
    <property name="meta.media.1.codec.bit_rate">170437</property>
    <property name="meta.attr.1.stream.creation_time.markup">2023-11-30T16:56:12.000000Z</property>
    <property name="meta.attr.1.stream.handler_name.markup">Core Media Audio</property>
    <property name="meta.attr.1.stream.vendor_id.markup">[0][0][0][0]</property>
    <property name="meta.attr.major_brand.markup">qt  </property>
    <property name="meta.attr.minor_version.markup">0</property>
    <property name="meta.attr.compatible_brands.markup">qt  </property>
    <property name="meta.attr.creation_time.markup">2023-11-30T16:56:12.000000Z</property>
    <property name="meta.attr.com.apple.quicktime.location.accuracy.horizontal.markup">35.000000</property>
    <property name="meta.attr.com.apple.quicktime.location.ISO6709.markup">+22.3378+114.2659+066.252/</property>
    <property name="meta.attr.com.apple.quicktime.make.markup">Apple</property>
    <property name="meta.attr.com.apple.quicktime.model.markup">iPhone 11</property>
    <property name="meta.attr.com.apple.quicktime.software.markup">17.0.3</property>
    <property name="meta.attr.com.apple.quicktime.creationdate.markup">2023-12-01T00:56:12+0800</property>
    <property name="seekable">1</property>
    <property name="meta.media.sample_aspect_num">1</property>
    <property name="meta.media.sample_aspect_den">1</property>
    <property name="audio_index">1</property>
    <property name="video_index">0</property>
    <property name="warp_speed">0.6</property>
    <property name="warp_resource">heads/IMG_0063.MOV</property>
    <property name="mlt_service">timewarp</property>
    <property name="shotcut:producer">avformat</property>
    <property name="video_delay">0</property>
    <property name="astream">0</property>
    <property name="vstream">0</property>
    <property name="shotcut:hash">6ec6537ef9c800d47bbbb8aac03b1ba0</property>
    <property name="shotcut:caption">IMG_0063.MOV (0.6x)</property>
    <property name="xml">was here</property>
    <property name="meta.media.frame_rate_num">107280</property>
    <property name="meta.media.frame_rate_den">1789</property>
    <property name="meta.media.colorspace">709</property>
    <property name="meta.media.color_trc">1</property>
    <property name="meta.media.has_b_frames">2</property>
    <property name="meta.media.width">1920</property>
    <property name="meta.media.height">1080</property>
    <property name="meta.media.color_range">mpeg</property>
    <property name="meta.media.top_field_first">0</property>
    <property name="meta.media.progressive">1</property>
    <filter id="filter90" in="00:00:04.183" out="00:00:09.983">
      <property name="version">0.6</property>
      <property name="mlt_service">frei0r.select0r</property>
      <property name="threads">0</property>
      <property name="0">#ffddcfbb</property>
      <property name="1">1</property>
      <property name="2">0.042</property>
      <property name="3">0.084</property>
      <property name="4">0.667</property>
      <property name="5">0</property>
      <property name="6">1</property>
      <property name="7">0.5</property>
      <property name="8">0.35</property>
      <property name="9">0</property>
      <property name="disable">0</property>
    </filter>
    <filter id="filter91" in="00:00:04.183" out="00:00:09.983">
      <property name="background">color:#00000000</property>
      <property name="mlt_service">affine</property>
      <property name="shotcut:filter">affineSizePosition</property>
      <property name="transition.fill">1</property>
      <property name="transition.distort">0</property>
      <property name="transition.rect">-252.342 -94.9666 2304 1296 1</property>
      <property name="transition.valign">middle</property>
      <property name="transition.halign">center</property>
      <property name="shotcut:animIn">00:00:00.000</property>
      <property name="shotcut:animOut">00:00:00.000</property>
      <property name="transition.threads">0</property>
    </filter>
    <filter id="filter92" in="00:00:04.183" out="00:00:09.983">
      <property name="window">75</property>
      <property name="max_gain">20dB</property>
      <property name="mlt_service">volume</property>
      <property name="shotcut:filter">muteVolume</property>
      <property name="gain">0</property>
    </filter>
  </producer>
  <chain id="chain31" out="00:00:14.900">
    <property name="length">00:00:14.917</property>
    <property name="eof">pause</property>
    <property name="resource">heads/IMG_0063.MOV</property>
    <property name="mlt_service">avformat-novalidate</property>
    <property name="meta.media.nb_streams">5</property>
    <property name="meta.media.0.stream.type">video</property>
    <property name="meta.media.0.stream.frame_rate">59.9665</property>
    <property name="meta.media.0.stream.sample_aspect_ratio">0</property>
    <property name="meta.media.0.codec.width">1920</property>
    <property name="meta.media.0.codec.height">1080</property>
    <property name="meta.media.0.codec.rotate">0</property>
    <property name="meta.media.0.codec.pix_fmt">yuv420p</property>
    <property name="meta.media.0.codec.sample_aspect_ratio">0</property>
    <property name="meta.media.0.codec.colorspace">709</property>
    <property name="meta.media.0.codec.color_trc">1</property>
    <property name="meta.media.0.codec.name">hevc</property>
    <property name="meta.media.0.codec.long_name">HEVC (High Efficiency Video Coding)</property>
    <property name="meta.media.0.codec.bit_rate">11731426</property>
    <property name="meta.attr.0.stream.creation_time.markup">2023-11-30T16:56:12.000000Z</property>
    <property name="meta.attr.0.stream.handler_name.markup">Core Media Video</property>
    <property name="meta.attr.0.stream.vendor_id.markup">[0][0][0][0]</property>
    <property name="meta.attr.0.stream.encoder.markup">HEVC</property>
    <property name="meta.media.1.stream.type">audio</property>
    <property name="meta.media.1.codec.sample_fmt">fltp</property>
    <property name="meta.media.1.codec.sample_rate">44100</property>
    <property name="meta.media.1.codec.channels">2</property>
    <property name="meta.media.1.codec.name">aac</property>
    <property name="meta.media.1.codec.long_name">AAC (Advanced Audio Coding)</property>
    <property name="meta.media.1.codec.bit_rate">170437</property>
    <property name="meta.attr.1.stream.creation_time.markup">2023-11-30T16:56:12.000000Z</property>
    <property name="meta.attr.1.stream.handler_name.markup">Core Media Audio</property>
    <property name="meta.attr.1.stream.vendor_id.markup">[0][0][0][0]</property>
    <property name="meta.attr.major_brand.markup">qt  </property>
    <property name="meta.attr.minor_version.markup">0</property>
    <property name="meta.attr.compatible_brands.markup">qt  </property>
    <property name="meta.attr.creation_time.markup">2023-11-30T16:56:12.000000Z</property>
    <property name="meta.attr.com.apple.quicktime.location.accuracy.horizontal.markup">35.000000</property>
    <property name="meta.attr.com.apple.quicktime.location.ISO6709.markup">+22.3378+114.2659+066.252/</property>
    <property name="meta.attr.com.apple.quicktime.make.markup">Apple</property>
    <property name="meta.attr.com.apple.quicktime.model.markup">iPhone 11</property>
    <property name="meta.attr.com.apple.quicktime.software.markup">17.0.3</property>
    <property name="meta.attr.com.apple.quicktime.creationdate.markup">2023-12-01T00:56:12+0800</property>
    <property name="seekable">1</property>
    <property name="meta.media.sample_aspect_num">1</property>
    <property name="meta.media.sample_aspect_den">1</property>
    <property name="audio_index">1</property>
    <property name="video_index">0</property>
    <property name="creation_time">2023-11-30T16:56:12</property>
    <property name="vstream">0</property>
    <property name="meta.media.frame_rate_num">107280</property>
    <property name="meta.media.frame_rate_den">1789</property>
    <property name="meta.media.colorspace">709</property>
    <property name="meta.media.color_trc">1</property>
    <property name="meta.media.has_b_frames">2</property>
    <property name="meta.media.width">1920</property>
    <property name="meta.media.height">1080</property>
    <property name="meta.media.color_range">mpeg</property>
    <property name="astream">0</property>
    <property name="shotcut:hash">6ec6537ef9c800d47bbbb8aac03b1ba0</property>
    <property name="meta.media.top_field_first">0</property>
    <property name="meta.media.progressive">1</property>
    <property name="shotcut:caption">IMG_0063.MOV</property>
    <property name="xml">was here</property>
    <filter id="filter93" in="00:00:06.000" out="00:00:08.667">
      <property name="version">0.6</property>
      <property name="mlt_service">frei0r.select0r</property>
      <property name="threads">0</property>
      <property name="0">#ffddcfbb</property>
      <property name="1">1</property>
      <property name="2">0.042</property>
      <property name="3">0.084</property>
      <property name="4">0.667</property>
      <property name="5">0</property>
      <property name="6">1</property>
      <property name="7">0.5</property>
      <property name="8">0.35</property>
      <property name="9">0</property>
      <property name="disable">0</property>
    </filter>
    <filter id="filter94" in="00:00:06.000" out="00:00:08.667">
      <property name="background">color:#00000000</property>
      <property name="mlt_service">affine</property>
      <property name="shotcut:filter">affineSizePosition</property>
      <property name="transition.fill">1</property>
      <property name="transition.distort">0</property>
      <property name="transition.rect">-252.342 -94.9666 2304 1296 1</property>
      <property name="transition.valign">middle</property>
      <property name="transition.halign">center</property>
      <property name="shotcut:animIn">00:00:00.000</property>
      <property name="shotcut:animOut">00:00:00.000</property>
      <property name="transition.threads">0</property>
    </filter>
    <filter id="filter95" in="00:00:06.000" out="00:00:08.667">
      <property name="window">75</property>
      <property name="max_gain">20dB</property>
      <property name="mlt_service">volume</property>
      <property name="shotcut:filter">muteVolume</property>
      <property name="gain">0</property>
    </filter>
  </chain>
  <chain id="chain32" out="00:00:18.867">
    <property name="length">00:00:18.883</property>
    <property name="eof">pause</property>
    <property name="resource">backgrounds/pexels-tima-miroshnichenko-6550654 (1080p).mp4</property>
    <property name="mlt_service">avformat-novalidate</property>
    <property name="meta.media.nb_streams">2</property>
    <property name="meta.media.0.stream.type">video</property>
    <property name="meta.media.0.stream.frame_rate">25</property>
    <property name="meta.media.0.stream.sample_aspect_ratio">0</property>
    <property name="meta.media.0.codec.width">1920</property>
    <property name="meta.media.0.codec.height">1080</property>
    <property name="meta.media.0.codec.rotate">0</property>
    <property name="meta.media.0.codec.pix_fmt">yuv420p</property>
    <property name="meta.media.0.codec.sample_aspect_ratio">0</property>
    <property name="meta.media.0.codec.colorspace">709</property>
    <property name="meta.media.0.codec.color_trc">1</property>
    <property name="meta.media.0.codec.name">h264</property>
    <property name="meta.media.0.codec.long_name">H.264 / AVC / MPEG-4 AVC / MPEG-4 part 10</property>
    <property name="meta.media.0.codec.bit_rate">2254851</property>
    <property name="meta.attr.0.stream.creation_time.markup">2021-01-20T10:26:52.000000Z</property>
    <property name="meta.attr.0.stream.handler_name.markup">L-SMASH Video Handler</property>
    <property name="meta.attr.0.stream.vendor_id.markup">[0][0][0][0]</property>
    <property name="meta.attr.0.stream.encoder.markup">AVC Coding</property>
    <property name="meta.media.1.stream.type">audio</property>
    <property name="meta.media.1.codec.sample_fmt">fltp</property>
    <property name="meta.media.1.codec.sample_rate">48000</property>
    <property name="meta.media.1.codec.channels">2</property>
    <property name="meta.media.1.codec.name">aac</property>
    <property name="meta.media.1.codec.long_name">AAC (Advanced Audio Coding)</property>
    <property name="meta.media.1.codec.bit_rate">253375</property>
    <property name="meta.attr.1.stream.creation_time.markup">2021-01-20T10:26:52.000000Z</property>
    <property name="meta.attr.1.stream.handler_name.markup">L-SMASH Audio Handler</property>
    <property name="meta.attr.1.stream.vendor_id.markup">[0][0][0][0]</property>
    <property name="meta.attr.major_brand.markup">mp42</property>
    <property name="meta.attr.minor_version.markup">0</property>
    <property name="meta.attr.compatible_brands.markup">mp42mp41isomavc1</property>
    <property name="meta.attr.creation_time.markup">2021-01-20T10:26:52.000000Z</property>
    <property name="seekable">1</property>
    <property name="meta.media.sample_aspect_num">1</property>
    <property name="meta.media.sample_aspect_den">1</property>
    <property name="audio_index">1</property>
    <property name="video_index">0</property>
    <property name="creation_time">2021-01-20T10:26:52</property>
    <property name="vstream">0</property>
    <property name="meta.media.frame_rate_num">25</property>
    <property name="meta.media.frame_rate_den">1</property>
    <property name="meta.media.colorspace">709</property>
    <property name="meta.media.color_trc">1</property>
    <property name="meta.media.has_b_frames">2</property>
    <property name="meta.media.width">1920</property>
    <property name="meta.media.height">1080</property>
    <property name="meta.media.color_range">mpeg</property>
    <property name="astream">0</property>
    <property name="shotcut:hash">d28ae1d805cd8a7f8ba55a14a2e5e15a</property>
    <property name="meta.media.top_field_first">0</property>
    <property name="meta.media.progressive">1</property>
    <property name="shotcut:caption">pexels-tima-miroshnichenko-6550654 (1080p).mp4</property>
    <property name="xml">was here</property>
    <property name="meta.shotcut.vui">1</property>
    <filter id="filter96" out="00:00:03.983">
      <property name="mlt_service">avfilter.gblur</property>
      <property name="shotcut:filter">blur_gaussian_av</property>
      <property name="av.sigma">25</property>
      <property name="av.sigmaV">25</property>
      <property name="av.planes">0xf</property>
    </filter>
    <filter id="filter97" out="00:00:03.983">
      <property name="argument">SOLUTIONS</property>
      <property name="geometry">00:00:00.000=240 180 1440 720 1;00:00:04.000=0 0 1920 1080 1</property>
      <property name="family">Liberation Serif</property>
      <property name="size">1080</property>
      <property name="weight">700</property>
      <property name="style">normal</property>
      <property name="fgcolour">#ffffffff</property>
      <property name="bgcolour">#00000000</property>
      <property name="olcolour">#aa000000</property>
      <property name="pad">0</property>
      <property name="halign">center</property>
      <property name="valign">middle</property>
      <property name="outline">16</property>
      <property name="opacity">1.0</property>
      <property name="mlt_service">dynamictext</property>
      <property name="shotcut:filter">dynamicText</property>
      <property name="shotcut:usePointSize">0</property>
      <property name="shotcut:animIn">00:00:00.000</property>
      <property name="shotcut:animOut">00:00:00.000</property>
      <property name="shotcut:pointSize">48</property>
    </filter>
    <filter id="filter98" out="00:00:03.983">
      <property name="argument">Video by Tima Miroshnichenko</property>
      <property name="geometry">1440 3 480 1080 1</property>
      <property name="family">Times New Roman</property>
      <property name="size">1080</property>
      <property name="weight">400</property>
      <property name="style">normal</property>
      <property name="fgcolour">#ffffffff</property>
      <property name="bgcolour">#00000000</property>
      <property name="olcolour">#aa000000</property>
      <property name="pad">0</property>
      <property name="halign">right</property>
      <property name="valign">bottom</property>
      <property name="outline">3</property>
      <property name="opacity">1.0</property>
      <property name="mlt_service">dynamictext</property>
      <property name="shotcut:filter">dynamicText</property>
      <property name="shotcut:usePointSize">0</property>
      <property name="shotcut:animIn">00:00:00.000</property>
      <property name="shotcut:animOut">00:00:00.000</property>
    </filter>
  </chain>
  <chain id="chain33" out="00:00:19.817">
    <property name="length">00:00:19.833</property>
    <property name="eof">pause</property>
    <property name="resource">heads/IMG_0064.MOV</property>
    <property name="mlt_service">avformat-novalidate</property>
    <property name="meta.media.nb_streams">5</property>
    <property name="meta.media.0.stream.type">video</property>
    <property name="meta.media.0.stream.frame_rate">59.9647</property>
    <property name="meta.media.0.stream.sample_aspect_ratio">0</property>
    <property name="meta.media.0.codec.width">1920</property>
    <property name="meta.media.0.codec.height">1080</property>
    <property name="meta.media.0.codec.rotate">0</property>
    <property name="meta.media.0.codec.pix_fmt">yuv420p</property>
    <property name="meta.media.0.codec.sample_aspect_ratio">0</property>
    <property name="meta.media.0.codec.colorspace">709</property>
    <property name="meta.media.0.codec.color_trc">1</property>
    <property name="meta.media.0.codec.name">hevc</property>
    <property name="meta.media.0.codec.long_name">HEVC (High Efficiency Video Coding)</property>
    <property name="meta.media.0.codec.bit_rate">11723883</property>
    <property name="meta.attr.0.stream.creation_time.markup">2023-11-30T16:58:23.000000Z</property>
    <property name="meta.attr.0.stream.handler_name.markup">Core Media Video</property>
    <property name="meta.attr.0.stream.vendor_id.markup">[0][0][0][0]</property>
    <property name="meta.attr.0.stream.encoder.markup">HEVC</property>
    <property name="meta.media.1.stream.type">audio</property>
    <property name="meta.media.1.codec.sample_fmt">fltp</property>
    <property name="meta.media.1.codec.sample_rate">44100</property>
    <property name="meta.media.1.codec.channels">2</property>
    <property name="meta.media.1.codec.name">aac</property>
    <property name="meta.media.1.codec.long_name">AAC (Advanced Audio Coding)</property>
    <property name="meta.media.1.codec.bit_rate">168004</property>
    <property name="meta.attr.1.stream.creation_time.markup">2023-11-30T16:58:23.000000Z</property>
    <property name="meta.attr.1.stream.handler_name.markup">Core Media Audio</property>
    <property name="meta.attr.1.stream.vendor_id.markup">[0][0][0][0]</property>
    <property name="meta.attr.major_brand.markup">qt  </property>
    <property name="meta.attr.minor_version.markup">0</property>
    <property name="meta.attr.compatible_brands.markup">qt  </property>
    <property name="meta.attr.creation_time.markup">2023-11-30T16:58:23.000000Z</property>
    <property name="meta.attr.com.apple.quicktime.location.accuracy.horizontal.markup">35.000000</property>
    <property name="meta.attr.com.apple.quicktime.location.ISO6709.markup">+22.3378+114.2659+063.493/</property>
    <property name="meta.attr.com.apple.quicktime.make.markup">Apple</property>
    <property name="meta.attr.com.apple.quicktime.model.markup">iPhone 11</property>
    <property name="meta.attr.com.apple.quicktime.software.markup">17.0.3</property>
    <property name="meta.attr.com.apple.quicktime.creationdate.markup">2023-12-01T00:58:23+0800</property>
    <property name="seekable">1</property>
    <property name="meta.media.sample_aspect_num">1</property>
    <property name="meta.media.sample_aspect_den">1</property>
    <property name="audio_index">1</property>
    <property name="video_index">0</property>
    <property name="creation_time">2023-11-30T16:58:23</property>
    <property name="vstream">0</property>
    <property name="meta.media.frame_rate_num">713400</property>
    <property name="meta.media.frame_rate_den">11897</property>
    <property name="meta.media.colorspace">709</property>
    <property name="meta.media.color_trc">1</property>
    <property name="meta.media.has_b_frames">2</property>
    <property name="meta.media.width">1920</property>
    <property name="meta.media.height">1080</property>
    <property name="meta.media.color_range">mpeg</property>
    <property name="astream">0</property>
    <property name="shotcut:hash">1cdb5c42c6c8a3067270b9d8f4e9794d</property>
    <property name="meta.media.top_field_first">0</property>
    <property name="meta.media.progressive">1</property>
    <property name="shotcut:caption">IMG_0064.MOV</property>
    <property name="xml">was here</property>
    <filter id="filter99" in="00:00:01.000" out="00:00:09.983">
      <property name="version">0.6</property>
      <property name="mlt_service">frei0r.select0r</property>
      <property name="threads">0</property>
      <property name="0">#ffe4dacf</property>
      <property name="1">1</property>
      <property name="2">0.042</property>
      <property name="3">0.084</property>
      <property name="4">0.667</property>
      <property name="5">0</property>
      <property name="6">1</property>
      <property name="7">0.5</property>
      <property name="8">0.35</property>
      <property name="9">0</property>
      <property name="disable">0</property>
    </filter>
    <filter id="filter100" in="00:00:01.000" out="00:00:09.983">
      <property name="background">color:#00000000</property>
      <property name="mlt_service">affine</property>
      <property name="shotcut:filter">affineSizePosition</property>
      <property name="transition.fill">1</property>
      <property name="transition.distort">0</property>
      <property name="transition.rect">-252.342 -94.9666 2304 1296 1</property>
      <property name="transition.valign">middle</property>
      <property name="transition.halign">center</property>
      <property name="shotcut:animIn">00:00:00.000</property>
      <property name="shotcut:animOut">00:00:00.000</property>
      <property name="transition.threads">0</property>
    </filter>
    <filter id="filter101" in="00:00:01.000" out="00:00:09.983">
      <property name="window">75</property>
      <property name="max_gain">20dB</property>
      <property name="mlt_service">volume</property>
      <property name="shotcut:filter">muteVolume</property>
      <property name="gain">0</property>
    </filter>
  </chain>
  <chain id="chain34" out="00:00:32.583">
    <property name="length">00:00:32.600</property>
    <property name="eof">pause</property>
    <property name="resource">backgrounds/production_id_4769557 (1080p).mp4</property>
    <property name="mlt_service">avformat-novalidate</property>
    <property name="meta.media.nb_streams">1</property>
    <property name="meta.media.0.stream.type">video</property>
    <property name="meta.media.0.stream.frame_rate">25</property>
    <property name="meta.media.0.stream.sample_aspect_ratio">0</property>
    <property name="meta.media.0.codec.width">2048</property>
    <property name="meta.media.0.codec.height">1080</property>
    <property name="meta.media.0.codec.rotate">0</property>
    <property name="meta.media.0.codec.pix_fmt">yuv420p</property>
    <property name="meta.media.0.codec.sample_aspect_ratio">0</property>
    <property name="meta.media.0.codec.colorspace">709</property>
    <property name="meta.media.0.codec.color_trc">1</property>
    <property name="meta.media.0.codec.name">h264</property>
    <property name="meta.media.0.codec.long_name">H.264 / AVC / MPEG-4 AVC / MPEG-4 part 10</property>
    <property name="meta.media.0.codec.bit_rate">3796474</property>
    <property name="meta.attr.0.stream.creation_time.markup">2020-07-01T11:41:41.000000Z</property>
    <property name="meta.attr.0.stream.handler_name.markup">L-SMASH Video Handler</property>
    <property name="meta.attr.0.stream.vendor_id.markup">[0][0][0][0]</property>
    <property name="meta.attr.0.stream.encoder.markup">AVC Coding</property>
    <property name="meta.attr.major_brand.markup">mp42</property>
    <property name="meta.attr.minor_version.markup">0</property>
    <property name="meta.attr.compatible_brands.markup">mp42mp41isomavc1</property>
    <property name="meta.attr.creation_time.markup">2020-07-01T11:41:41.000000Z</property>
    <property name="seekable">1</property>
    <property name="meta.media.sample_aspect_num">1</property>
    <property name="meta.media.sample_aspect_den">1</property>
    <property name="audio_index">-1</property>
    <property name="video_index">0</property>
    <property name="creation_time">2020-07-01T11:41:41</property>
    <property name="vstream">0</property>
    <property name="meta.media.frame_rate_num">25</property>
    <property name="meta.media.frame_rate_den">1</property>
    <property name="meta.media.colorspace">709</property>
    <property name="meta.media.color_trc">1</property>
    <property name="meta.media.has_b_frames">2</property>
    <property name="meta.media.width">2048</property>
    <property name="meta.media.height">1080</property>
    <property name="meta.media.color_range">mpeg</property>
    <property name="shotcut:hash">d4887d02330cf76727122ae16a0dcafc</property>
    <property name="meta.media.top_field_first">0</property>
    <property name="meta.media.progressive">1</property>
    <property name="shotcut:caption">production_id_4769557 (1080p).mp4</property>
    <property name="meta.shotcut.vui">1</property>
    <property name="xml">was here</property>
    <filter id="filter102" in="00:00:14.000" out="00:00:17.983">
      <property name="lift_r">0.124987</property>
      <property name="lift_g">0.124987</property>
      <property name="lift_b">0.124987</property>
      <property name="gamma_r">1</property>
      <property name="gamma_g">1</property>
      <property name="gamma_b">1</property>
      <property name="gain_r">1</property>
      <property name="gain_g">1</property>
      <property name="gain_b">1</property>
      <property name="mlt_service">lift_gamma_gain</property>
    </filter>
    <filter id="filter103" in="00:00:14.000" out="00:00:17.983">
      <property name="mlt_service">avfilter.gblur</property>
      <property name="shotcut:filter">blur_gaussian_av</property>
      <property name="av.sigma">25</property>
      <property name="av.sigmaV">25</property>
      <property name="av.planes">0xf</property>
    </filter>
    <filter id="filter104" in="00:00:14.000" out="00:00:17.983">
      <property name="background">color:#00000000</property>
      <property name="mlt_service">affine</property>
      <property name="shotcut:filter">affineSizePosition</property>
      <property name="transition.fill">1</property>
      <property name="transition.distort">0</property>
      <property name="transition.rect">-64 0.25 2048 1080 1</property>
      <property name="transition.valign">middle</property>
      <property name="transition.halign">center</property>
      <property name="shotcut:animIn">00:00:00.000</property>
      <property name="shotcut:animOut">00:00:00.000</property>
      <property name="transition.threads">0</property>
    </filter>
    <filter id="filter105" in="00:00:14.000" out="00:00:17.983">
      <property name="argument">Video by cottonbro studio</property>
      <property name="geometry">1440 3 480 1080 1</property>
      <property name="family">Times New Roman</property>
      <property name="size">1080</property>
      <property name="weight">400</property>
      <property name="style">normal</property>
      <property name="fgcolour">#ff000000</property>
      <property name="bgcolour">#00000000</property>
      <property name="olcolour">#aaffffff</property>
      <property name="pad">0</property>
      <property name="halign">right</property>
      <property name="valign">bottom</property>
      <property name="outline">3</property>
      <property name="opacity">1.0</property>
      <property name="mlt_service">dynamictext</property>
      <property name="shotcut:filter">dynamicText</property>
      <property name="shotcut:usePointSize">0</property>
      <property name="shotcut:animIn">00:00:00.000</property>
      <property name="shotcut:animOut">00:00:00.000</property>
      <property name="disable">0</property>
    </filter>
    <filter id="filter106" in="00:00:14.000" out="00:00:17.983">
      <property name="argument">(Walck-Shannon, Rowell, &amp; Frey, 2021)</property>
      <property name="geometry">0 0 1440 1080 1</property>
      <property name="family">Times New Roman</property>
      <property name="size">1080</property>
      <property name="weight">400</property>
      <property name="style">normal</property>
      <property name="fgcolour">#ff000000</property>
      <property name="bgcolour">#00000000</property>
      <property name="olcolour">#aaffffff</property>
      <property name="pad">0</property>
      <property name="halign">center</property>
      <property name="valign">top</property>
      <property name="outline">3</property>
      <property name="opacity">1.0</property>
      <property name="mlt_service">dynamictext</property>
      <property name="shotcut:filter">dynamicText</property>
      <property name="shotcut:usePointSize">0</property>
      <property name="shotcut:animIn">00:00:00.000</property>
      <property name="shotcut:animOut">00:00:00.000</property>
    </filter>
    <filter id="filter107" in="00:00:14.000" out="00:00:17.983">
      <property name="version">0.3</property>
      <property name="mlt_service">frei0r.saturat0r</property>
      <property name="threads">0</property>
      <property name="0">0</property>
    </filter>
    <filter id="filter108" in="00:00:14.000" out="00:00:17.983">
      <property name="maxdiameter">2</property>
      <property name="maxcount">10</property>
      <property name="mlt_service">dust</property>
      <property name="cache-dy-4-38">58</property>
      <property name="cache-dy-0-38">34</property>
      <property name="cache-dy-1-38">50</property>
      <property name="cache-dy-3-38">89</property>
      <property name="cache-dy-2-38">23</property>
    </filter>
    <filter id="filter109" in="00:00:14.000" out="00:00:17.983">
      <property name="delta">14</property>
      <property name="every">20</property>
      <property name="brightnessdelta_up">20</property>
      <property name="brightnessdelta_down">30</property>
      <property name="brightnessdelta_every">70</property>
      <property name="unevendevelop_up">60</property>
      <property name="unevendevelop_down">20</property>
      <property name="unevendevelop_duration">70</property>
      <property name="mlt_service">oldfilm</property>
    </filter>
  </chain>
  <tractor id="tractor13" in="00:00:00.000" out="00:00:00.983">
    <property name="shotcut:transition">lumaMix</property>
    <track producer="chain33" in="00:00:09.000" out="00:00:09.983"/>
    <track producer="chain34" in="00:00:14.000" out="00:00:14.983"/>
    <transition id="transition26" out="00:00:00.983">
      <property name="a_track">0</property>
      <property name="b_track">1</property>
      <property name="factory">loader</property>
      <property name="resource">%luma14.pgm</property>
      <property name="mlt_service">luma</property>
      <property name="alpha_over">1</property>
      <property name="fix_background_alpha">1</property>
      <property name="progressive">1</property>
      <property name="invert">0</property>
      <property name="softness">0.2</property>
    </transition>
    <transition id="transition27" out="00:00:00.983">
      <property name="a_track">0</property>
      <property name="b_track">1</property>
      <property name="mlt_service">mix</property>
      <property name="start">-1</property>
      <property name="accepts_blanks">1</property>
    </transition>
  </tractor>
  <chain id="chain35" out="00:00:19.817">
    <property name="length">00:00:19.833</property>
    <property name="eof">pause</property>
    <property name="resource">heads/IMG_0064.MOV</property>
    <property name="mlt_service">avformat-novalidate</property>
    <property name="meta.media.nb_streams">5</property>
    <property name="meta.media.0.stream.type">video</property>
    <property name="meta.media.0.stream.frame_rate">59.9647</property>
    <property name="meta.media.0.stream.sample_aspect_ratio">0</property>
    <property name="meta.media.0.codec.width">1920</property>
    <property name="meta.media.0.codec.height">1080</property>
    <property name="meta.media.0.codec.rotate">0</property>
    <property name="meta.media.0.codec.pix_fmt">yuv420p</property>
    <property name="meta.media.0.codec.sample_aspect_ratio">0</property>
    <property name="meta.media.0.codec.colorspace">709</property>
    <property name="meta.media.0.codec.color_trc">1</property>
    <property name="meta.media.0.codec.name">hevc</property>
    <property name="meta.media.0.codec.long_name">HEVC (High Efficiency Video Coding)</property>
    <property name="meta.media.0.codec.bit_rate">11723883</property>
    <property name="meta.attr.0.stream.creation_time.markup">2023-11-30T16:58:23.000000Z</property>
    <property name="meta.attr.0.stream.handler_name.markup">Core Media Video</property>
    <property name="meta.attr.0.stream.vendor_id.markup">[0][0][0][0]</property>
    <property name="meta.attr.0.stream.encoder.markup">HEVC</property>
    <property name="meta.media.1.stream.type">audio</property>
    <property name="meta.media.1.codec.sample_fmt">fltp</property>
    <property name="meta.media.1.codec.sample_rate">44100</property>
    <property name="meta.media.1.codec.channels">2</property>
    <property name="meta.media.1.codec.name">aac</property>
    <property name="meta.media.1.codec.long_name">AAC (Advanced Audio Coding)</property>
    <property name="meta.media.1.codec.bit_rate">168004</property>
    <property name="meta.attr.1.stream.creation_time.markup">2023-11-30T16:58:23.000000Z</property>
    <property name="meta.attr.1.stream.handler_name.markup">Core Media Audio</property>
    <property name="meta.attr.1.stream.vendor_id.markup">[0][0][0][0]</property>
    <property name="meta.attr.major_brand.markup">qt  </property>
    <property name="meta.attr.minor_version.markup">0</property>
    <property name="meta.attr.compatible_brands.markup">qt  </property>
    <property name="meta.attr.creation_time.markup">2023-11-30T16:58:23.000000Z</property>
    <property name="meta.attr.com.apple.quicktime.location.accuracy.horizontal.markup">35.000000</property>
    <property name="meta.attr.com.apple.quicktime.location.ISO6709.markup">+22.3378+114.2659+063.493/</property>
    <property name="meta.attr.com.apple.quicktime.make.markup">Apple</property>
    <property name="meta.attr.com.apple.quicktime.model.markup">iPhone 11</property>
    <property name="meta.attr.com.apple.quicktime.software.markup">17.0.3</property>
    <property name="meta.attr.com.apple.quicktime.creationdate.markup">2023-12-01T00:58:23+0800</property>
    <property name="seekable">1</property>
    <property name="meta.media.sample_aspect_num">1</property>
    <property name="meta.media.sample_aspect_den">1</property>
    <property name="audio_index">1</property>
    <property name="video_index">0</property>
    <property name="creation_time">2023-11-30T16:58:23</property>
    <property name="vstream">0</property>
    <property name="meta.media.frame_rate_num">713400</property>
    <property name="meta.media.frame_rate_den">11897</property>
    <property name="meta.media.colorspace">709</property>
    <property name="meta.media.color_trc">1</property>
    <property name="meta.media.has_b_frames">2</property>
    <property name="meta.media.width">1920</property>
    <property name="meta.media.height">1080</property>
    <property name="meta.media.color_range">mpeg</property>
    <property name="astream">0</property>
    <property name="shotcut:hash">1cdb5c42c6c8a3067270b9d8f4e9794d</property>
    <property name="meta.media.top_field_first">0</property>
    <property name="meta.media.progressive">1</property>
    <property name="shotcut:caption">IMG_0064.MOV</property>
    <property name="xml">was here</property>
    <filter id="filter110" in="00:00:11.000" out="00:00:15.483">
      <property name="version">0.6</property>
      <property name="mlt_service">frei0r.select0r</property>
      <property name="threads">0</property>
      <property name="0">#ffe4dacf</property>
      <property name="1">1</property>
      <property name="2">0.042</property>
      <property name="3">0.084</property>
      <property name="4">0.667</property>
      <property name="5">0</property>
      <property name="6">1</property>
      <property name="7">0.5</property>
      <property name="8">0.35</property>
      <property name="9">0</property>
      <property name="disable">0</property>
    </filter>
    <filter id="filter111" in="00:00:11.000" out="00:00:15.483">
      <property name="background">color:#00000000</property>
      <property name="mlt_service">affine</property>
      <property name="shotcut:filter">affineSizePosition</property>
      <property name="transition.fill">1</property>
      <property name="transition.distort">0</property>
      <property name="transition.rect">-252.342 -94.9666 2304 1296 1</property>
      <property name="transition.valign">middle</property>
      <property name="transition.halign">center</property>
      <property name="shotcut:animIn">00:00:00.000</property>
      <property name="shotcut:animOut">00:00:00.000</property>
      <property name="transition.threads">0</property>
    </filter>
    <filter id="filter112" in="00:00:11.000" out="00:00:15.483">
      <property name="window">75</property>
      <property name="max_gain">20dB</property>
      <property name="mlt_service">volume</property>
      <property name="shotcut:filter">muteVolume</property>
      <property name="gain">0</property>
    </filter>
  </chain>
  <tractor id="tractor14" in="00:00:00.000" out="00:00:00.483">
    <property name="shotcut:transition">lumaMix</property>
    <track producer="chain34" in="00:00:17.500" out="00:00:17.983"/>
    <track producer="chain35" in="00:00:11.000" out="00:00:11.483"/>
    <transition id="transition28" out="00:00:00.483">
      <property name="a_track">0</property>
      <property name="b_track">1</property>
      <property name="factory">loader</property>
      <property name="resource">%luma14.pgm</property>
      <property name="mlt_service">luma</property>
      <property name="alpha_over">1</property>
      <property name="fix_background_alpha">1</property>
      <property name="progressive">1</property>
      <property name="invert">1</property>
      <property name="softness">0.2</property>
    </transition>
    <transition id="transition29" out="00:00:00.483">
      <property name="a_track">0</property>
      <property name="b_track">1</property>
      <property name="mlt_service">mix</property>
      <property name="start">-1</property>
      <property name="accepts_blanks">1</property>
    </transition>
  </tractor>
  <chain id="chain36" out="00:00:13.350">
    <property name="length">00:00:13.367</property>
    <property name="eof">pause</property>
    <property name="resource">backgrounds/pexels-mikhail-nilov-8122595 (Original).mp4</property>
    <property name="mlt_service">avformat-novalidate</property>
    <property name="meta.media.nb_streams">2</property>
    <property name="meta.media.0.stream.type">video</property>
    <property name="meta.media.0.stream.frame_rate">25</property>
    <property name="meta.media.0.stream.sample_aspect_ratio">1</property>
    <property name="meta.media.0.codec.width">1920</property>
    <property name="meta.media.0.codec.height">1080</property>
    <property name="meta.media.0.codec.rotate">0</property>
    <property name="meta.media.0.codec.pix_fmt">yuv420p</property>
    <property name="meta.media.0.codec.sample_aspect_ratio">1</property>
    <property name="meta.media.0.codec.colorspace">709</property>
    <property name="meta.media.0.codec.color_trc">1</property>
    <property name="meta.media.0.codec.name">h264</property>
    <property name="meta.media.0.codec.long_name">H.264 / AVC / MPEG-4 AVC / MPEG-4 part 10</property>
    <property name="meta.media.0.codec.bit_rate">21194934</property>
    <property name="meta.attr.0.stream.creation_time.markup">2021-05-27T13:03:08.000000Z</property>
    <property name="meta.attr.0.stream.handler_name.markup">VideoHandler</property>
    <property name="meta.attr.0.stream.vendor_id.markup">    </property>
    <property name="meta.attr.0.stream.encoder.markup">H.264</property>
    <property name="meta.attr.0.stream.timecode.markup">01:05:03:22</property>
    <property name="meta.attr.major_brand.markup">qt  </property>
    <property name="meta.attr.minor_version.markup">512</property>
    <property name="meta.attr.compatible_brands.markup">qt  </property>
    <property name="meta.attr.creation_time.markup">2021-05-27T13:03:08.000000Z</property>
    <property name="meta.attr.encoder.markup">Blackmagic Design DaVinci Resolve Studio</property>
    <property name="seekable">1</property>
    <property name="meta.media.sample_aspect_num">1</property>
    <property name="meta.media.sample_aspect_den">1</property>
    <property name="audio_index">-1</property>
    <property name="video_index">0</property>
    <property name="creation_time">2021-05-27T13:03:08</property>
    <property name="vstream">0</property>
    <property name="meta.media.frame_rate_num">25</property>
    <property name="meta.media.frame_rate_den">1</property>
    <property name="meta.media.colorspace">709</property>
    <property name="meta.media.color_trc">1</property>
    <property name="meta.media.has_b_frames">1</property>
    <property name="meta.media.width">1920</property>
    <property name="meta.media.height">1080</property>
    <property name="meta.media.color_range">mpeg</property>
    <property name="shotcut:hash">dd77537739f652fbe4fd23e1d8d7b413</property>
    <property name="meta.media.top_field_first">0</property>
    <property name="meta.media.progressive">1</property>
    <property name="shotcut:caption">pexels-mikhail-nilov-8122595 (Original).mp4</property>
    <property name="meta.shotcut.vui">1</property>
    <property name="xml">was here</property>
    <filter id="filter113" out="00:00:13.350">
      <property name="lift_r">0.331014</property>
      <property name="lift_g">0.331014</property>
      <property name="lift_b">0.331014</property>
      <property name="gamma_r">1</property>
      <property name="gamma_g">1</property>
      <property name="gamma_b">1</property>
      <property name="gain_r">1</property>
      <property name="gain_g">1</property>
      <property name="gain_b">1</property>
      <property name="mlt_service">lift_gamma_gain</property>
    </filter>
    <filter id="filter114" out="00:00:13.350">
      <property name="mlt_service">avfilter.gblur</property>
      <property name="shotcut:filter">blur_gaussian_av</property>
      <property name="av.sigma">25</property>
      <property name="av.sigmaV">25</property>
      <property name="av.planes">0xf</property>
    </filter>
    <filter id="filter115" out="00:00:13.350">
      <property name="argument">Video by Mikhail Nilov</property>
      <property name="geometry">1440 3 480 1080 1</property>
      <property name="family">Times New Roman</property>
      <property name="size">1080</property>
      <property name="weight">400</property>
      <property name="style">normal</property>
      <property name="fgcolour">#ffffffff</property>
      <property name="bgcolour">#00000000</property>
      <property name="olcolour">#aa000000</property>
      <property name="pad">0</property>
      <property name="halign">right</property>
      <property name="valign">bottom</property>
      <property name="outline">3</property>
      <property name="opacity">1.0</property>
      <property name="mlt_service">dynamictext</property>
      <property name="shotcut:filter">dynamicText</property>
      <property name="shotcut:usePointSize">0</property>
      <property name="shotcut:animIn">00:00:00.000</property>
      <property name="shotcut:animOut">00:00:00.000</property>
      <property name="disable">0</property>
    </filter>
  </chain>
  <tractor id="tractor15" in="00:00:00.000" out="00:00:00.983">
    <property name="shotcut:transition">lumaMix</property>
    <track producer="chain35" in="00:00:14.500" out="00:00:15.483"/>
    <track producer="chain36" in="00:00:00.000" out="00:00:00.983"/>
    <transition id="transition30" out="00:00:00.983">
      <property name="a_track">0</property>
      <property name="b_track">1</property>
      <property name="factory">loader</property>
      <property name="resource">%luma01.pgm</property>
      <property name="mlt_service">luma</property>
      <property name="alpha_over">1</property>
      <property name="fix_background_alpha">1</property>
      <property name="progressive">1</property>
      <property name="invert">0</property>
      <property name="softness">0.2</property>
    </transition>
    <transition id="transition31" out="00:00:00.983">
      <property name="a_track">0</property>
      <property name="b_track">1</property>
      <property name="mlt_service">mix</property>
      <property name="start">-1</property>
      <property name="accepts_blanks">1</property>
    </transition>
  </tractor>
  <chain id="chain37" out="00:00:13.350">
    <property name="length">00:00:13.367</property>
    <property name="eof">pause</property>
    <property name="resource">backgrounds/pexels-mikhail-nilov-8122595 (Original).mp4</property>
    <property name="mlt_service">avformat-novalidate</property>
    <property name="meta.media.nb_streams">2</property>
    <property name="meta.media.0.stream.type">video</property>
    <property name="meta.media.0.stream.frame_rate">25</property>
    <property name="meta.media.0.stream.sample_aspect_ratio">1</property>
    <property name="meta.media.0.codec.width">1920</property>
    <property name="meta.media.0.codec.height">1080</property>
    <property name="meta.media.0.codec.rotate">0</property>
    <property name="meta.media.0.codec.pix_fmt">yuv420p</property>
    <property name="meta.media.0.codec.sample_aspect_ratio">1</property>
    <property name="meta.media.0.codec.colorspace">709</property>
    <property name="meta.media.0.codec.color_trc">1</property>
    <property name="meta.media.0.codec.name">h264</property>
    <property name="meta.media.0.codec.long_name">H.264 / AVC / MPEG-4 AVC / MPEG-4 part 10</property>
    <property name="meta.media.0.codec.bit_rate">21194934</property>
    <property name="meta.attr.0.stream.creation_time.markup">2021-05-27T13:03:08.000000Z</property>
    <property name="meta.attr.0.stream.handler_name.markup">VideoHandler</property>
    <property name="meta.attr.0.stream.vendor_id.markup">    </property>
    <property name="meta.attr.0.stream.encoder.markup">H.264</property>
    <property name="meta.attr.0.stream.timecode.markup">01:05:03:22</property>
    <property name="meta.attr.major_brand.markup">qt  </property>
    <property name="meta.attr.minor_version.markup">512</property>
    <property name="meta.attr.compatible_brands.markup">qt  </property>
    <property name="meta.attr.creation_time.markup">2021-05-27T13:03:08.000000Z</property>
    <property name="meta.attr.encoder.markup">Blackmagic Design DaVinci Resolve Studio</property>
    <property name="seekable">1</property>
    <property name="meta.media.sample_aspect_num">1</property>
    <property name="meta.media.sample_aspect_den">1</property>
    <property name="audio_index">-1</property>
    <property name="video_index">0</property>
    <property name="creation_time">2021-05-27T13:03:08</property>
    <property name="vstream">0</property>
    <property name="meta.media.frame_rate_num">25</property>
    <property name="meta.media.frame_rate_den">1</property>
    <property name="meta.media.colorspace">709</property>
    <property name="meta.media.color_trc">1</property>
    <property name="meta.media.has_b_frames">1</property>
    <property name="meta.media.width">1920</property>
    <property name="meta.media.height">1080</property>
    <property name="meta.media.color_range">mpeg</property>
    <property name="shotcut:hash">dd77537739f652fbe4fd23e1d8d7b413</property>
    <property name="meta.media.top_field_first">0</property>
    <property name="meta.media.progressive">1</property>
    <property name="shotcut:caption">pexels-mikhail-nilov-8122595 (Original).mp4</property>
    <property name="meta.shotcut.vui">1</property>
    <property name="xml">was here</property>
    <filter id="filter116" out="00:00:13.350">
      <property name="lift_r">0.331014</property>
      <property name="lift_g">0.331014</property>
      <property name="lift_b">0.331014</property>
      <property name="gamma_r">1</property>
      <property name="gamma_g">1</property>
      <property name="gamma_b">1</property>
      <property name="gain_r">1</property>
      <property name="gain_g">1</property>
      <property name="gain_b">1</property>
      <property name="mlt_service">lift_gamma_gain</property>
    </filter>
    <filter id="filter117" out="00:00:13.350">
      <property name="mlt_service">avfilter.gblur</property>
      <property name="shotcut:filter">blur_gaussian_av</property>
      <property name="av.sigma">25</property>
      <property name="av.sigmaV">25</property>
      <property name="av.planes">0xf</property>
    </filter>
    <filter id="filter118" out="00:00:13.350">
      <property name="argument">Video by Mikhail Nilov</property>
      <property name="geometry">1440 3 480 1080 1</property>
      <property name="family">Times New Roman</property>
      <property name="size">1080</property>
      <property name="weight">400</property>
      <property name="style">normal</property>
      <property name="fgcolour">#ffffffff</property>
      <property name="bgcolour">#00000000</property>
      <property name="olcolour">#aa000000</property>
      <property name="pad">0</property>
      <property name="halign">right</property>
      <property name="valign">bottom</property>
      <property name="outline">3</property>
      <property name="opacity">1.0</property>
      <property name="mlt_service">dynamictext</property>
      <property name="shotcut:filter">dynamicText</property>
      <property name="shotcut:usePointSize">0</property>
      <property name="shotcut:animIn">00:00:00.000</property>
      <property name="shotcut:animOut">00:00:00.000</property>
      <property name="disable">0</property>
    </filter>
  </chain>
  <tractor id="tractor16" in="00:00:00.000" out="00:00:00.983">
    <property name="shotcut:transition">lumaMix</property>
    <track producer="chain36" in="00:00:12.367" out="00:00:13.350"/>
    <track producer="chain37" in="00:00:00.000" out="00:00:00.983"/>
    <transition id="transition32" out="00:00:00.983">
      <property name="a_track">0</property>
      <property name="b_track">1</property>
      <property name="factory">loader</property>
      <property name="mlt_service">luma</property>
      <property name="alpha_over">1</property>
      <property name="fix_background_alpha">1</property>
    </transition>
    <transition id="transition33" out="00:00:00.983">
      <property name="a_track">0</property>
      <property name="b_track">1</property>
      <property name="mlt_service">mix</property>
      <property name="start">-1</property>
      <property name="accepts_blanks">1</property>
    </transition>
  </tractor>
  <chain id="chain38" out="00:00:13.350">
    <property name="length">00:00:13.367</property>
    <property name="eof">pause</property>
    <property name="resource">backgrounds/pexels-mikhail-nilov-8122595 (Original).mp4</property>
    <property name="mlt_service">avformat-novalidate</property>
    <property name="meta.media.nb_streams">2</property>
    <property name="meta.media.0.stream.type">video</property>
    <property name="meta.media.0.stream.frame_rate">25</property>
    <property name="meta.media.0.stream.sample_aspect_ratio">1</property>
    <property name="meta.media.0.codec.width">1920</property>
    <property name="meta.media.0.codec.height">1080</property>
    <property name="meta.media.0.codec.rotate">0</property>
    <property name="meta.media.0.codec.pix_fmt">yuv420p</property>
    <property name="meta.media.0.codec.sample_aspect_ratio">1</property>
    <property name="meta.media.0.codec.colorspace">709</property>
    <property name="meta.media.0.codec.color_trc">1</property>
    <property name="meta.media.0.codec.name">h264</property>
    <property name="meta.media.0.codec.long_name">H.264 / AVC / MPEG-4 AVC / MPEG-4 part 10</property>
    <property name="meta.media.0.codec.bit_rate">21194934</property>
    <property name="meta.attr.0.stream.creation_time.markup">2021-05-27T13:03:08.000000Z</property>
    <property name="meta.attr.0.stream.handler_name.markup">VideoHandler</property>
    <property name="meta.attr.0.stream.vendor_id.markup">    </property>
    <property name="meta.attr.0.stream.encoder.markup">H.264</property>
    <property name="meta.attr.0.stream.timecode.markup">01:05:03:22</property>
    <property name="meta.attr.major_brand.markup">qt  </property>
    <property name="meta.attr.minor_version.markup">512</property>
    <property name="meta.attr.compatible_brands.markup">qt  </property>
    <property name="meta.attr.creation_time.markup">2021-05-27T13:03:08.000000Z</property>
    <property name="meta.attr.encoder.markup">Blackmagic Design DaVinci Resolve Studio</property>
    <property name="seekable">1</property>
    <property name="meta.media.sample_aspect_num">1</property>
    <property name="meta.media.sample_aspect_den">1</property>
    <property name="audio_index">-1</property>
    <property name="video_index">0</property>
    <property name="creation_time">2021-05-27T13:03:08</property>
    <property name="vstream">0</property>
    <property name="meta.media.frame_rate_num">25</property>
    <property name="meta.media.frame_rate_den">1</property>
    <property name="meta.media.colorspace">709</property>
    <property name="meta.media.color_trc">1</property>
    <property name="meta.media.has_b_frames">1</property>
    <property name="meta.media.width">1920</property>
    <property name="meta.media.height">1080</property>
    <property name="meta.media.color_range">mpeg</property>
    <property name="shotcut:hash">dd77537739f652fbe4fd23e1d8d7b413</property>
    <property name="meta.media.top_field_first">0</property>
    <property name="meta.media.progressive">1</property>
    <property name="shotcut:caption">pexels-mikhail-nilov-8122595 (Original).mp4</property>
    <property name="meta.shotcut.vui">1</property>
    <property name="xml">was here</property>
    <filter id="filter119" out="00:00:06.250">
      <property name="lift_r">0.331014</property>
      <property name="lift_g">0.331014</property>
      <property name="lift_b">0.331014</property>
      <property name="gamma_r">1</property>
      <property name="gamma_g">1</property>
      <property name="gamma_b">1</property>
      <property name="gain_r">1</property>
      <property name="gain_g">1</property>
      <property name="gain_b">1</property>
      <property name="mlt_service">lift_gamma_gain</property>
    </filter>
    <filter id="filter120" out="00:00:06.250">
      <property name="mlt_service">avfilter.gblur</property>
      <property name="shotcut:filter">blur_gaussian_av</property>
      <property name="av.sigma">25</property>
      <property name="av.sigmaV">25</property>
      <property name="av.planes">0xf</property>
    </filter>
    <filter id="filter121" out="00:00:06.250">
      <property name="argument">Video by Mikhail Nilov</property>
      <property name="geometry">1440 3 480 1080 1</property>
      <property name="family">Times New Roman</property>
      <property name="size">1080</property>
      <property name="weight">400</property>
      <property name="style">normal</property>
      <property name="fgcolour">#ffffffff</property>
      <property name="bgcolour">#00000000</property>
      <property name="olcolour">#aa000000</property>
      <property name="pad">0</property>
      <property name="halign">right</property>
      <property name="valign">bottom</property>
      <property name="outline">3</property>
      <property name="opacity">1.0</property>
      <property name="mlt_service">dynamictext</property>
      <property name="shotcut:filter">dynamicText</property>
      <property name="shotcut:usePointSize">0</property>
      <property name="shotcut:animIn">00:00:00.000</property>
      <property name="shotcut:animOut">00:00:00.000</property>
      <property name="disable">0</property>
    </filter>
  </chain>
  <tractor id="tractor17" in="00:00:00.000" out="00:00:00.983">
    <property name="shotcut:transition">lumaMix</property>
    <track producer="chain37" in="00:00:12.367" out="00:00:13.350"/>
    <track producer="chain38" in="00:00:00.000" out="00:00:00.983"/>
    <transition id="transition34" out="00:00:00.983">
      <property name="a_track">0</property>
      <property name="b_track">1</property>
      <property name="factory">loader</property>
      <property name="mlt_service">luma</property>
      <property name="alpha_over">1</property>
      <property name="fix_background_alpha">1</property>
    </transition>
    <transition id="transition35" out="00:00:00.983">
      <property name="a_track">0</property>
      <property name="b_track">1</property>
      <property name="mlt_service">mix</property>
      <property name="start">-1</property>
      <property name="accepts_blanks">1</property>
    </transition>
  </tractor>
  <chain id="chain39" out="00:00:35.817">
    <property name="length">00:00:35.833</property>
    <property name="eof">pause</property>
    <property name="resource">heads/IMG_0065.MOV</property>
    <property name="mlt_service">avformat-novalidate</property>
    <property name="meta.media.nb_streams">5</property>
    <property name="meta.media.0.stream.type">video</property>
    <property name="meta.media.0.stream.frame_rate">59.9637</property>
    <property name="meta.media.0.stream.sample_aspect_ratio">0</property>
    <property name="meta.media.0.codec.width">1920</property>
    <property name="meta.media.0.codec.height">1080</property>
    <property name="meta.media.0.codec.rotate">0</property>
    <property name="meta.media.0.codec.pix_fmt">yuv420p</property>
    <property name="meta.media.0.codec.sample_aspect_ratio">0</property>
    <property name="meta.media.0.codec.colorspace">709</property>
    <property name="meta.media.0.codec.color_trc">1</property>
    <property name="meta.media.0.codec.name">hevc</property>
    <property name="meta.media.0.codec.long_name">HEVC (High Efficiency Video Coding)</property>
    <property name="meta.media.0.codec.bit_rate">11715989</property>
    <property name="meta.attr.0.stream.creation_time.markup">2023-11-30T17:01:35.000000Z</property>
    <property name="meta.attr.0.stream.handler_name.markup">Core Media Video</property>
    <property name="meta.attr.0.stream.vendor_id.markup">[0][0][0][0]</property>
    <property name="meta.attr.0.stream.encoder.markup">HEVC</property>
    <property name="meta.media.1.stream.type">audio</property>
    <property name="meta.media.1.codec.sample_fmt">fltp</property>
    <property name="meta.media.1.codec.sample_rate">44100</property>
    <property name="meta.media.1.codec.channels">2</property>
    <property name="meta.media.1.codec.name">aac</property>
    <property name="meta.media.1.codec.long_name">AAC (Advanced Audio Coding)</property>
    <property name="meta.media.1.codec.bit_rate">168644</property>
    <property name="meta.attr.1.stream.creation_time.markup">2023-11-30T17:01:35.000000Z</property>
    <property name="meta.attr.1.stream.handler_name.markup">Core Media Audio</property>
    <property name="meta.attr.1.stream.vendor_id.markup">[0][0][0][0]</property>
    <property name="meta.attr.major_brand.markup">qt  </property>
    <property name="meta.attr.minor_version.markup">0</property>
    <property name="meta.attr.compatible_brands.markup">qt  </property>
    <property name="meta.attr.creation_time.markup">2023-11-30T17:01:35.000000Z</property>
    <property name="meta.attr.com.apple.quicktime.location.accuracy.horizontal.markup">35.000000</property>
    <property name="meta.attr.com.apple.quicktime.location.ISO6709.markup">+22.3378+114.2659+066.934/</property>
    <property name="meta.attr.com.apple.quicktime.make.markup">Apple</property>
    <property name="meta.attr.com.apple.quicktime.model.markup">iPhone 11</property>
    <property name="meta.attr.com.apple.quicktime.software.markup">17.0.3</property>
    <property name="meta.attr.com.apple.quicktime.creationdate.markup">2023-12-01T01:01:35+0800</property>
    <property name="seekable">1</property>
    <property name="meta.media.sample_aspect_num">1</property>
    <property name="meta.media.sample_aspect_den">1</property>
    <property name="audio_index">1</property>
    <property name="video_index">0</property>
    <property name="creation_time">2023-11-30T17:01:35</property>
    <property name="vstream">0</property>
    <property name="meta.media.frame_rate_num">1289400</property>
    <property name="meta.media.frame_rate_den">21503</property>
    <property name="meta.media.colorspace">709</property>
    <property name="meta.media.color_trc">1</property>
    <property name="meta.media.has_b_frames">2</property>
    <property name="meta.media.width">1920</property>
    <property name="meta.media.height">1080</property>
    <property name="meta.media.color_range">mpeg</property>
    <property name="astream">0</property>
    <property name="shotcut:hash">6ed97937c6e506515cef2fe25177ad2a</property>
    <property name="meta.media.top_field_first">0</property>
    <property name="meta.media.progressive">1</property>
    <property name="shotcut:caption">IMG_0065.MOV</property>
    <property name="xml">was here</property>
    <property name="meta.shotcut.vui">1</property>
    <filter id="filter122" in="00:00:06.750" out="00:00:20.733">
      <property name="mlt_service">crop</property>
      <property name="use_profile">1</property>
      <property name="center">0</property>
      <property name="center_bias">0</property>
      <property name="top">0</property>
      <property name="bottom">0</property>
      <property name="left">0</property>
      <property name="right">256</property>
    </filter>
    <filter id="filter123" in="00:00:06.750" out="00:00:20.733">
      <property name="version">0.6</property>
      <property name="mlt_service">frei0r.select0r</property>
      <property name="threads">0</property>
      <property name="0">#ffe4dacf</property>
      <property name="1">1</property>
      <property name="2">0.042</property>
      <property name="3">0.084</property>
      <property name="4">0.667</property>
      <property name="5">0</property>
      <property name="6">1</property>
      <property name="7">0.5</property>
      <property name="8">0.35</property>
      <property name="9">0</property>
      <property name="disable">0</property>
    </filter>
    <filter id="filter124" in="00:00:06.750" out="00:00:20.733">
      <property name="background">color:#00000000</property>
      <property name="mlt_service">affine</property>
      <property name="shotcut:filter">affineSizePosition</property>
      <property name="transition.fill">1</property>
      <property name="transition.distort">0</property>
      <property name="transition.rect">00:00:00.000=-826.396 -192.264 2304 1296 1;00:00:06.000=-826 -191.421 2304 1296 1;00:00:09.000=-200 -191 2304 1296 1</property>
      <property name="transition.valign">middle</property>
      <property name="transition.halign">center</property>
      <property name="shotcut:animIn">00:00:00.000</property>
      <property name="shotcut:animOut">00:00:00.000</property>
      <property name="transition.threads">0</property>
    </filter>
    <filter id="filter125" in="00:00:06.750" out="00:00:20.733">
      <property name="window">75</property>
      <property name="max_gain">20dB</property>
      <property name="mlt_service">volume</property>
      <property name="shotcut:filter">muteVolume</property>
      <property name="gain">0</property>
    </filter>
  </chain>
  <chain id="chain40" out="00:00:15.033">
    <property name="length">00:00:15.050</property>
    <property name="eof">pause</property>
    <property name="resource">backgrounds/pexels_videos_1793334 (1080p).mp4</property>
    <property name="mlt_service">avformat-novalidate</property>
    <property name="meta.media.nb_streams">1</property>
    <property name="meta.media.0.stream.type">video</property>
    <property name="meta.media.0.stream.frame_rate">29.97</property>
    <property name="meta.media.0.stream.sample_aspect_ratio">0</property>
    <property name="meta.media.0.codec.width">1920</property>
    <property name="meta.media.0.codec.height">1080</property>
    <property name="meta.media.0.codec.rotate">0</property>
    <property name="meta.media.0.codec.pix_fmt">yuv420p</property>
    <property name="meta.media.0.codec.sample_aspect_ratio">0</property>
    <property name="meta.media.0.codec.colorspace">709</property>
    <property name="meta.media.0.codec.color_trc">1</property>
    <property name="meta.media.0.codec.name">h264</property>
    <property name="meta.media.0.codec.long_name">H.264 / AVC / MPEG-4 AVC / MPEG-4 part 10</property>
    <property name="meta.media.0.codec.bit_rate">4974306</property>
    <property name="meta.attr.0.stream.creation_time.markup">2019-01-14T02:15:45.000000Z</property>
    <property name="meta.attr.0.stream.handler_name.markup">L-SMASH Video Handler</property>
    <property name="meta.attr.0.stream.vendor_id.markup">[0][0][0][0]</property>
    <property name="meta.attr.0.stream.encoder.markup">AVC Coding</property>
    <property name="meta.attr.major_brand.markup">mp42</property>
    <property name="meta.attr.minor_version.markup">0</property>
    <property name="meta.attr.compatible_brands.markup">mp42mp41isomavc1</property>
    <property name="meta.attr.creation_time.markup">2019-01-14T02:15:45.000000Z</property>
    <property name="seekable">1</property>
    <property name="meta.media.sample_aspect_num">1</property>
    <property name="meta.media.sample_aspect_den">1</property>
    <property name="audio_index">-1</property>
    <property name="video_index">0</property>
    <property name="creation_time">2019-01-14T02:15:45</property>
    <property name="vstream">0</property>
    <property name="meta.media.frame_rate_num">30000</property>
    <property name="meta.media.frame_rate_den">1001</property>
    <property name="meta.media.colorspace">709</property>
    <property name="meta.media.color_trc">1</property>
    <property name="meta.media.has_b_frames">2</property>
    <property name="meta.media.width">1920</property>
    <property name="meta.media.height">1080</property>
    <property name="meta.media.color_range">mpeg</property>
    <property name="shotcut:hash">87db25f61ccdcecd3bf94358d0b5207c</property>
    <property name="meta.media.top_field_first">0</property>
    <property name="meta.media.progressive">1</property>
    <property name="shotcut:caption">pexels_videos_1793334 (1080p).mp4</property>
    <property name="meta.shotcut.vui">1</property>
    <property name="xml">was here</property>
    <filter id="filter126" in="00:00:11.000" out="00:00:14.983">
      <property name="lift_r">0.249989</property>
      <property name="lift_g">0.249989</property>
      <property name="lift_b">0.249989</property>
      <property name="gamma_r">1</property>
      <property name="gamma_g">1</property>
      <property name="gamma_b">1</property>
      <property name="gain_r">1</property>
      <property name="gain_g">1</property>
      <property name="gain_b">1</property>
      <property name="mlt_service">lift_gamma_gain</property>
      <property name="disable">0</property>
    </filter>
    <filter id="filter127" in="00:00:11.000" out="00:00:14.983">
      <property name="mlt_service">avfilter.gblur</property>
      <property name="shotcut:filter">blur_gaussian_av</property>
      <property name="av.sigma">25</property>
      <property name="av.sigmaV">25</property>
      <property name="av.planes">0xf</property>
      <property name="disable">0</property>
    </filter>
    <filter id="filter128" in="00:00:11.000" out="00:00:14.983">
      <property name="argument">Video by Miguel Á. Padriñán</property>
      <property name="geometry">1440 3 480 1080 1</property>
      <property name="family">Times New Roman</property>
      <property name="size">1080</property>
      <property name="weight">400</property>
      <property name="style">normal</property>
      <property name="fgcolour">#ff000000</property>
      <property name="bgcolour">#00000000</property>
      <property name="olcolour">#aaffffff</property>
      <property name="pad">0</property>
      <property name="halign">right</property>
      <property name="valign">bottom</property>
      <property name="outline">3</property>
      <property name="opacity">1.0</property>
      <property name="mlt_service">dynamictext</property>
      <property name="shotcut:filter">dynamicText</property>
      <property name="shotcut:usePointSize">0</property>
      <property name="shotcut:animIn">00:00:00.000</property>
      <property name="shotcut:animOut">00:00:00.000</property>
      <property name="disable">0</property>
    </filter>
    <filter id="filter129" in="00:00:11.000" out="00:00:14.983">
      <property name="version">0.3</property>
      <property name="mlt_service">frei0r.saturat0r</property>
      <property name="threads">0</property>
      <property name="0">0</property>
    </filter>
    <filter id="filter130" in="00:00:11.000" out="00:00:14.983">
      <property name="maxdiameter">2</property>
      <property name="maxcount">10</property>
      <property name="mlt_service">dust</property>
      <property name="cache-dy-1-38">50</property>
      <property name="cache-dy-2-38">23</property>
      <property name="cache-dy-0-38">34</property>
      <property name="cache-dy-3-38">89</property>
      <property name="cache-dy-4-38">58</property>
    </filter>
    <filter id="filter131" in="00:00:11.000" out="00:00:14.983">
      <property name="delta">14</property>
      <property name="every">20</property>
      <property name="brightnessdelta_up">20</property>
      <property name="brightnessdelta_down">30</property>
      <property name="brightnessdelta_every">70</property>
      <property name="unevendevelop_up">60</property>
      <property name="unevendevelop_down">20</property>
      <property name="unevendevelop_duration">70</property>
      <property name="mlt_service">oldfilm</property>
    </filter>
  </chain>
  <tractor id="tractor18" in="00:00:00.000" out="00:00:00.983">
    <property name="shotcut:transition">lumaMix</property>
    <track producer="chain39" in="00:00:19.750" out="00:00:20.733"/>
    <track producer="chain40" in="00:00:11.000" out="00:00:11.983"/>
    <transition id="transition36" out="00:00:00.983">
      <property name="a_track">0</property>
      <property name="b_track">1</property>
      <property name="factory">loader</property>
      <property name="mlt_service">luma</property>
      <property name="alpha_over">1</property>
      <property name="fix_background_alpha">1</property>
    </transition>
    <transition id="transition37" out="00:00:00.983">
      <property name="a_track">0</property>
      <property name="b_track">1</property>
      <property name="mlt_service">mix</property>
      <property name="start">-1</property>
      <property name="accepts_blanks">1</property>
    </transition>
  </tractor>
  <chain id="chain41" out="00:00:35.817">
    <property name="length">00:00:35.833</property>
    <property name="eof">pause</property>
    <property name="resource">heads/IMG_0065.MOV</property>
    <property name="mlt_service">avformat-novalidate</property>
    <property name="meta.media.nb_streams">5</property>
    <property name="meta.media.0.stream.type">video</property>
    <property name="meta.media.0.stream.frame_rate">59.9637</property>
    <property name="meta.media.0.stream.sample_aspect_ratio">0</property>
    <property name="meta.media.0.codec.width">1920</property>
    <property name="meta.media.0.codec.height">1080</property>
    <property name="meta.media.0.codec.rotate">0</property>
    <property name="meta.media.0.codec.pix_fmt">yuv420p</property>
    <property name="meta.media.0.codec.sample_aspect_ratio">0</property>
    <property name="meta.media.0.codec.colorspace">709</property>
    <property name="meta.media.0.codec.color_trc">1</property>
    <property name="meta.media.0.codec.name">hevc</property>
    <property name="meta.media.0.codec.long_name">HEVC (High Efficiency Video Coding)</property>
    <property name="meta.media.0.codec.bit_rate">11715989</property>
    <property name="meta.attr.0.stream.creation_time.markup">2023-11-30T17:01:35.000000Z</property>
    <property name="meta.attr.0.stream.handler_name.markup">Core Media Video</property>
    <property name="meta.attr.0.stream.vendor_id.markup">[0][0][0][0]</property>
    <property name="meta.attr.0.stream.encoder.markup">HEVC</property>
    <property name="meta.media.1.stream.type">audio</property>
    <property name="meta.media.1.codec.sample_fmt">fltp</property>
    <property name="meta.media.1.codec.sample_rate">44100</property>
    <property name="meta.media.1.codec.channels">2</property>
    <property name="meta.media.1.codec.name">aac</property>
    <property name="meta.media.1.codec.long_name">AAC (Advanced Audio Coding)</property>
    <property name="meta.media.1.codec.bit_rate">168644</property>
    <property name="meta.attr.1.stream.creation_time.markup">2023-11-30T17:01:35.000000Z</property>
    <property name="meta.attr.1.stream.handler_name.markup">Core Media Audio</property>
    <property name="meta.attr.1.stream.vendor_id.markup">[0][0][0][0]</property>
    <property name="meta.attr.major_brand.markup">qt  </property>
    <property name="meta.attr.minor_version.markup">0</property>
    <property name="meta.attr.compatible_brands.markup">qt  </property>
    <property name="meta.attr.creation_time.markup">2023-11-30T17:01:35.000000Z</property>
    <property name="meta.attr.com.apple.quicktime.location.accuracy.horizontal.markup">35.000000</property>
    <property name="meta.attr.com.apple.quicktime.location.ISO6709.markup">+22.3378+114.2659+066.934/</property>
    <property name="meta.attr.com.apple.quicktime.make.markup">Apple</property>
    <property name="meta.attr.com.apple.quicktime.model.markup">iPhone 11</property>
    <property name="meta.attr.com.apple.quicktime.software.markup">17.0.3</property>
    <property name="meta.attr.com.apple.quicktime.creationdate.markup">2023-12-01T01:01:35+0800</property>
    <property name="seekable">1</property>
    <property name="meta.media.sample_aspect_num">1</property>
    <property name="meta.media.sample_aspect_den">1</property>
    <property name="audio_index">1</property>
    <property name="video_index">0</property>
    <property name="creation_time">2023-11-30T17:01:35</property>
    <property name="vstream">0</property>
    <property name="meta.media.frame_rate_num">1289400</property>
    <property name="meta.media.frame_rate_den">21503</property>
    <property name="meta.media.colorspace">709</property>
    <property name="meta.media.color_trc">1</property>
    <property name="meta.media.has_b_frames">2</property>
    <property name="meta.media.width">1920</property>
    <property name="meta.media.height">1080</property>
    <property name="meta.media.color_range">mpeg</property>
    <property name="astream">0</property>
    <property name="shotcut:hash">6ed97937c6e506515cef2fe25177ad2a</property>
    <property name="meta.media.top_field_first">0</property>
    <property name="meta.media.progressive">1</property>
    <property name="shotcut:caption">IMG_0065.MOV</property>
    <property name="xml">was here</property>
    <property name="meta.shotcut.vui">1</property>
    <filter id="filter132" in="00:00:23.250" out="00:00:32.233">
      <property name="mlt_service">crop</property>
      <property name="use_profile">1</property>
      <property name="center">0</property>
      <property name="center_bias">0</property>
      <property name="top">0</property>
      <property name="bottom">0</property>
      <property name="left">0</property>
      <property name="right">256</property>
    </filter>
    <filter id="filter133" in="00:00:23.250" out="00:00:32.233">
      <property name="version">0.6</property>
      <property name="mlt_service">frei0r.select0r</property>
      <property name="threads">0</property>
      <property name="0">#ffe4dacf</property>
      <property name="1">1</property>
      <property name="2">0.042</property>
      <property name="3">0.084</property>
      <property name="4">0.667</property>
      <property name="5">0</property>
      <property name="6">1</property>
      <property name="7">0.5</property>
      <property name="8">0.35</property>
      <property name="9">0</property>
      <property name="disable">0</property>
    </filter>
    <filter id="filter134" in="00:00:23.250" out="00:00:32.233">
      <property name="background">color:#00000000</property>
      <property name="mlt_service">affine</property>
      <property name="shotcut:filter">affineSizePosition</property>
      <property name="transition.fill">1</property>
      <property name="transition.distort">0</property>
      <property name="transition.rect">00:00:06.500=-200 -191 2304 1296 1;00:00:07.500=-2223.14 -348.946 5760 3240 1</property>
      <property name="transition.valign">middle</property>
      <property name="transition.halign">center</property>
      <property name="shotcut:animIn">00:00:00.000</property>
      <property name="shotcut:animOut">00:00:00.000</property>
      <property name="transition.threads">0</property>
    </filter>
    <filter id="filter135" in="00:00:23.250" out="00:00:32.233">
      <property name="window">75</property>
      <property name="max_gain">20dB</property>
      <property name="mlt_service">volume</property>
      <property name="shotcut:filter">muteVolume</property>
      <property name="gain">0</property>
    </filter>
  </chain>
  <tractor id="tractor19" in="00:00:00.000" out="00:00:00.483">
    <property name="shotcut:transition">lumaMix</property>
    <track producer="chain40" in="00:00:14.500" out="00:00:14.983"/>
    <track producer="chain41" in="00:00:23.250" out="00:00:23.733"/>
    <transition id="transition38" out="00:00:00.483">
      <property name="a_track">0</property>
      <property name="b_track">1</property>
      <property name="factory">loader</property>
      <property name="mlt_service">luma</property>
      <property name="alpha_over">1</property>
      <property name="fix_background_alpha">1</property>
    </transition>
    <transition id="transition39" out="00:00:00.483">
      <property name="a_track">0</property>
      <property name="b_track">1</property>
      <property name="mlt_service">mix</property>
      <property name="start">-1</property>
      <property name="accepts_blanks">1</property>
    </transition>
  </tractor>
  <chain id="chain42" out="00:00:20.817">
    <property name="length">00:00:20.833</property>
    <property name="eof">pause</property>
    <property name="resource">backgrounds/pexels-anastasia-shuraeva-7279475 (1080p).mp4</property>
    <property name="mlt_service">avformat-novalidate</property>
    <property name="meta.media.nb_streams">1</property>
    <property name="meta.media.0.stream.type">video</property>
    <property name="meta.media.0.stream.frame_rate">24</property>
    <property name="meta.media.0.stream.sample_aspect_ratio">0</property>
    <property name="meta.media.0.codec.width">2048</property>
    <property name="meta.media.0.codec.height">1080</property>
    <property name="meta.media.0.codec.rotate">0</property>
    <property name="meta.media.0.codec.pix_fmt">yuv420p</property>
    <property name="meta.media.0.codec.sample_aspect_ratio">0</property>
    <property name="meta.media.0.codec.colorspace">709</property>
    <property name="meta.media.0.codec.color_trc">1</property>
    <property name="meta.media.0.codec.name">h264</property>
    <property name="meta.media.0.codec.long_name">H.264 / AVC / MPEG-4 AVC / MPEG-4 part 10</property>
    <property name="meta.media.0.codec.bit_rate">5044081</property>
    <property name="meta.attr.0.stream.creation_time.markup">2021-03-27T11:45:27.000000Z</property>
    <property name="meta.attr.0.stream.handler_name.markup">L-SMASH Video Handler</property>
    <property name="meta.attr.0.stream.vendor_id.markup">[0][0][0][0]</property>
    <property name="meta.attr.0.stream.encoder.markup">AVC Coding</property>
    <property name="meta.attr.major_brand.markup">mp42</property>
    <property name="meta.attr.minor_version.markup">0</property>
    <property name="meta.attr.compatible_brands.markup">mp42mp41isomavc1</property>
    <property name="meta.attr.creation_time.markup">2021-03-27T11:45:27.000000Z</property>
    <property name="seekable">1</property>
    <property name="meta.media.sample_aspect_num">1</property>
    <property name="meta.media.sample_aspect_den">1</property>
    <property name="audio_index">-1</property>
    <property name="video_index">0</property>
    <property name="creation_time">2021-03-27T11:45:27</property>
    <property name="vstream">0</property>
    <property name="meta.media.frame_rate_num">24</property>
    <property name="meta.media.frame_rate_den">1</property>
    <property name="meta.media.colorspace">709</property>
    <property name="meta.media.color_trc">1</property>
    <property name="meta.media.has_b_frames">2</property>
    <property name="meta.media.width">2048</property>
    <property name="meta.media.height">1080</property>
    <property name="meta.media.color_range">mpeg</property>
    <property name="shotcut:hash">0c2803021f5ac0c82bdf7da2e91dc4a5</property>
    <property name="meta.media.top_field_first">0</property>
    <property name="meta.media.progressive">1</property>
    <property name="shotcut:caption">pexels-anastasia-shuraeva-7279475 (1080p).mp4</property>
    <property name="meta.shotcut.vui">1</property>
    <property name="xml">was here</property>
    <filter id="filter136" out="00:00:15.483">
      <property name="lift_r">0.400015</property>
      <property name="lift_g">0.400015</property>
      <property name="lift_b">0.400015</property>
      <property name="gamma_r">1</property>
      <property name="gamma_g">1</property>
      <property name="gamma_b">1</property>
      <property name="gain_r">1</property>
      <property name="gain_g">1</property>
      <property name="gain_b">1</property>
      <property name="mlt_service">lift_gamma_gain</property>
    </filter>
    <filter id="filter137" out="00:00:15.483">
      <property name="background">color:#00000000</property>
      <property name="mlt_service">affine</property>
      <property name="shotcut:filter">affineSizePosition</property>
      <property name="transition.fill">1</property>
      <property name="transition.distort">0</property>
      <property name="transition.rect">-64 0.25 2048 1080 1</property>
      <property name="transition.valign">middle</property>
      <property name="transition.halign">center</property>
      <property name="shotcut:animIn">00:00:00.000</property>
      <property name="shotcut:animOut">00:00:00.000</property>
      <property name="transition.threads">0</property>
    </filter>
    <filter id="filter138" out="00:00:15.483">
      <property name="mlt_service">avfilter.gblur</property>
      <property name="shotcut:filter">blur_gaussian_av</property>
      <property name="av.sigma">25</property>
      <property name="av.sigmaV">25</property>
      <property name="av.planes">0xf</property>
    </filter>
    <filter id="filter139" out="00:00:15.483">
      <property name="argument">Video by Anastasia Shuraeva</property>
      <property name="geometry">1280 3 640 1080 1</property>
      <property name="family">Times New Roman</property>
      <property name="size">1080</property>
      <property name="weight">400</property>
      <property name="style">normal</property>
      <property name="fgcolour">#ffffffff</property>
      <property name="bgcolour">#00000000</property>
      <property name="olcolour">#aa000000</property>
      <property name="pad">0</property>
      <property name="halign">right</property>
      <property name="valign">bottom</property>
      <property name="outline">3</property>
      <property name="opacity">1.0</property>
      <property name="mlt_service">dynamictext</property>
      <property name="shotcut:filter">dynamicText</property>
      <property name="shotcut:usePointSize">0</property>
      <property name="shotcut:animIn">00:00:00.000</property>
      <property name="shotcut:animOut">00:00:00.000</property>
      <property name="disable">0</property>
    </filter>
  </chain>
  <chain id="chain44" out="00:00:32.367">
    <property name="length">00:00:32.383</property>
    <property name="eof">pause</property>
    <property name="resource">heads/IMG_0066.MOV</property>
    <property name="mlt_service">avformat-novalidate</property>
    <property name="meta.media.nb_streams">5</property>
    <property name="meta.media.0.stream.type">video</property>
    <property name="meta.media.0.stream.frame_rate">59.9629</property>
    <property name="meta.media.0.stream.sample_aspect_ratio">0</property>
    <property name="meta.media.0.codec.width">1920</property>
    <property name="meta.media.0.codec.height">1080</property>
    <property name="meta.media.0.codec.rotate">0</property>
    <property name="meta.media.0.codec.pix_fmt">yuv420p</property>
    <property name="meta.media.0.codec.sample_aspect_ratio">0</property>
    <property name="meta.media.0.codec.colorspace">709</property>
    <property name="meta.media.0.codec.color_trc">1</property>
    <property name="meta.media.0.codec.name">hevc</property>
    <property name="meta.media.0.codec.long_name">HEVC (High Efficiency Video Coding)</property>
    <property name="meta.media.0.codec.bit_rate">11708764</property>
    <property name="meta.attr.0.stream.creation_time.markup">2023-11-30T17:05:15.000000Z</property>
    <property name="meta.attr.0.stream.handler_name.markup">Core Media Video</property>
    <property name="meta.attr.0.stream.vendor_id.markup">[0][0][0][0]</property>
    <property name="meta.attr.0.stream.encoder.markup">HEVC</property>
    <property name="meta.media.1.stream.type">audio</property>
    <property name="meta.media.1.codec.sample_fmt">fltp</property>
    <property name="meta.media.1.codec.sample_rate">44100</property>
    <property name="meta.media.1.codec.channels">2</property>
    <property name="meta.media.1.codec.name">aac</property>
    <property name="meta.media.1.codec.long_name">AAC (Advanced Audio Coding)</property>
    <property name="meta.media.1.codec.bit_rate">168986</property>
    <property name="meta.attr.1.stream.creation_time.markup">2023-11-30T17:05:15.000000Z</property>
    <property name="meta.attr.1.stream.handler_name.markup">Core Media Audio</property>
    <property name="meta.attr.1.stream.vendor_id.markup">[0][0][0][0]</property>
    <property name="meta.attr.major_brand.markup">qt  </property>
    <property name="meta.attr.minor_version.markup">0</property>
    <property name="meta.attr.compatible_brands.markup">qt  </property>
    <property name="meta.attr.creation_time.markup">2023-11-30T17:05:15.000000Z</property>
    <property name="meta.attr.com.apple.quicktime.location.accuracy.horizontal.markup">35.000000</property>
    <property name="meta.attr.com.apple.quicktime.location.ISO6709.markup">+22.3378+114.2659+066.802/</property>
    <property name="meta.attr.com.apple.quicktime.make.markup">Apple</property>
    <property name="meta.attr.com.apple.quicktime.model.markup">iPhone 11</property>
    <property name="meta.attr.com.apple.quicktime.software.markup">17.0.3</property>
    <property name="meta.attr.com.apple.quicktime.creationdate.markup">2023-12-01T01:05:15+0800</property>
    <property name="seekable">1</property>
    <property name="meta.media.sample_aspect_num">1</property>
    <property name="meta.media.sample_aspect_den">1</property>
    <property name="audio_index">1</property>
    <property name="video_index">0</property>
    <property name="creation_time">2023-11-30T17:05:15</property>
    <property name="vstream">0</property>
    <property name="meta.media.frame_rate_num">145650</property>
    <property name="meta.media.frame_rate_den">2429</property>
    <property name="meta.media.colorspace">709</property>
    <property name="meta.media.color_trc">1</property>
    <property name="meta.media.has_b_frames">2</property>
    <property name="meta.media.width">1920</property>
    <property name="meta.media.height">1080</property>
    <property name="meta.media.color_range">mpeg</property>
    <property name="astream">0</property>
    <property name="shotcut:hash">6d88104288a04bd33e26b75c29a33519</property>
    <property name="meta.media.top_field_first">0</property>
    <property name="meta.media.progressive">1</property>
    <property name="shotcut:caption">IMG_0066.MOV</property>
    <property name="meta.shotcut.vui">1</property>
    <property name="xml">was here</property>
    <filter id="filter140" in="00:00:03.950" out="00:00:29.933">
      <property name="version">0.6</property>
      <property name="mlt_service">frei0r.select0r</property>
      <property name="threads">0</property>
      <property name="0">#ffe4dacf</property>
      <property name="1">1</property>
      <property name="2">0.042</property>
      <property name="3">0.084</property>
      <property name="4">0.667</property>
      <property name="5">0</property>
      <property name="6">1</property>
      <property name="7">0.5</property>
      <property name="8">0.35</property>
      <property name="9">0</property>
      <property name="disable">0</property>
    </filter>
    <filter id="filter141" in="00:00:03.950" out="00:00:29.933">
      <property name="background">color:#00000000</property>
      <property name="mlt_service">affine</property>
      <property name="shotcut:filter">affineSizePosition</property>
      <property name="transition.fill">1</property>
      <property name="transition.distort">0</property>
      <property name="transition.rect">00:00:11.000=-454.972 -257.957 2560 1440 1;00:00:12.500=80 -257.957 2560 1440 1</property>
      <property name="transition.valign">middle</property>
      <property name="transition.halign">center</property>
      <property name="shotcut:animIn">00:00:00.000</property>
      <property name="shotcut:animOut">00:00:00.000</property>
      <property name="transition.threads">0</property>
    </filter>
    <filter id="filter142" in="00:00:03.950" out="00:00:29.933">
      <property name="window">75</property>
      <property name="max_gain">20dB</property>
      <property name="mlt_service">volume</property>
      <property name="shotcut:filter">muteVolume</property>
      <property name="gain">0</property>
    </filter>
  </chain>
  <producer id="producer19" in="00:00:00.000" out="03:59:59.983">
    <property name="length">04:00:00.000</property>
    <property name="eof">pause</property>
    <property name="resource">#00000000</property>
    <property name="aspect_ratio">1</property>
    <property name="mlt_service">color</property>
    <property name="mlt_image_format">rgba</property>
    <property name="shotcut:caption">transparent</property>
    <property name="shotcut:detail">transparent</property>
    <property name="xml">was here</property>
    <property name="seekable">1</property>
    <property name="meta.shotcut.vui">1</property>
    <filter id="filter143" out="00:00:03.983">
      <property name="argument">One year later...</property>
      <property name="geometry">00:00:01.000=480 270 960 540 1;00:00:04.000=0 0 1920 1080 1</property>
      <property name="family">Times New Roman</property>
      <property name="size">1080</property>
      <property name="weight">700</property>
      <property name="style">normal</property>
      <property name="fgcolour">#ffffffff</property>
      <property name="bgcolour">#00000000</property>
      <property name="olcolour">#aa000000</property>
      <property name="pad">0</property>
      <property name="halign">center</property>
      <property name="valign">middle</property>
      <property name="outline">16</property>
      <property name="opacity">00:00:01.000=0;00:00:04.000=1</property>
      <property name="mlt_service">dynamictext</property>
      <property name="shotcut:filter">dynamicText</property>
      <property name="shotcut:usePointSize">0</property>
      <property name="shotcut:pointSize">60</property>
    </filter>
  </producer>
  <playlist id="playlist3">
    <property name="shotcut:video">1</property>
    <property name="shotcut:name">V2</property>
    <property name="shotcut:lock">0</property>
    <blank length="00:00:18.000"/>
    <entry producer="producer10" in="00:00:00.000" out="00:00:09.983"/>
    <entry producer="tractor1" in="00:00:00.000" out="00:00:00.983"/>
    <entry producer="producer11" in="00:00:27.233" out="00:00:29.217"/>
    <entry producer="producer12" in="00:00:58.467" out="00:01:02.450"/>
    <entry producer="chain15" in="00:00:00.000" out="00:00:03.983"/>
    <entry producer="producer13" in="00:00:01.017" out="00:00:09.400"/>
    <blank length="00:00:09.600"/>
    <entry producer="chain16" in="00:00:04.000" out="00:00:09.983"/>
    <entry producer="producer14" in="00:00:11.500" out="00:00:17.483"/>
    <entry producer="tractor2" in="00:00:00.000" out="00:00:00.983"/>
    <entry producer="chain17" in="00:00:01.000" out="00:00:13.983"/>
    <entry producer="tractor3" in="00:00:00.000" out="00:00:00.983"/>
    <entry producer="chain18" in="00:00:01.000" out="00:00:13.983"/>
    <entry producer="tractor4" in="00:00:00.000" out="00:00:00.983"/>
    <entry producer="chain19" in="00:00:01.500" out="00:00:13.483"/>
    <entry producer="producer15" in="00:00:10.800" out="00:00:11.767"/>
    <entry producer="producer16" in="00:00:24.567" out="00:00:24.567"/>
    <entry producer="tractor5" in="00:00:00.000" out="00:00:00.983"/>
    <entry producer="chain20" in="00:00:01.000" out="00:00:08.383"/>
    <entry producer="tractor6" in="00:00:00.000" out="00:00:00.983"/>
    <entry producer="chain21" in="00:00:01.000" out="00:00:07.583"/>
    <entry producer="tractor7" in="00:00:00.000" out="00:00:00.983"/>
    <entry producer="producer17" in="00:00:10.833" out="00:00:11.067"/>
    <entry producer="chain22" in="00:00:05.550" out="00:00:13.283"/>
    <entry producer="chain23" in="00:00:00.000" out="00:00:03.983"/>
    <entry producer="chain24" in="00:00:03.167" out="00:00:11.650"/>
    <entry producer="tractor8" in="00:00:00.000" out="00:00:00.983"/>
    <entry producer="chain25" in="00:00:01.000" out="00:00:17.483"/>
    <entry producer="tractor9" in="00:00:00.000" out="00:00:00.483"/>
    <entry producer="chain26" in="00:00:06.233" out="00:00:21.717"/>
    <entry producer="chain27" in="00:00:00.000" out="00:00:11.950"/>
    <entry producer="tractor10" in="00:00:00.000" out="00:00:00.983"/>
    <entry producer="chain28" in="00:00:01.000" out="00:00:11.950"/>
    <entry producer="tractor11" in="00:00:00.000" out="00:00:00.983"/>
    <entry producer="chain29" in="00:00:01.000" out="00:00:11.950"/>
    <entry producer="tractor12" in="00:00:00.000" out="00:00:00.983"/>
    <entry producer="chain30" in="00:00:01.000" out="00:00:04.583"/>
    <entry producer="producer18" in="00:00:04.183" out="00:00:09.983"/>
    <entry producer="chain31" in="00:00:06.000" out="00:00:08.667"/>
    <entry producer="chain32" in="00:00:00.000" out="00:00:03.983"/>
    <entry producer="chain33" in="00:00:01.000" out="00:00:08.983"/>
    <entry producer="tractor13" in="00:00:00.000" out="00:00:00.983"/>
    <entry producer="chain34" in="00:00:15.000" out="00:00:17.483"/>
    <entry producer="tractor14" in="00:00:00.000" out="00:00:00.483"/>
    <entry producer="chain35" in="00:00:11.500" out="00:00:14.483"/>
    <entry producer="tractor15" in="00:00:00.000" out="00:00:00.983"/>
    <entry producer="chain36" in="00:00:01.000" out="00:00:12.350"/>
    <entry producer="tractor16" in="00:00:00.000" out="00:00:00.983"/>
    <entry producer="chain37" in="00:00:01.000" out="00:00:12.350"/>
    <entry producer="tractor17" in="00:00:00.000" out="00:00:00.983"/>
    <entry producer="chain38" in="00:00:01.000" out="00:00:06.250"/>
    <entry producer="chain39" in="00:00:06.750" out="00:00:19.733"/>
    <entry producer="tractor18" in="00:00:00.000" out="00:00:00.983"/>
    <entry producer="chain40" in="00:00:12.000" out="00:00:14.483"/>
    <entry producer="tractor19" in="00:00:00.000" out="00:00:00.483"/>
    <entry producer="chain41" in="00:00:23.750" out="00:00:32.233"/>
    <entry producer="chain42" in="00:00:00.000" out="00:00:15.483"/>
    <entry producer="chain44" in="00:00:03.950" out="00:00:29.933"/>
    <entry producer="producer19" in="00:00:00.000" out="00:00:03.983"/>
  </playlist>
  <producer id="producer20" in="00:00:00.000" out="00:00:01.983">
    <property name="length">00:00:02.000</property>
    <property name="eof">loop</property>
    <property name="resource">images/studying tirelessly.rawr</property>
    <property name="background">#00000000</property>
    <property name="aspect_ratio">1</property>
    <property name="progressive">1</property>
    <property name="seekable">1</property>
    <property name="meta.media.width">512</property>
    <property name="meta.media.height">512</property>
    <property name="meta.media.sample_aspect_num">1</property>
    <property name="meta.media.sample_aspect_den">1</property>
    <property name="meta.media.frame_rate">60</property>
    <property name="first_frame">0</property>
    <property name="mlt_service">glaxnimate</property>
    <property name="creation_time">2023-11-29T03:37:51</property>
    <property name="shotcut:skipConvert">0</property>
    <property name="shotcut:caption">studying tirelessly.rawr</property>
    <property name="shotcut:hash">309d31beedff0095c7a488bed70ad1de</property>
    <property name="ignore_points">0</property>
    <property name="xml">was here</property>
    <property name="meta.shotcut.vui">1</property>
    <filter id="filter144" out="00:00:01.983">
      <property name="background">color:#00000000</property>
      <property name="mlt_service">affine</property>
      <property name="shotcut:filter">affineSizePosition</property>
      <property name="transition.fill">1</property>
      <property name="transition.distort">0</property>
      <property name="transition.rect">78.1693 38.0375 541.945 541.945 1</property>
      <property name="transition.valign">middle</property>
      <property name="transition.halign">center</property>
      <property name="shotcut:animIn">00:00:00.000</property>
      <property name="shotcut:animOut">00:00:00.000</property>
      <property name="transition.threads">0</property>
    </filter>
    <filter id="filter145" out="00:00:01.983">
      <property name="start">1</property>
      <property name="level">1</property>
      <property name="mlt_service">brightness</property>
      <property name="shotcut:filter">fadeInBrightness</property>
      <property name="alpha">00:00:00.000=0;00:00:01.983=1</property>
      <property name="shotcut:animIn">00:00:02.000</property>
    </filter>
  </producer>
  <producer id="producer21" in="00:00:00.000" out="00:00:01.983">
    <property name="length">00:00:02.000</property>
    <property name="eof">loop</property>
    <property name="resource">images/studying tirelessly.rawr</property>
    <property name="background">#00000000</property>
    <property name="aspect_ratio">1</property>
    <property name="progressive">1</property>
    <property name="seekable">1</property>
    <property name="meta.media.width">512</property>
    <property name="meta.media.height">512</property>
    <property name="meta.media.sample_aspect_num">1</property>
    <property name="meta.media.sample_aspect_den">1</property>
    <property name="meta.media.frame_rate">60</property>
    <property name="first_frame">0</property>
    <property name="mlt_service">glaxnimate</property>
    <property name="creation_time">2023-11-29T03:37:51</property>
    <property name="shotcut:skipConvert">0</property>
    <property name="shotcut:caption">studying tirelessly.rawr</property>
    <property name="shotcut:hash">309d31beedff0095c7a488bed70ad1de</property>
    <property name="ignore_points">0</property>
    <property name="xml">was here</property>
    <property name="meta.shotcut.vui">1</property>
    <filter id="filter146" out="00:00:01.983">
      <property name="background">color:#00000000</property>
      <property name="mlt_service">affine</property>
      <property name="shotcut:filter">affineSizePosition</property>
      <property name="transition.fill">1</property>
      <property name="transition.distort">0</property>
      <property name="transition.rect">78.1693 38.0375 541.945 541.945 1</property>
      <property name="transition.valign">middle</property>
      <property name="transition.halign">center</property>
      <property name="shotcut:animIn">00:00:00.000</property>
      <property name="shotcut:animOut">00:00:00.000</property>
      <property name="transition.threads">0</property>
    </filter>
  </producer>
  <producer id="producer22" in="00:00:00.000" out="00:00:01.983">
    <property name="length">00:00:02.000</property>
    <property name="eof">loop</property>
    <property name="resource">images/studying tirelessly.rawr</property>
    <property name="background">#00000000</property>
    <property name="aspect_ratio">1</property>
    <property name="progressive">1</property>
    <property name="seekable">1</property>
    <property name="meta.media.width">512</property>
    <property name="meta.media.height">512</property>
    <property name="meta.media.sample_aspect_num">1</property>
    <property name="meta.media.sample_aspect_den">1</property>
    <property name="meta.media.frame_rate">60</property>
    <property name="first_frame">0</property>
    <property name="mlt_service">glaxnimate</property>
    <property name="creation_time">2023-11-29T03:37:51</property>
    <property name="shotcut:skipConvert">0</property>
    <property name="shotcut:caption">studying tirelessly.rawr</property>
    <property name="shotcut:hash">309d31beedff0095c7a488bed70ad1de</property>
    <property name="ignore_points">0</property>
    <property name="xml">was here</property>
    <property name="meta.shotcut.vui">1</property>
    <filter id="filter147" out="00:00:01.983">
      <property name="background">color:#00000000</property>
      <property name="mlt_service">affine</property>
      <property name="shotcut:filter">affineSizePosition</property>
      <property name="transition.fill">1</property>
      <property name="transition.distort">0</property>
      <property name="transition.rect">78.1693 38.0375 541.945 541.945 1</property>
      <property name="transition.valign">middle</property>
      <property name="transition.halign">center</property>
      <property name="shotcut:animIn">00:00:00.000</property>
      <property name="shotcut:animOut">00:00:00.000</property>
      <property name="transition.threads">0</property>
    </filter>
  </producer>
  <producer id="producer23" in="00:00:00.000" out="00:00:01.983">
    <property name="length">00:00:02.000</property>
    <property name="eof">loop</property>
    <property name="resource">images/studying tirelessly.rawr</property>
    <property name="background">#00000000</property>
    <property name="aspect_ratio">1</property>
    <property name="progressive">1</property>
    <property name="seekable">1</property>
    <property name="meta.media.width">512</property>
    <property name="meta.media.height">512</property>
    <property name="meta.media.sample_aspect_num">1</property>
    <property name="meta.media.sample_aspect_den">1</property>
    <property name="meta.media.frame_rate">60</property>
    <property name="first_frame">0</property>
    <property name="mlt_service">glaxnimate</property>
    <property name="creation_time">2023-11-29T03:37:51</property>
    <property name="shotcut:skipConvert">0</property>
    <property name="shotcut:caption">studying tirelessly.rawr</property>
    <property name="shotcut:hash">309d31beedff0095c7a488bed70ad1de</property>
    <property name="ignore_points">0</property>
    <property name="xml">was here</property>
    <property name="meta.shotcut.vui">1</property>
    <filter id="filter148" out="00:00:01.983">
      <property name="background">color:#00000000</property>
      <property name="mlt_service">affine</property>
      <property name="shotcut:filter">affineSizePosition</property>
      <property name="transition.fill">1</property>
      <property name="transition.distort">0</property>
      <property name="transition.rect">78.1693 38.0375 541.945 541.945 1</property>
      <property name="transition.valign">middle</property>
      <property name="transition.halign">center</property>
      <property name="shotcut:animIn">00:00:00.000</property>
      <property name="shotcut:animOut">00:00:00.000</property>
      <property name="transition.threads">0</property>
    </filter>
  </producer>
  <producer id="producer24" in="00:00:00.000" out="00:00:01.983">
    <property name="length">00:00:02.000</property>
    <property name="eof">loop</property>
    <property name="resource">images/studying tirelessly.rawr</property>
    <property name="background">#00000000</property>
    <property name="aspect_ratio">1</property>
    <property name="progressive">1</property>
    <property name="seekable">1</property>
    <property name="meta.media.width">512</property>
    <property name="meta.media.height">512</property>
    <property name="meta.media.sample_aspect_num">1</property>
    <property name="meta.media.sample_aspect_den">1</property>
    <property name="meta.media.frame_rate">60</property>
    <property name="first_frame">0</property>
    <property name="mlt_service">glaxnimate</property>
    <property name="creation_time">2023-11-29T03:37:51</property>
    <property name="shotcut:skipConvert">0</property>
    <property name="shotcut:caption">studying tirelessly.rawr</property>
    <property name="shotcut:hash">309d31beedff0095c7a488bed70ad1de</property>
    <property name="ignore_points">0</property>
    <property name="xml">was here</property>
    <property name="meta.shotcut.vui">1</property>
    <filter id="filter149" out="00:00:01.983">
      <property name="background">color:#00000000</property>
      <property name="mlt_service">affine</property>
      <property name="shotcut:filter">affineSizePosition</property>
      <property name="transition.fill">1</property>
      <property name="transition.distort">0</property>
      <property name="transition.rect">78.1693 38.0375 541.945 541.945 1</property>
      <property name="transition.valign">middle</property>
      <property name="transition.halign">center</property>
      <property name="shotcut:animIn">00:00:00.000</property>
      <property name="shotcut:animOut">00:00:00.000</property>
      <property name="transition.threads">0</property>
    </filter>
  </producer>
  <producer id="producer25" in="00:00:00.000" out="00:00:01.983">
    <property name="length">00:00:02.000</property>
    <property name="eof">loop</property>
    <property name="resource">images/studying tirelessly.rawr</property>
    <property name="background">#00000000</property>
    <property name="aspect_ratio">1</property>
    <property name="progressive">1</property>
    <property name="seekable">1</property>
    <property name="meta.media.width">512</property>
    <property name="meta.media.height">512</property>
    <property name="meta.media.sample_aspect_num">1</property>
    <property name="meta.media.sample_aspect_den">1</property>
    <property name="meta.media.frame_rate">60</property>
    <property name="first_frame">0</property>
    <property name="mlt_service">glaxnimate</property>
    <property name="creation_time">2023-11-29T03:37:51</property>
    <property name="shotcut:skipConvert">0</property>
    <property name="shotcut:caption">studying tirelessly.rawr</property>
    <property name="shotcut:hash">309d31beedff0095c7a488bed70ad1de</property>
    <property name="ignore_points">0</property>
    <property name="xml">was here</property>
    <property name="meta.shotcut.vui">1</property>
    <filter id="filter150" out="00:00:01.983">
      <property name="background">color:#00000000</property>
      <property name="mlt_service">affine</property>
      <property name="shotcut:filter">affineSizePosition</property>
      <property name="transition.fill">1</property>
      <property name="transition.distort">0</property>
      <property name="transition.rect">78.1693 38.0375 541.945 541.945 1</property>
      <property name="transition.valign">middle</property>
      <property name="transition.halign">center</property>
      <property name="shotcut:animIn">00:00:00.000</property>
      <property name="shotcut:animOut">00:00:00.000</property>
      <property name="transition.threads">0</property>
    </filter>
  </producer>
  <producer id="producer26" in="00:00:00.000" out="00:00:01.983">
    <property name="length">00:00:02.000</property>
    <property name="eof">loop</property>
    <property name="resource">images/studying tirelessly.rawr</property>
    <property name="background">#00000000</property>
    <property name="aspect_ratio">1</property>
    <property name="progressive">1</property>
    <property name="seekable">1</property>
    <property name="meta.media.width">512</property>
    <property name="meta.media.height">512</property>
    <property name="meta.media.sample_aspect_num">1</property>
    <property name="meta.media.sample_aspect_den">1</property>
    <property name="meta.media.frame_rate">60</property>
    <property name="first_frame">0</property>
    <property name="mlt_service">glaxnimate</property>
    <property name="creation_time">2023-11-29T03:37:51</property>
    <property name="shotcut:skipConvert">0</property>
    <property name="shotcut:caption">studying tirelessly.rawr</property>
    <property name="shotcut:hash">309d31beedff0095c7a488bed70ad1de</property>
    <property name="ignore_points">0</property>
    <property name="xml">was here</property>
    <property name="meta.shotcut.vui">1</property>
    <filter id="filter151" out="00:00:01.983">
      <property name="background">color:#00000000</property>
      <property name="mlt_service">affine</property>
      <property name="shotcut:filter">affineSizePosition</property>
      <property name="transition.fill">1</property>
      <property name="transition.distort">0</property>
      <property name="transition.rect">78.1693 38.0375 541.945 541.945 1</property>
      <property name="transition.valign">middle</property>
      <property name="transition.halign">center</property>
      <property name="shotcut:animIn">00:00:00.000</property>
      <property name="shotcut:animOut">00:00:00.000</property>
      <property name="transition.threads">0</property>
    </filter>
    <filter id="filter152" out="00:00:01.983">
      <property name="start">1</property>
      <property name="level">1</property>
      <property name="mlt_service">brightness</property>
      <property name="shotcut:filter">fadeOutBrightness</property>
      <property name="alpha">00:00:01.000=1;00:00:01.983=0</property>
      <property name="shotcut:animOut">00:00:01.000</property>
    </filter>
  </producer>
  <producer id="producer27" in="00:00:00.000" out="00:00:05.983">
    <property name="length">00:00:06.000</property>
    <property name="eof">loop</property>
    <property name="resource">images/studying before exams.rawr</property>
    <property name="background">#00000000</property>
    <property name="aspect_ratio">1</property>
    <property name="progressive">1</property>
    <property name="seekable">1</property>
    <property name="meta.media.width">512</property>
    <property name="meta.media.height">512</property>
    <property name="meta.media.sample_aspect_num">1</property>
    <property name="meta.media.sample_aspect_den">1</property>
    <property name="meta.media.frame_rate">60</property>
    <property name="first_frame">0</property>
    <property name="mlt_service">glaxnimate</property>
    <property name="creation_time">2023-11-29T05:43:33</property>
    <property name="shotcut:hash">295e81b6ce55f3320b14cd0acddda991</property>
    <property name="shotcut:caption">studying before exams.rawr</property>
    <property name="xml">was here</property>
    <property name="meta.shotcut.vui">1</property>
    <filter id="filter153" out="00:00:05.983">
      <property name="background">color:#00000000</property>
      <property name="mlt_service">affine</property>
      <property name="shotcut:filter">affineSizePosition</property>
      <property name="transition.fill">1</property>
      <property name="transition.distort">0</property>
      <property name="transition.rect">662.457 435.768 640.956 640.956 1</property>
      <property name="transition.valign">middle</property>
      <property name="transition.halign">center</property>
      <property name="shotcut:animIn">00:00:00.000</property>
      <property name="shotcut:animOut">00:00:00.000</property>
      <property name="transition.threads">0</property>
    </filter>
    <filter id="filter154" out="00:00:05.983">
      <property name="start">1</property>
      <property name="level">1</property>
      <property name="mlt_service">brightness</property>
      <property name="shotcut:filter">fadeInBrightness</property>
      <property name="alpha">00:00:00.000=0;00:00:00.983=1</property>
      <property name="shotcut:animIn">00:00:01.000</property>
    </filter>
    <filter id="filter155" out="00:00:05.983">
      <property name="start">1</property>
      <property name="level">1</property>
      <property name="mlt_service">brightness</property>
      <property name="shotcut:filter">fadeOutBrightness</property>
      <property name="alpha">00:00:05.500=1;00:00:05.983=0</property>
      <property name="shotcut:animOut">00:00:00.500</property>
    </filter>
  </producer>
  <producer id="producer28" in="00:00:00.000" out="03:59:59.983">
    <property name="length">04:00:00.000</property>
    <property name="eof">pause</property>
    <property name="resource">#00000000</property>
    <property name="aspect_ratio">1</property>
    <property name="mlt_service">color</property>
    <property name="mlt_image_format">rgba</property>
    <property name="shotcut:caption">transparent</property>
    <property name="xml">was here</property>
    <property name="seekable">1</property>
    <property name="meta.shotcut.vui">1</property>
    <filter id="filter156" out="00:00:30.483">
      <property name="argument">cramming</property>
      <property name="geometry">0 0 1920 270 1</property>
      <property name="family">Times New Roman</property>
      <property name="size">1080</property>
      <property name="weight">700</property>
      <property name="style">normal</property>
      <property name="fgcolour">#ff000000</property>
      <property name="bgcolour">#00000000</property>
      <property name="olcolour">#aaffffff</property>
      <property name="pad">0</property>
      <property name="halign">center</property>
      <property name="valign">top</property>
      <property name="outline">16</property>
      <property name="opacity">1</property>
      <property name="mlt_service">dynamictext</property>
      <property name="shotcut:filter">dynamicText</property>
      <property name="shotcut:usePointSize">0</property>
      <property name="shotcut:pointSize">60</property>
    </filter>
    <filter id="filter157" out="00:00:30.483">
      <property name="start">1</property>
      <property name="level">1</property>
      <property name="mlt_service">brightness</property>
      <property name="shotcut:filter">fadeOutBrightness</property>
      <property name="alpha">00:00:29.500=1;00:00:30.483=0</property>
      <property name="shotcut:animOut">00:00:01.000</property>
    </filter>
  </producer>
  <producer id="producer29" in="00:00:00.000" out="00:00:01.983">
    <property name="length">00:00:02.000</property>
    <property name="eof">loop</property>
    <property name="resource">images/studying tirelessly.rawr</property>
    <property name="background">#00000000</property>
    <property name="aspect_ratio">1</property>
    <property name="progressive">1</property>
    <property name="seekable">1</property>
    <property name="meta.media.width">512</property>
    <property name="meta.media.height">512</property>
    <property name="meta.media.sample_aspect_num">1</property>
    <property name="meta.media.sample_aspect_den">1</property>
    <property name="meta.media.frame_rate">60</property>
    <property name="first_frame">0</property>
    <property name="mlt_service">glaxnimate</property>
    <property name="creation_time">2023-11-29T03:37:51</property>
    <property name="shotcut:skipConvert">0</property>
    <property name="shotcut:caption">studying tirelessly.rawr</property>
    <property name="shotcut:hash">309d31beedff0095c7a488bed70ad1de</property>
    <property name="ignore_points">0</property>
    <property name="xml">was here</property>
    <property name="meta.shotcut.vui">1</property>
    <filter id="filter158" out="00:00:01.983">
      <property name="background">color:#00000000</property>
      <property name="mlt_service">affine</property>
      <property name="shotcut:filter">affineSizePosition</property>
      <property name="transition.fill">1</property>
      <property name="transition.distort">0</property>
      <property name="transition.rect">71.6718 535.093 541.945 541.945 1</property>
      <property name="transition.valign">middle</property>
      <property name="transition.halign">center</property>
      <property name="shotcut:animIn">00:00:00.000</property>
      <property name="shotcut:animOut">00:00:00.000</property>
      <property name="transition.threads">0</property>
    </filter>
    <filter id="filter159" out="00:00:01.983">
      <property name="start">1</property>
      <property name="level">1</property>
      <property name="mlt_service">brightness</property>
      <property name="shotcut:filter">fadeInBrightness</property>
      <property name="alpha">00:00:00.000=0;00:00:01.983=1</property>
      <property name="shotcut:animIn">00:00:02.000</property>
    </filter>
  </producer>
  <producer id="producer30" in="00:00:00.000" out="00:00:01.983">
    <property name="length">00:00:02.000</property>
    <property name="eof">loop</property>
    <property name="resource">images/studying tirelessly.rawr</property>
    <property name="background">#00000000</property>
    <property name="aspect_ratio">1</property>
    <property name="progressive">1</property>
    <property name="seekable">1</property>
    <property name="meta.media.width">512</property>
    <property name="meta.media.height">512</property>
    <property name="meta.media.sample_aspect_num">1</property>
    <property name="meta.media.sample_aspect_den">1</property>
    <property name="meta.media.frame_rate">60</property>
    <property name="first_frame">0</property>
    <property name="mlt_service">glaxnimate</property>
    <property name="creation_time">2023-11-29T03:37:51</property>
    <property name="shotcut:skipConvert">0</property>
    <property name="shotcut:caption">studying tirelessly.rawr</property>
    <property name="shotcut:hash">309d31beedff0095c7a488bed70ad1de</property>
    <property name="ignore_points">0</property>
    <property name="xml">was here</property>
    <property name="meta.shotcut.vui">1</property>
    <filter id="filter160" out="00:00:01.983">
      <property name="background">color:#00000000</property>
      <property name="mlt_service">affine</property>
      <property name="shotcut:filter">affineSizePosition</property>
      <property name="transition.fill">1</property>
      <property name="transition.distort">0</property>
      <property name="transition.rect">71.6718 535.093 541.945 541.945 1</property>
      <property name="transition.valign">middle</property>
      <property name="transition.halign">center</property>
      <property name="shotcut:animIn">00:00:00.000</property>
      <property name="shotcut:animOut">00:00:00.000</property>
      <property name="transition.threads">0</property>
    </filter>
  </producer>
  <producer id="producer31" in="00:00:00.000" out="00:00:01.983">
    <property name="length">00:00:02.000</property>
    <property name="eof">loop</property>
    <property name="resource">images/studying tirelessly.rawr</property>
    <property name="background">#00000000</property>
    <property name="aspect_ratio">1</property>
    <property name="progressive">1</property>
    <property name="seekable">1</property>
    <property name="meta.media.width">512</property>
    <property name="meta.media.height">512</property>
    <property name="meta.media.sample_aspect_num">1</property>
    <property name="meta.media.sample_aspect_den">1</property>
    <property name="meta.media.frame_rate">60</property>
    <property name="first_frame">0</property>
    <property name="mlt_service">glaxnimate</property>
    <property name="creation_time">2023-11-29T03:37:51</property>
    <property name="shotcut:skipConvert">0</property>
    <property name="shotcut:caption">studying tirelessly.rawr</property>
    <property name="shotcut:hash">309d31beedff0095c7a488bed70ad1de</property>
    <property name="ignore_points">0</property>
    <property name="xml">was here</property>
    <property name="meta.shotcut.vui">1</property>
    <filter id="filter161" out="00:00:01.983">
      <property name="background">color:#00000000</property>
      <property name="mlt_service">affine</property>
      <property name="shotcut:filter">affineSizePosition</property>
      <property name="transition.fill">1</property>
      <property name="transition.distort">0</property>
      <property name="transition.rect">71.6718 535.093 541.945 541.945 1</property>
      <property name="transition.valign">middle</property>
      <property name="transition.halign">center</property>
      <property name="shotcut:animIn">00:00:00.000</property>
      <property name="shotcut:animOut">00:00:00.000</property>
      <property name="transition.threads">0</property>
    </filter>
  </producer>
  <producer id="producer32" in="00:00:00.000" out="00:00:01.983">
    <property name="length">00:00:02.000</property>
    <property name="eof">loop</property>
    <property name="resource">images/studying tirelessly.rawr</property>
    <property name="background">#00000000</property>
    <property name="aspect_ratio">1</property>
    <property name="progressive">1</property>
    <property name="seekable">1</property>
    <property name="meta.media.width">512</property>
    <property name="meta.media.height">512</property>
    <property name="meta.media.sample_aspect_num">1</property>
    <property name="meta.media.sample_aspect_den">1</property>
    <property name="meta.media.frame_rate">60</property>
    <property name="first_frame">0</property>
    <property name="mlt_service">glaxnimate</property>
    <property name="creation_time">2023-11-29T03:37:51</property>
    <property name="shotcut:skipConvert">0</property>
    <property name="shotcut:caption">studying tirelessly.rawr</property>
    <property name="shotcut:hash">309d31beedff0095c7a488bed70ad1de</property>
    <property name="ignore_points">0</property>
    <property name="xml">was here</property>
    <property name="meta.shotcut.vui">1</property>
    <filter id="filter162" out="00:00:01.983">
      <property name="background">color:#00000000</property>
      <property name="mlt_service">affine</property>
      <property name="shotcut:filter">affineSizePosition</property>
      <property name="transition.fill">1</property>
      <property name="transition.distort">0</property>
      <property name="transition.rect">71.6718 535.093 541.945 541.945 1</property>
      <property name="transition.valign">middle</property>
      <property name="transition.halign">center</property>
      <property name="shotcut:animIn">00:00:00.000</property>
      <property name="shotcut:animOut">00:00:00.000</property>
      <property name="transition.threads">0</property>
    </filter>
  </producer>
  <producer id="producer33" in="00:00:00.000" out="00:00:01.983">
    <property name="length">00:00:02.000</property>
    <property name="eof">loop</property>
    <property name="resource">images/studying tirelessly.rawr</property>
    <property name="background">#00000000</property>
    <property name="aspect_ratio">1</property>
    <property name="progressive">1</property>
    <property name="seekable">1</property>
    <property name="meta.media.width">512</property>
    <property name="meta.media.height">512</property>
    <property name="meta.media.sample_aspect_num">1</property>
    <property name="meta.media.sample_aspect_den">1</property>
    <property name="meta.media.frame_rate">60</property>
    <property name="first_frame">0</property>
    <property name="mlt_service">glaxnimate</property>
    <property name="creation_time">2023-11-29T03:37:51</property>
    <property name="shotcut:skipConvert">0</property>
    <property name="shotcut:caption">studying tirelessly.rawr</property>
    <property name="shotcut:hash">309d31beedff0095c7a488bed70ad1de</property>
    <property name="ignore_points">0</property>
    <property name="xml">was here</property>
    <property name="meta.shotcut.vui">1</property>
    <filter id="filter163" out="00:00:00.983">
      <property name="background">color:#00000000</property>
      <property name="mlt_service">affine</property>
      <property name="shotcut:filter">affineSizePosition</property>
      <property name="transition.fill">1</property>
      <property name="transition.distort">0</property>
      <property name="transition.rect">71.6718 535.093 541.945 541.945 1</property>
      <property name="transition.valign">middle</property>
      <property name="transition.halign">center</property>
      <property name="shotcut:animIn">00:00:00.000</property>
      <property name="shotcut:animOut">00:00:00.000</property>
      <property name="transition.threads">0</property>
    </filter>
    <filter id="filter164" out="00:00:00.983">
      <property name="start">1</property>
      <property name="level">1</property>
      <property name="mlt_service">brightness</property>
      <property name="shotcut:filter">fadeOutBrightness</property>
      <property name="alpha">00:00:00.800=1;00:00:00.983=0</property>
      <property name="shotcut:animOut">00:00:00.200</property>
    </filter>
  </producer>
  <producer id="producer34" in="00:00:00.000" out="03:59:59.983">
    <property name="length">04:00:00.000</property>
    <property name="eof">pause</property>
    <property name="resource">#00000000</property>
    <property name="aspect_ratio">1</property>
    <property name="mlt_service">color</property>
    <property name="mlt_image_format">rgba</property>
    <property name="shotcut:caption">transparent</property>
    <property name="xml">was here</property>
    <property name="seekable">1</property>
    <property name="meta.shotcut.vui">1</property>
    <filter id="filter165" out="00:00:16.983">
      <property name="argument">(Brinthaupt &amp; Chin, 2001)</property>
      <property name="geometry">0 210 1024 128 1</property>
      <property name="family">Times New Roman</property>
      <property name="size">1080</property>
      <property name="weight">400</property>
      <property name="style">normal</property>
      <property name="fgcolour">#ff000000</property>
      <property name="bgcolour">#00000000</property>
      <property name="olcolour">#aaffffff</property>
      <property name="pad">0</property>
      <property name="halign">center</property>
      <property name="valign">top</property>
      <property name="outline">3</property>
      <property name="opacity">1.0</property>
      <property name="mlt_service">dynamictext</property>
      <property name="shotcut:filter">dynamicText</property>
      <property name="shotcut:usePointSize">0</property>
      <property name="shotcut:pointSize">60</property>
    </filter>
    <filter id="filter166" out="00:00:16.983">
      <property name="start">1</property>
      <property name="level">1</property>
      <property name="mlt_service">brightness</property>
      <property name="shotcut:filter">fadeInBrightness</property>
      <property name="alpha">00:00:00.000=0;00:00:01.983=1</property>
      <property name="shotcut:animIn">00:00:02.000</property>
    </filter>
    <filter id="filter167" out="00:00:16.983">
      <property name="mlt_service">avfilter.gblur</property>
      <property name="shotcut:filter">blur_gaussian_av</property>
      <property name="av.sigma">00:00:13.000=0;00:00:14.000=10</property>
      <property name="av.sigmaV">00:00:13.000=0;00:00:14.000=10</property>
      <property name="av.planes">0xf</property>
    </filter>
    <filter id="filter168" out="00:00:16.983">
      <property name="start">1</property>
      <property name="level">1</property>
      <property name="mlt_service">brightness</property>
      <property name="shotcut:filter">fadeOutBrightness</property>
      <property name="alpha">00:00:16.000=1;00:00:16.983=0</property>
      <property name="shotcut:animOut">00:00:01.000</property>
    </filter>
  </producer>
  <producer id="producer35" in="00:00:00.000" out="00:00:03.983">
    <property name="length">00:00:04.000</property>
    <property name="eof">loop</property>
    <property name="resource">images/just stop cramming.rawr</property>
    <property name="background">#00000000</property>
    <property name="aspect_ratio">1</property>
    <property name="progressive">1</property>
    <property name="seekable">1</property>
    <property name="meta.media.width">1024</property>
    <property name="meta.media.height">512</property>
    <property name="meta.media.sample_aspect_num">1</property>
    <property name="meta.media.sample_aspect_den">1</property>
    <property name="meta.media.frame_rate">60</property>
    <property name="first_frame">0</property>
    <property name="mlt_service">glaxnimate</property>
    <property name="creation_time">2023-11-29T16:10:02</property>
    <property name="shotcut:hash">11e8c1d9d80f0207e1bcee128713b15a</property>
    <property name="shotcut:caption">just stop cramming.rawr</property>
    <property name="meta.shotcut.vui">1</property>
    <property name="xml">was here</property>
    <filter id="filter169" out="00:00:03.983">
      <property name="background">color:#00000000</property>
      <property name="mlt_service">affine</property>
      <property name="shotcut:filter">affineSizePosition</property>
      <property name="transition.fill">1</property>
      <property name="transition.distort">0</property>
      <property name="transition.rect">319.68 440 1280.64 640.32 1</property>
      <property name="transition.valign">middle</property>
      <property name="transition.halign">center</property>
      <property name="shotcut:animIn">00:00:00.000</property>
      <property name="shotcut:animOut">00:00:00.000</property>
      <property name="transition.threads">0</property>
      <property name="transition.fix_rotate_x">0</property>
    </filter>
    <filter id="filter170" out="00:00:03.983">
      <property name="start">1</property>
      <property name="level">1</property>
      <property name="mlt_service">brightness</property>
      <property name="shotcut:filter">fadeInBrightness</property>
      <property name="alpha">00:00:00.000=0;00:00:00.483=1</property>
      <property name="shotcut:animIn">00:00:00.500</property>
    </filter>
    <filter id="filter171" out="00:00:03.983">
      <property name="start">1</property>
      <property name="level">1</property>
      <property name="mlt_service">brightness</property>
      <property name="shotcut:filter">fadeOutBrightness</property>
      <property name="alpha">00:00:03.000=1;00:00:03.983=0</property>
      <property name="shotcut:animOut">00:00:01.000</property>
    </filter>
  </producer>
  <producer id="producer36" in="00:00:00.000" out="03:59:59.983">
    <property name="length">04:00:00.000</property>
    <property name="eof">pause</property>
    <property name="resource">#00000000</property>
    <property name="aspect_ratio">1</property>
    <property name="mlt_service">color</property>
    <property name="mlt_image_format">rgba</property>
    <property name="shotcut:caption">transparent</property>
    <property name="shotcut:detail">transparent</property>
    <property name="xml">was here</property>
    <property name="seekable">1</property>
    <property name="meta.shotcut.vui">1</property>
    <filter id="filter172" out="00:00:13.983">
      <property name="argument">Active</property>
      <property name="geometry">0 90 960 180 1</property>
      <property name="family">Times New Roman</property>
      <property name="size">1080</property>
      <property name="weight">700</property>
      <property name="style">normal</property>
      <property name="fgcolour">#ff00aa00</property>
      <property name="bgcolour">#00000000</property>
      <property name="olcolour">#aaffffff</property>
      <property name="pad">0</property>
      <property name="halign">left</property>
      <property name="valign">top</property>
      <property name="outline">16</property>
      <property name="opacity">1</property>
      <property name="mlt_service">dynamictext</property>
      <property name="shotcut:filter">dynamicText</property>
      <property name="shotcut:usePointSize">0</property>
      <property name="shotcut:animIn">00:00:00.000</property>
      <property name="shotcut:animOut">00:00:00.000</property>
    </filter>
    <filter id="filter173" out="00:00:13.983">
      <property name="argument">Passive</property>
      <property name="geometry">960 90 960 180 1</property>
      <property name="family">Times New Roman</property>
      <property name="size">1080</property>
      <property name="weight">700</property>
      <property name="style">normal</property>
      <property name="fgcolour">#ff00aaff</property>
      <property name="bgcolour">#00000000</property>
      <property name="olcolour">#aaffffff</property>
      <property name="pad">0</property>
      <property name="halign">left</property>
      <property name="valign">top</property>
      <property name="outline">16</property>
      <property name="opacity">1.0</property>
      <property name="mlt_service">dynamictext</property>
      <property name="shotcut:filter">dynamicText</property>
      <property name="shotcut:usePointSize">0</property>
      <property name="shotcut:animIn">00:00:00.000</property>
      <property name="shotcut:animOut">00:00:00.000</property>
    </filter>
    <filter id="filter174" out="00:00:13.983">
      <property name="rect">00:00:00.017=0 0 0 1080 1;00:00:03.000=0 0 1920 1080 1</property>
      <property name="circle">0</property>
      <property name="color">#00000000</property>
      <property name="radius">0</property>
      <property name="mlt_service">qtcrop</property>
      <property name="shotcut:filter">cropRectangle</property>
      <property name="disable">0</property>
    </filter>
    <filter id="filter175" out="00:00:13.983">
      <property name="start">1</property>
      <property name="level">1</property>
      <property name="mlt_service">brightness</property>
      <property name="shotcut:filter">fadeOutBrightness</property>
      <property name="alpha">00:00:13.500=1;00:00:13.983=0</property>
      <property name="shotcut:animOut">00:00:00.500</property>
    </filter>
  </producer>
  <chain id="chain45" out="00:00:19.983">
    <property name="length">00:00:20.000</property>
    <property name="eof">pause</property>
    <property name="resource">images/video (1080p).mp4</property>
    <property name="mlt_service">avformat-novalidate</property>
    <property name="meta.media.nb_streams">1</property>
    <property name="meta.media.0.stream.type">video</property>
    <property name="meta.media.0.stream.frame_rate">25</property>
    <property name="meta.media.0.stream.sample_aspect_ratio">0</property>
    <property name="meta.media.0.codec.width">1920</property>
    <property name="meta.media.0.codec.height">1080</property>
    <property name="meta.media.0.codec.rotate">0</property>
    <property name="meta.media.0.codec.pix_fmt">yuv420p</property>
    <property name="meta.media.0.codec.sample_aspect_ratio">0</property>
    <property name="meta.media.0.codec.colorspace">709</property>
    <property name="meta.media.0.codec.color_trc">1</property>
    <property name="meta.media.0.codec.name">h264</property>
    <property name="meta.media.0.codec.long_name">H.264 / AVC / MPEG-4 AVC / MPEG-4 part 10</property>
    <property name="meta.media.0.codec.bit_rate">5301963</property>
    <property name="meta.attr.0.stream.creation_time.markup">2019-10-28T08:53:39.000000Z</property>
    <property name="meta.attr.0.stream.handler_name.markup">L-SMASH Video Handler</property>
    <property name="meta.attr.0.stream.vendor_id.markup">[0][0][0][0]</property>
    <property name="meta.attr.0.stream.encoder.markup">AVC Coding</property>
    <property name="meta.attr.major_brand.markup">mp42</property>
    <property name="meta.attr.minor_version.markup">0</property>
    <property name="meta.attr.compatible_brands.markup">mp42mp41isomavc1</property>
    <property name="meta.attr.creation_time.markup">2019-10-28T08:53:39.000000Z</property>
    <property name="seekable">1</property>
    <property name="meta.media.sample_aspect_num">1</property>
    <property name="meta.media.sample_aspect_den">1</property>
    <property name="audio_index">-1</property>
    <property name="video_index">0</property>
    <property name="creation_time">2019-10-28T08:53:39</property>
    <property name="vstream">0</property>
    <property name="meta.media.frame_rate_num">25</property>
    <property name="meta.media.frame_rate_den">1</property>
    <property name="meta.media.colorspace">709</property>
    <property name="meta.media.color_trc">1</property>
    <property name="meta.media.has_b_frames">2</property>
    <property name="meta.media.width">1920</property>
    <property name="meta.media.height">1080</property>
    <property name="meta.media.color_range">mpeg</property>
    <property name="shotcut:hash">5d5f55eaec83a9c78ffee9aceba6c12d</property>
    <property name="meta.media.top_field_first">0</property>
    <property name="meta.media.progressive">1</property>
    <property name="shotcut:caption">video (1080p).mp4</property>
    <property name="xml">was here</property>
    <property name="meta.shotcut.vui">1</property>
    <filter id="filter176" in="00:00:05.500" out="00:00:10.983">
      <property name="version">0.4</property>
      <property name="mlt_service">frei0r.bluescreen0r</property>
      <property name="threads">0</property>
      <property name="0">#ff000f17</property>
      <property name="1">0.288</property>
      <property name="disable">0</property>
    </filter>
    <filter id="filter177" in="00:00:05.500" out="00:00:10.983">
      <property name="version">0.3</property>
      <property name="mlt_service">frei0r.saturat0r</property>
      <property name="threads">0</property>
      <property name="0">00:00:02.500=0.125;00:00:03.500=0;00:00:05.500=0.000362319</property>
    </filter>
    <filter id="filter178" in="00:00:05.500" out="00:00:10.983">
      <property name="argument">Video by Pressmaster</property>
      <property name="geometry">1280 720 640 360 1</property>
      <property name="family">Times New Roman</property>
      <property name="size">1080</property>
      <property name="weight">400</property>
      <property name="style">normal</property>
      <property name="fgcolour">#ff000000</property>
      <property name="bgcolour">#00000000</property>
      <property name="olcolour">#aaffffff</property>
      <property name="pad">0</property>
      <property name="halign">center</property>
      <property name="valign">bottom</property>
      <property name="outline">3</property>
      <property name="opacity">1.0</property>
      <property name="mlt_service">dynamictext</property>
      <property name="shotcut:filter">dynamicText</property>
      <property name="shotcut:usePointSize">0</property>
      <property name="shotcut:animIn">00:00:00.000</property>
      <property name="shotcut:animOut">00:00:00.000</property>
    </filter>
    <filter id="filter179" in="00:00:05.500" out="00:00:10.983">
      <property name="background">color:#00000000</property>
      <property name="mlt_service">affine</property>
      <property name="shotcut:filter">affineSizePosition</property>
      <property name="transition.fill">1</property>
      <property name="transition.distort">0</property>
      <property name="transition.rect">746.306 656.757 625.586 351.892 1</property>
      <property name="transition.valign">middle</property>
      <property name="transition.halign">center</property>
      <property name="shotcut:animIn">00:00:00.000</property>
      <property name="shotcut:animOut">00:00:00.000</property>
      <property name="transition.threads">0</property>
    </filter>
    <filter id="filter180" in="00:00:05.500" out="00:00:10.983">
      <property name="start">1</property>
      <property name="level">1</property>
      <property name="mlt_service">brightness</property>
      <property name="shotcut:filter">fadeInBrightness</property>
      <property name="alpha">00:00:00.000=0;00:00:00.483=1</property>
      <property name="shotcut:animIn">00:00:00.500</property>
    </filter>
    <filter id="filter181" in="00:00:05.500" out="00:00:10.983">
      <property name="start">1</property>
      <property name="level">1</property>
      <property name="mlt_service">brightness</property>
      <property name="shotcut:filter">fadeOutBrightness</property>
      <property name="alpha">00:00:05.000=1;00:00:05.483=0</property>
      <property name="shotcut:animOut">00:00:00.500</property>
    </filter>
  </chain>
  <producer id="producer37" in="00:00:00.000" out="03:59:59.983">
    <property name="length">04:00:00.000</property>
    <property name="eof">pause</property>
    <property name="resource">#00000000</property>
    <property name="aspect_ratio">1</property>
    <property name="mlt_service">color</property>
    <property name="mlt_image_format">rgba</property>
    <property name="shotcut:caption">transparent</property>
    <property name="shotcut:detail">transparent</property>
    <property name="xml">was here</property>
    <property name="seekable">1</property>
    <property name="meta.shotcut.vui">1</property>
    <filter id="filter182" out="00:00:17.983">
      <property name="argument">(Karpicke &amp; Roediger, 2008)</property>
      <property name="geometry">0 0 1280 180 1</property>
      <property name="family">Times New Roman</property>
      <property name="size">1080</property>
      <property name="weight">400</property>
      <property name="style">normal</property>
      <property name="fgcolour">#ff000000</property>
      <property name="bgcolour">#00000000</property>
      <property name="olcolour">#aaffffff</property>
      <property name="pad">0</property>
      <property name="halign">center</property>
      <property name="valign">top</property>
      <property name="outline">3</property>
      <property name="opacity">1</property>
      <property name="mlt_service">dynamictext</property>
      <property name="shotcut:filter">dynamicText</property>
      <property name="shotcut:usePointSize">0</property>
      <property name="shotcut:pointSize">60</property>
    </filter>
    <filter id="filter183" out="00:00:17.983">
      <property name="start">1</property>
      <property name="level">1</property>
      <property name="mlt_service">brightness</property>
      <property name="shotcut:filter">fadeInBrightness</property>
      <property name="alpha">00:00:00.000=0;00:00:01.983=1</property>
      <property name="shotcut:animIn">00:00:02.000</property>
    </filter>
  </producer>
  <producer id="producer38" in="00:00:00.000" out="03:59:59.983">
    <property name="length">04:00:00.000</property>
    <property name="eof">pause</property>
    <property name="resource">#00000000</property>
    <property name="aspect_ratio">1</property>
    <property name="mlt_service">color</property>
    <property name="mlt_image_format">rgba</property>
    <property name="shotcut:caption">transparent</property>
    <property name="shotcut:detail">transparent</property>
    <property name="xml">was here</property>
    <property name="seekable">1</property>
    <property name="meta.shotcut.vui">1</property>
    <filter id="filter184" in="00:00:18.000" out="00:00:31.983">
      <property name="argument">(Morehead, Rhodes, &amp; Delozier, 2016)</property>
      <property name="geometry">0 0 1600 180 1</property>
      <property name="family">Times New Roman</property>
      <property name="size">1080</property>
      <property name="weight">400</property>
      <property name="style">normal</property>
      <property name="fgcolour">#ff000000</property>
      <property name="bgcolour">#00000000</property>
      <property name="olcolour">#aaffffff</property>
      <property name="pad">0</property>
      <property name="halign">center</property>
      <property name="valign">top</property>
      <property name="outline">3</property>
      <property name="opacity">1</property>
      <property name="mlt_service">dynamictext</property>
      <property name="shotcut:filter">dynamicText</property>
      <property name="shotcut:usePointSize">0</property>
      <property name="shotcut:pointSize">60</property>
    </filter>
  </producer>
  <tractor id="tractor20" in="00:00:00.000" out="00:00:00.983">
    <property name="shotcut:transition">lumaMix</property>
    <track producer="producer37" in="00:00:17.000" out="00:00:17.983"/>
    <track producer="producer38" in="00:00:18.000" out="00:00:18.983"/>
    <transition id="transition40" out="00:00:00.983">
      <property name="a_track">0</property>
      <property name="b_track">1</property>
      <property name="factory">loader</property>
      <property name="mlt_service">luma</property>
      <property name="alpha_over">1</property>
      <property name="fix_background_alpha">1</property>
    </transition>
    <transition id="transition41" out="00:00:00.983">
      <property name="a_track">0</property>
      <property name="b_track">1</property>
      <property name="mlt_service">mix</property>
      <property name="start">-1</property>
      <property name="accepts_blanks">1</property>
    </transition>
  </tractor>
  <producer id="producer39" in="00:00:00.000" out="03:59:59.983">
    <property name="length">04:00:00.000</property>
    <property name="eof">pause</property>
    <property name="resource">#00000000</property>
    <property name="aspect_ratio">1</property>
    <property name="mlt_service">color</property>
    <property name="mlt_image_format">rgba</property>
    <property name="shotcut:caption">transparent</property>
    <property name="shotcut:detail">transparent</property>
    <property name="xml">was here</property>
    <property name="seekable">1</property>
    <property name="meta.shotcut.vui">1</property>
    <filter id="filter185" in="00:00:32.000" out="00:00:40.483">
      <property name="argument">(Walck-Shannon, Rowell, &amp; Frey, 2021)</property>
      <property name="geometry">0 0 1600 180 1</property>
      <property name="family">Times New Roman</property>
      <property name="size">1080</property>
      <property name="weight">400</property>
      <property name="style">normal</property>
      <property name="fgcolour">#ff000000</property>
      <property name="bgcolour">#00000000</property>
      <property name="olcolour">#aaffffff</property>
      <property name="pad">0</property>
      <property name="halign">center</property>
      <property name="valign">top</property>
      <property name="outline">3</property>
      <property name="opacity">1</property>
      <property name="mlt_service">dynamictext</property>
      <property name="shotcut:filter">dynamicText</property>
      <property name="shotcut:usePointSize">0</property>
      <property name="shotcut:pointSize">60</property>
    </filter>
  </producer>
  <tractor id="tractor21" in="00:00:00.000" out="00:00:00.983">
    <property name="shotcut:transition">lumaMix</property>
    <track producer="producer38" in="00:00:31.000" out="00:00:31.983"/>
    <track producer="producer39" in="00:00:32.000" out="00:00:32.983"/>
    <transition id="transition42" out="00:00:00.983">
      <property name="a_track">0</property>
      <property name="b_track">1</property>
      <property name="factory">loader</property>
      <property name="mlt_service">luma</property>
      <property name="alpha_over">1</property>
      <property name="fix_background_alpha">1</property>
    </transition>
    <transition id="transition43" out="00:00:00.983">
      <property name="a_track">0</property>
      <property name="b_track">1</property>
      <property name="mlt_service">mix</property>
      <property name="start">-1</property>
      <property name="accepts_blanks">1</property>
    </transition>
  </tractor>
  <producer id="producer40" in="00:00:00.000" out="03:59:59.983">
    <property name="length">04:00:00.000</property>
    <property name="eof">pause</property>
    <property name="resource">#00000000</property>
    <property name="aspect_ratio">1</property>
    <property name="mlt_service">color</property>
    <property name="mlt_image_format">rgba</property>
    <property name="shotcut:caption">transparent</property>
    <property name="shotcut:detail">transparent</property>
    <property name="xml">was here</property>
    <property name="seekable">1</property>
    <property name="meta.shotcut.vui">1</property>
    <filter id="filter186" in="00:00:10.000" out="00:00:13.983">
      <property name="argument">Active</property>
      <property name="geometry">0 90 960 180 1</property>
      <property name="family">Times New Roman</property>
      <property name="size">1080</property>
      <property name="weight">700</property>
      <property name="style">normal</property>
      <property name="fgcolour">#ff00aa00</property>
      <property name="bgcolour">#00000000</property>
      <property name="olcolour">#aaffffff</property>
      <property name="pad">0</property>
      <property name="halign">left</property>
      <property name="valign">top</property>
      <property name="outline">16</property>
      <property name="opacity">1</property>
      <property name="mlt_service">dynamictext</property>
      <property name="shotcut:filter">dynamicText</property>
      <property name="shotcut:usePointSize">0</property>
      <property name="shotcut:animIn">00:00:00.000</property>
      <property name="shotcut:animOut">00:00:00.000</property>
    </filter>
    <filter id="filter187" in="00:00:10.000" out="00:00:13.983">
      <property name="argument">Passive</property>
      <property name="geometry">960 90 960 180 1</property>
      <property name="family">Times New Roman</property>
      <property name="size">1080</property>
      <property name="weight">700</property>
      <property name="style">normal</property>
      <property name="fgcolour">#ff00aaff</property>
      <property name="bgcolour">#00000000</property>
      <property name="olcolour">#aaffffff</property>
      <property name="pad">0</property>
      <property name="halign">left</property>
      <property name="valign">top</property>
      <property name="outline">16</property>
      <property name="opacity">1.0</property>
      <property name="mlt_service">dynamictext</property>
      <property name="shotcut:filter">dynamicText</property>
      <property name="shotcut:usePointSize">0</property>
      <property name="shotcut:animIn">00:00:00.000</property>
      <property name="shotcut:animOut">00:00:00.000</property>
    </filter>
    <filter id="filter188" in="00:00:10.000" out="00:00:13.983">
      <property name="rect">00:00:00.000=0 0 1920 1080 1</property>
      <property name="circle">0</property>
      <property name="color">#00000000</property>
      <property name="radius">0</property>
      <property name="mlt_service">qtcrop</property>
      <property name="shotcut:filter">cropRectangle</property>
      <property name="disable">0</property>
    </filter>
    <filter id="filter189" in="00:00:10.000" out="00:00:13.983">
      <property name="version">0.3</property>
      <property name="mlt_service">frei0r.saturat0r</property>
      <property name="threads">0</property>
      <property name="0">0</property>
    </filter>
    <filter id="filter190" in="00:00:10.000" out="00:00:13.983">
      <property name="start">1</property>
      <property name="level">1</property>
      <property name="mlt_service">brightness</property>
      <property name="shotcut:filter">fadeInBrightness</property>
      <property name="alpha">00:00:00.000=0;00:00:00.983=1</property>
      <property name="shotcut:animIn">00:00:01.000</property>
    </filter>
    <filter id="filter191" in="00:00:10.000" out="00:00:13.983">
      <property name="start">1</property>
      <property name="level">1</property>
      <property name="mlt_service">brightness</property>
      <property name="shotcut:filter">fadeOutBrightness</property>
      <property name="alpha">00:00:03.500=1;00:00:03.983=0</property>
      <property name="shotcut:animOut">00:00:00.500</property>
    </filter>
  </producer>
  <producer id="producer41" in="00:00:00.000" out="03:59:59.983">
    <property name="length">04:00:00.000</property>
    <property name="eof">pause</property>
    <property name="resource">#00000000</property>
    <property name="aspect_ratio">1</property>
    <property name="mlt_service">color</property>
    <property name="mlt_image_format">rgba</property>
    <property name="shotcut:caption">transparent</property>
    <property name="shotcut:detail">transparent</property>
    <property name="xml">was here</property>
    <property name="seekable">1</property>
    <property name="meta.shotcut.vui">1</property>
    <filter id="filter192" out="00:00:30.983">
      <property name="argument">(Miyatsu, Nguyen, &amp; McDaniel, 2018)</property>
      <property name="geometry">0 0 1440 1080 1</property>
      <property name="family">Times New Roman</property>
      <property name="size">1080</property>
      <property name="weight">400</property>
      <property name="style">normal</property>
      <property name="fgcolour">#ff000000</property>
      <property name="bgcolour">#00000000</property>
      <property name="olcolour">#aaffffff</property>
      <property name="pad">0</property>
      <property name="halign">center</property>
      <property name="valign">top</property>
      <property name="outline">3</property>
      <property name="opacity">1.0</property>
      <property name="mlt_service">dynamictext</property>
      <property name="shotcut:filter">dynamicText</property>
      <property name="shotcut:usePointSize">0</property>
      <property name="shotcut:animIn">00:00:00.000</property>
      <property name="shotcut:animOut">00:00:00.000</property>
    </filter>
    <filter id="filter193" out="00:00:30.983">
      <property name="rect">00:00:00.000=0 0 0 1080 1;00:00:04.000=0 0 1920 1080 1</property>
      <property name="circle">0</property>
      <property name="color">#00000000</property>
      <property name="radius">0</property>
      <property name="mlt_service">qtcrop</property>
      <property name="shotcut:filter">cropRectangle</property>
      <property name="disable">0</property>
    </filter>
  </producer>
  <producer id="producer42" in="00:00:00.000" out="03:59:59.983">
    <property name="length">04:00:00.000</property>
    <property name="eof">pause</property>
    <property name="resource">#00000000</property>
    <property name="aspect_ratio">1</property>
    <property name="mlt_service">color</property>
    <property name="mlt_image_format">rgba</property>
    <property name="shotcut:caption">transparent</property>
    <property name="shotcut:detail">transparent</property>
    <property name="xml">was here</property>
    <property name="seekable">1</property>
    <property name="meta.shotcut.vui">1</property>
    <filter id="filter194" out="00:00:08.983">
      <property name="argument">Cram</property>
      <property name="geometry">00:00:01.000=1034 657 196 96 1;00:00:02.000=739 667 576 275 1</property>
      <property name="family">Times New Roman</property>
      <property name="size">1080</property>
      <property name="weight">400</property>
      <property name="style">normal</property>
      <property name="fgcolour">00:00:03.000=#ff000000;00:00:06.000=#ffaa0000</property>
      <property name="bgcolour">#00000000</property>
      <property name="olcolour">#aaffffff</property>
      <property name="pad">0</property>
      <property name="halign">left</property>
      <property name="valign">top</property>
      <property name="outline">3</property>
      <property name="opacity">1</property>
      <property name="mlt_service">dynamictext</property>
      <property name="shotcut:filter">dynamicText</property>
      <property name="shotcut:usePointSize">0</property>
      <property name="shotcut:animIn">00:00:00.000</property>
      <property name="shotcut:animOut">00:00:00.000</property>
      <property name="disable">0</property>
    </filter>
    <filter id="filter195" out="00:00:08.983">
      <property name="start">1</property>
      <property name="level">1</property>
      <property name="mlt_service">brightness</property>
      <property name="shotcut:filter">fadeOutBrightness</property>
      <property name="alpha">00:00:06.000=1;00:00:08.983=0</property>
      <property name="shotcut:animOut">00:00:03.000</property>
    </filter>
  </producer>
  <producer id="producer43" in="00:00:00.000" out="03:59:59.983">
    <property name="length">04:00:00.000</property>
    <property name="eof">pause</property>
    <property name="resource">#00000000</property>
    <property name="aspect_ratio">1</property>
    <property name="mlt_service">color</property>
    <property name="mlt_image_format">rgba</property>
    <property name="shotcut:caption">transparent</property>
    <property name="xml">was here</property>
    <property name="seekable">1</property>
    <property name="meta.shotcut.vui">1</property>
    <filter id="filter196" in="00:00:26.000" out="00:00:29.983">
      <property name="argument">cramming</property>
      <property name="geometry">0 0 1920 270 1</property>
      <property name="family">Times New Roman</property>
      <property name="size">1080</property>
      <property name="weight">700</property>
      <property name="style">normal</property>
      <property name="fgcolour">#ff000000</property>
      <property name="bgcolour">#00000000</property>
      <property name="olcolour">#aaffffff</property>
      <property name="pad">0</property>
      <property name="halign">center</property>
      <property name="valign">top</property>
      <property name="outline">16</property>
      <property name="opacity">1</property>
      <property name="mlt_service">dynamictext</property>
      <property name="shotcut:filter">dynamicText</property>
      <property name="shotcut:usePointSize">0</property>
      <property name="shotcut:pointSize">60</property>
    </filter>
    <filter id="filter197" in="00:00:26.000" out="00:00:29.983">
      <property name="version">0.3</property>
      <property name="mlt_service">frei0r.saturat0r</property>
      <property name="threads">0</property>
      <property name="0">0</property>
    </filter>
    <filter id="filter198" in="00:00:26.000" out="00:00:29.983">
      <property name="start">1</property>
      <property name="level">1</property>
      <property name="mlt_service">brightness</property>
      <property name="shotcut:filter">fadeInBrightness</property>
      <property name="alpha">00:00:00.000=0;00:00:00.983=1</property>
      <property name="shotcut:animIn">00:00:01.000</property>
    </filter>
    <filter id="filter199" in="00:00:26.000" out="00:00:29.983">
      <property name="start">1</property>
      <property name="level">1</property>
      <property name="mlt_service">brightness</property>
      <property name="shotcut:filter">fadeOutBrightness</property>
      <property name="alpha">00:00:03.500=1;00:00:03.983=0</property>
      <property name="shotcut:animOut">00:00:00.500</property>
    </filter>
  </producer>
  <producer id="producer44" in="00:00:00.000" out="03:59:59.983">
    <property name="length">04:00:00.000</property>
    <property name="eof">pause</property>
    <property name="resource">#00000000</property>
    <property name="aspect_ratio">1</property>
    <property name="mlt_service">color</property>
    <property name="mlt_image_format">rgba</property>
    <property name="shotcut:caption">transparent</property>
    <property name="shotcut:detail">transparent</property>
    <property name="xml">was here</property>
    <property name="seekable">1</property>
    <property name="meta.shotcut.vui">1</property>
    <filter id="filter200" out="00:00:23.983">
      <property name="argument">(Korstange, Craig, &amp; Duncan, 2019)</property>
      <property name="geometry">00:00:08.500=480 810 960 270 1;00:00:11.000=0 0 1280 180 1</property>
      <property name="family">Times New Roman</property>
      <property name="size">1080</property>
      <property name="weight">400</property>
      <property name="style">normal</property>
      <property name="fgcolour">00:00:08.500=#ffffffff;00:00:11.000=#ff000000</property>
      <property name="bgcolour">#00000000</property>
      <property name="olcolour">00:00:08.500=#aa000000;00:00:11.000=#aaffffff</property>
      <property name="pad">0</property>
      <property name="halign">left</property>
      <property name="valign">top</property>
      <property name="outline">3</property>
      <property name="opacity">1</property>
      <property name="mlt_service">dynamictext</property>
      <property name="shotcut:filter">dynamicText</property>
      <property name="shotcut:usePointSize">0</property>
      <property name="shotcut:pointSize">60</property>
    </filter>
    <filter id="filter201" out="00:00:23.983">
      <property name="start">1</property>
      <property name="level">1</property>
      <property name="mlt_service">brightness</property>
      <property name="shotcut:filter">fadeInBrightness</property>
      <property name="alpha">00:00:00.000=0;00:00:01.983=1</property>
      <property name="shotcut:animIn">00:00:02.000</property>
    </filter>
  </producer>
  <producer id="producer45" in="00:00:00.000" out="00:00:02.000">
    <property name="length">00:00:02.017</property>
    <property name="eof">loop</property>
    <property name="resource">images/studying tirelessly.rawr</property>
    <property name="background">#00000000</property>
    <property name="aspect_ratio">1</property>
    <property name="progressive">1</property>
    <property name="seekable">1</property>
    <property name="meta.media.width">512</property>
    <property name="meta.media.height">512</property>
    <property name="meta.media.sample_aspect_num">1</property>
    <property name="meta.media.sample_aspect_den">1</property>
    <property name="meta.media.frame_rate">60</property>
    <property name="first_frame">0</property>
    <property name="mlt_service">glaxnimate</property>
    <property name="creation_time">2023-11-29T03:37:51</property>
    <property name="shotcut:hash">309d31beedff0095c7a488bed70ad1de</property>
    <property name="shotcut:caption">studying tirelessly.rawr</property>
    <property name="meta.shotcut.vui">1</property>
    <property name="xml">was here</property>
    <filter id="filter202" out="00:00:01.967">
      <property name="background">color:#00000000</property>
      <property name="mlt_service">affine</property>
      <property name="shotcut:filter">affineSizePosition</property>
      <property name="transition.fill">1</property>
      <property name="transition.distort">0</property>
      <property name="transition.rect">105.228 536.396 540 540 1</property>
      <property name="transition.valign">middle</property>
      <property name="transition.halign">center</property>
      <property name="shotcut:animIn">00:00:00.000</property>
      <property name="shotcut:animOut">00:00:00.000</property>
      <property name="transition.threads">0</property>
    </filter>
    <filter id="filter203" out="00:00:01.967">
      <property name="start">1</property>
      <property name="level">1</property>
      <property name="mlt_service">brightness</property>
      <property name="shotcut:filter">fadeInBrightness</property>
      <property name="alpha">00:00:00.000=0;00:00:00.983=1</property>
      <property name="shotcut:animIn">00:00:01.000</property>
    </filter>
  </producer>
  <producer id="producer46" in="00:00:00.000" out="00:00:02.000">
    <property name="length">00:00:02.017</property>
    <property name="eof">loop</property>
    <property name="resource">images/studying tirelessly.rawr</property>
    <property name="background">#00000000</property>
    <property name="aspect_ratio">1</property>
    <property name="progressive">1</property>
    <property name="seekable">1</property>
    <property name="meta.media.width">512</property>
    <property name="meta.media.height">512</property>
    <property name="meta.media.sample_aspect_num">1</property>
    <property name="meta.media.sample_aspect_den">1</property>
    <property name="meta.media.frame_rate">60</property>
    <property name="first_frame">0</property>
    <property name="mlt_service">glaxnimate</property>
    <property name="creation_time">2023-11-29T03:37:51</property>
    <property name="shotcut:hash">309d31beedff0095c7a488bed70ad1de</property>
    <property name="shotcut:caption">studying tirelessly.rawr</property>
    <property name="meta.shotcut.vui">1</property>
    <property name="xml">was here</property>
    <filter id="filter204" out="00:00:01.983">
      <property name="background">color:#00000000</property>
      <property name="mlt_service">affine</property>
      <property name="shotcut:filter">affineSizePosition</property>
      <property name="transition.fill">1</property>
      <property name="transition.distort">0</property>
      <property name="transition.rect">105.228 536.396 540 540 1</property>
      <property name="transition.valign">middle</property>
      <property name="transition.halign">center</property>
      <property name="shotcut:animIn">00:00:00.000</property>
      <property name="shotcut:animOut">00:00:00.000</property>
      <property name="transition.threads">0</property>
    </filter>
  </producer>
  <producer id="producer47" in="00:00:00.000" out="00:00:01.983">
    <property name="length">00:00:02.000</property>
    <property name="eof">loop</property>
    <property name="resource">images/studying effectively.rawr</property>
    <property name="background">#00000000</property>
    <property name="aspect_ratio">1</property>
    <property name="progressive">1</property>
    <property name="seekable">1</property>
    <property name="meta.media.width">512</property>
    <property name="meta.media.height">512</property>
    <property name="meta.media.sample_aspect_num">1</property>
    <property name="meta.media.sample_aspect_den">1</property>
    <property name="meta.media.frame_rate">60</property>
    <property name="first_frame">0</property>
    <property name="mlt_service">glaxnimate</property>
    <property name="creation_time">2023-11-29T04:19:51</property>
    <property name="shotcut:hash">e6bcf97689aa6e34eff35f2c56b1bd77</property>
    <property name="shotcut:caption">studying effectively.rawr</property>
    <property name="meta.shotcut.vui">1</property>
    <property name="xml">was here</property>
    <filter id="filter205" out="00:00:01.983">
      <property name="background">color:#00000000</property>
      <property name="mlt_service">affine</property>
      <property name="shotcut:filter">affineSizePosition</property>
      <property name="transition.fill">1</property>
      <property name="transition.distort">0</property>
      <property name="transition.rect">105.228 536.396 540 540 1</property>
      <property name="transition.valign">middle</property>
      <property name="transition.halign">center</property>
      <property name="shotcut:animIn">00:00:00.000</property>
      <property name="shotcut:animOut">00:00:00.000</property>
      <property name="transition.threads">0</property>
    </filter>
  </producer>
  <tractor id="tractor22" in="00:00:00.000" out="00:00:01.967">
    <property name="shotcut:transition">lumaMix</property>
    <track producer="producer46" in="00:00:00.017" out="00:00:01.983"/>
    <track producer="producer47" in="00:00:00.000" out="00:00:01.967"/>
    <transition id="transition44" out="00:00:01.967">
      <property name="a_track">0</property>
      <property name="b_track">1</property>
      <property name="factory">loader</property>
      <property name="mlt_service">luma</property>
      <property name="alpha_over">1</property>
      <property name="fix_background_alpha">1</property>
    </transition>
    <transition id="transition45" out="00:00:01.967">
      <property name="a_track">0</property>
      <property name="b_track">1</property>
      <property name="mlt_service">mix</property>
      <property name="start">-1</property>
      <property name="accepts_blanks">1</property>
    </transition>
  </tractor>
  <producer id="producer48" in="00:00:00.000" out="00:00:01.983">
    <property name="length">00:00:02.000</property>
    <property name="eof">loop</property>
    <property name="resource">images/studying effectively.rawr</property>
    <property name="background">#00000000</property>
    <property name="aspect_ratio">1</property>
    <property name="progressive">1</property>
    <property name="seekable">1</property>
    <property name="meta.media.width">512</property>
    <property name="meta.media.height">512</property>
    <property name="meta.media.sample_aspect_num">1</property>
    <property name="meta.media.sample_aspect_den">1</property>
    <property name="meta.media.frame_rate">60</property>
    <property name="first_frame">0</property>
    <property name="mlt_service">glaxnimate</property>
    <property name="creation_time">2023-11-29T04:19:51</property>
    <property name="shotcut:hash">e6bcf97689aa6e34eff35f2c56b1bd77</property>
    <property name="shotcut:caption">studying effectively.rawr</property>
    <property name="meta.shotcut.vui">1</property>
    <property name="xml">was here</property>
    <filter id="filter206" out="00:00:01.983">
      <property name="background">color:#00000000</property>
      <property name="mlt_service">affine</property>
      <property name="shotcut:filter">affineSizePosition</property>
      <property name="transition.fill">1</property>
      <property name="transition.distort">0</property>
      <property name="transition.rect">105.228 536.396 540 540 1</property>
      <property name="transition.valign">middle</property>
      <property name="transition.halign">center</property>
      <property name="shotcut:animIn">00:00:00.000</property>
      <property name="shotcut:animOut">00:00:00.000</property>
      <property name="transition.threads">0</property>
    </filter>
  </producer>
  <producer id="producer49" in="00:00:00.000" out="00:00:01.983">
    <property name="length">00:00:02.000</property>
    <property name="eof">loop</property>
    <property name="resource">images/studying effectively.rawr</property>
    <property name="background">#00000000</property>
    <property name="aspect_ratio">1</property>
    <property name="progressive">1</property>
    <property name="seekable">1</property>
    <property name="meta.media.width">512</property>
    <property name="meta.media.height">512</property>
    <property name="meta.media.sample_aspect_num">1</property>
    <property name="meta.media.sample_aspect_den">1</property>
    <property name="meta.media.frame_rate">60</property>
    <property name="first_frame">0</property>
    <property name="mlt_service">glaxnimate</property>
    <property name="creation_time">2023-11-29T04:19:51</property>
    <property name="shotcut:hash">e6bcf97689aa6e34eff35f2c56b1bd77</property>
    <property name="shotcut:caption">studying effectively.rawr</property>
    <property name="meta.shotcut.vui">1</property>
    <property name="xml">was here</property>
    <filter id="filter207" out="00:00:01.983">
      <property name="background">color:#00000000</property>
      <property name="mlt_service">affine</property>
      <property name="shotcut:filter">affineSizePosition</property>
      <property name="transition.fill">1</property>
      <property name="transition.distort">0</property>
      <property name="transition.rect">105.228 536.396 540 540 1</property>
      <property name="transition.valign">middle</property>
      <property name="transition.halign">center</property>
      <property name="shotcut:animIn">00:00:00.000</property>
      <property name="shotcut:animOut">00:00:00.000</property>
      <property name="transition.threads">0</property>
    </filter>
  </producer>
  <producer id="producer50" in="00:00:00.000" out="00:00:01.983">
    <property name="length">00:00:02.000</property>
    <property name="eof">loop</property>
    <property name="resource">images/studying effectively.rawr</property>
    <property name="background">#00000000</property>
    <property name="aspect_ratio">1</property>
    <property name="progressive">1</property>
    <property name="seekable">1</property>
    <property name="meta.media.width">512</property>
    <property name="meta.media.height">512</property>
    <property name="meta.media.sample_aspect_num">1</property>
    <property name="meta.media.sample_aspect_den">1</property>
    <property name="meta.media.frame_rate">60</property>
    <property name="first_frame">0</property>
    <property name="mlt_service">glaxnimate</property>
    <property name="creation_time">2023-11-29T04:19:51</property>
    <property name="shotcut:hash">e6bcf97689aa6e34eff35f2c56b1bd77</property>
    <property name="shotcut:caption">studying effectively.rawr</property>
    <property name="meta.shotcut.vui">1</property>
    <property name="xml">was here</property>
    <filter id="filter208" out="00:00:01.983">
      <property name="background">color:#00000000</property>
      <property name="mlt_service">affine</property>
      <property name="shotcut:filter">affineSizePosition</property>
      <property name="transition.fill">1</property>
      <property name="transition.distort">0</property>
      <property name="transition.rect">105.228 536.396 540 540 1</property>
      <property name="transition.valign">middle</property>
      <property name="transition.halign">center</property>
      <property name="shotcut:animIn">00:00:00.000</property>
      <property name="shotcut:animOut">00:00:00.000</property>
      <property name="transition.threads">0</property>
    </filter>
  </producer>
  <producer id="producer51" in="00:00:00.000" out="00:00:01.983">
    <property name="length">00:00:02.000</property>
    <property name="eof">loop</property>
    <property name="resource">images/studying effectively.rawr</property>
    <property name="background">#00000000</property>
    <property name="aspect_ratio">1</property>
    <property name="progressive">1</property>
    <property name="seekable">1</property>
    <property name="meta.media.width">512</property>
    <property name="meta.media.height">512</property>
    <property name="meta.media.sample_aspect_num">1</property>
    <property name="meta.media.sample_aspect_den">1</property>
    <property name="meta.media.frame_rate">60</property>
    <property name="first_frame">0</property>
    <property name="mlt_service">glaxnimate</property>
    <property name="creation_time">2023-11-29T04:19:51</property>
    <property name="shotcut:hash">e6bcf97689aa6e34eff35f2c56b1bd77</property>
    <property name="shotcut:caption">studying effectively.rawr</property>
    <property name="meta.shotcut.vui">1</property>
    <property name="xml">was here</property>
    <filter id="filter209" out="00:00:01.983">
      <property name="background">color:#00000000</property>
      <property name="mlt_service">affine</property>
      <property name="shotcut:filter">affineSizePosition</property>
      <property name="transition.fill">1</property>
      <property name="transition.distort">0</property>
      <property name="transition.rect">105.228 536.396 540 540 1</property>
      <property name="transition.valign">middle</property>
      <property name="transition.halign">center</property>
      <property name="shotcut:animIn">00:00:00.000</property>
      <property name="shotcut:animOut">00:00:00.000</property>
      <property name="transition.threads">0</property>
    </filter>
  </producer>
  <producer id="producer52" in="00:00:00.000" out="00:00:01.983">
    <property name="length">00:00:02.000</property>
    <property name="eof">loop</property>
    <property name="resource">images/studying effectively.rawr</property>
    <property name="background">#00000000</property>
    <property name="aspect_ratio">1</property>
    <property name="progressive">1</property>
    <property name="seekable">1</property>
    <property name="meta.media.width">512</property>
    <property name="meta.media.height">512</property>
    <property name="meta.media.sample_aspect_num">1</property>
    <property name="meta.media.sample_aspect_den">1</property>
    <property name="meta.media.frame_rate">60</property>
    <property name="first_frame">0</property>
    <property name="mlt_service">glaxnimate</property>
    <property name="creation_time">2023-11-29T04:19:51</property>
    <property name="shotcut:hash">e6bcf97689aa6e34eff35f2c56b1bd77</property>
    <property name="shotcut:caption">studying effectively.rawr</property>
    <property name="meta.shotcut.vui">1</property>
    <property name="xml">was here</property>
    <filter id="filter210" out="00:00:01.483">
      <property name="background">color:#00000000</property>
      <property name="mlt_service">affine</property>
      <property name="shotcut:filter">affineSizePosition</property>
      <property name="transition.fill">1</property>
      <property name="transition.distort">0</property>
      <property name="transition.rect">105.228 536.396 540 540 1</property>
      <property name="transition.valign">middle</property>
      <property name="transition.halign">center</property>
      <property name="shotcut:animIn">00:00:00.000</property>
      <property name="shotcut:animOut">00:00:00.000</property>
      <property name="transition.threads">0</property>
    </filter>
  </producer>
  <playlist id="playlist4">
    <property name="shotcut:video">1</property>
    <property name="shotcut:name">V3</property>
    <property name="shotcut:lock">0</property>
    <blank length="00:00:21.000"/>
    <entry producer="producer20" in="00:00:00.000" out="00:00:01.983"/>
    <entry producer="producer21" in="00:00:00.000" out="00:00:01.983"/>
    <entry producer="producer22" in="00:00:00.000" out="00:00:01.983"/>
    <entry producer="producer23" in="00:00:00.000" out="00:00:01.983"/>
    <entry producer="producer24" in="00:00:00.000" out="00:00:01.983"/>
    <entry producer="producer25" in="00:00:00.000" out="00:00:01.983"/>
    <entry producer="producer26" in="00:00:00.000" out="00:00:01.983"/>
    <blank length="00:00:05.000"/>
    <entry producer="producer27" in="00:00:00.000" out="00:00:05.983"/>
    <blank length="00:00:21.500"/>
    <entry producer="producer28" in="00:00:00.000" out="00:00:30.483"/>
    <blank length="00:00:02.000"/>
    <entry producer="producer29" in="00:00:00.000" out="00:00:01.983"/>
    <entry producer="producer30" in="00:00:00.000" out="00:00:01.983"/>
    <entry producer="producer31" in="00:00:00.000" out="00:00:01.983"/>
    <entry producer="producer32" in="00:00:00.000" out="00:00:01.983"/>
    <entry producer="producer33" in="00:00:00.000" out="00:00:00.983"/>
    <blank length="00:00:02.000"/>
    <entry producer="producer34" in="00:00:00.000" out="00:00:16.983"/>
    <blank length="00:00:03.000"/>
    <entry producer="producer35" in="00:00:00.000" out="00:00:03.983"/>
    <blank length="00:00:17.500"/>
    <entry producer="producer36" in="00:00:00.000" out="00:00:13.983"/>
    <blank length="00:00:04.500"/>
    <entry producer="chain45" in="00:00:05.500" out="00:00:10.983"/>
    <blank length="00:00:07.500"/>
    <entry producer="producer37" in="00:00:00.000" out="00:00:16.983"/>
    <entry producer="tractor20" in="00:00:00.000" out="00:00:00.983"/>
    <entry producer="producer38" in="00:00:19.000" out="00:00:30.983"/>
    <entry producer="tractor21" in="00:00:00.000" out="00:00:00.983"/>
    <entry producer="producer39" in="00:00:33.000" out="00:00:40.483"/>
    <blank length="00:00:20.500"/>
    <entry producer="producer40" in="00:00:10.000" out="00:00:13.983"/>
    <blank length="00:00:03.000"/>
    <entry producer="producer41" in="00:00:00.000" out="00:00:30.983"/>
    <entry producer="producer42" in="00:00:00.000" out="00:00:08.983"/>
    <blank length="00:00:04.000"/>
    <entry producer="producer43" in="00:00:26.000" out="00:00:29.983"/>
    <entry producer="producer44" in="00:00:00.000" out="00:00:23.983"/>
    <blank length="00:00:12.500"/>
    <entry producer="producer45" in="00:00:00.000" out="00:00:01.967"/>
    <entry producer="producer46" in="00:00:00.000" out="00:00:00.000"/>
    <entry producer="tractor22" in="00:00:00.000" out="00:00:01.967"/>
    <entry producer="producer47" in="00:00:01.983" out="00:00:01.983"/>
    <entry producer="producer48" in="00:00:00.000" out="00:00:01.983"/>
    <entry producer="producer49" in="00:00:00.000" out="00:00:01.983"/>
    <entry producer="producer50" in="00:00:00.000" out="00:00:01.983"/>
    <entry producer="producer51" in="00:00:00.000" out="00:00:01.983"/>
    <entry producer="producer52" in="00:00:00.000" out="00:00:01.483"/>
  </playlist>
  <producer id="producer53" in="00:00:00.000" out="03:59:59.983">
    <property name="length">04:00:00.000</property>
    <property name="eof">pause</property>
    <property name="resource">images/F.png</property>
    <property name="ttl">1</property>
    <property name="aspect_ratio">1</property>
    <property name="meta.media.progressive">1</property>
    <property name="seekable">1</property>
    <property name="format">2</property>
    <property name="meta.media.width">266</property>
    <property name="meta.media.height">369</property>
    <property name="mlt_service">qimage</property>
    <property name="creation_time">2023-11-29T03:58:02</property>
    <property name="shotcut:hash">4c7788f56af136ad7ba4132e0aa114b7</property>
    <property name="shotcut:caption">F.png</property>
    <property name="meta.shotcut.vui">1</property>
    <property name="xml">was here</property>
    <filter id="filter211" out="00:00:11.983">
      <property name="background">color:#00000000</property>
      <property name="mlt_service">affine</property>
      <property name="shotcut:filter">affineSizePosition</property>
      <property name="transition.fill">1</property>
      <property name="transition.distort">0</property>
      <property name="transition.rect">483.171 185.478 194.634 270 1</property>
      <property name="transition.valign">middle</property>
      <property name="transition.halign">center</property>
      <property name="shotcut:animIn">00:00:00.000</property>
      <property name="shotcut:animOut">00:00:00.000</property>
      <property name="transition.threads">0</property>
      <property name="transition.fix_rotate_x">16.2284</property>
    </filter>
    <filter id="filter212" out="00:00:11.983">
      <property name="start">1</property>
      <property name="level">1</property>
      <property name="mlt_service">brightness</property>
      <property name="shotcut:filter">fadeInBrightness</property>
      <property name="alpha">00:00:00.000=0;00:00:01.983=1</property>
      <property name="shotcut:animIn">00:00:02.000</property>
    </filter>
    <filter id="filter213" out="00:00:11.983">
      <property name="start">1</property>
      <property name="level">1</property>
      <property name="mlt_service">brightness</property>
      <property name="shotcut:filter">fadeOutBrightness</property>
      <property name="alpha">00:00:11.000=1;00:00:11.983=0</property>
      <property name="shotcut:animOut">00:00:01.000</property>
    </filter>
  </producer>
  <chain id="chain46" out="00:00:11.983">
    <property name="length">00:00:12.000</property>
    <property name="eof">pause</property>
    <property name="resource">images/Cartoon_animated_clock.gif</property>
    <property name="mlt_service">avformat-novalidate</property>
    <property name="meta.media.nb_streams">1</property>
    <property name="meta.media.0.stream.type">video</property>
    <property name="meta.media.0.stream.frame_rate">1</property>
    <property name="meta.media.0.stream.sample_aspect_ratio">0</property>
    <property name="meta.media.0.codec.width">60</property>
    <property name="meta.media.0.codec.height">60</property>
    <property name="meta.media.0.codec.rotate">0</property>
    <property name="meta.media.0.codec.pix_fmt">bgra</property>
    <property name="meta.media.0.codec.sample_aspect_ratio">0</property>
    <property name="meta.media.0.codec.colorspace">601</property>
    <property name="meta.media.0.codec.name">gif</property>
    <property name="meta.media.0.codec.long_name">GIF (Graphics Interchange Format)</property>
    <property name="meta.media.0.codec.bit_rate">0</property>
    <property name="meta.attr.comment.markup">Created by Oblivion</property>
    <property name="seekable">1</property>
    <property name="meta.media.sample_aspect_num">1</property>
    <property name="meta.media.sample_aspect_den">1</property>
    <property name="audio_index">-1</property>
    <property name="video_index">0</property>
    <property name="creation_time">2023-11-29T05:50:40</property>
    <property name="vstream">0</property>
    <property name="meta.media.frame_rate_num">1</property>
    <property name="meta.media.frame_rate_den">1</property>
    <property name="meta.media.colorspace">601</property>
    <property name="meta.media.color_trc">2</property>
    <property name="meta.media.has_b_frames">0</property>
    <property name="meta.media.width">60</property>
    <property name="meta.media.height">60</property>
    <property name="meta.media.color_range">mpeg</property>
    <property name="shotcut:hash">3cf8093f80e742bc251b50f646669ccf</property>
    <property name="meta.media.top_field_first">0</property>
    <property name="meta.media.progressive">1</property>
    <property name="shotcut:caption">Cartoon_animated_clock.gif</property>
    <property name="meta.shotcut.vui">1</property>
    <property name="xml">was here</property>
    <filter id="filter214" out="00:00:11.983">
      <property name="version">0.4</property>
      <property name="mlt_service">frei0r.bluescreen0r</property>
      <property name="threads">0</property>
      <property name="0">#ffffffff</property>
      <property name="1">0.5</property>
      <property name="disable">0</property>
    </filter>
    <filter id="filter215" out="00:00:11.983">
      <property name="argument">Obsidian Soul, CC BY-SA 3.0,
via Wikimedia Commons</property>
      <property name="geometry">320 0 1280 1080 1</property>
      <property name="family">Times New Roman</property>
      <property name="size">540</property>
      <property name="weight">400</property>
      <property name="style">normal</property>
      <property name="fgcolour">#ff000000</property>
      <property name="bgcolour">#00000000</property>
      <property name="olcolour">#aaffffff</property>
      <property name="pad">0</property>
      <property name="halign">center</property>
      <property name="valign">middle</property>
      <property name="outline">3</property>
      <property name="opacity">1</property>
      <property name="mlt_service">dynamictext</property>
      <property name="shotcut:filter">dynamicText</property>
      <property name="shotcut:usePointSize">0</property>
      <property name="shotcut:animIn">00:00:00.000</property>
      <property name="shotcut:animOut">00:00:00.000</property>
    </filter>
    <filter id="filter216" out="00:00:11.983">
      <property name="background">color:#00000000</property>
      <property name="mlt_service">affine</property>
      <property name="shotcut:filter">affineSizePosition</property>
      <property name="transition.fill">1</property>
      <property name="transition.distort">0</property>
      <property name="transition.rect">00:00:00.000=1612.63 665.119 165.87 165.87 1;00:00:03.000=1121.16 488.191 293.652 293.652 1;00:00:04.000=911.468 455.427 293.652 293.652 1;00:00:06.000=911.294 455.253 294 294 1;00:00:09.000=420 0 1080 1080 1</property>
      <property name="transition.valign">middle</property>
      <property name="transition.halign">center</property>
      <property name="shotcut:animIn">00:00:00.000</property>
      <property name="shotcut:animOut">00:00:00.000</property>
      <property name="transition.threads">0</property>
      <property name="transition.fix_rotate_x">00:00:00.000=0;00:00:03.000=46.7501;00:00:04.000=23.2652;00:00:06.000=23.2;00:00:09.000=0</property>
    </filter>
    <filter id="filter217" out="00:00:11.983">
      <property name="start">1</property>
      <property name="level">1</property>
      <property name="mlt_service">brightness</property>
      <property name="shotcut:filter">fadeInBrightness</property>
      <property name="alpha">00:00:00.000=0;00:00:00.483=1</property>
      <property name="shotcut:animIn">00:00:00.500</property>
    </filter>
    <filter id="filter218" out="00:00:11.983">
      <property name="start">1</property>
      <property name="level">1</property>
      <property name="mlt_service">brightness</property>
      <property name="shotcut:filter">fadeOutBrightness</property>
      <property name="alpha">00:00:10.000=1;00:00:11.983=0</property>
      <property name="shotcut:animOut">00:00:02.000</property>
    </filter>
  </chain>
  <producer id="producer54" in="00:00:00.000" out="03:59:59.983">
    <property name="length">04:00:00.000</property>
    <property name="eof">pause</property>
    <property name="resource">#00000000</property>
    <property name="aspect_ratio">1</property>
    <property name="mlt_service">color</property>
    <property name="mlt_image_format">rgba</property>
    <property name="shotcut:caption">transparent</property>
    <property name="xml">was here</property>
    <property name="seekable">1</property>
    <property name="meta.shotcut.vui">1</property>
    <filter id="filter219" out="00:00:27.983">
      <property name="argument">definitions</property>
      <property name="geometry">30 240 1860 135 1</property>
      <property name="family">Times New Roman</property>
      <property name="size">1080</property>
      <property name="weight">400</property>
      <property name="style">normal</property>
      <property name="fgcolour">#ff000000</property>
      <property name="bgcolour">#00000000</property>
      <property name="olcolour">#aaffffff</property>
      <property name="pad">0</property>
      <property name="halign">left</property>
      <property name="valign">top</property>
      <property name="outline">16</property>
      <property name="opacity">1</property>
      <property name="mlt_service">dynamictext</property>
      <property name="shotcut:filter">dynamicText</property>
      <property name="shotcut:usePointSize">0</property>
      <property name="shotcut:pointSize">60</property>
    </filter>
    <filter id="filter220" out="00:00:27.983">
      <property name="argument">text</property>
      <property name="geometry">0 360 1920 720 1</property>
      <property name="family">Sans</property>
      <property name="size">48</property>
      <property name="weight">400</property>
      <property name="style">normal</property>
      <property name="fgcolour">0x000000ff</property>
      <property name="bgcolour">#00000000</property>
      <property name="olcolour">0x00000000</property>
      <property name="pad">0</property>
      <property name="halign">left</property>
      <property name="valign">top</property>
      <property name="outline">0</property>
      <property name="pixel_ratio">1</property>
      <property name="opacity">1</property>
      <property name="mlt_service">qtext</property>
      <property name="shotcut:filter">richText</property>
      <property name="html">&lt;!DOCTYPE HTML PUBLIC &quot;-//W3C//DTD HTML 4.0//EN&quot; &quot;http://www.w3.org/TR/REC-html40/strict.dtd&quot;&gt;
&lt;html&gt;&lt;head&gt;&lt;meta name=&quot;qrichtext&quot; content=&quot;1&quot; /&gt;&lt;meta charset=&quot;utf-8&quot; /&gt;&lt;style type=&quot;text/css&quot;&gt;
p, li { white-space: pre-wrap; }
hr { height: 1px; border-width: 0; }
li.unchecked::marker { content: &quot;\2610&quot;; }
li.checked::marker { content: &quot;\2612&quot;; }
&lt;/style&gt;&lt;/head&gt;&lt;body style=&quot; font-family:'Microsoft JhengHei UI'; font-size:9pt; font-weight:400; font-style:normal;&quot;&gt;
&lt;p style=&quot; margin-top:0px; margin-bottom:0px; margin-left:0px; margin-right:0px; -qt-block-indent:0; text-indent:0px;&quot;&gt;&lt;span style=&quot; font-family:'Times New Roman'; font-size:72pt; color:#000000;&quot;&gt; &lt;/span&gt;&lt;span style=&quot; font-family:'Times New Roman'; font-size:72pt; font-weight:700; color:#000000;&quot;&gt;·&lt;/span&gt;&lt;span style=&quot; font-family:'Times New Roman'; font-size:72pt; color:#000000;&quot;&gt; &lt;/span&gt;&lt;span style=&quot; font-family:'Times New Roman'; font-size:72pt; font-style:italic; color:#000000;&quot;&gt;heavy burst&lt;/span&gt;&lt;span style=&quot; font-family:'Times New Roman'; font-size:72pt; color:#000000;&quot;&gt; of studying before an exam&lt;/span&gt;&lt;/p&gt;
&lt;p style=&quot; margin-top:0px; margin-bottom:0px; margin-left:0px; margin-right:0px; -qt-block-indent:0; text-indent:0px;&quot;&gt;&lt;span style=&quot; font-family:'Times New Roman'; font-size:72pt; color:#000000;&quot;&gt;   followed a long period of &lt;/span&gt;&lt;span style=&quot; font-family:'Times New Roman'; font-size:72pt; font-style:italic; color:#000000;&quot;&gt;neglect&lt;/span&gt;&lt;span style=&quot; font-family:'Times New Roman'; font-size:72pt; color:#000000;&quot;&gt; (Soomer,&lt;/span&gt;&lt;/p&gt;
&lt;p style=&quot; margin-top:0px; margin-bottom:0px; margin-left:0px; margin-right:0px; -qt-block-indent:0; text-indent:0px;&quot;&gt;&lt;span style=&quot; font-family:'Times New Roman'; font-size:72pt; color:#000000;&quot;&gt;   1968)&lt;/span&gt;&lt;/p&gt;
&lt;p style=&quot; margin-top:0px; margin-bottom:0px; margin-left:0px; margin-right:0px; -qt-block-indent:0; text-indent:0px;&quot;&gt;&lt;span style=&quot; font-family:'Times New Roman'; font-size:72pt; color:#000000;&quot;&gt; &lt;/span&gt;&lt;span style=&quot; font-family:'Times New Roman'; font-size:72pt; font-weight:700; color:#000000;&quot;&gt;·&lt;/span&gt;&lt;span style=&quot; font-family:'Times New Roman'; font-size:72pt; color:#000000;&quot;&gt; &lt;/span&gt;&lt;span style=&quot; font-family:'Times New Roman'; font-size:72pt; font-style:italic; color:#000000;&quot;&gt;neglect&lt;/span&gt;&lt;span style=&quot; font-family:'Times New Roman'; font-size:72pt; color:#000000;&quot;&gt; studying for three or more weeks and&lt;/span&gt;&lt;/p&gt;
&lt;p style=&quot; margin-top:0px; margin-bottom:0px; margin-left:0px; margin-right:0px; -qt-block-indent:0; text-indent:0px;&quot;&gt;&lt;span style=&quot; font-family:'Times New Roman'; font-size:72pt; color:#000000;&quot;&gt;   then a &lt;/span&gt;&lt;span style=&quot; font-family:'Times New Roman'; font-size:72pt; font-style:italic; color:#000000;&quot;&gt;burst&lt;/span&gt;&lt;span style=&quot; font-family:'Times New Roman'; font-size:72pt; color:#000000;&quot;&gt; of study before the tests (Vacha &amp;amp;&lt;/span&gt;&lt;/p&gt;
&lt;p style=&quot; margin-top:0px; margin-bottom:0px; margin-left:0px; margin-right:0px; -qt-block-indent:0; text-indent:0px;&quot;&gt;&lt;span style=&quot; font-family:'Times New Roman'; font-size:72pt; color:#000000;&quot;&gt;   McBride, 1993)&lt;/span&gt;&lt;span style=&quot; font-family:'Times New Roman'; font-size:72pt; font-weight:600; color:#000000;&quot;&gt;&lt;br /&gt;&lt;/span&gt;&lt;/p&gt;&lt;/body&gt;&lt;/html&gt;</property>
      <property name="shotcut:animIn">00:00:00.000</property>
      <property name="shotcut:animOut">00:00:00.000</property>
    </filter>
    <filter id="filter221" out="00:00:27.983">
      <property name="rect">00:00:00.000=0 0 1920 380 1;00:00:03.000=0 0 1920 480 1;00:00:05.000=0 0 1920 480 1;00:00:07.000=0 0 1920 700 1;00:00:09.000=0 0 1920 700 1;00:00:12.000=0 0 1920 804 1;00:00:13.000=0 0 1920 804 1;00:00:16.000=0 0 1920 1080 1</property>
      <property name="circle">0</property>
      <property name="color">#00000000</property>
      <property name="radius">0</property>
      <property name="mlt_service">qtcrop</property>
      <property name="shotcut:filter">cropRectangle</property>
      <property name="disable">0</property>
    </filter>
    <filter id="filter222" out="00:00:27.983">
      <property name="start">1</property>
      <property name="level">1</property>
      <property name="mlt_service">brightness</property>
      <property name="shotcut:filter">fadeInBrightness</property>
      <property name="alpha">00:00:00.000=0;00:00:00.983=1</property>
      <property name="shotcut:animIn">00:00:01.000</property>
    </filter>
    <filter id="filter223" out="00:00:27.983">
      <property name="start">1</property>
      <property name="level">1</property>
      <property name="mlt_service">brightness</property>
      <property name="shotcut:filter">fadeOutBrightness</property>
      <property name="alpha">00:00:27.333=1;00:00:27.983=0</property>
      <property name="shotcut:animOut">00:00:00.667</property>
    </filter>
  </producer>
  <producer id="producer55" in="00:00:00.000" out="03:59:59.983">
    <property name="length">04:00:00.000</property>
    <property name="eof">pause</property>
    <property name="resource">images/A+.png</property>
    <property name="ttl">1</property>
    <property name="aspect_ratio">1</property>
    <property name="meta.media.progressive">1</property>
    <property name="seekable">1</property>
    <property name="format">2</property>
    <property name="meta.media.width">266</property>
    <property name="meta.media.height">369</property>
    <property name="mlt_service">qimage</property>
    <property name="creation_time">2023-11-29T04:04:17</property>
    <property name="shotcut:hash">cbabd7278ca17b73144b31bf5d9218f4</property>
    <property name="shotcut:caption">A+.png</property>
    <property name="xml">was here</property>
    <property name="meta.shotcut.vui">1</property>
    <filter id="filter224" out="00:00:06.983">
      <property name="background">color:#00000000</property>
      <property name="mlt_service">affine</property>
      <property name="shotcut:filter">affineSizePosition</property>
      <property name="transition.fill">1</property>
      <property name="transition.distort">0</property>
      <property name="transition.rect">00:00:00.000C=492.424 -336.742 194.634 270 1;00:00:01.000=453.439 665.279 194.634 270 1</property>
      <property name="transition.valign">middle</property>
      <property name="transition.halign">center</property>
      <property name="shotcut:animIn">00:00:00.000</property>
      <property name="shotcut:animOut">00:00:00.000</property>
      <property name="transition.threads">0</property>
      <property name="transition.fix_rotate_x">6.38195</property>
    </filter>
    <filter id="filter225" out="00:00:06.983">
      <property name="start">1</property>
      <property name="level">1</property>
      <property name="mlt_service">brightness</property>
      <property name="shotcut:filter">fadeOutBrightness</property>
      <property name="alpha">00:00:06.700=1;00:00:06.983=0</property>
      <property name="shotcut:animOut">00:00:00.300</property>
    </filter>
  </producer>
  <producer id="producer56" in="00:00:00.000" out="00:00:01.983">
    <property name="length">00:00:02.000</property>
    <property name="eof">loop</property>
    <property name="resource">images/depression.rawr</property>
    <property name="background">#00000000</property>
    <property name="aspect_ratio">1</property>
    <property name="progressive">1</property>
    <property name="seekable">1</property>
    <property name="meta.media.width">512</property>
    <property name="meta.media.height">512</property>
    <property name="meta.media.sample_aspect_num">1</property>
    <property name="meta.media.sample_aspect_den">1</property>
    <property name="meta.media.frame_rate">60</property>
    <property name="first_frame">0</property>
    <property name="mlt_service">glaxnimate</property>
    <property name="creation_time">2023-11-29T14:09:17</property>
    <property name="shotcut:hash">9ac122862e372e25913e9a8367a978fb</property>
    <property name="shotcut:caption">depression.rawr</property>
    <property name="meta.shotcut.vui">1</property>
    <property name="xml">was here</property>
    <filter id="filter226" out="00:00:01.983">
      <property name="background">color:#00000000</property>
      <property name="mlt_service">affine</property>
      <property name="shotcut:filter">affineSizePosition</property>
      <property name="transition.fill">1</property>
      <property name="transition.distort">0</property>
      <property name="transition.rect">127.95 247.259 540 540 1</property>
      <property name="transition.valign">middle</property>
      <property name="transition.halign">center</property>
      <property name="shotcut:animIn">00:00:00.000</property>
      <property name="shotcut:animOut">00:00:00.000</property>
      <property name="transition.threads">0</property>
    </filter>
    <filter id="filter227" out="00:00:01.983">
      <property name="start">1</property>
      <property name="level">1</property>
      <property name="mlt_service">brightness</property>
      <property name="shotcut:filter">fadeInBrightness</property>
      <property name="alpha">00:00:00.000=0;00:00:00.983=1</property>
      <property name="shotcut:animIn">00:00:01.000</property>
    </filter>
  </producer>
  <producer id="producer57" in="00:00:00.000" out="00:00:01.983">
    <property name="length">00:00:02.000</property>
    <property name="eof">loop</property>
    <property name="resource">images/depression.rawr</property>
    <property name="background">#00000000</property>
    <property name="aspect_ratio">1</property>
    <property name="progressive">1</property>
    <property name="seekable">1</property>
    <property name="meta.media.width">512</property>
    <property name="meta.media.height">512</property>
    <property name="meta.media.sample_aspect_num">1</property>
    <property name="meta.media.sample_aspect_den">1</property>
    <property name="meta.media.frame_rate">60</property>
    <property name="first_frame">0</property>
    <property name="mlt_service">glaxnimate</property>
    <property name="creation_time">2023-11-29T14:09:17</property>
    <property name="shotcut:hash">9ac122862e372e25913e9a8367a978fb</property>
    <property name="shotcut:caption">depression.rawr</property>
    <property name="meta.shotcut.vui">1</property>
    <property name="xml">was here</property>
    <filter id="filter228" out="00:00:01.983">
      <property name="background">color:#00000000</property>
      <property name="mlt_service">affine</property>
      <property name="shotcut:filter">affineSizePosition</property>
      <property name="transition.fill">1</property>
      <property name="transition.distort">0</property>
      <property name="transition.rect">127.95 247.259 540 540 1</property>
      <property name="transition.valign">middle</property>
      <property name="transition.halign">center</property>
      <property name="shotcut:animIn">00:00:00.000</property>
      <property name="shotcut:animOut">00:00:00.000</property>
      <property name="transition.threads">0</property>
    </filter>
  </producer>
  <producer id="producer58" in="00:00:00.000" out="00:00:01.983">
    <property name="length">00:00:02.000</property>
    <property name="eof">loop</property>
    <property name="resource">images/depression.rawr</property>
    <property name="background">#00000000</property>
    <property name="aspect_ratio">1</property>
    <property name="progressive">1</property>
    <property name="seekable">1</property>
    <property name="meta.media.width">512</property>
    <property name="meta.media.height">512</property>
    <property name="meta.media.sample_aspect_num">1</property>
    <property name="meta.media.sample_aspect_den">1</property>
    <property name="meta.media.frame_rate">60</property>
    <property name="first_frame">0</property>
    <property name="mlt_service">glaxnimate</property>
    <property name="creation_time">2023-11-29T14:09:17</property>
    <property name="shotcut:hash">9ac122862e372e25913e9a8367a978fb</property>
    <property name="shotcut:caption">depression.rawr</property>
    <property name="meta.shotcut.vui">1</property>
    <property name="xml">was here</property>
    <filter id="filter229" out="00:00:01.983">
      <property name="background">color:#00000000</property>
      <property name="mlt_service">affine</property>
      <property name="shotcut:filter">affineSizePosition</property>
      <property name="transition.fill">1</property>
      <property name="transition.distort">0</property>
      <property name="transition.rect">127.95 247.259 540 540 1</property>
      <property name="transition.valign">middle</property>
      <property name="transition.halign">center</property>
      <property name="shotcut:animIn">00:00:00.000</property>
      <property name="shotcut:animOut">00:00:00.000</property>
      <property name="transition.threads">0</property>
    </filter>
  </producer>
  <producer id="producer59" in="00:00:00.000" out="00:00:01.983">
    <property name="length">00:00:02.000</property>
    <property name="eof">loop</property>
    <property name="resource">images/depression.rawr</property>
    <property name="background">#00000000</property>
    <property name="aspect_ratio">1</property>
    <property name="progressive">1</property>
    <property name="seekable">1</property>
    <property name="meta.media.width">512</property>
    <property name="meta.media.height">512</property>
    <property name="meta.media.sample_aspect_num">1</property>
    <property name="meta.media.sample_aspect_den">1</property>
    <property name="meta.media.frame_rate">60</property>
    <property name="first_frame">0</property>
    <property name="mlt_service">glaxnimate</property>
    <property name="creation_time">2023-11-29T14:09:17</property>
    <property name="shotcut:hash">9ac122862e372e25913e9a8367a978fb</property>
    <property name="shotcut:caption">depression.rawr</property>
    <property name="meta.shotcut.vui">1</property>
    <property name="xml">was here</property>
    <filter id="filter230" out="00:00:01.983">
      <property name="background">color:#00000000</property>
      <property name="mlt_service">affine</property>
      <property name="shotcut:filter">affineSizePosition</property>
      <property name="transition.fill">1</property>
      <property name="transition.distort">0</property>
      <property name="transition.rect">127.95 247.259 540 540 1</property>
      <property name="transition.valign">middle</property>
      <property name="transition.halign">center</property>
      <property name="shotcut:animIn">00:00:00.000</property>
      <property name="shotcut:animOut">00:00:00.000</property>
      <property name="transition.threads">0</property>
    </filter>
    <filter id="filter231" out="00:00:01.983">
      <property name="mlt_service">avfilter.gblur</property>
      <property name="shotcut:filter">blur_gaussian_av</property>
      <property name="av.sigma">00:00:01.000=0;00:00:02.000=25</property>
      <property name="av.sigmaV">00:00:01.000=0;00:00:02.000=25</property>
      <property name="av.planes">0xf</property>
    </filter>
  </producer>
  <producer id="producer60" in="00:00:00.000" out="00:00:01.983">
    <property name="length">00:00:02.000</property>
    <property name="eof">loop</property>
    <property name="resource">images/depression.rawr</property>
    <property name="background">#00000000</property>
    <property name="aspect_ratio">1</property>
    <property name="progressive">1</property>
    <property name="seekable">1</property>
    <property name="meta.media.width">512</property>
    <property name="meta.media.height">512</property>
    <property name="meta.media.sample_aspect_num">1</property>
    <property name="meta.media.sample_aspect_den">1</property>
    <property name="meta.media.frame_rate">60</property>
    <property name="first_frame">0</property>
    <property name="mlt_service">glaxnimate</property>
    <property name="creation_time">2023-11-29T14:09:17</property>
    <property name="shotcut:hash">9ac122862e372e25913e9a8367a978fb</property>
    <property name="shotcut:caption">depression.rawr</property>
    <property name="meta.shotcut.vui">1</property>
    <property name="xml">was here</property>
    <filter id="filter232" out="00:00:01.983">
      <property name="background">color:#00000000</property>
      <property name="mlt_service">affine</property>
      <property name="shotcut:filter">affineSizePosition</property>
      <property name="transition.fill">1</property>
      <property name="transition.distort">0</property>
      <property name="transition.rect">127.95 247.259 540 540 1</property>
      <property name="transition.valign">middle</property>
      <property name="transition.halign">center</property>
      <property name="shotcut:animIn">00:00:00.000</property>
      <property name="shotcut:animOut">00:00:00.000</property>
      <property name="transition.threads">0</property>
    </filter>
    <filter id="filter233" out="00:00:01.983">
      <property name="mlt_service">avfilter.gblur</property>
      <property name="shotcut:filter">blur_gaussian_av</property>
      <property name="av.sigma">25</property>
      <property name="av.sigmaV">25</property>
      <property name="av.planes">0xf</property>
    </filter>
  </producer>
  <producer id="producer61" in="00:00:00.000" out="00:00:01.983">
    <property name="length">00:00:02.000</property>
    <property name="eof">loop</property>
    <property name="resource">images/depression.rawr</property>
    <property name="background">#00000000</property>
    <property name="aspect_ratio">1</property>
    <property name="progressive">1</property>
    <property name="seekable">1</property>
    <property name="meta.media.width">512</property>
    <property name="meta.media.height">512</property>
    <property name="meta.media.sample_aspect_num">1</property>
    <property name="meta.media.sample_aspect_den">1</property>
    <property name="meta.media.frame_rate">60</property>
    <property name="first_frame">0</property>
    <property name="mlt_service">glaxnimate</property>
    <property name="creation_time">2023-11-29T14:09:17</property>
    <property name="shotcut:hash">9ac122862e372e25913e9a8367a978fb</property>
    <property name="shotcut:caption">depression.rawr</property>
    <property name="meta.shotcut.vui">1</property>
    <property name="xml">was here</property>
    <filter id="filter234" out="00:00:00.983">
      <property name="background">color:#00000000</property>
      <property name="mlt_service">affine</property>
      <property name="shotcut:filter">affineSizePosition</property>
      <property name="transition.fill">1</property>
      <property name="transition.distort">0</property>
      <property name="transition.rect">127.95 247.259 540 540 1</property>
      <property name="transition.valign">middle</property>
      <property name="transition.halign">center</property>
      <property name="shotcut:animIn">00:00:00.000</property>
      <property name="shotcut:animOut">00:00:00.000</property>
      <property name="transition.threads">0</property>
    </filter>
    <filter id="filter235" out="00:00:00.983">
      <property name="mlt_service">avfilter.gblur</property>
      <property name="shotcut:filter">blur_gaussian_av</property>
      <property name="av.sigma">25</property>
      <property name="av.sigmaV">25</property>
      <property name="av.planes">0xf</property>
    </filter>
    <filter id="filter236" out="00:00:00.983">
      <property name="start">1</property>
      <property name="level">1</property>
      <property name="mlt_service">brightness</property>
      <property name="shotcut:filter">fadeOutBrightness</property>
      <property name="alpha">00:00:00.333=1;00:00:00.983=0</property>
      <property name="shotcut:animOut">00:00:00.667</property>
    </filter>
  </producer>
  <producer id="producer62" in="00:00:00.000" out="03:59:59.983">
    <property name="length">04:00:00.000</property>
    <property name="eof">pause</property>
    <property name="resource">#00000000</property>
    <property name="aspect_ratio">1</property>
    <property name="mlt_service">color</property>
    <property name="mlt_image_format">rgba</property>
    <property name="shotcut:caption">transparent</property>
    <property name="shotcut:detail">transparent</property>
    <property name="xml">was here</property>
    <property name="seekable">1</property>
    <property name="meta.shotcut.vui">1</property>
    <filter id="filter237" out="00:00:10.983">
      <property name="argument"> · Self-quiz
 · Explain concepts
 · Synthesize notes
 · Make diagrams
 · ...</property>
      <property name="geometry">0 270 900 640 1</property>
      <property name="family">Times New Roman</property>
      <property name="size">216</property>
      <property name="weight">400</property>
      <property name="style">normal</property>
      <property name="fgcolour">#ff000000</property>
      <property name="bgcolour">#00000000</property>
      <property name="olcolour">#aaffffff</property>
      <property name="pad">0</property>
      <property name="halign">left</property>
      <property name="valign">top</property>
      <property name="outline">3</property>
      <property name="opacity">1</property>
      <property name="mlt_service">dynamictext</property>
      <property name="shotcut:filter">dynamicText</property>
      <property name="shotcut:usePointSize">0</property>
      <property name="shotcut:animIn">00:00:00.000</property>
      <property name="shotcut:animOut">00:00:00.000</property>
    </filter>
    <filter id="filter238" out="00:00:10.983">
      <property name="argument"> · Read notes
 · Watch lecture
 · Rewrite notes
 · Read textbook
 · ...</property>
      <property name="geometry">960 270 900 640 1</property>
      <property name="family">Times New Roman</property>
      <property name="size">216</property>
      <property name="weight">400</property>
      <property name="style">normal</property>
      <property name="fgcolour">#ff000000</property>
      <property name="bgcolour">#00000000</property>
      <property name="olcolour">#aaffffff</property>
      <property name="pad">0</property>
      <property name="halign">left</property>
      <property name="valign">top</property>
      <property name="outline">3</property>
      <property name="opacity">1.0</property>
      <property name="mlt_service">dynamictext</property>
      <property name="shotcut:filter">dynamicText</property>
      <property name="shotcut:usePointSize">0</property>
      <property name="shotcut:animIn">00:00:00.000</property>
      <property name="shotcut:animOut">00:00:00.000</property>
    </filter>
    <filter id="filter239" out="00:00:10.983">
      <property name="rect">00:00:00.000=0 0 1920 300 1;00:00:05.000=0 0 1920 1080 1</property>
      <property name="circle">0</property>
      <property name="color">#00000000</property>
      <property name="radius">0</property>
      <property name="mlt_service">qtcrop</property>
      <property name="shotcut:filter">cropRectangle</property>
      <property name="disable">0</property>
    </filter>
    <filter id="filter240" out="00:00:10.983">
      <property name="start">1</property>
      <property name="level">1</property>
      <property name="mlt_service">brightness</property>
      <property name="shotcut:filter">fadeOutBrightness</property>
      <property name="alpha">00:00:10.500=1;00:00:10.983=0</property>
      <property name="shotcut:animOut">00:00:00.500</property>
    </filter>
  </producer>
  <producer id="producer132" in="00:00:00.000" out="03:59:59.983">
    <property name="length">04:00:00.000</property>
    <property name="eof">pause</property>
    <property name="resource">#00000000</property>
    <property name="aspect_ratio">1</property>
    <property name="mlt_service">color</property>
    <property name="mlt_image_format">rgba</property>
    <property name="shotcut:caption">transparent</property>
    <property name="shotcut:detail">transparent</property>
    <property name="xml">was here</property>
    <property name="seekable">1</property>
    <property name="meta.shotcut.vui">1</property>
    <filter id="filter357" out="00:00:03.983">
      <property name="argument">❓</property>
      <property name="geometry">0 0 1920 1080 1</property>
      <property name="family">Times New Roman</property>
      <property name="size">1080</property>
      <property name="weight">700</property>
      <property name="style">normal</property>
      <property name="fgcolour">#fff8312f</property>
      <property name="bgcolour">#00000000</property>
      <property name="olcolour">#ff000000</property>
      <property name="pad">0</property>
      <property name="halign">center</property>
      <property name="valign">top</property>
      <property name="outline">64</property>
      <property name="opacity">1</property>
      <property name="mlt_service">dynamictext</property>
      <property name="shotcut:filter">dynamicText</property>
      <property name="shotcut:usePointSize">0</property>
      <property name="shotcut:pointSize">60</property>
    </filter>
    <filter id="filter358" out="00:00:03.983">
      <property name="start">1</property>
      <property name="level">1</property>
      <property name="mlt_service">brightness</property>
      <property name="shotcut:filter">fadeInBrightness</property>
      <property name="alpha">00:00:00.000=0;00:00:00.983=1</property>
      <property name="shotcut:animIn">00:00:01.000</property>
    </filter>
    <filter id="filter241" out="00:00:03.983">
      <property name="start">1</property>
      <property name="level">1</property>
      <property name="mlt_service">brightness</property>
      <property name="shotcut:filter">fadeOutBrightness</property>
      <property name="alpha">00:00:03.000=1;00:00:03.983=0</property>
      <property name="shotcut:animOut">00:00:01.000</property>
    </filter>
  </producer>
  <producer id="producer63" in="00:00:00.000" out="00:00:02.983">
    <property name="length">00:00:03.000</property>
    <property name="eof">loop</property>
    <property name="resource">images/learning.rawr</property>
    <property name="background">#00000000</property>
    <property name="aspect_ratio">1</property>
    <property name="progressive">1</property>
    <property name="seekable">1</property>
    <property name="meta.media.width">512</property>
    <property name="meta.media.height">512</property>
    <property name="meta.media.sample_aspect_num">1</property>
    <property name="meta.media.sample_aspect_den">1</property>
    <property name="meta.media.frame_rate">60</property>
    <property name="first_frame">0</property>
    <property name="mlt_service">glaxnimate</property>
    <property name="creation_time">2023-11-30T01:37:01</property>
    <property name="shotcut:hash">b2c3732aefd923264e584f5d127f5e20</property>
    <property name="shotcut:caption">learning.rawr</property>
    <property name="xml">was here</property>
    <filter id="filter242" out="00:00:02.983">
      <property name="start">1</property>
      <property name="level">1</property>
      <property name="mlt_service">brightness</property>
      <property name="shotcut:filter">fadeInBrightness</property>
      <property name="alpha">00:00:00.000=0;00:00:00.983=1</property>
      <property name="shotcut:animIn">00:00:01.000</property>
    </filter>
  </producer>
  <producer id="producer64" in="00:00:00.000" out="00:00:02.983">
    <property name="length">00:00:03.000</property>
    <property name="eof">loop</property>
    <property name="resource">images/learning.rawr</property>
    <property name="background">#00000000</property>
    <property name="aspect_ratio">1</property>
    <property name="progressive">1</property>
    <property name="seekable">1</property>
    <property name="meta.media.width">512</property>
    <property name="meta.media.height">512</property>
    <property name="meta.media.sample_aspect_num">1</property>
    <property name="meta.media.sample_aspect_den">1</property>
    <property name="meta.media.frame_rate">60</property>
    <property name="first_frame">0</property>
    <property name="mlt_service">glaxnimate</property>
    <property name="creation_time">2023-11-30T01:37:01</property>
    <property name="shotcut:hash">b2c3732aefd923264e584f5d127f5e20</property>
    <property name="shotcut:caption">learning.rawr</property>
    <property name="xml">was here</property>
  </producer>
  <producer id="producer65" in="00:00:00.000" out="00:00:02.983">
    <property name="length">00:00:03.000</property>
    <property name="eof">loop</property>
    <property name="resource">images/learning.rawr</property>
    <property name="background">#00000000</property>
    <property name="aspect_ratio">1</property>
    <property name="progressive">1</property>
    <property name="seekable">1</property>
    <property name="meta.media.width">512</property>
    <property name="meta.media.height">512</property>
    <property name="meta.media.sample_aspect_num">1</property>
    <property name="meta.media.sample_aspect_den">1</property>
    <property name="meta.media.frame_rate">60</property>
    <property name="first_frame">0</property>
    <property name="mlt_service">glaxnimate</property>
    <property name="creation_time">2023-11-30T01:37:01</property>
    <property name="shotcut:hash">b2c3732aefd923264e584f5d127f5e20</property>
    <property name="shotcut:caption">learning.rawr</property>
    <property name="xml">was here</property>
    <property name="meta.shotcut.vui">1</property>
    <filter id="filter243" out="00:00:02.983">
      <property name="background">color:#00000000</property>
      <property name="mlt_service">affine</property>
      <property name="shotcut:filter">affineSizePosition</property>
      <property name="transition.fill">1</property>
      <property name="transition.distort">0</property>
      <property name="transition.rect">00:00:01.000=420 0 1080 1080 1;00:00:02.000=360 539.289 540.711 540.711 1</property>
      <property name="transition.valign">middle</property>
      <property name="transition.halign">center</property>
      <property name="shotcut:animIn">00:00:00.000</property>
      <property name="shotcut:animOut">00:00:00.000</property>
      <property name="transition.threads">0</property>
    </filter>
  </producer>
  <producer id="producer66" in="00:00:00.000" out="00:00:02.983">
    <property name="length">00:00:03.000</property>
    <property name="eof">loop</property>
    <property name="resource">images/learning.rawr</property>
    <property name="background">#00000000</property>
    <property name="aspect_ratio">1</property>
    <property name="progressive">1</property>
    <property name="seekable">1</property>
    <property name="meta.media.width">512</property>
    <property name="meta.media.height">512</property>
    <property name="meta.media.sample_aspect_num">1</property>
    <property name="meta.media.sample_aspect_den">1</property>
    <property name="meta.media.frame_rate">60</property>
    <property name="first_frame">0</property>
    <property name="mlt_service">glaxnimate</property>
    <property name="creation_time">2023-11-30T01:37:01</property>
    <property name="shotcut:hash">b2c3732aefd923264e584f5d127f5e20</property>
    <property name="shotcut:caption">learning.rawr</property>
    <property name="xml">was here</property>
    <property name="meta.shotcut.vui">1</property>
    <filter id="filter244" out="00:00:02.983">
      <property name="background">color:#00000000</property>
      <property name="mlt_service">affine</property>
      <property name="shotcut:filter">affineSizePosition</property>
      <property name="transition.fill">1</property>
      <property name="transition.distort">0</property>
      <property name="transition.rect">360 539.289 540.711 540.711 1</property>
      <property name="transition.valign">middle</property>
      <property name="transition.halign">center</property>
      <property name="shotcut:animIn">00:00:00.000</property>
      <property name="shotcut:animOut">00:00:00.000</property>
      <property name="transition.threads">0</property>
    </filter>
  </producer>
  <producer id="producer67" in="00:00:00.000" out="00:00:02.983">
    <property name="length">00:00:03.000</property>
    <property name="eof">loop</property>
    <property name="resource">images/learning.rawr</property>
    <property name="background">#00000000</property>
    <property name="aspect_ratio">1</property>
    <property name="progressive">1</property>
    <property name="seekable">1</property>
    <property name="meta.media.width">512</property>
    <property name="meta.media.height">512</property>
    <property name="meta.media.sample_aspect_num">1</property>
    <property name="meta.media.sample_aspect_den">1</property>
    <property name="meta.media.frame_rate">60</property>
    <property name="first_frame">0</property>
    <property name="mlt_service">glaxnimate</property>
    <property name="creation_time">2023-11-30T01:37:01</property>
    <property name="shotcut:hash">b2c3732aefd923264e584f5d127f5e20</property>
    <property name="shotcut:caption">learning.rawr</property>
    <property name="xml">was here</property>
    <property name="meta.shotcut.vui">1</property>
    <filter id="filter245" out="00:00:02.983">
      <property name="background">color:#00000000</property>
      <property name="mlt_service">affine</property>
      <property name="shotcut:filter">affineSizePosition</property>
      <property name="transition.fill">1</property>
      <property name="transition.distort">0</property>
      <property name="transition.rect">360 539.289 540.711 540.711 1</property>
      <property name="transition.valign">middle</property>
      <property name="transition.halign">center</property>
      <property name="shotcut:animIn">00:00:00.000</property>
      <property name="shotcut:animOut">00:00:00.000</property>
      <property name="transition.threads">0</property>
    </filter>
    <filter id="filter246" out="00:00:02.983">
      <property name="start">1</property>
      <property name="level">1</property>
      <property name="mlt_service">brightness</property>
      <property name="shotcut:filter">fadeOutBrightness</property>
      <property name="alpha">00:00:02.000=1;00:00:02.983=0</property>
      <property name="shotcut:animOut">00:00:01.000</property>
    </filter>
  </producer>
  <producer id="producer68" in="00:00:00.000" out="03:59:59.983">
    <property name="length">04:00:00.000</property>
    <property name="eof">pause</property>
    <property name="resource">images/half time start.png</property>
    <property name="ttl">1</property>
    <property name="aspect_ratio">1</property>
    <property name="meta.media.progressive">1</property>
    <property name="seekable">1</property>
    <property name="format">2</property>
    <property name="meta.media.width">512</property>
    <property name="meta.media.height">512</property>
    <property name="mlt_service">qimage</property>
    <property name="creation_time">2023-11-30T06:09:25</property>
    <property name="shotcut:hash">b89e801c68350bec08744becfc98a6b3</property>
    <property name="shotcut:caption">half time start.png</property>
    <property name="xml">was here</property>
    <property name="meta.shotcut.vui">1</property>
    <filter id="filter247" out="00:00:02.983">
      <property name="background">color:#00000000</property>
      <property name="mlt_service">affine</property>
      <property name="shotcut:filter">affineSizePosition</property>
      <property name="transition.fill">1</property>
      <property name="transition.distort">0</property>
      <property name="transition.rect">474.1 108 972 972 1</property>
      <property name="transition.valign">middle</property>
      <property name="transition.halign">center</property>
      <property name="shotcut:animIn">00:00:00.000</property>
      <property name="shotcut:animOut">00:00:00.000</property>
      <property name="transition.threads">0</property>
    </filter>
    <filter id="filter248" out="00:00:02.983">
      <property name="start">1</property>
      <property name="level">1</property>
      <property name="mlt_service">brightness</property>
      <property name="shotcut:filter">fadeInBrightness</property>
      <property name="alpha">00:00:00.000=0;00:00:00.983=1</property>
      <property name="shotcut:animIn">00:00:01.000</property>
    </filter>
  </producer>
  <producer id="producer69" in="00:00:00.000" out="00:00:02.983">
    <property name="length">00:00:03.000</property>
    <property name="eof">loop</property>
    <property name="resource">images/half time.rawr</property>
    <property name="background">#00000000</property>
    <property name="aspect_ratio">1</property>
    <property name="progressive">1</property>
    <property name="seekable">1</property>
    <property name="meta.media.width">512</property>
    <property name="meta.media.height">512</property>
    <property name="meta.media.sample_aspect_num">1</property>
    <property name="meta.media.sample_aspect_den">1</property>
    <property name="meta.media.frame_rate">60</property>
    <property name="first_frame">0</property>
    <property name="mlt_service">glaxnimate</property>
    <property name="creation_time">2023-11-30T06:06:49</property>
    <property name="shotcut:hash">4d33096f3ef2063764adf8754329d99c</property>
    <property name="shotcut:caption">half time.rawr</property>
    <property name="xml">was here</property>
    <property name="meta.shotcut.vui">1</property>
    <filter id="filter249" out="00:00:02.983">
      <property name="background">color:#00000000</property>
      <property name="mlt_service">affine</property>
      <property name="shotcut:filter">affineSizePosition</property>
      <property name="transition.fill">1</property>
      <property name="transition.distort">0</property>
      <property name="transition.rect">474.1 108 972 972 1</property>
      <property name="transition.valign">middle</property>
      <property name="transition.halign">center</property>
      <property name="shotcut:animIn">00:00:00.000</property>
      <property name="shotcut:animOut">00:00:00.000</property>
      <property name="transition.threads">0</property>
    </filter>
  </producer>
  <producer id="producer70" in="00:00:00.000" out="03:59:59.983">
    <property name="length">04:00:00.000</property>
    <property name="eof">pause</property>
    <property name="resource">images/half time end.png</property>
    <property name="ttl">1</property>
    <property name="aspect_ratio">1</property>
    <property name="meta.media.progressive">1</property>
    <property name="seekable">1</property>
    <property name="format">2</property>
    <property name="meta.media.width">512</property>
    <property name="meta.media.height">512</property>
    <property name="mlt_service">qimage</property>
    <property name="creation_time">2023-11-30T06:09:30</property>
    <property name="shotcut:hash">2288b112410214f3cd83cc083878b08b</property>
    <property name="shotcut:caption">half time end.png</property>
    <property name="meta.shotcut.vui">1</property>
    <property name="xml">was here</property>
    <filter id="filter250" out="00:00:01.483">
      <property name="background">color:#00000000</property>
      <property name="mlt_service">affine</property>
      <property name="shotcut:filter">affineSizePosition</property>
      <property name="transition.fill">1</property>
      <property name="transition.distort">0</property>
      <property name="transition.rect">474.1 108 972 972 1</property>
      <property name="transition.valign">middle</property>
      <property name="transition.halign">center</property>
      <property name="shotcut:animIn">00:00:00.000</property>
      <property name="shotcut:animOut">00:00:00.000</property>
      <property name="transition.threads">0</property>
    </filter>
  </producer>
  <producer id="producer71" in="00:00:00.000" out="03:59:59.983">
    <property name="length">04:00:00.000</property>
    <property name="eof">pause</property>
    <property name="resource">#00000000</property>
    <property name="aspect_ratio">1</property>
    <property name="mlt_service">color</property>
    <property name="mlt_image_format">rgba</property>
    <property name="shotcut:caption">transparent</property>
    <property name="shotcut:detail">transparent</property>
    <property name="xml">was here</property>
    <property name="seekable">1</property>
    <property name="meta.shotcut.vui">1</property>
    <filter id="filter251" in="00:00:07.000" out="00:00:10.983">
      <property name="argument"> · Self-quiz
 · Explain concepts
 · Synthesize notes
 · Make diagrams
 · ...</property>
      <property name="geometry">0 270 900 640 1</property>
      <property name="family">Times New Roman</property>
      <property name="size">216</property>
      <property name="weight">400</property>
      <property name="style">normal</property>
      <property name="fgcolour">#ff000000</property>
      <property name="bgcolour">#00000000</property>
      <property name="olcolour">#aaffffff</property>
      <property name="pad">0</property>
      <property name="halign">left</property>
      <property name="valign">top</property>
      <property name="outline">3</property>
      <property name="opacity">1</property>
      <property name="mlt_service">dynamictext</property>
      <property name="shotcut:filter">dynamicText</property>
      <property name="shotcut:usePointSize">0</property>
      <property name="shotcut:animIn">00:00:00.000</property>
      <property name="shotcut:animOut">00:00:00.000</property>
    </filter>
    <filter id="filter252" in="00:00:07.000" out="00:00:10.983">
      <property name="argument"> · Read notes
 · Watch lecture
 · Rewrite notes
 · Read textbook
 · ...</property>
      <property name="geometry">960 270 900 640 1</property>
      <property name="family">Times New Roman</property>
      <property name="size">216</property>
      <property name="weight">400</property>
      <property name="style">normal</property>
      <property name="fgcolour">#ff000000</property>
      <property name="bgcolour">#00000000</property>
      <property name="olcolour">#aaffffff</property>
      <property name="pad">0</property>
      <property name="halign">left</property>
      <property name="valign">top</property>
      <property name="outline">3</property>
      <property name="opacity">1.0</property>
      <property name="mlt_service">dynamictext</property>
      <property name="shotcut:filter">dynamicText</property>
      <property name="shotcut:usePointSize">0</property>
      <property name="shotcut:animIn">00:00:00.000</property>
      <property name="shotcut:animOut">00:00:00.000</property>
    </filter>
    <filter id="filter253" in="00:00:07.000" out="00:00:10.983">
      <property name="rect">00:00:00.000=0 0 1920 1080 1</property>
      <property name="circle">0</property>
      <property name="color">#00000000</property>
      <property name="radius">0</property>
      <property name="mlt_service">qtcrop</property>
      <property name="shotcut:filter">cropRectangle</property>
      <property name="disable">0</property>
    </filter>
    <filter id="filter254" in="00:00:07.000" out="00:00:10.983">
      <property name="version">0.3</property>
      <property name="mlt_service">frei0r.saturat0r</property>
      <property name="threads">0</property>
      <property name="0">0</property>
    </filter>
    <filter id="filter255" in="00:00:07.000" out="00:00:10.983">
      <property name="start">1</property>
      <property name="level">1</property>
      <property name="mlt_service">brightness</property>
      <property name="shotcut:filter">fadeInBrightness</property>
      <property name="alpha">00:00:00.000=0;00:00:00.983=1</property>
      <property name="shotcut:animIn">00:00:01.000</property>
    </filter>
    <filter id="filter256" in="00:00:07.000" out="00:00:10.983">
      <property name="start">1</property>
      <property name="level">1</property>
      <property name="mlt_service">brightness</property>
      <property name="shotcut:filter">fadeOutBrightness</property>
      <property name="alpha">00:00:03.500=1;00:00:03.983=0</property>
      <property name="shotcut:animOut">00:00:00.500</property>
    </filter>
  </producer>
  <producer id="producer72" in="00:00:00.000" out="03:59:59.983">
    <property name="length">04:00:00.000</property>
    <property name="eof">pause</property>
    <property name="resource">#00000000</property>
    <property name="aspect_ratio">1</property>
    <property name="mlt_service">color</property>
    <property name="mlt_image_format">rgba</property>
    <property name="shotcut:caption">transparent</property>
    <property name="shotcut:detail">transparent</property>
    <property name="xml">was here</property>
    <property name="seekable">1</property>
    <property name="meta.shotcut.vui">1</property>
    <filter id="filter257" out="00:00:26.983">
      <property name="argument">Effective</property>
      <property name="geometry">0 90 960 180 1</property>
      <property name="family">Times New Roman</property>
      <property name="size">1080</property>
      <property name="weight">700</property>
      <property name="style">normal</property>
      <property name="fgcolour">#ff00aa00</property>
      <property name="bgcolour">#00000000</property>
      <property name="olcolour">#aaffffff</property>
      <property name="pad">0</property>
      <property name="halign">left</property>
      <property name="valign">top</property>
      <property name="outline">16</property>
      <property name="opacity">1</property>
      <property name="mlt_service">dynamictext</property>
      <property name="shotcut:filter">dynamicText</property>
      <property name="shotcut:usePointSize">0</property>
      <property name="shotcut:animIn">00:00:00.000</property>
      <property name="shotcut:animOut">00:00:00.000</property>
    </filter>
    <filter id="filter258" out="00:00:26.983">
      <property name="argument">Ineffective</property>
      <property name="geometry">960 90 960 180 1</property>
      <property name="family">Times New Roman</property>
      <property name="size">1080</property>
      <property name="weight">700</property>
      <property name="style">normal</property>
      <property name="fgcolour">#ffaa0000</property>
      <property name="bgcolour">#00000000</property>
      <property name="olcolour">#aaffffff</property>
      <property name="pad">0</property>
      <property name="halign">left</property>
      <property name="valign">top</property>
      <property name="outline">16</property>
      <property name="opacity">1.0</property>
      <property name="mlt_service">dynamictext</property>
      <property name="shotcut:filter">dynamicText</property>
      <property name="shotcut:usePointSize">0</property>
      <property name="shotcut:animIn">00:00:00.000</property>
      <property name="shotcut:animOut">00:00:00.000</property>
    </filter>
    <filter id="filter259" out="00:00:26.983">
      <property name="rect">00:00:00.017=0 0 0 1080 1;00:00:02.000=0 0 1920 1080 1</property>
      <property name="circle">0</property>
      <property name="color">#00000000</property>
      <property name="radius">0</property>
      <property name="mlt_service">qtcrop</property>
      <property name="shotcut:filter">cropRectangle</property>
      <property name="disable">0</property>
    </filter>
  </producer>
  <producer id="producer73" in="00:00:00.000" out="03:59:59.983">
    <property name="length">04:00:00.000</property>
    <property name="eof">pause</property>
    <property name="resource">#00000000</property>
    <property name="aspect_ratio">1</property>
    <property name="mlt_service">color</property>
    <property name="mlt_image_format">rgba</property>
    <property name="shotcut:caption">transparent</property>
    <property name="shotcut:detail">transparent</property>
    <property name="xml">was here</property>
    <property name="seekable">1</property>
    <property name="meta.shotcut.vui">1</property>
    <filter id="filter260" out="00:00:06.983">
      <property name="argument">ming</property>
      <property name="geometry">1286 670 501 323 1</property>
      <property name="family">Times New Roman</property>
      <property name="size">1080</property>
      <property name="weight">400</property>
      <property name="style">normal</property>
      <property name="fgcolour">00:00:01.000=#ff000000;00:00:04.000=#ffaa0000</property>
      <property name="bgcolour">#00000000</property>
      <property name="olcolour">#aaffffff</property>
      <property name="pad">0</property>
      <property name="halign">left</property>
      <property name="valign">top</property>
      <property name="outline">3</property>
      <property name="opacity">1.0</property>
      <property name="mlt_service">dynamictext</property>
      <property name="shotcut:filter">dynamicText</property>
      <property name="shotcut:usePointSize">0</property>
      <property name="shotcut:animIn">00:00:00.000</property>
      <property name="shotcut:animOut">00:00:00.000</property>
      <property name="disable">0</property>
    </filter>
    <filter id="filter261" out="00:00:06.983">
      <property name="start">1</property>
      <property name="level">1</property>
      <property name="mlt_service">brightness</property>
      <property name="shotcut:filter">fadeInBrightness</property>
      <property name="alpha">00:00:00.000=0;00:00:00.983=1</property>
      <property name="shotcut:animIn">00:00:01.000</property>
    </filter>
    <filter id="filter262" out="00:00:06.983">
      <property name="start">1</property>
      <property name="level">1</property>
      <property name="mlt_service">brightness</property>
      <property name="shotcut:filter">fadeOutBrightness</property>
      <property name="alpha">00:00:04.000=1;00:00:06.983=0</property>
      <property name="shotcut:animOut">00:00:03.000</property>
    </filter>
  </producer>
  <producer id="producer74" in="00:00:00.000" out="03:59:59.983">
    <property name="length">04:00:00.000</property>
    <property name="eof">pause</property>
    <property name="resource">#00000000</property>
    <property name="aspect_ratio">1</property>
    <property name="mlt_service">color</property>
    <property name="mlt_image_format">rgba</property>
    <property name="shotcut:caption">transparent</property>
    <property name="xml">was here</property>
    <property name="seekable">1</property>
    <property name="meta.shotcut.vui">1</property>
    <filter id="filter263" in="00:00:24.000" out="00:00:27.983">
      <property name="argument">definitions</property>
      <property name="geometry">30 240 1860 135 1</property>
      <property name="family">Times New Roman</property>
      <property name="size">1080</property>
      <property name="weight">400</property>
      <property name="style">normal</property>
      <property name="fgcolour">#ff000000</property>
      <property name="bgcolour">#00000000</property>
      <property name="olcolour">#aaffffff</property>
      <property name="pad">0</property>
      <property name="halign">left</property>
      <property name="valign">top</property>
      <property name="outline">16</property>
      <property name="opacity">1</property>
      <property name="mlt_service">dynamictext</property>
      <property name="shotcut:filter">dynamicText</property>
      <property name="shotcut:usePointSize">0</property>
      <property name="shotcut:pointSize">60</property>
    </filter>
    <filter id="filter264" in="00:00:24.000" out="00:00:27.983">
      <property name="argument">text</property>
      <property name="geometry">0 360 1920 720 1</property>
      <property name="family">Sans</property>
      <property name="size">48</property>
      <property name="weight">400</property>
      <property name="style">normal</property>
      <property name="fgcolour">0x000000ff</property>
      <property name="bgcolour">#00000000</property>
      <property name="olcolour">0x00000000</property>
      <property name="pad">0</property>
      <property name="halign">left</property>
      <property name="valign">top</property>
      <property name="outline">0</property>
      <property name="pixel_ratio">1</property>
      <property name="opacity">1</property>
      <property name="mlt_service">qtext</property>
      <property name="shotcut:filter">richText</property>
      <property name="html">&lt;!DOCTYPE HTML PUBLIC &quot;-//W3C//DTD HTML 4.0//EN&quot; &quot;http://www.w3.org/TR/REC-html40/strict.dtd&quot;&gt;
&lt;html&gt;&lt;head&gt;&lt;meta name=&quot;qrichtext&quot; content=&quot;1&quot; /&gt;&lt;meta charset=&quot;utf-8&quot; /&gt;&lt;style type=&quot;text/css&quot;&gt;
p, li { white-space: pre-wrap; }
hr { height: 1px; border-width: 0; }
li.unchecked::marker { content: &quot;\2610&quot;; }
li.checked::marker { content: &quot;\2612&quot;; }
&lt;/style&gt;&lt;/head&gt;&lt;body style=&quot; font-family:'Microsoft JhengHei UI'; font-size:9pt; font-weight:400; font-style:normal;&quot;&gt;
&lt;p style=&quot; margin-top:0px; margin-bottom:0px; margin-left:0px; margin-right:0px; -qt-block-indent:0; text-indent:0px;&quot;&gt;&lt;span style=&quot; font-family:'Times New Roman'; font-size:72pt; color:#000000;&quot;&gt; &lt;/span&gt;&lt;span style=&quot; font-family:'Times New Roman'; font-size:72pt; font-weight:700; color:#000000;&quot;&gt;·&lt;/span&gt;&lt;span style=&quot; font-family:'Times New Roman'; font-size:72pt; color:#000000;&quot;&gt; &lt;/span&gt;&lt;span style=&quot; font-family:'Times New Roman'; font-size:72pt; font-style:italic; color:#000000;&quot;&gt;heavy burst&lt;/span&gt;&lt;span style=&quot; font-family:'Times New Roman'; font-size:72pt; color:#000000;&quot;&gt; of studying before an exam&lt;/span&gt;&lt;/p&gt;
&lt;p style=&quot; margin-top:0px; margin-bottom:0px; margin-left:0px; margin-right:0px; -qt-block-indent:0; text-indent:0px;&quot;&gt;&lt;span style=&quot; font-family:'Times New Roman'; font-size:72pt; color:#000000;&quot;&gt;   followed a long period of &lt;/span&gt;&lt;span style=&quot; font-family:'Times New Roman'; font-size:72pt; font-style:italic; color:#000000;&quot;&gt;neglect&lt;/span&gt;&lt;span style=&quot; font-family:'Times New Roman'; font-size:72pt; color:#000000;&quot;&gt; (Soomer,&lt;/span&gt;&lt;/p&gt;
&lt;p style=&quot; margin-top:0px; margin-bottom:0px; margin-left:0px; margin-right:0px; -qt-block-indent:0; text-indent:0px;&quot;&gt;&lt;span style=&quot; font-family:'Times New Roman'; font-size:72pt; color:#000000;&quot;&gt;   1968)&lt;/span&gt;&lt;/p&gt;
&lt;p style=&quot; margin-top:0px; margin-bottom:0px; margin-left:0px; margin-right:0px; -qt-block-indent:0; text-indent:0px;&quot;&gt;&lt;span style=&quot; font-family:'Times New Roman'; font-size:72pt; color:#000000;&quot;&gt; &lt;/span&gt;&lt;span style=&quot; font-family:'Times New Roman'; font-size:72pt; font-weight:700; color:#000000;&quot;&gt;·&lt;/span&gt;&lt;span style=&quot; font-family:'Times New Roman'; font-size:72pt; color:#000000;&quot;&gt; &lt;/span&gt;&lt;span style=&quot; font-family:'Times New Roman'; font-size:72pt; font-style:italic; color:#000000;&quot;&gt;neglect&lt;/span&gt;&lt;span style=&quot; font-family:'Times New Roman'; font-size:72pt; color:#000000;&quot;&gt; studying for three or more weeks and&lt;/span&gt;&lt;/p&gt;
&lt;p style=&quot; margin-top:0px; margin-bottom:0px; margin-left:0px; margin-right:0px; -qt-block-indent:0; text-indent:0px;&quot;&gt;&lt;span style=&quot; font-family:'Times New Roman'; font-size:72pt; color:#000000;&quot;&gt;   then a &lt;/span&gt;&lt;span style=&quot; font-family:'Times New Roman'; font-size:72pt; font-style:italic; color:#000000;&quot;&gt;burst&lt;/span&gt;&lt;span style=&quot; font-family:'Times New Roman'; font-size:72pt; color:#000000;&quot;&gt; of study before the tests (Vacha &amp;amp;&lt;/span&gt;&lt;/p&gt;
&lt;p style=&quot; margin-top:0px; margin-bottom:0px; margin-left:0px; margin-right:0px; -qt-block-indent:0; text-indent:0px;&quot;&gt;&lt;span style=&quot; font-family:'Times New Roman'; font-size:72pt; color:#000000;&quot;&gt;   McBride, 1993)&lt;/span&gt;&lt;span style=&quot; font-family:'Times New Roman'; font-size:72pt; font-weight:600; color:#000000;&quot;&gt;&lt;br /&gt;&lt;/span&gt;&lt;/p&gt;&lt;/body&gt;&lt;/html&gt;</property>
      <property name="shotcut:animIn">00:00:00.000</property>
      <property name="shotcut:animOut">00:00:00.000</property>
    </filter>
    <filter id="filter265" in="00:00:24.000" out="00:00:27.983">
      <property name="rect">00:00:00.000=0 0 1920 1080 1</property>
      <property name="circle">0</property>
      <property name="color">#00000000</property>
      <property name="radius">0</property>
      <property name="mlt_service">qtcrop</property>
      <property name="shotcut:filter">cropRectangle</property>
      <property name="disable">0</property>
    </filter>
    <filter id="filter266" in="00:00:24.000" out="00:00:27.983">
      <property name="version">0.3</property>
      <property name="mlt_service">frei0r.saturat0r</property>
      <property name="threads">0</property>
      <property name="0">0</property>
    </filter>
    <filter id="filter267" in="00:00:24.000" out="00:00:27.983">
      <property name="start">1</property>
      <property name="level">1</property>
      <property name="mlt_service">brightness</property>
      <property name="shotcut:filter">fadeInBrightness</property>
      <property name="alpha">00:00:00.000=0;00:00:00.983=1</property>
      <property name="shotcut:animIn">00:00:01.000</property>
    </filter>
    <filter id="filter268" in="00:00:24.000" out="00:00:27.983">
      <property name="start">1</property>
      <property name="level">1</property>
      <property name="mlt_service">brightness</property>
      <property name="shotcut:filter">fadeOutBrightness</property>
      <property name="alpha">00:00:03.500=1;00:00:03.983=0</property>
      <property name="shotcut:animOut">00:00:00.500</property>
    </filter>
  </producer>
  <producer id="producer75" in="00:00:00.000" out="03:59:59.983">
    <property name="length">04:00:00.000</property>
    <property name="eof">pause</property>
    <property name="resource">#00000000</property>
    <property name="aspect_ratio">1</property>
    <property name="mlt_service">color</property>
    <property name="mlt_image_format">rgba</property>
    <property name="shotcut:caption">transparent</property>
    <property name="shotcut:detail">transparent</property>
    <property name="xml">was here</property>
    <property name="seekable">1</property>
    <property name="meta.shotcut.vui">1</property>
    <filter id="filter269" out="00:00:08.983">
      <property name="argument">temporal
discounting</property>
      <property name="geometry">00:00:01.500=480 270 960 540 1;00:00:03.500=640 240 640 360 1</property>
      <property name="family">Times New Roman</property>
      <property name="size">540</property>
      <property name="weight">700</property>
      <property name="style">normal</property>
      <property name="fgcolour">00:00:01.500=#ffffffff;00:00:03.500=#ff000000</property>
      <property name="bgcolour">#00000000</property>
      <property name="olcolour">00:00:01.500=#aa000000;00:00:03.500=#aaffffff</property>
      <property name="pad">0</property>
      <property name="halign">center</property>
      <property name="valign">middle</property>
      <property name="outline">16</property>
      <property name="opacity">1</property>
      <property name="mlt_service">dynamictext</property>
      <property name="shotcut:filter">dynamicText</property>
      <property name="shotcut:usePointSize">0</property>
      <property name="shotcut:pointSize">60</property>
    </filter>
    <filter id="filter270" out="00:00:08.983">
      <property name="start">1</property>
      <property name="level">1</property>
      <property name="mlt_service">brightness</property>
      <property name="shotcut:filter">fadeOutBrightness</property>
      <property name="alpha">00:00:08.000=1;00:00:08.983=0</property>
      <property name="shotcut:animOut">00:00:01.000</property>
    </filter>
  </producer>
  <producer id="producer76" in="00:00:00.000" out="03:59:59.983">
    <property name="length">04:00:00.000</property>
    <property name="eof">pause</property>
    <property name="resource">images/F.png</property>
    <property name="ttl">1</property>
    <property name="aspect_ratio">1</property>
    <property name="meta.media.progressive">1</property>
    <property name="seekable">1</property>
    <property name="format">2</property>
    <property name="meta.media.width">266</property>
    <property name="meta.media.height">369</property>
    <property name="mlt_service">qimage</property>
    <property name="creation_time">2023-11-29T03:58:02</property>
    <property name="shotcut:hash">4c7788f56af136ad7ba4132e0aa114b7</property>
    <property name="shotcut:caption">F.png</property>
    <property name="meta.shotcut.vui">1</property>
    <property name="xml">was here</property>
    <filter id="filter271" out="00:00:13.483">
      <property name="background">color:#00000000</property>
      <property name="mlt_service">affine</property>
      <property name="shotcut:filter">affineSizePosition</property>
      <property name="transition.fill">1</property>
      <property name="transition.distort">0</property>
      <property name="transition.rect">473.104 671.396 194.634 270 1</property>
      <property name="transition.valign">middle</property>
      <property name="transition.halign">center</property>
      <property name="shotcut:animIn">00:00:00.000</property>
      <property name="shotcut:animOut">00:00:00.000</property>
      <property name="transition.threads">0</property>
      <property name="transition.fix_rotate_x">347.754</property>
    </filter>
  </producer>
  <playlist id="playlist5">
    <property name="shotcut:video">1</property>
    <property name="shotcut:name">V4</property>
    <property name="shotcut:lock">0</property>
    <blank length="00:00:23.000"/>
    <entry producer="producer53" in="00:00:00.000" out="00:00:11.983"/>
    <blank length="00:00:05.000"/>
    <entry producer="chain46" in="00:00:00.000" out="00:00:11.983"/>
    <blank length="00:00:18.000"/>
    <entry producer="producer54" in="00:00:00.000" out="00:00:27.983"/>
    <blank length="00:00:04.000"/>
    <entry producer="producer55" in="00:00:00.000" out="00:00:06.983"/>
    <blank length="00:00:08.000"/>
    <entry producer="producer56" in="00:00:00.000" out="00:00:01.983"/>
    <entry producer="producer57" in="00:00:00.000" out="00:00:01.983"/>
    <entry producer="producer58" in="00:00:00.000" out="00:00:01.983"/>
    <entry producer="producer59" in="00:00:00.000" out="00:00:01.983"/>
    <entry producer="producer60" in="00:00:00.000" out="00:00:01.983"/>
    <entry producer="producer61" in="00:00:00.000" out="00:00:00.983"/>
    <blank length="00:00:27.500"/>
    <entry producer="producer62" in="00:00:00.000" out="00:00:10.983"/>
    <blank length="00:00:14.500"/>
    <entry producer="producer132" in="00:00:00.000" out="00:00:03.983"/>
    <blank length="00:00:01.000"/>
    <entry producer="producer63" in="00:00:00.000" out="00:00:02.983"/>
    <entry producer="producer64" in="00:00:00.000" out="00:00:02.983"/>
    <entry producer="producer65" in="00:00:00.000" out="00:00:02.983"/>
    <entry producer="producer66" in="00:00:00.000" out="00:00:02.983"/>
    <entry producer="producer67" in="00:00:00.000" out="00:00:02.983"/>
    <blank length="00:00:14.000"/>
    <entry producer="producer68" in="00:00:00.000" out="00:00:02.983"/>
    <entry producer="producer69" in="00:00:00.000" out="00:00:02.983"/>
    <entry producer="producer70" in="00:00:00.000" out="00:00:01.483"/>
    <blank length="00:00:20.500"/>
    <entry producer="producer71" in="00:00:07.000" out="00:00:10.983"/>
    <blank length="00:00:07.000"/>
    <entry producer="producer72" in="00:00:00.000" out="00:00:26.983"/>
    <blank length="00:00:02.000"/>
    <entry producer="producer73" in="00:00:00.000" out="00:00:06.983"/>
    <blank length="00:00:04.000"/>
    <entry producer="producer74" in="00:00:24.000" out="00:00:27.983"/>
    <blank length="00:00:07.000"/>
    <entry producer="producer75" in="00:00:00.000" out="00:00:08.983"/>
    <blank length="00:00:20.500"/>
    <entry producer="producer76" in="00:00:00.000" out="00:00:13.483"/>
  </playlist>
  <producer id="producer77" in="00:00:00.000" out="03:59:59.983">
    <property name="length">04:00:00.000</property>
    <property name="eof">pause</property>
    <property name="resource">images/r2g arrow.png</property>
    <property name="ttl">1</property>
    <property name="aspect_ratio">1</property>
    <property name="meta.media.progressive">1</property>
    <property name="seekable">1</property>
    <property name="format">2</property>
    <property name="meta.media.width">367</property>
    <property name="meta.media.height">689</property>
    <property name="mlt_service">qimage</property>
    <property name="creation_time">2023-11-29T04:35:22</property>
    <property name="shotcut:hash">87af80ef8505c25d7f322d95df000e66</property>
    <property name="shotcut:caption">r2g arrow.png</property>
    <property name="meta.shotcut.vui">1</property>
    <property name="xml">was here</property>
    <filter id="filter272" out="00:00:05.983">
      <property name="background">color:#00000000</property>
      <property name="mlt_service">affine</property>
      <property name="shotcut:filter">affineSizePosition</property>
      <property name="transition.fill">1</property>
      <property name="transition.distort">0</property>
      <property name="transition.rect">699.443 271.945 341.409 640.956 1</property>
      <property name="transition.valign">middle</property>
      <property name="transition.halign">center</property>
      <property name="shotcut:animIn">00:00:00.000</property>
      <property name="shotcut:animOut">00:00:00.000</property>
      <property name="transition.threads">0</property>
      <property name="transition.fix_rotate_x">0</property>
    </filter>
    <filter id="filter273" out="00:00:05.983">
      <property name="rect">00:00:00.000=649 167 478 26 1;00:00:02.000=649 167 478 805 1</property>
      <property name="circle">0</property>
      <property name="color">#00000000</property>
      <property name="radius">0</property>
      <property name="mlt_service">qtcrop</property>
      <property name="shotcut:filter">cropRectangle</property>
      <property name="disable">0</property>
    </filter>
    <filter id="filter274" out="00:00:05.983">
      <property name="start">1</property>
      <property name="level">1</property>
      <property name="mlt_service">brightness</property>
      <property name="shotcut:filter">fadeOutBrightness</property>
      <property name="alpha">00:00:05.333=1;00:00:05.983=0</property>
      <property name="shotcut:animOut">00:00:00.667</property>
    </filter>
  </producer>
  <producer id="producer78" in="00:00:00.000" out="03:59:59.983">
    <property name="length">04:00:00.000</property>
    <property name="eof">pause</property>
    <property name="resource">#00000000</property>
    <property name="aspect_ratio">1</property>
    <property name="mlt_service">color</property>
    <property name="mlt_image_format">rgba</property>
    <property name="shotcut:caption">transparent</property>
    <property name="xml">was here</property>
    <property name="seekable">1</property>
    <property name="meta.shotcut.vui">1</property>
    <filter id="filter275" out="00:00:14.983">
      <property name="argument">procrastination</property>
      <property name="geometry">00:00:02.000=240 0 1440 360 1;00:00:04.000=0 360 1920 360 1;00:00:06.000=0 360 1920 360 1;00:00:09.000=480 0 960 180 1;00:00:13.500=480 0 960 180 1</property>
      <property name="family">Times New Roman</property>
      <property name="size">1080</property>
      <property name="weight">700</property>
      <property name="style">normal</property>
      <property name="fgcolour">#ff000000</property>
      <property name="bgcolour">#00000000</property>
      <property name="olcolour">#aaffffff</property>
      <property name="pad">0</property>
      <property name="halign">center</property>
      <property name="valign">middle</property>
      <property name="outline">16</property>
      <property name="opacity">1</property>
      <property name="mlt_service">dynamictext</property>
      <property name="shotcut:filter">dynamicText</property>
      <property name="shotcut:usePointSize">0</property>
      <property name="shotcut:pointSize">60</property>
    </filter>
    <filter id="filter276" out="00:00:14.983">
      <property name="start">1</property>
      <property name="level">1</property>
      <property name="mlt_service">brightness</property>
      <property name="shotcut:filter">fadeOutBrightness</property>
      <property name="alpha">00:00:14.000=1;00:00:14.983=0</property>
      <property name="shotcut:animOut">00:00:01.000</property>
    </filter>
  </producer>
  <producer id="producer79" in="00:00:00.000" out="03:59:59.983">
    <property name="length">04:00:00.000</property>
    <property name="eof">pause</property>
    <property name="resource">#00000000</property>
    <property name="aspect_ratio">1</property>
    <property name="mlt_service">color</property>
    <property name="mlt_image_format">rgba</property>
    <property name="shotcut:caption">transparent</property>
    <property name="xml">was here</property>
    <property name="seekable">1</property>
    <property name="meta.shotcut.vui">1</property>
    <filter id="filter277" out="00:00:08.983">
      <property name="argument">text</property>
      <property name="geometry">0 360 1920 720 1</property>
      <property name="family">Sans</property>
      <property name="size">48</property>
      <property name="weight">400</property>
      <property name="style">normal</property>
      <property name="fgcolour">0x000000ff</property>
      <property name="bgcolour">#00000000</property>
      <property name="olcolour">0x00000000</property>
      <property name="pad">0</property>
      <property name="halign">left</property>
      <property name="valign">top</property>
      <property name="outline">0</property>
      <property name="pixel_ratio">1</property>
      <property name="opacity">1</property>
      <property name="mlt_service">qtext</property>
      <property name="shotcut:filter">richText</property>
      <property name="html">&lt;!DOCTYPE HTML PUBLIC &quot;-//W3C//DTD HTML 4.0//EN&quot; &quot;http://www.w3.org/TR/REC-html40/strict.dtd&quot;&gt;
&lt;html&gt;&lt;head&gt;&lt;meta name=&quot;qrichtext&quot; content=&quot;1&quot; /&gt;&lt;meta charset=&quot;utf-8&quot; /&gt;&lt;style type=&quot;text/css&quot;&gt;
p, li { white-space: pre-wrap; }
hr { height: 1px; border-width: 0; }
li.unchecked::marker { content: &quot;\2610&quot;; }
li.checked::marker { content: &quot;\2612&quot;; }
&lt;/style&gt;&lt;/head&gt;&lt;body style=&quot; font-family:'Microsoft JhengHei UI'; font-size:9pt; font-weight:400; font-style:normal;&quot;&gt;
&lt;p style=&quot; margin-top:0px; margin-bottom:0px; margin-left:0px; margin-right:0px; -qt-block-indent:0; text-indent:0px;&quot;&gt;&lt;span style=&quot; font-family:'Times New Roman'; font-size:72pt; color:#000000;&quot;&gt; &lt;/span&gt;&lt;span style=&quot; font-family:'Times New Roman'; font-size:72pt; font-weight:700; color:#000000;&quot;&gt;·&lt;/span&gt;&lt;span style=&quot; font-family:'Times New Roman'; font-size:72pt; color:#000000;&quot;&gt; &lt;/span&gt;&lt;span style=&quot; font-family:'Times New Roman'; font-size:72pt; font-style:italic; color:#0000ff;&quot;&gt;heavy burst&lt;/span&gt;&lt;span style=&quot; font-family:'Times New Roman'; font-size:72pt; color:#0000ff;&quot;&gt; of studying before an exam&lt;/span&gt;&lt;/p&gt;
&lt;p style=&quot; margin-top:0px; margin-bottom:0px; margin-left:0px; margin-right:0px; -qt-block-indent:0; text-indent:0px;&quot;&gt;&lt;span style=&quot; font-family:'Times New Roman'; font-size:72pt; color:#000000;&quot;&gt;   followed a long period of &lt;/span&gt;&lt;span style=&quot; font-family:'Times New Roman'; font-size:72pt; font-style:italic; color:#000000;&quot;&gt;neglect&lt;/span&gt;&lt;span style=&quot; font-family:'Times New Roman'; font-size:72pt; color:#000000;&quot;&gt; (Soomer,&lt;/span&gt;&lt;/p&gt;
&lt;p style=&quot; margin-top:0px; margin-bottom:0px; margin-left:0px; margin-right:0px; -qt-block-indent:0; text-indent:0px;&quot;&gt;&lt;span style=&quot; font-family:'Times New Roman'; font-size:72pt; color:#000000;&quot;&gt;   1968)&lt;/span&gt;&lt;/p&gt;
&lt;p style=&quot; margin-top:0px; margin-bottom:0px; margin-left:0px; margin-right:0px; -qt-block-indent:0; text-indent:0px;&quot;&gt;&lt;span style=&quot; font-family:'Times New Roman'; font-size:72pt; color:#000000;&quot;&gt; &lt;/span&gt;&lt;span style=&quot; font-family:'Times New Roman'; font-size:72pt; font-weight:700; color:#000000;&quot;&gt;·&lt;/span&gt;&lt;span style=&quot; font-family:'Times New Roman'; font-size:72pt; color:#000000;&quot;&gt; &lt;/span&gt;&lt;span style=&quot; font-family:'Times New Roman'; font-size:72pt; font-style:italic; color:#000000;&quot;&gt;neglect&lt;/span&gt;&lt;span style=&quot; font-family:'Times New Roman'; font-size:72pt; color:#000000;&quot;&gt; studying for three or more weeks and&lt;/span&gt;&lt;/p&gt;
&lt;p style=&quot; margin-top:0px; margin-bottom:0px; margin-left:0px; margin-right:0px; -qt-block-indent:0; text-indent:0px;&quot;&gt;&lt;span style=&quot; font-family:'Times New Roman'; font-size:72pt; color:#000000;&quot;&gt;   then &lt;/span&gt;&lt;span style=&quot; font-family:'Times New Roman'; font-size:72pt; color:#0000ff;&quot;&gt;a &lt;/span&gt;&lt;span style=&quot; font-family:'Times New Roman'; font-size:72pt; font-style:italic; color:#0000ff;&quot;&gt;burst&lt;/span&gt;&lt;span style=&quot; font-family:'Times New Roman'; font-size:72pt; color:#0000ff;&quot;&gt; of study before the tests&lt;/span&gt;&lt;span style=&quot; font-family:'Times New Roman'; font-size:72pt; color:#000000;&quot;&gt; (Vacha &amp;amp;&lt;/span&gt;&lt;/p&gt;
&lt;p style=&quot; margin-top:0px; margin-bottom:0px; margin-left:0px; margin-right:0px; -qt-block-indent:0; text-indent:0px;&quot;&gt;&lt;span style=&quot; font-family:'Times New Roman'; font-size:72pt; color:#000000;&quot;&gt;   McBride, 1993)&lt;/span&gt;&lt;span style=&quot; font-family:'Times New Roman'; font-size:72pt; font-weight:600; color:#000000;&quot;&gt;&lt;br /&gt;&lt;/span&gt;&lt;/p&gt;&lt;/body&gt;&lt;/html&gt;</property>
      <property name="shotcut:animIn">00:00:00.000</property>
      <property name="shotcut:animOut">00:00:00.000</property>
    </filter>
    <filter id="filter278" out="00:00:08.983">
      <property name="start">1</property>
      <property name="level">1</property>
      <property name="mlt_service">brightness</property>
      <property name="shotcut:filter">fadeInBrightness</property>
      <property name="alpha">00:00:00.000=0;00:00:01.983=1</property>
      <property name="shotcut:animIn">00:00:02.000</property>
    </filter>
    <filter id="filter279" out="00:00:08.983">
      <property name="start">1</property>
      <property name="level">1</property>
      <property name="mlt_service">brightness</property>
      <property name="shotcut:filter">fadeOutBrightness</property>
      <property name="alpha">00:00:08.333=1;00:00:08.983=0</property>
      <property name="shotcut:animOut">00:00:00.667</property>
    </filter>
  </producer>
  <producer id="producer80" in="00:00:00.000" out="03:59:59.983">
    <property name="length">04:00:00.000</property>
    <property name="eof">pause</property>
    <property name="resource">images/A+.png</property>
    <property name="ttl">1</property>
    <property name="aspect_ratio">1</property>
    <property name="meta.media.progressive">1</property>
    <property name="seekable">1</property>
    <property name="format">2</property>
    <property name="meta.media.width">266</property>
    <property name="meta.media.height">369</property>
    <property name="mlt_service">qimage</property>
    <property name="creation_time">2023-11-29T04:04:17</property>
    <property name="shotcut:hash">cbabd7278ca17b73144b31bf5d9218f4</property>
    <property name="shotcut:caption">A+.png</property>
    <property name="xml">was here</property>
    <property name="meta.shotcut.vui">1</property>
    <filter id="filter280" out="00:00:06.983">
      <property name="background">color:#00000000</property>
      <property name="mlt_service">affine</property>
      <property name="shotcut:filter">affineSizePosition</property>
      <property name="transition.fill">1</property>
      <property name="transition.distort">0</property>
      <property name="transition.rect">00:00:00.733C=645 -336.742 194.634 270 1;00:00:01.800=645.482 662.03 194.634 270 1</property>
      <property name="transition.valign">middle</property>
      <property name="transition.halign">center</property>
      <property name="shotcut:animIn">00:00:00.000</property>
      <property name="shotcut:animOut">00:00:00.000</property>
      <property name="transition.threads">0</property>
      <property name="transition.fix_rotate_x">20</property>
    </filter>
    <filter id="filter281" out="00:00:06.983">
      <property name="start">1</property>
      <property name="level">1</property>
      <property name="mlt_service">brightness</property>
      <property name="shotcut:filter">fadeOutBrightness</property>
      <property name="alpha">00:00:06.600=1;00:00:06.983=0</property>
      <property name="shotcut:animOut">00:00:00.400</property>
    </filter>
  </producer>
  <producer id="producer81" in="00:00:00.000" out="00:00:01.983">
    <property name="length">00:00:02.000</property>
    <property name="eof">loop</property>
    <property name="resource">images/irrationality.rawr</property>
    <property name="background">#00000000</property>
    <property name="aspect_ratio">1</property>
    <property name="progressive">1</property>
    <property name="seekable">1</property>
    <property name="meta.media.width">512</property>
    <property name="meta.media.height">512</property>
    <property name="meta.media.sample_aspect_num">1</property>
    <property name="meta.media.sample_aspect_den">1</property>
    <property name="meta.media.frame_rate">60</property>
    <property name="first_frame">0</property>
    <property name="mlt_service">glaxnimate</property>
    <property name="creation_time">2023-11-29T14:31:35</property>
    <property name="shotcut:hash">b3c2fd2761ac38faae8a9d05204d3579</property>
    <property name="shotcut:caption">irrationality.rawr</property>
    <property name="meta.shotcut.vui">1</property>
    <property name="xml">was here</property>
    <filter id="filter282" out="00:00:01.983">
      <property name="background">color:#00000000</property>
      <property name="mlt_service">affine</property>
      <property name="shotcut:filter">affineSizePosition</property>
      <property name="transition.fill">1</property>
      <property name="transition.distort">0</property>
      <property name="transition.rect">732.214 279.746 540 540 1</property>
      <property name="transition.valign">middle</property>
      <property name="transition.halign">center</property>
      <property name="shotcut:animIn">00:00:00.000</property>
      <property name="shotcut:animOut">00:00:00.000</property>
      <property name="transition.threads">0</property>
    </filter>
    <filter id="filter283" out="00:00:01.983">
      <property name="start">1</property>
      <property name="level">1</property>
      <property name="mlt_service">brightness</property>
      <property name="shotcut:filter">fadeInBrightness</property>
      <property name="alpha">00:00:00.000=0;00:00:00.983=1</property>
      <property name="shotcut:animIn">00:00:01.000</property>
    </filter>
  </producer>
  <producer id="producer82" in="00:00:00.000" out="00:00:01.983">
    <property name="length">00:00:02.000</property>
    <property name="eof">loop</property>
    <property name="resource">images/irrationality.rawr</property>
    <property name="background">#00000000</property>
    <property name="aspect_ratio">1</property>
    <property name="progressive">1</property>
    <property name="seekable">1</property>
    <property name="meta.media.width">512</property>
    <property name="meta.media.height">512</property>
    <property name="meta.media.sample_aspect_num">1</property>
    <property name="meta.media.sample_aspect_den">1</property>
    <property name="meta.media.frame_rate">60</property>
    <property name="first_frame">0</property>
    <property name="mlt_service">glaxnimate</property>
    <property name="creation_time">2023-11-29T14:31:35</property>
    <property name="shotcut:hash">b3c2fd2761ac38faae8a9d05204d3579</property>
    <property name="shotcut:caption">irrationality.rawr</property>
    <property name="meta.shotcut.vui">1</property>
    <property name="xml">was here</property>
    <filter id="filter284" out="00:00:01.983">
      <property name="background">color:#00000000</property>
      <property name="mlt_service">affine</property>
      <property name="shotcut:filter">affineSizePosition</property>
      <property name="transition.fill">1</property>
      <property name="transition.distort">0</property>
      <property name="transition.rect">732.214 279.746 540 540 1</property>
      <property name="transition.valign">middle</property>
      <property name="transition.halign">center</property>
      <property name="shotcut:animIn">00:00:00.000</property>
      <property name="shotcut:animOut">00:00:00.000</property>
      <property name="transition.threads">0</property>
    </filter>
  </producer>
  <producer id="producer83" in="00:00:00.000" out="00:00:01.983">
    <property name="length">00:00:02.000</property>
    <property name="eof">loop</property>
    <property name="resource">images/irrationality.rawr</property>
    <property name="background">#00000000</property>
    <property name="aspect_ratio">1</property>
    <property name="progressive">1</property>
    <property name="seekable">1</property>
    <property name="meta.media.width">512</property>
    <property name="meta.media.height">512</property>
    <property name="meta.media.sample_aspect_num">1</property>
    <property name="meta.media.sample_aspect_den">1</property>
    <property name="meta.media.frame_rate">60</property>
    <property name="first_frame">0</property>
    <property name="mlt_service">glaxnimate</property>
    <property name="creation_time">2023-11-29T14:31:35</property>
    <property name="shotcut:hash">b3c2fd2761ac38faae8a9d05204d3579</property>
    <property name="shotcut:caption">irrationality.rawr</property>
    <property name="meta.shotcut.vui">1</property>
    <property name="xml">was here</property>
    <filter id="filter285" out="00:00:01.983">
      <property name="background">color:#00000000</property>
      <property name="mlt_service">affine</property>
      <property name="shotcut:filter">affineSizePosition</property>
      <property name="transition.fill">1</property>
      <property name="transition.distort">0</property>
      <property name="transition.rect">732.214 279.746 540 540 1</property>
      <property name="transition.valign">middle</property>
      <property name="transition.halign">center</property>
      <property name="shotcut:animIn">00:00:00.000</property>
      <property name="shotcut:animOut">00:00:00.000</property>
      <property name="transition.threads">0</property>
    </filter>
  </producer>
  <producer id="producer84" in="00:00:00.000" out="00:00:01.983">
    <property name="length">00:00:02.000</property>
    <property name="eof">loop</property>
    <property name="resource">images/irrationality.rawr</property>
    <property name="background">#00000000</property>
    <property name="aspect_ratio">1</property>
    <property name="progressive">1</property>
    <property name="seekable">1</property>
    <property name="meta.media.width">512</property>
    <property name="meta.media.height">512</property>
    <property name="meta.media.sample_aspect_num">1</property>
    <property name="meta.media.sample_aspect_den">1</property>
    <property name="meta.media.frame_rate">60</property>
    <property name="first_frame">0</property>
    <property name="mlt_service">glaxnimate</property>
    <property name="creation_time">2023-11-29T14:31:35</property>
    <property name="shotcut:hash">b3c2fd2761ac38faae8a9d05204d3579</property>
    <property name="shotcut:caption">irrationality.rawr</property>
    <property name="meta.shotcut.vui">1</property>
    <property name="xml">was here</property>
    <filter id="filter286" out="00:00:01.983">
      <property name="background">color:#00000000</property>
      <property name="mlt_service">affine</property>
      <property name="shotcut:filter">affineSizePosition</property>
      <property name="transition.fill">1</property>
      <property name="transition.distort">0</property>
      <property name="transition.rect">732.214 279.746 540 540 1</property>
      <property name="transition.valign">middle</property>
      <property name="transition.halign">center</property>
      <property name="shotcut:animIn">00:00:00.000</property>
      <property name="shotcut:animOut">00:00:00.000</property>
      <property name="transition.threads">0</property>
    </filter>
    <filter id="filter287" out="00:00:01.983">
      <property name="mlt_service">avfilter.gblur</property>
      <property name="shotcut:filter">blur_gaussian_av</property>
      <property name="av.sigma">00:00:00.000=0;00:00:01.000=25</property>
      <property name="av.sigmaV">00:00:00.000=0;00:00:01.000=25</property>
      <property name="av.planes">0xf</property>
    </filter>
  </producer>
  <producer id="producer85" in="00:00:00.000" out="00:00:01.983">
    <property name="length">00:00:02.000</property>
    <property name="eof">loop</property>
    <property name="resource">images/irrationality.rawr</property>
    <property name="background">#00000000</property>
    <property name="aspect_ratio">1</property>
    <property name="progressive">1</property>
    <property name="seekable">1</property>
    <property name="meta.media.width">512</property>
    <property name="meta.media.height">512</property>
    <property name="meta.media.sample_aspect_num">1</property>
    <property name="meta.media.sample_aspect_den">1</property>
    <property name="meta.media.frame_rate">60</property>
    <property name="first_frame">0</property>
    <property name="mlt_service">glaxnimate</property>
    <property name="creation_time">2023-11-29T14:31:35</property>
    <property name="shotcut:hash">b3c2fd2761ac38faae8a9d05204d3579</property>
    <property name="shotcut:caption">irrationality.rawr</property>
    <property name="meta.shotcut.vui">1</property>
    <property name="xml">was here</property>
    <filter id="filter288" out="00:00:01.983">
      <property name="background">color:#00000000</property>
      <property name="mlt_service">affine</property>
      <property name="shotcut:filter">affineSizePosition</property>
      <property name="transition.fill">1</property>
      <property name="transition.distort">0</property>
      <property name="transition.rect">732.214 279.746 540 540 1</property>
      <property name="transition.valign">middle</property>
      <property name="transition.halign">center</property>
      <property name="shotcut:animIn">00:00:00.000</property>
      <property name="shotcut:animOut">00:00:00.000</property>
      <property name="transition.threads">0</property>
    </filter>
    <filter id="filter289" out="00:00:01.983">
      <property name="mlt_service">avfilter.gblur</property>
      <property name="shotcut:filter">blur_gaussian_av</property>
      <property name="av.sigma">25</property>
      <property name="av.sigmaV">25</property>
      <property name="av.planes">0xf</property>
    </filter>
    <filter id="filter290" out="00:00:01.983">
      <property name="start">1</property>
      <property name="level">1</property>
      <property name="mlt_service">brightness</property>
      <property name="shotcut:filter">fadeOutBrightness</property>
      <property name="alpha">00:00:01.333=1;00:00:01.983=0</property>
      <property name="shotcut:animOut">00:00:00.667</property>
    </filter>
  </producer>
  <producer id="producer86" in="00:00:00.000" out="03:59:59.983">
    <property name="length">04:00:00.000</property>
    <property name="eof">pause</property>
    <property name="resource">images/knowledge applied.png</property>
    <property name="ttl">1</property>
    <property name="aspect_ratio">1</property>
    <property name="meta.media.progressive">1</property>
    <property name="seekable">1</property>
    <property name="format">2</property>
    <property name="meta.media.width">886</property>
    <property name="meta.media.height">391</property>
    <property name="mlt_service">qimage</property>
    <property name="creation_time">2023-11-29T17:35:56</property>
    <property name="shotcut:hash">ef6fad5f36653cc0d347a49501978385</property>
    <property name="shotcut:caption">knowledge applied.png</property>
    <property name="meta.shotcut.vui">1</property>
    <property name="xml">was here</property>
    <filter id="filter291" out="00:00:03.983">
      <property name="background">color:#00000000</property>
      <property name="mlt_service">affine</property>
      <property name="shotcut:filter">affineSizePosition</property>
      <property name="transition.fill">1</property>
      <property name="transition.distort">0</property>
      <property name="transition.rect">00:00:00.000C=-3302.34 -908.184 7680 3389 1;00:00:02.000=147.905 614.312 779.52 344.009 1</property>
      <property name="transition.valign">middle</property>
      <property name="transition.halign">center</property>
      <property name="shotcut:animIn">00:00:00.000</property>
      <property name="shotcut:animOut">00:00:00.000</property>
      <property name="transition.threads">0</property>
      <property name="transition.fix_rotate_x">-15</property>
    </filter>
    <filter id="filter292" out="00:00:03.983">
      <property name="start">1</property>
      <property name="level">1</property>
      <property name="mlt_service">brightness</property>
      <property name="shotcut:filter">fadeInBrightness</property>
      <property name="alpha">00:00:00.000=0;00:00:00.983=1</property>
      <property name="shotcut:animIn">00:00:01.000</property>
    </filter>
    <filter id="filter293" out="00:00:03.983">
      <property name="start">1</property>
      <property name="level">1</property>
      <property name="mlt_service">brightness</property>
      <property name="shotcut:filter">fadeOutBrightness</property>
      <property name="alpha">00:00:03.500=1;00:00:03.983=0</property>
      <property name="shotcut:animOut">00:00:00.500</property>
    </filter>
  </producer>
  <producer id="producer87" in="00:00:00.000" out="03:59:59.983">
    <property name="length">04:00:00.000</property>
    <property name="eof">pause</property>
    <property name="resource">#00000000</property>
    <property name="aspect_ratio">1</property>
    <property name="mlt_service">color</property>
    <property name="mlt_image_format">rgba</property>
    <property name="shotcut:caption">transparent</property>
    <property name="shotcut:detail">transparent</property>
    <property name="xml">was here</property>
    <property name="seekable">1</property>
    <property name="meta.shotcut.vui">1</property>
    <filter id="filter294" out="00:00:03.983">
      <property name="argument">❓</property>
      <property name="geometry">00:00:00.000$=442 198 640 360 1;00:00:01.083$=633 49 640 360 1;00:00:02.200$=886 193 640 360 1;00:00:03.233$=627 252 640 360 1;00:00:04.000=442 198 640 360 1</property>
      <property name="family">Times New Roman</property>
      <property name="size">1080</property>
      <property name="weight">700</property>
      <property name="style">normal</property>
      <property name="fgcolour">#fff8312f</property>
      <property name="bgcolour">#00000000</property>
      <property name="olcolour">#ff000000</property>
      <property name="pad">0</property>
      <property name="halign">center</property>
      <property name="valign">top</property>
      <property name="outline">64</property>
      <property name="opacity">00:00:00.000=0;00:00:01.000=1;00:00:03.000=1;00:00:04.000=0</property>
      <property name="mlt_service">dynamictext</property>
      <property name="shotcut:filter">dynamicText</property>
      <property name="shotcut:usePointSize">0</property>
      <property name="shotcut:pointSize">60</property>
    </filter>
  </producer>
  <producer id="producer88" in="00:00:00.000" out="03:59:59.983">
    <property name="length">04:00:00.000</property>
    <property name="eof">pause</property>
    <property name="resource">#00000000</property>
    <property name="aspect_ratio">1</property>
    <property name="mlt_service">color</property>
    <property name="mlt_image_format">rgba</property>
    <property name="shotcut:caption">transparent</property>
    <property name="shotcut:detail">transparent</property>
    <property name="xml">was here</property>
    <property name="seekable">1</property>
    <property name="meta.shotcut.vui">1</property>
    <filter id="filter295" out="00:00:03.983">
      <property name="argument">❓</property>
      <property name="geometry">00:00:00.000$=442 198 640 360 1;00:00:01.083$=633 49 640 360 1;00:00:02.200$=886 193 640 360 1;00:00:03.233$=627 252 640 360 1;00:00:04.000=442 198 640 360 1</property>
      <property name="family">Times New Roman</property>
      <property name="size">1080</property>
      <property name="weight">700</property>
      <property name="style">normal</property>
      <property name="fgcolour">#fff8312f</property>
      <property name="bgcolour">#00000000</property>
      <property name="olcolour">#ff000000</property>
      <property name="pad">0</property>
      <property name="halign">center</property>
      <property name="valign">top</property>
      <property name="outline">64</property>
      <property name="opacity">00:00:00.000=0;00:00:01.000=1;00:00:03.000=1;00:00:04.000=0</property>
      <property name="mlt_service">dynamictext</property>
      <property name="shotcut:filter">dynamicText</property>
      <property name="shotcut:usePointSize">0</property>
      <property name="shotcut:pointSize">60</property>
    </filter>
    <filter id="filter296" out="00:00:03.983">
      <property name="background">color:#00000000</property>
      <property name="mlt_service">affine</property>
      <property name="shotcut:filter">affineSizePosition</property>
      <property name="transition.fill">1</property>
      <property name="transition.distort">0</property>
      <property name="transition.rect">00:00:00.000=0 0 1920 1080 1;00:00:01.000=151.878 513.655 960 540 1</property>
      <property name="transition.valign">middle</property>
      <property name="transition.halign">center</property>
      <property name="shotcut:animIn">00:00:00.000</property>
      <property name="shotcut:animOut">00:00:00.000</property>
      <property name="transition.threads">0</property>
    </filter>
  </producer>
  <producer id="producer89" in="00:00:00.000" out="03:59:59.983">
    <property name="length">04:00:00.000</property>
    <property name="eof">pause</property>
    <property name="resource">#00000000</property>
    <property name="aspect_ratio">1</property>
    <property name="mlt_service">color</property>
    <property name="mlt_image_format">rgba</property>
    <property name="shotcut:caption">transparent</property>
    <property name="shotcut:detail">transparent</property>
    <property name="xml">was here</property>
    <property name="seekable">1</property>
    <property name="meta.shotcut.vui">1</property>
    <filter id="filter297" out="00:00:03.983">
      <property name="argument">❓</property>
      <property name="geometry">00:00:00.000$=442 198 640 360 1;00:00:01.083$=633 49 640 360 1;00:00:02.200$=886 193 640 360 1;00:00:03.233$=627 252 640 360 1;00:00:04.000=442 198 640 360 1</property>
      <property name="family">Times New Roman</property>
      <property name="size">1080</property>
      <property name="weight">700</property>
      <property name="style">normal</property>
      <property name="fgcolour">#fff8312f</property>
      <property name="bgcolour">#00000000</property>
      <property name="olcolour">#ff000000</property>
      <property name="pad">0</property>
      <property name="halign">center</property>
      <property name="valign">top</property>
      <property name="outline">64</property>
      <property name="opacity">00:00:00.000=0;00:00:01.000=1;00:00:03.000=1;00:00:04.000=0</property>
      <property name="mlt_service">dynamictext</property>
      <property name="shotcut:filter">dynamicText</property>
      <property name="shotcut:usePointSize">0</property>
      <property name="shotcut:pointSize">60</property>
    </filter>
    <filter id="filter298" out="00:00:03.983">
      <property name="background">color:#00000000</property>
      <property name="mlt_service">affine</property>
      <property name="shotcut:filter">affineSizePosition</property>
      <property name="transition.fill">1</property>
      <property name="transition.distort">0</property>
      <property name="transition.rect">151.878 513.655 960 540 1</property>
      <property name="transition.valign">middle</property>
      <property name="transition.halign">center</property>
      <property name="shotcut:animIn">00:00:00.000</property>
      <property name="shotcut:animOut">00:00:00.000</property>
      <property name="transition.threads">0</property>
    </filter>
    <filter id="filter299" out="00:00:03.983">
      <property name="start">1</property>
      <property name="level">1</property>
      <property name="mlt_service">brightness</property>
      <property name="shotcut:filter">fadeOutBrightness</property>
      <property name="alpha">00:00:03.000=1;00:00:03.983=0</property>
      <property name="shotcut:animOut">00:00:01.000</property>
    </filter>
  </producer>
  <producer id="producer90" in="00:00:00.000" out="03:59:59.983">
    <property name="length">04:00:00.000</property>
    <property name="eof">pause</property>
    <property name="resource">images/knowledge applied.png</property>
    <property name="ttl">1</property>
    <property name="aspect_ratio">1</property>
    <property name="meta.media.progressive">1</property>
    <property name="seekable">1</property>
    <property name="format">2</property>
    <property name="meta.media.width">886</property>
    <property name="meta.media.height">391</property>
    <property name="mlt_service">qimage</property>
    <property name="creation_time">2023-11-29T17:35:56</property>
    <property name="shotcut:hash">ef6fad5f36653cc0d347a49501978385</property>
    <property name="shotcut:caption">knowledge applied.png</property>
    <property name="meta.shotcut.vui">1</property>
    <property name="xml">was here</property>
    <filter id="filter300" out="00:00:03.983">
      <property name="background">color:#00000000</property>
      <property name="mlt_service">affine</property>
      <property name="shotcut:filter">affineSizePosition</property>
      <property name="transition.fill">1</property>
      <property name="transition.distort">0</property>
      <property name="transition.rect">00:00:00.000C=-3302.34 -908.184 7680 3389 1;00:00:02.000=147.905 614.312 779.52 344.009 1</property>
      <property name="transition.valign">middle</property>
      <property name="transition.halign">center</property>
      <property name="shotcut:animIn">00:00:00.000</property>
      <property name="shotcut:animOut">00:00:00.000</property>
      <property name="transition.threads">0</property>
      <property name="transition.fix_rotate_x">-15</property>
    </filter>
    <filter id="filter301" out="00:00:03.983">
      <property name="start">1</property>
      <property name="level">1</property>
      <property name="mlt_service">brightness</property>
      <property name="shotcut:filter">fadeInBrightness</property>
      <property name="alpha">00:00:00.000=0;00:00:00.983=1</property>
      <property name="shotcut:animIn">00:00:01.000</property>
    </filter>
    <filter id="filter302" out="00:00:03.983">
      <property name="version">0.3</property>
      <property name="mlt_service">frei0r.saturat0r</property>
      <property name="threads">0</property>
      <property name="0">0</property>
    </filter>
    <filter id="filter303" out="00:00:03.983">
      <property name="start">1</property>
      <property name="level">1</property>
      <property name="mlt_service">brightness</property>
      <property name="shotcut:filter">fadeOutBrightness</property>
      <property name="alpha">00:00:03.500=1;00:00:03.983=0</property>
      <property name="shotcut:animOut">00:00:00.500</property>
    </filter>
  </producer>
  <producer id="producer91" in="00:00:00.000" out="03:59:59.983">
    <property name="length">04:00:00.000</property>
    <property name="eof">pause</property>
    <property name="resource">#00000000</property>
    <property name="aspect_ratio">1</property>
    <property name="mlt_service">color</property>
    <property name="mlt_image_format">rgba</property>
    <property name="shotcut:caption">transparent</property>
    <property name="shotcut:detail">transparent</property>
    <property name="xml">was here</property>
    <property name="seekable">1</property>
    <property name="meta.shotcut.vui">1</property>
    <filter id="filter304" out="00:00:22.983">
      <property name="argument"> · Get flashcards correct
   3 times before dropping
 · Review notes before
   exams
 · Space out the
   rereadings
 · ...</property>
      <property name="geometry">0 270 900 810 1</property>
      <property name="family">Times New Roman</property>
      <property name="size">154.286</property>
      <property name="weight">400</property>
      <property name="style">normal</property>
      <property name="fgcolour">#ff000000</property>
      <property name="bgcolour">#00000000</property>
      <property name="olcolour">#aaffffff</property>
      <property name="pad">0</property>
      <property name="halign">left</property>
      <property name="valign">top</property>
      <property name="outline">3</property>
      <property name="opacity">1</property>
      <property name="mlt_service">dynamictext</property>
      <property name="shotcut:filter">dynamicText</property>
      <property name="shotcut:usePointSize">0</property>
      <property name="shotcut:animIn">00:00:00.000</property>
      <property name="shotcut:animOut">00:00:00.000</property>
    </filter>
    <filter id="filter305" out="00:00:22.983">
      <property name="argument"> · Drop flashcards once
   you answer correctly
 · Copy notes verbatim
   and not reviewing them
 · Cram rereadings before
   exams
 · ...</property>
      <property name="geometry">960 270 900 810 1</property>
      <property name="family">Times New Roman</property>
      <property name="size">154.286</property>
      <property name="weight">400</property>
      <property name="style">normal</property>
      <property name="fgcolour">#ff000000</property>
      <property name="bgcolour">#00000000</property>
      <property name="olcolour">#aaffffff</property>
      <property name="pad">0</property>
      <property name="halign">left</property>
      <property name="valign">top</property>
      <property name="outline">3</property>
      <property name="opacity">1.0</property>
      <property name="mlt_service">dynamictext</property>
      <property name="shotcut:filter">dynamicText</property>
      <property name="shotcut:usePointSize">0</property>
      <property name="shotcut:animIn">00:00:00.000</property>
      <property name="shotcut:animOut">00:00:00.000</property>
    </filter>
    <filter id="filter306" out="00:00:22.983">
      <property name="rect">00:00:00.000=0 0 1920 300 1;00:00:07.000=0 0 1920 670 1;00:00:15.000=0 0 1920 670 1;00:00:19.000=0 0 1920 1080 1</property>
      <property name="circle">0</property>
      <property name="color">#00000000</property>
      <property name="radius">0</property>
      <property name="mlt_service">qtcrop</property>
      <property name="shotcut:filter">cropRectangle</property>
      <property name="disable">0</property>
    </filter>
  </producer>
  <producer id="producer92" in="00:00:00.000" out="03:59:59.983">
    <property name="length">04:00:00.000</property>
    <property name="eof">pause</property>
    <property name="resource">#00000000</property>
    <property name="aspect_ratio">1</property>
    <property name="mlt_service">color</property>
    <property name="mlt_image_format">rgba</property>
    <property name="shotcut:caption">transparent</property>
    <property name="xml">was here</property>
    <property name="seekable">1</property>
    <property name="meta.shotcut.vui">1</property>
    <filter id="filter307" in="00:00:05.000" out="00:00:08.983">
      <property name="argument">text</property>
      <property name="geometry">0 360 1920 720 1</property>
      <property name="family">Sans</property>
      <property name="size">48</property>
      <property name="weight">400</property>
      <property name="style">normal</property>
      <property name="fgcolour">0x000000ff</property>
      <property name="bgcolour">#00000000</property>
      <property name="olcolour">0x00000000</property>
      <property name="pad">0</property>
      <property name="halign">left</property>
      <property name="valign">top</property>
      <property name="outline">0</property>
      <property name="pixel_ratio">1</property>
      <property name="opacity">1</property>
      <property name="mlt_service">qtext</property>
      <property name="shotcut:filter">richText</property>
      <property name="html">&lt;!DOCTYPE HTML PUBLIC &quot;-//W3C//DTD HTML 4.0//EN&quot; &quot;http://www.w3.org/TR/REC-html40/strict.dtd&quot;&gt;
&lt;html&gt;&lt;head&gt;&lt;meta name=&quot;qrichtext&quot; content=&quot;1&quot; /&gt;&lt;meta charset=&quot;utf-8&quot; /&gt;&lt;style type=&quot;text/css&quot;&gt;
p, li { white-space: pre-wrap; }
hr { height: 1px; border-width: 0; }
li.unchecked::marker { content: &quot;\2610&quot;; }
li.checked::marker { content: &quot;\2612&quot;; }
&lt;/style&gt;&lt;/head&gt;&lt;body style=&quot; font-family:'Microsoft JhengHei UI'; font-size:9pt; font-weight:400; font-style:normal;&quot;&gt;
&lt;p style=&quot; margin-top:0px; margin-bottom:0px; margin-left:0px; margin-right:0px; -qt-block-indent:0; text-indent:0px;&quot;&gt;&lt;span style=&quot; font-family:'Times New Roman'; font-size:72pt; color:#000000;&quot;&gt; &lt;/span&gt;&lt;span style=&quot; font-family:'Times New Roman'; font-size:72pt; font-weight:700; color:#000000;&quot;&gt;·&lt;/span&gt;&lt;span style=&quot; font-family:'Times New Roman'; font-size:72pt; color:#000000;&quot;&gt; &lt;/span&gt;&lt;span style=&quot; font-family:'Times New Roman'; font-size:72pt; font-style:italic; color:#0000ff;&quot;&gt;heavy burst&lt;/span&gt;&lt;span style=&quot; font-family:'Times New Roman'; font-size:72pt; color:#0000ff;&quot;&gt; of studying before an exam&lt;/span&gt;&lt;/p&gt;
&lt;p style=&quot; margin-top:0px; margin-bottom:0px; margin-left:0px; margin-right:0px; -qt-block-indent:0; text-indent:0px;&quot;&gt;&lt;span style=&quot; font-family:'Times New Roman'; font-size:72pt; color:#000000;&quot;&gt;   followed a long period of &lt;/span&gt;&lt;span style=&quot; font-family:'Times New Roman'; font-size:72pt; font-style:italic; color:#000000;&quot;&gt;neglect&lt;/span&gt;&lt;span style=&quot; font-family:'Times New Roman'; font-size:72pt; color:#000000;&quot;&gt; (Soomer,&lt;/span&gt;&lt;/p&gt;
&lt;p style=&quot; margin-top:0px; margin-bottom:0px; margin-left:0px; margin-right:0px; -qt-block-indent:0; text-indent:0px;&quot;&gt;&lt;span style=&quot; font-family:'Times New Roman'; font-size:72pt; color:#000000;&quot;&gt;   1968)&lt;/span&gt;&lt;/p&gt;
&lt;p style=&quot; margin-top:0px; margin-bottom:0px; margin-left:0px; margin-right:0px; -qt-block-indent:0; text-indent:0px;&quot;&gt;&lt;span style=&quot; font-family:'Times New Roman'; font-size:72pt; color:#000000;&quot;&gt; &lt;/span&gt;&lt;span style=&quot; font-family:'Times New Roman'; font-size:72pt; font-weight:700; color:#000000;&quot;&gt;·&lt;/span&gt;&lt;span style=&quot; font-family:'Times New Roman'; font-size:72pt; color:#000000;&quot;&gt; &lt;/span&gt;&lt;span style=&quot; font-family:'Times New Roman'; font-size:72pt; font-style:italic; color:#000000;&quot;&gt;neglect&lt;/span&gt;&lt;span style=&quot; font-family:'Times New Roman'; font-size:72pt; color:#000000;&quot;&gt; studying for three or more weeks and&lt;/span&gt;&lt;/p&gt;
&lt;p style=&quot; margin-top:0px; margin-bottom:0px; margin-left:0px; margin-right:0px; -qt-block-indent:0; text-indent:0px;&quot;&gt;&lt;span style=&quot; font-family:'Times New Roman'; font-size:72pt; color:#000000;&quot;&gt;   then &lt;/span&gt;&lt;span style=&quot; font-family:'Times New Roman'; font-size:72pt; color:#0000ff;&quot;&gt;a &lt;/span&gt;&lt;span style=&quot; font-family:'Times New Roman'; font-size:72pt; font-style:italic; color:#0000ff;&quot;&gt;burst&lt;/span&gt;&lt;span style=&quot; font-family:'Times New Roman'; font-size:72pt; color:#0000ff;&quot;&gt; of study before the tests&lt;/span&gt;&lt;span style=&quot; font-family:'Times New Roman'; font-size:72pt; color:#000000;&quot;&gt; (Vacha &amp;amp;&lt;/span&gt;&lt;/p&gt;
&lt;p style=&quot; margin-top:0px; margin-bottom:0px; margin-left:0px; margin-right:0px; -qt-block-indent:0; text-indent:0px;&quot;&gt;&lt;span style=&quot; font-family:'Times New Roman'; font-size:72pt; color:#000000;&quot;&gt;   McBride, 1993)&lt;/span&gt;&lt;span style=&quot; font-family:'Times New Roman'; font-size:72pt; font-weight:600; color:#000000;&quot;&gt;&lt;br /&gt;&lt;/span&gt;&lt;/p&gt;&lt;/body&gt;&lt;/html&gt;</property>
      <property name="shotcut:animIn">00:00:00.000</property>
      <property name="shotcut:animOut">00:00:00.000</property>
    </filter>
    <filter id="filter308" in="00:00:05.000" out="00:00:08.983">
      <property name="version">0.3</property>
      <property name="mlt_service">frei0r.saturat0r</property>
      <property name="threads">0</property>
      <property name="0">0</property>
    </filter>
    <filter id="filter309" in="00:00:05.000" out="00:00:08.983">
      <property name="start">1</property>
      <property name="level">1</property>
      <property name="mlt_service">brightness</property>
      <property name="shotcut:filter">fadeInBrightness</property>
      <property name="alpha">00:00:00.000=0;00:00:00.983=1</property>
      <property name="shotcut:animIn">00:00:01.000</property>
    </filter>
    <filter id="filter310" in="00:00:05.000" out="00:00:08.983">
      <property name="start">1</property>
      <property name="level">1</property>
      <property name="mlt_service">brightness</property>
      <property name="shotcut:filter">fadeOutBrightness</property>
      <property name="alpha">00:00:03.500=1;00:00:03.983=0</property>
      <property name="shotcut:animOut">00:00:00.500</property>
    </filter>
  </producer>
  <producer id="producer93" in="00:00:00.000" out="00:00:13.000">
    <property name="length">00:00:13.017</property>
    <property name="eof">loop</property>
    <property name="resource">images/balancing.rawr</property>
    <property name="background">#00000000</property>
    <property name="aspect_ratio">1</property>
    <property name="progressive">1</property>
    <property name="seekable">1</property>
    <property name="meta.media.width">1024</property>
    <property name="meta.media.height">1024</property>
    <property name="meta.media.sample_aspect_num">1</property>
    <property name="meta.media.sample_aspect_den">1</property>
    <property name="meta.media.frame_rate">60</property>
    <property name="first_frame">0</property>
    <property name="mlt_service">glaxnimate</property>
    <property name="creation_time">2023-11-30T09:55:33</property>
    <property name="shotcut:hash">6729faf6df92003c6f290c5b3599e290</property>
    <property name="shotcut:caption">balancing.rawr</property>
    <property name="xml">was here</property>
    <filter id="filter311" out="00:00:12.983">
      <property name="start">1</property>
      <property name="level">1</property>
      <property name="mlt_service">brightness</property>
      <property name="shotcut:filter">fadeInBrightness</property>
      <property name="alpha">00:00:00.000=0;00:00:00.983=1</property>
      <property name="shotcut:animIn">00:00:01.000</property>
    </filter>
  </producer>
  <producer id="producer94" in="00:00:00.000" out="03:59:59.983">
    <property name="length">04:00:00.000</property>
    <property name="eof">pause</property>
    <property name="resource">images/F.png</property>
    <property name="ttl">1</property>
    <property name="aspect_ratio">1</property>
    <property name="meta.media.progressive">1</property>
    <property name="seekable">1</property>
    <property name="format">2</property>
    <property name="meta.media.width">266</property>
    <property name="meta.media.height">369</property>
    <property name="mlt_service">qimage</property>
    <property name="creation_time">2023-11-29T03:58:02</property>
    <property name="shotcut:hash">4c7788f56af136ad7ba4132e0aa114b7</property>
    <property name="shotcut:caption">F.png</property>
    <property name="meta.shotcut.vui">1</property>
    <property name="xml">was here</property>
    <filter id="filter312" out="00:00:10.483">
      <property name="background">color:#00000000</property>
      <property name="mlt_service">affine</property>
      <property name="shotcut:filter">affineSizePosition</property>
      <property name="transition.fill">1</property>
      <property name="transition.distort">0</property>
      <property name="transition.rect">00:00:00.000C=642.038 -332.462 194.634 270 1;00:00:01.000=671.276 667.868 194.634 270 1</property>
      <property name="transition.valign">middle</property>
      <property name="transition.halign">center</property>
      <property name="shotcut:animIn">00:00:00.000</property>
      <property name="shotcut:animOut">00:00:00.000</property>
      <property name="transition.threads">0</property>
      <property name="transition.fix_rotate_x">17.748</property>
    </filter>
  </producer>
  <playlist id="playlist6">
    <property name="shotcut:video">1</property>
    <property name="shotcut:name">V5</property>
    <property name="shotcut:lock">0</property>
    <blank length="00:00:29.000"/>
    <entry producer="producer77" in="00:00:00.000" out="00:00:05.983"/>
    <blank length="00:00:09.000"/>
    <entry producer="producer78" in="00:00:00.000" out="00:00:14.983"/>
    <blank length="00:00:30.000"/>
    <entry producer="producer79" in="00:00:00.000" out="00:00:08.983"/>
    <blank length="00:00:04.000"/>
    <entry producer="producer80" in="00:00:00.000" out="00:00:06.983"/>
    <blank length="00:00:09.000"/>
    <entry producer="producer81" in="00:00:00.000" out="00:00:01.983"/>
    <entry producer="producer82" in="00:00:00.000" out="00:00:01.983"/>
    <entry producer="producer83" in="00:00:00.000" out="00:00:01.983"/>
    <entry producer="producer84" in="00:00:00.000" out="00:00:01.983"/>
    <entry producer="producer85" in="00:00:00.000" out="00:00:01.983"/>
    <blank length="00:00:34.500"/>
    <entry producer="producer86" in="00:00:00.000" out="00:00:03.983"/>
    <blank length="00:00:22.500"/>
    <entry producer="producer87" in="00:00:00.000" out="00:00:03.983"/>
    <entry producer="producer88" in="00:00:00.000" out="00:00:03.983"/>
    <entry producer="producer89" in="00:00:00.000" out="00:00:03.983"/>
    <blank length="00:00:42.000"/>
    <entry producer="producer90" in="00:00:00.000" out="00:00:03.983"/>
    <blank length="00:00:11.000"/>
    <entry producer="producer91" in="00:00:00.000" out="00:00:22.983"/>
    <blank length="00:00:13.000"/>
    <entry producer="producer92" in="00:00:05.000" out="00:00:08.983"/>
    <blank length="00:00:11.000"/>
    <entry producer="producer93" in="00:00:00.000" out="00:00:12.983"/>
    <blank length="00:00:15.500"/>
    <entry producer="producer94" in="00:00:00.000" out="00:00:10.483"/>
  </playlist>
  <producer id="producer95" in="00:00:00.000" out="00:00:01.983">
    <property name="length">00:00:02.000</property>
    <property name="eof">loop</property>
    <property name="resource">images/studying effectively.rawr</property>
    <property name="background">#00000000</property>
    <property name="aspect_ratio">1</property>
    <property name="progressive">1</property>
    <property name="seekable">1</property>
    <property name="meta.media.width">512</property>
    <property name="meta.media.height">512</property>
    <property name="meta.media.sample_aspect_num">1</property>
    <property name="meta.media.sample_aspect_den">1</property>
    <property name="meta.media.frame_rate">60</property>
    <property name="first_frame">0</property>
    <property name="mlt_service">glaxnimate</property>
    <property name="creation_time">2023-11-29T04:19:51</property>
    <property name="shotcut:hash">e6bcf97689aa6e34eff35f2c56b1bd77</property>
    <property name="shotcut:caption">studying effectively.rawr</property>
    <property name="xml">was here</property>
    <property name="meta.shotcut.vui">1</property>
    <filter id="filter313" out="00:00:01.983">
      <property name="background">color:#00000000</property>
      <property name="mlt_service">affine</property>
      <property name="shotcut:filter">affineSizePosition</property>
      <property name="transition.fill">1</property>
      <property name="transition.distort">0</property>
      <property name="transition.rect">112.014 550.444 483.686 483.686 1</property>
      <property name="transition.valign">middle</property>
      <property name="transition.halign">center</property>
      <property name="shotcut:animIn">00:00:00.000</property>
      <property name="shotcut:animOut">00:00:00.000</property>
      <property name="transition.threads">0</property>
      <property name="transition.fix_rotate_x">0</property>
    </filter>
    <filter id="filter314" out="00:00:01.983">
      <property name="start">1</property>
      <property name="level">1</property>
      <property name="mlt_service">brightness</property>
      <property name="shotcut:filter">fadeInBrightness</property>
      <property name="alpha">00:00:00.000=0;00:00:00.983=1</property>
      <property name="shotcut:animIn">00:00:01.000</property>
    </filter>
  </producer>
  <producer id="producer96" in="00:00:00.000" out="00:00:01.983">
    <property name="length">00:00:02.000</property>
    <property name="eof">loop</property>
    <property name="resource">images/studying effectively.rawr</property>
    <property name="background">#00000000</property>
    <property name="aspect_ratio">1</property>
    <property name="progressive">1</property>
    <property name="seekable">1</property>
    <property name="meta.media.width">512</property>
    <property name="meta.media.height">512</property>
    <property name="meta.media.sample_aspect_num">1</property>
    <property name="meta.media.sample_aspect_den">1</property>
    <property name="meta.media.frame_rate">60</property>
    <property name="first_frame">0</property>
    <property name="mlt_service">glaxnimate</property>
    <property name="creation_time">2023-11-29T04:19:51</property>
    <property name="shotcut:hash">e6bcf97689aa6e34eff35f2c56b1bd77</property>
    <property name="shotcut:caption">studying effectively.rawr</property>
    <property name="xml">was here</property>
    <property name="meta.shotcut.vui">1</property>
    <filter id="filter315" out="00:00:01.983">
      <property name="background">color:#00000000</property>
      <property name="mlt_service">affine</property>
      <property name="shotcut:filter">affineSizePosition</property>
      <property name="transition.fill">1</property>
      <property name="transition.distort">0</property>
      <property name="transition.rect">112.014 550.444 483.686 483.686 1</property>
      <property name="transition.valign">middle</property>
      <property name="transition.halign">center</property>
      <property name="shotcut:animIn">00:00:00.000</property>
      <property name="shotcut:animOut">00:00:00.000</property>
      <property name="transition.threads">0</property>
      <property name="transition.fix_rotate_x">0</property>
    </filter>
    <filter id="filter316" out="00:00:01.983">
      <property name="start">1</property>
      <property name="level">1</property>
      <property name="mlt_service">brightness</property>
      <property name="shotcut:filter">fadeOutBrightness</property>
      <property name="alpha">00:00:01.667=1;00:00:01.983=0</property>
      <property name="shotcut:animOut">00:00:00.333</property>
    </filter>
  </producer>
  <producer id="producer97" in="00:00:00.000" out="03:59:59.983">
    <property name="length">04:00:00.000</property>
    <property name="eof">pause</property>
    <property name="resource">images/ancient paper.png</property>
    <property name="ttl">1</property>
    <property name="aspect_ratio">1</property>
    <property name="meta.media.progressive">1</property>
    <property name="seekable">1</property>
    <property name="format">2</property>
    <property name="meta.media.width">1945</property>
    <property name="meta.media.height">1320</property>
    <property name="mlt_service">qimage</property>
    <property name="creation_time">2023-11-29T06:50:58</property>
    <property name="shotcut:hash">952cd28723d6f5d8dfa0d946d3f31170</property>
    <property name="shotcut:caption">ancient paper.png</property>
    <property name="meta.shotcut.vui">1</property>
    <property name="xml">was here</property>
    <filter id="filter317" out="00:00:05.983">
      <property name="background">color:#00000000</property>
      <property name="mlt_service">affine</property>
      <property name="shotcut:filter">affineSizePosition</property>
      <property name="transition.fill">1</property>
      <property name="transition.distort">0</property>
      <property name="transition.rect">-32.587 344.027 1456.19 988.259 1</property>
      <property name="transition.valign">middle</property>
      <property name="transition.halign">center</property>
      <property name="shotcut:animIn">00:00:00.000</property>
      <property name="shotcut:animOut">00:00:00.000</property>
      <property name="transition.threads">0</property>
    </filter>
    <filter id="filter318" out="00:00:05.983">
      <property name="start">1</property>
      <property name="level">1</property>
      <property name="mlt_service">brightness</property>
      <property name="shotcut:filter">fadeInBrightness</property>
      <property name="alpha">00:00:00.000=0;00:00:00.983=1</property>
      <property name="shotcut:animIn">00:00:01.000</property>
    </filter>
    <filter id="filter319" out="00:00:05.983">
      <property name="start">1</property>
      <property name="level">1</property>
      <property name="mlt_service">brightness</property>
      <property name="shotcut:filter">fadeOutBrightness</property>
      <property name="alpha">00:00:05.500=1;00:00:05.983=0</property>
      <property name="shotcut:animOut">00:00:00.500</property>
    </filter>
  </producer>
  <producer id="producer98" in="00:00:00.000" out="03:59:59.983">
    <property name="length">04:00:00.000</property>
    <property name="eof">pause</property>
    <property name="resource">#00000000</property>
    <property name="aspect_ratio">1</property>
    <property name="mlt_service">color</property>
    <property name="mlt_image_format">rgba</property>
    <property name="shotcut:caption">transparent</property>
    <property name="xml">was here</property>
    <property name="seekable">1</property>
    <property name="meta.shotcut.vui">1</property>
    <filter id="filter320" out="00:00:05.983">
      <property name="argument">text</property>
      <property name="geometry">0 360 1920 720 1</property>
      <property name="family">Sans</property>
      <property name="size">48</property>
      <property name="weight">400</property>
      <property name="style">normal</property>
      <property name="fgcolour">0x000000ff</property>
      <property name="bgcolour">#00000000</property>
      <property name="olcolour">0x00000000</property>
      <property name="pad">0</property>
      <property name="halign">left</property>
      <property name="valign">top</property>
      <property name="outline">0</property>
      <property name="pixel_ratio">1</property>
      <property name="opacity">1</property>
      <property name="mlt_service">qtext</property>
      <property name="shotcut:filter">richText</property>
      <property name="html">&lt;!DOCTYPE HTML PUBLIC &quot;-//W3C//DTD HTML 4.0//EN&quot; &quot;http://www.w3.org/TR/REC-html40/strict.dtd&quot;&gt;
&lt;html&gt;&lt;head&gt;&lt;meta name=&quot;qrichtext&quot; content=&quot;1&quot; /&gt;&lt;meta charset=&quot;utf-8&quot; /&gt;&lt;style type=&quot;text/css&quot;&gt;
p, li { white-space: pre-wrap; }
hr { height: 1px; border-width: 0; }
li.unchecked::marker { content: &quot;\2610&quot;; }
li.checked::marker { content: &quot;\2612&quot;; }
&lt;/style&gt;&lt;/head&gt;&lt;body style=&quot; font-family:'Microsoft JhengHei UI'; font-size:9pt; font-weight:400; font-style:normal;&quot;&gt;
&lt;p style=&quot; margin-top:0px; margin-bottom:0px; margin-left:0px; margin-right:0px; -qt-block-indent:0; text-indent:0px;&quot;&gt;&lt;span style=&quot; font-family:'Times New Roman'; font-size:72pt; color:#000000;&quot;&gt; &lt;/span&gt;&lt;span style=&quot; font-family:'Times New Roman'; font-size:72pt; font-weight:700; color:#000000;&quot;&gt;·&lt;/span&gt;&lt;span style=&quot; font-family:'Times New Roman'; font-size:72pt; color:#000000;&quot;&gt; &lt;/span&gt;&lt;span style=&quot; font-family:'Times New Roman'; font-size:72pt; font-style:italic; color:#0000ff;&quot;&gt;heavy burst&lt;/span&gt;&lt;span style=&quot; font-family:'Times New Roman'; font-size:72pt; color:#0000ff;&quot;&gt; of studying before an exam&lt;/span&gt;&lt;/p&gt;
&lt;p style=&quot; margin-top:0px; margin-bottom:0px; margin-left:0px; margin-right:0px; -qt-block-indent:0; text-indent:0px;&quot;&gt;&lt;span style=&quot; font-family:'Times New Roman'; font-size:72pt; color:#000000;&quot;&gt;   followed &lt;/span&gt;&lt;span style=&quot; font-family:'Times New Roman'; font-size:72pt; color:#aa0000;&quot;&gt;a long period of &lt;/span&gt;&lt;span style=&quot; font-family:'Times New Roman'; font-size:72pt; font-style:italic; color:#aa0000;&quot;&gt;neglect&lt;/span&gt;&lt;span style=&quot; font-family:'Times New Roman'; font-size:72pt; color:#000000;&quot;&gt; (Soomer,&lt;/span&gt;&lt;/p&gt;
&lt;p style=&quot; margin-top:0px; margin-bottom:0px; margin-left:0px; margin-right:0px; -qt-block-indent:0; text-indent:0px;&quot;&gt;&lt;span style=&quot; font-family:'Times New Roman'; font-size:72pt; color:#000000;&quot;&gt;   1968)&lt;/span&gt;&lt;/p&gt;
&lt;p style=&quot; margin-top:0px; margin-bottom:0px; margin-left:0px; margin-right:0px; -qt-block-indent:0; text-indent:0px;&quot;&gt;&lt;span style=&quot; font-family:'Times New Roman'; font-size:72pt; color:#000000;&quot;&gt; &lt;/span&gt;&lt;span style=&quot; font-family:'Times New Roman'; font-size:72pt; font-weight:700; color:#000000;&quot;&gt;·&lt;/span&gt;&lt;span style=&quot; font-family:'Times New Roman'; font-size:72pt; color:#000000;&quot;&gt; &lt;/span&gt;&lt;span style=&quot; font-family:'Times New Roman'; font-size:72pt; font-style:italic; color:#aa0000;&quot;&gt;neglect&lt;/span&gt;&lt;span style=&quot; font-family:'Times New Roman'; font-size:72pt; color:#aa0000;&quot;&gt; studying for three or more weeks&lt;/span&gt;&lt;span style=&quot; font-family:'Times New Roman'; font-size:72pt; color:#000000;&quot;&gt; and&lt;/span&gt;&lt;/p&gt;
&lt;p style=&quot; margin-top:0px; margin-bottom:0px; margin-left:0px; margin-right:0px; -qt-block-indent:0; text-indent:0px;&quot;&gt;&lt;span style=&quot; font-family:'Times New Roman'; font-size:72pt; color:#000000;&quot;&gt;   then &lt;/span&gt;&lt;span style=&quot; font-family:'Times New Roman'; font-size:72pt; color:#0000ff;&quot;&gt;a &lt;/span&gt;&lt;span style=&quot; font-family:'Times New Roman'; font-size:72pt; font-style:italic; color:#0000ff;&quot;&gt;burst&lt;/span&gt;&lt;span style=&quot; font-family:'Times New Roman'; font-size:72pt; color:#0000ff;&quot;&gt; of study before the tests&lt;/span&gt;&lt;span style=&quot; font-family:'Times New Roman'; font-size:72pt; color:#000000;&quot;&gt; (Vacha &amp;amp;&lt;/span&gt;&lt;/p&gt;
&lt;p style=&quot; margin-top:0px; margin-bottom:0px; margin-left:0px; margin-right:0px; -qt-block-indent:0; text-indent:0px;&quot;&gt;&lt;span style=&quot; font-family:'Times New Roman'; font-size:72pt; color:#000000;&quot;&gt;   McBride, 1993)&lt;/span&gt;&lt;span style=&quot; font-family:'Times New Roman'; font-size:72pt; font-weight:600; color:#000000;&quot;&gt;&lt;br /&gt;&lt;/span&gt;&lt;/p&gt;&lt;/body&gt;&lt;/html&gt;</property>
      <property name="shotcut:animIn">00:00:00.000</property>
      <property name="shotcut:animOut">00:00:00.000</property>
    </filter>
    <filter id="filter321" out="00:00:05.983">
      <property name="start">1</property>
      <property name="level">1</property>
      <property name="mlt_service">brightness</property>
      <property name="shotcut:filter">fadeInBrightness</property>
      <property name="alpha">00:00:00.000=0;00:00:01.983=1</property>
      <property name="shotcut:animIn">00:00:02.000</property>
    </filter>
    <filter id="filter322" out="00:00:05.983">
      <property name="start">1</property>
      <property name="level">1</property>
      <property name="mlt_service">brightness</property>
      <property name="shotcut:filter">fadeOutBrightness</property>
      <property name="alpha">00:00:05.333=1;00:00:05.983=0</property>
      <property name="shotcut:animOut">00:00:00.667</property>
    </filter>
  </producer>
  <producer id="producer99" in="00:00:00.000" out="03:59:59.983">
    <property name="length">04:00:00.000</property>
    <property name="eof">pause</property>
    <property name="resource">images/F.png</property>
    <property name="ttl">1</property>
    <property name="aspect_ratio">1</property>
    <property name="meta.media.progressive">1</property>
    <property name="seekable">1</property>
    <property name="format">2</property>
    <property name="meta.media.width">266</property>
    <property name="meta.media.height">369</property>
    <property name="mlt_service">qimage</property>
    <property name="creation_time">2023-11-29T03:58:02</property>
    <property name="shotcut:hash">4c7788f56af136ad7ba4132e0aa114b7</property>
    <property name="shotcut:caption">F.png</property>
    <property name="meta.shotcut.vui">1</property>
    <property name="xml">was here</property>
    <filter id="filter323" out="00:00:06.983">
      <property name="background">color:#00000000</property>
      <property name="mlt_service">affine</property>
      <property name="shotcut:filter">affineSizePosition</property>
      <property name="transition.fill">1</property>
      <property name="transition.distort">0</property>
      <property name="transition.rect">00:00:01.000C=870.174 -400 194.634 270 1;00:00:02.000C=870.174 -231.751 194.634 270 1;00:00:03.000=873.423 677.893 194.634 270 1</property>
      <property name="transition.valign">middle</property>
      <property name="transition.halign">center</property>
      <property name="shotcut:animIn">00:00:00.000</property>
      <property name="shotcut:animOut">00:00:00.000</property>
      <property name="transition.threads">0</property>
      <property name="transition.fix_rotate_x">330</property>
    </filter>
    <filter id="filter324" out="00:00:06.983">
      <property name="start">1</property>
      <property name="level">1</property>
      <property name="mlt_service">brightness</property>
      <property name="shotcut:filter">fadeOutBrightness</property>
      <property name="alpha">00:00:06.500=1;00:00:06.983=0</property>
      <property name="shotcut:animOut">00:00:00.500</property>
    </filter>
  </producer>
  <producer id="producer100" in="00:00:00.000" out="00:00:01.983">
    <property name="length">00:00:02.000</property>
    <property name="eof">loop</property>
    <property name="resource">images/stress.rawr</property>
    <property name="background">#00000000</property>
    <property name="aspect_ratio">1</property>
    <property name="progressive">1</property>
    <property name="seekable">1</property>
    <property name="meta.media.width">512</property>
    <property name="meta.media.height">512</property>
    <property name="meta.media.sample_aspect_num">1</property>
    <property name="meta.media.sample_aspect_den">1</property>
    <property name="meta.media.frame_rate">60</property>
    <property name="first_frame">0</property>
    <property name="mlt_service">glaxnimate</property>
    <property name="creation_time">2023-11-29T14:45:05</property>
    <property name="shotcut:hash">2af16ad7d38e469b4aaee7b22259d261</property>
    <property name="shotcut:caption">stress.rawr</property>
    <property name="meta.shotcut.vui">1</property>
    <property name="xml">was here</property>
    <filter id="filter325" out="00:00:02.000">
      <property name="background">color:#00000000</property>
      <property name="mlt_service">affine</property>
      <property name="shotcut:filter">affineSizePosition</property>
      <property name="transition.fill">1</property>
      <property name="transition.distort">0</property>
      <property name="transition.rect">1281.25 263.503 540 540 1</property>
      <property name="transition.valign">middle</property>
      <property name="transition.halign">center</property>
      <property name="shotcut:animIn">00:00:00.000</property>
      <property name="shotcut:animOut">00:00:00.000</property>
      <property name="transition.threads">0</property>
    </filter>
    <filter id="filter326" out="00:00:02.000">
      <property name="start">1</property>
      <property name="level">1</property>
      <property name="mlt_service">brightness</property>
      <property name="shotcut:filter">fadeInBrightness</property>
      <property name="alpha">00:00:00.000=0;00:00:00.983=1</property>
      <property name="shotcut:animIn">00:00:01.000</property>
    </filter>
  </producer>
  <producer id="producer101" in="00:00:00.000" out="00:00:01.983">
    <property name="length">00:00:02.000</property>
    <property name="eof">loop</property>
    <property name="resource">images/stress.rawr</property>
    <property name="background">#00000000</property>
    <property name="aspect_ratio">1</property>
    <property name="progressive">1</property>
    <property name="seekable">1</property>
    <property name="meta.media.width">512</property>
    <property name="meta.media.height">512</property>
    <property name="meta.media.sample_aspect_num">1</property>
    <property name="meta.media.sample_aspect_den">1</property>
    <property name="meta.media.frame_rate">60</property>
    <property name="first_frame">0</property>
    <property name="mlt_service">glaxnimate</property>
    <property name="creation_time">2023-11-29T14:45:05</property>
    <property name="shotcut:hash">2af16ad7d38e469b4aaee7b22259d261</property>
    <property name="shotcut:caption">stress.rawr</property>
    <property name="meta.shotcut.vui">1</property>
    <property name="xml">was here</property>
    <filter id="filter327" out="00:00:01.983">
      <property name="background">color:#00000000</property>
      <property name="mlt_service">affine</property>
      <property name="shotcut:filter">affineSizePosition</property>
      <property name="transition.fill">1</property>
      <property name="transition.distort">0</property>
      <property name="transition.rect">1281.25 263.503 540 540 1</property>
      <property name="transition.valign">middle</property>
      <property name="transition.halign">center</property>
      <property name="shotcut:animIn">00:00:00.000</property>
      <property name="shotcut:animOut">00:00:00.000</property>
      <property name="transition.threads">0</property>
    </filter>
  </producer>
  <producer id="producer102" in="00:00:00.000" out="00:00:01.983">
    <property name="length">00:00:02.000</property>
    <property name="eof">loop</property>
    <property name="resource">images/stress.rawr</property>
    <property name="background">#00000000</property>
    <property name="aspect_ratio">1</property>
    <property name="progressive">1</property>
    <property name="seekable">1</property>
    <property name="meta.media.width">512</property>
    <property name="meta.media.height">512</property>
    <property name="meta.media.sample_aspect_num">1</property>
    <property name="meta.media.sample_aspect_den">1</property>
    <property name="meta.media.frame_rate">60</property>
    <property name="first_frame">0</property>
    <property name="mlt_service">glaxnimate</property>
    <property name="creation_time">2023-11-29T14:45:05</property>
    <property name="shotcut:hash">2af16ad7d38e469b4aaee7b22259d261</property>
    <property name="shotcut:caption">stress.rawr</property>
    <property name="meta.shotcut.vui">1</property>
    <property name="xml">was here</property>
    <filter id="filter328" out="00:00:01.983">
      <property name="background">color:#00000000</property>
      <property name="mlt_service">affine</property>
      <property name="shotcut:filter">affineSizePosition</property>
      <property name="transition.fill">1</property>
      <property name="transition.distort">0</property>
      <property name="transition.rect">1281.25 263.503 540 540 1</property>
      <property name="transition.valign">middle</property>
      <property name="transition.halign">center</property>
      <property name="shotcut:animIn">00:00:00.000</property>
      <property name="shotcut:animOut">00:00:00.000</property>
      <property name="transition.threads">0</property>
    </filter>
    <filter id="filter329" out="00:00:01.983">
      <property name="mlt_service">avfilter.gblur</property>
      <property name="shotcut:filter">blur_gaussian_av</property>
      <property name="av.sigma">00:00:01.000=0;00:00:02.000=25</property>
      <property name="av.sigmaV">00:00:01.000=0;00:00:02.000=25</property>
      <property name="av.planes">0xf</property>
    </filter>
  </producer>
  <producer id="producer103" in="00:00:00.000" out="00:00:01.983">
    <property name="length">00:00:02.000</property>
    <property name="eof">loop</property>
    <property name="resource">images/stress.rawr</property>
    <property name="background">#00000000</property>
    <property name="aspect_ratio">1</property>
    <property name="progressive">1</property>
    <property name="seekable">1</property>
    <property name="meta.media.width">512</property>
    <property name="meta.media.height">512</property>
    <property name="meta.media.sample_aspect_num">1</property>
    <property name="meta.media.sample_aspect_den">1</property>
    <property name="meta.media.frame_rate">60</property>
    <property name="first_frame">0</property>
    <property name="mlt_service">glaxnimate</property>
    <property name="creation_time">2023-11-29T14:45:05</property>
    <property name="shotcut:hash">2af16ad7d38e469b4aaee7b22259d261</property>
    <property name="shotcut:caption">stress.rawr</property>
    <property name="meta.shotcut.vui">1</property>
    <property name="xml">was here</property>
    <filter id="filter330" out="00:00:01.983">
      <property name="background">color:#00000000</property>
      <property name="mlt_service">affine</property>
      <property name="shotcut:filter">affineSizePosition</property>
      <property name="transition.fill">1</property>
      <property name="transition.distort">0</property>
      <property name="transition.rect">1281.25 263.503 540 540 1</property>
      <property name="transition.valign">middle</property>
      <property name="transition.halign">center</property>
      <property name="shotcut:animIn">00:00:00.000</property>
      <property name="shotcut:animOut">00:00:00.000</property>
      <property name="transition.threads">0</property>
    </filter>
    <filter id="filter331" out="00:00:01.983">
      <property name="mlt_service">avfilter.gblur</property>
      <property name="shotcut:filter">blur_gaussian_av</property>
      <property name="av.sigma">25</property>
      <property name="av.sigmaV">25</property>
      <property name="av.planes">0xf</property>
    </filter>
  </producer>
  <producer id="producer104" in="00:00:00.000" out="00:00:01.983">
    <property name="length">00:00:02.000</property>
    <property name="eof">loop</property>
    <property name="resource">images/stress.rawr</property>
    <property name="background">#00000000</property>
    <property name="aspect_ratio">1</property>
    <property name="progressive">1</property>
    <property name="seekable">1</property>
    <property name="meta.media.width">512</property>
    <property name="meta.media.height">512</property>
    <property name="meta.media.sample_aspect_num">1</property>
    <property name="meta.media.sample_aspect_den">1</property>
    <property name="meta.media.frame_rate">60</property>
    <property name="first_frame">0</property>
    <property name="mlt_service">glaxnimate</property>
    <property name="creation_time">2023-11-29T14:45:05</property>
    <property name="shotcut:hash">2af16ad7d38e469b4aaee7b22259d261</property>
    <property name="shotcut:caption">stress.rawr</property>
    <property name="meta.shotcut.vui">1</property>
    <property name="xml">was here</property>
    <filter id="filter332" out="00:00:00.983">
      <property name="background">color:#00000000</property>
      <property name="mlt_service">affine</property>
      <property name="shotcut:filter">affineSizePosition</property>
      <property name="transition.fill">1</property>
      <property name="transition.distort">0</property>
      <property name="transition.rect">1281.25 263.503 540 540 1</property>
      <property name="transition.valign">middle</property>
      <property name="transition.halign">center</property>
      <property name="shotcut:animIn">00:00:00.000</property>
      <property name="shotcut:animOut">00:00:00.000</property>
      <property name="transition.threads">0</property>
    </filter>
    <filter id="filter333" out="00:00:00.983">
      <property name="mlt_service">avfilter.gblur</property>
      <property name="shotcut:filter">blur_gaussian_av</property>
      <property name="av.sigma">25</property>
      <property name="av.sigmaV">25</property>
      <property name="av.planes">0xf</property>
    </filter>
    <filter id="filter334" out="00:00:00.983">
      <property name="start">1</property>
      <property name="level">1</property>
      <property name="mlt_service">brightness</property>
      <property name="shotcut:filter">fadeOutBrightness</property>
      <property name="alpha">00:00:00.333=1;00:00:00.983=0</property>
      <property name="shotcut:animOut">00:00:00.667</property>
    </filter>
  </producer>
  <producer id="producer105" in="00:00:00.000" out="00:00:01.983">
    <property name="length">00:00:02.000</property>
    <property name="eof">loop</property>
    <property name="resource">images/studying tirelessly.rawr</property>
    <property name="background">#00000000</property>
    <property name="aspect_ratio">1</property>
    <property name="progressive">1</property>
    <property name="seekable">1</property>
    <property name="meta.media.width">512</property>
    <property name="meta.media.height">512</property>
    <property name="meta.media.sample_aspect_num">1</property>
    <property name="meta.media.sample_aspect_den">1</property>
    <property name="meta.media.frame_rate">60</property>
    <property name="first_frame">0</property>
    <property name="mlt_service">glaxnimate</property>
    <property name="creation_time">2023-11-29T03:37:51</property>
    <property name="shotcut:hash">309d31beedff0095c7a488bed70ad1de</property>
    <property name="shotcut:caption">studying tirelessly.rawr</property>
    <property name="meta.shotcut.vui">1</property>
    <property name="xml">was here</property>
    <filter id="filter335" out="00:00:01.983">
      <property name="background">color:#00000000</property>
      <property name="mlt_service">affine</property>
      <property name="shotcut:filter">affineSizePosition</property>
      <property name="transition.fill">1</property>
      <property name="transition.distort">0</property>
      <property name="transition.rect">332.64 97.8173 540 540 1</property>
      <property name="transition.valign">middle</property>
      <property name="transition.halign">center</property>
      <property name="shotcut:animIn">00:00:00.000</property>
      <property name="shotcut:animOut">00:00:00.000</property>
      <property name="transition.threads">0</property>
    </filter>
    <filter id="filter336" out="00:00:01.983">
      <property name="start">1</property>
      <property name="level">1</property>
      <property name="mlt_service">brightness</property>
      <property name="shotcut:filter">fadeInBrightness</property>
      <property name="alpha">00:00:00.000=0;00:00:00.983=1</property>
      <property name="shotcut:animIn">00:00:01.000</property>
    </filter>
  </producer>
  <producer id="producer106" in="00:00:00.000" out="00:00:01.983">
    <property name="length">00:00:02.000</property>
    <property name="eof">loop</property>
    <property name="resource">images/studying tirelessly.rawr</property>
    <property name="background">#00000000</property>
    <property name="aspect_ratio">1</property>
    <property name="progressive">1</property>
    <property name="seekable">1</property>
    <property name="meta.media.width">512</property>
    <property name="meta.media.height">512</property>
    <property name="meta.media.sample_aspect_num">1</property>
    <property name="meta.media.sample_aspect_den">1</property>
    <property name="meta.media.frame_rate">60</property>
    <property name="first_frame">0</property>
    <property name="mlt_service">glaxnimate</property>
    <property name="creation_time">2023-11-29T03:37:51</property>
    <property name="shotcut:hash">309d31beedff0095c7a488bed70ad1de</property>
    <property name="shotcut:caption">studying tirelessly.rawr</property>
    <property name="meta.shotcut.vui">1</property>
    <property name="xml">was here</property>
    <filter id="filter337" out="00:00:01.983">
      <property name="background">color:#00000000</property>
      <property name="mlt_service">affine</property>
      <property name="shotcut:filter">affineSizePosition</property>
      <property name="transition.fill">1</property>
      <property name="transition.distort">0</property>
      <property name="transition.rect">332.64 97.8173 540 540 1</property>
      <property name="transition.valign">middle</property>
      <property name="transition.halign">center</property>
      <property name="shotcut:animIn">00:00:00.000</property>
      <property name="shotcut:animOut">00:00:00.000</property>
      <property name="transition.threads">0</property>
    </filter>
  </producer>
  <producer id="producer107" in="00:00:00.000" out="00:00:01.983">
    <property name="length">00:00:02.000</property>
    <property name="eof">loop</property>
    <property name="resource">images/studying tirelessly.rawr</property>
    <property name="background">#00000000</property>
    <property name="aspect_ratio">1</property>
    <property name="progressive">1</property>
    <property name="seekable">1</property>
    <property name="meta.media.width">512</property>
    <property name="meta.media.height">512</property>
    <property name="meta.media.sample_aspect_num">1</property>
    <property name="meta.media.sample_aspect_den">1</property>
    <property name="meta.media.frame_rate">60</property>
    <property name="first_frame">0</property>
    <property name="mlt_service">glaxnimate</property>
    <property name="creation_time">2023-11-29T03:37:51</property>
    <property name="shotcut:hash">309d31beedff0095c7a488bed70ad1de</property>
    <property name="shotcut:caption">studying tirelessly.rawr</property>
    <property name="meta.shotcut.vui">1</property>
    <property name="xml">was here</property>
    <filter id="filter338" out="00:00:01.983">
      <property name="background">color:#00000000</property>
      <property name="mlt_service">affine</property>
      <property name="shotcut:filter">affineSizePosition</property>
      <property name="transition.fill">1</property>
      <property name="transition.distort">0</property>
      <property name="transition.rect">332.64 97.8173 540 540 1</property>
      <property name="transition.valign">middle</property>
      <property name="transition.halign">center</property>
      <property name="shotcut:animIn">00:00:00.000</property>
      <property name="shotcut:animOut">00:00:00.000</property>
      <property name="transition.threads">0</property>
    </filter>
  </producer>
  <producer id="producer108" in="00:00:00.000" out="00:00:01.983">
    <property name="length">00:00:02.000</property>
    <property name="eof">loop</property>
    <property name="resource">images/studying tirelessly.rawr</property>
    <property name="background">#00000000</property>
    <property name="aspect_ratio">1</property>
    <property name="progressive">1</property>
    <property name="seekable">1</property>
    <property name="meta.media.width">512</property>
    <property name="meta.media.height">512</property>
    <property name="meta.media.sample_aspect_num">1</property>
    <property name="meta.media.sample_aspect_den">1</property>
    <property name="meta.media.frame_rate">60</property>
    <property name="first_frame">0</property>
    <property name="mlt_service">glaxnimate</property>
    <property name="creation_time">2023-11-29T03:37:51</property>
    <property name="shotcut:hash">309d31beedff0095c7a488bed70ad1de</property>
    <property name="shotcut:caption">studying tirelessly.rawr</property>
    <property name="meta.shotcut.vui">1</property>
    <property name="xml">was here</property>
    <filter id="filter339" out="00:00:01.983">
      <property name="background">color:#00000000</property>
      <property name="mlt_service">affine</property>
      <property name="shotcut:filter">affineSizePosition</property>
      <property name="transition.fill">1</property>
      <property name="transition.distort">0</property>
      <property name="transition.rect">332.64 97.8173 540 540 1</property>
      <property name="transition.valign">middle</property>
      <property name="transition.halign">center</property>
      <property name="shotcut:animIn">00:00:00.000</property>
      <property name="shotcut:animOut">00:00:00.000</property>
      <property name="transition.threads">0</property>
    </filter>
  </producer>
  <producer id="producer109" in="00:00:00.000" out="00:00:01.983">
    <property name="length">00:00:02.000</property>
    <property name="eof">loop</property>
    <property name="resource">images/studying tirelessly.rawr</property>
    <property name="background">#00000000</property>
    <property name="aspect_ratio">1</property>
    <property name="progressive">1</property>
    <property name="seekable">1</property>
    <property name="meta.media.width">512</property>
    <property name="meta.media.height">512</property>
    <property name="meta.media.sample_aspect_num">1</property>
    <property name="meta.media.sample_aspect_den">1</property>
    <property name="meta.media.frame_rate">60</property>
    <property name="first_frame">0</property>
    <property name="mlt_service">glaxnimate</property>
    <property name="creation_time">2023-11-29T03:37:51</property>
    <property name="shotcut:hash">309d31beedff0095c7a488bed70ad1de</property>
    <property name="shotcut:caption">studying tirelessly.rawr</property>
    <property name="meta.shotcut.vui">1</property>
    <property name="xml">was here</property>
    <filter id="filter340" out="00:00:01.983">
      <property name="background">color:#00000000</property>
      <property name="mlt_service">affine</property>
      <property name="shotcut:filter">affineSizePosition</property>
      <property name="transition.fill">1</property>
      <property name="transition.distort">0</property>
      <property name="transition.rect">332.64 97.8173 540 540 1</property>
      <property name="transition.valign">middle</property>
      <property name="transition.halign">center</property>
      <property name="shotcut:animIn">00:00:00.000</property>
      <property name="shotcut:animOut">00:00:00.000</property>
      <property name="transition.threads">0</property>
    </filter>
  </producer>
  <producer id="producer110" in="00:00:00.000" out="00:00:01.983">
    <property name="length">00:00:02.000</property>
    <property name="eof">loop</property>
    <property name="resource">images/studying tirelessly.rawr</property>
    <property name="background">#00000000</property>
    <property name="aspect_ratio">1</property>
    <property name="progressive">1</property>
    <property name="seekable">1</property>
    <property name="meta.media.width">512</property>
    <property name="meta.media.height">512</property>
    <property name="meta.media.sample_aspect_num">1</property>
    <property name="meta.media.sample_aspect_den">1</property>
    <property name="meta.media.frame_rate">60</property>
    <property name="first_frame">0</property>
    <property name="mlt_service">glaxnimate</property>
    <property name="creation_time">2023-11-29T03:37:51</property>
    <property name="shotcut:hash">309d31beedff0095c7a488bed70ad1de</property>
    <property name="shotcut:caption">studying tirelessly.rawr</property>
    <property name="meta.shotcut.vui">1</property>
    <property name="xml">was here</property>
    <filter id="filter341" out="00:00:01.983">
      <property name="background">color:#00000000</property>
      <property name="mlt_service">affine</property>
      <property name="shotcut:filter">affineSizePosition</property>
      <property name="transition.fill">1</property>
      <property name="transition.distort">0</property>
      <property name="transition.rect">332.64 97.8173 540 540 1</property>
      <property name="transition.valign">middle</property>
      <property name="transition.halign">center</property>
      <property name="shotcut:animIn">00:00:00.000</property>
      <property name="shotcut:animOut">00:00:00.000</property>
      <property name="transition.threads">0</property>
    </filter>
  </producer>
  <producer id="producer111" in="00:00:00.000" out="00:00:01.983">
    <property name="length">00:00:02.000</property>
    <property name="eof">loop</property>
    <property name="resource">images/studying tirelessly.rawr</property>
    <property name="background">#00000000</property>
    <property name="aspect_ratio">1</property>
    <property name="progressive">1</property>
    <property name="seekable">1</property>
    <property name="meta.media.width">512</property>
    <property name="meta.media.height">512</property>
    <property name="meta.media.sample_aspect_num">1</property>
    <property name="meta.media.sample_aspect_den">1</property>
    <property name="meta.media.frame_rate">60</property>
    <property name="first_frame">0</property>
    <property name="mlt_service">glaxnimate</property>
    <property name="creation_time">2023-11-29T03:37:51</property>
    <property name="shotcut:hash">309d31beedff0095c7a488bed70ad1de</property>
    <property name="shotcut:caption">studying tirelessly.rawr</property>
    <property name="meta.shotcut.vui">1</property>
    <property name="xml">was here</property>
    <filter id="filter342" out="00:00:01.983">
      <property name="background">color:#00000000</property>
      <property name="mlt_service">affine</property>
      <property name="shotcut:filter">affineSizePosition</property>
      <property name="transition.fill">1</property>
      <property name="transition.distort">0</property>
      <property name="transition.rect">332.64 97.8173 540 540 1</property>
      <property name="transition.valign">middle</property>
      <property name="transition.halign">center</property>
      <property name="shotcut:animIn">00:00:00.000</property>
      <property name="shotcut:animOut">00:00:00.000</property>
      <property name="transition.threads">0</property>
    </filter>
  </producer>
  <producer id="producer112" in="00:00:00.000" out="00:00:01.983">
    <property name="length">00:00:02.000</property>
    <property name="eof">loop</property>
    <property name="resource">images/studying tirelessly.rawr</property>
    <property name="background">#00000000</property>
    <property name="aspect_ratio">1</property>
    <property name="progressive">1</property>
    <property name="seekable">1</property>
    <property name="meta.media.width">512</property>
    <property name="meta.media.height">512</property>
    <property name="meta.media.sample_aspect_num">1</property>
    <property name="meta.media.sample_aspect_den">1</property>
    <property name="meta.media.frame_rate">60</property>
    <property name="first_frame">0</property>
    <property name="mlt_service">glaxnimate</property>
    <property name="creation_time">2023-11-29T03:37:51</property>
    <property name="shotcut:hash">309d31beedff0095c7a488bed70ad1de</property>
    <property name="shotcut:caption">studying tirelessly.rawr</property>
    <property name="meta.shotcut.vui">1</property>
    <property name="xml">was here</property>
    <filter id="filter343" out="00:00:01.983">
      <property name="background">color:#00000000</property>
      <property name="mlt_service">affine</property>
      <property name="shotcut:filter">affineSizePosition</property>
      <property name="transition.fill">1</property>
      <property name="transition.distort">0</property>
      <property name="transition.rect">332.64 97.8173 540 540 1</property>
      <property name="transition.valign">middle</property>
      <property name="transition.halign">center</property>
      <property name="shotcut:animIn">00:00:00.000</property>
      <property name="shotcut:animOut">00:00:00.000</property>
      <property name="transition.threads">0</property>
    </filter>
  </producer>
  <producer id="producer113" in="00:00:00.000" out="00:00:01.983">
    <property name="length">00:00:02.000</property>
    <property name="eof">loop</property>
    <property name="resource">images/studying tirelessly.rawr</property>
    <property name="background">#00000000</property>
    <property name="aspect_ratio">1</property>
    <property name="progressive">1</property>
    <property name="seekable">1</property>
    <property name="meta.media.width">512</property>
    <property name="meta.media.height">512</property>
    <property name="meta.media.sample_aspect_num">1</property>
    <property name="meta.media.sample_aspect_den">1</property>
    <property name="meta.media.frame_rate">60</property>
    <property name="first_frame">0</property>
    <property name="mlt_service">glaxnimate</property>
    <property name="creation_time">2023-11-29T03:37:51</property>
    <property name="shotcut:hash">309d31beedff0095c7a488bed70ad1de</property>
    <property name="shotcut:caption">studying tirelessly.rawr</property>
    <property name="meta.shotcut.vui">1</property>
    <property name="xml">was here</property>
    <filter id="filter344" out="00:00:01.983">
      <property name="background">color:#00000000</property>
      <property name="mlt_service">affine</property>
      <property name="shotcut:filter">affineSizePosition</property>
      <property name="transition.fill">1</property>
      <property name="transition.distort">0</property>
      <property name="transition.rect">332.64 97.8173 540 540 1</property>
      <property name="transition.valign">middle</property>
      <property name="transition.halign">center</property>
      <property name="shotcut:animIn">00:00:00.000</property>
      <property name="shotcut:animOut">00:00:00.000</property>
      <property name="transition.threads">0</property>
    </filter>
  </producer>
  <producer id="producer114" in="00:00:00.000" out="00:00:01.983">
    <property name="length">00:00:02.000</property>
    <property name="eof">loop</property>
    <property name="resource">images/studying tirelessly.rawr</property>
    <property name="background">#00000000</property>
    <property name="aspect_ratio">1</property>
    <property name="progressive">1</property>
    <property name="seekable">1</property>
    <property name="meta.media.width">512</property>
    <property name="meta.media.height">512</property>
    <property name="meta.media.sample_aspect_num">1</property>
    <property name="meta.media.sample_aspect_den">1</property>
    <property name="meta.media.frame_rate">60</property>
    <property name="first_frame">0</property>
    <property name="mlt_service">glaxnimate</property>
    <property name="creation_time">2023-11-29T03:37:51</property>
    <property name="shotcut:hash">309d31beedff0095c7a488bed70ad1de</property>
    <property name="shotcut:caption">studying tirelessly.rawr</property>
    <property name="meta.shotcut.vui">1</property>
    <property name="xml">was here</property>
    <filter id="filter345" out="00:00:01.983">
      <property name="background">color:#00000000</property>
      <property name="mlt_service">affine</property>
      <property name="shotcut:filter">affineSizePosition</property>
      <property name="transition.fill">1</property>
      <property name="transition.distort">0</property>
      <property name="transition.rect">332.64 97.8173 540 540 1</property>
      <property name="transition.valign">middle</property>
      <property name="transition.halign">center</property>
      <property name="shotcut:animIn">00:00:00.000</property>
      <property name="shotcut:animOut">00:00:00.000</property>
      <property name="transition.threads">0</property>
    </filter>
    <filter id="filter346" out="00:00:01.983">
      <property name="start">1</property>
      <property name="level">1</property>
      <property name="mlt_service">brightness</property>
      <property name="shotcut:filter">fadeOutBrightness</property>
      <property name="alpha">00:00:01.000=1;00:00:01.983=0</property>
      <property name="shotcut:animOut">00:00:01.000</property>
    </filter>
  </producer>
  <producer id="producer115" in="00:00:00.000" out="03:59:59.983">
    <property name="length">04:00:00.000</property>
    <property name="eof">pause</property>
    <property name="resource">#00000000</property>
    <property name="aspect_ratio">1</property>
    <property name="mlt_service">color</property>
    <property name="mlt_image_format">rgba</property>
    <property name="shotcut:caption">transparent</property>
    <property name="xml">was here</property>
    <property name="seekable">1</property>
    <property name="meta.shotcut.vui">1</property>
    <filter id="filter347" in="00:00:02.000" out="00:00:05.983">
      <property name="argument">text</property>
      <property name="geometry">0 360 1920 720 1</property>
      <property name="family">Sans</property>
      <property name="size">48</property>
      <property name="weight">400</property>
      <property name="style">normal</property>
      <property name="fgcolour">0x000000ff</property>
      <property name="bgcolour">#00000000</property>
      <property name="olcolour">0x00000000</property>
      <property name="pad">0</property>
      <property name="halign">left</property>
      <property name="valign">top</property>
      <property name="outline">0</property>
      <property name="pixel_ratio">1</property>
      <property name="opacity">1</property>
      <property name="mlt_service">qtext</property>
      <property name="shotcut:filter">richText</property>
      <property name="html">&lt;!DOCTYPE HTML PUBLIC &quot;-//W3C//DTD HTML 4.0//EN&quot; &quot;http://www.w3.org/TR/REC-html40/strict.dtd&quot;&gt;
&lt;html&gt;&lt;head&gt;&lt;meta name=&quot;qrichtext&quot; content=&quot;1&quot; /&gt;&lt;meta charset=&quot;utf-8&quot; /&gt;&lt;style type=&quot;text/css&quot;&gt;
p, li { white-space: pre-wrap; }
hr { height: 1px; border-width: 0; }
li.unchecked::marker { content: &quot;\2610&quot;; }
li.checked::marker { content: &quot;\2612&quot;; }
&lt;/style&gt;&lt;/head&gt;&lt;body style=&quot; font-family:'Microsoft JhengHei UI'; font-size:9pt; font-weight:400; font-style:normal;&quot;&gt;
&lt;p style=&quot; margin-top:0px; margin-bottom:0px; margin-left:0px; margin-right:0px; -qt-block-indent:0; text-indent:0px;&quot;&gt;&lt;span style=&quot; font-family:'Times New Roman'; font-size:72pt; color:#000000;&quot;&gt; &lt;/span&gt;&lt;span style=&quot; font-family:'Times New Roman'; font-size:72pt; font-weight:700; color:#000000;&quot;&gt;·&lt;/span&gt;&lt;span style=&quot; font-family:'Times New Roman'; font-size:72pt; color:#000000;&quot;&gt; &lt;/span&gt;&lt;span style=&quot; font-family:'Times New Roman'; font-size:72pt; font-style:italic; color:#0000ff;&quot;&gt;heavy burst&lt;/span&gt;&lt;span style=&quot; font-family:'Times New Roman'; font-size:72pt; color:#0000ff;&quot;&gt; of studying before an exam&lt;/span&gt;&lt;/p&gt;
&lt;p style=&quot; margin-top:0px; margin-bottom:0px; margin-left:0px; margin-right:0px; -qt-block-indent:0; text-indent:0px;&quot;&gt;&lt;span style=&quot; font-family:'Times New Roman'; font-size:72pt; color:#000000;&quot;&gt;   followed &lt;/span&gt;&lt;span style=&quot; font-family:'Times New Roman'; font-size:72pt; color:#aa0000;&quot;&gt;a long period of &lt;/span&gt;&lt;span style=&quot; font-family:'Times New Roman'; font-size:72pt; font-style:italic; color:#aa0000;&quot;&gt;neglect&lt;/span&gt;&lt;span style=&quot; font-family:'Times New Roman'; font-size:72pt; color:#000000;&quot;&gt; (Soomer,&lt;/span&gt;&lt;/p&gt;
&lt;p style=&quot; margin-top:0px; margin-bottom:0px; margin-left:0px; margin-right:0px; -qt-block-indent:0; text-indent:0px;&quot;&gt;&lt;span style=&quot; font-family:'Times New Roman'; font-size:72pt; color:#000000;&quot;&gt;   1968)&lt;/span&gt;&lt;/p&gt;
&lt;p style=&quot; margin-top:0px; margin-bottom:0px; margin-left:0px; margin-right:0px; -qt-block-indent:0; text-indent:0px;&quot;&gt;&lt;span style=&quot; font-family:'Times New Roman'; font-size:72pt; color:#000000;&quot;&gt; &lt;/span&gt;&lt;span style=&quot; font-family:'Times New Roman'; font-size:72pt; font-weight:700; color:#000000;&quot;&gt;·&lt;/span&gt;&lt;span style=&quot; font-family:'Times New Roman'; font-size:72pt; color:#000000;&quot;&gt; &lt;/span&gt;&lt;span style=&quot; font-family:'Times New Roman'; font-size:72pt; font-style:italic; color:#aa0000;&quot;&gt;neglect&lt;/span&gt;&lt;span style=&quot; font-family:'Times New Roman'; font-size:72pt; color:#aa0000;&quot;&gt; studying for three or more weeks&lt;/span&gt;&lt;span style=&quot; font-family:'Times New Roman'; font-size:72pt; color:#000000;&quot;&gt; and&lt;/span&gt;&lt;/p&gt;
&lt;p style=&quot; margin-top:0px; margin-bottom:0px; margin-left:0px; margin-right:0px; -qt-block-indent:0; text-indent:0px;&quot;&gt;&lt;span style=&quot; font-family:'Times New Roman'; font-size:72pt; color:#000000;&quot;&gt;   then &lt;/span&gt;&lt;span style=&quot; font-family:'Times New Roman'; font-size:72pt; color:#0000ff;&quot;&gt;a &lt;/span&gt;&lt;span style=&quot; font-family:'Times New Roman'; font-size:72pt; font-style:italic; color:#0000ff;&quot;&gt;burst&lt;/span&gt;&lt;span style=&quot; font-family:'Times New Roman'; font-size:72pt; color:#0000ff;&quot;&gt; of study before the tests&lt;/span&gt;&lt;span style=&quot; font-family:'Times New Roman'; font-size:72pt; color:#000000;&quot;&gt; (Vacha &amp;amp;&lt;/span&gt;&lt;/p&gt;
&lt;p style=&quot; margin-top:0px; margin-bottom:0px; margin-left:0px; margin-right:0px; -qt-block-indent:0; text-indent:0px;&quot;&gt;&lt;span style=&quot; font-family:'Times New Roman'; font-size:72pt; color:#000000;&quot;&gt;   McBride, 1993)&lt;/span&gt;&lt;span style=&quot; font-family:'Times New Roman'; font-size:72pt; font-weight:600; color:#000000;&quot;&gt;&lt;br /&gt;&lt;/span&gt;&lt;/p&gt;&lt;/body&gt;&lt;/html&gt;</property>
      <property name="shotcut:animIn">00:00:00.000</property>
      <property name="shotcut:animOut">00:00:00.000</property>
    </filter>
    <filter id="filter348" in="00:00:02.000" out="00:00:05.983">
      <property name="version">0.3</property>
      <property name="mlt_service">frei0r.saturat0r</property>
      <property name="threads">0</property>
      <property name="0">0</property>
    </filter>
    <filter id="filter349" in="00:00:02.000" out="00:00:05.983">
      <property name="start">1</property>
      <property name="level">1</property>
      <property name="mlt_service">brightness</property>
      <property name="shotcut:filter">fadeInBrightness</property>
      <property name="alpha">00:00:00.000=0;00:00:00.983=1</property>
      <property name="shotcut:animIn">00:00:01.000</property>
    </filter>
    <filter id="filter350" in="00:00:02.000" out="00:00:05.983">
      <property name="start">1</property>
      <property name="level">1</property>
      <property name="mlt_service">brightness</property>
      <property name="shotcut:filter">fadeOutBrightness</property>
      <property name="alpha">00:00:03.500=1;00:00:03.983=0</property>
      <property name="shotcut:animOut">00:00:00.500</property>
    </filter>
  </producer>
  <producer id="producer116" in="00:00:00.000" out="03:59:59.983">
    <property name="length">04:00:00.000</property>
    <property name="eof">pause</property>
    <property name="resource">images/F.png</property>
    <property name="ttl">1</property>
    <property name="aspect_ratio">1</property>
    <property name="meta.media.progressive">1</property>
    <property name="seekable">1</property>
    <property name="format">2</property>
    <property name="meta.media.width">266</property>
    <property name="meta.media.height">369</property>
    <property name="mlt_service">qimage</property>
    <property name="creation_time">2023-11-29T03:58:02</property>
    <property name="shotcut:hash">4c7788f56af136ad7ba4132e0aa114b7</property>
    <property name="shotcut:caption">F.png</property>
    <property name="meta.shotcut.vui">1</property>
    <property name="xml">was here</property>
    <filter id="filter351" out="00:00:09.483">
      <property name="background">color:#00000000</property>
      <property name="mlt_service">affine</property>
      <property name="shotcut:filter">affineSizePosition</property>
      <property name="transition.fill">1</property>
      <property name="transition.distort">0</property>
      <property name="transition.rect">00:00:00.000C=100 -332.462 194.634 270 1;00:00:01.000=63.7633 635.381 194.634 270 1</property>
      <property name="transition.valign">middle</property>
      <property name="transition.halign">center</property>
      <property name="shotcut:animIn">00:00:00.000</property>
      <property name="shotcut:animOut">00:00:00.000</property>
      <property name="transition.threads">0</property>
      <property name="transition.fix_rotate_x">347.105</property>
    </filter>
  </producer>
  <playlist id="playlist7">
    <property name="shotcut:video">1</property>
    <property name="shotcut:name">V6</property>
    <property name="shotcut:lock">0</property>
    <blank length="00:00:31.000"/>
    <entry producer="producer95" in="00:00:00.000" out="00:00:01.983"/>
    <entry producer="producer96" in="00:00:00.000" out="00:00:01.983"/>
    <blank length="00:00:17.000"/>
    <entry producer="producer97" in="00:00:00.000" out="00:00:05.983"/>
    <blank length="00:00:34.000"/>
    <entry producer="producer98" in="00:00:00.000" out="00:00:05.983"/>
    <blank length="00:00:04.000"/>
    <entry producer="producer99" in="00:00:00.000" out="00:00:06.983"/>
    <blank length="00:00:10.000"/>
    <entry producer="producer100" in="00:00:00.000" out="00:00:01.983"/>
    <entry producer="producer101" in="00:00:00.000" out="00:00:01.983"/>
    <entry producer="producer102" in="00:00:00.000" out="00:00:01.983"/>
    <entry producer="producer103" in="00:00:00.000" out="00:00:01.983"/>
    <entry producer="producer104" in="00:00:00.000" out="00:00:00.983"/>
    <blank length="00:01:06.000"/>
    <entry producer="producer105" in="00:00:00.000" out="00:00:01.983"/>
    <entry producer="producer106" in="00:00:00.000" out="00:00:01.983"/>
    <entry producer="producer107" in="00:00:00.000" out="00:00:01.983"/>
    <entry producer="producer108" in="00:00:00.000" out="00:00:01.983"/>
    <entry producer="producer109" in="00:00:00.000" out="00:00:01.983"/>
    <entry producer="producer110" in="00:00:00.000" out="00:00:01.983"/>
    <entry producer="producer111" in="00:00:00.000" out="00:00:01.983"/>
    <entry producer="producer112" in="00:00:00.000" out="00:00:01.983"/>
    <entry producer="producer113" in="00:00:00.000" out="00:00:01.983"/>
    <entry producer="producer114" in="00:00:00.000" out="00:00:01.983"/>
    <blank length="00:01:20.000"/>
    <entry producer="producer115" in="00:00:02.000" out="00:00:05.983"/>
    <blank length="00:00:40.500"/>
    <entry producer="producer116" in="00:00:00.000" out="00:00:09.483"/>
  </playlist>
  <producer id="producer117" in="00:00:00.000" out="03:59:59.983">
    <property name="length">04:00:00.000</property>
    <property name="eof">pause</property>
    <property name="resource">images/A+.png</property>
    <property name="ttl">1</property>
    <property name="aspect_ratio">1</property>
    <property name="meta.media.progressive">1</property>
    <property name="seekable">1</property>
    <property name="format">2</property>
    <property name="meta.media.width">266</property>
    <property name="meta.media.height">369</property>
    <property name="mlt_service">qimage</property>
    <property name="creation_time">2023-11-29T04:04:17</property>
    <property name="shotcut:hash">cbabd7278ca17b73144b31bf5d9218f4</property>
    <property name="shotcut:caption">A+.png</property>
    <property name="xml">was here</property>
    <property name="meta.shotcut.vui">1</property>
    <filter id="filter352" out="00:00:03.983">
      <property name="background">color:#00000000</property>
      <property name="mlt_service">affine</property>
      <property name="shotcut:filter">affineSizePosition</property>
      <property name="transition.fill">1</property>
      <property name="transition.distort">0</property>
      <property name="transition.rect">492.424 667.116 194.634 270 1</property>
      <property name="transition.valign">middle</property>
      <property name="transition.halign">center</property>
      <property name="shotcut:animIn">00:00:00.000</property>
      <property name="shotcut:animOut">00:00:00.000</property>
      <property name="transition.threads">0</property>
      <property name="transition.fix_rotate_x">6.38195</property>
    </filter>
    <filter id="filter353" out="00:00:03.983">
      <property name="start">1</property>
      <property name="level">1</property>
      <property name="mlt_service">brightness</property>
      <property name="shotcut:filter">fadeInBrightness</property>
      <property name="alpha">00:00:00.000=0;00:00:00.983=1</property>
      <property name="shotcut:animIn">00:00:01.000</property>
    </filter>
    <filter id="filter354" out="00:00:03.983">
      <property name="start">1</property>
      <property name="level">1</property>
      <property name="mlt_service">brightness</property>
      <property name="shotcut:filter">fadeOutBrightness</property>
      <property name="alpha">00:00:03.667=1;00:00:03.983=0</property>
      <property name="shotcut:animOut">00:00:00.333</property>
    </filter>
  </producer>
  <producer id="producer118" in="00:00:00.000" out="03:59:59.983">
    <property name="length">04:00:00.000</property>
    <property name="eof">pause</property>
    <property name="resource">#00000000</property>
    <property name="aspect_ratio">1</property>
    <property name="mlt_service">color</property>
    <property name="mlt_image_format">rgba</property>
    <property name="shotcut:caption">transparent</property>
    <property name="xml">was here</property>
    <property name="seekable">1</property>
    <property name="meta.shotcut.vui">1</property>
    <filter id="filter355" out="00:00:04.983">
      <property name="argument">a man who
puts off work
is always at hand-
grips with ruin</property>
      <property name="geometry">7 344 1143 716 1</property>
      <property name="family">Vivaldi</property>
      <property name="size">270</property>
      <property name="weight">400</property>
      <property name="style">italic</property>
      <property name="fgcolour">#ff000000</property>
      <property name="bgcolour">#00000000</property>
      <property name="olcolour">#aaffffff</property>
      <property name="pad">0</property>
      <property name="halign">center</property>
      <property name="valign">top</property>
      <property name="outline">3</property>
      <property name="opacity">1.0</property>
      <property name="mlt_service">dynamictext</property>
      <property name="shotcut:filter">dynamicText</property>
      <property name="shotcut:usePointSize">0</property>
      <property name="shotcut:pointSize">60</property>
    </filter>
    <filter id="filter356" out="00:00:04.983">
      <property name="rect">00:00:00.000=0 292 1284 94 1;00:00:03.000=0 292 1284 792 1</property>
      <property name="circle">0</property>
      <property name="color">#00000000</property>
      <property name="radius">0</property>
      <property name="mlt_service">qtcrop</property>
      <property name="shotcut:filter">cropRectangle</property>
      <property name="disable">0</property>
    </filter>
    <filter id="filter359" out="00:00:04.983">
      <property name="start">1</property>
      <property name="level">1</property>
      <property name="mlt_service">brightness</property>
      <property name="shotcut:filter">fadeOutBrightness</property>
      <property name="alpha">00:00:04.500=1;00:00:04.983=0</property>
      <property name="shotcut:animOut">00:00:00.500</property>
    </filter>
  </producer>
  <producer id="producer119" in="00:00:00.000" out="03:59:59.983">
    <property name="length">04:00:00.000</property>
    <property name="eof">pause</property>
    <property name="resource">images/2 arrows.png</property>
    <property name="ttl">1</property>
    <property name="aspect_ratio">1</property>
    <property name="meta.media.progressive">1</property>
    <property name="seekable">1</property>
    <property name="format">2</property>
    <property name="meta.media.width">1920</property>
    <property name="meta.media.height">1080</property>
    <property name="mlt_service">qimage</property>
    <property name="creation_time">2023-11-29T12:44:14</property>
    <property name="shotcut:hash">7669e2f72918b0ac91df69c950a91d8e</property>
    <property name="shotcut:caption">2 arrows.png</property>
    <property name="meta.shotcut.vui">1</property>
    <property name="xml">was here</property>
    <filter id="filter360" out="00:00:02.983">
      <property name="rect">00:00:00.000=0 708 1920 372 1;00:00:02.000=0 179 1920 901 1</property>
      <property name="circle">0</property>
      <property name="color">#00000000</property>
      <property name="radius">0</property>
      <property name="mlt_service">qtcrop</property>
      <property name="shotcut:filter">cropRectangle</property>
      <property name="disable">0</property>
    </filter>
    <filter id="filter361" out="00:00:02.983">
      <property name="start">1</property>
      <property name="level">1</property>
      <property name="mlt_service">brightness</property>
      <property name="shotcut:filter">fadeOutBrightness</property>
      <property name="alpha">00:00:02.667=1;00:00:02.983=0</property>
      <property name="shotcut:animOut">00:00:00.333</property>
    </filter>
  </producer>
  <producer id="producer120" in="00:00:00.000" out="03:59:59.983">
    <property name="length">04:00:00.000</property>
    <property name="eof">pause</property>
    <property name="resource">images/F.png</property>
    <property name="ttl">1</property>
    <property name="aspect_ratio">1</property>
    <property name="meta.media.progressive">1</property>
    <property name="seekable">1</property>
    <property name="format">2</property>
    <property name="meta.media.width">266</property>
    <property name="meta.media.height">369</property>
    <property name="mlt_service">qimage</property>
    <property name="creation_time">2023-11-29T03:58:02</property>
    <property name="shotcut:hash">4c7788f56af136ad7ba4132e0aa114b7</property>
    <property name="shotcut:caption">F.png</property>
    <property name="meta.shotcut.vui">1</property>
    <property name="xml">was here</property>
    <filter id="filter362" out="00:00:06.983">
      <property name="background">color:#00000000</property>
      <property name="mlt_service">affine</property>
      <property name="shotcut:filter">affineSizePosition</property>
      <property name="transition.fill">1</property>
      <property name="transition.distort">0</property>
      <property name="transition.rect">00:00:02.000C=0 -400 194.634 270 1;00:00:03.283=32.0017 726.624 194.634 270 1</property>
      <property name="transition.valign">middle</property>
      <property name="transition.halign">center</property>
      <property name="shotcut:animIn">00:00:00.000</property>
      <property name="shotcut:animOut">00:00:00.000</property>
      <property name="transition.threads">0</property>
      <property name="transition.fix_rotate_x">346.523</property>
    </filter>
    <filter id="filter363" out="00:00:06.983">
      <property name="start">1</property>
      <property name="level">1</property>
      <property name="mlt_service">brightness</property>
      <property name="shotcut:filter">fadeOutBrightness</property>
      <property name="alpha">00:00:06.400=1;00:00:06.983=0</property>
      <property name="shotcut:animOut">00:00:00.600</property>
    </filter>
  </producer>
  <producer id="producer121" in="00:00:00.000" out="00:00:01.983">
    <property name="length">00:00:02.000</property>
    <property name="eof">loop</property>
    <property name="resource">images/studying tirelessly.rawr</property>
    <property name="background">#00000000</property>
    <property name="aspect_ratio">1</property>
    <property name="progressive">1</property>
    <property name="seekable">1</property>
    <property name="meta.media.width">512</property>
    <property name="meta.media.height">512</property>
    <property name="meta.media.sample_aspect_num">1</property>
    <property name="meta.media.sample_aspect_den">1</property>
    <property name="meta.media.frame_rate">60</property>
    <property name="first_frame">0</property>
    <property name="mlt_service">glaxnimate</property>
    <property name="creation_time">2023-11-29T03:37:51</property>
    <property name="shotcut:hash">309d31beedff0095c7a488bed70ad1de</property>
    <property name="shotcut:caption">studying tirelessly.rawr</property>
    <property name="meta.shotcut.vui">1</property>
    <property name="xml">was here</property>
    <filter id="filter364" out="00:00:01.983">
      <property name="background">color:#00000000</property>
      <property name="mlt_service">affine</property>
      <property name="shotcut:filter">affineSizePosition</property>
      <property name="transition.fill">1</property>
      <property name="transition.distort">0</property>
      <property name="transition.rect">199.086 324.873 800.609 800.609 1</property>
      <property name="transition.valign">middle</property>
      <property name="transition.halign">center</property>
      <property name="shotcut:animIn">00:00:00.000</property>
      <property name="shotcut:animOut">00:00:00.000</property>
      <property name="transition.threads">0</property>
    </filter>
    <filter id="filter365" out="00:00:01.983">
      <property name="start">1</property>
      <property name="level">1</property>
      <property name="mlt_service">brightness</property>
      <property name="shotcut:filter">fadeInBrightness</property>
      <property name="alpha">00:00:00.000=0;00:00:00.983=1</property>
      <property name="shotcut:animIn">00:00:01.000</property>
    </filter>
  </producer>
  <producer id="producer122" in="00:00:00.000" out="00:00:01.983">
    <property name="length">00:00:02.000</property>
    <property name="eof">loop</property>
    <property name="resource">images/studying tirelessly.rawr</property>
    <property name="background">#00000000</property>
    <property name="aspect_ratio">1</property>
    <property name="progressive">1</property>
    <property name="seekable">1</property>
    <property name="meta.media.width">512</property>
    <property name="meta.media.height">512</property>
    <property name="meta.media.sample_aspect_num">1</property>
    <property name="meta.media.sample_aspect_den">1</property>
    <property name="meta.media.frame_rate">60</property>
    <property name="first_frame">0</property>
    <property name="mlt_service">glaxnimate</property>
    <property name="creation_time">2023-11-29T03:37:51</property>
    <property name="shotcut:hash">309d31beedff0095c7a488bed70ad1de</property>
    <property name="shotcut:caption">studying tirelessly.rawr</property>
    <property name="meta.shotcut.vui">1</property>
    <property name="xml">was here</property>
    <filter id="filter366" out="00:00:01.983">
      <property name="background">color:#00000000</property>
      <property name="mlt_service">affine</property>
      <property name="shotcut:filter">affineSizePosition</property>
      <property name="transition.fill">1</property>
      <property name="transition.distort">0</property>
      <property name="transition.rect">199.086 324.873 800.609 800.609 1</property>
      <property name="transition.valign">middle</property>
      <property name="transition.halign">center</property>
      <property name="shotcut:animIn">00:00:00.000</property>
      <property name="shotcut:animOut">00:00:00.000</property>
      <property name="transition.threads">0</property>
    </filter>
    <filter id="filter367" out="00:00:01.983">
      <property name="start">1</property>
      <property name="level">1</property>
      <property name="mlt_service">brightness</property>
      <property name="shotcut:filter">fadeOutBrightness</property>
      <property name="alpha">00:00:01.667=1;00:00:01.983=0</property>
      <property name="shotcut:animOut">00:00:00.333</property>
    </filter>
  </producer>
  <producer id="producer123" in="00:00:00.000" out="00:00:01.983">
    <property name="length">00:00:02.000</property>
    <property name="eof">loop</property>
    <property name="resource">images/studying effectively.rawr</property>
    <property name="background">#00000000</property>
    <property name="aspect_ratio">1</property>
    <property name="progressive">1</property>
    <property name="seekable">1</property>
    <property name="meta.media.width">512</property>
    <property name="meta.media.height">512</property>
    <property name="meta.media.sample_aspect_num">1</property>
    <property name="meta.media.sample_aspect_den">1</property>
    <property name="meta.media.frame_rate">60</property>
    <property name="first_frame">0</property>
    <property name="mlt_service">glaxnimate</property>
    <property name="creation_time">2023-11-29T04:19:51</property>
    <property name="shotcut:hash">e6bcf97689aa6e34eff35f2c56b1bd77</property>
    <property name="shotcut:caption">studying effectively.rawr</property>
    <property name="meta.shotcut.vui">1</property>
    <property name="xml">was here</property>
    <filter id="filter368" out="00:00:01.983">
      <property name="background">color:#00000000</property>
      <property name="mlt_service">affine</property>
      <property name="shotcut:filter">affineSizePosition</property>
      <property name="transition.fill">1</property>
      <property name="transition.distort">0</property>
      <property name="transition.rect">1073.35 84.8223 540 540 1</property>
      <property name="transition.valign">middle</property>
      <property name="transition.halign">center</property>
      <property name="shotcut:animIn">00:00:00.000</property>
      <property name="shotcut:animOut">00:00:00.000</property>
      <property name="transition.threads">0</property>
    </filter>
    <filter id="filter369" out="00:00:01.983">
      <property name="start">1</property>
      <property name="level">1</property>
      <property name="mlt_service">brightness</property>
      <property name="shotcut:filter">fadeInBrightness</property>
      <property name="alpha">00:00:00.000=0;00:00:00.983=1</property>
      <property name="shotcut:animIn">00:00:01.000</property>
    </filter>
  </producer>
  <producer id="producer124" in="00:00:00.000" out="00:00:01.983">
    <property name="length">00:00:02.000</property>
    <property name="eof">loop</property>
    <property name="resource">images/studying effectively.rawr</property>
    <property name="background">#00000000</property>
    <property name="aspect_ratio">1</property>
    <property name="progressive">1</property>
    <property name="seekable">1</property>
    <property name="meta.media.width">512</property>
    <property name="meta.media.height">512</property>
    <property name="meta.media.sample_aspect_num">1</property>
    <property name="meta.media.sample_aspect_den">1</property>
    <property name="meta.media.frame_rate">60</property>
    <property name="first_frame">0</property>
    <property name="mlt_service">glaxnimate</property>
    <property name="creation_time">2023-11-29T04:19:51</property>
    <property name="shotcut:hash">e6bcf97689aa6e34eff35f2c56b1bd77</property>
    <property name="shotcut:caption">studying effectively.rawr</property>
    <property name="meta.shotcut.vui">1</property>
    <property name="xml">was here</property>
    <filter id="filter370" out="00:00:01.983">
      <property name="background">color:#00000000</property>
      <property name="mlt_service">affine</property>
      <property name="shotcut:filter">affineSizePosition</property>
      <property name="transition.fill">1</property>
      <property name="transition.distort">0</property>
      <property name="transition.rect">1073.35 84.8223 540 540 1</property>
      <property name="transition.valign">middle</property>
      <property name="transition.halign">center</property>
      <property name="shotcut:animIn">00:00:00.000</property>
      <property name="shotcut:animOut">00:00:00.000</property>
      <property name="transition.threads">0</property>
    </filter>
  </producer>
  <producer id="producer125" in="00:00:00.000" out="00:00:01.983">
    <property name="length">00:00:02.000</property>
    <property name="eof">loop</property>
    <property name="resource">images/studying effectively.rawr</property>
    <property name="background">#00000000</property>
    <property name="aspect_ratio">1</property>
    <property name="progressive">1</property>
    <property name="seekable">1</property>
    <property name="meta.media.width">512</property>
    <property name="meta.media.height">512</property>
    <property name="meta.media.sample_aspect_num">1</property>
    <property name="meta.media.sample_aspect_den">1</property>
    <property name="meta.media.frame_rate">60</property>
    <property name="first_frame">0</property>
    <property name="mlt_service">glaxnimate</property>
    <property name="creation_time">2023-11-29T04:19:51</property>
    <property name="shotcut:hash">e6bcf97689aa6e34eff35f2c56b1bd77</property>
    <property name="shotcut:caption">studying effectively.rawr</property>
    <property name="meta.shotcut.vui">1</property>
    <property name="xml">was here</property>
    <filter id="filter371" out="00:00:01.983">
      <property name="background">color:#00000000</property>
      <property name="mlt_service">affine</property>
      <property name="shotcut:filter">affineSizePosition</property>
      <property name="transition.fill">1</property>
      <property name="transition.distort">0</property>
      <property name="transition.rect">1073.35 84.8223 540 540 1</property>
      <property name="transition.valign">middle</property>
      <property name="transition.halign">center</property>
      <property name="shotcut:animIn">00:00:00.000</property>
      <property name="shotcut:animOut">00:00:00.000</property>
      <property name="transition.threads">0</property>
    </filter>
  </producer>
  <producer id="producer126" in="00:00:00.000" out="00:00:01.983">
    <property name="length">00:00:02.000</property>
    <property name="eof">loop</property>
    <property name="resource">images/studying effectively.rawr</property>
    <property name="background">#00000000</property>
    <property name="aspect_ratio">1</property>
    <property name="progressive">1</property>
    <property name="seekable">1</property>
    <property name="meta.media.width">512</property>
    <property name="meta.media.height">512</property>
    <property name="meta.media.sample_aspect_num">1</property>
    <property name="meta.media.sample_aspect_den">1</property>
    <property name="meta.media.frame_rate">60</property>
    <property name="first_frame">0</property>
    <property name="mlt_service">glaxnimate</property>
    <property name="creation_time">2023-11-29T04:19:51</property>
    <property name="shotcut:hash">e6bcf97689aa6e34eff35f2c56b1bd77</property>
    <property name="shotcut:caption">studying effectively.rawr</property>
    <property name="meta.shotcut.vui">1</property>
    <property name="xml">was here</property>
    <filter id="filter372" out="00:00:01.983">
      <property name="background">color:#00000000</property>
      <property name="mlt_service">affine</property>
      <property name="shotcut:filter">affineSizePosition</property>
      <property name="transition.fill">1</property>
      <property name="transition.distort">0</property>
      <property name="transition.rect">1073.35 84.8223 540 540 1</property>
      <property name="transition.valign">middle</property>
      <property name="transition.halign">center</property>
      <property name="shotcut:animIn">00:00:00.000</property>
      <property name="shotcut:animOut">00:00:00.000</property>
      <property name="transition.threads">0</property>
    </filter>
  </producer>
  <producer id="producer127" in="00:00:00.000" out="00:00:01.983">
    <property name="length">00:00:02.000</property>
    <property name="eof">loop</property>
    <property name="resource">images/studying effectively.rawr</property>
    <property name="background">#00000000</property>
    <property name="aspect_ratio">1</property>
    <property name="progressive">1</property>
    <property name="seekable">1</property>
    <property name="meta.media.width">512</property>
    <property name="meta.media.height">512</property>
    <property name="meta.media.sample_aspect_num">1</property>
    <property name="meta.media.sample_aspect_den">1</property>
    <property name="meta.media.frame_rate">60</property>
    <property name="first_frame">0</property>
    <property name="mlt_service">glaxnimate</property>
    <property name="creation_time">2023-11-29T04:19:51</property>
    <property name="shotcut:hash">e6bcf97689aa6e34eff35f2c56b1bd77</property>
    <property name="shotcut:caption">studying effectively.rawr</property>
    <property name="meta.shotcut.vui">1</property>
    <property name="xml">was here</property>
    <filter id="filter373" out="00:00:01.983">
      <property name="background">color:#00000000</property>
      <property name="mlt_service">affine</property>
      <property name="shotcut:filter">affineSizePosition</property>
      <property name="transition.fill">1</property>
      <property name="transition.distort">0</property>
      <property name="transition.rect">1073.35 84.8223 540 540 1</property>
      <property name="transition.valign">middle</property>
      <property name="transition.halign">center</property>
      <property name="shotcut:animIn">00:00:00.000</property>
      <property name="shotcut:animOut">00:00:00.000</property>
      <property name="transition.threads">0</property>
    </filter>
  </producer>
  <producer id="producer128" in="00:00:00.000" out="00:00:01.983">
    <property name="length">00:00:02.000</property>
    <property name="eof">loop</property>
    <property name="resource">images/studying effectively.rawr</property>
    <property name="background">#00000000</property>
    <property name="aspect_ratio">1</property>
    <property name="progressive">1</property>
    <property name="seekable">1</property>
    <property name="meta.media.width">512</property>
    <property name="meta.media.height">512</property>
    <property name="meta.media.sample_aspect_num">1</property>
    <property name="meta.media.sample_aspect_den">1</property>
    <property name="meta.media.frame_rate">60</property>
    <property name="first_frame">0</property>
    <property name="mlt_service">glaxnimate</property>
    <property name="creation_time">2023-11-29T04:19:51</property>
    <property name="shotcut:hash">e6bcf97689aa6e34eff35f2c56b1bd77</property>
    <property name="shotcut:caption">studying effectively.rawr</property>
    <property name="meta.shotcut.vui">1</property>
    <property name="xml">was here</property>
    <filter id="filter374" out="00:00:01.983">
      <property name="background">color:#00000000</property>
      <property name="mlt_service">affine</property>
      <property name="shotcut:filter">affineSizePosition</property>
      <property name="transition.fill">1</property>
      <property name="transition.distort">0</property>
      <property name="transition.rect">1073.35 84.8223 540 540 1</property>
      <property name="transition.valign">middle</property>
      <property name="transition.halign">center</property>
      <property name="shotcut:animIn">00:00:00.000</property>
      <property name="shotcut:animOut">00:00:00.000</property>
      <property name="transition.threads">0</property>
    </filter>
  </producer>
  <producer id="producer129" in="00:00:00.000" out="00:00:01.983">
    <property name="length">00:00:02.000</property>
    <property name="eof">loop</property>
    <property name="resource">images/studying effectively.rawr</property>
    <property name="background">#00000000</property>
    <property name="aspect_ratio">1</property>
    <property name="progressive">1</property>
    <property name="seekable">1</property>
    <property name="meta.media.width">512</property>
    <property name="meta.media.height">512</property>
    <property name="meta.media.sample_aspect_num">1</property>
    <property name="meta.media.sample_aspect_den">1</property>
    <property name="meta.media.frame_rate">60</property>
    <property name="first_frame">0</property>
    <property name="mlt_service">glaxnimate</property>
    <property name="creation_time">2023-11-29T04:19:51</property>
    <property name="shotcut:hash">e6bcf97689aa6e34eff35f2c56b1bd77</property>
    <property name="shotcut:caption">studying effectively.rawr</property>
    <property name="meta.shotcut.vui">1</property>
    <property name="xml">was here</property>
    <filter id="filter375" out="00:00:01.983">
      <property name="background">color:#00000000</property>
      <property name="mlt_service">affine</property>
      <property name="shotcut:filter">affineSizePosition</property>
      <property name="transition.fill">1</property>
      <property name="transition.distort">0</property>
      <property name="transition.rect">1073.35 84.8223 540 540 1</property>
      <property name="transition.valign">middle</property>
      <property name="transition.halign">center</property>
      <property name="shotcut:animIn">00:00:00.000</property>
      <property name="shotcut:animOut">00:00:00.000</property>
      <property name="transition.threads">0</property>
    </filter>
  </producer>
  <producer id="producer130" in="00:00:00.000" out="00:00:01.983">
    <property name="length">00:00:02.000</property>
    <property name="eof">loop</property>
    <property name="resource">images/studying effectively.rawr</property>
    <property name="background">#00000000</property>
    <property name="aspect_ratio">1</property>
    <property name="progressive">1</property>
    <property name="seekable">1</property>
    <property name="meta.media.width">512</property>
    <property name="meta.media.height">512</property>
    <property name="meta.media.sample_aspect_num">1</property>
    <property name="meta.media.sample_aspect_den">1</property>
    <property name="meta.media.frame_rate">60</property>
    <property name="first_frame">0</property>
    <property name="mlt_service">glaxnimate</property>
    <property name="creation_time">2023-11-29T04:19:51</property>
    <property name="shotcut:hash">e6bcf97689aa6e34eff35f2c56b1bd77</property>
    <property name="shotcut:caption">studying effectively.rawr</property>
    <property name="meta.shotcut.vui">1</property>
    <property name="xml">was here</property>
    <filter id="filter376" out="00:00:01.983">
      <property name="background">color:#00000000</property>
      <property name="mlt_service">affine</property>
      <property name="shotcut:filter">affineSizePosition</property>
      <property name="transition.fill">1</property>
      <property name="transition.distort">0</property>
      <property name="transition.rect">1073.35 84.8223 540 540 1</property>
      <property name="transition.valign">middle</property>
      <property name="transition.halign">center</property>
      <property name="shotcut:animIn">00:00:00.000</property>
      <property name="shotcut:animOut">00:00:00.000</property>
      <property name="transition.threads">0</property>
    </filter>
  </producer>
  <producer id="producer131" in="00:00:00.000" out="00:00:01.983">
    <property name="length">00:00:02.000</property>
    <property name="eof">loop</property>
    <property name="resource">images/studying effectively.rawr</property>
    <property name="background">#00000000</property>
    <property name="aspect_ratio">1</property>
    <property name="progressive">1</property>
    <property name="seekable">1</property>
    <property name="meta.media.width">512</property>
    <property name="meta.media.height">512</property>
    <property name="meta.media.sample_aspect_num">1</property>
    <property name="meta.media.sample_aspect_den">1</property>
    <property name="meta.media.frame_rate">60</property>
    <property name="first_frame">0</property>
    <property name="mlt_service">glaxnimate</property>
    <property name="creation_time">2023-11-29T04:19:51</property>
    <property name="shotcut:hash">e6bcf97689aa6e34eff35f2c56b1bd77</property>
    <property name="shotcut:caption">studying effectively.rawr</property>
    <property name="meta.shotcut.vui">1</property>
    <property name="xml">was here</property>
    <filter id="filter377" out="00:00:01.983">
      <property name="background">color:#00000000</property>
      <property name="mlt_service">affine</property>
      <property name="shotcut:filter">affineSizePosition</property>
      <property name="transition.fill">1</property>
      <property name="transition.distort">0</property>
      <property name="transition.rect">1073.35 84.8223 540 540 1</property>
      <property name="transition.valign">middle</property>
      <property name="transition.halign">center</property>
      <property name="shotcut:animIn">00:00:00.000</property>
      <property name="shotcut:animOut">00:00:00.000</property>
      <property name="transition.threads">0</property>
    </filter>
  </producer>
  <producer id="producer133" in="00:00:00.000" out="00:00:01.983">
    <property name="length">00:00:02.000</property>
    <property name="eof">loop</property>
    <property name="resource">images/studying effectively.rawr</property>
    <property name="background">#00000000</property>
    <property name="aspect_ratio">1</property>
    <property name="progressive">1</property>
    <property name="seekable">1</property>
    <property name="meta.media.width">512</property>
    <property name="meta.media.height">512</property>
    <property name="meta.media.sample_aspect_num">1</property>
    <property name="meta.media.sample_aspect_den">1</property>
    <property name="meta.media.frame_rate">60</property>
    <property name="first_frame">0</property>
    <property name="mlt_service">glaxnimate</property>
    <property name="creation_time">2023-11-29T04:19:51</property>
    <property name="shotcut:hash">e6bcf97689aa6e34eff35f2c56b1bd77</property>
    <property name="shotcut:caption">studying effectively.rawr</property>
    <property name="meta.shotcut.vui">1</property>
    <property name="xml">was here</property>
    <filter id="filter378" out="00:00:01.983">
      <property name="background">color:#00000000</property>
      <property name="mlt_service">affine</property>
      <property name="shotcut:filter">affineSizePosition</property>
      <property name="transition.fill">1</property>
      <property name="transition.distort">0</property>
      <property name="transition.rect">1073.35 84.8223 540 540 1</property>
      <property name="transition.valign">middle</property>
      <property name="transition.halign">center</property>
      <property name="shotcut:animIn">00:00:00.000</property>
      <property name="shotcut:animOut">00:00:00.000</property>
      <property name="transition.threads">0</property>
    </filter>
    <filter id="filter379" out="00:00:01.983">
      <property name="start">1</property>
      <property name="level">1</property>
      <property name="mlt_service">brightness</property>
      <property name="shotcut:filter">fadeOutBrightness</property>
      <property name="alpha">00:00:01.250=1;00:00:01.983=0</property>
      <property name="shotcut:animOut">00:00:00.750</property>
    </filter>
  </producer>
  <producer id="producer134" in="00:00:00.000" out="03:59:59.983">
    <property name="length">04:00:00.000</property>
    <property name="eof">pause</property>
    <property name="resource">images/2 arrows.png</property>
    <property name="ttl">1</property>
    <property name="aspect_ratio">1</property>
    <property name="meta.media.progressive">1</property>
    <property name="seekable">1</property>
    <property name="format">2</property>
    <property name="meta.media.width">1920</property>
    <property name="meta.media.height">1080</property>
    <property name="mlt_service">qimage</property>
    <property name="creation_time">2023-11-29T12:44:14</property>
    <property name="shotcut:hash">7669e2f72918b0ac91df69c950a91d8e</property>
    <property name="shotcut:caption">2 arrows.png</property>
    <property name="meta.shotcut.vui">1</property>
    <property name="xml">was here</property>
    <filter id="filter380" out="00:00:02.983">
      <property name="rect">00:00:00.000=0 708 1920 372 1;00:00:02.000=0 179 1920 901 1</property>
      <property name="circle">0</property>
      <property name="color">#00000000</property>
      <property name="radius">0</property>
      <property name="mlt_service">qtcrop</property>
      <property name="shotcut:filter">cropRectangle</property>
      <property name="disable">0</property>
    </filter>
    <filter id="filter381" out="00:00:02.983">
      <property name="version">0.3</property>
      <property name="mlt_service">frei0r.saturat0r</property>
      <property name="threads">0</property>
      <property name="0">0</property>
    </filter>
    <filter id="filter382" out="00:00:02.983">
      <property name="start">1</property>
      <property name="level">1</property>
      <property name="mlt_service">brightness</property>
      <property name="shotcut:filter">fadeOutBrightness</property>
      <property name="alpha">00:00:02.500=1;00:00:02.983=0</property>
      <property name="shotcut:animOut">00:00:00.500</property>
    </filter>
  </producer>
  <producer id="producer135" in="00:00:00.000" out="03:59:59.983">
    <property name="length">04:00:00.000</property>
    <property name="eof">pause</property>
    <property name="resource">images/A+.png</property>
    <property name="ttl">1</property>
    <property name="aspect_ratio">1</property>
    <property name="meta.media.progressive">1</property>
    <property name="seekable">1</property>
    <property name="format">2</property>
    <property name="meta.media.width">266</property>
    <property name="meta.media.height">369</property>
    <property name="mlt_service">qimage</property>
    <property name="creation_time">2023-11-29T04:04:17</property>
    <property name="shotcut:hash">cbabd7278ca17b73144b31bf5d9218f4</property>
    <property name="shotcut:caption">A+.png</property>
    <property name="meta.shotcut.vui">1</property>
    <property name="xml">was here</property>
    <filter id="filter383" out="00:00:07.483">
      <property name="background">color:#00000000</property>
      <property name="mlt_service">affine</property>
      <property name="shotcut:filter">affineSizePosition</property>
      <property name="transition.fill">1</property>
      <property name="transition.distort">0</property>
      <property name="transition.rect">00:00:00.000C=847 -332.462 194.634 270 1;00:00:00.633C=866.272 -230.67 194.634 270 1;00:00:01.367C=866 -231 194.634 270 1;00:00:02.150=846.707 687.361 194.634 270 1</property>
      <property name="transition.valign">middle</property>
      <property name="transition.halign">center</property>
      <property name="shotcut:animIn">00:00:00.000</property>
      <property name="shotcut:animOut">00:00:00.000</property>
      <property name="transition.threads">0</property>
      <property name="transition.fix_rotate_x">3.4</property>
    </filter>
  </producer>
  <playlist id="playlist8">
    <property name="shotcut:video">1</property>
    <property name="shotcut:name">V7</property>
    <property name="shotcut:lock">0</property>
    <blank length="00:00:31.000"/>
    <entry producer="producer117" in="00:00:00.000" out="00:00:03.983"/>
    <blank length="00:00:18.000"/>
    <entry producer="producer118" in="00:00:00.000" out="00:00:04.983"/>
    <blank length="00:00:37.000"/>
    <entry producer="producer119" in="00:00:00.000" out="00:00:02.983"/>
    <blank length="00:00:04.000"/>
    <entry producer="producer120" in="00:00:00.000" out="00:00:06.983"/>
    <blank length="00:00:15.000"/>
    <entry producer="producer121" in="00:00:00.000" out="00:00:01.983"/>
    <entry producer="producer122" in="00:00:00.000" out="00:00:01.983"/>
    <blank length="00:01:06.000"/>
    <entry producer="producer123" in="00:00:00.000" out="00:00:01.983"/>
    <entry producer="producer124" in="00:00:00.000" out="00:00:01.983"/>
    <entry producer="producer125" in="00:00:00.000" out="00:00:01.983"/>
    <entry producer="producer126" in="00:00:00.000" out="00:00:01.983"/>
    <entry producer="producer127" in="00:00:00.000" out="00:00:01.983"/>
    <entry producer="producer128" in="00:00:00.000" out="00:00:01.983"/>
    <entry producer="producer129" in="00:00:00.000" out="00:00:01.983"/>
    <entry producer="producer130" in="00:00:00.000" out="00:00:01.983"/>
    <entry producer="producer131" in="00:00:00.000" out="00:00:01.983"/>
    <entry producer="producer133" in="00:00:00.000" out="00:00:01.983"/>
    <blank length="00:01:21.000"/>
    <entry producer="producer134" in="00:00:00.000" out="00:00:02.983"/>
    <blank length="00:00:42.500"/>
    <entry producer="producer135" in="00:00:00.000" out="00:00:07.483"/>
  </playlist>
  <producer id="producer136" in="00:00:00.000" out="03:59:59.983">
    <property name="length">04:00:00.000</property>
    <property name="eof">pause</property>
    <property name="resource">images/Herm_of_Plato._Vatican_Museums,_Pio-Clementine_Museum._(8536313958).jpg</property>
    <property name="ttl">1</property>
    <property name="aspect_ratio">1</property>
    <property name="meta.media.progressive">1</property>
    <property name="seekable">1</property>
    <property name="format">1</property>
    <property name="meta.media.width">800</property>
    <property name="meta.media.height">1024</property>
    <property name="mlt_service">qimage</property>
    <property name="creation_time">2023-11-29T06:25:16</property>
    <property name="shotcut:hash">3660580a21f104ef8b64121d81be99c7</property>
    <property name="shotcut:caption">Herm_of_Plato._Vatican_Museums,_Pio-Clementine_Museum._(8536313958).jpg</property>
    <property name="meta.shotcut.vui">1</property>
    <property name="xml">was here</property>
    <filter id="filter384" out="00:00:05.983">
      <property name="version">0.4</property>
      <property name="mlt_service">frei0r.bluescreen0r</property>
      <property name="threads">0</property>
      <property name="0">#ff000000</property>
      <property name="1">0.01</property>
      <property name="disable">0</property>
    </filter>
    <filter id="filter385" out="00:00:05.983">
      <property name="argument">Sergey Sosnovskiy from Saint-Petersburg, Russia,
CC BY-SA 2.0, via Wikimedia Commons</property>
      <property name="geometry">320 0 1280 1080 1</property>
      <property name="family">Times New Roman</property>
      <property name="size">540</property>
      <property name="weight">400</property>
      <property name="style">normal</property>
      <property name="fgcolour">#ffffffff</property>
      <property name="bgcolour">#00000000</property>
      <property name="olcolour">#aa000000</property>
      <property name="pad">0</property>
      <property name="halign">center</property>
      <property name="valign">bottom</property>
      <property name="outline">3</property>
      <property name="opacity">1.0</property>
      <property name="mlt_service">dynamictext</property>
      <property name="shotcut:filter">dynamicText</property>
      <property name="shotcut:usePointSize">0</property>
      <property name="shotcut:animIn">00:00:00.000</property>
      <property name="shotcut:animOut">00:00:00.000</property>
    </filter>
    <filter id="filter386" out="00:00:05.983">
      <property name="argument">Hedroid</property>
      <property name="geometry">300 540 960 540 1</property>
      <property name="family">Times New Roman</property>
      <property name="size">1080</property>
      <property name="weight">400</property>
      <property name="style">normal</property>
      <property name="fgcolour">#ff000000</property>
      <property name="bgcolour">#00000000</property>
      <property name="olcolour">#aaffffff</property>
      <property name="pad">0</property>
      <property name="halign">center</property>
      <property name="valign">middle</property>
      <property name="outline">8</property>
      <property name="opacity">1.0</property>
      <property name="mlt_service">dynamictext</property>
      <property name="shotcut:filter">dynamicText</property>
      <property name="shotcut:usePointSize">0</property>
      <property name="shotcut:animIn">00:00:00.000</property>
      <property name="shotcut:animOut">00:00:00.000</property>
    </filter>
    <filter id="filter387" out="00:00:05.983">
      <property name="background">color:#00000000</property>
      <property name="mlt_service">affine</property>
      <property name="shotcut:filter">affineSizePosition</property>
      <property name="transition.fill">1</property>
      <property name="transition.distort">0</property>
      <property name="transition.rect">1081.88 2.4 840 1075.2 1</property>
      <property name="transition.valign">middle</property>
      <property name="transition.halign">center</property>
      <property name="shotcut:animIn">00:00:00.000</property>
      <property name="shotcut:animOut">00:00:00.000</property>
      <property name="transition.threads">0</property>
    </filter>
    <filter id="filter388" out="00:00:05.983">
      <property name="start">1</property>
      <property name="level">1</property>
      <property name="mlt_service">brightness</property>
      <property name="shotcut:filter">fadeInBrightness</property>
      <property name="alpha">00:00:00.000=0;00:00:00.983=1</property>
      <property name="shotcut:animIn">00:00:01.000</property>
    </filter>
    <filter id="filter389" out="00:00:05.983">
      <property name="start">1</property>
      <property name="level">1</property>
      <property name="mlt_service">brightness</property>
      <property name="shotcut:filter">fadeOutBrightness</property>
      <property name="alpha">00:00:05.000=1;00:00:05.983=0</property>
      <property name="shotcut:animOut">00:00:01.000</property>
    </filter>
  </producer>
  <producer id="producer137" in="00:00:00.000" out="03:59:59.983">
    <property name="length">04:00:00.000</property>
    <property name="eof">pause</property>
    <property name="resource">images/F.png</property>
    <property name="ttl">1</property>
    <property name="aspect_ratio">1</property>
    <property name="meta.media.progressive">1</property>
    <property name="seekable">1</property>
    <property name="format">2</property>
    <property name="meta.media.width">266</property>
    <property name="meta.media.height">369</property>
    <property name="mlt_service">qimage</property>
    <property name="creation_time">2023-11-29T03:58:02</property>
    <property name="shotcut:hash">4c7788f56af136ad7ba4132e0aa114b7</property>
    <property name="shotcut:caption">F.png</property>
    <property name="meta.shotcut.vui">1</property>
    <property name="xml">was here</property>
    <filter id="filter390" out="00:00:06.983">
      <property name="background">color:#00000000</property>
      <property name="mlt_service">affine</property>
      <property name="shotcut:filter">affineSizePosition</property>
      <property name="transition.fill">1</property>
      <property name="transition.distort">0</property>
      <property name="transition.rect">00:00:02.717C=149 -400 194.634 270 1;00:00:04.967=148.956 482.969 194.634 270 1</property>
      <property name="transition.valign">middle</property>
      <property name="transition.halign">center</property>
      <property name="shotcut:animIn">00:00:00.000</property>
      <property name="shotcut:animOut">00:00:00.000</property>
      <property name="transition.threads">0</property>
      <property name="transition.fix_rotate_x">360</property>
    </filter>
    <filter id="filter391" out="00:00:06.983">
      <property name="start">1</property>
      <property name="level">1</property>
      <property name="mlt_service">brightness</property>
      <property name="shotcut:filter">fadeOutBrightness</property>
      <property name="alpha">00:00:06.300=1;00:00:06.983=0</property>
      <property name="shotcut:animOut">00:00:00.700</property>
    </filter>
  </producer>
  <producer id="producer138" in="00:00:00.000" out="00:00:01.983">
    <property name="length">00:00:02.000</property>
    <property name="eof">loop</property>
    <property name="resource">images/studying effectively.rawr</property>
    <property name="background">#00000000</property>
    <property name="aspect_ratio">1</property>
    <property name="progressive">1</property>
    <property name="seekable">1</property>
    <property name="meta.media.width">512</property>
    <property name="meta.media.height">512</property>
    <property name="meta.media.sample_aspect_num">1</property>
    <property name="meta.media.sample_aspect_den">1</property>
    <property name="meta.media.frame_rate">60</property>
    <property name="first_frame">0</property>
    <property name="mlt_service">glaxnimate</property>
    <property name="creation_time">2023-11-29T04:19:51</property>
    <property name="shotcut:hash">e6bcf97689aa6e34eff35f2c56b1bd77</property>
    <property name="shotcut:caption">studying effectively.rawr</property>
    <property name="meta.shotcut.vui">1</property>
    <property name="xml">was here</property>
    <filter id="filter392" out="00:00:01.983">
      <property name="background">color:#00000000</property>
      <property name="mlt_service">affine</property>
      <property name="shotcut:filter">affineSizePosition</property>
      <property name="transition.fill">1</property>
      <property name="transition.distort">0</property>
      <property name="transition.rect">1030.76 354.112 738.883 738.883 1</property>
      <property name="transition.valign">middle</property>
      <property name="transition.halign">center</property>
      <property name="shotcut:animIn">00:00:00.000</property>
      <property name="shotcut:animOut">00:00:00.000</property>
      <property name="transition.threads">0</property>
    </filter>
    <filter id="filter393" out="00:00:01.983">
      <property name="start">1</property>
      <property name="level">1</property>
      <property name="mlt_service">brightness</property>
      <property name="shotcut:filter">fadeInBrightness</property>
      <property name="alpha">00:00:00.000=0;00:00:00.983=1</property>
      <property name="shotcut:animIn">00:00:01.000</property>
    </filter>
  </producer>
  <producer id="producer139" in="00:00:00.000" out="00:00:01.983">
    <property name="length">00:00:02.000</property>
    <property name="eof">loop</property>
    <property name="resource">images/studying effectively.rawr</property>
    <property name="background">#00000000</property>
    <property name="aspect_ratio">1</property>
    <property name="progressive">1</property>
    <property name="seekable">1</property>
    <property name="meta.media.width">512</property>
    <property name="meta.media.height">512</property>
    <property name="meta.media.sample_aspect_num">1</property>
    <property name="meta.media.sample_aspect_den">1</property>
    <property name="meta.media.frame_rate">60</property>
    <property name="first_frame">0</property>
    <property name="mlt_service">glaxnimate</property>
    <property name="creation_time">2023-11-29T04:19:51</property>
    <property name="shotcut:hash">e6bcf97689aa6e34eff35f2c56b1bd77</property>
    <property name="shotcut:caption">studying effectively.rawr</property>
    <property name="meta.shotcut.vui">1</property>
    <property name="xml">was here</property>
    <filter id="filter394" out="00:00:00.983">
      <property name="background">color:#00000000</property>
      <property name="mlt_service">affine</property>
      <property name="shotcut:filter">affineSizePosition</property>
      <property name="transition.fill">1</property>
      <property name="transition.distort">0</property>
      <property name="transition.rect">1030.76 354.112 738.883 738.883 1</property>
      <property name="transition.valign">middle</property>
      <property name="transition.halign">center</property>
      <property name="shotcut:animIn">00:00:00.000</property>
      <property name="shotcut:animOut">00:00:00.000</property>
      <property name="transition.threads">0</property>
    </filter>
    <filter id="filter395" out="00:00:00.983">
      <property name="start">1</property>
      <property name="level">1</property>
      <property name="mlt_service">brightness</property>
      <property name="shotcut:filter">fadeOutBrightness</property>
      <property name="alpha">00:00:00.667=1;00:00:00.983=0</property>
      <property name="shotcut:animOut">00:00:00.333</property>
    </filter>
  </producer>
  <producer id="producer140" in="00:00:00.000" out="03:59:59.983">
    <property name="length">04:00:00.000</property>
    <property name="eof">pause</property>
    <property name="resource">#00000000</property>
    <property name="aspect_ratio">1</property>
    <property name="mlt_service">color</property>
    <property name="mlt_image_format">rgba</property>
    <property name="shotcut:caption">transparent</property>
    <property name="shotcut:detail">transparent</property>
    <property name="xml">was here</property>
    <property name="seekable">1</property>
    <property name="meta.shotcut.vui">1</property>
    <filter id="filter396" out="00:00:03.983">
      <property name="argument">&lt;</property>
      <property name="geometry">0 0 1920 1080 1</property>
      <property name="family">Times New Roman</property>
      <property name="size">1080</property>
      <property name="weight">700</property>
      <property name="style">normal</property>
      <property name="fgcolour">#ffffffff</property>
      <property name="bgcolour">#00000000</property>
      <property name="olcolour">#aa000000</property>
      <property name="pad">0</property>
      <property name="halign">center</property>
      <property name="valign">top</property>
      <property name="outline">16</property>
      <property name="opacity">1</property>
      <property name="mlt_service">dynamictext</property>
      <property name="shotcut:filter">dynamicText</property>
      <property name="shotcut:usePointSize">0</property>
      <property name="shotcut:pointSize">60</property>
    </filter>
    <filter id="filter397" out="00:00:03.983">
      <property name="background">color:#00000000</property>
      <property name="mlt_service">affine</property>
      <property name="shotcut:filter">affineSizePosition</property>
      <property name="transition.fill">1</property>
      <property name="transition.distort">0</property>
      <property name="transition.rect">240.356 -60 1440 810 1</property>
      <property name="transition.valign">middle</property>
      <property name="transition.halign">center</property>
      <property name="shotcut:animIn">00:00:00.000</property>
      <property name="shotcut:animOut">00:00:00.000</property>
      <property name="transition.threads">0</property>
      <property name="transition.fix_rotate_x">00:00:00.000=0;00:00:04.000=360</property>
    </filter>
    <filter id="filter398" out="00:00:03.983">
      <property name="argument">❓</property>
      <property name="geometry">0 180 1920 360 1</property>
      <property name="family">Times New Roman</property>
      <property name="size">1080</property>
      <property name="weight">700</property>
      <property name="style">normal</property>
      <property name="fgcolour">#fff8312f</property>
      <property name="bgcolour">#00000000</property>
      <property name="olcolour">#ff000000</property>
      <property name="pad">0</property>
      <property name="halign">center</property>
      <property name="valign">top</property>
      <property name="outline">64</property>
      <property name="opacity">1</property>
      <property name="mlt_service">dynamictext</property>
      <property name="shotcut:filter">dynamicText</property>
      <property name="shotcut:usePointSize">0</property>
      <property name="shotcut:pointSize">60</property>
    </filter>
    <filter id="filter399" out="00:00:03.983">
      <property name="start">1</property>
      <property name="level">1</property>
      <property name="mlt_service">brightness</property>
      <property name="shotcut:filter">fadeInBrightness</property>
      <property name="alpha">00:00:00.000=0;00:00:00.983=1</property>
      <property name="shotcut:animIn">00:00:01.000</property>
    </filter>
  </producer>
  <producer id="producer141" in="00:00:00.000" out="03:59:59.983">
    <property name="length">04:00:00.000</property>
    <property name="eof">pause</property>
    <property name="resource">#00000000</property>
    <property name="aspect_ratio">1</property>
    <property name="mlt_service">color</property>
    <property name="mlt_image_format">rgba</property>
    <property name="shotcut:caption">transparent</property>
    <property name="shotcut:detail">transparent</property>
    <property name="xml">was here</property>
    <property name="seekable">1</property>
    <property name="meta.shotcut.vui">1</property>
    <filter id="filter400" out="00:00:03.983">
      <property name="argument">&lt;</property>
      <property name="geometry">0 0 1920 1080 1</property>
      <property name="family">Times New Roman</property>
      <property name="size">1080</property>
      <property name="weight">700</property>
      <property name="style">normal</property>
      <property name="fgcolour">#ffffffff</property>
      <property name="bgcolour">#00000000</property>
      <property name="olcolour">#aa000000</property>
      <property name="pad">0</property>
      <property name="halign">center</property>
      <property name="valign">top</property>
      <property name="outline">16</property>
      <property name="opacity">1</property>
      <property name="mlt_service">dynamictext</property>
      <property name="shotcut:filter">dynamicText</property>
      <property name="shotcut:usePointSize">0</property>
      <property name="shotcut:pointSize">60</property>
    </filter>
    <filter id="filter401" out="00:00:03.983">
      <property name="background">color:#00000000</property>
      <property name="mlt_service">affine</property>
      <property name="shotcut:filter">affineSizePosition</property>
      <property name="transition.fill">1</property>
      <property name="transition.distort">0</property>
      <property name="transition.rect">240.356 -60 1440 810 1</property>
      <property name="transition.valign">middle</property>
      <property name="transition.halign">center</property>
      <property name="shotcut:animIn">00:00:00.000</property>
      <property name="shotcut:animOut">00:00:00.000</property>
      <property name="transition.threads">0</property>
      <property name="transition.fix_rotate_x">00:00:00.000=0;00:00:04.000=360</property>
    </filter>
    <filter id="filter402" out="00:00:03.983">
      <property name="argument">❓</property>
      <property name="geometry">0 180 1920 360 1</property>
      <property name="family">Times New Roman</property>
      <property name="size">1080</property>
      <property name="weight">700</property>
      <property name="style">normal</property>
      <property name="fgcolour">#fff8312f</property>
      <property name="bgcolour">#00000000</property>
      <property name="olcolour">#ff000000</property>
      <property name="pad">0</property>
      <property name="halign">center</property>
      <property name="valign">top</property>
      <property name="outline">64</property>
      <property name="opacity">1</property>
      <property name="mlt_service">dynamictext</property>
      <property name="shotcut:filter">dynamicText</property>
      <property name="shotcut:usePointSize">0</property>
      <property name="shotcut:pointSize">60</property>
    </filter>
  </producer>
  <producer id="producer142" in="00:00:00.000" out="03:59:59.983">
    <property name="length">04:00:00.000</property>
    <property name="eof">pause</property>
    <property name="resource">#00000000</property>
    <property name="aspect_ratio">1</property>
    <property name="mlt_service">color</property>
    <property name="mlt_image_format">rgba</property>
    <property name="shotcut:caption">transparent</property>
    <property name="shotcut:detail">transparent</property>
    <property name="xml">was here</property>
    <property name="seekable">1</property>
    <property name="meta.shotcut.vui">1</property>
    <filter id="filter403" out="00:00:03.983">
      <property name="argument">&lt;</property>
      <property name="geometry">0 0 1920 1080 1</property>
      <property name="family">Times New Roman</property>
      <property name="size">1080</property>
      <property name="weight">700</property>
      <property name="style">normal</property>
      <property name="fgcolour">#ffffffff</property>
      <property name="bgcolour">#00000000</property>
      <property name="olcolour">#aa000000</property>
      <property name="pad">0</property>
      <property name="halign">center</property>
      <property name="valign">top</property>
      <property name="outline">16</property>
      <property name="opacity">1</property>
      <property name="mlt_service">dynamictext</property>
      <property name="shotcut:filter">dynamicText</property>
      <property name="shotcut:usePointSize">0</property>
      <property name="shotcut:pointSize">60</property>
    </filter>
    <filter id="filter404" out="00:00:03.983">
      <property name="background">color:#00000000</property>
      <property name="mlt_service">affine</property>
      <property name="shotcut:filter">affineSizePosition</property>
      <property name="transition.fill">1</property>
      <property name="transition.distort">0</property>
      <property name="transition.rect">240.356 -60 1440 810 1</property>
      <property name="transition.valign">middle</property>
      <property name="transition.halign">center</property>
      <property name="shotcut:animIn">00:00:00.000</property>
      <property name="shotcut:animOut">00:00:00.000</property>
      <property name="transition.threads">0</property>
      <property name="transition.fix_rotate_x">00:00:00.000=0;00:00:04.000=360</property>
    </filter>
    <filter id="filter405" out="00:00:03.983">
      <property name="argument">❓</property>
      <property name="geometry">0 180 1920 360 1</property>
      <property name="family">Times New Roman</property>
      <property name="size">1080</property>
      <property name="weight">700</property>
      <property name="style">normal</property>
      <property name="fgcolour">#fff8312f</property>
      <property name="bgcolour">#00000000</property>
      <property name="olcolour">#ff000000</property>
      <property name="pad">0</property>
      <property name="halign">center</property>
      <property name="valign">top</property>
      <property name="outline">64</property>
      <property name="opacity">1</property>
      <property name="mlt_service">dynamictext</property>
      <property name="shotcut:filter">dynamicText</property>
      <property name="shotcut:usePointSize">0</property>
      <property name="shotcut:pointSize">60</property>
    </filter>
  </producer>
  <producer id="producer143" in="00:00:00.000" out="03:59:59.983">
    <property name="length">04:00:00.000</property>
    <property name="eof">pause</property>
    <property name="resource">#00000000</property>
    <property name="aspect_ratio">1</property>
    <property name="mlt_service">color</property>
    <property name="mlt_image_format">rgba</property>
    <property name="shotcut:caption">transparent</property>
    <property name="shotcut:detail">transparent</property>
    <property name="xml">was here</property>
    <property name="seekable">1</property>
    <property name="meta.shotcut.vui">1</property>
    <filter id="filter406" out="00:00:03.983">
      <property name="argument">&lt;</property>
      <property name="geometry">0 0 1920 1080 1</property>
      <property name="family">Times New Roman</property>
      <property name="size">1080</property>
      <property name="weight">700</property>
      <property name="style">normal</property>
      <property name="fgcolour">#ffffffff</property>
      <property name="bgcolour">#00000000</property>
      <property name="olcolour">#aa000000</property>
      <property name="pad">0</property>
      <property name="halign">center</property>
      <property name="valign">top</property>
      <property name="outline">16</property>
      <property name="opacity">1</property>
      <property name="mlt_service">dynamictext</property>
      <property name="shotcut:filter">dynamicText</property>
      <property name="shotcut:usePointSize">0</property>
      <property name="shotcut:pointSize">60</property>
    </filter>
    <filter id="filter407" out="00:00:03.983">
      <property name="background">color:#00000000</property>
      <property name="mlt_service">affine</property>
      <property name="shotcut:filter">affineSizePosition</property>
      <property name="transition.fill">1</property>
      <property name="transition.distort">0</property>
      <property name="transition.rect">240.356 -60 1440 810 1</property>
      <property name="transition.valign">middle</property>
      <property name="transition.halign">center</property>
      <property name="shotcut:animIn">00:00:00.000</property>
      <property name="shotcut:animOut">00:00:00.000</property>
      <property name="transition.threads">0</property>
      <property name="transition.fix_rotate_x">00:00:00.000=0;00:00:04.000=360</property>
    </filter>
    <filter id="filter408" out="00:00:03.983">
      <property name="argument">❓</property>
      <property name="geometry">0 180 1920 360 1</property>
      <property name="family">Times New Roman</property>
      <property name="size">1080</property>
      <property name="weight">700</property>
      <property name="style">normal</property>
      <property name="fgcolour">#fff8312f</property>
      <property name="bgcolour">#00000000</property>
      <property name="olcolour">#ff000000</property>
      <property name="pad">0</property>
      <property name="halign">center</property>
      <property name="valign">top</property>
      <property name="outline">64</property>
      <property name="opacity">1</property>
      <property name="mlt_service">dynamictext</property>
      <property name="shotcut:filter">dynamicText</property>
      <property name="shotcut:usePointSize">0</property>
      <property name="shotcut:pointSize">60</property>
    </filter>
  </producer>
  <producer id="producer144" in="00:00:00.000" out="03:59:59.983">
    <property name="length">04:00:00.000</property>
    <property name="eof">pause</property>
    <property name="resource">#00000000</property>
    <property name="aspect_ratio">1</property>
    <property name="mlt_service">color</property>
    <property name="mlt_image_format">rgba</property>
    <property name="shotcut:caption">transparent</property>
    <property name="shotcut:detail">transparent</property>
    <property name="xml">was here</property>
    <property name="seekable">1</property>
    <property name="meta.shotcut.vui">1</property>
    <filter id="filter409" out="00:00:03.983">
      <property name="argument">&lt;</property>
      <property name="geometry">0 0 1920 1080 1</property>
      <property name="family">Times New Roman</property>
      <property name="size">1080</property>
      <property name="weight">700</property>
      <property name="style">normal</property>
      <property name="fgcolour">#ffffffff</property>
      <property name="bgcolour">#00000000</property>
      <property name="olcolour">#aa000000</property>
      <property name="pad">0</property>
      <property name="halign">center</property>
      <property name="valign">top</property>
      <property name="outline">16</property>
      <property name="opacity">1</property>
      <property name="mlt_service">dynamictext</property>
      <property name="shotcut:filter">dynamicText</property>
      <property name="shotcut:usePointSize">0</property>
      <property name="shotcut:pointSize">60</property>
    </filter>
    <filter id="filter410" out="00:00:03.983">
      <property name="background">color:#00000000</property>
      <property name="mlt_service">affine</property>
      <property name="shotcut:filter">affineSizePosition</property>
      <property name="transition.fill">1</property>
      <property name="transition.distort">0</property>
      <property name="transition.rect">240.356 -60 1440 810 1</property>
      <property name="transition.valign">middle</property>
      <property name="transition.halign">center</property>
      <property name="shotcut:animIn">00:00:00.000</property>
      <property name="shotcut:animOut">00:00:00.000</property>
      <property name="transition.threads">0</property>
      <property name="transition.fix_rotate_x">00:00:00.000=0;00:00:04.000=360</property>
    </filter>
    <filter id="filter411" out="00:00:03.983">
      <property name="argument">❓</property>
      <property name="geometry">0 180 1920 360 1</property>
      <property name="family">Times New Roman</property>
      <property name="size">1080</property>
      <property name="weight">700</property>
      <property name="style">normal</property>
      <property name="fgcolour">#fff8312f</property>
      <property name="bgcolour">#00000000</property>
      <property name="olcolour">#ff000000</property>
      <property name="pad">0</property>
      <property name="halign">center</property>
      <property name="valign">top</property>
      <property name="outline">64</property>
      <property name="opacity">1</property>
      <property name="mlt_service">dynamictext</property>
      <property name="shotcut:filter">dynamicText</property>
      <property name="shotcut:usePointSize">0</property>
      <property name="shotcut:pointSize">60</property>
    </filter>
    <filter id="filter412" out="00:00:03.983">
      <property name="start">1</property>
      <property name="level">1</property>
      <property name="mlt_service">brightness</property>
      <property name="shotcut:filter">fadeOutBrightness</property>
      <property name="alpha">00:00:03.500=1;00:00:03.983=0</property>
      <property name="shotcut:animOut">00:00:00.500</property>
    </filter>
  </producer>
  <producer id="producer145" in="00:00:00.000" out="03:59:59.983">
    <property name="length">04:00:00.000</property>
    <property name="eof">pause</property>
    <property name="resource">images/A+.png</property>
    <property name="ttl">1</property>
    <property name="aspect_ratio">1</property>
    <property name="meta.media.progressive">1</property>
    <property name="seekable">1</property>
    <property name="format">2</property>
    <property name="meta.media.width">266</property>
    <property name="meta.media.height">369</property>
    <property name="mlt_service">qimage</property>
    <property name="creation_time">2023-11-29T04:04:17</property>
    <property name="shotcut:hash">cbabd7278ca17b73144b31bf5d9218f4</property>
    <property name="shotcut:caption">A+.png</property>
    <property name="meta.shotcut.vui">1</property>
    <property name="xml">was here</property>
    <filter id="filter413" out="00:00:06.017">
      <property name="background">color:#00000000</property>
      <property name="mlt_service">affine</property>
      <property name="shotcut:filter">affineSizePosition</property>
      <property name="transition.fill">1</property>
      <property name="transition.distort">0</property>
      <property name="transition.rect">00:00:00.000C=100 -332.462 194.634 270 1;00:00:01.333=180.718 417.716 194.634 270 1</property>
      <property name="transition.valign">middle</property>
      <property name="transition.halign">center</property>
      <property name="shotcut:animIn">00:00:00.000</property>
      <property name="shotcut:animOut">00:00:00.000</property>
      <property name="transition.threads">0</property>
      <property name="transition.fix_rotate_x">20.7551</property>
    </filter>
  </producer>
  <playlist id="playlist9">
    <property name="shotcut:video">1</property>
    <property name="shotcut:name">V8</property>
    <property name="shotcut:lock">0</property>
    <blank length="00:00:52.000"/>
    <entry producer="producer136" in="00:00:00.000" out="00:00:05.983"/>
    <blank length="00:00:44.000"/>
    <entry producer="producer137" in="00:00:00.000" out="00:00:06.983"/>
    <blank length="00:00:16.000"/>
    <entry producer="producer138" in="00:00:00.000" out="00:00:01.983"/>
    <entry producer="producer139" in="00:00:00.000" out="00:00:00.983"/>
    <blank length="00:01:06.000"/>
    <entry producer="producer140" in="00:00:00.000" out="00:00:03.983"/>
    <entry producer="producer141" in="00:00:00.000" out="00:00:03.983"/>
    <entry producer="producer142" in="00:00:00.000" out="00:00:03.983"/>
    <entry producer="producer143" in="00:00:00.000" out="00:00:03.983"/>
    <entry producer="producer144" in="00:00:00.000" out="00:00:03.983"/>
    <blank length="00:02:07.967"/>
    <entry producer="producer145" in="00:00:00.000" out="00:00:06.017"/>
  </playlist>
  <producer id="producer146" in="00:00:00.000" out="03:59:59.983">
    <property name="length">04:00:00.000</property>
    <property name="eof">pause</property>
    <property name="resource">#00000000</property>
    <property name="aspect_ratio">1</property>
    <property name="mlt_service">color</property>
    <property name="mlt_image_format">rgba</property>
    <property name="shotcut:caption">transparent</property>
    <property name="xml">was here</property>
    <property name="seekable">1</property>
    <property name="meta.shotcut.vui">1</property>
    <filter id="filter414" out="00:00:04.983">
      <property name="argument">(Thakkar, 2009)</property>
      <property name="geometry">10 269 416 113 1</property>
      <property name="family">Times New Roman</property>
      <property name="size">1080</property>
      <property name="weight">400</property>
      <property name="style">normal</property>
      <property name="fgcolour">#ff000000</property>
      <property name="bgcolour">#00000000</property>
      <property name="olcolour">#aaffffff</property>
      <property name="pad">0</property>
      <property name="halign">center</property>
      <property name="valign">top</property>
      <property name="outline">16</property>
      <property name="opacity">1.0</property>
      <property name="mlt_service">dynamictext</property>
      <property name="shotcut:filter">dynamicText</property>
      <property name="shotcut:usePointSize">0</property>
      <property name="shotcut:pointSize">60</property>
    </filter>
    <filter id="filter415" out="00:00:04.983">
      <property name="start">1</property>
      <property name="level">1</property>
      <property name="mlt_service">brightness</property>
      <property name="shotcut:filter">fadeInBrightness</property>
      <property name="alpha">00:00:00.000=0;00:00:00.983=1</property>
      <property name="shotcut:animIn">00:00:01.000</property>
    </filter>
    <filter id="filter416" out="00:00:04.983">
      <property name="start">1</property>
      <property name="level">1</property>
      <property name="mlt_service">brightness</property>
      <property name="shotcut:filter">fadeOutBrightness</property>
      <property name="alpha">00:00:03.500=1;00:00:04.983=0</property>
      <property name="shotcut:animOut">00:00:01.500</property>
    </filter>
  </producer>
  <producer id="producer147" in="00:00:00.000" out="03:59:59.983">
    <property name="length">04:00:00.000</property>
    <property name="eof">pause</property>
    <property name="resource">images/F.png</property>
    <property name="ttl">1</property>
    <property name="aspect_ratio">1</property>
    <property name="meta.media.progressive">1</property>
    <property name="seekable">1</property>
    <property name="format">2</property>
    <property name="meta.media.width">266</property>
    <property name="meta.media.height">369</property>
    <property name="mlt_service">qimage</property>
    <property name="creation_time">2023-11-29T03:58:02</property>
    <property name="shotcut:hash">4c7788f56af136ad7ba4132e0aa114b7</property>
    <property name="shotcut:caption">F.png</property>
    <property name="meta.shotcut.vui">1</property>
    <property name="xml">was here</property>
    <filter id="filter417" out="00:00:06.983">
      <property name="background">color:#00000000</property>
      <property name="mlt_service">affine</property>
      <property name="shotcut:filter">affineSizePosition</property>
      <property name="transition.fill">1</property>
      <property name="transition.distort">0</property>
      <property name="transition.rect">00:00:02.167C=97 -400 194.634 270 1;00:00:03.617=350 648.654 194.634 270 1</property>
      <property name="transition.valign">middle</property>
      <property name="transition.halign">center</property>
      <property name="shotcut:animIn">00:00:00.000</property>
      <property name="shotcut:animOut">00:00:00.000</property>
      <property name="transition.threads">0</property>
      <property name="transition.fix_rotate_x">23.7</property>
    </filter>
    <filter id="filter418" out="00:00:06.983">
      <property name="start">1</property>
      <property name="level">1</property>
      <property name="mlt_service">brightness</property>
      <property name="shotcut:filter">fadeOutBrightness</property>
      <property name="alpha">00:00:06.200=1;00:00:06.983=0</property>
      <property name="shotcut:animOut">00:00:00.800</property>
    </filter>
  </producer>
  <producer id="producer148" in="00:00:00.000" out="03:59:59.983">
    <property name="length">04:00:00.000</property>
    <property name="eof">pause</property>
    <property name="resource">#00000000</property>
    <property name="aspect_ratio">1</property>
    <property name="mlt_service">color</property>
    <property name="mlt_image_format">rgba</property>
    <property name="shotcut:caption">transparent</property>
    <property name="shotcut:detail">transparent</property>
    <property name="xml">was here</property>
    <property name="seekable">1</property>
    <property name="meta.shotcut.vui">1</property>
    <filter id="filter419" out="00:00:01.983">
      <property name="argument">&lt;</property>
      <property name="geometry">0 360 1920 720 1</property>
      <property name="family">Times New Roman</property>
      <property name="size">1080</property>
      <property name="weight">700</property>
      <property name="style">normal</property>
      <property name="fgcolour">#ffffffff</property>
      <property name="bgcolour">#00000000</property>
      <property name="olcolour">#aa000000</property>
      <property name="pad">0</property>
      <property name="halign">center</property>
      <property name="valign">middle</property>
      <property name="outline">16</property>
      <property name="opacity">1.0</property>
      <property name="mlt_service">dynamictext</property>
      <property name="shotcut:filter">dynamicText</property>
      <property name="shotcut:usePointSize">0</property>
      <property name="shotcut:pointSize">60</property>
    </filter>
    <filter id="filter420" out="00:00:01.983">
      <property name="argument">(Walck-Shannon, Rowell, &amp; Frey, 2021)</property>
      <property name="geometry">480 0 960 1080 1</property>
      <property name="family">Times New Roman</property>
      <property name="size">1080</property>
      <property name="weight">400</property>
      <property name="style">normal</property>
      <property name="fgcolour">#ffffffff</property>
      <property name="bgcolour">#00000000</property>
      <property name="olcolour">#aa000000</property>
      <property name="pad">0</property>
      <property name="halign">center</property>
      <property name="valign">bottom</property>
      <property name="outline">3</property>
      <property name="opacity">1.0</property>
      <property name="mlt_service">dynamictext</property>
      <property name="shotcut:filter">dynamicText</property>
      <property name="shotcut:usePointSize">0</property>
      <property name="shotcut:animIn">00:00:00.000</property>
      <property name="shotcut:animOut">00:00:00.000</property>
    </filter>
    <filter id="filter421" out="00:00:01.983">
      <property name="start">1</property>
      <property name="level">1</property>
      <property name="mlt_service">brightness</property>
      <property name="shotcut:filter">fadeInBrightness</property>
      <property name="alpha">00:00:00.000=0;00:00:00.983=1</property>
      <property name="shotcut:animIn">00:00:01.000</property>
    </filter>
    <filter id="filter422" out="00:00:01.983">
      <property name="start">1</property>
      <property name="level">1</property>
      <property name="mlt_service">brightness</property>
      <property name="shotcut:filter">fadeOutBrightness</property>
      <property name="alpha">00:00:01.667=1;00:00:01.983=0</property>
      <property name="shotcut:animOut">00:00:00.333</property>
    </filter>
  </producer>
  <producer id="producer149" in="00:00:00.000" out="00:00:07.983">
    <property name="length">481</property>
    <property name="eof">loop</property>
    <property name="resource">images/teacher.rawr</property>
    <property name="background">#00000000</property>
    <property name="aspect_ratio">1</property>
    <property name="progressive">1</property>
    <property name="seekable">1</property>
    <property name="meta.media.width">512</property>
    <property name="meta.media.height">512</property>
    <property name="meta.media.sample_aspect_num">1</property>
    <property name="meta.media.sample_aspect_den">1</property>
    <property name="meta.media.frame_rate">60</property>
    <property name="first_frame">0</property>
    <property name="mlt_service">glaxnimate</property>
    <property name="creation_time">2023-11-30T02:47:24</property>
    <property name="shotcut:hash">11e016db3f5aa7cf3676aab786fbffdf</property>
    <property name="shotcut:caption">teacher.rawr</property>
    <property name="meta.shotcut.vui">1</property>
    <property name="xml">was here</property>
    <filter id="filter423" out="00:00:07.983">
      <property name="background">color:#00000000</property>
      <property name="mlt_service">affine</property>
      <property name="shotcut:filter">affineSizePosition</property>
      <property name="transition.fill">1</property>
      <property name="transition.distort">0</property>
      <property name="transition.rect">00:00:00.000=1849.8 540 540 540 1;00:00:04.000=680 540 540 540 1</property>
      <property name="transition.valign">middle</property>
      <property name="transition.halign">center</property>
      <property name="shotcut:animIn">00:00:00.000</property>
      <property name="shotcut:animOut">00:00:00.000</property>
      <property name="transition.threads">0</property>
    </filter>
  </producer>
  <producer id="producer150" in="00:00:00.000" out="00:00:03.983">
    <property name="length">00:00:04.000</property>
    <property name="eof">loop</property>
    <property name="resource">images/teacher confused.rawr</property>
    <property name="background">#00000000</property>
    <property name="aspect_ratio">1</property>
    <property name="progressive">1</property>
    <property name="seekable">1</property>
    <property name="meta.media.width">512</property>
    <property name="meta.media.height">512</property>
    <property name="meta.media.sample_aspect_num">1</property>
    <property name="meta.media.sample_aspect_den">1</property>
    <property name="meta.media.frame_rate">60</property>
    <property name="first_frame">0</property>
    <property name="mlt_service">glaxnimate</property>
    <property name="creation_time">2023-11-30T02:59:52</property>
    <property name="shotcut:hash">fca5f05338ec81ba7741b9483a60adc1</property>
    <property name="shotcut:caption">teacher confused.rawr</property>
    <property name="xml">was here</property>
    <property name="meta.shotcut.vui">1</property>
    <filter id="filter424" out="00:00:03.983">
      <property name="background">color:#00000000</property>
      <property name="mlt_service">affine</property>
      <property name="shotcut:filter">affineSizePosition</property>
      <property name="transition.fill">1</property>
      <property name="transition.distort">0</property>
      <property name="transition.rect">680 540 540 540 1</property>
      <property name="transition.valign">middle</property>
      <property name="transition.halign">center</property>
      <property name="shotcut:animIn">00:00:00.000</property>
      <property name="shotcut:animOut">00:00:00.000</property>
      <property name="transition.threads">0</property>
    </filter>
  </producer>
  <producer id="producer151" in="00:00:00.000" out="00:00:03.983">
    <property name="length">00:00:04.000</property>
    <property name="eof">loop</property>
    <property name="resource">images/teacher confused.rawr</property>
    <property name="background">#00000000</property>
    <property name="aspect_ratio">1</property>
    <property name="progressive">1</property>
    <property name="seekable">1</property>
    <property name="meta.media.width">512</property>
    <property name="meta.media.height">512</property>
    <property name="meta.media.sample_aspect_num">1</property>
    <property name="meta.media.sample_aspect_den">1</property>
    <property name="meta.media.frame_rate">60</property>
    <property name="first_frame">0</property>
    <property name="mlt_service">glaxnimate</property>
    <property name="creation_time">2023-11-30T02:59:52</property>
    <property name="shotcut:hash">fca5f05338ec81ba7741b9483a60adc1</property>
    <property name="shotcut:caption">teacher confused.rawr</property>
    <property name="xml">was here</property>
    <property name="meta.shotcut.vui">1</property>
    <filter id="filter425" out="00:00:03.983">
      <property name="background">color:#00000000</property>
      <property name="mlt_service">affine</property>
      <property name="shotcut:filter">affineSizePosition</property>
      <property name="transition.fill">1</property>
      <property name="transition.distort">0</property>
      <property name="transition.rect">680 540 540 540 1</property>
      <property name="transition.valign">middle</property>
      <property name="transition.halign">center</property>
      <property name="shotcut:animIn">00:00:00.000</property>
      <property name="shotcut:animOut">00:00:00.000</property>
      <property name="transition.threads">0</property>
    </filter>
    <filter id="filter426" out="00:00:03.983">
      <property name="start">1</property>
      <property name="level">1</property>
      <property name="mlt_service">brightness</property>
      <property name="shotcut:filter">fadeOutBrightness</property>
      <property name="alpha">00:00:03.750=1;00:00:03.983=0</property>
      <property name="shotcut:animOut">00:00:00.250</property>
    </filter>
  </producer>
  <producer id="producer152" in="00:00:00.000" out="03:59:59.983">
    <property name="length">04:00:00.000</property>
    <property name="eof">pause</property>
    <property name="resource">images/A+.png</property>
    <property name="ttl">1</property>
    <property name="aspect_ratio">1</property>
    <property name="meta.media.progressive">1</property>
    <property name="seekable">1</property>
    <property name="format">2</property>
    <property name="meta.media.width">266</property>
    <property name="meta.media.height">369</property>
    <property name="mlt_service">qimage</property>
    <property name="creation_time">2023-11-29T04:04:17</property>
    <property name="shotcut:hash">cbabd7278ca17b73144b31bf5d9218f4</property>
    <property name="shotcut:caption">A+.png</property>
    <property name="meta.shotcut.vui">1</property>
    <property name="xml">was here</property>
    <filter id="filter427" out="00:00:04.900">
      <property name="background">color:#00000000</property>
      <property name="mlt_service">affine</property>
      <property name="shotcut:filter">affineSizePosition</property>
      <property name="transition.fill">1</property>
      <property name="transition.distort">0</property>
      <property name="transition.rect">00:00:00.000C=600 -332.462 194.634 270 1;00:00:01.000=596.555 524.924 194.634 270 1</property>
      <property name="transition.valign">middle</property>
      <property name="transition.halign">center</property>
      <property name="shotcut:animIn">00:00:00.000</property>
      <property name="shotcut:animOut">00:00:00.000</property>
      <property name="transition.threads">0</property>
      <property name="transition.fix_rotate_x">82.0712</property>
    </filter>
  </producer>
  <playlist id="playlist10">
    <property name="shotcut:video">1</property>
    <property name="shotcut:name">V9</property>
    <property name="shotcut:lock">0</property>
    <blank length="00:00:53.000"/>
    <entry producer="producer146" in="00:00:00.000" out="00:00:04.983"/>
    <blank length="00:00:44.000"/>
    <entry producer="producer147" in="00:00:00.000" out="00:00:06.983"/>
    <blank length="00:00:17.000"/>
    <entry producer="producer148" in="00:00:00.000" out="00:00:01.983"/>
    <blank length="00:01:10.000"/>
    <entry producer="producer149" in="00:00:00.000" out="00:00:07.983"/>
    <entry producer="producer150" in="00:00:00.000" out="00:00:03.983"/>
    <entry producer="producer151" in="00:00:00.000" out="00:00:03.983"/>
    <blank length="00:02:09.083"/>
    <entry producer="producer152" in="00:00:00.000" out="00:00:04.900"/>
  </playlist>
  <producer id="producer153" in="00:00:00.000" out="03:59:59.983">
    <property name="length">04:00:00.000</property>
    <property name="eof">pause</property>
    <property name="resource">images/Ink_and_Quill.png</property>
    <property name="ttl">1</property>
    <property name="aspect_ratio">1</property>
    <property name="meta.media.progressive">1</property>
    <property name="seekable">1</property>
    <property name="format">2</property>
    <property name="meta.media.width">520</property>
    <property name="meta.media.height">606</property>
    <property name="mlt_service">qimage</property>
    <property name="creation_time">2023-11-29T06:31:57</property>
    <property name="shotcut:hash">04ba545f6114df80e57a207c49704a26</property>
    <property name="shotcut:caption">Ink_and_Quill.png</property>
    <property name="meta.shotcut.vui">1</property>
    <property name="xml">was here</property>
    <filter id="filter428" out="00:00:05.983">
      <property name="mlt_service">crop</property>
      <property name="use_profile">1</property>
      <property name="center">0</property>
      <property name="center_bias">0</property>
      <property name="top">0</property>
      <property name="bottom">270</property>
      <property name="left">0</property>
      <property name="right">0</property>
    </filter>
    <filter id="filter429" out="00:00:05.983">
      <property name="background">color:#00000000</property>
      <property name="mlt_service">affine</property>
      <property name="shotcut:filter">affineSizePosition</property>
      <property name="transition.fill">1</property>
      <property name="transition.distort">0</property>
      <property name="transition.rect">589.193 108 741.386 864 1</property>
      <property name="transition.valign">middle</property>
      <property name="transition.halign">center</property>
      <property name="shotcut:animIn">00:00:00.000</property>
      <property name="shotcut:animOut">00:00:00.000</property>
      <property name="transition.threads">0</property>
      <property name="transition.fix_rotate_x">55</property>
    </filter>
    <filter id="filter430" out="00:00:05.983">
      <property name="argument">Latte1703, CC BY-SA 4.0,
via Wikimedia Commons</property>
      <property name="geometry">552 345 960 540 1</property>
      <property name="family">Times New Roman</property>
      <property name="size">540</property>
      <property name="weight">400</property>
      <property name="style">normal</property>
      <property name="fgcolour">#ff000000</property>
      <property name="bgcolour">#00000000</property>
      <property name="olcolour">#aaffffff</property>
      <property name="pad">0</property>
      <property name="halign">center</property>
      <property name="valign">middle</property>
      <property name="outline">3</property>
      <property name="opacity">1.0</property>
      <property name="mlt_service">dynamictext</property>
      <property name="shotcut:filter">dynamicText</property>
      <property name="shotcut:usePointSize">0</property>
      <property name="shotcut:animIn">00:00:00.000</property>
      <property name="shotcut:animOut">00:00:00.000</property>
    </filter>
    <filter id="filter431" out="00:00:05.983">
      <property name="background">color:#00000000</property>
      <property name="mlt_service">affine</property>
      <property name="shotcut:filter">affineSizePosition</property>
      <property name="transition.fill">1</property>
      <property name="transition.distort">0</property>
      <property name="transition.rect">00:00:01.000=79.9975 -24.8805 463.366 540 1;00:00:01.150=198.933 30.6553 463.366 540 1;00:00:01.267=366.47 -63.148 463.366 540 1;00:00:01.383=417.015 13.4242 463.366 540 1;00:00:01.450=505.929 -18.4797 463.366 540 1;00:00:01.600=609.619 64.7896 463.366 540 1;00:00:01.717=665.74 33.2407 463.366 540 1;00:00:01.833=739.175 -11.8446 463.366 540 1;00:00:02.000=70.4799 153.496 463.366 540 1;00:00:02.133=277.749 190.532 463.366 540 1;00:00:02.300=496.582 115.541 463.366 540 1;00:00:02.467=679.053 247.737 463.366 540 1;00:00:02.633=16.2 294.958 463.366 540 1;00:00:02.833=192.875 451.932 463.366 540 1;00:00:02.967=454.635 297.367 463.366 540 1;00:00:03.067=575.257 424.533 463.366 540 1;00:00:03.233=822.186 331.058 463.366 540 1;00:00:03.333=9.40293 469.252 463.366 540 1;00:00:03.433=144.17 532.252 463.366 540 1;00:00:03.600=336.53 416.38 463.366 540 1;00:00:03.700=552.533 603.402 463.366 540 1;00:00:03.867=721.049 426.188 463.366 540 1;00:00:04.000=820.475 561.604 463.366 540 1</property>
      <property name="transition.valign">middle</property>
      <property name="transition.halign">center</property>
      <property name="shotcut:animIn">00:00:00.000</property>
      <property name="shotcut:animOut">00:00:00.000</property>
      <property name="transition.threads">0</property>
      <property name="transition.fix_rotate_x">297.14</property>
    </filter>
    <filter id="filter432" out="00:00:05.983">
      <property name="start">1</property>
      <property name="level">1</property>
      <property name="mlt_service">brightness</property>
      <property name="shotcut:filter">fadeInBrightness</property>
      <property name="alpha">00:00:00.000=0;00:00:00.983=1</property>
      <property name="shotcut:animIn">00:00:01.000</property>
    </filter>
    <filter id="filter433" out="00:00:05.983">
      <property name="start">1</property>
      <property name="level">1</property>
      <property name="mlt_service">brightness</property>
      <property name="shotcut:filter">fadeOutBrightness</property>
      <property name="alpha">00:00:04.500=1;00:00:05.983=0</property>
      <property name="shotcut:animOut">00:00:01.500</property>
    </filter>
  </producer>
  <producer id="producer154" in="00:00:00.000" out="03:59:59.983">
    <property name="length">04:00:00.000</property>
    <property name="eof">pause</property>
    <property name="resource">images/F.png</property>
    <property name="ttl">1</property>
    <property name="aspect_ratio">1</property>
    <property name="meta.media.progressive">1</property>
    <property name="seekable">1</property>
    <property name="format">2</property>
    <property name="meta.media.width">266</property>
    <property name="meta.media.height">369</property>
    <property name="mlt_service">qimage</property>
    <property name="creation_time">2023-11-29T03:58:02</property>
    <property name="shotcut:hash">4c7788f56af136ad7ba4132e0aa114b7</property>
    <property name="shotcut:caption">F.png</property>
    <property name="meta.shotcut.vui">1</property>
    <property name="xml">was here</property>
    <filter id="filter434" out="00:00:06.983">
      <property name="background">color:#00000000</property>
      <property name="mlt_service">affine</property>
      <property name="shotcut:filter">affineSizePosition</property>
      <property name="transition.fill">1</property>
      <property name="transition.distort">0</property>
      <property name="transition.rect">00:00:02.767C=97 -400 194.634 270 1;00:00:04.083=187.941 603.172 194.634 270 1</property>
      <property name="transition.valign">middle</property>
      <property name="transition.halign">center</property>
      <property name="shotcut:animIn">00:00:00.000</property>
      <property name="shotcut:animOut">00:00:00.000</property>
      <property name="transition.threads">0</property>
      <property name="transition.fix_rotate_x">11.5093</property>
    </filter>
    <filter id="filter435" out="00:00:06.983">
      <property name="start">1</property>
      <property name="level">1</property>
      <property name="mlt_service">brightness</property>
      <property name="shotcut:filter">fadeOutBrightness</property>
      <property name="alpha">00:00:06.100=1;00:00:06.983=0</property>
      <property name="shotcut:animOut">00:00:00.900</property>
    </filter>
  </producer>
  <producer id="producer155" in="00:00:00.000" out="03:59:59.983">
    <property name="length">04:00:00.000</property>
    <property name="eof">pause</property>
    <property name="resource">#00000000</property>
    <property name="aspect_ratio">1</property>
    <property name="mlt_service">color</property>
    <property name="mlt_image_format">rgba</property>
    <property name="shotcut:caption">transparent</property>
    <property name="shotcut:detail">transparent</property>
    <property name="xml">was here</property>
    <property name="seekable">1</property>
    <property name="meta.shotcut.vui">1</property>
    <filter id="filter436" out="00:00:03.983">
      <property name="argument">❓</property>
      <property name="geometry">00:00:00.000$=442 198 640 360 1;00:00:01.083$=633 49 640 360 1;00:00:02.200$=886 193 640 360 1;00:00:03.233$=627 252 640 360 1;00:00:04.000=442 198 640 360 1</property>
      <property name="family">Times New Roman</property>
      <property name="size">1080</property>
      <property name="weight">700</property>
      <property name="style">normal</property>
      <property name="fgcolour">#fff8312f</property>
      <property name="bgcolour">#00000000</property>
      <property name="olcolour">#ff000000</property>
      <property name="pad">0</property>
      <property name="halign">center</property>
      <property name="valign">top</property>
      <property name="outline">64</property>
      <property name="opacity">00:00:00.000=0;00:00:01.000=1;00:00:03.000=1;00:00:04.000=0</property>
      <property name="mlt_service">dynamictext</property>
      <property name="shotcut:filter">dynamicText</property>
      <property name="shotcut:usePointSize">0</property>
      <property name="shotcut:pointSize">60</property>
    </filter>
    <filter id="filter437" out="00:00:03.983">
      <property name="background">color:#00000000</property>
      <property name="mlt_service">affine</property>
      <property name="shotcut:filter">affineSizePosition</property>
      <property name="transition.fill">1</property>
      <property name="transition.distort">0</property>
      <property name="transition.rect">486.497 500.66 960 540 1</property>
      <property name="transition.valign">middle</property>
      <property name="transition.halign">center</property>
      <property name="shotcut:animIn">00:00:00.000</property>
      <property name="shotcut:animOut">00:00:00.000</property>
      <property name="transition.threads">0</property>
    </filter>
  </producer>
  <producer id="producer156" in="00:00:00.000" out="03:59:59.983">
    <property name="length">04:00:00.000</property>
    <property name="eof">pause</property>
    <property name="resource">#00000000</property>
    <property name="aspect_ratio">1</property>
    <property name="mlt_service">color</property>
    <property name="mlt_image_format">rgba</property>
    <property name="shotcut:caption">transparent</property>
    <property name="shotcut:detail">transparent</property>
    <property name="xml">was here</property>
    <property name="seekable">1</property>
    <property name="meta.shotcut.vui">1</property>
    <filter id="filter438" out="00:00:03.983">
      <property name="argument">❓</property>
      <property name="geometry">00:00:00.000$=442 198 640 360 1;00:00:01.083$=633 49 640 360 1;00:00:02.200$=886 193 640 360 1;00:00:03.233$=627 252 640 360 1;00:00:04.000=442 198 640 360 1</property>
      <property name="family">Times New Roman</property>
      <property name="size">1080</property>
      <property name="weight">700</property>
      <property name="style">normal</property>
      <property name="fgcolour">#fff8312f</property>
      <property name="bgcolour">#00000000</property>
      <property name="olcolour">#ff000000</property>
      <property name="pad">0</property>
      <property name="halign">center</property>
      <property name="valign">top</property>
      <property name="outline">64</property>
      <property name="opacity">00:00:00.000=0;00:00:01.000=1;00:00:03.000=1;00:00:04.000=0</property>
      <property name="mlt_service">dynamictext</property>
      <property name="shotcut:filter">dynamicText</property>
      <property name="shotcut:usePointSize">0</property>
      <property name="shotcut:pointSize">60</property>
    </filter>
    <filter id="filter439" out="00:00:03.983">
      <property name="background">color:#00000000</property>
      <property name="mlt_service">affine</property>
      <property name="shotcut:filter">affineSizePosition</property>
      <property name="transition.fill">1</property>
      <property name="transition.distort">0</property>
      <property name="transition.rect">486.497 500.66 960 540 1</property>
      <property name="transition.valign">middle</property>
      <property name="transition.halign">center</property>
      <property name="shotcut:animIn">00:00:00.000</property>
      <property name="shotcut:animOut">00:00:00.000</property>
      <property name="transition.threads">0</property>
    </filter>
    <filter id="filter440" out="00:00:03.983">
      <property name="start">1</property>
      <property name="level">1</property>
      <property name="mlt_service">brightness</property>
      <property name="shotcut:filter">fadeOutBrightness</property>
      <property name="alpha">00:00:03.750=1;00:00:03.983=0</property>
      <property name="shotcut:animOut">00:00:00.250</property>
    </filter>
  </producer>
  <producer id="producer157" in="00:00:00.000" out="03:59:59.983">
    <property name="length">04:00:00.000</property>
    <property name="eof">pause</property>
    <property name="resource">images/A+.png</property>
    <property name="ttl">1</property>
    <property name="aspect_ratio">1</property>
    <property name="meta.media.progressive">1</property>
    <property name="seekable">1</property>
    <property name="format">2</property>
    <property name="meta.media.width">266</property>
    <property name="meta.media.height">369</property>
    <property name="mlt_service">qimage</property>
    <property name="creation_time">2023-11-29T04:04:17</property>
    <property name="shotcut:hash">cbabd7278ca17b73144b31bf5d9218f4</property>
    <property name="shotcut:caption">A+.png</property>
    <property name="meta.shotcut.vui">1</property>
    <property name="xml">was here</property>
    <filter id="filter441" out="00:00:03.750">
      <property name="background">color:#00000000</property>
      <property name="mlt_service">affine</property>
      <property name="shotcut:filter">affineSizePosition</property>
      <property name="transition.fill">1</property>
      <property name="transition.distort">0</property>
      <property name="transition.rect">00:00:00.000C=210 -332.462 194.634 270 1;00:00:01.000=391.885 466.447 194.634 270 1</property>
      <property name="transition.valign">middle</property>
      <property name="transition.halign">center</property>
      <property name="shotcut:animIn">00:00:00.000</property>
      <property name="shotcut:animOut">00:00:00.000</property>
      <property name="transition.threads">0</property>
      <property name="transition.fix_rotate_x">12.6112</property>
    </filter>
  </producer>
  <playlist id="playlist11">
    <property name="shotcut:video">1</property>
    <property name="shotcut:name">V10</property>
    <property name="shotcut:lock">0</property>
    <blank length="00:00:52.000"/>
    <entry producer="producer153" in="00:00:00.000" out="00:00:05.983"/>
    <blank length="00:00:44.000"/>
    <entry producer="producer154" in="00:00:00.000" out="00:00:06.983"/>
    <blank length="00:01:37.000"/>
    <entry producer="producer155" in="00:00:00.000" out="00:00:03.983"/>
    <entry producer="producer156" in="00:00:00.000" out="00:00:03.983"/>
    <blank length="00:02:10.233"/>
    <entry producer="producer157" in="00:00:00.000" out="00:00:03.750"/>
  </playlist>
  <producer id="producer158" in="00:00:00.000" out="03:59:59.983">
    <property name="length">04:00:00.000</property>
    <property name="eof">pause</property>
    <property name="resource">#00000000</property>
    <property name="aspect_ratio">1</property>
    <property name="mlt_service">color</property>
    <property name="mlt_image_format">rgba</property>
    <property name="shotcut:caption">transparent</property>
    <property name="xml">was here</property>
    <property name="seekable">1</property>
    <property name="meta.shotcut.vui">1</property>
    <filter id="filter442" out="00:00:06.983">
      <property name="argument">Crewe (1969)</property>
      <property name="geometry">0 0 1920 1080 1</property>
      <property name="family">Times New Roman</property>
      <property name="size">1080</property>
      <property name="weight">400</property>
      <property name="style">normal</property>
      <property name="fgcolour">#ff000000</property>
      <property name="bgcolour">#00000000</property>
      <property name="olcolour">#aaffffff</property>
      <property name="pad">0</property>
      <property name="halign">center</property>
      <property name="valign">middle</property>
      <property name="outline">3</property>
      <property name="opacity">1.0</property>
      <property name="mlt_service">dynamictext</property>
      <property name="shotcut:filter">dynamicText</property>
      <property name="shotcut:usePointSize">0</property>
      <property name="shotcut:animIn">00:00:00.000</property>
      <property name="shotcut:animOut">00:00:00.000</property>
    </filter>
    <filter id="filter443" out="00:00:06.983">
      <property name="background">color:#00000000</property>
      <property name="mlt_service">affine</property>
      <property name="shotcut:filter">affineSizePosition</property>
      <property name="transition.fill">1</property>
      <property name="transition.distort">0</property>
      <property name="transition.rect">00:00:02.767C=97 -400 194.634 270 1;00:00:04.083=187.941 603.172 194.634 270 1</property>
      <property name="transition.valign">middle</property>
      <property name="transition.halign">center</property>
      <property name="shotcut:animIn">00:00:00.000</property>
      <property name="shotcut:animOut">00:00:00.000</property>
      <property name="transition.threads">0</property>
      <property name="transition.fix_rotate_x">11.5093</property>
    </filter>
    <filter id="filter444" out="00:00:06.983">
      <property name="start">1</property>
      <property name="level">1</property>
      <property name="mlt_service">brightness</property>
      <property name="shotcut:filter">fadeOutBrightness</property>
      <property name="alpha">00:00:06.000=1;00:00:06.983=0</property>
      <property name="shotcut:animOut">00:00:01.000</property>
    </filter>
  </producer>
  <producer id="producer159" in="00:00:00.000" out="03:59:59.983">
    <property name="length">04:00:00.000</property>
    <property name="eof">pause</property>
    <property name="resource">images/A+.png</property>
    <property name="ttl">1</property>
    <property name="aspect_ratio">1</property>
    <property name="meta.media.progressive">1</property>
    <property name="seekable">1</property>
    <property name="format">2</property>
    <property name="meta.media.width">266</property>
    <property name="meta.media.height">369</property>
    <property name="mlt_service">qimage</property>
    <property name="creation_time">2023-11-29T04:04:17</property>
    <property name="shotcut:hash">cbabd7278ca17b73144b31bf5d9218f4</property>
    <property name="shotcut:caption">A+.png</property>
    <property name="meta.shotcut.vui">1</property>
    <property name="xml">was here</property>
    <filter id="filter445" out="00:00:02.633">
      <property name="background">color:#00000000</property>
      <property name="mlt_service">affine</property>
      <property name="shotcut:filter">affineSizePosition</property>
      <property name="transition.fill">1</property>
      <property name="transition.distort">0</property>
      <property name="transition.rect">00:00:00.000C=250 -332.462 194.634 270 1;00:00:01.000=288.985 765.33 194.634 270 1</property>
      <property name="transition.valign">middle</property>
      <property name="transition.halign">center</property>
      <property name="shotcut:animIn">00:00:00.000</property>
      <property name="shotcut:animOut">00:00:00.000</property>
      <property name="transition.threads">0</property>
      <property name="transition.fix_rotate_x">301.132</property>
    </filter>
  </producer>
  <playlist id="playlist12">
    <property name="shotcut:video">1</property>
    <property name="shotcut:name">V11</property>
    <property name="shotcut:lock">0</property>
    <blank length="00:01:42.000"/>
    <entry producer="producer158" in="00:00:00.000" out="00:00:06.983"/>
    <blank length="00:03:56.350"/>
    <entry producer="producer159" in="00:00:00.000" out="00:00:02.633"/>
  </playlist>
  <chain id="chain47" out="00:06:37.600">
    <property name="length">00:06:37.617</property>
    <property name="eof">pause</property>
    <property name="resource">music/Brendan Kinsella - Mozart - Piano Sonata in B-flat major, III. Allegretto Grazioso.mp3</property>
    <property name="mlt_service">avformat-novalidate</property>
    <property name="meta.media.nb_streams">1</property>
    <property name="meta.media.0.stream.type">audio</property>
    <property name="meta.media.0.codec.sample_fmt">fltp</property>
    <property name="meta.media.0.codec.sample_rate">44100</property>
    <property name="meta.media.0.codec.channels">2</property>
    <property name="meta.media.0.codec.name">mp3float</property>
    <property name="meta.media.0.codec.long_name">MP3 (MPEG audio layer 3)</property>
    <property name="meta.media.0.codec.bit_rate">128000</property>
    <property name="meta.attr.0.stream.encoder.markup">LAME3.92 </property>
    <property name="meta.attr.title.markup">Mozart - Piano Sonata in B-flat major, III. Allegretto Grazioso</property>
    <property name="meta.attr.artist.markup">Brendan Kinsella</property>
    <property name="meta.attr.track.markup">0</property>
    <property name="meta.attr.album.markup">Mozart's Piano Sonata in B-flat Major</property>
    <property name="meta.attr.date.markup">2009-04-23T15:43:39</property>
    <property name="meta.attr.genre.markup">Classical</property>
    <property name="meta.attr.copyright.markup">Attribution-Noncommercial-Share Alike 3.0 United States: http://creativecommons.org/licenses/by-nc-sa/3.0/us/</property>
    <property name="meta.attr.comment.markup">URL: http://freemusicarchive.org/music/Brendan_Kinsella/Mozarts_Piano_Sonata_in_B-flat_Major/Mozart_-_Piano_Sonata_in_B-flat_major_III_Allegretto_Grazioso
Comments: http://freemusicarchive.org/
Curator: 
Copyright: Attribution-Noncommercial-Share Alike 3.0 United States: http://creativecommons.org/licenses/by-nc-sa/3.0/us/</property>
    <property name="meta.attr.TDAT.markup">2009-04-23 15:43:39</property>
    <property name="meta.attr.TLEN.markup">397546</property>
    <property name="meta.attr.id3v2_priv.WM/MediaClassSecondaryID.markup">\x00\x00\x00\x00\x00\x00\x00\x00\x00\x00\x00\x00\x00\x00\x00\x00</property>
    <property name="meta.attr.id3v2_priv.AverageLevel.markup">\x5c\x05\x00\x00</property>
    <property name="meta.attr.id3v2_priv.WM/MediaClassPrimaryID.markup">\xbc}`\xd1#\xe3\xe2K\x86\xa1H\xa4*(D\x1e</property>
    <property name="meta.attr.id3v2_priv.PeakValue.markup">\xbcK\x00\x00</property>
    <property name="seekable">1</property>
    <property name="audio_index">0</property>
    <property name="video_index">-1</property>
    <property name="creation_time">2023-12-01T00:50:46</property>
    <property name="astream">0</property>
    <property name="shotcut:hash">9e8a54a78882c011eed667e6991340cc</property>
    <property name="shotcut:caption">Brendan Kinsella - Mozart - Piano Sonata in B-flat major, III. Allegretto Grazioso.mp3</property>
    <property name="xml">was here</property>
    <filter id="filter446" out="00:00:16.983">
      <property name="window">75</property>
      <property name="max_gain">20dB</property>
      <property name="level">-6</property>
      <property name="mlt_service">volume</property>
    </filter>
    <filter id="filter447" out="00:00:16.983">
      <property name="window">75</property>
      <property name="max_gain">20dB</property>
      <property name="level">00:00:15.000=0;00:00:16.983=-60</property>
      <property name="mlt_service">volume</property>
      <property name="shotcut:filter">fadeOutVolume</property>
      <property name="shotcut:animOut">00:00:02.000</property>
    </filter>
  </chain>
  <chain id="chain48" out="00:00:32.250">
    <property name="length">00:00:32.267</property>
    <property name="eof">pause</property>
    <property name="resource">music/Danny Bale - Bronkelton Part V_ Getting Dressed.mp3</property>
    <property name="mlt_service">avformat-novalidate</property>
    <property name="meta.media.nb_streams">1</property>
    <property name="meta.media.0.stream.type">audio</property>
    <property name="meta.media.0.codec.sample_fmt">fltp</property>
    <property name="meta.media.0.codec.sample_rate">44100</property>
    <property name="meta.media.0.codec.channels">2</property>
    <property name="meta.media.0.codec.name">mp3float</property>
    <property name="meta.media.0.codec.long_name">MP3 (MPEG audio layer 3)</property>
    <property name="meta.media.0.codec.bit_rate">320000</property>
    <property name="meta.attr.title.markup">Brinkelton Part V: Getting Dressed</property>
    <property name="meta.attr.artist.markup">Danny Bale</property>
    <property name="meta.attr.album.markup">Backgrounds</property>
    <property name="meta.attr.album_artist.markup">Danny Bale</property>
    <property name="meta.attr.genre.markup">Soundtrack</property>
    <property name="meta.attr.date.markup">2022</property>
    <property name="meta.attr.track.markup">11</property>
    <property name="meta.attr.disc.markup">0</property>
    <property name="seekable">1</property>
    <property name="audio_index">0</property>
    <property name="video_index">-1</property>
    <property name="creation_time">2023-12-01T01:09:28</property>
    <property name="astream">0</property>
    <property name="shotcut:hash">a42347fa77d5d2156e0c2096904cd9a7</property>
    <property name="shotcut:caption">Danny Bale - Bronkelton Part V_ Getting Dressed.mp3</property>
    <property name="xml">was here</property>
    <filter id="filter448" out="00:00:03.983">
      <property name="window">75</property>
      <property name="max_gain">20dB</property>
      <property name="level">6</property>
      <property name="mlt_service">volume</property>
    </filter>
  </chain>
  <chain id="chain49" out="00:06:37.600">
    <property name="length">00:06:37.617</property>
    <property name="eof">pause</property>
    <property name="resource">music/Brendan Kinsella - Mozart - Piano Sonata in B-flat major, III. Allegretto Grazioso.mp3</property>
    <property name="mlt_service">avformat-novalidate</property>
    <property name="meta.media.nb_streams">1</property>
    <property name="meta.media.0.stream.type">audio</property>
    <property name="meta.media.0.codec.sample_fmt">fltp</property>
    <property name="meta.media.0.codec.sample_rate">44100</property>
    <property name="meta.media.0.codec.channels">2</property>
    <property name="meta.media.0.codec.name">mp3float</property>
    <property name="meta.media.0.codec.long_name">MP3 (MPEG audio layer 3)</property>
    <property name="meta.media.0.codec.bit_rate">128000</property>
    <property name="meta.attr.0.stream.encoder.markup">LAME3.92 </property>
    <property name="meta.attr.title.markup">Mozart - Piano Sonata in B-flat major, III. Allegretto Grazioso</property>
    <property name="meta.attr.artist.markup">Brendan Kinsella</property>
    <property name="meta.attr.track.markup">0</property>
    <property name="meta.attr.album.markup">Mozart's Piano Sonata in B-flat Major</property>
    <property name="meta.attr.date.markup">2009-04-23T15:43:39</property>
    <property name="meta.attr.genre.markup">Classical</property>
    <property name="meta.attr.copyright.markup">Attribution-Noncommercial-Share Alike 3.0 United States: http://creativecommons.org/licenses/by-nc-sa/3.0/us/</property>
    <property name="meta.attr.comment.markup">URL: http://freemusicarchive.org/music/Brendan_Kinsella/Mozarts_Piano_Sonata_in_B-flat_Major/Mozart_-_Piano_Sonata_in_B-flat_major_III_Allegretto_Grazioso
Comments: http://freemusicarchive.org/
Curator: 
Copyright: Attribution-Noncommercial-Share Alike 3.0 United States: http://creativecommons.org/licenses/by-nc-sa/3.0/us/</property>
    <property name="meta.attr.TDAT.markup">2009-04-23 15:43:39</property>
    <property name="meta.attr.TLEN.markup">397546</property>
    <property name="meta.attr.id3v2_priv.WM/MediaClassSecondaryID.markup">\x00\x00\x00\x00\x00\x00\x00\x00\x00\x00\x00\x00\x00\x00\x00\x00</property>
    <property name="meta.attr.id3v2_priv.AverageLevel.markup">\x5c\x05\x00\x00</property>
    <property name="meta.attr.id3v2_priv.WM/MediaClassPrimaryID.markup">\xbc}`\xd1#\xe3\xe2K\x86\xa1H\xa4*(D\x1e</property>
    <property name="meta.attr.id3v2_priv.PeakValue.markup">\xbcK\x00\x00</property>
    <property name="seekable">1</property>
    <property name="audio_index">0</property>
    <property name="video_index">-1</property>
    <property name="creation_time">2023-12-01T00:50:46</property>
    <property name="astream">0</property>
    <property name="shotcut:hash">9e8a54a78882c011eed667e6991340cc</property>
    <property name="shotcut:caption">Brendan Kinsella - Mozart - Piano Sonata in B-flat major, III. Allegretto Grazioso.mp3</property>
    <property name="xml">was here</property>
    <filter id="filter449" in="00:00:21.000" out="00:01:57.983">
      <property name="window">75</property>
      <property name="max_gain">20dB</property>
      <property name="level">-6</property>
      <property name="mlt_service">volume</property>
    </filter>
    <filter id="filter450" in="00:00:21.000" out="00:01:57.983">
      <property name="window">75</property>
      <property name="max_gain">20dB</property>
      <property name="level">00:01:33.000=0;00:01:36.983=-60</property>
      <property name="mlt_service">volume</property>
      <property name="shotcut:filter">fadeOutVolume</property>
      <property name="shotcut:animOut">00:00:04.000</property>
      <property name="disable">0</property>
    </filter>
    <filter id="filter451" in="00:00:21.000" out="00:01:57.983">
      <property name="window">75</property>
      <property name="max_gain">20dB</property>
      <property name="level">00:00:00.000=-60;00:00:03.983=0</property>
      <property name="mlt_service">volume</property>
      <property name="shotcut:filter">fadeInVolume</property>
      <property name="shotcut:animIn">00:00:04.000</property>
    </filter>
  </chain>
  <chain id="chain50" out="00:00:32.250">
    <property name="length">00:00:32.267</property>
    <property name="eof">pause</property>
    <property name="resource">music/Danny Bale - Bronkelton Part V_ Getting Dressed.mp3</property>
    <property name="mlt_service">avformat-novalidate</property>
    <property name="meta.media.nb_streams">1</property>
    <property name="meta.media.0.stream.type">audio</property>
    <property name="meta.media.0.codec.sample_fmt">fltp</property>
    <property name="meta.media.0.codec.sample_rate">44100</property>
    <property name="meta.media.0.codec.channels">2</property>
    <property name="meta.media.0.codec.name">mp3float</property>
    <property name="meta.media.0.codec.long_name">MP3 (MPEG audio layer 3)</property>
    <property name="meta.media.0.codec.bit_rate">320000</property>
    <property name="meta.attr.title.markup">Brinkelton Part V: Getting Dressed</property>
    <property name="meta.attr.artist.markup">Danny Bale</property>
    <property name="meta.attr.album.markup">Backgrounds</property>
    <property name="meta.attr.album_artist.markup">Danny Bale</property>
    <property name="meta.attr.genre.markup">Soundtrack</property>
    <property name="meta.attr.date.markup">2022</property>
    <property name="meta.attr.track.markup">11</property>
    <property name="meta.attr.disc.markup">0</property>
    <property name="seekable">1</property>
    <property name="audio_index">0</property>
    <property name="video_index">-1</property>
    <property name="creation_time">2023-12-01T01:09:28</property>
    <property name="astream">0</property>
    <property name="shotcut:hash">a42347fa77d5d2156e0c2096904cd9a7</property>
    <property name="shotcut:caption">Danny Bale - Bronkelton Part V_ Getting Dressed.mp3</property>
    <property name="xml">was here</property>
    <filter id="filter452" out="00:00:03.983">
      <property name="window">75</property>
      <property name="max_gain">20dB</property>
      <property name="level">6</property>
      <property name="mlt_service">volume</property>
    </filter>
  </chain>
  <chain id="chain51" out="00:06:37.600">
    <property name="length">00:06:37.617</property>
    <property name="eof">pause</property>
    <property name="resource">music/Brendan Kinsella - Mozart - Piano Sonata in B-flat major, III. Allegretto Grazioso.mp3</property>
    <property name="mlt_service">avformat-novalidate</property>
    <property name="meta.media.nb_streams">1</property>
    <property name="meta.media.0.stream.type">audio</property>
    <property name="meta.media.0.codec.sample_fmt">fltp</property>
    <property name="meta.media.0.codec.sample_rate">44100</property>
    <property name="meta.media.0.codec.channels">2</property>
    <property name="meta.media.0.codec.name">mp3float</property>
    <property name="meta.media.0.codec.long_name">MP3 (MPEG audio layer 3)</property>
    <property name="meta.media.0.codec.bit_rate">128000</property>
    <property name="meta.attr.0.stream.encoder.markup">LAME3.92 </property>
    <property name="meta.attr.title.markup">Mozart - Piano Sonata in B-flat major, III. Allegretto Grazioso</property>
    <property name="meta.attr.artist.markup">Brendan Kinsella</property>
    <property name="meta.attr.track.markup">0</property>
    <property name="meta.attr.album.markup">Mozart's Piano Sonata in B-flat Major</property>
    <property name="meta.attr.date.markup">2009-04-23T15:43:39</property>
    <property name="meta.attr.genre.markup">Classical</property>
    <property name="meta.attr.copyright.markup">Attribution-Noncommercial-Share Alike 3.0 United States: http://creativecommons.org/licenses/by-nc-sa/3.0/us/</property>
    <property name="meta.attr.comment.markup">URL: http://freemusicarchive.org/music/Brendan_Kinsella/Mozarts_Piano_Sonata_in_B-flat_Major/Mozart_-_Piano_Sonata_in_B-flat_major_III_Allegretto_Grazioso
Comments: http://freemusicarchive.org/
Curator: 
Copyright: Attribution-Noncommercial-Share Alike 3.0 United States: http://creativecommons.org/licenses/by-nc-sa/3.0/us/</property>
    <property name="meta.attr.TDAT.markup">2009-04-23 15:43:39</property>
    <property name="meta.attr.TLEN.markup">397546</property>
    <property name="meta.attr.id3v2_priv.WM/MediaClassSecondaryID.markup">\x00\x00\x00\x00\x00\x00\x00\x00\x00\x00\x00\x00\x00\x00\x00\x00</property>
    <property name="meta.attr.id3v2_priv.AverageLevel.markup">\x5c\x05\x00\x00</property>
    <property name="meta.attr.id3v2_priv.WM/MediaClassPrimaryID.markup">\xbc}`\xd1#\xe3\xe2K\x86\xa1H\xa4*(D\x1e</property>
    <property name="meta.attr.id3v2_priv.PeakValue.markup">\xbcK\x00\x00</property>
    <property name="seekable">1</property>
    <property name="audio_index">0</property>
    <property name="video_index">-1</property>
    <property name="creation_time">2023-12-01T00:50:46</property>
    <property name="astream">0</property>
    <property name="shotcut:hash">9e8a54a78882c011eed667e6991340cc</property>
    <property name="shotcut:caption">Brendan Kinsella - Mozart - Piano Sonata in B-flat major, III. Allegretto Grazioso.mp3</property>
    <property name="xml">was here</property>
    <filter id="filter453" in="00:02:02.000" out="00:03:32.983">
      <property name="window">75</property>
      <property name="max_gain">20dB</property>
      <property name="level">-6</property>
      <property name="mlt_service">volume</property>
    </filter>
    <filter id="filter454" in="00:02:02.000" out="00:03:32.983">
      <property name="window">75</property>
      <property name="max_gain">20dB</property>
      <property name="level">00:01:27.000=0;00:01:30.983=-60</property>
      <property name="mlt_service">volume</property>
      <property name="shotcut:filter">fadeOutVolume</property>
      <property name="shotcut:animOut">00:00:04.000</property>
    </filter>
    <filter id="filter455" in="00:02:02.000" out="00:03:32.983">
      <property name="window">75</property>
      <property name="max_gain">20dB</property>
      <property name="level">00:00:00.000=-60;00:00:03.983=0</property>
      <property name="mlt_service">volume</property>
      <property name="shotcut:filter">fadeInVolume</property>
      <property name="shotcut:animIn">00:00:04.000</property>
    </filter>
  </chain>
  <chain id="chain52" out="00:00:32.250">
    <property name="length">00:00:32.267</property>
    <property name="eof">pause</property>
    <property name="resource">music/Danny Bale - Bronkelton Part V_ Getting Dressed.mp3</property>
    <property name="mlt_service">avformat-novalidate</property>
    <property name="meta.media.nb_streams">1</property>
    <property name="meta.media.0.stream.type">audio</property>
    <property name="meta.media.0.codec.sample_fmt">fltp</property>
    <property name="meta.media.0.codec.sample_rate">44100</property>
    <property name="meta.media.0.codec.channels">2</property>
    <property name="meta.media.0.codec.name">mp3float</property>
    <property name="meta.media.0.codec.long_name">MP3 (MPEG audio layer 3)</property>
    <property name="meta.media.0.codec.bit_rate">320000</property>
    <property name="meta.attr.title.markup">Brinkelton Part V: Getting Dressed</property>
    <property name="meta.attr.artist.markup">Danny Bale</property>
    <property name="meta.attr.album.markup">Backgrounds</property>
    <property name="meta.attr.album_artist.markup">Danny Bale</property>
    <property name="meta.attr.genre.markup">Soundtrack</property>
    <property name="meta.attr.date.markup">2022</property>
    <property name="meta.attr.track.markup">11</property>
    <property name="meta.attr.disc.markup">0</property>
    <property name="seekable">1</property>
    <property name="audio_index">0</property>
    <property name="video_index">-1</property>
    <property name="creation_time">2023-12-01T01:09:28</property>
    <property name="astream">0</property>
    <property name="shotcut:hash">a42347fa77d5d2156e0c2096904cd9a7</property>
    <property name="shotcut:caption">Danny Bale - Bronkelton Part V_ Getting Dressed.mp3</property>
    <property name="xml">was here</property>
    <filter id="filter456" out="00:00:03.983">
      <property name="window">75</property>
      <property name="max_gain">20dB</property>
      <property name="level">6</property>
      <property name="mlt_service">volume</property>
    </filter>
  </chain>
  <chain id="chain53" out="00:06:37.600">
    <property name="length">00:06:37.617</property>
    <property name="eof">pause</property>
    <property name="resource">music/Brendan Kinsella - Mozart - Piano Sonata in B-flat major, III. Allegretto Grazioso.mp3</property>
    <property name="mlt_service">avformat-novalidate</property>
    <property name="meta.media.nb_streams">1</property>
    <property name="meta.media.0.stream.type">audio</property>
    <property name="meta.media.0.codec.sample_fmt">fltp</property>
    <property name="meta.media.0.codec.sample_rate">44100</property>
    <property name="meta.media.0.codec.channels">2</property>
    <property name="meta.media.0.codec.name">mp3float</property>
    <property name="meta.media.0.codec.long_name">MP3 (MPEG audio layer 3)</property>
    <property name="meta.media.0.codec.bit_rate">128000</property>
    <property name="meta.attr.0.stream.encoder.markup">LAME3.92 </property>
    <property name="meta.attr.title.markup">Mozart - Piano Sonata in B-flat major, III. Allegretto Grazioso</property>
    <property name="meta.attr.artist.markup">Brendan Kinsella</property>
    <property name="meta.attr.track.markup">0</property>
    <property name="meta.attr.album.markup">Mozart's Piano Sonata in B-flat Major</property>
    <property name="meta.attr.date.markup">2009-04-23T15:43:39</property>
    <property name="meta.attr.genre.markup">Classical</property>
    <property name="meta.attr.copyright.markup">Attribution-Noncommercial-Share Alike 3.0 United States: http://creativecommons.org/licenses/by-nc-sa/3.0/us/</property>
    <property name="meta.attr.comment.markup">URL: http://freemusicarchive.org/music/Brendan_Kinsella/Mozarts_Piano_Sonata_in_B-flat_Major/Mozart_-_Piano_Sonata_in_B-flat_major_III_Allegretto_Grazioso
Comments: http://freemusicarchive.org/
Curator: 
Copyright: Attribution-Noncommercial-Share Alike 3.0 United States: http://creativecommons.org/licenses/by-nc-sa/3.0/us/</property>
    <property name="meta.attr.TDAT.markup">2009-04-23 15:43:39</property>
    <property name="meta.attr.TLEN.markup">397546</property>
    <property name="meta.attr.id3v2_priv.WM/MediaClassSecondaryID.markup">\x00\x00\x00\x00\x00\x00\x00\x00\x00\x00\x00\x00\x00\x00\x00\x00</property>
    <property name="meta.attr.id3v2_priv.AverageLevel.markup">\x5c\x05\x00\x00</property>
    <property name="meta.attr.id3v2_priv.WM/MediaClassPrimaryID.markup">\xbc}`\xd1#\xe3\xe2K\x86\xa1H\xa4*(D\x1e</property>
    <property name="meta.attr.id3v2_priv.PeakValue.markup">\xbcK\x00\x00</property>
    <property name="seekable">1</property>
    <property name="audio_index">0</property>
    <property name="video_index">-1</property>
    <property name="creation_time">2023-12-01T00:50:46</property>
    <property name="astream">0</property>
    <property name="shotcut:hash">9e8a54a78882c011eed667e6991340cc</property>
    <property name="shotcut:caption">Brendan Kinsella - Mozart - Piano Sonata in B-flat major, III. Allegretto Grazioso.mp3</property>
    <property name="xml">was here</property>
    <filter id="filter457" in="00:04:19.500" out="00:06:12.483">
      <property name="window">75</property>
      <property name="max_gain">20dB</property>
      <property name="level">-6</property>
      <property name="mlt_service">volume</property>
    </filter>
    <filter id="filter458" in="00:04:19.500" out="00:06:12.483">
      <property name="window">75</property>
      <property name="max_gain">20dB</property>
      <property name="level">00:00:00.000=-60;00:00:03.983=0</property>
      <property name="mlt_service">volume</property>
      <property name="shotcut:filter">fadeInVolume</property>
      <property name="shotcut:animIn">00:00:04.000</property>
    </filter>
  </chain>
  <playlist id="playlist13">
    <property name="shotcut:audio">1</property>
    <property name="shotcut:name">A2</property>
    <blank length="00:00:18.000"/>
    <entry producer="chain47" in="00:00:00.000" out="00:00:16.983"/>
    <entry producer="chain48" in="00:00:00.000" out="00:00:03.983"/>
    <entry producer="chain49" in="00:00:21.000" out="00:01:57.983"/>
    <entry producer="chain50" in="00:00:00.000" out="00:00:03.983"/>
    <entry producer="chain51" in="00:02:02.000" out="00:03:32.983"/>
    <entry producer="chain52" in="00:00:00.000" out="00:00:03.983"/>
    <entry producer="chain53" in="00:04:19.500" out="00:06:12.483"/>
  </playlist>
  <playlist id="playlist14">
    <property name="shotcut:audio">1</property>
    <property name="shotcut:name">A3</property>
    <blank length="00:00:00.017"/>
  </playlist>
  <tractor id="tractor23" title="Shotcut version 23.11.04" in="00:00:00.000" out="00:05:59.983">
    <property name="shotcut">1</property>
    <property name="shotcut:projectAudioChannels">2</property>
    <property name="shotcut:projectFolder">1</property>
    <property name="shotcut:scaleFactor">0.0615741</property>
    <property name="shotcut:trackHeight">10</property>
    <property name="shotcut:skipConvert">0</property>
    <track producer="background"/>
    <track producer="playlist0" hide="video"/>
    <track producer="playlist1"/>
    <track producer="playlist3"/>
    <track producer="playlist4"/>
    <track producer="playlist5"/>
    <track producer="playlist6"/>
    <track producer="playlist7"/>
    <track producer="playlist8"/>
    <track producer="playlist9"/>
    <track producer="playlist10"/>
    <track producer="playlist11"/>
    <track producer="playlist12"/>
    <track producer="playlist13" hide="video"/>
    <track producer="playlist14" hide="video"/>
    <transition id="transition46">
      <property name="a_track">0</property>
      <property name="b_track">1</property>
      <property name="mlt_service">mix</property>
      <property name="always_active">1</property>
      <property name="sum">1</property>
    </transition>
    <transition id="transition47">
      <property name="a_track">0</property>
      <property name="b_track">2</property>
      <property name="mlt_service">mix</property>
      <property name="always_active">1</property>
      <property name="sum">1</property>
    </transition>
    <transition id="transition48">
      <property name="a_track">2</property>
      <property name="b_track">2</property>
      <property name="version">0.1</property>
      <property name="mlt_service">frei0r.cairoblend</property>
      <property name="1">normal</property>
      <property name="disable">1</property>
    </transition>
    <transition id="transition50">
      <property name="a_track">0</property>
      <property name="b_track">3</property>
      <property name="mlt_service">mix</property>
      <property name="always_active">1</property>
      <property name="sum">1</property>
    </transition>
    <transition id="transition51">
      <property name="a_track">2</property>
      <property name="b_track">3</property>
      <property name="version">0.1</property>
      <property name="mlt_service">frei0r.cairoblend</property>
      <property name="1">normal</property>
    </transition>
    <transition id="transition52">
      <property name="a_track">0</property>
      <property name="b_track">4</property>
      <property name="mlt_service">mix</property>
      <property name="always_active">1</property>
      <property name="sum">1</property>
    </transition>
    <transition id="transition53">
      <property name="a_track">2</property>
      <property name="b_track">4</property>
      <property name="version">0.1</property>
      <property name="mlt_service">frei0r.cairoblend</property>
      <property name="1">normal</property>
    </transition>
    <transition id="transition54">
      <property name="a_track">0</property>
      <property name="b_track">5</property>
      <property name="mlt_service">mix</property>
      <property name="always_active">1</property>
      <property name="sum">1</property>
    </transition>
    <transition id="transition55">
      <property name="a_track">2</property>
      <property name="b_track">5</property>
      <property name="version">0.1</property>
      <property name="mlt_service">frei0r.cairoblend</property>
      <property name="1">normal</property>
    </transition>
    <transition id="transition56">
      <property name="a_track">0</property>
      <property name="b_track">6</property>
      <property name="mlt_service">mix</property>
      <property name="always_active">1</property>
      <property name="sum">1</property>
    </transition>
    <transition id="transition57">
      <property name="a_track">2</property>
      <property name="b_track">6</property>
      <property name="version">0.1</property>
      <property name="mlt_service">frei0r.cairoblend</property>
      <property name="1">normal</property>
    </transition>
    <transition id="transition58">
      <property name="a_track">0</property>
      <property name="b_track">7</property>
      <property name="mlt_service">mix</property>
      <property name="always_active">1</property>
      <property name="sum">1</property>
    </transition>
    <transition id="transition59">
      <property name="a_track">2</property>
      <property name="b_track">7</property>
      <property name="version">0.1</property>
      <property name="mlt_service">frei0r.cairoblend</property>
      <property name="1">normal</property>
    </transition>
    <transition id="transition60">
      <property name="a_track">0</property>
      <property name="b_track">8</property>
      <property name="mlt_service">mix</property>
      <property name="always_active">1</property>
      <property name="sum">1</property>
    </transition>
    <transition id="transition61">
      <property name="a_track">2</property>
      <property name="b_track">8</property>
      <property name="version">0.1</property>
      <property name="mlt_service">frei0r.cairoblend</property>
      <property name="1">normal</property>
    </transition>
    <transition id="transition62">
      <property name="a_track">0</property>
      <property name="b_track">9</property>
      <property name="mlt_service">mix</property>
      <property name="always_active">1</property>
      <property name="sum">1</property>
    </transition>
    <transition id="transition63">
      <property name="a_track">2</property>
      <property name="b_track">9</property>
      <property name="version">0.1</property>
      <property name="mlt_service">frei0r.cairoblend</property>
      <property name="1">normal</property>
    </transition>
    <transition id="transition64">
      <property name="a_track">0</property>
      <property name="b_track">10</property>
      <property name="mlt_service">mix</property>
      <property name="always_active">1</property>
      <property name="sum">1</property>
    </transition>
    <transition id="transition65">
      <property name="a_track">2</property>
      <property name="b_track">10</property>
      <property name="version">0.1</property>
      <property name="mlt_service">frei0r.cairoblend</property>
      <property name="1">normal</property>
    </transition>
    <transition id="transition66">
      <property name="a_track">0</property>
      <property name="b_track">11</property>
      <property name="mlt_service">mix</property>
      <property name="always_active">1</property>
      <property name="sum">1</property>
    </transition>
    <transition id="transition67">
      <property name="a_track">2</property>
      <property name="b_track">11</property>
      <property name="version">0.1</property>
      <property name="mlt_service">frei0r.cairoblend</property>
      <property name="1">normal</property>
    </transition>
    <transition id="transition68">
      <property name="a_track">0</property>
      <property name="b_track">12</property>
      <property name="mlt_service">mix</property>
      <property name="always_active">1</property>
      <property name="sum">1</property>
    </transition>
    <transition id="transition69">
      <property name="a_track">2</property>
      <property name="b_track">12</property>
      <property name="version">0.1</property>
      <property name="mlt_service">frei0r.cairoblend</property>
      <property name="threads">0</property>
    </transition>
    <transition id="transition70">
      <property name="a_track">0</property>
      <property name="b_track">13</property>
      <property name="mlt_service">mix</property>
      <property name="always_active">1</property>
      <property name="sum">1</property>
    </transition>
    <transition id="transition71">
      <property name="a_track">0</property>
      <property name="b_track">14</property>
      <property name="mlt_service">mix</property>
      <property name="always_active">1</property>
      <property name="sum">1</property>
    </transition>
  </tractor>
</mlt>
