<?xml version="1.0"?><svg xmlns="http://www.w3.org/2000/svg" xmlns:xlink="http://www.w3.org/1999/xlink" viewBox="120.88 183.36 146.04 64.95" preserveAspectRatio="xMidYMid" width="100%" height="100%"><clipPath id="54"><rect x="0.3" y="0.3" width="539.4" height="719.15" /></clipPath><g id="drawing"><rect x="120.88" y="183.36" width="100%" height="100%" fill="rgb(255, 255, 255)" /><g id="page" clip-path="url(#54)"><g id="Solid"><path d="M174.3 235.29 L174.3 235.29 L174.47 234.99 L174.64 234.69 L188.65 234.69 L188.82 234.99 L188.99 235.29 Z" stroke="rgb(0, 0, 0)" stroke-width="0" fill-rule="evenodd" stroke-linejoin="miter" fill="rgb(0, 0, 0)" shape-rendering="geometricPrecision" /><line x1="175.96" y1="232.41" x2="187.33" y2="232.41" stroke="rgb(0, 0, 0)" stroke-width="0.6" shape-rendering="auto" /></g><g id="Solid"><path d="M188.99 235.29 L188.99 235.29 L188.82 234.99 L188.65 234.69 L195.65 222.56 L196 222.56 L196.17 222.86 Z" stroke="rgb(0, 0, 0)" stroke-width="0" fill-rule="evenodd" stroke-linejoin="miter" fill="rgb(0, 0, 0)" shape-rendering="geometricPrecision" /></g><g id="Solid"><path d="M196.17 222.26 L196.17 222.26 L196 222.56 L195.65 222.56 L188.65 210.43 L188.82 210.13 L188.99 209.83 Z" stroke="rgb(0, 0, 0)" stroke-width="0" fill-rule="evenodd" stroke-linejoin="miter" fill="rgb(0, 0, 0)" shape-rendering="geometricPrecision" /><line x1="193.02" y1="222.56" x2="187.33" y2="212.71" stroke="rgb(0, 0, 0)" stroke-width="0.6" shape-rendering="auto" /></g><g id="Solid"><path d="M188.99 209.83 L188.99 209.83 L188.82 210.13 L188.65 210.43 L174.64 210.43 L174.47 210.13 L174.3 209.83 Z" stroke="rgb(0, 0, 0)" stroke-width="0" fill-rule="evenodd" stroke-linejoin="miter" fill="rgb(0, 0, 0)" shape-rendering="geometricPrecision" /></g><g id="Solid"><path d="M174.3 209.83 L174.3 209.83 L174.47 210.13 L174.64 210.43 L167.65 222.56 L167.3 222.56 L167.13 222.26 Z" stroke="rgb(0, 0, 0)" stroke-width="0" fill-rule="evenodd" stroke-linejoin="miter" fill="rgb(0, 0, 0)" shape-rendering="geometricPrecision" /><line x1="175.96" y1="212.71" x2="170.28" y2="222.56" stroke="rgb(0, 0, 0)" stroke-width="0.6" shape-rendering="auto" /></g><g id="Solid"><path d="M167.13 222.86 L167.13 222.86 L167.3 222.56 L167.65 222.56 L174.64 234.69 L174.47 234.99 L174.3 235.29 Z" stroke="rgb(0, 0, 0)" stroke-width="0" fill-rule="evenodd" stroke-linejoin="miter" fill="rgb(0, 0, 0)" shape-rendering="geometricPrecision" /></g><g id="Solid"><path d="M196.17 222.86 L196.17 222.86 L196 222.56 L196.17 222.26 L210.18 222.26 L210.35 222.56 L210.52 222.86 Z" stroke="rgb(0, 0, 0)" stroke-width="0" fill-rule="evenodd" stroke-linejoin="miter" fill="rgb(0, 0, 0)" shape-rendering="geometricPrecision" /></g><g id="Solid"><path d="M167.13 222.26 L167.13 222.26 L167.3 222.56 L167.13 222.86 L153.12 222.86 L152.95 222.56 L152.78 222.26 Z" stroke="rgb(0, 0, 0)" stroke-width="0" fill-rule="evenodd" stroke-linejoin="miter" fill="rgb(0, 0, 0)" shape-rendering="geometricPrecision" /></g><g><text xml:space="preserve" text-anchor="start" text-rendering="geometricPrecision"><tspan x="141.87" y="238.89" font-family="Arial" font-size="10" fill="rgb(0, 0, 0)">O</tspan></text></g><g id="Solid"><path d="M152.78 222.26 L152.78 222.26 L152.95 222.56 L153.12 222.86 L148.56 230.76 L148.3 230.61 L148.04 230.46 Z" stroke="rgb(0, 0, 0)" stroke-width="0" fill-rule="evenodd" stroke-linejoin="miter" fill="rgb(0, 0, 0)" shape-rendering="geometricPrecision" /></g><g><text xml:space="preserve" text-anchor="start" text-rendering="geometricPrecision"><tspan x="141.87" y="214.03" font-family="Arial" font-size="10" fill="rgb(0, 0, 0)">O</tspan></text></g><g id="Solid"><line x1="151.83" y1="223.21" x2="147.8" y2="216.23" stroke="rgb(0, 0, 0)" stroke-width="0.6" shape-rendering="auto" /><path d="M153.92 222.26 L153.92 222.26 L154.62 222.26 L150.3 214.79 L149.78 215.09 Z" stroke="rgb(0, 0, 0)" stroke-width="0" fill-rule="evenodd" stroke-linejoin="miter" fill="rgb(0, 0, 0)" shape-rendering="geometricPrecision" /><path d="M151.86 223.85 L151.86 223.85 L152.2 223.25 L148.06 216.08 L147.54 216.38 Z" stroke="rgb(0, 0, 0)" stroke-width="0" fill-rule="evenodd" stroke-linejoin="miter" fill="rgb(0, 0, 0)" shape-rendering="geometricPrecision" /></g><g><text xml:space="preserve" text-anchor="start" text-rendering="geometricPrecision"><tspan x="213.62" y="238.89" font-family="Arial" font-size="10" fill="rgb(0, 0, 0)">O</tspan></text></g><g id="Solid"><line x1="211.47" y1="221.91" x2="215.94" y2="229.67" stroke="rgb(0, 0, 0)" stroke-width="0.6" shape-rendering="auto" /><path d="M209.38 222.86 L209.38 222.86 L208.69 222.86 L213.44 231.11 L213.96 230.81 Z" stroke="rgb(0, 0, 0)" stroke-width="0" fill-rule="evenodd" stroke-linejoin="miter" fill="rgb(0, 0, 0)" shape-rendering="geometricPrecision" /><path d="M211.44 221.27 L211.44 221.27 L211.1 221.87 L215.68 229.82 L216.2 229.52 Z" stroke="rgb(0, 0, 0)" stroke-width="0" fill-rule="evenodd" stroke-linejoin="miter" fill="rgb(0, 0, 0)" shape-rendering="geometricPrecision" /></g><g><text xml:space="preserve" text-anchor="start" text-rendering="geometricPrecision"><tspan x="213.62" y="214.03" font-family="Arial" font-size="10" fill="rgb(0, 0, 0)">O</tspan></text></g><g id="Solid"><path d="M210.52 222.86 L210.52 222.86 L210.35 222.56 L210.18 222.26 L214.34 215.04 L214.6 215.19 L214.86 215.34 Z" stroke="rgb(0, 0, 0)" stroke-width="0" fill-rule="evenodd" stroke-linejoin="miter" fill="rgb(0, 0, 0)" shape-rendering="geometricPrecision" /></g><g id="Solid"><path d="M222.6 210.43 L222.6 210.43 L222.6 210.13 L222.6 209.83 L231.7 209.83 L231.87 210.13 L232.04 210.43 Z" stroke="rgb(0, 0, 0)" stroke-width="0" fill-rule="evenodd" stroke-linejoin="miter" fill="rgb(0, 0, 0)" shape-rendering="geometricPrecision" /></g><g id="Solid"><path d="M232.04 210.43 L232.04 210.43 L231.87 210.13 L231.7 209.83 L238.88 197.4 L239.05 197.7 L239.22 198 Z" stroke="rgb(0, 0, 0)" stroke-width="0" fill-rule="evenodd" stroke-linejoin="miter" fill="rgb(0, 0, 0)" shape-rendering="geometricPrecision" /></g><g><text xml:space="preserve" text-anchor="start" text-rendering="geometricPrecision"><tspan x="251.9" y="201.6" font-family="Arial" font-size="10" fill="rgb(0, 0, 0)">OH</tspan></text></g><g id="Solid"><path d="M239.22 198 L239.22 198 L239.05 197.7 L238.88 197.4 L250.9 197.4 L250.9 197.7 L250.9 198 Z" stroke="rgb(0, 0, 0)" stroke-width="0" fill-rule="evenodd" stroke-linejoin="miter" fill="rgb(0, 0, 0)" shape-rendering="geometricPrecision" /></g><g><text xml:space="preserve" text-anchor="start" text-rendering="geometricPrecision"><tspan x="120.88" y="238.89" font-family="Arial" font-size="10" fill="rgb(0, 0, 0)">H</tspan></text></g><g id="Solid"><path d="M140.8 234.69 L140.8 234.69 L140.8 234.99 L140.8 235.29 L128.9 235.29 L128.9 234.99 L128.9 234.69 Z" stroke="rgb(0, 0, 0)" stroke-width="0" fill-rule="evenodd" stroke-linejoin="miter" fill="rgb(0, 0, 0)" shape-rendering="geometricPrecision" /></g><g id="Bracket"><path d="M139.55 246.7 L134.83 246.7 L134.83 183.96 L139.55 183.96 " stroke="rgb(0, 0, 0)" stroke-width="0.6" fill-rule="evenodd" stroke-linejoin="miter" fill="none" shape-rendering="geometricPrecision" /></g><g id="Bracket"><path d="M239.83 184.07 L244.5 184.07 L244.5 246 L239.83 246 " stroke="rgb(0, 0, 0)" stroke-width="0.6" fill-rule="evenodd" stroke-linejoin="miter" fill="none" shape-rendering="geometricPrecision" /></g><g id="ObjectTag"><g><text xml:space="preserve" text-anchor="start" text-rendering="geometricPrecision"><tspan x="246.75" y="248.31" font-family="Arial" font-size="7.5" fill="rgb(0, 0, 0)">n</tspan></text></g></g></g></g></svg>