<?xml version="1.0" encoding="UTF-8" standalone="no"?>
<!-- Created with Inkscape (http://www.inkscape.org/) -->
<svg
   xmlns:svg="http://www.w3.org/2000/svg"
   xmlns="http://www.w3.org/2000/svg"
   xmlns:xlink="http://www.w3.org/1999/xlink"
   version="1.0"
   width="392"
   height="520"
   id="svg2">
  <defs
     id="defs5">
    <linearGradient
       id="linearGradient4335">
      <stop
         style="stop-color:#006eff;stop-opacity:1"
         offset="0"
         id="stop4337" />
      <stop
         style="stop-color:#00b2ff;stop-opacity:0"
         offset="1"
         id="stop4339" />
    </linearGradient>
    <linearGradient
       id="linearGradient4324">
      <stop
         style="stop-color:red;stop-opacity:1"
         offset="0"
         id="stop4326" />
      <stop
         style="stop-color:red;stop-opacity:0"
         offset="1"
         id="stop4328" />
    </linearGradient>
  </defs>
  <g
     transform="translate(11.80867,-52.355)"
     id="g2026">
    <path
       d="M 56.895878,287.53134 L 56.895878,157.13587"
       style="fill:none;fill-rule:evenodd;stroke:red;stroke-width:1px;stroke-linecap:butt;stroke-linejoin:miter;stroke-opacity:1"
       id="path16000" />
    <path
       d="M 57.004748,287.87412 L 57.004748,304.29538"
       style="fill:none;fill-rule:evenodd;stroke:red;stroke-width:5;stroke-linecap:round;stroke-linejoin:miter;stroke-miterlimit:4;stroke-dasharray:none;stroke-opacity:1"
       id="path15029" />
  </g>
  <path
     d="M 71.448155,235.45876 C 71.448155,235.45876 72.423773,234.925 72.423773,233.41398 L 72.423773,12.239836 C 72.423773,4.5213363 65.239423,4.7035463 65.239423,12.573366 L 65.239423,233.41398 C 65.239423,235.02582 66.401453,235.45588 66.401453,235.45588 M 59.99196,272.71412 L 66.33309,272.71412 L 62.25665,276.79055 M 59.99196,284.49049 L 66.33309,284.49049 L 62.25665,288.56692 M 59.99196,295.36099 L 66.33309,295.36099 L 62.25665,299.43742 M 75.99142,278.37583 L 69.65029,278.37583 L 73.72673,282.45226 M 75.99142,290.15221 L 69.65029,290.15221 L 73.72673,294.22864 M 75.99142,301.02271 L 69.65029,301.02271 L 73.72673,305.09914 M 65.47023,43.865966 L 69.261163,43.865966 M 65.47023,50.865966 L 69.261163,50.865966 M 65.47023,57.865962 L 69.261163,57.865962 M 65.47023,64.865962 L 69.261163,64.865962 M 65.47023,71.865962 L 69.261163,71.865962 M 65.47023,78.865962 L 69.261163,78.865962 M 65.47023,85.865962 L 69.261163,85.865962 M 65.47023,92.865962 L 69.261163,92.865962 M 65.47023,99.865962 L 69.261163,99.865962 M 65.47023,106.86596 L 69.261163,106.86596 M 65.47023,113.86596 L 69.261163,113.86596 M 65.47023,120.86596 L 69.261163,120.86596 M 65.47023,127.86596 L 69.261163,127.86596 M 65.47023,134.86596 L 69.261163,134.86596 M 65.47023,141.86596 L 69.261163,141.86596 M 65.47023,148.86596 L 69.261163,148.86596 M 65.47023,155.86596 L 69.261163,155.86596 M 65.47023,162.86596 L 69.261163,162.86596 M 65.47023,169.86596 L 69.261163,169.86596 M 65.47023,176.86597 L 69.261163,176.86597 M 76.40916,331.65106 L 76.40916,263.17243 C 76.40916,260.8838 77.299058,254.45467 80.954631,255.51712 L 92.604937,259.40297 M 59.93676,331.65106 L 59.93676,212.6354 C 59.93676,208.24453 62.101418,206.34777 63.476603,206.34777 L 63.476603,187.94183 C 61.054737,187.94183 60.908608,183.34034 64.235096,183.34034 M 98.439965,243.59335 L 83.700212,237.74912 C 78.799923,235.81604 77.503853,230.01559 77.556578,225.78829 L 77.556578,212.6354 C 77.556578,208.29688 75.540154,206.34777 74.02925,206.34777 L 74.02925,187.94183 C 76.735737,187.94183 76.784352,183.34034 73.48747,183.34034"
     style="fill:none;fill-opacity:1;fill-rule:nonzero;stroke:black;stroke-width:1;stroke-linecap:round;stroke-linejoin:round;stroke-miterlimit:4;stroke-dashoffset:0;stroke-opacity:1"
     id="path6311" />
  <g
     transform="translate(312.3762,292.7952)"
     id="g11392" />
  <path
     d="M 324.22602,326.82412 C 336.72931,332.16407 354.46836,334.65603 354.46836,347.76714 C 354.46836,351.13739 355.94508,355.57421 358.61832,356.1313 C 361.29156,356.68839 364.46289,356.13116 364.46289,356.13116 C 366.42549,354.0764 367.82769,355.10302 369.12429,356.71097 C 370.60079,355.28122 372.07719,355.00019 373.55369,357.26193 C 374.95239,356.25819 376.35119,355.48056 377.74989,357.78388 C 379.23079,356.64501 380.49049,357.05459 381.63549,358.2672 L 381.63549,362.18155 C 380.32669,363.9335 379.01779,363.06673 377.70889,362.55838 C 376.14039,365.62378 374.92369,364.11678 373.68109,362.94492 C 372.12599,365.38253 370.57089,364.60792 369.01579,363.39264 C 367.54029,365.11049 366.06469,365.12904 364.58919,363.81745 L 358.54332,363.86564 C 356.70813,363.86564 356.03722,364.40828 356.03722,366.37174 L 356.03722,371.99227 M 336.26044,372.22671 L 336.26044,353.86249 C 336.26044,346.05896 327.69813,344.84205 319.06841,340.57774 M 354.39021,350.2678 L 347.00545,357.65256 L 347.00545,411.22135 L 343.44988,409.16854 L 343.44988,357.65256 L 334.30682,348.5095"
     style="fill:none;fill-opacity:1;fill-rule:nonzero;stroke:black;stroke-width:1;stroke-linecap:round;stroke-linejoin:round;stroke-miterlimit:4;stroke-dashoffset:0;stroke-opacity:1"
     id="path2030" />
  <g
     transform="matrix(-1,-4.447068e-4,-4.447068e-4,1,390.4851,305.5133)"
     id="g2032" />
  <g
     id="g3911">
    <path
       d="M 382.60075,441.80966 L 382.60075,463.43728 C 382.60075,466.30616 380.29115,468.61576 377.42227,468.61576 L 315.8853,468.61576 C 313.01642,468.61576 310.70682,466.30616 310.70682,463.43728 L 310.70682,441.80966"
       style="fill:aqua;fill-opacity:1;fill-rule:nonzero;stroke:none;stroke-width:1;stroke-linecap:round;stroke-linejoin:miter;stroke-miterlimit:4;stroke-dashoffset:0;stroke-opacity:1"
       id="path3024" />
    <path
       d="M 382.60075,389.21985 L 382.60075,463.43728 C 382.60075,466.30616 380.29115,468.61576 377.42227,468.61576 L 315.8853,468.61576 C 313.01642,468.61576 310.70682,466.30616 310.70682,463.43728 L 310.70682,394.39834 C 310.70682,391.52946 308.32929,389.21985 308.32929,389.21985"
       style="fill:none;fill-opacity:1;fill-rule:nonzero;stroke:black;stroke-width:1;stroke-linecap:round;stroke-linejoin:miter;stroke-miterlimit:4;stroke-dashoffset:0;stroke-opacity:1"
       id="rect2133" />
  </g>
  <g
     id="g2084">
    <g
       id="g2065">
      <g
         transform="translate(141.405,294.881)"
         id="g11394">
        <g
           id="g12381">
          <g
             id="g12432">
            <path
               d="M 196.40648,110.54428 L 196.40648,118.94519 M 214.09347,118.89381 L 214.0864,110.27642"
               style="fill:none;fill-opacity:1;fill-rule:nonzero;stroke:black;stroke-width:1;stroke-linecap:round;stroke-linejoin:round;stroke-miterlimit:4;stroke-dashoffset:0;stroke-opacity:1"
               id="path12377" />
          </g>
        </g>
      </g>
      <path
         d="M 57.152053,147.81522 C 54.400994,157.63742 45.136018,164.49165 34.512724,164.5638 C 23.88943,164.63595 14.523777,157.90826 11.627387,148.12442"
         transform="translate(312.3762,292.7952)"
         style="fill:#fdff62;fill-opacity:1;fill-rule:nonzero;stroke:black;stroke-width:1;stroke-linecap:round;stroke-linejoin:round;stroke-miterlimit:4;stroke-dasharray:none;stroke-dashoffset:0;stroke-opacity:1"
         id="path11388" />
      <path
         d="M 39.822434,144.84553 C 51.711839,145.2859 58.797323,146.97058 55.682582,148.61651 C 52.567841,150.26245 40.421919,151.25187 28.49515,150.83124 C 16.568382,150.41061 9.3371965,148.7378 12.308866,147.08682 C 15.280535,145.43584 27.339712,144.42635 39.302129,144.82718"
         transform="translate(312.7334,292.7952)"
         style="fill:#fdff62;fill-opacity:1;fill-rule:nonzero;stroke:black;stroke-width:1;stroke-linecap:round;stroke-linejoin:round;stroke-miterlimit:4;stroke-dasharray:none;stroke-dashoffset:0;stroke-opacity:1"
         id="path11390" />
      <path
         d="M 43.071537,120.96019 C 53.570496,124.95725 59.639917,135.51373 57.550115,146.14262 C 55.460314,156.77152 45.797032,164.49372 34.498394,164.56389 C 23.199755,164.63407 13.432603,157.03255 11.198889,146.43051 C 8.9651753,135.82846 14.890978,125.19748 25.334868,121.07035"
         transform="translate(312.3762,292.7952)"
         style="fill:none;fill-opacity:1;fill-rule:nonzero;stroke:black;stroke-width:1;stroke-linecap:round;stroke-linejoin:round;stroke-miterlimit:4;stroke-dasharray:none;stroke-dashoffset:0;stroke-opacity:1"
         id="path2311" />
    </g>
    <g
       style="fill:#f0f0f0;fill-opacity:0.86666667"
       id="g2059">
      <g
         transform="translate(312.3762,342.7952)"
         style="fill:#f0f0f0;fill-opacity:0.86666667"
         id="g11382">
        <path
           d="M 23.486046,38.421562 L 44.951788,38.421562 L 42.300138,62.412685 L 26.011427,62.412685 L 23.486046,38.421562 z "
           style="fill:#f0f0f0;fill-opacity:0.86666667;fill-rule:nonzero;stroke:black;stroke-width:1;stroke-linecap:round;stroke-linejoin:round;stroke-miterlimit:4;stroke-dashoffset:0;stroke-opacity:1"
           id="path11384" />
        <rect
           width="24.875006"
           height="4.5456862"
           ry="0.84192872"
           x="21.59201"
           y="34.128414"
           style="opacity:1;fill:#f0f0f0;fill-opacity:0.86666667;fill-rule:nonzero;stroke:black;stroke-width:1;stroke-linecap:round;stroke-linejoin:round;stroke-miterlimit:4;stroke-dasharray:none;stroke-dashoffset:0;stroke-opacity:1"
           id="rect11386" />
      </g>
      <rect
         width="23.974712"
         height="4.4818945"
         ry="0.9471215"
         x="334.34879"
         y="372.31369"
         style="opacity:1;fill:#f0f0f0;fill-opacity:0.86666667;fill-rule:nonzero;stroke:black;stroke-width:1;stroke-linecap:round;stroke-linejoin:round;stroke-miterlimit:4;stroke-dasharray:none;stroke-dashoffset:0;stroke-opacity:1"
         id="rect2038" />
    </g>
  </g>
  <g
     id="g2109">
    <g
       transform="matrix(-0.345072,0.938576,0.938576,0.345072,81.36276,305.4833)"
       id="g2179">
      <path
         d="M -62.489445,199.43608 L -65.168095,199.6312 C -68.728675,199.6312 -71.595135,196.76474 -71.595135,193.20417 L -71.595135,188.56589 C -71.595135,185.11303 -81.880175,184.75745 -88.215435,184.75745 C -89.690965,186.06904 -91.166495,186.05049 -92.642025,184.33264 C -94.197135,185.54792 -95.752245,186.32253 -97.307365,183.88492 C -98.549895,185.05678 -99.766635,186.56378 -101.33511,183.49838 C -102.64398,184.00673 -103.95287,184.8735 -105.26175,183.12155 L -105.26175,179.2072 C -104.11675,177.99459 -102.85704,177.58501 -101.37611,178.72388 C -99.977395,176.42056 -98.578665,177.19819 -97.179935,178.20193 C -95.703465,175.94019 -94.226985,176.22122 -92.750515,177.65097 C -91.453955,176.04302 -90.051685,175.0164 -88.089165,177.07116 C -82.554655,177.07116 -71.595135,178.26062 -71.595135,173.4412 L -71.595135,53.047923 C -71.595135,49.526763 -80.615645,49.633563 -88.215425,49.633563 C -89.690955,50.945153 -91.166485,50.926603 -92.642015,49.208753 C -94.197125,50.424033 -95.752235,51.198643 -97.307355,48.761033 C -98.549885,49.932893 -99.766625,51.439893 -101.3351,48.374493 C -102.64398,48.882843 -103.95287,49.749613 -105.26175,47.997663 L -105.26175,44.083313 C -104.11675,42.870703 -102.85704,42.461123 -101.37611,43.599993 C -99.977385,41.296673 -98.578655,42.074303 -97.179925,43.078043 C -95.703455,40.816303 -94.226975,41.097333 -92.750505,42.527083 C -91.453945,40.919133 -90.051675,39.892513 -88.089155,41.947273 C -80.455865,41.947273 -71.595135,42.696473 -71.595135,38.466853 L -71.595135,34.47972 C -71.595135,30.91915 -68.728675,28.05269 -65.168095,28.05269 L -62.489445,28.24781 L -62.489445,199.43608 z M -47.277685,199.6312 C -50.838265,199.6312 -49.956345,199.43608 -49.956345,199.43608 L -49.956345,28.24781 L -47.277685,28.05269 C -43.717115,28.05269 -40.850655,30.91915 -40.850655,34.47972 L -40.850655,193.20417 C -40.850655,196.76474 -43.717115,199.6312 -47.277685,199.6312 z "
         style="fill:aqua;fill-opacity:1;fill-rule:nonzero;stroke:none;stroke-width:1;stroke-linecap:round;stroke-linejoin:round;stroke-miterlimit:4;stroke-dashoffset:0;stroke-opacity:1"
         id="path2854" />
      <path
         d="M -122.01854,176.31634 L -108.89354,181.12884 L -122.01854,185.97259 C -121.39322,185.10133 -120.95703,184.12388 -120.70604,183.12884 L -132.36229,183.12884 L -132.36229,179.12884 L -120.70604,179.12884 C -120.95513,178.13261 -121.38501,177.17728 -122.01854,176.31634 z "
         style="fill:aqua;fill-opacity:1;fill-rule:evenodd;stroke:none;stroke-width:4;stroke-linecap:butt;stroke-linejoin:miter;stroke-miterlimit:4;stroke-dasharray:none;stroke-opacity:1"
         id="path10737" />
      <path
         d="M -118.84192,41.306589 L -131.96692,46.119089 L -118.84192,50.962839 C -119.46724,50.091589 -119.90343,49.114129 -120.15442,48.119089 L -108.49817,48.119089 L -108.49817,44.119089 L -120.15442,44.119089 C -119.90533,43.122869 -119.47545,42.167539 -118.84192,41.306589 z "
         style="fill:aqua;fill-opacity:1;fill-rule:evenodd;stroke:none;stroke-width:4;stroke-linecap:butt;stroke-linejoin:miter;stroke-miterlimit:4;stroke-dasharray:none;stroke-opacity:1"
         id="path12895" />
      <path
         d="M -47.002215,199.53605 L -47.002215,201.69019 M -88.215435,184.67886 C -81.880175,184.67886 -71.595135,185.03444 -71.595135,188.4873 L -71.595135,193.03809 C -71.595135,196.59866 -68.728675,199.46512 -65.168095,199.46512 L -47.277685,199.46512 C -43.717115,199.46512 -40.850655,196.59866 -40.850655,193.03809 L -40.850655,34.47972 C -40.850655,30.91915 -43.717115,28.05269 -47.277685,28.05269 L -65.168095,28.05269 C -68.728675,28.05269 -71.595135,30.91915 -71.595135,34.47972 L -71.595135,38.338416 C -71.595135,42.568036 -80.455865,41.818836 -88.089155,41.818836 C -90.051675,39.764076 -91.453945,40.790696 -92.750505,42.398646 C -94.226975,40.968896 -95.703455,40.687866 -97.179925,42.949606 C -98.578655,41.945866 -99.977385,41.168236 -101.37611,43.471556 C -102.85704,42.332686 -104.11675,42.742266 -105.26175,43.954876 L -105.26175,47.869226 C -103.95287,49.621176 -102.64398,48.754406 -101.3351,48.246056 C -99.766625,51.311456 -98.549885,49.804456 -97.307355,48.632596 C -95.752235,51.070206 -94.197125,50.295596 -92.642015,49.080316 C -91.166485,50.798166 -89.690955,50.816716 -88.215425,49.505126 C -80.615645,49.505126 -71.595135,49.398326 -71.595135,52.919486 L -71.595135,173.36261 C -71.595135,178.18203 -82.554655,176.99257 -88.089165,176.99257 C -90.051685,174.93781 -91.453955,175.96443 -92.750515,177.57238 C -94.226985,176.14263 -95.703465,175.8616 -97.179935,178.12334 C -98.578665,177.1196 -99.977395,176.34197 -101.37611,178.64529 C -102.85704,177.50642 -104.11675,177.916 -105.26175,179.12861 L -105.26175,183.04296 C -103.95287,184.79491 -102.64398,183.92814 -101.33511,183.41979 C -99.766635,186.48519 -98.549895,184.97819 -97.307365,183.80633 C -95.752245,186.24394 -94.197135,185.46933 -92.642025,184.25405 C -91.166495,185.9719 -89.690965,185.99045 -88.215435,184.67886 z M -62.489445,199.27 L -62.489445,28.24781 M -49.956345,28.24781 L -49.956345,199.27 M -65.478335,199.53605 L -65.478335,201.69019"
         style="fill:none;fill-opacity:1;fill-rule:nonzero;stroke:black;stroke-width:1;stroke-linecap:round;stroke-linejoin:round;stroke-miterlimit:4;stroke-dashoffset:0;stroke-opacity:1"
         id="path2846" />
    </g>
    <g
       transform="matrix(0.347635,-0.93763,0.93763,0.347635,-178.9723,517.8554)"
       id="g2074">
      <g
         transform="translate(312.3762,342.7952)"
         id="g2076">
        <path
           d="M 23.486046,38.421562 L 44.951788,38.421562 L 42.300138,62.412685 L 26.011427,62.412685 L 23.486046,38.421562 z "
           style="fill:#f1f1f1;fill-opacity:1;fill-rule:nonzero;stroke:black;stroke-width:1;stroke-linecap:round;stroke-linejoin:round;stroke-miterlimit:4;stroke-dashoffset:0;stroke-opacity:1"
           id="path2078" />
        <rect
           width="24.875006"
           height="4.5456862"
           ry="0.84192872"
           x="21.59201"
           y="34.128414"
           style="opacity:1;fill:#f1f1f1;fill-opacity:1;fill-rule:nonzero;stroke:black;stroke-width:1;stroke-linecap:round;stroke-linejoin:round;stroke-miterlimit:4;stroke-dasharray:none;stroke-dashoffset:0;stroke-opacity:1"
           id="rect2080" />
      </g>
      <rect
         width="23.974712"
         height="4.4818945"
         ry="0.9471215"
         x="334.34879"
         y="372.31369"
         style="opacity:1;fill:#f1f1f1;fill-opacity:1;fill-rule:nonzero;stroke:black;stroke-width:1;stroke-linecap:round;stroke-linejoin:round;stroke-miterlimit:4;stroke-dasharray:none;stroke-dashoffset:0;stroke-opacity:1"
         id="rect2082" />
    </g>
    <g
       transform="matrix(0.347635,-0.93763,0.93763,0.347635,-373.5513,446.1155)"
       id="g2099">
      <g
         transform="translate(312.3762,342.7952)"
         id="g2101">
        <path
           d="M 23.486046,38.421562 L 44.951788,38.421562 L 42.300138,62.412685 L 26.011427,62.412685 L 23.486046,38.421562 z "
           style="fill:#f1f1f1;fill-opacity:1;fill-rule:nonzero;stroke:black;stroke-width:1;stroke-linecap:round;stroke-linejoin:round;stroke-miterlimit:4;stroke-dashoffset:0;stroke-opacity:1"
           id="path2103" />
        <rect
           width="24.875006"
           height="4.5456862"
           ry="0.84192872"
           x="21.59201"
           y="34.128414"
           style="opacity:1;fill:#f1f1f1;fill-opacity:1;fill-rule:nonzero;stroke:black;stroke-width:1;stroke-linecap:round;stroke-linejoin:round;stroke-miterlimit:4;stroke-dasharray:none;stroke-dashoffset:0;stroke-opacity:1"
           id="rect2105" />
      </g>
      <rect
         width="23.974712"
         height="4.4818945"
         ry="0.9471215"
         x="334.34879"
         y="372.31369"
         style="opacity:1;fill:#f1f1f1;fill-opacity:1;fill-rule:nonzero;stroke:black;stroke-width:1;stroke-linecap:round;stroke-linejoin:round;stroke-miterlimit:4;stroke-dasharray:none;stroke-dashoffset:0;stroke-opacity:1"
         id="rect2107" />
    </g>
  </g>
  <g
     transform="matrix(1.261217,0,0,1,-369.5569,-17.82913)"
     id="g3915">
    <path
       d="M 382.60075,441.80966 L 382.60075,463.43728 C 382.60075,466.30616 380.29115,468.61576 377.42227,468.61576 L 315.8853,468.61576 C 313.01642,468.61576 310.70682,466.30616 310.70682,463.43728 L 310.70682,441.80966"
       style="fill:#fc0;fill-opacity:1;fill-rule:nonzero;stroke:none;stroke-width:1;stroke-linecap:round;stroke-linejoin:miter;stroke-miterlimit:4;stroke-dashoffset:0;stroke-opacity:1"
       id="path3917" />
    <path
       d="M 382.60075,423.67524 L 382.60075,463.43728 C 382.60075,466.30616 380.29115,468.61576 377.42227,468.61576 L 315.8853,468.61576 C 313.01642,468.61576 310.70682,466.30616 310.70682,463.43728 L 310.70682,423.67524"
       style="fill:none;fill-opacity:1;fill-rule:nonzero;stroke:black;stroke-width:1;stroke-linecap:round;stroke-linejoin:miter;stroke-miterlimit:4;stroke-dashoffset:0;stroke-opacity:1"
       id="path3919" />
  </g>
  <g
     transform="translate(-31.5428,-18.55459)"
     id="g2023">
    <g
       transform="translate(-106.1246,268.6078)"
       id="g3327">
      <g
         id="g3329">
        <g
           id="g3331">
          <g
             id="g3333">
            <path
               d="M 196.40648,110.54428 L 196.40648,118.94519 M 214.09347,118.89381 L 214.0864,110.27642"
               style="fill:none;fill-opacity:1;fill-rule:nonzero;stroke:black;stroke-width:1;stroke-linecap:round;stroke-linejoin:round;stroke-miterlimit:4;stroke-dashoffset:0;stroke-opacity:1"
               id="path3335" />
          </g>
        </g>
      </g>
      <g
         id="g3337">
        <g
           transform="translate(170.9712,47.91425)"
           id="g3339">
          <path
             d="M 23.486046,38.421562 L 44.951788,38.421562 L 42.300138,62.412685 L 26.011427,62.412685 L 23.486046,38.421562 z "
             style="fill:#f1f1f1;fill-opacity:1;fill-rule:nonzero;stroke:black;stroke-width:1;stroke-linecap:round;stroke-linejoin:round;stroke-miterlimit:4;stroke-dashoffset:0;stroke-opacity:1"
             id="path3341" />
          <rect
             width="24.875006"
             height="4.5456862"
             ry="1.0088879"
             x="21.59201"
             y="34.128414"
             style="opacity:1;fill:#f1f1f1;fill-opacity:1;fill-rule:nonzero;stroke:black;stroke-width:1;stroke-linecap:round;stroke-linejoin:round;stroke-miterlimit:4;stroke-dasharray:none;stroke-dashoffset:0;stroke-opacity:1"
             id="rect3343" />
        </g>
        <path
           d="M 69.596707,151.41326 C 65.319356,167.36735 50.860089,178.45986 34.342558,178.45867 C 17.825028,178.45748 3.3673593,167.36289 -0.9076928,151.40818"
           transform="translate(170.9712,11.91184)"
           style="fill:#d6d7a1;fill-opacity:1;fill-rule:nonzero;stroke:black;stroke-width:1;stroke-linecap:round;stroke-linejoin:round;stroke-miterlimit:4;stroke-dasharray:none;stroke-dashoffset:0;stroke-opacity:1"
           id="path3345" />
        <path
           d="M 43.11593,143.92367 C 61.83164,144.50303 72.936596,146.72132 67.926543,148.87975 C 62.916491,151.03818 43.68644,152.32035 24.962904,151.74436 C 6.2393686,151.16838 -4.8956264,148.95209 0.085179284,146.79276 C 5.065985,144.63343 24.278642,143.34779 43.009958,143.92041"
           transform="translate(171.3284,15.41124)"
           style="fill:#d6d7a1;fill-opacity:1;fill-rule:nonzero;stroke:black;stroke-width:1;stroke-linecap:round;stroke-linejoin:round;stroke-miterlimit:4;stroke-dasharray:none;stroke-dashoffset:0;stroke-opacity:1"
           id="path3347" />
        <g
           transform="translate(170.9712,-2.085755)"
           id="g3349" />
        <path
           d="M 43.117927,106.53578 C 60.99789,110.96344 72.775966,128.02069 70.581821,146.30957 C 68.387677,164.59844 52.909139,178.38568 34.48926,178.45839 C 16.069382,178.5311 0.48248258,164.86649 -1.8559746,146.5955 C -4.1944318,128.32452 7.4486195,111.17481 25.293071,106.60614"
           transform="translate(170.9712,12.07091)"
           style="fill:none;fill-opacity:1;fill-rule:nonzero;stroke:black;stroke-width:1;stroke-linecap:round;stroke-linejoin:round;stroke-miterlimit:4;stroke-dasharray:none;stroke-dashoffset:0;stroke-opacity:1"
           id="path3351" />
      </g>
    </g>
    <path
       d="M -452.87295,458.62673 C -453.94116,460.11847 -458.03094,461.00337 -462.00949,460.60358 C -465.98803,460.2038 -468.34993,458.6706 -467.28595,457.17843 C -466.22198,455.68627 -462.13471,454.79974 -458.15503,455.19794 C -454.17535,455.59614 -451.8091,457.12839 -452.86885,458.62098"
       transform="translate(559.1918,-7.272073)"
       style="opacity:0.65;fill:#999;fill-opacity:1;fill-rule:nonzero;stroke:none;stroke-width:10;stroke-linecap:round;stroke-linejoin:round;stroke-miterlimit:4;stroke-dasharray:none;stroke-dashoffset:0;stroke-opacity:1"
       id="path7400" />
  </g>
  <rect
     width="95.042084"
     height="3.2414575"
     ry="0"
     x="20.127712"
     y="451.32108"
     style="opacity:1;fill:red;fill-opacity:1;fill-rule:nonzero;stroke:none;stroke-width:1;stroke-linecap:round;stroke-linejoin:miter;stroke-miterlimit:4;stroke-dasharray:none;stroke-dashoffset:0;stroke-opacity:1"
     id="rect3921" />
  <rect
     width="100.09976"
     height="11.801235"
     ry="3.1610451"
     x="17.598873"
     y="455.0932"
     style="opacity:1;fill:#b3b3b3;fill-opacity:1;fill-rule:nonzero;stroke:black;stroke-width:1;stroke-linecap:round;stroke-linejoin:miter;stroke-miterlimit:4;stroke-dasharray:none;stroke-dashoffset:0;stroke-opacity:1"
     id="rect3923" />
  <path
     d="M 14.011852,504.82694 C 13.041582,504.82694 12.47209,504.07503 12.734978,503.14105 L 22.462763,468.58029 C 22.725649,467.64631 23.718419,466.8944 24.688689,466.8944 C 25.658959,466.8944 109.63854,466.89443 110.60882,466.89443 C 111.5791,466.89443 112.57186,467.64634 112.83475,468.58032 L 122.56253,503.14107 C 122.82542,504.07506 122.25593,504.82697 121.28566,504.82697 L 14.011852,504.82694 z "
     style="fill:#2a7fff;fill-opacity:1;fill-rule:nonzero;stroke:black;stroke-width:1.01924348;stroke-linecap:round;stroke-linejoin:miter;stroke-miterlimit:4;stroke-dashoffset:0;stroke-opacity:1"
     id="rect4812" />
  <g
     transform="matrix(1.084334,0,0,1.084334,-3.050988,-40.86378)"
     style="fill:#80b3ff"
     id="g4857">
    <path
       d="M 51.174376,484.54788 C 51.174376,489.65562 47.033735,493.79626 41.925995,493.79626 C 36.818255,493.79626 32.677614,489.65562 32.677614,484.54788 C 32.677614,479.44014 36.818255,475.2995 41.925995,475.2995 C 47.033735,475.2995 51.174376,479.44014 51.174376,484.54788 z "
       style="opacity:1;fill:#80b3ff;fill-opacity:1;fill-rule:nonzero;stroke:black;stroke-width:1;stroke-linecap:round;stroke-linejoin:miter;stroke-miterlimit:4;stroke-dasharray:none;stroke-dashoffset:0;stroke-opacity:1"
       id="path4853" />
    <path
       d="M 51.174376,484.54788 C 51.174376,489.65562 47.033735,493.79626 41.925995,493.79626 C 36.818255,493.79626 32.677614,489.65562 32.677614,484.54788 C 32.677614,479.44014 36.818255,475.2995 41.925995,475.2995 C 47.033735,475.2995 51.174376,479.44014 51.174376,484.54788 z "
       transform="translate(46.55018,0)"
       style="opacity:1;fill:#80b3ff;fill-opacity:1;fill-rule:nonzero;stroke:black;stroke-width:1;stroke-linecap:round;stroke-linejoin:miter;stroke-miterlimit:4;stroke-dasharray:none;stroke-dashoffset:0;stroke-opacity:1"
       id="path4855" />
    <path
       d="M 53.147029,478.74059 C 51.693476,478.87024 53.705153,481.50454 53.800539,479.79604 C 53.653633,479.40087 53.565811,478.9338 53.147029,478.74059 z M 48.864338,473.74517 C 48.346066,472.876 46.776587,473.47516 47.8704,474.23268 C 48.317488,474.75872 49.483207,474.57216 48.864338,473.74517 z M 54.007896,486.1888 C 52.738528,486.79914 54.169017,488.96158 54.489717,487.08848 C 54.581703,486.69276 54.492905,486.22579 54.007896,486.1888 z M 41.448171,471.67159 C 40.474238,471.24145 39.400324,472.71816 40.865679,472.63192 C 41.486231,472.728 42.246445,472.17964 41.448171,471.67159 z M 34.085089,474.24916 C 33.068161,474.45899 32.995977,476.25895 34.16052,475.40466 C 34.69042,475.09989 35.039385,474.21535 34.085089,474.24916 z M 29.914651,480.40636 C 28.809097,480.71355 29.479568,483.03779 30.22031,481.63856 C 30.36254,481.21485 30.604727,480.48627 29.914651,480.40636 z M 35.322587,494.61054 C 34.844783,493.78807 33.327662,494.15265 34.277594,495.04128 C 34.684152,495.60667 36.059828,495.49813 35.322587,494.61054 z M 30.125402,487.95503 C 28.685991,487.96125 30.414012,490.72302 30.713936,489.07404 C 30.580875,488.66889 30.494029,488.21461 30.125402,487.95503 z "
       style="opacity:1;fill:black;fill-opacity:1;fill-rule:nonzero;stroke:none;stroke-width:1.00000012;stroke-linecap:round;stroke-linejoin:miter;stroke-miterlimit:4;stroke-dasharray:1.00000008, 8.00000061;stroke-dashoffset:0;stroke-opacity:1"
       id="path4958" />
    <use
       transform="translate(46.37561,0)"
       id="use5886"
       x="0"
       y="0"
       width="392"
       height="520"
       xlink:href="#path4958" />
  </g>
  <g
     transform="translate(-1.991944,0)"
     id="g4866">
    <path
       d="M 34.527288,505.11825 L 34.527288,508.87583 C 34.527288,509.74423 33.828174,510.44335 32.959768,510.44335 L 23.147076,510.44335 C 22.27867,510.44335 21.579556,509.74423 21.579556,508.87583 L 21.579556,505.11825"
       style="fill:#916f6f;fill-opacity:1;fill-rule:nonzero;stroke:black;stroke-width:1;stroke-linecap:round;stroke-linejoin:miter;stroke-miterlimit:4;stroke-dashoffset:0;stroke-opacity:1"
       id="rect4861" />
    <path
       d="M 117.70184,505.11825 L 117.70184,508.87583 C 117.70184,509.74423 117.00273,510.44335 116.13432,510.44335 L 106.32163,510.44335 C 105.45322,510.44335 104.75411,509.74423 104.75411,508.87583 L 104.75411,505.11825"
       style="fill:#916f6f;fill-opacity:1;fill-rule:nonzero;stroke:black;stroke-width:1;stroke-linecap:round;stroke-linejoin:miter;stroke-miterlimit:4;stroke-dashoffset:0;stroke-opacity:1"
       id="path4864" />
  </g>
  <text
     x="11.297751"
     y="461.02167"
     style="font-size:16px;font-style:normal;font-weight:normal;text-align:center;text-anchor:middle;fill:black;fill-opacity:1;stroke:none;stroke-width:1px;stroke-linecap:butt;stroke-linejoin:miter;stroke-opacity:1;font-family:Sans"
     id="text4894"
     xml:space="preserve"><tspan
       x="11.297751"
       y="461.02167"
       id="tspan4896">1</tspan></text>
  <text
     x="34.210526"
     y="373.38345"
     style="font-size:16px;font-style:normal;font-weight:normal;text-align:center;text-anchor:middle;fill:black;fill-opacity:1;stroke:none;stroke-width:1px;stroke-linecap:butt;stroke-linejoin:miter;stroke-opacity:1;font-family:Sans"
     id="text4898"
     xml:space="preserve"><tspan
       x="34.210526"
       y="373.38345"
       id="tspan4900">2</tspan></text>
  <text
     x="78.15406"
     y="429.49701"
     style="font-size:12px;font-style:normal;font-weight:normal;text-align:center;text-anchor:middle;fill:black;fill-opacity:1;stroke:none;stroke-width:1px;stroke-linecap:butt;stroke-linejoin:miter;stroke-opacity:1;font-family:Sans"
     id="text4902"
     xml:space="preserve"><tspan
       x="78.15406"
       y="429.49701"
       id="tspan4904">15</tspan></text>
  <text
     x="116.31579"
     y="440.82706"
     style="font-size:16px;font-style:normal;font-weight:normal;text-align:start;text-anchor:start;fill:black;fill-opacity:1;stroke:none;stroke-width:1px;stroke-linecap:butt;stroke-linejoin:miter;stroke-opacity:1;font-family:Sans"
     id="text4906"
     xml:space="preserve"><tspan
       x="116.31579"
       y="440.82706"
       id="tspan4908">14</tspan></text>
  <text
     x="126.09023"
     y="489.69925"
     style="font-size:16px;font-style:normal;font-weight:normal;text-align:start;text-anchor:start;fill:black;fill-opacity:1;stroke:none;stroke-width:1px;stroke-linecap:butt;stroke-linejoin:miter;stroke-opacity:1;font-family:Sans"
     id="text4910"
     xml:space="preserve"><tspan
       x="126.09023"
       y="489.69925"
       id="tspan4912">13</tspan></text>
  <text
     x="47.894737"
     y="264.88721"
     style="font-size:16px;font-style:normal;font-weight:normal;text-align:start;text-anchor:start;fill:black;fill-opacity:1;stroke:none;stroke-width:1px;stroke-linecap:butt;stroke-linejoin:miter;stroke-opacity:1;font-family:Sans"
     id="text4914"
     xml:space="preserve"><tspan
       x="47.894737"
       y="264.88721"
       id="tspan4916">3</tspan></text>
  <text
     x="52.781956"
     y="111.42857"
     style="font-size:16px;font-style:normal;font-weight:normal;text-align:start;text-anchor:start;fill:black;fill-opacity:1;stroke:none;stroke-width:1px;stroke-linecap:butt;stroke-linejoin:miter;stroke-opacity:1;font-family:Sans"
     id="text4918"
     xml:space="preserve"><tspan
       x="52.781956"
       y="111.42857"
       id="tspan4920">4</tspan></text>
  <text
     x="202.33083"
     y="322.5564"
     style="font-size:16px;font-style:normal;font-weight:normal;text-align:start;text-anchor:start;fill:black;fill-opacity:1;stroke:none;stroke-width:1px;stroke-linecap:butt;stroke-linejoin:miter;stroke-opacity:1;font-family:Sans"
     id="text4922"
     xml:space="preserve"><tspan
       x="202.33083"
       y="322.5564"
       id="tspan4924">5</tspan></text>
  <text
     x="303.98495"
     y="254.13535"
     style="font-size:16px;font-style:normal;font-weight:normal;text-align:start;text-anchor:start;fill:black;fill-opacity:1;stroke:none;stroke-width:1px;stroke-linecap:butt;stroke-linejoin:miter;stroke-opacity:1;font-family:Sans"
     id="text4926"
     xml:space="preserve"><tspan
       x="303.98495"
       y="254.13535"
       id="tspan4928">6</tspan></text>
  <text
     x="176.9173"
     y="210.15038"
     style="font-size:16px;font-style:normal;font-weight:normal;text-align:start;text-anchor:start;fill:black;fill-opacity:1;stroke:none;stroke-width:1px;stroke-linecap:butt;stroke-linejoin:miter;stroke-opacity:1;font-family:Sans"
     id="text4930"
     xml:space="preserve"><tspan
       x="176.9173"
       y="210.15038"
       id="tspan4932">7</tspan></text>
  <text
     x="344.06015"
     y="430.0752"
     style="font-size:16px;font-style:normal;font-weight:normal;text-align:start;text-anchor:start;fill:black;fill-opacity:1;stroke:none;stroke-width:1px;stroke-linecap:butt;stroke-linejoin:miter;stroke-opacity:1;font-family:Sans"
     id="text4934"
     xml:space="preserve"><tspan
       x="344.06015"
       y="430.0752"
       id="tspan4936">8</tspan></text>
  <text
     x="373.38345"
     y="348.94736"
     style="font-size:16px;font-style:normal;font-weight:normal;text-align:start;text-anchor:start;fill:black;fill-opacity:1;stroke:none;stroke-width:1px;stroke-linecap:butt;stroke-linejoin:miter;stroke-opacity:1;font-family:Sans"
     id="text4938"
     xml:space="preserve"><tspan
       x="373.38345"
       y="348.94736"
       id="tspan4940">9</tspan></text>
  <text
     x="340.15039"
     y="326.46616"
     style="font-size:16px;font-style:normal;font-weight:normal;text-align:start;text-anchor:start;fill:black;fill-opacity:1;stroke:none;stroke-width:1px;stroke-linecap:butt;stroke-linejoin:miter;stroke-opacity:1;font-family:Sans"
     id="text4942"
     xml:space="preserve"><tspan
       x="340.15039"
       y="326.46616"
       id="tspan4944">10</tspan></text>
  <text
     x="42.308254"
     y="488.922"
     style="font-size:12px;font-style:normal;font-weight:normal;text-align:center;text-anchor:middle;fill:black;fill-opacity:1;stroke:none;stroke-width:1px;stroke-linecap:butt;stroke-linejoin:miter;stroke-opacity:1;font-family:Sans"
     id="text4946"
     xml:space="preserve"><tspan
       x="42.308254"
       y="488.922"
       id="tspan4948">11</tspan></text>
  <text
     x="92.83107"
     y="489.0011"
     style="font-size:16px;font-style:normal;font-weight:normal;text-align:center;text-anchor:middle;fill:black;fill-opacity:1;stroke:none;stroke-width:1px;stroke-linecap:butt;stroke-linejoin:miter;stroke-opacity:1;font-family:Sans"
     id="text4950"
     xml:space="preserve"><tspan
       x="92.83107"
       y="489.0011"
       style="font-size:12px"
       id="tspan4952">12</tspan></text>
  <text
     x="297.14285"
     y="461.35339"
     style="font-size:16px;font-style:normal;font-weight:normal;text-align:center;text-anchor:middle;fill:black;fill-opacity:1;stroke:none;stroke-width:1px;stroke-linecap:butt;stroke-linejoin:miter;stroke-opacity:1;font-family:Sans"
     id="text4954"
     xml:space="preserve"><tspan
       x="297.14285"
       y="461.35339"
       id="tspan4956">16</tspan></text>
</svg>
