<?xml version="1.0" encoding="utf-8" standalone="no"?>
<!DOCTYPE svg PUBLIC "-//W3C//DTD SVG 1.1//EN"
  "http://www.w3.org/Graphics/SVG/1.1/DTD/svg11.dtd">
<svg xmlns:xlink="http://www.w3.org/1999/xlink" width="45.160006pt" height="126pt" viewBox="0 0 45.160006 126" xmlns="http://www.w3.org/2000/svg" version="1.1">
 <metadata>
  <rdf:RDF xmlns:dc="http://purl.org/dc/elements/1.1/" xmlns:cc="http://creativecommons.org/ns#" xmlns:rdf="http://www.w3.org/1999/02/22-rdf-syntax-ns#">
   <cc:Work>
    <dc:type rdf:resource="http://purl.org/dc/dcmitype/StillImage"/>
    <dc:date>1970-01-01T00:00:00+00:00</dc:date>
    <dc:format>image/svg+xml</dc:format>
    <dc:creator>
     <cc:Agent>
      <dc:title>Matplotlib v3.11.2, https://matplotlib.org/</dc:title>
     </cc:Agent>
    </dc:creator>
   </cc:Work>
  </rdf:RDF>
 </metadata>
 <defs>
  <style type="text/css">*{stroke-linejoin: round; stroke-linecap: butt}</style>
 </defs>
 <g id="figure_1">
  <g id="patch_1">
   <path d="M 0 126
L 45.160006 126
L 45.160006 0
L 0 0
L 0 126
z
" style="fill: none"/>
  </g>
  <g id="axes_1">
   <g id="patch_2">
    <path d="M 22.580003 80.920637
C 27.332611 80.920637 31.891205 79.032406 35.251807 75.671804
C 38.612409 72.311202 40.50064 67.752609 40.50064 63
C 40.50064 58.247391 38.612409 53.688798 35.251807 50.328196
C 31.891205 46.967594 27.332611 45.079363 22.580003 45.079363
C 17.827394 45.079363 13.2688 46.967594 9.908199 50.328196
C 6.547597 53.688798 4.659366 58.247391 4.659366 63
C 4.659366 67.752609 6.547597 72.311202 9.908199 75.671804
C 13.2688 79.032406 17.827394 80.920637 22.580003 80.920637
L 22.580003 80.920637
z
" clip-path="url(#pd7283c97b9)" style="fill: none; stroke: #000000; stroke-width: 2; stroke-linejoin: miter"/>
   </g>
   <g id="line2d_1">
    <path d="M 22.580003 116.761912
L 22.580003 80.920637
L 22.580003 80.920637
M 22.580003 45.079363
L 22.580003 45.079363
L 22.580003 9.238088
" clip-path="url(#pd7283c97b9)" style="fill: none; stroke: #000000; stroke-width: 2; stroke-linecap: round"/>
   </g>
   <g id="line2d_2">
    <path d="M 26.16413 71.960319
L 18.995875 71.960319
" clip-path="url(#pd7283c97b9)" style="fill: none; stroke: #000000; stroke-width: 2; stroke-linecap: round"/>
   </g>
   <g id="line2d_3">
    <path d="M 22.580003 57.623809
L 22.580003 50.455554
" clip-path="url(#pd7283c97b9)" style="fill: none; stroke: #000000; stroke-width: 2; stroke-linecap: round"/>
   </g>
   <g id="line2d_4">
    <path d="M 26.16413 54.039681
L 18.995875 54.039681
" clip-path="url(#pd7283c97b9)" style="fill: none; stroke: #000000; stroke-width: 2; stroke-linecap: round"/>
   </g>
   <g id="patch_3">
    <path d="M 22.580003 119.450007
C 23.292894 119.450007 23.976683 119.166772 24.480773 118.662682
C 24.984864 118.158592 25.268098 117.474803 25.268098 116.761912
C 25.268098 116.04902 24.984864 115.365231 24.480773 114.861141
C 23.976683 114.357051 23.292894 114.073816 22.580003 114.073816
C 21.867112 114.073816 21.183322 114.357051 20.679232 114.861141
C 20.175142 115.365231 19.891907 116.04902 19.891907 116.761912
C 19.891907 117.474803 20.175142 118.158592 20.679232 118.662682
C 21.183322 119.166772 21.867112 119.450007 22.580003 119.450007
z
" clip-path="url(#pd7283c97b9)" style="stroke: #000000; stroke-width: 2; stroke-linejoin: miter"/>
   </g>
   <g id="text_1">
    <!-- $B$ -->
    <g transform="translate(28.852226 121.871912) scale(0.14 -0.14)">
     <defs>
      <path id="DejaVuSans-Oblique-25" d="M 1081 4666
L 2694 4666
Q 3350 4666 3675 4422
Q 4000 4178 4000 3688
Q 4000 3238 3720 2911
Q 3441 2584 2988 2516
Q 3375 2428 3569 2181
Q 3763 1934 3763 1522
Q 3763 819 3242 409
Q 2722 0 1819 0
L 172 0
L 1081 4666
z
M 1234 2228
L 903 519
L 1919 519
Q 2491 519 2800 781
Q 3109 1044 3109 1522
Q 3109 1891 2904 2059
Q 2700 2228 2247 2228
L 1234 2228
z
M 1606 4147
L 1331 2741
L 2272 2741
Q 2775 2741 3058 2959
Q 3341 3178 3341 3566
Q 3341 3869 3150 4008
Q 2959 4147 2541 4147
L 1606 4147
z
" transform="scale(0.015625)"/>
     </defs>
     <use xlink:href="#DejaVuSans-Oblique-25" transform="translate(0 0.09375)"/>
    </g>
   </g>
   <g id="patch_4">
    <path d="M 22.580003 11.926184
C 23.292894 11.926184 23.976683 11.642949 24.480773 11.138859
C 24.984864 10.634769 25.268098 9.95098 25.268098 9.238088
C 25.268098 8.525197 24.984864 7.841408 24.480773 7.337318
C 23.976683 6.833228 23.292894 6.549993 22.580003 6.549993
C 21.867112 6.549993 21.183322 6.833228 20.679232 7.337318
C 20.175142 7.841408 19.891907 8.525197 19.891907 9.238088
C 19.891907 9.95098 20.175142 10.634769 20.679232 11.138859
C 21.183322 11.642949 21.867112 11.926184 22.580003 11.926184
z
" clip-path="url(#pd7283c97b9)" style="stroke: #000000; stroke-width: 2; stroke-linejoin: miter"/>
   </g>
   <g id="text_2">
    <!-- $A$ -->
    <g transform="translate(28.852226 14.348088) scale(0.14 -0.14)">
     <defs>
      <path id="DejaVuSans-Oblique-24" d="M 2356 4666
L 3072 4666
L 3938 0
L 3278 0
L 3084 1197
L 984 1197
L 325 0
L -341 0
L 2356 4666
z
M 2584 4044
L 1275 1722
L 2988 1722
L 2584 4044
z
" transform="scale(0.015625)"/>
     </defs>
     <use xlink:href="#DejaVuSans-Oblique-24" transform="translate(0 0.09375)"/>
    </g>
   </g>
  </g>
 </g>
 <defs>
  <clipPath id="pd7283c97b9">
   <rect x="0" y="0" width="45.160006" height="126"/>
  </clipPath>
 </defs>
</svg>
