<?xml version="1.0" encoding="UTF-8" standalone="no"?>
<svg
   version="1.1"
   width="1024"
   height="1024"
   id="svg29"
   sodipodi:docname="quote.svg"
   inkscape:version="1.3.2 (091e20e, 2023-11-25, custom)"
   xmlns:inkscape="http://www.inkscape.org/namespaces/inkscape"
   xmlns:sodipodi="http://sodipodi.sourceforge.net/DTD/sodipodi-0.dtd"
   xmlns="http://www.w3.org/2000/svg"
   xmlns:svg="http://www.w3.org/2000/svg">
  <sodipodi:namedview
     id="namedview29"
     pagecolor="#ffffff"
     bordercolor="#000000"
     borderopacity="0.25"
     inkscape:showpageshadow="2"
     inkscape:pageopacity="0.0"
     inkscape:pagecheckerboard="0"
     inkscape:deskcolor="#d1d1d1"
     inkscape:zoom="0.26450047"
     inkscape:cx="219.28127"
     inkscape:cy="540.64176"
     inkscape:window-width="1920"
     inkscape:window-height="992"
     inkscape:window-x="-8"
     inkscape:window-y="-8"
     inkscape:window-maximized="1"
     inkscape:current-layer="svg29" />
  <defs
     id="defs1">
    <clipPath
       id="bMWQTeJUpFyl">
      <path
         fill="none"
         stroke="none"
         d="M 0,0 H 117 V 133 H 0 Z"
         id="path1" />
    </clipPath>
  </defs>
  <g
     clip-path="url(#bMWQTeJUpFyl)"
     id="g29"
     transform="matrix(7.5,0,0,7.5,73.922501,54.346955)">
    <g
       transform="translate(-59,-239)"
       id="g28">
      <g
         transform="scale(21)"
         id="g27">
        <g
           transform="translate(3.1428571,12.580686)"
           id="g2">
          <path
             fill="#000000"
             stroke="none"
             paint-order="stroke fill markers"
             d="m 0.272,-0.447 q 0,0.035 -0.03,0.049 -0.011,0.004 -0.023,0.004 -0.046,0 -0.062,-0.059 -0.005,-0.021 -0.005,-0.046 0,-0.098 0.065,-0.17 0.021,-0.024 0.029,-0.024 0.01,0 0.01,0.011 0,0.005 -0.012,0.017 -0.07,0.069 -0.07,0.166 0,0.018 0.002,0.018 0.002,0 0.003,-0.003 0.016,-0.016 0.04,-0.016 0.04,0 0.051,0.037 0.002,0.008 0.002,0.016 m 0.194,0 q 0,0.035 -0.03,0.049 -0.011,0.004 -0.023,0.004 -0.046,0 -0.062,-0.059 -0.005,-0.021 -0.005,-0.046 0,-0.098 0.065,-0.17 0.007,-0.008 0.013,-0.014 l 0.002,-0.001 q 0.01,-0.009 0.014,-0.009 0.01,0 0.01,0.011 0,0.005 -0.012,0.017 -0.07,0.069 -0.07,0.166 0,0.018 0.002,0.018 0.002,0 0.003,-0.003 0.016,-0.016 0.04,-0.016 0.04,0 0.051,0.037 0.002,0.008 0.002,0.016 z"
             id="path2" />
        </g>
        <g
           transform="translate(3.6428571,12.580686)"
           id="g3">
          <path
             fill="#000000"
             stroke="none"
             paint-order="stroke fill markers"
             d="m 0.272,-0.447 q 0,0.035 -0.03,0.049 -0.011,0.004 -0.023,0.004 -0.046,0 -0.062,-0.059 -0.005,-0.021 -0.005,-0.046 0,-0.098 0.065,-0.17 0.021,-0.024 0.029,-0.024 0.01,0 0.01,0.011 0,0.005 -0.012,0.017 -0.07,0.069 -0.07,0.166 0,0.018 0.002,0.018 0.002,0 0.003,-0.003 0.016,-0.016 0.04,-0.016 0.04,0 0.051,0.037 0.002,0.008 0.002,0.016 m 0.194,0 q 0,0.035 -0.03,0.049 -0.011,0.004 -0.023,0.004 -0.046,0 -0.062,-0.059 -0.005,-0.021 -0.005,-0.046 0,-0.098 0.065,-0.17 0.007,-0.008 0.013,-0.014 l 0.002,-0.001 q 0.01,-0.009 0.014,-0.009 0.01,0 0.01,0.011 0,0.005 -0.012,0.017 -0.07,0.069 -0.07,0.166 0,0.018 0.002,0.018 0.002,0 0.003,-0.003 0.016,-0.016 0.04,-0.016 0.04,0 0.051,0.037 0.002,0.008 0.002,0.016 z"
             id="path3" />
        </g>
        <g
           transform="translate(4.1428571,12.580686)"
           id="g4">
          <path
             fill="#000000"
             stroke="none"
             paint-order="stroke fill markers"
             d="m 0.206,-0.589 q 0,0.098 -0.065,0.17 -0.021,0.024 -0.029,0.024 -0.01,0 -0.01,-0.011 0,-0.005 0.012,-0.017 0.07,-0.069 0.07,-0.166 0,-0.018 -0.002,-0.018 -0.002,0 -0.003,0.003 -0.016,0.016 -0.04,0.016 -0.04,0 -0.051,-0.037 -0.002,-0.008 -0.002,-0.016 0,-0.035 0.03,-0.049 0.011,-0.004 0.023,-0.004 0.046,0 0.062,0.059 0.005,0.021 0.005,0.046 z"
             id="path4" />
        </g>
        <g
           transform="translate(4.4208571,12.580686)"
           id="g5">
          <path
             fill="#000000"
             stroke="none"
             paint-order="stroke fill markers"
             d="m 0.272,-0.447 q 0,0.035 -0.03,0.049 -0.011,0.004 -0.023,0.004 -0.046,0 -0.062,-0.059 -0.005,-0.021 -0.005,-0.046 0,-0.098 0.065,-0.17 0.021,-0.024 0.029,-0.024 0.01,0 0.01,0.011 0,0.005 -0.012,0.017 -0.07,0.069 -0.07,0.166 0,0.018 0.002,0.018 0.002,0 0.003,-0.003 0.016,-0.016 0.04,-0.016 0.04,0 0.051,0.037 0.002,0.008 0.002,0.016 m 0.194,0 q 0,0.035 -0.03,0.049 -0.011,0.004 -0.023,0.004 -0.046,0 -0.062,-0.059 -0.005,-0.021 -0.005,-0.046 0,-0.098 0.065,-0.17 0.007,-0.008 0.013,-0.014 l 0.002,-0.001 q 0.01,-0.009 0.014,-0.009 0.01,0 0.01,0.011 0,0.005 -0.012,0.017 -0.07,0.069 -0.07,0.166 0,0.018 0.002,0.018 0.002,0 0.003,-0.003 0.016,-0.016 0.04,-0.016 0.04,0 0.051,0.037 0.002,0.008 0.002,0.016 z"
             id="path5" />
        </g>
        <g
           transform="translate(5.9210794,12.580686)"
           id="g6">
          <path
             fill="#000000"
             stroke="none"
             paint-order="stroke fill markers"
             d="m 0.153,-0.589 v 0 q 0,0.098 -0.065,0.17 -0.02,0.023 -0.029,0.024 -0.01,0 -0.01,-0.011 0,-0.005 0.012,-0.017 0.07,-0.069 0.07,-0.166 0,-0.018 -0.002,-0.018 -0.001,0 -0.003,0.003 -0.016,0.016 -0.04,0.016 -0.04,0 -0.051,-0.037 -0.002,-0.008 -0.002,-0.016 0,-0.035 0.03,-0.049 0.011,-0.004 0.023,-0.004 0.046,0 0.062,0.059 0.005,0.021 0.005,0.046 m 0.194,0 q 0,0.098 -0.065,0.17 -0.007,0.008 -0.013,0.014 l -0.002,0.001 q -0.01,0.009 -0.014,0.009 -0.01,0 -0.01,-0.011 0,-0.005 0.012,-0.017 0.07,-0.069 0.07,-0.166 0,-0.018 -0.002,-0.018 -0.001,0 -0.003,0.003 -0.016,0.016 -0.04,0.016 -0.04,0 -0.051,-0.037 -0.002,-0.008 -0.002,-0.016 0,-0.035 0.03,-0.049 0.011,-0.004 0.023,-0.004 0.046,0 0.062,0.059 0.005,0.021 0.005,0.046 z"
             id="path6" />
        </g>
        <g
           transform="translate(6.4210794,12.580686)"
           id="g7">
          <path
             fill="#000000"
             stroke="none"
             paint-order="stroke fill markers"
             d="m 0.272,-0.447 q 0,0.035 -0.03,0.049 -0.011,0.004 -0.023,0.004 -0.046,0 -0.062,-0.059 -0.005,-0.021 -0.005,-0.046 0,-0.098 0.065,-0.17 0.021,-0.024 0.029,-0.024 0.01,0 0.01,0.011 0,0.005 -0.012,0.017 -0.07,0.069 -0.07,0.166 0,0.018 0.002,0.018 0.002,0 0.003,-0.003 0.016,-0.016 0.04,-0.016 0.04,0 0.051,0.037 0.002,0.008 0.002,0.016 m 0.194,0 q 0,0.035 -0.03,0.049 -0.011,0.004 -0.023,0.004 -0.046,0 -0.062,-0.059 -0.005,-0.021 -0.005,-0.046 0,-0.098 0.065,-0.17 0.007,-0.008 0.013,-0.014 l 0.002,-0.001 q 0.01,-0.009 0.014,-0.009 0.01,0 0.01,0.011 0,0.005 -0.012,0.017 -0.07,0.069 -0.07,0.166 0,0.018 0.002,0.018 0.002,0 0.003,-0.003 0.016,-0.016 0.04,-0.016 0.04,0 0.051,0.037 0.002,0.008 0.002,0.016 z"
             id="path7" />
        </g>
        <g
           transform="translate(3.4208571,13.705686)"
           id="g8">
          <path
             fill="#000000"
             stroke="none"
             paint-order="stroke fill markers"
             d="m 0.272,-0.447 q 0,0.035 -0.03,0.049 -0.011,0.004 -0.023,0.004 -0.046,0 -0.062,-0.059 -0.005,-0.021 -0.005,-0.046 0,-0.098 0.065,-0.17 0.021,-0.024 0.029,-0.024 0.01,0 0.01,0.011 0,0.005 -0.012,0.017 -0.07,0.069 -0.07,0.166 0,0.018 0.002,0.018 0.002,0 0.003,-0.003 0.016,-0.016 0.04,-0.016 0.04,0 0.051,0.037 0.002,0.008 0.002,0.016 m 0.194,0 q 0,0.035 -0.03,0.049 -0.011,0.004 -0.023,0.004 -0.046,0 -0.062,-0.059 -0.005,-0.021 -0.005,-0.046 0,-0.098 0.065,-0.17 0.007,-0.008 0.013,-0.014 l 0.002,-0.001 q 0.01,-0.009 0.014,-0.009 0.01,0 0.01,0.011 0,0.005 -0.012,0.017 -0.07,0.069 -0.07,0.166 0,0.018 0.002,0.018 0.002,0 0.003,-0.003 0.016,-0.016 0.04,-0.016 0.04,0 0.051,0.037 0.002,0.008 0.002,0.016 z"
             id="path8" />
        </g>
        <g
           transform="translate(3.9208571,13.705686)"
           id="g9">
          <path
             fill="#000000"
             stroke="none"
             paint-order="stroke fill markers"
             d="m 0.272,-0.447 q 0,0.035 -0.03,0.049 -0.011,0.004 -0.023,0.004 -0.046,0 -0.062,-0.059 -0.005,-0.021 -0.005,-0.046 0,-0.098 0.065,-0.17 0.021,-0.024 0.029,-0.024 0.01,0 0.01,0.011 0,0.005 -0.012,0.017 -0.07,0.069 -0.07,0.166 0,0.018 0.002,0.018 0.002,0 0.003,-0.003 0.016,-0.016 0.04,-0.016 0.04,0 0.051,0.037 0.002,0.008 0.002,0.016 m 0.194,0 q 0,0.035 -0.03,0.049 -0.011,0.004 -0.023,0.004 -0.046,0 -0.062,-0.059 -0.005,-0.021 -0.005,-0.046 0,-0.098 0.065,-0.17 0.007,-0.008 0.013,-0.014 l 0.002,-0.001 q 0.01,-0.009 0.014,-0.009 0.01,0 0.01,0.011 0,0.005 -0.012,0.017 -0.07,0.069 -0.07,0.166 0,0.018 0.002,0.018 0.002,0 0.003,-0.003 0.016,-0.016 0.04,-0.016 0.04,0 0.051,0.037 0.002,0.008 0.002,0.016 z"
             id="path9" />
        </g>
        <g
           transform="translate(4.4208571,13.705686)"
           id="g10">
          <path
             fill="#000000"
             stroke="none"
             paint-order="stroke fill markers"
             d="m 0.272,-0.447 q 0,0.035 -0.03,0.049 -0.011,0.004 -0.023,0.004 -0.046,0 -0.062,-0.059 -0.005,-0.021 -0.005,-0.046 0,-0.098 0.065,-0.17 0.021,-0.024 0.029,-0.024 0.01,0 0.01,0.011 0,0.005 -0.012,0.017 -0.07,0.069 -0.07,0.166 0,0.018 0.002,0.018 0.002,0 0.003,-0.003 0.016,-0.016 0.04,-0.016 0.04,0 0.051,0.037 0.002,0.008 0.002,0.016 m 0.194,0 q 0,0.035 -0.03,0.049 -0.011,0.004 -0.023,0.004 -0.046,0 -0.062,-0.059 -0.005,-0.021 -0.005,-0.046 0,-0.098 0.065,-0.17 0.007,-0.008 0.013,-0.014 l 0.002,-0.001 q 0.01,-0.009 0.014,-0.009 0.01,0 0.01,0.011 0,0.005 -0.012,0.017 -0.07,0.069 -0.07,0.166 0,0.018 0.002,0.018 0.002,0 0.003,-0.003 0.016,-0.016 0.04,-0.016 0.04,0 0.051,0.037 0.002,0.008 0.002,0.016 z"
             id="path10" />
        </g>
        <g
           transform="translate(5.9210794,13.705686)"
           id="g11">
          <path
             fill="#000000"
             stroke="none"
             paint-order="stroke fill markers"
             d="m 0.272,-0.447 q 0,0.035 -0.03,0.049 -0.011,0.004 -0.023,0.004 -0.046,0 -0.062,-0.059 -0.005,-0.021 -0.005,-0.046 0,-0.098 0.065,-0.17 0.021,-0.024 0.029,-0.024 0.01,0 0.01,0.011 0,0.005 -0.012,0.017 -0.07,0.069 -0.07,0.166 0,0.018 0.002,0.018 0.002,0 0.003,-0.003 0.016,-0.016 0.04,-0.016 0.04,0 0.051,0.037 0.002,0.008 0.002,0.016 m 0.194,0 q 0,0.035 -0.03,0.049 -0.011,0.004 -0.023,0.004 -0.046,0 -0.062,-0.059 -0.005,-0.021 -0.005,-0.046 0,-0.098 0.065,-0.17 0.007,-0.008 0.013,-0.014 l 0.002,-0.001 q 0.01,-0.009 0.014,-0.009 0.01,0 0.01,0.011 0,0.005 -0.012,0.017 -0.07,0.069 -0.07,0.166 0,0.018 0.002,0.018 0.002,0 0.003,-0.003 0.016,-0.016 0.04,-0.016 0.04,0 0.051,0.037 0.002,0.008 0.002,0.016 z"
             id="path11" />
        </g>
        <g
           transform="translate(4.6428571,14.830686)"
           id="g12">
          <path
             fill="#000000"
             stroke="none"
             paint-order="stroke fill markers"
             d="m 0.206,-0.589 q 0,0.098 -0.065,0.17 -0.021,0.024 -0.029,0.024 -0.01,0 -0.01,-0.011 0,-0.005 0.012,-0.017 0.07,-0.069 0.07,-0.166 0,-0.018 -0.002,-0.018 -0.002,0 -0.003,0.003 -0.016,0.016 -0.04,0.016 -0.04,0 -0.051,-0.037 -0.002,-0.008 -0.002,-0.016 0,-0.035 0.03,-0.049 0.011,-0.004 0.023,-0.004 0.046,0 0.062,0.059 0.005,0.021 0.005,0.046 z"
             id="path12" />
        </g>
        <g
           transform="translate(5.9210794,14.830686)"
           id="g13">
          <path
             fill="#000000"
             stroke="none"
             paint-order="stroke fill markers"
             d="m 0.272,-0.447 q 0,0.035 -0.03,0.049 -0.011,0.004 -0.023,0.004 -0.046,0 -0.062,-0.059 -0.005,-0.021 -0.005,-0.046 0,-0.098 0.065,-0.17 0.021,-0.024 0.029,-0.024 0.01,0 0.01,0.011 0,0.005 -0.012,0.017 -0.07,0.069 -0.07,0.166 0,0.018 0.002,0.018 0.002,0 0.003,-0.003 0.016,-0.016 0.04,-0.016 0.04,0 0.051,0.037 0.002,0.008 0.002,0.016 m 0.194,0 q 0,0.035 -0.03,0.049 -0.011,0.004 -0.023,0.004 -0.046,0 -0.062,-0.059 -0.005,-0.021 -0.005,-0.046 0,-0.098 0.065,-0.17 0.007,-0.008 0.013,-0.014 l 0.002,-0.001 q 0.01,-0.009 0.014,-0.009 0.01,0 0.01,0.011 0,0.005 -0.012,0.017 -0.07,0.069 -0.07,0.166 0,0.018 0.002,0.018 0.002,0 0.003,-0.003 0.016,-0.016 0.04,-0.016 0.04,0 0.051,0.037 0.002,0.008 0.002,0.016 z"
             id="path13" />
        </g>
        <g
           transform="translate(6.4210794,14.830686)"
           id="g14">
          <path
             fill="#000000"
             stroke="none"
             paint-order="stroke fill markers"
             d="m 0.153,-0.589 v 0 q 0,0.098 -0.065,0.17 -0.02,0.023 -0.029,0.024 -0.01,0 -0.01,-0.011 0,-0.005 0.012,-0.017 0.07,-0.069 0.07,-0.166 0,-0.018 -0.002,-0.018 -0.001,0 -0.003,0.003 -0.016,0.016 -0.04,0.016 -0.04,0 -0.051,-0.037 -0.002,-0.008 -0.002,-0.016 0,-0.035 0.03,-0.049 0.011,-0.004 0.023,-0.004 0.046,0 0.062,0.059 0.005,0.021 0.005,0.046 m 0.194,0 q 0,0.098 -0.065,0.17 -0.007,0.008 -0.013,0.014 l -0.002,0.001 q -0.01,0.009 -0.014,0.009 -0.01,0 -0.01,-0.011 0,-0.005 0.012,-0.017 0.07,-0.069 0.07,-0.166 0,-0.018 -0.002,-0.018 -0.001,0 -0.003,0.003 -0.016,0.016 -0.04,0.016 -0.04,0 -0.051,-0.037 -0.002,-0.008 -0.002,-0.016 0,-0.035 0.03,-0.049 0.011,-0.004 0.023,-0.004 0.046,0 0.062,0.059 0.005,0.021 0.005,0.046 z"
             id="path14" />
        </g>
        <g
           transform="translate(6.9210794,14.830686)"
           id="g15">
          <path
             fill="#000000"
             stroke="none"
             paint-order="stroke fill markers"
             d="m 0.153,-0.589 v 0 q 0,0.098 -0.065,0.17 -0.02,0.023 -0.029,0.024 -0.01,0 -0.01,-0.011 0,-0.005 0.012,-0.017 0.07,-0.069 0.07,-0.166 0,-0.018 -0.002,-0.018 -0.001,0 -0.003,0.003 -0.016,0.016 -0.04,0.016 -0.04,0 -0.051,-0.037 -0.002,-0.008 -0.002,-0.016 0,-0.035 0.03,-0.049 0.011,-0.004 0.023,-0.004 0.046,0 0.062,0.059 0.005,0.021 0.005,0.046 m 0.194,0 q 0,0.098 -0.065,0.17 -0.007,0.008 -0.013,0.014 l -0.002,0.001 q -0.01,0.009 -0.014,0.009 -0.01,0 -0.01,-0.011 0,-0.005 0.012,-0.017 0.07,-0.069 0.07,-0.166 0,-0.018 -0.002,-0.018 -0.001,0 -0.003,0.003 -0.016,0.016 -0.04,0.016 -0.04,0 -0.051,-0.037 -0.002,-0.008 -0.002,-0.016 0,-0.035 0.03,-0.049 0.011,-0.004 0.023,-0.004 0.046,0 0.062,0.059 0.005,0.021 0.005,0.046 z"
             id="path15" />
        </g>
        <g
           transform="translate(7.4210794,14.830686)"
           id="g16">
          <path
             fill="#000000"
             stroke="none"
             paint-order="stroke fill markers"
             d="m 0.272,-0.447 q 0,0.035 -0.03,0.049 -0.011,0.004 -0.023,0.004 -0.046,0 -0.062,-0.059 -0.005,-0.021 -0.005,-0.046 0,-0.098 0.065,-0.17 0.021,-0.024 0.029,-0.024 0.01,0 0.01,0.011 0,0.005 -0.012,0.017 -0.07,0.069 -0.07,0.166 0,0.018 0.002,0.018 0.002,0 0.003,-0.003 0.016,-0.016 0.04,-0.016 0.04,0 0.051,0.037 0.002,0.008 0.002,0.016 m 0.194,0 q 0,0.035 -0.03,0.049 -0.011,0.004 -0.023,0.004 -0.046,0 -0.062,-0.059 -0.005,-0.021 -0.005,-0.046 0,-0.098 0.065,-0.17 0.007,-0.008 0.013,-0.014 l 0.002,-0.001 q 0.01,-0.009 0.014,-0.009 0.01,0 0.01,0.011 0,0.005 -0.012,0.017 -0.07,0.069 -0.07,0.166 0,0.018 0.002,0.018 0.002,0 0.003,-0.003 0.016,-0.016 0.04,-0.016 0.04,0 0.051,0.037 0.002,0.008 0.002,0.016 z"
             id="path16" />
        </g>
        <g
           transform="translate(3.3648571,15.955686)"
           id="g17">
          <path
             fill="#000000"
             stroke="none"
             paint-order="stroke fill markers"
             d="m 0.272,-0.447 q 0,0.035 -0.03,0.049 -0.011,0.004 -0.023,0.004 -0.046,0 -0.062,-0.059 -0.005,-0.021 -0.005,-0.046 0,-0.098 0.065,-0.17 0.021,-0.024 0.029,-0.024 0.01,0 0.01,0.011 0,0.005 -0.012,0.017 -0.07,0.069 -0.07,0.166 0,0.018 0.002,0.018 0.002,0 0.003,-0.003 0.016,-0.016 0.04,-0.016 0.04,0 0.051,0.037 0.002,0.008 0.002,0.016 m 0.194,0 q 0,0.035 -0.03,0.049 -0.011,0.004 -0.023,0.004 -0.046,0 -0.062,-0.059 -0.005,-0.021 -0.005,-0.046 0,-0.098 0.065,-0.17 0.007,-0.008 0.013,-0.014 l 0.002,-0.001 q 0.01,-0.009 0.014,-0.009 0.01,0 0.01,0.011 0,0.005 -0.012,0.017 -0.07,0.069 -0.07,0.166 0,0.018 0.002,0.018 0.002,0 0.003,-0.003 0.016,-0.016 0.04,-0.016 0.04,0 0.051,0.037 0.002,0.008 0.002,0.016 z"
             id="path17" />
        </g>
        <g
           transform="translate(3.8648571,15.955686)"
           id="g18">
          <path
             fill="#000000"
             stroke="none"
             paint-order="stroke fill markers"
             d="m 0.206,-0.589 q 0,0.098 -0.065,0.17 -0.021,0.024 -0.029,0.024 -0.01,0 -0.01,-0.011 0,-0.005 0.012,-0.017 0.07,-0.069 0.07,-0.166 0,-0.018 -0.002,-0.018 -0.002,0 -0.003,0.003 -0.016,0.016 -0.04,0.016 -0.04,0 -0.051,-0.037 -0.002,-0.008 -0.002,-0.016 0,-0.035 0.03,-0.049 0.011,-0.004 0.023,-0.004 0.046,0 0.062,0.059 0.005,0.021 0.005,0.046 z"
             id="path18" />
        </g>
        <g
           transform="translate(4.1428571,15.955686)"
           id="g19">
          <path
             fill="#000000"
             stroke="none"
             paint-order="stroke fill markers"
             d="m 0.272,-0.447 q 0,0.035 -0.03,0.049 -0.011,0.004 -0.023,0.004 -0.046,0 -0.062,-0.059 -0.005,-0.021 -0.005,-0.046 0,-0.098 0.065,-0.17 0.021,-0.024 0.029,-0.024 0.01,0 0.01,0.011 0,0.005 -0.012,0.017 -0.07,0.069 -0.07,0.166 0,0.018 0.002,0.018 0.002,0 0.003,-0.003 0.016,-0.016 0.04,-0.016 0.04,0 0.051,0.037 0.002,0.008 0.002,0.016 m 0.194,0 q 0,0.035 -0.03,0.049 -0.011,0.004 -0.023,0.004 -0.046,0 -0.062,-0.059 -0.005,-0.021 -0.005,-0.046 0,-0.098 0.065,-0.17 0.007,-0.008 0.013,-0.014 l 0.002,-0.001 q 0.01,-0.009 0.014,-0.009 0.01,0 0.01,0.011 0,0.005 -0.012,0.017 -0.07,0.069 -0.07,0.166 0,0.018 0.002,0.018 0.002,0 0.003,-0.003 0.016,-0.016 0.04,-0.016 0.04,0 0.051,0.037 0.002,0.008 0.002,0.016 z"
             id="path19" />
        </g>
        <g
           transform="translate(4.6428571,15.955686)"
           id="g20">
          <path
             fill="#000000"
             stroke="none"
             paint-order="stroke fill markers"
             d="m 0.206,-0.589 q 0,0.098 -0.065,0.17 -0.021,0.024 -0.029,0.024 -0.01,0 -0.01,-0.011 0,-0.005 0.012,-0.017 0.07,-0.069 0.07,-0.166 0,-0.018 -0.002,-0.018 -0.002,0 -0.003,0.003 -0.016,0.016 -0.04,0.016 -0.04,0 -0.051,-0.037 -0.002,-0.008 -0.002,-0.016 0,-0.035 0.03,-0.049 0.011,-0.004 0.023,-0.004 0.046,0 0.062,0.059 0.005,0.021 0.005,0.046 z"
             id="path20" />
        </g>
        <g
           transform="translate(5.9210794,15.955686)"
           id="g21">
          <path
             fill="#000000"
             stroke="none"
             paint-order="stroke fill markers"
             d="m 0.153,-0.589 v 0 q 0,0.098 -0.065,0.17 -0.02,0.023 -0.029,0.024 -0.01,0 -0.01,-0.011 0,-0.005 0.012,-0.017 0.07,-0.069 0.07,-0.166 0,-0.018 -0.002,-0.018 -0.001,0 -0.003,0.003 -0.016,0.016 -0.04,0.016 -0.04,0 -0.051,-0.037 -0.002,-0.008 -0.002,-0.016 0,-0.035 0.03,-0.049 0.011,-0.004 0.023,-0.004 0.046,0 0.062,0.059 0.005,0.021 0.005,0.046 m 0.194,0 q 0,0.098 -0.065,0.17 -0.007,0.008 -0.013,0.014 l -0.002,0.001 q -0.01,0.009 -0.014,0.009 -0.01,0 -0.01,-0.011 0,-0.005 0.012,-0.017 0.07,-0.069 0.07,-0.166 0,-0.018 -0.002,-0.018 -0.001,0 -0.003,0.003 -0.016,0.016 -0.04,0.016 -0.04,0 -0.051,-0.037 -0.002,-0.008 -0.002,-0.016 0,-0.035 0.03,-0.049 0.011,-0.004 0.023,-0.004 0.046,0 0.062,0.059 0.005,0.021 0.005,0.046 z"
             id="path21" />
        </g>
        <g
           transform="translate(6.4210794,15.955686)"
           id="g22">
          <path
             fill="#000000"
             stroke="none"
             paint-order="stroke fill markers"
             d="m 0.153,-0.589 v 0 q 0,0.098 -0.065,0.17 -0.02,0.023 -0.029,0.024 -0.01,0 -0.01,-0.011 0,-0.005 0.012,-0.017 0.07,-0.069 0.07,-0.166 0,-0.018 -0.002,-0.018 -0.001,0 -0.003,0.003 -0.016,0.016 -0.04,0.016 -0.04,0 -0.051,-0.037 -0.002,-0.008 -0.002,-0.016 0,-0.035 0.03,-0.049 0.011,-0.004 0.023,-0.004 0.046,0 0.062,0.059 0.005,0.021 0.005,0.046 m 0.194,0 q 0,0.098 -0.065,0.17 -0.007,0.008 -0.013,0.014 l -0.002,0.001 q -0.01,0.009 -0.014,0.009 -0.01,0 -0.01,-0.011 0,-0.005 0.012,-0.017 0.07,-0.069 0.07,-0.166 0,-0.018 -0.002,-0.018 -0.001,0 -0.003,0.003 -0.016,0.016 -0.04,0.016 -0.04,0 -0.051,-0.037 -0.002,-0.008 -0.002,-0.016 0,-0.035 0.03,-0.049 0.011,-0.004 0.023,-0.004 0.046,0 0.062,0.059 0.005,0.021 0.005,0.046 z"
             id="path22" />
        </g>
        <g
           transform="translate(4.1428571,17.080686)"
           id="g23">
          <path
             fill="#000000"
             stroke="none"
             paint-order="stroke fill markers"
             d="m 0.206,-0.589 q 0,0.098 -0.065,0.17 -0.021,0.024 -0.029,0.024 -0.01,0 -0.01,-0.011 0,-0.005 0.012,-0.017 0.07,-0.069 0.07,-0.166 0,-0.018 -0.002,-0.018 -0.002,0 -0.003,0.003 -0.016,0.016 -0.04,0.016 -0.04,0 -0.051,-0.037 -0.002,-0.008 -0.002,-0.016 0,-0.035 0.03,-0.049 0.011,-0.004 0.023,-0.004 0.046,0 0.062,0.059 0.005,0.021 0.005,0.046 z"
             id="path23" />
        </g>
        <g
           transform="translate(4.4208571,17.080686)"
           id="g24">
          <path
             fill="#000000"
             stroke="none"
             paint-order="stroke fill markers"
             d="m 0.272,-0.447 q 0,0.035 -0.03,0.049 -0.011,0.004 -0.023,0.004 -0.046,0 -0.062,-0.059 -0.005,-0.021 -0.005,-0.046 0,-0.098 0.065,-0.17 0.021,-0.024 0.029,-0.024 0.01,0 0.01,0.011 0,0.005 -0.012,0.017 -0.07,0.069 -0.07,0.166 0,0.018 0.002,0.018 0.002,0 0.003,-0.003 0.016,-0.016 0.04,-0.016 0.04,0 0.051,0.037 0.002,0.008 0.002,0.016 m 0.194,0 q 0,0.035 -0.03,0.049 -0.011,0.004 -0.023,0.004 -0.046,0 -0.062,-0.059 -0.005,-0.021 -0.005,-0.046 0,-0.098 0.065,-0.17 0.007,-0.008 0.013,-0.014 l 0.002,-0.001 q 0.01,-0.009 0.014,-0.009 0.01,0 0.01,0.011 0,0.005 -0.012,0.017 -0.07,0.069 -0.07,0.166 0,0.018 0.002,0.018 0.002,0 0.003,-0.003 0.016,-0.016 0.04,-0.016 0.04,0 0.051,0.037 0.002,0.008 0.002,0.016 z"
             id="path24" />
        </g>
        <g
           transform="translate(5.9210794,17.080686)"
           id="g25">
          <path
             fill="#000000"
             stroke="none"
             paint-order="stroke fill markers"
             d="m 0.272,-0.447 q 0,0.035 -0.03,0.049 -0.011,0.004 -0.023,0.004 -0.046,0 -0.062,-0.059 -0.005,-0.021 -0.005,-0.046 0,-0.098 0.065,-0.17 0.021,-0.024 0.029,-0.024 0.01,0 0.01,0.011 0,0.005 -0.012,0.017 -0.07,0.069 -0.07,0.166 0,0.018 0.002,0.018 0.002,0 0.003,-0.003 0.016,-0.016 0.04,-0.016 0.04,0 0.051,0.037 0.002,0.008 0.002,0.016 m 0.194,0 q 0,0.035 -0.03,0.049 -0.011,0.004 -0.023,0.004 -0.046,0 -0.062,-0.059 -0.005,-0.021 -0.005,-0.046 0,-0.098 0.065,-0.17 0.007,-0.008 0.013,-0.014 l 0.002,-0.001 q 0.01,-0.009 0.014,-0.009 0.01,0 0.01,0.011 0,0.005 -0.012,0.017 -0.07,0.069 -0.07,0.166 0,0.018 0.002,0.018 0.002,0 0.003,-0.003 0.016,-0.016 0.04,-0.016 0.04,0 0.051,0.037 0.002,0.008 0.002,0.016 z"
             id="path25" />
        </g>
        <g
           transform="translate(6.4210794,17.080686)"
           id="g26">
          <path
             fill="#000000"
             stroke="none"
             paint-order="stroke fill markers"
             d="m 0.206,-0.589 q 0,0.098 -0.065,0.17 -0.021,0.024 -0.029,0.024 -0.01,0 -0.01,-0.011 0,-0.005 0.012,-0.017 0.07,-0.069 0.07,-0.166 0,-0.018 -0.002,-0.018 -0.002,0 -0.003,0.003 -0.016,0.016 -0.04,0.016 -0.04,0 -0.051,-0.037 -0.002,-0.008 -0.002,-0.016 0,-0.035 0.03,-0.049 0.011,-0.004 0.023,-0.004 0.046,0 0.062,0.059 0.005,0.021 0.005,0.046 z"
             id="path26" />
        </g>
      </g>
    </g>
  </g>
</svg>
